<?xml version="1.0" encoding="UTF-8" standalone="no"?>
<!DOCTYPE svg PUBLIC "-//W3C//DTD SVG 1.1//EN"
 "http://www.w3.org/Graphics/SVG/1.1/DTD/svg11.dtd">
<!-- Generated by graphviz version 2.40.1 (20161225.0304)
 -->
<!-- Title: AST_freeChildren Pages: 1 -->
<svg width="294pt" height="46pt"
 viewBox="0.00 0.00 294.00 46.00" xmlns="http://www.w3.org/2000/svg" xmlns:xlink="http://www.w3.org/1999/xlink">
<g id="graph0" class="graph" transform="scale(1 1) rotate(0) translate(4 42)">
<title>AST_freeChildren</title>
<polygon fill="#ffffff" stroke="transparent" points="-4,4 -4,-42 290,-42 290,4 -4,4"/>
<!-- Node6 -->
<g id="node1" class="node">
<title>Node6</title>
<g id="a_node1"><a xlink:title="Destructor for an AST.">
<polygon fill="#bfbfbf" stroke="#000000" points="0,-.5 0,-19.5 94,-19.5 94,-.5 0,-.5"/>
<text text-anchor="middle" x="47" y="-7.5" font-family="Helvetica,sans-Serif" font-size="10.00" fill="#000000">AST_freeChildren</text>
</a>
</g>
</g>
<!-- Node7 -->
<g id="node2" class="node">
<title>Node7</title>
<g id="a_node2"><a xlink:href="AST_8c.html#a3ca8abc74574b984118c6364414ee5e4" target="_top" xlink:title="Destructor for ast objects.">
<polygon fill="#ffffff" stroke="#000000" points="130,-.5 130,-19.5 188,-19.5 188,-.5 130,-.5"/>
<text text-anchor="middle" x="159" y="-7.5" font-family="Helvetica,sans-Serif" font-size="10.00" fill="#000000">AST_free</text>
</a>
</g>
</g>
<!-- Node6&#45;&gt;Node7 -->
<g id="edge1" class="edge">
<title>Node6&#45;&gt;Node7</title>
<path fill="none" stroke="#191970" d="M94.1735,-10C102.6645,-10 111.4333,-10 119.6722,-10"/>
<polygon fill="#191970" stroke="#191970" points="119.7642,-13.5001 129.7641,-10 119.7641,-6.5001 119.7642,-13.5001"/>
</g>
<!-- Node7&#45;&gt;Node7 -->
<g id="edge2" class="edge">
<title>Node7&#45;&gt;Node7</title>
<path fill="none" stroke="#191970" d="M144.2036,-19.7571C137.0054,-28.5653 141.9375,-38 159,-38 169.6641,-38 175.5897,-34.3146 176.7769,-29.4"/>
<polygon fill="#191970" stroke="#191970" points="180.0934,-28.2775 173.7964,-19.7571 173.4056,-30.3447 180.0934,-28.2775"/>
</g>
<!-- Node8 -->
<g id="node3" class="node">
<title>Node8</title>
<g id="a_node3"><a xlink:href="token_8h.html#a863ec10d282f1f7e0dbbbaae6cec4f15" target="_top" xlink:title=" ">
<polygon fill="#ffffff" stroke="#000000" points="224,-.5 224,-19.5 286,-19.5 286,-.5 224,-.5"/>
<text text-anchor="middle" x="255" y="-7.5" font-family="Helvetica,sans-Serif" font-size="10.00" fill="#000000">token_free</text>
</a>
</g>
</g>
<!-- Node7&#45;&gt;Node8 -->
<g id="edge3" class="edge">
<title>Node7&#45;&gt;Node8</title>
<path fill="none" stroke="#191970" d="M188.0637,-10C196.0674,-10 204.9077,-10 213.4683,-10"/>
<polygon fill="#191970" stroke="#191970" points="213.6968,-13.5001 223.6968,-10 213.6967,-6.5001 213.6968,-13.5001"/>
</g>
</g>
</svg>
