<?xml version="1.0" encoding="UTF-8" standalone="no"?>
<!DOCTYPE svg PUBLIC "-//W3C//DTD SVG 1.1//EN"
 "http://www.w3.org/Graphics/SVG/1.1/DTD/svg11.dtd">
<!-- Generated by graphviz version 2.40.1 (20161225.0304)
 -->
<!-- Title: parser/include/AST.h Pages: 1 -->
<svg width="748pt" height="151pt"
 viewBox="0.00 0.00 747.50 151.00" xmlns="http://www.w3.org/2000/svg" xmlns:xlink="http://www.w3.org/1999/xlink">
<g id="graph0" class="graph" transform="scale(1 1) rotate(0) translate(4 147)">
<title>parser/include/AST.h</title>
<polygon fill="#ffffff" stroke="transparent" points="-4,4 -4,-147 743.5,-147 743.5,4 -4,4"/>
<!-- Node4 -->
<g id="node1" class="node">
<title>Node4</title>
<g id="a_node1"><a xlink:title=" ">
<polygon fill="#bfbfbf" stroke="#000000" points="318.5,-123.5 318.5,-142.5 425.5,-142.5 425.5,-123.5 318.5,-123.5"/>
<text text-anchor="middle" x="372" y="-130.5" font-family="Helvetica,sans-Serif" font-size="10.00" fill="#000000">parser/include/AST.h</text>
</a>
</g>
</g>
<!-- Node5 -->
<g id="node2" class="node">
<title>Node5</title>
<g id="a_node2"><a xlink:href="main_8c.html" target="_top" xlink:title=" ">
<polygon fill="#ffffff" stroke="#000000" points="0,-6 0,-25 70,-25 70,-6 0,-6"/>
<text text-anchor="middle" x="35" y="-13" font-family="Helvetica,sans-Serif" font-size="10.00" fill="#000000">main/main.c</text>
</a>
</g>
</g>
<!-- Node4&#45;&gt;Node5 -->
<g id="edge1" class="edge">
<title>Node4&#45;&gt;Node5</title>
<path fill="none" stroke="#191970" d="M320.7792,-120.9959C286.9798,-112.6024 241.9202,-100.5081 203,-87 148.3486,-68.0321 86.2384,-39.771 55.0785,-25.1066"/>
<polygon fill="#191970" stroke="#191970" points="320.3416,-124.4924 330.8879,-123.4794 322.0118,-117.6946 320.3416,-124.4924"/>
</g>
<!-- Node6 -->
<g id="node3" class="node">
<title>Node6</title>
<g id="a_node3"><a xlink:href="AST_8c.html" target="_top" xlink:title=" ">
<polygon fill="#ffffff" stroke="#000000" points="88,-6 88,-25 162,-25 162,-6 88,-6"/>
<text text-anchor="middle" x="125" y="-13" font-family="Helvetica,sans-Serif" font-size="10.00" fill="#000000">parser/AST.c</text>
</a>
</g>
</g>
<!-- Node4&#45;&gt;Node6 -->
<g id="edge2" class="edge">
<title>Node4&#45;&gt;Node6</title>
<path fill="none" stroke="#191970" d="M330.2961,-120.3116C304.8591,-112.0125 271.9684,-100.2703 244,-87 204.1512,-68.0927 160.4645,-39.6803 138.7898,-25.0138"/>
<polygon fill="#191970" stroke="#191970" points="329.4116,-123.7036 340.0029,-123.43 331.5527,-117.039 329.4116,-123.7036"/>
</g>
<!-- Node7 -->
<g id="node4" class="node">
<title>Node7</title>
<g id="a_node4"><a xlink:href="parser_8h.html" target="_top" xlink:title=" ">
<polygon fill="#ffffff" stroke="#000000" points="271.5,-67.5 271.5,-86.5 386.5,-86.5 386.5,-67.5 271.5,-67.5"/>
<text text-anchor="middle" x="329" y="-74.5" font-family="Helvetica,sans-Serif" font-size="10.00" fill="#000000">parser/include/parser.h</text>
</a>
</g>
</g>
<!-- Node4&#45;&gt;Node7 -->
<g id="edge3" class="edge">
<title>Node4&#45;&gt;Node7</title>
<path fill="none" stroke="#191970" d="M358.3408,-115.2112C351.0737,-105.7472 342.4219,-94.4797 336.4042,-86.6427"/>
<polygon fill="#191970" stroke="#191970" points="355.6436,-117.4456 364.51,-123.2455 361.1957,-113.1824 355.6436,-117.4456"/>
</g>
<!-- Node8 -->
<g id="node5" class="node">
<title>Node8</title>
<g id="a_node5"><a xlink:href="expressions_8c.html" target="_top" xlink:title=" ">
<polygon fill="#ffffff" stroke="#000000" points="180,-.5 180,-30.5 278,-30.5 278,-.5 180,-.5"/>
<text text-anchor="start" x="188" y="-18.5" font-family="Helvetica,sans-Serif" font-size="10.00" fill="#000000">parser/parserfuncs</text>
<text text-anchor="middle" x="229" y="-7.5" font-family="Helvetica,sans-Serif" font-size="10.00" fill="#000000">/expressions.c</text>
</a>
</g>
</g>
<!-- Node4&#45;&gt;Node8 -->
<g id="edge11" class="edge">
<title>Node4&#45;&gt;Node8</title>
<path fill="none" stroke="#191970" d="M320.5074,-120.2684C300.2996,-113.1852 278.1343,-102.5586 262,-87 245.8604,-71.4363 236.8565,-46.47 232.4693,-30.5355"/>
<polygon fill="#191970" stroke="#191970" points="319.6425,-123.6683 330.2354,-123.4671 321.829,-117.0185 319.6425,-123.6683"/>
</g>
<!-- Node9 -->
<g id="node6" class="node">
<title>Node9</title>
<g id="a_node6"><a xlink:href="floats_8c.html" target="_top" xlink:title=" ">
<polygon fill="#ffffff" stroke="#000000" points="296,-.5 296,-30.5 394,-30.5 394,-.5 296,-.5"/>
<text text-anchor="start" x="304" y="-18.5" font-family="Helvetica,sans-Serif" font-size="10.00" fill="#000000">parser/parserfuncs</text>
<text text-anchor="middle" x="345" y="-7.5" font-family="Helvetica,sans-Serif" font-size="10.00" fill="#000000">/floats.c</text>
</a>
</g>
</g>
<!-- Node4&#45;&gt;Node9 -->
<g id="edge12" class="edge">
<title>Node4&#45;&gt;Node9</title>
<path fill="none" stroke="#191970" d="M385.2998,-115.1731C393.5808,-101.7891 401.5216,-83.0796 395,-67 389.0986,-52.4495 376.8939,-39.7464 366.0204,-30.5969"/>
<polygon fill="#191970" stroke="#191970" points="382.3795,-113.2436 379.686,-123.4903 388.1816,-117.1597 382.3795,-113.2436"/>
</g>
<!-- Node10 -->
<g id="node7" class="node">
<title>Node10</title>
<g id="a_node7"><a xlink:href="integers_8c.html" target="_top" xlink:title=" ">
<polygon fill="#ffffff" stroke="#000000" points="412,-.5 412,-30.5 510,-30.5 510,-.5 412,-.5"/>
<text text-anchor="start" x="420" y="-18.5" font-family="Helvetica,sans-Serif" font-size="10.00" fill="#000000">parser/parserfuncs</text>
<text text-anchor="middle" x="461" y="-7.5" font-family="Helvetica,sans-Serif" font-size="10.00" fill="#000000">/integers.c</text>
</a>
</g>
</g>
<!-- Node4&#45;&gt;Node10 -->
<g id="edge13" class="edge">
<title>Node4&#45;&gt;Node10</title>
<path fill="none" stroke="#191970" d="M387.3926,-115.6232C394.7319,-107.1439 403.5209,-96.7018 411,-87 425.6119,-68.0457 441.2332,-45.2523 451.052,-30.5788"/>
<polygon fill="#191970" stroke="#191970" points="384.5859,-113.5159 380.6387,-123.348 389.8558,-118.1234 384.5859,-113.5159"/>
</g>
<!-- Node11 -->
<g id="node8" class="node">
<title>Node11</title>
<g id="a_node8"><a xlink:href="parser_8c.html" target="_top" xlink:title=" ">
<polygon fill="#ffffff" stroke="#000000" points="528,-.5 528,-30.5 626,-30.5 626,-.5 528,-.5"/>
<text text-anchor="start" x="536" y="-18.5" font-family="Helvetica,sans-Serif" font-size="10.00" fill="#000000">parser/parserfuncs</text>
<text text-anchor="middle" x="577" y="-7.5" font-family="Helvetica,sans-Serif" font-size="10.00" fill="#000000">/parser.c</text>
</a>
</g>
</g>
<!-- Node4&#45;&gt;Node11 -->
<g id="edge14" class="edge">
<title>Node4&#45;&gt;Node11</title>
<path fill="none" stroke="#191970" d="M397.4735,-118.3994C436.6279,-95.9572 511.2134,-53.2069 550.8007,-30.5167"/>
<polygon fill="#191970" stroke="#191970" points="395.7114,-115.3751 388.776,-123.3845 399.1924,-121.4482 395.7114,-115.3751"/>
</g>
<!-- Node12 -->
<g id="node9" class="node">
<title>Node12</title>
<g id="a_node9"><a xlink:href="parserutil_8c.html" target="_top" xlink:title=" ">
<polygon fill="#ffffff" stroke="#000000" points="644.5,-6 644.5,-25 739.5,-25 739.5,-6 644.5,-6"/>
<text text-anchor="middle" x="692" y="-13" font-family="Helvetica,sans-Serif" font-size="10.00" fill="#000000">parser/parserutil.c</text>
</a>
</g>
</g>
<!-- Node4&#45;&gt;Node12 -->
<g id="edge15" class="edge">
<title>Node4&#45;&gt;Node12</title>
<path fill="none" stroke="#191970" d="M407.3071,-120.0357C472.1001,-96.2445 608.5835,-46.1295 665.8422,-25.1048"/>
<polygon fill="#191970" stroke="#191970" points="406.0966,-116.7516 397.9159,-123.484 408.5095,-123.3226 406.0966,-116.7516"/>
</g>
<!-- Node7&#45;&gt;Node5 -->
<g id="edge4" class="edge">
<title>Node7&#45;&gt;Node5</title>
<path fill="none" stroke="#191970" d="M261.1667,-67.4653C210.5158,-59.6363 139.8411,-47.2066 79,-31 72.7391,-29.3322 66.0944,-27.1932 59.9172,-25.0402"/>
<polygon fill="#191970" stroke="#191970" points="260.9268,-70.9691 271.3403,-69.0176 261.9827,-64.0492 260.9268,-70.9691"/>
</g>
<!-- Node7&#45;&gt;Node6 -->
<g id="edge5" class="edge">
<title>Node7&#45;&gt;Node6</title>
<path fill="none" stroke="#191970" d="M284.7967,-64.6639C253.0334,-55.6698 209.247,-43.0057 171,-31 165.05,-29.1323 158.6963,-27.0493 152.6693,-25.0314"/>
<polygon fill="#191970" stroke="#191970" points="284.0899,-68.1012 294.6647,-67.4497 285.9917,-61.3644 284.0899,-68.1012"/>
</g>
<!-- Node7&#45;&gt;Node8 -->
<g id="edge6" class="edge">
<title>Node7&#45;&gt;Node8</title>
<path fill="none" stroke="#191970" d="M304.8107,-62.1236C289.2452,-52.5508 269.0817,-40.1502 253.4628,-30.5446"/>
<polygon fill="#191970" stroke="#191970" points="303.0234,-65.1333 313.375,-67.3906 306.6905,-59.1707 303.0234,-65.1333"/>
</g>
<!-- Node7&#45;&gt;Node9 -->
<g id="edge7" class="edge">
<title>Node7&#45;&gt;Node9</title>
<path fill="none" stroke="#191970" d="M334.032,-57.6584C336.3093,-48.9047 338.9606,-38.7139 341.086,-30.5446"/>
<polygon fill="#191970" stroke="#191970" points="330.6306,-56.8315 331.5,-67.3906 337.4051,-58.594 330.6306,-56.8315"/>
</g>
<!-- Node7&#45;&gt;Node10 -->
<g id="edge8" class="edge">
<title>Node7&#45;&gt;Node10</title>
<path fill="none" stroke="#191970" d="M358.9335,-63.0537C379.7286,-53.3651 407.4178,-40.4644 428.7092,-30.5446"/>
<polygon fill="#191970" stroke="#191970" points="357.2113,-59.9948 349.625,-67.3906 360.1676,-66.3399 357.2113,-59.9948"/>
</g>
<!-- Node7&#45;&gt;Node11 -->
<g id="edge9" class="edge">
<title>Node7&#45;&gt;Node11</title>
<path fill="none" stroke="#191970" d="M379.355,-65.1508C417.6963,-56.0458 471.7502,-43.0315 519,-31 521.9291,-30.2541 524.9389,-29.4783 527.9735,-28.689"/>
<polygon fill="#191970" stroke="#191970" points="378.3916,-61.7821 369.4688,-67.4946 380.0065,-68.5933 378.3916,-61.7821"/>
</g>
<!-- Node7&#45;&gt;Node12 -->
<g id="edge10" class="edge">
<title>Node7&#45;&gt;Node12</title>
<path fill="none" stroke="#191970" d="M396.6902,-69.1205C458.9656,-61.3289 553.7035,-48.1035 635,-31 643.0284,-29.311 651.6055,-27.1639 659.6042,-25.01"/>
<polygon fill="#191970" stroke="#191970" points="396.0929,-65.6676 386.5993,-70.371 396.9539,-72.6145 396.0929,-65.6676"/>
</g>
</g>
</svg>
