<?xml version="1.0" encoding="UTF-8" standalone="no"?>
<!DOCTYPE svg PUBLIC "-//W3C//DTD SVG 1.1//EN"
 "http://www.w3.org/Graphics/SVG/1.1/DTD/svg11.dtd">
<!-- Generated by graphviz version 2.40.1 (20161225.0304)
 -->
<!-- Title: parser/include/AST.h Pages: 1 -->
<svg width="766pt" height="420pt"
 viewBox="0.00 0.00 765.50 420.00" xmlns="http://www.w3.org/2000/svg" xmlns:xlink="http://www.w3.org/1999/xlink">
<g id="graph0" class="graph" transform="scale(1 1) rotate(0) translate(4 416)">
<title>parser/include/AST.h</title>
<polygon fill="#ffffff" stroke="transparent" points="-4,4 -4,-416 761.5,-416 761.5,4 -4,4"/>
<!-- Node0 -->
<g id="node1" class="node">
<title>Node0</title>
<g id="a_node1"><a xlink:title=" ">
<polygon fill="#bfbfbf" stroke="#000000" points="0,-392.5 0,-411.5 107,-411.5 107,-392.5 0,-392.5"/>
<text text-anchor="middle" x="53.5" y="-399.5" font-family="Helvetica,sans-Serif" font-size="10.00" fill="#000000">parser/include/AST.h</text>
</a>
</g>
</g>
<!-- Node1 -->
<g id="node2" class="node">
<title>Node1</title>
<g id="a_node2"><a xlink:title=" ">
<polygon fill="#ffffff" stroke="#bfbfbf" points="137,-.5 137,-19.5 186,-19.5 186,-.5 137,-.5"/>
<text text-anchor="middle" x="161.5" y="-7.5" font-family="Helvetica,sans-Serif" font-size="10.00" fill="#000000">stdint.h</text>
</a>
</g>
</g>
<!-- Node0&#45;&gt;Node1 -->
<g id="edge1" class="edge">
<title>Node0&#45;&gt;Node1</title>
<path fill="none" stroke="#191970" d="M49.6636,-392.2883C42.4313,-373.0769 27.5,-328.7253 27.5,-290 27.5,-290 27.5,-290 27.5,-122 27.5,-69.9007 87.8717,-37.2816 127.5698,-21.4643"/>
<polygon fill="#191970" stroke="#191970" points="128.8289,-24.73 136.9223,-17.8929 126.3317,-18.1906 128.8289,-24.73"/>
</g>
<!-- Node2 -->
<g id="node3" class="node">
<title>Node2</title>
<g id="a_node3"><a xlink:href="token_8h.html" target="_top" xlink:title=" ">
<polygon fill="#ffffff" stroke="#000000" points="167,-336.5 167,-355.5 216,-355.5 216,-336.5 167,-336.5"/>
<text text-anchor="middle" x="191.5" y="-343.5" font-family="Helvetica,sans-Serif" font-size="10.00" fill="#000000">token.h</text>
</a>
</g>
</g>
<!-- Node0&#45;&gt;Node2 -->
<g id="edge2" class="edge">
<title>Node0&#45;&gt;Node2</title>
<path fill="none" stroke="#191970" d="M77.223,-392.3733C99.6737,-383.2629 133.5739,-369.5062 158.6255,-359.3404"/>
<polygon fill="#191970" stroke="#191970" points="160.1365,-362.5045 168.0865,-355.5011 157.5043,-356.0182 160.1365,-362.5045"/>
</g>
<!-- Node2&#45;&gt;Node1 -->
<g id="edge29" class="edge">
<title>Node2&#45;&gt;Node1</title>
<path fill="none" stroke="#191970" d="M166.9068,-337.0618C130.2385,-321.965 65.5,-287.7063 65.5,-234 65.5,-234 65.5,-234 65.5,-122 65.5,-78.7864 107.2079,-43.8806 135.6416,-25.1053"/>
<polygon fill="#191970" stroke="#191970" points="137.7698,-27.9 144.3371,-19.5861 134.0186,-21.9899 137.7698,-27.9"/>
</g>
<!-- Node3 -->
<g id="node4" class="node">
<title>Node3</title>
<g id="a_node4"><a xlink:href="builtins_8h.html" target="_top" xlink:title=" ">
<polygon fill="#ffffff" stroke="#000000" points="322.5,-280.5 322.5,-299.5 378.5,-299.5 378.5,-280.5 322.5,-280.5"/>
<text text-anchor="middle" x="350.5" y="-287.5" font-family="Helvetica,sans-Serif" font-size="10.00" fill="#000000">builtins.h</text>
</a>
</g>
</g>
<!-- Node2&#45;&gt;Node3 -->
<g id="edge3" class="edge">
<title>Node2&#45;&gt;Node3</title>
<path fill="none" stroke="#191970" d="M216.3438,-337.25C242.4745,-328.0467 283.8744,-313.4656 313.7765,-302.9341"/>
<polygon fill="#191970" stroke="#191970" points="315.1684,-306.1546 323.4378,-299.5314 312.8429,-299.5522 315.1684,-306.1546"/>
</g>
<!-- Node9 -->
<g id="node10" class="node">
<title>Node9</title>
<g id="a_node10"><a xlink:title=" ">
<polygon fill="#ffffff" stroke="#bfbfbf" points="665.5,-.5 665.5,-19.5 721.5,-19.5 721.5,-.5 665.5,-.5"/>
<text text-anchor="middle" x="693.5" y="-7.5" font-family="Helvetica,sans-Serif" font-size="10.00" fill="#000000">stdbool.h</text>
</a>
</g>
</g>
<!-- Node2&#45;&gt;Node9 -->
<g id="edge28" class="edge">
<title>Node2&#45;&gt;Node9</title>
<path fill="none" stroke="#191970" d="M216.1843,-343.7832C325.123,-333.6762 757.5,-290.0322 757.5,-234 757.5,-234 757.5,-234 757.5,-122 757.5,-84.2379 729.7346,-47.6312 710.7798,-27.0404"/>
<polygon fill="#191970" stroke="#191970" points="713.2231,-24.5312 703.7827,-19.7219 708.1635,-29.3686 713.2231,-24.5312"/>
</g>
<!-- Node4 -->
<g id="node5" class="node">
<title>Node4</title>
<g id="a_node5"><a xlink:href="builtinutils_8h.html" target="_top" xlink:title=" ">
<polygon fill="#ffffff" stroke="#000000" points="579.5,-.5 579.5,-19.5 647.5,-19.5 647.5,-.5 579.5,-.5"/>
<text text-anchor="middle" x="613.5" y="-7.5" font-family="Helvetica,sans-Serif" font-size="10.00" fill="#000000">builtinutils.h</text>
</a>
</g>
</g>
<!-- Node3&#45;&gt;Node4 -->
<g id="edge4" class="edge">
<title>Node3&#45;&gt;Node4</title>
<path fill="none" stroke="#191970" d="M378.6814,-288.1736C455.0637,-282.9386 661.666,-266.781 681.5,-244 737.8962,-179.2243 662.0814,-70.0268 628.2814,-27.5989"/>
<polygon fill="#191970" stroke="#191970" points="630.9766,-25.3656 621.9509,-19.817 625.5464,-29.7831 630.9766,-25.3656"/>
</g>
<!-- Node5 -->
<g id="node6" class="node">
<title>Node5</title>
<g id="a_node6"><a xlink:href="helios__code_8h.html" target="_top" xlink:title=" ">
<polygon fill="#ffffff" stroke="#000000" points="170,-224.5 170,-243.5 247,-243.5 247,-224.5 170,-224.5"/>
<text text-anchor="middle" x="208.5" y="-231.5" font-family="Helvetica,sans-Serif" font-size="10.00" fill="#000000">helios_code.h</text>
</a>
</g>
</g>
<!-- Node3&#45;&gt;Node5 -->
<g id="edge5" class="edge">
<title>Node3&#45;&gt;Node5</title>
<path fill="none" stroke="#191970" d="M326.0893,-280.3733C302.8858,-271.2226 267.7962,-257.3844 241.9858,-247.2057"/>
<polygon fill="#191970" stroke="#191970" points="243.1789,-243.9139 232.5921,-243.5011 240.6108,-250.4258 243.1789,-243.9139"/>
</g>
<!-- Node6 -->
<g id="node7" class="node">
<title>Node6</title>
<g id="a_node7"><a xlink:href="helios__object_8h.html" target="_top" xlink:title=" ">
<polygon fill="#ffffff" stroke="#000000" points="261.5,-168.5 261.5,-187.5 343.5,-187.5 343.5,-168.5 261.5,-168.5"/>
<text text-anchor="middle" x="302.5" y="-175.5" font-family="Helvetica,sans-Serif" font-size="10.00" fill="#000000">helios_object.h</text>
</a>
</g>
</g>
<!-- Node3&#45;&gt;Node6 -->
<g id="edge22" class="edge">
<title>Node3&#45;&gt;Node6</title>
<path fill="none" stroke="#191970" d="M322.3443,-287.3763C274.4419,-282.2665 180.3317,-269.206 160.5,-244 132.6848,-208.647 200.1524,-191.4219 251.3491,-183.6603"/>
<polygon fill="#191970" stroke="#191970" points="251.9347,-187.1122 261.3384,-182.2316 250.9436,-180.1828 251.9347,-187.1122"/>
</g>
<!-- Node8 -->
<g id="node9" class="node">
<title>Node8</title>
<g id="a_node9"><a xlink:href="helios__memory_8h.html" target="_top" xlink:title=" ">
<polygon fill="#ffffff" stroke="#000000" points="502.5,-56.5 502.5,-75.5 592.5,-75.5 592.5,-56.5 502.5,-56.5"/>
<text text-anchor="middle" x="547.5" y="-63.5" font-family="Helvetica,sans-Serif" font-size="10.00" fill="#000000">helios_memory.h</text>
</a>
</g>
</g>
<!-- Node3&#45;&gt;Node8 -->
<g id="edge25" class="edge">
<title>Node3&#45;&gt;Node8</title>
<path fill="none" stroke="#191970" d="M378.6459,-287.926C451.8834,-282.2453 644.0057,-265.4209 662.5,-244 709.8352,-189.1741 616.3507,-113.4011 570.644,-81.325"/>
<polygon fill="#191970" stroke="#191970" points="572.4177,-78.297 562.1955,-75.5116 568.4496,-84.0636 572.4177,-78.297"/>
</g>
<!-- Node12 -->
<g id="node13" class="node">
<title>Node12</title>
<g id="a_node13"><a xlink:href="helios__float_8h.html" target="_top" xlink:title=" ">
<polygon fill="#ffffff" stroke="#000000" points="265.5,-224.5 265.5,-243.5 339.5,-243.5 339.5,-224.5 265.5,-224.5"/>
<text text-anchor="middle" x="302.5" y="-231.5" font-family="Helvetica,sans-Serif" font-size="10.00" fill="#000000">helios_float.h</text>
</a>
</g>
</g>
<!-- Node3&#45;&gt;Node12 -->
<g id="edge15" class="edge">
<title>Node3&#45;&gt;Node12</title>
<path fill="none" stroke="#191970" d="M342.139,-280.2455C335.325,-272.2958 325.5319,-260.8706 317.3848,-251.3656"/>
<polygon fill="#191970" stroke="#191970" points="319.9305,-248.9575 310.7651,-243.6427 314.6157,-253.513 319.9305,-248.9575"/>
</g>
<!-- Node13 -->
<g id="node14" class="node">
<title>Node13</title>
<g id="a_node14"><a xlink:href="helios__hashmap_8h.html" target="_top" xlink:title=" ">
<polygon fill="#ffffff" stroke="#000000" points="558,-224.5 558,-243.5 653,-243.5 653,-224.5 558,-224.5"/>
<text text-anchor="middle" x="605.5" y="-231.5" font-family="Helvetica,sans-Serif" font-size="10.00" fill="#000000">helios_hashmap.h</text>
</a>
</g>
</g>
<!-- Node3&#45;&gt;Node13 -->
<g id="edge17" class="edge">
<title>Node3&#45;&gt;Node13</title>
<path fill="none" stroke="#191970" d="M378.7638,-283.7931C420.5485,-274.6168 499.5468,-257.2681 552.3666,-245.6685"/>
<polygon fill="#191970" stroke="#191970" points="553.2195,-249.0647 562.236,-243.5011 551.7179,-242.2276 553.2195,-249.0647"/>
</g>
<!-- Node14 -->
<g id="node15" class="node">
<title>Node14</title>
<g id="a_node15"><a xlink:href="helios__integer_8h.html" target="_top" xlink:title=" ">
<polygon fill="#ffffff" stroke="#000000" points="357.5,-224.5 357.5,-243.5 441.5,-243.5 441.5,-224.5 357.5,-224.5"/>
<text text-anchor="middle" x="399.5" y="-231.5" font-family="Helvetica,sans-Serif" font-size="10.00" fill="#000000">helios_integer.h</text>
</a>
</g>
</g>
<!-- Node3&#45;&gt;Node14 -->
<g id="edge20" class="edge">
<title>Node3&#45;&gt;Node14</title>
<path fill="none" stroke="#191970" d="M359.0351,-280.2455C365.9912,-272.2958 375.9883,-260.8706 384.3051,-251.3656"/>
<polygon fill="#191970" stroke="#191970" points="387.1116,-253.4732 391.0627,-243.6427 381.8436,-248.8637 387.1116,-253.4732"/>
</g>
<!-- Node15 -->
<g id="node16" class="node">
<title>Node15</title>
<g id="a_node16"><a xlink:href="helios__string_8h.html" target="_top" xlink:title=" ">
<polygon fill="#ffffff" stroke="#000000" points="459.5,-224.5 459.5,-243.5 539.5,-243.5 539.5,-224.5 459.5,-224.5"/>
<text text-anchor="middle" x="499.5" y="-231.5" font-family="Helvetica,sans-Serif" font-size="10.00" fill="#000000">helios_string.h</text>
</a>
</g>
</g>
<!-- Node3&#45;&gt;Node15 -->
<g id="edge23" class="edge">
<title>Node3&#45;&gt;Node15</title>
<path fill="none" stroke="#191970" d="M376.114,-280.3733C400.5687,-271.1822 437.6054,-257.2624 464.7209,-247.0713"/>
<polygon fill="#191970" stroke="#191970" points="466.0909,-250.2956 474.2202,-243.5011 463.6281,-243.7431 466.0909,-250.2956"/>
</g>
<!-- Node16 -->
<g id="node17" class="node">
<title>Node16</title>
<g id="a_node17"><a xlink:href="serialize_8h.html" target="_top" xlink:title=" ">
<polygon fill="#ffffff" stroke="#000000" points="138,-168.5 138,-187.5 199,-187.5 199,-168.5 138,-168.5"/>
<text text-anchor="middle" x="168.5" y="-175.5" font-family="Helvetica,sans-Serif" font-size="10.00" fill="#000000">serialize.h</text>
</a>
</g>
</g>
<!-- Node3&#45;&gt;Node16 -->
<g id="edge26" class="edge">
<title>Node3&#45;&gt;Node16</title>
<path fill="none" stroke="#191970" d="M322.4652,-287.7577C272.5929,-283.1241 171.6923,-270.6199 150.5,-244 139.5774,-230.28 147.2429,-210.4302 155.6877,-196.086"/>
<polygon fill="#191970" stroke="#191970" points="158.6962,-197.8785 161.1621,-187.5747 152.8088,-194.0918 158.6962,-197.8785"/>
</g>
<!-- Node5&#45;&gt;Node6 -->
<g id="edge6" class="edge">
<title>Node5&#45;&gt;Node6</title>
<path fill="none" stroke="#191970" d="M224.8736,-224.2455C239.4308,-215.5731 260.931,-202.7645 277.6152,-192.825"/>
<polygon fill="#191970" stroke="#191970" points="279.5144,-195.7676 286.3141,-187.6427 275.9317,-189.7539 279.5144,-195.7676"/>
</g>
<!-- Node7 -->
<g id="node8" class="node">
<title>Node7</title>
<g id="a_node8"><a xlink:href="helios__type_8h.html" target="_top" xlink:title=" ">
<polygon fill="#ffffff" stroke="#000000" points="220.5,-112.5 220.5,-131.5 294.5,-131.5 294.5,-112.5 220.5,-112.5"/>
<text text-anchor="middle" x="257.5" y="-119.5" font-family="Helvetica,sans-Serif" font-size="10.00" fill="#000000">helios_type.h</text>
</a>
</g>
</g>
<!-- Node6&#45;&gt;Node7 -->
<g id="edge7" class="edge">
<title>Node6&#45;&gt;Node7</title>
<path fill="none" stroke="#191970" d="M294.6616,-168.2455C288.338,-160.3761 279.2776,-149.101 271.6864,-139.6542"/>
<polygon fill="#191970" stroke="#191970" points="274.2408,-137.2454 265.2486,-131.6427 268.7842,-141.6302 274.2408,-137.2454"/>
</g>
<!-- Node7&#45;&gt;Node1 -->
<g id="edge13" class="edge">
<title>Node7&#45;&gt;Node1</title>
<path fill="none" stroke="#191970" d="M256.9333,-112.499C255.6692,-98.7255 251.5962,-73.004 238.5,-56 227.4053,-41.5947 210.4123,-30.7604 195.2098,-23.2365"/>
<polygon fill="#191970" stroke="#191970" points="196.5879,-20.0175 186.0442,-18.9773 193.6379,-26.3656 196.5879,-20.0175"/>
</g>
<!-- Node7&#45;&gt;Node8 -->
<g id="edge8" class="edge">
<title>Node7&#45;&gt;Node8</title>
<path fill="none" stroke="#191970" d="M294.5233,-114.8507C344.5077,-105.1985 433.9853,-87.9201 492.0245,-76.7125"/>
<polygon fill="#191970" stroke="#191970" points="492.9684,-80.095 502.1234,-74.7624 491.6411,-73.222 492.9684,-80.095"/>
</g>
<!-- Node11 -->
<g id="node12" class="node">
<title>Node11</title>
<g id="a_node12"><a xlink:title=" ">
<polygon fill="#ffffff" stroke="#bfbfbf" points="181.5,-56.5 181.5,-75.5 229.5,-75.5 229.5,-56.5 181.5,-56.5"/>
<text text-anchor="middle" x="205.5" y="-63.5" font-family="Helvetica,sans-Serif" font-size="10.00" fill="#000000">stdlib.h</text>
</a>
</g>
</g>
<!-- Node7&#45;&gt;Node11 -->
<g id="edge14" class="edge">
<title>Node7&#45;&gt;Node11</title>
<path fill="none" stroke="#191970" d="M248.4423,-112.2455C240.9858,-104.2155 230.2366,-92.6394 221.3583,-83.0781"/>
<polygon fill="#191970" stroke="#191970" points="223.8232,-80.589 214.4539,-75.6427 218.6937,-85.3522 223.8232,-80.589"/>
</g>
<!-- Node8&#45;&gt;Node1 -->
<g id="edge12" class="edge">
<title>Node8&#45;&gt;Node1</title>
<path fill="none" stroke="#191970" d="M502.4654,-59.4665C424.5309,-48.1599 266.1497,-25.1823 196.1255,-15.0234"/>
<polygon fill="#191970" stroke="#191970" points="196.4618,-11.5356 186.0629,-13.5635 195.4567,-18.4631 196.4618,-11.5356"/>
</g>
<!-- Node8&#45;&gt;Node4 -->
<g id="edge9" class="edge">
<title>Node8&#45;&gt;Node4</title>
<path fill="none" stroke="#191970" d="M558.9963,-56.2455C568.7442,-47.9746 582.9259,-35.9416 594.3798,-26.2232"/>
<polygon fill="#191970" stroke="#191970" points="596.7747,-28.7813 602.1354,-19.6427 592.2459,-23.4437 596.7747,-28.7813"/>
</g>
<!-- Node8&#45;&gt;Node9 -->
<g id="edge10" class="edge">
<title>Node8&#45;&gt;Node9</title>
<path fill="none" stroke="#191970" d="M572.5983,-56.3733C596.4555,-47.2226 632.5335,-33.3844 659.071,-23.2057"/>
<polygon fill="#191970" stroke="#191970" points="660.6459,-26.3503 668.7292,-19.5011 658.139,-19.8145 660.6459,-26.3503"/>
</g>
<!-- Node10 -->
<g id="node11" class="node">
<title>Node10</title>
<g id="a_node11"><a xlink:title=" ">
<polygon fill="#ffffff" stroke="#bfbfbf" points="509.5,-.5 509.5,-19.5 561.5,-19.5 561.5,-.5 509.5,-.5"/>
<text text-anchor="middle" x="535.5" y="-7.5" font-family="Helvetica,sans-Serif" font-size="10.00" fill="#000000">stddef.h</text>
</a>
</g>
</g>
<!-- Node8&#45;&gt;Node10 -->
<g id="edge11" class="edge">
<title>Node8&#45;&gt;Node10</title>
<path fill="none" stroke="#191970" d="M545.4098,-56.2455C543.8439,-48.9382 541.6488,-38.6944 539.7224,-29.7046"/>
<polygon fill="#191970" stroke="#191970" points="543.084,-28.6873 537.5663,-19.6427 536.2393,-30.1541 543.084,-28.6873"/>
</g>
<!-- Node12&#45;&gt;Node6 -->
<g id="edge16" class="edge">
<title>Node12&#45;&gt;Node6</title>
<path fill="none" stroke="#191970" d="M302.5,-224.2455C302.5,-216.9382 302.5,-206.6944 302.5,-197.7046"/>
<polygon fill="#191970" stroke="#191970" points="306.0001,-197.6426 302.5,-187.6427 299.0001,-197.6427 306.0001,-197.6426"/>
</g>
<!-- Node13&#45;&gt;Node6 -->
<g id="edge18" class="edge">
<title>Node13&#45;&gt;Node6</title>
<path fill="none" stroke="#191970" d="M557.8229,-225.1884C502.1676,-214.9023 410.4938,-197.9592 353.4643,-187.4191"/>
<polygon fill="#191970" stroke="#191970" points="354.0514,-183.9685 343.5819,-185.5927 352.7792,-190.8519 354.0514,-183.9685"/>
</g>
<!-- Node13&#45;&gt;Node9 -->
<g id="edge19" class="edge">
<title>Node13&#45;&gt;Node9</title>
<path fill="none" stroke="#191970" d="M609.2813,-224.375C622.6798,-190.2697 668.0523,-74.7761 686.0527,-28.9567"/>
<polygon fill="#191970" stroke="#191970" points="689.3339,-30.1765 689.7328,-19.5891 682.8186,-27.6169 689.3339,-30.1765"/>
</g>
<!-- Node14&#45;&gt;Node6 -->
<g id="edge21" class="edge">
<title>Node14&#45;&gt;Node6</title>
<path fill="none" stroke="#191970" d="M382.6039,-224.2455C367.582,-215.5731 345.3957,-202.7645 328.179,-192.825"/>
<polygon fill="#191970" stroke="#191970" points="329.6128,-189.6114 319.2025,-187.6427 326.1129,-195.6737 329.6128,-189.6114"/>
</g>
<!-- Node15&#45;&gt;Node6 -->
<g id="edge24" class="edge">
<title>Node15&#45;&gt;Node6</title>
<path fill="none" stroke="#191970" d="M465.6345,-224.3733C432.451,-214.9404 381.745,-200.5265 345.6806,-190.2747"/>
<polygon fill="#191970" stroke="#191970" points="346.4995,-186.8689 335.9236,-187.5011 344.5855,-193.6021 346.4995,-186.8689"/>
</g>
<!-- Node16&#45;&gt;Node7 -->
<g id="edge27" class="edge">
<title>Node16&#45;&gt;Node7</title>
<path fill="none" stroke="#191970" d="M184.0026,-168.2455C197.658,-159.6534 217.7657,-147.0014 233.4989,-137.1018"/>
<polygon fill="#191970" stroke="#191970" points="235.5751,-139.9307 242.175,-131.6427 231.8471,-134.006 235.5751,-139.9307"/>
</g>
</g>
</svg>
