<?xml version="1.0" encoding="UTF-8" standalone="no"?>
<!DOCTYPE svg PUBLIC "-//W3C//DTD SVG 1.1//EN"
 "http://www.w3.org/Graphics/SVG/1.1/DTD/svg11.dtd">
<!-- Generated by graphviz version 2.40.1 (20161225.0304)
 -->
<!-- Title: AST_free Pages: 1 -->
<svg width="164pt" height="46pt"
 viewBox="0.00 0.00 164.00 46.00" xmlns="http://www.w3.org/2000/svg" xmlns:xlink="http://www.w3.org/1999/xlink">
<g id="graph0" class="graph" transform="scale(1 1) rotate(0) translate(4 42)">
<title>AST_free</title>
<polygon fill="#ffffff" stroke="transparent" points="-4,4 -4,-42 160,-42 160,4 -4,4"/>
<!-- Node1 -->
<g id="node1" class="node">
<title>Node1</title>
<g id="a_node1"><a xlink:title="Destructor for ast objects.">
<polygon fill="#bfbfbf" stroke="#000000" points="0,-.5 0,-19.5 58,-19.5 58,-.5 0,-.5"/>
<text text-anchor="middle" x="29" y="-7.5" font-family="Helvetica,sans-Serif" font-size="10.00" fill="#000000">AST_free</text>
</a>
</g>
</g>
<!-- Node1&#45;&gt;Node1 -->
<g id="edge1" class="edge">
<title>Node1&#45;&gt;Node1</title>
<path fill="none" stroke="#191970" d="M14.2036,-19.7571C7.0054,-28.5653 11.9375,-38 29,-38 39.6641,-38 45.5897,-34.3146 46.7769,-29.4"/>
<polygon fill="#191970" stroke="#191970" points="50.0934,-28.2775 43.7964,-19.7571 43.4056,-30.3447 50.0934,-28.2775"/>
</g>
<!-- Node2 -->
<g id="node2" class="node">
<title>Node2</title>
<g id="a_node2"><a xlink:href="token_8h.html#a863ec10d282f1f7e0dbbbaae6cec4f15" target="_top" xlink:title="Destroys a token object.Also frees the token&#39;s value.">
<polygon fill="#ffffff" stroke="#000000" points="94,-.5 94,-19.5 156,-19.5 156,-.5 94,-.5"/>
<text text-anchor="middle" x="125" y="-7.5" font-family="Helvetica,sans-Serif" font-size="10.00" fill="#000000">token_free</text>
</a>
</g>
</g>
<!-- Node1&#45;&gt;Node2 -->
<g id="edge2" class="edge">
<title>Node1&#45;&gt;Node2</title>
<path fill="none" stroke="#191970" d="M58.0637,-10C66.0674,-10 74.9077,-10 83.4683,-10"/>
<polygon fill="#191970" stroke="#191970" points="83.6968,-13.5001 93.6968,-10 83.6967,-6.5001 83.6968,-13.5001"/>
</g>
</g>
</svg>
