<?xml version="1.0" encoding="UTF-8" standalone="no"?>
<!DOCTYPE svg PUBLIC "-//W3C//DTD SVG 1.1//EN"
 "http://www.w3.org/Graphics/SVG/1.1/DTD/svg11.dtd">
<!-- Generated by graphviz version 2.40.1 (20161225.0304)
 -->
<!-- Title: parser/AST.c Pages: 1 -->
<svg width="1064pt" height="532pt"
 viewBox="0.00 0.00 1064.00 532.00" xmlns="http://www.w3.org/2000/svg" xmlns:xlink="http://www.w3.org/1999/xlink">
<g id="graph0" class="graph" transform="scale(1 1) rotate(0) translate(4 528)">
<title>parser/AST.c</title>
<polygon fill="#ffffff" stroke="transparent" points="-4,4 -4,-528 1060,-528 1060,4 -4,4"/>
<!-- Node0 -->
<g id="node1" class="node">
<title>Node0</title>
<g id="a_node1"><a xlink:title=" ">
<polygon fill="#bfbfbf" stroke="#000000" points="286,-504.5 286,-523.5 360,-523.5 360,-504.5 286,-504.5"/>
<text text-anchor="middle" x="323" y="-511.5" font-family="Helvetica,sans-Serif" font-size="10.00" fill="#000000">parser/AST.c</text>
</a>
</g>
</g>
<!-- Node1 -->
<g id="node2" class="node">
<title>Node1</title>
<g id="a_node2"><a xlink:href="AST_8h.html" target="_top" xlink:title=" ">
<polygon fill="#ffffff" stroke="#000000" points="28,-392.5 28,-411.5 72,-411.5 72,-392.5 28,-392.5"/>
<text text-anchor="middle" x="50" y="-399.5" font-family="Helvetica,sans-Serif" font-size="10.00" fill="#000000">AST.h</text>
</a>
</g>
</g>
<!-- Node0&#45;&gt;Node1 -->
<g id="edge1" class="edge">
<title>Node0&#45;&gt;Node1</title>
<path fill="none" stroke="#191970" d="M285.6181,-509.284C231.154,-501.898 133.1857,-486.5139 103,-468 84.2975,-456.5291 69.3834,-435.9903 60.1998,-420.8616"/>
<polygon fill="#191970" stroke="#191970" points="63.034,-418.7696 55.0102,-411.8508 56.9681,-422.2632 63.034,-418.7696"/>
</g>
<!-- Node2 -->
<g id="node3" class="node">
<title>Node2</title>
<g id="a_node3"><a xlink:title=" ">
<polygon fill="#ffffff" stroke="#bfbfbf" points="147.5,-.5 147.5,-19.5 196.5,-19.5 196.5,-.5 147.5,-.5"/>
<text text-anchor="middle" x="172" y="-7.5" font-family="Helvetica,sans-Serif" font-size="10.00" fill="#000000">stdint.h</text>
</a>
</g>
</g>
<!-- Node0&#45;&gt;Node2 -->
<g id="edge40" class="edge">
<title>Node0&#45;&gt;Node2</title>
<path fill="none" stroke="#191970" d="M285.5747,-509.4167C226.1819,-501.7419 113.3436,-485.4102 77,-468 36.3502,-448.527 0,-447.0733 0,-402 0,-402 0,-402 0,-122 0,-56.9926 87.3472,-27.7596 137.5502,-16.3265"/>
<polygon fill="#191970" stroke="#191970" points="138.3195,-19.7411 147.3566,-14.211 136.8434,-12.8985 138.3195,-19.7411"/>
</g>
<!-- Node3 -->
<g id="node4" class="node">
<title>Node3</title>
<g id="a_node4"><a xlink:href="token_8h.html" target="_top" xlink:title=" ">
<polygon fill="#ffffff" stroke="#000000" points="298.5,-336.5 298.5,-355.5 347.5,-355.5 347.5,-336.5 298.5,-336.5"/>
<text text-anchor="middle" x="323" y="-343.5" font-family="Helvetica,sans-Serif" font-size="10.00" fill="#000000">token.h</text>
</a>
</g>
</g>
<!-- Node0&#45;&gt;Node3 -->
<g id="edge38" class="edge">
<title>Node0&#45;&gt;Node3</title>
<path fill="none" stroke="#191970" d="M323,-504.4862C323,-477.9293 323,-402.5651 323,-366.1655"/>
<polygon fill="#191970" stroke="#191970" points="326.5001,-365.8278 323,-355.8279 319.5001,-365.8279 326.5001,-365.8278"/>
</g>
<!-- Node10 -->
<g id="node11" class="node">
<title>Node10</title>
<g id="a_node11"><a xlink:title=" ">
<polygon fill="#ffffff" stroke="#bfbfbf" points="821,-.5 821,-19.5 877,-19.5 877,-.5 821,-.5"/>
<text text-anchor="middle" x="849" y="-7.5" font-family="Helvetica,sans-Serif" font-size="10.00" fill="#000000">stdbool.h</text>
</a>
</g>
</g>
<!-- Node0&#45;&gt;Node10 -->
<g id="edge39" class="edge">
<title>Node0&#45;&gt;Node10</title>
<path fill="none" stroke="#191970" d="M360.2456,-511.8678C459.3267,-505.9793 727.6954,-488.5606 814,-468 892.038,-449.4088 982,-482.2219 982,-402 982,-402 982,-402 982,-122 982,-71.9087 926.1194,-39.6977 886.8011,-23.2334"/>
<polygon fill="#191970" stroke="#191970" points="887.7901,-19.8591 877.2059,-19.3855 885.1846,-26.3562 887.7901,-19.8591"/>
</g>
<!-- Node12 -->
<g id="node13" class="node">
<title>Node12</title>
<g id="a_node13"><a xlink:title=" ">
<polygon fill="#ffffff" stroke="#bfbfbf" points="636,-56.5 636,-75.5 684,-75.5 684,-56.5 636,-56.5"/>
<text text-anchor="middle" x="660" y="-63.5" font-family="Helvetica,sans-Serif" font-size="10.00" fill="#000000">stdlib.h</text>
</a>
</g>
</g>
<!-- Node0&#45;&gt;Node12 -->
<g id="edge42" class="edge">
<title>Node0&#45;&gt;Node12</title>
<path fill="none" stroke="#191970" d="M360.4478,-511.2403C494.7087,-500.8529 944,-461.6373 944,-402 944,-402 944,-402 944,-234 944,-119.1027 769.677,-81.1202 694.182,-70.0583"/>
<polygon fill="#191970" stroke="#191970" points="694.6007,-66.5829 684.2137,-68.6709 693.6357,-73.5161 694.6007,-66.5829"/>
</g>
<!-- Node18 -->
<g id="node19" class="node">
<title>Node18</title>
<g id="a_node19"><a xlink:href="parser_8h.html" target="_top" xlink:title=" ">
<polygon fill="#ffffff" stroke="#000000" points="112.5,-448.5 112.5,-467.5 163.5,-467.5 163.5,-448.5 112.5,-448.5"/>
<text text-anchor="middle" x="138" y="-455.5" font-family="Helvetica,sans-Serif" font-size="10.00" fill="#000000">parser.h</text>
</a>
</g>
</g>
<!-- Node0&#45;&gt;Node18 -->
<g id="edge31" class="edge">
<title>Node0&#45;&gt;Node18</title>
<path fill="none" stroke="#191970" d="M291.1974,-504.3733C258.5227,-494.4825 207.7568,-479.1156 173.7195,-468.8124"/>
<polygon fill="#191970" stroke="#191970" points="174.317,-465.3365 163.7318,-465.7891 172.2889,-472.0363 174.317,-465.3365"/>
</g>
<!-- Node20 -->
<g id="node21" class="node">
<title>Node20</title>
<g id="a_node21"><a xlink:title=" ">
<polygon fill="#ffffff" stroke="#bfbfbf" points="1010,-448.5 1010,-467.5 1056,-467.5 1056,-448.5 1010,-448.5"/>
<text text-anchor="middle" x="1033" y="-455.5" font-family="Helvetica,sans-Serif" font-size="10.00" fill="#000000">stdio.h</text>
</a>
</g>
</g>
<!-- Node0&#45;&gt;Node20 -->
<g id="edge41" class="edge">
<title>Node0&#45;&gt;Node20</title>
<path fill="none" stroke="#191970" d="M360.1297,-512.4214C482.444,-507.0706 871.9808,-488.7917 996,-468 997.2551,-467.7896 998.5291,-467.5548 999.8123,-467.3005"/>
<polygon fill="#191970" stroke="#191970" points="1000.6966,-470.6887 1009.6649,-465.0477 999.1363,-463.8648 1000.6966,-470.6887"/>
</g>
<!-- Node1&#45;&gt;Node2 -->
<g id="edge2" class="edge">
<title>Node1&#45;&gt;Node2</title>
<path fill="none" stroke="#191970" d="M50.8597,-392.4209C52.5187,-373.0797 56,-327.971 56,-290 56,-290 56,-290 56,-122 56,-89.7785 63.9629,-79.5072 86,-56 100.2656,-40.7828 120.7156,-29.5591 138.0949,-22.0092"/>
<polygon fill="#191970" stroke="#191970" points="139.4594,-25.2326 147.3754,-18.1908 136.7958,-18.7591 139.4594,-25.2326"/>
</g>
<!-- Node1&#45;&gt;Node3 -->
<g id="edge3" class="edge">
<title>Node1&#45;&gt;Node3</title>
<path fill="none" stroke="#191970" d="M72.3407,-397.4173C119.9343,-387.6545 231.6061,-364.7475 288.4477,-353.0877"/>
<polygon fill="#191970" stroke="#191970" points="289.3027,-356.4852 298.3954,-351.0471 287.896,-349.628 289.3027,-356.4852"/>
</g>
<!-- Node3&#45;&gt;Node2 -->
<g id="edge30" class="edge">
<title>Node3&#45;&gt;Node2</title>
<path fill="none" stroke="#191970" d="M298.3955,-339.5617C256.5482,-326.9574 176,-294.7997 176,-234 176,-234 176,-234 176,-178 176,-124.4731 173.9455,-61.3803 172.7813,-29.9256"/>
<polygon fill="#191970" stroke="#191970" points="176.2756,-29.7046 172.3982,-19.8447 169.2806,-29.9705 176.2756,-29.7046"/>
</g>
<!-- Node4 -->
<g id="node5" class="node">
<title>Node4</title>
<g id="a_node5"><a xlink:href="builtins_8h.html" target="_top" xlink:title=" ">
<polygon fill="#ffffff" stroke="#000000" points="394,-280.5 394,-299.5 450,-299.5 450,-280.5 394,-280.5"/>
<text text-anchor="middle" x="422" y="-287.5" font-family="Helvetica,sans-Serif" font-size="10.00" fill="#000000">builtins.h</text>
</a>
</g>
</g>
<!-- Node3&#45;&gt;Node4 -->
<g id="edge4" class="edge">
<title>Node3&#45;&gt;Node4</title>
<path fill="none" stroke="#191970" d="M340.2445,-336.2455C355.5761,-327.5731 378.2199,-314.7645 395.7916,-304.825"/>
<polygon fill="#191970" stroke="#191970" points="397.9724,-307.6126 404.9531,-299.6427 394.5259,-301.5198 397.9724,-307.6126"/>
</g>
<!-- Node3&#45;&gt;Node10 -->
<g id="edge29" class="edge">
<title>Node3&#45;&gt;Node10</title>
<path fill="none" stroke="#191970" d="M347.8337,-343.5811C454.4516,-332.8698 868,-287.8519 868,-234 868,-234 868,-234 868,-122 868,-89.2688 860.0148,-51.9052 854.3978,-29.6716"/>
<polygon fill="#191970" stroke="#191970" points="857.7289,-28.5763 851.8035,-19.7934 850.9585,-30.3545 857.7289,-28.5763"/>
</g>
<!-- Node5 -->
<g id="node6" class="node">
<title>Node5</title>
<g id="a_node6"><a xlink:href="builtinutils_8h.html" target="_top" xlink:title=" ">
<polygon fill="#ffffff" stroke="#000000" points="293,-.5 293,-19.5 361,-19.5 361,-.5 293,-.5"/>
<text text-anchor="middle" x="327" y="-7.5" font-family="Helvetica,sans-Serif" font-size="10.00" fill="#000000">builtinutils.h</text>
</a>
</g>
</g>
<!-- Node4&#45;&gt;Node5 -->
<g id="edge5" class="edge">
<title>Node4&#45;&gt;Node5</title>
<path fill="none" stroke="#191970" d="M393.7627,-285.931C352.4476,-279.3343 278.7127,-264.9029 263,-244 211.8381,-175.9385 281.3956,-69.4423 312.9124,-27.6621"/>
<polygon fill="#191970" stroke="#191970" points="315.8333,-29.6059 319.1729,-19.5512 310.292,-25.3288 315.8333,-29.6059"/>
</g>
<!-- Node6 -->
<g id="node7" class="node">
<title>Node6</title>
<g id="a_node7"><a xlink:href="helios__code_8h.html" target="_top" xlink:title=" ">
<polygon fill="#ffffff" stroke="#000000" points="416.5,-224.5 416.5,-243.5 493.5,-243.5 493.5,-224.5 416.5,-224.5"/>
<text text-anchor="middle" x="455" y="-231.5" font-family="Helvetica,sans-Serif" font-size="10.00" fill="#000000">helios_code.h</text>
</a>
</g>
</g>
<!-- Node4&#45;&gt;Node6 -->
<g id="edge6" class="edge">
<title>Node4&#45;&gt;Node6</title>
<path fill="none" stroke="#191970" d="M427.7482,-280.2455C432.2435,-272.617 438.6248,-261.7881 444.0825,-252.5267"/>
<polygon fill="#191970" stroke="#191970" points="447.2561,-254.035 449.3177,-243.6427 441.2253,-250.4811 447.2561,-254.035"/>
</g>
<!-- Node7 -->
<g id="node8" class="node">
<title>Node7</title>
<g id="a_node8"><a xlink:href="helios__object_8h.html" target="_top" xlink:title=" ">
<polygon fill="#ffffff" stroke="#000000" points="414,-168.5 414,-187.5 496,-187.5 496,-168.5 414,-168.5"/>
<text text-anchor="middle" x="455" y="-175.5" font-family="Helvetica,sans-Serif" font-size="10.00" fill="#000000">helios_object.h</text>
</a>
</g>
</g>
<!-- Node4&#45;&gt;Node7 -->
<g id="edge23" class="edge">
<title>Node4&#45;&gt;Node7</title>
<path fill="none" stroke="#191970" d="M416.4117,-280.2598C409.6225,-267.0725 400.0086,-243.0034 408,-224 412.9978,-212.1153 422.7314,-201.765 432.0503,-193.908"/>
<polygon fill="#191970" stroke="#191970" points="434.2957,-196.5951 440.0035,-187.6692 429.9752,-191.0874 434.2957,-196.5951"/>
</g>
<!-- Node9 -->
<g id="node10" class="node">
<title>Node9</title>
<g id="a_node10"><a xlink:href="helios__memory_8h.html" target="_top" xlink:title=" ">
<polygon fill="#ffffff" stroke="#000000" points="377,-56.5 377,-75.5 467,-75.5 467,-56.5 377,-56.5"/>
<text text-anchor="middle" x="422" y="-63.5" font-family="Helvetica,sans-Serif" font-size="10.00" fill="#000000">helios_memory.h</text>
</a>
</g>
</g>
<!-- Node4&#45;&gt;Node9 -->
<g id="edge26" class="edge">
<title>Node4&#45;&gt;Node9</title>
<path fill="none" stroke="#191970" d="M450.1002,-288.7921C535.4045,-284.8401 787.0288,-270.9728 811,-244 911.2742,-131.1695 607.1314,-85.3003 477.5233,-71.187"/>
<polygon fill="#191970" stroke="#191970" points="477.7029,-67.6865 467.3889,-70.1096 476.9628,-74.6472 477.7029,-67.6865"/>
</g>
<!-- Node13 -->
<g id="node14" class="node">
<title>Node13</title>
<g id="a_node14"><a xlink:href="helios__float_8h.html" target="_top" xlink:title=" ">
<polygon fill="#ffffff" stroke="#000000" points="512,-224.5 512,-243.5 586,-243.5 586,-224.5 512,-224.5"/>
<text text-anchor="middle" x="549" y="-231.5" font-family="Helvetica,sans-Serif" font-size="10.00" fill="#000000">helios_float.h</text>
</a>
</g>
</g>
<!-- Node4&#45;&gt;Node13 -->
<g id="edge16" class="edge">
<title>Node4&#45;&gt;Node13</title>
<path fill="none" stroke="#191970" d="M443.8321,-280.3733C464.3103,-271.3435 495.1399,-257.7494 518.1319,-247.6111"/>
<polygon fill="#191970" stroke="#191970" points="519.715,-250.7383 527.4528,-243.5011 516.8907,-244.3333 519.715,-250.7383"/>
</g>
<!-- Node14 -->
<g id="node15" class="node">
<title>Node14</title>
<g id="a_node15"><a xlink:href="helios__hashmap_8h.html" target="_top" xlink:title=" ">
<polygon fill="#ffffff" stroke="#000000" points="706.5,-224.5 706.5,-243.5 801.5,-243.5 801.5,-224.5 706.5,-224.5"/>
<text text-anchor="middle" x="754" y="-231.5" font-family="Helvetica,sans-Serif" font-size="10.00" fill="#000000">helios_hashmap.h</text>
</a>
</g>
</g>
<!-- Node4&#45;&gt;Node14 -->
<g id="edge18" class="edge">
<title>Node4&#45;&gt;Node14</title>
<path fill="none" stroke="#191970" d="M450.1202,-285.3719C498.2552,-277.4333 599.7892,-260.6171 696.4769,-244.0791"/>
<polygon fill="#191970" stroke="#191970" points="697.1534,-247.5143 706.4192,-242.3766 695.9718,-240.6148 697.1534,-247.5143"/>
</g>
<!-- Node15 -->
<g id="node16" class="node">
<title>Node15</title>
<g id="a_node16"><a xlink:href="helios__integer_8h.html" target="_top" xlink:title=" ">
<polygon fill="#ffffff" stroke="#000000" points="604,-224.5 604,-243.5 688,-243.5 688,-224.5 604,-224.5"/>
<text text-anchor="middle" x="646" y="-231.5" font-family="Helvetica,sans-Serif" font-size="10.00" fill="#000000">helios_integer.h</text>
</a>
</g>
</g>
<!-- Node4&#45;&gt;Node15 -->
<g id="edge21" class="edge">
<title>Node4&#45;&gt;Node15</title>
<path fill="none" stroke="#191970" d="M450.3698,-282.9076C487.4725,-273.6319 553.0235,-257.2441 597.9413,-246.0147"/>
<polygon fill="#191970" stroke="#191970" points="598.9049,-249.3816 607.7575,-243.5606 597.2071,-242.5906 598.9049,-249.3816"/>
</g>
<!-- Node16 -->
<g id="node17" class="node">
<title>Node16</title>
<g id="a_node17"><a xlink:href="helios__string_8h.html" target="_top" xlink:title=" ">
<polygon fill="#ffffff" stroke="#000000" points="280,-224.5 280,-243.5 360,-243.5 360,-224.5 280,-224.5"/>
<text text-anchor="middle" x="320" y="-231.5" font-family="Helvetica,sans-Serif" font-size="10.00" fill="#000000">helios_string.h</text>
</a>
</g>
</g>
<!-- Node4&#45;&gt;Node16 -->
<g id="edge24" class="edge">
<title>Node4&#45;&gt;Node16</title>
<path fill="none" stroke="#191970" d="M404.233,-280.2455C388.2905,-271.4928 364.6741,-258.527 346.5011,-248.5496"/>
<polygon fill="#191970" stroke="#191970" points="348.0137,-245.3873 337.5634,-243.6427 344.6448,-251.5233 348.0137,-245.3873"/>
</g>
<!-- Node17 -->
<g id="node18" class="node">
<title>Node17</title>
<g id="a_node18"><a xlink:href="serialize_8h.html" target="_top" xlink:title=" ">
<polygon fill="#ffffff" stroke="#000000" points="311.5,-168.5 311.5,-187.5 372.5,-187.5 372.5,-168.5 311.5,-168.5"/>
<text text-anchor="middle" x="342" y="-175.5" font-family="Helvetica,sans-Serif" font-size="10.00" fill="#000000">serialize.h</text>
</a>
</g>
</g>
<!-- Node4&#45;&gt;Node17 -->
<g id="edge27" class="edge">
<title>Node4&#45;&gt;Node17</title>
<path fill="none" stroke="#191970" d="M393.8584,-285.4849C354.3688,-278.5093 285.6808,-263.8192 271,-244 255.8996,-223.6143 283.2003,-204.3522 308.2031,-191.9588"/>
<polygon fill="#191970" stroke="#191970" points="310.015,-194.9748 317.58,-187.5572 307.0405,-188.6382 310.015,-194.9748"/>
</g>
<!-- Node6&#45;&gt;Node7 -->
<g id="edge7" class="edge">
<title>Node6&#45;&gt;Node7</title>
<path fill="none" stroke="#191970" d="M455,-224.2455C455,-216.9382 455,-206.6944 455,-197.7046"/>
<polygon fill="#191970" stroke="#191970" points="458.5001,-197.6426 455,-187.6427 451.5001,-197.6427 458.5001,-197.6426"/>
</g>
<!-- Node8 -->
<g id="node9" class="node">
<title>Node8</title>
<g id="a_node9"><a xlink:href="helios__type_8h.html" target="_top" xlink:title=" ">
<polygon fill="#ffffff" stroke="#000000" points="385,-112.5 385,-131.5 459,-131.5 459,-112.5 385,-112.5"/>
<text text-anchor="middle" x="422" y="-119.5" font-family="Helvetica,sans-Serif" font-size="10.00" fill="#000000">helios_type.h</text>
</a>
</g>
</g>
<!-- Node7&#45;&gt;Node8 -->
<g id="edge8" class="edge">
<title>Node7&#45;&gt;Node8</title>
<path fill="none" stroke="#191970" d="M449.2518,-168.2455C444.7565,-160.617 438.3752,-149.7881 432.9175,-140.5267"/>
<polygon fill="#191970" stroke="#191970" points="435.7747,-138.4811 427.6823,-131.6427 429.7439,-142.035 435.7747,-138.4811"/>
</g>
<!-- Node8&#45;&gt;Node2 -->
<g id="edge14" class="edge">
<title>Node8&#45;&gt;Node2</title>
<path fill="none" stroke="#191970" d="M400.6851,-112.4509C356.3129,-92.5722 253.8865,-46.6852 202.5258,-23.6756"/>
<polygon fill="#191970" stroke="#191970" points="203.8179,-20.4193 193.2609,-19.5249 200.956,-26.8075 203.8179,-20.4193"/>
</g>
<!-- Node8&#45;&gt;Node9 -->
<g id="edge9" class="edge">
<title>Node8&#45;&gt;Node9</title>
<path fill="none" stroke="#191970" d="M422,-112.2455C422,-104.9382 422,-94.6944 422,-85.7046"/>
<polygon fill="#191970" stroke="#191970" points="425.5001,-85.6426 422,-75.6427 418.5001,-85.6427 425.5001,-85.6426"/>
</g>
<!-- Node8&#45;&gt;Node12 -->
<g id="edge15" class="edge">
<title>Node8&#45;&gt;Node12</title>
<path fill="none" stroke="#191970" d="M459.1875,-113.25C504.8174,-102.5136 581.5522,-84.4583 625.7812,-74.0515"/>
<polygon fill="#191970" stroke="#191970" points="626.8265,-77.4012 635.759,-71.7038 625.2232,-70.5873 626.8265,-77.4012"/>
</g>
<!-- Node9&#45;&gt;Node2 -->
<g id="edge13" class="edge">
<title>Node9&#45;&gt;Node2</title>
<path fill="none" stroke="#191970" d="M379.3075,-56.4369C330.5309,-45.5109 251.6548,-27.8427 206.5636,-17.7423"/>
<polygon fill="#191970" stroke="#191970" points="207.195,-14.297 196.6717,-15.5265 205.6648,-21.1277 207.195,-14.297"/>
</g>
<!-- Node9&#45;&gt;Node5 -->
<g id="edge10" class="edge">
<title>Node9&#45;&gt;Node5</title>
<path fill="none" stroke="#191970" d="M405.4523,-56.2455C390.7401,-47.5731 369.0112,-34.7645 352.1495,-24.825"/>
<polygon fill="#191970" stroke="#191970" points="353.7502,-21.7057 343.3581,-19.6427 350.1954,-27.736 353.7502,-21.7057"/>
</g>
<!-- Node9&#45;&gt;Node10 -->
<g id="edge11" class="edge">
<title>Node9&#45;&gt;Node10</title>
<path fill="none" stroke="#191970" d="M467.2922,-60.06C551.8198,-48.9745 732.1448,-25.3253 810.8878,-14.9983"/>
<polygon fill="#191970" stroke="#191970" points="811.4018,-18.461 820.8618,-13.6903 810.4915,-11.5204 811.4018,-18.461"/>
</g>
<!-- Node11 -->
<g id="node12" class="node">
<title>Node11</title>
<g id="a_node12"><a xlink:title=" ">
<polygon fill="#ffffff" stroke="#bfbfbf" points="396,-.5 396,-19.5 448,-19.5 448,-.5 396,-.5"/>
<text text-anchor="middle" x="422" y="-7.5" font-family="Helvetica,sans-Serif" font-size="10.00" fill="#000000">stddef.h</text>
</a>
</g>
</g>
<!-- Node9&#45;&gt;Node11 -->
<g id="edge12" class="edge">
<title>Node9&#45;&gt;Node11</title>
<path fill="none" stroke="#191970" d="M422,-56.2455C422,-48.9382 422,-38.6944 422,-29.7046"/>
<polygon fill="#191970" stroke="#191970" points="425.5001,-29.6426 422,-19.6427 418.5001,-29.6427 425.5001,-29.6426"/>
</g>
<!-- Node13&#45;&gt;Node7 -->
<g id="edge17" class="edge">
<title>Node13&#45;&gt;Node7</title>
<path fill="none" stroke="#191970" d="M532.6264,-224.2455C518.0692,-215.5731 496.569,-202.7645 479.8848,-192.825"/>
<polygon fill="#191970" stroke="#191970" points="481.5683,-189.7539 471.1859,-187.6427 477.9856,-195.7676 481.5683,-189.7539"/>
</g>
<!-- Node14&#45;&gt;Node7 -->
<g id="edge19" class="edge">
<title>Node14&#45;&gt;Node7</title>
<path fill="none" stroke="#191970" d="M706.2919,-225.0647C651.6566,-214.832 562.4795,-198.1299 506.3588,-187.619"/>
<polygon fill="#191970" stroke="#191970" points="506.7538,-184.1322 496.2803,-185.7314 505.4651,-191.0126 506.7538,-184.1322"/>
</g>
<!-- Node14&#45;&gt;Node10 -->
<g id="edge20" class="edge">
<title>Node14&#45;&gt;Node10</title>
<path fill="none" stroke="#191970" d="M758.082,-224.375C772.5463,-190.2697 821.528,-74.7761 840.9603,-28.9567"/>
<polygon fill="#191970" stroke="#191970" points="844.2509,-30.162 844.9332,-19.5891 837.8065,-27.4288 844.2509,-30.162"/>
</g>
<!-- Node15&#45;&gt;Node7 -->
<g id="edge22" class="edge">
<title>Node15&#45;&gt;Node7</title>
<path fill="none" stroke="#191970" d="M613.1659,-224.3733C581.1305,-214.9807 532.2513,-200.6496 497.3145,-190.4064"/>
<polygon fill="#191970" stroke="#191970" points="497.9864,-186.9561 487.4056,-187.5011 496.0169,-193.6733 497.9864,-186.9561"/>
</g>
<!-- Node16&#45;&gt;Node7 -->
<g id="edge25" class="edge">
<title>Node16&#45;&gt;Node7</title>
<path fill="none" stroke="#191970" d="M343.2073,-224.3733C365.1699,-215.2629 398.3332,-201.5062 422.8401,-191.3404"/>
<polygon fill="#191970" stroke="#191970" points="424.1997,-194.5657 432.0955,-187.5011 421.5176,-188.0999 424.1997,-194.5657"/>
</g>
<!-- Node17&#45;&gt;Node8 -->
<g id="edge28" class="edge">
<title>Node17&#45;&gt;Node8</title>
<path fill="none" stroke="#191970" d="M355.9349,-168.2455C368.0947,-159.7337 385.9464,-147.2375 400.0285,-137.3801"/>
<polygon fill="#191970" stroke="#191970" points="402.0395,-140.2447 408.2248,-131.6427 398.0253,-134.51 402.0395,-140.2447"/>
</g>
<!-- Node18&#45;&gt;Node1 -->
<g id="edge32" class="edge">
<title>Node18&#45;&gt;Node1</title>
<path fill="none" stroke="#191970" d="M122.6716,-448.2455C109.1697,-439.6534 89.2878,-427.0014 73.7314,-417.1018"/>
<polygon fill="#191970" stroke="#191970" points="75.4685,-414.0587 65.1528,-411.6427 71.7103,-419.9643 75.4685,-414.0587"/>
</g>
<!-- Node18&#45;&gt;Node2 -->
<g id="edge37" class="edge">
<title>Node18&#45;&gt;Node2</title>
<path fill="none" stroke="#191970" d="M132.393,-448.4834C121.8226,-429.6141 100,-385.8343 100,-346 100,-346 100,-346 100,-122 100,-83.0554 131.184,-46.8622 152.5069,-26.6662"/>
<polygon fill="#191970" stroke="#191970" points="155.0769,-29.0595 160.1107,-19.7368 150.3619,-23.8856 155.0769,-29.0595"/>
</g>
<!-- Node18&#45;&gt;Node10 -->
<g id="edge36" class="edge">
<title>Node18&#45;&gt;Node10</title>
<path fill="none" stroke="#191970" d="M163.5527,-457.0299C296.8125,-451.6407 906,-422.8039 906,-346 906,-346 906,-346 906,-234 906,-153.7732 903.4246,-131.3939 876,-56 872.4581,-46.2629 866.8545,-36.25 861.668,-28.0624"/>
<polygon fill="#191970" stroke="#191970" points="864.5678,-26.1023 856.1216,-19.706 858.7355,-29.9733 864.5678,-26.1023"/>
</g>
<!-- Node19 -->
<g id="node20" class="node">
<title>Node19</title>
<g id="a_node20"><a xlink:href="error_8h.html" target="_top" xlink:title=" ">
<polygon fill="#ffffff" stroke="#000000" points="200,-56.5 200,-75.5 244,-75.5 244,-56.5 200,-56.5"/>
<text text-anchor="middle" x="222" y="-63.5" font-family="Helvetica,sans-Serif" font-size="10.00" fill="#000000">error.h</text>
</a>
</g>
</g>
<!-- Node18&#45;&gt;Node19 -->
<g id="edge33" class="edge">
<title>Node18&#45;&gt;Node19</title>
<path fill="none" stroke="#191970" d="M138,-448.4116C138,-429.0538 138,-383.9167 138,-346 138,-346 138,-346 138,-178 138,-136.9075 174.6365,-101.2426 199.5189,-81.7588"/>
<polygon fill="#191970" stroke="#191970" points="201.8679,-84.3713 207.7505,-75.5596 197.6569,-78.7795 201.8679,-84.3713"/>
</g>
<!-- Node19&#45;&gt;Node2 -->
<g id="edge35" class="edge">
<title>Node19&#45;&gt;Node2</title>
<path fill="none" stroke="#191970" d="M213.2907,-56.2455C206.1927,-48.2958 195.9916,-36.8706 187.505,-27.3656"/>
<polygon fill="#191970" stroke="#191970" points="189.8805,-24.771 180.6095,-19.6427 184.6589,-29.4331 189.8805,-24.771"/>
</g>
<!-- Node19&#45;&gt;Node10 -->
<g id="edge34" class="edge">
<title>Node19&#45;&gt;Node10</title>
<path fill="none" stroke="#191970" d="M244.3153,-64.0069C337.0661,-55.723 692.7503,-23.9553 810.7263,-13.4184"/>
<polygon fill="#191970" stroke="#191970" points="811.0959,-16.8994 820.7449,-12.5236 810.4732,-9.9271 811.0959,-16.8994"/>
</g>
</g>
</svg>
