<?xml version="1.0" encoding="UTF-8" standalone="no"?>
<!DOCTYPE svg PUBLIC "-//W3C//DTD SVG 1.1//EN"
 "http://www.w3.org/Graphics/SVG/1.1/DTD/svg11.dtd">
<!-- Generated by graphviz version 2.40.1 (20161225.0304)
 -->
<!-- Title: parser/include/AST.h Pages: 1 -->
<!--zoomable 420 -->
<svg id="main" version="1.1" xmlns="http://www.w3.org/2000/svg" xmlns:xlink="http://www.w3.org/1999/xlink" xml:space="preserve" onload="init(evt)">
<style type="text/css"><![CDATA[
.edge:hover path { stroke: red; }
.edge:hover polygon { stroke: red; fill: red; }
]]></style>
<script type="text/javascript"><![CDATA[
var edges = document.getElementsByTagName('g');
if (edges && edges.length) {
  for (var i=0;i<edges.length;i++) {
    if (edges[i].id.substr(0,4)=='edge') {
      edges[i].setAttribute('class','edge');
    }
  }
}
]]></script>
        <defs>
                <circle id="rim" cx="0" cy="0" r="7"/>
                <circle id="rim2" cx="0" cy="0" r="3.5"/>
                <g id="zoomPlus">
                        <use xlink:href="#rim" fill="#404040">
                                <set attributeName="fill" to="#808080" begin="zoomplus.mouseover" end="zoomplus.mouseout"/>
                        </use>
                        <path d="M-4,0h8M0,-4v8" fill="none" stroke="white" stroke-width="1.5" pointer-events="none"/>
                </g>
                <g id="zoomMin">
                        <use xlink:href="#rim" fill="#404040">
                                <set attributeName="fill" to="#808080" begin="zoomminus.mouseover" end="zoomminus.mouseout"/>
                        </use>
                        <path d="M-4,0h8" fill="none" stroke="white" stroke-width="1.5" pointer-events="none"/>
                </g>
                <g id="dirArrow">
                        <path fill="none" stroke="white" stroke-width="1.5" d="M0,-3.0v7 M-2.5,-0.5L0,-3.0L2.5,-0.5"/>
                </g>
               <g id="resetDef">
                       <use xlink:href="#rim2" fill="#404040">
                               <set attributeName="fill" to="#808080" begin="reset.mouseover" end="reset.mouseout"/>
                       </use>
               </g>
        </defs>

<script type="text/javascript">
var viewWidth = 846;
var viewHeight = 420;
var sectionId = 'dynsection-0';
</script>
<script xlink:href="svgpan.js"/>
<svg id="graph" class="graph">
<g id="viewport">
<title>parser/include/AST.h</title>
<polygon fill="#ffffff" stroke="transparent" points="-4,4 -4,-416 842,-416 842,4 -4,4"/>
<!-- Node0 -->
<g id="node1" class="node">
<title>Node0</title>
<g id="a_node1"><a xlink:title=" ">
<polygon fill="#bfbfbf" stroke="#000000" points="626.5,-392.5 626.5,-411.5 733.5,-411.5 733.5,-392.5 626.5,-392.5"/>
<text text-anchor="middle" x="680" y="-399.5" font-family="Helvetica,sans-Serif" font-size="10.00" fill="#000000">parser/include/AST.h</text>
</a>
</g>
</g>
<!-- Node1 -->
<g id="node2" class="node">
<title>Node1</title>
<g id="a_node2"><a xlink:title=" ">
<polygon fill="#ffffff" stroke="#bfbfbf" points="760.5,-.5 760.5,-19.5 809.5,-19.5 809.5,-.5 760.5,-.5"/>
<text text-anchor="middle" x="785" y="-7.5" font-family="Helvetica,sans-Serif" font-size="10.00" fill="#000000">stdint.h</text>
</a>
</g>
</g>
<!-- Node0&#45;&gt;Node1 -->
<g id="edge1" class="edge">
<title>Node0&#45;&gt;Node1</title>
<path fill="none" stroke="#191970" d="M719.8701,-392.4173C766.6763,-378.5108 838,-347.832 838,-290 838,-290 838,-290 838,-122 838,-85.8604 815.1748,-48.9196 799.4825,-27.7933"/>
<polygon fill="#191970" stroke="#191970" points="802.161,-25.5352 793.2813,-19.7558 796.6188,-29.8112 802.161,-25.5352"/>
</g>
<!-- Node2 -->
<g id="node3" class="node">
<title>Node2</title>
<g id="a_node3"><a xlink:href="token_8h.html" target="_top" xlink:title=" ">
<polygon fill="#ffffff" stroke="#000000" points="629.5,-336.5 629.5,-355.5 678.5,-355.5 678.5,-336.5 629.5,-336.5"/>
<text text-anchor="middle" x="654" y="-343.5" font-family="Helvetica,sans-Serif" font-size="10.00" fill="#000000">token.h</text>
</a>
</g>
</g>
<!-- Node0&#45;&gt;Node2 -->
<g id="edge2" class="edge">
<title>Node0&#45;&gt;Node2</title>
<path fill="none" stroke="#191970" d="M675.4711,-392.2455C671.9666,-384.6973 667.0073,-374.0158 662.7377,-364.8197"/>
<polygon fill="#191970" stroke="#191970" points="665.8627,-363.2389 658.477,-355.6427 659.5136,-366.1867 665.8627,-363.2389"/>
</g>
<!-- Node2&#45;&gt;Node1 -->
<g id="edge32" class="edge">
<title>Node2&#45;&gt;Node1</title>
<path fill="none" stroke="#191970" d="M678.7669,-339.4079C720.4214,-326.651 800,-294.3786 800,-234 800,-234 800,-234 800,-122 800,-89.2739 793.6307,-51.641 789.193,-29.3923"/>
<polygon fill="#191970" stroke="#191970" points="792.6058,-28.6123 787.1491,-19.5307 785.7515,-30.0329 792.6058,-28.6123"/>
</g>
<!-- Node3 -->
<g id="node4" class="node">
<title>Node3</title>
<g id="a_node4"><a xlink:href="builtins_8h.html" target="_top" xlink:title=" ">
<polygon fill="#ffffff" stroke="#000000" points="494,-280.5 494,-299.5 550,-299.5 550,-280.5 494,-280.5"/>
<text text-anchor="middle" x="522" y="-287.5" font-family="Helvetica,sans-Serif" font-size="10.00" fill="#000000">builtins.h</text>
</a>
</g>
</g>
<!-- Node2&#45;&gt;Node3 -->
<g id="edge3" class="edge">
<title>Node2&#45;&gt;Node3</title>
<path fill="none" stroke="#191970" d="M631.3084,-336.3733C609.9289,-327.3032 577.6943,-313.6279 553.7638,-303.4755"/>
<polygon fill="#191970" stroke="#191970" points="554.9683,-300.1846 544.3955,-299.5011 552.2344,-306.6287 554.9683,-300.1846"/>
</g>
<!-- Node9 -->
<g id="node10" class="node">
<title>Node9</title>
<g id="a_node10"><a xlink:title=" ">
<polygon fill="#ffffff" stroke="#bfbfbf" points="119,-.5 119,-19.5 175,-19.5 175,-.5 119,-.5"/>
<text text-anchor="middle" x="147" y="-7.5" font-family="Helvetica,sans-Serif" font-size="10.00" fill="#000000">stdbool.h</text>
</a>
</g>
</g>
<!-- Node2&#45;&gt;Node9 -->
<g id="edge31" class="edge">
<title>Node2&#45;&gt;Node9</title>
<path fill="none" stroke="#191970" d="M629.161,-344.4276C509.7001,-336.5424 0,-299.085 0,-234 0,-234 0,-234 0,-122 0,-67.2312 65.3612,-35.704 108.9168,-20.7751"/>
<polygon fill="#191970" stroke="#191970" points="110.2428,-24.0238 118.6569,-17.5854 108.0642,-17.3714 110.2428,-24.0238"/>
</g>
<!-- Node4 -->
<g id="node5" class="node">
<title>Node4</title>
<g id="a_node5"><a xlink:href="builtinutils_8h.html" target="_top" xlink:title=" ">
<polygon fill="#ffffff" stroke="#000000" points="659,-.5 659,-19.5 727,-19.5 727,-.5 659,-.5"/>
<text text-anchor="middle" x="693" y="-7.5" font-family="Helvetica,sans-Serif" font-size="10.00" fill="#000000">builtinutils.h</text>
</a>
</g>
</g>
<!-- Node3&#45;&gt;Node4 -->
<g id="edge4" class="edge">
<title>Node3&#45;&gt;Node4</title>
<path fill="none" stroke="#191970" d="M550.1576,-286.2035C598.2684,-279.279 693.7478,-263.4986 721,-244 749.0843,-223.906 762,-212.5325 762,-178 762,-178 762,-178 762,-122 762,-83.3203 731.7999,-46.7993 711.3591,-26.5101"/>
<polygon fill="#191970" stroke="#191970" points="713.7333,-23.9378 704.086,-19.5582 708.8965,-28.998 713.7333,-23.9378"/>
</g>
<!-- Node5 -->
<g id="node6" class="node">
<title>Node5</title>
<g id="a_node6"><a xlink:href="helios__boolean_8h.html" target="_top" xlink:title=" ">
<polygon fill="#ffffff" stroke="#000000" points="28.5,-224.5 28.5,-243.5 117.5,-243.5 117.5,-224.5 28.5,-224.5"/>
<text text-anchor="middle" x="73" y="-231.5" font-family="Helvetica,sans-Serif" font-size="10.00" fill="#000000">helios_boolean.h</text>
</a>
</g>
</g>
<!-- Node3&#45;&gt;Node5 -->
<g id="edge5" class="edge">
<title>Node3&#45;&gt;Node5</title>
<path fill="none" stroke="#191970" d="M493.554,-287.1424C429.0866,-280.5573 266.9703,-263.3853 132,-244 130.6985,-243.8131 129.3814,-243.6202 128.0536,-243.4224"/>
<polygon fill="#191970" stroke="#191970" points="128.1582,-239.897 117.7406,-241.8271 127.088,-246.8147 128.1582,-239.897"/>
</g>
<!-- Node6 -->
<g id="node7" class="node">
<title>Node6</title>
<g id="a_node7"><a xlink:href="helios__object_8h.html" target="_top" xlink:title=" ">
<polygon fill="#ffffff" stroke="#000000" points="431,-168.5 431,-187.5 513,-187.5 513,-168.5 431,-168.5"/>
<text text-anchor="middle" x="472" y="-175.5" font-family="Helvetica,sans-Serif" font-size="10.00" fill="#000000">helios_object.h</text>
</a>
</g>
</g>
<!-- Node3&#45;&gt;Node6 -->
<g id="edge25" class="edge">
<title>Node3&#45;&gt;Node6</title>
<path fill="none" stroke="#191970" d="M537.9726,-280.4666C556.9196,-267.9009 584.3563,-244.9336 571,-224 560.149,-206.993 541.2055,-196.1761 522.7753,-189.3419"/>
<polygon fill="#191970" stroke="#191970" points="523.824,-186.002 513.2299,-186.1195 521.585,-192.6342 523.824,-186.002"/>
</g>
<!-- Node8 -->
<g id="node9" class="node">
<title>Node8</title>
<g id="a_node9"><a xlink:href="helios__memory_8h.html" target="_top" xlink:title=" ">
<polygon fill="#ffffff" stroke="#000000" points="540,-56.5 540,-75.5 630,-75.5 630,-56.5 540,-56.5"/>
<text text-anchor="middle" x="585" y="-63.5" font-family="Helvetica,sans-Serif" font-size="10.00" fill="#000000">helios_memory.h</text>
</a>
</g>
</g>
<!-- Node3&#45;&gt;Node8 -->
<g id="edge28" class="edge">
<title>Node3&#45;&gt;Node8</title>
<path fill="none" stroke="#191970" d="M493.74,-288.4582C413.32,-283.7847 187.6017,-268.5726 166,-244 160.1311,-237.324 160.9436,-231.3106 166,-224 209.2264,-161.5022 430.7687,-102.3197 533.0839,-77.8339"/>
<polygon fill="#191970" stroke="#191970" points="533.9763,-81.2194 542.8975,-75.5044 532.3595,-74.4087 533.9763,-81.2194"/>
</g>
<!-- Node12 -->
<g id="node13" class="node">
<title>Node12</title>
<g id="a_node13"><a xlink:href="helios__code_8h.html" target="_top" xlink:title=" ">
<polygon fill="#ffffff" stroke="#000000" points="618.5,-224.5 618.5,-243.5 695.5,-243.5 695.5,-224.5 618.5,-224.5"/>
<text text-anchor="middle" x="657" y="-231.5" font-family="Helvetica,sans-Serif" font-size="10.00" fill="#000000">helios_code.h</text>
</a>
</g>
</g>
<!-- Node3&#45;&gt;Node12 -->
<g id="edge16" class="edge">
<title>Node3&#45;&gt;Node12</title>
<path fill="none" stroke="#191970" d="M545.2073,-280.3733C567.1699,-271.2629 600.3332,-257.5062 624.8401,-247.3404"/>
<polygon fill="#191970" stroke="#191970" points="626.1997,-250.5657 634.0955,-243.5011 623.5176,-244.0999 626.1997,-250.5657"/>
</g>
<!-- Node13 -->
<g id="node14" class="node">
<title>Node13</title>
<g id="a_node14"><a xlink:href="helios__float_8h.html" target="_top" xlink:title=" ">
<polygon fill="#ffffff" stroke="#000000" points="288,-224.5 288,-243.5 362,-243.5 362,-224.5 288,-224.5"/>
<text text-anchor="middle" x="325" y="-231.5" font-family="Helvetica,sans-Serif" font-size="10.00" fill="#000000">helios_float.h</text>
</a>
</g>
</g>
<!-- Node3&#45;&gt;Node13 -->
<g id="edge18" class="edge">
<title>Node3&#45;&gt;Node13</title>
<path fill="none" stroke="#191970" d="M493.7747,-281.9766C460.9597,-272.6484 406.4319,-257.1482 368.2604,-246.2974"/>
<polygon fill="#191970" stroke="#191970" points="369.0222,-242.8753 358.4462,-243.5076 367.1081,-249.6086 369.0222,-242.8753"/>
</g>
<!-- Node14 -->
<g id="node15" class="node">
<title>Node14</title>
<g id="a_node15"><a xlink:href="helios__hashmap_8h.html" target="_top" xlink:title=" ">
<polygon fill="#ffffff" stroke="#000000" points="174.5,-224.5 174.5,-243.5 269.5,-243.5 269.5,-224.5 174.5,-224.5"/>
<text text-anchor="middle" x="222" y="-231.5" font-family="Helvetica,sans-Serif" font-size="10.00" fill="#000000">helios_hashmap.h</text>
</a>
</g>
</g>
<!-- Node3&#45;&gt;Node14 -->
<g id="edge20" class="edge">
<title>Node3&#45;&gt;Node14</title>
<path fill="none" stroke="#191970" d="M493.7767,-284.7317C444.9717,-275.6214 343.8854,-256.7519 279.6948,-244.7697"/>
<polygon fill="#191970" stroke="#191970" points="280.1955,-241.3028 269.723,-242.9083 278.911,-248.1839 280.1955,-241.3028"/>
</g>
<!-- Node15 -->
<g id="node16" class="node">
<title>Node15</title>
<g id="a_node16"><a xlink:href="helios__integer_8h.html" target="_top" xlink:title=" ">
<polygon fill="#ffffff" stroke="#000000" points="380,-224.5 380,-243.5 464,-243.5 464,-224.5 380,-224.5"/>
<text text-anchor="middle" x="422" y="-231.5" font-family="Helvetica,sans-Serif" font-size="10.00" fill="#000000">helios_integer.h</text>
</a>
</g>
</g>
<!-- Node3&#45;&gt;Node15 -->
<g id="edge23" class="edge">
<title>Node3&#45;&gt;Node15</title>
<path fill="none" stroke="#191970" d="M504.5813,-280.2455C488.9515,-271.4928 465.7981,-258.527 447.9815,-248.5496"/>
<polygon fill="#191970" stroke="#191970" points="449.6543,-245.475 439.2191,-243.6427 446.234,-251.5825 449.6543,-245.475"/>
</g>
<!-- Node16 -->
<g id="node17" class="node">
<title>Node16</title>
<g id="a_node17"><a xlink:href="helios__string_8h.html" target="_top" xlink:title=" ">
<polygon fill="#ffffff" stroke="#000000" points="482,-224.5 482,-243.5 562,-243.5 562,-224.5 482,-224.5"/>
<text text-anchor="middle" x="522" y="-231.5" font-family="Helvetica,sans-Serif" font-size="10.00" fill="#000000">helios_string.h</text>
</a>
</g>
</g>
<!-- Node3&#45;&gt;Node16 -->
<g id="edge26" class="edge">
<title>Node3&#45;&gt;Node16</title>
<path fill="none" stroke="#191970" d="M522,-280.2455C522,-272.9382 522,-262.6944 522,-253.7046"/>
<polygon fill="#191970" stroke="#191970" points="525.5001,-253.6426 522,-243.6427 518.5001,-253.6427 525.5001,-253.6426"/>
</g>
<!-- Node17 -->
<g id="node18" class="node">
<title>Node17</title>
<g id="a_node18"><a xlink:href="serialize_8h.html" target="_top" xlink:title=" ">
<polygon fill="#ffffff" stroke="#000000" points="657.5,-168.5 657.5,-187.5 718.5,-187.5 718.5,-168.5 657.5,-168.5"/>
<text text-anchor="middle" x="688" y="-175.5" font-family="Helvetica,sans-Serif" font-size="10.00" fill="#000000">serialize.h</text>
</a>
</g>
</g>
<!-- Node3&#45;&gt;Node17 -->
<g id="edge29" class="edge">
<title>Node3&#45;&gt;Node17</title>
<path fill="none" stroke="#191970" d="M550.2391,-287.0842C596.7248,-281.6374 686.1152,-268.2193 705,-244 715.6408,-230.3534 708.5754,-210.7586 700.5616,-196.4658"/>
<polygon fill="#191970" stroke="#191970" points="703.2956,-194.2311 695.068,-187.556 697.3372,-197.905 703.2956,-194.2311"/>
</g>
<!-- Node5&#45;&gt;Node6 -->
<g id="edge6" class="edge">
<title>Node5&#45;&gt;Node6</title>
<path fill="none" stroke="#191970" d="M117.609,-227.7391C192.2445,-217.2639 341.9834,-196.2479 420.7996,-185.186"/>
<polygon fill="#191970" stroke="#191970" points="421.557,-188.6141 430.9735,-183.7581 420.5841,-181.682 421.557,-188.6141"/>
</g>
<!-- Node5&#45;&gt;Node9 -->
<g id="edge15" class="edge">
<title>Node5&#45;&gt;Node9</title>
<path fill="none" stroke="#191970" d="M76.1797,-224.375C87.4229,-190.3415 125.4402,-75.262 140.6416,-29.247"/>
<polygon fill="#191970" stroke="#191970" points="144.0186,-30.1823 143.8322,-19.5891 137.3719,-27.9865 144.0186,-30.1823"/>
</g>
<!-- Node7 -->
<g id="node8" class="node">
<title>Node7</title>
<g id="a_node8"><a xlink:href="helios__type_8h.html" target="_top" xlink:title=" ">
<polygon fill="#ffffff" stroke="#000000" points="635,-112.5 635,-131.5 709,-131.5 709,-112.5 635,-112.5"/>
<text text-anchor="middle" x="672" y="-119.5" font-family="Helvetica,sans-Serif" font-size="10.00" fill="#000000">helios_type.h</text>
</a>
</g>
</g>
<!-- Node6&#45;&gt;Node7 -->
<g id="edge7" class="edge">
<title>Node6&#45;&gt;Node7</title>
<path fill="none" stroke="#191970" d="M506.3812,-168.3733C540.0701,-158.9404 591.5482,-144.5265 628.1618,-134.2747"/>
<polygon fill="#191970" stroke="#191970" points="629.3815,-137.5679 638.0674,-131.5011 627.494,-130.8271 629.3815,-137.5679"/>
</g>
<!-- Node7&#45;&gt;Node1 -->
<g id="edge13" class="edge">
<title>Node7&#45;&gt;Node1</title>
<path fill="none" stroke="#191970" d="M681.6343,-112.4509C700.8149,-93.4401 743.9948,-50.6423 768.0338,-26.816"/>
<polygon fill="#191970" stroke="#191970" points="770.7515,-29.0503 775.3901,-19.5249 765.8238,-24.0786 770.7515,-29.0503"/>
</g>
<!-- Node7&#45;&gt;Node8 -->
<g id="edge8" class="edge">
<title>Node7&#45;&gt;Node8</title>
<path fill="none" stroke="#191970" d="M656.8458,-112.2455C643.4973,-103.6534 623.8414,-91.0014 608.4617,-81.1018"/>
<polygon fill="#191970" stroke="#191970" points="610.2836,-78.1121 599.9806,-75.6427 606.4949,-83.9982 610.2836,-78.1121"/>
</g>
<!-- Node11 -->
<g id="node12" class="node">
<title>Node11</title>
<g id="a_node12"><a xlink:title=" ">
<polygon fill="#ffffff" stroke="#bfbfbf" points="648,-56.5 648,-75.5 696,-75.5 696,-56.5 648,-56.5"/>
<text text-anchor="middle" x="672" y="-63.5" font-family="Helvetica,sans-Serif" font-size="10.00" fill="#000000">stdlib.h</text>
</a>
</g>
</g>
<!-- Node7&#45;&gt;Node11 -->
<g id="edge14" class="edge">
<title>Node7&#45;&gt;Node11</title>
<path fill="none" stroke="#191970" d="M672,-112.2455C672,-104.9382 672,-94.6944 672,-85.7046"/>
<polygon fill="#191970" stroke="#191970" points="675.5001,-85.6426 672,-75.6427 668.5001,-85.6427 675.5001,-85.6426"/>
</g>
<!-- Node8&#45;&gt;Node1 -->
<g id="edge12" class="edge">
<title>Node8&#45;&gt;Node1</title>
<path fill="none" stroke="#191970" d="M619.3812,-56.3733C656.0306,-46.1114 713.7333,-29.9547 750.4479,-19.6746"/>
<polygon fill="#191970" stroke="#191970" points="751.526,-23.0074 760.2119,-16.9407 749.6385,-16.2667 751.526,-23.0074"/>
</g>
<!-- Node8&#45;&gt;Node4 -->
<g id="edge9" class="edge">
<title>Node8&#45;&gt;Node4</title>
<path fill="none" stroke="#191970" d="M603.8122,-56.2455C620.8473,-47.4125 646.1575,-34.2887 665.4681,-24.2758"/>
<polygon fill="#191970" stroke="#191970" points="667.137,-27.353 674.4034,-19.6427 663.9147,-21.1388 667.137,-27.353"/>
</g>
<!-- Node8&#45;&gt;Node9 -->
<g id="edge10" class="edge">
<title>Node8&#45;&gt;Node9</title>
<path fill="none" stroke="#191970" d="M539.776,-60.2179C453.3851,-49.1725 266.3021,-25.2532 185.4766,-14.9194"/>
<polygon fill="#191970" stroke="#191970" points="185.6144,-11.4086 175.2512,-13.612 184.7265,-18.3521 185.6144,-11.4086"/>
</g>
<!-- Node10 -->
<g id="node11" class="node">
<title>Node10</title>
<g id="a_node11"><a xlink:title=" ">
<polygon fill="#ffffff" stroke="#bfbfbf" points="559,-.5 559,-19.5 611,-19.5 611,-.5 559,-.5"/>
<text text-anchor="middle" x="585" y="-7.5" font-family="Helvetica,sans-Serif" font-size="10.00" fill="#000000">stddef.h</text>
</a>
</g>
</g>
<!-- Node8&#45;&gt;Node10 -->
<g id="edge11" class="edge">
<title>Node8&#45;&gt;Node10</title>
<path fill="none" stroke="#191970" d="M585,-56.2455C585,-48.9382 585,-38.6944 585,-29.7046"/>
<polygon fill="#191970" stroke="#191970" points="588.5001,-29.6426 585,-19.6427 581.5001,-29.6427 588.5001,-29.6426"/>
</g>
<!-- Node12&#45;&gt;Node6 -->
<g id="edge17" class="edge">
<title>Node12&#45;&gt;Node6</title>
<path fill="none" stroke="#191970" d="M625.1974,-224.3733C594.1683,-214.9807 546.8246,-200.6496 512.9853,-190.4064"/>
<polygon fill="#191970" stroke="#191970" points="513.9728,-187.0485 503.3876,-187.5011 511.9447,-193.7483 513.9728,-187.0485"/>
</g>
<!-- Node13&#45;&gt;Node6 -->
<g id="edge19" class="edge">
<title>Node13&#45;&gt;Node6</title>
<path fill="none" stroke="#191970" d="M350.2702,-224.3733C374.3966,-215.1822 410.9362,-201.2624 437.6877,-191.0713"/>
<polygon fill="#191970" stroke="#191970" points="438.9607,-194.3318 447.0596,-187.5011 436.4687,-187.7904 438.9607,-194.3318"/>
</g>
<!-- Node14&#45;&gt;Node6 -->
<g id="edge21" class="edge">
<title>Node14&#45;&gt;Node6</title>
<path fill="none" stroke="#191970" d="M264.6925,-224.4369C307.9577,-214.7455 374.9048,-199.7493 420.9497,-189.4353"/>
<polygon fill="#191970" stroke="#191970" points="421.7371,-192.8457 430.7302,-187.2444 420.2069,-186.015 421.7371,-192.8457"/>
</g>
<!-- Node14&#45;&gt;Node9 -->
<g id="edge22" class="edge">
<title>Node14&#45;&gt;Node9</title>
<path fill="none" stroke="#191970" d="M218.7773,-224.375C207.3822,-190.3415 168.8511,-75.262 153.4443,-29.247"/>
<polygon fill="#191970" stroke="#191970" points="156.7046,-27.9605 150.2107,-19.5891 150.0668,-30.183 156.7046,-27.9605"/>
</g>
<!-- Node15&#45;&gt;Node6 -->
<g id="edge24" class="edge">
<title>Node15&#45;&gt;Node6</title>
<path fill="none" stroke="#191970" d="M430.7093,-224.2455C437.8073,-216.2958 448.0084,-204.8706 456.495,-195.3656"/>
<polygon fill="#191970" stroke="#191970" points="459.3411,-197.4331 463.3905,-187.6427 454.1195,-192.771 459.3411,-197.4331"/>
</g>
<!-- Node16&#45;&gt;Node6 -->
<g id="edge27" class="edge">
<title>Node16&#45;&gt;Node6</title>
<path fill="none" stroke="#191970" d="M513.2907,-224.2455C506.1927,-216.2958 495.9916,-204.8706 487.505,-195.3656"/>
<polygon fill="#191970" stroke="#191970" points="489.8805,-192.771 480.6095,-187.6427 484.6589,-197.4331 489.8805,-192.771"/>
</g>
<!-- Node17&#45;&gt;Node7 -->
<g id="edge30" class="edge">
<title>Node17&#45;&gt;Node7</title>
<path fill="none" stroke="#191970" d="M685.213,-168.2455C683.1023,-160.8579 680.134,-150.4689 677.5453,-141.4087"/>
<polygon fill="#191970" stroke="#191970" points="680.8677,-140.2964 674.755,-131.6427 674.137,-142.2195 680.8677,-140.2964"/>
</g>
</g>
</svg>
        <g id="navigator" transform="translate(0 0)" fill="#404254">
                <rect fill="#f2f5e9" fill-opacity="0.5" stroke="#606060" stroke-width=".5" x="0" y="0" width="60" height="60"/>
                <use id="zoomplus" xlink:href="#zoomPlus" x="17" y="9" onmousedown="handleZoom(evt,'in')"/>
                <use id="zoomminus" xlink:href="#zoomMin" x="42" y="9" onmousedown="handleZoom(evt,'out')"/>
                <use id="reset" xlink:href="#resetDef" x="30" y="36" onmousedown="handleReset()"/>
                <g id="arrowUp" xlink:href="#dirArrow" transform="translate(30 24)" onmousedown="handlePan(0,-1)">
                  <use xlink:href="#rim" fill="#404040">
                        <set attributeName="fill" to="#808080" begin="arrowUp.mouseover" end="arrowUp.mouseout"/>
                  </use>
                  <path fill="none" stroke="white" stroke-width="1.5" d="M0,-3.0v7 M-2.5,-0.5L0,-3.0L2.5,-0.5"/>
                </g>
                <g id="arrowRight" xlink:href="#dirArrow" transform="rotate(90) translate(36 -43)" onmousedown="handlePan(1,0)">
                  <use xlink:href="#rim" fill="#404040">
                        <set attributeName="fill" to="#808080" begin="arrowRight.mouseover" end="arrowRight.mouseout"/>
                  </use>
                  <path fill="none" stroke="white" stroke-width="1.5" d="M0,-3.0v7 M-2.5,-0.5L0,-3.0L2.5,-0.5"/>
                </g>
                <g id="arrowDown" xlink:href="#dirArrow" transform="rotate(180) translate(-30 -48)" onmousedown="handlePan(0,1)">
                  <use xlink:href="#rim" fill="#404040">
                        <set attributeName="fill" to="#808080" begin="arrowDown.mouseover" end="arrowDown.mouseout"/>
                  </use>
                  <path fill="none" stroke="white" stroke-width="1.5" d="M0,-3.0v7 M-2.5,-0.5L0,-3.0L2.5,-0.5"/>
                </g>
                <g id="arrowLeft" xlink:href="#dirArrow" transform="rotate(270) translate(-36 17)" onmousedown="handlePan(-1,0)">
                  <use xlink:href="#rim" fill="#404040">
                        <set attributeName="fill" to="#808080" begin="arrowLeft.mouseover" end="arrowLeft.mouseout"/>
                  </use>
                  <path fill="none" stroke="white" stroke-width="1.5" d="M0,-3.0v7 M-2.5,-0.5L0,-3.0L2.5,-0.5"/>
                </g>
        </g>
        <svg viewBox="0 0 15 15" width="100%" height="30px" preserveAspectRatio="xMaxYMin meet">
         <g id="arrow_out" transform="scale(0.3 0.3)">
          <a xlink:href="AST_8h__incl_org.svg" target="_base">
           <rect id="button" ry="5" rx="5" y="6" x="6" height="38" width="38"
                fill="#f2f5e9" fill-opacity="0.5" stroke="#606060" stroke-width="1.0"/>
           <path id="arrow"
             d="M 11.500037,31.436501 C 11.940474,20.09759 22.043105,11.32322 32.158766,21.979434 L 37.068811,17.246167 C 37.068811,17.246167 37.088388,32 37.088388,32 L 22.160133,31.978069 C 22.160133,31.978069 26.997745,27.140456 26.997745,27.140456 C 18.528582,18.264221 13.291696,25.230495 11.500037,31.436501 z"
             style="fill:#404040;"/>
          </a>
         </g>
        </svg>
</svg>
