<?xml version="1.0" encoding="UTF-8" standalone="no"?>
<!DOCTYPE svg PUBLIC "-//W3C//DTD SVG 1.1//EN"
 "http://www.w3.org/Graphics/SVG/1.1/DTD/svg11.dtd">
<!-- Generated by graphviz version 2.40.1 (20161225.0304)
 -->
<!-- Title: parser/AST.c Pages: 1 -->
<svg width="1147pt" height="532pt"
 viewBox="0.00 0.00 1147.00 532.00" xmlns="http://www.w3.org/2000/svg" xmlns:xlink="http://www.w3.org/1999/xlink">
<g id="graph0" class="graph" transform="scale(1 1) rotate(0) translate(4 528)">
<title>parser/AST.c</title>
<polygon fill="#ffffff" stroke="transparent" points="-4,4 -4,-528 1143,-528 1143,4 -4,4"/>
<!-- Node0 -->
<g id="node1" class="node">
<title>Node0</title>
<g id="a_node1"><a xlink:title=" ">
<polygon fill="#bfbfbf" stroke="#000000" points="813,-504.5 813,-523.5 887,-523.5 887,-504.5 813,-504.5"/>
<text text-anchor="middle" x="850" y="-511.5" font-family="Helvetica,sans-Serif" font-size="10.00" fill="#000000">parser/AST.c</text>
</a>
</g>
</g>
<!-- Node1 -->
<g id="node2" class="node">
<title>Node1</title>
<g id="a_node2"><a xlink:href="AST_8h.html" target="_top" xlink:title=" ">
<polygon fill="#ffffff" stroke="#000000" points="28,-392.5 28,-411.5 72,-411.5 72,-392.5 28,-392.5"/>
<text text-anchor="middle" x="50" y="-399.5" font-family="Helvetica,sans-Serif" font-size="10.00" fill="#000000">AST.h</text>
</a>
</g>
</g>
<!-- Node0&#45;&gt;Node1 -->
<g id="edge1" class="edge">
<title>Node0&#45;&gt;Node1</title>
<path fill="none" stroke="#191970" d="M812.7255,-510.8652C701.4575,-501.1143 362.2919,-468.5351 86,-412 84.7489,-411.744 83.4773,-411.4682 82.1957,-411.1772"/>
<polygon fill="#191970" stroke="#191970" points="82.9017,-407.7462 72.3521,-408.7243 81.209,-414.5385 82.9017,-407.7462"/>
</g>
<!-- Node2 -->
<g id="node3" class="node">
<title>Node2</title>
<g id="a_node3"><a xlink:title=" ">
<polygon fill="#ffffff" stroke="#bfbfbf" points="88.5,-.5 88.5,-19.5 137.5,-19.5 137.5,-.5 88.5,-.5"/>
<text text-anchor="middle" x="113" y="-7.5" font-family="Helvetica,sans-Serif" font-size="10.00" fill="#000000">stdint.h</text>
</a>
</g>
</g>
<!-- Node0&#45;&gt;Node2 -->
<g id="edge43" class="edge">
<title>Node0&#45;&gt;Node2</title>
<path fill="none" stroke="#191970" d="M812.93,-513.0795C649.3294,-508.5364 0,-485.2602 0,-402 0,-402 0,-402 0,-122 0,-75.5439 48.7737,-41.7874 82.2342,-24.0953"/>
<polygon fill="#191970" stroke="#191970" points="83.8823,-27.1838 91.2125,-19.534 80.7117,-20.943 83.8823,-27.1838"/>
</g>
<!-- Node3 -->
<g id="node4" class="node">
<title>Node3</title>
<g id="a_node4"><a xlink:href="token_8h.html" target="_top" xlink:title=" ">
<polygon fill="#ffffff" stroke="#000000" points="436.5,-336.5 436.5,-355.5 485.5,-355.5 485.5,-336.5 436.5,-336.5"/>
<text text-anchor="middle" x="461" y="-343.5" font-family="Helvetica,sans-Serif" font-size="10.00" fill="#000000">token.h</text>
</a>
</g>
</g>
<!-- Node0&#45;&gt;Node3 -->
<g id="edge41" class="edge">
<title>Node0&#45;&gt;Node3</title>
<path fill="none" stroke="#191970" d="M827.9711,-504.4862C762.5987,-476.2534 569.5002,-392.8587 492.8653,-359.7619"/>
<polygon fill="#191970" stroke="#191970" points="493.8376,-356.3694 483.2694,-355.6177 491.0622,-362.7957 493.8376,-356.3694"/>
</g>
<!-- Node10 -->
<g id="node11" class="node">
<title>Node10</title>
<g id="a_node11"><a xlink:title=" ">
<polygon fill="#ffffff" stroke="#bfbfbf" points="828,-.5 828,-19.5 884,-19.5 884,-.5 828,-.5"/>
<text text-anchor="middle" x="856" y="-7.5" font-family="Helvetica,sans-Serif" font-size="10.00" fill="#000000">stdbool.h</text>
</a>
</g>
</g>
<!-- Node0&#45;&gt;Node10 -->
<g id="edge42" class="edge">
<title>Node0&#45;&gt;Node10</title>
<path fill="none" stroke="#191970" d="M887.4501,-511.2393C949.0491,-504.4371 1065,-481.1242 1065,-402 1065,-402 1065,-402 1065,-122 1065,-45.4957 954.858,-21.0437 894.4879,-13.3872"/>
<polygon fill="#191970" stroke="#191970" points="894.5256,-9.8678 884.1867,-12.1821 893.7122,-16.8204 894.5256,-9.8678"/>
</g>
<!-- Node12 -->
<g id="node13" class="node">
<title>Node12</title>
<g id="a_node13"><a xlink:title=" ">
<polygon fill="#ffffff" stroke="#bfbfbf" points="946,-56.5 946,-75.5 994,-75.5 994,-56.5 946,-56.5"/>
<text text-anchor="middle" x="970" y="-63.5" font-family="Helvetica,sans-Serif" font-size="10.00" fill="#000000">stdlib.h</text>
</a>
</g>
</g>
<!-- Node0&#45;&gt;Node12 -->
<g id="edge45" class="edge">
<title>Node0&#45;&gt;Node12</title>
<path fill="none" stroke="#191970" d="M887.105,-507.6484C939.0071,-496.3951 1027,-467.6377 1027,-402 1027,-402 1027,-402 1027,-234 1027,-177.2732 997.4962,-115.2122 980.9417,-84.8547"/>
<polygon fill="#191970" stroke="#191970" points="983.8262,-82.8423 975.8853,-75.8285 977.7191,-86.2635 983.8262,-82.8423"/>
</g>
<!-- Node19 -->
<g id="node20" class="node">
<title>Node19</title>
<g id="a_node20"><a xlink:href="parser_8h.html" target="_top" xlink:title=" ">
<polygon fill="#ffffff" stroke="#000000" points="824.5,-448.5 824.5,-467.5 875.5,-467.5 875.5,-448.5 824.5,-448.5"/>
<text text-anchor="middle" x="850" y="-455.5" font-family="Helvetica,sans-Serif" font-size="10.00" fill="#000000">parser.h</text>
</a>
</g>
</g>
<!-- Node0&#45;&gt;Node19 -->
<g id="edge34" class="edge">
<title>Node0&#45;&gt;Node19</title>
<path fill="none" stroke="#191970" d="M850,-504.2455C850,-496.9382 850,-486.6944 850,-477.7046"/>
<polygon fill="#191970" stroke="#191970" points="853.5001,-477.6426 850,-467.6427 846.5001,-477.6427 853.5001,-477.6426"/>
</g>
<!-- Node21 -->
<g id="node22" class="node">
<title>Node21</title>
<g id="a_node22"><a xlink:title=" ">
<polygon fill="#ffffff" stroke="#bfbfbf" points="1093,-448.5 1093,-467.5 1139,-467.5 1139,-448.5 1093,-448.5"/>
<text text-anchor="middle" x="1116" y="-455.5" font-family="Helvetica,sans-Serif" font-size="10.00" fill="#000000">stdio.h</text>
</a>
</g>
</g>
<!-- Node0&#45;&gt;Node21 -->
<g id="edge44" class="edge">
<title>Node0&#45;&gt;Node21</title>
<path fill="none" stroke="#191970" d="M887.0477,-507.3335C932.4656,-498.9827 1011.6984,-483.8363 1079,-468 1080.2752,-467.6999 1081.5731,-467.3869 1082.8826,-467.0646"/>
<polygon fill="#191970" stroke="#191970" points="1084.151,-470.3526 1092.9668,-464.4763 1082.4106,-463.5724 1084.151,-470.3526"/>
</g>
<!-- Node1&#45;&gt;Node2 -->
<g id="edge2" class="edge">
<title>Node1&#45;&gt;Node2</title>
<path fill="none" stroke="#191970" d="M48.2807,-392.4486C44.9626,-373.1572 38,-328.1337 38,-290 38,-290 38,-290 38,-122 38,-90.7875 44.5611,-81.8864 62,-56 69.7029,-44.5658 80.8514,-34.0765 90.7617,-26.0111"/>
<polygon fill="#191970" stroke="#191970" points="92.9505,-28.7427 98.6924,-19.8387 88.6511,-23.2187 92.9505,-28.7427"/>
</g>
<!-- Node1&#45;&gt;Node3 -->
<g id="edge3" class="edge">
<title>Node1&#45;&gt;Node3</title>
<path fill="none" stroke="#191970" d="M72.0971,-398.9892C139.7447,-389.772 344.3827,-361.8895 426.4273,-350.7106"/>
<polygon fill="#191970" stroke="#191970" points="427.0517,-354.158 436.4876,-349.3399 426.1066,-347.2221 427.0517,-354.158"/>
</g>
<!-- Node3&#45;&gt;Node2 -->
<g id="edge33" class="edge">
<title>Node3&#45;&gt;Node2</title>
<path fill="none" stroke="#191970" d="M436.3228,-343.446C357.0475,-334.5665 114,-301.8137 114,-234 114,-234 114,-234 114,-122 114,-89.7103 113.5793,-52.1863 113.2836,-29.8043"/>
<polygon fill="#191970" stroke="#191970" points="116.7804,-29.5391 113.1433,-19.5881 109.781,-29.6353 116.7804,-29.5391"/>
</g>
<!-- Node4 -->
<g id="node5" class="node">
<title>Node4</title>
<g id="a_node5"><a xlink:href="builtins_8h.html" target="_top" xlink:title=" ">
<polygon fill="#ffffff" stroke="#000000" points="433,-280.5 433,-299.5 489,-299.5 489,-280.5 433,-280.5"/>
<text text-anchor="middle" x="461" y="-287.5" font-family="Helvetica,sans-Serif" font-size="10.00" fill="#000000">builtins.h</text>
</a>
</g>
</g>
<!-- Node3&#45;&gt;Node4 -->
<g id="edge4" class="edge">
<title>Node3&#45;&gt;Node4</title>
<path fill="none" stroke="#191970" d="M461,-336.2455C461,-328.9382 461,-318.6944 461,-309.7046"/>
<polygon fill="#191970" stroke="#191970" points="464.5001,-309.6426 461,-299.6427 457.5001,-309.6427 464.5001,-309.6426"/>
</g>
<!-- Node3&#45;&gt;Node10 -->
<g id="edge32" class="edge">
<title>Node3&#45;&gt;Node10</title>
<path fill="none" stroke="#191970" d="M485.6225,-345.2422C579.9448,-341.6836 913,-322.8289 913,-234 913,-234 913,-234 913,-122 913,-85.1826 888.2325,-48.2377 871.3499,-27.3313"/>
<polygon fill="#191970" stroke="#191970" points="874.0131,-25.06 864.9063,-19.6456 868.6489,-29.5574 874.0131,-25.06"/>
</g>
<!-- Node5 -->
<g id="node6" class="node">
<title>Node5</title>
<g id="a_node6"><a xlink:href="builtinutils_8h.html" target="_top" xlink:title=" ">
<polygon fill="#ffffff" stroke="#000000" points="156,-.5 156,-19.5 224,-19.5 224,-.5 156,-.5"/>
<text text-anchor="middle" x="190" y="-7.5" font-family="Helvetica,sans-Serif" font-size="10.00" fill="#000000">builtinutils.h</text>
</a>
</g>
</g>
<!-- Node4&#45;&gt;Node5 -->
<g id="edge5" class="edge">
<title>Node4&#45;&gt;Node5</title>
<path fill="none" stroke="#191970" d="M432.8524,-289.3884C370.974,-287.4024 226.1325,-279.0313 195,-244 140.638,-182.83 168.7144,-73.0836 183.1653,-29.0484"/>
<polygon fill="#191970" stroke="#191970" points="186.4859,-30.1548 186.4081,-19.5602 179.8621,-27.8909 186.4859,-30.1548"/>
</g>
<!-- Node6 -->
<g id="node7" class="node">
<title>Node6</title>
<g id="a_node7"><a xlink:href="helios__boolean_8h.html" target="_top" xlink:title=" ">
<polygon fill="#ffffff" stroke="#000000" points="682.5,-224.5 682.5,-243.5 771.5,-243.5 771.5,-224.5 682.5,-224.5"/>
<text text-anchor="middle" x="727" y="-231.5" font-family="Helvetica,sans-Serif" font-size="10.00" fill="#000000">helios_boolean.h</text>
</a>
</g>
</g>
<!-- Node4&#45;&gt;Node6 -->
<g id="edge6" class="edge">
<title>Node4&#45;&gt;Node6</title>
<path fill="none" stroke="#191970" d="M489.4667,-284.007C532.996,-274.843 616.8822,-257.1827 672.4088,-245.4929"/>
<polygon fill="#191970" stroke="#191970" points="673.3663,-248.8681 682.4307,-243.383 671.9242,-242.0183 673.3663,-248.8681"/>
</g>
<!-- Node7 -->
<g id="node8" class="node">
<title>Node7</title>
<g id="a_node8"><a xlink:href="helios__object_8h.html" target="_top" xlink:title=" ">
<polygon fill="#ffffff" stroke="#000000" points="454,-168.5 454,-187.5 536,-187.5 536,-168.5 454,-168.5"/>
<text text-anchor="middle" x="495" y="-175.5" font-family="Helvetica,sans-Serif" font-size="10.00" fill="#000000">helios_object.h</text>
</a>
</g>
</g>
<!-- Node4&#45;&gt;Node7 -->
<g id="edge26" class="edge">
<title>Node4&#45;&gt;Node7</title>
<path fill="none" stroke="#191970" d="M455.3824,-280.2474C448.5601,-267.046 438.9087,-242.9611 447,-224 452.1156,-212.0122 462.0575,-201.6498 471.5727,-193.8114"/>
<polygon fill="#191970" stroke="#191970" points="473.8797,-196.4532 479.6926,-187.5954 469.6246,-190.8949 473.8797,-196.4532"/>
</g>
<!-- Node9 -->
<g id="node10" class="node">
<title>Node9</title>
<g id="a_node10"><a xlink:href="helios__memory_8h.html" target="_top" xlink:title=" ">
<polygon fill="#ffffff" stroke="#000000" points="221,-56.5 221,-75.5 311,-75.5 311,-56.5 221,-56.5"/>
<text text-anchor="middle" x="266" y="-63.5" font-family="Helvetica,sans-Serif" font-size="10.00" fill="#000000">helios_memory.h</text>
</a>
</g>
</g>
<!-- Node4&#45;&gt;Node9 -->
<g id="edge29" class="edge">
<title>Node4&#45;&gt;Node9</title>
<path fill="none" stroke="#191970" d="M432.85,-289.2109C373.2097,-286.8842 237.2704,-277.898 209,-244 168.5745,-195.5273 222.4899,-117.9504 250.7199,-83.4826"/>
<polygon fill="#191970" stroke="#191970" points="253.5135,-85.5987 257.2706,-75.6924 248.1558,-81.0936 253.5135,-85.5987"/>
</g>
<!-- Node13 -->
<g id="node14" class="node">
<title>Node13</title>
<g id="a_node14"><a xlink:href="helios__code_8h.html" target="_top" xlink:title=" ">
<polygon fill="#ffffff" stroke="#000000" points="456.5,-224.5 456.5,-243.5 533.5,-243.5 533.5,-224.5 456.5,-224.5"/>
<text text-anchor="middle" x="495" y="-231.5" font-family="Helvetica,sans-Serif" font-size="10.00" fill="#000000">helios_code.h</text>
</a>
</g>
</g>
<!-- Node4&#45;&gt;Node13 -->
<g id="edge17" class="edge">
<title>Node4&#45;&gt;Node13</title>
<path fill="none" stroke="#191970" d="M466.9223,-280.2455C471.6027,-272.5367 478.2673,-261.5598 483.9289,-252.2348"/>
<polygon fill="#191970" stroke="#191970" points="486.9475,-254.007 489.1455,-243.6427 480.9639,-250.3741 486.9475,-254.007"/>
</g>
<!-- Node14 -->
<g id="node15" class="node">
<title>Node14</title>
<g id="a_node15"><a xlink:href="helios__float_8h.html" target="_top" xlink:title=" ">
<polygon fill="#ffffff" stroke="#000000" points="552,-224.5 552,-243.5 626,-243.5 626,-224.5 552,-224.5"/>
<text text-anchor="middle" x="589" y="-231.5" font-family="Helvetica,sans-Serif" font-size="10.00" fill="#000000">helios_float.h</text>
</a>
</g>
</g>
<!-- Node4&#45;&gt;Node14 -->
<g id="edge19" class="edge">
<title>Node4&#45;&gt;Node14</title>
<path fill="none" stroke="#191970" d="M483.004,-280.3733C503.6435,-271.3435 534.7158,-257.7494 557.8889,-247.6111"/>
<polygon fill="#191970" stroke="#191970" points="559.5245,-250.7159 567.2831,-243.5011 556.7187,-244.3028 559.5245,-250.7159"/>
</g>
<!-- Node15 -->
<g id="node16" class="node">
<title>Node15</title>
<g id="a_node16"><a xlink:href="helios__hashmap_8h.html" target="_top" xlink:title=" ">
<polygon fill="#ffffff" stroke="#000000" points="789.5,-224.5 789.5,-243.5 884.5,-243.5 884.5,-224.5 789.5,-224.5"/>
<text text-anchor="middle" x="837" y="-231.5" font-family="Helvetica,sans-Serif" font-size="10.00" fill="#000000">helios_hashmap.h</text>
</a>
</g>
</g>
<!-- Node4&#45;&gt;Node15 -->
<g id="edge21" class="edge">
<title>Node4&#45;&gt;Node15</title>
<path fill="none" stroke="#191970" d="M489.301,-286.2602C543.5239,-279.0244 666.0429,-262.3355 779.1469,-244.2607"/>
<polygon fill="#191970" stroke="#191970" points="780.0413,-247.662 789.3598,-242.6206 778.9313,-240.7506 780.0413,-247.662"/>
</g>
<!-- Node16 -->
<g id="node17" class="node">
<title>Node16</title>
<g id="a_node17"><a xlink:href="helios__integer_8h.html" target="_top" xlink:title=" ">
<polygon fill="#ffffff" stroke="#000000" points="218,-224.5 218,-243.5 302,-243.5 302,-224.5 218,-224.5"/>
<text text-anchor="middle" x="260" y="-231.5" font-family="Helvetica,sans-Serif" font-size="10.00" fill="#000000">helios_integer.h</text>
</a>
</g>
</g>
<!-- Node4&#45;&gt;Node16 -->
<g id="edge24" class="edge">
<title>Node4&#45;&gt;Node16</title>
<path fill="none" stroke="#191970" d="M432.6279,-282.0953C399.1795,-272.7764 343.202,-257.1807 304.0873,-246.283"/>
<polygon fill="#191970" stroke="#191970" points="304.8545,-242.8635 294.282,-243.5512 302.9757,-249.6067 304.8545,-242.8635"/>
</g>
<!-- Node17 -->
<g id="node18" class="node">
<title>Node17</title>
<g id="a_node18"><a xlink:href="helios__string_8h.html" target="_top" xlink:title=" ">
<polygon fill="#ffffff" stroke="#000000" points="320,-224.5 320,-243.5 400,-243.5 400,-224.5 320,-224.5"/>
<text text-anchor="middle" x="360" y="-231.5" font-family="Helvetica,sans-Serif" font-size="10.00" fill="#000000">helios_string.h</text>
</a>
</g>
</g>
<!-- Node4&#45;&gt;Node17 -->
<g id="edge27" class="edge">
<title>Node4&#45;&gt;Node17</title>
<path fill="none" stroke="#191970" d="M443.4071,-280.2455C427.621,-271.4928 404.2361,-258.527 386.2413,-248.5496"/>
<polygon fill="#191970" stroke="#191970" points="387.8341,-245.4308 377.3913,-243.6427 384.4397,-251.5528 387.8341,-245.4308"/>
</g>
<!-- Node18 -->
<g id="node19" class="node">
<title>Node18</title>
<g id="a_node19"><a xlink:href="serialize_8h.html" target="_top" xlink:title=" ">
<polygon fill="#ffffff" stroke="#000000" points="589.5,-168.5 589.5,-187.5 650.5,-187.5 650.5,-168.5 589.5,-168.5"/>
<text text-anchor="middle" x="620" y="-175.5" font-family="Helvetica,sans-Serif" font-size="10.00" fill="#000000">serialize.h</text>
</a>
</g>
</g>
<!-- Node4&#45;&gt;Node18 -->
<g id="edge30" class="edge">
<title>Node4&#45;&gt;Node18</title>
<path fill="none" stroke="#191970" d="M489.2975,-286.68C533.9015,-280.8 617.3192,-266.9625 635,-244 645.4844,-230.3836 639.094,-210.7845 631.6878,-196.4824"/>
<polygon fill="#191970" stroke="#191970" points="634.593,-194.512 626.593,-187.5658 628.5152,-197.9849 634.593,-194.512"/>
</g>
<!-- Node6&#45;&gt;Node7 -->
<g id="edge7" class="edge">
<title>Node6&#45;&gt;Node7</title>
<path fill="none" stroke="#191970" d="M687.3814,-224.4369C647.8432,-214.8932 586.9931,-200.2052 544.3418,-189.9101"/>
<polygon fill="#191970" stroke="#191970" points="544.9973,-186.4679 534.4552,-187.5237 543.3548,-193.2724 544.9973,-186.4679"/>
</g>
<!-- Node6&#45;&gt;Node10 -->
<g id="edge16" class="edge">
<title>Node6&#45;&gt;Node10</title>
<path fill="none" stroke="#191970" d="M732.543,-224.375C752.2667,-190.1261 819.2569,-73.802 845.4141,-28.3817"/>
<polygon fill="#191970" stroke="#191970" points="848.5201,-30.0016 850.4777,-19.5891 842.4541,-26.5082 848.5201,-30.0016"/>
</g>
<!-- Node8 -->
<g id="node9" class="node">
<title>Node8</title>
<g id="a_node9"><a xlink:href="helios__type_8h.html" target="_top" xlink:title=" ">
<polygon fill="#ffffff" stroke="#000000" points="458,-112.5 458,-131.5 532,-131.5 532,-112.5 458,-112.5"/>
<text text-anchor="middle" x="495" y="-119.5" font-family="Helvetica,sans-Serif" font-size="10.00" fill="#000000">helios_type.h</text>
</a>
</g>
</g>
<!-- Node7&#45;&gt;Node8 -->
<g id="edge8" class="edge">
<title>Node7&#45;&gt;Node8</title>
<path fill="none" stroke="#191970" d="M495,-168.2455C495,-160.9382 495,-150.6944 495,-141.7046"/>
<polygon fill="#191970" stroke="#191970" points="498.5001,-141.6426 495,-131.6427 491.5001,-141.6427 498.5001,-141.6426"/>
</g>
<!-- Node8&#45;&gt;Node2 -->
<g id="edge14" class="edge">
<title>Node8&#45;&gt;Node2</title>
<path fill="none" stroke="#191970" d="M457.8277,-117.9434C391.6444,-110.3936 256.183,-93.3696 212,-76 181.4915,-64.0062 150.7639,-41.5199 131.8126,-26.1588"/>
<polygon fill="#191970" stroke="#191970" points="133.9102,-23.3514 123.9771,-19.6656 129.4437,-28.7412 133.9102,-23.3514"/>
</g>
<!-- Node8&#45;&gt;Node9 -->
<g id="edge9" class="edge">
<title>Node8&#45;&gt;Node9</title>
<path fill="none" stroke="#191970" d="M457.9527,-112.9404C419.0453,-103.4259 357.6763,-88.4187 314.8348,-77.9421"/>
<polygon fill="#191970" stroke="#191970" points="315.4547,-74.4907 304.9095,-75.515 313.7919,-81.2903 315.4547,-74.4907"/>
</g>
<!-- Node8&#45;&gt;Node12 -->
<g id="edge15" class="edge">
<title>Node8&#45;&gt;Node12</title>
<path fill="none" stroke="#191970" d="M532.2725,-117.6058C622.0252,-107.0244 849.1171,-80.2515 935.7236,-70.041"/>
<polygon fill="#191970" stroke="#191970" points="936.2856,-73.4991 945.807,-68.8522 935.466,-66.5472 936.2856,-73.4991"/>
</g>
<!-- Node9&#45;&gt;Node2 -->
<g id="edge13" class="edge">
<title>Node9&#45;&gt;Node2</title>
<path fill="none" stroke="#191970" d="M239.6984,-56.3733C214.0949,-47.0021 175.0601,-32.7148 147.0872,-22.4764"/>
<polygon fill="#191970" stroke="#191970" points="148.2881,-19.1889 137.6943,-19.0384 145.882,-25.7624 148.2881,-19.1889"/>
</g>
<!-- Node9&#45;&gt;Node5 -->
<g id="edge10" class="edge">
<title>Node9&#45;&gt;Node5</title>
<path fill="none" stroke="#191970" d="M252.7618,-56.2455C241.319,-47.814 224.5704,-35.4729 211.2525,-25.6598"/>
<polygon fill="#191970" stroke="#191970" points="213.2133,-22.757 203.0865,-19.6427 209.0609,-28.3924 213.2133,-22.757"/>
</g>
<!-- Node9&#45;&gt;Node10 -->
<g id="edge11" class="edge">
<title>Node9&#45;&gt;Node10</title>
<path fill="none" stroke="#191970" d="M311.3166,-61.6988C423.6239,-51.0391 713.2739,-23.5469 817.7281,-13.6326"/>
<polygon fill="#191970" stroke="#191970" points="818.1956,-17.104 827.8201,-12.6747 817.5341,-10.1354 818.1956,-17.104"/>
</g>
<!-- Node11 -->
<g id="node12" class="node">
<title>Node11</title>
<g id="a_node12"><a xlink:title=" ">
<polygon fill="#ffffff" stroke="#bfbfbf" points="242,-.5 242,-19.5 294,-19.5 294,-.5 242,-.5"/>
<text text-anchor="middle" x="268" y="-7.5" font-family="Helvetica,sans-Serif" font-size="10.00" fill="#000000">stddef.h</text>
</a>
</g>
</g>
<!-- Node9&#45;&gt;Node11 -->
<g id="edge12" class="edge">
<title>Node9&#45;&gt;Node11</title>
<path fill="none" stroke="#191970" d="M266.3484,-56.2455C266.6093,-48.9382 266.9752,-38.6944 267.2963,-29.7046"/>
<polygon fill="#191970" stroke="#191970" points="270.7964,-29.7613 267.6556,-19.6427 263.8008,-29.5113 270.7964,-29.7613"/>
</g>
<!-- Node13&#45;&gt;Node7 -->
<g id="edge18" class="edge">
<title>Node13&#45;&gt;Node7</title>
<path fill="none" stroke="#191970" d="M495,-224.2455C495,-216.9382 495,-206.6944 495,-197.7046"/>
<polygon fill="#191970" stroke="#191970" points="498.5001,-197.6426 495,-187.6427 491.5001,-197.6427 498.5001,-197.6426"/>
</g>
<!-- Node14&#45;&gt;Node7 -->
<g id="edge20" class="edge">
<title>Node14&#45;&gt;Node7</title>
<path fill="none" stroke="#191970" d="M572.6264,-224.2455C558.0692,-215.5731 536.569,-202.7645 519.8848,-192.825"/>
<polygon fill="#191970" stroke="#191970" points="521.5683,-189.7539 511.1859,-187.6427 517.9856,-195.7676 521.5683,-189.7539"/>
</g>
<!-- Node15&#45;&gt;Node7 -->
<g id="edge22" class="edge">
<title>Node15&#45;&gt;Node7</title>
<path fill="none" stroke="#191970" d="M789.3509,-225.4336C786.5262,-224.9437 783.7263,-224.4626 781,-224 698.9121,-210.0703 603.382,-194.9186 546.129,-185.9514"/>
<polygon fill="#191970" stroke="#191970" points="546.6623,-182.4924 536.2415,-184.4047 545.5804,-189.4083 546.6623,-182.4924"/>
</g>
<!-- Node15&#45;&gt;Node10 -->
<g id="edge23" class="edge">
<title>Node15&#45;&gt;Node10</title>
<path fill="none" stroke="#191970" d="M837.8164,-224.375C840.691,-190.4851 850.3821,-76.2317 854.3177,-29.8332"/>
<polygon fill="#191970" stroke="#191970" points="857.8288,-29.8492 855.1866,-19.5891 850.8539,-29.2575 857.8288,-29.8492"/>
</g>
<!-- Node16&#45;&gt;Node7 -->
<g id="edge25" class="edge">
<title>Node16&#45;&gt;Node7</title>
<path fill="none" stroke="#191970" d="M300.1309,-224.4369C340.2649,-214.8731 402.0775,-200.1432 445.2933,-189.845"/>
<polygon fill="#191970" stroke="#191970" points="446.1183,-193.2465 455.0346,-187.5237 444.4956,-186.4372 446.1183,-193.2465"/>
</g>
<!-- Node17&#45;&gt;Node7 -->
<g id="edge28" class="edge">
<title>Node17&#45;&gt;Node7</title>
<path fill="none" stroke="#191970" d="M383.2073,-224.3733C405.1699,-215.2629 438.3332,-201.5062 462.8401,-191.3404"/>
<polygon fill="#191970" stroke="#191970" points="464.1997,-194.5657 472.0955,-187.5011 461.5176,-188.0999 464.1997,-194.5657"/>
</g>
<!-- Node18&#45;&gt;Node8 -->
<g id="edge31" class="edge">
<title>Node18&#45;&gt;Node8</title>
<path fill="none" stroke="#191970" d="M598.5117,-168.3733C578.356,-159.3435 548.012,-145.7494 525.382,-135.6111"/>
<polygon fill="#191970" stroke="#191970" points="526.7649,-132.3955 516.2079,-131.5011 523.9029,-138.7838 526.7649,-132.3955"/>
</g>
<!-- Node19&#45;&gt;Node1 -->
<g id="edge35" class="edge">
<title>Node19&#45;&gt;Node1</title>
<path fill="none" stroke="#191970" d="M824.4411,-457.1858C708.6953,-453.3874 232.9539,-436.5517 86,-412 84.7404,-411.7896 83.4616,-411.5523 82.1741,-411.2937"/>
<polygon fill="#191970" stroke="#191970" points="82.8392,-407.8548 72.3044,-408.9809 81.2421,-414.6702 82.8392,-407.8548"/>
</g>
<!-- Node19&#45;&gt;Node2 -->
<g id="edge40" class="edge">
<title>Node19&#45;&gt;Node2</title>
<path fill="none" stroke="#191970" d="M824.2476,-456.2704C689.9468,-446.5646 76,-393.4737 76,-234 76,-234 76,-234 76,-122 76,-87.7041 91.8354,-50.3471 102.787,-28.6122"/>
<polygon fill="#191970" stroke="#191970" points="106.0018,-30.0179 107.5405,-19.5354 99.8006,-26.7704 106.0018,-30.0179"/>
</g>
<!-- Node19&#45;&gt;Node10 -->
<g id="edge39" class="edge">
<title>Node19&#45;&gt;Node10</title>
<path fill="none" stroke="#191970" d="M875.8191,-450.2758C916.0168,-436.47 989,-403.4882 989,-346 989,-346 989,-346 989,-234 989,-154.6446 1049.9927,-119.945 1003,-56 989.9898,-38.2964 933.1192,-24.368 894.0528,-16.6621"/>
<polygon fill="#191970" stroke="#191970" points="894.53,-13.1899 884.0502,-14.747 893.2136,-20.0651 894.53,-13.1899"/>
</g>
<!-- Node20 -->
<g id="node21" class="node">
<title>Node20</title>
<g id="a_node21"><a xlink:href="error_8h.html" target="_top" xlink:title=" ">
<polygon fill="#ffffff" stroke="#000000" points="746,-56.5 746,-75.5 790,-75.5 790,-56.5 746,-56.5"/>
<text text-anchor="middle" x="768" y="-63.5" font-family="Helvetica,sans-Serif" font-size="10.00" fill="#000000">error.h</text>
</a>
</g>
</g>
<!-- Node19&#45;&gt;Node20 -->
<g id="edge36" class="edge">
<title>Node19&#45;&gt;Node20</title>
<path fill="none" stroke="#191970" d="M868.525,-448.3812C897.6828,-431.7571 951,-394.7005 951,-346 951,-346 951,-346 951,-178 951,-108.1298 852.7503,-80.5197 800.2307,-70.7519"/>
<polygon fill="#191970" stroke="#191970" points="800.527,-67.2508 790.0741,-68.9792 799.3233,-74.1466 800.527,-67.2508"/>
</g>
<!-- Node20&#45;&gt;Node2 -->
<g id="edge38" class="edge">
<title>Node20&#45;&gt;Node2</title>
<path fill="none" stroke="#191970" d="M745.9397,-64.9948C652.0966,-60.6247 285.0367,-42.5547 147.9714,-19.7283"/>
<polygon fill="#191970" stroke="#191970" points="148.1901,-16.2134 137.7361,-17.9347 146.9819,-23.1083 148.1901,-16.2134"/>
</g>
<!-- Node20&#45;&gt;Node10 -->
<g id="edge37" class="edge">
<title>Node20&#45;&gt;Node10</title>
<path fill="none" stroke="#191970" d="M783.3284,-56.2455C796.8303,-47.6534 816.7122,-35.0014 832.2686,-25.1018"/>
<polygon fill="#191970" stroke="#191970" points="834.2897,-27.9643 840.8472,-19.6427 830.5315,-22.0587 834.2897,-27.9643"/>
</g>
</g>
</svg>
