<?xml version="1.0" encoding="UTF-8" standalone="no"?>
<!DOCTYPE svg PUBLIC "-//W3C//DTD SVG 1.1//EN"
 "http://www.w3.org/Graphics/SVG/1.1/DTD/svg11.dtd">
<!-- Generated by graphviz version 2.40.1 (20161225.0304)
 -->
<!-- Title: AST_print Pages: 1 -->
<svg width="297pt" height="28pt"
 viewBox="0.00 0.00 297.00 28.00" xmlns="http://www.w3.org/2000/svg" xmlns:xlink="http://www.w3.org/1999/xlink">
<g id="graph0" class="graph" transform="scale(1 1) rotate(0) translate(4 24)">
<title>AST_print</title>
<polygon fill="#ffffff" stroke="transparent" points="-4,4 -4,-24 293,-24 293,4 -4,4"/>
<!-- Node10 -->
<g id="node1" class="node">
<title>Node10</title>
<g id="a_node1"><a xlink:title="Print an ast object.">
<polygon fill="#bfbfbf" stroke="#000000" points="0,-.5 0,-19.5 60,-19.5 60,-.5 0,-.5"/>
<text text-anchor="middle" x="30" y="-7.5" font-family="Helvetica,sans-Serif" font-size="10.00" fill="#000000">AST_print</text>
</a>
</g>
</g>
<!-- Node11 -->
<g id="node2" class="node">
<title>Node11</title>
<g id="a_node2"><a xlink:href="AST_8c.html#a92979ecde0bf875237d089ebd25d07b0" target="_top" xlink:title="Recursively prints an ast.">
<polygon fill="#ffffff" stroke="#000000" points="96,-.5 96,-19.5 188,-19.5 188,-.5 96,-.5"/>
<text text-anchor="middle" x="142" y="-7.5" font-family="Helvetica,sans-Serif" font-size="10.00" fill="#000000">AST_print_helper</text>
</a>
</g>
</g>
<!-- Node10&#45;&gt;Node11 -->
<g id="edge1" class="edge">
<title>Node10&#45;&gt;Node11</title>
<path fill="none" stroke="#191970" d="M60.0139,-10C68.0173,-10 76.9306,-10 85.8489,-10"/>
<polygon fill="#191970" stroke="#191970" points="85.872,-13.5001 95.872,-10 85.872,-6.5001 85.872,-13.5001"/>
</g>
<!-- Node12 -->
<g id="node3" class="node">
<title>Node12</title>
<g id="a_node3"><a xlink:href="token_8h.html#a347371dbade2f4df7ca01fd60f226951" target="_top" xlink:title="Prints a token object.">
<polygon fill="#ffffff" stroke="#000000" points="224,-.5 224,-19.5 289,-19.5 289,-.5 224,-.5"/>
<text text-anchor="middle" x="256.5" y="-7.5" font-family="Helvetica,sans-Serif" font-size="10.00" fill="#000000">token_print</text>
</a>
</g>
</g>
<!-- Node11&#45;&gt;Node12 -->
<g id="edge2" class="edge">
<title>Node11&#45;&gt;Node12</title>
<path fill="none" stroke="#191970" d="M188.2415,-10C196.6204,-10 205.3263,-10 213.6042,-10"/>
<polygon fill="#191970" stroke="#191970" points="213.8039,-13.5001 223.8038,-10 213.8038,-6.5001 213.8039,-13.5001"/>
</g>
</g>
</svg>
