<?xml version="1.0" encoding="UTF-8" standalone="no"?>
<!DOCTYPE svg PUBLIC "-//W3C//DTD SVG 1.1//EN"
 "http://www.w3.org/Graphics/SVG/1.1/DTD/svg11.dtd">
<!-- Generated by graphviz version 2.40.1 (20161225.0304)
 -->
<!-- Title: parser/include/AST.h Pages: 1 -->
<svg width="135pt" height="140pt"
 viewBox="0.00 0.00 134.50 140.00" xmlns="http://www.w3.org/2000/svg" xmlns:xlink="http://www.w3.org/1999/xlink">
<g id="graph0" class="graph" transform="scale(1 1) rotate(0) translate(4 136)">
<title>parser/include/AST.h</title>
<polygon fill="#ffffff" stroke="transparent" points="-4,4 -4,-136 130.5,-136 130.5,4 -4,4"/>
<!-- Node0 -->
<g id="node1" class="node">
<title>Node0</title>
<g id="a_node1"><a xlink:title=" ">
<polygon fill="#bfbfbf" stroke="#000000" points="0,-112.5 0,-131.5 107,-131.5 107,-112.5 0,-112.5"/>
<text text-anchor="middle" x="53.5" y="-119.5" font-family="Helvetica,sans-Serif" font-size="10.00" fill="#000000">parser/include/AST.h</text>
</a>
</g>
</g>
<!-- Node1 -->
<g id="node2" class="node">
<title>Node1</title>
<g id="a_node2"><a xlink:title=" ">
<polygon fill="#ffffff" stroke="#bfbfbf" points="3,-.5 3,-19.5 52,-19.5 52,-.5 3,-.5"/>
<text text-anchor="middle" x="27.5" y="-7.5" font-family="Helvetica,sans-Serif" font-size="10.00" fill="#000000">stdint.h</text>
</a>
</g>
</g>
<!-- Node0&#45;&gt;Node1 -->
<g id="edge1" class="edge">
<title>Node0&#45;&gt;Node1</title>
<path fill="none" stroke="#191970" d="M51.2833,-112.4509C47.0235,-94.1013 37.6193,-53.5908 31.9965,-29.3693"/>
<polygon fill="#191970" stroke="#191970" points="35.3818,-28.4744 29.7111,-19.5249 28.5632,-30.0573 35.3818,-28.4744"/>
</g>
<!-- Node2 -->
<g id="node3" class="node">
<title>Node2</title>
<g id="a_node3"><a xlink:href="token_8h.html" target="_top" xlink:title=" ">
<polygon fill="#ffffff" stroke="#000000" points="56,-56.5 56,-75.5 105,-75.5 105,-56.5 56,-56.5"/>
<text text-anchor="middle" x="80.5" y="-63.5" font-family="Helvetica,sans-Serif" font-size="10.00" fill="#000000">token.h</text>
</a>
</g>
</g>
<!-- Node0&#45;&gt;Node2 -->
<g id="edge2" class="edge">
<title>Node0&#45;&gt;Node2</title>
<path fill="none" stroke="#191970" d="M58.203,-112.2455C61.8424,-104.6973 66.9924,-94.0158 71.4262,-84.8197"/>
<polygon fill="#191970" stroke="#191970" points="74.6605,-86.1704 75.8509,-75.6427 68.3551,-83.1303 74.6605,-86.1704"/>
</g>
<!-- Node2&#45;&gt;Node1 -->
<g id="edge4" class="edge">
<title>Node2&#45;&gt;Node1</title>
<path fill="none" stroke="#191970" d="M71.2681,-56.2455C63.6683,-48.2155 52.7123,-36.6394 43.6632,-27.0781"/>
<polygon fill="#191970" stroke="#191970" points="46.042,-24.4998 36.6261,-19.6427 40.9579,-29.3115 46.042,-24.4998"/>
</g>
<!-- Node3 -->
<g id="node4" class="node">
<title>Node3</title>
<g id="a_node4"><a xlink:title=" ">
<polygon fill="#ffffff" stroke="#bfbfbf" points="70.5,-.5 70.5,-19.5 126.5,-19.5 126.5,-.5 70.5,-.5"/>
<text text-anchor="middle" x="98.5" y="-7.5" font-family="Helvetica,sans-Serif" font-size="10.00" fill="#000000">stdbool.h</text>
</a>
</g>
</g>
<!-- Node2&#45;&gt;Node3 -->
<g id="edge3" class="edge">
<title>Node2&#45;&gt;Node3</title>
<path fill="none" stroke="#191970" d="M83.6354,-56.2455C86.01,-48.8579 89.3493,-38.4689 92.2615,-29.4087"/>
<polygon fill="#191970" stroke="#191970" points="95.6725,-30.234 95.4006,-19.6427 89.0083,-28.0919 95.6725,-30.234"/>
</g>
</g>
</svg>
