<?xml version="1.0" encoding="UTF-8" standalone="no"?>
<!DOCTYPE svg PUBLIC "-//W3C//DTD SVG 1.1//EN"
 "http://www.w3.org/Graphics/SVG/1.1/DTD/svg11.dtd">
<!-- Generated by graphviz version 2.40.1 (20161225.0304)
 -->
<!-- Title: main/parser/AST.c Pages: 1 -->
<!--zoomable 532 -->
<svg id="main" version="1.1" xmlns="http://www.w3.org/2000/svg" xmlns:xlink="http://www.w3.org/1999/xlink" xml:space="preserve" onload="init(evt)">
<style type="text/css"><![CDATA[
.edge:hover path { stroke: red; }
.edge:hover polygon { stroke: red; fill: red; }
]]></style>
<script type="text/javascript"><![CDATA[
var edges = document.getElementsByTagName('g');
if (edges && edges.length) {
  for (var i=0;i<edges.length;i++) {
    if (edges[i].id.substr(0,4)=='edge') {
      edges[i].setAttribute('class','edge');
    }
  }
}
]]></script>
        <defs>
                <circle id="rim" cx="0" cy="0" r="7"/>
                <circle id="rim2" cx="0" cy="0" r="3.5"/>
                <g id="zoomPlus">
                        <use xlink:href="#rim" fill="#404040">
                                <set attributeName="fill" to="#808080" begin="zoomplus.mouseover" end="zoomplus.mouseout"/>
                        </use>
                        <path d="M-4,0h8M0,-4v8" fill="none" stroke="white" stroke-width="1.5" pointer-events="none"/>
                </g>
                <g id="zoomMin">
                        <use xlink:href="#rim" fill="#404040">
                                <set attributeName="fill" to="#808080" begin="zoomminus.mouseover" end="zoomminus.mouseout"/>
                        </use>
                        <path d="M-4,0h8" fill="none" stroke="white" stroke-width="1.5" pointer-events="none"/>
                </g>
                <g id="dirArrow">
                        <path fill="none" stroke="white" stroke-width="1.5" d="M0,-3.0v7 M-2.5,-0.5L0,-3.0L2.5,-0.5"/>
                </g>
               <g id="resetDef">
                       <use xlink:href="#rim2" fill="#404040">
                               <set attributeName="fill" to="#808080" begin="reset.mouseover" end="reset.mouseout"/>
                       </use>
               </g>
        </defs>

<script type="text/javascript">
var viewWidth = 1203;
var viewHeight = 532;
var sectionId = 'dynsection-0';
</script>
<script xlink:href="svgpan.js"/>
<svg id="graph" class="graph">
<g id="viewport">
<title>main/parser/AST.c</title>
<polygon fill="#ffffff" stroke="transparent" points="-4,4 -4,-528 1199,-528 1199,4 -4,4"/>
<!-- Node0 -->
<g id="node1" class="node">
<title>Node0</title>
<g id="a_node1"><a xlink:title=" ">
<polygon fill="#bfbfbf" stroke="#000000" points="860,-504.5 860,-523.5 964,-523.5 964,-504.5 860,-504.5"/>
<text text-anchor="middle" x="912" y="-511.5" font-family="Helvetica,sans-Serif" font-size="10.00" fill="#000000">main/parser/AST.c</text>
</a>
</g>
</g>
<!-- Node1 -->
<g id="node2" class="node">
<title>Node1</title>
<g id="a_node2"><a xlink:href="AST_8h.html" target="_top" xlink:title=" ">
<polygon fill="#ffffff" stroke="#000000" points="28.5,-392.5 28.5,-411.5 71.5,-411.5 71.5,-392.5 28.5,-392.5"/>
<text text-anchor="middle" x="50" y="-399.5" font-family="Helvetica,sans-Serif" font-size="10.00" fill="#000000">AST.h</text>
</a>
</g>
</g>
<!-- Node0&#45;&gt;Node1 -->
<g id="edge1" class="edge">
<title>Node0&#45;&gt;Node1</title>
<path fill="none" stroke="#191970" d="M859.8664,-510.2589C728.8169,-500.2727 375.4221,-469.737 86,-412 84.5289,-411.7065 83.0299,-411.3845 81.5199,-411.0414"/>
<polygon fill="#191970" stroke="#191970" points="82.1277,-407.5856 71.5771,-408.5524 80.4278,-414.3761 82.1277,-407.5856"/>
</g>
<!-- Node2 -->
<g id="node3" class="node">
<title>Node2</title>
<g id="a_node3"><a xlink:title=" ">
<polygon fill="#ffffff" stroke="#bfbfbf" points="83.5,-.5 83.5,-19.5 136.5,-19.5 136.5,-.5 83.5,-.5"/>
<text text-anchor="middle" x="110" y="-7.5" font-family="Helvetica,sans-Serif" font-size="10.00" fill="#000000">stdint.h</text>
</a>
</g>
</g>
<!-- Node0&#45;&gt;Node2 -->
<g id="edge43" class="edge">
<title>Node0&#45;&gt;Node2</title>
<path fill="none" stroke="#191970" d="M859.6913,-513.1173C665.9031,-509.1655 0,-489.239 0,-402 0,-402 0,-402 0,-122 0,-76.2337 47.3301,-42.3178 79.8977,-24.3977"/>
<polygon fill="#191970" stroke="#191970" points="81.8436,-27.3282 89.0509,-19.5625 78.574,-21.1387 81.8436,-27.3282"/>
</g>
<!-- Node3 -->
<g id="node4" class="node">
<title>Node3</title>
<g id="a_node4"><a xlink:href="token_8h.html" target="_top" xlink:title=" ">
<polygon fill="#ffffff" stroke="#000000" points="454.5,-336.5 454.5,-355.5 507.5,-355.5 507.5,-336.5 454.5,-336.5"/>
<text text-anchor="middle" x="481" y="-343.5" font-family="Helvetica,sans-Serif" font-size="10.00" fill="#000000">token.h</text>
</a>
</g>
</g>
<!-- Node0&#45;&gt;Node3 -->
<g id="edge41" class="edge">
<title>Node0&#45;&gt;Node3</title>
<path fill="none" stroke="#191970" d="M887.5927,-504.4862C814.7808,-476.1048 598.9589,-391.9794 514.9759,-359.2435"/>
<polygon fill="#191970" stroke="#191970" points="515.9945,-355.8841 505.4061,-355.5133 513.4522,-362.4061 515.9945,-355.8841"/>
</g>
<!-- Node10 -->
<g id="node11" class="node">
<title>Node10</title>
<g id="a_node11"><a xlink:title=" ">
<polygon fill="#ffffff" stroke="#bfbfbf" points="874,-.5 874,-19.5 936,-19.5 936,-.5 874,-.5"/>
<text text-anchor="middle" x="905" y="-7.5" font-family="Helvetica,sans-Serif" font-size="10.00" fill="#000000">stdbool.h</text>
</a>
</g>
</g>
<!-- Node0&#45;&gt;Node10 -->
<g id="edge42" class="edge">
<title>Node0&#45;&gt;Node10</title>
<path fill="none" stroke="#191970" d="M964.2606,-508.1815C1024.997,-498.1808 1117,-471.5528 1117,-402 1117,-402 1117,-402 1117,-122 1117,-45.6616 1008.2047,-21.2194 946.4894,-13.4955"/>
<polygon fill="#191970" stroke="#191970" points="946.617,-9.9871 936.2813,-12.316 945.8135,-16.9408 946.617,-9.9871"/>
</g>
<!-- Node12 -->
<g id="node13" class="node">
<title>Node12</title>
<g id="a_node13"><a xlink:title=" ">
<polygon fill="#ffffff" stroke="#bfbfbf" points="995.5,-56.5 995.5,-75.5 1048.5,-75.5 1048.5,-56.5 995.5,-56.5"/>
<text text-anchor="middle" x="1022" y="-63.5" font-family="Helvetica,sans-Serif" font-size="10.00" fill="#000000">stdlib.h</text>
</a>
</g>
</g>
<!-- Node0&#45;&gt;Node12 -->
<g id="edge45" class="edge">
<title>Node0&#45;&gt;Node12</title>
<path fill="none" stroke="#191970" d="M956.7529,-504.4275C1006.2204,-490.91 1079,-460.9973 1079,-402 1079,-402 1079,-402 1079,-234 1079,-177.2732 1049.4962,-115.2122 1032.9417,-84.8547"/>
<polygon fill="#191970" stroke="#191970" points="1035.8262,-82.8423 1027.8853,-75.8285 1029.7191,-86.2635 1035.8262,-82.8423"/>
</g>
<!-- Node19 -->
<g id="node20" class="node">
<title>Node19</title>
<g id="a_node20"><a xlink:href="parser_8h.html" target="_top" xlink:title=" ">
<polygon fill="#ffffff" stroke="#000000" points="884,-448.5 884,-467.5 940,-467.5 940,-448.5 884,-448.5"/>
<text text-anchor="middle" x="912" y="-455.5" font-family="Helvetica,sans-Serif" font-size="10.00" fill="#000000">parser.h</text>
</a>
</g>
</g>
<!-- Node0&#45;&gt;Node19 -->
<g id="edge34" class="edge">
<title>Node0&#45;&gt;Node19</title>
<path fill="none" stroke="#191970" d="M912,-504.2455C912,-496.9382 912,-486.6944 912,-477.7046"/>
<polygon fill="#191970" stroke="#191970" points="915.5001,-477.6426 912,-467.6427 908.5001,-477.6427 915.5001,-477.6426"/>
</g>
<!-- Node21 -->
<g id="node22" class="node">
<title>Node21</title>
<g id="a_node22"><a xlink:title=" ">
<polygon fill="#ffffff" stroke="#bfbfbf" points="1145,-448.5 1145,-467.5 1195,-467.5 1195,-448.5 1145,-448.5"/>
<text text-anchor="middle" x="1170" y="-455.5" font-family="Helvetica,sans-Serif" font-size="10.00" fill="#000000">stdio.h</text>
</a>
</g>
</g>
<!-- Node0&#45;&gt;Node21 -->
<g id="edge44" class="edge">
<title>Node0&#45;&gt;Node21</title>
<path fill="none" stroke="#191970" d="M960.4128,-504.4669C1004.879,-495.5603 1072.5432,-481.6268 1131,-468 1132.2636,-467.7054 1133.549,-467.401 1134.8464,-467.0897"/>
<polygon fill="#191970" stroke="#191970" points="1135.9942,-470.4116 1144.8646,-464.618 1134.3173,-463.6154 1135.9942,-470.4116"/>
</g>
<!-- Node1&#45;&gt;Node2 -->
<g id="edge2" class="edge">
<title>Node1&#45;&gt;Node2</title>
<path fill="none" stroke="#191970" d="M48.2807,-392.4486C44.9626,-373.1572 38,-328.1337 38,-290 38,-290 38,-290 38,-122 38,-90.7875 44.9543,-82.147 62,-56 69.3129,-44.7824 79.8557,-34.2848 89.199,-26.1584"/>
<polygon fill="#191970" stroke="#191970" points="91.5462,-28.7584 96.9897,-19.6689 87.0661,-23.3799 91.5462,-28.7584"/>
</g>
<!-- Node1&#45;&gt;Node3 -->
<g id="edge3" class="edge">
<title>Node1&#45;&gt;Node3</title>
<path fill="none" stroke="#191970" d="M71.6687,-399.1846C140.9731,-390.1798 357.7484,-362.0141 444.5396,-350.7373"/>
<polygon fill="#191970" stroke="#191970" points="444.9952,-354.2076 454.4608,-349.4482 444.0932,-347.266 444.9952,-354.2076"/>
</g>
<!-- Node3&#45;&gt;Node2 -->
<g id="edge33" class="edge">
<title>Node3&#45;&gt;Node2</title>
<path fill="none" stroke="#191970" d="M454.3106,-343.6727C369.8576,-335.5822 114,-305.1961 114,-234 114,-234 114,-234 114,-122 114,-89.691 112.317,-52.1727 111.1344,-29.7971"/>
<polygon fill="#191970" stroke="#191970" points="114.6167,-29.3771 110.5731,-19.5843 107.6272,-29.7613 114.6167,-29.3771"/>
</g>
<!-- Node4 -->
<g id="node5" class="node">
<title>Node4</title>
<g id="a_node5"><a xlink:href="builtins_8h.html" target="_top" xlink:title=" ">
<polygon fill="#ffffff" stroke="#000000" points="450,-280.5 450,-299.5 512,-299.5 512,-280.5 450,-280.5"/>
<text text-anchor="middle" x="481" y="-287.5" font-family="Helvetica,sans-Serif" font-size="10.00" fill="#000000">builtins.h</text>
</a>
</g>
</g>
<!-- Node3&#45;&gt;Node4 -->
<g id="edge4" class="edge">
<title>Node3&#45;&gt;Node4</title>
<path fill="none" stroke="#191970" d="M481,-336.2455C481,-328.9382 481,-318.6944 481,-309.7046"/>
<polygon fill="#191970" stroke="#191970" points="484.5001,-309.6426 481,-299.6427 477.5001,-309.6427 484.5001,-309.6426"/>
</g>
<!-- Node3&#45;&gt;Node10 -->
<g id="edge32" class="edge">
<title>Node3&#45;&gt;Node10</title>
<path fill="none" stroke="#191970" d="M507.7114,-345.5916C609.1766,-343.3314 965,-328.6574 965,-234 965,-234 965,-234 965,-122 965,-84.7757 938.9289,-47.9604 921.1578,-27.1895"/>
<polygon fill="#191970" stroke="#191970" points="923.6346,-24.7077 914.375,-19.5588 918.4027,-29.3582 923.6346,-24.7077"/>
</g>
<!-- Node5 -->
<g id="node6" class="node">
<title>Node5</title>
<g id="a_node6"><a xlink:href="builtinutils_8h.html" target="_top" xlink:title=" ">
<polygon fill="#ffffff" stroke="#000000" points="154.5,-.5 154.5,-19.5 231.5,-19.5 231.5,-.5 154.5,-.5"/>
<text text-anchor="middle" x="193" y="-7.5" font-family="Helvetica,sans-Serif" font-size="10.00" fill="#000000">builtinutils.h</text>
</a>
</g>
</g>
<!-- Node4&#45;&gt;Node5 -->
<g id="edge5" class="edge">
<title>Node4&#45;&gt;Node5</title>
<path fill="none" stroke="#191970" d="M449.9128,-287.2149C379.3298,-280.5834 211.7717,-262.9875 195,-244 140.8338,-182.6774 170.6546,-73.0186 185.8408,-29.0276"/>
<polygon fill="#191970" stroke="#191970" points="189.1587,-30.1438 189.2435,-19.5493 182.5704,-27.7786 189.1587,-30.1438"/>
</g>
<!-- Node6 -->
<g id="node7" class="node">
<title>Node6</title>
<g id="a_node7"><a xlink:href="helios__boolean_8h.html" target="_top" xlink:title=" ">
<polygon fill="#ffffff" stroke="#000000" points="714.5,-224.5 714.5,-243.5 813.5,-243.5 813.5,-224.5 714.5,-224.5"/>
<text text-anchor="middle" x="764" y="-231.5" font-family="Helvetica,sans-Serif" font-size="10.00" fill="#000000">helios_boolean.h</text>
</a>
</g>
</g>
<!-- Node4&#45;&gt;Node6 -->
<g id="edge6" class="edge">
<title>Node4&#45;&gt;Node6</title>
<path fill="none" stroke="#191970" d="M512.0955,-283.8468C558.6519,-274.6342 647.2678,-257.099 706.0003,-245.477"/>
<polygon fill="#191970" stroke="#191970" points="706.7492,-248.8967 715.8796,-243.5221 705.3904,-242.0299 706.7492,-248.8967"/>
</g>
<!-- Node7 -->
<g id="node8" class="node">
<title>Node7</title>
<g id="a_node8"><a xlink:href="helios__object_8h.html" target="_top" xlink:title=" ">
<polygon fill="#ffffff" stroke="#000000" points="471,-168.5 471,-187.5 561,-187.5 561,-168.5 471,-168.5"/>
<text text-anchor="middle" x="516" y="-175.5" font-family="Helvetica,sans-Serif" font-size="10.00" fill="#000000">helios_object.h</text>
</a>
</g>
</g>
<!-- Node4&#45;&gt;Node7 -->
<g id="edge26" class="edge">
<title>Node4&#45;&gt;Node7</title>
<path fill="none" stroke="#191970" d="M474.8188,-280.2472C467.2925,-267.0456 456.568,-242.9604 465,-224 470.4508,-211.7432 480.9599,-201.3755 491.0289,-193.6036"/>
<polygon fill="#191970" stroke="#191970" points="493.1744,-196.3721 499.2627,-187.7012 489.096,-190.6828 493.1744,-196.3721"/>
</g>
<!-- Node9 -->
<g id="node10" class="node">
<title>Node9</title>
<g id="a_node10"><a xlink:href="helios__memory_8h.html" target="_top" xlink:title=" ">
<polygon fill="#ffffff" stroke="#000000" points="225,-56.5 225,-75.5 325,-75.5 325,-56.5 225,-56.5"/>
<text text-anchor="middle" x="275" y="-63.5" font-family="Helvetica,sans-Serif" font-size="10.00" fill="#000000">helios_memory.h</text>
</a>
</g>
</g>
<!-- Node4&#45;&gt;Node9 -->
<g id="edge29" class="edge">
<title>Node4&#45;&gt;Node9</title>
<path fill="none" stroke="#191970" d="M449.8663,-286.9851C381.7779,-280.078 224.4565,-262.29 209,-244 167.6194,-195.0336 227.2272,-117.7132 258.2465,-83.3972"/>
<polygon fill="#191970" stroke="#191970" points="261.2044,-85.355 265.438,-75.6428 256.0718,-80.595 261.2044,-85.355"/>
</g>
<!-- Node13 -->
<g id="node14" class="node">
<title>Node13</title>
<g id="a_node14"><a xlink:href="helios__code_8h.html" target="_top" xlink:title=" ">
<polygon fill="#ffffff" stroke="#000000" points="474.5,-224.5 474.5,-243.5 557.5,-243.5 557.5,-224.5 474.5,-224.5"/>
<text text-anchor="middle" x="516" y="-231.5" font-family="Helvetica,sans-Serif" font-size="10.00" fill="#000000">helios_code.h</text>
</a>
</g>
</g>
<!-- Node4&#45;&gt;Node13 -->
<g id="edge17" class="edge">
<title>Node4&#45;&gt;Node13</title>
<path fill="none" stroke="#191970" d="M487.0965,-280.2455C491.9145,-272.5367 498.7751,-261.5598 504.6032,-252.2348"/>
<polygon fill="#191970" stroke="#191970" points="507.6413,-253.9777 509.9733,-243.6427 501.7053,-250.2677 507.6413,-253.9777"/>
</g>
<!-- Node14 -->
<g id="node15" class="node">
<title>Node14</title>
<g id="a_node15"><a xlink:href="helios__float_8h.html" target="_top" xlink:title=" ">
<polygon fill="#ffffff" stroke="#000000" points="576,-224.5 576,-243.5 658,-243.5 658,-224.5 576,-224.5"/>
<text text-anchor="middle" x="617" y="-231.5" font-family="Helvetica,sans-Serif" font-size="10.00" fill="#000000">helios_float.h</text>
</a>
</g>
</g>
<!-- Node4&#45;&gt;Node14 -->
<g id="edge19" class="edge">
<title>Node4&#45;&gt;Node14</title>
<path fill="none" stroke="#191970" d="M504.3792,-280.3733C526.5045,-271.2629 559.9134,-257.5062 584.6019,-247.3404"/>
<polygon fill="#191970" stroke="#191970" points="586.0117,-250.5451 593.9258,-243.5011 583.3464,-244.0723 586.0117,-250.5451"/>
</g>
<!-- Node15 -->
<g id="node16" class="node">
<title>Node15</title>
<g id="a_node16"><a xlink:href="helios__hashmap_8h.html" target="_top" xlink:title=" ">
<polygon fill="#ffffff" stroke="#000000" points="831.5,-224.5 831.5,-243.5 936.5,-243.5 936.5,-224.5 831.5,-224.5"/>
<text text-anchor="middle" x="884" y="-231.5" font-family="Helvetica,sans-Serif" font-size="10.00" fill="#000000">helios_hashmap.h</text>
</a>
</g>
</g>
<!-- Node4&#45;&gt;Node15 -->
<g id="edge21" class="edge">
<title>Node4&#45;&gt;Node15</title>
<path fill="none" stroke="#191970" d="M512.1648,-286.1133C570.6842,-278.7495 701.2424,-262.0096 821.3405,-244.2174"/>
<polygon fill="#191970" stroke="#191970" points="822.0665,-247.648 831.4426,-242.7145 821.0364,-240.7242 822.0665,-247.648"/>
</g>
<!-- Node16 -->
<g id="node17" class="node">
<title>Node16</title>
<g id="a_node17"><a xlink:href="helios__integer_8h.html" target="_top" xlink:title=" ">
<polygon fill="#ffffff" stroke="#000000" points="218,-224.5 218,-243.5 312,-243.5 312,-224.5 218,-224.5"/>
<text text-anchor="middle" x="265" y="-231.5" font-family="Helvetica,sans-Serif" font-size="10.00" fill="#000000">helios_integer.h</text>
</a>
</g>
</g>
<!-- Node4&#45;&gt;Node16 -->
<g id="edge24" class="edge">
<title>Node4&#45;&gt;Node16</title>
<path fill="none" stroke="#191970" d="M449.5917,-281.8571C413.3804,-272.469 353.5014,-256.9448 311.7974,-246.1327"/>
<polygon fill="#191970" stroke="#191970" points="312.4341,-242.6821 301.8758,-243.5604 310.6773,-249.4581 312.4341,-242.6821"/>
</g>
<!-- Node17 -->
<g id="node18" class="node">
<title>Node17</title>
<g id="a_node18"><a xlink:href="helios__string_8h.html" target="_top" xlink:title=" ">
<polygon fill="#ffffff" stroke="#000000" points="330,-224.5 330,-243.5 418,-243.5 418,-224.5 330,-224.5"/>
<text text-anchor="middle" x="374" y="-231.5" font-family="Helvetica,sans-Serif" font-size="10.00" fill="#000000">helios_string.h</text>
</a>
</g>
</g>
<!-- Node4&#45;&gt;Node17 -->
<g id="edge27" class="edge">
<title>Node4&#45;&gt;Node17</title>
<path fill="none" stroke="#191970" d="M462.362,-280.2455C445.5614,-271.4527 420.6366,-258.4079 401.5382,-248.4125"/>
<polygon fill="#191970" stroke="#191970" points="402.9073,-245.1787 392.4244,-243.6427 399.6614,-251.3807 402.9073,-245.1787"/>
</g>
<!-- Node18 -->
<g id="node19" class="node">
<title>Node18</title>
<g id="a_node19"><a xlink:href="serialize_8h.html" target="_top" xlink:title=" ">
<polygon fill="#ffffff" stroke="#000000" points="616.5,-168.5 616.5,-187.5 683.5,-187.5 683.5,-168.5 616.5,-168.5"/>
<text text-anchor="middle" x="650" y="-175.5" font-family="Helvetica,sans-Serif" font-size="10.00" fill="#000000">serialize.h</text>
</a>
</g>
</g>
<!-- Node4&#45;&gt;Node18 -->
<g id="edge30" class="edge">
<title>Node4&#45;&gt;Node18</title>
<path fill="none" stroke="#191970" d="M512.3861,-286.8493C560.301,-281.3187 648.1358,-268.0979 667,-244 677.7694,-230.2427 670.4601,-210.3986 662.3443,-196.066"/>
<polygon fill="#191970" stroke="#191970" points="665.3182,-194.2204 657.0765,-187.5626 659.3675,-197.9068 665.3182,-194.2204"/>
</g>
<!-- Node6&#45;&gt;Node7 -->
<g id="edge7" class="edge">
<title>Node6&#45;&gt;Node7</title>
<path fill="none" stroke="#191970" d="M721.6491,-224.4369C679.2058,-214.8529 613.7881,-200.0812 568.1687,-189.78"/>
<polygon fill="#191970" stroke="#191970" points="568.7016,-186.3123 558.1763,-187.5237 567.1597,-193.1404 568.7016,-186.3123"/>
</g>
<!-- Node6&#45;&gt;Node10 -->
<g id="edge16" class="edge">
<title>Node6&#45;&gt;Node10</title>
<path fill="none" stroke="#191970" d="M770.0586,-224.375C791.6623,-190.0543 865.1461,-73.3139 893.6086,-28.097"/>
<polygon fill="#191970" stroke="#191970" points="896.5988,-29.9166 898.964,-19.5891 890.6748,-26.1876 896.5988,-29.9166"/>
</g>
<!-- Node8 -->
<g id="node9" class="node">
<title>Node8</title>
<g id="a_node9"><a xlink:href="helios__type_8h.html" target="_top" xlink:title=" ">
<polygon fill="#ffffff" stroke="#000000" points="475,-112.5 475,-131.5 557,-131.5 557,-112.5 475,-112.5"/>
<text text-anchor="middle" x="516" y="-119.5" font-family="Helvetica,sans-Serif" font-size="10.00" fill="#000000">helios_type.h</text>
</a>
</g>
</g>
<!-- Node7&#45;&gt;Node8 -->
<g id="edge8" class="edge">
<title>Node7&#45;&gt;Node8</title>
<path fill="none" stroke="#191970" d="M516,-168.2455C516,-160.9382 516,-150.6944 516,-141.7046"/>
<polygon fill="#191970" stroke="#191970" points="519.5001,-141.6426 516,-131.6427 512.5001,-141.6427 519.5001,-141.6426"/>
</g>
<!-- Node8&#45;&gt;Node2 -->
<g id="edge14" class="edge">
<title>Node8&#45;&gt;Node2</title>
<path fill="none" stroke="#191970" d="M474.9853,-117.779C404.3348,-110.1653 262.7591,-93.3086 216,-76 183.5914,-64.0035 150.4427,-41.3558 130.042,-25.9735"/>
<polygon fill="#191970" stroke="#191970" points="131.9255,-23.0065 121.8664,-19.68 127.6555,-28.5534 131.9255,-23.0065"/>
</g>
<!-- Node8&#45;&gt;Node9 -->
<g id="edge9" class="edge">
<title>Node8&#45;&gt;Node9</title>
<path fill="none" stroke="#191970" d="M474.8445,-112.4369C433.6858,-102.8731 370.295,-88.1432 325.9758,-77.845"/>
<polygon fill="#191970" stroke="#191970" points="326.5185,-74.3779 315.9858,-75.5237 324.9341,-81.1963 326.5185,-74.3779"/>
</g>
<!-- Node8&#45;&gt;Node12 -->
<g id="edge15" class="edge">
<title>Node8&#45;&gt;Node12</title>
<path fill="none" stroke="#191970" d="M557.4081,-117.4173C654.1121,-106.7149 893.5467,-80.2162 985.3578,-70.0553"/>
<polygon fill="#191970" stroke="#191970" points="985.7441,-73.534 995.2984,-68.9551 984.9741,-66.5764 985.7441,-73.534"/>
</g>
<!-- Node9&#45;&gt;Node2 -->
<g id="edge13" class="edge">
<title>Node9&#45;&gt;Node2</title>
<path fill="none" stroke="#191970" d="M246.6355,-56.3733C218.9034,-46.9611 176.5596,-32.5899 146.3662,-22.3425"/>
<polygon fill="#191970" stroke="#191970" points="147.2255,-18.9381 136.6311,-19.0384 144.9757,-25.5667 147.2255,-18.9381"/>
</g>
<!-- Node9&#45;&gt;Node5 -->
<g id="edge10" class="edge">
<title>Node9&#45;&gt;Node5</title>
<path fill="none" stroke="#191970" d="M260.7167,-56.2455C248.253,-47.7337 229.9549,-35.2375 215.5208,-25.3801"/>
<polygon fill="#191970" stroke="#191970" points="217.3515,-22.392 207.1196,-19.6427 213.4038,-28.1726 217.3515,-22.392"/>
</g>
<!-- Node9&#45;&gt;Node10 -->
<g id="edge11" class="edge">
<title>Node9&#45;&gt;Node10</title>
<path fill="none" stroke="#191970" d="M325.2258,-61.5355C446.2342,-50.7792 752.1294,-23.5885 863.5708,-13.6826"/>
<polygon fill="#191970" stroke="#191970" points="864.0849,-17.1508 873.7357,-12.779 863.4651,-10.1783 864.0849,-17.1508"/>
</g>
<!-- Node11 -->
<g id="node12" class="node">
<title>Node11</title>
<g id="a_node12"><a xlink:title=" ">
<polygon fill="#ffffff" stroke="#bfbfbf" points="250,-.5 250,-19.5 306,-19.5 306,-.5 250,-.5"/>
<text text-anchor="middle" x="278" y="-7.5" font-family="Helvetica,sans-Serif" font-size="10.00" fill="#000000">stddef.h</text>
</a>
</g>
</g>
<!-- Node9&#45;&gt;Node11 -->
<g id="edge12" class="edge">
<title>Node9&#45;&gt;Node11</title>
<path fill="none" stroke="#191970" d="M275.5226,-56.2455C275.914,-48.9382 276.4628,-38.6944 276.9444,-29.7046"/>
<polygon fill="#191970" stroke="#191970" points="280.4434,-29.8156 277.4834,-19.6427 273.4534,-29.4411 280.4434,-29.8156"/>
</g>
<!-- Node13&#45;&gt;Node7 -->
<g id="edge18" class="edge">
<title>Node13&#45;&gt;Node7</title>
<path fill="none" stroke="#191970" d="M516,-224.2455C516,-216.9382 516,-206.6944 516,-197.7046"/>
<polygon fill="#191970" stroke="#191970" points="519.5001,-197.6426 516,-187.6427 512.5001,-197.6427 519.5001,-197.6426"/>
</g>
<!-- Node14&#45;&gt;Node7 -->
<g id="edge20" class="edge">
<title>Node14&#45;&gt;Node7</title>
<path fill="none" stroke="#191970" d="M599.4071,-224.2455C583.621,-215.4928 560.2361,-202.527 542.2413,-192.5496"/>
<polygon fill="#191970" stroke="#191970" points="543.8341,-189.4308 533.3913,-187.6427 540.4397,-195.5528 543.8341,-189.4308"/>
</g>
<!-- Node15&#45;&gt;Node7 -->
<g id="edge22" class="edge">
<title>Node15&#45;&gt;Node7</title>
<path fill="none" stroke="#191970" d="M831.4349,-225.3357C828.5823,-224.8802 825.7565,-224.4324 823,-224 735.0471,-210.2021 632.7706,-195.0572 571.2794,-186.0491"/>
<polygon fill="#191970" stroke="#191970" points="571.4289,-182.5338 561.0275,-184.5488 570.4153,-189.4601 571.4289,-182.5338"/>
</g>
<!-- Node15&#45;&gt;Node10 -->
<g id="edge23" class="edge">
<title>Node15&#45;&gt;Node10</title>
<path fill="none" stroke="#191970" d="M884.9023,-224.375C888.0795,-190.4851 898.7908,-76.2317 903.1406,-29.8332"/>
<polygon fill="#191970" stroke="#191970" points="906.6522,-29.8722 904.101,-19.5891 899.6828,-29.2188 906.6522,-29.8722"/>
</g>
<!-- Node16&#45;&gt;Node7 -->
<g id="edge25" class="edge">
<title>Node16&#45;&gt;Node7</title>
<path fill="none" stroke="#191970" d="M307.8632,-224.4369C350.9102,-214.8328 417.3073,-200.0191 463.491,-189.7152"/>
<polygon fill="#191970" stroke="#191970" points="464.3157,-193.1173 473.3135,-187.5237 462.7913,-186.2853 464.3157,-193.1173"/>
</g>
<!-- Node17&#45;&gt;Node7 -->
<g id="edge28" class="edge">
<title>Node17&#45;&gt;Node7</title>
<path fill="none" stroke="#191970" d="M398.4107,-224.3733C421.6142,-215.2226 456.7038,-201.3844 482.5142,-191.2057"/>
<polygon fill="#191970" stroke="#191970" points="483.8892,-194.4258 491.9079,-187.5011 481.3211,-187.9139 483.8892,-194.4258"/>
</g>
<!-- Node18&#45;&gt;Node8 -->
<g id="edge31" class="edge">
<title>Node18&#45;&gt;Node8</title>
<path fill="none" stroke="#191970" d="M626.9646,-168.3733C605.2612,-159.3032 572.5382,-145.6279 548.245,-135.4755"/>
<polygon fill="#191970" stroke="#191970" points="549.3111,-132.1278 538.7348,-131.5011 546.6119,-138.5865 549.3111,-132.1278"/>
</g>
<!-- Node19&#45;&gt;Node1 -->
<g id="edge35" class="edge">
<title>Node19&#45;&gt;Node1</title>
<path fill="none" stroke="#191970" d="M883.9478,-457.2492C758.0863,-453.7563 244.7202,-438.1502 86,-412 84.5199,-411.7561 83.0135,-411.4747 81.4975,-411.1646"/>
<polygon fill="#191970" stroke="#191970" points="82.0719,-407.7036 71.5333,-408.7931 80.4512,-414.5134 82.0719,-407.7036"/>
</g>
<!-- Node19&#45;&gt;Node2 -->
<g id="edge40" class="edge">
<title>Node19&#45;&gt;Node2</title>
<path fill="none" stroke="#191970" d="M883.7057,-456.6697C737.6726,-449.0541 76,-405.107 76,-234 76,-234 76,-234 76,-122 76,-87.9677 90.5515,-50.5293 100.6151,-28.7067"/>
<polygon fill="#191970" stroke="#191970" points="103.819,-30.1198 104.9832,-19.5891 97.5061,-27.0954 103.819,-30.1198"/>
</g>
<!-- Node19&#45;&gt;Node10 -->
<g id="edge39" class="edge">
<title>Node19&#45;&gt;Node10</title>
<path fill="none" stroke="#191970" d="M939.0426,-448.4903C976.8696,-433.2562 1041,-399.5346 1041,-346 1041,-346 1041,-346 1041,-234 1041,-154.5289 1105.4196,-119.7733 1058,-56 1044.5735,-37.943 986.7078,-24.297 946.1263,-16.724"/>
<polygon fill="#191970" stroke="#191970" points="946.6825,-13.2679 936.2189,-14.9305 945.4355,-20.1559 946.6825,-13.2679"/>
</g>
<!-- Node20 -->
<g id="node21" class="node">
<title>Node20</title>
<g id="a_node21"><a xlink:href="parser__error_8h.html" target="_top" xlink:title=" ">
<polygon fill="#ffffff" stroke="#000000" points="755,-56.5 755,-75.5 839,-75.5 839,-56.5 755,-56.5"/>
<text text-anchor="middle" x="797" y="-63.5" font-family="Helvetica,sans-Serif" font-size="10.00" fill="#000000">parser_error.h</text>
</a>
</g>
</g>
<!-- Node19&#45;&gt;Node20 -->
<g id="edge36" class="edge">
<title>Node19&#45;&gt;Node20</title>
<path fill="none" stroke="#191970" d="M927.851,-448.4609C953.9231,-431.4246 1003,-393.1008 1003,-346 1003,-346 1003,-346 1003,-178 1003,-108.1555 910.4681,-81.6237 849.4363,-71.7201"/>
<polygon fill="#191970" stroke="#191970" points="849.5965,-68.2044 839.1843,-70.1631 848.5453,-75.1251 849.5965,-68.2044"/>
</g>
<!-- Node20&#45;&gt;Node2 -->
<g id="edge38" class="edge">
<title>Node20&#45;&gt;Node2</title>
<path fill="none" stroke="#191970" d="M754.5732,-64.1609C632.556,-58.6936 281.3562,-41.6643 146.6954,-19.9309"/>
<polygon fill="#191970" stroke="#191970" points="147.064,-16.4435 136.6196,-18.2229 145.894,-23.3451 147.064,-16.4435"/>
</g>
<!-- Node20&#45;&gt;Node10 -->
<g id="edge37" class="edge">
<title>Node20&#45;&gt;Node10</title>
<path fill="none" stroke="#191970" d="M815.8122,-56.2455C832.8473,-47.4125 858.1575,-34.2887 877.4681,-24.2758"/>
<polygon fill="#191970" stroke="#191970" points="879.137,-27.353 886.4034,-19.6427 875.9147,-21.1388 879.137,-27.353"/>
</g>
</g>
</svg>
        <g id="navigator" transform="translate(0 0)" fill="#404254">
                <rect fill="#f2f5e9" fill-opacity="0.5" stroke="#606060" stroke-width=".5" x="0" y="0" width="60" height="60"/>
                <use id="zoomplus" xlink:href="#zoomPlus" x="17" y="9" onmousedown="handleZoom(evt,'in')"/>
                <use id="zoomminus" xlink:href="#zoomMin" x="42" y="9" onmousedown="handleZoom(evt,'out')"/>
                <use id="reset" xlink:href="#resetDef" x="30" y="36" onmousedown="handleReset()"/>
                <g id="arrowUp" xlink:href="#dirArrow" transform="translate(30 24)" onmousedown="handlePan(0,-1)">
                  <use xlink:href="#rim" fill="#404040">
                        <set attributeName="fill" to="#808080" begin="arrowUp.mouseover" end="arrowUp.mouseout"/>
                  </use>
                  <path fill="none" stroke="white" stroke-width="1.5" d="M0,-3.0v7 M-2.5,-0.5L0,-3.0L2.5,-0.5"/>
                </g>
                <g id="arrowRight" xlink:href="#dirArrow" transform="rotate(90) translate(36 -43)" onmousedown="handlePan(1,0)">
                  <use xlink:href="#rim" fill="#404040">
                        <set attributeName="fill" to="#808080" begin="arrowRight.mouseover" end="arrowRight.mouseout"/>
                  </use>
                  <path fill="none" stroke="white" stroke-width="1.5" d="M0,-3.0v7 M-2.5,-0.5L0,-3.0L2.5,-0.5"/>
                </g>
                <g id="arrowDown" xlink:href="#dirArrow" transform="rotate(180) translate(-30 -48)" onmousedown="handlePan(0,1)">
                  <use xlink:href="#rim" fill="#404040">
                        <set attributeName="fill" to="#808080" begin="arrowDown.mouseover" end="arrowDown.mouseout"/>
                  </use>
                  <path fill="none" stroke="white" stroke-width="1.5" d="M0,-3.0v7 M-2.5,-0.5L0,-3.0L2.5,-0.5"/>
                </g>
                <g id="arrowLeft" xlink:href="#dirArrow" transform="rotate(270) translate(-36 17)" onmousedown="handlePan(-1,0)">
                  <use xlink:href="#rim" fill="#404040">
                        <set attributeName="fill" to="#808080" begin="arrowLeft.mouseover" end="arrowLeft.mouseout"/>
                  </use>
                  <path fill="none" stroke="white" stroke-width="1.5" d="M0,-3.0v7 M-2.5,-0.5L0,-3.0L2.5,-0.5"/>
                </g>
        </g>
        <svg viewBox="0 0 15 15" width="100%" height="30px" preserveAspectRatio="xMaxYMin meet">
         <g id="arrow_out" transform="scale(0.3 0.3)">
          <a xlink:href="AST_8c__incl_org.svg" target="_base">
           <rect id="button" ry="5" rx="5" y="6" x="6" height="38" width="38"
                fill="#f2f5e9" fill-opacity="0.5" stroke="#606060" stroke-width="1.0"/>
           <path id="arrow"
             d="M 11.500037,31.436501 C 11.940474,20.09759 22.043105,11.32322 32.158766,21.979434 L 37.068811,17.246167 C 37.068811,17.246167 37.088388,32 37.088388,32 L 22.160133,31.978069 C 22.160133,31.978069 26.997745,27.140456 26.997745,27.140456 C 18.528582,18.264221 13.291696,25.230495 11.500037,31.436501 z"
             style="fill:#404040;"/>
          </a>
         </g>
        </svg>
</svg>
