<?xml version="1.0" encoding="UTF-8" standalone="no"?>
<!DOCTYPE svg PUBLIC "-//W3C//DTD SVG 1.1//EN"
 "http://www.w3.org/Graphics/SVG/1.1/DTD/svg11.dtd">
<!-- Generated by graphviz version 2.40.1 (20161225.0304)
 -->
<!-- Title: parser/include/AST.h Pages: 1 -->
<svg width="835pt" height="162pt"
 viewBox="0.00 0.00 834.50 162.00" xmlns="http://www.w3.org/2000/svg" xmlns:xlink="http://www.w3.org/1999/xlink">
<g id="graph0" class="graph" transform="scale(1 1) rotate(0) translate(4 158)">
<title>parser/include/AST.h</title>
<polygon fill="#ffffff" stroke="transparent" points="-4,4 -4,-158 830.5,-158 830.5,4 -4,4"/>
<!-- Node17 -->
<g id="node1" class="node">
<title>Node17</title>
<g id="a_node1"><a xlink:title=" ">
<polygon fill="#bfbfbf" stroke="#000000" points="311.5,-134.5 311.5,-153.5 418.5,-153.5 418.5,-134.5 311.5,-134.5"/>
<text text-anchor="middle" x="365" y="-141.5" font-family="Helvetica,sans-Serif" font-size="10.00" fill="#000000">parser/include/AST.h</text>
</a>
</g>
</g>
<!-- Node18 -->
<g id="node2" class="node">
<title>Node18</title>
<g id="a_node2"><a xlink:href="helios__code_8c.html" target="_top" xlink:title=" ">
<polygon fill="#ffffff" stroke="#000000" points="0,-67.5 0,-97.5 100,-97.5 100,-67.5 0,-67.5"/>
<text text-anchor="start" x="8" y="-85.5" font-family="Helvetica,sans-Serif" font-size="10.00" fill="#000000">builtins/code/helios</text>
<text text-anchor="middle" x="50" y="-74.5" font-family="Helvetica,sans-Serif" font-size="10.00" fill="#000000">_code.c</text>
</a>
</g>
</g>
<!-- Node17&#45;&gt;Node18 -->
<g id="edge1" class="edge">
<title>Node17&#45;&gt;Node18</title>
<path fill="none" stroke="#191970" d="M301.2374,-133.9823C249.2746,-125.4733 174.1073,-112.3781 109,-98 106.1044,-97.3605 103.1364,-96.6755 100.1465,-95.9626"/>
<polygon fill="#191970" stroke="#191970" points="300.8782,-137.4698 311.3107,-135.6219 302.0029,-130.5607 300.8782,-137.4698"/>
</g>
<!-- Node19 -->
<g id="node3" class="node">
<title>Node19</title>
<g id="a_node3"><a xlink:href="helios__instruction_8c.html" target="_top" xlink:title=" ">
<polygon fill="#ffffff" stroke="#000000" points="118,-67.5 118,-97.5 218,-97.5 218,-67.5 118,-67.5"/>
<text text-anchor="start" x="126" y="-85.5" font-family="Helvetica,sans-Serif" font-size="10.00" fill="#000000">builtins/code/helios</text>
<text text-anchor="middle" x="168" y="-74.5" font-family="Helvetica,sans-Serif" font-size="10.00" fill="#000000">_instruction.c</text>
</a>
</g>
</g>
<!-- Node17&#45;&gt;Node19 -->
<g id="edge2" class="edge">
<title>Node17&#45;&gt;Node19</title>
<path fill="none" stroke="#191970" d="M324.4744,-131.3486C293.0506,-121.5386 249.4052,-107.9133 216.1916,-97.5446"/>
<polygon fill="#191970" stroke="#191970" points="323.6301,-134.7515 334.2188,-134.3906 325.7161,-128.0696 323.6301,-134.7515"/>
</g>
<!-- Node20 -->
<g id="node4" class="node">
<title>Node20</title>
<g id="a_node4"><a xlink:href="main_8c.html" target="_top" xlink:title=" ">
<polygon fill="#ffffff" stroke="#000000" points="87,-6 87,-25 157,-25 157,-6 87,-6"/>
<text text-anchor="middle" x="122" y="-13" font-family="Helvetica,sans-Serif" font-size="10.00" fill="#000000">main/main.c</text>
</a>
</g>
</g>
<!-- Node17&#45;&gt;Node20 -->
<g id="edge3" class="edge">
<title>Node17&#45;&gt;Node20</title>
<path fill="none" stroke="#191970" d="M333.6311,-130.1707C315.0413,-121.6038 291.2378,-109.9786 271,-98 250.414,-85.8154 247.5805,-79.1939 227,-67 199.4007,-50.6475 165.8727,-34.8627 144.2473,-25.1739"/>
<polygon fill="#191970" stroke="#191970" points="332.279,-133.4008 342.8306,-134.3576 335.1787,-127.0296 332.279,-133.4008"/>
</g>
<!-- Node21 -->
<g id="node5" class="node">
<title>Node21</title>
<g id="a_node5"><a xlink:href="AST_8c.html" target="_top" xlink:title=" ">
<polygon fill="#ffffff" stroke="#000000" points="175,-6 175,-25 249,-25 249,-6 175,-6"/>
<text text-anchor="middle" x="212" y="-13" font-family="Helvetica,sans-Serif" font-size="10.00" fill="#000000">parser/AST.c</text>
</a>
</g>
</g>
<!-- Node17&#45;&gt;Node21 -->
<g id="edge4" class="edge">
<title>Node17&#45;&gt;Node21</title>
<path fill="none" stroke="#191970" d="M345.6699,-127.7652C313.4658,-100.718 249.7898,-47.2385 223.6333,-25.2705"/>
<polygon fill="#191970" stroke="#191970" points="343.5916,-130.5904 353.5001,-134.3416 348.0935,-125.2301 343.5916,-130.5904"/>
</g>
<!-- Node22 -->
<g id="node6" class="node">
<title>Node22</title>
<g id="a_node6"><a xlink:href="parser_8h.html" target="_top" xlink:title=" ">
<polygon fill="#ffffff" stroke="#000000" points="350.5,-73 350.5,-92 465.5,-92 465.5,-73 350.5,-73"/>
<text text-anchor="middle" x="408" y="-80" font-family="Helvetica,sans-Serif" font-size="10.00" fill="#000000">parser/include/parser.h</text>
</a>
</g>
</g>
<!-- Node17&#45;&gt;Node22 -->
<g id="edge5" class="edge">
<title>Node17&#45;&gt;Node22</title>
<path fill="none" stroke="#191970" d="M377.6435,-125.9169C385.3433,-114.9043 394.8797,-101.265 401.1865,-92.2449"/>
<polygon fill="#191970" stroke="#191970" points="374.5805,-124.1896 371.7188,-134.3906 380.3174,-128.2007 374.5805,-124.1896"/>
</g>
<!-- Node23 -->
<g id="node7" class="node">
<title>Node23</title>
<g id="a_node7"><a xlink:href="expressions_8c.html" target="_top" xlink:title=" ">
<polygon fill="#ffffff" stroke="#000000" points="267,-.5 267,-30.5 365,-30.5 365,-.5 267,-.5"/>
<text text-anchor="start" x="275" y="-18.5" font-family="Helvetica,sans-Serif" font-size="10.00" fill="#000000">parser/parserfuncs</text>
<text text-anchor="middle" x="316" y="-7.5" font-family="Helvetica,sans-Serif" font-size="10.00" fill="#000000">/expressions.c</text>
</a>
</g>
</g>
<!-- Node17&#45;&gt;Node23 -->
<g id="edge13" class="edge">
<title>Node17&#45;&gt;Node23</title>
<path fill="none" stroke="#191970" d="M354.396,-125.6037C349.8945,-117.3349 344.8171,-107.3508 341,-98 331.6673,-75.1374 323.9796,-47.4739 319.6933,-30.6958"/>
<polygon fill="#191970" stroke="#191970" points="351.3696,-127.3628 359.3057,-134.3819 357.4789,-123.9458 351.3696,-127.3628"/>
</g>
<!-- Node24 -->
<g id="node8" class="node">
<title>Node24</title>
<g id="a_node8"><a xlink:href="floats_8c.html" target="_top" xlink:title=" ">
<polygon fill="#ffffff" stroke="#000000" points="383,-.5 383,-30.5 481,-30.5 481,-.5 383,-.5"/>
<text text-anchor="start" x="391" y="-18.5" font-family="Helvetica,sans-Serif" font-size="10.00" fill="#000000">parser/parserfuncs</text>
<text text-anchor="middle" x="432" y="-7.5" font-family="Helvetica,sans-Serif" font-size="10.00" fill="#000000">/floats.c</text>
</a>
</g>
</g>
<!-- Node17&#45;&gt;Node24 -->
<g id="edge14" class="edge">
<title>Node17&#45;&gt;Node24</title>
<path fill="none" stroke="#191970" d="M428.5605,-131.12C446.2375,-124.2991 463.4616,-113.8858 474,-98 488.7487,-75.7675 466.7104,-47.6789 449.3918,-30.6769"/>
<polygon fill="#191970" stroke="#191970" points="427.0201,-127.9506 418.733,-134.5518 429.3279,-134.5593 427.0201,-127.9506"/>
</g>
<!-- Node25 -->
<g id="node9" class="node">
<title>Node25</title>
<g id="a_node9"><a xlink:href="integers_8c.html" target="_top" xlink:title=" ">
<polygon fill="#ffffff" stroke="#000000" points="499,-.5 499,-30.5 597,-30.5 597,-.5 499,-.5"/>
<text text-anchor="start" x="507" y="-18.5" font-family="Helvetica,sans-Serif" font-size="10.00" fill="#000000">parser/parserfuncs</text>
<text text-anchor="middle" x="548" y="-7.5" font-family="Helvetica,sans-Serif" font-size="10.00" fill="#000000">/integers.c</text>
</a>
</g>
</g>
<!-- Node17&#45;&gt;Node25 -->
<g id="edge15" class="edge">
<title>Node17&#45;&gt;Node25</title>
<path fill="none" stroke="#191970" d="M420.9921,-131.6011C444.2941,-124.4973 470.6075,-113.7654 491,-98 514.5518,-79.7921 532.0723,-49.0988 541.1105,-30.7238"/>
<polygon fill="#191970" stroke="#191970" points="419.8504,-128.2877 411.216,-134.4275 421.7947,-135.0123 419.8504,-128.2877"/>
</g>
<!-- Node26 -->
<g id="node10" class="node">
<title>Node26</title>
<g id="a_node10"><a xlink:href="parser_8c.html" target="_top" xlink:title=" ">
<polygon fill="#ffffff" stroke="#000000" points="615,-.5 615,-30.5 713,-30.5 713,-.5 615,-.5"/>
<text text-anchor="start" x="623" y="-18.5" font-family="Helvetica,sans-Serif" font-size="10.00" fill="#000000">parser/parserfuncs</text>
<text text-anchor="middle" x="664" y="-7.5" font-family="Helvetica,sans-Serif" font-size="10.00" fill="#000000">/parser.c</text>
</a>
</g>
</g>
<!-- Node17&#45;&gt;Node26 -->
<g id="edge16" class="edge">
<title>Node17&#45;&gt;Node26</title>
<path fill="none" stroke="#191970" d="M416.0769,-131.8641C446.5573,-123.86 485.6878,-112.2327 519,-98 564.2777,-78.655 613.3629,-48.6218 641.2323,-30.6264"/>
<polygon fill="#191970" stroke="#191970" points="414.9022,-128.5524 406.0926,-134.4381 416.6498,-135.3308 414.9022,-128.5524"/>
</g>
<!-- Node27 -->
<g id="node11" class="node">
<title>Node27</title>
<g id="a_node11"><a xlink:href="parserutil_8c.html" target="_top" xlink:title=" ">
<polygon fill="#ffffff" stroke="#000000" points="731.5,-6 731.5,-25 826.5,-25 826.5,-6 731.5,-6"/>
<text text-anchor="middle" x="779" y="-13" font-family="Helvetica,sans-Serif" font-size="10.00" fill="#000000">parser/parserutil.c</text>
</a>
</g>
</g>
<!-- Node17&#45;&gt;Node27 -->
<g id="edge17" class="edge">
<title>Node17&#45;&gt;Node27</title>
<path fill="none" stroke="#191970" d="M424.8053,-132.4456C464.6208,-124.1999 517.8911,-112.1006 564,-98 636.0678,-75.9608 718.573,-41.648 757.0713,-25.0856"/>
<polygon fill="#191970" stroke="#191970" points="424.0791,-129.0216 414.9852,-134.4579 425.4843,-135.8792 424.0791,-129.0216"/>
</g>
<!-- Node22&#45;&gt;Node20 -->
<g id="edge6" class="edge">
<title>Node22&#45;&gt;Node20</title>
<path fill="none" stroke="#191970" d="M343.3578,-71.0944C294.2937,-61.872 225.3815,-47.7025 166,-31 159.9188,-29.2895 153.4585,-27.1824 147.4149,-25.0792"/>
<polygon fill="#191970" stroke="#191970" points="342.7342,-74.5384 353.2062,-72.9293 344.0164,-67.6568 342.7342,-74.5384"/>
</g>
<!-- Node22&#45;&gt;Node21 -->
<g id="edge7" class="edge">
<title>Node22&#45;&gt;Node21</title>
<path fill="none" stroke="#191970" d="M370.2117,-69.5826C332.119,-56.5611 274.209,-36.7653 240.0299,-25.0817"/>
<polygon fill="#191970" stroke="#191970" points="369.3234,-72.9777 379.918,-72.9005 371.5877,-66.354 369.3234,-72.9777"/>
</g>
<!-- Node22&#45;&gt;Node23 -->
<g id="edge8" class="edge">
<title>Node22&#45;&gt;Node23</title>
<path fill="none" stroke="#191970" d="M386.6063,-66.9198C371.5501,-55.955 351.51,-41.3605 336.6269,-30.5218"/>
<polygon fill="#191970" stroke="#191970" points="384.6746,-69.8428 394.8186,-72.9005 388.7955,-64.1843 384.6746,-69.8428"/>
</g>
<!-- Node22&#45;&gt;Node24 -->
<g id="edge9" class="edge">
<title>Node22&#45;&gt;Node24</title>
<path fill="none" stroke="#191970" d="M414.8307,-63.4311C418.5693,-52.9939 423.1357,-40.2463 426.6191,-30.5218"/>
<polygon fill="#191970" stroke="#191970" points="411.516,-62.306 411.4386,-72.9005 418.1059,-64.6666 411.516,-62.306"/>
</g>
<!-- Node22&#45;&gt;Node25 -->
<g id="edge10" class="edge">
<title>Node22&#45;&gt;Node25</title>
<path fill="none" stroke="#191970" d="M437.0847,-68.5809C460.3114,-57.4653 492.7989,-41.9177 516.6112,-30.5218"/>
<polygon fill="#191970" stroke="#191970" points="435.5679,-65.4266 428.0586,-72.9005 438.5898,-71.7407 435.5679,-65.4266"/>
</g>
<!-- Node22&#45;&gt;Node26 -->
<g id="edge11" class="edge">
<title>Node22&#45;&gt;Node26</title>
<path fill="none" stroke="#191970" d="M454.6485,-70.4604C494.7863,-60.0787 554.233,-44.6493 606,-31 608.9227,-30.2294 611.9276,-29.4344 614.9584,-28.6306"/>
<polygon fill="#191970" stroke="#191970" points="453.6819,-67.0951 444.8764,-72.9869 455.4341,-73.8723 453.6819,-67.0951"/>
</g>
<!-- Node22&#45;&gt;Node27 -->
<g id="edge12" class="edge">
<title>Node22&#45;&gt;Node27</title>
<path fill="none" stroke="#191970" d="M475.5774,-73.4691C539.4253,-64.4529 637.7095,-49.322 722,-31 729.9167,-29.2792 738.3755,-27.1443 746.2878,-25.0149"/>
<polygon fill="#191970" stroke="#191970" points="475.0504,-70.0087 465.6332,-74.8632 476.0224,-76.9409 475.0504,-70.0087"/>
</g>
</g>
</svg>
