<?xml version="1.0" encoding="UTF-8" standalone="no"?>
<!DOCTYPE svg PUBLIC "-//W3C//DTD SVG 1.1//EN"
 "http://www.w3.org/Graphics/SVG/1.1/DTD/svg11.dtd">
<!-- Generated by graphviz version 2.40.1 (20161225.0304)
 -->
<!-- Title: parser/include/AST.h Pages: 1 -->
<!--zoomable 162 -->
<svg id="main" version="1.1" xmlns="http://www.w3.org/2000/svg" xmlns:xlink="http://www.w3.org/1999/xlink" xml:space="preserve" onload="init(evt)">
<style type="text/css"><![CDATA[
.edge:hover path { stroke: red; }
.edge:hover polygon { stroke: red; fill: red; }
]]></style>
<script type="text/javascript"><![CDATA[
var edges = document.getElementsByTagName('g');
if (edges && edges.length) {
  for (var i=0;i<edges.length;i++) {
    if (edges[i].id.substr(0,4)=='edge') {
      edges[i].setAttribute('class','edge');
    }
  }
}
]]></script>
        <defs>
                <circle id="rim" cx="0" cy="0" r="7"/>
                <circle id="rim2" cx="0" cy="0" r="3.5"/>
                <g id="zoomPlus">
                        <use xlink:href="#rim" fill="#404040">
                                <set attributeName="fill" to="#808080" begin="zoomplus.mouseover" end="zoomplus.mouseout"/>
                        </use>
                        <path d="M-4,0h8M0,-4v8" fill="none" stroke="white" stroke-width="1.5" pointer-events="none"/>
                </g>
                <g id="zoomMin">
                        <use xlink:href="#rim" fill="#404040">
                                <set attributeName="fill" to="#808080" begin="zoomminus.mouseover" end="zoomminus.mouseout"/>
                        </use>
                        <path d="M-4,0h8" fill="none" stroke="white" stroke-width="1.5" pointer-events="none"/>
                </g>
                <g id="dirArrow">
                        <path fill="none" stroke="white" stroke-width="1.5" d="M0,-3.0v7 M-2.5,-0.5L0,-3.0L2.5,-0.5"/>
                </g>
               <g id="resetDef">
                       <use xlink:href="#rim2" fill="#404040">
                               <set attributeName="fill" to="#808080" begin="reset.mouseover" end="reset.mouseout"/>
                       </use>
               </g>
        </defs>

<script type="text/javascript">
var viewWidth = 990;
var viewHeight = 162;
var sectionId = 'dynsection-1';
</script>
<script xlink:href="svgpan.js"/>
<svg id="graph" class="graph">
<g id="viewport">
<title>parser/include/AST.h</title>
<polygon fill="#ffffff" stroke="transparent" points="-4,4 -4,-158 985.5,-158 985.5,4 -4,4"/>
<!-- Node17 -->
<g id="node1" class="node">
<title>Node17</title>
<g id="a_node1"><a xlink:title=" ">
<polygon fill="#bfbfbf" stroke="#000000" points="349.5,-134.5 349.5,-153.5 456.5,-153.5 456.5,-134.5 349.5,-134.5"/>
<text text-anchor="middle" x="403" y="-141.5" font-family="Helvetica,sans-Serif" font-size="10.00" fill="#000000">parser/include/AST.h</text>
</a>
</g>
</g>
<!-- Node18 -->
<g id="node2" class="node">
<title>Node18</title>
<g id="a_node2"><a xlink:href="helios__code_8c.html" target="_top" xlink:title=" ">
<polygon fill="#ffffff" stroke="#000000" points="0,-67.5 0,-97.5 100,-97.5 100,-67.5 0,-67.5"/>
<text text-anchor="start" x="8" y="-85.5" font-family="Helvetica,sans-Serif" font-size="10.00" fill="#000000">builtins/code/helios</text>
<text text-anchor="middle" x="50" y="-74.5" font-family="Helvetica,sans-Serif" font-size="10.00" fill="#000000">_code.c</text>
</a>
</g>
</g>
<!-- Node17&#45;&gt;Node18 -->
<g id="edge1" class="edge">
<title>Node17&#45;&gt;Node18</title>
<path fill="none" stroke="#191970" d="M339.2786,-135.9347C279.4992,-127.9191 187.7575,-114.462 109,-98 106.0974,-97.3933 103.1239,-96.7339 100.1297,-96.0405"/>
<polygon fill="#191970" stroke="#191970" points="338.9497,-139.4217 349.3239,-137.2708 339.8727,-132.4828 338.9497,-139.4217"/>
</g>
<!-- Node19 -->
<g id="node3" class="node">
<title>Node19</title>
<g id="a_node3"><a xlink:href="helios__instruction_8c.html" target="_top" xlink:title=" ">
<polygon fill="#ffffff" stroke="#000000" points="118,-67.5 118,-97.5 218,-97.5 218,-67.5 118,-67.5"/>
<text text-anchor="start" x="126" y="-85.5" font-family="Helvetica,sans-Serif" font-size="10.00" fill="#000000">builtins/code/helios</text>
<text text-anchor="middle" x="168" y="-74.5" font-family="Helvetica,sans-Serif" font-size="10.00" fill="#000000">_instruction.c</text>
</a>
</g>
</g>
<!-- Node17&#45;&gt;Node19 -->
<g id="edge2" class="edge">
<title>Node17&#45;&gt;Node19</title>
<path fill="none" stroke="#191970" d="M356.7796,-131.904C316.8115,-121.4443 259.1563,-106.3558 218.0953,-95.6101"/>
<polygon fill="#191970" stroke="#191970" points="355.9787,-135.3122 366.5391,-134.4581 357.751,-128.5403 355.9787,-135.3122"/>
</g>
<!-- Node20 -->
<g id="node4" class="node">
<title>Node20</title>
<g id="a_node4"><a xlink:href="main_8c.html" target="_top" xlink:title=" ">
<polygon fill="#ffffff" stroke="#000000" points="10,-6 10,-25 80,-25 80,-6 10,-6"/>
<text text-anchor="middle" x="45" y="-13" font-family="Helvetica,sans-Serif" font-size="10.00" fill="#000000">main/main.c</text>
</a>
</g>
</g>
<!-- Node17&#45;&gt;Node20 -->
<g id="edge3" class="edge">
<title>Node17&#45;&gt;Node20</title>
<path fill="none" stroke="#191970" d="M346.2537,-131.936C318.9673,-124.6242 286.5114,-113.6295 260,-98 242.6651,-87.7804 244.6144,-76.7299 227,-67 171.5161,-36.3517 149.6119,-49.5465 89,-31 83.1141,-29.199 76.8451,-27.1013 70.9391,-25.0417"/>
<polygon fill="#191970" stroke="#191970" points="345.4948,-135.3547 356.0522,-134.4649 347.2442,-128.5768 345.4948,-135.3547"/>
</g>
<!-- Node21 -->
<g id="node5" class="node">
<title>Node21</title>
<g id="a_node5"><a xlink:href="AST_8c.html" target="_top" xlink:title=" ">
<polygon fill="#ffffff" stroke="#000000" points="98,-6 98,-25 172,-25 172,-6 98,-6"/>
<text text-anchor="middle" x="135" y="-13" font-family="Helvetica,sans-Serif" font-size="10.00" fill="#000000">parser/AST.c</text>
</a>
</g>
</g>
<!-- Node17&#45;&gt;Node21 -->
<g id="edge4" class="edge">
<title>Node17&#45;&gt;Node21</title>
<path fill="none" stroke="#191970" d="M369.661,-130.5874C349.8213,-122.1381 324.4223,-110.491 303,-98 282.6474,-86.1327 280.5878,-78.4545 260,-67 228.3116,-49.3695 189.3432,-34.2616 163.4239,-25.0531"/>
<polygon fill="#191970" stroke="#191970" points="368.3367,-133.8273 378.9122,-134.4681 371.0445,-127.3722 368.3367,-133.8273"/>
</g>
<!-- Node22 -->
<g id="node6" class="node">
<title>Node22</title>
<g id="a_node6"><a xlink:href="parser_8h.html" target="_top" xlink:title=" ">
<polygon fill="#ffffff" stroke="#000000" points="388.5,-73 388.5,-92 503.5,-92 503.5,-73 388.5,-73"/>
<text text-anchor="middle" x="446" y="-80" font-family="Helvetica,sans-Serif" font-size="10.00" fill="#000000">parser/include/parser.h</text>
</a>
</g>
</g>
<!-- Node17&#45;&gt;Node22 -->
<g id="edge5" class="edge">
<title>Node17&#45;&gt;Node22</title>
<path fill="none" stroke="#191970" d="M415.6435,-125.9169C423.3433,-114.9043 432.8797,-101.265 439.1865,-92.2449"/>
<polygon fill="#191970" stroke="#191970" points="412.5805,-124.1896 409.7188,-134.3906 418.3174,-128.2007 412.5805,-124.1896"/>
</g>
<!-- Node23 -->
<g id="node7" class="node">
<title>Node23</title>
<g id="a_node7"><a xlink:href="compound_8c.html" target="_top" xlink:title=" ">
<polygon fill="#ffffff" stroke="#000000" points="190,-.5 190,-30.5 288,-30.5 288,-.5 190,-.5"/>
<text text-anchor="start" x="198" y="-18.5" font-family="Helvetica,sans-Serif" font-size="10.00" fill="#000000">parser/parserfuncs</text>
<text text-anchor="middle" x="239" y="-7.5" font-family="Helvetica,sans-Serif" font-size="10.00" fill="#000000">/compound.c</text>
</a>
</g>
</g>
<!-- Node17&#45;&gt;Node23 -->
<g id="edge15" class="edge">
<title>Node17&#45;&gt;Node23</title>
<path fill="none" stroke="#191970" d="M382.5043,-127.9409C350.6268,-102.9637 289.5965,-55.1442 258.4013,-30.7016"/>
<polygon fill="#191970" stroke="#191970" points="380.6431,-130.929 390.6733,-134.3416 384.9605,-125.4189 380.6431,-130.929"/>
</g>
<!-- Node24 -->
<g id="node8" class="node">
<title>Node24</title>
<g id="a_node8"><a xlink:href="expressions_8c.html" target="_top" xlink:title=" ">
<polygon fill="#ffffff" stroke="#000000" points="306,-.5 306,-30.5 404,-30.5 404,-.5 306,-.5"/>
<text text-anchor="start" x="314" y="-18.5" font-family="Helvetica,sans-Serif" font-size="10.00" fill="#000000">parser/parserfuncs</text>
<text text-anchor="middle" x="355" y="-7.5" font-family="Helvetica,sans-Serif" font-size="10.00" fill="#000000">/expressions.c</text>
</a>
</g>
</g>
<!-- Node17&#45;&gt;Node24 -->
<g id="edge16" class="edge">
<title>Node17&#45;&gt;Node24</title>
<path fill="none" stroke="#191970" d="M392.3466,-125.6237C387.8359,-117.3586 382.7649,-107.3719 379,-98 369.8252,-75.1615 362.5072,-47.491 358.4639,-30.7049"/>
<polygon fill="#191970" stroke="#191970" points="389.3243,-127.39 397.2725,-134.3954 395.4277,-123.9624 389.3243,-127.39"/>
</g>
<!-- Node25 -->
<g id="node9" class="node">
<title>Node25</title>
<g id="a_node9"><a xlink:href="floats_8c.html" target="_top" xlink:title=" ">
<polygon fill="#ffffff" stroke="#000000" points="422,-.5 422,-30.5 520,-30.5 520,-.5 422,-.5"/>
<text text-anchor="start" x="430" y="-18.5" font-family="Helvetica,sans-Serif" font-size="10.00" fill="#000000">parser/parserfuncs</text>
<text text-anchor="middle" x="471" y="-7.5" font-family="Helvetica,sans-Serif" font-size="10.00" fill="#000000">/floats.c</text>
</a>
</g>
</g>
<!-- Node17&#45;&gt;Node25 -->
<g id="edge17" class="edge">
<title>Node17&#45;&gt;Node25</title>
<path fill="none" stroke="#191970" d="M466.5605,-131.12C484.2375,-124.2991 501.4616,-113.8858 512,-98 526.6771,-75.8754 505.0805,-47.7547 488.0814,-30.717"/>
<polygon fill="#191970" stroke="#191970" points="465.0201,-127.9506 456.733,-134.5518 467.3279,-134.5593 465.0201,-127.9506"/>
</g>
<!-- Node26 -->
<g id="node10" class="node">
<title>Node26</title>
<g id="a_node10"><a xlink:href="integers_8c.html" target="_top" xlink:title=" ">
<polygon fill="#ffffff" stroke="#000000" points="538,-.5 538,-30.5 636,-30.5 636,-.5 538,-.5"/>
<text text-anchor="start" x="546" y="-18.5" font-family="Helvetica,sans-Serif" font-size="10.00" fill="#000000">parser/parserfuncs</text>
<text text-anchor="middle" x="587" y="-7.5" font-family="Helvetica,sans-Serif" font-size="10.00" fill="#000000">/integers.c</text>
</a>
</g>
</g>
<!-- Node17&#45;&gt;Node26 -->
<g id="edge18" class="edge">
<title>Node17&#45;&gt;Node26</title>
<path fill="none" stroke="#191970" d="M458.6541,-131.6048C482.0131,-124.4874 508.4625,-113.7441 529,-98 552.7606,-79.785 570.6571,-49.0941 579.922,-30.7215"/>
<polygon fill="#191970" stroke="#191970" points="457.4928,-128.2971 448.8586,-134.4371 459.4373,-135.0216 457.4928,-128.2971"/>
</g>
<!-- Node27 -->
<g id="node11" class="node">
<title>Node27</title>
<g id="a_node11"><a xlink:href="parser_8c.html" target="_top" xlink:title=" ">
<polygon fill="#ffffff" stroke="#000000" points="654,-.5 654,-30.5 752,-30.5 752,-.5 654,-.5"/>
<text text-anchor="start" x="662" y="-18.5" font-family="Helvetica,sans-Serif" font-size="10.00" fill="#000000">parser/parserfuncs</text>
<text text-anchor="middle" x="703" y="-7.5" font-family="Helvetica,sans-Serif" font-size="10.00" fill="#000000">/parser.c</text>
</a>
</g>
</g>
<!-- Node17&#45;&gt;Node27 -->
<g id="edge19" class="edge">
<title>Node17&#45;&gt;Node27</title>
<path fill="none" stroke="#191970" d="M454.4122,-131.9043C485.0919,-123.9144 524.4765,-112.2879 558,-98 603.2948,-78.6951 652.3744,-48.6488 680.2381,-30.64"/>
<polygon fill="#191970" stroke="#191970" points="453.1843,-128.6056 444.3626,-134.4731 454.9179,-135.3875 453.1843,-128.6056"/>
</g>
<!-- Node28 -->
<g id="node12" class="node">
<title>Node28</title>
<g id="a_node12"><a xlink:href="strings_8c.html" target="_top" xlink:title=" ">
<polygon fill="#ffffff" stroke="#000000" points="770,-.5 770,-30.5 868,-30.5 868,-.5 770,-.5"/>
<text text-anchor="start" x="778" y="-18.5" font-family="Helvetica,sans-Serif" font-size="10.00" fill="#000000">parser/parserfuncs</text>
<text text-anchor="middle" x="819" y="-7.5" font-family="Helvetica,sans-Serif" font-size="10.00" fill="#000000">/strings.c</text>
</a>
</g>
</g>
<!-- Node17&#45;&gt;Node28 -->
<g id="edge20" class="edge">
<title>Node17&#45;&gt;Node28</title>
<path fill="none" stroke="#191970" d="M463.1013,-132.4496C503.1148,-124.2055 556.6524,-112.1066 603,-98 668.0928,-78.188 741.6804,-48.4444 783.978,-30.6061"/>
<polygon fill="#191970" stroke="#191970" points="462.3317,-129.0344 453.2323,-134.4613 463.7299,-135.8933 462.3317,-129.0344"/>
</g>
<!-- Node29 -->
<g id="node13" class="node">
<title>Node29</title>
<g id="a_node13"><a xlink:href="parserutil_8c.html" target="_top" xlink:title=" ">
<polygon fill="#ffffff" stroke="#000000" points="886.5,-6 886.5,-25 981.5,-25 981.5,-6 886.5,-6"/>
<text text-anchor="middle" x="934" y="-13" font-family="Helvetica,sans-Serif" font-size="10.00" fill="#000000">parser/parserutil.c</text>
</a>
</g>
</g>
<!-- Node17&#45;&gt;Node29 -->
<g id="edge21" class="edge">
<title>Node17&#45;&gt;Node29</title>
<path fill="none" stroke="#191970" d="M466.6596,-134.7001C518.9261,-126.5641 594.7013,-113.6194 660,-98 751.3172,-76.1571 857.145,-41.5992 906.2844,-25.0065"/>
<polygon fill="#191970" stroke="#191970" points="465.8794,-131.2789 456.5299,-136.2625 466.9466,-138.1971 465.8794,-131.2789"/>
</g>
<!-- Node22&#45;&gt;Node20 -->
<g id="edge6" class="edge">
<title>Node22&#45;&gt;Node20</title>
<path fill="none" stroke="#191970" d="M378.1119,-76.691C305.7277,-69.5752 188.1128,-55.3579 89,-31 82.5507,-29.415 75.7186,-27.2551 69.4106,-25.0512"/>
<polygon fill="#191970" stroke="#191970" points="378.1657,-80.2123 388.4558,-77.6897 378.8384,-73.2447 378.1657,-80.2123"/>
</g>
<!-- Node22&#45;&gt;Node21 -->
<g id="edge7" class="edge">
<title>Node22&#45;&gt;Node21</title>
<path fill="none" stroke="#191970" d="M378.2608,-71.8931C324.3807,-62.8442 247.2986,-48.5288 181,-31 174.6451,-29.3198 167.8923,-27.2245 161.5741,-25.1231"/>
<polygon fill="#191970" stroke="#191970" points="377.9413,-75.388 388.3801,-73.5765 379.0901,-68.4829 377.9413,-75.388"/>
</g>
<!-- Node22&#45;&gt;Node23 -->
<g id="edge8" class="edge">
<title>Node22&#45;&gt;Node23</title>
<path fill="none" stroke="#191970" d="M406.6063,-69.7494C372.0859,-58.5761 321.8706,-42.3229 285.4105,-30.5218"/>
<polygon fill="#191970" stroke="#191970" points="405.7501,-73.151 416.3419,-72.9005 407.9057,-66.4911 405.7501,-73.151"/>
</g>
<!-- Node22&#45;&gt;Node24 -->
<g id="edge9" class="edge">
<title>Node22&#45;&gt;Node24</title>
<path fill="none" stroke="#191970" d="M424.8389,-66.9198C409.9463,-55.955 390.124,-41.3605 375.4027,-30.5218"/>
<polygon fill="#191970" stroke="#191970" points="422.834,-69.79 432.9619,-72.9005 426.9843,-64.153 422.834,-69.79"/>
</g>
<!-- Node22&#45;&gt;Node25 -->
<g id="edge10" class="edge">
<title>Node22&#45;&gt;Node25</title>
<path fill="none" stroke="#191970" d="M453.1153,-63.4311C457.0097,-52.9939 461.7663,-40.2463 465.3949,-30.5218"/>
<polygon fill="#191970" stroke="#191970" points="449.7987,-62.3079 449.5819,-72.9005 456.357,-64.7551 449.7987,-62.3079"/>
</g>
<!-- Node22&#45;&gt;Node26 -->
<g id="edge11" class="edge">
<title>Node22&#45;&gt;Node26</title>
<path fill="none" stroke="#191970" d="M475.2924,-68.5809C498.685,-57.4653 531.4046,-41.9177 555.387,-30.5218"/>
<polygon fill="#191970" stroke="#191970" points="473.7319,-65.4473 466.2019,-72.9005 476.7362,-71.7699 473.7319,-65.4473"/>
</g>
<!-- Node22&#45;&gt;Node27 -->
<g id="edge12" class="edge">
<title>Node22&#45;&gt;Node27</title>
<path fill="none" stroke="#191970" d="M493.2588,-70.3817C533.5966,-60.0113 593.1388,-44.6402 645,-31 647.9232,-30.2312 650.9284,-29.4376 653.9595,-28.6348"/>
<polygon fill="#191970" stroke="#191970" points="492.2479,-67.0277 483.4336,-72.9064 493.9901,-73.8074 492.2479,-67.0277"/>
</g>
<!-- Node22&#45;&gt;Node28 -->
<g id="edge13" class="edge">
<title>Node22&#45;&gt;Node28</title>
<path fill="none" stroke="#191970" d="M513.4837,-73.4422C577.5149,-64.3824 676.2749,-49.2001 761,-31 763.8533,-30.3871 766.7763,-29.7228 769.7196,-29.0257"/>
<polygon fill="#191970" stroke="#191970" points="512.9285,-69.9857 503.5127,-74.8432 513.9025,-76.9176 512.9285,-69.9857"/>
</g>
<!-- Node22&#45;&gt;Node29 -->
<g id="edge14" class="edge">
<title>Node22&#45;&gt;Node29</title>
<path fill="none" stroke="#191970" d="M513.6529,-77.5033C598.9315,-70.499 749.7645,-55.7626 877,-31 885.2544,-29.3935 894.069,-27.2259 902.2381,-25.0214"/>
<polygon fill="#191970" stroke="#191970" points="513.2686,-74.0228 503.5841,-78.3193 513.8341,-81 513.2686,-74.0228"/>
</g>
</g>
</svg>
        <g id="navigator" transform="translate(0 0)" fill="#404254">
                <rect fill="#f2f5e9" fill-opacity="0.5" stroke="#606060" stroke-width=".5" x="0" y="0" width="60" height="60"/>
                <use id="zoomplus" xlink:href="#zoomPlus" x="17" y="9" onmousedown="handleZoom(evt,'in')"/>
                <use id="zoomminus" xlink:href="#zoomMin" x="42" y="9" onmousedown="handleZoom(evt,'out')"/>
                <use id="reset" xlink:href="#resetDef" x="30" y="36" onmousedown="handleReset()"/>
                <g id="arrowUp" xlink:href="#dirArrow" transform="translate(30 24)" onmousedown="handlePan(0,-1)">
                  <use xlink:href="#rim" fill="#404040">
                        <set attributeName="fill" to="#808080" begin="arrowUp.mouseover" end="arrowUp.mouseout"/>
                  </use>
                  <path fill="none" stroke="white" stroke-width="1.5" d="M0,-3.0v7 M-2.5,-0.5L0,-3.0L2.5,-0.5"/>
                </g>
                <g id="arrowRight" xlink:href="#dirArrow" transform="rotate(90) translate(36 -43)" onmousedown="handlePan(1,0)">
                  <use xlink:href="#rim" fill="#404040">
                        <set attributeName="fill" to="#808080" begin="arrowRight.mouseover" end="arrowRight.mouseout"/>
                  </use>
                  <path fill="none" stroke="white" stroke-width="1.5" d="M0,-3.0v7 M-2.5,-0.5L0,-3.0L2.5,-0.5"/>
                </g>
                <g id="arrowDown" xlink:href="#dirArrow" transform="rotate(180) translate(-30 -48)" onmousedown="handlePan(0,1)">
                  <use xlink:href="#rim" fill="#404040">
                        <set attributeName="fill" to="#808080" begin="arrowDown.mouseover" end="arrowDown.mouseout"/>
                  </use>
                  <path fill="none" stroke="white" stroke-width="1.5" d="M0,-3.0v7 M-2.5,-0.5L0,-3.0L2.5,-0.5"/>
                </g>
                <g id="arrowLeft" xlink:href="#dirArrow" transform="rotate(270) translate(-36 17)" onmousedown="handlePan(-1,0)">
                  <use xlink:href="#rim" fill="#404040">
                        <set attributeName="fill" to="#808080" begin="arrowLeft.mouseover" end="arrowLeft.mouseout"/>
                  </use>
                  <path fill="none" stroke="white" stroke-width="1.5" d="M0,-3.0v7 M-2.5,-0.5L0,-3.0L2.5,-0.5"/>
                </g>
        </g>
        <svg viewBox="0 0 15 15" width="100%" height="30px" preserveAspectRatio="xMaxYMin meet">
         <g id="arrow_out" transform="scale(0.3 0.3)">
          <a xlink:href="AST_8h__dep__incl_org.svg" target="_base">
           <rect id="button" ry="5" rx="5" y="6" x="6" height="38" width="38"
                fill="#f2f5e9" fill-opacity="0.5" stroke="#606060" stroke-width="1.0"/>
           <path id="arrow"
             d="M 11.500037,31.436501 C 11.940474,20.09759 22.043105,11.32322 32.158766,21.979434 L 37.068811,17.246167 C 37.068811,17.246167 37.088388,32 37.088388,32 L 22.160133,31.978069 C 22.160133,31.978069 26.997745,27.140456 26.997745,27.140456 C 18.528582,18.264221 13.291696,25.230495 11.500037,31.436501 z"
             style="fill:#404040;"/>
          </a>
         </g>
        </svg>
</svg>
