<?xml version="1.0" encoding="UTF-8" standalone="no"?>
<!DOCTYPE svg PUBLIC "-//W3C//DTD SVG 1.1//EN"
 "http://www.w3.org/Graphics/SVG/1.1/DTD/svg11.dtd">
<!-- Generated by graphviz version 2.40.1 (20161225.0304)
 -->
<!-- Title: parser/AST.c Pages: 1 -->
<svg width="409pt" height="252pt"
 viewBox="0.00 0.00 408.67 252.00" xmlns="http://www.w3.org/2000/svg" xmlns:xlink="http://www.w3.org/1999/xlink">
<g id="graph0" class="graph" transform="scale(1 1) rotate(0) translate(4 248)">
<title>parser/AST.c</title>
<polygon fill="#ffffff" stroke="transparent" points="-4,4 -4,-248 404.6653,-248 404.6653,4 -4,4"/>
<!-- Node0 -->
<g id="node1" class="node">
<title>Node0</title>
<g id="a_node1"><a xlink:title=" ">
<polygon fill="#bfbfbf" stroke="#000000" points="112.6653,-224.5 112.6653,-243.5 186.6653,-243.5 186.6653,-224.5 112.6653,-224.5"/>
<text text-anchor="middle" x="149.6653" y="-231.5" font-family="Helvetica,sans-Serif" font-size="10.00" fill="#000000">parser/AST.c</text>
</a>
</g>
</g>
<!-- Node1 -->
<g id="node2" class="node">
<title>Node1</title>
<g id="a_node2"><a xlink:href="AST_8h.html" target="_top" xlink:title=" ">
<polygon fill="#ffffff" stroke="#000000" points="12.6653,-112.5 12.6653,-131.5 56.6653,-131.5 56.6653,-112.5 12.6653,-112.5"/>
<text text-anchor="middle" x="34.6653" y="-119.5" font-family="Helvetica,sans-Serif" font-size="10.00" fill="#000000">AST.h</text>
</a>
</g>
</g>
<!-- Node0&#45;&gt;Node1 -->
<g id="edge1" class="edge">
<title>Node0&#45;&gt;Node1</title>
<path fill="none" stroke="#191970" d="M125.967,-224.3703C108.9651,-216.543 86.377,-204.1569 70.6653,-188 57.4855,-174.4467 47.6953,-155.1019 41.6783,-140.858"/>
<polygon fill="#191970" stroke="#191970" points="44.9205,-139.5393 37.9694,-131.5435 38.4172,-142.1289 44.9205,-139.5393"/>
</g>
<!-- Node2 -->
<g id="node3" class="node">
<title>Node2</title>
<g id="a_node3"><a xlink:title=" ">
<polygon fill="#ffffff" stroke="#bfbfbf" points="45.1653,-.5 45.1653,-19.5 94.1653,-19.5 94.1653,-.5 45.1653,-.5"/>
<text text-anchor="middle" x="69.6653" y="-7.5" font-family="Helvetica,sans-Serif" font-size="10.00" fill="#000000">stdint.h</text>
</a>
</g>
</g>
<!-- Node0&#45;&gt;Node2 -->
<g id="edge15" class="edge">
<title>Node0&#45;&gt;Node2</title>
<path fill="none" stroke="#191970" d="M119.1876,-224.4599C82.1939,-210.8837 22.4256,-181.9294 3.6653,-132 -11.2499,-92.3039 25.5828,-49.4935 50.0294,-26.6359"/>
<polygon fill="#191970" stroke="#191970" points="52.6627,-28.9746 57.7525,-19.6824 47.9789,-23.7724 52.6627,-28.9746"/>
</g>
<!-- Node3 -->
<g id="node4" class="node">
<title>Node3</title>
<g id="a_node4"><a xlink:href="token_8h.html" target="_top" xlink:title=" ">
<polygon fill="#ffffff" stroke="#000000" points="45.1653,-56.5 45.1653,-75.5 94.1653,-75.5 94.1653,-56.5 45.1653,-56.5"/>
<text text-anchor="middle" x="69.6653" y="-63.5" font-family="Helvetica,sans-Serif" font-size="10.00" fill="#000000">token.h</text>
</a>
</g>
</g>
<!-- Node0&#45;&gt;Node3 -->
<g id="edge13" class="edge">
<title>Node0&#45;&gt;Node3</title>
<path fill="none" stroke="#191970" d="M141.2564,-224.3085C133.7962,-215.35 122.9777,-201.432 115.6653,-188 96.9876,-153.6914 82.5882,-110.1993 75.1865,-85.4952"/>
<polygon fill="#191970" stroke="#191970" points="78.4503,-84.1856 72.2879,-75.5673 71.7309,-86.1475 78.4503,-84.1856"/>
</g>
<!-- Node4 -->
<g id="node5" class="node">
<title>Node4</title>
<g id="a_node5"><a xlink:title=" ">
<polygon fill="#ffffff" stroke="#bfbfbf" points="169.6653,-.5 169.6653,-19.5 225.6653,-19.5 225.6653,-.5 169.6653,-.5"/>
<text text-anchor="middle" x="197.6653" y="-7.5" font-family="Helvetica,sans-Serif" font-size="10.00" fill="#000000">stdbool.h</text>
</a>
</g>
</g>
<!-- Node0&#45;&gt;Node4 -->
<g id="edge14" class="edge">
<title>Node0&#45;&gt;Node4</title>
<path fill="none" stroke="#191970" d="M158.5565,-224.4648C166.3942,-215.6114 177.631,-201.7601 184.6653,-188 208.3443,-141.6807 211.027,-127.4571 218.6653,-76 219.9705,-67.2075 220.5542,-64.6859 218.6653,-56 216.6229,-46.6079 212.4864,-36.8357 208.4207,-28.7264"/>
<polygon fill="#191970" stroke="#191970" points="211.4463,-26.9622 203.6419,-19.7968 205.2745,-30.2651 211.4463,-26.9622"/>
</g>
<!-- Node5 -->
<g id="node6" class="node">
<title>Node5</title>
<g id="a_node6"><a xlink:href="parser_8h.html" target="_top" xlink:title=" ">
<polygon fill="#ffffff" stroke="#000000" points="124.1653,-168.5 124.1653,-187.5 175.1653,-187.5 175.1653,-168.5 124.1653,-168.5"/>
<text text-anchor="middle" x="149.6653" y="-175.5" font-family="Helvetica,sans-Serif" font-size="10.00" fill="#000000">parser.h</text>
</a>
</g>
</g>
<!-- Node0&#45;&gt;Node5 -->
<g id="edge6" class="edge">
<title>Node0&#45;&gt;Node5</title>
<path fill="none" stroke="#191970" d="M149.6653,-224.2455C149.6653,-216.9382 149.6653,-206.6944 149.6653,-197.7046"/>
<polygon fill="#191970" stroke="#191970" points="153.1654,-197.6426 149.6653,-187.6427 146.1654,-197.6427 153.1654,-197.6426"/>
</g>
<!-- Node7 -->
<g id="node8" class="node">
<title>Node7</title>
<g id="a_node8"><a xlink:title=" ">
<polygon fill="#ffffff" stroke="#bfbfbf" points="288.6653,-168.5 288.6653,-187.5 334.6653,-187.5 334.6653,-168.5 288.6653,-168.5"/>
<text text-anchor="middle" x="311.6653" y="-175.5" font-family="Helvetica,sans-Serif" font-size="10.00" fill="#000000">stdio.h</text>
</a>
</g>
</g>
<!-- Node0&#45;&gt;Node7 -->
<g id="edge16" class="edge">
<title>Node0&#45;&gt;Node7</title>
<path fill="none" stroke="#191970" d="M177.5141,-224.3733C205.7174,-214.624 249.3127,-199.554 279.0989,-189.2575"/>
<polygon fill="#191970" stroke="#191970" points="280.321,-192.5384 288.6287,-185.9633 278.034,-185.9225 280.321,-192.5384"/>
</g>
<!-- Node8 -->
<g id="node9" class="node">
<title>Node8</title>
<g id="a_node9"><a xlink:title=" ">
<polygon fill="#ffffff" stroke="#bfbfbf" points="352.6653,-168.5 352.6653,-187.5 400.6653,-187.5 400.6653,-168.5 352.6653,-168.5"/>
<text text-anchor="middle" x="376.6653" y="-175.5" font-family="Helvetica,sans-Serif" font-size="10.00" fill="#000000">stdlib.h</text>
</a>
</g>
</g>
<!-- Node0&#45;&gt;Node8 -->
<g id="edge17" class="edge">
<title>Node0&#45;&gt;Node8</title>
<path fill="none" stroke="#191970" d="M187.0275,-225.8567C224.1523,-217.6069 282.916,-204.1242 342.5924,-188.176"/>
<polygon fill="#191970" stroke="#191970" points="343.8184,-191.4706 352.5639,-185.49 341.9977,-184.7115 343.8184,-191.4706"/>
</g>
<!-- Node1&#45;&gt;Node2 -->
<g id="edge2" class="edge">
<title>Node1&#45;&gt;Node2</title>
<path fill="none" stroke="#191970" d="M33.0059,-112.2904C31.1577,-99.1377 29.2093,-75.1078 35.6653,-56 39.2514,-45.3863 46.2795,-35.194 53.0196,-27.1129"/>
<polygon fill="#191970" stroke="#191970" points="55.7408,-29.3201 59.7828,-19.5266 50.5157,-24.6619 55.7408,-29.3201"/>
</g>
<!-- Node1&#45;&gt;Node3 -->
<g id="edge3" class="edge">
<title>Node1&#45;&gt;Node3</title>
<path fill="none" stroke="#191970" d="M40.7619,-112.2455C45.5799,-104.5367 52.4404,-93.5598 58.2686,-84.2348"/>
<polygon fill="#191970" stroke="#191970" points="61.3066,-85.9777 63.6387,-75.6427 55.3706,-82.2677 61.3066,-85.9777"/>
</g>
<!-- Node3&#45;&gt;Node2 -->
<g id="edge5" class="edge">
<title>Node3&#45;&gt;Node2</title>
<path fill="none" stroke="#191970" d="M69.6653,-56.2455C69.6653,-48.9382 69.6653,-38.6944 69.6653,-29.7046"/>
<polygon fill="#191970" stroke="#191970" points="73.1654,-29.6426 69.6653,-19.6427 66.1654,-29.6427 73.1654,-29.6426"/>
</g>
<!-- Node3&#45;&gt;Node4 -->
<g id="edge4" class="edge">
<title>Node3&#45;&gt;Node4</title>
<path fill="none" stroke="#191970" d="M91.6693,-56.3733C112.3088,-47.3435 143.3811,-33.7494 166.5542,-23.6111"/>
<polygon fill="#191970" stroke="#191970" points="168.1898,-26.7159 175.9485,-19.5011 165.384,-20.3028 168.1898,-26.7159"/>
</g>
<!-- Node5&#45;&gt;Node1 -->
<g id="edge7" class="edge">
<title>Node5&#45;&gt;Node1</title>
<path fill="none" stroke="#191970" d="M129.8961,-168.3733C111.5184,-159.4241 83.9341,-145.9917 63.1761,-135.8835"/>
<polygon fill="#191970" stroke="#191970" points="64.6996,-132.7325 54.1766,-131.5011 61.6349,-139.026 64.6996,-132.7325"/>
</g>
<!-- Node5&#45;&gt;Node2 -->
<g id="edge12" class="edge">
<title>Node5&#45;&gt;Node2</title>
<path fill="none" stroke="#191970" d="M146.904,-168.4601C140.6208,-147.4199 124.1225,-95.747 102.6653,-56 97.385,-46.2188 90.3297,-36.1022 84.0982,-27.8555"/>
<polygon fill="#191970" stroke="#191970" points="86.6882,-25.4848 77.7827,-19.7452 81.1652,-29.7856 86.6882,-25.4848"/>
</g>
<!-- Node5&#45;&gt;Node4 -->
<g id="edge11" class="edge">
<title>Node5&#45;&gt;Node4</title>
<path fill="none" stroke="#191970" d="M156.9841,-168.2579C169.5412,-150.8554 194.7035,-112.794 203.6653,-76 207.4092,-60.6292 205.4004,-42.7299 202.7385,-29.4525"/>
<polygon fill="#191970" stroke="#191970" points="206.1121,-28.5053 200.4609,-19.5436 199.29,-30.0735 206.1121,-28.5053"/>
</g>
<!-- Node6 -->
<g id="node7" class="node">
<title>Node6</title>
<g id="a_node7"><a xlink:href="error_8h.html" target="_top" xlink:title=" ">
<polygon fill="#ffffff" stroke="#000000" points="150.6653,-56.5 150.6653,-75.5 194.6653,-75.5 194.6653,-56.5 150.6653,-56.5"/>
<text text-anchor="middle" x="172.6653" y="-63.5" font-family="Helvetica,sans-Serif" font-size="10.00" fill="#000000">error.h</text>
</a>
</g>
</g>
<!-- Node5&#45;&gt;Node6 -->
<g id="edge8" class="edge">
<title>Node5&#45;&gt;Node6</title>
<path fill="none" stroke="#191970" d="M151.6263,-168.4509C155.3945,-150.1013 163.7136,-109.5908 168.6877,-85.3693"/>
<polygon fill="#191970" stroke="#191970" points="172.1261,-86.0246 170.7093,-75.5249 165.2692,-84.6164 172.1261,-86.0246"/>
</g>
<!-- Node6&#45;&gt;Node2 -->
<g id="edge10" class="edge">
<title>Node6&#45;&gt;Node2</title>
<path fill="none" stroke="#191970" d="M154.7241,-56.2455C138.6253,-47.4928 114.7774,-34.527 96.4262,-24.5496"/>
<polygon fill="#191970" stroke="#191970" points="97.8583,-21.3444 87.401,-19.6427 94.5146,-27.4942 97.8583,-21.3444"/>
</g>
<!-- Node6&#45;&gt;Node4 -->
<g id="edge9" class="edge">
<title>Node6&#45;&gt;Node4</title>
<path fill="none" stroke="#191970" d="M177.02,-56.2455C180.3897,-48.6973 185.1583,-38.0158 189.2637,-28.8197"/>
<polygon fill="#191970" stroke="#191970" points="192.48,-30.2009 193.3606,-19.6427 186.088,-27.3473 192.48,-30.2009"/>
</g>
</g>
</svg>
