<?xml version="1.0" encoding="UTF-8" standalone="no"?>
<!DOCTYPE svg PUBLIC "-//W3C//DTD SVG 1.1//EN"
 "http://www.w3.org/Graphics/SVG/1.1/DTD/svg11.dtd">
<!-- Generated by graphviz version 2.40.1 (20161225.0304)
 -->
<!-- Title: main/parser/include/AST.h Pages: 1 -->
<svg width="898pt" height="431pt"
 viewBox="0.00 0.00 898.00 431.00" xmlns="http://www.w3.org/2000/svg" xmlns:xlink="http://www.w3.org/1999/xlink">
<g id="graph0" class="graph" transform="scale(1 1) rotate(0) translate(4 427)">
<title>main/parser/include/AST.h</title>
<polygon fill="#ffffff" stroke="transparent" points="-4,4 -4,-427 894,-427 894,4 -4,4"/>
<!-- Node0 -->
<g id="node1" class="node">
<title>Node0</title>
<g id="a_node1"><a xlink:title=" ">
<polygon fill="#bfbfbf" stroke="#000000" points="670.5,-392.5 670.5,-422.5 783.5,-422.5 783.5,-392.5 670.5,-392.5"/>
<text text-anchor="start" x="678.5" y="-410.5" font-family="Helvetica,sans-Serif" font-size="10.00" fill="#000000">main/parser/include</text>
<text text-anchor="middle" x="727" y="-399.5" font-family="Helvetica,sans-Serif" font-size="10.00" fill="#000000">/AST.h</text>
</a>
</g>
</g>
<!-- Node1 -->
<g id="node2" class="node">
<title>Node1</title>
<g id="a_node2"><a xlink:title=" ">
<polygon fill="#ffffff" stroke="#bfbfbf" points="810.5,-.5 810.5,-19.5 863.5,-19.5 863.5,-.5 810.5,-.5"/>
<text text-anchor="middle" x="837" y="-7.5" font-family="Helvetica,sans-Serif" font-size="10.00" fill="#000000">stdint.h</text>
</a>
</g>
</g>
<!-- Node0&#45;&gt;Node1 -->
<g id="edge1" class="edge">
<title>Node0&#45;&gt;Node1</title>
<path fill="none" stroke="#191970" d="M782.6395,-392.4725C829.8593,-375.9443 890,-344.2457 890,-290 890,-290 890,-290 890,-122 890,-85.8604 867.1748,-48.9196 851.4825,-27.7933"/>
<polygon fill="#191970" stroke="#191970" points="854.161,-25.5352 845.2813,-19.7558 848.6188,-29.8112 854.161,-25.5352"/>
</g>
<!-- Node2 -->
<g id="node3" class="node">
<title>Node2</title>
<g id="a_node3"><a xlink:href="token_8h.html" target="_top" xlink:title=" ">
<polygon fill="#ffffff" stroke="#000000" points="673.5,-336.5 673.5,-355.5 726.5,-355.5 726.5,-336.5 673.5,-336.5"/>
<text text-anchor="middle" x="700" y="-343.5" font-family="Helvetica,sans-Serif" font-size="10.00" fill="#000000">token.h</text>
</a>
</g>
</g>
<!-- Node0&#45;&gt;Node2 -->
<g id="edge2" class="edge">
<title>Node0&#45;&gt;Node2</title>
<path fill="none" stroke="#191970" d="M720.3258,-392.2977C716.7341,-384.1166 712.2676,-373.943 708.4371,-365.2179"/>
<polygon fill="#191970" stroke="#191970" points="711.5478,-363.5964 704.323,-355.8469 705.1382,-366.4104 711.5478,-363.5964"/>
</g>
<!-- Node2&#45;&gt;Node1 -->
<g id="edge32" class="edge">
<title>Node2&#45;&gt;Node1</title>
<path fill="none" stroke="#191970" d="M726.8247,-339.4358C770.4608,-326.9725 852,-295.4605 852,-234 852,-234 852,-234 852,-122 852,-89.2739 845.6307,-51.641 841.193,-29.3923"/>
<polygon fill="#191970" stroke="#191970" points="844.6058,-28.6123 839.1491,-19.5307 837.7515,-30.0329 844.6058,-28.6123"/>
</g>
<!-- Node3 -->
<g id="node4" class="node">
<title>Node3</title>
<g id="a_node4"><a xlink:href="builtins_8h.html" target="_top" xlink:title=" ">
<polygon fill="#ffffff" stroke="#000000" points="533,-280.5 533,-299.5 595,-299.5 595,-280.5 533,-280.5"/>
<text text-anchor="middle" x="564" y="-287.5" font-family="Helvetica,sans-Serif" font-size="10.00" fill="#000000">builtins.h</text>
</a>
</g>
</g>
<!-- Node2&#45;&gt;Node3 -->
<g id="edge3" class="edge">
<title>Node2&#45;&gt;Node3</title>
<path fill="none" stroke="#191970" d="M676.6208,-336.3733C654.4955,-327.2629 621.0866,-313.5062 596.3981,-303.3404"/>
<polygon fill="#191970" stroke="#191970" points="597.6536,-300.0723 587.0742,-299.5011 594.9883,-306.5451 597.6536,-300.0723"/>
</g>
<!-- Node9 -->
<g id="node10" class="node">
<title>Node9</title>
<g id="a_node10"><a xlink:title=" ">
<polygon fill="#ffffff" stroke="#bfbfbf" points="126,-.5 126,-19.5 188,-19.5 188,-.5 126,-.5"/>
<text text-anchor="middle" x="157" y="-7.5" font-family="Helvetica,sans-Serif" font-size="10.00" fill="#000000">stdbool.h</text>
</a>
</g>
</g>
<!-- Node2&#45;&gt;Node9 -->
<g id="edge31" class="edge">
<title>Node2&#45;&gt;Node9</title>
<path fill="none" stroke="#191970" d="M673.4139,-344.611C545.5505,-337.5857 0,-303.5365 0,-234 0,-234 0,-234 0,-122 0,-64.9169 69.6336,-34.191 116.152,-20.0335"/>
<polygon fill="#191970" stroke="#191970" points="117.3536,-23.3293 125.9819,-17.1809 115.4026,-16.6067 117.3536,-23.3293"/>
</g>
<!-- Node4 -->
<g id="node5" class="node">
<title>Node4</title>
<g id="a_node5"><a xlink:href="builtinutils_8h.html" target="_top" xlink:title=" ">
<polygon fill="#ffffff" stroke="#000000" points="701.5,-.5 701.5,-19.5 778.5,-19.5 778.5,-.5 701.5,-.5"/>
<text text-anchor="middle" x="740" y="-7.5" font-family="Helvetica,sans-Serif" font-size="10.00" fill="#000000">builtinutils.h</text>
</a>
</g>
</g>
<!-- Node3&#45;&gt;Node4 -->
<g id="edge4" class="edge">
<title>Node3&#45;&gt;Node4</title>
<path fill="none" stroke="#191970" d="M595.1847,-286.1491C646.1943,-279.361 744.6425,-264.0647 773,-244 801.1896,-224.0541 814,-212.5325 814,-178 814,-178 814,-178 814,-122 814,-82.563 781.6668,-46.3258 759.7456,-26.2897"/>
<polygon fill="#191970" stroke="#191970" points="762.0384,-23.6451 752.2196,-19.665 757.4133,-28.8995 762.0384,-23.6451"/>
</g>
<!-- Node5 -->
<g id="node6" class="node">
<title>Node5</title>
<g id="a_node6"><a xlink:href="helios__boolean_8h.html" target="_top" xlink:title=" ">
<polygon fill="#ffffff" stroke="#000000" points="28.5,-224.5 28.5,-243.5 127.5,-243.5 127.5,-224.5 28.5,-224.5"/>
<text text-anchor="middle" x="78" y="-231.5" font-family="Helvetica,sans-Serif" font-size="10.00" fill="#000000">helios_boolean.h</text>
</a>
</g>
</g>
<!-- Node3&#45;&gt;Node5 -->
<g id="edge5" class="edge">
<title>Node3&#45;&gt;Node5</title>
<path fill="none" stroke="#191970" d="M532.9684,-287.1152C463.0564,-280.507 287.935,-263.3444 142,-244 140.5368,-243.806 139.0554,-243.6057 137.5615,-243.4001"/>
<polygon fill="#191970" stroke="#191970" points="137.9748,-239.9237 127.5814,-241.9797 136.9884,-246.8539 137.9748,-239.9237"/>
</g>
<!-- Node6 -->
<g id="node7" class="node">
<title>Node6</title>
<g id="a_node7"><a xlink:href="helios__object_8h.html" target="_top" xlink:title=" ">
<polygon fill="#ffffff" stroke="#000000" points="464,-168.5 464,-187.5 554,-187.5 554,-168.5 464,-168.5"/>
<text text-anchor="middle" x="509" y="-175.5" font-family="Helvetica,sans-Serif" font-size="10.00" fill="#000000">helios_object.h</text>
</a>
</g>
</g>
<!-- Node3&#45;&gt;Node6 -->
<g id="edge25" class="edge">
<title>Node3&#45;&gt;Node6</title>
<path fill="none" stroke="#191970" d="M581.5221,-280.3736C601.8864,-267.8934 631.019,-245.2087 617,-224 604.9762,-205.8098 584.1382,-194.7894 563.9538,-188.1231"/>
<polygon fill="#191970" stroke="#191970" points="564.7227,-184.7 554.1391,-185.188 562.7171,-191.4065 564.7227,-184.7"/>
</g>
<!-- Node8 -->
<g id="node9" class="node">
<title>Node8</title>
<g id="a_node9"><a xlink:href="helios__memory_8h.html" target="_top" xlink:title=" ">
<polygon fill="#ffffff" stroke="#000000" points="576,-56.5 576,-75.5 676,-75.5 676,-56.5 576,-56.5"/>
<text text-anchor="middle" x="626" y="-63.5" font-family="Helvetica,sans-Serif" font-size="10.00" fill="#000000">helios_memory.h</text>
</a>
</g>
</g>
<!-- Node3&#45;&gt;Node8 -->
<g id="edge28" class="edge">
<title>Node3&#45;&gt;Node8</title>
<path fill="none" stroke="#191970" d="M532.8968,-288.642C445.0051,-284.4884 199.6248,-270.5911 176,-244 170.0962,-237.3549 170.8601,-231.2522 176,-224 222.545,-158.3268 457.9621,-101.2712 568.5087,-77.6254"/>
<polygon fill="#191970" stroke="#191970" points="569.431,-81.0078 578.4873,-75.5093 567.9788,-74.16 569.431,-81.0078"/>
</g>
<!-- Node12 -->
<g id="node13" class="node">
<title>Node12</title>
<g id="a_node13"><a xlink:href="helios__code_8h.html" target="_top" xlink:title=" ">
<polygon fill="#ffffff" stroke="#000000" points="664.5,-224.5 664.5,-243.5 747.5,-243.5 747.5,-224.5 664.5,-224.5"/>
<text text-anchor="middle" x="706" y="-231.5" font-family="Helvetica,sans-Serif" font-size="10.00" fill="#000000">helios_code.h</text>
</a>
</g>
</g>
<!-- Node3&#45;&gt;Node12 -->
<g id="edge16" class="edge">
<title>Node3&#45;&gt;Node12</title>
<path fill="none" stroke="#191970" d="M588.4107,-280.3733C611.6142,-271.2226 646.7038,-257.3844 672.5142,-247.2057"/>
<polygon fill="#191970" stroke="#191970" points="673.8892,-250.4258 681.9079,-243.5011 671.3211,-243.9139 673.8892,-250.4258"/>
</g>
<!-- Node13 -->
<g id="node14" class="node">
<title>Node13</title>
<g id="a_node14"><a xlink:href="helios__float_8h.html" target="_top" xlink:title=" ">
<polygon fill="#ffffff" stroke="#000000" points="308,-224.5 308,-243.5 390,-243.5 390,-224.5 308,-224.5"/>
<text text-anchor="middle" x="349" y="-231.5" font-family="Helvetica,sans-Serif" font-size="10.00" fill="#000000">helios_float.h</text>
</a>
</g>
</g>
<!-- Node3&#45;&gt;Node13 -->
<g id="edge18" class="edge">
<title>Node3&#45;&gt;Node13</title>
<path fill="none" stroke="#191970" d="M532.7372,-281.8571C496.6935,-272.469 437.0917,-256.9448 395.5808,-246.1327"/>
<polygon fill="#191970" stroke="#191970" points="396.2644,-242.694 385.705,-243.5604 394.5,-249.468 396.2644,-242.694"/>
</g>
<!-- Node14 -->
<g id="node15" class="node">
<title>Node14</title>
<g id="a_node15"><a xlink:href="helios__hashmap_8h.html" target="_top" xlink:title=" ">
<polygon fill="#ffffff" stroke="#000000" points="184.5,-224.5 184.5,-243.5 289.5,-243.5 289.5,-224.5 184.5,-224.5"/>
<text text-anchor="middle" x="237" y="-231.5" font-family="Helvetica,sans-Serif" font-size="10.00" fill="#000000">helios_hashmap.h</text>
</a>
</g>
</g>
<!-- Node3&#45;&gt;Node14 -->
<g id="edge20" class="edge">
<title>Node3&#45;&gt;Node14</title>
<path fill="none" stroke="#191970" d="M532.9418,-284.6812C479.6073,-275.5474 369.6201,-256.7117 299.7863,-244.7524"/>
<polygon fill="#191970" stroke="#191970" points="300.2332,-241.278 289.7858,-243.0398 299.0515,-248.1776 300.2332,-241.278"/>
</g>
<!-- Node15 -->
<g id="node16" class="node">
<title>Node15</title>
<g id="a_node16"><a xlink:href="helios__integer_8h.html" target="_top" xlink:title=" ">
<polygon fill="#ffffff" stroke="#000000" points="408,-224.5 408,-243.5 502,-243.5 502,-224.5 408,-224.5"/>
<text text-anchor="middle" x="455" y="-231.5" font-family="Helvetica,sans-Serif" font-size="10.00" fill="#000000">helios_integer.h</text>
</a>
</g>
</g>
<!-- Node3&#45;&gt;Node15 -->
<g id="edge23" class="edge">
<title>Node3&#45;&gt;Node15</title>
<path fill="none" stroke="#191970" d="M545.0136,-280.2455C527.8208,-271.4125 502.2762,-258.2887 482.7868,-248.2758"/>
<polygon fill="#191970" stroke="#191970" points="484.263,-245.0993 473.7688,-243.6427 481.0641,-251.3257 484.263,-245.0993"/>
</g>
<!-- Node16 -->
<g id="node17" class="node">
<title>Node16</title>
<g id="a_node17"><a xlink:href="helios__string_8h.html" target="_top" xlink:title=" ">
<polygon fill="#ffffff" stroke="#000000" points="520,-224.5 520,-243.5 608,-243.5 608,-224.5 520,-224.5"/>
<text text-anchor="middle" x="564" y="-231.5" font-family="Helvetica,sans-Serif" font-size="10.00" fill="#000000">helios_string.h</text>
</a>
</g>
</g>
<!-- Node3&#45;&gt;Node16 -->
<g id="edge26" class="edge">
<title>Node3&#45;&gt;Node16</title>
<path fill="none" stroke="#191970" d="M564,-280.2455C564,-272.9382 564,-262.6944 564,-253.7046"/>
<polygon fill="#191970" stroke="#191970" points="567.5001,-253.6426 564,-243.6427 560.5001,-253.6427 567.5001,-253.6426"/>
</g>
<!-- Node17 -->
<g id="node18" class="node">
<title>Node17</title>
<g id="a_node18"><a xlink:href="serialize_8h.html" target="_top" xlink:title=" ">
<polygon fill="#ffffff" stroke="#000000" points="703.5,-168.5 703.5,-187.5 770.5,-187.5 770.5,-168.5 703.5,-168.5"/>
<text text-anchor="middle" x="737" y="-175.5" font-family="Helvetica,sans-Serif" font-size="10.00" fill="#000000">serialize.h</text>
</a>
</g>
</g>
<!-- Node3&#45;&gt;Node17 -->
<g id="edge29" class="edge">
<title>Node3&#45;&gt;Node17</title>
<path fill="none" stroke="#191970" d="M595.3447,-287.1602C644.7584,-281.9626 737.2005,-269.0732 757,-244 767.9562,-230.1256 759.6201,-210.2995 750.6018,-196.0031"/>
<polygon fill="#191970" stroke="#191970" points="753.3225,-193.7823 744.7729,-187.5249 747.5542,-197.7481 753.3225,-193.7823"/>
</g>
<!-- Node5&#45;&gt;Node6 -->
<g id="edge6" class="edge">
<title>Node5&#45;&gt;Node6</title>
<path fill="none" stroke="#191970" d="M127.8622,-227.5214C209.0955,-216.9667 369.3995,-196.1383 453.8972,-185.1595"/>
<polygon fill="#191970" stroke="#191970" points="454.35,-188.6302 463.8156,-183.8708 453.448,-181.6886 454.35,-188.6302"/>
</g>
<!-- Node5&#45;&gt;Node9 -->
<g id="edge15" class="edge">
<title>Node5&#45;&gt;Node9</title>
<path fill="none" stroke="#191970" d="M81.3945,-224.375C93.3974,-190.3415 133.9835,-75.262 150.212,-29.247"/>
<polygon fill="#191970" stroke="#191970" points="153.5928,-30.1839 153.6181,-19.5891 146.9913,-27.8557 153.5928,-30.1839"/>
</g>
<!-- Node7 -->
<g id="node8" class="node">
<title>Node7</title>
<g id="a_node8"><a xlink:href="helios__type_8h.html" target="_top" xlink:title=" ">
<polygon fill="#ffffff" stroke="#000000" points="680,-112.5 680,-131.5 762,-131.5 762,-112.5 680,-112.5"/>
<text text-anchor="middle" x="721" y="-119.5" font-family="Helvetica,sans-Serif" font-size="10.00" fill="#000000">helios_type.h</text>
</a>
</g>
</g>
<!-- Node6&#45;&gt;Node7 -->
<g id="edge7" class="edge">
<title>Node6&#45;&gt;Node7</title>
<path fill="none" stroke="#191970" d="M545.4441,-168.3733C581.3069,-158.9001 636.1878,-144.4032 675.0282,-134.1435"/>
<polygon fill="#191970" stroke="#191970" points="676.257,-137.439 685.0315,-131.5011 674.4692,-130.6712 676.257,-137.439"/>
</g>
<!-- Node7&#45;&gt;Node1 -->
<g id="edge13" class="edge">
<title>Node7&#45;&gt;Node1</title>
<path fill="none" stroke="#191970" d="M730.8901,-112.4509C750.6656,-93.3574 795.2921,-50.2697 819.9041,-26.5063"/>
<polygon fill="#191970" stroke="#191970" points="822.372,-28.9888 827.1349,-19.5249 817.5098,-23.9529 822.372,-28.9888"/>
</g>
<!-- Node7&#45;&gt;Node8 -->
<g id="edge8" class="edge">
<title>Node7&#45;&gt;Node8</title>
<path fill="none" stroke="#191970" d="M704.4523,-112.2455C689.7401,-103.5731 668.0112,-90.7645 651.1495,-80.825"/>
<polygon fill="#191970" stroke="#191970" points="652.7502,-77.7057 642.3581,-75.6427 649.1954,-83.736 652.7502,-77.7057"/>
</g>
<!-- Node11 -->
<g id="node12" class="node">
<title>Node11</title>
<g id="a_node12"><a xlink:title=" ">
<polygon fill="#ffffff" stroke="#bfbfbf" points="694.5,-56.5 694.5,-75.5 747.5,-75.5 747.5,-56.5 694.5,-56.5"/>
<text text-anchor="middle" x="721" y="-63.5" font-family="Helvetica,sans-Serif" font-size="10.00" fill="#000000">stdlib.h</text>
</a>
</g>
</g>
<!-- Node7&#45;&gt;Node11 -->
<g id="edge14" class="edge">
<title>Node7&#45;&gt;Node11</title>
<path fill="none" stroke="#191970" d="M721,-112.2455C721,-104.9382 721,-94.6944 721,-85.7046"/>
<polygon fill="#191970" stroke="#191970" points="724.5001,-85.6426 721,-75.6427 717.5001,-85.6427 724.5001,-85.6426"/>
</g>
<!-- Node8&#45;&gt;Node1 -->
<g id="edge12" class="edge">
<title>Node8&#45;&gt;Node1</title>
<path fill="none" stroke="#191970" d="M662.2722,-56.3733C700.8862,-46.125 761.6528,-29.9974 800.3939,-19.7154"/>
<polygon fill="#191970" stroke="#191970" points="801.4531,-23.0555 810.2207,-17.1073 799.6574,-16.2897 801.4531,-23.0555"/>
</g>
<!-- Node8&#45;&gt;Node4 -->
<g id="edge9" class="edge">
<title>Node8&#45;&gt;Node4</title>
<path fill="none" stroke="#191970" d="M645.5973,-56.3733C663.7331,-47.4644 690.9135,-34.1127 711.4587,-24.0203"/>
<polygon fill="#191970" stroke="#191970" points="713.2261,-27.0517 720.6584,-19.5011 710.1397,-20.7688 713.2261,-27.0517"/>
</g>
<!-- Node8&#45;&gt;Node9 -->
<g id="edge10" class="edge">
<title>Node8&#45;&gt;Node9</title>
<path fill="none" stroke="#191970" d="M575.8088,-60.007C482.5753,-48.8747 284.3373,-25.2045 198.2898,-14.9301"/>
<polygon fill="#191970" stroke="#191970" points="198.4687,-11.4267 188.1242,-13.7163 197.6387,-18.3773 198.4687,-11.4267"/>
</g>
<!-- Node10 -->
<g id="node11" class="node">
<title>Node10</title>
<g id="a_node11"><a xlink:title=" ">
<polygon fill="#ffffff" stroke="#bfbfbf" points="598,-.5 598,-19.5 654,-19.5 654,-.5 598,-.5"/>
<text text-anchor="middle" x="626" y="-7.5" font-family="Helvetica,sans-Serif" font-size="10.00" fill="#000000">stddef.h</text>
</a>
</g>
</g>
<!-- Node8&#45;&gt;Node10 -->
<g id="edge11" class="edge">
<title>Node8&#45;&gt;Node10</title>
<path fill="none" stroke="#191970" d="M626,-56.2455C626,-48.9382 626,-38.6944 626,-29.7046"/>
<polygon fill="#191970" stroke="#191970" points="629.5001,-29.6426 626,-19.6427 622.5001,-29.6427 629.5001,-29.6426"/>
</g>
<!-- Node12&#45;&gt;Node6 -->
<g id="edge17" class="edge">
<title>Node12&#45;&gt;Node6</title>
<path fill="none" stroke="#191970" d="M672.1345,-224.3733C638.951,-214.9404 588.245,-200.5265 552.1806,-190.2747"/>
<polygon fill="#191970" stroke="#191970" points="552.9995,-186.8689 542.4236,-187.5011 551.0855,-193.6021 552.9995,-186.8689"/>
</g>
<!-- Node13&#45;&gt;Node6 -->
<g id="edge19" class="edge">
<title>Node13&#45;&gt;Node6</title>
<path fill="none" stroke="#191970" d="M376.505,-224.3733C402.8802,-215.1419 442.8851,-201.1402 472.0358,-190.9375"/>
<polygon fill="#191970" stroke="#191970" points="473.5716,-194.1082 481.8539,-187.5011 471.2591,-187.5012 473.5716,-194.1082"/>
</g>
<!-- Node14&#45;&gt;Node6 -->
<g id="edge21" class="edge">
<title>Node14&#45;&gt;Node6</title>
<path fill="none" stroke="#191970" d="M283.4494,-224.4369C330.5774,-214.7341 403.5319,-199.714 453.6341,-189.3989"/>
<polygon fill="#191970" stroke="#191970" points="454.5592,-192.7819 463.648,-187.3372 453.1476,-185.9257 454.5592,-192.7819"/>
</g>
<!-- Node14&#45;&gt;Node9 -->
<g id="edge22" class="edge">
<title>Node14&#45;&gt;Node9</title>
<path fill="none" stroke="#191970" d="M233.5625,-224.375C221.4077,-190.3415 180.3079,-75.262 163.8739,-29.247"/>
<polygon fill="#191970" stroke="#191970" points="167.0842,-27.8294 160.4247,-19.5891 160.492,-30.1838 167.0842,-27.8294"/>
</g>
<!-- Node15&#45;&gt;Node6 -->
<g id="edge24" class="edge">
<title>Node15&#45;&gt;Node6</title>
<path fill="none" stroke="#191970" d="M464.4061,-224.2455C472.1493,-216.2155 483.312,-204.6394 492.5318,-195.0781"/>
<polygon fill="#191970" stroke="#191970" points="495.2798,-197.2706 499.7017,-187.6427 490.2409,-192.4117 495.2798,-197.2706"/>
</g>
<!-- Node16&#45;&gt;Node6 -->
<g id="edge27" class="edge">
<title>Node16&#45;&gt;Node6</title>
<path fill="none" stroke="#191970" d="M554.4197,-224.2455C546.4542,-216.1352 534.9359,-204.4075 525.4921,-194.7919"/>
<polygon fill="#191970" stroke="#191970" points="527.9747,-192.3247 518.4705,-187.6427 522.9805,-197.2297 527.9747,-192.3247"/>
</g>
<!-- Node17&#45;&gt;Node7 -->
<g id="edge30" class="edge">
<title>Node17&#45;&gt;Node7</title>
<path fill="none" stroke="#191970" d="M734.213,-168.2455C732.1023,-160.8579 729.134,-150.4689 726.5453,-141.4087"/>
<polygon fill="#191970" stroke="#191970" points="729.8677,-140.2964 723.755,-131.6427 723.137,-142.2195 729.8677,-140.2964"/>
</g>
</g>
</svg>
