<?xml version="1.0" encoding="UTF-8" standalone="no"?>
<!DOCTYPE svg PUBLIC "-//W3C//DTD SVG 1.1//EN"
 "http://www.w3.org/Graphics/SVG/1.1/DTD/svg11.dtd">
<!-- Generated by graphviz version 2.40.1 (20161225.0304)
 -->
<!-- Title: builtins/include/builtins.h Pages: 1 -->
<svg width="442pt" height="308pt"
 viewBox="0.00 0.00 441.50 308.00" xmlns="http://www.w3.org/2000/svg" xmlns:xlink="http://www.w3.org/1999/xlink">
<g id="graph0" class="graph" transform="scale(1 1) rotate(0) translate(4 304)">
<title>builtins/include/builtins.h</title>
<polygon fill="#ffffff" stroke="transparent" points="-4,4 -4,-304 437.5,-304 437.5,4 -4,4"/>
<!-- Node0 -->
<g id="node1" class="node">
<title>Node0</title>
<g id="a_node1"><a xlink:title=" ">
<polygon fill="#bfbfbf" stroke="#000000" points="83.5,-280.5 83.5,-299.5 206.5,-299.5 206.5,-280.5 83.5,-280.5"/>
<text text-anchor="middle" x="145" y="-287.5" font-family="Helvetica,sans-Serif" font-size="10.00" fill="#000000">builtins/include/builtins.h</text>
</a>
</g>
</g>
<!-- Node1 -->
<g id="node2" class="node">
<title>Node1</title>
<g id="a_node2"><a xlink:href="builtinutils_8h.html" target="_top" xlink:title=" ">
<polygon fill="#ffffff" stroke="#000000" points="0,-.5 0,-19.5 68,-19.5 68,-.5 0,-.5"/>
<text text-anchor="middle" x="34" y="-7.5" font-family="Helvetica,sans-Serif" font-size="10.00" fill="#000000">builtinutils.h</text>
</a>
</g>
</g>
<!-- Node0&#45;&gt;Node1 -->
<g id="edge1" class="edge">
<title>Node0&#45;&gt;Node1</title>
<path fill="none" stroke="#191970" d="M123.8605,-280.4901C91.6548,-264.3882 34,-228.5089 34,-178 34,-178 34,-178 34,-122 34,-89.7116 34,-52.1872 34,-29.8048"/>
<polygon fill="#191970" stroke="#191970" points="37.5001,-29.5883 34,-19.5884 30.5001,-29.5884 37.5001,-29.5883"/>
</g>
<!-- Node2 -->
<g id="node3" class="node">
<title>Node2</title>
<g id="a_node3"><a xlink:href="helios__hashmap_8h.html" target="_top" xlink:title=" ">
<polygon fill="#ffffff" stroke="#000000" points="338.5,-224.5 338.5,-243.5 433.5,-243.5 433.5,-224.5 338.5,-224.5"/>
<text text-anchor="middle" x="386" y="-231.5" font-family="Helvetica,sans-Serif" font-size="10.00" fill="#000000">helios_hashmap.h</text>
</a>
</g>
</g>
<!-- Node0&#45;&gt;Node2 -->
<g id="edge2" class="edge">
<title>Node0&#45;&gt;Node2</title>
<path fill="none" stroke="#191970" d="M186.1555,-280.4369C227.3142,-270.8731 290.705,-256.1432 335.0242,-245.845"/>
<polygon fill="#191970" stroke="#191970" points="336.0659,-249.1963 345.0142,-243.5237 334.4815,-242.3779 336.0659,-249.1963"/>
</g>
<!-- Node3 -->
<g id="node4" class="node">
<title>Node3</title>
<g id="a_node4"><a xlink:href="helios__object_8h.html" target="_top" xlink:title=" ">
<polygon fill="#ffffff" stroke="#000000" points="143,-168.5 143,-187.5 225,-187.5 225,-168.5 143,-168.5"/>
<text text-anchor="middle" x="184" y="-175.5" font-family="Helvetica,sans-Serif" font-size="10.00" fill="#000000">helios_object.h</text>
</a>
</g>
</g>
<!-- Node0&#45;&gt;Node3 -->
<g id="edge15" class="edge">
<title>Node0&#45;&gt;Node3</title>
<path fill="none" stroke="#191970" d="M138.7154,-280.2001C131.072,-266.945 120.2152,-242.7996 129,-224 134.9463,-211.2749 146.3358,-200.8307 157.215,-193.129"/>
<polygon fill="#191970" stroke="#191970" points="159.277,-195.9622 165.7167,-187.5491 155.436,-190.1101 159.277,-195.9622"/>
</g>
<!-- Node5 -->
<g id="node6" class="node">
<title>Node5</title>
<g id="a_node6"><a xlink:href="helios__memory_8h.html" target="_top" xlink:title=" ">
<polygon fill="#ffffff" stroke="#000000" points="66,-56.5 66,-75.5 156,-75.5 156,-56.5 66,-56.5"/>
<text text-anchor="middle" x="111" y="-63.5" font-family="Helvetica,sans-Serif" font-size="10.00" fill="#000000">helios_memory.h</text>
</a>
</g>
</g>
<!-- Node0&#45;&gt;Node5 -->
<g id="edge18" class="edge">
<title>Node0&#45;&gt;Node5</title>
<path fill="none" stroke="#191970" d="M138.3586,-280.2813C132.6176,-271.3044 124.6801,-257.3748 121,-244 105.7222,-188.4743 107.3699,-119.6334 109.4105,-86.1637"/>
<polygon fill="#191970" stroke="#191970" points="112.9233,-86.0977 110.1215,-75.8801 105.94,-85.6148 112.9233,-86.0977"/>
</g>
<!-- Node10 -->
<g id="node11" class="node">
<title>Node10</title>
<g id="a_node11"><a xlink:href="helios__integer_8h.html" target="_top" xlink:title=" ">
<polygon fill="#ffffff" stroke="#000000" points="138,-224.5 138,-243.5 222,-243.5 222,-224.5 138,-224.5"/>
<text text-anchor="middle" x="180" y="-231.5" font-family="Helvetica,sans-Serif" font-size="10.00" fill="#000000">helios_integer.h</text>
</a>
</g>
</g>
<!-- Node0&#45;&gt;Node10 -->
<g id="edge13" class="edge">
<title>Node0&#45;&gt;Node10</title>
<path fill="none" stroke="#191970" d="M151.0965,-280.2455C155.9145,-272.5367 162.7751,-261.5598 168.6032,-252.2348"/>
<polygon fill="#191970" stroke="#191970" points="171.6413,-253.9777 173.9733,-243.6427 165.7053,-250.2677 171.6413,-253.9777"/>
</g>
<!-- Node11 -->
<g id="node12" class="node">
<title>Node11</title>
<g id="a_node12"><a xlink:href="helios__string_8h.html" target="_top" xlink:title=" ">
<polygon fill="#ffffff" stroke="#000000" points="240,-224.5 240,-243.5 320,-243.5 320,-224.5 240,-224.5"/>
<text text-anchor="middle" x="280" y="-231.5" font-family="Helvetica,sans-Serif" font-size="10.00" fill="#000000">helios_string.h</text>
</a>
</g>
</g>
<!-- Node0&#45;&gt;Node11 -->
<g id="edge16" class="edge">
<title>Node0&#45;&gt;Node11</title>
<path fill="none" stroke="#191970" d="M168.2073,-280.3733C190.1699,-271.2629 223.3332,-257.5062 247.8401,-247.3404"/>
<polygon fill="#191970" stroke="#191970" points="249.1997,-250.5657 257.0955,-243.5011 246.5176,-244.0999 249.1997,-250.5657"/>
</g>
<!-- Node2&#45;&gt;Node3 -->
<g id="edge3" class="edge">
<title>Node2&#45;&gt;Node3</title>
<path fill="none" stroke="#191970" d="M351.275,-224.3733C317.2492,-214.9404 265.2563,-200.5265 228.2766,-190.2747"/>
<polygon fill="#191970" stroke="#191970" points="228.8435,-186.7999 218.2719,-187.5011 226.9734,-193.5455 228.8435,-186.7999"/>
</g>
<!-- Node6 -->
<g id="node7" class="node">
<title>Node6</title>
<g id="a_node7"><a xlink:title=" ">
<polygon fill="#ffffff" stroke="#bfbfbf" points="267,-.5 267,-19.5 323,-19.5 323,-.5 267,-.5"/>
<text text-anchor="middle" x="295" y="-7.5" font-family="Helvetica,sans-Serif" font-size="10.00" fill="#000000">stdbool.h</text>
</a>
</g>
</g>
<!-- Node2&#45;&gt;Node6 -->
<g id="edge12" class="edge">
<title>Node2&#45;&gt;Node6</title>
<path fill="none" stroke="#191970" d="M382.0898,-224.375C368.2346,-190.2697 321.3153,-74.7761 302.7012,-28.9567"/>
<polygon fill="#191970" stroke="#191970" points="305.9021,-27.5365 298.8956,-19.5891 299.4168,-30.1712 305.9021,-27.5365"/>
</g>
<!-- Node4 -->
<g id="node5" class="node">
<title>Node4</title>
<g id="a_node5"><a xlink:href="helios__type_8h.html" target="_top" xlink:title=" ">
<polygon fill="#ffffff" stroke="#000000" points="147,-112.5 147,-131.5 221,-131.5 221,-112.5 147,-112.5"/>
<text text-anchor="middle" x="184" y="-119.5" font-family="Helvetica,sans-Serif" font-size="10.00" fill="#000000">helios_type.h</text>
</a>
</g>
</g>
<!-- Node3&#45;&gt;Node4 -->
<g id="edge4" class="edge">
<title>Node3&#45;&gt;Node4</title>
<path fill="none" stroke="#191970" d="M184,-168.2455C184,-160.9382 184,-150.6944 184,-141.7046"/>
<polygon fill="#191970" stroke="#191970" points="187.5001,-141.6426 184,-131.6427 180.5001,-141.6427 187.5001,-141.6426"/>
</g>
<!-- Node4&#45;&gt;Node5 -->
<g id="edge5" class="edge">
<title>Node4&#45;&gt;Node5</title>
<path fill="none" stroke="#191970" d="M171.2844,-112.2455C160.398,-103.8943 144.5117,-91.7076 131.78,-81.9408"/>
<polygon fill="#191970" stroke="#191970" points="133.6346,-78.9523 123.5699,-75.6427 129.3739,-84.5063 133.6346,-78.9523"/>
</g>
<!-- Node8 -->
<g id="node9" class="node">
<title>Node8</title>
<g id="a_node9"><a xlink:title=" ">
<polygon fill="#ffffff" stroke="#bfbfbf" points="158.5,-.5 158.5,-19.5 207.5,-19.5 207.5,-.5 158.5,-.5"/>
<text text-anchor="middle" x="183" y="-7.5" font-family="Helvetica,sans-Serif" font-size="10.00" fill="#000000">stdint.h</text>
</a>
</g>
</g>
<!-- Node4&#45;&gt;Node8 -->
<g id="edge10" class="edge">
<title>Node4&#45;&gt;Node8</title>
<path fill="none" stroke="#191970" d="M183.9147,-112.4509C183.7516,-94.184 183.3925,-53.9553 183.1759,-29.6976"/>
<polygon fill="#191970" stroke="#191970" points="186.6743,-29.4932 183.085,-19.5249 179.6746,-29.5558 186.6743,-29.4932"/>
</g>
<!-- Node9 -->
<g id="node10" class="node">
<title>Node9</title>
<g id="a_node10"><a xlink:title=" ">
<polygon fill="#ffffff" stroke="#bfbfbf" points="212,-56.5 212,-75.5 260,-75.5 260,-56.5 212,-56.5"/>
<text text-anchor="middle" x="236" y="-63.5" font-family="Helvetica,sans-Serif" font-size="10.00" fill="#000000">stdlib.h</text>
</a>
</g>
</g>
<!-- Node4&#45;&gt;Node9 -->
<g id="edge11" class="edge">
<title>Node4&#45;&gt;Node9</title>
<path fill="none" stroke="#191970" d="M193.0577,-112.2455C200.5142,-104.2155 211.2634,-92.6394 220.1417,-83.0781"/>
<polygon fill="#191970" stroke="#191970" points="222.8063,-85.3522 227.0461,-75.6427 217.6768,-80.589 222.8063,-85.3522"/>
</g>
<!-- Node5&#45;&gt;Node1 -->
<g id="edge6" class="edge">
<title>Node5&#45;&gt;Node1</title>
<path fill="none" stroke="#191970" d="M97.5876,-56.2455C85.9943,-47.814 69.0252,-35.4729 55.5322,-25.6598"/>
<polygon fill="#191970" stroke="#191970" points="57.4047,-22.6938 47.2587,-19.6427 53.2874,-28.355 57.4047,-22.6938"/>
</g>
<!-- Node5&#45;&gt;Node6 -->
<g id="edge7" class="edge">
<title>Node5&#45;&gt;Node6</title>
<path fill="none" stroke="#191970" d="M142.6307,-56.3733C174.2908,-46.7376 223.0281,-31.9045 256.822,-21.6194"/>
<polygon fill="#191970" stroke="#191970" points="258.2468,-24.8443 266.7945,-18.5843 256.2087,-18.1476 258.2468,-24.8443"/>
</g>
<!-- Node7 -->
<g id="node8" class="node">
<title>Node7</title>
<g id="a_node8"><a xlink:title=" ">
<polygon fill="#ffffff" stroke="#bfbfbf" points="86,-.5 86,-19.5 138,-19.5 138,-.5 86,-.5"/>
<text text-anchor="middle" x="112" y="-7.5" font-family="Helvetica,sans-Serif" font-size="10.00" fill="#000000">stddef.h</text>
</a>
</g>
</g>
<!-- Node5&#45;&gt;Node7 -->
<g id="edge8" class="edge">
<title>Node5&#45;&gt;Node7</title>
<path fill="none" stroke="#191970" d="M111.1742,-56.2455C111.3047,-48.9382 111.4876,-38.6944 111.6481,-29.7046"/>
<polygon fill="#191970" stroke="#191970" points="115.1486,-29.7036 111.8278,-19.6427 108.1497,-29.5786 115.1486,-29.7036"/>
</g>
<!-- Node5&#45;&gt;Node8 -->
<g id="edge9" class="edge">
<title>Node5&#45;&gt;Node8</title>
<path fill="none" stroke="#191970" d="M123.5414,-56.2455C134.2787,-47.8943 149.9473,-35.7076 162.5047,-25.9408"/>
<polygon fill="#191970" stroke="#191970" points="164.8575,-28.5449 170.6023,-19.6427 160.5599,-23.0194 164.8575,-28.5449"/>
</g>
<!-- Node10&#45;&gt;Node3 -->
<g id="edge14" class="edge">
<title>Node10&#45;&gt;Node3</title>
<path fill="none" stroke="#191970" d="M180.6967,-224.2455C181.2187,-216.9382 181.9504,-206.6944 182.5925,-197.7046"/>
<polygon fill="#191970" stroke="#191970" points="186.0898,-197.8667 183.3112,-187.6427 179.1076,-197.3679 186.0898,-197.8667"/>
</g>
<!-- Node11&#45;&gt;Node3 -->
<g id="edge17" class="edge">
<title>Node11&#45;&gt;Node3</title>
<path fill="none" stroke="#191970" d="M263.2781,-224.2455C248.4111,-215.5731 226.4534,-202.7645 209.4142,-192.825"/>
<polygon fill="#191970" stroke="#191970" points="210.9317,-189.6582 200.5303,-187.6427 207.4045,-195.7047 210.9317,-189.6582"/>
</g>
</g>
</svg>
