<?xml version="1.0" encoding="UTF-8" standalone="no"?>
<!DOCTYPE svg PUBLIC "-//W3C//DTD SVG 1.1//EN"
 "http://www.w3.org/Graphics/SVG/1.1/DTD/svg11.dtd">
<!-- Generated by graphviz version 2.40.1 (20161225.0304)
 -->
<!-- Title: main/builtins/include/builtins.h Pages: 1 -->
<!--zoomable 318 -->
<svg id="main" version="1.1" xmlns="http://www.w3.org/2000/svg" xmlns:xlink="http://www.w3.org/1999/xlink" xml:space="preserve" onload="init(evt)">
<style type="text/css"><![CDATA[
.edge:hover path { stroke: red; }
.edge:hover polygon { stroke: red; fill: red; }
]]></style>
<script type="text/javascript"><![CDATA[
var edges = document.getElementsByTagName('g');
if (edges && edges.length) {
  for (var i=0;i<edges.length;i++) {
    if (edges[i].id.substr(0,4)=='edge') {
      edges[i].setAttribute('class','edge');
    }
  }
}
]]></script>
        <defs>
                <circle id="rim" cx="0" cy="0" r="7"/>
                <circle id="rim2" cx="0" cy="0" r="3.5"/>
                <g id="zoomPlus">
                        <use xlink:href="#rim" fill="#404040">
                                <set attributeName="fill" to="#808080" begin="zoomplus.mouseover" end="zoomplus.mouseout"/>
                        </use>
                        <path d="M-4,0h8M0,-4v8" fill="none" stroke="white" stroke-width="1.5" pointer-events="none"/>
                </g>
                <g id="zoomMin">
                        <use xlink:href="#rim" fill="#404040">
                                <set attributeName="fill" to="#808080" begin="zoomminus.mouseover" end="zoomminus.mouseout"/>
                        </use>
                        <path d="M-4,0h8" fill="none" stroke="white" stroke-width="1.5" pointer-events="none"/>
                </g>
                <g id="dirArrow">
                        <path fill="none" stroke="white" stroke-width="1.5" d="M0,-3.0v7 M-2.5,-0.5L0,-3.0L2.5,-0.5"/>
                </g>
               <g id="resetDef">
                       <use xlink:href="#rim2" fill="#404040">
                               <set attributeName="fill" to="#808080" begin="reset.mouseover" end="reset.mouseout"/>
                       </use>
               </g>
        </defs>

<script type="text/javascript">
var viewWidth = 2894;
var viewHeight = 318;
var sectionId = 'dynsection-1';
</script>
<script xlink:href="svgpan.js"/>
<svg id="graph" class="graph">
<g id="viewport">
<title>main/builtins/include/builtins.h</title>
<polygon fill="#ffffff" stroke="transparent" points="-4,4 -4,-314 2889.5,-314 2889.5,4 -4,4"/>
<!-- Node16 -->
<g id="node1" class="node">
<title>Node16</title>
<g id="a_node1"><a xlink:title=" ">
<polygon fill="#bfbfbf" stroke="#000000" points="1641.5,-279.5 1641.5,-309.5 1760.5,-309.5 1760.5,-279.5 1641.5,-279.5"/>
<text text-anchor="start" x="1649.5" y="-297.5" font-family="Helvetica,sans-Serif" font-size="10.00" fill="#000000">main/builtins/include</text>
<text text-anchor="middle" x="1701" y="-286.5" font-family="Helvetica,sans-Serif" font-size="10.00" fill="#000000">/builtins.h</text>
</a>
</g>
</g>
<!-- Node17 -->
<g id="node2" class="node">
<title>Node17</title>
<g id="a_node2"><a xlink:href="buitlins_8c.html" target="_top" xlink:title=" ">
<polygon fill="#ffffff" stroke="#000000" points="0,-212.5 0,-231.5 128,-231.5 128,-212.5 0,-212.5"/>
<text text-anchor="middle" x="64" y="-219.5" font-family="Helvetica,sans-Serif" font-size="10.00" fill="#000000">main/builtins/buitlins.c</text>
</a>
</g>
</g>
<!-- Node16&#45;&gt;Node17 -->
<g id="edge1" class="edge">
<title>Node16&#45;&gt;Node17</title>
<path fill="none" stroke="#191970" d="M1631.111,-293.2157C1346.8473,-287.8534 285.5268,-266.4379 137,-243 121.4986,-240.5538 104.6348,-235.8442 91.0248,-231.5039"/>
<polygon fill="#191970" stroke="#191970" points="1631.2264,-296.7184 1641.2905,-293.4071 1631.3581,-289.7197 1631.2264,-296.7184"/>
</g>
<!-- Node18 -->
<g id="node3" class="node">
<title>Node18</title>
<g id="a_node3"><a xlink:href="helios__hashmap_8c.html" target="_top" xlink:title=" ">
<polygon fill="#ffffff" stroke="#000000" points="146,-207 146,-237 274,-237 274,-207 146,-207"/>
<text text-anchor="start" x="154" y="-225" font-family="Helvetica,sans-Serif" font-size="10.00" fill="#000000">main/builtins/hashmap</text>
<text text-anchor="middle" x="210" y="-214" font-family="Helvetica,sans-Serif" font-size="10.00" fill="#000000">/helios_hashmap.c</text>
</a>
</g>
</g>
<!-- Node16&#45;&gt;Node18 -->
<g id="edge2" class="edge">
<title>Node16&#45;&gt;Node18</title>
<path fill="none" stroke="#191970" d="M1631.1251,-294.2128C1383.2939,-292.8433 547.1037,-285.1347 283,-243 274.1444,-241.5872 264.8427,-239.4433 255.9568,-237.0563"/>
<polygon fill="#191970" stroke="#191970" points="1631.4181,-297.7144 1641.4367,-294.268 1631.4556,-290.7145 1631.4181,-297.7144"/>
</g>
<!-- Node19 -->
<g id="node4" class="node">
<title>Node19</title>
<g id="a_node4"><a xlink:href="serialize_8c.html" target="_top" xlink:title=" ">
<polygon fill="#ffffff" stroke="#000000" points="292.5,-207 292.5,-237 435.5,-237 435.5,-207 292.5,-207"/>
<text text-anchor="start" x="300.5" y="-225" font-family="Helvetica,sans-Serif" font-size="10.00" fill="#000000">main/builtins/serialization</text>
<text text-anchor="middle" x="364" y="-214" font-family="Helvetica,sans-Serif" font-size="10.00" fill="#000000">/serialize.c</text>
</a>
</g>
</g>
<!-- Node16&#45;&gt;Node19 -->
<g id="edge3" class="edge">
<title>Node16&#45;&gt;Node19</title>
<path fill="none" stroke="#191970" d="M1631.0842,-293.4468C1402.8105,-289.7216 680.7899,-275.599 450,-243 439.8038,-241.5598 429.054,-239.435 418.7387,-237.0826"/>
<polygon fill="#191970" stroke="#191970" points="1631.2007,-296.9491 1641.256,-293.6113 1631.3139,-289.95 1631.2007,-296.9491"/>
</g>
<!-- Node20 -->
<g id="node5" class="node">
<title>Node20</title>
<g id="a_node5"><a xlink:href="main_8c.html" target="_top" xlink:title=" ">
<polygon fill="#ffffff" stroke="#000000" points="378,-6 378,-25 484,-25 484,-6 378,-6"/>
<text text-anchor="middle" x="431" y="-13" font-family="Helvetica,sans-Serif" font-size="10.00" fill="#000000">main/entry/main.c</text>
</a>
</g>
</g>
<!-- Node16&#45;&gt;Node20 -->
<g id="edge4" class="edge">
<title>Node16&#45;&gt;Node20</title>
<path fill="none" stroke="#191970" d="M1631.0943,-288.6489C1435.3993,-271.7462 885.1697,-220.5024 713,-165 602.7733,-129.4662 484.5677,-52.3078 444.8795,-25.174"/>
<polygon fill="#191970" stroke="#191970" points="1630.9908,-292.1528 1641.2541,-289.523 1631.5909,-285.1786 1630.9908,-292.1528"/>
</g>
<!-- Node21 -->
<g id="node6" class="node">
<title>Node21</title>
<g id="a_node6"><a xlink:href="executestack_8c.html" target="_top" xlink:title=" ">
<polygon fill="#ffffff" stroke="#000000" points="1679.5,-140 1679.5,-159 1822.5,-159 1822.5,-140 1679.5,-140"/>
<text text-anchor="middle" x="1751" y="-147" font-family="Helvetica,sans-Serif" font-size="10.00" fill="#000000">main/hvm/executestack.c</text>
</a>
</g>
</g>
<!-- Node16&#45;&gt;Node21 -->
<g id="edge5" class="edge">
<title>Node16&#45;&gt;Node21</title>
<path fill="none" stroke="#191970" d="M1678.1024,-271.7287C1671.2336,-263.4001 1664.5787,-253.4418 1661,-243 1654.9479,-225.3417 1651.6355,-217.1478 1661,-201 1673.1921,-179.9764 1697.5535,-166.8044 1717.859,-159.0495"/>
<polygon fill="#191970" stroke="#191970" points="1675.695,-274.2902 1684.9365,-279.4715 1680.9431,-269.658 1675.695,-274.2902"/>
</g>
<!-- Node22 -->
<g id="node7" class="node">
<title>Node22</title>
<g id="a_node7"><a xlink:href="hvm_8c.html" target="_top" xlink:title=" ">
<polygon fill="#ffffff" stroke="#000000" points="1840.5,-140 1840.5,-159 1939.5,-159 1939.5,-140 1840.5,-140"/>
<text text-anchor="middle" x="1890" y="-147" font-family="Helvetica,sans-Serif" font-size="10.00" fill="#000000">main/hvm/hvm.c</text>
</a>
</g>
</g>
<!-- Node16&#45;&gt;Node22 -->
<g id="edge6" class="edge">
<title>Node16&#45;&gt;Node22</title>
<path fill="none" stroke="#191970" d="M1770.3103,-278.9248C1807.2539,-269.3471 1847.7646,-256.3772 1861,-243 1884.1897,-219.562 1888.8866,-177.952 1889.8015,-159.172"/>
<polygon fill="#191970" stroke="#191970" points="1769.3467,-275.5583 1760.5138,-281.409 1771.0673,-282.3435 1769.3467,-275.5583"/>
</g>
<!-- Node23 -->
<g id="node8" class="node">
<title>Node23</title>
<g id="a_node8"><a xlink:href="executestack_8h.html" target="_top" xlink:title=" ">
<polygon fill="#ffffff" stroke="#000000" points="1670,-212.5 1670,-231.5 1852,-231.5 1852,-212.5 1670,-212.5"/>
<text text-anchor="middle" x="1761" y="-219.5" font-family="Helvetica,sans-Serif" font-size="10.00" fill="#000000">main/hvm/include/executestack.h</text>
</a>
</g>
</g>
<!-- Node16&#45;&gt;Node23 -->
<g id="edge7" class="edge">
<title>Node16&#45;&gt;Node23</title>
<path fill="none" stroke="#191970" d="M1719.952,-271.5997C1731.0115,-258.2361 1744.3995,-242.0589 1752.8105,-231.8957"/>
<polygon fill="#191970" stroke="#191970" points="1717.1114,-269.5425 1713.432,-279.478 1722.5041,-274.0055 1717.1114,-269.5425"/>
</g>
<!-- Node24 -->
<g id="node9" class="node">
<title>Node24</title>
<g id="a_node9"><a xlink:href="hvm_8h.html" target="_top" xlink:title=" ">
<polygon fill="#ffffff" stroke="#000000" points="336,-73 336,-92 474,-92 474,-73 336,-73"/>
<text text-anchor="middle" x="405" y="-80" font-family="Helvetica,sans-Serif" font-size="10.00" fill="#000000">main/hvm/include/hvm.h</text>
</a>
</g>
</g>
<!-- Node16&#45;&gt;Node24 -->
<g id="edge10" class="edge">
<title>Node16&#45;&gt;Node24</title>
<path fill="none" stroke="#191970" d="M1631.0297,-293.4604C1379.9136,-289.4799 536.3596,-273.8596 488,-243 432.2021,-207.3939 411.9986,-121.4487 406.6199,-92.3338"/>
<polygon fill="#191970" stroke="#191970" points="1631.0731,-296.9614 1641.127,-293.6192 1631.1833,-289.9623 1631.0731,-296.9614"/>
</g>
<!-- Node25 -->
<g id="node10" class="node">
<title>Node25</title>
<g id="a_node10"><a xlink:href="token_8h.html" target="_top" xlink:title=" ">
<polygon fill="#ffffff" stroke="#000000" points="1291.5,-207 1291.5,-237 1404.5,-237 1404.5,-207 1291.5,-207"/>
<text text-anchor="start" x="1299.5" y="-225" font-family="Helvetica,sans-Serif" font-size="10.00" fill="#000000">main/parser/include</text>
<text text-anchor="middle" x="1348" y="-214" font-family="Helvetica,sans-Serif" font-size="10.00" fill="#000000">/token.h</text>
</a>
</g>
</g>
<!-- Node16&#45;&gt;Node25 -->
<g id="edge12" class="edge">
<title>Node16&#45;&gt;Node25</title>
<path fill="none" stroke="#191970" d="M1631.1637,-280.1569C1564.8124,-266.5295 1466.2812,-246.2929 1404.6666,-233.6383"/>
<polygon fill="#191970" stroke="#191970" points="1630.6187,-283.6179 1641.1184,-282.2014 1632.027,-276.761 1630.6187,-283.6179"/>
</g>
<!-- Node38 -->
<g id="node23" class="node">
<title>Node38</title>
<g id="a_node23"><a xlink:href="parserutil__test_8c.html" target="_top" xlink:title=" ">
<polygon fill="#ffffff" stroke="#000000" points="1693.5,-.5 1693.5,-30.5 1812.5,-30.5 1812.5,-.5 1693.5,-.5"/>
<text text-anchor="start" x="1701.5" y="-18.5" font-family="Helvetica,sans-Serif" font-size="10.00" fill="#000000">test/parser/parserutil</text>
<text text-anchor="middle" x="1753" y="-7.5" font-family="Helvetica,sans-Serif" font-size="10.00" fill="#000000">_test.c</text>
</a>
</g>
</g>
<!-- Node16&#45;&gt;Node38 -->
<g id="edge52" class="edge">
<title>Node16&#45;&gt;Node38</title>
<path fill="none" stroke="#191970" d="M1672.7783,-272.3071C1664.4656,-264.0915 1656.4189,-254.0551 1652,-243 1645.0716,-225.6668 1649.5574,-219.5062 1652,-201 1656.0347,-170.4314 1656.9579,-161.9396 1670,-134 1688.9111,-93.4875 1721.6511,-52.0227 1739.8464,-30.5161"/>
<polygon fill="#191970" stroke="#191970" points="1670.6638,-275.1178 1680.3909,-279.3171 1675.4056,-269.9684 1670.6638,-275.1178"/>
</g>
<!-- Node39 -->
<g id="node24" class="node">
<title>Node39</title>
<g id="a_node24"><a xlink:href="token_8c.html" target="_top" xlink:title=" ">
<polygon fill="#ffffff" stroke="#000000" points="1509,-140 1509,-159 1623,-159 1623,-140 1509,-140"/>
<text text-anchor="middle" x="1566" y="-147" font-family="Helvetica,sans-Serif" font-size="10.00" fill="#000000">main/parser/token.c</text>
</a>
</g>
</g>
<!-- Node16&#45;&gt;Node39 -->
<g id="edge44" class="edge">
<title>Node16&#45;&gt;Node39</title>
<path fill="none" stroke="#191970" d="M1635.3882,-275.4652C1618.55,-267.7877 1601.8637,-257.2628 1590,-243 1569.3162,-218.1333 1566.1787,-177.6179 1565.8871,-159.1827"/>
<polygon fill="#191970" stroke="#191970" points="1634.157,-278.7449 1644.7288,-279.4431 1636.8998,-272.3046 1634.157,-278.7449"/>
</g>
<!-- Node40 -->
<g id="node25" class="node">
<title>Node40</title>
<g id="a_node25"><a xlink:href="builtins__test_8c.html" target="_top" xlink:title=" ">
<polygon fill="#ffffff" stroke="#000000" points="1908.5,-207 1908.5,-237 2021.5,-237 2021.5,-207 1908.5,-207"/>
<text text-anchor="start" x="1916.5" y="-225" font-family="Helvetica,sans-Serif" font-size="10.00" fill="#000000">test/builtins/builtins</text>
<text text-anchor="middle" x="1965" y="-214" font-family="Helvetica,sans-Serif" font-size="10.00" fill="#000000">_test.c</text>
</a>
</g>
</g>
<!-- Node16&#45;&gt;Node40 -->
<g id="edge45" class="edge">
<title>Node16&#45;&gt;Node40</title>
<path fill="none" stroke="#191970" d="M1768.6596,-276.9203C1805.7395,-267.1668 1852.4753,-254.6789 1894,-243 1900.682,-241.1207 1907.7042,-239.0998 1914.6257,-237.0807"/>
<polygon fill="#191970" stroke="#191970" points="1767.7441,-273.542 1758.961,-279.4671 1769.522,-280.3125 1767.7441,-273.542"/>
</g>
<!-- Node41 -->
<g id="node26" class="node">
<title>Node41</title>
<g id="a_node26"><a xlink:href="helios__float__math__test_8c.html" target="_top" xlink:title=" ">
<polygon fill="#ffffff" stroke="#000000" points="2039.5,-207 2039.5,-237 2178.5,-237 2178.5,-207 2039.5,-207"/>
<text text-anchor="start" x="2047.5" y="-225" font-family="Helvetica,sans-Serif" font-size="10.00" fill="#000000">test/builtins/float</text>
<text text-anchor="middle" x="2109" y="-214" font-family="Helvetica,sans-Serif" font-size="10.00" fill="#000000">/helios_float_math_test.c</text>
</a>
</g>
</g>
<!-- Node16&#45;&gt;Node41 -->
<g id="edge46" class="edge">
<title>Node16&#45;&gt;Node41</title>
<path fill="none" stroke="#191970" d="M1770.6972,-285.8524C1837.7622,-277.0071 1941.8398,-261.9016 2031,-243 2039.2314,-241.255 2047.889,-239.1744 2056.3208,-237.0113"/>
<polygon fill="#191970" stroke="#191970" points="1770.1298,-282.3967 1760.6686,-287.1648 1771.0382,-289.3375 1770.1298,-282.3967"/>
</g>
<!-- Node42 -->
<g id="node27" class="node">
<title>Node42</title>
<g id="a_node27"><a xlink:href="helios__float__test_8c.html" target="_top" xlink:title=" ">
<polygon fill="#ffffff" stroke="#000000" points="2197,-207 2197,-237 2305,-237 2305,-207 2197,-207"/>
<text text-anchor="start" x="2205" y="-225" font-family="Helvetica,sans-Serif" font-size="10.00" fill="#000000">test/builtins/float</text>
<text text-anchor="middle" x="2251" y="-214" font-family="Helvetica,sans-Serif" font-size="10.00" fill="#000000">/helios_float_test.c</text>
</a>
</g>
</g>
<!-- Node16&#45;&gt;Node42 -->
<g id="edge47" class="edge">
<title>Node16&#45;&gt;Node42</title>
<path fill="none" stroke="#191970" d="M1770.5815,-291.8722C1865.7707,-287.2083 2041.4937,-274.7715 2188,-243 2195.211,-241.4362 2202.754,-239.3418 2210.0124,-237.0799"/>
<polygon fill="#191970" stroke="#191970" points="1770.3247,-288.3804 1760.5023,-292.3516 1770.6574,-295.3725 1770.3247,-288.3804"/>
</g>
<!-- Node43 -->
<g id="node28" class="node">
<title>Node43</title>
<g id="a_node28"><a xlink:href="helios__hashmap__test_8c.html" target="_top" xlink:title=" ">
<polygon fill="#ffffff" stroke="#000000" points="2323.5,-207 2323.5,-237 2454.5,-237 2454.5,-207 2323.5,-207"/>
<text text-anchor="start" x="2331.5" y="-225" font-family="Helvetica,sans-Serif" font-size="10.00" fill="#000000">test/builtins/hashmap</text>
<text text-anchor="middle" x="2389" y="-214" font-family="Helvetica,sans-Serif" font-size="10.00" fill="#000000">/helios_hashmap_test.c</text>
</a>
</g>
</g>
<!-- Node16&#45;&gt;Node43 -->
<g id="edge48" class="edge">
<title>Node16&#45;&gt;Node43</title>
<path fill="none" stroke="#191970" d="M1770.6821,-292.9277C1884.9968,-289.3934 2119.134,-278.1402 2314,-243 2322.6495,-241.4402 2331.7419,-239.3187 2340.4945,-237.0212"/>
<polygon fill="#191970" stroke="#191970" points="1770.5545,-289.4298 1760.6635,-293.227 1770.7636,-296.4267 1770.5545,-289.4298"/>
</g>
<!-- Node44 -->
<g id="node29" class="node">
<title>Node44</title>
<g id="a_node29"><a xlink:href="helios__integer__compare__test_8c.html" target="_top" xlink:title=" ">
<polygon fill="#ffffff" stroke="#000000" points="2472.5,-201.5 2472.5,-242.5 2609.5,-242.5 2609.5,-201.5 2472.5,-201.5"/>
<text text-anchor="start" x="2480.5" y="-230.5" font-family="Helvetica,sans-Serif" font-size="10.00" fill="#000000">test/builtins/integer</text>
<text text-anchor="start" x="2480.5" y="-219.5" font-family="Helvetica,sans-Serif" font-size="10.00" fill="#000000">/helios_integer_compare</text>
<text text-anchor="middle" x="2541" y="-208.5" font-family="Helvetica,sans-Serif" font-size="10.00" fill="#000000">_test.c</text>
</a>
</g>
</g>
<!-- Node16&#45;&gt;Node44 -->
<g id="edge49" class="edge">
<title>Node16&#45;&gt;Node44</title>
<path fill="none" stroke="#191970" d="M1771.0167,-291.5583C1933.3877,-284.4474 2331.8058,-265.26 2464,-243 2466.7328,-242.5398 2469.5085,-242.0234 2472.3039,-241.4623"/>
<polygon fill="#191970" stroke="#191970" points="1770.5065,-288.0771 1760.6683,-292.0091 1770.8112,-295.0705 1770.5065,-288.0771"/>
</g>
<!-- Node45 -->
<g id="node30" class="node">
<title>Node45</title>
<g id="a_node30"><a xlink:href="helios__integer__math__test_8c.html" target="_top" xlink:title=" ">
<polygon fill="#ffffff" stroke="#000000" points="2627.5,-201.5 2627.5,-242.5 2746.5,-242.5 2746.5,-201.5 2627.5,-201.5"/>
<text text-anchor="start" x="2635.5" y="-230.5" font-family="Helvetica,sans-Serif" font-size="10.00" fill="#000000">test/builtins/integer</text>
<text text-anchor="start" x="2635.5" y="-219.5" font-family="Helvetica,sans-Serif" font-size="10.00" fill="#000000">/helios_integer_math</text>
<text text-anchor="middle" x="2687" y="-208.5" font-family="Helvetica,sans-Serif" font-size="10.00" fill="#000000">_test.c</text>
</a>
</g>
</g>
<!-- Node16&#45;&gt;Node45 -->
<g id="edge50" class="edge">
<title>Node16&#45;&gt;Node45</title>
<path fill="none" stroke="#191970" d="M1770.9215,-292.7793C1956.1308,-287.8698 2456.3249,-272.2301 2619,-243 2621.797,-242.4974 2624.6403,-241.9156 2627.4991,-241.2729"/>
<polygon fill="#191970" stroke="#191970" points="1770.6638,-289.2848 1760.7592,-293.0463 1770.8477,-296.2824 1770.6638,-289.2848"/>
</g>
<!-- Node46 -->
<g id="node31" class="node">
<title>Node46</title>
<g id="a_node31"><a xlink:href="helios__integer__test_8c.html" target="_top" xlink:title=" ">
<polygon fill="#ffffff" stroke="#000000" points="2764.5,-207 2764.5,-237 2885.5,-237 2885.5,-207 2764.5,-207"/>
<text text-anchor="start" x="2772.5" y="-225" font-family="Helvetica,sans-Serif" font-size="10.00" fill="#000000">test/builtins/integer</text>
<text text-anchor="middle" x="2825" y="-214" font-family="Helvetica,sans-Serif" font-size="10.00" fill="#000000">/helios_integer_test.c</text>
</a>
</g>
</g>
<!-- Node16&#45;&gt;Node46 -->
<g id="edge51" class="edge">
<title>Node16&#45;&gt;Node46</title>
<path fill="none" stroke="#191970" d="M1770.8564,-293.3349C1974.6021,-289.5813 2565.7664,-276.068 2756,-243 2764.2656,-241.5632 2772.9309,-239.4401 2781.2206,-237.0882"/>
<polygon fill="#191970" stroke="#191970" points="1770.519,-289.8404 1760.5844,-293.5219 1770.6465,-296.8393 1770.519,-289.8404"/>
</g>
<!-- Node23&#45;&gt;Node21 -->
<g id="edge8" class="edge">
<title>Node23&#45;&gt;Node21</title>
<path fill="none" stroke="#191970" d="M1758.2559,-202.1054C1756.3274,-188.1237 1753.8324,-170.0346 1752.3273,-159.1228"/>
<polygon fill="#191970" stroke="#191970" points="1754.8177,-202.7944 1759.6514,-212.2223 1761.7521,-201.8379 1754.8177,-202.7944"/>
</g>
<!-- Node23&#45;&gt;Node22 -->
<g id="edge9" class="edge">
<title>Node23&#45;&gt;Node22</title>
<path fill="none" stroke="#191970" d="M1786.9118,-207.4371C1812.4629,-193.0771 1850.7895,-171.5369 1872.7989,-159.1673"/>
<polygon fill="#191970" stroke="#191970" points="1785.133,-204.422 1778.1302,-212.3726 1788.5626,-210.5243 1785.133,-204.422"/>
</g>
<!-- Node24&#45;&gt;Node20 -->
<g id="edge11" class="edge">
<title>Node24&#45;&gt;Node20</title>
<path fill="none" stroke="#191970" d="M412.4264,-63.3628C417.2843,-50.8444 423.4231,-35.0252 427.2817,-25.0817"/>
<polygon fill="#191970" stroke="#191970" points="409.08,-62.3116 408.7252,-72.9005 415.6059,-64.8441 409.08,-62.3116"/>
</g>
<!-- Node26 -->
<g id="node11" class="node">
<title>Node26</title>
<g id="a_node11"><a xlink:href="AST_8c.html" target="_top" xlink:title=" ">
<polygon fill="#ffffff" stroke="#000000" points="502,-6 502,-25 606,-25 606,-6 502,-6"/>
<text text-anchor="middle" x="554" y="-13" font-family="Helvetica,sans-Serif" font-size="10.00" fill="#000000">main/parser/AST.c</text>
</a>
</g>
</g>
<!-- Node25&#45;&gt;Node26 -->
<g id="edge13" class="edge">
<title>Node25&#45;&gt;Node26</title>
<path fill="none" stroke="#191970" d="M1280.9704,-219.3345C1151.0872,-213.508 869.9122,-197.4818 779,-165 686.2537,-131.8629 594.264,-52.4909 564.1997,-25.0365"/>
<polygon fill="#191970" stroke="#191970" points="1281.0383,-222.8408 1291.183,-219.7856 1281.3472,-215.8476 1281.0383,-222.8408"/>
</g>
<!-- Node27 -->
<g id="node12" class="node">
<title>Node27</title>
<g id="a_node12"><a xlink:href="AST_8h.html" target="_top" xlink:title=" ">
<polygon fill="#ffffff" stroke="#000000" points="1007.5,-134.5 1007.5,-164.5 1120.5,-164.5 1120.5,-134.5 1007.5,-134.5"/>
<text text-anchor="start" x="1015.5" y="-152.5" font-family="Helvetica,sans-Serif" font-size="10.00" fill="#000000">main/parser/include</text>
<text text-anchor="middle" x="1064" y="-141.5" font-family="Helvetica,sans-Serif" font-size="10.00" fill="#000000">/AST.h</text>
</a>
</g>
</g>
<!-- Node25&#45;&gt;Node27 -->
<g id="edge14" class="edge">
<title>Node25&#45;&gt;Node27</title>
<path fill="none" stroke="#191970" d="M1281.3715,-204.991C1232.5547,-192.5289 1167.0037,-175.795 1120.6906,-163.9721"/>
<polygon fill="#191970" stroke="#191970" points="1280.6559,-208.4205 1291.2109,-207.5028 1282.3874,-201.638 1280.6559,-208.4205"/>
</g>
<!-- Node31 -->
<g id="node16" class="node">
<title>Node31</title>
<g id="a_node16"><a xlink:href="compound_8c.html" target="_top" xlink:title=" ">
<polygon fill="#ffffff" stroke="#000000" points="624.5,-.5 624.5,-30.5 759.5,-30.5 759.5,-.5 624.5,-.5"/>
<text text-anchor="start" x="632.5" y="-18.5" font-family="Helvetica,sans-Serif" font-size="10.00" fill="#000000">main/parser/parserfuncs</text>
<text text-anchor="middle" x="692" y="-7.5" font-family="Helvetica,sans-Serif" font-size="10.00" fill="#000000">/compound.c</text>
</a>
</g>
</g>
<!-- Node25&#45;&gt;Node31 -->
<g id="edge37" class="edge">
<title>Node25&#45;&gt;Node31</title>
<path fill="none" stroke="#191970" d="M1281.2677,-220.7278C1158.2682,-217.4143 901.2196,-205.6924 823,-165 762.6895,-133.6246 717.6253,-62.0072 700.0569,-30.6626"/>
<polygon fill="#191970" stroke="#191970" points="1281.2291,-224.2278 1291.3163,-220.9877 1281.4102,-217.2302 1281.2291,-224.2278"/>
</g>
<!-- Node32 -->
<g id="node17" class="node">
<title>Node32</title>
<g id="a_node17"><a xlink:href="expressions_8c.html" target="_top" xlink:title=" ">
<polygon fill="#ffffff" stroke="#000000" points="777.5,-.5 777.5,-30.5 912.5,-30.5 912.5,-.5 777.5,-.5"/>
<text text-anchor="start" x="785.5" y="-18.5" font-family="Helvetica,sans-Serif" font-size="10.00" fill="#000000">main/parser/parserfuncs</text>
<text text-anchor="middle" x="845" y="-7.5" font-family="Helvetica,sans-Serif" font-size="10.00" fill="#000000">/expressions.c</text>
</a>
</g>
</g>
<!-- Node25&#45;&gt;Node32 -->
<g id="edge38" class="edge">
<title>Node25&#45;&gt;Node32</title>
<path fill="none" stroke="#191970" d="M1281.2426,-218.0952C1143.881,-208.4725 837.4734,-178.2826 778,-98 760.0973,-73.8333 792.1551,-46.995 817.8098,-30.6846"/>
<polygon fill="#191970" stroke="#191970" points="1281.0151,-221.5878 1291.2309,-218.7795 1281.4936,-214.6041 1281.0151,-221.5878"/>
</g>
<!-- Node33 -->
<g id="node18" class="node">
<title>Node33</title>
<g id="a_node18"><a xlink:href="floats_8c.html" target="_top" xlink:title=" ">
<polygon fill="#ffffff" stroke="#000000" points="1081.5,-.5 1081.5,-30.5 1216.5,-30.5 1216.5,-.5 1081.5,-.5"/>
<text text-anchor="start" x="1089.5" y="-18.5" font-family="Helvetica,sans-Serif" font-size="10.00" fill="#000000">main/parser/parserfuncs</text>
<text text-anchor="middle" x="1149" y="-7.5" font-family="Helvetica,sans-Serif" font-size="10.00" fill="#000000">/floats.c</text>
</a>
</g>
</g>
<!-- Node25&#45;&gt;Node33 -->
<g id="edge39" class="edge">
<title>Node25&#45;&gt;Node33</title>
<path fill="none" stroke="#191970" d="M1333.8667,-198.1193C1313.8779,-165.7148 1274.8617,-107.251 1231,-67 1215.2698,-52.5647 1194.9659,-39.7773 1178.4977,-30.5554"/>
<polygon fill="#191970" stroke="#191970" points="1331.0281,-200.1876 1339.2162,-206.9111 1337.0081,-196.5489 1331.0281,-200.1876"/>
</g>
<!-- Node34 -->
<g id="node19" class="node">
<title>Node34</title>
<g id="a_node19"><a xlink:href="integers_8c.html" target="_top" xlink:title=" ">
<polygon fill="#ffffff" stroke="#000000" points="1540.5,-.5 1540.5,-30.5 1675.5,-30.5 1675.5,-.5 1540.5,-.5"/>
<text text-anchor="start" x="1548.5" y="-18.5" font-family="Helvetica,sans-Serif" font-size="10.00" fill="#000000">main/parser/parserfuncs</text>
<text text-anchor="middle" x="1608" y="-7.5" font-family="Helvetica,sans-Serif" font-size="10.00" fill="#000000">/integers.c</text>
</a>
</g>
</g>
<!-- Node25&#45;&gt;Node34 -->
<g id="edge40" class="edge">
<title>Node25&#45;&gt;Node34</title>
<path fill="none" stroke="#191970" d="M1375.0224,-200.538C1427.751,-158.6593 1543.1847,-66.9783 1588.8536,-30.7067"/>
<polygon fill="#191970" stroke="#191970" points="1372.7723,-197.8554 1367.1184,-206.8156 1377.1259,-203.3369 1372.7723,-197.8554"/>
</g>
<!-- Node35 -->
<g id="node20" class="node">
<title>Node35</title>
<g id="a_node20"><a xlink:href="parser_8c.html" target="_top" xlink:title=" ">
<polygon fill="#ffffff" stroke="#000000" points="1234.5,-.5 1234.5,-30.5 1369.5,-30.5 1369.5,-.5 1234.5,-.5"/>
<text text-anchor="start" x="1242.5" y="-18.5" font-family="Helvetica,sans-Serif" font-size="10.00" fill="#000000">main/parser/parserfuncs</text>
<text text-anchor="middle" x="1302" y="-7.5" font-family="Helvetica,sans-Serif" font-size="10.00" fill="#000000">/parser.c</text>
</a>
</g>
</g>
<!-- Node25&#45;&gt;Node35 -->
<g id="edge41" class="edge">
<title>Node25&#45;&gt;Node35</title>
<path fill="none" stroke="#191970" d="M1346.011,-196.4035C1343.1472,-165.3233 1336.7419,-111.5345 1324,-67 1320.4162,-54.4743 1314.5565,-40.9511 1309.7854,-30.9066"/>
<polygon fill="#191970" stroke="#191970" points="1342.5589,-197.1079 1346.911,-206.7675 1349.5326,-196.5022 1342.5589,-197.1079"/>
</g>
<!-- Node36 -->
<g id="node21" class="node">
<title>Node36</title>
<g id="a_node21"><a xlink:href="strings_8c.html" target="_top" xlink:title=" ">
<polygon fill="#ffffff" stroke="#000000" points="1387.5,-.5 1387.5,-30.5 1522.5,-30.5 1522.5,-.5 1387.5,-.5"/>
<text text-anchor="start" x="1395.5" y="-18.5" font-family="Helvetica,sans-Serif" font-size="10.00" fill="#000000">main/parser/parserfuncs</text>
<text text-anchor="middle" x="1455" y="-7.5" font-family="Helvetica,sans-Serif" font-size="10.00" fill="#000000">/strings.c</text>
</a>
</g>
</g>
<!-- Node25&#45;&gt;Node36 -->
<g id="edge42" class="edge">
<title>Node25&#45;&gt;Node36</title>
<path fill="none" stroke="#191970" d="M1360.4925,-197.8906C1382.7634,-154.9099 1428.7127,-66.232 1447.1205,-30.7067"/>
<polygon fill="#191970" stroke="#191970" points="1357.3611,-196.3265 1355.868,-206.8156 1363.5763,-199.547 1357.3611,-196.3265"/>
</g>
<!-- Node25&#45;&gt;Node39 -->
<g id="edge43" class="edge">
<title>Node25&#45;&gt;Node39</title>
<path fill="none" stroke="#191970" d="M1402.8584,-203.7558C1445.5535,-189.5568 1503.1036,-170.4174 1537.2042,-159.0766"/>
<polygon fill="#191970" stroke="#191970" points="1401.5542,-200.501 1393.1697,-206.978 1403.7633,-207.1433 1401.5542,-200.501"/>
</g>
<!-- Node27&#45;&gt;Node20 -->
<g id="edge17" class="edge">
<title>Node27&#45;&gt;Node20</title>
<path fill="none" stroke="#191970" d="M997.0511,-145.815C915.1674,-140.2311 772.7927,-127.0262 654,-98 577.4089,-79.2855 490.9718,-42.5724 452.0157,-25.1356"/>
<polygon fill="#191970" stroke="#191970" points="997.009,-149.3198 1007.219,-146.4903 997.4729,-142.3352 997.009,-149.3198"/>
</g>
<!-- Node27&#45;&gt;Node26 -->
<g id="edge18" class="edge">
<title>Node27&#45;&gt;Node26</title>
<path fill="none" stroke="#191970" d="M997.1967,-144.5794C929.4729,-138.327 822.2337,-124.9314 733,-98 670.4307,-79.1161 601.5851,-42.4864 570.6582,-25.1028"/>
<polygon fill="#191970" stroke="#191970" points="997.0334,-148.0787 1007.3063,-145.4867 997.6592,-141.1067 997.0334,-148.0787"/>
</g>
<!-- Node28 -->
<g id="node13" class="node">
<title>Node28</title>
<g id="a_node13"><a xlink:href="helios__code_8c.html" target="_top" xlink:title=" ">
<polygon fill="#ffffff" stroke="#000000" points="796.5,-67.5 796.5,-97.5 903.5,-97.5 903.5,-67.5 796.5,-67.5"/>
<text text-anchor="start" x="804.5" y="-85.5" font-family="Helvetica,sans-Serif" font-size="10.00" fill="#000000">main/builtins/code</text>
<text text-anchor="middle" x="850" y="-74.5" font-family="Helvetica,sans-Serif" font-size="10.00" fill="#000000">/helios_code.c</text>
</a>
</g>
</g>
<!-- Node27&#45;&gt;Node28 -->
<g id="edge15" class="edge">
<title>Node27&#45;&gt;Node28</title>
<path fill="none" stroke="#191970" d="M1006.2274,-131.4123C972.4266,-120.8298 930.2452,-107.6235 898.2352,-97.6017"/>
<polygon fill="#191970" stroke="#191970" points="1005.3852,-134.8161 1015.9742,-134.4639 1007.4768,-128.1359 1005.3852,-134.8161"/>
</g>
<!-- Node29 -->
<g id="node14" class="node">
<title>Node29</title>
<g id="a_node14"><a xlink:href="helios__instruction_8c.html" target="_top" xlink:title=" ">
<polygon fill="#ffffff" stroke="#000000" points="922,-67.5 922,-97.5 1036,-97.5 1036,-67.5 922,-67.5"/>
<text text-anchor="start" x="930" y="-85.5" font-family="Helvetica,sans-Serif" font-size="10.00" fill="#000000">main/builtins/code</text>
<text text-anchor="middle" x="979" y="-74.5" font-family="Helvetica,sans-Serif" font-size="10.00" fill="#000000">/helios_instruction.c</text>
</a>
</g>
</g>
<!-- Node27&#45;&gt;Node29 -->
<g id="edge16" class="edge">
<title>Node27&#45;&gt;Node29</title>
<path fill="none" stroke="#191970" d="M1036.8055,-128.0643C1024.2374,-118.1577 1009.6083,-106.6265 998.2115,-97.6432"/>
<polygon fill="#191970" stroke="#191970" points="1034.6919,-130.8549 1044.7122,-134.2967 1039.0253,-125.3574 1034.6919,-130.8549"/>
</g>
<!-- Node30 -->
<g id="node15" class="node">
<title>Node30</title>
<g id="a_node15"><a xlink:href="parser_8h.html" target="_top" xlink:title=" ">
<polygon fill="#ffffff" stroke="#000000" points="1092.5,-67.5 1092.5,-97.5 1205.5,-97.5 1205.5,-67.5 1092.5,-67.5"/>
<text text-anchor="start" x="1100.5" y="-85.5" font-family="Helvetica,sans-Serif" font-size="10.00" fill="#000000">main/parser/include</text>
<text text-anchor="middle" x="1149" y="-74.5" font-family="Helvetica,sans-Serif" font-size="10.00" fill="#000000">/parser.h</text>
</a>
</g>
</g>
<!-- Node27&#45;&gt;Node30 -->
<g id="edge19" class="edge">
<title>Node27&#45;&gt;Node30</title>
<path fill="none" stroke="#191970" d="M1091.1945,-128.0643C1103.7626,-118.1577 1118.3917,-106.6265 1129.7885,-97.6432"/>
<polygon fill="#191970" stroke="#191970" points="1088.9747,-125.3574 1083.2878,-134.2967 1093.3081,-130.8549 1088.9747,-125.3574"/>
</g>
<!-- Node27&#45;&gt;Node31 -->
<g id="edge30" class="edge">
<title>Node27&#45;&gt;Node31</title>
<path fill="none" stroke="#191970" d="M997.0594,-141.9825C924.9083,-133.087 815.3796,-117.0532 778,-98 746.1104,-81.7452 718.0471,-49.7836 703.202,-30.7673"/>
<polygon fill="#191970" stroke="#191970" points="997.0709,-145.5096 1007.4204,-143.2427 997.9162,-138.5608 997.0709,-145.5096"/>
</g>
<!-- Node27&#45;&gt;Node32 -->
<g id="edge31" class="edge">
<title>Node27&#45;&gt;Node32</title>
<path fill="none" stroke="#191970" d="M997.1163,-146.596C923.8436,-141.8462 813.2044,-129.5254 787,-98 768.4218,-75.6494 798.3245,-47.5958 821.6461,-30.6332"/>
<polygon fill="#191970" stroke="#191970" points="996.9984,-150.0953 1007.1948,-147.2172 997.4291,-143.1085 996.9984,-150.0953"/>
</g>
<!-- Node27&#45;&gt;Node33 -->
<g id="edge32" class="edge">
<title>Node27&#45;&gt;Node33</title>
<path fill="none" stroke="#191970" d="M1130.598,-134.6978C1165.7421,-125.394 1203.6901,-112.4404 1214,-98 1231.2704,-73.8106 1200.1963,-46.9785 1175.3398,-30.6756"/>
<polygon fill="#191970" stroke="#191970" points="1129.5971,-131.3413 1120.7851,-137.2234 1131.3419,-138.1203 1129.5971,-131.3413"/>
</g>
<!-- Node27&#45;&gt;Node34 -->
<g id="edge33" class="edge">
<title>Node27&#45;&gt;Node34</title>
<path fill="none" stroke="#191970" d="M1130.6719,-137.0906C1181.1987,-127.3661 1252.2342,-113.0083 1314,-98 1400.6727,-76.9397 1500.4105,-47.9266 1558.602,-30.5112"/>
<polygon fill="#191970" stroke="#191970" points="1130.0116,-133.6534 1120.8488,-138.9726 1131.3288,-140.5283 1130.0116,-133.6534"/>
</g>
<!-- Node27&#45;&gt;Node35 -->
<g id="edge34" class="edge">
<title>Node27&#45;&gt;Node35</title>
<path fill="none" stroke="#191970" d="M1130.5674,-137.9748C1162.7639,-130.2354 1200.864,-117.7292 1231,-98 1258.1932,-80.1974 1280.8961,-49.0752 1292.867,-30.568"/>
<polygon fill="#191970" stroke="#191970" points="1129.741,-134.5734 1120.7802,-140.2264 1131.3104,-141.3952 1129.741,-134.5734"/>
</g>
<!-- Node27&#45;&gt;Node36 -->
<g id="edge35" class="edge">
<title>Node27&#45;&gt;Node36</title>
<path fill="none" stroke="#191970" d="M1130.6817,-134.7859C1169.4337,-125.5846 1218.9584,-112.7047 1262,-98 1320.4486,-78.0316 1386.1075,-48.3387 1423.8055,-30.5525"/>
<polygon fill="#191970" stroke="#191970" points="1129.4976,-131.4687 1120.5632,-137.1632 1131.0987,-138.2831 1129.4976,-131.4687"/>
</g>
<!-- Node37 -->
<g id="node22" class="node">
<title>Node37</title>
<g id="a_node22"><a xlink:href="parserutil_8c.html" target="_top" xlink:title=" ">
<polygon fill="#ffffff" stroke="#000000" points="930.5,-6 930.5,-25 1063.5,-25 1063.5,-6 930.5,-6"/>
<text text-anchor="middle" x="997" y="-13" font-family="Helvetica,sans-Serif" font-size="10.00" fill="#000000">main/parser/parserutil.c</text>
</a>
</g>
</g>
<!-- Node27&#45;&gt;Node37 -->
<g id="edge36" class="edge">
<title>Node27&#45;&gt;Node37</title>
<path fill="none" stroke="#191970" d="M1061.6233,-124.118C1059.223,-107.1573 1054.4457,-84.7818 1045,-67 1036.0553,-50.1614 1020.1878,-34.721 1009.1561,-25.2275"/>
<polygon fill="#191970" stroke="#191970" points="1058.1905,-124.8799 1062.8826,-134.3791 1065.1384,-124.0272 1058.1905,-124.8799"/>
</g>
<!-- Node30&#45;&gt;Node20 -->
<g id="edge20" class="edge">
<title>Node30&#45;&gt;Node20</title>
<path fill="none" stroke="#191970" d="M1082.1973,-71.7089C1069.8519,-69.9523 1057.0537,-68.2891 1045,-67 800.5394,-40.8568 735.9051,-68.9677 493,-31 483.6822,-29.5436 473.7169,-27.3455 464.5612,-25.0589"/>
<polygon fill="#191970" stroke="#191970" points="1082.0346,-75.2221 1092.4347,-73.2002 1083.0437,-68.2952 1082.0346,-75.2221"/>
</g>
<!-- Node30&#45;&gt;Node26 -->
<g id="edge21" class="edge">
<title>Node30&#45;&gt;Node26</title>
<path fill="none" stroke="#191970" d="M1082.177,-71.8913C1069.8336,-70.1165 1057.0413,-68.3999 1045,-67 854.5033,-44.8534 804.1377,-62.7233 615,-31 605.9479,-29.4817 596.2686,-27.291 587.3484,-25.0326"/>
<polygon fill="#191970" stroke="#191970" points="1082.0119,-75.4044 1092.4135,-73.3901 1083.0261,-68.4782 1082.0119,-75.4044"/>
</g>
<!-- Node30&#45;&gt;Node31 -->
<g id="edge22" class="edge">
<title>Node30&#45;&gt;Node31</title>
<path fill="none" stroke="#191970" d="M1082.1192,-72.3435C1069.7816,-70.5236 1057.0062,-68.6747 1045,-67 922.044,-49.849 890.456,-51.4175 768,-31 765.3435,-30.5571 762.6381,-30.0887 759.9079,-29.6017"/>
<polygon fill="#191970" stroke="#191970" points="1081.9481,-75.8563 1092.3533,-73.861 1082.9748,-68.932 1081.9481,-75.8563"/>
</g>
<!-- Node30&#45;&gt;Node32 -->
<g id="edge23" class="edge">
<title>Node30&#45;&gt;Node32</title>
<path fill="none" stroke="#191970" d="M1082.3707,-67.8153C1032.0559,-56.7261 963.2713,-41.5664 912.6975,-30.4202"/>
<polygon fill="#191970" stroke="#191970" points="1081.6576,-71.242 1092.1765,-69.9764 1083.1642,-64.4061 1081.6576,-71.242"/>
</g>
<!-- Node30&#45;&gt;Node33 -->
<g id="edge24" class="edge">
<title>Node30&#45;&gt;Node33</title>
<path fill="none" stroke="#191970" d="M1149,-57.0249C1149,-48.128 1149,-38.4287 1149,-30.6432"/>
<polygon fill="#191970" stroke="#191970" points="1145.5001,-57.2966 1149,-67.2967 1152.5001,-57.2967 1145.5001,-57.2966"/>
</g>
<!-- Node30&#45;&gt;Node34 -->
<g id="edge25" class="edge">
<title>Node30&#45;&gt;Node34</title>
<path fill="none" stroke="#191970" d="M1215.7714,-74.8244C1292.1729,-65.7346 1420.9434,-49.476 1531,-31 1534.093,-30.4807 1537.2518,-29.9297 1540.4396,-29.3567"/>
<polygon fill="#191970" stroke="#191970" points="1215.3227,-71.353 1205.8038,-76.005 1216.146,-78.3045 1215.3227,-71.353"/>
</g>
<!-- Node30&#45;&gt;Node35 -->
<g id="edge26" class="edge">
<title>Node30&#45;&gt;Node35</title>
<path fill="none" stroke="#191970" d="M1192.4986,-63.4516C1216.2762,-53.0392 1245.316,-40.3224 1267.5141,-30.6017"/>
<polygon fill="#191970" stroke="#191970" points="1191.0924,-60.2464 1183.3362,-67.4639 1193.9004,-66.6586 1191.0924,-60.2464"/>
</g>
<!-- Node30&#45;&gt;Node36 -->
<g id="edge27" class="edge">
<title>Node30&#45;&gt;Node36</title>
<path fill="none" stroke="#191970" d="M1215.7375,-67.8875C1266.5416,-56.7638 1336.1945,-41.513 1387.2474,-30.3347"/>
<polygon fill="#191970" stroke="#191970" points="1214.8591,-64.4969 1205.8391,-70.0548 1216.3563,-71.3349 1214.8591,-64.4969"/>
</g>
<!-- Node30&#45;&gt;Node37 -->
<g id="edge28" class="edge">
<title>Node30&#45;&gt;Node37</title>
<path fill="none" stroke="#191970" d="M1105.5809,-63.3613C1077.2026,-50.8525 1041.3486,-35.0484 1018.788,-25.1039"/>
<polygon fill="#191970" stroke="#191970" points="1104.326,-66.6331 1114.8882,-67.4639 1107.1495,-60.2277 1104.326,-66.6331"/>
</g>
<!-- Node30&#45;&gt;Node38 -->
<g id="edge29" class="edge">
<title>Node30&#45;&gt;Node38</title>
<path fill="none" stroke="#191970" d="M1215.6334,-78.771C1317.1743,-72.484 1516.5245,-57.7639 1684,-31 1687.031,-30.5156 1690.128,-29.978 1693.2492,-29.4023"/>
<polygon fill="#191970" stroke="#191970" points="1215.2907,-75.2853 1205.5229,-79.3891 1215.7179,-82.2723 1215.2907,-75.2853"/>
</g>
</g>
</svg>
        <g id="navigator" transform="translate(0 0)" fill="#404254">
                <rect fill="#f2f5e9" fill-opacity="0.5" stroke="#606060" stroke-width=".5" x="0" y="0" width="60" height="60"/>
                <use id="zoomplus" xlink:href="#zoomPlus" x="17" y="9" onmousedown="handleZoom(evt,'in')"/>
                <use id="zoomminus" xlink:href="#zoomMin" x="42" y="9" onmousedown="handleZoom(evt,'out')"/>
                <use id="reset" xlink:href="#resetDef" x="30" y="36" onmousedown="handleReset()"/>
                <g id="arrowUp" xlink:href="#dirArrow" transform="translate(30 24)" onmousedown="handlePan(0,-1)">
                  <use xlink:href="#rim" fill="#404040">
                        <set attributeName="fill" to="#808080" begin="arrowUp.mouseover" end="arrowUp.mouseout"/>
                  </use>
                  <path fill="none" stroke="white" stroke-width="1.5" d="M0,-3.0v7 M-2.5,-0.5L0,-3.0L2.5,-0.5"/>
                </g>
                <g id="arrowRight" xlink:href="#dirArrow" transform="rotate(90) translate(36 -43)" onmousedown="handlePan(1,0)">
                  <use xlink:href="#rim" fill="#404040">
                        <set attributeName="fill" to="#808080" begin="arrowRight.mouseover" end="arrowRight.mouseout"/>
                  </use>
                  <path fill="none" stroke="white" stroke-width="1.5" d="M0,-3.0v7 M-2.5,-0.5L0,-3.0L2.5,-0.5"/>
                </g>
                <g id="arrowDown" xlink:href="#dirArrow" transform="rotate(180) translate(-30 -48)" onmousedown="handlePan(0,1)">
                  <use xlink:href="#rim" fill="#404040">
                        <set attributeName="fill" to="#808080" begin="arrowDown.mouseover" end="arrowDown.mouseout"/>
                  </use>
                  <path fill="none" stroke="white" stroke-width="1.5" d="M0,-3.0v7 M-2.5,-0.5L0,-3.0L2.5,-0.5"/>
                </g>
                <g id="arrowLeft" xlink:href="#dirArrow" transform="rotate(270) translate(-36 17)" onmousedown="handlePan(-1,0)">
                  <use xlink:href="#rim" fill="#404040">
                        <set attributeName="fill" to="#808080" begin="arrowLeft.mouseover" end="arrowLeft.mouseout"/>
                  </use>
                  <path fill="none" stroke="white" stroke-width="1.5" d="M0,-3.0v7 M-2.5,-0.5L0,-3.0L2.5,-0.5"/>
                </g>
        </g>
        <svg viewBox="0 0 15 15" width="100%" height="30px" preserveAspectRatio="xMaxYMin meet">
         <g id="arrow_out" transform="scale(0.3 0.3)">
          <a xlink:href="builtins_8h__dep__incl_org.svg" target="_base">
           <rect id="button" ry="5" rx="5" y="6" x="6" height="38" width="38"
                fill="#f2f5e9" fill-opacity="0.5" stroke="#606060" stroke-width="1.0"/>
           <path id="arrow"
             d="M 11.500037,31.436501 C 11.940474,20.09759 22.043105,11.32322 32.158766,21.979434 L 37.068811,17.246167 C 37.068811,17.246167 37.088388,32 37.088388,32 L 22.160133,31.978069 C 22.160133,31.978069 26.997745,27.140456 26.997745,27.140456 C 18.528582,18.264221 13.291696,25.230495 11.500037,31.436501 z"
             style="fill:#404040;"/>
          </a>
         </g>
        </svg>
</svg>
