<?xml version="1.0" encoding="UTF-8" standalone="no"?>
<!DOCTYPE svg PUBLIC "-//W3C//DTD SVG 1.1//EN"
 "http://www.w3.org/Graphics/SVG/1.1/DTD/svg11.dtd">
<!-- Generated by graphviz version 2.40.1 (20161225.0304)
 -->
<!-- Title: builtins/include/builtins.h Pages: 1 -->
<svg width="668pt" height="308pt"
 viewBox="0.00 0.00 667.50 308.00" xmlns="http://www.w3.org/2000/svg" xmlns:xlink="http://www.w3.org/1999/xlink">
<g id="graph0" class="graph" transform="scale(1 1) rotate(0) translate(4 304)">
<title>builtins/include/builtins.h</title>
<polygon fill="#ffffff" stroke="transparent" points="-4,4 -4,-304 663.5,-304 663.5,4 -4,4"/>
<!-- Node0 -->
<g id="node1" class="node">
<title>Node0</title>
<g id="a_node1"><a xlink:title=" ">
<polygon fill="#bfbfbf" stroke="#000000" points="153.5,-280.5 153.5,-299.5 276.5,-299.5 276.5,-280.5 153.5,-280.5"/>
<text text-anchor="middle" x="215" y="-287.5" font-family="Helvetica,sans-Serif" font-size="10.00" fill="#000000">builtins/include/builtins.h</text>
</a>
</g>
</g>
<!-- Node1 -->
<g id="node2" class="node">
<title>Node1</title>
<g id="a_node2"><a xlink:href="builtinutils_8h.html" target="_top" xlink:title=" ">
<polygon fill="#ffffff" stroke="#000000" points="0,-.5 0,-19.5 68,-19.5 68,-.5 0,-.5"/>
<text text-anchor="middle" x="34" y="-7.5" font-family="Helvetica,sans-Serif" font-size="10.00" fill="#000000">builtinutils.h</text>
</a>
</g>
</g>
<!-- Node0&#45;&gt;Node1 -->
<g id="edge1" class="edge">
<title>Node0&#45;&gt;Node1</title>
<path fill="none" stroke="#191970" d="M161.673,-280.4828C108.2825,-267.5233 34,-238.603 34,-178 34,-178 34,-178 34,-122 34,-89.7116 34,-52.1872 34,-29.8048"/>
<polygon fill="#191970" stroke="#191970" points="37.5001,-29.5883 34,-19.5884 30.5001,-29.5884 37.5001,-29.5883"/>
</g>
<!-- Node2 -->
<g id="node3" class="node">
<title>Node2</title>
<g id="a_node3"><a xlink:href="helios__code_8h.html" target="_top" xlink:title=" ">
<polygon fill="#ffffff" stroke="#000000" points="176.5,-224.5 176.5,-243.5 253.5,-243.5 253.5,-224.5 176.5,-224.5"/>
<text text-anchor="middle" x="215" y="-231.5" font-family="Helvetica,sans-Serif" font-size="10.00" fill="#000000">helios_code.h</text>
</a>
</g>
</g>
<!-- Node0&#45;&gt;Node2 -->
<g id="edge2" class="edge">
<title>Node0&#45;&gt;Node2</title>
<path fill="none" stroke="#191970" d="M215,-280.2455C215,-272.9382 215,-262.6944 215,-253.7046"/>
<polygon fill="#191970" stroke="#191970" points="218.5001,-253.6426 215,-243.6427 211.5001,-253.6427 218.5001,-253.6426"/>
</g>
<!-- Node3 -->
<g id="node4" class="node">
<title>Node3</title>
<g id="a_node4"><a xlink:href="helios__object_8h.html" target="_top" xlink:title=" ">
<polygon fill="#ffffff" stroke="#000000" points="268,-168.5 268,-187.5 350,-187.5 350,-168.5 268,-168.5"/>
<text text-anchor="middle" x="309" y="-175.5" font-family="Helvetica,sans-Serif" font-size="10.00" fill="#000000">helios_object.h</text>
</a>
</g>
</g>
<!-- Node0&#45;&gt;Node3 -->
<g id="edge19" class="edge">
<title>Node0&#45;&gt;Node3</title>
<path fill="none" stroke="#191970" d="M199.5195,-280.3429C180.8142,-267.4501 153.5425,-243.9241 168,-224 178.8855,-208.9986 222.1193,-196.3221 257.8759,-188.0998"/>
<polygon fill="#191970" stroke="#191970" points="258.7322,-191.4949 267.7297,-185.9006 257.2074,-184.6629 258.7322,-191.4949"/>
</g>
<!-- Node5 -->
<g id="node6" class="node">
<title>Node5</title>
<g id="a_node6"><a xlink:href="helios__memory_8h.html" target="_top" xlink:title=" ">
<polygon fill="#ffffff" stroke="#000000" points="65,-56.5 65,-75.5 155,-75.5 155,-56.5 65,-56.5"/>
<text text-anchor="middle" x="110" y="-63.5" font-family="Helvetica,sans-Serif" font-size="10.00" fill="#000000">helios_memory.h</text>
</a>
</g>
</g>
<!-- Node0&#45;&gt;Node5 -->
<g id="edge22" class="edge">
<title>Node0&#45;&gt;Node5</title>
<path fill="none" stroke="#191970" d="M178.4623,-280.3674C159.6303,-273.4355 138.1268,-262.0453 126,-244 93.0498,-194.9687 100.2615,-120.4118 106.1218,-85.4184"/>
<polygon fill="#191970" stroke="#191970" points="109.5743,-85.9951 107.9244,-75.5295 102.6877,-84.7397 109.5743,-85.9951"/>
</g>
<!-- Node10 -->
<g id="node11" class="node">
<title>Node10</title>
<g id="a_node11"><a xlink:href="helios__float_8h.html" target="_top" xlink:title=" ">
<polygon fill="#ffffff" stroke="#000000" points="272,-224.5 272,-243.5 346,-243.5 346,-224.5 272,-224.5"/>
<text text-anchor="middle" x="309" y="-231.5" font-family="Helvetica,sans-Serif" font-size="10.00" fill="#000000">helios_float.h</text>
</a>
</g>
</g>
<!-- Node0&#45;&gt;Node10 -->
<g id="edge12" class="edge">
<title>Node0&#45;&gt;Node10</title>
<path fill="none" stroke="#191970" d="M231.3736,-280.2455C245.9308,-271.5731 267.431,-258.7645 284.1152,-248.825"/>
<polygon fill="#191970" stroke="#191970" points="286.0144,-251.7676 292.8141,-243.6427 282.4317,-245.7539 286.0144,-251.7676"/>
</g>
<!-- Node11 -->
<g id="node12" class="node">
<title>Node11</title>
<g id="a_node12"><a xlink:href="helios__hashmap_8h.html" target="_top" xlink:title=" ">
<polygon fill="#ffffff" stroke="#000000" points="564.5,-224.5 564.5,-243.5 659.5,-243.5 659.5,-224.5 564.5,-224.5"/>
<text text-anchor="middle" x="612" y="-231.5" font-family="Helvetica,sans-Serif" font-size="10.00" fill="#000000">helios_hashmap.h</text>
</a>
</g>
</g>
<!-- Node0&#45;&gt;Node11 -->
<g id="edge14" class="edge">
<title>Node0&#45;&gt;Node11</title>
<path fill="none" stroke="#191970" d="M276.5268,-282.4125C342.5808,-274.1006 450.8519,-259.9989 554.4299,-244.0382"/>
<polygon fill="#191970" stroke="#191970" points="555.091,-247.4776 564.4373,-242.4879 554.0194,-240.5601 555.091,-247.4776"/>
</g>
<!-- Node12 -->
<g id="node13" class="node">
<title>Node12</title>
<g id="a_node13"><a xlink:href="helios__integer_8h.html" target="_top" xlink:title=" ">
<polygon fill="#ffffff" stroke="#000000" points="364,-224.5 364,-243.5 448,-243.5 448,-224.5 364,-224.5"/>
<text text-anchor="middle" x="406" y="-231.5" font-family="Helvetica,sans-Serif" font-size="10.00" fill="#000000">helios_integer.h</text>
</a>
</g>
</g>
<!-- Node0&#45;&gt;Node12 -->
<g id="edge17" class="edge">
<title>Node0&#45;&gt;Node12</title>
<path fill="none" stroke="#191970" d="M247.8341,-280.3733C279.8695,-270.9807 328.7487,-256.6496 363.6855,-246.4064"/>
<polygon fill="#191970" stroke="#191970" points="364.9831,-249.6733 373.5944,-243.5011 363.0136,-242.9561 364.9831,-249.6733"/>
</g>
<!-- Node13 -->
<g id="node14" class="node">
<title>Node13</title>
<g id="a_node14"><a xlink:href="helios__string_8h.html" target="_top" xlink:title=" ">
<polygon fill="#ffffff" stroke="#000000" points="466,-224.5 466,-243.5 546,-243.5 546,-224.5 466,-224.5"/>
<text text-anchor="middle" x="506" y="-231.5" font-family="Helvetica,sans-Serif" font-size="10.00" fill="#000000">helios_string.h</text>
</a>
</g>
</g>
<!-- Node0&#45;&gt;Node13 -->
<g id="edge20" class="edge">
<title>Node0&#45;&gt;Node13</title>
<path fill="none" stroke="#191970" d="M266.496,-280.4195C313.3122,-271.6627 384.5761,-258.2163 455.8438,-244.2097"/>
<polygon fill="#191970" stroke="#191970" points="456.7621,-247.5961 465.8975,-242.23 455.4097,-240.728 456.7621,-247.5961"/>
</g>
<!-- Node14 -->
<g id="node15" class="node">
<title>Node14</title>
<g id="a_node15"><a xlink:href="serialize_8h.html" target="_top" xlink:title=" ">
<polygon fill="#ffffff" stroke="#000000" points="132.5,-168.5 132.5,-187.5 193.5,-187.5 193.5,-168.5 132.5,-168.5"/>
<text text-anchor="middle" x="163" y="-175.5" font-family="Helvetica,sans-Serif" font-size="10.00" fill="#000000">serialize.h</text>
</a>
</g>
</g>
<!-- Node0&#45;&gt;Node14 -->
<g id="edge23" class="edge">
<title>Node0&#45;&gt;Node14</title>
<path fill="none" stroke="#191970" d="M182.3103,-280.4174C164.6638,-273.3899 144.4138,-261.8899 134,-244 124.8231,-228.2349 135.4958,-209.0276 146.3906,-195.4078"/>
<polygon fill="#191970" stroke="#191970" points="149.1354,-197.5845 153.0274,-187.7303 143.8398,-193.0066 149.1354,-197.5845"/>
</g>
<!-- Node2&#45;&gt;Node3 -->
<g id="edge3" class="edge">
<title>Node2&#45;&gt;Node3</title>
<path fill="none" stroke="#191970" d="M231.3736,-224.2455C245.9308,-215.5731 267.431,-202.7645 284.1152,-192.825"/>
<polygon fill="#191970" stroke="#191970" points="286.0144,-195.7676 292.8141,-187.6427 282.4317,-189.7539 286.0144,-195.7676"/>
</g>
<!-- Node4 -->
<g id="node5" class="node">
<title>Node4</title>
<g id="a_node5"><a xlink:href="helios__type_8h.html" target="_top" xlink:title=" ">
<polygon fill="#ffffff" stroke="#000000" points="160,-112.5 160,-131.5 234,-131.5 234,-112.5 160,-112.5"/>
<text text-anchor="middle" x="197" y="-119.5" font-family="Helvetica,sans-Serif" font-size="10.00" fill="#000000">helios_type.h</text>
</a>
</g>
</g>
<!-- Node3&#45;&gt;Node4 -->
<g id="edge4" class="edge">
<title>Node3&#45;&gt;Node4</title>
<path fill="none" stroke="#191970" d="M289.7465,-168.3733C271.9288,-159.4644 245.2253,-146.1127 225.0406,-136.0203"/>
<polygon fill="#191970" stroke="#191970" points="226.5118,-132.8428 216.0022,-131.5011 223.3813,-139.1038 226.5118,-132.8428"/>
</g>
<!-- Node4&#45;&gt;Node5 -->
<g id="edge5" class="edge">
<title>Node4&#45;&gt;Node5</title>
<path fill="none" stroke="#191970" d="M181.8458,-112.2455C168.4973,-103.6534 148.8414,-91.0014 133.4617,-81.1018"/>
<polygon fill="#191970" stroke="#191970" points="135.2836,-78.1121 124.9806,-75.6427 131.4949,-83.9982 135.2836,-78.1121"/>
</g>
<!-- Node8 -->
<g id="node9" class="node">
<title>Node8</title>
<g id="a_node9"><a xlink:title=" ">
<polygon fill="#ffffff" stroke="#bfbfbf" points="190.5,-.5 190.5,-19.5 239.5,-19.5 239.5,-.5 190.5,-.5"/>
<text text-anchor="middle" x="215" y="-7.5" font-family="Helvetica,sans-Serif" font-size="10.00" fill="#000000">stdint.h</text>
</a>
</g>
</g>
<!-- Node4&#45;&gt;Node8 -->
<g id="edge10" class="edge">
<title>Node4&#45;&gt;Node8</title>
<path fill="none" stroke="#191970" d="M206.6492,-112.4346C214.65,-103.7723 225.4262,-90.2221 230,-76 235.0455,-60.3112 230.0605,-42.0034 224.5211,-28.655"/>
<polygon fill="#191970" stroke="#191970" points="227.6887,-27.1658 220.334,-19.5397 221.3277,-30.0878 227.6887,-27.1658"/>
</g>
<!-- Node9 -->
<g id="node10" class="node">
<title>Node9</title>
<g id="a_node10"><a xlink:title=" ">
<polygon fill="#ffffff" stroke="#bfbfbf" points="173,-56.5 173,-75.5 221,-75.5 221,-56.5 173,-56.5"/>
<text text-anchor="middle" x="197" y="-63.5" font-family="Helvetica,sans-Serif" font-size="10.00" fill="#000000">stdlib.h</text>
</a>
</g>
</g>
<!-- Node4&#45;&gt;Node9 -->
<g id="edge11" class="edge">
<title>Node4&#45;&gt;Node9</title>
<path fill="none" stroke="#191970" d="M197,-112.2455C197,-104.9382 197,-94.6944 197,-85.7046"/>
<polygon fill="#191970" stroke="#191970" points="200.5001,-85.6426 197,-75.6427 193.5001,-85.6427 200.5001,-85.6426"/>
</g>
<!-- Node5&#45;&gt;Node1 -->
<g id="edge6" class="edge">
<title>Node5&#45;&gt;Node1</title>
<path fill="none" stroke="#191970" d="M96.7618,-56.2455C85.319,-47.814 68.5704,-35.4729 55.2525,-25.6598"/>
<polygon fill="#191970" stroke="#191970" points="57.2133,-22.757 47.0865,-19.6427 53.0609,-28.3924 57.2133,-22.757"/>
</g>
<!-- Node6 -->
<g id="node7" class="node">
<title>Node6</title>
<g id="a_node7"><a xlink:title=" ">
<polygon fill="#ffffff" stroke="#bfbfbf" points="362,-.5 362,-19.5 418,-19.5 418,-.5 362,-.5"/>
<text text-anchor="middle" x="390" y="-7.5" font-family="Helvetica,sans-Serif" font-size="10.00" fill="#000000">stdbool.h</text>
</a>
</g>
</g>
<!-- Node5&#45;&gt;Node6 -->
<g id="edge7" class="edge">
<title>Node5&#45;&gt;Node6</title>
<path fill="none" stroke="#191970" d="M155.298,-56.9404C209.8882,-46.0224 300.6431,-27.8714 351.8319,-17.6336"/>
<polygon fill="#191970" stroke="#191970" points="352.7041,-21.0286 361.8235,-15.6353 351.3313,-14.1645 352.7041,-21.0286"/>
</g>
<!-- Node7 -->
<g id="node8" class="node">
<title>Node7</title>
<g id="a_node8"><a xlink:title=" ">
<polygon fill="#ffffff" stroke="#bfbfbf" points="86,-.5 86,-19.5 138,-19.5 138,-.5 86,-.5"/>
<text text-anchor="middle" x="112" y="-7.5" font-family="Helvetica,sans-Serif" font-size="10.00" fill="#000000">stddef.h</text>
</a>
</g>
</g>
<!-- Node5&#45;&gt;Node7 -->
<g id="edge8" class="edge">
<title>Node5&#45;&gt;Node7</title>
<path fill="none" stroke="#191970" d="M110.3484,-56.2455C110.6093,-48.9382 110.9752,-38.6944 111.2963,-29.7046"/>
<polygon fill="#191970" stroke="#191970" points="114.7964,-29.7613 111.6556,-19.6427 107.8008,-29.5113 114.7964,-29.7613"/>
</g>
<!-- Node5&#45;&gt;Node8 -->
<g id="edge9" class="edge">
<title>Node5&#45;&gt;Node8</title>
<path fill="none" stroke="#191970" d="M128.2896,-56.2455C144.7762,-47.4527 169.2352,-34.4079 187.9765,-24.4125"/>
<polygon fill="#191970" stroke="#191970" points="189.7435,-27.4368 196.92,-19.6427 186.4494,-21.2604 189.7435,-27.4368"/>
</g>
<!-- Node10&#45;&gt;Node3 -->
<g id="edge13" class="edge">
<title>Node10&#45;&gt;Node3</title>
<path fill="none" stroke="#191970" d="M309,-224.2455C309,-216.9382 309,-206.6944 309,-197.7046"/>
<polygon fill="#191970" stroke="#191970" points="312.5001,-197.6426 309,-187.6427 305.5001,-197.6427 312.5001,-197.6426"/>
</g>
<!-- Node11&#45;&gt;Node3 -->
<g id="edge15" class="edge">
<title>Node11&#45;&gt;Node3</title>
<path fill="none" stroke="#191970" d="M564.3229,-225.1884C508.6676,-214.9023 416.9938,-197.9592 359.9643,-187.4191"/>
<polygon fill="#191970" stroke="#191970" points="360.5514,-183.9685 350.0819,-185.5927 359.2792,-190.8519 360.5514,-183.9685"/>
</g>
<!-- Node11&#45;&gt;Node6 -->
<g id="edge16" class="edge">
<title>Node11&#45;&gt;Node6</title>
<path fill="none" stroke="#191970" d="M602.4609,-224.375C568.0908,-189.6953 450.3192,-70.8627 406.5525,-26.7017"/>
<polygon fill="#191970" stroke="#191970" points="409.0288,-24.2281 399.5035,-19.5891 404.0569,-29.1556 409.0288,-24.2281"/>
</g>
<!-- Node12&#45;&gt;Node3 -->
<g id="edge18" class="edge">
<title>Node12&#45;&gt;Node3</title>
<path fill="none" stroke="#191970" d="M389.1039,-224.2455C374.082,-215.5731 351.8957,-202.7645 334.679,-192.825"/>
<polygon fill="#191970" stroke="#191970" points="336.1128,-189.6114 325.7025,-187.6427 332.6129,-195.6737 336.1128,-189.6114"/>
</g>
<!-- Node13&#45;&gt;Node3 -->
<g id="edge21" class="edge">
<title>Node13&#45;&gt;Node3</title>
<path fill="none" stroke="#191970" d="M472.1345,-224.3733C438.951,-214.9404 388.245,-200.5265 352.1806,-190.2747"/>
<polygon fill="#191970" stroke="#191970" points="352.9995,-186.8689 342.4236,-187.5011 351.0855,-193.6021 352.9995,-186.8689"/>
</g>
<!-- Node14&#45;&gt;Node4 -->
<g id="edge24" class="edge">
<title>Node14&#45;&gt;Node4</title>
<path fill="none" stroke="#191970" d="M168.9223,-168.2455C173.6027,-160.5367 180.2673,-149.5598 185.9289,-140.2348"/>
<polygon fill="#191970" stroke="#191970" points="188.9475,-142.007 191.1455,-131.6427 182.9639,-138.3741 188.9475,-142.007"/>
</g>
</g>
</svg>
