<?xml version="1.0" encoding="UTF-8" standalone="no"?>
<!DOCTYPE svg PUBLIC "-//W3C//DTD SVG 1.1//EN"
 "http://www.w3.org/Graphics/SVG/1.1/DTD/svg11.dtd">
<!-- Generated by graphviz version 2.40.1 (20161225.0304)
 -->
<!-- Title: builtins/include/builtinutils.h Pages: 1 -->
<!--zoomable 419 -->
<svg id="main" version="1.1" xmlns="http://www.w3.org/2000/svg" xmlns:xlink="http://www.w3.org/1999/xlink" xml:space="preserve" onload="init(evt)">
<style type="text/css"><![CDATA[
.edge:hover path { stroke: red; }
.edge:hover polygon { stroke: red; fill: red; }
]]></style>
<script type="text/javascript"><![CDATA[
var edges = document.getElementsByTagName('g');
if (edges && edges.length) {
  for (var i=0;i<edges.length;i++) {
    if (edges[i].id.substr(0,4)=='edge') {
      edges[i].setAttribute('class','edge');
    }
  }
}
]]></script>
        <defs>
                <circle id="rim" cx="0" cy="0" r="7"/>
                <circle id="rim2" cx="0" cy="0" r="3.5"/>
                <g id="zoomPlus">
                        <use xlink:href="#rim" fill="#404040">
                                <set attributeName="fill" to="#808080" begin="zoomplus.mouseover" end="zoomplus.mouseout"/>
                        </use>
                        <path d="M-4,0h8M0,-4v8" fill="none" stroke="white" stroke-width="1.5" pointer-events="none"/>
                </g>
                <g id="zoomMin">
                        <use xlink:href="#rim" fill="#404040">
                                <set attributeName="fill" to="#808080" begin="zoomminus.mouseover" end="zoomminus.mouseout"/>
                        </use>
                        <path d="M-4,0h8" fill="none" stroke="white" stroke-width="1.5" pointer-events="none"/>
                </g>
                <g id="dirArrow">
                        <path fill="none" stroke="white" stroke-width="1.5" d="M0,-3.0v7 M-2.5,-0.5L0,-3.0L2.5,-0.5"/>
                </g>
               <g id="resetDef">
                       <use xlink:href="#rim2" fill="#404040">
                               <set attributeName="fill" to="#808080" begin="reset.mouseover" end="reset.mouseout"/>
                       </use>
               </g>
        </defs>

<script type="text/javascript">
var viewWidth = 1134;
var viewHeight = 419;
var sectionId = 'dynsection-0';
</script>
<script xlink:href="svgpan.js"/>
<svg id="graph" class="graph">
<g id="viewport">
<title>builtins/include/builtinutils.h</title>
<polygon fill="#ffffff" stroke="transparent" points="-4,4 -4,-415 1130.2547,-415 1130.2547,4 -4,4"/>
<!-- Node1 -->
<g id="node1" class="node">
<title>Node1</title>
<g id="a_node1"><a xlink:title=" ">
<polygon fill="#bfbfbf" stroke="#000000" points="569.2547,-391.5 569.2547,-410.5 705.2547,-410.5 705.2547,-391.5 569.2547,-391.5"/>
<text text-anchor="middle" x="637.2547" y="-398.5" font-family="Helvetica,sans-Serif" font-size="10.00" fill="#000000">builtins/include/builtinutils.h</text>
</a>
</g>
</g>
<!-- Node2 -->
<g id="node2" class="node">
<title>Node2</title>
<g id="a_node2"><a xlink:href="builtins_8h.html" target="_top" xlink:title=" ">
<polygon fill="#ffffff" stroke="#000000" points="760.7547,-62 760.7547,-81 883.7547,-81 883.7547,-62 760.7547,-62"/>
<text text-anchor="middle" x="822.2547" y="-69" font-family="Helvetica,sans-Serif" font-size="10.00" fill="#000000">builtins/include/builtins.h</text>
</a>
</g>
</g>
<!-- Node1&#45;&gt;Node2 -->
<g id="edge1" class="edge">
<title>Node1&#45;&gt;Node2</title>
<path fill="none" stroke="#191970" d="M715.5873,-395.9723C850.4701,-385.1466 1112.2547,-353.679 1112.2547,-272.5 1112.2547,-272.5 1112.2547,-272.5 1112.2547,-205.5 1112.2547,-155.0399 1077.8971,-148.3292 1034.2547,-123 1026.8431,-118.6984 923.9346,-94.7351 864.2728,-81.0632"/>
<polygon fill="#191970" stroke="#191970" points="715.0069,-392.5069 705.3106,-396.7768 715.5534,-399.4855 715.0069,-392.5069"/>
</g>
<!-- Node4 -->
<g id="node4" class="node">
<title>Node4</title>
<g id="a_node4"><a xlink:href="helios__memory_8h.html" target="_top" xlink:title=" ">
<polygon fill="#ffffff" stroke="#000000" points="105.2547,-324.5 105.2547,-354.5 219.2547,-354.5 219.2547,-324.5 105.2547,-324.5"/>
<text text-anchor="start" x="113.2547" y="-342.5" font-family="Helvetica,sans-Serif" font-size="10.00" fill="#000000">memory/include/helios</text>
<text text-anchor="middle" x="162.2547" y="-331.5" font-family="Helvetica,sans-Serif" font-size="10.00" fill="#000000">_memory.h</text>
</a>
</g>
</g>
<!-- Node1&#45;&gt;Node4 -->
<g id="edge3" class="edge">
<title>Node1&#45;&gt;Node4</title>
<path fill="none" stroke="#191970" d="M559.0156,-390.8701C463.4727,-378.4998 304.157,-357.8726 219.3903,-346.8976"/>
<polygon fill="#191970" stroke="#191970" points="558.8321,-394.3755 569.1988,-392.1885 559.731,-387.4334 558.8321,-394.3755"/>
</g>
<!-- Node3 -->
<g id="node3" class="node">
<title>Node3</title>
<g id="a_node3"><a xlink:href="test_8c.html" target="_top" xlink:title=" ">
<polygon fill="#ffffff" stroke="#000000" points="791.7547,-.5 791.7547,-19.5 852.7547,-19.5 852.7547,-.5 791.7547,-.5"/>
<text text-anchor="middle" x="822.2547" y="-7.5" font-family="Helvetica,sans-Serif" font-size="10.00" fill="#000000">test/test.c</text>
</a>
</g>
</g>
<!-- Node2&#45;&gt;Node3 -->
<g id="edge2" class="edge">
<title>Node2&#45;&gt;Node3</title>
<path fill="none" stroke="#191970" d="M822.2547,-51.7462C822.2547,-41.0519 822.2547,-28.314 822.2547,-19.7449"/>
<polygon fill="#191970" stroke="#191970" points="818.7548,-51.8906 822.2547,-61.8906 825.7548,-51.8907 818.7548,-51.8906"/>
</g>
<!-- Node4&#45;&gt;Node2 -->
<g id="edge5" class="edge">
<title>Node4&#45;&gt;Node2</title>
<path fill="none" stroke="#191970" d="M229.5212,-335.6885C414.0214,-323.6652 920.7425,-279.5893 1017.2547,-154 1025.65,-143.0754 1025.6617,-133.9156 1017.2547,-123 1012.4875,-116.8103 919.5634,-94.2141 863.7376,-81.1001"/>
<polygon fill="#191970" stroke="#191970" points="229.1632,-332.2042 219.4075,-336.3364 229.6108,-339.1899 229.1632,-332.2042"/>
</g>
<!-- Node5 -->
<g id="node5" class="node">
<title>Node5</title>
<g id="a_node5"><a xlink:href="helios__float_8c.html" target="_top" xlink:title=" ">
<polygon fill="#ffffff" stroke="#000000" points="516.2547,-56.5 516.2547,-86.5 614.2547,-86.5 614.2547,-56.5 516.2547,-56.5"/>
<text text-anchor="start" x="524.2547" y="-74.5" font-family="Helvetica,sans-Serif" font-size="10.00" fill="#000000">builtins/float/helios</text>
<text text-anchor="middle" x="565.2547" y="-63.5" font-family="Helvetica,sans-Serif" font-size="10.00" fill="#000000">_float.c</text>
</a>
</g>
</g>
<!-- Node4&#45;&gt;Node5 -->
<g id="edge4" class="edge">
<title>Node4&#45;&gt;Node5</title>
<path fill="none" stroke="#191970" d="M143.8653,-316.1822C111.8215,-272.5961 53.7638,-178.2024 104.2547,-123 134.5963,-89.8272 462.9862,-94.8324 507.2547,-87 510.1285,-86.4916 513.0674,-85.9089 516.023,-85.2744"/>
<polygon fill="#191970" stroke="#191970" points="141.266,-318.5492 150.0737,-324.4378 146.8606,-314.3419 141.266,-318.5492"/>
</g>
<!-- Node6 -->
<g id="node6" class="node">
<title>Node6</title>
<g id="a_node6"><a xlink:href="helios__integer_8c.html" target="_top" xlink:title=" ">
<polygon fill="#ffffff" stroke="#000000" points="390.2547,-56.5 390.2547,-86.5 498.2547,-86.5 498.2547,-56.5 390.2547,-56.5"/>
<text text-anchor="start" x="398.2547" y="-74.5" font-family="Helvetica,sans-Serif" font-size="10.00" fill="#000000">builtins/integer/helios</text>
<text text-anchor="middle" x="444.2547" y="-63.5" font-family="Helvetica,sans-Serif" font-size="10.00" fill="#000000">_integer.c</text>
</a>
</g>
</g>
<!-- Node4&#45;&gt;Node6 -->
<g id="edge6" class="edge">
<title>Node4&#45;&gt;Node6</title>
<path fill="none" stroke="#191970" d="M106.0198,-319.6261C92.2542,-311.9502 79.2058,-301.6359 71.2547,-288 34.3152,-224.6498 22.4827,-177.7637 71.2547,-123 117.3788,-71.2096 313.0039,-99.3086 381.2547,-87 384.1368,-86.4802 387.0833,-85.9062 390.0514,-85.2942"/>
<polygon fill="#191970" stroke="#191970" points="104.6281,-322.8458 115.123,-324.2977 107.8241,-316.618 104.6281,-322.8458"/>
</g>
<!-- Node7 -->
<g id="node7" class="node">
<title>Node7</title>
<g id="a_node7"><a xlink:href="helios__string_8c.html" target="_top" xlink:title=" ">
<polygon fill="#ffffff" stroke="#000000" points="268.7547,-56.5 268.7547,-86.5 371.7547,-86.5 371.7547,-56.5 268.7547,-56.5"/>
<text text-anchor="start" x="276.7547" y="-74.5" font-family="Helvetica,sans-Serif" font-size="10.00" fill="#000000">builtins/string/helios</text>
<text text-anchor="middle" x="320.2547" y="-63.5" font-family="Helvetica,sans-Serif" font-size="10.00" fill="#000000">_string.c</text>
</a>
</g>
</g>
<!-- Node4&#45;&gt;Node7 -->
<g id="edge7" class="edge">
<title>Node4&#45;&gt;Node7</title>
<path fill="none" stroke="#191970" d="M95.4005,-328.7697C71.724,-321.3995 47.461,-308.968 33.2547,-288 -7.8783,-227.2888 -13.7982,-179.2477 33.2547,-123 62.6904,-87.8122 194.3106,-76.6352 268.6651,-73.1081"/>
<polygon fill="#191970" stroke="#191970" points="94.5494,-332.1664 105.1256,-331.5368 96.4652,-325.4336 94.5494,-332.1664"/>
</g>
<!-- Node8 -->
<g id="node8" class="node">
<title>Node8</title>
<g id="a_node8"><a xlink:href="helios__type_8h.html" target="_top" xlink:title=" ">
<polygon fill="#ffffff" stroke="#000000" points="401.7547,-257.5 401.7547,-287.5 504.7547,-287.5 504.7547,-257.5 401.7547,-257.5"/>
<text text-anchor="start" x="409.7547" y="-275.5" font-family="Helvetica,sans-Serif" font-size="10.00" fill="#000000">builtins/type/include</text>
<text text-anchor="middle" x="453.2547" y="-264.5" font-family="Helvetica,sans-Serif" font-size="10.00" fill="#000000">/helios_type.h</text>
</a>
</g>
</g>
<!-- Node4&#45;&gt;Node8 -->
<g id="edge8" class="edge">
<title>Node4&#45;&gt;Node8</title>
<path fill="none" stroke="#191970" d="M229.2856,-324.0668C281.7261,-311.9928 353.5704,-295.4514 401.6069,-284.3914"/>
<polygon fill="#191970" stroke="#191970" points="228.3595,-320.6884 219.3998,-326.3429 229.9301,-327.5099 228.3595,-320.6884"/>
</g>
<!-- Node17 -->
<g id="node17" class="node">
<title>Node17</title>
<g id="a_node17"><a xlink:href="refcount_8c.html" target="_top" xlink:title=" ">
<polygon fill="#ffffff" stroke="#000000" points="113.2547,-129 113.2547,-148 211.2547,-148 211.2547,-129 113.2547,-129"/>
<text text-anchor="middle" x="162.2547" y="-136" font-family="Helvetica,sans-Serif" font-size="10.00" fill="#000000">memory/refcount.c</text>
</a>
</g>
</g>
<!-- Node4&#45;&gt;Node17 -->
<g id="edge37" class="edge">
<title>Node4&#45;&gt;Node17</title>
<path fill="none" stroke="#191970" d="M162.2547,-314.3473C162.2547,-269.6419 162.2547,-178.2292 162.2547,-148.2562"/>
<polygon fill="#191970" stroke="#191970" points="158.7548,-314.3923 162.2547,-324.3923 165.7548,-314.3924 158.7548,-314.3923"/>
</g>
<!-- Node9 -->
<g id="node9" class="node">
<title>Node9</title>
<g id="a_node9"><a xlink:href="helios__object_8c.html" target="_top" xlink:title=" ">
<polygon fill="#ffffff" stroke="#000000" points="229.7547,-123.5 229.7547,-153.5 334.7547,-153.5 334.7547,-123.5 229.7547,-123.5"/>
<text text-anchor="start" x="237.7547" y="-141.5" font-family="Helvetica,sans-Serif" font-size="10.00" fill="#000000">builtins/object/helios</text>
<text text-anchor="middle" x="282.2547" y="-130.5" font-family="Helvetica,sans-Serif" font-size="10.00" fill="#000000">_object.c</text>
</a>
</g>
</g>
<!-- Node8&#45;&gt;Node9 -->
<g id="edge9" class="edge">
<title>Node8&#45;&gt;Node9</title>
<path fill="none" stroke="#191970" d="M425.6675,-250.8819C390.8276,-223.5805 331.7799,-177.3092 301.4677,-153.5558"/>
<polygon fill="#191970" stroke="#191970" points="423.9412,-253.9758 433.9713,-257.389 428.2589,-248.466 423.9412,-253.9758"/>
</g>
<!-- Node10 -->
<g id="node10" class="node">
<title>Node10</title>
<g id="a_node10"><a xlink:href="helios__object_8h.html" target="_top" xlink:title=" ">
<polygon fill="#ffffff" stroke="#000000" points="469.2547,-190.5 469.2547,-220.5 579.2547,-220.5 579.2547,-190.5 469.2547,-190.5"/>
<text text-anchor="start" x="477.2547" y="-208.5" font-family="Helvetica,sans-Serif" font-size="10.00" fill="#000000">builtins/object/include</text>
<text text-anchor="middle" x="524.2547" y="-197.5" font-family="Helvetica,sans-Serif" font-size="10.00" fill="#000000">/helios_object.h</text>
</a>
</g>
</g>
<!-- Node8&#45;&gt;Node10 -->
<g id="edge10" class="edge">
<title>Node8&#45;&gt;Node10</title>
<path fill="none" stroke="#191970" d="M476.8741,-250.2113C487.1643,-240.5009 498.9598,-229.3698 508.2075,-220.6432"/>
<polygon fill="#191970" stroke="#191970" points="474.2366,-247.8879 469.3657,-257.2967 479.0409,-252.979 474.2366,-247.8879"/>
</g>
<!-- Node18 -->
<g id="node18" class="node">
<title>Node18</title>
<g id="a_node18"><a xlink:href="helios__type_8c.html" target="_top" xlink:title=" ">
<polygon fill="#ffffff" stroke="#000000" points="597.2547,-190.5 597.2547,-220.5 695.2547,-220.5 695.2547,-190.5 597.2547,-190.5"/>
<text text-anchor="start" x="605.2547" y="-208.5" font-family="Helvetica,sans-Serif" font-size="10.00" fill="#000000">builtins/type/helios</text>
<text text-anchor="middle" x="646.2547" y="-197.5" font-family="Helvetica,sans-Serif" font-size="10.00" fill="#000000">_type.c</text>
</a>
</g>
</g>
<!-- Node8&#45;&gt;Node18 -->
<g id="edge36" class="edge">
<title>Node8&#45;&gt;Node18</title>
<path fill="none" stroke="#191970" d="M506.1447,-254.1392C536.4944,-243.6033 574.1319,-230.5375 602.7528,-220.6017"/>
<polygon fill="#191970" stroke="#191970" points="504.8668,-250.8779 496.5677,-257.4639 507.1625,-257.4907 504.8668,-250.8779"/>
</g>
<!-- Node10&#45;&gt;Node2 -->
<g id="edge20" class="edge">
<title>Node10&#45;&gt;Node2</title>
<path fill="none" stroke="#191970" d="M589.3835,-189.6522C646.0115,-175.7543 719.9797,-157.265 726.2547,-154 735.9532,-148.9537 788.5829,-101.9011 811.5387,-81.1982"/>
<polygon fill="#191970" stroke="#191970" points="588.2687,-186.3217 579.3894,-192.1016 589.9351,-193.1205 588.2687,-186.3217"/>
</g>
<!-- Node10&#45;&gt;Node5 -->
<g id="edge11" class="edge">
<title>Node10&#45;&gt;Node5</title>
<path fill="none" stroke="#191970" d="M535.7057,-181.1506C539.4064,-172.6802 543.3099,-163.0361 546.2547,-154 553.7691,-130.9421 559.49,-103.3351 562.6076,-86.6218"/>
<polygon fill="#191970" stroke="#191970" points="532.4339,-179.8924 531.5241,-190.4481 538.818,-182.7637 532.4339,-179.8924"/>
</g>
<!-- Node10&#45;&gt;Node6 -->
<g id="edge21" class="edge">
<title>Node10&#45;&gt;Node6</title>
<path fill="none" stroke="#191970" d="M459.9501,-187.1454C444.306,-179.493 429.4478,-168.8109 420.2547,-154 407.1175,-132.8348 421.3335,-104.1755 432.8059,-86.8065"/>
<polygon fill="#191970" stroke="#191970" points="458.659,-190.4023 469.215,-191.3092 461.5285,-184.0175 458.659,-190.4023"/>
</g>
<!-- Node10&#45;&gt;Node7 -->
<g id="edge29" class="edge">
<title>Node10&#45;&gt;Node7</title>
<path fill="none" stroke="#191970" d="M473.339,-186.5889C452.9569,-177.991 429.739,-166.8528 410.2547,-154 380.3526,-134.2751 350.7081,-104.6392 334.0126,-86.7742"/>
<polygon fill="#191970" stroke="#191970" points="472.204,-189.9066 482.7833,-190.4794 474.8703,-183.4343 472.204,-189.9066"/>
</g>
<!-- Node10&#45;&gt;Node9 -->
<g id="edge28" class="edge">
<title>Node10&#45;&gt;Node9</title>
<path fill="none" stroke="#191970" d="M460.2575,-187.7817C421.2288,-176.9763 371.9442,-163.3314 335.1348,-153.1404"/>
<polygon fill="#191970" stroke="#191970" points="459.3738,-191.1687 469.9452,-190.4639 461.2416,-184.4225 459.3738,-191.1687"/>
</g>
<!-- Node11 -->
<g id="node11" class="node">
<title>Node11</title>
<g id="a_node11"><a xlink:href="helios__float__math_8c.html" target="_top" xlink:title=" ">
<polygon fill="#ffffff" stroke="#000000" points="1028.2547,-56.5 1028.2547,-86.5 1126.2547,-86.5 1126.2547,-56.5 1028.2547,-56.5"/>
<text text-anchor="start" x="1036.2547" y="-74.5" font-family="Helvetica,sans-Serif" font-size="10.00" fill="#000000">builtins/float/helios</text>
<text text-anchor="middle" x="1077.2547" y="-63.5" font-family="Helvetica,sans-Serif" font-size="10.00" fill="#000000">_float_math.c</text>
</a>
</g>
</g>
<!-- Node10&#45;&gt;Node11 -->
<g id="edge12" class="edge">
<title>Node10&#45;&gt;Node11</title>
<path fill="none" stroke="#191970" d="M589.4555,-190.1518C702.3076,-176.2675 953.8886,-207.2797 1034.2547,-154 1057.6786,-138.4709 1069.1256,-105.9387 1074.0555,-86.6911"/>
<polygon fill="#191970" stroke="#191970" points="588.7129,-186.7219 579.3013,-191.5874 589.6929,-193.653 588.7129,-186.7219"/>
</g>
<!-- Node12 -->
<g id="node12" class="node">
<title>Node12</title>
<g id="a_node12"><a xlink:href="helios__float_8h.html" target="_top" xlink:title=" ">
<polygon fill="#ffffff" stroke="#000000" points="904.7547,-123.5 904.7547,-153.5 1007.7547,-153.5 1007.7547,-123.5 904.7547,-123.5"/>
<text text-anchor="start" x="912.7547" y="-141.5" font-family="Helvetica,sans-Serif" font-size="10.00" fill="#000000">builtins/float/include</text>
<text text-anchor="middle" x="956.2547" y="-130.5" font-family="Helvetica,sans-Serif" font-size="10.00" fill="#000000">/helios_float.h</text>
</a>
</g>
</g>
<!-- Node10&#45;&gt;Node12 -->
<g id="edge13" class="edge">
<title>Node10&#45;&gt;Node12</title>
<path fill="none" stroke="#191970" d="M589.3152,-189.9519C725.7043,-166.3494 763.9504,-178.702 896.2547,-154 899.0045,-153.4866 901.8145,-152.9176 904.6444,-152.3096"/>
<polygon fill="#191970" stroke="#191970" points="588.5629,-186.5305 579.3229,-191.7144 589.7789,-193.4241 588.5629,-186.5305"/>
</g>
<!-- Node13 -->
<g id="node13" class="node">
<title>Node13</title>
<g id="a_node13"><a xlink:href="helios__integer__math_8c.html" target="_top" xlink:title=" ">
<polygon fill="#ffffff" stroke="#000000" points="902.2547,-56.5 902.2547,-86.5 1010.2547,-86.5 1010.2547,-56.5 902.2547,-56.5"/>
<text text-anchor="start" x="910.2547" y="-74.5" font-family="Helvetica,sans-Serif" font-size="10.00" fill="#000000">builtins/integer/helios</text>
<text text-anchor="middle" x="956.2547" y="-63.5" font-family="Helvetica,sans-Serif" font-size="10.00" fill="#000000">_integer_math.c</text>
</a>
</g>
</g>
<!-- Node10&#45;&gt;Node13 -->
<g id="edge22" class="edge">
<title>Node10&#45;&gt;Node13</title>
<path fill="none" stroke="#191970" d="M589.5575,-190.352C668.8384,-182.9175 986.4569,-187.4905 1017.2547,-154 1037.3908,-132.1035 1005.2969,-103.667 980.5478,-86.5413"/>
<polygon fill="#191970" stroke="#191970" points="588.8077,-186.9173 579.3032,-191.5987 589.6525,-193.8661 588.8077,-186.9173"/>
</g>
<!-- Node14 -->
<g id="node14" class="node">
<title>Node14</title>
<g id="a_node14"><a xlink:href="helios__hashmap_8h.html" target="_top" xlink:title=" ">
<polygon fill="#ffffff" stroke="#000000" points="593.2547,-123.5 593.2547,-153.5 717.2547,-153.5 717.2547,-123.5 593.2547,-123.5"/>
<text text-anchor="start" x="601.2547" y="-141.5" font-family="Helvetica,sans-Serif" font-size="10.00" fill="#000000">builtins/hashmap/include</text>
<text text-anchor="middle" x="655.2547" y="-130.5" font-family="Helvetica,sans-Serif" font-size="10.00" fill="#000000">/helios_hashmap.h</text>
</a>
</g>
</g>
<!-- Node10&#45;&gt;Node14 -->
<g id="edge18" class="edge">
<title>Node10&#45;&gt;Node14</title>
<path fill="none" stroke="#191970" d="M562.8229,-185.7743C582.846,-175.5335 606.9349,-163.2132 625.5006,-153.7177"/>
<polygon fill="#191970" stroke="#191970" points="560.9631,-182.7942 553.6537,-190.4639 564.1506,-189.0264 560.9631,-182.7942"/>
</g>
<!-- Node15 -->
<g id="node15" class="node">
<title>Node15</title>
<g id="a_node15"><a xlink:href="helios__integer_8h.html" target="_top" xlink:title=" ">
<polygon fill="#ffffff" stroke="#000000" points="773.7547,-123.5 773.7547,-153.5 886.7547,-153.5 886.7547,-123.5 773.7547,-123.5"/>
<text text-anchor="start" x="781.7547" y="-141.5" font-family="Helvetica,sans-Serif" font-size="10.00" fill="#000000">builtins/integer/include</text>
<text text-anchor="middle" x="830.2547" y="-130.5" font-family="Helvetica,sans-Serif" font-size="10.00" fill="#000000">/helios_integer.h</text>
</a>
</g>
</g>
<!-- Node10&#45;&gt;Node15 -->
<g id="edge23" class="edge">
<title>Node10&#45;&gt;Node15</title>
<path fill="none" stroke="#191970" d="M589.4787,-189.7578C665.6844,-172.6232 686.4295,-169.6148 759.2547,-154 763.9425,-152.9949 768.803,-151.9466 773.6817,-150.8902"/>
<polygon fill="#191970" stroke="#191970" points="588.3717,-186.4195 579.388,-192.0359 589.9133,-193.2477 588.3717,-186.4195"/>
</g>
<!-- Node16 -->
<g id="node16" class="node">
<title>Node16</title>
<g id="a_node16"><a xlink:href="helios__string_8h.html" target="_top" xlink:title=" ">
<polygon fill="#ffffff" stroke="#000000" points="429.2547,-123.5 429.2547,-153.5 537.2547,-153.5 537.2547,-123.5 429.2547,-123.5"/>
<text text-anchor="start" x="437.2547" y="-141.5" font-family="Helvetica,sans-Serif" font-size="10.00" fill="#000000">builtins/string/include</text>
<text text-anchor="middle" x="483.2547" y="-130.5" font-family="Helvetica,sans-Serif" font-size="10.00" fill="#000000">/helios_string.h</text>
</a>
</g>
</g>
<!-- Node10&#45;&gt;Node16 -->
<g id="edge30" class="edge">
<title>Node10&#45;&gt;Node16</title>
<path fill="none" stroke="#191970" d="M509.5582,-181.4837C503.8769,-172.1996 497.5475,-161.8565 492.5214,-153.6432"/>
<polygon fill="#191970" stroke="#191970" points="506.7461,-183.5939 514.9512,-190.2967 512.7169,-179.9401 506.7461,-183.5939"/>
</g>
<!-- Node10&#45;&gt;Node17 -->
<g id="edge35" class="edge">
<title>Node10&#45;&gt;Node17</title>
<path fill="none" stroke="#191970" d="M459.2721,-196.1588C397.6992,-186.9061 302.7753,-171.6 221.2547,-154 213.1801,-152.2567 204.5487,-150.1368 196.4494,-148.0316"/>
<polygon fill="#191970" stroke="#191970" points="458.8299,-199.6315 469.2373,-197.6472 459.864,-192.7083 458.8299,-199.6315"/>
</g>
<!-- Node12&#45;&gt;Node2 -->
<g id="edge16" class="edge">
<title>Node12&#45;&gt;Node2</title>
<path fill="none" stroke="#191970" d="M916.9951,-118.8702C892.1371,-106.4412 861.0921,-90.9187 841.4626,-81.1039"/>
<polygon fill="#191970" stroke="#191970" points="915.673,-122.1222 926.1825,-123.4639 918.8035,-115.8612 915.673,-122.1222"/>
</g>
<!-- Node12&#45;&gt;Node5 -->
<g id="edge14" class="edge">
<title>Node12&#45;&gt;Node5</title>
<path fill="none" stroke="#191970" d="M894.8079,-122.8044C789.7898,-101.4924 677.2153,-85.7529 614.3178,-77.597"/>
<polygon fill="#191970" stroke="#191970" points="894.1202,-126.2362 904.6195,-124.8167 895.5266,-119.3789 894.1202,-126.2362"/>
</g>
<!-- Node12&#45;&gt;Node11 -->
<g id="edge15" class="edge">
<title>Node12&#45;&gt;Node11</title>
<path fill="none" stroke="#191970" d="M992.3818,-118.4958C1010.7757,-108.3107 1032.7787,-96.1272 1049.7719,-86.7177"/>
<polygon fill="#191970" stroke="#191970" points="990.4624,-115.5578 983.4095,-123.4639 993.8534,-121.6816 990.4624,-115.5578"/>
</g>
<!-- Node12&#45;&gt;Node13 -->
<g id="edge17" class="edge">
<title>Node12&#45;&gt;Node13</title>
<path fill="none" stroke="#191970" d="M956.2547,-113.0249C956.2547,-104.128 956.2547,-94.4287 956.2547,-86.6432"/>
<polygon fill="#191970" stroke="#191970" points="952.7548,-113.2966 956.2547,-123.2967 959.7548,-113.2967 952.7548,-113.2966"/>
</g>
<!-- Node14&#45;&gt;Node2 -->
<g id="edge19" class="edge">
<title>Node14&#45;&gt;Node2</title>
<path fill="none" stroke="#191970" d="M702.1471,-119.6869C733.4512,-107.1278 773.3141,-91.1349 798.3166,-81.1039"/>
<polygon fill="#191970" stroke="#191970" points="700.7105,-116.492 692.7328,-123.4639 703.317,-122.9887 700.7105,-116.492"/>
</g>
<!-- Node15&#45;&gt;Node2 -->
<g id="edge25" class="edge">
<title>Node15&#45;&gt;Node2</title>
<path fill="none" stroke="#191970" d="M827.2243,-113.1199C825.8854,-101.9072 824.3924,-89.4031 823.3956,-81.055"/>
<polygon fill="#191970" stroke="#191970" points="823.7784,-113.7822 828.4394,-123.2967 830.729,-112.9522 823.7784,-113.7822"/>
</g>
<!-- Node15&#45;&gt;Node6 -->
<g id="edge26" class="edge">
<title>Node15&#45;&gt;Node6</title>
<path fill="none" stroke="#191970" d="M763.7324,-128.5613C683.9594,-116.5256 555.0241,-96.6672 507.2547,-87 504.3844,-86.4191 501.4472,-85.7963 498.4864,-85.1462"/>
<polygon fill="#191970" stroke="#191970" points="763.2782,-132.0323 773.6881,-130.0613 764.3211,-125.1104 763.2782,-132.0323"/>
</g>
<!-- Node15&#45;&gt;Node11 -->
<g id="edge24" class="edge">
<title>Node15&#45;&gt;Node11</title>
<path fill="none" stroke="#191970" d="M895.4341,-120.8198C936.935,-109.5624 989.841,-95.2114 1027.8689,-84.8962"/>
<polygon fill="#191970" stroke="#191970" points="894.4213,-117.4679 885.6863,-123.4639 896.2539,-124.2238 894.4213,-117.4679"/>
</g>
<!-- Node15&#45;&gt;Node13 -->
<g id="edge27" class="edge">
<title>Node15&#45;&gt;Node13</title>
<path fill="none" stroke="#191970" d="M867.6125,-118.6352C886.8192,-108.422 909.86,-96.1702 927.6363,-86.7177"/>
<polygon fill="#191970" stroke="#191970" points="865.7177,-115.6786 858.5316,-123.4639 869.0042,-121.8591 865.7177,-115.6786"/>
</g>
<!-- Node16&#45;&gt;Node2 -->
<g id="edge32" class="edge">
<title>Node16&#45;&gt;Node2</title>
<path fill="none" stroke="#191970" d="M547.2165,-125.8586C613.2016,-112.8173 714.6281,-92.7713 774.117,-81.014"/>
<polygon fill="#191970" stroke="#191970" points="546.4767,-122.437 537.3451,-127.8096 547.834,-129.3042 546.4767,-122.437"/>
</g>
<!-- Node16&#45;&gt;Node5 -->
<g id="edge31" class="edge">
<title>Node16&#45;&gt;Node5</title>
<path fill="none" stroke="#191970" d="M509.8364,-116.7808C521.8825,-106.9383 535.8315,-95.541 546.7213,-86.6432"/>
<polygon fill="#191970" stroke="#191970" points="507.3911,-114.2591 501.8618,-123.2967 511.8201,-119.6797 507.3911,-114.2591"/>
</g>
<!-- Node16&#45;&gt;Node6 -->
<g id="edge33" class="edge">
<title>Node16&#45;&gt;Node6</title>
<path fill="none" stroke="#191970" d="M469.2751,-114.4837C463.8709,-105.1996 457.8503,-94.8565 453.0694,-86.6432"/>
<polygon fill="#191970" stroke="#191970" points="466.3494,-116.4149 474.405,-123.2967 472.3992,-112.8934 466.3494,-116.4149"/>
</g>
<!-- Node16&#45;&gt;Node7 -->
<g id="edge34" class="edge">
<title>Node16&#45;&gt;Node7</title>
<path fill="none" stroke="#191970" d="M437.249,-119.5897C411.8553,-109.1518 380.7482,-96.3654 356.9947,-86.6017"/>
<polygon fill="#191970" stroke="#191970" points="436.0946,-122.8992 446.6743,-123.4639 438.7559,-116.4248 436.0946,-122.8992"/>
</g>
</g>
</svg>
        <g id="navigator" transform="translate(0 0)" fill="#404254">
                <rect fill="#f2f5e9" fill-opacity="0.5" stroke="#606060" stroke-width=".5" x="0" y="0" width="60" height="60"/>
                <use id="zoomplus" xlink:href="#zoomPlus" x="17" y="9" onmousedown="handleZoom(evt,'in')"/>
                <use id="zoomminus" xlink:href="#zoomMin" x="42" y="9" onmousedown="handleZoom(evt,'out')"/>
                <use id="reset" xlink:href="#resetDef" x="30" y="36" onmousedown="handleReset()"/>
                <g id="arrowUp" xlink:href="#dirArrow" transform="translate(30 24)" onmousedown="handlePan(0,-1)">
                  <use xlink:href="#rim" fill="#404040">
                        <set attributeName="fill" to="#808080" begin="arrowUp.mouseover" end="arrowUp.mouseout"/>
                  </use>
                  <path fill="none" stroke="white" stroke-width="1.5" d="M0,-3.0v7 M-2.5,-0.5L0,-3.0L2.5,-0.5"/>
                </g>
                <g id="arrowRight" xlink:href="#dirArrow" transform="rotate(90) translate(36 -43)" onmousedown="handlePan(1,0)">
                  <use xlink:href="#rim" fill="#404040">
                        <set attributeName="fill" to="#808080" begin="arrowRight.mouseover" end="arrowRight.mouseout"/>
                  </use>
                  <path fill="none" stroke="white" stroke-width="1.5" d="M0,-3.0v7 M-2.5,-0.5L0,-3.0L2.5,-0.5"/>
                </g>
                <g id="arrowDown" xlink:href="#dirArrow" transform="rotate(180) translate(-30 -48)" onmousedown="handlePan(0,1)">
                  <use xlink:href="#rim" fill="#404040">
                        <set attributeName="fill" to="#808080" begin="arrowDown.mouseover" end="arrowDown.mouseout"/>
                  </use>
                  <path fill="none" stroke="white" stroke-width="1.5" d="M0,-3.0v7 M-2.5,-0.5L0,-3.0L2.5,-0.5"/>
                </g>
                <g id="arrowLeft" xlink:href="#dirArrow" transform="rotate(270) translate(-36 17)" onmousedown="handlePan(-1,0)">
                  <use xlink:href="#rim" fill="#404040">
                        <set attributeName="fill" to="#808080" begin="arrowLeft.mouseover" end="arrowLeft.mouseout"/>
                  </use>
                  <path fill="none" stroke="white" stroke-width="1.5" d="M0,-3.0v7 M-2.5,-0.5L0,-3.0L2.5,-0.5"/>
                </g>
        </g>
        <svg viewBox="0 0 15 15" width="100%" height="30px" preserveAspectRatio="xMaxYMin meet">
         <g id="arrow_out" transform="scale(0.3 0.3)">
          <a xlink:href="builtinutils_8h__dep__incl_org.svg" target="_base">
           <rect id="button" ry="5" rx="5" y="6" x="6" height="38" width="38"
                fill="#f2f5e9" fill-opacity="0.5" stroke="#606060" stroke-width="1.0"/>
           <path id="arrow"
             d="M 11.500037,31.436501 C 11.940474,20.09759 22.043105,11.32322 32.158766,21.979434 L 37.068811,17.246167 C 37.068811,17.246167 37.088388,32 37.088388,32 L 22.160133,31.978069 C 22.160133,31.978069 26.997745,27.140456 26.997745,27.140456 C 18.528582,18.264221 13.291696,25.230495 11.500037,31.436501 z"
             style="fill:#404040;"/>
          </a>
         </g>
        </svg>
</svg>
