<?xml version="1.0" encoding="UTF-8" standalone="no"?>
<!DOCTYPE svg PUBLIC "-//W3C//DTD SVG 1.1//EN"
 "http://www.w3.org/Graphics/SVG/1.1/DTD/svg11.dtd">
<!-- Generated by graphviz version 2.40.1 (20161225.0304)
 -->
<!-- Title: builtins/include/builtinutils.h Pages: 1 -->
<svg width="890pt" height="419pt"
 viewBox="0.00 0.00 889.50 419.00" xmlns="http://www.w3.org/2000/svg" xmlns:xlink="http://www.w3.org/1999/xlink">
<g id="graph0" class="graph" transform="scale(1 1) rotate(0) translate(4 415)">
<title>builtins/include/builtinutils.h</title>
<polygon fill="#ffffff" stroke="transparent" points="-4,4 -4,-415 885.5,-415 885.5,4 -4,4"/>
<!-- Node1 -->
<g id="node1" class="node">
<title>Node1</title>
<g id="a_node1"><a xlink:title=" ">
<polygon fill="#bfbfbf" stroke="#000000" points="697.5,-391.5 697.5,-410.5 833.5,-410.5 833.5,-391.5 697.5,-391.5"/>
<text text-anchor="middle" x="765.5" y="-398.5" font-family="Helvetica,sans-Serif" font-size="10.00" fill="#000000">builtins/include/builtinutils.h</text>
</a>
</g>
</g>
<!-- Node2 -->
<g id="node2" class="node">
<title>Node2</title>
<g id="a_node2"><a xlink:href="builtins_8h.html" target="_top" xlink:title=" ">
<polygon fill="#ffffff" stroke="#000000" points="437,-62 437,-81 560,-81 560,-62 437,-62"/>
<text text-anchor="middle" x="498.5" y="-69" font-family="Helvetica,sans-Serif" font-size="10.00" fill="#000000">builtins/include/builtins.h</text>
</a>
</g>
</g>
<!-- Node1&#45;&gt;Node2 -->
<g id="edge1" class="edge">
<title>Node1&#45;&gt;Node2</title>
<path fill="none" stroke="#191970" d="M793.2342,-386.1977C827.5494,-365.6382 881.5,-324.9708 881.5,-272.5 881.5,-272.5 881.5,-272.5 881.5,-205.5 881.5,-165.6701 878.0081,-147.3651 846.5,-123 802.8965,-89.2815 647.7777,-77.5089 560.0744,-73.4977"/>
<polygon fill="#191970" stroke="#191970" points="791.0432,-383.4215 784.1374,-391.4565 794.5466,-389.4818 791.0432,-383.4215"/>
</g>
<!-- Node4 -->
<g id="node4" class="node">
<title>Node4</title>
<g id="a_node4"><a xlink:href="helios__memory_8h.html" target="_top" xlink:title=" ">
<polygon fill="#ffffff" stroke="#000000" points="651.5,-324.5 651.5,-354.5 765.5,-354.5 765.5,-324.5 651.5,-324.5"/>
<text text-anchor="start" x="659.5" y="-342.5" font-family="Helvetica,sans-Serif" font-size="10.00" fill="#000000">memory/include/helios</text>
<text text-anchor="middle" x="708.5" y="-331.5" font-family="Helvetica,sans-Serif" font-size="10.00" fill="#000000">_memory.h</text>
</a>
</g>
</g>
<!-- Node1&#45;&gt;Node4 -->
<g id="edge3" class="edge">
<title>Node1&#45;&gt;Node4</title>
<path fill="none" stroke="#191970" d="M749.6803,-383.9314C741.1357,-374.7122 730.6809,-363.4321 722.4438,-354.5446"/>
<polygon fill="#191970" stroke="#191970" points="747.2291,-386.4355 756.5938,-391.3906 752.3631,-381.6771 747.2291,-386.4355"/>
</g>
<!-- Node3 -->
<g id="node3" class="node">
<title>Node3</title>
<g id="a_node3"><a xlink:href="test_8c.html" target="_top" xlink:title=" ">
<polygon fill="#ffffff" stroke="#000000" points="468,-.5 468,-19.5 529,-19.5 529,-.5 468,-.5"/>
<text text-anchor="middle" x="498.5" y="-7.5" font-family="Helvetica,sans-Serif" font-size="10.00" fill="#000000">test/test.c</text>
</a>
</g>
</g>
<!-- Node2&#45;&gt;Node3 -->
<g id="edge2" class="edge">
<title>Node2&#45;&gt;Node3</title>
<path fill="none" stroke="#191970" d="M498.5,-51.7462C498.5,-41.0519 498.5,-28.314 498.5,-19.7449"/>
<polygon fill="#191970" stroke="#191970" points="495.0001,-51.8906 498.5,-61.8906 502.0001,-51.8907 495.0001,-51.8906"/>
</g>
<!-- Node4&#45;&gt;Node2 -->
<g id="edge4" class="edge">
<title>Node4&#45;&gt;Node2</title>
<path fill="none" stroke="#191970" d="M736.0078,-317.8382C785.1046,-276.6304 877.8974,-185.495 824.5,-123 807.5642,-103.1788 649.9381,-85.5111 560.2257,-76.9532"/>
<polygon fill="#191970" stroke="#191970" points="733.7323,-315.1782 728.2471,-324.2426 738.1877,-320.5772 733.7323,-315.1782"/>
</g>
<!-- Node5 -->
<g id="node5" class="node">
<title>Node5</title>
<g id="a_node5"><a xlink:href="helios__integer_8c.html" target="_top" xlink:title=" ">
<polygon fill="#ffffff" stroke="#000000" points="141.5,-56.5 141.5,-86.5 249.5,-86.5 249.5,-56.5 141.5,-56.5"/>
<text text-anchor="start" x="149.5" y="-74.5" font-family="Helvetica,sans-Serif" font-size="10.00" fill="#000000">builtins/integer/helios</text>
<text text-anchor="middle" x="195.5" y="-63.5" font-family="Helvetica,sans-Serif" font-size="10.00" fill="#000000">_integer.c</text>
</a>
</g>
</g>
<!-- Node4&#45;&gt;Node5 -->
<g id="edge5" class="edge">
<title>Node4&#45;&gt;Node5</title>
<path fill="none" stroke="#191970" d="M641.3706,-330.1705C492.017,-307.8975 139.9286,-246.4902 70.5,-154 46.3047,-121.7679 97.2324,-98.323 141.1837,-84.8406"/>
<polygon fill="#191970" stroke="#191970" points="640.9344,-333.644 651.3387,-331.6437 641.9579,-326.7192 640.9344,-333.644"/>
</g>
<!-- Node6 -->
<g id="node6" class="node">
<title>Node6</title>
<g id="a_node6"><a xlink:href="helios__string_8c.html" target="_top" xlink:title=" ">
<polygon fill="#ffffff" stroke="#000000" points="0,-56.5 0,-86.5 103,-86.5 103,-56.5 0,-56.5"/>
<text text-anchor="start" x="8" y="-74.5" font-family="Helvetica,sans-Serif" font-size="10.00" fill="#000000">builtins/string/helios</text>
<text text-anchor="middle" x="51.5" y="-63.5" font-family="Helvetica,sans-Serif" font-size="10.00" fill="#000000">_string.c</text>
</a>
</g>
</g>
<!-- Node4&#45;&gt;Node6 -->
<g id="edge6" class="edge">
<title>Node4&#45;&gt;Node6</title>
<path fill="none" stroke="#191970" d="M641.3236,-336.737C556.3762,-332.0322 406.158,-319.6626 281.5,-288 203.1881,-268.1091 177.109,-269.5187 112.5,-221 82.3587,-198.3651 74.6331,-188.9442 60.5,-154 51.5325,-131.8277 50.4105,-103.7212 50.7299,-86.6993"/>
<polygon fill="#191970" stroke="#191970" points="641.1806,-340.2342 651.3533,-337.2735 641.5546,-333.2442 641.1806,-340.2342"/>
</g>
<!-- Node7 -->
<g id="node7" class="node">
<title>Node7</title>
<g id="a_node7"><a xlink:href="helios__type_8h.html" target="_top" xlink:title=" ">
<polygon fill="#ffffff" stroke="#000000" points="598,-257.5 598,-287.5 701,-287.5 701,-257.5 598,-257.5"/>
<text text-anchor="start" x="606" y="-275.5" font-family="Helvetica,sans-Serif" font-size="10.00" fill="#000000">builtins/type/include</text>
<text text-anchor="middle" x="649.5" y="-264.5" font-family="Helvetica,sans-Serif" font-size="10.00" fill="#000000">/helios_type.h</text>
</a>
</g>
</g>
<!-- Node4&#45;&gt;Node7 -->
<g id="edge7" class="edge">
<title>Node4&#45;&gt;Node7</title>
<path fill="none" stroke="#191970" d="M688.3682,-316.6385C679.9381,-307.0653 670.369,-296.1987 662.835,-287.6432"/>
<polygon fill="#191970" stroke="#191970" points="685.8764,-319.1048 695.112,-324.2967 691.1299,-314.4786 685.8764,-319.1048"/>
</g>
<!-- Node14 -->
<g id="node14" class="node">
<title>Node14</title>
<g id="a_node14"><a xlink:href="refcount_8c.html" target="_top" xlink:title=" ">
<polygon fill="#ffffff" stroke="#000000" points="717.5,-129 717.5,-148 815.5,-148 815.5,-129 717.5,-129"/>
<text text-anchor="middle" x="766.5" y="-136" font-family="Helvetica,sans-Serif" font-size="10.00" fill="#000000">memory/refcount.c</text>
</a>
</g>
</g>
<!-- Node4&#45;&gt;Node14 -->
<g id="edge27" class="edge">
<title>Node4&#45;&gt;Node14</title>
<path fill="none" stroke="#191970" d="M717.4181,-314.6431C725.7946,-290.8052 738.3714,-253.7099 747.5,-221 754.7696,-194.9513 761.4046,-163.728 764.5617,-148.2254"/>
<polygon fill="#191970" stroke="#191970" points="714.0381,-313.7029 714.0001,-324.2977 720.6368,-316.0391 714.0381,-313.7029"/>
</g>
<!-- Node8 -->
<g id="node8" class="node">
<title>Node8</title>
<g id="a_node8"><a xlink:href="helios__object_8c.html" target="_top" xlink:title=" ">
<polygon fill="#ffffff" stroke="#000000" points="594,-123.5 594,-153.5 699,-153.5 699,-123.5 594,-123.5"/>
<text text-anchor="start" x="602" y="-141.5" font-family="Helvetica,sans-Serif" font-size="10.00" fill="#000000">builtins/object/helios</text>
<text text-anchor="middle" x="646.5" y="-130.5" font-family="Helvetica,sans-Serif" font-size="10.00" fill="#000000">_object.c</text>
</a>
</g>
</g>
<!-- Node7&#45;&gt;Node8 -->
<g id="edge8" class="edge">
<title>Node7&#45;&gt;Node8</title>
<path fill="none" stroke="#191970" d="M638.9084,-247.6081C635.8886,-239.3025 633.0098,-229.8957 631.5,-221 629.1946,-207.4165 629.5541,-203.6397 631.5,-190 633.2888,-177.462 637.4104,-163.7109 640.8813,-153.5743"/>
<polygon fill="#191970" stroke="#191970" points="635.7034,-249.024 642.5793,-257.0846 642.2308,-246.4954 635.7034,-249.024"/>
</g>
<!-- Node9 -->
<g id="node9" class="node">
<title>Node9</title>
<g id="a_node9"><a xlink:href="helios__object_8h.html" target="_top" xlink:title=" ">
<polygon fill="#ffffff" stroke="#000000" points="349.5,-190.5 349.5,-220.5 459.5,-220.5 459.5,-190.5 349.5,-190.5"/>
<text text-anchor="start" x="357.5" y="-208.5" font-family="Helvetica,sans-Serif" font-size="10.00" fill="#000000">builtins/object/include</text>
<text text-anchor="middle" x="404.5" y="-197.5" font-family="Helvetica,sans-Serif" font-size="10.00" fill="#000000">/helios_object.h</text>
</a>
</g>
</g>
<!-- Node7&#45;&gt;Node9 -->
<g id="edge9" class="edge">
<title>Node7&#45;&gt;Node9</title>
<path fill="none" stroke="#191970" d="M588.0573,-255.6973C548.5517,-244.8937 497.6635,-230.9774 459.4917,-220.5386"/>
<polygon fill="#191970" stroke="#191970" points="587.2721,-259.111 597.8412,-258.3729 589.1186,-252.3589 587.2721,-259.111"/>
</g>
<!-- Node15 -->
<g id="node15" class="node">
<title>Node15</title>
<g id="a_node15"><a xlink:href="helios__type_8c.html" target="_top" xlink:title=" ">
<polygon fill="#ffffff" stroke="#000000" points="640.5,-190.5 640.5,-220.5 738.5,-220.5 738.5,-190.5 640.5,-190.5"/>
<text text-anchor="start" x="648.5" y="-208.5" font-family="Helvetica,sans-Serif" font-size="10.00" fill="#000000">builtins/type/helios</text>
<text text-anchor="middle" x="689.5" y="-197.5" font-family="Helvetica,sans-Serif" font-size="10.00" fill="#000000">_type.c</text>
</a>
</g>
</g>
<!-- Node7&#45;&gt;Node15 -->
<g id="edge26" class="edge">
<title>Node7&#45;&gt;Node15</title>
<path fill="none" stroke="#191970" d="M663.8381,-248.4837C669.3808,-239.1996 675.5558,-228.8565 680.4593,-220.6432"/>
<polygon fill="#191970" stroke="#191970" points="660.6976,-246.9163 658.5766,-257.2967 666.7079,-250.5046 660.6976,-246.9163"/>
</g>
<!-- Node9&#45;&gt;Node2 -->
<g id="edge12" class="edge">
<title>Node9&#45;&gt;Node2</title>
<path fill="none" stroke="#191970" d="M413.0704,-180.3968C419.6045,-163.2877 429.6616,-140.629 442.5,-123 454.63,-106.3436 472.7715,-90.8633 485.0936,-81.3109"/>
<polygon fill="#191970" stroke="#191970" points="409.6186,-179.6443 409.4638,-190.238 416.1911,-182.053 409.6186,-179.6443"/>
</g>
<!-- Node9&#45;&gt;Node5 -->
<g id="edge13" class="edge">
<title>Node9&#45;&gt;Node5</title>
<path fill="none" stroke="#191970" d="M339.3999,-191.5445C298.511,-181.7064 250.5727,-167.8619 234.5,-154 213.8649,-136.2033 203.353,-105.0791 198.6763,-86.5699"/>
<polygon fill="#191970" stroke="#191970" points="338.8117,-195.0018 349.3484,-193.894 340.4207,-188.1892 338.8117,-195.0018"/>
</g>
<!-- Node9&#45;&gt;Node6 -->
<g id="edge20" class="edge">
<title>Node9&#45;&gt;Node6</title>
<path fill="none" stroke="#191970" d="M339.304,-203.9004C253.3354,-200.4099 108.4975,-189.3072 70.5,-154 51.9805,-136.7918 49.7697,-105.4653 50.3127,-86.76"/>
<polygon fill="#191970" stroke="#191970" points="339.3586,-207.4049 349.485,-204.2894 339.626,-200.41 339.3586,-207.4049"/>
</g>
<!-- Node9&#45;&gt;Node8 -->
<g id="edge19" class="edge">
<title>Node9&#45;&gt;Node8</title>
<path fill="none" stroke="#191970" d="M468.4973,-187.7817C507.526,-176.9763 556.8105,-163.3314 593.6199,-153.1404"/>
<polygon fill="#191970" stroke="#191970" points="467.5131,-184.4225 458.8095,-190.4639 469.3809,-191.1687 467.5131,-184.4225"/>
</g>
<!-- Node10 -->
<g id="node10" class="node">
<title>Node10</title>
<g id="a_node10"><a xlink:href="helios__hashmap_8h.html" target="_top" xlink:title=" ">
<polygon fill="#ffffff" stroke="#000000" points="451.5,-123.5 451.5,-153.5 575.5,-153.5 575.5,-123.5 451.5,-123.5"/>
<text text-anchor="start" x="459.5" y="-141.5" font-family="Helvetica,sans-Serif" font-size="10.00" fill="#000000">builtins/hashmap/include</text>
<text text-anchor="middle" x="513.5" y="-130.5" font-family="Helvetica,sans-Serif" font-size="10.00" fill="#000000">/helios_hashmap.h</text>
</a>
</g>
</g>
<!-- Node9&#45;&gt;Node10 -->
<g id="edge10" class="edge">
<title>Node9&#45;&gt;Node10</title>
<path fill="none" stroke="#191970" d="M437.727,-185.0761C454.1561,-174.9774 473.6445,-162.9983 488.7428,-153.7177"/>
<polygon fill="#191970" stroke="#191970" points="435.6482,-182.2455 428.9617,-190.4639 439.3138,-188.209 435.6482,-182.2455"/>
</g>
<!-- Node11 -->
<g id="node11" class="node">
<title>Node11</title>
<g id="a_node11"><a xlink:href="helios__integer__math_8c.html" target="_top" xlink:title=" ">
<polygon fill="#ffffff" stroke="#000000" points="296.5,-56.5 296.5,-86.5 404.5,-86.5 404.5,-56.5 296.5,-56.5"/>
<text text-anchor="start" x="304.5" y="-74.5" font-family="Helvetica,sans-Serif" font-size="10.00" fill="#000000">builtins/integer/helios</text>
<text text-anchor="middle" x="350.5" y="-63.5" font-family="Helvetica,sans-Serif" font-size="10.00" fill="#000000">_integer_math.c</text>
</a>
</g>
</g>
<!-- Node9&#45;&gt;Node11 -->
<g id="edge14" class="edge">
<title>Node9&#45;&gt;Node11</title>
<path fill="none" stroke="#191970" d="M394.6545,-181.0686C383.577,-153.58 365.9235,-109.7732 356.6501,-86.7614"/>
<polygon fill="#191970" stroke="#191970" points="391.4263,-182.422 398.4105,-190.389 397.919,-179.8055 391.4263,-182.422"/>
</g>
<!-- Node12 -->
<g id="node12" class="node">
<title>Node12</title>
<g id="a_node12"><a xlink:href="helios__integer_8h.html" target="_top" xlink:title=" ">
<polygon fill="#ffffff" stroke="#000000" points="244,-123.5 244,-153.5 357,-153.5 357,-123.5 244,-123.5"/>
<text text-anchor="start" x="252" y="-141.5" font-family="Helvetica,sans-Serif" font-size="10.00" fill="#000000">builtins/integer/include</text>
<text text-anchor="middle" x="300.5" y="-130.5" font-family="Helvetica,sans-Serif" font-size="10.00" fill="#000000">/helios_integer.h</text>
</a>
</g>
</g>
<!-- Node9&#45;&gt;Node12 -->
<g id="edge15" class="edge">
<title>Node9&#45;&gt;Node12</title>
<path fill="none" stroke="#191970" d="M372.361,-184.7951C356.7777,-174.7558 338.3939,-162.9124 324.1216,-153.7177"/>
<polygon fill="#191970" stroke="#191970" points="370.8583,-187.9904 381.1604,-190.4639 374.6494,-182.1058 370.8583,-187.9904"/>
</g>
<!-- Node13 -->
<g id="node13" class="node">
<title>Node13</title>
<g id="a_node13"><a xlink:href="helios__string_8h.html" target="_top" xlink:title=" ">
<polygon fill="#ffffff" stroke="#000000" points="79.5,-123.5 79.5,-153.5 187.5,-153.5 187.5,-123.5 79.5,-123.5"/>
<text text-anchor="start" x="87.5" y="-141.5" font-family="Helvetica,sans-Serif" font-size="10.00" fill="#000000">builtins/string/include</text>
<text text-anchor="middle" x="133.5" y="-130.5" font-family="Helvetica,sans-Serif" font-size="10.00" fill="#000000">/helios_string.h</text>
</a>
</g>
</g>
<!-- Node9&#45;&gt;Node13 -->
<g id="edge21" class="edge">
<title>Node9&#45;&gt;Node13</title>
<path fill="none" stroke="#191970" d="M339.3802,-189.4003C292.9914,-177.9314 231.3682,-162.6962 187.6648,-151.8913"/>
<polygon fill="#191970" stroke="#191970" points="338.7847,-192.8584 349.3325,-191.8608 340.4648,-186.063 338.7847,-192.8584"/>
</g>
<!-- Node9&#45;&gt;Node14 -->
<g id="edge25" class="edge">
<title>Node9&#45;&gt;Node14</title>
<path fill="none" stroke="#191970" d="M469.4826,-196.1588C531.0555,-186.9061 625.9794,-171.6 707.5,-154 715.5747,-152.2567 724.206,-150.1368 732.3053,-148.0316"/>
<polygon fill="#191970" stroke="#191970" points="468.8907,-192.7083 459.5175,-197.6472 469.9248,-199.6315 468.8907,-192.7083"/>
</g>
<!-- Node10&#45;&gt;Node2 -->
<g id="edge11" class="edge">
<title>Node10&#45;&gt;Node2</title>
<path fill="none" stroke="#191970" d="M507.8954,-113.4663C505.3654,-102.1655 502.5274,-89.4891 500.6392,-81.055"/>
<polygon fill="#191970" stroke="#191970" points="504.496,-114.3029 510.0963,-123.2967 511.3269,-112.7735 504.496,-114.3029"/>
</g>
<!-- Node12&#45;&gt;Node2 -->
<g id="edge16" class="edge">
<title>Node12&#45;&gt;Node2</title>
<path fill="none" stroke="#191970" d="M354.6921,-120.1623C392.1333,-107.4928 440.4113,-91.1563 470.4098,-81.0053"/>
<polygon fill="#191970" stroke="#191970" points="353.2856,-116.9432 344.9351,-123.4639 355.5293,-123.5739 353.2856,-116.9432"/>
</g>
<!-- Node12&#45;&gt;Node5 -->
<g id="edge17" class="edge">
<title>Node12&#45;&gt;Node5</title>
<path fill="none" stroke="#191970" d="M268.4924,-118.0761C252.6661,-107.9774 233.8929,-95.9983 219.3487,-86.7177"/>
<polygon fill="#191970" stroke="#191970" points="266.6232,-121.0352 276.936,-123.4639 270.3887,-115.1342 266.6232,-121.0352"/>
</g>
<!-- Node12&#45;&gt;Node11 -->
<g id="edge18" class="edge">
<title>Node12&#45;&gt;Node11</title>
<path fill="none" stroke="#191970" d="M317.9906,-115.0626C325.0287,-105.6315 332.9421,-95.0276 339.1991,-86.6432"/>
<polygon fill="#191970" stroke="#191970" points="315.0216,-113.189 311.8458,-123.2967 320.6317,-117.3756 315.0216,-113.189"/>
</g>
<!-- Node13&#45;&gt;Node2 -->
<g id="edge22" class="edge">
<title>Node13&#45;&gt;Node2</title>
<path fill="none" stroke="#191970" d="M197.8894,-126.6806C268.7299,-113.677 381.1923,-93.0332 446.6136,-81.0244"/>
<polygon fill="#191970" stroke="#191970" points="196.9538,-123.2938 187.7501,-128.5418 198.2177,-130.1787 196.9538,-123.2938"/>
</g>
<!-- Node13&#45;&gt;Node5 -->
<g id="edge23" class="edge">
<title>Node13&#45;&gt;Node5</title>
<path fill="none" stroke="#191970" d="M154.39,-115.9253C163.3129,-106.2828 173.4907,-95.2843 181.4869,-86.6432"/>
<polygon fill="#191970" stroke="#191970" points="151.7918,-113.5798 147.5688,-123.2967 156.9296,-118.3342 151.7918,-113.5798"/>
</g>
<!-- Node13&#45;&gt;Node6 -->
<g id="edge24" class="edge">
<title>Node13&#45;&gt;Node6</title>
<path fill="none" stroke="#191970" d="M106.9183,-116.7808C94.8722,-106.9383 80.9233,-95.541 70.0334,-86.6432"/>
<polygon fill="#191970" stroke="#191970" points="104.9346,-119.6797 114.8929,-123.2967 109.3637,-114.2591 104.9346,-119.6797"/>
</g>
</g>
</svg>
