<?xml version="1.0" encoding="UTF-8" standalone="no"?>
<!DOCTYPE svg PUBLIC "-//W3C//DTD SVG 1.1//EN"
 "http://www.w3.org/Graphics/SVG/1.1/DTD/svg11.dtd">
<!-- Generated by graphviz version 2.40.1 (20161225.0304)
 -->
<!-- Title: main/builtins/include/builtins.h Pages: 1 -->
<!--zoomable 319 -->
<svg id="main" version="1.1" xmlns="http://www.w3.org/2000/svg" xmlns:xlink="http://www.w3.org/1999/xlink" xml:space="preserve" onload="init(evt)">
<style type="text/css"><![CDATA[
.edge:hover path { stroke: red; }
.edge:hover polygon { stroke: red; fill: red; }
]]></style>
<script type="text/javascript"><![CDATA[
var edges = document.getElementsByTagName('g');
if (edges && edges.length) {
  for (var i=0;i<edges.length;i++) {
    if (edges[i].id.substr(0,4)=='edge') {
      edges[i].setAttribute('class','edge');
    }
  }
}
]]></script>
        <defs>
                <circle id="rim" cx="0" cy="0" r="7"/>
                <circle id="rim2" cx="0" cy="0" r="3.5"/>
                <g id="zoomPlus">
                        <use xlink:href="#rim" fill="#404040">
                                <set attributeName="fill" to="#808080" begin="zoomplus.mouseover" end="zoomplus.mouseout"/>
                        </use>
                        <path d="M-4,0h8M0,-4v8" fill="none" stroke="white" stroke-width="1.5" pointer-events="none"/>
                </g>
                <g id="zoomMin">
                        <use xlink:href="#rim" fill="#404040">
                                <set attributeName="fill" to="#808080" begin="zoomminus.mouseover" end="zoomminus.mouseout"/>
                        </use>
                        <path d="M-4,0h8" fill="none" stroke="white" stroke-width="1.5" pointer-events="none"/>
                </g>
                <g id="dirArrow">
                        <path fill="none" stroke="white" stroke-width="1.5" d="M0,-3.0v7 M-2.5,-0.5L0,-3.0L2.5,-0.5"/>
                </g>
               <g id="resetDef">
                       <use xlink:href="#rim2" fill="#404040">
                               <set attributeName="fill" to="#808080" begin="reset.mouseover" end="reset.mouseout"/>
                       </use>
               </g>
        </defs>

<script type="text/javascript">
var viewWidth = 793;
var viewHeight = 319;
var sectionId = 'dynsection-0';
</script>
<script xlink:href="svgpan.js"/>
<svg id="graph" class="graph">
<g id="viewport">
<title>main/builtins/include/builtins.h</title>
<polygon fill="#ffffff" stroke="transparent" points="-4,4 -4,-315 788.5,-315 788.5,4 -4,4"/>
<!-- Node0 -->
<g id="node1" class="node">
<title>Node0</title>
<g id="a_node1"><a xlink:title=" ">
<polygon fill="#bfbfbf" stroke="#000000" points="240.5,-280.5 240.5,-310.5 359.5,-310.5 359.5,-280.5 240.5,-280.5"/>
<text text-anchor="start" x="248.5" y="-298.5" font-family="Helvetica,sans-Serif" font-size="10.00" fill="#000000">main/builtins/include</text>
<text text-anchor="middle" x="300" y="-287.5" font-family="Helvetica,sans-Serif" font-size="10.00" fill="#000000">/builtins.h</text>
</a>
</g>
</g>
<!-- Node1 -->
<g id="node2" class="node">
<title>Node1</title>
<g id="a_node2"><a xlink:href="builtinutils_8h.html" target="_top" xlink:title=" ">
<polygon fill="#ffffff" stroke="#000000" points="29.5,-.5 29.5,-19.5 106.5,-19.5 106.5,-.5 29.5,-.5"/>
<text text-anchor="middle" x="68" y="-7.5" font-family="Helvetica,sans-Serif" font-size="10.00" fill="#000000">builtinutils.h</text>
</a>
</g>
</g>
<!-- Node0&#45;&gt;Node1 -->
<g id="edge1" class="edge">
<title>Node0&#45;&gt;Node1</title>
<path fill="none" stroke="#191970" d="M240.4296,-290.5425C192.646,-284.6183 125.0355,-271.7491 72,-244 33.5365,-223.8753 0,-221.4102 0,-178 0,-178 0,-178 0,-122 0,-83.6435 29.5007,-47.2254 49.6402,-26.8326"/>
<polygon fill="#191970" stroke="#191970" points="52.353,-29.0762 57.0746,-19.5917 47.4689,-24.0616 52.353,-29.0762"/>
</g>
<!-- Node2 -->
<g id="node3" class="node">
<title>Node2</title>
<g id="a_node3"><a xlink:href="helios__boolean_8h.html" target="_top" xlink:title=" ">
<polygon fill="#ffffff" stroke="#000000" points="562.5,-224.5 562.5,-243.5 661.5,-243.5 661.5,-224.5 562.5,-224.5"/>
<text text-anchor="middle" x="612" y="-231.5" font-family="Helvetica,sans-Serif" font-size="10.00" fill="#000000">helios_boolean.h</text>
</a>
</g>
</g>
<!-- Node0&#45;&gt;Node2 -->
<g id="edge2" class="edge">
<title>Node0&#45;&gt;Node2</title>
<path fill="none" stroke="#191970" d="M359.7876,-283.7149C415.5901,-272.7154 498.3393,-256.4043 553.6673,-245.4983"/>
<polygon fill="#191970" stroke="#191970" points="554.5321,-248.8952 563.6664,-243.5273 553.1783,-242.0274 554.5321,-248.8952"/>
</g>
<!-- Node3 -->
<g id="node4" class="node">
<title>Node3</title>
<g id="a_node4"><a xlink:href="helios__object_8h.html" target="_top" xlink:title=" ">
<polygon fill="#ffffff" stroke="#000000" points="308,-168.5 308,-187.5 398,-187.5 398,-168.5 308,-168.5"/>
<text text-anchor="middle" x="353" y="-175.5" font-family="Helvetica,sans-Serif" font-size="10.00" fill="#000000">helios_object.h</text>
</a>
</g>
</g>
<!-- Node0&#45;&gt;Node3 -->
<g id="edge22" class="edge">
<title>Node0&#45;&gt;Node3</title>
<path fill="none" stroke="#191970" d="M240.4882,-288.5733C186.8194,-280.9569 113.6766,-266.6936 96,-244 90.5377,-236.9874 90.2951,-230.8166 96,-224 121.2147,-193.8715 230.1247,-183.4535 297.8191,-179.867"/>
<polygon fill="#191970" stroke="#191970" points="298.0873,-183.3581 307.9016,-179.3669 297.7405,-176.3667 298.0873,-183.3581"/>
</g>
<!-- Node5 -->
<g id="node6" class="node">
<title>Node5</title>
<g id="a_node6"><a xlink:href="helios__memory_8h.html" target="_top" xlink:title=" ">
<polygon fill="#ffffff" stroke="#000000" points="198,-56.5 198,-75.5 298,-75.5 298,-56.5 198,-56.5"/>
<text text-anchor="middle" x="248" y="-63.5" font-family="Helvetica,sans-Serif" font-size="10.00" fill="#000000">helios_memory.h</text>
</a>
</g>
</g>
<!-- Node0&#45;&gt;Node5 -->
<g id="edge25" class="edge">
<title>Node0&#45;&gt;Node5</title>
<path fill="none" stroke="#191970" d="M240.2828,-289.261C184.0755,-282.0107 105.7939,-267.8795 87,-244 36.4685,-179.7948 157.8027,-109.5162 217.3664,-80.1362"/>
<polygon fill="#191970" stroke="#191970" points="219.224,-83.1256 226.6996,-75.6178 216.1738,-76.8251 219.224,-83.1256"/>
</g>
<!-- Node10 -->
<g id="node11" class="node">
<title>Node10</title>
<g id="a_node11"><a xlink:href="helios__code_8h.html" target="_top" xlink:title=" ">
<polygon fill="#ffffff" stroke="#000000" points="104.5,-224.5 104.5,-243.5 187.5,-243.5 187.5,-224.5 104.5,-224.5"/>
<text text-anchor="middle" x="146" y="-231.5" font-family="Helvetica,sans-Serif" font-size="10.00" fill="#000000">helios_code.h</text>
</a>
</g>
</g>
<!-- Node0&#45;&gt;Node10 -->
<g id="edge13" class="edge">
<title>Node0&#45;&gt;Node10</title>
<path fill="none" stroke="#191970" d="M262.3274,-280.4554C236.9702,-270.329 203.8348,-257.0964 179.4174,-247.3453"/>
<polygon fill="#191970" stroke="#191970" points="180.4495,-243.9887 169.8645,-243.5303 177.8533,-250.4895 180.4495,-243.9887"/>
</g>
<!-- Node11 -->
<g id="node12" class="node">
<title>Node11</title>
<g id="a_node12"><a xlink:href="helios__float_8h.html" target="_top" xlink:title=" ">
<polygon fill="#ffffff" stroke="#000000" points="206,-224.5 206,-243.5 288,-243.5 288,-224.5 206,-224.5"/>
<text text-anchor="middle" x="247" y="-231.5" font-family="Helvetica,sans-Serif" font-size="10.00" fill="#000000">helios_float.h</text>
</a>
</g>
</g>
<!-- Node0&#45;&gt;Node11 -->
<g id="edge15" class="edge">
<title>Node0&#45;&gt;Node11</title>
<path fill="none" stroke="#191970" d="M286.8989,-280.2977C279.3887,-271.5831 269.93,-260.6075 262.1073,-251.5302"/>
<polygon fill="#191970" stroke="#191970" points="264.6655,-249.1372 255.486,-243.8469 259.3629,-253.707 264.6655,-249.1372"/>
</g>
<!-- Node12 -->
<g id="node13" class="node">
<title>Node12</title>
<g id="a_node13"><a xlink:href="helios__hashmap_8h.html" target="_top" xlink:title=" ">
<polygon fill="#ffffff" stroke="#000000" points="679.5,-224.5 679.5,-243.5 784.5,-243.5 784.5,-224.5 679.5,-224.5"/>
<text text-anchor="middle" x="732" y="-231.5" font-family="Helvetica,sans-Serif" font-size="10.00" fill="#000000">helios_hashmap.h</text>
</a>
</g>
</g>
<!-- Node0&#45;&gt;Node12 -->
<g id="edge17" class="edge">
<title>Node0&#45;&gt;Node12</title>
<path fill="none" stroke="#191970" d="M359.501,-287.6983C430.7555,-278.253 553.9885,-261.5931 669.3731,-244.221"/>
<polygon fill="#191970" stroke="#191970" points="670.0754,-247.6547 679.4405,-242.7004 669.0299,-240.7332 670.0754,-247.6547"/>
</g>
<!-- Node13 -->
<g id="node14" class="node">
<title>Node13</title>
<g id="a_node14"><a xlink:href="helios__integer_8h.html" target="_top" xlink:title=" ">
<polygon fill="#ffffff" stroke="#000000" points="306,-224.5 306,-243.5 400,-243.5 400,-224.5 306,-224.5"/>
<text text-anchor="middle" x="353" y="-231.5" font-family="Helvetica,sans-Serif" font-size="10.00" fill="#000000">helios_integer.h</text>
</a>
</g>
</g>
<!-- Node0&#45;&gt;Node13 -->
<g id="edge20" class="edge">
<title>Node0&#45;&gt;Node13</title>
<path fill="none" stroke="#191970" d="M313.1011,-280.2977C320.6113,-271.5831 330.07,-260.6075 337.8927,-251.5302"/>
<polygon fill="#191970" stroke="#191970" points="340.6371,-253.707 344.514,-243.8469 335.3345,-249.1372 340.6371,-253.707"/>
</g>
<!-- Node14 -->
<g id="node15" class="node">
<title>Node14</title>
<g id="a_node15"><a xlink:href="helios__string_8h.html" target="_top" xlink:title=" ">
<polygon fill="#ffffff" stroke="#000000" points="418,-224.5 418,-243.5 506,-243.5 506,-224.5 418,-224.5"/>
<text text-anchor="middle" x="462" y="-231.5" font-family="Helvetica,sans-Serif" font-size="10.00" fill="#000000">helios_string.h</text>
</a>
</g>
</g>
<!-- Node0&#45;&gt;Node14 -->
<g id="edge23" class="edge">
<title>Node0&#45;&gt;Node14</title>
<path fill="none" stroke="#191970" d="M339.6297,-280.4554C366.5412,-270.239 401.7811,-256.8609 427.5294,-247.0861"/>
<polygon fill="#191970" stroke="#191970" points="428.789,-250.3517 436.8957,-243.5303 426.3045,-243.8074 428.789,-250.3517"/>
</g>
<!-- Node15 -->
<g id="node16" class="node">
<title>Node15</title>
<g id="a_node16"><a xlink:href="serialize_8h.html" target="_top" xlink:title=" ">
<polygon fill="#ffffff" stroke="#000000" points="458.5,-168.5 458.5,-187.5 525.5,-187.5 525.5,-168.5 458.5,-168.5"/>
<text text-anchor="middle" x="492" y="-175.5" font-family="Helvetica,sans-Serif" font-size="10.00" fill="#000000">serialize.h</text>
</a>
</g>
</g>
<!-- Node0&#45;&gt;Node15 -->
<g id="edge26" class="edge">
<title>Node0&#45;&gt;Node15</title>
<path fill="none" stroke="#191970" d="M359.7391,-289.4096C416.5059,-282.2429 495.9543,-268.1466 515,-244 526.077,-229.9563 516.7719,-210.203 506.8844,-195.9716"/>
<polygon fill="#191970" stroke="#191970" points="509.6388,-193.811 500.8297,-187.9245 504.0453,-198.0196 509.6388,-193.811"/>
</g>
<!-- Node2&#45;&gt;Node3 -->
<g id="edge3" class="edge">
<title>Node2&#45;&gt;Node3</title>
<path fill="none" stroke="#191970" d="M567.7706,-224.4369C523.2585,-214.8127 454.551,-199.957 406.8831,-189.6504"/>
<polygon fill="#191970" stroke="#191970" points="407.5608,-186.2161 397.047,-187.5237 406.0814,-193.058 407.5608,-186.2161"/>
</g>
<!-- Node6 -->
<g id="node7" class="node">
<title>Node6</title>
<g id="a_node7"><a xlink:title=" ">
<polygon fill="#ffffff" stroke="#bfbfbf" points="581,-.5 581,-19.5 643,-19.5 643,-.5 581,-.5"/>
<text text-anchor="middle" x="612" y="-7.5" font-family="Helvetica,sans-Serif" font-size="10.00" fill="#000000">stdbool.h</text>
</a>
</g>
</g>
<!-- Node2&#45;&gt;Node6 -->
<g id="edge12" class="edge">
<title>Node2&#45;&gt;Node6</title>
<path fill="none" stroke="#191970" d="M612,-224.375C612,-190.4851 612,-76.2317 612,-29.8332"/>
<polygon fill="#191970" stroke="#191970" points="615.5001,-29.5891 612,-19.5891 608.5001,-29.5892 615.5001,-29.5891"/>
</g>
<!-- Node4 -->
<g id="node5" class="node">
<title>Node4</title>
<g id="a_node5"><a xlink:href="helios__type_8h.html" target="_top" xlink:title=" ">
<polygon fill="#ffffff" stroke="#000000" points="312,-112.5 312,-131.5 394,-131.5 394,-112.5 312,-112.5"/>
<text text-anchor="middle" x="353" y="-119.5" font-family="Helvetica,sans-Serif" font-size="10.00" fill="#000000">helios_type.h</text>
</a>
</g>
</g>
<!-- Node3&#45;&gt;Node4 -->
<g id="edge4" class="edge">
<title>Node3&#45;&gt;Node4</title>
<path fill="none" stroke="#191970" d="M353,-168.2455C353,-160.9382 353,-150.6944 353,-141.7046"/>
<polygon fill="#191970" stroke="#191970" points="356.5001,-141.6426 353,-131.6427 349.5001,-141.6427 356.5001,-141.6426"/>
</g>
<!-- Node4&#45;&gt;Node5 -->
<g id="edge5" class="edge">
<title>Node4&#45;&gt;Node5</title>
<path fill="none" stroke="#191970" d="M334.7104,-112.2455C318.2238,-103.4527 293.7648,-90.4079 275.0235,-80.4125"/>
<polygon fill="#191970" stroke="#191970" points="276.5506,-77.2604 266.08,-75.6427 273.2565,-83.4368 276.5506,-77.2604"/>
</g>
<!-- Node8 -->
<g id="node9" class="node">
<title>Node8</title>
<g id="a_node9"><a xlink:title=" ">
<polygon fill="#ffffff" stroke="#bfbfbf" points="297.5,-.5 297.5,-19.5 350.5,-19.5 350.5,-.5 297.5,-.5"/>
<text text-anchor="middle" x="324" y="-7.5" font-family="Helvetica,sans-Serif" font-size="10.00" fill="#000000">stdint.h</text>
</a>
</g>
</g>
<!-- Node4&#45;&gt;Node8 -->
<g id="edge10" class="edge">
<title>Node4&#45;&gt;Node8</title>
<path fill="none" stroke="#191970" d="M350.5275,-112.4509C345.7762,-94.1013 335.2869,-53.5908 329.0153,-29.3693"/>
<polygon fill="#191970" stroke="#191970" points="332.3612,-28.3283 326.4663,-19.5249 325.5847,-30.083 332.3612,-28.3283"/>
</g>
<!-- Node9 -->
<g id="node10" class="node">
<title>Node9</title>
<g id="a_node10"><a xlink:title=" ">
<polygon fill="#ffffff" stroke="#bfbfbf" points="354.5,-56.5 354.5,-75.5 407.5,-75.5 407.5,-56.5 354.5,-56.5"/>
<text text-anchor="middle" x="381" y="-63.5" font-family="Helvetica,sans-Serif" font-size="10.00" fill="#000000">stdlib.h</text>
</a>
</g>
</g>
<!-- Node4&#45;&gt;Node9 -->
<g id="edge11" class="edge">
<title>Node4&#45;&gt;Node9</title>
<path fill="none" stroke="#191970" d="M357.8772,-112.2455C361.6513,-104.6973 366.9921,-94.0158 371.5901,-84.8197"/>
<polygon fill="#191970" stroke="#191970" points="374.837,-86.1522 376.1787,-75.6427 368.576,-83.0217 374.837,-86.1522"/>
</g>
<!-- Node5&#45;&gt;Node1 -->
<g id="edge6" class="edge">
<title>Node5&#45;&gt;Node1</title>
<path fill="none" stroke="#191970" d="M217.0569,-56.3733C186.9961,-47.021 141.1974,-32.7725 108.3022,-22.5385"/>
<polygon fill="#191970" stroke="#191970" points="109.1277,-19.1299 98.5393,-19.5011 107.0481,-25.8139 109.1277,-19.1299"/>
</g>
<!-- Node5&#45;&gt;Node6 -->
<g id="edge7" class="edge">
<title>Node5&#45;&gt;Node6</title>
<path fill="none" stroke="#191970" d="M298.2305,-58.2722C370.7995,-47.1078 503.6103,-26.6753 570.774,-16.3425"/>
<polygon fill="#191970" stroke="#191970" points="571.619,-19.7537 580.9705,-14.7738 570.5545,-12.8351 571.619,-19.7537"/>
</g>
<!-- Node7 -->
<g id="node8" class="node">
<title>Node7</title>
<g id="a_node8"><a xlink:title=" ">
<polygon fill="#ffffff" stroke="#bfbfbf" points="220,-.5 220,-19.5 276,-19.5 276,-.5 220,-.5"/>
<text text-anchor="middle" x="248" y="-7.5" font-family="Helvetica,sans-Serif" font-size="10.00" fill="#000000">stddef.h</text>
</a>
</g>
</g>
<!-- Node5&#45;&gt;Node7 -->
<g id="edge8" class="edge">
<title>Node5&#45;&gt;Node7</title>
<path fill="none" stroke="#191970" d="M248,-56.2455C248,-48.9382 248,-38.6944 248,-29.7046"/>
<polygon fill="#191970" stroke="#191970" points="251.5001,-29.6426 248,-19.6427 244.5001,-29.6427 251.5001,-29.6426"/>
</g>
<!-- Node5&#45;&gt;Node8 -->
<g id="edge9" class="edge">
<title>Node5&#45;&gt;Node8</title>
<path fill="none" stroke="#191970" d="M261.2382,-56.2455C272.681,-47.814 289.4296,-35.4729 302.7475,-25.6598"/>
<polygon fill="#191970" stroke="#191970" points="304.9391,-28.3924 310.9135,-19.6427 300.7867,-22.757 304.9391,-28.3924"/>
</g>
<!-- Node10&#45;&gt;Node3 -->
<g id="edge14" class="edge">
<title>Node10&#45;&gt;Node3</title>
<path fill="none" stroke="#191970" d="M181.5846,-224.3733C216.6016,-214.9001 270.1881,-200.4032 308.1125,-190.1435"/>
<polygon fill="#191970" stroke="#191970" points="309.1408,-193.4912 317.8798,-187.5011 307.3127,-186.7341 309.1408,-193.4912"/>
</g>
<!-- Node11&#45;&gt;Node3 -->
<g id="edge16" class="edge">
<title>Node11&#45;&gt;Node3</title>
<path fill="none" stroke="#191970" d="M265.4638,-224.2455C282.1074,-215.4527 306.7993,-202.4079 325.7192,-192.4125"/>
<polygon fill="#191970" stroke="#191970" points="327.5408,-195.4086 334.7478,-187.6427 324.2709,-189.2193 327.5408,-195.4086"/>
</g>
<!-- Node12&#45;&gt;Node3 -->
<g id="edge18" class="edge">
<title>Node12&#45;&gt;Node3</title>
<path fill="none" stroke="#191970" d="M679.4375,-225.3187C676.5843,-224.8676 673.7576,-224.4254 671,-224 578.9562,-209.7995 471.7152,-194.5563 408.2479,-185.6703"/>
<polygon fill="#191970" stroke="#191970" points="408.4537,-182.1651 398.0654,-184.2466 407.4844,-189.0976 408.4537,-182.1651"/>
</g>
<!-- Node12&#45;&gt;Node6 -->
<g id="edge19" class="edge">
<title>Node12&#45;&gt;Node6</title>
<path fill="none" stroke="#191970" d="M726.8438,-224.375C708.5346,-190.1979 646.4408,-74.2894 622.0009,-28.6683"/>
<polygon fill="#191970" stroke="#191970" points="624.9445,-26.7512 617.137,-19.5891 618.7741,-30.0567 624.9445,-26.7512"/>
</g>
<!-- Node13&#45;&gt;Node3 -->
<g id="edge21" class="edge">
<title>Node13&#45;&gt;Node3</title>
<path fill="none" stroke="#191970" d="M353,-224.2455C353,-216.9382 353,-206.6944 353,-197.7046"/>
<polygon fill="#191970" stroke="#191970" points="356.5001,-197.6426 353,-187.6427 349.5001,-197.6427 356.5001,-197.6426"/>
</g>
<!-- Node14&#45;&gt;Node3 -->
<g id="edge24" class="edge">
<title>Node14&#45;&gt;Node3</title>
<path fill="none" stroke="#191970" d="M443.0136,-224.2455C425.8208,-215.4125 400.2762,-202.2887 380.7868,-192.2758"/>
<polygon fill="#191970" stroke="#191970" points="382.263,-189.0993 371.7688,-187.6427 379.0641,-195.3257 382.263,-189.0993"/>
</g>
<!-- Node15&#45;&gt;Node4 -->
<g id="edge27" class="edge">
<title>Node15&#45;&gt;Node4</title>
<path fill="none" stroke="#191970" d="M468.105,-168.3733C445.4918,-159.2629 411.3458,-145.5062 386.1127,-135.3404"/>
<polygon fill="#191970" stroke="#191970" points="387.1666,-131.9917 376.5831,-131.5011 384.5507,-138.4845 387.1666,-131.9917"/>
</g>
</g>
</svg>
        <g id="navigator" transform="translate(0 0)" fill="#404254">
                <rect fill="#f2f5e9" fill-opacity="0.5" stroke="#606060" stroke-width=".5" x="0" y="0" width="60" height="60"/>
                <use id="zoomplus" xlink:href="#zoomPlus" x="17" y="9" onmousedown="handleZoom(evt,'in')"/>
                <use id="zoomminus" xlink:href="#zoomMin" x="42" y="9" onmousedown="handleZoom(evt,'out')"/>
                <use id="reset" xlink:href="#resetDef" x="30" y="36" onmousedown="handleReset()"/>
                <g id="arrowUp" xlink:href="#dirArrow" transform="translate(30 24)" onmousedown="handlePan(0,-1)">
                  <use xlink:href="#rim" fill="#404040">
                        <set attributeName="fill" to="#808080" begin="arrowUp.mouseover" end="arrowUp.mouseout"/>
                  </use>
                  <path fill="none" stroke="white" stroke-width="1.5" d="M0,-3.0v7 M-2.5,-0.5L0,-3.0L2.5,-0.5"/>
                </g>
                <g id="arrowRight" xlink:href="#dirArrow" transform="rotate(90) translate(36 -43)" onmousedown="handlePan(1,0)">
                  <use xlink:href="#rim" fill="#404040">
                        <set attributeName="fill" to="#808080" begin="arrowRight.mouseover" end="arrowRight.mouseout"/>
                  </use>
                  <path fill="none" stroke="white" stroke-width="1.5" d="M0,-3.0v7 M-2.5,-0.5L0,-3.0L2.5,-0.5"/>
                </g>
                <g id="arrowDown" xlink:href="#dirArrow" transform="rotate(180) translate(-30 -48)" onmousedown="handlePan(0,1)">
                  <use xlink:href="#rim" fill="#404040">
                        <set attributeName="fill" to="#808080" begin="arrowDown.mouseover" end="arrowDown.mouseout"/>
                  </use>
                  <path fill="none" stroke="white" stroke-width="1.5" d="M0,-3.0v7 M-2.5,-0.5L0,-3.0L2.5,-0.5"/>
                </g>
                <g id="arrowLeft" xlink:href="#dirArrow" transform="rotate(270) translate(-36 17)" onmousedown="handlePan(-1,0)">
                  <use xlink:href="#rim" fill="#404040">
                        <set attributeName="fill" to="#808080" begin="arrowLeft.mouseover" end="arrowLeft.mouseout"/>
                  </use>
                  <path fill="none" stroke="white" stroke-width="1.5" d="M0,-3.0v7 M-2.5,-0.5L0,-3.0L2.5,-0.5"/>
                </g>
        </g>
        <svg viewBox="0 0 15 15" width="100%" height="30px" preserveAspectRatio="xMaxYMin meet">
         <g id="arrow_out" transform="scale(0.3 0.3)">
          <a xlink:href="builtins_8h__incl_org.svg" target="_base">
           <rect id="button" ry="5" rx="5" y="6" x="6" height="38" width="38"
                fill="#f2f5e9" fill-opacity="0.5" stroke="#606060" stroke-width="1.0"/>
           <path id="arrow"
             d="M 11.500037,31.436501 C 11.940474,20.09759 22.043105,11.32322 32.158766,21.979434 L 37.068811,17.246167 C 37.068811,17.246167 37.088388,32 37.088388,32 L 22.160133,31.978069 C 22.160133,31.978069 26.997745,27.140456 26.997745,27.140456 C 18.528582,18.264221 13.291696,25.230495 11.500037,31.436501 z"
             style="fill:#404040;"/>
          </a>
         </g>
        </svg>
</svg>
