<?xml version="1.0" encoding="UTF-8" standalone="no"?>
<!DOCTYPE svg PUBLIC "-//W3C//DTD SVG 1.1//EN"
 "http://www.w3.org/Graphics/SVG/1.1/DTD/svg11.dtd">
<!-- Generated by graphviz version 2.40.1 (20161225.0304)
 -->
<!-- Title: builtins/include/builtinutils.h Pages: 1 -->
<!--zoomable 419 -->
<svg id="main" version="1.1" xmlns="http://www.w3.org/2000/svg" xmlns:xlink="http://www.w3.org/1999/xlink" xml:space="preserve" onload="init(evt)">
<style type="text/css"><![CDATA[
.edge:hover path { stroke: red; }
.edge:hover polygon { stroke: red; fill: red; }
]]></style>
<script type="text/javascript"><![CDATA[
var edges = document.getElementsByTagName('g');
if (edges && edges.length) {
  for (var i=0;i<edges.length;i++) {
    if (edges[i].id.substr(0,4)=='edge') {
      edges[i].setAttribute('class','edge');
    }
  }
}
]]></script>
        <defs>
                <circle id="rim" cx="0" cy="0" r="7"/>
                <circle id="rim2" cx="0" cy="0" r="3.5"/>
                <g id="zoomPlus">
                        <use xlink:href="#rim" fill="#404040">
                                <set attributeName="fill" to="#808080" begin="zoomplus.mouseover" end="zoomplus.mouseout"/>
                        </use>
                        <path d="M-4,0h8M0,-4v8" fill="none" stroke="white" stroke-width="1.5" pointer-events="none"/>
                </g>
                <g id="zoomMin">
                        <use xlink:href="#rim" fill="#404040">
                                <set attributeName="fill" to="#808080" begin="zoomminus.mouseover" end="zoomminus.mouseout"/>
                        </use>
                        <path d="M-4,0h8" fill="none" stroke="white" stroke-width="1.5" pointer-events="none"/>
                </g>
                <g id="dirArrow">
                        <path fill="none" stroke="white" stroke-width="1.5" d="M0,-3.0v7 M-2.5,-0.5L0,-3.0L2.5,-0.5"/>
                </g>
               <g id="resetDef">
                       <use xlink:href="#rim2" fill="#404040">
                               <set attributeName="fill" to="#808080" begin="reset.mouseover" end="reset.mouseout"/>
                       </use>
               </g>
        </defs>

<script type="text/javascript">
var viewWidth = 920;
var viewHeight = 419;
var sectionId = 'dynsection-0';
</script>
<script xlink:href="svgpan.js"/>
<svg id="graph" class="graph">
<g id="viewport">
<title>builtins/include/builtinutils.h</title>
<polygon fill="#ffffff" stroke="transparent" points="-4,4 -4,-415 915.5,-415 915.5,4 -4,4"/>
<!-- Node1 -->
<g id="node1" class="node">
<title>Node1</title>
<g id="a_node1"><a xlink:title=" ">
<polygon fill="#bfbfbf" stroke="#000000" points="701.5,-391.5 701.5,-410.5 837.5,-410.5 837.5,-391.5 701.5,-391.5"/>
<text text-anchor="middle" x="769.5" y="-398.5" font-family="Helvetica,sans-Serif" font-size="10.00" fill="#000000">builtins/include/builtinutils.h</text>
</a>
</g>
</g>
<!-- Node2 -->
<g id="node2" class="node">
<title>Node2</title>
<g id="a_node2"><a xlink:href="builtins_8h.html" target="_top" xlink:title=" ">
<polygon fill="#ffffff" stroke="#000000" points="437,-62 437,-81 560,-81 560,-62 437,-62"/>
<text text-anchor="middle" x="498.5" y="-69" font-family="Helvetica,sans-Serif" font-size="10.00" fill="#000000">builtins/include/builtins.h</text>
</a>
</g>
</g>
<!-- Node1&#45;&gt;Node2 -->
<g id="edge1" class="edge">
<title>Node1&#45;&gt;Node2</title>
<path fill="none" stroke="#191970" d="M804.5848,-387.3823C846.6346,-368.4913 911.5,-330.0271 911.5,-272.5 911.5,-272.5 911.5,-272.5 911.5,-205.5 911.5,-165.6701 908.1478,-147.1833 876.5,-123 828.1501,-86.054 654.4636,-75.613 560.2769,-72.6623"/>
<polygon fill="#191970" stroke="#191970" points="803.0004,-384.2543 795.2151,-391.4403 805.7825,-390.6777 803.0004,-384.2543"/>
</g>
<!-- Node4 -->
<g id="node4" class="node">
<title>Node4</title>
<g id="a_node4"><a xlink:href="helios__memory_8h.html" target="_top" xlink:title=" ">
<polygon fill="#ffffff" stroke="#000000" points="647.5,-324.5 647.5,-354.5 761.5,-354.5 761.5,-324.5 647.5,-324.5"/>
<text text-anchor="start" x="655.5" y="-342.5" font-family="Helvetica,sans-Serif" font-size="10.00" fill="#000000">memory/include/helios</text>
<text text-anchor="middle" x="704.5" y="-331.5" font-family="Helvetica,sans-Serif" font-size="10.00" fill="#000000">_memory.h</text>
</a>
</g>
</g>
<!-- Node1&#45;&gt;Node4 -->
<g id="edge3" class="edge">
<title>Node1&#45;&gt;Node4</title>
<path fill="none" stroke="#191970" d="M752.0478,-384.4875C742.1988,-375.1689 729.9838,-363.6116 720.4008,-354.5446"/>
<polygon fill="#191970" stroke="#191970" points="749.6743,-387.0602 759.3438,-391.3906 754.4853,-381.9754 749.6743,-387.0602"/>
</g>
<!-- Node3 -->
<g id="node3" class="node">
<title>Node3</title>
<g id="a_node3"><a xlink:href="test_8c.html" target="_top" xlink:title=" ">
<polygon fill="#ffffff" stroke="#000000" points="468,-.5 468,-19.5 529,-19.5 529,-.5 468,-.5"/>
<text text-anchor="middle" x="498.5" y="-7.5" font-family="Helvetica,sans-Serif" font-size="10.00" fill="#000000">test/test.c</text>
</a>
</g>
</g>
<!-- Node2&#45;&gt;Node3 -->
<g id="edge2" class="edge">
<title>Node2&#45;&gt;Node3</title>
<path fill="none" stroke="#191970" d="M498.5,-51.7462C498.5,-41.0519 498.5,-28.314 498.5,-19.7449"/>
<polygon fill="#191970" stroke="#191970" points="495.0001,-51.8906 498.5,-61.8906 502.0001,-51.8907 495.0001,-51.8906"/>
</g>
<!-- Node4&#45;&gt;Node2 -->
<g id="edge4" class="edge">
<title>Node4&#45;&gt;Node2</title>
<path fill="none" stroke="#191970" d="M737.7695,-318.7456C797.6654,-278.9 912.2666,-189.7246 854.5,-123 835.5443,-101.1048 657.1386,-83.9 560.3137,-76.0845"/>
<polygon fill="#191970" stroke="#191970" points="735.8026,-315.8499 729.3563,-324.258 739.639,-321.705 735.8026,-315.8499"/>
</g>
<!-- Node5 -->
<g id="node5" class="node">
<title>Node5</title>
<g id="a_node5"><a xlink:href="helios__integer_8c.html" target="_top" xlink:title=" ">
<polygon fill="#ffffff" stroke="#000000" points="141.5,-56.5 141.5,-86.5 249.5,-86.5 249.5,-56.5 141.5,-56.5"/>
<text text-anchor="start" x="149.5" y="-74.5" font-family="Helvetica,sans-Serif" font-size="10.00" fill="#000000">builtins/integer/helios</text>
<text text-anchor="middle" x="195.5" y="-63.5" font-family="Helvetica,sans-Serif" font-size="10.00" fill="#000000">_integer.c</text>
</a>
</g>
</g>
<!-- Node4&#45;&gt;Node5 -->
<g id="edge5" class="edge">
<title>Node4&#45;&gt;Node5</title>
<path fill="none" stroke="#191970" d="M637.5137,-330.0624C488.929,-307.6159 139.4075,-245.9579 70.5,-154 46.3319,-121.7475 97.2539,-98.3069 141.1965,-84.831"/>
<polygon fill="#191970" stroke="#191970" points="637.0237,-333.5279 647.4317,-331.5474 638.0603,-326.6051 637.0237,-333.5279"/>
</g>
<!-- Node6 -->
<g id="node6" class="node">
<title>Node6</title>
<g id="a_node6"><a xlink:href="helios__string_8c.html" target="_top" xlink:title=" ">
<polygon fill="#ffffff" stroke="#000000" points="0,-56.5 0,-86.5 103,-86.5 103,-56.5 0,-56.5"/>
<text text-anchor="start" x="8" y="-74.5" font-family="Helvetica,sans-Serif" font-size="10.00" fill="#000000">builtins/string/helios</text>
<text text-anchor="middle" x="51.5" y="-63.5" font-family="Helvetica,sans-Serif" font-size="10.00" fill="#000000">_string.c</text>
</a>
</g>
</g>
<!-- Node4&#45;&gt;Node6 -->
<g id="edge6" class="edge">
<title>Node4&#45;&gt;Node6</title>
<path fill="none" stroke="#191970" d="M637.2735,-336.7221C552.6503,-332.0075 403.3685,-319.6333 279.5,-288 201.6142,-268.1097 175.5021,-269.637 111.5,-221 81.704,-198.3572 74.3686,-188.7585 60.5,-154 51.6366,-131.7859 50.4837,-103.6918 50.7685,-86.6838"/>
<polygon fill="#191970" stroke="#191970" points="637.0932,-340.2173 647.2669,-337.2598 637.4694,-333.2274 637.0932,-340.2173"/>
</g>
<!-- Node7 -->
<g id="node7" class="node">
<title>Node7</title>
<g id="a_node7"><a xlink:href="helios__type_8h.html" target="_top" xlink:title=" ">
<polygon fill="#ffffff" stroke="#000000" points="613,-257.5 613,-287.5 716,-287.5 716,-257.5 613,-257.5"/>
<text text-anchor="start" x="621" y="-275.5" font-family="Helvetica,sans-Serif" font-size="10.00" fill="#000000">builtins/type/include</text>
<text text-anchor="middle" x="664.5" y="-264.5" font-family="Helvetica,sans-Serif" font-size="10.00" fill="#000000">/helios_type.h</text>
</a>
</g>
</g>
<!-- Node4&#45;&gt;Node7 -->
<g id="edge7" class="edge">
<title>Node4&#45;&gt;Node7</title>
<path fill="none" stroke="#191970" d="M690.1619,-315.4837C684.6192,-306.1996 678.4442,-295.8565 673.5407,-287.6432"/>
<polygon fill="#191970" stroke="#191970" points="687.2921,-317.5046 695.4234,-324.2967 693.3024,-313.9163 687.2921,-317.5046"/>
</g>
<!-- Node14 -->
<g id="node14" class="node">
<title>Node14</title>
<g id="a_node14"><a xlink:href="helios__memory_8c.html" target="_top" xlink:title=" ">
<polygon fill="#ffffff" stroke="#000000" points="717.5,-129 717.5,-148 845.5,-148 845.5,-129 717.5,-129"/>
<text text-anchor="middle" x="781.5" y="-136" font-family="Helvetica,sans-Serif" font-size="10.00" fill="#000000">memory/helios_memory.c</text>
</a>
</g>
</g>
<!-- Node4&#45;&gt;Node14 -->
<g id="edge27" class="edge">
<title>Node4&#45;&gt;Node14</title>
<path fill="none" stroke="#191970" d="M718.3408,-315.3927C731.311,-291.936 750.4568,-254.9631 762.5,-221 771.5383,-195.511 777.3995,-164.0428 779.9814,-148.3582"/>
<polygon fill="#191970" stroke="#191970" points="715.1989,-313.84 713.3662,-324.2751 721.3063,-317.2605 715.1989,-313.84"/>
</g>
<!-- Node8 -->
<g id="node8" class="node">
<title>Node8</title>
<g id="a_node8"><a xlink:href="helios__object_8c.html" target="_top" xlink:title=" ">
<polygon fill="#ffffff" stroke="#000000" points="594,-123.5 594,-153.5 699,-153.5 699,-123.5 594,-123.5"/>
<text text-anchor="start" x="602" y="-141.5" font-family="Helvetica,sans-Serif" font-size="10.00" fill="#000000">builtins/object/helios</text>
<text text-anchor="middle" x="646.5" y="-130.5" font-family="Helvetica,sans-Serif" font-size="10.00" fill="#000000">_object.c</text>
</a>
</g>
</g>
<!-- Node7&#45;&gt;Node8 -->
<g id="edge8" class="edge">
<title>Node7&#45;&gt;Node8</title>
<path fill="none" stroke="#191970" d="M653.9084,-247.6081C650.8886,-239.3025 648.0098,-229.8957 646.5,-221 642.5455,-197.7004 643.6886,-170.1632 645.001,-153.5301"/>
<polygon fill="#191970" stroke="#191970" points="650.7034,-249.024 657.5793,-257.0846 657.2308,-246.4954 650.7034,-249.024"/>
</g>
<!-- Node9 -->
<g id="node9" class="node">
<title>Node9</title>
<g id="a_node9"><a xlink:href="helios__object_8h.html" target="_top" xlink:title=" ">
<polygon fill="#ffffff" stroke="#000000" points="349.5,-190.5 349.5,-220.5 459.5,-220.5 459.5,-190.5 349.5,-190.5"/>
<text text-anchor="start" x="357.5" y="-208.5" font-family="Helvetica,sans-Serif" font-size="10.00" fill="#000000">builtins/object/include</text>
<text text-anchor="middle" x="404.5" y="-197.5" font-family="Helvetica,sans-Serif" font-size="10.00" fill="#000000">/helios_object.h</text>
</a>
</g>
</g>
<!-- Node7&#45;&gt;Node9 -->
<g id="edge9" class="edge">
<title>Node7&#45;&gt;Node9</title>
<path fill="none" stroke="#191970" d="M602.9332,-256.6347C559.4441,-245.4279 501.663,-230.5381 459.6735,-219.7178"/>
<polygon fill="#191970" stroke="#191970" points="602.2644,-260.0767 612.8215,-259.1828 604.0113,-253.2981 602.2644,-260.0767"/>
</g>
<!-- Node15 -->
<g id="node15" class="node">
<title>Node15</title>
<g id="a_node15"><a xlink:href="helios__type_8c.html" target="_top" xlink:title=" ">
<polygon fill="#ffffff" stroke="#000000" points="655.5,-190.5 655.5,-220.5 753.5,-220.5 753.5,-190.5 655.5,-190.5"/>
<text text-anchor="start" x="663.5" y="-208.5" font-family="Helvetica,sans-Serif" font-size="10.00" fill="#000000">builtins/type/helios</text>
<text text-anchor="middle" x="704.5" y="-197.5" font-family="Helvetica,sans-Serif" font-size="10.00" fill="#000000">_type.c</text>
</a>
</g>
</g>
<!-- Node7&#45;&gt;Node15 -->
<g id="edge26" class="edge">
<title>Node7&#45;&gt;Node15</title>
<path fill="none" stroke="#191970" d="M678.8381,-248.4837C684.3808,-239.1996 690.5558,-228.8565 695.4593,-220.6432"/>
<polygon fill="#191970" stroke="#191970" points="675.6976,-246.9163 673.5766,-257.2967 681.7079,-250.5046 675.6976,-246.9163"/>
</g>
<!-- Node9&#45;&gt;Node2 -->
<g id="edge12" class="edge">
<title>Node9&#45;&gt;Node2</title>
<path fill="none" stroke="#191970" d="M413.0704,-180.3968C419.6045,-163.2877 429.6616,-140.629 442.5,-123 454.63,-106.3436 472.7715,-90.8633 485.0936,-81.3109"/>
<polygon fill="#191970" stroke="#191970" points="409.6186,-179.6443 409.4638,-190.238 416.1911,-182.053 409.6186,-179.6443"/>
</g>
<!-- Node9&#45;&gt;Node5 -->
<g id="edge13" class="edge">
<title>Node9&#45;&gt;Node5</title>
<path fill="none" stroke="#191970" d="M339.3999,-191.5445C298.511,-181.7064 250.5727,-167.8619 234.5,-154 213.8649,-136.2033 203.353,-105.0791 198.6763,-86.5699"/>
<polygon fill="#191970" stroke="#191970" points="338.8117,-195.0018 349.3484,-193.894 340.4207,-188.1892 338.8117,-195.0018"/>
</g>
<!-- Node9&#45;&gt;Node6 -->
<g id="edge20" class="edge">
<title>Node9&#45;&gt;Node6</title>
<path fill="none" stroke="#191970" d="M339.304,-203.9004C253.3354,-200.4099 108.4975,-189.3072 70.5,-154 51.9805,-136.7918 49.7697,-105.4653 50.3127,-86.76"/>
<polygon fill="#191970" stroke="#191970" points="339.3586,-207.4049 349.485,-204.2894 339.626,-200.41 339.3586,-207.4049"/>
</g>
<!-- Node9&#45;&gt;Node8 -->
<g id="edge19" class="edge">
<title>Node9&#45;&gt;Node8</title>
<path fill="none" stroke="#191970" d="M468.4973,-187.7817C507.526,-176.9763 556.8105,-163.3314 593.6199,-153.1404"/>
<polygon fill="#191970" stroke="#191970" points="467.5131,-184.4225 458.8095,-190.4639 469.3809,-191.1687 467.5131,-184.4225"/>
</g>
<!-- Node10 -->
<g id="node10" class="node">
<title>Node10</title>
<g id="a_node10"><a xlink:href="helios__hashmap_8h.html" target="_top" xlink:title=" ">
<polygon fill="#ffffff" stroke="#000000" points="451.5,-123.5 451.5,-153.5 575.5,-153.5 575.5,-123.5 451.5,-123.5"/>
<text text-anchor="start" x="459.5" y="-141.5" font-family="Helvetica,sans-Serif" font-size="10.00" fill="#000000">builtins/hashmap/include</text>
<text text-anchor="middle" x="513.5" y="-130.5" font-family="Helvetica,sans-Serif" font-size="10.00" fill="#000000">/helios_hashmap.h</text>
</a>
</g>
</g>
<!-- Node9&#45;&gt;Node10 -->
<g id="edge10" class="edge">
<title>Node9&#45;&gt;Node10</title>
<path fill="none" stroke="#191970" d="M437.727,-185.0761C454.1561,-174.9774 473.6445,-162.9983 488.7428,-153.7177"/>
<polygon fill="#191970" stroke="#191970" points="435.6482,-182.2455 428.9617,-190.4639 439.3138,-188.209 435.6482,-182.2455"/>
</g>
<!-- Node11 -->
<g id="node11" class="node">
<title>Node11</title>
<g id="a_node11"><a xlink:href="helios__integer__math_8c.html" target="_top" xlink:title=" ">
<polygon fill="#ffffff" stroke="#000000" points="296.5,-56.5 296.5,-86.5 404.5,-86.5 404.5,-56.5 296.5,-56.5"/>
<text text-anchor="start" x="304.5" y="-74.5" font-family="Helvetica,sans-Serif" font-size="10.00" fill="#000000">builtins/integer/helios</text>
<text text-anchor="middle" x="350.5" y="-63.5" font-family="Helvetica,sans-Serif" font-size="10.00" fill="#000000">_integer_math.c</text>
</a>
</g>
</g>
<!-- Node9&#45;&gt;Node11 -->
<g id="edge14" class="edge">
<title>Node9&#45;&gt;Node11</title>
<path fill="none" stroke="#191970" d="M394.6545,-181.0686C383.577,-153.58 365.9235,-109.7732 356.6501,-86.7614"/>
<polygon fill="#191970" stroke="#191970" points="391.4263,-182.422 398.4105,-190.389 397.919,-179.8055 391.4263,-182.422"/>
</g>
<!-- Node12 -->
<g id="node12" class="node">
<title>Node12</title>
<g id="a_node12"><a xlink:href="helios__integer_8h.html" target="_top" xlink:title=" ">
<polygon fill="#ffffff" stroke="#000000" points="244,-123.5 244,-153.5 357,-153.5 357,-123.5 244,-123.5"/>
<text text-anchor="start" x="252" y="-141.5" font-family="Helvetica,sans-Serif" font-size="10.00" fill="#000000">builtins/integer/include</text>
<text text-anchor="middle" x="300.5" y="-130.5" font-family="Helvetica,sans-Serif" font-size="10.00" fill="#000000">/helios_integer.h</text>
</a>
</g>
</g>
<!-- Node9&#45;&gt;Node12 -->
<g id="edge15" class="edge">
<title>Node9&#45;&gt;Node12</title>
<path fill="none" stroke="#191970" d="M372.361,-184.7951C356.7777,-174.7558 338.3939,-162.9124 324.1216,-153.7177"/>
<polygon fill="#191970" stroke="#191970" points="370.8583,-187.9904 381.1604,-190.4639 374.6494,-182.1058 370.8583,-187.9904"/>
</g>
<!-- Node13 -->
<g id="node13" class="node">
<title>Node13</title>
<g id="a_node13"><a xlink:href="helios__string_8h.html" target="_top" xlink:title=" ">
<polygon fill="#ffffff" stroke="#000000" points="79.5,-123.5 79.5,-153.5 187.5,-153.5 187.5,-123.5 79.5,-123.5"/>
<text text-anchor="start" x="87.5" y="-141.5" font-family="Helvetica,sans-Serif" font-size="10.00" fill="#000000">builtins/string/include</text>
<text text-anchor="middle" x="133.5" y="-130.5" font-family="Helvetica,sans-Serif" font-size="10.00" fill="#000000">/helios_string.h</text>
</a>
</g>
</g>
<!-- Node9&#45;&gt;Node13 -->
<g id="edge21" class="edge">
<title>Node9&#45;&gt;Node13</title>
<path fill="none" stroke="#191970" d="M339.3802,-189.4003C292.9914,-177.9314 231.3682,-162.6962 187.6648,-151.8913"/>
<polygon fill="#191970" stroke="#191970" points="338.7847,-192.8584 349.3325,-191.8608 340.4648,-186.063 338.7847,-192.8584"/>
</g>
<!-- Node9&#45;&gt;Node14 -->
<g id="edge25" class="edge">
<title>Node9&#45;&gt;Node14</title>
<path fill="none" stroke="#191970" d="M469.572,-195.1759C531.0174,-185.253 625.6857,-169.5154 707.5,-154 717.1721,-152.1658 727.5285,-150.0759 737.3379,-148.0376"/>
<polygon fill="#191970" stroke="#191970" points="468.9428,-191.732 459.6268,-196.778 470.0562,-198.6429 468.9428,-191.732"/>
</g>
<!-- Node10&#45;&gt;Node2 -->
<g id="edge11" class="edge">
<title>Node10&#45;&gt;Node2</title>
<path fill="none" stroke="#191970" d="M507.8954,-113.4663C505.3654,-102.1655 502.5274,-89.4891 500.6392,-81.055"/>
<polygon fill="#191970" stroke="#191970" points="504.496,-114.3029 510.0963,-123.2967 511.3269,-112.7735 504.496,-114.3029"/>
</g>
<!-- Node12&#45;&gt;Node2 -->
<g id="edge16" class="edge">
<title>Node12&#45;&gt;Node2</title>
<path fill="none" stroke="#191970" d="M354.6921,-120.1623C392.1333,-107.4928 440.4113,-91.1563 470.4098,-81.0053"/>
<polygon fill="#191970" stroke="#191970" points="353.2856,-116.9432 344.9351,-123.4639 355.5293,-123.5739 353.2856,-116.9432"/>
</g>
<!-- Node12&#45;&gt;Node5 -->
<g id="edge17" class="edge">
<title>Node12&#45;&gt;Node5</title>
<path fill="none" stroke="#191970" d="M268.4924,-118.0761C252.6661,-107.9774 233.8929,-95.9983 219.3487,-86.7177"/>
<polygon fill="#191970" stroke="#191970" points="266.6232,-121.0352 276.936,-123.4639 270.3887,-115.1342 266.6232,-121.0352"/>
</g>
<!-- Node12&#45;&gt;Node11 -->
<g id="edge18" class="edge">
<title>Node12&#45;&gt;Node11</title>
<path fill="none" stroke="#191970" d="M317.9906,-115.0626C325.0287,-105.6315 332.9421,-95.0276 339.1991,-86.6432"/>
<polygon fill="#191970" stroke="#191970" points="315.0216,-113.189 311.8458,-123.2967 320.6317,-117.3756 315.0216,-113.189"/>
</g>
<!-- Node13&#45;&gt;Node2 -->
<g id="edge22" class="edge">
<title>Node13&#45;&gt;Node2</title>
<path fill="none" stroke="#191970" d="M197.8894,-126.6806C268.7299,-113.677 381.1923,-93.0332 446.6136,-81.0244"/>
<polygon fill="#191970" stroke="#191970" points="196.9538,-123.2938 187.7501,-128.5418 198.2177,-130.1787 196.9538,-123.2938"/>
</g>
<!-- Node13&#45;&gt;Node5 -->
<g id="edge23" class="edge">
<title>Node13&#45;&gt;Node5</title>
<path fill="none" stroke="#191970" d="M154.39,-115.9253C163.3129,-106.2828 173.4907,-95.2843 181.4869,-86.6432"/>
<polygon fill="#191970" stroke="#191970" points="151.7918,-113.5798 147.5688,-123.2967 156.9296,-118.3342 151.7918,-113.5798"/>
</g>
<!-- Node13&#45;&gt;Node6 -->
<g id="edge24" class="edge">
<title>Node13&#45;&gt;Node6</title>
<path fill="none" stroke="#191970" d="M106.9183,-116.7808C94.8722,-106.9383 80.9233,-95.541 70.0334,-86.6432"/>
<polygon fill="#191970" stroke="#191970" points="104.9346,-119.6797 114.8929,-123.2967 109.3637,-114.2591 104.9346,-119.6797"/>
</g>
</g>
</svg>
        <g id="navigator" transform="translate(0 0)" fill="#404254">
                <rect fill="#f2f5e9" fill-opacity="0.5" stroke="#606060" stroke-width=".5" x="0" y="0" width="60" height="60"/>
                <use id="zoomplus" xlink:href="#zoomPlus" x="17" y="9" onmousedown="handleZoom(evt,'in')"/>
                <use id="zoomminus" xlink:href="#zoomMin" x="42" y="9" onmousedown="handleZoom(evt,'out')"/>
                <use id="reset" xlink:href="#resetDef" x="30" y="36" onmousedown="handleReset()"/>
                <g id="arrowUp" xlink:href="#dirArrow" transform="translate(30 24)" onmousedown="handlePan(0,-1)">
                  <use xlink:href="#rim" fill="#404040">
                        <set attributeName="fill" to="#808080" begin="arrowUp.mouseover" end="arrowUp.mouseout"/>
                  </use>
                  <path fill="none" stroke="white" stroke-width="1.5" d="M0,-3.0v7 M-2.5,-0.5L0,-3.0L2.5,-0.5"/>
                </g>
                <g id="arrowRight" xlink:href="#dirArrow" transform="rotate(90) translate(36 -43)" onmousedown="handlePan(1,0)">
                  <use xlink:href="#rim" fill="#404040">
                        <set attributeName="fill" to="#808080" begin="arrowRight.mouseover" end="arrowRight.mouseout"/>
                  </use>
                  <path fill="none" stroke="white" stroke-width="1.5" d="M0,-3.0v7 M-2.5,-0.5L0,-3.0L2.5,-0.5"/>
                </g>
                <g id="arrowDown" xlink:href="#dirArrow" transform="rotate(180) translate(-30 -48)" onmousedown="handlePan(0,1)">
                  <use xlink:href="#rim" fill="#404040">
                        <set attributeName="fill" to="#808080" begin="arrowDown.mouseover" end="arrowDown.mouseout"/>
                  </use>
                  <path fill="none" stroke="white" stroke-width="1.5" d="M0,-3.0v7 M-2.5,-0.5L0,-3.0L2.5,-0.5"/>
                </g>
                <g id="arrowLeft" xlink:href="#dirArrow" transform="rotate(270) translate(-36 17)" onmousedown="handlePan(-1,0)">
                  <use xlink:href="#rim" fill="#404040">
                        <set attributeName="fill" to="#808080" begin="arrowLeft.mouseover" end="arrowLeft.mouseout"/>
                  </use>
                  <path fill="none" stroke="white" stroke-width="1.5" d="M0,-3.0v7 M-2.5,-0.5L0,-3.0L2.5,-0.5"/>
                </g>
        </g>
        <svg viewBox="0 0 15 15" width="100%" height="30px" preserveAspectRatio="xMaxYMin meet">
         <g id="arrow_out" transform="scale(0.3 0.3)">
          <a xlink:href="builtinutils_8h__dep__incl_org.svg" target="_base">
           <rect id="button" ry="5" rx="5" y="6" x="6" height="38" width="38"
                fill="#f2f5e9" fill-opacity="0.5" stroke="#606060" stroke-width="1.0"/>
           <path id="arrow"
             d="M 11.500037,31.436501 C 11.940474,20.09759 22.043105,11.32322 32.158766,21.979434 L 37.068811,17.246167 C 37.068811,17.246167 37.088388,32 37.088388,32 L 22.160133,31.978069 C 22.160133,31.978069 26.997745,27.140456 26.997745,27.140456 C 18.528582,18.264221 13.291696,25.230495 11.500037,31.436501 z"
             style="fill:#404040;"/>
          </a>
         </g>
        </svg>
</svg>
