<?xml version="1.0" encoding="UTF-8" standalone="no"?>
<!DOCTYPE svg PUBLIC "-//W3C//DTD SVG 1.1//EN"
 "http://www.w3.org/Graphics/SVG/1.1/DTD/svg11.dtd">
<!-- Generated by graphviz version 2.40.1 (20161225.0304)
 -->
<!-- Title: main/builtins/buitlins.c Pages: 1 -->
<!--zoomable 364 -->
<svg id="main" version="1.1" xmlns="http://www.w3.org/2000/svg" xmlns:xlink="http://www.w3.org/1999/xlink" xml:space="preserve" onload="init(evt)">
<style type="text/css"><![CDATA[
.edge:hover path { stroke: red; }
.edge:hover polygon { stroke: red; fill: red; }
]]></style>
<script type="text/javascript"><![CDATA[
var edges = document.getElementsByTagName('g');
if (edges && edges.length) {
  for (var i=0;i<edges.length;i++) {
    if (edges[i].id.substr(0,4)=='edge') {
      edges[i].setAttribute('class','edge');
    }
  }
}
]]></script>
        <defs>
                <circle id="rim" cx="0" cy="0" r="7"/>
                <circle id="rim2" cx="0" cy="0" r="3.5"/>
                <g id="zoomPlus">
                        <use xlink:href="#rim" fill="#404040">
                                <set attributeName="fill" to="#808080" begin="zoomplus.mouseover" end="zoomplus.mouseout"/>
                        </use>
                        <path d="M-4,0h8M0,-4v8" fill="none" stroke="white" stroke-width="1.5" pointer-events="none"/>
                </g>
                <g id="zoomMin">
                        <use xlink:href="#rim" fill="#404040">
                                <set attributeName="fill" to="#808080" begin="zoomminus.mouseover" end="zoomminus.mouseout"/>
                        </use>
                        <path d="M-4,0h8" fill="none" stroke="white" stroke-width="1.5" pointer-events="none"/>
                </g>
                <g id="dirArrow">
                        <path fill="none" stroke="white" stroke-width="1.5" d="M0,-3.0v7 M-2.5,-0.5L0,-3.0L2.5,-0.5"/>
                </g>
               <g id="resetDef">
                       <use xlink:href="#rim2" fill="#404040">
                               <set attributeName="fill" to="#808080" begin="reset.mouseover" end="reset.mouseout"/>
                       </use>
               </g>
        </defs>

<script type="text/javascript">
var viewWidth = 1048;
var viewHeight = 364;
var sectionId = 'dynsection-0';
</script>
<script xlink:href="svgpan.js"/>
<svg id="graph" class="graph">
<g id="viewport">
<title>main/builtins/buitlins.c</title>
<polygon fill="#ffffff" stroke="transparent" points="-4,4 -4,-360 1043.5,-360 1043.5,4 -4,4"/>
<!-- Node0 -->
<g id="node1" class="node">
<title>Node0</title>
<g id="a_node1"><a xlink:title=" ">
<polygon fill="#bfbfbf" stroke="#000000" points="647,-336.5 647,-355.5 775,-355.5 775,-336.5 647,-336.5"/>
<text text-anchor="middle" x="711" y="-343.5" font-family="Helvetica,sans-Serif" font-size="10.00" fill="#000000">main/builtins/buitlins.c</text>
</a>
</g>
</g>
<!-- Node1 -->
<g id="node2" class="node">
<title>Node1</title>
<g id="a_node2"><a xlink:href="builtins_8h.html" target="_top" xlink:title=" ">
<polygon fill="#ffffff" stroke="#000000" points="501,-280.5 501,-299.5 563,-299.5 563,-280.5 501,-280.5"/>
<text text-anchor="middle" x="532" y="-287.5" font-family="Helvetica,sans-Serif" font-size="10.00" fill="#000000">builtins.h</text>
</a>
</g>
</g>
<!-- Node0&#45;&gt;Node1 -->
<g id="edge1" class="edge">
<title>Node0&#45;&gt;Node1</title>
<path fill="none" stroke="#191970" d="M680.2288,-336.3733C650.335,-327.021 604.7907,-312.7725 572.0783,-302.5385"/>
<polygon fill="#191970" stroke="#191970" points="572.9586,-299.1466 562.3697,-299.5011 570.8685,-305.8273 572.9586,-299.1466"/>
</g>
<!-- Node7 -->
<g id="node8" class="node">
<title>Node7</title>
<g id="a_node8"><a xlink:title=" ">
<polygon fill="#ffffff" stroke="#bfbfbf" points="123,-.5 123,-19.5 185,-19.5 185,-.5 123,-.5"/>
<text text-anchor="middle" x="154" y="-7.5" font-family="Helvetica,sans-Serif" font-size="10.00" fill="#000000">stdbool.h</text>
</a>
</g>
</g>
<!-- Node0&#45;&gt;Node7 -->
<g id="edge29" class="edge">
<title>Node0&#45;&gt;Node7</title>
<path fill="none" stroke="#191970" d="M646.8318,-343.0647C522.3674,-336.9695 252.4545,-321.6794 162,-300 86.3951,-281.8796 0,-311.746 0,-234 0,-234 0,-234 0,-122 0,-65.9454 67.5586,-35.0115 113.1824,-20.5122"/>
<polygon fill="#191970" stroke="#191970" points="114.2832,-23.8359 122.8358,-17.5826 112.2503,-17.1375 114.2832,-23.8359"/>
</g>
<!-- Node9 -->
<g id="node10" class="node">
<title>Node9</title>
<g id="a_node10"><a xlink:title=" ">
<polygon fill="#ffffff" stroke="#bfbfbf" points="396.5,-.5 396.5,-19.5 449.5,-19.5 449.5,-.5 396.5,-.5"/>
<text text-anchor="middle" x="423" y="-7.5" font-family="Helvetica,sans-Serif" font-size="10.00" fill="#000000">stdint.h</text>
</a>
</g>
</g>
<!-- Node0&#45;&gt;Node9 -->
<g id="edge30" class="edge">
<title>Node0&#45;&gt;Node9</title>
<path fill="none" stroke="#191970" d="M646.8855,-340.6954C489.7073,-327.045 95.2078,-288.6287 57,-244 -47.4012,-122.0539 274.8376,-41.1235 386.4202,-17.308"/>
<polygon fill="#191970" stroke="#191970" points="387.169,-20.7272 396.2352,-15.245 385.7291,-13.8769 387.169,-20.7272"/>
</g>
<!-- Node10 -->
<g id="node11" class="node">
<title>Node10</title>
<g id="a_node11"><a xlink:title=" ">
<polygon fill="#ffffff" stroke="#bfbfbf" points="880.5,-56.5 880.5,-75.5 933.5,-75.5 933.5,-56.5 880.5,-56.5"/>
<text text-anchor="middle" x="907" y="-63.5" font-family="Helvetica,sans-Serif" font-size="10.00" fill="#000000">stdlib.h</text>
</a>
</g>
</g>
<!-- Node0&#45;&gt;Node10 -->
<g id="edge32" class="edge">
<title>Node0&#45;&gt;Node10</title>
<path fill="none" stroke="#191970" d="M763.2554,-336.415C816.0897,-323.3527 890,-294.3028 890,-234 890,-234 890,-234 890,-178 890,-145.192 897.2185,-107.584 902.248,-85.3624"/>
<polygon fill="#191970" stroke="#191970" points="905.6816,-86.0502 904.5643,-75.5144 898.8676,-84.4474 905.6816,-86.0502"/>
</g>
<!-- Node17 -->
<g id="node18" class="node">
<title>Node17</title>
<g id="a_node18"><a xlink:title=" ">
<polygon fill="#ffffff" stroke="#bfbfbf" points="918,-280.5 918,-299.5 968,-299.5 968,-280.5 918,-280.5"/>
<text text-anchor="middle" x="943" y="-287.5" font-family="Helvetica,sans-Serif" font-size="10.00" fill="#000000">stdio.h</text>
</a>
</g>
</g>
<!-- Node0&#45;&gt;Node17 -->
<g id="edge31" class="edge">
<title>Node0&#45;&gt;Node17</title>
<path fill="none" stroke="#191970" d="M752.0873,-336.421C791.1932,-327.2533 851.6699,-312.9442 904,-300 905.2595,-299.6884 906.5415,-299.3695 907.8359,-299.0459"/>
<polygon fill="#191970" stroke="#191970" points="909.0027,-302.3611 917.8406,-296.5181 907.2879,-295.5744 909.0027,-302.3611"/>
</g>
<!-- Node18 -->
<g id="node19" class="node">
<title>Node18</title>
<g id="a_node19"><a xlink:title=" ">
<polygon fill="#ffffff" stroke="#bfbfbf" points="986.5,-280.5 986.5,-299.5 1039.5,-299.5 1039.5,-280.5 986.5,-280.5"/>
<text text-anchor="middle" x="1013" y="-287.5" font-family="Helvetica,sans-Serif" font-size="10.00" fill="#000000">string.h</text>
</a>
</g>
</g>
<!-- Node0&#45;&gt;Node18 -->
<g id="edge33" class="edge">
<title>Node0&#45;&gt;Node18</title>
<path fill="none" stroke="#191970" d="M775.0416,-336.7593C826.8173,-328.8699 901.7511,-316.5095 976.3015,-299.9769"/>
<polygon fill="#191970" stroke="#191970" points="977.3474,-303.3294 986.3385,-297.7249 975.8148,-296.4992 977.3474,-303.3294"/>
</g>
<!-- Node2 -->
<g id="node3" class="node">
<title>Node2</title>
<g id="a_node3"><a xlink:href="builtinutils_8h.html" target="_top" xlink:title=" ">
<polygon fill="#ffffff" stroke="#000000" points="699.5,-.5 699.5,-19.5 776.5,-19.5 776.5,-.5 699.5,-.5"/>
<text text-anchor="middle" x="738" y="-7.5" font-family="Helvetica,sans-Serif" font-size="10.00" fill="#000000">builtinutils.h</text>
</a>
</g>
</g>
<!-- Node1&#45;&gt;Node2 -->
<g id="edge2" class="edge">
<title>Node1&#45;&gt;Node2</title>
<path fill="none" stroke="#191970" d="M563.0866,-288.03C626.845,-283.487 769.8005,-270.5693 810,-244 839.0061,-224.8288 852,-212.7691 852,-178 852,-178 852,-178 852,-122 852,-75.4628 803.0617,-41.828 769.3136,-24.1659"/>
<polygon fill="#191970" stroke="#191970" points="770.7576,-20.9746 760.251,-19.6105 767.6138,-27.2289 770.7576,-20.9746"/>
</g>
<!-- Node3 -->
<g id="node4" class="node">
<title>Node3</title>
<g id="a_node4"><a xlink:href="helios__boolean_8h.html" target="_top" xlink:title=" ">
<polygon fill="#ffffff" stroke="#000000" points="228.5,-224.5 228.5,-243.5 327.5,-243.5 327.5,-224.5 228.5,-224.5"/>
<text text-anchor="middle" x="278" y="-231.5" font-family="Helvetica,sans-Serif" font-size="10.00" fill="#000000">helios_boolean.h</text>
</a>
</g>
</g>
<!-- Node1&#45;&gt;Node3 -->
<g id="edge3" class="edge">
<title>Node1&#45;&gt;Node3</title>
<path fill="none" stroke="#191970" d="M500.8546,-283.1333C458.6294,-273.8238 382.6057,-257.0627 331.2322,-245.7362"/>
<polygon fill="#191970" stroke="#191970" points="331.8226,-242.2824 321.3035,-243.5472 330.3154,-249.1182 331.8226,-242.2824"/>
</g>
<!-- Node4 -->
<g id="node5" class="node">
<title>Node4</title>
<g id="a_node5"><a xlink:href="helios__object_8h.html" target="_top" xlink:title=" ">
<polygon fill="#ffffff" stroke="#000000" points="417,-168.5 417,-187.5 507,-187.5 507,-168.5 417,-168.5"/>
<text text-anchor="middle" x="462" y="-175.5" font-family="Helvetica,sans-Serif" font-size="10.00" fill="#000000">helios_object.h</text>
</a>
</g>
</g>
<!-- Node1&#45;&gt;Node4 -->
<g id="edge23" class="edge">
<title>Node1&#45;&gt;Node4</title>
<path fill="none" stroke="#191970" d="M517.4218,-280.3369C505.9372,-272.001 490.3529,-258.9647 481,-244 472.124,-229.7984 467.2683,-211.3133 464.6933,-197.5198"/>
<polygon fill="#191970" stroke="#191970" points="468.1455,-196.9426 463.0839,-187.635 461.2365,-198.0675 468.1455,-196.9426"/>
</g>
<!-- Node6 -->
<g id="node7" class="node">
<title>Node6</title>
<g id="a_node7"><a xlink:href="helios__memory_8h.html" target="_top" xlink:title=" ">
<polygon fill="#ffffff" stroke="#000000" points="451,-56.5 451,-75.5 551,-75.5 551,-56.5 451,-56.5"/>
<text text-anchor="middle" x="501" y="-63.5" font-family="Helvetica,sans-Serif" font-size="10.00" fill="#000000">helios_memory.h</text>
</a>
</g>
</g>
<!-- Node1&#45;&gt;Node6 -->
<g id="edge26" class="edge">
<title>Node1&#45;&gt;Node6</title>
<path fill="none" stroke="#191970" d="M563.2696,-289.3508C626.4278,-287.3097 765.7023,-278.8668 795,-244 800.7184,-237.1947 799.5612,-231.6294 795,-224 743.7044,-138.1991 628.0307,-96.2868 558.041,-78.0755"/>
<polygon fill="#191970" stroke="#191970" points="558.6115,-74.6098 548.0592,-75.5581 556.8997,-81.3973 558.6115,-74.6098"/>
</g>
<!-- Node11 -->
<g id="node12" class="node">
<title>Node11</title>
<g id="a_node12"><a xlink:href="helios__code_8h.html" target="_top" xlink:title=" ">
<polygon fill="#ffffff" stroke="#000000" points="490.5,-224.5 490.5,-243.5 573.5,-243.5 573.5,-224.5 490.5,-224.5"/>
<text text-anchor="middle" x="532" y="-231.5" font-family="Helvetica,sans-Serif" font-size="10.00" fill="#000000">helios_code.h</text>
</a>
</g>
</g>
<!-- Node1&#45;&gt;Node11 -->
<g id="edge14" class="edge">
<title>Node1&#45;&gt;Node11</title>
<path fill="none" stroke="#191970" d="M532,-280.2455C532,-272.9382 532,-262.6944 532,-253.7046"/>
<polygon fill="#191970" stroke="#191970" points="535.5001,-253.6426 532,-243.6427 528.5001,-253.6427 535.5001,-253.6426"/>
</g>
<!-- Node12 -->
<g id="node13" class="node">
<title>Node12</title>
<g id="a_node13"><a xlink:href="helios__float_8h.html" target="_top" xlink:title=" ">
<polygon fill="#ffffff" stroke="#000000" points="592,-224.5 592,-243.5 674,-243.5 674,-224.5 592,-224.5"/>
<text text-anchor="middle" x="633" y="-231.5" font-family="Helvetica,sans-Serif" font-size="10.00" fill="#000000">helios_float.h</text>
</a>
</g>
</g>
<!-- Node1&#45;&gt;Node12 -->
<g id="edge16" class="edge">
<title>Node1&#45;&gt;Node12</title>
<path fill="none" stroke="#191970" d="M549.5929,-280.2455C565.379,-271.4928 588.7639,-258.527 606.7587,-248.5496"/>
<polygon fill="#191970" stroke="#191970" points="608.5603,-251.5528 615.6087,-243.6427 605.1659,-245.4308 608.5603,-251.5528"/>
</g>
<!-- Node13 -->
<g id="node14" class="node">
<title>Node13</title>
<g id="a_node14"><a xlink:href="helios__hashmap_8h.html" target="_top" xlink:title=" ">
<polygon fill="#ffffff" stroke="#000000" points="66.5,-224.5 66.5,-243.5 171.5,-243.5 171.5,-224.5 66.5,-224.5"/>
<text text-anchor="middle" x="119" y="-231.5" font-family="Helvetica,sans-Serif" font-size="10.00" fill="#000000">helios_hashmap.h</text>
</a>
</g>
</g>
<!-- Node1&#45;&gt;Node13 -->
<g id="edge18" class="edge">
<title>Node1&#45;&gt;Node13</title>
<path fill="none" stroke="#191970" d="M500.9619,-286.0426C440.3708,-278.2798 302.1071,-260.3817 186,-244 184.5443,-243.7946 183.0711,-243.5854 181.5854,-243.3734"/>
<polygon fill="#191970" stroke="#191970" points="182.0527,-239.9046 171.6553,-241.9402 181.0527,-246.8328 182.0527,-239.9046"/>
</g>
<!-- Node14 -->
<g id="node15" class="node">
<title>Node14</title>
<g id="a_node15"><a xlink:href="helios__integer_8h.html" target="_top" xlink:title=" ">
<polygon fill="#ffffff" stroke="#000000" points="692,-224.5 692,-243.5 786,-243.5 786,-224.5 692,-224.5"/>
<text text-anchor="middle" x="739" y="-231.5" font-family="Helvetica,sans-Serif" font-size="10.00" fill="#000000">helios_integer.h</text>
</a>
</g>
</g>
<!-- Node1&#45;&gt;Node14 -->
<g id="edge21" class="edge">
<title>Node1&#45;&gt;Node14</title>
<path fill="none" stroke="#191970" d="M563.4388,-281.4948C598.1895,-272.0937 654.4563,-256.8717 693.9006,-246.2008"/>
<polygon fill="#191970" stroke="#191970" points="695.0547,-249.5145 703.7937,-243.5244 693.2267,-242.7574 695.0547,-249.5145"/>
</g>
<!-- Node15 -->
<g id="node16" class="node">
<title>Node15</title>
<g id="a_node16"><a xlink:href="helios__string_8h.html" target="_top" xlink:title=" ">
<polygon fill="#ffffff" stroke="#000000" points="346,-224.5 346,-243.5 434,-243.5 434,-224.5 346,-224.5"/>
<text text-anchor="middle" x="390" y="-231.5" font-family="Helvetica,sans-Serif" font-size="10.00" fill="#000000">helios_string.h</text>
</a>
</g>
</g>
<!-- Node1&#45;&gt;Node15 -->
<g id="edge24" class="edge">
<title>Node1&#45;&gt;Node15</title>
<path fill="none" stroke="#191970" d="M507.5893,-280.3733C484.3858,-271.2226 449.2962,-257.3844 423.4858,-247.2057"/>
<polygon fill="#191970" stroke="#191970" points="424.6789,-243.9139 414.0921,-243.5011 422.1108,-250.4258 424.6789,-243.9139"/>
</g>
<!-- Node16 -->
<g id="node17" class="node">
<title>Node16</title>
<g id="a_node17"><a xlink:href="serialize_8h.html" target="_top" xlink:title=" ">
<polygon fill="#ffffff" stroke="#000000" points="170.5,-168.5 170.5,-187.5 237.5,-187.5 237.5,-168.5 170.5,-168.5"/>
<text text-anchor="middle" x="204" y="-175.5" font-family="Helvetica,sans-Serif" font-size="10.00" fill="#000000">serialize.h</text>
</a>
</g>
</g>
<!-- Node1&#45;&gt;Node16 -->
<g id="edge27" class="edge">
<title>Node1&#45;&gt;Node16</title>
<path fill="none" stroke="#191970" d="M500.7724,-287.4081C425.6535,-280.8951 239.5347,-263.0008 219,-244 206.4914,-232.4258 203.3414,-212.7828 202.9609,-197.9282"/>
<polygon fill="#191970" stroke="#191970" points="206.4634,-197.7622 203.1007,-187.7152 199.4641,-197.6663 206.4634,-197.7622"/>
</g>
<!-- Node3&#45;&gt;Node4 -->
<g id="edge4" class="edge">
<title>Node3&#45;&gt;Node4</title>
<path fill="none" stroke="#191970" d="M309.6307,-224.3733C340.3596,-215.021 387.176,-200.7725 420.8022,-190.5385"/>
<polygon fill="#191970" stroke="#191970" points="422.2344,-193.7612 430.782,-187.5011 420.1962,-187.0644 422.2344,-193.7612"/>
</g>
<!-- Node3&#45;&gt;Node7 -->
<g id="edge13" class="edge">
<title>Node3&#45;&gt;Node7</title>
<path fill="none" stroke="#191970" d="M273.6646,-224.4877C267.7095,-211.5588 256.5352,-187.7815 246,-168 218.6528,-116.6514 183.3069,-57.8414 165.4329,-28.5739"/>
<polygon fill="#191970" stroke="#191970" points="168.2869,-26.5324 160.0779,-19.8344 162.3182,-30.1897 168.2869,-26.5324"/>
</g>
<!-- Node5 -->
<g id="node6" class="node">
<title>Node5</title>
<g id="a_node6"><a xlink:href="helios__type_8h.html" target="_top" xlink:title=" ">
<polygon fill="#ffffff" stroke="#000000" points="421,-112.5 421,-131.5 503,-131.5 503,-112.5 421,-112.5"/>
<text text-anchor="middle" x="462" y="-119.5" font-family="Helvetica,sans-Serif" font-size="10.00" fill="#000000">helios_type.h</text>
</a>
</g>
</g>
<!-- Node4&#45;&gt;Node5 -->
<g id="edge5" class="edge">
<title>Node4&#45;&gt;Node5</title>
<path fill="none" stroke="#191970" d="M462,-168.2455C462,-160.9382 462,-150.6944 462,-141.7046"/>
<polygon fill="#191970" stroke="#191970" points="465.5001,-141.6426 462,-131.6427 458.5001,-141.6427 465.5001,-141.6426"/>
</g>
<!-- Node5&#45;&gt;Node6 -->
<g id="edge6" class="edge">
<title>Node5&#45;&gt;Node6</title>
<path fill="none" stroke="#191970" d="M468.7933,-112.2455C474.2178,-104.4564 481.9661,-93.3308 488.5033,-83.9439"/>
<polygon fill="#191970" stroke="#191970" points="491.4417,-85.849 494.2846,-75.6427 485.6975,-81.8485 491.4417,-85.849"/>
</g>
<!-- Node5&#45;&gt;Node9 -->
<g id="edge11" class="edge">
<title>Node5&#45;&gt;Node9</title>
<path fill="none" stroke="#191970" d="M457.3333,-112.2783C453.0182,-103.0686 446.5971,-88.7835 442,-76 436.4519,-60.5722 431.3825,-42.6771 427.878,-29.4159"/>
<polygon fill="#191970" stroke="#191970" points="431.2129,-28.3312 425.3262,-19.5222 424.4347,-30.0794 431.2129,-28.3312"/>
</g>
<!-- Node5&#45;&gt;Node10 -->
<g id="edge12" class="edge">
<title>Node5&#45;&gt;Node10</title>
<path fill="none" stroke="#191970" d="M503.0669,-116.832C589.2284,-105.9892 787.7049,-81.0124 870.1015,-70.6434"/>
<polygon fill="#191970" stroke="#191970" points="870.7635,-74.0878 880.2482,-69.3665 869.8894,-67.1426 870.7635,-74.0878"/>
</g>
<!-- Node6&#45;&gt;Node2 -->
<g id="edge7" class="edge">
<title>Node6&#45;&gt;Node2</title>
<path fill="none" stroke="#191970" d="M541.4725,-56.4369C582.4386,-46.7571 645.8011,-31.7854 689.4468,-21.4725"/>
<polygon fill="#191970" stroke="#191970" points="690.3401,-24.8579 699.2673,-19.152 688.7304,-18.0455 690.3401,-24.8579"/>
</g>
<!-- Node6&#45;&gt;Node7 -->
<g id="edge8" class="edge">
<title>Node6&#45;&gt;Node7</title>
<path fill="none" stroke="#191970" d="M450.9138,-57.9169C382.1099,-46.8131 259.6186,-27.0451 195.593,-16.7124"/>
<polygon fill="#191970" stroke="#191970" points="195.8929,-13.2156 185.463,-15.0776 194.7776,-20.1262 195.8929,-13.2156"/>
</g>
<!-- Node8 -->
<g id="node9" class="node">
<title>Node8</title>
<g id="a_node9"><a xlink:title=" ">
<polygon fill="#ffffff" stroke="#bfbfbf" points="473,-.5 473,-19.5 529,-19.5 529,-.5 473,-.5"/>
<text text-anchor="middle" x="501" y="-7.5" font-family="Helvetica,sans-Serif" font-size="10.00" fill="#000000">stddef.h</text>
</a>
</g>
</g>
<!-- Node6&#45;&gt;Node8 -->
<g id="edge9" class="edge">
<title>Node6&#45;&gt;Node8</title>
<path fill="none" stroke="#191970" d="M501,-56.2455C501,-48.9382 501,-38.6944 501,-29.7046"/>
<polygon fill="#191970" stroke="#191970" points="504.5001,-29.6426 501,-19.6427 497.5001,-29.6427 504.5001,-29.6426"/>
</g>
<!-- Node6&#45;&gt;Node9 -->
<g id="edge10" class="edge">
<title>Node6&#45;&gt;Node9</title>
<path fill="none" stroke="#191970" d="M487.4134,-56.2455C475.6695,-47.814 458.4801,-35.4729 444.8118,-25.6598"/>
<polygon fill="#191970" stroke="#191970" points="446.5954,-22.6316 436.4309,-19.6427 442.5129,-28.3179 446.5954,-22.6316"/>
</g>
<!-- Node11&#45;&gt;Node4 -->
<g id="edge15" class="edge">
<title>Node11&#45;&gt;Node4</title>
<path fill="none" stroke="#191970" d="M519.8069,-224.2455C509.3679,-215.8943 494.1345,-203.7076 481.926,-193.9408"/>
<polygon fill="#191970" stroke="#191970" points="484.0485,-191.1566 474.0533,-187.6427 479.6756,-196.6227 484.0485,-191.1566"/>
</g>
<!-- Node12&#45;&gt;Node4 -->
<g id="edge17" class="edge">
<title>Node12&#45;&gt;Node4</title>
<path fill="none" stroke="#191970" d="M603.6041,-224.3733C575.1693,-215.0613 531.9123,-200.8953 500.6919,-190.671"/>
<polygon fill="#191970" stroke="#191970" points="501.605,-187.2872 491.0124,-187.5011 499.4264,-193.9396 501.605,-187.2872"/>
</g>
<!-- Node13&#45;&gt;Node4 -->
<g id="edge19" class="edge">
<title>Node13&#45;&gt;Node4</title>
<path fill="none" stroke="#191970" d="M171.8421,-225.3727C235.5222,-214.976 342.0132,-197.5897 406.7503,-187.0204"/>
<polygon fill="#191970" stroke="#191970" points="407.4634,-190.4504 416.7688,-185.3847 406.3354,-183.5418 407.4634,-190.4504"/>
</g>
<!-- Node13&#45;&gt;Node7 -->
<g id="edge20" class="edge">
<title>Node13&#45;&gt;Node7</title>
<path fill="none" stroke="#191970" d="M110.6702,-224.4385C87.4816,-196.6096 26.1756,-113.965 62,-56 73.2725,-37.7607 94.2094,-26.5115 113.2652,-19.7077"/>
<polygon fill="#191970" stroke="#191970" points="114.5709,-22.9636 122.9975,-16.5415 112.4053,-16.307 114.5709,-22.9636"/>
</g>
<!-- Node14&#45;&gt;Node4 -->
<g id="edge22" class="edge">
<title>Node14&#45;&gt;Node4</title>
<path fill="none" stroke="#191970" d="M691.6967,-224.4369C643.3125,-214.6552 568.1979,-199.4696 517.1447,-189.1484"/>
<polygon fill="#191970" stroke="#191970" points="517.7652,-185.7031 507.2699,-187.152 516.378,-192.5643 517.7652,-185.7031"/>
</g>
<!-- Node15&#45;&gt;Node4 -->
<g id="edge25" class="edge">
<title>Node15&#45;&gt;Node4</title>
<path fill="none" stroke="#191970" d="M402.5414,-224.2455C413.2787,-215.8943 428.9473,-203.7076 441.5047,-193.9408"/>
<polygon fill="#191970" stroke="#191970" points="443.8575,-196.5449 449.6023,-187.6427 439.5599,-191.0194 443.8575,-196.5449"/>
</g>
<!-- Node16&#45;&gt;Node5 -->
<g id="edge28" class="edge">
<title>Node16&#45;&gt;Node5</title>
<path fill="none" stroke="#191970" d="M237.729,-170.679C281.7792,-161.1177 359.3165,-144.2879 410.678,-133.1397"/>
<polygon fill="#191970" stroke="#191970" points="411.5536,-136.5312 420.5836,-130.9896 410.0687,-129.6905 411.5536,-136.5312"/>
</g>
</g>
</svg>
        <g id="navigator" transform="translate(0 0)" fill="#404254">
                <rect fill="#f2f5e9" fill-opacity="0.5" stroke="#606060" stroke-width=".5" x="0" y="0" width="60" height="60"/>
                <use id="zoomplus" xlink:href="#zoomPlus" x="17" y="9" onmousedown="handleZoom(evt,'in')"/>
                <use id="zoomminus" xlink:href="#zoomMin" x="42" y="9" onmousedown="handleZoom(evt,'out')"/>
                <use id="reset" xlink:href="#resetDef" x="30" y="36" onmousedown="handleReset()"/>
                <g id="arrowUp" xlink:href="#dirArrow" transform="translate(30 24)" onmousedown="handlePan(0,-1)">
                  <use xlink:href="#rim" fill="#404040">
                        <set attributeName="fill" to="#808080" begin="arrowUp.mouseover" end="arrowUp.mouseout"/>
                  </use>
                  <path fill="none" stroke="white" stroke-width="1.5" d="M0,-3.0v7 M-2.5,-0.5L0,-3.0L2.5,-0.5"/>
                </g>
                <g id="arrowRight" xlink:href="#dirArrow" transform="rotate(90) translate(36 -43)" onmousedown="handlePan(1,0)">
                  <use xlink:href="#rim" fill="#404040">
                        <set attributeName="fill" to="#808080" begin="arrowRight.mouseover" end="arrowRight.mouseout"/>
                  </use>
                  <path fill="none" stroke="white" stroke-width="1.5" d="M0,-3.0v7 M-2.5,-0.5L0,-3.0L2.5,-0.5"/>
                </g>
                <g id="arrowDown" xlink:href="#dirArrow" transform="rotate(180) translate(-30 -48)" onmousedown="handlePan(0,1)">
                  <use xlink:href="#rim" fill="#404040">
                        <set attributeName="fill" to="#808080" begin="arrowDown.mouseover" end="arrowDown.mouseout"/>
                  </use>
                  <path fill="none" stroke="white" stroke-width="1.5" d="M0,-3.0v7 M-2.5,-0.5L0,-3.0L2.5,-0.5"/>
                </g>
                <g id="arrowLeft" xlink:href="#dirArrow" transform="rotate(270) translate(-36 17)" onmousedown="handlePan(-1,0)">
                  <use xlink:href="#rim" fill="#404040">
                        <set attributeName="fill" to="#808080" begin="arrowLeft.mouseover" end="arrowLeft.mouseout"/>
                  </use>
                  <path fill="none" stroke="white" stroke-width="1.5" d="M0,-3.0v7 M-2.5,-0.5L0,-3.0L2.5,-0.5"/>
                </g>
        </g>
        <svg viewBox="0 0 15 15" width="100%" height="30px" preserveAspectRatio="xMaxYMin meet">
         <g id="arrow_out" transform="scale(0.3 0.3)">
          <a xlink:href="buitlins_8c__incl_org.svg" target="_base">
           <rect id="button" ry="5" rx="5" y="6" x="6" height="38" width="38"
                fill="#f2f5e9" fill-opacity="0.5" stroke="#606060" stroke-width="1.0"/>
           <path id="arrow"
             d="M 11.500037,31.436501 C 11.940474,20.09759 22.043105,11.32322 32.158766,21.979434 L 37.068811,17.246167 C 37.068811,17.246167 37.088388,32 37.088388,32 L 22.160133,31.978069 C 22.160133,31.978069 26.997745,27.140456 26.997745,27.140456 C 18.528582,18.264221 13.291696,25.230495 11.500037,31.436501 z"
             style="fill:#404040;"/>
          </a>
         </g>
        </svg>
</svg>
