<?xml version="1.0" encoding="UTF-8" standalone="no"?>
<!DOCTYPE svg PUBLIC "-//W3C//DTD SVG 1.1//EN"
 "http://www.w3.org/Graphics/SVG/1.1/DTD/svg11.dtd">
<!-- Generated by graphviz version 2.40.1 (20161225.0304)
 -->
<!-- Title: PARSERFUNC Pages: 1 -->
<!--zoomable 332 -->
<svg id="main" version="1.1" xmlns="http://www.w3.org/2000/svg" xmlns:xlink="http://www.w3.org/1999/xlink" xml:space="preserve" onload="init(evt)">
<style type="text/css"><![CDATA[
.edge:hover path { stroke: red; }
.edge:hover polygon { stroke: red; fill: red; }
]]></style>
<script type="text/javascript"><![CDATA[
var edges = document.getElementsByTagName('g');
if (edges && edges.length) {
  for (var i=0;i<edges.length;i++) {
    if (edges[i].id.substr(0,4)=='edge') {
      edges[i].setAttribute('class','edge');
    }
  }
}
]]></script>
        <defs>
                <circle id="rim" cx="0" cy="0" r="7"/>
                <circle id="rim2" cx="0" cy="0" r="3.5"/>
                <g id="zoomPlus">
                        <use xlink:href="#rim" fill="#404040">
                                <set attributeName="fill" to="#808080" begin="zoomplus.mouseover" end="zoomplus.mouseout"/>
                        </use>
                        <path d="M-4,0h8M0,-4v8" fill="none" stroke="white" stroke-width="1.5" pointer-events="none"/>
                </g>
                <g id="zoomMin">
                        <use xlink:href="#rim" fill="#404040">
                                <set attributeName="fill" to="#808080" begin="zoomminus.mouseover" end="zoomminus.mouseout"/>
                        </use>
                        <path d="M-4,0h8" fill="none" stroke="white" stroke-width="1.5" pointer-events="none"/>
                </g>
                <g id="dirArrow">
                        <path fill="none" stroke="white" stroke-width="1.5" d="M0,-3.0v7 M-2.5,-0.5L0,-3.0L2.5,-0.5"/>
                </g>
               <g id="resetDef">
                       <use xlink:href="#rim2" fill="#404040">
                               <set attributeName="fill" to="#808080" begin="reset.mouseover" end="reset.mouseout"/>
                       </use>
               </g>
        </defs>

<script type="text/javascript">
var viewWidth = 593;
var viewHeight = 332;
var sectionId = 'dynsection-2';
</script>
<script xlink:href="svgpan.js"/>
<svg id="graph" class="graph">
<g id="viewport">
<title>PARSERFUNC</title>
<polygon fill="#ffffff" stroke="transparent" points="-4,4 -4,-328 589,-328 589,4 -4,4"/>
<!-- Node17 -->
<g id="node1" class="node">
<title>Node17</title>
<g id="a_node1"><a xlink:title="compound_statement = if block">
<polygon fill="#bfbfbf" stroke="#000000" points="0,-114.5 0,-133.5 86,-133.5 86,-114.5 0,-114.5"/>
<text text-anchor="middle" x="43" y="-121.5" font-family="Helvetica,sans-Serif" font-size="10.00" fill="#000000">PARSERFUNC</text>
</a>
</g>
</g>
<!-- Node18 -->
<g id="node2" class="node">
<title>Node18</title>
<g id="a_node2"><a xlink:href="parser_8h.html#a8c4c57eca60b2cec9a372a04abea456d" target="_top" xlink:title="Advances the parser as long as it can find whitespace.">
<polygon fill="#ffffff" stroke="#000000" points="269.5,-304.5 269.5,-323.5 349.5,-323.5 349.5,-304.5 269.5,-304.5"/>
<text text-anchor="middle" x="309.5" y="-311.5" font-family="Helvetica,sans-Serif" font-size="10.00" fill="#000000">parser_skipws</text>
</a>
</g>
</g>
<!-- Node17&#45;&gt;Node18 -->
<g id="edge1" class="edge">
<title>Node17&#45;&gt;Node18</title>
<path fill="none" stroke="#191970" d="M49.1984,-133.6391C61.3864,-152.0302 90.0771,-192.6397 122,-219 168.2713,-257.2086 232.4628,-285.5289 272.4603,-300.899"/>
<polygon fill="#191970" stroke="#191970" points="271.2451,-304.1813 281.8369,-304.435 273.7152,-297.6315 271.2451,-304.1813"/>
</g>
<!-- Node21 -->
<g id="node5" class="node">
<title>Node21</title>
<g id="a_node5"><a xlink:href="parser_8h.html#a3c9c52258898d196f76b4d58595b33b9" target="_top" xlink:title="Advances the parser only if the next n characters (where n is the length of the string) matches the s...">
<polygon fill="#ffffff" stroke="#000000" points="122,-190.5 122,-209.5 224,-209.5 224,-190.5 122,-190.5"/>
<text text-anchor="middle" x="173" y="-197.5" font-family="Helvetica,sans-Serif" font-size="10.00" fill="#000000">parser_acceptstring</text>
</a>
</g>
</g>
<!-- Node17&#45;&gt;Node21 -->
<g id="edge4" class="edge">
<title>Node17&#45;&gt;Node21</title>
<path fill="none" stroke="#191970" d="M54.1351,-133.5287C68.8773,-145.7814 96.0461,-167.1291 122,-181 125.7499,-183.0041 129.7574,-184.8908 133.816,-186.6393"/>
<polygon fill="#191970" stroke="#191970" points="132.6984,-189.9625 143.2816,-190.4588 135.3178,-183.471 132.6984,-189.9625"/>
</g>
<!-- Node26 -->
<g id="node10" class="node">
<title>Node26</title>
<g id="a_node10"><a xlink:href="parser_8h.html#ad7f3825521eb3e5bd3af734357caa4d6" target="_top" xlink:title="If the parser can accept the given character, accept it, else push an error on the parsers errorstack...">
<polygon fill="#ffffff" stroke="#000000" points="124.5,-152.5 124.5,-171.5 221.5,-171.5 221.5,-152.5 124.5,-152.5"/>
<text text-anchor="middle" x="173" y="-159.5" font-family="Helvetica,sans-Serif" font-size="10.00" fill="#000000">parser_expectchar</text>
</a>
</g>
</g>
<!-- Node17&#45;&gt;Node26 -->
<g id="edge10" class="edge">
<title>Node17&#45;&gt;Node26</title>
<path fill="none" stroke="#191970" d="M75.8045,-133.589C92.2783,-138.4044 112.4434,-144.2988 130.1273,-149.468"/>
<polygon fill="#191970" stroke="#191970" points="129.6256,-152.9677 140.206,-152.4141 131.5897,-146.2489 129.6256,-152.9677"/>
</g>
<!-- Node27 -->
<g id="node11" class="node">
<title>Node27</title>
<g id="a_node11"><a xlink:href="error_8c.html#a1febf822c4d9249dd4afd09c5d5f87bb" target="_top" xlink:title="Construct a new error object out of parameters, and push it to the errorstack.">
<polygon fill="#ffffff" stroke="#000000" points="266.5,-114.5 266.5,-133.5 352.5,-133.5 352.5,-114.5 266.5,-114.5"/>
<text text-anchor="middle" x="309.5" y="-121.5" font-family="Helvetica,sans-Serif" font-size="10.00" fill="#000000">errorstack_push</text>
</a>
</g>
</g>
<!-- Node17&#45;&gt;Node27 -->
<g id="edge15" class="edge">
<title>Node17&#45;&gt;Node27</title>
<path fill="none" stroke="#191970" d="M86.114,-124C132.4624,-124 206.2004,-124 256.1652,-124"/>
<polygon fill="#191970" stroke="#191970" points="256.448,-127.5001 266.4479,-124 256.4479,-120.5001 256.448,-127.5001"/>
</g>
<!-- Node28 -->
<g id="node12" class="node">
<title>Node28</title>
<g id="a_node12"><a xlink:href="AST_8c.html#a3a1c70c232e669f02ef0a4e171ee6ab2" target="_top" xlink:title="Constructore for ast objects.">
<polygon fill="#ffffff" stroke="#000000" points="143.5,-76.5 143.5,-95.5 202.5,-95.5 202.5,-76.5 143.5,-76.5"/>
<text text-anchor="middle" x="173" y="-83.5" font-family="Helvetica,sans-Serif" font-size="10.00" fill="#000000">AST_new</text>
</a>
</g>
</g>
<!-- Node17&#45;&gt;Node28 -->
<g id="edge13" class="edge">
<title>Node17&#45;&gt;Node28</title>
<path fill="none" stroke="#191970" d="M75.8045,-114.411C93.4019,-109.2671 115.2112,-102.8921 133.709,-97.485"/>
<polygon fill="#191970" stroke="#191970" points="134.7016,-100.8414 143.318,-94.6763 132.7376,-94.1226 134.7016,-100.8414"/>
</g>
<!-- Node29 -->
<g id="node13" class="node">
<title>Node29</title>
<g id="a_node13"><a xlink:href="token_8h.html#a5f63b7723640416a125433badc7d6563" target="_top" xlink:title="Constructor for token objects.">
<polygon fill="#ffffff" stroke="#000000" points="141,-38.5 141,-57.5 205,-57.5 205,-38.5 141,-38.5"/>
<text text-anchor="middle" x="173" y="-45.5" font-family="Helvetica,sans-Serif" font-size="10.00" fill="#000000">token_new</text>
</a>
</g>
</g>
<!-- Node17&#45;&gt;Node29 -->
<g id="edge14" class="edge">
<title>Node17&#45;&gt;Node29</title>
<path fill="none" stroke="#191970" d="M54.1351,-114.4713C68.8773,-102.2186 96.0461,-80.8709 122,-67 125.7499,-64.9959 129.7574,-63.1092 133.816,-61.3607"/>
<polygon fill="#191970" stroke="#191970" points="135.3178,-64.529 143.2816,-57.5412 132.6984,-58.0375 135.3178,-64.529"/>
</g>
<!-- Node30 -->
<g id="node14" class="node">
<title>Node30</title>
<g id="a_node14"><a xlink:href="AST_8c.html#a5f9c0bcd1d544aac044f4acf93c27ddb" target="_top" xlink:title="Adds a child ast node to a parent ast node.">
<polygon fill="#ffffff" stroke="#000000" points="133,-.5 133,-19.5 213,-19.5 213,-.5 133,-.5"/>
<text text-anchor="middle" x="173" y="-7.5" font-family="Helvetica,sans-Serif" font-size="10.00" fill="#000000">AST_addChild</text>
</a>
</g>
</g>
<!-- Node17&#45;&gt;Node30 -->
<g id="edge16" class="edge">
<title>Node17&#45;&gt;Node30</title>
<path fill="none" stroke="#191970" d="M48.6837,-114.2184C60.1899,-95.2168 88.0553,-53.0728 122,-29 124.659,-27.1143 127.5276,-25.3918 130.5009,-23.8227"/>
<polygon fill="#191970" stroke="#191970" points="132.0463,-26.964 139.6306,-19.5661 129.0883,-20.6197 132.0463,-26.964"/>
</g>
<!-- Node19 -->
<g id="node3" class="node">
<title>Node19</title>
<g id="a_node3"><a xlink:href="parserutil_8c.html#a2d9e8c20025b7b883c4e87790685a6ad" target="_top" xlink:title="Proxy to parser_next.">
<polygon fill="#ffffff" stroke="#000000" points="395,-228.5 395,-247.5 481,-247.5 481,-228.5 395,-228.5"/>
<text text-anchor="middle" x="438" y="-235.5" font-family="Helvetica,sans-Serif" font-size="10.00" fill="#000000">parser_advance</text>
</a>
</g>
</g>
<!-- Node18&#45;&gt;Node19 -->
<g id="edge2" class="edge">
<title>Node18&#45;&gt;Node19</title>
<path fill="none" stroke="#191970" d="M338.0749,-304.4751C345.0778,-301.7514 352.4415,-298.5469 359,-295 380.715,-283.2563 403.3509,-266.3732 418.7976,-254.0297"/>
<polygon fill="#191970" stroke="#191970" points="421.0334,-256.7228 426.5879,-247.7007 416.6195,-251.2897 421.0334,-256.7228"/>
</g>
<!-- Node20 -->
<g id="node4" class="node">
<title>Node20</title>
<g id="a_node4"><a xlink:href="parserutil_8c.html#ab25a97ff31329fe9461666bfe2dc6f2c" target="_top" xlink:title="Iterate the parser.">
<polygon fill="#ffffff" stroke="#000000" points="517,-228.5 517,-247.5 585,-247.5 585,-228.5 517,-228.5"/>
<text text-anchor="middle" x="551" y="-235.5" font-family="Helvetica,sans-Serif" font-size="10.00" fill="#000000">parser_next</text>
</a>
</g>
</g>
<!-- Node19&#45;&gt;Node20 -->
<g id="edge3" class="edge">
<title>Node19&#45;&gt;Node20</title>
<path fill="none" stroke="#191970" d="M481.0428,-238C489.4677,-238 498.3165,-238 506.7791,-238"/>
<polygon fill="#191970" stroke="#191970" points="506.8556,-241.5001 516.8556,-238 506.8555,-234.5001 506.8556,-241.5001"/>
</g>
<!-- Node22 -->
<g id="node6" class="node">
<title>Node22</title>
<g id="a_node6"><a xlink:href="parserutil_8c.html#aecf4b8bdaae9ca8435542900cf024f4e" target="_top" xlink:title="Copy a parser.">
<polygon fill="#ffffff" stroke="#000000" points="274.5,-266.5 274.5,-285.5 344.5,-285.5 344.5,-266.5 274.5,-266.5"/>
<text text-anchor="middle" x="309.5" y="-273.5" font-family="Helvetica,sans-Serif" font-size="10.00" fill="#000000">parser_copy</text>
</a>
</g>
</g>
<!-- Node21&#45;&gt;Node22 -->
<g id="edge5" class="edge">
<title>Node21&#45;&gt;Node22</title>
<path fill="none" stroke="#191970" d="M185.737,-209.5998C202.2386,-221.7367 232.1944,-242.7618 260,-257 263.8253,-258.9588 267.9017,-260.835 272.0103,-262.5937"/>
<polygon fill="#191970" stroke="#191970" points="270.9708,-265.9491 281.5529,-266.4675 273.6037,-259.4631 270.9708,-265.9491"/>
</g>
<!-- Node23 -->
<g id="node7" class="node">
<title>Node23</title>
<g id="a_node7"><a xlink:href="parserutil_8c.html#a1a00af051004cb18edac760f39982eea" target="_top" xlink:title="Searches for the given character, advances the parser if it found it.">
<polygon fill="#ffffff" stroke="#000000" points="261,-152.5 261,-171.5 358,-171.5 358,-152.5 261,-152.5"/>
<text text-anchor="middle" x="309.5" y="-159.5" font-family="Helvetica,sans-Serif" font-size="10.00" fill="#000000">parser_acceptchar</text>
</a>
</g>
</g>
<!-- Node21&#45;&gt;Node23 -->
<g id="edge6" class="edge">
<title>Node21&#45;&gt;Node23</title>
<path fill="none" stroke="#191970" d="M207.4447,-190.411C224.9847,-185.5281 246.51,-179.5357 265.2631,-174.315"/>
<polygon fill="#191970" stroke="#191970" points="266.3713,-177.6397 275.0663,-171.5859 264.494,-170.8961 266.3713,-177.6397"/>
</g>
<!-- Node24 -->
<g id="node8" class="node">
<title>Node24</title>
<g id="a_node8"><a xlink:href="parserutil_8c.html#a1f1841a636bfe529466c99e3db9999cd" target="_top" xlink:title="Restores a parser to another parser&#39;s position.">
<polygon fill="#ffffff" stroke="#000000" points="270,-228.5 270,-247.5 349,-247.5 349,-228.5 270,-228.5"/>
<text text-anchor="middle" x="309.5" y="-235.5" font-family="Helvetica,sans-Serif" font-size="10.00" fill="#000000">parser_restore</text>
</a>
</g>
</g>
<!-- Node21&#45;&gt;Node24 -->
<g id="edge8" class="edge">
<title>Node21&#45;&gt;Node24</title>
<path fill="none" stroke="#191970" d="M207.4447,-209.589C224.9847,-214.4719 246.51,-220.4643 265.2631,-225.685"/>
<polygon fill="#191970" stroke="#191970" points="264.494,-229.1039 275.0663,-228.4141 266.3713,-222.3603 264.494,-229.1039"/>
</g>
<!-- Node25 -->
<g id="node9" class="node">
<title>Node25</title>
<g id="a_node9"><a xlink:href="parserutil_8c.html#ab62454c7986532e03ea36b14956b5ad1" target="_top" xlink:title="Simple parser destructor.">
<polygon fill="#ffffff" stroke="#000000" points="260,-190.5 260,-209.5 359,-209.5 359,-190.5 260,-190.5"/>
<text text-anchor="middle" x="309.5" y="-197.5" font-family="Helvetica,sans-Serif" font-size="10.00" fill="#000000">parser_free_simple</text>
</a>
</g>
</g>
<!-- Node21&#45;&gt;Node25 -->
<g id="edge9" class="edge">
<title>Node21&#45;&gt;Node25</title>
<path fill="none" stroke="#191970" d="M224.2159,-200C232.4983,-200 241.1383,-200 249.6042,-200"/>
<polygon fill="#191970" stroke="#191970" points="249.8086,-203.5001 259.8086,-200 249.8085,-196.5001 249.8086,-203.5001"/>
</g>
<!-- Node23&#45;&gt;Node19 -->
<g id="edge7" class="edge">
<title>Node23&#45;&gt;Node19</title>
<path fill="none" stroke="#191970" d="M338.0749,-171.5249C345.0778,-174.2486 352.4415,-177.4531 359,-181 380.715,-192.7437 403.3509,-209.6268 418.7976,-221.9703"/>
<polygon fill="#191970" stroke="#191970" points="416.6195,-224.7103 426.5879,-228.2993 421.0334,-219.2772 416.6195,-224.7103"/>
</g>
<!-- Node26&#45;&gt;Node23 -->
<g id="edge11" class="edge">
<title>Node26&#45;&gt;Node23</title>
<path fill="none" stroke="#191970" d="M221.5091,-162C230.9501,-162 240.9424,-162 250.6741,-162"/>
<polygon fill="#191970" stroke="#191970" points="250.6872,-165.5001 260.6872,-162 250.6871,-158.5001 250.6872,-165.5001"/>
</g>
<!-- Node26&#45;&gt;Node27 -->
<g id="edge12" class="edge">
<title>Node26&#45;&gt;Node27</title>
<path fill="none" stroke="#191970" d="M207.4447,-152.411C224.9847,-147.5281 246.51,-141.5357 265.2631,-136.315"/>
<polygon fill="#191970" stroke="#191970" points="266.3713,-139.6397 275.0663,-133.5859 264.494,-132.8961 266.3713,-139.6397"/>
</g>
</g>
</svg>
        <g id="navigator" transform="translate(0 0)" fill="#404254">
                <rect fill="#f2f5e9" fill-opacity="0.5" stroke="#606060" stroke-width=".5" x="0" y="0" width="60" height="60"/>
                <use id="zoomplus" xlink:href="#zoomPlus" x="17" y="9" onmousedown="handleZoom(evt,'in')"/>
                <use id="zoomminus" xlink:href="#zoomMin" x="42" y="9" onmousedown="handleZoom(evt,'out')"/>
                <use id="reset" xlink:href="#resetDef" x="30" y="36" onmousedown="handleReset()"/>
                <g id="arrowUp" xlink:href="#dirArrow" transform="translate(30 24)" onmousedown="handlePan(0,-1)">
                  <use xlink:href="#rim" fill="#404040">
                        <set attributeName="fill" to="#808080" begin="arrowUp.mouseover" end="arrowUp.mouseout"/>
                  </use>
                  <path fill="none" stroke="white" stroke-width="1.5" d="M0,-3.0v7 M-2.5,-0.5L0,-3.0L2.5,-0.5"/>
                </g>
                <g id="arrowRight" xlink:href="#dirArrow" transform="rotate(90) translate(36 -43)" onmousedown="handlePan(1,0)">
                  <use xlink:href="#rim" fill="#404040">
                        <set attributeName="fill" to="#808080" begin="arrowRight.mouseover" end="arrowRight.mouseout"/>
                  </use>
                  <path fill="none" stroke="white" stroke-width="1.5" d="M0,-3.0v7 M-2.5,-0.5L0,-3.0L2.5,-0.5"/>
                </g>
                <g id="arrowDown" xlink:href="#dirArrow" transform="rotate(180) translate(-30 -48)" onmousedown="handlePan(0,1)">
                  <use xlink:href="#rim" fill="#404040">
                        <set attributeName="fill" to="#808080" begin="arrowDown.mouseover" end="arrowDown.mouseout"/>
                  </use>
                  <path fill="none" stroke="white" stroke-width="1.5" d="M0,-3.0v7 M-2.5,-0.5L0,-3.0L2.5,-0.5"/>
                </g>
                <g id="arrowLeft" xlink:href="#dirArrow" transform="rotate(270) translate(-36 17)" onmousedown="handlePan(-1,0)">
                  <use xlink:href="#rim" fill="#404040">
                        <set attributeName="fill" to="#808080" begin="arrowLeft.mouseover" end="arrowLeft.mouseout"/>
                  </use>
                  <path fill="none" stroke="white" stroke-width="1.5" d="M0,-3.0v7 M-2.5,-0.5L0,-3.0L2.5,-0.5"/>
                </g>
        </g>
        <svg viewBox="0 0 15 15" width="100%" height="30px" preserveAspectRatio="xMaxYMin meet">
         <g id="arrow_out" transform="scale(0.3 0.3)">
          <a xlink:href="compound_8c_a444a5a98b186dce3be5c91d7d83ad5d1_cgraph_org.svg" target="_base">
           <rect id="button" ry="5" rx="5" y="6" x="6" height="38" width="38"
                fill="#f2f5e9" fill-opacity="0.5" stroke="#606060" stroke-width="1.0"/>
           <path id="arrow"
             d="M 11.500037,31.436501 C 11.940474,20.09759 22.043105,11.32322 32.158766,21.979434 L 37.068811,17.246167 C 37.068811,17.246167 37.088388,32 37.088388,32 L 22.160133,31.978069 C 22.160133,31.978069 26.997745,27.140456 26.997745,27.140456 C 18.528582,18.264221 13.291696,25.230495 11.500037,31.436501 z"
             style="fill:#404040;"/>
          </a>
         </g>
        </svg>
</svg>
