<?xml version="1.0" encoding="UTF-8" standalone="no"?>
<!DOCTYPE svg PUBLIC "-//W3C//DTD SVG 1.1//EN"
 "http://www.w3.org/Graphics/SVG/1.1/DTD/svg11.dtd">
<!-- Generated by graphviz version 2.40.1 (20161225.0304)
 -->
<!-- Title: PARSERFUNC Pages: 1 -->
<!--zoomable 294 -->
<svg id="main" version="1.1" xmlns="http://www.w3.org/2000/svg" xmlns:xlink="http://www.w3.org/1999/xlink" xml:space="preserve" onload="init(evt)">
<style type="text/css"><![CDATA[
.edge:hover path { stroke: red; }
.edge:hover polygon { stroke: red; fill: red; }
]]></style>
<script type="text/javascript"><![CDATA[
var edges = document.getElementsByTagName('g');
if (edges && edges.length) {
  for (var i=0;i<edges.length;i++) {
    if (edges[i].id.substr(0,4)=='edge') {
      edges[i].setAttribute('class','edge');
    }
  }
}
]]></script>
        <defs>
                <circle id="rim" cx="0" cy="0" r="7"/>
                <circle id="rim2" cx="0" cy="0" r="3.5"/>
                <g id="zoomPlus">
                        <use xlink:href="#rim" fill="#404040">
                                <set attributeName="fill" to="#808080" begin="zoomplus.mouseover" end="zoomplus.mouseout"/>
                        </use>
                        <path d="M-4,0h8M0,-4v8" fill="none" stroke="white" stroke-width="1.5" pointer-events="none"/>
                </g>
                <g id="zoomMin">
                        <use xlink:href="#rim" fill="#404040">
                                <set attributeName="fill" to="#808080" begin="zoomminus.mouseover" end="zoomminus.mouseout"/>
                        </use>
                        <path d="M-4,0h8" fill="none" stroke="white" stroke-width="1.5" pointer-events="none"/>
                </g>
                <g id="dirArrow">
                        <path fill="none" stroke="white" stroke-width="1.5" d="M0,-3.0v7 M-2.5,-0.5L0,-3.0L2.5,-0.5"/>
                </g>
               <g id="resetDef">
                       <use xlink:href="#rim2" fill="#404040">
                               <set attributeName="fill" to="#808080" begin="reset.mouseover" end="reset.mouseout"/>
                       </use>
               </g>
        </defs>

<script type="text/javascript">
var viewWidth = 624;
var viewHeight = 294;
var sectionId = 'dynsection-2';
</script>
<script xlink:href="svgpan.js"/>
<svg id="graph" class="graph">
<g id="viewport">
<title>PARSERFUNC</title>
<polygon fill="#ffffff" stroke="transparent" points="-4,4 -4,-290 620,-290 620,4 -4,4"/>
<!-- Node17 -->
<g id="node1" class="node">
<title>Node17</title>
<g id="a_node1"><a xlink:title="compound_statement = if block">
<polygon fill="#bfbfbf" stroke="#000000" points="0,-95.5 0,-114.5 81,-114.5 81,-95.5 0,-95.5"/>
<text text-anchor="middle" x="40.5" y="-102.5" font-family="Helvetica,sans-Serif" font-size="10.00" fill="#000000">PARSERFUNC</text>
</a>
</g>
</g>
<!-- Node18 -->
<g id="node2" class="node">
<title>Node18</title>
<g id="a_node2"><a xlink:href="parser_8h.html#a8c4c57eca60b2cec9a372a04abea456d" target="_top" xlink:title="Advances the parser as long as it can find whitespace.">
<polygon fill="#ffffff" stroke="#000000" points="278,-266.5 278,-285.5 364,-285.5 364,-266.5 278,-266.5"/>
<text text-anchor="middle" x="321" y="-273.5" font-family="Helvetica,sans-Serif" font-size="10.00" fill="#000000">parser_skipws</text>
</a>
</g>
</g>
<!-- Node17&#45;&gt;Node18 -->
<g id="edge1" class="edge">
<title>Node17&#45;&gt;Node18</title>
<path fill="none" stroke="#191970" d="M48.6299,-114.8582C61.7879,-130.3714 89.1029,-160.7922 117,-181 169.3959,-218.9539 239.3682,-247.5575 282.2523,-263.026"/>
<polygon fill="#191970" stroke="#191970" points="281.1647,-266.3539 291.7594,-266.3999 283.5058,-259.757 281.1647,-266.3539"/>
</g>
<!-- Node21 -->
<g id="node5" class="node">
<title>Node21</title>
<g id="a_node5"><a xlink:href="parser_8h.html#a3c9c52258898d196f76b4d58595b33b9" target="_top" xlink:title="Advances the parser only if the next n characters (where n is the length of the string) matches the s...">
<polygon fill="#ffffff" stroke="#000000" points="117,-152.5 117,-171.5 230,-171.5 230,-152.5 117,-152.5"/>
<text text-anchor="middle" x="173.5" y="-159.5" font-family="Helvetica,sans-Serif" font-size="10.00" fill="#000000">parser_acceptstring</text>
</a>
</g>
</g>
<!-- Node17&#45;&gt;Node21 -->
<g id="edge4" class="edge">
<title>Node17&#45;&gt;Node21</title>
<path fill="none" stroke="#191970" d="M58.1105,-114.6091C73.4139,-122.7494 96.3121,-134.4304 117,-143 122.139,-145.1288 127.6108,-147.2012 133.049,-149.1471"/>
<polygon fill="#191970" stroke="#191970" points="132.1277,-152.532 142.7225,-152.498 134.419,-145.9175 132.1277,-152.532"/>
</g>
<!-- Node26 -->
<g id="node10" class="node">
<title>Node26</title>
<g id="a_node10"><a xlink:href="parser_8h.html#ad7f3825521eb3e5bd3af734357caa4d6" target="_top" xlink:title="If the parser can accept the given character, accept it, else push an error on the parsers errorstack...">
<polygon fill="#ffffff" stroke="#000000" points="120,-114.5 120,-133.5 227,-133.5 227,-114.5 120,-114.5"/>
<text text-anchor="middle" x="173.5" y="-121.5" font-family="Helvetica,sans-Serif" font-size="10.00" fill="#000000">parser_expectchar</text>
</a>
</g>
</g>
<!-- Node17&#45;&gt;Node26 -->
<g id="edge10" class="edge">
<title>Node17&#45;&gt;Node26</title>
<path fill="none" stroke="#191970" d="M81.1271,-110.8039C90.1987,-112.0998 100.0313,-113.5045 109.7839,-114.8977"/>
<polygon fill="#191970" stroke="#191970" points="109.4885,-118.3909 119.883,-116.3404 110.4785,-111.4613 109.4885,-118.3909"/>
</g>
<!-- Node28 -->
<g id="node12" class="node">
<title>Node28</title>
<g id="a_node12"><a xlink:href="AST_8c.html#a3a1c70c232e669f02ef0a4e171ee6ab2" target="_top" xlink:title="Constructore for ast objects.">
<polygon fill="#ffffff" stroke="#000000" points="143,-76.5 143,-95.5 204,-95.5 204,-76.5 143,-76.5"/>
<text text-anchor="middle" x="173.5" y="-83.5" font-family="Helvetica,sans-Serif" font-size="10.00" fill="#000000">AST_new</text>
</a>
</g>
</g>
<!-- Node17&#45;&gt;Node28 -->
<g id="edge13" class="edge">
<title>Node17&#45;&gt;Node28</title>
<path fill="none" stroke="#191970" d="M81.1271,-99.1961C97.4201,-96.8686 116.1681,-94.1903 132.4984,-91.8574"/>
<polygon fill="#191970" stroke="#191970" points="133.4261,-95.2605 142.8306,-90.3813 132.4361,-88.3308 133.4261,-95.2605"/>
</g>
<!-- Node29 -->
<g id="node13" class="node">
<title>Node29</title>
<g id="a_node13"><a xlink:href="token_8h.html#a5f63b7723640416a125433badc7d6563" target="_top" xlink:title="Constructor for token objects.">
<polygon fill="#ffffff" stroke="#000000" points="138.5,-38.5 138.5,-57.5 208.5,-57.5 208.5,-38.5 138.5,-38.5"/>
<text text-anchor="middle" x="173.5" y="-45.5" font-family="Helvetica,sans-Serif" font-size="10.00" fill="#000000">token_new</text>
</a>
</g>
</g>
<!-- Node17&#45;&gt;Node29 -->
<g id="edge14" class="edge">
<title>Node17&#45;&gt;Node29</title>
<path fill="none" stroke="#191970" d="M58.1105,-95.3909C73.4139,-87.2506 96.3121,-75.5696 117,-67 122.139,-64.8712 127.6108,-62.7988 133.049,-60.8529"/>
<polygon fill="#191970" stroke="#191970" points="134.419,-64.0825 142.7225,-57.502 132.1277,-57.468 134.419,-64.0825"/>
</g>
<!-- Node30 -->
<g id="node14" class="node">
<title>Node30</title>
<g id="a_node14"><a xlink:href="AST_8c.html#a5f9c0bcd1d544aac044f4acf93c27ddb" target="_top" xlink:title="Adds a child ast node to a parent ast node.">
<polygon fill="#ffffff" stroke="#000000" points="132,-.5 132,-19.5 215,-19.5 215,-.5 132,-.5"/>
<text text-anchor="middle" x="173.5" y="-7.5" font-family="Helvetica,sans-Serif" font-size="10.00" fill="#000000">AST_addChild</text>
</a>
</g>
</g>
<!-- Node17&#45;&gt;Node30 -->
<g id="edge15" class="edge">
<title>Node17&#45;&gt;Node30</title>
<path fill="none" stroke="#191970" d="M47.6851,-95.4219C60.1243,-79.4689 87.214,-47.3959 117,-29 120.3225,-26.948 123.8931,-25.0882 127.5664,-23.4084"/>
<polygon fill="#191970" stroke="#191970" points="128.9112,-26.6398 136.8263,-19.5969 126.2468,-20.1667 128.9112,-26.6398"/>
</g>
<!-- Node19 -->
<g id="node3" class="node">
<title>Node19</title>
<g id="a_node3"><a xlink:href="parserutil_8c.html#a2d9e8c20025b7b883c4e87790685a6ad" target="_top" xlink:title="Proxy to parser_next.">
<polygon fill="#ffffff" stroke="#000000" points="412,-190.5 412,-209.5 506,-209.5 506,-190.5 412,-190.5"/>
<text text-anchor="middle" x="459" y="-197.5" font-family="Helvetica,sans-Serif" font-size="10.00" fill="#000000">parser_advance</text>
</a>
</g>
</g>
<!-- Node18&#45;&gt;Node19 -->
<g id="edge2" class="edge">
<title>Node18&#45;&gt;Node19</title>
<path fill="none" stroke="#191970" d="M353.3007,-266.4663C360.909,-263.7798 368.8744,-260.5945 376,-257 398.9133,-245.4415 422.8432,-228.3937 439.0879,-215.9542"/>
<polygon fill="#191970" stroke="#191970" points="441.5297,-218.4887 447.2668,-209.5816 437.2273,-212.9669 441.5297,-218.4887"/>
</g>
<!-- Node20 -->
<g id="node4" class="node">
<title>Node20</title>
<g id="a_node4"><a xlink:href="parserutil_8c.html#ab25a97ff31329fe9461666bfe2dc6f2c" target="_top" xlink:title="Iterate the parser.">
<polygon fill="#ffffff" stroke="#000000" points="542,-190.5 542,-209.5 616,-209.5 616,-190.5 542,-190.5"/>
<text text-anchor="middle" x="579" y="-197.5" font-family="Helvetica,sans-Serif" font-size="10.00" fill="#000000">parser_next</text>
</a>
</g>
</g>
<!-- Node19&#45;&gt;Node20 -->
<g id="edge3" class="edge">
<title>Node19&#45;&gt;Node20</title>
<path fill="none" stroke="#191970" d="M506.0828,-200C514.4854,-200 523.2428,-200 531.6528,-200"/>
<polygon fill="#191970" stroke="#191970" points="531.6916,-203.5001 541.6916,-200 531.6916,-196.5001 531.6916,-203.5001"/>
</g>
<!-- Node22 -->
<g id="node6" class="node">
<title>Node22</title>
<g id="a_node6"><a xlink:href="parserutil_8c.html#aecf4b8bdaae9ca8435542900cf024f4e" target="_top" xlink:title="Copy a parser.">
<polygon fill="#ffffff" stroke="#000000" points="283,-228.5 283,-247.5 359,-247.5 359,-228.5 283,-228.5"/>
<text text-anchor="middle" x="321" y="-235.5" font-family="Helvetica,sans-Serif" font-size="10.00" fill="#000000">parser_copy</text>
</a>
</g>
</g>
<!-- Node21&#45;&gt;Node22 -->
<g id="edge5" class="edge">
<title>Node21&#45;&gt;Node22</title>
<path fill="none" stroke="#191970" d="M187.0651,-171.6838C204.634,-183.9094 236.5089,-205.0282 266,-219 270.3908,-221.0802 275.0729,-223.0493 279.782,-224.8758"/>
<polygon fill="#191970" stroke="#191970" points="278.8077,-228.2466 289.4012,-228.4142 281.2244,-221.677 278.8077,-228.2466"/>
</g>
<!-- Node23 -->
<g id="node7" class="node">
<title>Node23</title>
<g id="a_node7"><a xlink:href="parserutil_8c.html#a1a00af051004cb18edac760f39982eea" target="_top" xlink:title="Searches for the given character, advances the parser if it found it.">
<polygon fill="#ffffff" stroke="#000000" points="268,-114.5 268,-133.5 374,-133.5 374,-114.5 268,-114.5"/>
<text text-anchor="middle" x="321" y="-121.5" font-family="Helvetica,sans-Serif" font-size="10.00" fill="#000000">parser_acceptchar</text>
</a>
</g>
</g>
<!-- Node21&#45;&gt;Node23 -->
<g id="edge6" class="edge">
<title>Node21&#45;&gt;Node23</title>
<path fill="none" stroke="#191970" d="M210.7205,-152.411C230.0093,-147.4417 253.7584,-141.3233 274.271,-136.0387"/>
<polygon fill="#191970" stroke="#191970" points="275.2366,-139.4043 284.0472,-133.5201 273.4902,-132.6256 275.2366,-139.4043"/>
</g>
<!-- Node24 -->
<g id="node8" class="node">
<title>Node24</title>
<g id="a_node8"><a xlink:href="parserutil_8c.html#a1f1841a636bfe529466c99e3db9999cd" target="_top" xlink:title="Restores a parser to another parser&#39;s position.">
<polygon fill="#ffffff" stroke="#000000" points="277.5,-190.5 277.5,-209.5 364.5,-209.5 364.5,-190.5 277.5,-190.5"/>
<text text-anchor="middle" x="321" y="-197.5" font-family="Helvetica,sans-Serif" font-size="10.00" fill="#000000">parser_restore</text>
</a>
</g>
</g>
<!-- Node21&#45;&gt;Node24 -->
<g id="edge8" class="edge">
<title>Node21&#45;&gt;Node24</title>
<path fill="none" stroke="#191970" d="M210.7205,-171.589C230.0093,-176.5583 253.7584,-182.6767 274.271,-187.9613"/>
<polygon fill="#191970" stroke="#191970" points="273.4902,-191.3744 284.0472,-190.4799 275.2366,-184.5957 273.4902,-191.3744"/>
</g>
<!-- Node25 -->
<g id="node9" class="node">
<title>Node25</title>
<g id="a_node9"><a xlink:href="parserutil_8c.html#ab62454c7986532e03ea36b14956b5ad1" target="_top" xlink:title="Simple parser destructor.">
<polygon fill="#ffffff" stroke="#000000" points="266,-152.5 266,-171.5 376,-171.5 376,-152.5 266,-152.5"/>
<text text-anchor="middle" x="321" y="-159.5" font-family="Helvetica,sans-Serif" font-size="10.00" fill="#000000">parser_free_simple</text>
</a>
</g>
</g>
<!-- Node21&#45;&gt;Node25 -->
<g id="edge9" class="edge">
<title>Node21&#45;&gt;Node25</title>
<path fill="none" stroke="#191970" d="M230.1055,-162C238.4226,-162 247.0477,-162 255.5251,-162"/>
<polygon fill="#191970" stroke="#191970" points="255.7618,-165.5001 265.7618,-162 255.7617,-158.5001 255.7618,-165.5001"/>
</g>
<!-- Node23&#45;&gt;Node19 -->
<g id="edge7" class="edge">
<title>Node23&#45;&gt;Node19</title>
<path fill="none" stroke="#191970" d="M353.3007,-133.5337C360.909,-136.2202 368.8744,-139.4055 376,-143 398.9133,-154.5585 422.8432,-171.6063 439.0879,-184.0458"/>
<polygon fill="#191970" stroke="#191970" points="437.2273,-187.0331 447.2668,-190.4184 441.5297,-181.5113 437.2273,-187.0331"/>
</g>
<!-- Node26&#45;&gt;Node23 -->
<g id="edge11" class="edge">
<title>Node26&#45;&gt;Node23</title>
<path fill="none" stroke="#191970" d="M227.1681,-124C237.0526,-124 247.4581,-124 257.5974,-124"/>
<polygon fill="#191970" stroke="#191970" points="257.6188,-127.5001 267.6188,-124 257.6188,-120.5001 257.6188,-127.5001"/>
</g>
<!-- Node27 -->
<g id="node11" class="node">
<title>Node27</title>
<g id="a_node11"><a xlink:href="error_8c.html#ae07365063509d8944da638087336597b" target="_top" xlink:title="Construct a new error object out of parameters, and push it to the errorstack.">
<polygon fill="#ffffff" stroke="#000000" points="273.5,-76.5 273.5,-95.5 368.5,-95.5 368.5,-76.5 273.5,-76.5"/>
<text text-anchor="middle" x="321" y="-83.5" font-family="Helvetica,sans-Serif" font-size="10.00" fill="#000000">errorstack_push</text>
</a>
</g>
</g>
<!-- Node26&#45;&gt;Node27 -->
<g id="edge12" class="edge">
<title>Node26&#45;&gt;Node27</title>
<path fill="none" stroke="#191970" d="M210.7205,-114.411C230.0093,-109.4417 253.7584,-103.3233 274.271,-98.0387"/>
<polygon fill="#191970" stroke="#191970" points="275.2366,-101.4043 284.0472,-95.5201 273.4902,-94.6256 275.2366,-101.4043"/>
</g>
</g>
</svg>
        <g id="navigator" transform="translate(0 0)" fill="#404254">
                <rect fill="#f2f5e9" fill-opacity="0.5" stroke="#606060" stroke-width=".5" x="0" y="0" width="60" height="60"/>
                <use id="zoomplus" xlink:href="#zoomPlus" x="17" y="9" onmousedown="handleZoom(evt,'in')"/>
                <use id="zoomminus" xlink:href="#zoomMin" x="42" y="9" onmousedown="handleZoom(evt,'out')"/>
                <use id="reset" xlink:href="#resetDef" x="30" y="36" onmousedown="handleReset()"/>
                <g id="arrowUp" xlink:href="#dirArrow" transform="translate(30 24)" onmousedown="handlePan(0,-1)">
                  <use xlink:href="#rim" fill="#404040">
                        <set attributeName="fill" to="#808080" begin="arrowUp.mouseover" end="arrowUp.mouseout"/>
                  </use>
                  <path fill="none" stroke="white" stroke-width="1.5" d="M0,-3.0v7 M-2.5,-0.5L0,-3.0L2.5,-0.5"/>
                </g>
                <g id="arrowRight" xlink:href="#dirArrow" transform="rotate(90) translate(36 -43)" onmousedown="handlePan(1,0)">
                  <use xlink:href="#rim" fill="#404040">
                        <set attributeName="fill" to="#808080" begin="arrowRight.mouseover" end="arrowRight.mouseout"/>
                  </use>
                  <path fill="none" stroke="white" stroke-width="1.5" d="M0,-3.0v7 M-2.5,-0.5L0,-3.0L2.5,-0.5"/>
                </g>
                <g id="arrowDown" xlink:href="#dirArrow" transform="rotate(180) translate(-30 -48)" onmousedown="handlePan(0,1)">
                  <use xlink:href="#rim" fill="#404040">
                        <set attributeName="fill" to="#808080" begin="arrowDown.mouseover" end="arrowDown.mouseout"/>
                  </use>
                  <path fill="none" stroke="white" stroke-width="1.5" d="M0,-3.0v7 M-2.5,-0.5L0,-3.0L2.5,-0.5"/>
                </g>
                <g id="arrowLeft" xlink:href="#dirArrow" transform="rotate(270) translate(-36 17)" onmousedown="handlePan(-1,0)">
                  <use xlink:href="#rim" fill="#404040">
                        <set attributeName="fill" to="#808080" begin="arrowLeft.mouseover" end="arrowLeft.mouseout"/>
                  </use>
                  <path fill="none" stroke="white" stroke-width="1.5" d="M0,-3.0v7 M-2.5,-0.5L0,-3.0L2.5,-0.5"/>
                </g>
        </g>
        <svg viewBox="0 0 15 15" width="100%" height="30px" preserveAspectRatio="xMaxYMin meet">
         <g id="arrow_out" transform="scale(0.3 0.3)">
          <a xlink:href="compound_8c_a444a5a98b186dce3be5c91d7d83ad5d1_cgraph_org.svg" target="_base">
           <rect id="button" ry="5" rx="5" y="6" x="6" height="38" width="38"
                fill="#f2f5e9" fill-opacity="0.5" stroke="#606060" stroke-width="1.0"/>
           <path id="arrow"
             d="M 11.500037,31.436501 C 11.940474,20.09759 22.043105,11.32322 32.158766,21.979434 L 37.068811,17.246167 C 37.068811,17.246167 37.088388,32 37.088388,32 L 22.160133,31.978069 C 22.160133,31.978069 26.997745,27.140456 26.997745,27.140456 C 18.528582,18.264221 13.291696,25.230495 11.500037,31.436501 z"
             style="fill:#404040;"/>
          </a>
         </g>
        </svg>
</svg>
