<?xml version="1.0" encoding="UTF-8" standalone="no"?>
<!DOCTYPE svg PUBLIC "-//W3C//DTD SVG 1.1//EN"
 "http://www.w3.org/Graphics/SVG/1.1/DTD/svg11.dtd">
<!-- Generated by graphviz version 2.40.1 (20161225.0304)
 -->
<!-- Title: builtins/code Pages: 1 -->
<svg width="289pt" height="303pt"
 viewBox="0.00 0.00 288.94 303.00" xmlns="http://www.w3.org/2000/svg" xmlns:xlink="http://www.w3.org/1999/xlink">
<g id="graph0" class="graph" transform="scale(1 1) rotate(0) translate(4 299)">
<title>builtins/code</title>
<polygon fill="#ffffff" stroke="transparent" points="-4,4 -4,-299 284.9428,-299 284.9428,4 -4,4"/>
<g id="clust1" class="cluster">
<title>clusterdir_96245007931de700bb8a76b2e98ce70a</title>
<g id="a_clust1"><a xlink:href="dir_96245007931de700bb8a76b2e98ce70a.html" target="_top" xlink:title="builtins">
<polygon fill="#ddddee" stroke="#000000" points="8,-128 8,-287 94,-287 94,-128 8,-128"/>
<text text-anchor="middle" x="51" y="-275" font-family="Helvetica,sans-Serif" font-size="10.00" fill="#000000">builtins</text>
</a>
</g>
</g>
<g id="clust2" class="cluster">
<title>clusterdir_6c90db5314e3398bb3690284b771412f</title>
<g id="a_clust2"><a xlink:href="dir_6c90db5314e3398bb3690284b771412f.html" target="_top">
<polygon fill="#eeeeff" stroke="#000000" points="16,-136 16,-260 86,-260 86,-136 16,-136"/>
</a>
</g>
</g>
<!-- dir_6c90db5314e3398bb3690284b771412f -->
<g id="node1" class="node">
<title>dir_6c90db5314e3398bb3690284b771412f</title>
<text text-anchor="middle" x="51" y="-231.5" font-family="Helvetica,sans-Serif" font-size="10.00" fill="#000000">code</text>
</g>
<!-- dir_a55979a475f91b17de34d23b93c70fa8 -->
<g id="node2" class="node">
<title>dir_a55979a475f91b17de34d23b93c70fa8</title>
<g id="a_node2"><a xlink:href="dir_a55979a475f91b17de34d23b93c70fa8.html" target="_top" xlink:title="include">
<polygon fill="#ffffff" stroke="#000000" points="78,-180 24,-180 24,-144 78,-144 78,-180"/>
<text text-anchor="middle" x="51" y="-159.5" font-family="Helvetica,sans-Serif" font-size="10.00" fill="#000000">include</text>
</a>
</g>
</g>
<!-- dir_6c90db5314e3398bb3690284b771412f&#45;&gt;dir_a55979a475f91b17de34d23b93c70fa8 -->
<g id="edge4" class="edge">
<title>dir_6c90db5314e3398bb3690284b771412f&#45;&gt;dir_a55979a475f91b17de34d23b93c70fa8</title>
<path fill="none" stroke="#000000" d="M51,-215.8314C51,-208.131 51,-198.9743 51,-190.4166"/>
<polygon fill="#000000" stroke="#000000" points="54.5001,-190.4132 51,-180.4133 47.5001,-190.4133 54.5001,-190.4132"/>
<g id="a_edge4&#45;headlabel"><a xlink:href="dir_000003_000004.html" target="_top" xlink:title="2">
<text text-anchor="middle" x="57.3393" y="-191.5079" font-family="Helvetica,sans-Serif" font-size="10.00" fill="#000000">2</text>
</a>
</g>
</g>
<!-- dir_267116d250309cbe7bd39c0026ee016a -->
<g id="node3" class="node">
<title>dir_267116d250309cbe7bd39c0026ee016a</title>
<g id="a_node3"><a xlink:href="dir_267116d250309cbe7bd39c0026ee016a.html" target="_top" xlink:title="memory">
<polygon fill="#ffffff" stroke="#ff0000" points="205,-108 151,-108 151,-72 205,-72 205,-108"/>
<text text-anchor="middle" x="178" y="-87.5" font-family="Helvetica,sans-Serif" font-size="10.00" fill="#000000">memory</text>
</a>
</g>
</g>
<!-- dir_6c90db5314e3398bb3690284b771412f&#45;&gt;dir_267116d250309cbe7bd39c0026ee016a -->
<g id="edge2" class="edge">
<title>dir_6c90db5314e3398bb3690284b771412f&#45;&gt;dir_267116d250309cbe7bd39c0026ee016a</title>
<path fill="none" stroke="#000000" d="M63.2358,-215.7666C82.3092,-187.4534 117.7064,-135.3859 125,-128 130.3053,-122.6276 136.443,-117.4756 142.6196,-112.7936"/>
<polygon fill="#000000" stroke="#000000" points="144.9498,-115.4273 150.9917,-106.724 140.8411,-109.76 144.9498,-115.4273"/>
<g id="a_edge2&#45;headlabel"><a xlink:href="dir_000003_000025.html" target="_top" xlink:title="2">
<text text-anchor="middle" x="143.7061" y="-117.3359" font-family="Helvetica,sans-Serif" font-size="10.00" fill="#000000">2</text>
</a>
</g>
</g>
<!-- dir_572890c148f68441e050f6560d78312b -->
<g id="node4" class="node">
<title>dir_572890c148f68441e050f6560d78312b</title>
<g id="a_node4"><a xlink:href="dir_572890c148f68441e050f6560d78312b.html" target="_top" xlink:title="parser">
<polygon fill="#ffffff" stroke="#ff0000" points="188,-180 134,-180 134,-144 188,-144 188,-180"/>
<text text-anchor="middle" x="161" y="-159.5" font-family="Helvetica,sans-Serif" font-size="10.00" fill="#000000">parser</text>
</a>
</g>
</g>
<!-- dir_6c90db5314e3398bb3690284b771412f&#45;&gt;dir_572890c148f68441e050f6560d78312b -->
<g id="edge3" class="edge">
<title>dir_6c90db5314e3398bb3690284b771412f&#45;&gt;dir_572890c148f68441e050f6560d78312b</title>
<path fill="none" stroke="#000000" d="M78.191,-216.2022C92.3378,-206.9425 109.8157,-195.5025 125.063,-185.5224"/>
<polygon fill="#000000" stroke="#000000" points="127.2903,-188.2476 133.7406,-179.8425 123.4567,-182.3907 127.2903,-188.2476"/>
<g id="a_edge3&#45;headlabel"><a xlink:href="dir_000003_000027.html" target="_top" xlink:title="2">
<text text-anchor="middle" x="125.8377" y="-190.0918" font-family="Helvetica,sans-Serif" font-size="10.00" fill="#000000">2</text>
</a>
</g>
</g>
<!-- dir_835d68fe110b5be82c2962ab9d4c9d0f -->
<g id="node5" class="node">
<title>dir_835d68fe110b5be82c2962ab9d4c9d0f</title>
<g id="a_node5"><a xlink:href="dir_835d68fe110b5be82c2962ab9d4c9d0f.html" target="_top" xlink:title="string">
<polygon fill="#ffffff" stroke="#ff0000" points="260,-180 206,-180 206,-144 260,-144 260,-180"/>
<text text-anchor="middle" x="233" y="-159.5" font-family="Helvetica,sans-Serif" font-size="10.00" fill="#000000">string</text>
</a>
</g>
</g>
<!-- dir_6c90db5314e3398bb3690284b771412f&#45;&gt;dir_835d68fe110b5be82c2962ab9d4c9d0f -->
<g id="edge5" class="edge">
<title>dir_6c90db5314e3398bb3690284b771412f&#45;&gt;dir_835d68fe110b5be82c2962ab9d4c9d0f</title>
<path fill="none" stroke="#000000" d="M78.2588,-224.9189C106.0027,-215.4598 150.3469,-199.7473 196.3999,-180.0616"/>
<polygon fill="#000000" stroke="#000000" points="197.8385,-183.2528 205.6288,-176.0722 195.0609,-176.8274 197.8385,-183.2528"/>
<g id="a_edge5&#45;headlabel"><a xlink:href="dir_000003_000016.html" target="_top" xlink:title="2">
<text text-anchor="middle" x="195.6655" y="-184.7853" font-family="Helvetica,sans-Serif" font-size="10.00" fill="#000000">2</text>
</a>
</g>
</g>
<!-- dir_608a06ce4a9e8522a04d92d6b87b6029 -->
<g id="node6" class="node">
<title>dir_608a06ce4a9e8522a04d92d6b87b6029</title>
<g id="a_node6"><a xlink:href="dir_608a06ce4a9e8522a04d92d6b87b6029.html" target="_top" xlink:title="object">
<polygon fill="#ffffff" stroke="#ff0000" points="232,-36 178,-36 178,0 232,0 232,-36"/>
<text text-anchor="middle" x="205" y="-15.5" font-family="Helvetica,sans-Serif" font-size="10.00" fill="#000000">object</text>
</a>
</g>
</g>
<!-- dir_6c90db5314e3398bb3690284b771412f&#45;&gt;dir_608a06ce4a9e8522a04d92d6b87b6029 -->
<g id="edge6" class="edge">
<title>dir_6c90db5314e3398bb3690284b771412f&#45;&gt;dir_608a06ce4a9e8522a04d92d6b87b6029</title>
<path fill="none" stroke="#000000" d="M78.2435,-231.3628C131.3481,-225.5996 245.572,-209.9394 269,-180 301.6078,-138.3295 259.7437,-77.9425 229.976,-43.8905"/>
<polygon fill="#000000" stroke="#000000" points="232.3815,-41.331 223.0945,-36.2317 227.1746,-46.0095 232.3815,-41.331"/>
<g id="a_edge6&#45;headlabel"><a xlink:href="dir_000003_000012.html" target="_top" xlink:title="3">
<text text-anchor="middle" x="236.8959" y="-39.6071" font-family="Helvetica,sans-Serif" font-size="10.00" fill="#000000">3</text>
</a>
</g>
</g>
<!-- dir_a55979a475f91b17de34d23b93c70fa8&#45;&gt;dir_608a06ce4a9e8522a04d92d6b87b6029 -->
<g id="edge7" class="edge">
<title>dir_a55979a475f91b17de34d23b93c70fa8&#45;&gt;dir_608a06ce4a9e8522a04d92d6b87b6029</title>
<path fill="none" stroke="#000000" d="M68.3607,-143.8952C73.3736,-138.727 78.8747,-133.1119 84,-128 109.3704,-102.696 115.4966,-96.1147 142,-72 152.6984,-62.2659 164.696,-51.8606 175.328,-42.808"/>
<polygon fill="#000000" stroke="#000000" points="177.7806,-45.3174 183.148,-36.1827 173.2557,-39.9765 177.7806,-45.3174"/>
<g id="a_edge7&#45;headlabel"><a xlink:href="dir_000004_000012.html" target="_top" xlink:title="1">
<text text-anchor="middle" x="176.8734" y="-47.3073" font-family="Helvetica,sans-Serif" font-size="10.00" fill="#000000">1</text>
</a>
</g>
</g>
<!-- dir_267116d250309cbe7bd39c0026ee016a&#45;&gt;dir_608a06ce4a9e8522a04d92d6b87b6029 -->
<g id="edge1" class="edge">
<title>dir_267116d250309cbe7bd39c0026ee016a&#45;&gt;dir_608a06ce4a9e8522a04d92d6b87b6029</title>
<path fill="none" stroke="#000000" d="M184.8132,-71.8314C187.7644,-63.9617 191.2858,-54.5712 194.555,-45.8533"/>
<polygon fill="#000000" stroke="#000000" points="197.8609,-47.0055 198.095,-36.4133 191.3066,-44.5476 197.8609,-47.0055"/>
<g id="a_edge1&#45;headlabel"><a xlink:href="dir_000025_000012.html" target="_top" xlink:title="1">
<text text-anchor="middle" x="199.2573" y="-48.8682" font-family="Helvetica,sans-Serif" font-size="10.00" fill="#000000">1</text>
</a>
</g>
</g>
<!-- dir_835d68fe110b5be82c2962ab9d4c9d0f&#45;&gt;dir_267116d250309cbe7bd39c0026ee016a -->
<g id="edge8" class="edge">
<title>dir_835d68fe110b5be82c2962ab9d4c9d0f&#45;&gt;dir_267116d250309cbe7bd39c0026ee016a</title>
<path fill="none" stroke="#000000" d="M219.1212,-143.8314C212.7864,-135.5386 205.1616,-125.557 198.2074,-116.4533"/>
<polygon fill="#000000" stroke="#000000" points="200.9175,-114.2353 192.0657,-108.4133 195.3548,-118.4847 200.9175,-114.2353"/>
<g id="a_edge8&#45;headlabel"><a xlink:href="dir_000016_000025.html" target="_top" xlink:title="1">
<text text-anchor="middle" x="205.3558" y="-112.8683" font-family="Helvetica,sans-Serif" font-size="10.00" fill="#000000">1</text>
</a>
</g>
</g>
<!-- dir_835d68fe110b5be82c2962ab9d4c9d0f&#45;&gt;dir_608a06ce4a9e8522a04d92d6b87b6029 -->
<g id="edge9" class="edge">
<title>dir_835d68fe110b5be82c2962ab9d4c9d0f&#45;&gt;dir_608a06ce4a9e8522a04d92d6b87b6029</title>
<path fill="none" stroke="#000000" d="M229.4538,-143.7623C224.6569,-119.0928 216.0561,-74.8598 210.4392,-45.9731"/>
<polygon fill="#000000" stroke="#000000" points="213.8619,-45.2377 208.5174,-36.0896 206.9905,-46.5738 213.8619,-45.2377"/>
<g id="a_edge9&#45;headlabel"><a xlink:href="dir_000016_000012.html" target="_top" xlink:title="2">
<text text-anchor="middle" x="217.335" y="-45.7243" font-family="Helvetica,sans-Serif" font-size="10.00" fill="#000000">2</text>
</a>
</g>
</g>
</g>
</svg>
