<?xml version="1.0" encoding="UTF-8" standalone="no"?>
<!DOCTYPE svg PUBLIC "-//W3C//DTD SVG 1.1//EN"
 "http://www.w3.org/Graphics/SVG/1.1/DTD/svg11.dtd">
<!-- Generated by graphviz version 2.40.1 (20161225.0304)
 -->
<!-- Title: main/builtins/include Pages: 1 -->
<svg width="579pt" height="511pt"
 viewBox="0.00 0.00 578.94 511.00" xmlns="http://www.w3.org/2000/svg" xmlns:xlink="http://www.w3.org/1999/xlink">
<g id="graph0" class="graph" transform="scale(1 1) rotate(0) translate(4 507)">
<title>main/builtins/include</title>
<polygon fill="#ffffff" stroke="transparent" points="-4,4 -4,-507 574.9408,-507 574.9408,4 -4,4"/>
<g id="clust1" class="cluster">
<title>clusterdir_f9352377262e2d6c535a8e1ae042e5ec</title>
<g id="a_clust1"><a xlink:href="dir_f9352377262e2d6c535a8e1ae042e5ec.html" target="_top" xlink:title="builtins">
<polygon fill="#ddddee" stroke="#000000" points="210.9408,-424 210.9408,-495 280.9408,-495 280.9408,-424 210.9408,-424"/>
<text text-anchor="middle" x="245.9408" y="-483" font-family="Helvetica,sans-Serif" font-size="10.00" fill="#000000">builtins</text>
</a>
</g>
</g>
<!-- dir_14a43b5b2d34e992c84db911343042ff -->
<g id="node1" class="node">
<title>dir_14a43b5b2d34e992c84db911343042ff</title>
<g id="a_node1"><a xlink:href="dir_14a43b5b2d34e992c84db911343042ff.html" target="_top" xlink:title="include">
<polygon fill="#eeeeff" stroke="#000000" points="272.9408,-468 218.9408,-468 218.9408,-432 272.9408,-432 272.9408,-468"/>
<text text-anchor="middle" x="245.9408" y="-447.5" font-family="Helvetica,sans-Serif" font-size="10.00" fill="#000000">include</text>
</a>
</g>
</g>
<!-- dir_4a51acf3aba5d033160ca6d10fa9e016 -->
<g id="node2" class="node">
<title>dir_4a51acf3aba5d033160ca6d10fa9e016</title>
<g id="a_node2"><a xlink:href="dir_4a51acf3aba5d033160ca6d10fa9e016.html" target="_top" xlink:title="float">
<polygon fill="#ffffff" stroke="#ff0000" points="217.9408,-396 163.9408,-396 163.9408,-360 217.9408,-360 217.9408,-396"/>
<text text-anchor="middle" x="190.9408" y="-375.5" font-family="Helvetica,sans-Serif" font-size="10.00" fill="#000000">float</text>
</a>
</g>
</g>
<!-- dir_14a43b5b2d34e992c84db911343042ff&#45;&gt;dir_4a51acf3aba5d033160ca6d10fa9e016 -->
<g id="edge17" class="edge">
<title>dir_14a43b5b2d34e992c84db911343042ff&#45;&gt;dir_4a51acf3aba5d033160ca6d10fa9e016</title>
<path fill="none" stroke="#000000" d="M232.062,-431.8314C225.7272,-423.5386 218.1024,-413.557 211.1482,-404.4533"/>
<polygon fill="#000000" stroke="#000000" points="213.8583,-402.2353 205.0065,-396.4133 208.2956,-406.4847 213.8583,-402.2353"/>
<g id="a_edge17&#45;headlabel"><a xlink:href="dir_000010_000006.html" target="_top" xlink:title="1">
<text text-anchor="middle" x="218.2966" y="-400.8683" font-family="Helvetica,sans-Serif" font-size="10.00" fill="#000000">1</text>
</a>
</g>
</g>
<!-- dir_e444bdd4cc55e0610b22e90cb9077e2e -->
<g id="node3" class="node">
<title>dir_e444bdd4cc55e0610b22e90cb9077e2e</title>
<g id="a_node3"><a xlink:href="dir_e444bdd4cc55e0610b22e90cb9077e2e.html" target="_top" xlink:title="serialization">
<polygon fill="#ffffff" stroke="#ff0000" points="107.4408,-396 30.4408,-396 30.4408,-360 107.4408,-360 107.4408,-396"/>
<text text-anchor="middle" x="68.9408" y="-375.5" font-family="Helvetica,sans-Serif" font-size="10.00" fill="#000000">serialization</text>
</a>
</g>
</g>
<!-- dir_14a43b5b2d34e992c84db911343042ff&#45;&gt;dir_e444bdd4cc55e0610b22e90cb9077e2e -->
<g id="edge18" class="edge">
<title>dir_14a43b5b2d34e992c84db911343042ff&#45;&gt;dir_e444bdd4cc55e0610b22e90cb9077e2e</title>
<path fill="none" stroke="#000000" d="M218.8504,-440.8812C191.6557,-430.6523 149.4401,-413.6966 116.6744,-399.9684"/>
<polygon fill="#000000" stroke="#000000" points="117.8455,-396.6639 107.271,-396.0068 115.1277,-403.1148 117.8455,-396.6639"/>
<g id="a_edge18&#45;headlabel"><a xlink:href="dir_000010_000015.html" target="_top" xlink:title="1">
<text text-anchor="middle" x="122.2604" y="-392.9428" font-family="Helvetica,sans-Serif" font-size="10.00" fill="#000000">1</text>
</a>
</g>
</g>
<!-- dir_c7b1237ec9c7dbde6269980f65a72a17 -->
<g id="node4" class="node">
<title>dir_c7b1237ec9c7dbde6269980f65a72a17</title>
<g id="a_node4"><a xlink:href="dir_c7b1237ec9c7dbde6269980f65a72a17.html" target="_top" xlink:title="object">
<polygon fill="#ffffff" stroke="#ff0000" points="306.9408,-36 252.9408,-36 252.9408,0 306.9408,0 306.9408,-36"/>
<text text-anchor="middle" x="279.9408" y="-15.5" font-family="Helvetica,sans-Serif" font-size="10.00" fill="#000000">object</text>
</a>
</g>
</g>
<!-- dir_14a43b5b2d34e992c84db911343042ff&#45;&gt;dir_c7b1237ec9c7dbde6269980f65a72a17 -->
<g id="edge19" class="edge">
<title>dir_14a43b5b2d34e992c84db911343042ff&#45;&gt;dir_c7b1237ec9c7dbde6269980f65a72a17</title>
<path fill="none" stroke="#000000" d="M273.3582,-446.3089C335.3486,-436.2659 480.9408,-402.4157 480.9408,-306 480.9408,-306 480.9408,-306 480.9408,-162 480.9408,-82.2239 375.0147,-42.3865 316.9554,-26.5429"/>
<polygon fill="#000000" stroke="#000000" points="317.6093,-23.0961 307.0485,-23.9451 315.8337,-29.8671 317.6093,-23.0961"/>
<g id="a_edge19&#45;headlabel"><a xlink:href="dir_000010_000013.html" target="_top" xlink:title="1">
<text text-anchor="middle" x="321.8065" y="-18.7613" font-family="Helvetica,sans-Serif" font-size="10.00" fill="#000000">1</text>
</a>
</g>
</g>
<!-- dir_906deb6750cc87f04b8c4fee7d95dfee -->
<g id="node5" class="node">
<title>dir_906deb6750cc87f04b8c4fee7d95dfee</title>
<g id="a_node5"><a xlink:href="dir_906deb6750cc87f04b8c4fee7d95dfee.html" target="_top" xlink:title="integer">
<polygon fill="#ffffff" stroke="#ff0000" points="253.9408,-324 199.9408,-324 199.9408,-288 253.9408,-288 253.9408,-324"/>
<text text-anchor="middle" x="226.9408" y="-303.5" font-family="Helvetica,sans-Serif" font-size="10.00" fill="#000000">integer</text>
</a>
</g>
</g>
<!-- dir_14a43b5b2d34e992c84db911343042ff&#45;&gt;dir_906deb6750cc87f04b8c4fee7d95dfee -->
<g id="edge20" class="edge">
<title>dir_14a43b5b2d34e992c84db911343042ff&#45;&gt;dir_906deb6750cc87f04b8c4fee7d95dfee</title>
<path fill="none" stroke="#000000" d="M243.5344,-431.7623C240.2937,-407.201 234.4943,-363.2474 230.6819,-334.3541"/>
<polygon fill="#000000" stroke="#000000" points="234.1057,-333.5458 229.3276,-324.0896 227.1659,-334.4616 234.1057,-333.5458"/>
<g id="a_edge20&#45;headlabel"><a xlink:href="dir_000010_000011.html" target="_top" xlink:title="1">
<text text-anchor="middle" x="237.3907" y="-334.2382" font-family="Helvetica,sans-Serif" font-size="10.00" fill="#000000">1</text>
</a>
</g>
</g>
<!-- dir_c96f7606e5bf3cbd0d5f6f6c4402ac1b -->
<g id="node6" class="node">
<title>dir_c96f7606e5bf3cbd0d5f6f6c4402ac1b</title>
<g id="a_node6"><a xlink:href="dir_c96f7606e5bf3cbd0d5f6f6c4402ac1b.html" target="_top" xlink:title="hashmap">
<polygon fill="#ffffff" stroke="#ff0000" points="570.9408,-396 508.9408,-396 508.9408,-360 570.9408,-360 570.9408,-396"/>
<text text-anchor="middle" x="539.9408" y="-375.5" font-family="Helvetica,sans-Serif" font-size="10.00" fill="#000000">hashmap</text>
</a>
</g>
</g>
<!-- dir_14a43b5b2d34e992c84db911343042ff&#45;&gt;dir_c96f7606e5bf3cbd0d5f6f6c4402ac1b -->
<g id="edge21" class="edge">
<title>dir_14a43b5b2d34e992c84db911343042ff&#45;&gt;dir_c96f7606e5bf3cbd0d5f6f6c4402ac1b</title>
<path fill="none" stroke="#000000" d="M273.1207,-444.6413C318.146,-436.4377 410.0177,-419.2392 485.9408,-396 490.2202,-394.6901 494.6638,-393.1476 499.0994,-391.5255"/>
<polygon fill="#000000" stroke="#000000" points="500.6,-394.7007 508.7302,-387.9072 498.1381,-388.1479 500.6,-394.7007"/>
<g id="a_edge21&#45;headlabel"><a xlink:href="dir_000010_000008.html" target="_top" xlink:title="1">
<text text-anchor="middle" x="498.2336" y="-396.1227" font-family="Helvetica,sans-Serif" font-size="10.00" fill="#000000">1</text>
</a>
</g>
</g>
<!-- dir_0e6deee2d71ae3036fad5fb07cb5e369 -->
<g id="node7" class="node">
<title>dir_0e6deee2d71ae3036fad5fb07cb5e369</title>
<g id="a_node7"><a xlink:href="dir_0e6deee2d71ae3036fad5fb07cb5e369.html" target="_top" xlink:title="code">
<polygon fill="#ffffff" stroke="#ff0000" points="452.9408,-252 398.9408,-252 398.9408,-216 452.9408,-216 452.9408,-252"/>
<text text-anchor="middle" x="425.9408" y="-231.5" font-family="Helvetica,sans-Serif" font-size="10.00" fill="#000000">code</text>
</a>
</g>
</g>
<!-- dir_14a43b5b2d34e992c84db911343042ff&#45;&gt;dir_0e6deee2d71ae3036fad5fb07cb5e369 -->
<g id="edge22" class="edge">
<title>dir_14a43b5b2d34e992c84db911343042ff&#45;&gt;dir_0e6deee2d71ae3036fad5fb07cb5e369</title>
<path fill="none" stroke="#000000" d="M273.1481,-446.8852C304.6642,-441.8108 355.9576,-428.7757 384.9408,-396 418.1196,-358.4796 425.1945,-297.8899 426.2841,-262.4094"/>
<polygon fill="#000000" stroke="#000000" points="429.786,-262.3143 426.4523,-252.2577 422.787,-262.1983 429.786,-262.3143"/>
<g id="a_edge22&#45;headlabel"><a xlink:href="dir_000010_000004.html" target="_top" xlink:title="1">
<text text-anchor="middle" x="432.5654" y="-263.4555" font-family="Helvetica,sans-Serif" font-size="10.00" fill="#000000">1</text>
</a>
</g>
</g>
<!-- dir_379443b8b8cb271fd845aff3bf8bc42c -->
<g id="node8" class="node">
<title>dir_379443b8b8cb271fd845aff3bf8bc42c</title>
<g id="a_node8"><a xlink:href="dir_379443b8b8cb271fd845aff3bf8bc42c.html" target="_top" xlink:title="boolean">
<polygon fill="#ffffff" stroke="#ff0000" points="190.9408,-252 134.9408,-252 134.9408,-216 190.9408,-216 190.9408,-252"/>
<text text-anchor="middle" x="162.9408" y="-231.5" font-family="Helvetica,sans-Serif" font-size="10.00" fill="#000000">boolean</text>
</a>
</g>
</g>
<!-- dir_14a43b5b2d34e992c84db911343042ff&#45;&gt;dir_379443b8b8cb271fd845aff3bf8bc42c -->
<g id="edge23" class="edge">
<title>dir_14a43b5b2d34e992c84db911343042ff&#45;&gt;dir_379443b8b8cb271fd845aff3bf8bc42c</title>
<path fill="none" stroke="#000000" d="M218.636,-442.0514C197.0901,-434.1773 168.485,-419.7867 154.9408,-396 131.2015,-354.3086 142.6039,-296.3566 152.8872,-262.254"/>
<polygon fill="#000000" stroke="#000000" points="156.3002,-263.0712 156.0026,-252.4805 149.6308,-260.9452 156.3002,-263.0712"/>
<g id="a_edge23&#45;headlabel"><a xlink:href="dir_000010_000002.html" target="_top" xlink:title="1">
<text text-anchor="middle" x="157.9138" y="-264.8583" font-family="Helvetica,sans-Serif" font-size="10.00" fill="#000000">1</text>
</a>
</g>
</g>
<!-- dir_54f5d1d9f0fa6067393036cb4af8fee6 -->
<g id="node9" class="node">
<title>dir_54f5d1d9f0fa6067393036cb4af8fee6</title>
<g id="a_node9"><a xlink:href="dir_54f5d1d9f0fa6067393036cb4af8fee6.html" target="_top" xlink:title="memory">
<polygon fill="#ffffff" stroke="#ff0000" points="228.9408,-108 170.9408,-108 170.9408,-72 228.9408,-72 228.9408,-108"/>
<text text-anchor="middle" x="199.9408" y="-87.5" font-family="Helvetica,sans-Serif" font-size="10.00" fill="#000000">memory</text>
</a>
</g>
</g>
<!-- dir_14a43b5b2d34e992c84db911343042ff&#45;&gt;dir_54f5d1d9f0fa6067393036cb4af8fee6 -->
<g id="edge24" class="edge">
<title>dir_14a43b5b2d34e992c84db911343042ff&#45;&gt;dir_54f5d1d9f0fa6067393036cb4af8fee6</title>
<path fill="none" stroke="#000000" d="M218.6722,-447.5863C164.2569,-442.1455 45.3146,-426.9157 20.9408,-396 -54.8555,-299.8602 95.2066,-168.3783 165.9009,-114.5201"/>
<polygon fill="#000000" stroke="#000000" points="168.222,-117.1537 174.1082,-108.3444 164.0132,-111.5603 168.222,-117.1537"/>
<g id="a_edge24&#45;headlabel"><a xlink:href="dir_000010_000026.html" target="_top" xlink:title="1">
<text text-anchor="middle" x="167.0569" y="-119.0837" font-family="Helvetica,sans-Serif" font-size="10.00" fill="#000000">1</text>
</a>
</g>
</g>
<!-- dir_93d5db073433f9f4a7137df106b01e03 -->
<g id="node10" class="node">
<title>dir_93d5db073433f9f4a7137df106b01e03</title>
<g id="a_node10"><a xlink:href="dir_93d5db073433f9f4a7137df106b01e03.html" target="_top" xlink:title="string">
<polygon fill="#ffffff" stroke="#ff0000" points="338.9408,-180 284.9408,-180 284.9408,-144 338.9408,-144 338.9408,-180"/>
<text text-anchor="middle" x="311.9408" y="-159.5" font-family="Helvetica,sans-Serif" font-size="10.00" fill="#000000">string</text>
</a>
</g>
</g>
<!-- dir_14a43b5b2d34e992c84db911343042ff&#45;&gt;dir_93d5db073433f9f4a7137df106b01e03 -->
<g id="edge25" class="edge">
<title>dir_14a43b5b2d34e992c84db911343042ff&#45;&gt;dir_93d5db073433f9f4a7137df106b01e03</title>
<path fill="none" stroke="#000000" d="M254.6588,-431.9991C270.6472,-397.8726 304.1037,-320.9951 315.9408,-252 319.4615,-231.4785 318.2389,-207.9623 316.2541,-190.1155"/>
<polygon fill="#000000" stroke="#000000" points="319.7115,-189.5567 314.9916,-180.0713 312.7661,-190.4298 319.7115,-189.5567"/>
<g id="a_edge25&#45;headlabel"><a xlink:href="dir_000010_000017.html" target="_top" xlink:title="1">
<text text-anchor="middle" x="322.9768" y="-190.2692" font-family="Helvetica,sans-Serif" font-size="10.00" fill="#000000">1</text>
</a>
</g>
</g>
<!-- dir_4a51acf3aba5d033160ca6d10fa9e016&#45;&gt;dir_c7b1237ec9c7dbde6269980f65a72a17 -->
<g id="edge1" class="edge">
<title>dir_4a51acf3aba5d033160ca6d10fa9e016&#45;&gt;dir_c7b1237ec9c7dbde6269980f65a72a17</title>
<path fill="none" stroke="#000000" d="M163.6239,-360.9916C150.9922,-351.6569 137.0267,-338.9382 128.9408,-324 75.5185,-225.3054 73.9856,-158.9479 144.9408,-72 169.1021,-42.3929 211.8971,-28.9186 242.8384,-22.8503"/>
<polygon fill="#000000" stroke="#000000" points="243.605,-26.2688 252.833,-21.0636 242.3731,-19.378 243.605,-26.2688"/>
<g id="a_edge1&#45;headlabel"><a xlink:href="dir_000006_000013.html" target="_top" xlink:title="5">
<text text-anchor="middle" x="240.5661" y="-27.1962" font-family="Helvetica,sans-Serif" font-size="10.00" fill="#000000">5</text>
</a>
</g>
</g>
<!-- dir_4a51acf3aba5d033160ca6d10fa9e016&#45;&gt;dir_906deb6750cc87f04b8c4fee7d95dfee -->
<g id="edge2" class="edge">
<title>dir_4a51acf3aba5d033160ca6d10fa9e016&#45;&gt;dir_906deb6750cc87f04b8c4fee7d95dfee</title>
<path fill="none" stroke="#000000" d="M194.0727,-359.8314C197.3087,-351.7925 201.9154,-342.1666 206.7236,-333.2918"/>
<polygon fill="#000000" stroke="#000000" points="209.87,-334.8385 211.7581,-324.4133 203.7809,-331.3856 209.87,-334.8385"/>
<g id="a_edge2&#45;headlabel"><a xlink:href="dir_000006_000011.html" target="_top" xlink:title="3">
<text text-anchor="middle" x="210.5668" y="-336.8659" font-family="Helvetica,sans-Serif" font-size="10.00" fill="#000000">3</text>
</a>
</g>
</g>
<!-- dir_4a51acf3aba5d033160ca6d10fa9e016&#45;&gt;dir_379443b8b8cb271fd845aff3bf8bc42c -->
<g id="edge3" class="edge">
<title>dir_4a51acf3aba5d033160ca6d10fa9e016&#45;&gt;dir_379443b8b8cb271fd845aff3bf8bc42c</title>
<path fill="none" stroke="#000000" d="M182.7214,-359.7623C175.4858,-335.201 166.6645,-291.2474 162.9566,-262.3541"/>
<polygon fill="#000000" stroke="#000000" points="166.3978,-261.6347 161.7999,-252.0896 159.4419,-262.4187 166.3978,-261.6347"/>
<g id="a_edge3&#45;headlabel"><a xlink:href="dir_000006_000002.html" target="_top" xlink:title="1">
<text text-anchor="middle" x="169.6217" y="-262.3888" font-family="Helvetica,sans-Serif" font-size="10.00" fill="#000000">1</text>
</a>
</g>
</g>
<!-- dir_4a51acf3aba5d033160ca6d10fa9e016&#45;&gt;dir_54f5d1d9f0fa6067393036cb4af8fee6 -->
<g id="edge4" class="edge">
<title>dir_4a51acf3aba5d033160ca6d10fa9e016&#45;&gt;dir_54f5d1d9f0fa6067393036cb4af8fee6</title>
<path fill="none" stroke="#000000" d="M174.9359,-359.5332C151.2895,-329.9555 111.3089,-269.8062 125.9408,-216 136.183,-178.3358 160.8439,-140.4316 178.8921,-116.1809"/>
<polygon fill="#000000" stroke="#000000" points="181.6978,-118.2736 184.9657,-108.1953 176.1262,-114.0359 181.6978,-118.2736"/>
<g id="a_edge4&#45;headlabel"><a xlink:href="dir_000006_000026.html" target="_top" xlink:title="2">
<text text-anchor="middle" x="181.7816" y="-120.3534" font-family="Helvetica,sans-Serif" font-size="10.00" fill="#000000">2</text>
</a>
</g>
</g>
<!-- dir_4a51acf3aba5d033160ca6d10fa9e016&#45;&gt;dir_93d5db073433f9f4a7137df106b01e03 -->
<g id="edge5" class="edge">
<title>dir_4a51acf3aba5d033160ca6d10fa9e016&#45;&gt;dir_93d5db073433f9f4a7137df106b01e03</title>
<path fill="none" stroke="#000000" d="M217.943,-362.5061C232.7588,-352.931 250.5752,-339.5199 262.9408,-324 294.4686,-284.4298 305.7524,-224.8011 309.7615,-189.9985"/>
<polygon fill="#000000" stroke="#000000" points="313.2437,-190.3503 310.7865,-180.0444 306.2805,-189.6332 313.2437,-190.3503"/>
<g id="a_edge5&#45;headlabel"><a xlink:href="dir_000006_000017.html" target="_top" xlink:title="2">
<text text-anchor="middle" x="315.6999" y="-191.7168" font-family="Helvetica,sans-Serif" font-size="10.00" fill="#000000">2</text>
</a>
</g>
</g>
<!-- dir_e444bdd4cc55e0610b22e90cb9077e2e&#45;&gt;dir_14a43b5b2d34e992c84db911343042ff -->
<g id="edge6" class="edge">
<title>dir_e444bdd4cc55e0610b22e90cb9077e2e&#45;&gt;dir_14a43b5b2d34e992c84db911343042ff</title>
<path fill="none" stroke="#000000" d="M107.504,-391.4885C137.895,-403.1873 179.8265,-420.1838 209.6227,-432.8471"/>
<polygon fill="#000000" stroke="#000000" points="208.2699,-436.0752 218.8403,-436.7941 211.0253,-429.6403 208.2699,-436.0752"/>
<g id="a_edge6&#45;headlabel"><a xlink:href="dir_000015_000010.html" target="_top" xlink:title="1">
<text text-anchor="middle" x="203.8479" y="-434.7703" font-family="Helvetica,sans-Serif" font-size="10.00" fill="#000000">1</text>
</a>
</g>
</g>
<!-- dir_906deb6750cc87f04b8c4fee7d95dfee&#45;&gt;dir_4a51acf3aba5d033160ca6d10fa9e016 -->
<g id="edge7" class="edge">
<title>dir_906deb6750cc87f04b8c4fee7d95dfee&#45;&gt;dir_4a51acf3aba5d033160ca6d10fa9e016</title>
<path fill="none" stroke="#000000" d="M223.7102,-324.4133C220.4465,-332.484 215.824,-342.1182 211.0119,-350.9775"/>
<polygon fill="#000000" stroke="#000000" points="207.8779,-349.4084 205.9775,-359.8314 213.963,-352.8684 207.8779,-349.4084"/>
<g id="a_edge7&#45;headlabel"><a xlink:href="dir_000011_000006.html" target="_top" xlink:title="2">
<text text-anchor="middle" x="207.1865" y="-342.3802" font-family="Helvetica,sans-Serif" font-size="10.00" fill="#000000">2</text>
</a>
</g>
</g>
<!-- dir_906deb6750cc87f04b8c4fee7d95dfee&#45;&gt;dir_c7b1237ec9c7dbde6269980f65a72a17 -->
<g id="edge8" class="edge">
<title>dir_906deb6750cc87f04b8c4fee7d95dfee&#45;&gt;dir_c7b1237ec9c7dbde6269980f65a72a17</title>
<path fill="none" stroke="#000000" d="M230.2562,-287.9843C239.2165,-239.2939 263.9679,-104.7961 274.7775,-46.0573"/>
<polygon fill="#000000" stroke="#000000" points="278.2589,-46.4772 276.6266,-36.0089 271.3745,-45.2102 278.2589,-46.4772"/>
<g id="a_edge8&#45;headlabel"><a xlink:href="dir_000011_000013.html" target="_top" xlink:title="4">
<text text-anchor="middle" x="280.4008" y="-48.0263" font-family="Helvetica,sans-Serif" font-size="10.00" fill="#000000">4</text>
</a>
</g>
</g>
<!-- dir_906deb6750cc87f04b8c4fee7d95dfee&#45;&gt;dir_379443b8b8cb271fd845aff3bf8bc42c -->
<g id="edge9" class="edge">
<title>dir_906deb6750cc87f04b8c4fee7d95dfee&#45;&gt;dir_379443b8b8cb271fd845aff3bf8bc42c</title>
<path fill="none" stroke="#000000" d="M204.8385,-287.8314C196.5755,-279.454 187.4073,-269.3531 179.686,-260.1749"/>
<polygon fill="#000000" stroke="#000000" points="182.3748,-257.9341 173.3321,-252.4133 176.9583,-262.3683 182.3748,-257.9341"/>
<g id="a_edge9&#45;headlabel"><a xlink:href="dir_000011_000002.html" target="_top" xlink:title="1">
<text text-anchor="middle" x="186.8488" y="-256.4171" font-family="Helvetica,sans-Serif" font-size="10.00" fill="#000000">1</text>
</a>
</g>
</g>
<!-- dir_906deb6750cc87f04b8c4fee7d95dfee&#45;&gt;dir_54f5d1d9f0fa6067393036cb4af8fee6 -->
<g id="edge10" class="edge">
<title>dir_906deb6750cc87f04b8c4fee7d95dfee&#45;&gt;dir_54f5d1d9f0fa6067393036cb4af8fee6</title>
<path fill="none" stroke="#000000" d="M224.6852,-287.9555C219.9801,-250.3144 209.0891,-163.1867 203.4563,-118.1246"/>
<polygon fill="#000000" stroke="#000000" points="206.9223,-117.6337 202.2089,-108.1451 199.9764,-118.502 206.9223,-117.6337"/>
<g id="a_edge10&#45;headlabel"><a xlink:href="dir_000011_000026.html" target="_top" xlink:title="1">
<text text-anchor="middle" x="210.1854" y="-118.3484" font-family="Helvetica,sans-Serif" font-size="10.00" fill="#000000">1</text>
</a>
</g>
</g>
<!-- dir_906deb6750cc87f04b8c4fee7d95dfee&#45;&gt;dir_93d5db073433f9f4a7137df106b01e03 -->
<g id="edge11" class="edge">
<title>dir_906deb6750cc87f04b8c4fee7d95dfee&#45;&gt;dir_93d5db073433f9f4a7137df106b01e03</title>
<path fill="none" stroke="#000000" d="M243.6632,-287.8963C252.4611,-277.8076 263.0315,-264.74 270.9408,-252 283.243,-232.1839 294.0338,-208.0561 301.4533,-189.7724"/>
<polygon fill="#000000" stroke="#000000" points="304.7845,-190.8665 305.2165,-180.2805 298.2772,-188.2866 304.7845,-190.8665"/>
<g id="a_edge11&#45;headlabel"><a xlink:href="dir_000011_000017.html" target="_top" xlink:title="1">
<text text-anchor="middle" x="306.0991" y="-192.7545" font-family="Helvetica,sans-Serif" font-size="10.00" fill="#000000">1</text>
</a>
</g>
</g>
<!-- dir_c96f7606e5bf3cbd0d5f6f6c4402ac1b&#45;&gt;dir_14a43b5b2d34e992c84db911343042ff -->
<g id="edge13" class="edge">
<title>dir_c96f7606e5bf3cbd0d5f6f6c4402ac1b&#45;&gt;dir_14a43b5b2d34e992c84db911343042ff</title>
<path fill="none" stroke="#000000" d="M508.8202,-394.4318C507.1823,-394.982 505.5499,-395.5075 503.9408,-396 427.1362,-419.509 334.0106,-436.8363 283.1478,-444.9234"/>
<polygon fill="#000000" stroke="#000000" points="282.3004,-441.513 272.9568,-446.5078 283.3758,-448.4299 282.3004,-441.513"/>
<g id="a_edge13&#45;headlabel"><a xlink:href="dir_000008_000010.html" target="_top" xlink:title="1">
<text text-anchor="middle" x="285.4162" y="-435.6553" font-family="Helvetica,sans-Serif" font-size="10.00" fill="#000000">1</text>
</a>
</g>
</g>
<!-- dir_c96f7606e5bf3cbd0d5f6f6c4402ac1b&#45;&gt;dir_c7b1237ec9c7dbde6269980f65a72a17 -->
<g id="edge12" class="edge">
<title>dir_c96f7606e5bf3cbd0d5f6f6c4402ac1b&#45;&gt;dir_c7b1237ec9c7dbde6269980f65a72a17</title>
<path fill="none" stroke="#000000" d="M537.8688,-359.8427C534.9397,-332.5621 529.9408,-279.359 529.9408,-234 529.9408,-234 529.9408,-234 529.9408,-162 529.9408,-119.0818 527.1222,-100.3959 494.9408,-72 468.7113,-48.8559 371.3223,-31.3522 317.0595,-23.1484"/>
<polygon fill="#000000" stroke="#000000" points="317.5408,-19.6816 307.136,-21.6791 316.5155,-26.6061 317.5408,-19.6816"/>
<g id="a_edge12&#45;headlabel"><a xlink:href="dir_000008_000013.html" target="_top" xlink:title="1">
<text text-anchor="middle" x="321.5125" y="-14.8994" font-family="Helvetica,sans-Serif" font-size="10.00" fill="#000000">1</text>
</a>
</g>
</g>
<!-- dir_0e6deee2d71ae3036fad5fb07cb5e369&#45;&gt;dir_c7b1237ec9c7dbde6269980f65a72a17 -->
<g id="edge14" class="edge">
<title>dir_0e6deee2d71ae3036fad5fb07cb5e369&#45;&gt;dir_c7b1237ec9c7dbde6269980f65a72a17</title>
<path fill="none" stroke="#000000" d="M418.4796,-215.771C410.517,-197.1205 396.9952,-167.6105 381.9408,-144 358.3203,-106.955 325.579,-68.2372 303.6235,-43.6616"/>
<polygon fill="#000000" stroke="#000000" points="306.1936,-41.2854 296.8993,-36.1995 300.9934,-45.9713 306.1936,-41.2854"/>
<g id="a_edge14&#45;headlabel"><a xlink:href="dir_000004_000013.html" target="_top" xlink:title="3">
<text text-anchor="middle" x="310.7092" y="-39.5551" font-family="Helvetica,sans-Serif" font-size="10.00" fill="#000000">3</text>
</a>
</g>
</g>
<!-- dir_0e6deee2d71ae3036fad5fb07cb5e369&#45;&gt;dir_54f5d1d9f0fa6067393036cb4af8fee6 -->
<g id="edge15" class="edge">
<title>dir_0e6deee2d71ae3036fad5fb07cb5e369&#45;&gt;dir_54f5d1d9f0fa6067393036cb4af8fee6</title>
<path fill="none" stroke="#000000" d="M414.2778,-215.6707C400.6108,-195.5344 376.205,-163.473 347.9408,-144 314.5083,-120.9662 270.0885,-106.4889 238.6628,-98.3894"/>
<polygon fill="#000000" stroke="#000000" points="239.495,-94.9899 228.9466,-95.9811 237.8108,-101.7843 239.495,-94.9899"/>
<g id="a_edge15&#45;headlabel"><a xlink:href="dir_000004_000026.html" target="_top" xlink:title="2">
<text text-anchor="middle" x="243.6671" y="-90.5988" font-family="Helvetica,sans-Serif" font-size="10.00" fill="#000000">2</text>
</a>
</g>
</g>
<!-- dir_0e6deee2d71ae3036fad5fb07cb5e369&#45;&gt;dir_93d5db073433f9f4a7137df106b01e03 -->
<g id="edge16" class="edge">
<title>dir_0e6deee2d71ae3036fad5fb07cb5e369&#45;&gt;dir_93d5db073433f9f4a7137df106b01e03</title>
<path fill="none" stroke="#000000" d="M398.9244,-216.937C383.7024,-207.3231 364.4923,-195.1904 347.9991,-184.7737"/>
<polygon fill="#000000" stroke="#000000" points="349.4822,-181.5708 339.1583,-179.19 345.7442,-187.4892 349.4822,-181.5708"/>
<g id="a_edge16&#45;headlabel"><a xlink:href="dir_000004_000017.html" target="_top" xlink:title="2">
<text text-anchor="middle" x="354.0376" y="-178.5897" font-family="Helvetica,sans-Serif" font-size="10.00" fill="#000000">2</text>
</a>
</g>
</g>
<!-- dir_379443b8b8cb271fd845aff3bf8bc42c&#45;&gt;dir_4a51acf3aba5d033160ca6d10fa9e016 -->
<g id="edge26" class="edge">
<title>dir_379443b8b8cb271fd845aff3bf8bc42c&#45;&gt;dir_4a51acf3aba5d033160ca6d10fa9e016</title>
<path fill="none" stroke="#000000" d="M171.1165,-252.0896C178.3457,-276.5727 187.1741,-320.5174 190.9025,-349.4713"/>
<polygon fill="#000000" stroke="#000000" points="187.4647,-350.2196 192.0677,-359.7623 194.4203,-349.432 187.4647,-350.2196"/>
<g id="a_edge26&#45;headlabel"><a xlink:href="dir_000002_000006.html" target="_top" xlink:title="1">
<text text-anchor="middle" x="184.2391" y="-344.4673" font-family="Helvetica,sans-Serif" font-size="10.00" fill="#000000">1</text>
</a>
</g>
</g>
<!-- dir_379443b8b8cb271fd845aff3bf8bc42c&#45;&gt;dir_c7b1237ec9c7dbde6269980f65a72a17 -->
<g id="edge27" class="edge">
<title>dir_379443b8b8cb271fd845aff3bf8bc42c&#45;&gt;dir_c7b1237ec9c7dbde6269980f65a72a17</title>
<path fill="none" stroke="#000000" d="M156.9438,-215.9637C147.5275,-184.0675 133.1432,-116.8483 161.9408,-72 179.6428,-44.4314 215.3103,-30.7587 242.8204,-24.0907"/>
<polygon fill="#000000" stroke="#000000" points="243.8994,-27.4368 252.91,-21.8637 242.3906,-20.6013 243.8994,-27.4368"/>
<g id="a_edge27&#45;headlabel"><a xlink:href="dir_000002_000013.html" target="_top" xlink:title="3">
<text text-anchor="middle" x="241.0013" y="-28.484" font-family="Helvetica,sans-Serif" font-size="10.00" fill="#000000">3</text>
</a>
</g>
</g>
<!-- dir_379443b8b8cb271fd845aff3bf8bc42c&#45;&gt;dir_906deb6750cc87f04b8c4fee7d95dfee -->
<g id="edge28" class="edge">
<title>dir_379443b8b8cb271fd845aff3bf8bc42c&#45;&gt;dir_906deb6750cc87f04b8c4fee7d95dfee</title>
<path fill="none" stroke="#000000" d="M185.2841,-252.4133C193.4808,-260.7389 202.5422,-270.7282 210.1866,-279.8144"/>
<polygon fill="#000000" stroke="#000000" points="207.7031,-282.3063 216.7433,-287.8314 213.1217,-277.8747 207.7031,-282.3063"/>
<g id="a_edge28&#45;headlabel"><a xlink:href="dir_000002_000011.html" target="_top" xlink:title="2">
<text text-anchor="middle" x="203.2296" y="-278.8213" font-family="Helvetica,sans-Serif" font-size="10.00" fill="#000000">2</text>
</a>
</g>
</g>
<!-- dir_379443b8b8cb271fd845aff3bf8bc42c&#45;&gt;dir_54f5d1d9f0fa6067393036cb4af8fee6 -->
<g id="edge29" class="edge">
<title>dir_379443b8b8cb271fd845aff3bf8bc42c&#45;&gt;dir_54f5d1d9f0fa6067393036cb4af8fee6</title>
<path fill="none" stroke="#000000" d="M167.6269,-215.7623C173.9655,-191.0928 185.331,-146.8598 192.7533,-117.9731"/>
<polygon fill="#000000" stroke="#000000" points="196.194,-118.6461 195.2928,-108.0896 189.4142,-116.904 196.194,-118.6461"/>
<g id="a_edge29&#45;headlabel"><a xlink:href="dir_000002_000026.html" target="_top" xlink:title="1">
<text text-anchor="middle" x="198.0494" y="-120.3341" font-family="Helvetica,sans-Serif" font-size="10.00" fill="#000000">1</text>
</a>
</g>
</g>
<!-- dir_379443b8b8cb271fd845aff3bf8bc42c&#45;&gt;dir_93d5db073433f9f4a7137df106b01e03 -->
<g id="edge30" class="edge">
<title>dir_379443b8b8cb271fd845aff3bf8bc42c&#45;&gt;dir_93d5db073433f9f4a7137df106b01e03</title>
<path fill="none" stroke="#000000" d="M190.9665,-220.4574C214.917,-208.884 249.537,-192.1548 275.6107,-179.5555"/>
<polygon fill="#000000" stroke="#000000" points="277.3135,-182.6199 284.7946,-175.1176 274.2679,-176.3172 277.3135,-182.6199"/>
<g id="a_edge30&#45;headlabel"><a xlink:href="dir_000002_000017.html" target="_top" xlink:title="1">
<text text-anchor="middle" x="275.3123" y="-184.2403" font-family="Helvetica,sans-Serif" font-size="10.00" fill="#000000">1</text>
</a>
</g>
</g>
<!-- dir_54f5d1d9f0fa6067393036cb4af8fee6&#45;&gt;dir_c7b1237ec9c7dbde6269980f65a72a17 -->
<g id="edge31" class="edge">
<title>dir_54f5d1d9f0fa6067393036cb4af8fee6&#45;&gt;dir_c7b1237ec9c7dbde6269980f65a72a17</title>
<path fill="none" stroke="#000000" d="M220.1282,-71.8314C229.7922,-63.1337 241.5204,-52.5783 252.0224,-43.1265"/>
<polygon fill="#000000" stroke="#000000" points="254.6683,-45.454 259.7599,-36.1628 249.9855,-40.251 254.6683,-45.454"/>
<g id="a_edge31&#45;headlabel"><a xlink:href="dir_000026_000013.html" target="_top" xlink:title="1">
<text text-anchor="middle" x="253.8958" y="-47.4691" font-family="Helvetica,sans-Serif" font-size="10.00" fill="#000000">1</text>
</a>
</g>
</g>
<!-- dir_93d5db073433f9f4a7137df106b01e03&#45;&gt;dir_c7b1237ec9c7dbde6269980f65a72a17 -->
<g id="edge32" class="edge">
<title>dir_93d5db073433f9f4a7137df106b01e03&#45;&gt;dir_c7b1237ec9c7dbde6269980f65a72a17</title>
<path fill="none" stroke="#000000" d="M307.888,-143.7623C302.4059,-119.0928 292.5763,-74.8598 286.157,-45.9731"/>
<polygon fill="#000000" stroke="#000000" points="289.5467,-45.0922 283.9607,-36.0896 282.7134,-46.6108 289.5467,-45.0922"/>
<g id="a_edge32&#45;headlabel"><a xlink:href="dir_000017_000013.html" target="_top" xlink:title="2">
<text text-anchor="middle" x="293.0981" y="-45.4853" font-family="Helvetica,sans-Serif" font-size="10.00" fill="#000000">2</text>
</a>
</g>
</g>
<!-- dir_93d5db073433f9f4a7137df106b01e03&#45;&gt;dir_54f5d1d9f0fa6067393036cb4af8fee6 -->
<g id="edge33" class="edge">
<title>dir_93d5db073433f9f4a7137df106b01e03&#45;&gt;dir_54f5d1d9f0fa6067393036cb4af8fee6</title>
<path fill="none" stroke="#000000" d="M284.8287,-144.5708C270.2987,-135.2301 252.1957,-123.5924 236.4441,-113.4664"/>
<polygon fill="#000000" stroke="#000000" points="238.2773,-110.4841 227.9728,-108.0206 234.4919,-116.3723 238.2773,-110.4841"/>
<g id="a_edge33&#45;headlabel"><a xlink:href="dir_000017_000026.html" target="_top" xlink:title="1">
<text text-anchor="middle" x="242.8363" y="-107.5395" font-family="Helvetica,sans-Serif" font-size="10.00" fill="#000000">1</text>
</a>
</g>
</g>
</g>
</svg>
