<?xml version="1.0" encoding="UTF-8" standalone="no"?>
<!DOCTYPE svg PUBLIC "-//W3C//DTD SVG 1.1//EN"
 "http://www.w3.org/Graphics/SVG/1.1/DTD/svg11.dtd">
<!-- Generated by graphviz version 2.40.1 (20161225.0304)
 -->
<!-- Title: main Pages: 1 -->
<svg width="206pt" height="116pt"
 viewBox="0.00 0.00 206.00 116.00" xmlns="http://www.w3.org/2000/svg" xmlns:xlink="http://www.w3.org/1999/xlink">
<g id="graph0" class="graph" transform="scale(1 1) rotate(0) translate(4 112)">
<title>main</title>
<polygon fill="#ffffff" stroke="transparent" points="-4,4 -4,-112 202,-112 202,4 -4,4"/>
<!-- dir_5c982d53a68cdbcd421152b4020263a9 -->
<g id="node1" class="node">
<title>dir_5c982d53a68cdbcd421152b4020263a9</title>
<g id="a_node1"><a xlink:href="dir_5c982d53a68cdbcd421152b4020263a9.html" target="_top" xlink:title="main">
<polygon fill="#eeeeff" stroke="#000000" points="126,-108 72,-108 72,-72 126,-72 126,-108"/>
<text text-anchor="middle" x="99" y="-87.5" font-family="Helvetica,sans-Serif" font-size="10.00" fill="#000000">main</text>
</a>
</g>
</g>
<!-- dir_13e138d54eb8818da29c3992edef070a -->
<g id="node2" class="node">
<title>dir_13e138d54eb8818da29c3992edef070a</title>
<g id="a_node2"><a xlink:href="dir_13e138d54eb8818da29c3992edef070a.html" target="_top" xlink:title="test">
<polygon fill="#ffffff" stroke="#ff0000" points="54,-36 0,-36 0,0 54,0 54,-36"/>
<text text-anchor="middle" x="27" y="-15.5" font-family="Helvetica,sans-Serif" font-size="10.00" fill="#000000">test</text>
</a>
</g>
</g>
<!-- dir_5c982d53a68cdbcd421152b4020263a9&#45;&gt;dir_13e138d54eb8818da29c3992edef070a -->
<g id="edge1" class="edge">
<title>dir_5c982d53a68cdbcd421152b4020263a9&#45;&gt;dir_13e138d54eb8818da29c3992edef070a</title>
<path fill="none" stroke="#000000" d="M80.8314,-71.8314C72.2848,-63.2848 61.9443,-52.9443 52.6198,-43.6198"/>
<polygon fill="#000000" stroke="#000000" points="54.9592,-41.0095 45.4133,-36.4133 50.0095,-45.9592 54.9592,-41.0095"/>
<g id="a_edge1&#45;headlabel"><a xlink:href="dir_000014_000020.html" target="_top" xlink:title="1">
<text text-anchor="middle" x="59.5087" y="-39.0436" font-family="Helvetica,sans-Serif" font-size="10.00" fill="#000000">1</text>
</a>
</g>
</g>
<!-- dir_572890c148f68441e050f6560d78312b -->
<g id="node3" class="node">
<title>dir_572890c148f68441e050f6560d78312b</title>
<g id="a_node3"><a xlink:href="dir_572890c148f68441e050f6560d78312b.html" target="_top" xlink:title="parser">
<polygon fill="#ffffff" stroke="#ff0000" points="126,-36 72,-36 72,0 126,0 126,-36"/>
<text text-anchor="middle" x="99" y="-15.5" font-family="Helvetica,sans-Serif" font-size="10.00" fill="#000000">parser</text>
</a>
</g>
</g>
<!-- dir_5c982d53a68cdbcd421152b4020263a9&#45;&gt;dir_572890c148f68441e050f6560d78312b -->
<g id="edge2" class="edge">
<title>dir_5c982d53a68cdbcd421152b4020263a9&#45;&gt;dir_572890c148f68441e050f6560d78312b</title>
<path fill="none" stroke="#000000" d="M99,-71.8314C99,-64.131 99,-54.9743 99,-46.4166"/>
<polygon fill="#000000" stroke="#000000" points="102.5001,-46.4132 99,-36.4133 95.5001,-46.4133 102.5001,-46.4132"/>
<g id="a_edge2&#45;headlabel"><a xlink:href="dir_000014_000017.html" target="_top" xlink:title="3">
<text text-anchor="middle" x="105.3393" y="-47.5079" font-family="Helvetica,sans-Serif" font-size="10.00" fill="#000000">3</text>
</a>
</g>
</g>
<!-- dir_94170ec64cb3843443ef9b196933d1ba -->
<g id="node4" class="node">
<title>dir_94170ec64cb3843443ef9b196933d1ba</title>
<g id="a_node4"><a xlink:href="dir_94170ec64cb3843443ef9b196933d1ba.html" target="_top" xlink:title="files">
<polygon fill="#ffffff" stroke="#ff0000" points="198,-36 144,-36 144,0 198,0 198,-36"/>
<text text-anchor="middle" x="171" y="-15.5" font-family="Helvetica,sans-Serif" font-size="10.00" fill="#000000">files</text>
</a>
</g>
</g>
<!-- dir_5c982d53a68cdbcd421152b4020263a9&#45;&gt;dir_94170ec64cb3843443ef9b196933d1ba -->
<g id="edge3" class="edge">
<title>dir_5c982d53a68cdbcd421152b4020263a9&#45;&gt;dir_94170ec64cb3843443ef9b196933d1ba</title>
<path fill="none" stroke="#000000" d="M117.1686,-71.8314C125.7152,-63.2848 136.0557,-52.9443 145.3802,-43.6198"/>
<polygon fill="#000000" stroke="#000000" points="147.9905,-45.9592 152.5867,-36.4133 143.0408,-41.0095 147.9905,-45.9592"/>
<g id="a_edge3&#45;headlabel"><a xlink:href="dir_000014_000012.html" target="_top" xlink:title="1">
<text text-anchor="middle" x="147.4564" y="-48.0087" font-family="Helvetica,sans-Serif" font-size="10.00" fill="#000000">1</text>
</a>
</g>
</g>
</g>
</svg>
