<?xml version="1.0" encoding="UTF-8" standalone="no"?>
<!DOCTYPE svg PUBLIC "-//W3C//DTD SVG 1.1//EN"
 "http://www.w3.org/Graphics/SVG/1.1/DTD/svg11.dtd">
<!-- Generated by graphviz version 2.40.1 (20161225.0304)
 -->
<!-- Title: main/parser/parserfuncs Pages: 1 -->
<svg width="114pt" height="151pt"
 viewBox="0.00 0.00 114.00 151.00" xmlns="http://www.w3.org/2000/svg" xmlns:xlink="http://www.w3.org/1999/xlink">
<g id="graph0" class="graph" transform="scale(1 1) rotate(0) translate(4 147)">
<title>main/parser/parserfuncs</title>
<polygon fill="#ffffff" stroke="transparent" points="-4,4 -4,-147 110,-147 110,4 -4,4"/>
<g id="clust1" class="cluster">
<title>clusterdir_0001ea4fffb871e6e0daf06fe0eef6de</title>
<g id="a_clust1"><a xlink:href="dir_0001ea4fffb871e6e0daf06fe0eef6de.html" target="_top" xlink:title="parser">
<polygon fill="#ddddee" stroke="#000000" points="8,-64 8,-135 98,-135 98,-64 8,-64"/>
<text text-anchor="middle" x="53" y="-123" font-family="Helvetica,sans-Serif" font-size="10.00" fill="#000000">parser</text>
</a>
</g>
</g>
<!-- dir_2ecd9cab03696de09174782d42e2417c -->
<g id="node1" class="node">
<title>dir_2ecd9cab03696de09174782d42e2417c</title>
<g id="a_node1"><a xlink:href="dir_2ecd9cab03696de09174782d42e2417c.html" target="_top" xlink:title="parserfuncs">
<polygon fill="#eeeeff" stroke="#000000" points="90,-108 16,-108 16,-72 90,-72 90,-108"/>
<text text-anchor="middle" x="53" y="-87.5" font-family="Helvetica,sans-Serif" font-size="10.00" fill="#000000">parserfuncs</text>
</a>
</g>
</g>
<!-- dir_34a1288b0c491e98e7858723cd27ea45 -->
<g id="node2" class="node">
<title>dir_34a1288b0c491e98e7858723cd27ea45</title>
<g id="a_node2"><a xlink:href="dir_34a1288b0c491e98e7858723cd27ea45.html" target="_top" xlink:title="include">
<polygon fill="none" stroke="#000000" points="80,-36 26,-36 26,0 80,0 80,-36"/>
<text text-anchor="middle" x="53" y="-15.5" font-family="Helvetica,sans-Serif" font-size="10.00" fill="#000000">include</text>
</a>
</g>
</g>
<!-- dir_2ecd9cab03696de09174782d42e2417c&#45;&gt;dir_34a1288b0c491e98e7858723cd27ea45 -->
<g id="edge1" class="edge">
<title>dir_2ecd9cab03696de09174782d42e2417c&#45;&gt;dir_34a1288b0c491e98e7858723cd27ea45</title>
<path fill="none" stroke="#000000" d="M53,-71.8314C53,-64.131 53,-54.9743 53,-46.4166"/>
<polygon fill="#000000" stroke="#000000" points="56.5001,-46.4132 53,-36.4133 49.5001,-46.4133 56.5001,-46.4132"/>
<g id="a_edge1&#45;headlabel"><a xlink:href="dir_000030_000029.html" target="_top" xlink:title="24">
<text text-anchor="middle" x="59.3393" y="-47.5079" font-family="Helvetica,sans-Serif" font-size="10.00" fill="#000000">24</text>
</a>
</g>
</g>
</g>
</svg>
