<?xml version="1.0" encoding="UTF-8" standalone="no"?>
<!DOCTYPE svg PUBLIC "-//W3C//DTD SVG 1.1//EN"
 "http://www.w3.org/Graphics/SVG/1.1/DTD/svg11.dtd">
<!-- Generated by graphviz version 2.40.1 (20161225.0304)
 -->
<!-- Title: main/parser Pages: 1 -->
<svg width="202pt" height="231pt"
 viewBox="0.00 0.00 202.00 231.00" xmlns="http://www.w3.org/2000/svg" xmlns:xlink="http://www.w3.org/1999/xlink">
<g id="graph0" class="graph" transform="scale(1 1) rotate(0) translate(4 227)">
<title>main/parser</title>
<polygon fill="#ffffff" stroke="transparent" points="-4,4 -4,-227 198,-227 198,4 -4,4"/>
<g id="clust1" class="cluster">
<title>clusterdir_5c982d53a68cdbcd421152b4020263a9</title>
<g id="a_clust1"><a xlink:href="dir_5c982d53a68cdbcd421152b4020263a9.html" target="_top" xlink:title="main">
<polygon fill="#ddddee" stroke="#000000" points="8,-56 8,-215 186,-215 186,-56 8,-56"/>
<text text-anchor="middle" x="97" y="-203" font-family="Helvetica,sans-Serif" font-size="10.00" fill="#000000">main</text>
</a>
</g>
</g>
<g id="clust2" class="cluster">
<title>clusterdir_0001ea4fffb871e6e0daf06fe0eef6de</title>
<g id="a_clust2"><a xlink:href="dir_0001ea4fffb871e6e0daf06fe0eef6de.html" target="_top">
<polygon fill="#eeeeff" stroke="#000000" points="16,-64 16,-188 178,-188 178,-64 16,-64"/>
</a>
</g>
</g>
<!-- dir_0001ea4fffb871e6e0daf06fe0eef6de -->
<g id="node1" class="node">
<title>dir_0001ea4fffb871e6e0daf06fe0eef6de</title>
<text text-anchor="middle" x="143" y="-159.5" font-family="Helvetica,sans-Serif" font-size="10.00" fill="#000000">parser</text>
</g>
<!-- dir_34a1288b0c491e98e7858723cd27ea45 -->
<g id="node2" class="node">
<title>dir_34a1288b0c491e98e7858723cd27ea45</title>
<g id="a_node2"><a xlink:href="dir_34a1288b0c491e98e7858723cd27ea45.html" target="_top" xlink:title="include">
<polygon fill="#ffffff" stroke="#000000" points="129,-108 75,-108 75,-72 129,-72 129,-108"/>
<text text-anchor="middle" x="102" y="-87.5" font-family="Helvetica,sans-Serif" font-size="10.00" fill="#000000">include</text>
</a>
</g>
</g>
<!-- dir_0001ea4fffb871e6e0daf06fe0eef6de&#45;&gt;dir_34a1288b0c491e98e7858723cd27ea45 -->
<g id="edge3" class="edge">
<title>dir_0001ea4fffb871e6e0daf06fe0eef6de&#45;&gt;dir_34a1288b0c491e98e7858723cd27ea45</title>
<path fill="none" stroke="#000000" d="M132.654,-143.8314C128.0763,-135.7925 122.5948,-126.1666 117.5412,-117.2918"/>
<polygon fill="#000000" stroke="#000000" points="120.4752,-115.3712 112.4853,-108.4133 114.3923,-118.8351 120.4752,-115.3712"/>
<g id="a_edge3&#45;headlabel"><a xlink:href="dir_000028_000029.html" target="_top" xlink:title="32">
<text text-anchor="middle" x="124.7212" y="-114.5899" font-family="Helvetica,sans-Serif" font-size="10.00" fill="#000000">32</text>
</a>
</g>
</g>
<!-- dir_f9352377262e2d6c535a8e1ae042e5ec -->
<g id="node4" class="node">
<title>dir_f9352377262e2d6c535a8e1ae042e5ec</title>
<g id="a_node4"><a xlink:href="dir_f9352377262e2d6c535a8e1ae042e5ec.html" target="_top" xlink:title="builtins">
<polygon fill="#ffffff" stroke="#ff0000" points="129,-36 75,-36 75,0 129,0 129,-36"/>
<text text-anchor="middle" x="102" y="-15.5" font-family="Helvetica,sans-Serif" font-size="10.00" fill="#000000">builtins</text>
</a>
</g>
</g>
<!-- dir_34a1288b0c491e98e7858723cd27ea45&#45;&gt;dir_f9352377262e2d6c535a8e1ae042e5ec -->
<g id="edge2" class="edge">
<title>dir_34a1288b0c491e98e7858723cd27ea45&#45;&gt;dir_f9352377262e2d6c535a8e1ae042e5ec</title>
<path fill="none" stroke="#000000" d="M96.0476,-71.8314C95.2972,-64.131 95.0763,-54.9743 95.3849,-46.4166"/>
<polygon fill="#000000" stroke="#000000" points="98.8792,-46.6161 96.024,-36.4133 91.8935,-46.1697 98.8792,-46.6161"/>
<g id="a_edge2&#45;headlabel"><a xlink:href="dir_000029_000001.html" target="_top" xlink:title="1">
<text text-anchor="middle" x="101.4836" y="-47.8844" font-family="Helvetica,sans-Serif" font-size="10.00" fill="#000000">1</text>
</a>
</g>
</g>
<!-- dir_2ecd9cab03696de09174782d42e2417c -->
<g id="node3" class="node">
<title>dir_2ecd9cab03696de09174782d42e2417c</title>
<g id="a_node3"><a xlink:href="dir_2ecd9cab03696de09174782d42e2417c.html" target="_top" xlink:title="parserfuncs">
<polygon fill="#ffffff" stroke="#000000" points="98,-180 24,-180 24,-144 98,-144 98,-180"/>
<text text-anchor="middle" x="61" y="-159.5" font-family="Helvetica,sans-Serif" font-size="10.00" fill="#000000">parserfuncs</text>
</a>
</g>
</g>
<!-- dir_2ecd9cab03696de09174782d42e2417c&#45;&gt;dir_34a1288b0c491e98e7858723cd27ea45 -->
<g id="edge1" class="edge">
<title>dir_2ecd9cab03696de09174782d42e2417c&#45;&gt;dir_34a1288b0c491e98e7858723cd27ea45</title>
<path fill="none" stroke="#000000" d="M71.346,-143.8314C75.9237,-135.7925 81.4052,-126.1666 86.4588,-117.2918"/>
<polygon fill="#000000" stroke="#000000" points="89.6077,-118.8351 91.5147,-108.4133 83.5248,-115.3712 89.6077,-118.8351"/>
<g id="a_edge1&#45;headlabel"><a xlink:href="dir_000030_000029.html" target="_top" xlink:title="24">
<text text-anchor="middle" x="90.2963" y="-120.8637" font-family="Helvetica,sans-Serif" font-size="10.00" fill="#000000">24</text>
</a>
</g>
</g>
<!-- dir_f9352377262e2d6c535a8e1ae042e5ec&#45;&gt;dir_34a1288b0c491e98e7858723cd27ea45 -->
<g id="edge4" class="edge">
<title>dir_f9352377262e2d6c535a8e1ae042e5ec&#45;&gt;dir_34a1288b0c491e98e7858723cd27ea45</title>
<path fill="none" stroke="#000000" d="M107.976,-36.4133C108.7071,-44.0593 108.9203,-53.1084 108.6155,-61.5726"/>
<polygon fill="#000000" stroke="#000000" points="105.1048,-61.6264 107.9524,-71.8314 112.0902,-62.078 105.1048,-61.6264"/>
<g id="a_edge4&#45;headlabel"><a xlink:href="dir_000001_000029.html" target="_top" xlink:title="2">
<text text-anchor="middle" x="102.5032" y="-55.3562" font-family="Helvetica,sans-Serif" font-size="10.00" fill="#000000">2</text>
</a>
</g>
</g>
</g>
</svg>
