<?xml version="1.0" encoding="UTF-8" standalone="no"?>
<!DOCTYPE svg PUBLIC "-//W3C//DTD SVG 1.1//EN"
 "http://www.w3.org/Graphics/SVG/1.1/DTD/svg11.dtd">
<!-- Generated by graphviz version 2.40.1 (20161225.0304)
 -->
<!-- Title: builtins/include Pages: 1 -->
<svg width="254pt" height="367pt"
 viewBox="0.00 0.00 253.71 367.00" xmlns="http://www.w3.org/2000/svg" xmlns:xlink="http://www.w3.org/1999/xlink">
<g id="graph0" class="graph" transform="scale(1 1) rotate(0) translate(4 363)">
<title>builtins/include</title>
<polygon fill="#ffffff" stroke="transparent" points="-4,4 -4,-363 249.7095,-363 249.7095,4 -4,4"/>
<g id="clust1" class="cluster">
<title>clusterdir_96245007931de700bb8a76b2e98ce70a</title>
<g id="a_clust1"><a xlink:href="dir_96245007931de700bb8a76b2e98ce70a.html" target="_top" xlink:title="builtins">
<polygon fill="#ddddee" stroke="#000000" points="54.7095,-280 54.7095,-351 124.7095,-351 124.7095,-280 54.7095,-280"/>
<text text-anchor="middle" x="89.7095" y="-339" font-family="Helvetica,sans-Serif" font-size="10.00" fill="#000000">builtins</text>
</a>
</g>
</g>
<!-- dir_d55e902ee8ca40eb95d69786b7153853 -->
<g id="node1" class="node">
<title>dir_d55e902ee8ca40eb95d69786b7153853</title>
<g id="a_node1"><a xlink:href="dir_d55e902ee8ca40eb95d69786b7153853.html" target="_top" xlink:title="include">
<polygon fill="#eeeeff" stroke="#000000" points="116.7095,-324 62.7095,-324 62.7095,-288 116.7095,-288 116.7095,-324"/>
<text text-anchor="middle" x="89.7095" y="-303.5" font-family="Helvetica,sans-Serif" font-size="10.00" fill="#000000">include</text>
</a>
</g>
</g>
<!-- dir_267116d250309cbe7bd39c0026ee016a -->
<g id="node2" class="node">
<title>dir_267116d250309cbe7bd39c0026ee016a</title>
<g id="a_node2"><a xlink:href="dir_267116d250309cbe7bd39c0026ee016a.html" target="_top" xlink:title="memory">
<polygon fill="#ffffff" stroke="#ff0000" points="120.7095,-108 66.7095,-108 66.7095,-72 120.7095,-72 120.7095,-108"/>
<text text-anchor="middle" x="93.7095" y="-87.5" font-family="Helvetica,sans-Serif" font-size="10.00" fill="#000000">memory</text>
</a>
</g>
</g>
<!-- dir_d55e902ee8ca40eb95d69786b7153853&#45;&gt;dir_267116d250309cbe7bd39c0026ee016a -->
<g id="edge1" class="edge">
<title>dir_d55e902ee8ca40eb95d69786b7153853&#45;&gt;dir_267116d250309cbe7bd39c0026ee016a</title>
<path fill="none" stroke="#000000" d="M90.0436,-287.9555C90.7392,-250.3938 92.3474,-163.5541 93.1834,-118.4103"/>
<polygon fill="#000000" stroke="#000000" points="96.6876,-118.2082 93.3735,-108.1451 89.6888,-118.0785 96.6876,-118.2082"/>
<g id="a_edge1&#45;headlabel"><a xlink:href="dir_000003_000015.html" target="_top" xlink:title="1">
<text text-anchor="middle" x="99.4599" y="-119.3547" font-family="Helvetica,sans-Serif" font-size="10.00" fill="#000000">1</text>
</a>
</g>
</g>
<!-- dir_835d68fe110b5be82c2962ab9d4c9d0f -->
<g id="node3" class="node">
<title>dir_835d68fe110b5be82c2962ab9d4c9d0f</title>
<g id="a_node3"><a xlink:href="dir_835d68fe110b5be82c2962ab9d4c9d0f.html" target="_top" xlink:title="string">
<polygon fill="#ffffff" stroke="#ff0000" points="65.7095,-180 11.7095,-180 11.7095,-144 65.7095,-144 65.7095,-180"/>
<text text-anchor="middle" x="38.7095" y="-159.5" font-family="Helvetica,sans-Serif" font-size="10.00" fill="#000000">string</text>
</a>
</g>
</g>
<!-- dir_d55e902ee8ca40eb95d69786b7153853&#45;&gt;dir_835d68fe110b5be82c2962ab9d4c9d0f -->
<g id="edge2" class="edge">
<title>dir_d55e902ee8ca40eb95d69786b7153853&#45;&gt;dir_835d68fe110b5be82c2962ab9d4c9d0f</title>
<path fill="none" stroke="#000000" d="M83.2503,-287.7623C74.4749,-262.9846 58.7098,-218.4714 48.4823,-189.5939"/>
<polygon fill="#000000" stroke="#000000" points="51.754,-188.3474 45.1162,-180.0896 45.1556,-190.6844 51.754,-188.3474"/>
<g id="a_edge2&#45;headlabel"><a xlink:href="dir_000003_000008.html" target="_top" xlink:title="1">
<text text-anchor="middle" x="55.6303" y="-188.2879" font-family="Helvetica,sans-Serif" font-size="10.00" fill="#000000">1</text>
</a>
</g>
</g>
<!-- dir_1c5debea106edff2946b598282d156d8 -->
<g id="node4" class="node">
<title>dir_1c5debea106edff2946b598282d156d8</title>
<g id="a_node4"><a xlink:href="dir_1c5debea106edff2946b598282d156d8.html" target="_top" xlink:title="hashmap">
<polygon fill="#ffffff" stroke="#ff0000" points="245.7095,-252 189.7095,-252 189.7095,-216 245.7095,-216 245.7095,-252"/>
<text text-anchor="middle" x="217.7095" y="-231.5" font-family="Helvetica,sans-Serif" font-size="10.00" fill="#000000">hashmap</text>
</a>
</g>
</g>
<!-- dir_d55e902ee8ca40eb95d69786b7153853&#45;&gt;dir_1c5debea106edff2946b598282d156d8 -->
<g id="edge3" class="edge">
<title>dir_d55e902ee8ca40eb95d69786b7153853&#45;&gt;dir_1c5debea106edff2946b598282d156d8</title>
<path fill="none" stroke="#000000" d="M116.855,-290.7307C135.3934,-280.3028 160.19,-266.3547 180.5564,-254.8986"/>
<polygon fill="#000000" stroke="#000000" points="182.2725,-257.9491 189.2723,-249.9959 178.8406,-251.848 182.2725,-257.9491"/>
<g id="a_edge3&#45;headlabel"><a xlink:href="dir_000003_000001.html" target="_top" xlink:title="1">
<text text-anchor="middle" x="180.5315" y="-259.686" font-family="Helvetica,sans-Serif" font-size="10.00" fill="#000000">1</text>
</a>
</g>
</g>
<!-- dir_66f3f3dae83f5c1ca431cfa8ee514064 -->
<g id="node5" class="node">
<title>dir_66f3f3dae83f5c1ca431cfa8ee514064</title>
<g id="a_node5"><a xlink:href="dir_66f3f3dae83f5c1ca431cfa8ee514064.html" target="_top" xlink:title="integer">
<polygon fill="#ffffff" stroke="#ff0000" points="171.7095,-252 117.7095,-252 117.7095,-216 171.7095,-216 171.7095,-252"/>
<text text-anchor="middle" x="144.7095" y="-231.5" font-family="Helvetica,sans-Serif" font-size="10.00" fill="#000000">integer</text>
</a>
</g>
</g>
<!-- dir_d55e902ee8ca40eb95d69786b7153853&#45;&gt;dir_66f3f3dae83f5c1ca431cfa8ee514064 -->
<g id="edge4" class="edge">
<title>dir_d55e902ee8ca40eb95d69786b7153853&#45;&gt;dir_66f3f3dae83f5c1ca431cfa8ee514064</title>
<path fill="none" stroke="#000000" d="M103.5883,-287.8314C109.923,-279.5386 117.5479,-269.557 124.5021,-260.4533"/>
<polygon fill="#000000" stroke="#000000" points="127.3547,-262.4847 130.6438,-252.4133 121.792,-258.2353 127.3547,-262.4847"/>
<g id="a_edge4&#45;headlabel"><a xlink:href="dir_000003_000004.html" target="_top" xlink:title="1">
<text text-anchor="middle" x="127.4289" y="-264.5647" font-family="Helvetica,sans-Serif" font-size="10.00" fill="#000000">1</text>
</a>
</g>
</g>
<!-- dir_608a06ce4a9e8522a04d92d6b87b6029 -->
<g id="node6" class="node">
<title>dir_608a06ce4a9e8522a04d92d6b87b6029</title>
<g id="a_node6"><a xlink:href="dir_608a06ce4a9e8522a04d92d6b87b6029.html" target="_top" xlink:title="object">
<polygon fill="#ffffff" stroke="#ff0000" points="120.7095,-36 66.7095,-36 66.7095,0 120.7095,0 120.7095,-36"/>
<text text-anchor="middle" x="93.7095" y="-15.5" font-family="Helvetica,sans-Serif" font-size="10.00" fill="#000000">object</text>
</a>
</g>
</g>
<!-- dir_d55e902ee8ca40eb95d69786b7153853&#45;&gt;dir_608a06ce4a9e8522a04d92d6b87b6029 -->
<g id="edge5" class="edge">
<title>dir_d55e902ee8ca40eb95d69786b7153853&#45;&gt;dir_608a06ce4a9e8522a04d92d6b87b6029</title>
<path fill="none" stroke="#000000" d="M68.8735,-287.7707C38.639,-258.9908 -12.2431,-200.4753 2.7095,-144 13.3036,-103.9864 43.8755,-66.6851 66.6795,-43.2127"/>
<polygon fill="#000000" stroke="#000000" points="69.1959,-45.6459 73.7753,-36.0918 64.2374,-40.7049 69.1959,-45.6459"/>
<g id="a_edge5&#45;headlabel"><a xlink:href="dir_000003_000006.html" target="_top" xlink:title="1">
<text text-anchor="middle" x="68.6699" y="-47.6962" font-family="Helvetica,sans-Serif" font-size="10.00" fill="#000000">1</text>
</a>
</g>
</g>
<!-- dir_267116d250309cbe7bd39c0026ee016a&#45;&gt;dir_608a06ce4a9e8522a04d92d6b87b6029 -->
<g id="edge6" class="edge">
<title>dir_267116d250309cbe7bd39c0026ee016a&#45;&gt;dir_608a06ce4a9e8522a04d92d6b87b6029</title>
<path fill="none" stroke="#000000" d="M93.7095,-71.8314C93.7095,-64.131 93.7095,-54.9743 93.7095,-46.4166"/>
<polygon fill="#000000" stroke="#000000" points="97.2096,-46.4132 93.7095,-36.4133 90.2096,-46.4133 97.2096,-46.4132"/>
<g id="a_edge6&#45;headlabel"><a xlink:href="dir_000015_000006.html" target="_top" xlink:title="1">
<text text-anchor="middle" x="100.0488" y="-47.5079" font-family="Helvetica,sans-Serif" font-size="10.00" fill="#000000">1</text>
</a>
</g>
</g>
<!-- dir_835d68fe110b5be82c2962ab9d4c9d0f&#45;&gt;dir_267116d250309cbe7bd39c0026ee016a -->
<g id="edge7" class="edge">
<title>dir_835d68fe110b5be82c2962ab9d4c9d0f&#45;&gt;dir_267116d250309cbe7bd39c0026ee016a</title>
<path fill="none" stroke="#000000" d="M52.5883,-143.8314C58.923,-135.5386 66.5479,-125.557 73.5021,-116.4533"/>
<polygon fill="#000000" stroke="#000000" points="76.3547,-118.4847 79.6438,-108.4133 70.792,-114.2353 76.3547,-118.4847"/>
<g id="a_edge7&#45;headlabel"><a xlink:href="dir_000008_000015.html" target="_top" xlink:title="1">
<text text-anchor="middle" x="76.4289" y="-120.5647" font-family="Helvetica,sans-Serif" font-size="10.00" fill="#000000">1</text>
</a>
</g>
</g>
<!-- dir_835d68fe110b5be82c2962ab9d4c9d0f&#45;&gt;dir_608a06ce4a9e8522a04d92d6b87b6029 -->
<g id="edge8" class="edge">
<title>dir_835d68fe110b5be82c2962ab9d4c9d0f&#45;&gt;dir_608a06ce4a9e8522a04d92d6b87b6029</title>
<path fill="none" stroke="#000000" d="M40.5,-143.8083C42.7982,-125.1875 47.7439,-95.7008 57.7095,-72 61.6639,-62.5953 67.3247,-53.0879 72.99,-44.727"/>
<polygon fill="#000000" stroke="#000000" points="75.9053,-46.6664 78.8242,-36.4815 70.1911,-42.6231 75.9053,-46.6664"/>
<g id="a_edge8&#45;headlabel"><a xlink:href="dir_000008_000006.html" target="_top" xlink:title="2">
<text text-anchor="middle" x="76.1469" y="-48.7406" font-family="Helvetica,sans-Serif" font-size="10.00" fill="#000000">2</text>
</a>
</g>
</g>
<!-- dir_1c5debea106edff2946b598282d156d8&#45;&gt;dir_608a06ce4a9e8522a04d92d6b87b6029 -->
<g id="edge9" class="edge">
<title>dir_1c5debea106edff2946b598282d156d8&#45;&gt;dir_608a06ce4a9e8522a04d92d6b87b6029</title>
<path fill="none" stroke="#000000" d="M212.5455,-215.8314C203.1261,-184.5904 181.0944,-119.4781 148.7095,-72 141.5814,-61.5498 132.218,-51.4542 123.2422,-42.8762"/>
<polygon fill="#000000" stroke="#000000" points="125.5731,-40.2646 115.8512,-36.0532 120.8249,-45.408 125.5731,-40.2646"/>
<g id="a_edge9&#45;headlabel"><a xlink:href="dir_000001_000006.html" target="_top" xlink:title="1">
<text text-anchor="middle" x="130.1402" y="-38.1166" font-family="Helvetica,sans-Serif" font-size="10.00" fill="#000000">1</text>
</a>
</g>
</g>
<!-- dir_66f3f3dae83f5c1ca431cfa8ee514064&#45;&gt;dir_267116d250309cbe7bd39c0026ee016a -->
<g id="edge10" class="edge">
<title>dir_66f3f3dae83f5c1ca431cfa8ee514064&#45;&gt;dir_267116d250309cbe7bd39c0026ee016a</title>
<path fill="none" stroke="#000000" d="M138.2503,-215.7623C129.4749,-190.9846 113.7098,-146.4714 103.4823,-117.5939"/>
<polygon fill="#000000" stroke="#000000" points="106.754,-116.3474 100.1162,-108.0896 100.1556,-118.6844 106.754,-116.3474"/>
<g id="a_edge10&#45;headlabel"><a xlink:href="dir_000004_000015.html" target="_top" xlink:title="1">
<text text-anchor="middle" x="110.6303" y="-116.2879" font-family="Helvetica,sans-Serif" font-size="10.00" fill="#000000">1</text>
</a>
</g>
</g>
<!-- dir_66f3f3dae83f5c1ca431cfa8ee514064&#45;&gt;dir_835d68fe110b5be82c2962ab9d4c9d0f -->
<g id="edge11" class="edge">
<title>dir_66f3f3dae83f5c1ca431cfa8ee514064&#45;&gt;dir_835d68fe110b5be82c2962ab9d4c9d0f</title>
<path fill="none" stroke="#000000" d="M117.9612,-215.8314C104.6542,-206.7927 88.3935,-195.7476 74.072,-186.0198"/>
<polygon fill="#000000" stroke="#000000" points="75.688,-182.8864 65.4492,-180.1628 71.7548,-188.677 75.688,-182.8864"/>
<g id="a_edge11&#45;headlabel"><a xlink:href="dir_000004_000008.html" target="_top" xlink:title="1">
<text text-anchor="middle" x="80.2568" y="-180.0575" font-family="Helvetica,sans-Serif" font-size="10.00" fill="#000000">1</text>
</a>
</g>
</g>
<!-- dir_66f3f3dae83f5c1ca431cfa8ee514064&#45;&gt;dir_608a06ce4a9e8522a04d92d6b87b6029 -->
<g id="edge12" class="edge">
<title>dir_66f3f3dae83f5c1ca431cfa8ee514064&#45;&gt;dir_608a06ce4a9e8522a04d92d6b87b6029</title>
<path fill="none" stroke="#000000" d="M145.8685,-215.8894C147.2129,-185.2818 147.3321,-121.7922 129.7095,-72 126.3056,-62.3824 120.8059,-52.8127 115.1188,-44.4602"/>
<polygon fill="#000000" stroke="#000000" points="117.8878,-42.316 109.2044,-36.2457 112.2071,-46.4061 117.8878,-42.316"/>
<g id="a_edge12&#45;headlabel"><a xlink:href="dir_000004_000006.html" target="_top" xlink:title="3">
<text text-anchor="middle" x="122.2923" y="-41.0742" font-family="Helvetica,sans-Serif" font-size="10.00" fill="#000000">3</text>
</a>
</g>
</g>
</g>
</svg>
