<?xml version="1.0" encoding="UTF-8" standalone="no"?>
<!DOCTYPE svg PUBLIC "-//W3C//DTD SVG 1.1//EN"
 "http://www.w3.org/Graphics/SVG/1.1/DTD/svg11.dtd">
<!-- Generated by graphviz version 2.40.1 (20161225.0304)
 -->
<!-- Title: test/builtins/hashmap Pages: 1 -->
<svg width="190pt" height="159pt"
 viewBox="0.00 0.00 190.00 159.00" xmlns="http://www.w3.org/2000/svg" xmlns:xlink="http://www.w3.org/1999/xlink">
<g id="graph0" class="graph" transform="scale(1 1) rotate(0) translate(4 155)">
<title>test/builtins/hashmap</title>
<polygon fill="#ffffff" stroke="transparent" points="-4,4 -4,-155 186,-155 186,4 -4,4"/>
<g id="clust1" class="cluster">
<title>clusterdir_56b18398fc80091fa59c5ba0f8093896</title>
<g id="a_clust1"><a xlink:href="dir_56b18398fc80091fa59c5ba0f8093896.html" target="_top" xlink:title="builtins">
<polygon fill="#ddddee" stroke="#000000" points="8,-56 8,-143 174,-143 174,-56 8,-56"/>
<text text-anchor="middle" x="91" y="-131" font-family="Helvetica,sans-Serif" font-size="10.00" fill="#000000">builtins</text>
</a>
</g>
</g>
<g id="clust2" class="cluster">
<title>clusterdir_f33bce0b33798a7146e52b0b8708d7fe</title>
<g id="a_clust2"><a xlink:href="dir_f33bce0b33798a7146e52b0b8708d7fe.html" target="_top">
<polygon fill="#eeeeff" stroke="#000000" points="16,-64 16,-116 166,-116 166,-64 16,-64"/>
</a>
</g>
</g>
<!-- dir_f33bce0b33798a7146e52b0b8708d7fe -->
<g id="node1" class="node">
<title>dir_f33bce0b33798a7146e52b0b8708d7fe</title>
<text text-anchor="middle" x="127" y="-87.5" font-family="Helvetica,sans-Serif" font-size="10.00" fill="#000000">hashmap</text>
</g>
<!-- dir_5c982d53a68cdbcd421152b4020263a9 -->
<g id="node3" class="node">
<title>dir_5c982d53a68cdbcd421152b4020263a9</title>
<g id="a_node3"><a xlink:href="dir_5c982d53a68cdbcd421152b4020263a9.html" target="_top" xlink:title="main">
<polygon fill="#ffffff" stroke="#ff0000" points="154,-36 100,-36 100,0 154,0 154,-36"/>
<text text-anchor="middle" x="127" y="-15.5" font-family="Helvetica,sans-Serif" font-size="10.00" fill="#000000">main</text>
</a>
</g>
</g>
<!-- dir_f33bce0b33798a7146e52b0b8708d7fe&#45;&gt;dir_5c982d53a68cdbcd421152b4020263a9 -->
<g id="edge1" class="edge">
<title>dir_f33bce0b33798a7146e52b0b8708d7fe&#45;&gt;dir_5c982d53a68cdbcd421152b4020263a9</title>
<path fill="none" stroke="#000000" d="M127,-71.8314C127,-64.131 127,-54.9743 127,-46.4166"/>
<polygon fill="#000000" stroke="#000000" points="130.5001,-46.4132 127,-36.4133 123.5001,-46.4133 130.5001,-46.4132"/>
<g id="a_edge1&#45;headlabel"><a xlink:href="dir_000035_000000.html" target="_top" xlink:title="1">
<text text-anchor="middle" x="133.3393" y="-47.5079" font-family="Helvetica,sans-Serif" font-size="10.00" fill="#000000">1</text>
</a>
</g>
</g>
<!-- dir_5b68a1a523793e85cedf8fd030863400 -->
<g id="node2" class="node">
<title>dir_5b68a1a523793e85cedf8fd030863400</title>
<g id="a_node2"><a xlink:href="dir_5b68a1a523793e85cedf8fd030863400.html" target="_top" xlink:title="include">
<polygon fill="#ffffff" stroke="#000000" points="78,-108 24,-108 24,-72 78,-72 78,-108"/>
<text text-anchor="middle" x="51" y="-87.5" font-family="Helvetica,sans-Serif" font-size="10.00" fill="#000000">include</text>
</a>
</g>
</g>
</g>
</svg>
