<?xml version="1.0" encoding="UTF-8" standalone="no"?>
<!DOCTYPE svg PUBLIC "-//W3C//DTD SVG 1.1//EN"
 "http://www.w3.org/Graphics/SVG/1.1/DTD/svg11.dtd">
<!-- Generated by graphviz version 2.40.1 (20161225.0304)
 -->
<!-- Title: test/builtins/include Pages: 1 -->
<svg width="214pt" height="151pt"
 viewBox="0.00 0.00 214.00 151.00" xmlns="http://www.w3.org/2000/svg" xmlns:xlink="http://www.w3.org/1999/xlink">
<g id="graph0" class="graph" transform="scale(1 1) rotate(0) translate(4 147)">
<title>test/builtins/include</title>
<polygon fill="#ffffff" stroke="transparent" points="-4,4 -4,-147 210,-147 210,4 -4,4"/>
<g id="clust1" class="cluster">
<title>clusterdir_56b18398fc80091fa59c5ba0f8093896</title>
<g id="a_clust1"><a xlink:href="dir_56b18398fc80091fa59c5ba0f8093896.html" target="_top" xlink:title="builtins">
<polygon fill="#ddddee" stroke="#000000" points="72,-64 72,-135 142,-135 142,-64 72,-64"/>
<text text-anchor="middle" x="107" y="-123" font-family="Helvetica,sans-Serif" font-size="10.00" fill="#000000">builtins</text>
</a>
</g>
</g>
<!-- dir_f8f4acbc658bbc888f25c35ff857e146 -->
<g id="node1" class="node">
<title>dir_f8f4acbc658bbc888f25c35ff857e146</title>
<g id="a_node1"><a xlink:href="dir_f8f4acbc658bbc888f25c35ff857e146.html" target="_top" xlink:title="include">
<polygon fill="#eeeeff" stroke="#000000" points="134,-108 80,-108 80,-72 134,-72 134,-108"/>
<text text-anchor="middle" x="107" y="-87.5" font-family="Helvetica,sans-Serif" font-size="10.00" fill="#000000">include</text>
</a>
</g>
</g>
<!-- dir_f33bce0b33798a7146e52b0b8708d7fe -->
<g id="node2" class="node">
<title>dir_f33bce0b33798a7146e52b0b8708d7fe</title>
<g id="a_node2"><a xlink:href="dir_f33bce0b33798a7146e52b0b8708d7fe.html" target="_top" xlink:title="hashmap">
<polygon fill="#ffffff" stroke="#ff0000" points="62,-36 0,-36 0,0 62,0 62,-36"/>
<text text-anchor="middle" x="31" y="-15.5" font-family="Helvetica,sans-Serif" font-size="10.00" fill="#000000">hashmap</text>
</a>
</g>
</g>
<!-- dir_f8f4acbc658bbc888f25c35ff857e146&#45;&gt;dir_f33bce0b33798a7146e52b0b8708d7fe -->
<g id="edge1" class="edge">
<title>dir_f8f4acbc658bbc888f25c35ff857e146&#45;&gt;dir_f33bce0b33798a7146e52b0b8708d7fe</title>
<path fill="none" stroke="#000000" d="M87.822,-71.8314C78.6412,-63.1337 67.4994,-52.5783 57.5224,-43.1265"/>
<polygon fill="#000000" stroke="#000000" points="59.8385,-40.4995 50.1719,-36.1628 55.0243,-45.5811 59.8385,-40.4995"/>
<g id="a_edge1&#45;headlabel"><a xlink:href="dir_000037_000035.html" target="_top" xlink:title="1">
<text text-anchor="middle" x="64.4007" y="-38.4104" font-family="Helvetica,sans-Serif" font-size="10.00" fill="#000000">1</text>
</a>
</g>
</g>
<!-- dir_b8c9ef8ee2d08d8903a46bea6fdc4538 -->
<g id="node3" class="node">
<title>dir_b8c9ef8ee2d08d8903a46bea6fdc4538</title>
<g id="a_node3"><a xlink:href="dir_b8c9ef8ee2d08d8903a46bea6fdc4538.html" target="_top" xlink:title="float">
<polygon fill="#ffffff" stroke="#ff0000" points="134,-36 80,-36 80,0 134,0 134,-36"/>
<text text-anchor="middle" x="107" y="-15.5" font-family="Helvetica,sans-Serif" font-size="10.00" fill="#000000">float</text>
</a>
</g>
</g>
<!-- dir_f8f4acbc658bbc888f25c35ff857e146&#45;&gt;dir_b8c9ef8ee2d08d8903a46bea6fdc4538 -->
<g id="edge2" class="edge">
<title>dir_f8f4acbc658bbc888f25c35ff857e146&#45;&gt;dir_b8c9ef8ee2d08d8903a46bea6fdc4538</title>
<path fill="none" stroke="#000000" d="M107,-71.8314C107,-64.131 107,-54.9743 107,-46.4166"/>
<polygon fill="#000000" stroke="#000000" points="110.5001,-46.4132 107,-36.4133 103.5001,-46.4133 110.5001,-46.4132"/>
<g id="a_edge2&#45;headlabel"><a xlink:href="dir_000037_000033.html" target="_top" xlink:title="1">
<text text-anchor="middle" x="113.3393" y="-47.5079" font-family="Helvetica,sans-Serif" font-size="10.00" fill="#000000">1</text>
</a>
</g>
</g>
<!-- dir_1b2bf5b701f56b5f546a48fe6ec3af47 -->
<g id="node4" class="node">
<title>dir_1b2bf5b701f56b5f546a48fe6ec3af47</title>
<g id="a_node4"><a xlink:href="dir_1b2bf5b701f56b5f546a48fe6ec3af47.html" target="_top" xlink:title="integer">
<polygon fill="#ffffff" stroke="#ff0000" points="206,-36 152,-36 152,0 206,0 206,-36"/>
<text text-anchor="middle" x="179" y="-15.5" font-family="Helvetica,sans-Serif" font-size="10.00" fill="#000000">integer</text>
</a>
</g>
</g>
<!-- dir_f8f4acbc658bbc888f25c35ff857e146&#45;&gt;dir_1b2bf5b701f56b5f546a48fe6ec3af47 -->
<g id="edge3" class="edge">
<title>dir_f8f4acbc658bbc888f25c35ff857e146&#45;&gt;dir_1b2bf5b701f56b5f546a48fe6ec3af47</title>
<path fill="none" stroke="#000000" d="M125.1686,-71.8314C133.7152,-63.2848 144.0557,-52.9443 153.3802,-43.6198"/>
<polygon fill="#000000" stroke="#000000" points="155.9905,-45.9592 160.5867,-36.4133 151.0408,-41.0095 155.9905,-45.9592"/>
<g id="a_edge3&#45;headlabel"><a xlink:href="dir_000037_000038.html" target="_top" xlink:title="1">
<text text-anchor="middle" x="155.4564" y="-48.0087" font-family="Helvetica,sans-Serif" font-size="10.00" fill="#000000">1</text>
</a>
</g>
</g>
</g>
</svg>
