<?xml version="1.0" encoding="UTF-8" standalone="no"?>
<!DOCTYPE svg PUBLIC "-//W3C//DTD SVG 1.1//EN"
 "http://www.w3.org/Graphics/SVG/1.1/DTD/svg11.dtd">
<!-- Generated by graphviz version 2.40.1 (20161225.0304)
 -->
<!-- Title: builtins/integer Pages: 1 -->
<svg width="227pt" height="303pt"
 viewBox="0.00 0.00 227.46 303.00" xmlns="http://www.w3.org/2000/svg" xmlns:xlink="http://www.w3.org/1999/xlink">
<g id="graph0" class="graph" transform="scale(1 1) rotate(0) translate(4 299)">
<title>builtins/integer</title>
<polygon fill="#ffffff" stroke="transparent" points="-4,4 -4,-299 223.4593,-299 223.4593,4 -4,4"/>
<g id="clust1" class="cluster">
<title>clusterdir_96245007931de700bb8a76b2e98ce70a</title>
<g id="a_clust1"><a xlink:href="dir_96245007931de700bb8a76b2e98ce70a.html" target="_top" xlink:title="builtins">
<polygon fill="#ddddee" stroke="#000000" points="8,-128 8,-287 94,-287 94,-128 8,-128"/>
<text text-anchor="middle" x="51" y="-275" font-family="Helvetica,sans-Serif" font-size="10.00" fill="#000000">builtins</text>
</a>
</g>
</g>
<g id="clust2" class="cluster">
<title>clusterdir_66f3f3dae83f5c1ca431cfa8ee514064</title>
<g id="a_clust2"><a xlink:href="dir_66f3f3dae83f5c1ca431cfa8ee514064.html" target="_top">
<polygon fill="#eeeeff" stroke="#000000" points="16,-136 16,-260 86,-260 86,-136 16,-136"/>
</a>
</g>
</g>
<!-- dir_66f3f3dae83f5c1ca431cfa8ee514064 -->
<g id="node1" class="node">
<title>dir_66f3f3dae83f5c1ca431cfa8ee514064</title>
<text text-anchor="middle" x="51" y="-231.5" font-family="Helvetica,sans-Serif" font-size="10.00" fill="#000000">integer</text>
</g>
<!-- dir_9b1e259a0fb36804a20d7877eab037c2 -->
<g id="node2" class="node">
<title>dir_9b1e259a0fb36804a20d7877eab037c2</title>
<g id="a_node2"><a xlink:href="dir_9b1e259a0fb36804a20d7877eab037c2.html" target="_top" xlink:title="include">
<polygon fill="#ffffff" stroke="#000000" points="78,-180 24,-180 24,-144 78,-144 78,-180"/>
<text text-anchor="middle" x="51" y="-159.5" font-family="Helvetica,sans-Serif" font-size="10.00" fill="#000000">include</text>
</a>
</g>
</g>
<!-- dir_66f3f3dae83f5c1ca431cfa8ee514064&#45;&gt;dir_9b1e259a0fb36804a20d7877eab037c2 -->
<g id="edge6" class="edge">
<title>dir_66f3f3dae83f5c1ca431cfa8ee514064&#45;&gt;dir_9b1e259a0fb36804a20d7877eab037c2</title>
<path fill="none" stroke="#000000" d="M51,-215.8314C51,-208.131 51,-198.9743 51,-190.4166"/>
<polygon fill="#000000" stroke="#000000" points="54.5001,-190.4132 51,-180.4133 47.5001,-190.4133 54.5001,-190.4132"/>
<g id="a_edge6&#45;headlabel"><a xlink:href="dir_000008_000009.html" target="_top" xlink:title="2">
<text text-anchor="middle" x="57.3393" y="-191.5079" font-family="Helvetica,sans-Serif" font-size="10.00" fill="#000000">2</text>
</a>
</g>
</g>
<!-- dir_267116d250309cbe7bd39c0026ee016a -->
<g id="node3" class="node">
<title>dir_267116d250309cbe7bd39c0026ee016a</title>
<g id="a_node3"><a xlink:href="dir_267116d250309cbe7bd39c0026ee016a.html" target="_top" xlink:title="memory">
<polygon fill="#ffffff" stroke="#ff0000" points="160,-108 106,-108 106,-72 160,-72 160,-108"/>
<text text-anchor="middle" x="133" y="-87.5" font-family="Helvetica,sans-Serif" font-size="10.00" fill="#000000">memory</text>
</a>
</g>
</g>
<!-- dir_66f3f3dae83f5c1ca431cfa8ee514064&#45;&gt;dir_267116d250309cbe7bd39c0026ee016a -->
<g id="edge5" class="edge">
<title>dir_66f3f3dae83f5c1ca431cfa8ee514064&#45;&gt;dir_267116d250309cbe7bd39c0026ee016a</title>
<path fill="none" stroke="#000000" d="M63.8672,-215.842C70.9868,-205.5201 79.82,-192.2474 87,-180 98.9808,-159.5637 111.1178,-135.6531 119.9145,-117.6156"/>
<polygon fill="#000000" stroke="#000000" points="123.2365,-118.7852 124.4357,-108.2584 116.9337,-115.7398 123.2365,-118.7852"/>
<g id="a_edge5&#45;headlabel"><a xlink:href="dir_000008_000023.html" target="_top" xlink:title="1">
<text text-anchor="middle" x="124.2292" y="-120.757" font-family="Helvetica,sans-Serif" font-size="10.00" fill="#000000">1</text>
</a>
</g>
</g>
<!-- dir_835d68fe110b5be82c2962ab9d4c9d0f -->
<g id="node4" class="node">
<title>dir_835d68fe110b5be82c2962ab9d4c9d0f</title>
<g id="a_node4"><a xlink:href="dir_835d68fe110b5be82c2962ab9d4c9d0f.html" target="_top" xlink:title="string">
<polygon fill="#ffffff" stroke="#ff0000" points="188,-180 134,-180 134,-144 188,-144 188,-180"/>
<text text-anchor="middle" x="161" y="-159.5" font-family="Helvetica,sans-Serif" font-size="10.00" fill="#000000">string</text>
</a>
</g>
</g>
<!-- dir_66f3f3dae83f5c1ca431cfa8ee514064&#45;&gt;dir_835d68fe110b5be82c2962ab9d4c9d0f -->
<g id="edge7" class="edge">
<title>dir_66f3f3dae83f5c1ca431cfa8ee514064&#45;&gt;dir_835d68fe110b5be82c2962ab9d4c9d0f</title>
<path fill="none" stroke="#000000" d="M78.191,-216.2022C92.3378,-206.9425 109.8157,-195.5025 125.063,-185.5224"/>
<polygon fill="#000000" stroke="#000000" points="127.2903,-188.2476 133.7406,-179.8425 123.4567,-182.3907 127.2903,-188.2476"/>
<g id="a_edge7&#45;headlabel"><a xlink:href="dir_000008_000014.html" target="_top" xlink:title="1">
<text text-anchor="middle" x="125.8377" y="-190.0918" font-family="Helvetica,sans-Serif" font-size="10.00" fill="#000000">1</text>
</a>
</g>
</g>
<!-- dir_7f0c039cf765669d984ed76edfe1aa5b -->
<g id="node6" class="node">
<title>dir_7f0c039cf765669d984ed76edfe1aa5b</title>
<g id="a_node6"><a xlink:href="dir_7f0c039cf765669d984ed76edfe1aa5b.html" target="_top" xlink:title="float">
<polygon fill="#ffffff" stroke="#ff0000" points="188,-252 134,-252 134,-216 188,-216 188,-252"/>
<text text-anchor="middle" x="161" y="-231.5" font-family="Helvetica,sans-Serif" font-size="10.00" fill="#000000">float</text>
</a>
</g>
</g>
<!-- dir_66f3f3dae83f5c1ca431cfa8ee514064&#45;&gt;dir_7f0c039cf765669d984ed76edfe1aa5b -->
<g id="edge8" class="edge">
<title>dir_66f3f3dae83f5c1ca431cfa8ee514064&#45;&gt;dir_7f0c039cf765669d984ed76edfe1aa5b</title>
<path fill="none" stroke="#000000" d="M78.0703,-234C93.3058,-234 108.5413,-234 123.7768,-234"/>
<polygon fill="#000000" stroke="#000000" points="123.7887,-237.5001 133.7887,-234 123.7887,-230.5001 123.7887,-237.5001"/>
<g id="a_edge8&#45;headlabel"><a xlink:href="dir_000008_000003.html" target="_top" xlink:title="1">
<text text-anchor="middle" x="120.1941" y="-237.8393" font-family="Helvetica,sans-Serif" font-size="10.00" fill="#000000">1</text>
</a>
</g>
</g>
<!-- dir_608a06ce4a9e8522a04d92d6b87b6029 -->
<g id="node5" class="node">
<title>dir_608a06ce4a9e8522a04d92d6b87b6029</title>
<g id="a_node5"><a xlink:href="dir_608a06ce4a9e8522a04d92d6b87b6029.html" target="_top" xlink:title="object">
<polygon fill="#ffffff" stroke="#ff0000" points="187,-36 133,-36 133,0 187,0 187,-36"/>
<text text-anchor="middle" x="160" y="-15.5" font-family="Helvetica,sans-Serif" font-size="10.00" fill="#000000">object</text>
</a>
</g>
</g>
<!-- dir_9b1e259a0fb36804a20d7877eab037c2&#45;&gt;dir_608a06ce4a9e8522a04d92d6b87b6029 -->
<g id="edge2" class="edge">
<title>dir_9b1e259a0fb36804a20d7877eab037c2&#45;&gt;dir_608a06ce4a9e8522a04d92d6b87b6029</title>
<path fill="none" stroke="#000000" d="M57.793,-143.892C65.4895,-124.8104 79.298,-94.4666 97,-72 105.4419,-61.2859 116.2577,-51.11 126.5364,-42.5399"/>
<polygon fill="#000000" stroke="#000000" points="129.0208,-45.0328 134.609,-36.0315 124.6272,-39.5833 129.0208,-45.0328"/>
<g id="a_edge2&#45;headlabel"><a xlink:href="dir_000009_000010.html" target="_top" xlink:title="1">
<text text-anchor="middle" x="128.0045" y="-46.9993" font-family="Helvetica,sans-Serif" font-size="10.00" fill="#000000">1</text>
</a>
</g>
</g>
<!-- dir_267116d250309cbe7bd39c0026ee016a&#45;&gt;dir_608a06ce4a9e8522a04d92d6b87b6029 -->
<g id="edge1" class="edge">
<title>dir_267116d250309cbe7bd39c0026ee016a&#45;&gt;dir_608a06ce4a9e8522a04d92d6b87b6029</title>
<path fill="none" stroke="#000000" d="M139.8132,-71.8314C142.7644,-63.9617 146.2858,-54.5712 149.555,-45.8533"/>
<polygon fill="#000000" stroke="#000000" points="152.8609,-47.0055 153.095,-36.4133 146.3066,-44.5476 152.8609,-47.0055"/>
<g id="a_edge1&#45;headlabel"><a xlink:href="dir_000023_000010.html" target="_top" xlink:title="1">
<text text-anchor="middle" x="154.2573" y="-48.8682" font-family="Helvetica,sans-Serif" font-size="10.00" fill="#000000">1</text>
</a>
</g>
</g>
<!-- dir_835d68fe110b5be82c2962ab9d4c9d0f&#45;&gt;dir_267116d250309cbe7bd39c0026ee016a -->
<g id="edge3" class="edge">
<title>dir_835d68fe110b5be82c2962ab9d4c9d0f&#45;&gt;dir_267116d250309cbe7bd39c0026ee016a</title>
<path fill="none" stroke="#000000" d="M153.9344,-143.8314C150.874,-135.9617 147.2221,-126.5712 143.8318,-117.8533"/>
<polygon fill="#000000" stroke="#000000" points="147.0473,-116.4647 140.1607,-108.4133 140.5232,-119.0019 147.0473,-116.4647"/>
<g id="a_edge3&#45;headlabel"><a xlink:href="dir_000014_000023.html" target="_top" xlink:title="1">
<text text-anchor="middle" x="150.9963" y="-116.2859" font-family="Helvetica,sans-Serif" font-size="10.00" fill="#000000">1</text>
</a>
</g>
</g>
<!-- dir_835d68fe110b5be82c2962ab9d4c9d0f&#45;&gt;dir_608a06ce4a9e8522a04d92d6b87b6029 -->
<g id="edge4" class="edge">
<title>dir_835d68fe110b5be82c2962ab9d4c9d0f&#45;&gt;dir_608a06ce4a9e8522a04d92d6b87b6029</title>
<path fill="none" stroke="#000000" d="M164.415,-143.5804C166.1709,-133.1767 168.1226,-119.9092 169,-108 170.1756,-92.0432 170.3197,-87.9455 169,-72 168.3055,-63.6085 167.0138,-54.5578 165.6214,-46.3092"/>
<polygon fill="#000000" stroke="#000000" points="169.0544,-45.6235 163.8413,-36.3999 162.1647,-46.8612 169.0544,-45.6235"/>
<g id="a_edge4&#45;headlabel"><a xlink:href="dir_000014_000010.html" target="_top" xlink:title="2">
<text text-anchor="middle" x="172.4844" y="-46.1595" font-family="Helvetica,sans-Serif" font-size="10.00" fill="#000000">2</text>
</a>
</g>
</g>
<!-- dir_7f0c039cf765669d984ed76edfe1aa5b&#45;&gt;dir_66f3f3dae83f5c1ca431cfa8ee514064 -->
<g id="edge12" class="edge">
<title>dir_7f0c039cf765669d984ed76edfe1aa5b&#45;&gt;dir_66f3f3dae83f5c1ca431cfa8ee514064</title>
<path fill="none" stroke="#000000" d="M133.7887,-234C118.5532,-234 103.3177,-234 88.0822,-234"/>
<polygon fill="#000000" stroke="#000000" points="88.0703,-230.5001 78.0703,-234 88.0703,-237.5001 88.0703,-230.5001"/>
<g id="a_edge12&#45;headlabel"><a xlink:href="dir_000003_000008.html" target="_top" xlink:title="1">
<text text-anchor="middle" x="91.6649" y="-225.1607" font-family="Helvetica,sans-Serif" font-size="10.00" fill="#000000">1</text>
</a>
</g>
</g>
<!-- dir_7f0c039cf765669d984ed76edfe1aa5b&#45;&gt;dir_9b1e259a0fb36804a20d7877eab037c2 -->
<g id="edge10" class="edge">
<title>dir_7f0c039cf765669d984ed76edfe1aa5b&#45;&gt;dir_9b1e259a0fb36804a20d7877eab037c2</title>
<path fill="none" stroke="#000000" d="M133.809,-216.2022C119.6622,-206.9425 102.1843,-195.5025 86.937,-185.5224"/>
<polygon fill="#000000" stroke="#000000" points="88.5433,-182.3907 78.2594,-179.8425 84.7097,-188.2476 88.5433,-182.3907"/>
<g id="a_edge10&#45;headlabel"><a xlink:href="dir_000003_000009.html" target="_top" xlink:title="1">
<text text-anchor="middle" x="93.1058" y="-179.4837" font-family="Helvetica,sans-Serif" font-size="10.00" fill="#000000">1</text>
</a>
</g>
</g>
<!-- dir_7f0c039cf765669d984ed76edfe1aa5b&#45;&gt;dir_267116d250309cbe7bd39c0026ee016a -->
<g id="edge9" class="edge">
<title>dir_7f0c039cf765669d984ed76edfe1aa5b&#45;&gt;dir_267116d250309cbe7bd39c0026ee016a</title>
<path fill="none" stroke="#000000" d="M176.9905,-215.9169C184.6538,-206.0371 193.0166,-193.1563 197,-180 203.6972,-157.8805 208.4331,-148.085 197,-128 190.8072,-117.1208 180.1365,-109.0338 169.2638,-103.1836"/>
<polygon fill="#000000" stroke="#000000" points="170.7027,-99.9917 160.177,-98.7834 167.6519,-106.2919 170.7027,-99.9917"/>
<g id="a_edge9&#45;headlabel"><a xlink:href="dir_000003_000023.html" target="_top" xlink:title="2">
<text text-anchor="middle" x="175.1754" y="-96.5029" font-family="Helvetica,sans-Serif" font-size="10.00" fill="#000000">2</text>
</a>
</g>
</g>
<!-- dir_7f0c039cf765669d984ed76edfe1aa5b&#45;&gt;dir_835d68fe110b5be82c2962ab9d4c9d0f -->
<g id="edge11" class="edge">
<title>dir_7f0c039cf765669d984ed76edfe1aa5b&#45;&gt;dir_835d68fe110b5be82c2962ab9d4c9d0f</title>
<path fill="none" stroke="#000000" d="M161,-215.8314C161,-208.131 161,-198.9743 161,-190.4166"/>
<polygon fill="#000000" stroke="#000000" points="164.5001,-190.4132 161,-180.4133 157.5001,-190.4133 164.5001,-190.4132"/>
<g id="a_edge11&#45;headlabel"><a xlink:href="dir_000003_000014.html" target="_top" xlink:title="2">
<text text-anchor="middle" x="167.3393" y="-191.5079" font-family="Helvetica,sans-Serif" font-size="10.00" fill="#000000">2</text>
</a>
</g>
</g>
<!-- dir_7f0c039cf765669d984ed76edfe1aa5b&#45;&gt;dir_608a06ce4a9e8522a04d92d6b87b6029 -->
<g id="edge13" class="edge">
<title>dir_7f0c039cf765669d984ed76edfe1aa5b&#45;&gt;dir_608a06ce4a9e8522a04d92d6b87b6029</title>
<path fill="none" stroke="#000000" d="M186.0428,-215.8695C196.812,-206.5148 208.2346,-194.105 214,-180 222.7444,-158.607 219.2277,-150.5121 214,-128 206.9681,-97.7187 190.3699,-66.1671 177.4174,-44.6614"/>
<polygon fill="#000000" stroke="#000000" points="180.3591,-42.7636 172.128,-36.0928 174.4026,-46.4406 180.3591,-42.7636"/>
<g id="a_edge13&#45;headlabel"><a xlink:href="dir_000003_000010.html" target="_top" xlink:title="4">
<text text-anchor="middle" x="184.6632" y="-41.831" font-family="Helvetica,sans-Serif" font-size="10.00" fill="#000000">4</text>
</a>
</g>
</g>
</g>
</svg>
