<?xml version="1.0" encoding="UTF-8" standalone="no"?>
<!DOCTYPE svg PUBLIC "-//W3C//DTD SVG 1.1//EN"
 "http://www.w3.org/Graphics/SVG/1.1/DTD/svg11.dtd">
<!-- Generated by graphviz version 2.40.1 (20161225.0304)
 -->
<!-- Title: main/builtins/serialization/include Pages: 1 -->
<svg width="101pt" height="151pt"
 viewBox="0.00 0.00 101.00 151.00" xmlns="http://www.w3.org/2000/svg" xmlns:xlink="http://www.w3.org/1999/xlink">
<g id="graph0" class="graph" transform="scale(1 1) rotate(0) translate(4 147)">
<title>main/builtins/serialization/include</title>
<polygon fill="#ffffff" stroke="transparent" points="-4,4 -4,-147 97,-147 97,4 -4,4"/>
<g id="clust1" class="cluster">
<title>clusterdir_e444bdd4cc55e0610b22e90cb9077e2e</title>
<g id="a_clust1"><a xlink:href="dir_e444bdd4cc55e0610b22e90cb9077e2e.html" target="_top" xlink:title="serialization">
<polygon fill="#ddddee" stroke="#000000" points="8,-64 8,-135 85,-135 85,-64 8,-64"/>
<text text-anchor="middle" x="46.5" y="-123" font-family="Helvetica,sans-Serif" font-size="10.00" fill="#000000">serialization</text>
</a>
</g>
</g>
<!-- dir_627a213b05ff0966cfab2ea4567afcee -->
<g id="node1" class="node">
<title>dir_627a213b05ff0966cfab2ea4567afcee</title>
<g id="a_node1"><a xlink:href="dir_627a213b05ff0966cfab2ea4567afcee.html" target="_top" xlink:title="include">
<polygon fill="#eeeeff" stroke="#000000" points="73,-108 19,-108 19,-72 73,-72 73,-108"/>
<text text-anchor="middle" x="46" y="-87.5" font-family="Helvetica,sans-Serif" font-size="10.00" fill="#000000">include</text>
</a>
</g>
</g>
<!-- dir_baf665de47213e165afabc752fe5c74c -->
<g id="node2" class="node">
<title>dir_baf665de47213e165afabc752fe5c74c</title>
<g id="a_node2"><a xlink:href="dir_baf665de47213e165afabc752fe5c74c.html" target="_top" xlink:title="type">
<polygon fill="#ffffff" stroke="#ff0000" points="73,-36 19,-36 19,0 73,0 73,-36"/>
<text text-anchor="middle" x="46" y="-15.5" font-family="Helvetica,sans-Serif" font-size="10.00" fill="#000000">type</text>
</a>
</g>
</g>
<!-- dir_627a213b05ff0966cfab2ea4567afcee&#45;&gt;dir_baf665de47213e165afabc752fe5c74c -->
<g id="edge1" class="edge">
<title>dir_627a213b05ff0966cfab2ea4567afcee&#45;&gt;dir_baf665de47213e165afabc752fe5c74c</title>
<path fill="none" stroke="#000000" d="M46,-71.8314C46,-64.131 46,-54.9743 46,-46.4166"/>
<polygon fill="#000000" stroke="#000000" points="49.5001,-46.4132 46,-36.4133 42.5001,-46.4133 49.5001,-46.4132"/>
<g id="a_edge1&#45;headlabel"><a xlink:href="dir_000016_000019.html" target="_top" xlink:title="1">
<text text-anchor="middle" x="52.3393" y="-47.5079" font-family="Helvetica,sans-Serif" font-size="10.00" fill="#000000">1</text>
</a>
</g>
</g>
</g>
</svg>
