<?xml version="1.0" encoding="UTF-8" standalone="no"?>
<!DOCTYPE svg PUBLIC "-//W3C//DTD SVG 1.1//EN"
 "http://www.w3.org/Graphics/SVG/1.1/DTD/svg11.dtd">
<!-- Generated by graphviz version 2.40.1 (20161225.0304)
 -->
<!-- Title: test/builtins Pages: 1 -->
<svg width="262pt" height="303pt"
 viewBox="0.00 0.00 262.00 303.00" xmlns="http://www.w3.org/2000/svg" xmlns:xlink="http://www.w3.org/1999/xlink">
<g id="graph0" class="graph" transform="scale(1 1) rotate(0) translate(4 299)">
<title>test/builtins</title>
<polygon fill="#ffffff" stroke="transparent" points="-4,4 -4,-299 258,-299 258,4 -4,4"/>
<g id="clust1" class="cluster">
<title>clusterdir_13e138d54eb8818da29c3992edef070a</title>
<g id="a_clust1"><a xlink:href="dir_13e138d54eb8818da29c3992edef070a.html" target="_top" xlink:title="test">
<polygon fill="#ddddee" stroke="#000000" points="8,-56 8,-287 246,-287 246,-56 8,-56"/>
<text text-anchor="middle" x="127" y="-275" font-family="Helvetica,sans-Serif" font-size="10.00" fill="#000000">test</text>
</a>
</g>
</g>
<g id="clust2" class="cluster">
<title>clusterdir_56b18398fc80091fa59c5ba0f8093896</title>
<g id="a_clust2"><a xlink:href="dir_56b18398fc80091fa59c5ba0f8093896.html" target="_top">
<polygon fill="#eeeeff" stroke="#000000" points="16,-64 16,-260 238,-260 238,-64 16,-64"/>
</a>
</g>
</g>
<!-- dir_56b18398fc80091fa59c5ba0f8093896 -->
<g id="node1" class="node">
<title>dir_56b18398fc80091fa59c5ba0f8093896</title>
<text text-anchor="middle" x="184" y="-231.5" font-family="Helvetica,sans-Serif" font-size="10.00" fill="#000000">builtins</text>
</g>
<!-- dir_f8f4acbc658bbc888f25c35ff857e146 -->
<g id="node4" class="node">
<title>dir_f8f4acbc658bbc888f25c35ff857e146</title>
<g id="a_node4"><a xlink:href="dir_f8f4acbc658bbc888f25c35ff857e146.html" target="_top" xlink:title="include">
<polygon fill="#ffffff" stroke="#000000" points="192,-180 138,-180 138,-144 192,-144 192,-180"/>
<text text-anchor="middle" x="165" y="-159.5" font-family="Helvetica,sans-Serif" font-size="10.00" fill="#000000">include</text>
</a>
</g>
</g>
<!-- dir_56b18398fc80091fa59c5ba0f8093896&#45;&gt;dir_f8f4acbc658bbc888f25c35ff857e146 -->
<g id="edge7" class="edge">
<title>dir_56b18398fc80091fa59c5ba0f8093896&#45;&gt;dir_f8f4acbc658bbc888f25c35ff857e146</title>
<path fill="none" stroke="#000000" d="M179.2055,-215.8314C177.1511,-208.0463 174.704,-198.7729 172.4244,-190.1347"/>
<polygon fill="#000000" stroke="#000000" points="175.7948,-189.1892 169.8591,-180.4133 169.0265,-190.9753 175.7948,-189.1892"/>
<g id="a_edge7&#45;headlabel"><a xlink:href="dir_000032_000037.html" target="_top" xlink:title="1">
<text text-anchor="middle" x="179.4572" y="-189.4404" font-family="Helvetica,sans-Serif" font-size="10.00" fill="#000000">1</text>
</a>
</g>
</g>
<!-- dir_5c982d53a68cdbcd421152b4020263a9 -->
<g id="node6" class="node">
<title>dir_5c982d53a68cdbcd421152b4020263a9</title>
<g id="a_node6"><a xlink:href="dir_5c982d53a68cdbcd421152b4020263a9.html" target="_top" xlink:title="main">
<polygon fill="#ffffff" stroke="#ff0000" points="192,-36 138,-36 138,0 192,0 192,-36"/>
<text text-anchor="middle" x="165" y="-15.5" font-family="Helvetica,sans-Serif" font-size="10.00" fill="#000000">main</text>
</a>
</g>
</g>
<!-- dir_56b18398fc80091fa59c5ba0f8093896&#45;&gt;dir_5c982d53a68cdbcd421152b4020263a9 -->
<g id="edge8" class="edge">
<title>dir_56b18398fc80091fa59c5ba0f8093896&#45;&gt;dir_5c982d53a68cdbcd421152b4020263a9</title>
<path fill="none" stroke="#000000" d="M198.8623,-215.8627C224.4894,-182.2423 271.2798,-108.8631 239,-56 230.7444,-42.4801 215.9781,-33.5697 201.7959,-27.8007"/>
<polygon fill="#000000" stroke="#000000" points="202.752,-24.4241 192.158,-24.2907 200.3565,-31.0015 202.752,-24.4241"/>
<g id="a_edge8&#45;headlabel"><a xlink:href="dir_000032_000000.html" target="_top" xlink:title="7">
<text text-anchor="middle" x="207.1012" y="-20.4863" font-family="Helvetica,sans-Serif" font-size="10.00" fill="#000000">7</text>
</a>
</g>
</g>
<!-- dir_b8c9ef8ee2d08d8903a46bea6fdc4538 -->
<g id="node2" class="node">
<title>dir_b8c9ef8ee2d08d8903a46bea6fdc4538</title>
<g id="a_node2"><a xlink:href="dir_b8c9ef8ee2d08d8903a46bea6fdc4538.html" target="_top" xlink:title="float">
<polygon fill="#ffffff" stroke="#ff0000" points="78,-108 24,-108 24,-72 78,-72 78,-108"/>
<text text-anchor="middle" x="51" y="-87.5" font-family="Helvetica,sans-Serif" font-size="10.00" fill="#000000">float</text>
</a>
</g>
</g>
<!-- dir_b8c9ef8ee2d08d8903a46bea6fdc4538&#45;&gt;dir_5c982d53a68cdbcd421152b4020263a9 -->
<g id="edge5" class="edge">
<title>dir_b8c9ef8ee2d08d8903a46bea6fdc4538&#45;&gt;dir_5c982d53a68cdbcd421152b4020263a9</title>
<path fill="none" stroke="#000000" d="M68.0187,-71.9082C73.7346,-66.4019 80.3538,-60.5967 87,-56 99.7604,-47.1745 114.8794,-39.2993 128.3933,-33.0384"/>
<polygon fill="#000000" stroke="#000000" points="130.2034,-36.0624 137.8932,-28.7743 127.3368,-29.6762 130.2034,-36.0624"/>
<g id="a_edge5&#45;headlabel"><a xlink:href="dir_000033_000000.html" target="_top" xlink:title="2">
<text text-anchor="middle" x="128.0866" y="-37.6247" font-family="Helvetica,sans-Serif" font-size="10.00" fill="#000000">2</text>
</a>
</g>
</g>
<!-- dir_f33bce0b33798a7146e52b0b8708d7fe -->
<g id="node3" class="node">
<title>dir_f33bce0b33798a7146e52b0b8708d7fe</title>
<g id="a_node3"><a xlink:href="dir_f33bce0b33798a7146e52b0b8708d7fe.html" target="_top" xlink:title="hashmap">
<polygon fill="#ffffff" stroke="#ff0000" points="158,-108 96,-108 96,-72 158,-72 158,-108"/>
<text text-anchor="middle" x="127" y="-87.5" font-family="Helvetica,sans-Serif" font-size="10.00" fill="#000000">hashmap</text>
</a>
</g>
</g>
<!-- dir_f33bce0b33798a7146e52b0b8708d7fe&#45;&gt;dir_5c982d53a68cdbcd421152b4020263a9 -->
<g id="edge4" class="edge">
<title>dir_f33bce0b33798a7146e52b0b8708d7fe&#45;&gt;dir_5c982d53a68cdbcd421152b4020263a9</title>
<path fill="none" stroke="#000000" d="M136.589,-71.8314C140.8317,-63.7925 145.9121,-54.1666 150.596,-45.2918"/>
<polygon fill="#000000" stroke="#000000" points="153.7096,-46.8908 155.2819,-36.4133 147.5189,-43.6235 153.7096,-46.8908"/>
<g id="a_edge4&#45;headlabel"><a xlink:href="dir_000035_000000.html" target="_top" xlink:title="1">
<text text-anchor="middle" x="154.5428" y="-48.895" font-family="Helvetica,sans-Serif" font-size="10.00" fill="#000000">1</text>
</a>
</g>
</g>
<!-- dir_f8f4acbc658bbc888f25c35ff857e146&#45;&gt;dir_b8c9ef8ee2d08d8903a46bea6fdc4538 -->
<g id="edge2" class="edge">
<title>dir_f8f4acbc658bbc888f25c35ff857e146&#45;&gt;dir_b8c9ef8ee2d08d8903a46bea6fdc4538</title>
<path fill="none" stroke="#000000" d="M137.9836,-144.937C122.7616,-135.3231 103.5515,-123.1904 87.0583,-112.7737"/>
<polygon fill="#000000" stroke="#000000" points="88.5414,-109.5708 78.2176,-107.19 84.8035,-115.4892 88.5414,-109.5708"/>
<g id="a_edge2&#45;headlabel"><a xlink:href="dir_000037_000033.html" target="_top" xlink:title="1">
<text text-anchor="middle" x="93.0968" y="-106.5897" font-family="Helvetica,sans-Serif" font-size="10.00" fill="#000000">1</text>
</a>
</g>
</g>
<!-- dir_f8f4acbc658bbc888f25c35ff857e146&#45;&gt;dir_f33bce0b33798a7146e52b0b8708d7fe -->
<g id="edge1" class="edge">
<title>dir_f8f4acbc658bbc888f25c35ff857e146&#45;&gt;dir_f33bce0b33798a7146e52b0b8708d7fe</title>
<path fill="none" stroke="#000000" d="M155.411,-143.8314C151.1683,-135.7925 146.0879,-126.1666 141.404,-117.2918"/>
<polygon fill="#000000" stroke="#000000" points="144.4811,-115.6235 136.7181,-108.4133 138.2904,-118.8908 144.4811,-115.6235"/>
<g id="a_edge1&#45;headlabel"><a xlink:href="dir_000037_000035.html" target="_top" xlink:title="1">
<text text-anchor="middle" x="148.6699" y="-114.9772" font-family="Helvetica,sans-Serif" font-size="10.00" fill="#000000">1</text>
</a>
</g>
</g>
<!-- dir_1b2bf5b701f56b5f546a48fe6ec3af47 -->
<g id="node5" class="node">
<title>dir_1b2bf5b701f56b5f546a48fe6ec3af47</title>
<g id="a_node5"><a xlink:href="dir_1b2bf5b701f56b5f546a48fe6ec3af47.html" target="_top" xlink:title="integer">
<polygon fill="#ffffff" stroke="#ff0000" points="230,-108 176,-108 176,-72 230,-72 230,-108"/>
<text text-anchor="middle" x="203" y="-87.5" font-family="Helvetica,sans-Serif" font-size="10.00" fill="#000000">integer</text>
</a>
</g>
</g>
<!-- dir_f8f4acbc658bbc888f25c35ff857e146&#45;&gt;dir_1b2bf5b701f56b5f546a48fe6ec3af47 -->
<g id="edge3" class="edge">
<title>dir_f8f4acbc658bbc888f25c35ff857e146&#45;&gt;dir_1b2bf5b701f56b5f546a48fe6ec3af47</title>
<path fill="none" stroke="#000000" d="M174.589,-143.8314C178.8317,-135.7925 183.9121,-126.1666 188.596,-117.2918"/>
<polygon fill="#000000" stroke="#000000" points="191.7096,-118.8908 193.2819,-108.4133 185.5189,-115.6235 191.7096,-118.8908"/>
<g id="a_edge3&#45;headlabel"><a xlink:href="dir_000037_000038.html" target="_top" xlink:title="1">
<text text-anchor="middle" x="192.5428" y="-120.895" font-family="Helvetica,sans-Serif" font-size="10.00" fill="#000000">1</text>
</a>
</g>
</g>
<!-- dir_1b2bf5b701f56b5f546a48fe6ec3af47&#45;&gt;dir_5c982d53a68cdbcd421152b4020263a9 -->
<g id="edge6" class="edge">
<title>dir_1b2bf5b701f56b5f546a48fe6ec3af47&#45;&gt;dir_5c982d53a68cdbcd421152b4020263a9</title>
<path fill="none" stroke="#000000" d="M193.411,-71.8314C189.1683,-63.7925 184.0879,-54.1666 179.404,-45.2918"/>
<polygon fill="#000000" stroke="#000000" points="182.4811,-43.6235 174.7181,-36.4133 176.2904,-46.8908 182.4811,-43.6235"/>
<g id="a_edge6&#45;headlabel"><a xlink:href="dir_000038_000000.html" target="_top" xlink:title="3">
<text text-anchor="middle" x="186.6699" y="-42.9772" font-family="Helvetica,sans-Serif" font-size="10.00" fill="#000000">3</text>
</a>
</g>
</g>
</g>
</svg>
