<?xml version="1.0" encoding="UTF-8" standalone="no"?>
<!DOCTYPE svg PUBLIC "-//W3C//DTD SVG 1.1//EN"
 "http://www.w3.org/Graphics/SVG/1.1/DTD/svg11.dtd">
<!-- Generated by graphviz version 2.40.1 (20161225.0304)
 -->
<!-- Title: main/builtins/serialization Pages: 1 -->
<svg width="206pt" height="195pt"
 viewBox="0.00 0.00 206.00 195.00" xmlns="http://www.w3.org/2000/svg" xmlns:xlink="http://www.w3.org/1999/xlink">
<g id="graph0" class="graph" transform="scale(1 1) rotate(0) translate(4 191)">
<title>main/builtins/serialization</title>
<polygon fill="#ffffff" stroke="transparent" points="-4,4 -4,-191 202,-191 202,4 -4,4"/>
<g id="clust1" class="cluster">
<title>clusterdir_f9352377262e2d6c535a8e1ae042e5ec</title>
<g id="a_clust1"><a xlink:href="dir_f9352377262e2d6c535a8e1ae042e5ec.html" target="_top" xlink:title="builtins">
<polygon fill="#ddddee" stroke="#000000" points="8,-56 8,-143 190,-143 190,-56 8,-56"/>
<text text-anchor="middle" x="99" y="-131" font-family="Helvetica,sans-Serif" font-size="10.00" fill="#000000">builtins</text>
</a>
</g>
</g>
<g id="clust2" class="cluster">
<title>clusterdir_e444bdd4cc55e0610b22e90cb9077e2e</title>
<g id="a_clust2"><a xlink:href="dir_e444bdd4cc55e0610b22e90cb9077e2e.html" target="_top">
<polygon fill="#eeeeff" stroke="#000000" points="16,-64 16,-116 182,-116 182,-64 16,-64"/>
</a>
</g>
</g>
<!-- dir_e444bdd4cc55e0610b22e90cb9077e2e -->
<g id="node1" class="node">
<title>dir_e444bdd4cc55e0610b22e90cb9077e2e</title>
<text text-anchor="middle" x="135" y="-87.5" font-family="Helvetica,sans-Serif" font-size="10.00" fill="#000000">serialization</text>
</g>
<!-- dir_14a43b5b2d34e992c84db911343042ff -->
<g id="node4" class="node">
<title>dir_14a43b5b2d34e992c84db911343042ff</title>
<g id="a_node4"><a xlink:href="dir_14a43b5b2d34e992c84db911343042ff.html" target="_top" xlink:title="include">
<polygon fill="none" stroke="#000000" points="162,-187 108,-187 108,-151 162,-151 162,-187"/>
<text text-anchor="middle" x="135" y="-166.5" font-family="Helvetica,sans-Serif" font-size="10.00" fill="#000000">include</text>
</a>
</g>
</g>
<!-- dir_e444bdd4cc55e0610b22e90cb9077e2e&#45;&gt;dir_14a43b5b2d34e992c84db911343042ff -->
<g id="edge2" class="edge">
<title>dir_e444bdd4cc55e0610b22e90cb9077e2e&#45;&gt;dir_14a43b5b2d34e992c84db911343042ff</title>
<path fill="none" stroke="#000000" d="M129.2091,-108.2234C128.2525,-117.779 128.0115,-129.7025 128.4861,-140.4513"/>
<polygon fill="#000000" stroke="#000000" points="125.0119,-140.945 129.1992,-150.6772 131.9949,-140.4579 125.0119,-140.945"/>
<g id="a_edge2&#45;headlabel"><a xlink:href="dir_000015_000010.html" target="_top" xlink:title="1">
<text text-anchor="middle" x="121.9295" y="-135.0566" font-family="Helvetica,sans-Serif" font-size="10.00" fill="#000000">1</text>
</a>
</g>
</g>
<!-- dir_627a213b05ff0966cfab2ea4567afcee -->
<g id="node2" class="node">
<title>dir_627a213b05ff0966cfab2ea4567afcee</title>
<g id="a_node2"><a xlink:href="dir_627a213b05ff0966cfab2ea4567afcee.html" target="_top" xlink:title="include">
<polygon fill="#ffffff" stroke="#000000" points="78,-108 24,-108 24,-72 78,-72 78,-108"/>
<text text-anchor="middle" x="51" y="-87.5" font-family="Helvetica,sans-Serif" font-size="10.00" fill="#000000">include</text>
</a>
</g>
</g>
<!-- dir_baf665de47213e165afabc752fe5c74c -->
<g id="node3" class="node">
<title>dir_baf665de47213e165afabc752fe5c74c</title>
<g id="a_node3"><a xlink:href="dir_baf665de47213e165afabc752fe5c74c.html" target="_top" xlink:title="type">
<polygon fill="#ffffff" stroke="#ff0000" points="78,-36 24,-36 24,0 78,0 78,-36"/>
<text text-anchor="middle" x="51" y="-15.5" font-family="Helvetica,sans-Serif" font-size="10.00" fill="#000000">type</text>
</a>
</g>
</g>
<!-- dir_627a213b05ff0966cfab2ea4567afcee&#45;&gt;dir_baf665de47213e165afabc752fe5c74c -->
<g id="edge1" class="edge">
<title>dir_627a213b05ff0966cfab2ea4567afcee&#45;&gt;dir_baf665de47213e165afabc752fe5c74c</title>
<path fill="none" stroke="#000000" d="M51,-71.8314C51,-64.131 51,-54.9743 51,-46.4166"/>
<polygon fill="#000000" stroke="#000000" points="54.5001,-46.4132 51,-36.4133 47.5001,-46.4133 54.5001,-46.4132"/>
<g id="a_edge1&#45;headlabel"><a xlink:href="dir_000016_000019.html" target="_top" xlink:title="1">
<text text-anchor="middle" x="57.3393" y="-47.5079" font-family="Helvetica,sans-Serif" font-size="10.00" fill="#000000">1</text>
</a>
</g>
</g>
<!-- dir_14a43b5b2d34e992c84db911343042ff&#45;&gt;dir_e444bdd4cc55e0610b22e90cb9077e2e -->
<g id="edge4" class="edge">
<title>dir_14a43b5b2d34e992c84db911343042ff&#45;&gt;dir_e444bdd4cc55e0610b22e90cb9077e2e</title>
<path fill="none" stroke="#000000" d="M140.8008,-150.6772C141.7525,-141.1053 141.9885,-129.1777 141.509,-118.4371"/>
<polygon fill="#000000" stroke="#000000" points="144.9837,-117.9533 140.7909,-108.2234 138.0009,-118.4443 144.9837,-117.9533"/>
<g id="a_edge4&#45;headlabel"><a xlink:href="dir_000010_000015.html" target="_top" xlink:title="1">
<text text-anchor="middle" x="148.068" y="-118.8399" font-family="Helvetica,sans-Serif" font-size="10.00" fill="#000000">1</text>
</a>
</g>
</g>
<!-- dir_14a43b5b2d34e992c84db911343042ff&#45;&gt;dir_627a213b05ff0966cfab2ea4567afcee -->
<g id="edge3" class="edge">
<title>dir_14a43b5b2d34e992c84db911343042ff&#45;&gt;dir_627a213b05ff0966cfab2ea4567afcee</title>
<path fill="none" stroke="#000000" d="M107.7413,-156.6611C100.8804,-152.8445 93.8196,-148.2429 88,-143 79.746,-135.564 72.3426,-125.953 66.3662,-116.9614"/>
<polygon fill="#000000" stroke="#000000" points="69.184,-114.8682 60.8869,-108.2797 63.2644,-118.6043 69.184,-114.8682"/>
<g id="a_edge3&#45;headlabel"><a xlink:href="dir_000010_000016.html" target="_top" xlink:title="1">
<text text-anchor="middle" x="73.5036" y="-113.8927" font-family="Helvetica,sans-Serif" font-size="10.00" fill="#000000">1</text>
</a>
</g>
</g>
</g>
</svg>
