<?xml version="1.0" encoding="UTF-8" standalone="no"?>
<!DOCTYPE svg PUBLIC "-//W3C//DTD SVG 1.1//EN"
 "http://www.w3.org/Graphics/SVG/1.1/DTD/svg11.dtd">
<!-- Generated by graphviz version 2.40.1 (20161225.0304)
 -->
<!-- Title: builtins Pages: 1 -->
<!--zoomable 508 -->
<svg id="main" version="1.1" xmlns="http://www.w3.org/2000/svg" xmlns:xlink="http://www.w3.org/1999/xlink" xml:space="preserve" onload="init(evt)">
<style type="text/css"><![CDATA[
.edge:hover path { stroke: red; }
.edge:hover polygon { stroke: red; fill: red; }
]]></style>
<script type="text/javascript"><![CDATA[
var edges = document.getElementsByTagName('g');
if (edges && edges.length) {
  for (var i=0;i<edges.length;i++) {
    if (edges[i].id.substr(0,4)=='edge') {
      edges[i].setAttribute('class','edge');
    }
  }
}
]]></script>
        <defs>
                <circle id="rim" cx="0" cy="0" r="7"/>
                <circle id="rim2" cx="0" cy="0" r="3.5"/>
                <g id="zoomPlus">
                        <use xlink:href="#rim" fill="#404040">
                                <set attributeName="fill" to="#808080" begin="zoomplus.mouseover" end="zoomplus.mouseout"/>
                        </use>
                        <path d="M-4,0h8M0,-4v8" fill="none" stroke="white" stroke-width="1.5" pointer-events="none"/>
                </g>
                <g id="zoomMin">
                        <use xlink:href="#rim" fill="#404040">
                                <set attributeName="fill" to="#808080" begin="zoomminus.mouseover" end="zoomminus.mouseout"/>
                        </use>
                        <path d="M-4,0h8" fill="none" stroke="white" stroke-width="1.5" pointer-events="none"/>
                </g>
                <g id="dirArrow">
                        <path fill="none" stroke="white" stroke-width="1.5" d="M0,-3.0v7 M-2.5,-0.5L0,-3.0L2.5,-0.5"/>
                </g>
               <g id="resetDef">
                       <use xlink:href="#rim2" fill="#404040">
                               <set attributeName="fill" to="#808080" begin="reset.mouseover" end="reset.mouseout"/>
                       </use>
               </g>
        </defs>

<script type="text/javascript">
var viewWidth = 504;
var viewHeight = 508;
var sectionId = 'dynsection-0';
</script>
<script xlink:href="svgpan.js"/>
<svg id="graph" class="graph">
<g id="viewport">
<title>builtins</title>
<polygon fill="#ffffff" stroke="transparent" points="-4,4 -4,-504 500.1814,-504 500.1814,4 -4,4"/>
<g id="clust1" class="cluster">
<title>clusterdir_96245007931de700bb8a76b2e98ce70a</title>
<g id="a_clust1"><a xlink:href="dir_96245007931de700bb8a76b2e98ce70a.html" target="_top">
<polygon fill="#eeeeff" stroke="#000000" points="130.1814,-8 130.1814,-492 432.1814,-492 432.1814,-8 130.1814,-8"/>
</a>
</g>
</g>
<!-- dir_96245007931de700bb8a76b2e98ce70a -->
<g id="node1" class="node">
<title>dir_96245007931de700bb8a76b2e98ce70a</title>
<text text-anchor="middle" x="389.1814" y="-463.5" font-family="Helvetica,sans-Serif" font-size="10.00" fill="#000000">builtins</text>
</g>
<!-- dir_d6cd80945d4bf03f62596b003a3d0f7d -->
<g id="node2" class="node">
<title>dir_d6cd80945d4bf03f62596b003a3d0f7d</title>
<g id="a_node2"><a xlink:href="dir_d6cd80945d4bf03f62596b003a3d0f7d.html" target="_top" xlink:title="boolean">
<polygon fill="#ffffff" stroke="#ff0000" points="192.1814,-340 138.1814,-340 138.1814,-304 192.1814,-304 192.1814,-340"/>
<text text-anchor="middle" x="165.1814" y="-319.5" font-family="Helvetica,sans-Serif" font-size="10.00" fill="#000000">boolean</text>
</a>
</g>
</g>
<!-- dir_608a06ce4a9e8522a04d92d6b87b6029 -->
<g id="node8" class="node">
<title>dir_608a06ce4a9e8522a04d92d6b87b6029</title>
<g id="a_node8"><a xlink:href="dir_608a06ce4a9e8522a04d92d6b87b6029.html" target="_top" xlink:title="object">
<polygon fill="#ffffff" stroke="#ff0000" points="267.1814,-124 213.1814,-124 213.1814,-88 267.1814,-88 267.1814,-124"/>
<text text-anchor="middle" x="240.1814" y="-103.5" font-family="Helvetica,sans-Serif" font-size="10.00" fill="#000000">object</text>
</a>
</g>
</g>
<!-- dir_d6cd80945d4bf03f62596b003a3d0f7d&#45;&gt;dir_608a06ce4a9e8522a04d92d6b87b6029 -->
<g id="edge30" class="edge">
<title>dir_d6cd80945d4bf03f62596b003a3d0f7d&#45;&gt;dir_608a06ce4a9e8522a04d92d6b87b6029</title>
<path fill="none" stroke="#000000" d="M163.1933,-303.6423C160.6619,-272.1156 159.3304,-206.5843 185.1814,-160 191.1074,-149.3213 199.7984,-139.3934 208.5297,-131.0382"/>
<polygon fill="#000000" stroke="#000000" points="211.0957,-133.4358 216.1446,-124.1213 206.3891,-128.2542 211.0957,-133.4358"/>
<g id="a_edge30&#45;headlabel"><a xlink:href="dir_000001_000012.html" target="_top" xlink:title="2">
<text text-anchor="middle" x="210.344" y="-135.4543" font-family="Helvetica,sans-Serif" font-size="10.00" fill="#000000">2</text>
</a>
</g>
</g>
<!-- dir_835d68fe110b5be82c2962ab9d4c9d0f -->
<g id="node10" class="node">
<title>dir_835d68fe110b5be82c2962ab9d4c9d0f</title>
<g id="a_node10"><a xlink:href="dir_835d68fe110b5be82c2962ab9d4c9d0f.html" target="_top" xlink:title="string">
<polygon fill="#ffffff" stroke="#ff0000" points="290.1814,-196 236.1814,-196 236.1814,-160 290.1814,-160 290.1814,-196"/>
<text text-anchor="middle" x="263.1814" y="-175.5" font-family="Helvetica,sans-Serif" font-size="10.00" fill="#000000">string</text>
</a>
</g>
</g>
<!-- dir_d6cd80945d4bf03f62596b003a3d0f7d&#45;&gt;dir_835d68fe110b5be82c2962ab9d4c9d0f -->
<g id="edge29" class="edge">
<title>dir_d6cd80945d4bf03f62596b003a3d0f7d&#45;&gt;dir_835d68fe110b5be82c2962ab9d4c9d0f</title>
<path fill="none" stroke="#000000" d="M166.4463,-303.9616C168.561,-284.6629 174.1959,-253.8808 189.1814,-232 198.8386,-217.8992 213.4275,-206.1214 227.106,-197.2011"/>
<polygon fill="#000000" stroke="#000000" points="229.2418,-199.9954 235.9024,-191.756 225.5574,-194.0434 229.2418,-199.9954"/>
<g id="a_edge29&#45;headlabel"><a xlink:href="dir_000001_000016.html" target="_top" xlink:title="1">
<text text-anchor="middle" x="227.6797" y="-201.8015" font-family="Helvetica,sans-Serif" font-size="10.00" fill="#000000">1</text>
</a>
</g>
</g>
<!-- dir_267116d250309cbe7bd39c0026ee016a -->
<g id="node12" class="node">
<title>dir_267116d250309cbe7bd39c0026ee016a</title>
<g id="a_node12"><a xlink:href="dir_267116d250309cbe7bd39c0026ee016a.html" target="_top" xlink:title="memory">
<polygon fill="#ffffff" stroke="#ff0000" points="121.1814,-196 67.1814,-196 67.1814,-160 121.1814,-160 121.1814,-196"/>
<text text-anchor="middle" x="94.1814" y="-175.5" font-family="Helvetica,sans-Serif" font-size="10.00" fill="#000000">memory</text>
</a>
</g>
</g>
<!-- dir_d6cd80945d4bf03f62596b003a3d0f7d&#45;&gt;dir_267116d250309cbe7bd39c0026ee016a -->
<g id="edge28" class="edge">
<title>dir_d6cd80945d4bf03f62596b003a3d0f7d&#45;&gt;dir_267116d250309cbe7bd39c0026ee016a</title>
<path fill="none" stroke="#000000" d="M137.9278,-308.4815C122.6947,-299.3288 105.0399,-285.6799 96.1814,-268 86.7004,-249.0775 86.6904,-224.9898 88.7845,-206.4967"/>
<polygon fill="#000000" stroke="#000000" points="92.2866,-206.7244 90.2048,-196.3361 85.354,-205.7552 92.2866,-206.7244"/>
<g id="a_edge28&#45;headlabel"><a xlink:href="dir_000001_000025.html" target="_top" xlink:title="1">
<text text-anchor="middle" x="94.601" y="-208.1774" font-family="Helvetica,sans-Serif" font-size="10.00" fill="#000000">1</text>
</a>
</g>
</g>
<!-- dir_6c90db5314e3398bb3690284b771412f -->
<g id="node3" class="node">
<title>dir_6c90db5314e3398bb3690284b771412f</title>
<g id="a_node3"><a xlink:href="dir_6c90db5314e3398bb3690284b771412f.html" target="_top" xlink:title="code">
<polygon fill="#ffffff" stroke="#ff0000" points="364.1814,-268 310.1814,-268 310.1814,-232 364.1814,-232 364.1814,-268"/>
<text text-anchor="middle" x="337.1814" y="-247.5" font-family="Helvetica,sans-Serif" font-size="10.00" fill="#000000">code</text>
</a>
</g>
</g>
<!-- dir_6c90db5314e3398bb3690284b771412f&#45;&gt;dir_608a06ce4a9e8522a04d92d6b87b6029 -->
<g id="edge17" class="edge">
<title>dir_6c90db5314e3398bb3690284b771412f&#45;&gt;dir_608a06ce4a9e8522a04d92d6b87b6029</title>
<path fill="none" stroke="#000000" d="M332.0914,-231.9398C326.169,-212.8981 315.1222,-182.5873 299.1814,-160 291.6003,-149.2578 281.5557,-139.0746 271.9071,-130.5064"/>
<polygon fill="#000000" stroke="#000000" points="274.1814,-127.846 264.3087,-124.0014 269.629,-133.1635 274.1814,-127.846"/>
<g id="a_edge17&#45;headlabel"><a xlink:href="dir_000003_000012.html" target="_top" xlink:title="3">
<text text-anchor="middle" x="278.7585" y="-125.5269" font-family="Helvetica,sans-Serif" font-size="10.00" fill="#000000">3</text>
</a>
</g>
</g>
<!-- dir_6c90db5314e3398bb3690284b771412f&#45;&gt;dir_835d68fe110b5be82c2962ab9d4c9d0f -->
<g id="edge16" class="edge">
<title>dir_6c90db5314e3398bb3690284b771412f&#45;&gt;dir_835d68fe110b5be82c2962ab9d4c9d0f</title>
<path fill="none" stroke="#000000" d="M318.5081,-231.8314C309.6565,-223.219 298.9328,-212.7851 289.292,-203.4048"/>
<polygon fill="#000000" stroke="#000000" points="291.4568,-200.6279 281.8488,-196.1628 286.5753,-205.645 291.4568,-200.6279"/>
<g id="a_edge16&#45;headlabel"><a xlink:href="dir_000003_000016.html" target="_top" xlink:title="2">
<text text-anchor="middle" x="296.0131" y="-198.5996" font-family="Helvetica,sans-Serif" font-size="10.00" fill="#000000">2</text>
</a>
</g>
</g>
<!-- dir_6c90db5314e3398bb3690284b771412f&#45;&gt;dir_267116d250309cbe7bd39c0026ee016a -->
<g id="edge14" class="edge">
<title>dir_6c90db5314e3398bb3690284b771412f&#45;&gt;dir_267116d250309cbe7bd39c0026ee016a</title>
<path fill="none" stroke="#000000" d="M309.8644,-243.432C262.361,-231.9552 166.5537,-208.548 131.2996,-197.3849"/>
<polygon fill="#000000" stroke="#000000" points="132.1283,-193.9675 121.5335,-193.9867 129.8278,-200.5787 132.1283,-193.9675"/>
<g id="a_edge14&#45;headlabel"><a xlink:href="dir_000003_000025.html" target="_top" xlink:title="2">
<text text-anchor="middle" x="136.4563" y="-189.9672" font-family="Helvetica,sans-Serif" font-size="10.00" fill="#000000">2</text>
</a>
</g>
</g>
<!-- dir_572890c148f68441e050f6560d78312b -->
<g id="node13" class="node">
<title>dir_572890c148f68441e050f6560d78312b</title>
<g id="a_node13"><a xlink:href="dir_572890c148f68441e050f6560d78312b.html" target="_top" xlink:title="parser">
<polygon fill="#ffffff" stroke="#ff0000" points="496.1814,-196 442.1814,-196 442.1814,-160 496.1814,-160 496.1814,-196"/>
<text text-anchor="middle" x="469.1814" y="-175.5" font-family="Helvetica,sans-Serif" font-size="10.00" fill="#000000">parser</text>
</a>
</g>
</g>
<!-- dir_6c90db5314e3398bb3690284b771412f&#45;&gt;dir_572890c148f68441e050f6560d78312b -->
<g id="edge15" class="edge">
<title>dir_6c90db5314e3398bb3690284b771412f&#45;&gt;dir_572890c148f68441e050f6560d78312b</title>
<path fill="none" stroke="#000000" d="M364.2121,-235.256C384.0116,-224.4563 411.1007,-209.6804 432.8003,-197.8442"/>
<polygon fill="#000000" stroke="#000000" points="434.6303,-200.8329 441.7333,-192.9717 431.2783,-194.6877 434.6303,-200.8329"/>
<g id="a_edge15&#45;headlabel"><a xlink:href="dir_000003_000027.html" target="_top" xlink:title="2">
<text text-anchor="middle" x="432.8342" y="-202.5468" font-family="Helvetica,sans-Serif" font-size="10.00" fill="#000000">2</text>
</a>
</g>
</g>
<!-- dir_7f0c039cf765669d984ed76edfe1aa5b -->
<g id="node4" class="node">
<title>dir_7f0c039cf765669d984ed76edfe1aa5b</title>
<g id="a_node4"><a xlink:href="dir_7f0c039cf765669d984ed76edfe1aa5b.html" target="_top" xlink:title="float">
<polygon fill="#ffffff" stroke="#ff0000" points="264.1814,-340 210.1814,-340 210.1814,-304 264.1814,-304 264.1814,-340"/>
<text text-anchor="middle" x="237.1814" y="-319.5" font-family="Helvetica,sans-Serif" font-size="10.00" fill="#000000">float</text>
</a>
</g>
</g>
<!-- dir_66f3f3dae83f5c1ca431cfa8ee514064 -->
<g id="node7" class="node">
<title>dir_66f3f3dae83f5c1ca431cfa8ee514064</title>
<g id="a_node7"><a xlink:href="dir_66f3f3dae83f5c1ca431cfa8ee514064.html" target="_top" xlink:title="integer">
<polygon fill="#ffffff" stroke="#ff0000" points="252.1814,-268 198.1814,-268 198.1814,-232 252.1814,-232 252.1814,-268"/>
<text text-anchor="middle" x="225.1814" y="-247.5" font-family="Helvetica,sans-Serif" font-size="10.00" fill="#000000">integer</text>
</a>
</g>
</g>
<!-- dir_7f0c039cf765669d984ed76edfe1aa5b&#45;&gt;dir_66f3f3dae83f5c1ca431cfa8ee514064 -->
<g id="edge33" class="edge">
<title>dir_7f0c039cf765669d984ed76edfe1aa5b&#45;&gt;dir_66f3f3dae83f5c1ca431cfa8ee514064</title>
<path fill="none" stroke="#000000" d="M228.2009,-303.8314C226.1671,-296.131 224.4201,-286.9743 223.3024,-278.4166"/>
<polygon fill="#000000" stroke="#000000" points="226.7785,-278.003 222.2743,-268.4133 219.8151,-278.7187 226.7785,-278.003"/>
<g id="a_edge33&#45;headlabel"><a xlink:href="dir_000005_000010.html" target="_top" xlink:title="1">
<text text-anchor="middle" x="229.9703" y="-278.7885" font-family="Helvetica,sans-Serif" font-size="10.00" fill="#000000">1</text>
</a>
</g>
</g>
<!-- dir_7f0c039cf765669d984ed76edfe1aa5b&#45;&gt;dir_608a06ce4a9e8522a04d92d6b87b6029 -->
<g id="edge34" class="edge">
<title>dir_7f0c039cf765669d984ed76edfe1aa5b&#45;&gt;dir_608a06ce4a9e8522a04d92d6b87b6029</title>
<path fill="none" stroke="#000000" d="M214.9602,-303.9032C205.0506,-294.3888 194.4415,-281.8349 189.1814,-268 171.366,-221.142 199.708,-165.0713 220.7565,-132.6918"/>
<polygon fill="#000000" stroke="#000000" points="223.7809,-134.4664 226.4555,-124.2147 217.9716,-130.5609 223.7809,-134.4664"/>
<g id="a_edge34&#45;headlabel"><a xlink:href="dir_000005_000012.html" target="_top" xlink:title="4">
<text text-anchor="middle" x="224.1317" y="-136.5336" font-family="Helvetica,sans-Serif" font-size="10.00" fill="#000000">4</text>
</a>
</g>
</g>
<!-- dir_7f0c039cf765669d984ed76edfe1aa5b&#45;&gt;dir_835d68fe110b5be82c2962ab9d4c9d0f -->
<g id="edge32" class="edge">
<title>dir_7f0c039cf765669d984ed76edfe1aa5b&#45;&gt;dir_835d68fe110b5be82c2962ab9d4c9d0f</title>
<path fill="none" stroke="#000000" d="M247.5272,-303.6365C252.6848,-293.4716 258.4025,-280.4142 261.1814,-268 265.7264,-247.6966 266.0853,-224.1717 265.3827,-206.2662"/>
<polygon fill="#000000" stroke="#000000" points="268.8728,-205.9845 264.8531,-196.1819 261.8824,-206.3517 268.8728,-205.9845"/>
<g id="a_edge32&#45;headlabel"><a xlink:href="dir_000005_000016.html" target="_top" xlink:title="2">
<text text-anchor="middle" x="271.8966" y="-206.9253" font-family="Helvetica,sans-Serif" font-size="10.00" fill="#000000">2</text>
</a>
</g>
</g>
<!-- dir_7f0c039cf765669d984ed76edfe1aa5b&#45;&gt;dir_267116d250309cbe7bd39c0026ee016a -->
<g id="edge31" class="edge">
<title>dir_7f0c039cf765669d984ed76edfe1aa5b&#45;&gt;dir_267116d250309cbe7bd39c0026ee016a</title>
<path fill="none" stroke="#000000" d="M214.6664,-303.9629C202.3499,-293.7879 187.0284,-280.6176 174.1814,-268 153.3575,-247.5479 131.4524,-222.6346 115.8392,-204.2095"/>
<polygon fill="#000000" stroke="#000000" points="118.2506,-201.6391 109.1348,-196.2398 112.8939,-206.1453 118.2506,-201.6391"/>
<g id="a_edge31&#45;headlabel"><a xlink:href="dir_000005_000025.html" target="_top" xlink:title="2">
<text text-anchor="middle" x="122.7373" y="-200.062" font-family="Helvetica,sans-Serif" font-size="10.00" fill="#000000">2</text>
</a>
</g>
</g>
<!-- dir_1c5debea106edff2946b598282d156d8 -->
<g id="node5" class="node">
<title>dir_1c5debea106edff2946b598282d156d8</title>
<g id="a_node5"><a xlink:href="dir_1c5debea106edff2946b598282d156d8.html" target="_top" xlink:title="hashmap">
<polygon fill="#ffffff" stroke="#ff0000" points="384.1814,-196 328.1814,-196 328.1814,-160 384.1814,-160 384.1814,-196"/>
<text text-anchor="middle" x="356.1814" y="-175.5" font-family="Helvetica,sans-Serif" font-size="10.00" fill="#000000">hashmap</text>
</a>
</g>
</g>
<!-- dir_1c5debea106edff2946b598282d156d8&#45;&gt;dir_608a06ce4a9e8522a04d92d6b87b6029 -->
<g id="edge20" class="edge">
<title>dir_1c5debea106edff2946b598282d156d8&#45;&gt;dir_608a06ce4a9e8522a04d92d6b87b6029</title>
<path fill="none" stroke="#000000" d="M328.1011,-160.5708C312.4864,-150.8789 292.8876,-138.7142 276.1592,-128.331"/>
<polygon fill="#000000" stroke="#000000" points="277.5467,-125.0728 267.2045,-122.7729 273.8551,-131.0203 277.5467,-125.0728"/>
<g id="a_edge20&#45;headlabel"><a xlink:href="dir_000007_000012.html" target="_top" xlink:title="1">
<text text-anchor="middle" x="282.0981" y="-122.0561" font-family="Helvetica,sans-Serif" font-size="10.00" fill="#000000">1</text>
</a>
</g>
</g>
<!-- dir_d55e902ee8ca40eb95d69786b7153853 -->
<g id="node6" class="node">
<title>dir_d55e902ee8ca40eb95d69786b7153853</title>
<g id="a_node6"><a xlink:href="dir_d55e902ee8ca40eb95d69786b7153853.html" target="_top" xlink:title="include">
<polygon fill="#ffffff" stroke="#000000" points="330.1814,-412 276.1814,-412 276.1814,-376 330.1814,-376 330.1814,-412"/>
<text text-anchor="middle" x="303.1814" y="-391.5" font-family="Helvetica,sans-Serif" font-size="10.00" fill="#000000">include</text>
</a>
</g>
</g>
<!-- dir_d55e902ee8ca40eb95d69786b7153853&#45;&gt;dir_d6cd80945d4bf03f62596b003a3d0f7d -->
<g id="edge8" class="edge">
<title>dir_d55e902ee8ca40eb95d69786b7153853&#45;&gt;dir_d6cd80945d4bf03f62596b003a3d0f7d</title>
<path fill="none" stroke="#000000" d="M275.9171,-379.7751C254.5589,-368.6317 224.655,-353.0297 201.3057,-340.8475"/>
<polygon fill="#000000" stroke="#000000" points="202.874,-337.718 192.3891,-336.1953 199.636,-343.9241 202.874,-337.718"/>
<g id="a_edge8&#45;headlabel"><a xlink:href="dir_000009_000001.html" target="_top" xlink:title="1">
<text text-anchor="middle" x="207.3743" y="-334.3634" font-family="Helvetica,sans-Serif" font-size="10.00" fill="#000000">1</text>
</a>
</g>
</g>
<!-- dir_d55e902ee8ca40eb95d69786b7153853&#45;&gt;dir_6c90db5314e3398bb3690284b771412f -->
<g id="edge2" class="edge">
<title>dir_d55e902ee8ca40eb95d69786b7153853&#45;&gt;dir_6c90db5314e3398bb3690284b771412f</title>
<path fill="none" stroke="#000000" d="M307.4876,-375.7623C313.3123,-351.0928 323.7562,-306.8598 330.5767,-277.9731"/>
<polygon fill="#000000" stroke="#000000" points="334.0186,-278.6263 332.9103,-268.0896 327.2059,-277.0177 334.0186,-278.6263"/>
<g id="a_edge2&#45;headlabel"><a xlink:href="dir_000009_000003.html" target="_top" xlink:title="1">
<text text-anchor="middle" x="335.956" y="-280.2772" font-family="Helvetica,sans-Serif" font-size="10.00" fill="#000000">1</text>
</a>
</g>
</g>
<!-- dir_d55e902ee8ca40eb95d69786b7153853&#45;&gt;dir_7f0c039cf765669d984ed76edfe1aa5b -->
<g id="edge9" class="edge">
<title>dir_d55e902ee8ca40eb95d69786b7153853&#45;&gt;dir_7f0c039cf765669d984ed76edfe1aa5b</title>
<path fill="none" stroke="#000000" d="M286.5268,-375.8314C278.77,-367.3694 269.4013,-357.1489 260.9204,-347.8971"/>
<polygon fill="#000000" stroke="#000000" points="263.3976,-345.4198 254.0603,-340.4133 258.2375,-350.1499 263.3976,-345.4198"/>
<g id="a_edge9&#45;headlabel"><a xlink:href="dir_000009_000005.html" target="_top" xlink:title="1">
<text text-anchor="middle" x="267.9195" y="-343.651" font-family="Helvetica,sans-Serif" font-size="10.00" fill="#000000">1</text>
</a>
</g>
</g>
<!-- dir_d55e902ee8ca40eb95d69786b7153853&#45;&gt;dir_1c5debea106edff2946b598282d156d8 -->
<g id="edge4" class="edge">
<title>dir_d55e902ee8ca40eb95d69786b7153853&#45;&gt;dir_1c5debea106edff2946b598282d156d8</title>
<path fill="none" stroke="#000000" d="M317.3581,-375.6627C334.4971,-352.2213 362.3849,-309.6653 373.1814,-268 378.5412,-247.3158 373.5904,-223.5489 367.6764,-205.6346"/>
<polygon fill="#000000" stroke="#000000" points="370.9226,-204.3182 364.2527,-196.0864 364.3334,-206.6809 370.9226,-204.3182"/>
<g id="a_edge4&#45;headlabel"><a xlink:href="dir_000009_000007.html" target="_top" xlink:title="1">
<text text-anchor="middle" x="374.8085" y="-204.2435" font-family="Helvetica,sans-Serif" font-size="10.00" fill="#000000">1</text>
</a>
</g>
</g>
<!-- dir_d55e902ee8ca40eb95d69786b7153853&#45;&gt;dir_66f3f3dae83f5c1ca431cfa8ee514064 -->
<g id="edge5" class="edge">
<title>dir_d55e902ee8ca40eb95d69786b7153853&#45;&gt;dir_66f3f3dae83f5c1ca431cfa8ee514064</title>
<path fill="none" stroke="#000000" d="M299.4191,-375.8511C295.0023,-357.004 286.5361,-327.0991 273.1814,-304 267.3172,-293.8569 259.3422,-283.9267 251.5773,-275.4043"/>
<polygon fill="#000000" stroke="#000000" points="253.9896,-272.8614 244.572,-268.0076 248.9073,-277.6749 253.9896,-272.8614"/>
<g id="a_edge5&#45;headlabel"><a xlink:href="dir_000009_000010.html" target="_top" xlink:title="1">
<text text-anchor="middle" x="258.5229" y="-271.0189" font-family="Helvetica,sans-Serif" font-size="10.00" fill="#000000">1</text>
</a>
</g>
</g>
<!-- dir_d55e902ee8ca40eb95d69786b7153853&#45;&gt;dir_608a06ce4a9e8522a04d92d6b87b6029 -->
<g id="edge7" class="edge">
<title>dir_d55e902ee8ca40eb95d69786b7153853&#45;&gt;dir_608a06ce4a9e8522a04d92d6b87b6029</title>
<path fill="none" stroke="#000000" d="M324.7702,-375.7857C335.1651,-366.0628 347.0962,-353.3624 355.1814,-340 397.509,-270.0456 440.4056,-226.7466 393.1814,-160 379.533,-140.7094 318.0547,-123.5094 277.3041,-113.9458"/>
<polygon fill="#000000" stroke="#000000" points="277.9614,-110.5058 267.4321,-111.6823 276.3969,-117.3287 277.9614,-110.5058"/>
<g id="a_edge7&#45;headlabel"><a xlink:href="dir_000009_000012.html" target="_top" xlink:title="1">
<text text-anchor="middle" x="282.0996" y="-106.0416" font-family="Helvetica,sans-Serif" font-size="10.00" fill="#000000">1</text>
</a>
</g>
</g>
<!-- dir_0a4e3b93f123f4f2e45990353486eba4 -->
<g id="node9" class="node">
<title>dir_0a4e3b93f123f4f2e45990353486eba4</title>
<g id="a_node9"><a xlink:href="dir_0a4e3b93f123f4f2e45990353486eba4.html" target="_top" xlink:title="serialization">
<polygon fill="#ffffff" stroke="#ff0000" points="337.1814,-484 269.1814,-484 269.1814,-448 337.1814,-448 337.1814,-484"/>
<text text-anchor="middle" x="303.1814" y="-463.5" font-family="Helvetica,sans-Serif" font-size="10.00" fill="#000000">serialization</text>
</a>
</g>
</g>
<!-- dir_d55e902ee8ca40eb95d69786b7153853&#45;&gt;dir_0a4e3b93f123f4f2e45990353486eba4 -->
<g id="edge6" class="edge">
<title>dir_d55e902ee8ca40eb95d69786b7153853&#45;&gt;dir_0a4e3b93f123f4f2e45990353486eba4</title>
<path fill="none" stroke="#000000" d="M309.1574,-412.4133C309.8885,-420.0593 310.1017,-429.1084 309.7969,-437.5726"/>
<polygon fill="#000000" stroke="#000000" points="306.2862,-437.6264 309.1338,-447.8314 313.2716,-438.078 306.2862,-437.6264"/>
<g id="a_edge6&#45;headlabel"><a xlink:href="dir_000009_000014.html" target="_top" xlink:title="1">
<text text-anchor="middle" x="303.6846" y="-431.3562" font-family="Helvetica,sans-Serif" font-size="10.00" fill="#000000">1</text>
</a>
</g>
</g>
<!-- dir_d55e902ee8ca40eb95d69786b7153853&#45;&gt;dir_835d68fe110b5be82c2962ab9d4c9d0f -->
<g id="edge3" class="edge">
<title>dir_d55e902ee8ca40eb95d69786b7153853&#45;&gt;dir_835d68fe110b5be82c2962ab9d4c9d0f</title>
<path fill="none" stroke="#000000" d="M299.8399,-375.9555C292.8693,-338.3144 276.7345,-251.1867 268.3897,-206.1246"/>
<polygon fill="#000000" stroke="#000000" points="271.8041,-205.3405 266.5416,-196.1451 264.9211,-206.6152 271.8041,-205.3405"/>
<g id="a_edge3&#45;headlabel"><a xlink:href="dir_000009_000016.html" target="_top" xlink:title="1">
<text text-anchor="middle" x="275.2504" y="-205.8581" font-family="Helvetica,sans-Serif" font-size="10.00" fill="#000000">1</text>
</a>
</g>
</g>
<!-- dir_d55e902ee8ca40eb95d69786b7153853&#45;&gt;dir_267116d250309cbe7bd39c0026ee016a -->
<g id="edge1" class="edge">
<title>dir_d55e902ee8ca40eb95d69786b7153853&#45;&gt;dir_267116d250309cbe7bd39c0026ee016a</title>
<path fill="none" stroke="#000000" d="M275.9753,-393.0448C211.5308,-390.1528 52.5416,-379.1187 20.1814,-340 -10.414,-303.0146 -1.5656,-274.791 20.1814,-232 28.2967,-216.0318 43.5941,-203.6621 58.1834,-194.8153"/>
<polygon fill="#000000" stroke="#000000" points="60.1294,-197.7356 67.1053,-189.7615 56.6792,-191.6449 60.1294,-197.7356"/>
<g id="a_edge1&#45;headlabel"><a xlink:href="dir_000009_000025.html" target="_top" xlink:title="1">
<text text-anchor="middle" x="58.4011" y="-199.4777" font-family="Helvetica,sans-Serif" font-size="10.00" fill="#000000">1</text>
</a>
</g>
</g>
<!-- dir_66f3f3dae83f5c1ca431cfa8ee514064&#45;&gt;dir_7f0c039cf765669d984ed76edfe1aa5b -->
<g id="edge24" class="edge">
<title>dir_66f3f3dae83f5c1ca431cfa8ee514064&#45;&gt;dir_7f0c039cf765669d984ed76edfe1aa5b</title>
<path fill="none" stroke="#000000" d="M234.2263,-268.4133C236.254,-276.1442 237.9913,-285.3097 239.0956,-293.8545"/>
<polygon fill="#000000" stroke="#000000" points="235.6162,-294.2348 240.1057,-303.8314 242.5806,-293.5296 235.6162,-294.2348"/>
<g id="a_edge24&#45;headlabel"><a xlink:href="dir_000010_000005.html" target="_top" xlink:title="1">
<text text-anchor="middle" x="232.4293" y="-288.4444" font-family="Helvetica,sans-Serif" font-size="10.00" fill="#000000">1</text>
</a>
</g>
</g>
<!-- dir_66f3f3dae83f5c1ca431cfa8ee514064&#45;&gt;dir_608a06ce4a9e8522a04d92d6b87b6029 -->
<g id="edge23" class="edge">
<title>dir_66f3f3dae83f5c1ca431cfa8ee514064&#45;&gt;dir_608a06ce4a9e8522a04d92d6b87b6029</title>
<path fill="none" stroke="#000000" d="M224.4547,-231.9849C223.9832,-213.7545 223.9588,-184.7976 227.1814,-160 228.2824,-151.5283 230.1783,-142.4529 232.187,-134.2063"/>
<polygon fill="#000000" stroke="#000000" points="235.6306,-134.869 234.7404,-124.3117 228.8526,-133.1199 235.6306,-134.869"/>
<g id="a_edge23&#45;headlabel"><a xlink:href="dir_000010_000012.html" target="_top" xlink:title="3">
<text text-anchor="middle" x="237.4816" y="-136.5591" font-family="Helvetica,sans-Serif" font-size="10.00" fill="#000000">3</text>
</a>
</g>
</g>
<!-- dir_66f3f3dae83f5c1ca431cfa8ee514064&#45;&gt;dir_835d68fe110b5be82c2962ab9d4c9d0f -->
<g id="edge22" class="edge">
<title>dir_66f3f3dae83f5c1ca431cfa8ee514064&#45;&gt;dir_835d68fe110b5be82c2962ab9d4c9d0f</title>
<path fill="none" stroke="#000000" d="M234.7704,-231.8314C239.0132,-223.7925 244.0935,-214.1666 248.7774,-205.2918"/>
<polygon fill="#000000" stroke="#000000" points="251.891,-206.8908 253.4633,-196.4133 245.7003,-203.6235 251.891,-206.8908"/>
<g id="a_edge22&#45;headlabel"><a xlink:href="dir_000010_000016.html" target="_top" xlink:title="1">
<text text-anchor="middle" x="252.7243" y="-208.895" font-family="Helvetica,sans-Serif" font-size="10.00" fill="#000000">1</text>
</a>
</g>
</g>
<!-- dir_66f3f3dae83f5c1ca431cfa8ee514064&#45;&gt;dir_267116d250309cbe7bd39c0026ee016a -->
<g id="edge21" class="edge">
<title>dir_66f3f3dae83f5c1ca431cfa8ee514064&#45;&gt;dir_267116d250309cbe7bd39c0026ee016a</title>
<path fill="none" stroke="#000000" d="M197.8153,-235.1972C179.9309,-225.496 155.8521,-212.3845 130.1671,-198.1936"/>
<polygon fill="#000000" stroke="#000000" points="131.8459,-195.1225 121.4016,-193.3431 128.4566,-201.2473 131.8459,-195.1225"/>
<g id="a_edge21&#45;headlabel"><a xlink:href="dir_000010_000025.html" target="_top" xlink:title="1">
<text text-anchor="middle" x="136.3658" y="-191.8786" font-family="Helvetica,sans-Serif" font-size="10.00" fill="#000000">1</text>
</a>
</g>
</g>
<!-- dir_e558b8e126febdf8b95f4d8be0195ecf -->
<g id="node11" class="node">
<title>dir_e558b8e126febdf8b95f4d8be0195ecf</title>
<g id="a_node11"><a xlink:href="dir_e558b8e126febdf8b95f4d8be0195ecf.html" target="_top" xlink:title="type">
<polygon fill="#ffffff" stroke="#ff0000" points="267.1814,-52 213.1814,-52 213.1814,-16 267.1814,-16 267.1814,-52"/>
<text text-anchor="middle" x="240.1814" y="-31.5" font-family="Helvetica,sans-Serif" font-size="10.00" fill="#000000">type</text>
</a>
</g>
</g>
<!-- dir_608a06ce4a9e8522a04d92d6b87b6029&#45;&gt;dir_e558b8e126febdf8b95f4d8be0195ecf -->
<g id="edge27" class="edge">
<title>dir_608a06ce4a9e8522a04d92d6b87b6029&#45;&gt;dir_e558b8e126febdf8b95f4d8be0195ecf</title>
<path fill="none" stroke="#000000" d="M240.1814,-87.8314C240.1814,-80.131 240.1814,-70.9743 240.1814,-62.4166"/>
<polygon fill="#000000" stroke="#000000" points="243.6815,-62.4132 240.1814,-52.4133 236.6815,-62.4133 243.6815,-62.4132"/>
<g id="a_edge27&#45;headlabel"><a xlink:href="dir_000012_000018.html" target="_top" xlink:title="2">
<text text-anchor="middle" x="246.5207" y="-63.5079" font-family="Helvetica,sans-Serif" font-size="10.00" fill="#000000">2</text>
</a>
</g>
</g>
<!-- dir_0a4e3b93f123f4f2e45990353486eba4&#45;&gt;dir_d55e902ee8ca40eb95d69786b7153853 -->
<g id="edge25" class="edge">
<title>dir_0a4e3b93f123f4f2e45990353486eba4&#45;&gt;dir_d55e902ee8ca40eb95d69786b7153853</title>
<path fill="none" stroke="#000000" d="M297.229,-447.8314C296.4786,-440.131 296.2577,-430.9743 296.5663,-422.4166"/>
<polygon fill="#000000" stroke="#000000" points="300.0606,-422.6161 297.2054,-412.4133 293.0749,-422.1697 300.0606,-422.6161"/>
<g id="a_edge25&#45;headlabel"><a xlink:href="dir_000014_000009.html" target="_top" xlink:title="1">
<text text-anchor="middle" x="302.665" y="-423.8844" font-family="Helvetica,sans-Serif" font-size="10.00" fill="#000000">1</text>
</a>
</g>
</g>
<!-- dir_0a4e3b93f123f4f2e45990353486eba4&#45;&gt;dir_e558b8e126febdf8b95f4d8be0195ecf -->
<g id="edge26" class="edge">
<title>dir_0a4e3b93f123f4f2e45990353486eba4&#45;&gt;dir_e558b8e126febdf8b95f4d8be0195ecf</title>
<path fill="none" stroke="#000000" d="M333.1529,-447.9508C368.6961,-424.0025 423.1814,-378.1362 423.1814,-322 423.1814,-322 423.1814,-322 423.1814,-178 423.1814,-104.3192 330.4291,-62.564 276.9906,-44.6215"/>
<polygon fill="#000000" stroke="#000000" points="277.7756,-41.1968 267.1837,-41.4469 275.6197,-47.8566 277.7756,-41.1968"/>
<g id="a_edge26&#45;headlabel"><a xlink:href="dir_000014_000018.html" target="_top" xlink:title="1">
<text text-anchor="middle" x="282.0699" y="-37.1025" font-family="Helvetica,sans-Serif" font-size="10.00" fill="#000000">1</text>
</a>
</g>
</g>
<!-- dir_835d68fe110b5be82c2962ab9d4c9d0f&#45;&gt;dir_608a06ce4a9e8522a04d92d6b87b6029 -->
<g id="edge19" class="edge">
<title>dir_835d68fe110b5be82c2962ab9d4c9d0f&#45;&gt;dir_608a06ce4a9e8522a04d92d6b87b6029</title>
<path fill="none" stroke="#000000" d="M257.3776,-159.8314C254.8907,-152.0463 251.9283,-142.7729 249.1689,-134.1347"/>
<polygon fill="#000000" stroke="#000000" points="252.4405,-132.874 246.0634,-124.4133 245.7724,-135.0041 252.4405,-132.874"/>
<g id="a_edge19&#45;headlabel"><a xlink:href="dir_000016_000012.html" target="_top" xlink:title="2">
<text text-anchor="middle" x="256.2389" y="-132.9342" font-family="Helvetica,sans-Serif" font-size="10.00" fill="#000000">2</text>
</a>
</g>
</g>
<!-- dir_835d68fe110b5be82c2962ab9d4c9d0f&#45;&gt;dir_267116d250309cbe7bd39c0026ee016a -->
<g id="edge18" class="edge">
<title>dir_835d68fe110b5be82c2962ab9d4c9d0f&#45;&gt;dir_267116d250309cbe7bd39c0026ee016a</title>
<path fill="none" stroke="#000000" d="M236.0145,-178C201.1959,-178 166.3774,-178 131.5589,-178"/>
<polygon fill="#000000" stroke="#000000" points="131.2479,-174.5001 121.2478,-178 131.2478,-181.5001 131.2479,-174.5001"/>
<g id="a_edge18&#45;headlabel"><a xlink:href="dir_000016_000025.html" target="_top" xlink:title="1">
<text text-anchor="middle" x="134.8425" y="-169.1607" font-family="Helvetica,sans-Serif" font-size="10.00" fill="#000000">1</text>
</a>
</g>
</g>
<!-- dir_e558b8e126febdf8b95f4d8be0195ecf&#45;&gt;dir_267116d250309cbe7bd39c0026ee016a -->
<g id="edge12" class="edge">
<title>dir_e558b8e126febdf8b95f4d8be0195ecf&#45;&gt;dir_267116d250309cbe7bd39c0026ee016a</title>
<path fill="none" stroke="#000000" d="M221.8406,-52.0896C196.1427,-77.4355 149.2974,-123.639 120.0608,-152.4751"/>
<polygon fill="#000000" stroke="#000000" points="117.3344,-150.2482 112.6724,-159.7623 122.2499,-155.232 117.3344,-150.2482"/>
<g id="a_edge12&#45;headlabel"><a xlink:href="dir_000018_000025.html" target="_top" xlink:title="1">
<text text-anchor="middle" x="117.8998" y="-143.2026" font-family="Helvetica,sans-Serif" font-size="10.00" fill="#000000">1</text>
</a>
</g>
</g>
<!-- dir_267116d250309cbe7bd39c0026ee016a&#45;&gt;dir_d55e902ee8ca40eb95d69786b7153853 -->
<g id="edge10" class="edge">
<title>dir_267116d250309cbe7bd39c0026ee016a&#45;&gt;dir_d55e902ee8ca40eb95d69786b7153853</title>
<path fill="none" stroke="#000000" d="M87.7211,-196.2776C82.1807,-214.7123 76.118,-243.8247 83.1814,-268 93.831,-304.4494 98.9882,-316.9708 129.1814,-340 169.7552,-370.9467 228.2947,-384.3344 266.0417,-390.0039"/>
<polygon fill="#000000" stroke="#000000" points="265.7172,-393.4925 276.1047,-391.4065 266.6836,-386.5595 265.7172,-393.4925"/>
<g id="a_edge10&#45;headlabel"><a xlink:href="dir_000025_000009.html" target="_top" xlink:title="1">
<text text-anchor="middle" x="261.7651" y="-393.3084" font-family="Helvetica,sans-Serif" font-size="10.00" fill="#000000">1</text>
</a>
</g>
</g>
<!-- dir_267116d250309cbe7bd39c0026ee016a&#45;&gt;dir_608a06ce4a9e8522a04d92d6b87b6029 -->
<g id="edge11" class="edge">
<title>dir_267116d250309cbe7bd39c0026ee016a&#45;&gt;dir_608a06ce4a9e8522a04d92d6b87b6029</title>
<path fill="none" stroke="#000000" d="M121.3445,-162.5502C122.9749,-161.676 124.5962,-160.82 126.1814,-160 151.7114,-146.7937 181.0288,-132.9347 203.5394,-122.5637"/>
<polygon fill="#000000" stroke="#000000" points="205.1084,-125.6947 212.7391,-118.3446 202.1903,-119.3319 205.1084,-125.6947"/>
<g id="a_edge11&#45;headlabel"><a xlink:href="dir_000025_000012.html" target="_top" xlink:title="1">
<text text-anchor="middle" x="203.0246" y="-127.2739" font-family="Helvetica,sans-Serif" font-size="10.00" fill="#000000">1</text>
</a>
</g>
</g>
<!-- dir_572890c148f68441e050f6560d78312b&#45;&gt;dir_d55e902ee8ca40eb95d69786b7153853 -->
<g id="edge13" class="edge">
<title>dir_572890c148f68441e050f6560d78312b&#45;&gt;dir_d55e902ee8ca40eb95d69786b7153853</title>
<path fill="none" stroke="#000000" d="M466.6841,-196.251C461.3721,-228.7838 446.1727,-297.3725 408.1814,-340 390.0042,-360.3954 362.2945,-374.1906 339.9045,-382.7301"/>
<polygon fill="#000000" stroke="#000000" points="338.5763,-379.4885 330.3622,-386.1802 340.9565,-386.0714 338.5763,-379.4885"/>
<g id="a_edge13&#45;headlabel"><a xlink:href="dir_000027_000009.html" target="_top" xlink:title="2">
<text text-anchor="middle" x="340.9914" y="-373.0962" font-family="Helvetica,sans-Serif" font-size="10.00" fill="#000000">2</text>
</a>
</g>
</g>
</g>
</svg>
        <g id="navigator" transform="translate(0 0)" fill="#404254">
                <rect fill="#f2f5e9" fill-opacity="0.5" stroke="#606060" stroke-width=".5" x="0" y="0" width="60" height="60"/>
                <use id="zoomplus" xlink:href="#zoomPlus" x="17" y="9" onmousedown="handleZoom(evt,'in')"/>
                <use id="zoomminus" xlink:href="#zoomMin" x="42" y="9" onmousedown="handleZoom(evt,'out')"/>
                <use id="reset" xlink:href="#resetDef" x="30" y="36" onmousedown="handleReset()"/>
                <g id="arrowUp" xlink:href="#dirArrow" transform="translate(30 24)" onmousedown="handlePan(0,-1)">
                  <use xlink:href="#rim" fill="#404040">
                        <set attributeName="fill" to="#808080" begin="arrowUp.mouseover" end="arrowUp.mouseout"/>
                  </use>
                  <path fill="none" stroke="white" stroke-width="1.5" d="M0,-3.0v7 M-2.5,-0.5L0,-3.0L2.5,-0.5"/>
                </g>
                <g id="arrowRight" xlink:href="#dirArrow" transform="rotate(90) translate(36 -43)" onmousedown="handlePan(1,0)">
                  <use xlink:href="#rim" fill="#404040">
                        <set attributeName="fill" to="#808080" begin="arrowRight.mouseover" end="arrowRight.mouseout"/>
                  </use>
                  <path fill="none" stroke="white" stroke-width="1.5" d="M0,-3.0v7 M-2.5,-0.5L0,-3.0L2.5,-0.5"/>
                </g>
                <g id="arrowDown" xlink:href="#dirArrow" transform="rotate(180) translate(-30 -48)" onmousedown="handlePan(0,1)">
                  <use xlink:href="#rim" fill="#404040">
                        <set attributeName="fill" to="#808080" begin="arrowDown.mouseover" end="arrowDown.mouseout"/>
                  </use>
                  <path fill="none" stroke="white" stroke-width="1.5" d="M0,-3.0v7 M-2.5,-0.5L0,-3.0L2.5,-0.5"/>
                </g>
                <g id="arrowLeft" xlink:href="#dirArrow" transform="rotate(270) translate(-36 17)" onmousedown="handlePan(-1,0)">
                  <use xlink:href="#rim" fill="#404040">
                        <set attributeName="fill" to="#808080" begin="arrowLeft.mouseover" end="arrowLeft.mouseout"/>
                  </use>
                  <path fill="none" stroke="white" stroke-width="1.5" d="M0,-3.0v7 M-2.5,-0.5L0,-3.0L2.5,-0.5"/>
                </g>
        </g>
        <svg viewBox="0 0 15 15" width="100%" height="30px" preserveAspectRatio="xMaxYMin meet">
         <g id="arrow_out" transform="scale(0.3 0.3)">
          <a xlink:href="dir_96245007931de700bb8a76b2e98ce70a_dep_org.svg" target="_base">
           <rect id="button" ry="5" rx="5" y="6" x="6" height="38" width="38"
                fill="#f2f5e9" fill-opacity="0.5" stroke="#606060" stroke-width="1.0"/>
           <path id="arrow"
             d="M 11.500037,31.436501 C 11.940474,20.09759 22.043105,11.32322 32.158766,21.979434 L 37.068811,17.246167 C 37.068811,17.246167 37.088388,32 37.088388,32 L 22.160133,31.978069 C 22.160133,31.978069 26.997745,27.140456 26.997745,27.140456 C 18.528582,18.264221 13.291696,25.230495 11.500037,31.436501 z"
             style="fill:#404040;"/>
          </a>
         </g>
        </svg>
</svg>
