<?xml version="1.0" encoding="UTF-8" standalone="no"?>
<!DOCTYPE svg PUBLIC "-//W3C//DTD SVG 1.1//EN"
 "http://www.w3.org/Graphics/SVG/1.1/DTD/svg11.dtd">
<!-- Generated by graphviz version 2.40.1 (20161225.0304)
 -->
<!-- Title: main/builtins/boolean Pages: 1 -->
<svg width="308pt" height="339pt"
 viewBox="0.00 0.00 307.68 339.00" xmlns="http://www.w3.org/2000/svg" xmlns:xlink="http://www.w3.org/1999/xlink">
<g id="graph0" class="graph" transform="scale(1 1) rotate(0) translate(4 335)">
<title>main/builtins/boolean</title>
<polygon fill="#ffffff" stroke="transparent" points="-4,4 -4,-335 303.6752,-335 303.6752,4 -4,4"/>
<g id="clust1" class="cluster">
<title>clusterdir_f9352377262e2d6c535a8e1ae042e5ec</title>
<g id="a_clust1"><a xlink:href="dir_f9352377262e2d6c535a8e1ae042e5ec.html" target="_top" xlink:title="builtins">
<polygon fill="#ddddee" stroke="#000000" points="8,-128 8,-287 96,-287 96,-128 8,-128"/>
<text text-anchor="middle" x="52" y="-275" font-family="Helvetica,sans-Serif" font-size="10.00" fill="#000000">builtins</text>
</a>
</g>
</g>
<g id="clust2" class="cluster">
<title>clusterdir_379443b8b8cb271fd845aff3bf8bc42c</title>
<g id="a_clust2"><a xlink:href="dir_379443b8b8cb271fd845aff3bf8bc42c.html" target="_top">
<polygon fill="#eeeeff" stroke="#000000" points="16,-136 16,-260 88,-260 88,-136 16,-136"/>
</a>
</g>
</g>
<!-- dir_379443b8b8cb271fd845aff3bf8bc42c -->
<g id="node1" class="node">
<title>dir_379443b8b8cb271fd845aff3bf8bc42c</title>
<text text-anchor="middle" x="52" y="-231.5" font-family="Helvetica,sans-Serif" font-size="10.00" fill="#000000">boolean</text>
</g>
<!-- dir_f79b37fc1909041c0e12ad544c2ab81b -->
<g id="node2" class="node">
<title>dir_f79b37fc1909041c0e12ad544c2ab81b</title>
<g id="a_node2"><a xlink:href="dir_f79b37fc1909041c0e12ad544c2ab81b.html" target="_top" xlink:title="include">
<polygon fill="#ffffff" stroke="#000000" points="78,-180 24,-180 24,-144 78,-144 78,-180"/>
<text text-anchor="middle" x="51" y="-159.5" font-family="Helvetica,sans-Serif" font-size="10.00" fill="#000000">include</text>
</a>
</g>
</g>
<!-- dir_379443b8b8cb271fd845aff3bf8bc42c&#45;&gt;dir_f79b37fc1909041c0e12ad544c2ab81b -->
<g id="edge15" class="edge">
<title>dir_379443b8b8cb271fd845aff3bf8bc42c&#45;&gt;dir_f79b37fc1909041c0e12ad544c2ab81b</title>
<path fill="none" stroke="#000000" d="M51.7477,-215.8314C51.6407,-208.131 51.5135,-198.9743 51.3947,-190.4166"/>
<polygon fill="#000000" stroke="#000000" points="54.8944,-190.3637 51.2557,-180.4133 47.8951,-190.4609 54.8944,-190.3637"/>
<g id="a_edge15&#45;headlabel"><a xlink:href="dir_000002_000003.html" target="_top" xlink:title="2">
<text text-anchor="middle" x="57.7832" y="-191.4185" font-family="Helvetica,sans-Serif" font-size="10.00" fill="#000000">2</text>
</a>
</g>
</g>
<!-- dir_4a51acf3aba5d033160ca6d10fa9e016 -->
<g id="node3" class="node">
<title>dir_4a51acf3aba5d033160ca6d10fa9e016</title>
<g id="a_node3"><a xlink:href="dir_4a51acf3aba5d033160ca6d10fa9e016.html" target="_top" xlink:title="float">
<polygon fill="#ffffff" stroke="#ff0000" points="209,-331 155,-331 155,-295 209,-295 209,-331"/>
<text text-anchor="middle" x="182" y="-310.5" font-family="Helvetica,sans-Serif" font-size="10.00" fill="#000000">float</text>
</a>
</g>
</g>
<!-- dir_379443b8b8cb271fd845aff3bf8bc42c&#45;&gt;dir_4a51acf3aba5d033160ca6d10fa9e016 -->
<g id="edge14" class="edge">
<title>dir_379443b8b8cb271fd845aff3bf8bc42c&#45;&gt;dir_4a51acf3aba5d033160ca6d10fa9e016</title>
<path fill="none" stroke="#000000" d="M76.1874,-252.2172C95.831,-264.9281 123.6394,-281.8311 145.8871,-294.5851"/>
<polygon fill="#000000" stroke="#000000" points="144.3049,-297.7114 154.7303,-299.5987 147.7573,-291.622 144.3049,-297.7114"/>
<g id="a_edge14&#45;headlabel"><a xlink:href="dir_000002_000006.html" target="_top" xlink:title="1">
<text text-anchor="middle" x="139.7776" y="-295.9085" font-family="Helvetica,sans-Serif" font-size="10.00" fill="#000000">1</text>
</a>
</g>
</g>
<!-- dir_c7b1237ec9c7dbde6269980f65a72a17 -->
<g id="node4" class="node">
<title>dir_c7b1237ec9c7dbde6269980f65a72a17</title>
<g id="a_node4"><a xlink:href="dir_c7b1237ec9c7dbde6269980f65a72a17.html" target="_top" xlink:title="object">
<polygon fill="#ffffff" stroke="#ff0000" points="237,-36 183,-36 183,0 237,0 237,-36"/>
<text text-anchor="middle" x="210" y="-15.5" font-family="Helvetica,sans-Serif" font-size="10.00" fill="#000000">object</text>
</a>
</g>
</g>
<!-- dir_379443b8b8cb271fd845aff3bf8bc42c&#45;&gt;dir_c7b1237ec9c7dbde6269980f65a72a17 -->
<g id="edge16" class="edge">
<title>dir_379443b8b8cb271fd845aff3bf8bc42c&#45;&gt;dir_c7b1237ec9c7dbde6269980f65a72a17</title>
<path fill="none" stroke="#000000" d="M64.4016,-215.7613C71.2896,-205.4142 79.8795,-192.143 87,-180 114.4541,-133.1807 109.6472,-114.0198 144,-72 152.886,-61.1309 164.2448,-50.9046 175.0253,-42.3363"/>
<polygon fill="#000000" stroke="#000000" points="177.3112,-44.9937 183.1059,-36.124 173.0447,-39.4442 177.3112,-44.9937"/>
<g id="a_edge16&#45;headlabel"><a xlink:href="dir_000002_000013.html" target="_top" xlink:title="3">
<text text-anchor="middle" x="176.1919" y="-46.9355" font-family="Helvetica,sans-Serif" font-size="10.00" fill="#000000">3</text>
</a>
</g>
</g>
<!-- dir_906deb6750cc87f04b8c4fee7d95dfee -->
<g id="node5" class="node">
<title>dir_906deb6750cc87f04b8c4fee7d95dfee</title>
<g id="a_node5"><a xlink:href="dir_906deb6750cc87f04b8c4fee7d95dfee.html" target="_top" xlink:title="integer">
<polygon fill="#ffffff" stroke="#ff0000" points="209,-252 155,-252 155,-216 209,-216 209,-252"/>
<text text-anchor="middle" x="182" y="-231.5" font-family="Helvetica,sans-Serif" font-size="10.00" fill="#000000">integer</text>
</a>
</g>
</g>
<!-- dir_379443b8b8cb271fd845aff3bf8bc42c&#45;&gt;dir_906deb6750cc87f04b8c4fee7d95dfee -->
<g id="edge17" class="edge">
<title>dir_379443b8b8cb271fd845aff3bf8bc42c&#45;&gt;dir_906deb6750cc87f04b8c4fee7d95dfee</title>
<path fill="none" stroke="#000000" d="M80.1836,-234C101.6998,-234 123.2161,-234 144.7324,-234"/>
<polygon fill="#000000" stroke="#000000" points="144.9551,-237.5001 154.955,-234 144.955,-230.5001 144.9551,-237.5001"/>
<g id="a_edge17&#45;headlabel"><a xlink:href="dir_000002_000011.html" target="_top" xlink:title="2">
<text text-anchor="middle" x="141.3604" y="-237.8393" font-family="Helvetica,sans-Serif" font-size="10.00" fill="#000000">2</text>
</a>
</g>
</g>
<!-- dir_54f5d1d9f0fa6067393036cb4af8fee6 -->
<g id="node6" class="node">
<title>dir_54f5d1d9f0fa6067393036cb4af8fee6</title>
<g id="a_node6"><a xlink:href="dir_54f5d1d9f0fa6067393036cb4af8fee6.html" target="_top" xlink:title="memory">
<polygon fill="#ffffff" stroke="#ff0000" points="211,-108 153,-108 153,-72 211,-72 211,-108"/>
<text text-anchor="middle" x="182" y="-87.5" font-family="Helvetica,sans-Serif" font-size="10.00" fill="#000000">memory</text>
</a>
</g>
</g>
<!-- dir_379443b8b8cb271fd845aff3bf8bc42c&#45;&gt;dir_54f5d1d9f0fa6067393036cb4af8fee6 -->
<g id="edge18" class="edge">
<title>dir_379443b8b8cb271fd845aff3bf8bc42c&#45;&gt;dir_54f5d1d9f0fa6067393036cb4af8fee6</title>
<path fill="none" stroke="#000000" d="M78.3971,-215.9072C91.6745,-206.1215 107.547,-193.3288 120,-180 138.1446,-160.5793 154.9957,-135.4653 166.5362,-116.7032"/>
<polygon fill="#000000" stroke="#000000" points="169.5848,-118.4254 171.7573,-108.0557 163.5923,-114.8073 169.5848,-118.4254"/>
<g id="a_edge18&#45;headlabel"><a xlink:href="dir_000002_000026.html" target="_top" xlink:title="1">
<text text-anchor="middle" x="170.1575" y="-120.4702" font-family="Helvetica,sans-Serif" font-size="10.00" fill="#000000">1</text>
</a>
</g>
</g>
<!-- dir_93d5db073433f9f4a7137df106b01e03 -->
<g id="node7" class="node">
<title>dir_93d5db073433f9f4a7137df106b01e03</title>
<g id="a_node7"><a xlink:href="dir_93d5db073433f9f4a7137df106b01e03.html" target="_top" xlink:title="string">
<polygon fill="#ffffff" stroke="#ff0000" points="264,-180 210,-180 210,-144 264,-144 264,-180"/>
<text text-anchor="middle" x="237" y="-159.5" font-family="Helvetica,sans-Serif" font-size="10.00" fill="#000000">string</text>
</a>
</g>
</g>
<!-- dir_379443b8b8cb271fd845aff3bf8bc42c&#45;&gt;dir_93d5db073433f9f4a7137df106b01e03 -->
<g id="edge19" class="edge">
<title>dir_379443b8b8cb271fd845aff3bf8bc42c&#45;&gt;dir_93d5db073433f9f4a7137df106b01e03</title>
<path fill="none" stroke="#000000" d="M80.0975,-223.0647C112.2506,-210.5511 165.0137,-190.0163 200.3672,-176.2571"/>
<polygon fill="#000000" stroke="#000000" points="201.7958,-179.4569 209.8455,-172.5683 199.2569,-172.9335 201.7958,-179.4569"/>
<g id="a_edge19&#45;headlabel"><a xlink:href="dir_000002_000017.html" target="_top" xlink:title="1">
<text text-anchor="middle" x="199.4757" y="-180.9065" font-family="Helvetica,sans-Serif" font-size="10.00" fill="#000000">1</text>
</a>
</g>
</g>
<!-- dir_f79b37fc1909041c0e12ad544c2ab81b&#45;&gt;dir_c7b1237ec9c7dbde6269980f65a72a17 -->
<g id="edge7" class="edge">
<title>dir_f79b37fc1909041c0e12ad544c2ab81b&#45;&gt;dir_c7b1237ec9c7dbde6269980f65a72a17</title>
<path fill="none" stroke="#000000" d="M55.1728,-143.9296C60.602,-124.0254 71.8632,-92.1713 92,-72 114.3422,-49.6194 147.6594,-35.5471 173.1992,-27.4006"/>
<polygon fill="#000000" stroke="#000000" points="174.3552,-30.7076 182.9149,-24.4641 172.33,-24.007 174.3552,-30.7076"/>
<g id="a_edge7&#45;headlabel"><a xlink:href="dir_000003_000013.html" target="_top" xlink:title="1">
<text text-anchor="middle" x="171.7358" y="-31.9654" font-family="Helvetica,sans-Serif" font-size="10.00" fill="#000000">1</text>
</a>
</g>
</g>
<!-- dir_4a51acf3aba5d033160ca6d10fa9e016&#45;&gt;dir_379443b8b8cb271fd845aff3bf8bc42c -->
<g id="edge4" class="edge">
<title>dir_4a51acf3aba5d033160ca6d10fa9e016&#45;&gt;dir_379443b8b8cb271fd845aff3bf8bc42c</title>
<path fill="none" stroke="#000000" d="M157.9563,-294.8758C138.5359,-282.304 111.0697,-265.5983 88.902,-252.8677"/>
<polygon fill="#000000" stroke="#000000" points="90.4997,-249.75 80.076,-247.8533 87.0418,-255.8363 90.4997,-249.75"/>
<g id="a_edge4&#45;headlabel"><a xlink:href="dir_000006_000002.html" target="_top" xlink:title="1">
<text text-anchor="middle" x="95.0276" y="-246.5569" font-family="Helvetica,sans-Serif" font-size="10.00" fill="#000000">1</text>
</a>
</g>
</g>
<!-- dir_4a51acf3aba5d033160ca6d10fa9e016&#45;&gt;dir_f79b37fc1909041c0e12ad544c2ab81b -->
<g id="edge1" class="edge">
<title>dir_4a51acf3aba5d033160ca6d10fa9e016&#45;&gt;dir_f79b37fc1909041c0e12ad544c2ab81b</title>
<path fill="none" stroke="#000000" d="M154.8096,-310.6884C109.8297,-306.5868 23.9703,-297.4749 15,-287 -8.8587,-259.1393 12.0488,-216.3141 30.5219,-188.7282"/>
<polygon fill="#000000" stroke="#000000" points="33.5196,-190.5486 36.3743,-180.3456 27.78,-186.5414 33.5196,-190.5486"/>
<g id="a_edge1&#45;headlabel"><a xlink:href="dir_000006_000003.html" target="_top" xlink:title="1">
<text text-anchor="middle" x="33.7899" y="-192.6213" font-family="Helvetica,sans-Serif" font-size="10.00" fill="#000000">1</text>
</a>
</g>
</g>
<!-- dir_4a51acf3aba5d033160ca6d10fa9e016&#45;&gt;dir_c7b1237ec9c7dbde6269980f65a72a17 -->
<g id="edge2" class="edge">
<title>dir_4a51acf3aba5d033160ca6d10fa9e016&#45;&gt;dir_c7b1237ec9c7dbde6269980f65a72a17</title>
<path fill="none" stroke="#000000" d="M209.4058,-308.9295C234.4166,-304.6411 268.8375,-297.1057 278,-287 310.3914,-251.2742 291.9861,-228.0564 296,-180 300.0504,-131.5068 305.6902,-112.0157 278,-72 269.4405,-59.6305 257.2229,-48.6998 245.4991,-39.9655"/>
<polygon fill="#000000" stroke="#000000" points="247.2882,-36.9432 237.1091,-34.0046 243.2339,-42.6496 247.2882,-36.9432"/>
<g id="a_edge2&#45;headlabel"><a xlink:href="dir_000006_000013.html" target="_top" xlink:title="5">
<text text-anchor="middle" x="251.863" y="-34.2105" font-family="Helvetica,sans-Serif" font-size="10.00" fill="#000000">5</text>
</a>
</g>
</g>
<!-- dir_4a51acf3aba5d033160ca6d10fa9e016&#45;&gt;dir_906deb6750cc87f04b8c4fee7d95dfee -->
<g id="edge3" class="edge">
<title>dir_4a51acf3aba5d033160ca6d10fa9e016&#45;&gt;dir_906deb6750cc87f04b8c4fee7d95dfee</title>
<path fill="none" stroke="#000000" d="M176.1992,-294.6772C175.2475,-285.1053 175.0115,-273.1777 175.491,-262.4371"/>
<polygon fill="#000000" stroke="#000000" points="178.9991,-262.4443 176.2091,-252.2234 172.0163,-261.9533 178.9991,-262.4443"/>
<g id="a_edge3&#45;headlabel"><a xlink:href="dir_000006_000011.html" target="_top" xlink:title="3">
<text text-anchor="middle" x="181.5793" y="-263.7291" font-family="Helvetica,sans-Serif" font-size="10.00" fill="#000000">3</text>
</a>
</g>
</g>
<!-- dir_4a51acf3aba5d033160ca6d10fa9e016&#45;&gt;dir_54f5d1d9f0fa6067393036cb4af8fee6 -->
<g id="edge5" class="edge">
<title>dir_4a51acf3aba5d033160ca6d10fa9e016&#45;&gt;dir_54f5d1d9f0fa6067393036cb4af8fee6</title>
<path fill="none" stroke="#000000" d="M209.1274,-306.4969C220.3737,-302.5505 232.7037,-296.399 241,-287 288.7019,-232.9576 312.9614,-187.9928 273,-128 261.4147,-110.6073 240.1889,-101.1614 221.1498,-96.0383"/>
<polygon fill="#000000" stroke="#000000" points="221.7025,-92.5724 211.1651,-93.6739 220.0894,-99.3841 221.7025,-92.5724"/>
<g id="a_edge5&#45;headlabel"><a xlink:href="dir_000006_000026.html" target="_top" xlink:title="2">
<text text-anchor="middle" x="225.8546" y="-88.1378" font-family="Helvetica,sans-Serif" font-size="10.00" fill="#000000">2</text>
</a>
</g>
</g>
<!-- dir_4a51acf3aba5d033160ca6d10fa9e016&#45;&gt;dir_93d5db073433f9f4a7137df106b01e03 -->
<g id="edge6" class="edge">
<title>dir_4a51acf3aba5d033160ca6d10fa9e016&#45;&gt;dir_93d5db073433f9f4a7137df106b01e03</title>
<path fill="none" stroke="#000000" d="M209.1124,-297.2484C212.548,-294.2384 215.6701,-290.8166 218,-287 235.9937,-257.5245 239.0471,-217.0686 238.7277,-190.2602"/>
<polygon fill="#000000" stroke="#000000" points="242.2193,-189.9165 238.4338,-180.0211 235.2222,-190.1174 242.2193,-189.9165"/>
<g id="a_edge6&#45;headlabel"><a xlink:href="dir_000006_000017.html" target="_top" xlink:title="2">
<text text-anchor="middle" x="245.1605" y="-190.9282" font-family="Helvetica,sans-Serif" font-size="10.00" fill="#000000">2</text>
</a>
</g>
</g>
<!-- dir_906deb6750cc87f04b8c4fee7d95dfee&#45;&gt;dir_379443b8b8cb271fd845aff3bf8bc42c -->
<g id="edge11" class="edge">
<title>dir_906deb6750cc87f04b8c4fee7d95dfee&#45;&gt;dir_379443b8b8cb271fd845aff3bf8bc42c</title>
<path fill="none" stroke="#000000" d="M154.955,-234C133.4388,-234 111.9225,-234 90.4062,-234"/>
<polygon fill="#000000" stroke="#000000" points="90.1836,-230.5001 80.1836,-234 90.1836,-237.5001 90.1836,-230.5001"/>
<g id="a_edge11&#45;headlabel"><a xlink:href="dir_000011_000002.html" target="_top" xlink:title="1">
<text text-anchor="middle" x="93.7782" y="-225.1607" font-family="Helvetica,sans-Serif" font-size="10.00" fill="#000000">1</text>
</a>
</g>
</g>
<!-- dir_906deb6750cc87f04b8c4fee7d95dfee&#45;&gt;dir_f79b37fc1909041c0e12ad544c2ab81b -->
<g id="edge9" class="edge">
<title>dir_906deb6750cc87f04b8c4fee7d95dfee&#45;&gt;dir_f79b37fc1909041c0e12ad544c2ab81b</title>
<path fill="none" stroke="#000000" d="M154.8567,-219.0816C135.1842,-208.2692 108.3843,-193.5395 86.9364,-181.7513"/>
<polygon fill="#000000" stroke="#000000" points="88.5579,-178.6488 78.1085,-176.8993 85.1863,-184.7833 88.5579,-178.6488"/>
<g id="a_edge9&#45;headlabel"><a xlink:href="dir_000011_000003.html" target="_top" xlink:title="1">
<text text-anchor="middle" x="93.0756" y="-175.3919" font-family="Helvetica,sans-Serif" font-size="10.00" fill="#000000">1</text>
</a>
</g>
</g>
<!-- dir_906deb6750cc87f04b8c4fee7d95dfee&#45;&gt;dir_4a51acf3aba5d033160ca6d10fa9e016 -->
<g id="edge8" class="edge">
<title>dir_906deb6750cc87f04b8c4fee7d95dfee&#45;&gt;dir_4a51acf3aba5d033160ca6d10fa9e016</title>
<path fill="none" stroke="#000000" d="M187.7909,-252.2234C188.7475,-261.779 188.9885,-273.7025 188.5139,-284.4513"/>
<polygon fill="#000000" stroke="#000000" points="185.0051,-284.4579 187.8008,-294.6772 191.9881,-284.945 185.0051,-284.4579"/>
<g id="a_edge8&#45;headlabel"><a xlink:href="dir_000011_000006.html" target="_top" xlink:title="2">
<text text-anchor="middle" x="182.4226" y="-278.1745" font-family="Helvetica,sans-Serif" font-size="10.00" fill="#000000">2</text>
</a>
</g>
</g>
<!-- dir_906deb6750cc87f04b8c4fee7d95dfee&#45;&gt;dir_c7b1237ec9c7dbde6269980f65a72a17 -->
<g id="edge10" class="edge">
<title>dir_906deb6750cc87f04b8c4fee7d95dfee&#45;&gt;dir_c7b1237ec9c7dbde6269980f65a72a17</title>
<path fill="none" stroke="#000000" d="M209.3047,-226.0514C230.8506,-218.1773 259.4557,-203.7867 273,-180 298.7412,-134.7928 261.2456,-77.0088 234.0078,-44.0865"/>
<polygon fill="#000000" stroke="#000000" points="236.4996,-41.6144 227.3486,-36.2749 231.1725,-46.1556 236.4996,-41.6144"/>
<g id="a_edge10&#45;headlabel"><a xlink:href="dir_000011_000013.html" target="_top" xlink:title="4">
<text text-anchor="middle" x="240.9922" y="-40.008" font-family="Helvetica,sans-Serif" font-size="10.00" fill="#000000">4</text>
</a>
</g>
</g>
<!-- dir_906deb6750cc87f04b8c4fee7d95dfee&#45;&gt;dir_54f5d1d9f0fa6067393036cb4af8fee6 -->
<g id="edge12" class="edge">
<title>dir_906deb6750cc87f04b8c4fee7d95dfee&#45;&gt;dir_54f5d1d9f0fa6067393036cb4af8fee6</title>
<path fill="none" stroke="#000000" d="M182,-215.7623C182,-191.201 182,-147.2474 182,-118.3541"/>
<polygon fill="#000000" stroke="#000000" points="185.5001,-118.0896 182,-108.0896 178.5001,-118.0897 185.5001,-118.0896"/>
<g id="a_edge12&#45;headlabel"><a xlink:href="dir_000011_000026.html" target="_top" xlink:title="1">
<text text-anchor="middle" x="188.3393" y="-119.1842" font-family="Helvetica,sans-Serif" font-size="10.00" fill="#000000">1</text>
</a>
</g>
</g>
<!-- dir_906deb6750cc87f04b8c4fee7d95dfee&#45;&gt;dir_93d5db073433f9f4a7137df106b01e03 -->
<g id="edge13" class="edge">
<title>dir_906deb6750cc87f04b8c4fee7d95dfee&#45;&gt;dir_93d5db073433f9f4a7137df106b01e03</title>
<path fill="none" stroke="#000000" d="M195.8788,-215.8314C202.2136,-207.5386 209.8384,-197.557 216.7926,-188.4533"/>
<polygon fill="#000000" stroke="#000000" points="219.6452,-190.4847 222.9343,-180.4133 214.0825,-186.2353 219.6452,-190.4847"/>
<g id="a_edge13&#45;headlabel"><a xlink:href="dir_000011_000017.html" target="_top" xlink:title="1">
<text text-anchor="middle" x="219.7195" y="-192.5647" font-family="Helvetica,sans-Serif" font-size="10.00" fill="#000000">1</text>
</a>
</g>
</g>
<!-- dir_54f5d1d9f0fa6067393036cb4af8fee6&#45;&gt;dir_c7b1237ec9c7dbde6269980f65a72a17 -->
<g id="edge20" class="edge">
<title>dir_54f5d1d9f0fa6067393036cb4af8fee6&#45;&gt;dir_c7b1237ec9c7dbde6269980f65a72a17</title>
<path fill="none" stroke="#000000" d="M189.0656,-71.8314C192.126,-63.9617 195.7779,-54.5712 199.1682,-45.8533"/>
<polygon fill="#000000" stroke="#000000" points="202.4768,-47.0019 202.8393,-36.4133 195.9527,-44.4647 202.4768,-47.0019"/>
<g id="a_edge20&#45;headlabel"><a xlink:href="dir_000026_000013.html" target="_top" xlink:title="1">
<text text-anchor="middle" x="203.8202" y="-48.8812" font-family="Helvetica,sans-Serif" font-size="10.00" fill="#000000">1</text>
</a>
</g>
</g>
<!-- dir_93d5db073433f9f4a7137df106b01e03&#45;&gt;dir_c7b1237ec9c7dbde6269980f65a72a17 -->
<g id="edge21" class="edge">
<title>dir_93d5db073433f9f4a7137df106b01e03&#45;&gt;dir_c7b1237ec9c7dbde6269980f65a72a17</title>
<path fill="none" stroke="#000000" d="M233.5804,-143.7623C228.9549,-119.0928 220.6612,-74.8598 215.245,-45.9731"/>
<polygon fill="#000000" stroke="#000000" points="218.6748,-45.2733 213.3918,-36.0896 211.7947,-46.5634 218.6748,-45.2733"/>
<g id="a_edge21&#45;headlabel"><a xlink:href="dir_000017_000013.html" target="_top" xlink:title="2">
<text text-anchor="middle" x="222.1278" y="-45.7831" font-family="Helvetica,sans-Serif" font-size="10.00" fill="#000000">2</text>
</a>
</g>
</g>
<!-- dir_93d5db073433f9f4a7137df106b01e03&#45;&gt;dir_54f5d1d9f0fa6067393036cb4af8fee6 -->
<g id="edge22" class="edge">
<title>dir_93d5db073433f9f4a7137df106b01e03&#45;&gt;dir_54f5d1d9f0fa6067393036cb4af8fee6</title>
<path fill="none" stroke="#000000" d="M223.1212,-143.8314C216.7864,-135.5386 209.1616,-125.557 202.2074,-116.4533"/>
<polygon fill="#000000" stroke="#000000" points="204.9175,-114.2353 196.0657,-108.4133 199.3548,-118.4847 204.9175,-114.2353"/>
<g id="a_edge22&#45;headlabel"><a xlink:href="dir_000017_000026.html" target="_top" xlink:title="1">
<text text-anchor="middle" x="209.3558" y="-112.8683" font-family="Helvetica,sans-Serif" font-size="10.00" fill="#000000">1</text>
</a>
</g>
</g>
</g>
</svg>
