<?xml version="1.0" encoding="UTF-8" standalone="no"?>
<!DOCTYPE svg PUBLIC "-//W3C//DTD SVG 1.1//EN"
 "http://www.w3.org/Graphics/SVG/1.1/DTD/svg11.dtd">
<!-- Generated by graphviz version 2.40.1 (20161225.0304)
 -->
<!-- Title: main/builtins/code Pages: 1 -->
<svg width="306pt" height="303pt"
 viewBox="0.00 0.00 306.00 303.00" xmlns="http://www.w3.org/2000/svg" xmlns:xlink="http://www.w3.org/1999/xlink">
<g id="graph0" class="graph" transform="scale(1 1) rotate(0) translate(4 299)">
<title>main/builtins/code</title>
<polygon fill="#ffffff" stroke="transparent" points="-4,4 -4,-299 302,-299 302,4 -4,4"/>
<g id="clust1" class="cluster">
<title>clusterdir_f9352377262e2d6c535a8e1ae042e5ec</title>
<g id="a_clust1"><a xlink:href="dir_f9352377262e2d6c535a8e1ae042e5ec.html" target="_top" xlink:title="builtins">
<polygon fill="#ddddee" stroke="#000000" points="8,-128 8,-287 94,-287 94,-128 8,-128"/>
<text text-anchor="middle" x="51" y="-275" font-family="Helvetica,sans-Serif" font-size="10.00" fill="#000000">builtins</text>
</a>
</g>
</g>
<g id="clust2" class="cluster">
<title>clusterdir_0e6deee2d71ae3036fad5fb07cb5e369</title>
<g id="a_clust2"><a xlink:href="dir_0e6deee2d71ae3036fad5fb07cb5e369.html" target="_top">
<polygon fill="#eeeeff" stroke="#000000" points="16,-136 16,-260 86,-260 86,-136 16,-136"/>
</a>
</g>
</g>
<!-- dir_0e6deee2d71ae3036fad5fb07cb5e369 -->
<g id="node1" class="node">
<title>dir_0e6deee2d71ae3036fad5fb07cb5e369</title>
<text text-anchor="middle" x="51" y="-231.5" font-family="Helvetica,sans-Serif" font-size="10.00" fill="#000000">code</text>
</g>
<!-- dir_0c8cbf5fdfa38b114ca196e8c8efbaa2 -->
<g id="node2" class="node">
<title>dir_0c8cbf5fdfa38b114ca196e8c8efbaa2</title>
<g id="a_node2"><a xlink:href="dir_0c8cbf5fdfa38b114ca196e8c8efbaa2.html" target="_top" xlink:title="include">
<polygon fill="#ffffff" stroke="#000000" points="78,-180 24,-180 24,-144 78,-144 78,-180"/>
<text text-anchor="middle" x="51" y="-159.5" font-family="Helvetica,sans-Serif" font-size="10.00" fill="#000000">include</text>
</a>
</g>
</g>
<!-- dir_0e6deee2d71ae3036fad5fb07cb5e369&#45;&gt;dir_0c8cbf5fdfa38b114ca196e8c8efbaa2 -->
<g id="edge2" class="edge">
<title>dir_0e6deee2d71ae3036fad5fb07cb5e369&#45;&gt;dir_0c8cbf5fdfa38b114ca196e8c8efbaa2</title>
<path fill="none" stroke="#000000" d="M51,-215.8314C51,-208.131 51,-198.9743 51,-190.4166"/>
<polygon fill="#000000" stroke="#000000" points="54.5001,-190.4132 51,-180.4133 47.5001,-190.4133 54.5001,-190.4132"/>
<g id="a_edge2&#45;headlabel"><a xlink:href="dir_000004_000005.html" target="_top" xlink:title="2">
<text text-anchor="middle" x="57.3393" y="-191.5079" font-family="Helvetica,sans-Serif" font-size="10.00" fill="#000000">2</text>
</a>
</g>
</g>
<!-- dir_c7b1237ec9c7dbde6269980f65a72a17 -->
<g id="node3" class="node">
<title>dir_c7b1237ec9c7dbde6269980f65a72a17</title>
<g id="a_node3"><a xlink:href="dir_c7b1237ec9c7dbde6269980f65a72a17.html" target="_top" xlink:title="object">
<polygon fill="#ffffff" stroke="#ff0000" points="187,-36 133,-36 133,0 187,0 187,-36"/>
<text text-anchor="middle" x="160" y="-15.5" font-family="Helvetica,sans-Serif" font-size="10.00" fill="#000000">object</text>
</a>
</g>
</g>
<!-- dir_0e6deee2d71ae3036fad5fb07cb5e369&#45;&gt;dir_c7b1237ec9c7dbde6269980f65a72a17 -->
<g id="edge3" class="edge">
<title>dir_0e6deee2d71ae3036fad5fb07cb5e369&#45;&gt;dir_c7b1237ec9c7dbde6269980f65a72a17</title>
<path fill="none" stroke="#000000" d="M64.1016,-215.9756C71.2945,-205.6955 80.1229,-192.42 87,-180 112.1887,-134.5089 135.8559,-78.6892 149.0846,-45.8654"/>
<polygon fill="#000000" stroke="#000000" points="152.3848,-47.0387 152.8451,-36.4539 145.8845,-44.4414 152.3848,-47.0387"/>
<g id="a_edge3&#45;headlabel"><a xlink:href="dir_000004_000013.html" target="_top" xlink:title="3">
<text text-anchor="middle" x="153.6877" y="-48.9302" font-family="Helvetica,sans-Serif" font-size="10.00" fill="#000000">3</text>
</a>
</g>
</g>
<!-- dir_0001ea4fffb871e6e0daf06fe0eef6de -->
<g id="node4" class="node">
<title>dir_0001ea4fffb871e6e0daf06fe0eef6de</title>
<g id="a_node4"><a xlink:href="dir_0001ea4fffb871e6e0daf06fe0eef6de.html" target="_top" xlink:title="parser">
<polygon fill="#ffffff" stroke="#ff0000" points="188,-180 134,-180 134,-144 188,-144 188,-180"/>
<text text-anchor="middle" x="161" y="-159.5" font-family="Helvetica,sans-Serif" font-size="10.00" fill="#000000">parser</text>
</a>
</g>
</g>
<!-- dir_0e6deee2d71ae3036fad5fb07cb5e369&#45;&gt;dir_0001ea4fffb871e6e0daf06fe0eef6de -->
<g id="edge4" class="edge">
<title>dir_0e6deee2d71ae3036fad5fb07cb5e369&#45;&gt;dir_0001ea4fffb871e6e0daf06fe0eef6de</title>
<path fill="none" stroke="#000000" d="M78.191,-216.2022C92.3378,-206.9425 109.8157,-195.5025 125.063,-185.5224"/>
<polygon fill="#000000" stroke="#000000" points="127.2903,-188.2476 133.7406,-179.8425 123.4567,-182.3907 127.2903,-188.2476"/>
<g id="a_edge4&#45;headlabel"><a xlink:href="dir_000004_000028.html" target="_top" xlink:title="2">
<text text-anchor="middle" x="125.8377" y="-190.0918" font-family="Helvetica,sans-Serif" font-size="10.00" fill="#000000">2</text>
</a>
</g>
</g>
<!-- dir_54f5d1d9f0fa6067393036cb4af8fee6 -->
<g id="node5" class="node">
<title>dir_54f5d1d9f0fa6067393036cb4af8fee6</title>
<g id="a_node5"><a xlink:href="dir_54f5d1d9f0fa6067393036cb4af8fee6.html" target="_top" xlink:title="memory">
<polygon fill="#ffffff" stroke="#ff0000" points="243,-108 185,-108 185,-72 243,-72 243,-108"/>
<text text-anchor="middle" x="214" y="-87.5" font-family="Helvetica,sans-Serif" font-size="10.00" fill="#000000">memory</text>
</a>
</g>
</g>
<!-- dir_0e6deee2d71ae3036fad5fb07cb5e369&#45;&gt;dir_54f5d1d9f0fa6067393036cb4af8fee6 -->
<g id="edge5" class="edge">
<title>dir_0e6deee2d71ae3036fad5fb07cb5e369&#45;&gt;dir_54f5d1d9f0fa6067393036cb4af8fee6</title>
<path fill="none" stroke="#000000" d="M78.1511,-231.8414C111.4038,-227.6762 166.9971,-215.5043 197,-180 211.3753,-162.9888 215.1094,-137.6514 215.5432,-118.1907"/>
<polygon fill="#000000" stroke="#000000" points="219.0426,-118.0559 215.4912,-108.074 212.0427,-118.0919 219.0426,-118.0559"/>
<g id="a_edge5&#45;headlabel"><a xlink:href="dir_000004_000026.html" target="_top" xlink:title="2">
<text text-anchor="middle" x="221.9002" y="-119.1359" font-family="Helvetica,sans-Serif" font-size="10.00" fill="#000000">2</text>
</a>
</g>
</g>
<!-- dir_93d5db073433f9f4a7137df106b01e03 -->
<g id="node6" class="node">
<title>dir_93d5db073433f9f4a7137df106b01e03</title>
<g id="a_node6"><a xlink:href="dir_93d5db073433f9f4a7137df106b01e03.html" target="_top" xlink:title="string">
<polygon fill="#ffffff" stroke="#ff0000" points="298,-180 244,-180 244,-144 298,-144 298,-180"/>
<text text-anchor="middle" x="271" y="-159.5" font-family="Helvetica,sans-Serif" font-size="10.00" fill="#000000">string</text>
</a>
</g>
</g>
<!-- dir_0e6deee2d71ae3036fad5fb07cb5e369&#45;&gt;dir_93d5db073433f9f4a7137df106b01e03 -->
<g id="edge6" class="edge">
<title>dir_0e6deee2d71ae3036fad5fb07cb5e369&#45;&gt;dir_93d5db073433f9f4a7137df106b01e03</title>
<path fill="none" stroke="#000000" d="M78.0204,-226.9438C113.3593,-217.467 177.0093,-199.544 230,-180 231.4131,-179.4788 232.8472,-178.9334 234.291,-178.3704"/>
<polygon fill="#000000" stroke="#000000" points="235.9059,-181.4916 243.8404,-174.4707 233.2593,-175.0112 235.9059,-181.4916"/>
<g id="a_edge6&#45;headlabel"><a xlink:href="dir_000004_000017.html" target="_top" xlink:title="2">
<text text-anchor="middle" x="233.6515" y="-182.9791" font-family="Helvetica,sans-Serif" font-size="10.00" fill="#000000">2</text>
</a>
</g>
</g>
<!-- dir_0c8cbf5fdfa38b114ca196e8c8efbaa2&#45;&gt;dir_c7b1237ec9c7dbde6269980f65a72a17 -->
<g id="edge1" class="edge">
<title>dir_0c8cbf5fdfa38b114ca196e8c8efbaa2&#45;&gt;dir_c7b1237ec9c7dbde6269980f65a72a17</title>
<path fill="none" stroke="#000000" d="M56.4765,-143.7264C62.8538,-124.5065 74.7621,-94.0483 92,-72 101.1154,-60.3408 113.2397,-49.6826 124.7246,-40.9722"/>
<polygon fill="#000000" stroke="#000000" points="126.9093,-43.7108 132.9222,-34.9876 122.7818,-38.0571 126.9093,-43.7108"/>
<g id="a_edge1&#45;headlabel"><a xlink:href="dir_000005_000013.html" target="_top" xlink:title="1">
<text text-anchor="middle" x="125.6802" y="-45.6235" font-family="Helvetica,sans-Serif" font-size="10.00" fill="#000000">1</text>
</a>
</g>
</g>
<!-- dir_54f5d1d9f0fa6067393036cb4af8fee6&#45;&gt;dir_c7b1237ec9c7dbde6269980f65a72a17 -->
<g id="edge7" class="edge">
<title>dir_54f5d1d9f0fa6067393036cb4af8fee6&#45;&gt;dir_c7b1237ec9c7dbde6269980f65a72a17</title>
<path fill="none" stroke="#000000" d="M200.3735,-71.8314C194.154,-63.5386 186.6678,-53.557 179.84,-44.4533"/>
<polygon fill="#000000" stroke="#000000" points="182.61,-42.3133 173.81,-36.4133 177.01,-46.5133 182.61,-42.3133"/>
<g id="a_edge7&#45;headlabel"><a xlink:href="dir_000026_000013.html" target="_top" xlink:title="1">
<text text-anchor="middle" x="187.0381" y="-40.9854" font-family="Helvetica,sans-Serif" font-size="10.00" fill="#000000">1</text>
</a>
</g>
</g>
<!-- dir_93d5db073433f9f4a7137df106b01e03&#45;&gt;dir_c7b1237ec9c7dbde6269980f65a72a17 -->
<g id="edge8" class="edge">
<title>dir_93d5db073433f9f4a7137df106b01e03&#45;&gt;dir_c7b1237ec9c7dbde6269980f65a72a17</title>
<path fill="none" stroke="#000000" d="M271.3314,-143.7186C270.7968,-124.2121 267.3032,-93.2537 252,-72 238.3912,-53.0996 215.9525,-39.7375 196.6427,-31.0334"/>
<polygon fill="#000000" stroke="#000000" points="197.7538,-27.7028 187.1812,-27.0164 195.0181,-34.1461 197.7538,-27.7028"/>
<g id="a_edge8&#45;headlabel"><a xlink:href="dir_000017_000013.html" target="_top" xlink:title="2">
<text text-anchor="middle" x="202.1721" y="-23.994" font-family="Helvetica,sans-Serif" font-size="10.00" fill="#000000">2</text>
</a>
</g>
</g>
<!-- dir_93d5db073433f9f4a7137df106b01e03&#45;&gt;dir_54f5d1d9f0fa6067393036cb4af8fee6 -->
<g id="edge9" class="edge">
<title>dir_93d5db073433f9f4a7137df106b01e03&#45;&gt;dir_54f5d1d9f0fa6067393036cb4af8fee6</title>
<path fill="none" stroke="#000000" d="M256.6165,-143.8314C250.0514,-135.5386 242.1493,-125.557 234.9422,-116.4533"/>
<polygon fill="#000000" stroke="#000000" points="237.5284,-114.0813 228.5772,-108.4133 232.0401,-118.4262 237.5284,-114.0813"/>
<g id="a_edge9&#45;headlabel"><a xlink:href="dir_000017_000026.html" target="_top" xlink:title="1">
<text text-anchor="middle" x="241.9857" y="-112.6373" font-family="Helvetica,sans-Serif" font-size="10.00" fill="#000000">1</text>
</a>
</g>
</g>
</g>
</svg>
