<?xml version="1.0" encoding="UTF-8" standalone="no"?>
<!DOCTYPE svg PUBLIC "-//W3C//DTD SVG 1.1//EN"
 "http://www.w3.org/Graphics/SVG/1.1/DTD/svg11.dtd">
<!-- Generated by graphviz version 2.40.1 (20161225.0304)
 -->
<!-- Title: parser Pages: 1 -->
<svg width="180pt" height="148pt"
 viewBox="0.00 0.00 180.00 148.00" xmlns="http://www.w3.org/2000/svg" xmlns:xlink="http://www.w3.org/1999/xlink">
<g id="graph0" class="graph" transform="scale(1 1) rotate(0) translate(4 144)">
<title>parser</title>
<polygon fill="#ffffff" stroke="transparent" points="-4,4 -4,-144 176,-144 176,4 -4,4"/>
<g id="clust1" class="cluster">
<title>clusterdir_572890c148f68441e050f6560d78312b</title>
<g id="a_clust1"><a xlink:href="dir_572890c148f68441e050f6560d78312b.html" target="_top">
<polygon fill="#eeeeff" stroke="#000000" points="8,-8 8,-132 164,-132 164,-8 8,-8"/>
</a>
</g>
</g>
<!-- dir_572890c148f68441e050f6560d78312b -->
<g id="node1" class="node">
<title>dir_572890c148f68441e050f6560d78312b</title>
<text text-anchor="middle" x="129" y="-103.5" font-family="Helvetica,sans-Serif" font-size="10.00" fill="#000000">parser</text>
</g>
<!-- dir_993b4b96b9d24e1e5416bf28e31c7e44 -->
<g id="node2" class="node">
<title>dir_993b4b96b9d24e1e5416bf28e31c7e44</title>
<g id="a_node2"><a xlink:href="dir_993b4b96b9d24e1e5416bf28e31c7e44.html" target="_top" xlink:title="include">
<polygon fill="#ffffff" stroke="#000000" points="116,-52 62,-52 62,-16 116,-16 116,-52"/>
<text text-anchor="middle" x="89" y="-31.5" font-family="Helvetica,sans-Serif" font-size="10.00" fill="#000000">include</text>
</a>
</g>
</g>
<!-- dir_572890c148f68441e050f6560d78312b&#45;&gt;dir_993b4b96b9d24e1e5416bf28e31c7e44 -->
<g id="edge1" class="edge">
<title>dir_572890c148f68441e050f6560d78312b&#45;&gt;dir_993b4b96b9d24e1e5416bf28e31c7e44</title>
<path fill="none" stroke="#000000" d="M118.9063,-87.8314C114.4403,-79.7925 109.0925,-70.1666 104.1621,-61.2918"/>
<polygon fill="#000000" stroke="#000000" points="107.1456,-59.4551 99.2296,-52.4133 101.0265,-62.8546 107.1456,-59.4551"/>
<g id="a_edge1&#45;headlabel"><a xlink:href="dir_000015_000016.html" target="_top" xlink:title="24">
<text text-anchor="middle" x="111.3732" y="-58.7185" font-family="Helvetica,sans-Serif" font-size="10.00" fill="#000000">24</text>
</a>
</g>
</g>
<!-- dir_aa5e47c4bffeeec7e25e41aaf2682e12 -->
<g id="node3" class="node">
<title>dir_aa5e47c4bffeeec7e25e41aaf2682e12</title>
<g id="a_node3"><a xlink:href="dir_aa5e47c4bffeeec7e25e41aaf2682e12.html" target="_top" xlink:title="parserfuncs">
<polygon fill="#ffffff" stroke="#000000" points="84,-124 16,-124 16,-88 84,-88 84,-124"/>
<text text-anchor="middle" x="50" y="-103.5" font-family="Helvetica,sans-Serif" font-size="10.00" fill="#000000">parserfuncs</text>
</a>
</g>
</g>
<!-- dir_aa5e47c4bffeeec7e25e41aaf2682e12&#45;&gt;dir_993b4b96b9d24e1e5416bf28e31c7e44 -->
<g id="edge2" class="edge">
<title>dir_aa5e47c4bffeeec7e25e41aaf2682e12&#45;&gt;dir_993b4b96b9d24e1e5416bf28e31c7e44</title>
<path fill="none" stroke="#000000" d="M59.8413,-87.8314C64.1957,-79.7925 69.4098,-70.1666 74.2169,-61.2918"/>
<polygon fill="#000000" stroke="#000000" points="77.3408,-62.8732 79.0261,-52.4133 71.1857,-59.5392 77.3408,-62.8732"/>
<g id="a_edge2&#45;headlabel"><a xlink:href="dir_000017_000016.html" target="_top" xlink:title="16">
<text text-anchor="middle" x="78.1253" y="-64.8862" font-family="Helvetica,sans-Serif" font-size="10.00" fill="#000000">16</text>
</a>
</g>
</g>
</g>
</svg>
