<?xml version="1.0" encoding="UTF-8" standalone="no"?>
<!DOCTYPE svg PUBLIC "-//W3C//DTD SVG 1.1//EN"
 "http://www.w3.org/Graphics/SVG/1.1/DTD/svg11.dtd">
<!-- Generated by graphviz version 2.40.1 (20161225.0304)
 -->
<!-- Title: main/builtins/hashmap Pages: 1 -->
<svg width="192pt" height="195pt"
 viewBox="0.00 0.00 191.63 195.00" xmlns="http://www.w3.org/2000/svg" xmlns:xlink="http://www.w3.org/1999/xlink">
<g id="graph0" class="graph" transform="scale(1 1) rotate(0) translate(4 191)">
<title>main/builtins/hashmap</title>
<polygon fill="#ffffff" stroke="transparent" points="-4,4 -4,-191 187.6262,-191 187.6262,4 -4,4"/>
<g id="clust1" class="cluster">
<title>clusterdir_f9352377262e2d6c535a8e1ae042e5ec</title>
<g id="a_clust1"><a xlink:href="dir_f9352377262e2d6c535a8e1ae042e5ec.html" target="_top" xlink:title="builtins">
<polygon fill="#ddddee" stroke="#000000" points="8,-56 8,-143 174,-143 174,-56 8,-56"/>
<text text-anchor="middle" x="91" y="-131" font-family="Helvetica,sans-Serif" font-size="10.00" fill="#000000">builtins</text>
</a>
</g>
</g>
<g id="clust2" class="cluster">
<title>clusterdir_c96f7606e5bf3cbd0d5f6f6c4402ac1b</title>
<g id="a_clust2"><a xlink:href="dir_c96f7606e5bf3cbd0d5f6f6c4402ac1b.html" target="_top">
<polygon fill="#eeeeff" stroke="#000000" points="16,-64 16,-116 166,-116 166,-64 16,-64"/>
</a>
</g>
</g>
<!-- dir_c96f7606e5bf3cbd0d5f6f6c4402ac1b -->
<g id="node1" class="node">
<title>dir_c96f7606e5bf3cbd0d5f6f6c4402ac1b</title>
<text text-anchor="middle" x="127" y="-87.5" font-family="Helvetica,sans-Serif" font-size="10.00" fill="#000000">hashmap</text>
</g>
<!-- dir_14a43b5b2d34e992c84db911343042ff -->
<g id="node4" class="node">
<title>dir_14a43b5b2d34e992c84db911343042ff</title>
<g id="a_node4"><a xlink:href="dir_14a43b5b2d34e992c84db911343042ff.html" target="_top" xlink:title="include">
<polygon fill="none" stroke="#000000" points="154,-187 100,-187 100,-151 154,-151 154,-187"/>
<text text-anchor="middle" x="127" y="-166.5" font-family="Helvetica,sans-Serif" font-size="10.00" fill="#000000">include</text>
</a>
</g>
</g>
<!-- dir_c96f7606e5bf3cbd0d5f6f6c4402ac1b&#45;&gt;dir_14a43b5b2d34e992c84db911343042ff -->
<g id="edge1" class="edge">
<title>dir_c96f7606e5bf3cbd0d5f6f6c4402ac1b&#45;&gt;dir_14a43b5b2d34e992c84db911343042ff</title>
<path fill="none" stroke="#000000" d="M121.2091,-108.2234C120.2525,-117.779 120.0115,-129.7025 120.4861,-140.4513"/>
<polygon fill="#000000" stroke="#000000" points="117.0119,-140.945 121.1992,-150.6772 123.9949,-140.4579 117.0119,-140.945"/>
<g id="a_edge1&#45;headlabel"><a xlink:href="dir_000008_000010.html" target="_top" xlink:title="1">
<text text-anchor="middle" x="113.9295" y="-135.0566" font-family="Helvetica,sans-Serif" font-size="10.00" fill="#000000">1</text>
</a>
</g>
</g>
<!-- dir_5fce7155e847a9aadb5018797dbcfdaf -->
<g id="node2" class="node">
<title>dir_5fce7155e847a9aadb5018797dbcfdaf</title>
<g id="a_node2"><a xlink:href="dir_5fce7155e847a9aadb5018797dbcfdaf.html" target="_top" xlink:title="include">
<polygon fill="#ffffff" stroke="#000000" points="78,-108 24,-108 24,-72 78,-72 78,-108"/>
<text text-anchor="middle" x="51" y="-87.5" font-family="Helvetica,sans-Serif" font-size="10.00" fill="#000000">include</text>
</a>
</g>
</g>
<!-- dir_c7b1237ec9c7dbde6269980f65a72a17 -->
<g id="node3" class="node">
<title>dir_c7b1237ec9c7dbde6269980f65a72a17</title>
<g id="a_node3"><a xlink:href="dir_c7b1237ec9c7dbde6269980f65a72a17.html" target="_top" xlink:title="object">
<polygon fill="#ffffff" stroke="#ff0000" points="148,-36 94,-36 94,0 148,0 148,-36"/>
<text text-anchor="middle" x="121" y="-15.5" font-family="Helvetica,sans-Serif" font-size="10.00" fill="#000000">object</text>
</a>
</g>
</g>
<!-- dir_5fce7155e847a9aadb5018797dbcfdaf&#45;&gt;dir_c7b1237ec9c7dbde6269980f65a72a17 -->
<g id="edge5" class="edge">
<title>dir_5fce7155e847a9aadb5018797dbcfdaf&#45;&gt;dir_c7b1237ec9c7dbde6269980f65a72a17</title>
<path fill="none" stroke="#000000" d="M68.664,-71.8314C76.9732,-63.2848 87.0264,-52.9443 96.0918,-43.6198"/>
<polygon fill="#000000" stroke="#000000" points="98.6369,-46.023 103.0982,-36.4133 93.6179,-41.1435 98.6369,-46.023"/>
<g id="a_edge5&#45;headlabel"><a xlink:href="dir_000009_000013.html" target="_top" xlink:title="1">
<text text-anchor="middle" x="98.1669" y="-48.0795" font-family="Helvetica,sans-Serif" font-size="10.00" fill="#000000">1</text>
</a>
</g>
</g>
<!-- dir_14a43b5b2d34e992c84db911343042ff&#45;&gt;dir_c96f7606e5bf3cbd0d5f6f6c4402ac1b -->
<g id="edge3" class="edge">
<title>dir_14a43b5b2d34e992c84db911343042ff&#45;&gt;dir_c96f7606e5bf3cbd0d5f6f6c4402ac1b</title>
<path fill="none" stroke="#000000" d="M132.8008,-150.6772C133.7525,-141.1053 133.9885,-129.1777 133.509,-118.4371"/>
<polygon fill="#000000" stroke="#000000" points="136.9837,-117.9533 132.7909,-108.2234 130.0009,-118.4443 136.9837,-117.9533"/>
<g id="a_edge3&#45;headlabel"><a xlink:href="dir_000010_000008.html" target="_top" xlink:title="1">
<text text-anchor="middle" x="140.068" y="-118.8399" font-family="Helvetica,sans-Serif" font-size="10.00" fill="#000000">1</text>
</a>
</g>
</g>
<!-- dir_14a43b5b2d34e992c84db911343042ff&#45;&gt;dir_5fce7155e847a9aadb5018797dbcfdaf -->
<g id="edge4" class="edge">
<title>dir_14a43b5b2d34e992c84db911343042ff&#45;&gt;dir_5fce7155e847a9aadb5018797dbcfdaf</title>
<path fill="none" stroke="#000000" d="M99.639,-153.3232C95.1791,-150.1901 90.7861,-146.71 87,-143 79.1347,-135.2927 71.9689,-125.6202 66.1378,-116.6553"/>
<polygon fill="#000000" stroke="#000000" points="69.0259,-114.6716 60.7751,-108.0251 63.0802,-118.3661 69.0259,-114.6716"/>
<g id="a_edge4&#45;headlabel"><a xlink:href="dir_000010_000009.html" target="_top" xlink:title="1">
<text text-anchor="middle" x="73.3346" y="-113.7262" font-family="Helvetica,sans-Serif" font-size="10.00" fill="#000000">1</text>
</a>
</g>
</g>
<!-- dir_14a43b5b2d34e992c84db911343042ff&#45;&gt;dir_c7b1237ec9c7dbde6269980f65a72a17 -->
<g id="edge2" class="edge">
<title>dir_14a43b5b2d34e992c84db911343042ff&#45;&gt;dir_c7b1237ec9c7dbde6269980f65a72a17</title>
<path fill="none" stroke="#000000" d="M154.2745,-158.2051C160.5334,-154.3765 166.4004,-149.383 170,-143 188.9936,-109.3198 187.0128,-90.7228 170,-56 166.7436,-49.3537 161.7023,-43.5366 156.0696,-38.5827"/>
<polygon fill="#000000" stroke="#000000" points="158.1645,-35.7777 148.1342,-32.3655 153.8474,-41.2879 158.1645,-35.7777"/>
<g id="a_edge2&#45;headlabel"><a xlink:href="dir_000010_000013.html" target="_top" xlink:title="1">
<text text-anchor="middle" x="162.7452" y="-33.2596" font-family="Helvetica,sans-Serif" font-size="10.00" fill="#000000">1</text>
</a>
</g>
</g>
</g>
</svg>
