<?xml version="1.0" encoding="UTF-8" standalone="no"?>
<!DOCTYPE svg PUBLIC "-//W3C//DTD SVG 1.1//EN"
 "http://www.w3.org/Graphics/SVG/1.1/DTD/svg11.dtd">
<!-- Generated by graphviz version 2.40.1 (20161225.0304)
 -->
<!-- Title: generator Pages: 1 -->
<svg width="106pt" height="204pt"
 viewBox="0.00 0.00 106.00 204.00" xmlns="http://www.w3.org/2000/svg" xmlns:xlink="http://www.w3.org/1999/xlink">
<g id="graph0" class="graph" transform="scale(1 1) rotate(0) translate(4 200)">
<title>generator</title>
<polygon fill="#ffffff" stroke="transparent" points="-4,4 -4,-200 102,-200 102,4 -4,4"/>
<g id="clust1" class="cluster">
<title>clusterdir_a5a88cd2797f7c0f81e2cc5851d8e2e2</title>
<g id="a_clust1"><a xlink:href="dir_a5a88cd2797f7c0f81e2cc5851d8e2e2.html" target="_top">
<polygon fill="#eeeeff" stroke="#000000" points="8,-64 8,-188 82,-188 82,-64 8,-64"/>
</a>
</g>
</g>
<!-- dir_a5a88cd2797f7c0f81e2cc5851d8e2e2 -->
<g id="node1" class="node">
<title>dir_a5a88cd2797f7c0f81e2cc5851d8e2e2</title>
<text text-anchor="middle" x="45" y="-159.5" font-family="Helvetica,sans-Serif" font-size="10.00" fill="#000000">generator</text>
</g>
<!-- dir_981e227b973f2ee3d555aa1dc805e4db -->
<g id="node2" class="node">
<title>dir_981e227b973f2ee3d555aa1dc805e4db</title>
<g id="a_node2"><a xlink:href="dir_981e227b973f2ee3d555aa1dc805e4db.html" target="_top" xlink:title="include">
<polygon fill="#ffffff" stroke="#000000" points="71,-108 17,-108 17,-72 71,-72 71,-108"/>
<text text-anchor="middle" x="44" y="-87.5" font-family="Helvetica,sans-Serif" font-size="10.00" fill="#000000">include</text>
</a>
</g>
</g>
<!-- dir_a5a88cd2797f7c0f81e2cc5851d8e2e2&#45;&gt;dir_981e227b973f2ee3d555aa1dc805e4db -->
<g id="edge2" class="edge">
<title>dir_a5a88cd2797f7c0f81e2cc5851d8e2e2&#45;&gt;dir_981e227b973f2ee3d555aa1dc805e4db</title>
<path fill="none" stroke="#000000" d="M44.7477,-143.8314C44.6407,-136.131 44.5135,-126.9743 44.3947,-118.4166"/>
<polygon fill="#000000" stroke="#000000" points="47.8944,-118.3637 44.2557,-108.4133 40.8951,-118.4609 47.8944,-118.3637"/>
<g id="a_edge2&#45;headlabel"><a xlink:href="dir_000016_000017.html" target="_top" xlink:title="6">
<text text-anchor="middle" x="50.7832" y="-119.4185" font-family="Helvetica,sans-Serif" font-size="10.00" fill="#000000">6</text>
</a>
</g>
</g>
<!-- dir_572890c148f68441e050f6560d78312b -->
<g id="node3" class="node">
<title>dir_572890c148f68441e050f6560d78312b</title>
<g id="a_node3"><a xlink:href="dir_572890c148f68441e050f6560d78312b.html" target="_top" xlink:title="parser">
<polygon fill="#ffffff" stroke="#ff0000" points="98,-36 44,-36 44,0 98,0 98,-36"/>
<text text-anchor="middle" x="71" y="-15.5" font-family="Helvetica,sans-Serif" font-size="10.00" fill="#000000">parser</text>
</a>
</g>
</g>
<!-- dir_a5a88cd2797f7c0f81e2cc5851d8e2e2&#45;&gt;dir_572890c148f68441e050f6560d78312b -->
<g id="edge1" class="edge">
<title>dir_a5a88cd2797f7c0f81e2cc5851d8e2e2&#45;&gt;dir_572890c148f68441e050f6560d78312b</title>
<path fill="none" stroke="#000000" d="M60.5525,-143.8462C68.0046,-133.947 76.1347,-121.0702 80,-108 85.9562,-87.8596 83.2319,-64.1974 79.2718,-46.1911"/>
<polygon fill="#000000" stroke="#000000" points="82.6309,-45.1933 76.8536,-36.3122 75.8317,-46.8577 82.6309,-45.1933"/>
<g id="a_edge1&#45;headlabel"><a xlink:href="dir_000016_000021.html" target="_top" xlink:title="3">
<text text-anchor="middle" x="86.2434" y="-45.5097" font-family="Helvetica,sans-Serif" font-size="10.00" fill="#000000">3</text>
</a>
</g>
</g>
<!-- dir_981e227b973f2ee3d555aa1dc805e4db&#45;&gt;dir_572890c148f68441e050f6560d78312b -->
<g id="edge3" class="edge">
<title>dir_981e227b973f2ee3d555aa1dc805e4db&#45;&gt;dir_572890c148f68441e050f6560d78312b</title>
<path fill="none" stroke="#000000" d="M50.8132,-71.8314C53.7644,-63.9617 57.2858,-54.5712 60.555,-45.8533"/>
<polygon fill="#000000" stroke="#000000" points="63.8609,-47.0055 64.095,-36.4133 57.3066,-44.5476 63.8609,-47.0055"/>
<g id="a_edge3&#45;headlabel"><a xlink:href="dir_000017_000021.html" target="_top" xlink:title="1">
<text text-anchor="middle" x="65.2573" y="-48.8682" font-family="Helvetica,sans-Serif" font-size="10.00" fill="#000000">1</text>
</a>
</g>
</g>
</g>
</svg>
