<?xml version="1.0" encoding="UTF-8" standalone="no"?>
<!DOCTYPE svg PUBLIC "-//W3C//DTD SVG 1.1//EN"
 "http://www.w3.org/Graphics/SVG/1.1/DTD/svg11.dtd">
<!-- Generated by graphviz version 2.40.1 (20161225.0304)
 -->
<!-- Title: main/entry Pages: 1 -->
<svg width="258pt" height="295pt"
 viewBox="0.00 0.00 257.59 295.00" xmlns="http://www.w3.org/2000/svg" xmlns:xlink="http://www.w3.org/1999/xlink">
<g id="graph0" class="graph" transform="scale(1 1) rotate(0) translate(4 291)">
<title>main/entry</title>
<polygon fill="#ffffff" stroke="transparent" points="-4,4 -4,-291 253.5853,-291 253.5853,4 -4,4"/>
<g id="clust1" class="cluster">
<title>clusterdir_5c982d53a68cdbcd421152b4020263a9</title>
<g id="a_clust1"><a xlink:href="dir_5c982d53a68cdbcd421152b4020263a9.html" target="_top" xlink:title="main">
<polygon fill="#ddddee" stroke="#000000" points="119,-208 119,-279 189,-279 189,-208 119,-208"/>
<text text-anchor="middle" x="154" y="-267" font-family="Helvetica,sans-Serif" font-size="10.00" fill="#000000">main</text>
</a>
</g>
</g>
<!-- dir_f9713fd23b802899761c7d0ea44b4f43 -->
<g id="node1" class="node">
<title>dir_f9713fd23b802899761c7d0ea44b4f43</title>
<g id="a_node1"><a xlink:href="dir_f9713fd23b802899761c7d0ea44b4f43.html" target="_top" xlink:title="entry">
<polygon fill="#eeeeff" stroke="#000000" points="181,-252 127,-252 127,-216 181,-216 181,-252"/>
<text text-anchor="middle" x="154" y="-231.5" font-family="Helvetica,sans-Serif" font-size="10.00" fill="#000000">entry</text>
</a>
</g>
</g>
<!-- dir_13e138d54eb8818da29c3992edef070a -->
<g id="node2" class="node">
<title>dir_13e138d54eb8818da29c3992edef070a</title>
<g id="a_node2"><a xlink:href="dir_13e138d54eb8818da29c3992edef070a.html" target="_top" xlink:title="test">
<polygon fill="#ffffff" stroke="#ff0000" points="54,-180 0,-180 0,-144 54,-144 54,-180"/>
<text text-anchor="middle" x="27" y="-159.5" font-family="Helvetica,sans-Serif" font-size="10.00" fill="#000000">test</text>
</a>
</g>
</g>
<!-- dir_f9713fd23b802899761c7d0ea44b4f43&#45;&gt;dir_13e138d54eb8818da29c3992edef070a -->
<g id="edge3" class="edge">
<title>dir_f9713fd23b802899761c7d0ea44b4f43&#45;&gt;dir_13e138d54eb8818da29c3992edef070a</title>
<path fill="none" stroke="#000000" d="M126.7553,-218.5542C108.1732,-208.0195 83.362,-193.9532 63.1328,-182.4848"/>
<polygon fill="#000000" stroke="#000000" points="64.625,-179.3074 54.1996,-177.4203 61.1727,-185.3969 64.625,-179.3074"/>
<g id="a_edge3&#45;headlabel"><a xlink:href="dir_000021_000031.html" target="_top" xlink:title="1">
<text text-anchor="middle" x="69.1524" y="-176.1102" font-family="Helvetica,sans-Serif" font-size="10.00" fill="#000000">1</text>
</a>
</g>
</g>
<!-- dir_46963c335ef7215219cc3e9a32e3fe2f -->
<g id="node3" class="node">
<title>dir_46963c335ef7215219cc3e9a32e3fe2f</title>
<g id="a_node3"><a xlink:href="dir_46963c335ef7215219cc3e9a32e3fe2f.html" target="_top" xlink:title="files">
<polygon fill="#ffffff" stroke="#ff0000" points="126,-180 72,-180 72,-144 126,-144 126,-180"/>
<text text-anchor="middle" x="99" y="-159.5" font-family="Helvetica,sans-Serif" font-size="10.00" fill="#000000">files</text>
</a>
</g>
</g>
<!-- dir_f9713fd23b802899761c7d0ea44b4f43&#45;&gt;dir_46963c335ef7215219cc3e9a32e3fe2f -->
<g id="edge4" class="edge">
<title>dir_f9713fd23b802899761c7d0ea44b4f43&#45;&gt;dir_46963c335ef7215219cc3e9a32e3fe2f</title>
<path fill="none" stroke="#000000" d="M140.1212,-215.8314C133.7864,-207.5386 126.1616,-197.557 119.2074,-188.4533"/>
<polygon fill="#000000" stroke="#000000" points="121.9175,-186.2353 113.0657,-180.4133 116.3548,-190.4847 121.9175,-186.2353"/>
<g id="a_edge4&#45;headlabel"><a xlink:href="dir_000021_000022.html" target="_top" xlink:title="1">
<text text-anchor="middle" x="126.3558" y="-184.8683" font-family="Helvetica,sans-Serif" font-size="10.00" fill="#000000">1</text>
</a>
</g>
</g>
<!-- dir_363e115a0c294a9ff35ee8a9327b07f0 -->
<g id="node4" class="node">
<title>dir_363e115a0c294a9ff35ee8a9327b07f0</title>
<g id="a_node4"><a xlink:href="dir_363e115a0c294a9ff35ee8a9327b07f0.html" target="_top" xlink:title="hvm">
<polygon fill="#ffffff" stroke="#ff0000" points="236,-180 182,-180 182,-144 236,-144 236,-180"/>
<text text-anchor="middle" x="209" y="-159.5" font-family="Helvetica,sans-Serif" font-size="10.00" fill="#000000">hvm</text>
</a>
</g>
</g>
<!-- dir_f9713fd23b802899761c7d0ea44b4f43&#45;&gt;dir_363e115a0c294a9ff35ee8a9327b07f0 -->
<g id="edge5" class="edge">
<title>dir_f9713fd23b802899761c7d0ea44b4f43&#45;&gt;dir_363e115a0c294a9ff35ee8a9327b07f0</title>
<path fill="none" stroke="#000000" d="M167.8788,-215.8314C174.2136,-207.5386 181.8384,-197.557 188.7926,-188.4533"/>
<polygon fill="#000000" stroke="#000000" points="191.6452,-190.4847 194.9343,-180.4133 186.0825,-186.2353 191.6452,-190.4847"/>
<g id="a_edge5&#45;headlabel"><a xlink:href="dir_000021_000024.html" target="_top" xlink:title="1">
<text text-anchor="middle" x="191.7195" y="-192.5647" font-family="Helvetica,sans-Serif" font-size="10.00" fill="#000000">1</text>
</a>
</g>
</g>
<!-- dir_0001ea4fffb871e6e0daf06fe0eef6de -->
<g id="node5" class="node">
<title>dir_0001ea4fffb871e6e0daf06fe0eef6de</title>
<g id="a_node5"><a xlink:href="dir_0001ea4fffb871e6e0daf06fe0eef6de.html" target="_top" xlink:title="parser">
<polygon fill="#ffffff" stroke="#ff0000" points="181,-108 127,-108 127,-72 181,-72 181,-108"/>
<text text-anchor="middle" x="154" y="-87.5" font-family="Helvetica,sans-Serif" font-size="10.00" fill="#000000">parser</text>
</a>
</g>
</g>
<!-- dir_f9713fd23b802899761c7d0ea44b4f43&#45;&gt;dir_0001ea4fffb871e6e0daf06fe0eef6de -->
<g id="edge6" class="edge">
<title>dir_f9713fd23b802899761c7d0ea44b4f43&#45;&gt;dir_0001ea4fffb871e6e0daf06fe0eef6de</title>
<path fill="none" stroke="#000000" d="M154,-215.7623C154,-191.201 154,-147.2474 154,-118.3541"/>
<polygon fill="#000000" stroke="#000000" points="157.5001,-118.0896 154,-108.0896 150.5001,-118.0897 157.5001,-118.0896"/>
<g id="a_edge6&#45;headlabel"><a xlink:href="dir_000021_000028.html" target="_top" xlink:title="2">
<text text-anchor="middle" x="160.3393" y="-119.1842" font-family="Helvetica,sans-Serif" font-size="10.00" fill="#000000">2</text>
</a>
</g>
</g>
<!-- dir_f9352377262e2d6c535a8e1ae042e5ec -->
<g id="node6" class="node">
<title>dir_f9352377262e2d6c535a8e1ae042e5ec</title>
<g id="a_node6"><a xlink:href="dir_f9352377262e2d6c535a8e1ae042e5ec.html" target="_top" xlink:title="builtins">
<polygon fill="#ffffff" stroke="#ff0000" points="181,-36 127,-36 127,0 181,0 181,-36"/>
<text text-anchor="middle" x="154" y="-15.5" font-family="Helvetica,sans-Serif" font-size="10.00" fill="#000000">builtins</text>
</a>
</g>
</g>
<!-- dir_f9713fd23b802899761c7d0ea44b4f43&#45;&gt;dir_f9352377262e2d6c535a8e1ae042e5ec -->
<g id="edge7" class="edge">
<title>dir_f9713fd23b802899761c7d0ea44b4f43&#45;&gt;dir_f9352377262e2d6c535a8e1ae042e5ec</title>
<path fill="none" stroke="#000000" d="M181.3047,-226.0514C202.8506,-218.1773 231.4557,-203.7867 245,-180 252.917,-166.096 248.589,-159.5923 245,-144 237.0188,-109.3261 230.9053,-100.7914 210,-72 202.4985,-61.6688 192.9012,-51.6042 183.7787,-43.0182"/>
<polygon fill="#000000" stroke="#000000" points="186.0304,-40.3346 176.284,-36.1802 181.3124,-45.5058 186.0304,-40.3346"/>
<g id="a_edge7&#45;headlabel"><a xlink:href="dir_000021_000001.html" target="_top" xlink:title="1">
<text text-anchor="middle" x="190.5994" y="-38.1599" font-family="Helvetica,sans-Serif" font-size="10.00" fill="#000000">1</text>
</a>
</g>
</g>
<!-- dir_13e138d54eb8818da29c3992edef070a&#45;&gt;dir_0001ea4fffb871e6e0daf06fe0eef6de -->
<g id="edge1" class="edge">
<title>dir_13e138d54eb8818da29c3992edef070a&#45;&gt;dir_0001ea4fffb871e6e0daf06fe0eef6de</title>
<path fill="none" stroke="#000000" d="M54.2447,-146.5542C72.8268,-136.0195 97.638,-121.9532 117.8672,-110.4848"/>
<polygon fill="#000000" stroke="#000000" points="119.8273,-113.3969 126.8004,-105.4203 116.375,-107.3074 119.8273,-113.3969"/>
<g id="a_edge1&#45;headlabel"><a xlink:href="dir_000031_000028.html" target="_top" xlink:title="1">
<text text-anchor="middle" x="118.1005" y="-115.1396" font-family="Helvetica,sans-Serif" font-size="10.00" fill="#000000">1</text>
</a>
</g>
</g>
<!-- dir_13e138d54eb8818da29c3992edef070a&#45;&gt;dir_f9352377262e2d6c535a8e1ae042e5ec -->
<g id="edge2" class="edge">
<title>dir_13e138d54eb8818da29c3992edef070a&#45;&gt;dir_f9352377262e2d6c535a8e1ae042e5ec</title>
<path fill="none" stroke="#000000" d="M43.0846,-143.7623C65.4143,-118.4436 105.918,-72.5182 131.3119,-43.7251"/>
<polygon fill="#000000" stroke="#000000" points="134.0564,-45.9046 138.046,-36.0896 128.8065,-41.2745 134.0564,-45.9046"/>
<g id="a_edge2&#45;headlabel"><a xlink:href="dir_000031_000001.html" target="_top" xlink:title="8">
<text text-anchor="middle" x="133.8082" y="-47.9786" font-family="Helvetica,sans-Serif" font-size="10.00" fill="#000000">8</text>
</a>
</g>
</g>
<!-- dir_363e115a0c294a9ff35ee8a9327b07f0&#45;&gt;dir_f9352377262e2d6c535a8e1ae042e5ec -->
<g id="edge8" class="edge">
<title>dir_363e115a0c294a9ff35ee8a9327b07f0&#45;&gt;dir_f9352377262e2d6c535a8e1ae042e5ec</title>
<path fill="none" stroke="#000000" d="M207.2095,-143.8083C204.9112,-125.1875 199.9655,-95.7008 190,-72 186.0456,-62.5953 180.3848,-53.0879 174.7195,-44.727"/>
<polygon fill="#000000" stroke="#000000" points="177.5184,-42.6231 168.8853,-36.4815 171.8041,-46.6664 177.5184,-42.6231"/>
<g id="a_edge8&#45;headlabel"><a xlink:href="dir_000024_000001.html" target="_top" xlink:title="4">
<text text-anchor="middle" x="181.9124" y="-41.4175" font-family="Helvetica,sans-Serif" font-size="10.00" fill="#000000">4</text>
</a>
</g>
</g>
<!-- dir_0001ea4fffb871e6e0daf06fe0eef6de&#45;&gt;dir_f9352377262e2d6c535a8e1ae042e5ec -->
<g id="edge9" class="edge">
<title>dir_0001ea4fffb871e6e0daf06fe0eef6de&#45;&gt;dir_f9352377262e2d6c535a8e1ae042e5ec</title>
<path fill="none" stroke="#000000" d="M148.0476,-71.8314C147.2972,-64.131 147.0763,-54.9743 147.3849,-46.4166"/>
<polygon fill="#000000" stroke="#000000" points="150.8792,-46.6161 148.024,-36.4133 143.8935,-46.1697 150.8792,-46.6161"/>
<g id="a_edge9&#45;headlabel"><a xlink:href="dir_000028_000001.html" target="_top" xlink:title="2">
<text text-anchor="middle" x="153.4836" y="-47.8844" font-family="Helvetica,sans-Serif" font-size="10.00" fill="#000000">2</text>
</a>
</g>
</g>
<!-- dir_f9352377262e2d6c535a8e1ae042e5ec&#45;&gt;dir_0001ea4fffb871e6e0daf06fe0eef6de -->
<g id="edge10" class="edge">
<title>dir_f9352377262e2d6c535a8e1ae042e5ec&#45;&gt;dir_0001ea4fffb871e6e0daf06fe0eef6de</title>
<path fill="none" stroke="#000000" d="M159.976,-36.4133C160.7071,-44.0593 160.9203,-53.1084 160.6155,-61.5726"/>
<polygon fill="#000000" stroke="#000000" points="157.1048,-61.6264 159.9524,-71.8314 164.0902,-62.078 157.1048,-61.6264"/>
<g id="a_edge10&#45;headlabel"><a xlink:href="dir_000001_000028.html" target="_top" xlink:title="2">
<text text-anchor="middle" x="154.5032" y="-55.3562" font-family="Helvetica,sans-Serif" font-size="10.00" fill="#000000">2</text>
</a>
</g>
</g>
</g>
</svg>
