<?xml version="1.0" encoding="UTF-8" standalone="no"?>
<!DOCTYPE svg PUBLIC "-//W3C//DTD SVG 1.1//EN"
 "http://www.w3.org/Graphics/SVG/1.1/DTD/svg11.dtd">
<!-- Generated by graphviz version 2.40.1 (20161225.0304)
 -->
<!-- Title: main Pages: 1 -->
<svg width="100pt" height="260pt"
 viewBox="0.00 0.00 100.43 260.00" xmlns="http://www.w3.org/2000/svg" xmlns:xlink="http://www.w3.org/1999/xlink">
<g id="graph0" class="graph" transform="scale(1 1) rotate(0) translate(4 256)">
<title>main</title>
<polygon fill="#ffffff" stroke="transparent" points="-4,4 -4,-256 96.4274,-256 96.4274,4 -4,4"/>
<!-- dir_5c982d53a68cdbcd421152b4020263a9 -->
<g id="node1" class="node">
<title>dir_5c982d53a68cdbcd421152b4020263a9</title>
<g id="a_node1"><a xlink:href="dir_5c982d53a68cdbcd421152b4020263a9.html" target="_top" xlink:title="main">
<polygon fill="#eeeeff" stroke="#000000" points="66.4274,-252 12.4274,-252 12.4274,-216 66.4274,-216 66.4274,-252"/>
<text text-anchor="middle" x="39.4274" y="-231.5" font-family="Helvetica,sans-Serif" font-size="10.00" fill="#000000">main</text>
</a>
</g>
</g>
<!-- dir_a5a88cd2797f7c0f81e2cc5851d8e2e2 -->
<g id="node2" class="node">
<title>dir_a5a88cd2797f7c0f81e2cc5851d8e2e2</title>
<g id="a_node2"><a xlink:href="dir_a5a88cd2797f7c0f81e2cc5851d8e2e2.html" target="_top" xlink:title="generator">
<polygon fill="#ffffff" stroke="#ff0000" points="65.9274,-108 8.9274,-108 8.9274,-72 65.9274,-72 65.9274,-108"/>
<text text-anchor="middle" x="37.4274" y="-87.5" font-family="Helvetica,sans-Serif" font-size="10.00" fill="#000000">generator</text>
</a>
</g>
</g>
<!-- dir_5c982d53a68cdbcd421152b4020263a9&#45;&gt;dir_a5a88cd2797f7c0f81e2cc5851d8e2e2 -->
<g id="edge3" class="edge">
<title>dir_5c982d53a68cdbcd421152b4020263a9&#45;&gt;dir_a5a88cd2797f7c0f81e2cc5851d8e2e2</title>
<path fill="none" stroke="#000000" d="M23.4369,-215.9169C15.7736,-206.0371 7.4108,-193.1563 3.4274,-180 -1.2092,-164.6865 -1.0091,-159.3726 3.4274,-144 6.1796,-134.4635 11.1698,-124.9881 16.4944,-116.6989"/>
<polygon fill="#000000" stroke="#000000" points="19.5388,-118.4483 22.3134,-108.2232 13.7679,-114.4863 19.5388,-118.4483"/>
<g id="a_edge3&#45;headlabel"><a xlink:href="dir_000018_000016.html" target="_top" xlink:title="1">
<text text-anchor="middle" x="19.845" y="-120.5187" font-family="Helvetica,sans-Serif" font-size="10.00" fill="#000000">1</text>
</a>
</g>
</g>
<!-- dir_572890c148f68441e050f6560d78312b -->
<g id="node3" class="node">
<title>dir_572890c148f68441e050f6560d78312b</title>
<g id="a_node3"><a xlink:href="dir_572890c148f68441e050f6560d78312b.html" target="_top" xlink:title="parser">
<polygon fill="#ffffff" stroke="#ff0000" points="92.4274,-36 38.4274,-36 38.4274,0 92.4274,0 92.4274,-36"/>
<text text-anchor="middle" x="65.4274" y="-15.5" font-family="Helvetica,sans-Serif" font-size="10.00" fill="#000000">parser</text>
</a>
</g>
</g>
<!-- dir_5c982d53a68cdbcd421152b4020263a9&#45;&gt;dir_572890c148f68441e050f6560d78312b -->
<g id="edge4" class="edge">
<title>dir_5c982d53a68cdbcd421152b4020263a9&#45;&gt;dir_572890c148f68441e050f6560d78312b</title>
<path fill="none" stroke="#000000" d="M55.4179,-215.9169C63.0812,-206.0371 71.444,-193.1563 75.4274,-180 89.1324,-134.7356 80.5689,-79.1913 73.045,-46.302"/>
<polygon fill="#000000" stroke="#000000" points="76.4183,-45.3603 70.6683,-36.4615 69.614,-47.0037 76.4183,-45.3603"/>
<g id="a_edge4&#45;headlabel"><a xlink:href="dir_000018_000021.html" target="_top" xlink:title="3">
<text text-anchor="middle" x="80.0221" y="-45.6878" font-family="Helvetica,sans-Serif" font-size="10.00" fill="#000000">3</text>
</a>
</g>
</g>
<!-- dir_94170ec64cb3843443ef9b196933d1ba -->
<g id="node4" class="node">
<title>dir_94170ec64cb3843443ef9b196933d1ba</title>
<g id="a_node4"><a xlink:href="dir_94170ec64cb3843443ef9b196933d1ba.html" target="_top" xlink:title="files">
<polygon fill="#ffffff" stroke="#ff0000" points="66.4274,-180 12.4274,-180 12.4274,-144 66.4274,-144 66.4274,-180"/>
<text text-anchor="middle" x="39.4274" y="-159.5" font-family="Helvetica,sans-Serif" font-size="10.00" fill="#000000">files</text>
</a>
</g>
</g>
<!-- dir_5c982d53a68cdbcd421152b4020263a9&#45;&gt;dir_94170ec64cb3843443ef9b196933d1ba -->
<g id="edge5" class="edge">
<title>dir_5c982d53a68cdbcd421152b4020263a9&#45;&gt;dir_94170ec64cb3843443ef9b196933d1ba</title>
<path fill="none" stroke="#000000" d="M39.4274,-215.8314C39.4274,-208.131 39.4274,-198.9743 39.4274,-190.4166"/>
<polygon fill="#000000" stroke="#000000" points="42.9275,-190.4132 39.4274,-180.4133 35.9275,-190.4133 42.9275,-190.4132"/>
<g id="a_edge5&#45;headlabel"><a xlink:href="dir_000018_000014.html" target="_top" xlink:title="1">
<text text-anchor="middle" x="45.7667" y="-191.5079" font-family="Helvetica,sans-Serif" font-size="10.00" fill="#000000">1</text>
</a>
</g>
</g>
<!-- dir_a5a88cd2797f7c0f81e2cc5851d8e2e2&#45;&gt;dir_572890c148f68441e050f6560d78312b -->
<g id="edge1" class="edge">
<title>dir_a5a88cd2797f7c0f81e2cc5851d8e2e2&#45;&gt;dir_572890c148f68441e050f6560d78312b</title>
<path fill="none" stroke="#000000" d="M44.493,-71.8314C47.5534,-63.9617 51.2053,-54.5712 54.5956,-45.8533"/>
<polygon fill="#000000" stroke="#000000" points="57.9042,-47.0019 58.2667,-36.4133 51.3801,-44.4647 57.9042,-47.0019"/>
<g id="a_edge1&#45;headlabel"><a xlink:href="dir_000016_000021.html" target="_top" xlink:title="3">
<text text-anchor="middle" x="59.2476" y="-48.8812" font-family="Helvetica,sans-Serif" font-size="10.00" fill="#000000">3</text>
</a>
</g>
</g>
<!-- dir_94170ec64cb3843443ef9b196933d1ba&#45;&gt;dir_a5a88cd2797f7c0f81e2cc5851d8e2e2 -->
<g id="edge2" class="edge">
<title>dir_94170ec64cb3843443ef9b196933d1ba&#45;&gt;dir_a5a88cd2797f7c0f81e2cc5851d8e2e2</title>
<path fill="none" stroke="#000000" d="M38.9227,-143.8314C38.7088,-136.131 38.4545,-126.9743 38.2167,-118.4166"/>
<polygon fill="#000000" stroke="#000000" points="41.7153,-118.3122 37.9389,-108.4133 34.718,-118.5066 41.7153,-118.3122"/>
<g id="a_edge2&#45;headlabel"><a xlink:href="dir_000014_000016.html" target="_top" xlink:title="2">
<text text-anchor="middle" x="44.6532" y="-119.3266" font-family="Helvetica,sans-Serif" font-size="10.00" fill="#000000">2</text>
</a>
</g>
</g>
</g>
</svg>
