<?xml version="1.0" encoding="UTF-8" standalone="no"?>
<!DOCTYPE svg PUBLIC "-//W3C//DTD SVG 1.1//EN"
 "http://www.w3.org/Graphics/SVG/1.1/DTD/svg11.dtd">
<!-- Generated by graphviz version 2.40.1 (20161225.0304)
 -->
<!-- Title: test Pages: 1 -->
<svg width="150pt" height="148pt"
 viewBox="0.00 0.00 150.00 148.00" xmlns="http://www.w3.org/2000/svg" xmlns:xlink="http://www.w3.org/1999/xlink">
<g id="graph0" class="graph" transform="scale(1 1) rotate(0) translate(4 144)">
<title>test</title>
<polygon fill="#ffffff" stroke="transparent" points="-4,4 -4,-144 146,-144 146,4 -4,4"/>
<g id="clust1" class="cluster">
<title>clusterdir_13e138d54eb8818da29c3992edef070a</title>
<g id="a_clust1"><a xlink:href="dir_13e138d54eb8818da29c3992edef070a.html" target="_top">
<polygon fill="#eeeeff" stroke="#000000" points="8,-8 8,-132 78,-132 78,-8 8,-8"/>
</a>
</g>
</g>
<!-- dir_13e138d54eb8818da29c3992edef070a -->
<g id="node1" class="node">
<title>dir_13e138d54eb8818da29c3992edef070a</title>
<text text-anchor="middle" x="43" y="-103.5" font-family="Helvetica,sans-Serif" font-size="10.00" fill="#000000">test</text>
</g>
<!-- dir_68def62d34bdcd9a1f109a12da3cfb88 -->
<g id="node2" class="node">
<title>dir_68def62d34bdcd9a1f109a12da3cfb88</title>
<g id="a_node2"><a xlink:href="dir_68def62d34bdcd9a1f109a12da3cfb88.html" target="_top" xlink:title="include">
<polygon fill="#ffffff" stroke="#000000" points="70,-52 16,-52 16,-16 70,-16 70,-52"/>
<text text-anchor="middle" x="43" y="-31.5" font-family="Helvetica,sans-Serif" font-size="10.00" fill="#000000">include</text>
</a>
</g>
</g>
<!-- dir_13e138d54eb8818da29c3992edef070a&#45;&gt;dir_68def62d34bdcd9a1f109a12da3cfb88 -->
<g id="edge1" class="edge">
<title>dir_13e138d54eb8818da29c3992edef070a&#45;&gt;dir_68def62d34bdcd9a1f109a12da3cfb88</title>
<path fill="none" stroke="#000000" d="M43,-87.8314C43,-80.131 43,-70.9743 43,-62.4166"/>
<polygon fill="#000000" stroke="#000000" points="46.5001,-62.4132 43,-52.4133 39.5001,-62.4133 46.5001,-62.4132"/>
<g id="a_edge1&#45;headlabel"><a xlink:href="dir_000022_000023.html" target="_top" xlink:title="1">
<text text-anchor="middle" x="49.3393" y="-63.5079" font-family="Helvetica,sans-Serif" font-size="10.00" fill="#000000">1</text>
</a>
</g>
</g>
<!-- dir_96245007931de700bb8a76b2e98ce70a -->
<g id="node3" class="node">
<title>dir_96245007931de700bb8a76b2e98ce70a</title>
<g id="a_node3"><a xlink:href="dir_96245007931de700bb8a76b2e98ce70a.html" target="_top" xlink:title="builtins">
<polygon fill="#ffffff" stroke="#ff0000" points="142,-52 88,-52 88,-16 142,-16 142,-52"/>
<text text-anchor="middle" x="115" y="-31.5" font-family="Helvetica,sans-Serif" font-size="10.00" fill="#000000">builtins</text>
</a>
</g>
</g>
<!-- dir_13e138d54eb8818da29c3992edef070a&#45;&gt;dir_96245007931de700bb8a76b2e98ce70a -->
<g id="edge2" class="edge">
<title>dir_13e138d54eb8818da29c3992edef070a&#45;&gt;dir_96245007931de700bb8a76b2e98ce70a</title>
<path fill="none" stroke="#000000" d="M61.1686,-87.8314C69.7152,-79.2848 80.0557,-68.9443 89.3802,-59.6198"/>
<polygon fill="#000000" stroke="#000000" points="91.9905,-61.9592 96.5867,-52.4133 87.0408,-57.0095 91.9905,-61.9592"/>
<g id="a_edge2&#45;headlabel"><a xlink:href="dir_000022_000000.html" target="_top" xlink:title="1">
<text text-anchor="middle" x="91.4564" y="-64.0087" font-family="Helvetica,sans-Serif" font-size="10.00" fill="#000000">1</text>
</a>
</g>
</g>
</g>
</svg>
