<?xml version="1.0" encoding="UTF-8" standalone="no"?>
<!DOCTYPE svg PUBLIC "-//W3C//DTD SVG 1.1//EN"
 "http://www.w3.org/Graphics/SVG/1.1/DTD/svg11.dtd">
<!-- Generated by graphviz version 2.40.1 (20161225.0304)
 -->
<!-- Title: builtins/float Pages: 1 -->
<svg width="229pt" height="303pt"
 viewBox="0.00 0.00 228.51 303.00" xmlns="http://www.w3.org/2000/svg" xmlns:xlink="http://www.w3.org/1999/xlink">
<g id="graph0" class="graph" transform="scale(1 1) rotate(0) translate(4 299)">
<title>builtins/float</title>
<polygon fill="#ffffff" stroke="transparent" points="-4,4 -4,-299 224.5096,-299 224.5096,4 -4,4"/>
<g id="clust1" class="cluster">
<title>clusterdir_96245007931de700bb8a76b2e98ce70a</title>
<g id="a_clust1"><a xlink:href="dir_96245007931de700bb8a76b2e98ce70a.html" target="_top" xlink:title="builtins">
<polygon fill="#ddddee" stroke="#000000" points="8,-128 8,-287 94,-287 94,-128 8,-128"/>
<text text-anchor="middle" x="51" y="-275" font-family="Helvetica,sans-Serif" font-size="10.00" fill="#000000">builtins</text>
</a>
</g>
</g>
<g id="clust2" class="cluster">
<title>clusterdir_7f0c039cf765669d984ed76edfe1aa5b</title>
<g id="a_clust2"><a xlink:href="dir_7f0c039cf765669d984ed76edfe1aa5b.html" target="_top">
<polygon fill="#eeeeff" stroke="#000000" points="16,-136 16,-260 86,-260 86,-136 16,-136"/>
</a>
</g>
</g>
<!-- dir_7f0c039cf765669d984ed76edfe1aa5b -->
<g id="node1" class="node">
<title>dir_7f0c039cf765669d984ed76edfe1aa5b</title>
<text text-anchor="middle" x="51" y="-231.5" font-family="Helvetica,sans-Serif" font-size="10.00" fill="#000000">float</text>
</g>
<!-- dir_fe5d2c24e23a01129bf1acf022aee2e8 -->
<g id="node2" class="node">
<title>dir_fe5d2c24e23a01129bf1acf022aee2e8</title>
<g id="a_node2"><a xlink:href="dir_fe5d2c24e23a01129bf1acf022aee2e8.html" target="_top" xlink:title="include">
<polygon fill="#ffffff" stroke="#000000" points="78,-180 24,-180 24,-144 78,-144 78,-180"/>
<text text-anchor="middle" x="51" y="-159.5" font-family="Helvetica,sans-Serif" font-size="10.00" fill="#000000">include</text>
</a>
</g>
</g>
<!-- dir_7f0c039cf765669d984ed76edfe1aa5b&#45;&gt;dir_fe5d2c24e23a01129bf1acf022aee2e8 -->
<g id="edge11" class="edge">
<title>dir_7f0c039cf765669d984ed76edfe1aa5b&#45;&gt;dir_fe5d2c24e23a01129bf1acf022aee2e8</title>
<path fill="none" stroke="#000000" d="M51,-215.8314C51,-208.131 51,-198.9743 51,-190.4166"/>
<polygon fill="#000000" stroke="#000000" points="54.5001,-190.4132 51,-180.4133 47.5001,-190.4133 54.5001,-190.4132"/>
<g id="a_edge11&#45;headlabel"><a xlink:href="dir_000001_000002.html" target="_top" xlink:title="2">
<text text-anchor="middle" x="57.3393" y="-191.5079" font-family="Helvetica,sans-Serif" font-size="10.00" fill="#000000">2</text>
</a>
</g>
</g>
<!-- dir_267116d250309cbe7bd39c0026ee016a -->
<g id="node3" class="node">
<title>dir_267116d250309cbe7bd39c0026ee016a</title>
<g id="a_node3"><a xlink:href="dir_267116d250309cbe7bd39c0026ee016a.html" target="_top" xlink:title="memory">
<polygon fill="#ffffff" stroke="#ff0000" points="133,-108 79,-108 79,-72 133,-72 133,-108"/>
<text text-anchor="middle" x="106" y="-87.5" font-family="Helvetica,sans-Serif" font-size="10.00" fill="#000000">memory</text>
</a>
</g>
</g>
<!-- dir_7f0c039cf765669d984ed76edfe1aa5b&#45;&gt;dir_267116d250309cbe7bd39c0026ee016a -->
<g id="edge10" class="edge">
<title>dir_7f0c039cf765669d984ed76edfe1aa5b&#45;&gt;dir_267116d250309cbe7bd39c0026ee016a</title>
<path fill="none" stroke="#000000" d="M65.8853,-215.5185C73.2462,-205.5296 81.672,-192.6716 87,-180 95.3306,-160.1876 100.1533,-136.3321 102.8541,-118.1605"/>
<polygon fill="#000000" stroke="#000000" points="106.3302,-118.5721 104.2095,-108.1917 99.3941,-117.6289 106.3302,-118.5721"/>
<g id="a_edge10&#45;headlabel"><a xlink:href="dir_000001_000017.html" target="_top" xlink:title="1">
<text text-anchor="middle" x="108.6594" y="-120.0164" font-family="Helvetica,sans-Serif" font-size="10.00" fill="#000000">1</text>
</a>
</g>
</g>
<!-- dir_835d68fe110b5be82c2962ab9d4c9d0f -->
<g id="node4" class="node">
<title>dir_835d68fe110b5be82c2962ab9d4c9d0f</title>
<g id="a_node4"><a xlink:href="dir_835d68fe110b5be82c2962ab9d4c9d0f.html" target="_top" xlink:title="string">
<polygon fill="#ffffff" stroke="#ff0000" points="188,-180 134,-180 134,-144 188,-144 188,-180"/>
<text text-anchor="middle" x="161" y="-159.5" font-family="Helvetica,sans-Serif" font-size="10.00" fill="#000000">string</text>
</a>
</g>
</g>
<!-- dir_7f0c039cf765669d984ed76edfe1aa5b&#45;&gt;dir_835d68fe110b5be82c2962ab9d4c9d0f -->
<g id="edge12" class="edge">
<title>dir_7f0c039cf765669d984ed76edfe1aa5b&#45;&gt;dir_835d68fe110b5be82c2962ab9d4c9d0f</title>
<path fill="none" stroke="#000000" d="M78.191,-216.2022C92.3378,-206.9425 109.8157,-195.5025 125.063,-185.5224"/>
<polygon fill="#000000" stroke="#000000" points="127.2903,-188.2476 133.7406,-179.8425 123.4567,-182.3907 127.2903,-188.2476"/>
<g id="a_edge12&#45;headlabel"><a xlink:href="dir_000001_000010.html" target="_top" xlink:title="1">
<text text-anchor="middle" x="125.8377" y="-190.0918" font-family="Helvetica,sans-Serif" font-size="10.00" fill="#000000">1</text>
</a>
</g>
</g>
<!-- dir_66f3f3dae83f5c1ca431cfa8ee514064 -->
<g id="node5" class="node">
<title>dir_66f3f3dae83f5c1ca431cfa8ee514064</title>
<g id="a_node5"><a xlink:href="dir_66f3f3dae83f5c1ca431cfa8ee514064.html" target="_top" xlink:title="integer">
<polygon fill="#ffffff" stroke="#ff0000" points="188,-252 134,-252 134,-216 188,-216 188,-252"/>
<text text-anchor="middle" x="161" y="-231.5" font-family="Helvetica,sans-Serif" font-size="10.00" fill="#000000">integer</text>
</a>
</g>
</g>
<!-- dir_7f0c039cf765669d984ed76edfe1aa5b&#45;&gt;dir_66f3f3dae83f5c1ca431cfa8ee514064 -->
<g id="edge13" class="edge">
<title>dir_7f0c039cf765669d984ed76edfe1aa5b&#45;&gt;dir_66f3f3dae83f5c1ca431cfa8ee514064</title>
<path fill="none" stroke="#000000" d="M78.0703,-234C93.3058,-234 108.5413,-234 123.7768,-234"/>
<polygon fill="#000000" stroke="#000000" points="123.7887,-237.5001 133.7887,-234 123.7887,-230.5001 123.7887,-237.5001"/>
<g id="a_edge13&#45;headlabel"><a xlink:href="dir_000001_000006.html" target="_top" xlink:title="1">
<text text-anchor="middle" x="120.1941" y="-237.8393" font-family="Helvetica,sans-Serif" font-size="10.00" fill="#000000">1</text>
</a>
</g>
</g>
<!-- dir_608a06ce4a9e8522a04d92d6b87b6029 -->
<g id="node6" class="node">
<title>dir_608a06ce4a9e8522a04d92d6b87b6029</title>
<g id="a_node6"><a xlink:href="dir_608a06ce4a9e8522a04d92d6b87b6029.html" target="_top" xlink:title="object">
<polygon fill="#ffffff" stroke="#ff0000" points="133,-36 79,-36 79,0 133,0 133,-36"/>
<text text-anchor="middle" x="106" y="-15.5" font-family="Helvetica,sans-Serif" font-size="10.00" fill="#000000">object</text>
</a>
</g>
</g>
<!-- dir_7f0c039cf765669d984ed76edfe1aa5b&#45;&gt;dir_608a06ce4a9e8522a04d92d6b87b6029 -->
<g id="edge14" class="edge">
<title>dir_7f0c039cf765669d984ed76edfe1aa5b&#45;&gt;dir_608a06ce4a9e8522a04d92d6b87b6029</title>
<path fill="none" stroke="#000000" d="M35.0095,-215.9169C27.3462,-206.0371 18.9834,-193.1563 15,-180 8.3028,-157.8805 7.947,-150.0086 15,-128 25.9611,-93.7963 53.6723,-63.0681 75.6579,-42.8407"/>
<polygon fill="#000000" stroke="#000000" points="78.036,-45.4095 83.1588,-36.1355 73.3707,-40.1907 78.036,-45.4095"/>
<g id="a_edge14&#45;headlabel"><a xlink:href="dir_000001_000008.html" target="_top" xlink:title="3">
<text text-anchor="middle" x="77.2483" y="-47.4219" font-family="Helvetica,sans-Serif" font-size="10.00" fill="#000000">3</text>
</a>
</g>
</g>
<!-- dir_fe5d2c24e23a01129bf1acf022aee2e8&#45;&gt;dir_608a06ce4a9e8522a04d92d6b87b6029 -->
<g id="edge2" class="edge">
<title>dir_fe5d2c24e23a01129bf1acf022aee2e8&#45;&gt;dir_608a06ce4a9e8522a04d92d6b87b6029</title>
<path fill="none" stroke="#000000" d="M52.7905,-143.8083C55.0888,-125.1875 60.0345,-95.7008 70,-72 73.9544,-62.5953 79.6152,-53.0879 85.2805,-44.727"/>
<polygon fill="#000000" stroke="#000000" points="88.1959,-46.6664 91.1147,-36.4815 82.4816,-42.6231 88.1959,-46.6664"/>
<g id="a_edge2&#45;headlabel"><a xlink:href="dir_000002_000008.html" target="_top" xlink:title="1">
<text text-anchor="middle" x="88.4374" y="-48.7406" font-family="Helvetica,sans-Serif" font-size="10.00" fill="#000000">1</text>
</a>
</g>
</g>
<!-- dir_267116d250309cbe7bd39c0026ee016a&#45;&gt;dir_608a06ce4a9e8522a04d92d6b87b6029 -->
<g id="edge1" class="edge">
<title>dir_267116d250309cbe7bd39c0026ee016a&#45;&gt;dir_608a06ce4a9e8522a04d92d6b87b6029</title>
<path fill="none" stroke="#000000" d="M106,-71.8314C106,-64.131 106,-54.9743 106,-46.4166"/>
<polygon fill="#000000" stroke="#000000" points="109.5001,-46.4132 106,-36.4133 102.5001,-46.4133 109.5001,-46.4132"/>
<g id="a_edge1&#45;headlabel"><a xlink:href="dir_000017_000008.html" target="_top" xlink:title="1">
<text text-anchor="middle" x="112.3393" y="-47.5079" font-family="Helvetica,sans-Serif" font-size="10.00" fill="#000000">1</text>
</a>
</g>
</g>
<!-- dir_835d68fe110b5be82c2962ab9d4c9d0f&#45;&gt;dir_267116d250309cbe7bd39c0026ee016a -->
<g id="edge3" class="edge">
<title>dir_835d68fe110b5be82c2962ab9d4c9d0f&#45;&gt;dir_267116d250309cbe7bd39c0026ee016a</title>
<path fill="none" stroke="#000000" d="M147.1212,-143.8314C140.7864,-135.5386 133.1616,-125.557 126.2074,-116.4533"/>
<polygon fill="#000000" stroke="#000000" points="128.9175,-114.2353 120.0657,-108.4133 123.3548,-118.4847 128.9175,-114.2353"/>
<g id="a_edge3&#45;headlabel"><a xlink:href="dir_000010_000017.html" target="_top" xlink:title="1">
<text text-anchor="middle" x="133.3558" y="-112.8683" font-family="Helvetica,sans-Serif" font-size="10.00" fill="#000000">1</text>
</a>
</g>
</g>
<!-- dir_835d68fe110b5be82c2962ab9d4c9d0f&#45;&gt;dir_608a06ce4a9e8522a04d92d6b87b6029 -->
<g id="edge4" class="edge">
<title>dir_835d68fe110b5be82c2962ab9d4c9d0f&#45;&gt;dir_608a06ce4a9e8522a04d92d6b87b6029</title>
<path fill="none" stroke="#000000" d="M159.2095,-143.8083C156.9112,-125.1875 151.9655,-95.7008 142,-72 138.0456,-62.5953 132.3848,-53.0879 126.7195,-44.727"/>
<polygon fill="#000000" stroke="#000000" points="129.5184,-42.6231 120.8853,-36.4815 123.8041,-46.6664 129.5184,-42.6231"/>
<g id="a_edge4&#45;headlabel"><a xlink:href="dir_000010_000008.html" target="_top" xlink:title="2">
<text text-anchor="middle" x="133.9124" y="-41.4175" font-family="Helvetica,sans-Serif" font-size="10.00" fill="#000000">2</text>
</a>
</g>
</g>
<!-- dir_66f3f3dae83f5c1ca431cfa8ee514064&#45;&gt;dir_7f0c039cf765669d984ed76edfe1aa5b -->
<g id="edge9" class="edge">
<title>dir_66f3f3dae83f5c1ca431cfa8ee514064&#45;&gt;dir_7f0c039cf765669d984ed76edfe1aa5b</title>
<path fill="none" stroke="#000000" d="M133.7887,-234C118.5532,-234 103.3177,-234 88.0822,-234"/>
<polygon fill="#000000" stroke="#000000" points="88.0703,-230.5001 78.0703,-234 88.0703,-237.5001 88.0703,-230.5001"/>
<g id="a_edge9&#45;headlabel"><a xlink:href="dir_000006_000001.html" target="_top" xlink:title="1">
<text text-anchor="middle" x="91.6649" y="-225.1607" font-family="Helvetica,sans-Serif" font-size="10.00" fill="#000000">1</text>
</a>
</g>
</g>
<!-- dir_66f3f3dae83f5c1ca431cfa8ee514064&#45;&gt;dir_fe5d2c24e23a01129bf1acf022aee2e8 -->
<g id="edge6" class="edge">
<title>dir_66f3f3dae83f5c1ca431cfa8ee514064&#45;&gt;dir_fe5d2c24e23a01129bf1acf022aee2e8</title>
<path fill="none" stroke="#000000" d="M133.809,-216.2022C119.6622,-206.9425 102.1843,-195.5025 86.937,-185.5224"/>
<polygon fill="#000000" stroke="#000000" points="88.5433,-182.3907 78.2594,-179.8425 84.7097,-188.2476 88.5433,-182.3907"/>
<g id="a_edge6&#45;headlabel"><a xlink:href="dir_000006_000002.html" target="_top" xlink:title="1">
<text text-anchor="middle" x="93.1058" y="-179.4837" font-family="Helvetica,sans-Serif" font-size="10.00" fill="#000000">1</text>
</a>
</g>
</g>
<!-- dir_66f3f3dae83f5c1ca431cfa8ee514064&#45;&gt;dir_267116d250309cbe7bd39c0026ee016a -->
<g id="edge5" class="edge">
<title>dir_66f3f3dae83f5c1ca431cfa8ee514064&#45;&gt;dir_267116d250309cbe7bd39c0026ee016a</title>
<path fill="none" stroke="#000000" d="M176.3644,-215.8504C193.1722,-193.663 215.4242,-155.6596 197,-128 185.038,-110.0418 162.7984,-100.5556 143.3,-95.5522"/>
<polygon fill="#000000" stroke="#000000" points="143.9476,-92.1104 133.4224,-93.3232 142.4067,-98.9387 143.9476,-92.1104"/>
<g id="a_edge5&#45;headlabel"><a xlink:href="dir_000006_000017.html" target="_top" xlink:title="1">
<text text-anchor="middle" x="148.079" y="-87.6319" font-family="Helvetica,sans-Serif" font-size="10.00" fill="#000000">1</text>
</a>
</g>
</g>
<!-- dir_66f3f3dae83f5c1ca431cfa8ee514064&#45;&gt;dir_835d68fe110b5be82c2962ab9d4c9d0f -->
<g id="edge7" class="edge">
<title>dir_66f3f3dae83f5c1ca431cfa8ee514064&#45;&gt;dir_835d68fe110b5be82c2962ab9d4c9d0f</title>
<path fill="none" stroke="#000000" d="M161,-215.8314C161,-208.131 161,-198.9743 161,-190.4166"/>
<polygon fill="#000000" stroke="#000000" points="164.5001,-190.4132 161,-180.4133 157.5001,-190.4133 164.5001,-190.4132"/>
<g id="a_edge7&#45;headlabel"><a xlink:href="dir_000006_000010.html" target="_top" xlink:title="1">
<text text-anchor="middle" x="167.3393" y="-191.5079" font-family="Helvetica,sans-Serif" font-size="10.00" fill="#000000">1</text>
</a>
</g>
</g>
<!-- dir_66f3f3dae83f5c1ca431cfa8ee514064&#45;&gt;dir_608a06ce4a9e8522a04d92d6b87b6029 -->
<g id="edge8" class="edge">
<title>dir_66f3f3dae83f5c1ca431cfa8ee514064&#45;&gt;dir_608a06ce4a9e8522a04d92d6b87b6029</title>
<path fill="none" stroke="#000000" d="M186.0428,-215.8695C196.812,-206.5148 208.2346,-194.105 214,-180 222.7444,-158.607 222.5497,-149.4715 214,-128 199.7059,-92.1019 167.1845,-61.7081 141.5412,-42.0278"/>
<polygon fill="#000000" stroke="#000000" points="143.5972,-39.195 133.4889,-36.0212 139.4117,-44.8059 143.5972,-39.195"/>
<g id="a_edge8&#45;headlabel"><a xlink:href="dir_000006_000008.html" target="_top" xlink:title="3">
<text text-anchor="middle" x="148.1761" y="-36.5685" font-family="Helvetica,sans-Serif" font-size="10.00" fill="#000000">3</text>
</a>
</g>
</g>
</g>
</svg>
