<?xml version="1.0" encoding="UTF-8" standalone="no"?>
<!DOCTYPE svg PUBLIC "-//W3C//DTD SVG 1.1//EN"
 "http://www.w3.org/Graphics/SVG/1.1/DTD/svg11.dtd">
<!-- Generated by graphviz version 2.40.1 (20161225.0304)
 -->
<!-- Title: main/builtins/type Pages: 1 -->
<svg width="110pt" height="231pt"
 viewBox="0.00 0.00 110.00 231.00" xmlns="http://www.w3.org/2000/svg" xmlns:xlink="http://www.w3.org/1999/xlink">
<g id="graph0" class="graph" transform="scale(1 1) rotate(0) translate(4 227)">
<title>main/builtins/type</title>
<polygon fill="#ffffff" stroke="transparent" points="-4,4 -4,-227 106,-227 106,4 -4,4"/>
<g id="clust1" class="cluster">
<title>clusterdir_f9352377262e2d6c535a8e1ae042e5ec</title>
<g id="a_clust1"><a xlink:href="dir_f9352377262e2d6c535a8e1ae042e5ec.html" target="_top" xlink:title="builtins">
<polygon fill="#ddddee" stroke="#000000" points="8,-56 8,-215 94,-215 94,-56 8,-56"/>
<text text-anchor="middle" x="51" y="-203" font-family="Helvetica,sans-Serif" font-size="10.00" fill="#000000">builtins</text>
</a>
</g>
</g>
<g id="clust2" class="cluster">
<title>clusterdir_baf665de47213e165afabc752fe5c74c</title>
<g id="a_clust2"><a xlink:href="dir_baf665de47213e165afabc752fe5c74c.html" target="_top">
<polygon fill="#eeeeff" stroke="#000000" points="16,-64 16,-188 86,-188 86,-64 16,-64"/>
</a>
</g>
</g>
<!-- dir_baf665de47213e165afabc752fe5c74c -->
<g id="node1" class="node">
<title>dir_baf665de47213e165afabc752fe5c74c</title>
<text text-anchor="middle" x="51" y="-159.5" font-family="Helvetica,sans-Serif" font-size="10.00" fill="#000000">type</text>
</g>
<!-- dir_61735fd6821ce7c6a859a5265acde4b1 -->
<g id="node2" class="node">
<title>dir_61735fd6821ce7c6a859a5265acde4b1</title>
<g id="a_node2"><a xlink:href="dir_61735fd6821ce7c6a859a5265acde4b1.html" target="_top" xlink:title="include">
<polygon fill="#ffffff" stroke="#000000" points="78,-108 24,-108 24,-72 78,-72 78,-108"/>
<text text-anchor="middle" x="51" y="-87.5" font-family="Helvetica,sans-Serif" font-size="10.00" fill="#000000">include</text>
</a>
</g>
</g>
<!-- dir_baf665de47213e165afabc752fe5c74c&#45;&gt;dir_61735fd6821ce7c6a859a5265acde4b1 -->
<g id="edge1" class="edge">
<title>dir_baf665de47213e165afabc752fe5c74c&#45;&gt;dir_61735fd6821ce7c6a859a5265acde4b1</title>
<path fill="none" stroke="#000000" d="M51,-143.8314C51,-136.131 51,-126.9743 51,-118.4166"/>
<polygon fill="#000000" stroke="#000000" points="54.5001,-118.4132 51,-108.4133 47.5001,-118.4133 54.5001,-118.4132"/>
<g id="a_edge1&#45;headlabel"><a xlink:href="dir_000019_000020.html" target="_top" xlink:title="1">
<text text-anchor="middle" x="57.3393" y="-119.5079" font-family="Helvetica,sans-Serif" font-size="10.00" fill="#000000">1</text>
</a>
</g>
</g>
<!-- dir_54f5d1d9f0fa6067393036cb4af8fee6 -->
<g id="node3" class="node">
<title>dir_54f5d1d9f0fa6067393036cb4af8fee6</title>
<g id="a_node3"><a xlink:href="dir_54f5d1d9f0fa6067393036cb4af8fee6.html" target="_top" xlink:title="memory">
<polygon fill="#ffffff" stroke="#ff0000" points="80,-36 22,-36 22,0 80,0 80,-36"/>
<text text-anchor="middle" x="51" y="-15.5" font-family="Helvetica,sans-Serif" font-size="10.00" fill="#000000">memory</text>
</a>
</g>
</g>
<!-- dir_61735fd6821ce7c6a859a5265acde4b1&#45;&gt;dir_54f5d1d9f0fa6067393036cb4af8fee6 -->
<g id="edge2" class="edge">
<title>dir_61735fd6821ce7c6a859a5265acde4b1&#45;&gt;dir_54f5d1d9f0fa6067393036cb4af8fee6</title>
<path fill="none" stroke="#000000" d="M51,-71.8314C51,-64.131 51,-54.9743 51,-46.4166"/>
<polygon fill="#000000" stroke="#000000" points="54.5001,-46.4132 51,-36.4133 47.5001,-46.4133 54.5001,-46.4132"/>
<g id="a_edge2&#45;headlabel"><a xlink:href="dir_000020_000026.html" target="_top" xlink:title="1">
<text text-anchor="middle" x="57.3393" y="-47.5079" font-family="Helvetica,sans-Serif" font-size="10.00" fill="#000000">1</text>
</a>
</g>
</g>
</g>
</svg>
