<?xml version="1.0" encoding="UTF-8" standalone="no"?>
<!DOCTYPE svg PUBLIC "-//W3C//DTD SVG 1.1//EN"
 "http://www.w3.org/Graphics/SVG/1.1/DTD/svg11.dtd">
<!-- Generated by graphviz version 2.40.1 (20161225.0304)
 -->
<!-- Title: builtins/boolean Pages: 1 -->
<svg width="216pt" height="303pt"
 viewBox="0.00 0.00 215.63 303.00" xmlns="http://www.w3.org/2000/svg" xmlns:xlink="http://www.w3.org/1999/xlink">
<g id="graph0" class="graph" transform="scale(1 1) rotate(0) translate(4 299)">
<title>builtins/boolean</title>
<polygon fill="#ffffff" stroke="transparent" points="-4,4 -4,-299 211.6281,-299 211.6281,4 -4,4"/>
<g id="clust1" class="cluster">
<title>clusterdir_96245007931de700bb8a76b2e98ce70a</title>
<g id="a_clust1"><a xlink:href="dir_96245007931de700bb8a76b2e98ce70a.html" target="_top" xlink:title="builtins">
<polygon fill="#ddddee" stroke="#000000" points="8,-128 8,-287 94,-287 94,-128 8,-128"/>
<text text-anchor="middle" x="51" y="-275" font-family="Helvetica,sans-Serif" font-size="10.00" fill="#000000">builtins</text>
</a>
</g>
</g>
<g id="clust2" class="cluster">
<title>clusterdir_d6cd80945d4bf03f62596b003a3d0f7d</title>
<g id="a_clust2"><a xlink:href="dir_d6cd80945d4bf03f62596b003a3d0f7d.html" target="_top">
<polygon fill="#eeeeff" stroke="#000000" points="16,-136 16,-260 86,-260 86,-136 16,-136"/>
</a>
</g>
</g>
<!-- dir_d6cd80945d4bf03f62596b003a3d0f7d -->
<g id="node1" class="node">
<title>dir_d6cd80945d4bf03f62596b003a3d0f7d</title>
<text text-anchor="middle" x="51" y="-231.5" font-family="Helvetica,sans-Serif" font-size="10.00" fill="#000000">boolean</text>
</g>
<!-- dir_c49012d39bcfba84431dc0fcbd726558 -->
<g id="node2" class="node">
<title>dir_c49012d39bcfba84431dc0fcbd726558</title>
<g id="a_node2"><a xlink:href="dir_c49012d39bcfba84431dc0fcbd726558.html" target="_top" xlink:title="include">
<polygon fill="#ffffff" stroke="#000000" points="78,-180 24,-180 24,-144 78,-144 78,-180"/>
<text text-anchor="middle" x="51" y="-159.5" font-family="Helvetica,sans-Serif" font-size="10.00" fill="#000000">include</text>
</a>
</g>
</g>
<!-- dir_d6cd80945d4bf03f62596b003a3d0f7d&#45;&gt;dir_c49012d39bcfba84431dc0fcbd726558 -->
<g id="edge6" class="edge">
<title>dir_d6cd80945d4bf03f62596b003a3d0f7d&#45;&gt;dir_c49012d39bcfba84431dc0fcbd726558</title>
<path fill="none" stroke="#000000" d="M51,-215.8314C51,-208.131 51,-198.9743 51,-190.4166"/>
<polygon fill="#000000" stroke="#000000" points="54.5001,-190.4132 51,-180.4133 47.5001,-190.4133 54.5001,-190.4132"/>
<g id="a_edge6&#45;headlabel"><a xlink:href="dir_000001_000002.html" target="_top" xlink:title="1">
<text text-anchor="middle" x="57.3393" y="-191.5079" font-family="Helvetica,sans-Serif" font-size="10.00" fill="#000000">1</text>
</a>
</g>
</g>
<!-- dir_267116d250309cbe7bd39c0026ee016a -->
<g id="node3" class="node">
<title>dir_267116d250309cbe7bd39c0026ee016a</title>
<g id="a_node3"><a xlink:href="dir_267116d250309cbe7bd39c0026ee016a.html" target="_top" xlink:title="memory">
<polygon fill="#ffffff" stroke="#ff0000" points="133,-108 79,-108 79,-72 133,-72 133,-108"/>
<text text-anchor="middle" x="106" y="-87.5" font-family="Helvetica,sans-Serif" font-size="10.00" fill="#000000">memory</text>
</a>
</g>
</g>
<!-- dir_d6cd80945d4bf03f62596b003a3d0f7d&#45;&gt;dir_267116d250309cbe7bd39c0026ee016a -->
<g id="edge5" class="edge">
<title>dir_d6cd80945d4bf03f62596b003a3d0f7d&#45;&gt;dir_267116d250309cbe7bd39c0026ee016a</title>
<path fill="none" stroke="#000000" d="M65.8853,-215.5185C73.2462,-205.5296 81.672,-192.6716 87,-180 95.3306,-160.1876 100.1533,-136.3321 102.8541,-118.1605"/>
<polygon fill="#000000" stroke="#000000" points="106.3302,-118.5721 104.2095,-108.1917 99.3941,-117.6289 106.3302,-118.5721"/>
<g id="a_edge5&#45;headlabel"><a xlink:href="dir_000001_000025.html" target="_top" xlink:title="1">
<text text-anchor="middle" x="108.6594" y="-120.0164" font-family="Helvetica,sans-Serif" font-size="10.00" fill="#000000">1</text>
</a>
</g>
</g>
<!-- dir_835d68fe110b5be82c2962ab9d4c9d0f -->
<g id="node4" class="node">
<title>dir_835d68fe110b5be82c2962ab9d4c9d0f</title>
<g id="a_node4"><a xlink:href="dir_835d68fe110b5be82c2962ab9d4c9d0f.html" target="_top" xlink:title="string">
<polygon fill="#ffffff" stroke="#ff0000" points="188,-180 134,-180 134,-144 188,-144 188,-180"/>
<text text-anchor="middle" x="161" y="-159.5" font-family="Helvetica,sans-Serif" font-size="10.00" fill="#000000">string</text>
</a>
</g>
</g>
<!-- dir_d6cd80945d4bf03f62596b003a3d0f7d&#45;&gt;dir_835d68fe110b5be82c2962ab9d4c9d0f -->
<g id="edge7" class="edge">
<title>dir_d6cd80945d4bf03f62596b003a3d0f7d&#45;&gt;dir_835d68fe110b5be82c2962ab9d4c9d0f</title>
<path fill="none" stroke="#000000" d="M78.191,-216.2022C92.3378,-206.9425 109.8157,-195.5025 125.063,-185.5224"/>
<polygon fill="#000000" stroke="#000000" points="127.2903,-188.2476 133.7406,-179.8425 123.4567,-182.3907 127.2903,-188.2476"/>
<g id="a_edge7&#45;headlabel"><a xlink:href="dir_000001_000016.html" target="_top" xlink:title="1">
<text text-anchor="middle" x="125.8377" y="-190.0918" font-family="Helvetica,sans-Serif" font-size="10.00" fill="#000000">1</text>
</a>
</g>
</g>
<!-- dir_608a06ce4a9e8522a04d92d6b87b6029 -->
<g id="node5" class="node">
<title>dir_608a06ce4a9e8522a04d92d6b87b6029</title>
<g id="a_node5"><a xlink:href="dir_608a06ce4a9e8522a04d92d6b87b6029.html" target="_top" xlink:title="object">
<polygon fill="#ffffff" stroke="#ff0000" points="160,-36 106,-36 106,0 160,0 160,-36"/>
<text text-anchor="middle" x="133" y="-15.5" font-family="Helvetica,sans-Serif" font-size="10.00" fill="#000000">object</text>
</a>
</g>
</g>
<!-- dir_d6cd80945d4bf03f62596b003a3d0f7d&#45;&gt;dir_608a06ce4a9e8522a04d92d6b87b6029 -->
<g id="edge8" class="edge">
<title>dir_d6cd80945d4bf03f62596b003a3d0f7d&#45;&gt;dir_608a06ce4a9e8522a04d92d6b87b6029</title>
<path fill="none" stroke="#000000" d="M78.2878,-227.8256C116.5672,-218.5482 183.1008,-199.9603 197,-180 227.0765,-136.808 186.6744,-77.4656 157.7243,-43.8976"/>
<polygon fill="#000000" stroke="#000000" points="160.2783,-41.5024 151.0246,-36.3429 155.041,-46.1469 160.2783,-41.5024"/>
<g id="a_edge8&#45;headlabel"><a xlink:href="dir_000001_000012.html" target="_top" xlink:title="2">
<text text-anchor="middle" x="164.7875" y="-39.808" font-family="Helvetica,sans-Serif" font-size="10.00" fill="#000000">2</text>
</a>
</g>
</g>
<!-- dir_c49012d39bcfba84431dc0fcbd726558&#45;&gt;dir_608a06ce4a9e8522a04d92d6b87b6029 -->
<g id="edge2" class="edge">
<title>dir_c49012d39bcfba84431dc0fcbd726558&#45;&gt;dir_608a06ce4a9e8522a04d92d6b87b6029</title>
<path fill="none" stroke="#000000" d="M51.4453,-143.8622C52.653,-124.7557 56.7263,-94.3914 70,-72 76.8977,-60.3643 87.2111,-49.9994 97.5066,-41.5385"/>
<polygon fill="#000000" stroke="#000000" points="99.9473,-44.0743 105.6938,-35.1733 95.6508,-38.548 99.9473,-44.0743"/>
<g id="a_edge2&#45;headlabel"><a xlink:href="dir_000002_000012.html" target="_top" xlink:title="1">
<text text-anchor="middle" x="98.8521" y="-46.0221" font-family="Helvetica,sans-Serif" font-size="10.00" fill="#000000">1</text>
</a>
</g>
</g>
<!-- dir_267116d250309cbe7bd39c0026ee016a&#45;&gt;dir_608a06ce4a9e8522a04d92d6b87b6029 -->
<g id="edge1" class="edge">
<title>dir_267116d250309cbe7bd39c0026ee016a&#45;&gt;dir_608a06ce4a9e8522a04d92d6b87b6029</title>
<path fill="none" stroke="#000000" d="M112.8132,-71.8314C115.7644,-63.9617 119.2858,-54.5712 122.555,-45.8533"/>
<polygon fill="#000000" stroke="#000000" points="125.8609,-47.0055 126.095,-36.4133 119.3066,-44.5476 125.8609,-47.0055"/>
<g id="a_edge1&#45;headlabel"><a xlink:href="dir_000025_000012.html" target="_top" xlink:title="1">
<text text-anchor="middle" x="127.2573" y="-48.8682" font-family="Helvetica,sans-Serif" font-size="10.00" fill="#000000">1</text>
</a>
</g>
</g>
<!-- dir_835d68fe110b5be82c2962ab9d4c9d0f&#45;&gt;dir_267116d250309cbe7bd39c0026ee016a -->
<g id="edge3" class="edge">
<title>dir_835d68fe110b5be82c2962ab9d4c9d0f&#45;&gt;dir_267116d250309cbe7bd39c0026ee016a</title>
<path fill="none" stroke="#000000" d="M147.1212,-143.8314C140.7864,-135.5386 133.1616,-125.557 126.2074,-116.4533"/>
<polygon fill="#000000" stroke="#000000" points="128.9175,-114.2353 120.0657,-108.4133 123.3548,-118.4847 128.9175,-114.2353"/>
<g id="a_edge3&#45;headlabel"><a xlink:href="dir_000016_000025.html" target="_top" xlink:title="1">
<text text-anchor="middle" x="133.3558" y="-112.8683" font-family="Helvetica,sans-Serif" font-size="10.00" fill="#000000">1</text>
</a>
</g>
</g>
<!-- dir_835d68fe110b5be82c2962ab9d4c9d0f&#45;&gt;dir_608a06ce4a9e8522a04d92d6b87b6029 -->
<g id="edge4" class="edge">
<title>dir_835d68fe110b5be82c2962ab9d4c9d0f&#45;&gt;dir_608a06ce4a9e8522a04d92d6b87b6029</title>
<path fill="none" stroke="#000000" d="M157.4538,-143.7623C152.6569,-119.0928 144.0561,-74.8598 138.4392,-45.9731"/>
<polygon fill="#000000" stroke="#000000" points="141.8619,-45.2377 136.5174,-36.0896 134.9905,-46.5738 141.8619,-45.2377"/>
<g id="a_edge4&#45;headlabel"><a xlink:href="dir_000016_000012.html" target="_top" xlink:title="2">
<text text-anchor="middle" x="145.335" y="-45.7243" font-family="Helvetica,sans-Serif" font-size="10.00" fill="#000000">2</text>
</a>
</g>
</g>
</g>
</svg>
