<?xml version="1.0" encoding="UTF-8" standalone="no"?>
<!DOCTYPE svg PUBLIC "-//W3C//DTD SVG 1.1//EN"
 "http://www.w3.org/Graphics/SVG/1.1/DTD/svg11.dtd">
<!-- Generated by graphviz version 2.40.1 (20161225.0304)
 -->
<!-- Title: builtins/include Pages: 1 -->
<!--zoomable 439 -->
<svg id="main" version="1.1" xmlns="http://www.w3.org/2000/svg" xmlns:xlink="http://www.w3.org/1999/xlink" xml:space="preserve" onload="init(evt)">
<style type="text/css"><![CDATA[
.edge:hover path { stroke: red; }
.edge:hover polygon { stroke: red; fill: red; }
]]></style>
<script type="text/javascript"><![CDATA[
var edges = document.getElementsByTagName('g');
if (edges && edges.length) {
  for (var i=0;i<edges.length;i++) {
    if (edges[i].id.substr(0,4)=='edge') {
      edges[i].setAttribute('class','edge');
    }
  }
}
]]></script>
        <defs>
                <circle id="rim" cx="0" cy="0" r="7"/>
                <circle id="rim2" cx="0" cy="0" r="3.5"/>
                <g id="zoomPlus">
                        <use xlink:href="#rim" fill="#404040">
                                <set attributeName="fill" to="#808080" begin="zoomplus.mouseover" end="zoomplus.mouseout"/>
                        </use>
                        <path d="M-4,0h8M0,-4v8" fill="none" stroke="white" stroke-width="1.5" pointer-events="none"/>
                </g>
                <g id="zoomMin">
                        <use xlink:href="#rim" fill="#404040">
                                <set attributeName="fill" to="#808080" begin="zoomminus.mouseover" end="zoomminus.mouseout"/>
                        </use>
                        <path d="M-4,0h8" fill="none" stroke="white" stroke-width="1.5" pointer-events="none"/>
                </g>
                <g id="dirArrow">
                        <path fill="none" stroke="white" stroke-width="1.5" d="M0,-3.0v7 M-2.5,-0.5L0,-3.0L2.5,-0.5"/>
                </g>
               <g id="resetDef">
                       <use xlink:href="#rim2" fill="#404040">
                               <set attributeName="fill" to="#808080" begin="reset.mouseover" end="reset.mouseout"/>
                       </use>
               </g>
        </defs>

<script type="text/javascript">
var viewWidth = 511;
var viewHeight = 439;
var sectionId = 'dynsection-0';
</script>
<script xlink:href="svgpan.js"/>
<svg id="graph" class="graph">
<g id="viewport">
<title>builtins/include</title>
<polygon fill="#ffffff" stroke="transparent" points="-4,4 -4,-435 507,-435 507,4 -4,4"/>
<g id="clust1" class="cluster">
<title>clusterdir_96245007931de700bb8a76b2e98ce70a</title>
<g id="a_clust1"><a xlink:href="dir_96245007931de700bb8a76b2e98ce70a.html" target="_top" xlink:title="builtins">
<polygon fill="#ddddee" stroke="#000000" points="171,-352 171,-423 241,-423 241,-352 171,-352"/>
<text text-anchor="middle" x="206" y="-411" font-family="Helvetica,sans-Serif" font-size="10.00" fill="#000000">builtins</text>
</a>
</g>
</g>
<!-- dir_d55e902ee8ca40eb95d69786b7153853 -->
<g id="node1" class="node">
<title>dir_d55e902ee8ca40eb95d69786b7153853</title>
<g id="a_node1"><a xlink:href="dir_d55e902ee8ca40eb95d69786b7153853.html" target="_top" xlink:title="include">
<polygon fill="#eeeeff" stroke="#000000" points="233,-396 179,-396 179,-360 233,-360 233,-396"/>
<text text-anchor="middle" x="206" y="-375.5" font-family="Helvetica,sans-Serif" font-size="10.00" fill="#000000">include</text>
</a>
</g>
</g>
<!-- dir_267116d250309cbe7bd39c0026ee016a -->
<g id="node2" class="node">
<title>dir_267116d250309cbe7bd39c0026ee016a</title>
<g id="a_node2"><a xlink:href="dir_267116d250309cbe7bd39c0026ee016a.html" target="_top" xlink:title="memory">
<polygon fill="#ffffff" stroke="#ff0000" points="196,-108 142,-108 142,-72 196,-72 196,-108"/>
<text text-anchor="middle" x="169" y="-87.5" font-family="Helvetica,sans-Serif" font-size="10.00" fill="#000000">memory</text>
</a>
</g>
</g>
<!-- dir_d55e902ee8ca40eb95d69786b7153853&#45;&gt;dir_267116d250309cbe7bd39c0026ee016a -->
<g id="edge1" class="edge">
<title>dir_d55e902ee8ca40eb95d69786b7153853&#45;&gt;dir_267116d250309cbe7bd39c0026ee016a</title>
<path fill="none" stroke="#000000" d="M233.1093,-362.9972C246.9042,-353.7409 262.3425,-340.4801 270,-324 276.7421,-309.4899 271.2117,-303.9541 270,-288 265.0041,-222.2198 271.5691,-198.227 234,-144 226.0106,-132.4681 214.9205,-122.0169 204.1609,-113.4479"/>
<polygon fill="#000000" stroke="#000000" points="206.1307,-110.5487 196.0542,-107.2754 201.8901,-116.118 206.1307,-110.5487"/>
<g id="a_edge1&#45;headlabel"><a xlink:href="dir_000007_000023.html" target="_top" xlink:title="1">
<text text-anchor="middle" x="210.7106" y="-107.9673" font-family="Helvetica,sans-Serif" font-size="10.00" fill="#000000">1</text>
</a>
</g>
</g>
<!-- dir_6c90db5314e3398bb3690284b771412f -->
<g id="node3" class="node">
<title>dir_6c90db5314e3398bb3690284b771412f</title>
<g id="a_node3"><a xlink:href="dir_6c90db5314e3398bb3690284b771412f.html" target="_top" xlink:title="code">
<polygon fill="#ffffff" stroke="#ff0000" points="86,-252 32,-252 32,-216 86,-216 86,-252"/>
<text text-anchor="middle" x="59" y="-231.5" font-family="Helvetica,sans-Serif" font-size="10.00" fill="#000000">code</text>
</a>
</g>
</g>
<!-- dir_d55e902ee8ca40eb95d69786b7153853&#45;&gt;dir_6c90db5314e3398bb3690284b771412f -->
<g id="edge2" class="edge">
<title>dir_d55e902ee8ca40eb95d69786b7153853&#45;&gt;dir_6c90db5314e3398bb3690284b771412f</title>
<path fill="none" stroke="#000000" d="M178.9414,-369.8953C155.4453,-361.657 121.8506,-346.827 100,-324 83.3943,-306.6522 72.6953,-281.3961 66.4055,-262.051"/>
<polygon fill="#000000" stroke="#000000" points="69.6904,-260.8232 63.4328,-252.2738 62.9932,-262.8595 69.6904,-260.8232"/>
<g id="a_edge2&#45;headlabel"><a xlink:href="dir_000007_000001.html" target="_top" xlink:title="1">
<text text-anchor="middle" x="73.4525" y="-260.9364" font-family="Helvetica,sans-Serif" font-size="10.00" fill="#000000">1</text>
</a>
</g>
</g>
<!-- dir_835d68fe110b5be82c2962ab9d4c9d0f -->
<g id="node4" class="node">
<title>dir_835d68fe110b5be82c2962ab9d4c9d0f</title>
<g id="a_node4"><a xlink:href="dir_835d68fe110b5be82c2962ab9d4c9d0f.html" target="_top" xlink:title="string">
<polygon fill="#ffffff" stroke="#ff0000" points="158,-180 104,-180 104,-144 158,-144 158,-180"/>
<text text-anchor="middle" x="131" y="-159.5" font-family="Helvetica,sans-Serif" font-size="10.00" fill="#000000">string</text>
</a>
</g>
</g>
<!-- dir_d55e902ee8ca40eb95d69786b7153853&#45;&gt;dir_835d68fe110b5be82c2962ab9d4c9d0f -->
<g id="edge3" class="edge">
<title>dir_d55e902ee8ca40eb95d69786b7153853&#45;&gt;dir_835d68fe110b5be82c2962ab9d4c9d0f</title>
<path fill="none" stroke="#000000" d="M195.6263,-359.8308C182.3915,-335.8751 159.6985,-292.0644 147,-252 140.6168,-231.8605 136.5456,-208.329 134.108,-190.3795"/>
<polygon fill="#000000" stroke="#000000" points="137.5558,-189.7454 132.8259,-180.265 130.6113,-190.6257 137.5558,-189.7454"/>
<g id="a_edge3&#45;headlabel"><a xlink:href="dir_000007_000014.html" target="_top" xlink:title="1">
<text text-anchor="middle" x="140.8245" y="-190.4545" font-family="Helvetica,sans-Serif" font-size="10.00" fill="#000000">1</text>
</a>
</g>
</g>
<!-- dir_1c5debea106edff2946b598282d156d8 -->
<g id="node5" class="node">
<title>dir_1c5debea106edff2946b598282d156d8</title>
<g id="a_node5"><a xlink:href="dir_1c5debea106edff2946b598282d156d8.html" target="_top" xlink:title="hashmap">
<polygon fill="#ffffff" stroke="#ff0000" points="417,-324 361,-324 361,-288 417,-288 417,-324"/>
<text text-anchor="middle" x="389" y="-303.5" font-family="Helvetica,sans-Serif" font-size="10.00" fill="#000000">hashmap</text>
</a>
</g>
</g>
<!-- dir_d55e902ee8ca40eb95d69786b7153853&#45;&gt;dir_1c5debea106edff2946b598282d156d8 -->
<g id="edge4" class="edge">
<title>dir_d55e902ee8ca40eb95d69786b7153853&#45;&gt;dir_1c5debea106edff2946b598282d156d8</title>
<path fill="none" stroke="#000000" d="M233.1539,-367.9606C261.6376,-357.3455 307.6486,-339.9607 347,-324 348.3784,-323.4409 349.7802,-322.8672 351.1945,-322.2839"/>
<polygon fill="#000000" stroke="#000000" points="352.7218,-325.439 360.5966,-318.3511 350.0205,-318.9812 352.7218,-325.439"/>
<g id="a_edge4&#45;headlabel"><a xlink:href="dir_000007_000005.html" target="_top" xlink:title="1">
<text text-anchor="middle" x="350.5013" y="-326.9455" font-family="Helvetica,sans-Serif" font-size="10.00" fill="#000000">1</text>
</a>
</g>
</g>
<!-- dir_66f3f3dae83f5c1ca431cfa8ee514064 -->
<g id="node6" class="node">
<title>dir_66f3f3dae83f5c1ca431cfa8ee514064</title>
<g id="a_node6"><a xlink:href="dir_66f3f3dae83f5c1ca431cfa8ee514064.html" target="_top" xlink:title="integer">
<polygon fill="#ffffff" stroke="#ff0000" points="261,-324 207,-324 207,-288 261,-288 261,-324"/>
<text text-anchor="middle" x="234" y="-303.5" font-family="Helvetica,sans-Serif" font-size="10.00" fill="#000000">integer</text>
</a>
</g>
</g>
<!-- dir_d55e902ee8ca40eb95d69786b7153853&#45;&gt;dir_66f3f3dae83f5c1ca431cfa8ee514064 -->
<g id="edge5" class="edge">
<title>dir_d55e902ee8ca40eb95d69786b7153853&#45;&gt;dir_66f3f3dae83f5c1ca431cfa8ee514064</title>
<path fill="none" stroke="#000000" d="M213.0656,-359.8314C216.126,-351.9617 219.7779,-342.5712 223.1682,-333.8533"/>
<polygon fill="#000000" stroke="#000000" points="226.4768,-335.0019 226.8393,-324.4133 219.9527,-332.4647 226.4768,-335.0019"/>
<g id="a_edge5&#45;headlabel"><a xlink:href="dir_000007_000008.html" target="_top" xlink:title="1">
<text text-anchor="middle" x="227.8202" y="-336.8812" font-family="Helvetica,sans-Serif" font-size="10.00" fill="#000000">1</text>
</a>
</g>
</g>
<!-- dir_0a4e3b93f123f4f2e45990353486eba4 -->
<g id="node7" class="node">
<title>dir_0a4e3b93f123f4f2e45990353486eba4</title>
<g id="a_node7"><a xlink:href="dir_0a4e3b93f123f4f2e45990353486eba4.html" target="_top" xlink:title="serialization">
<polygon fill="#ffffff" stroke="#ff0000" points="503,-324 435,-324 435,-288 503,-288 503,-324"/>
<text text-anchor="middle" x="469" y="-303.5" font-family="Helvetica,sans-Serif" font-size="10.00" fill="#000000">serialization</text>
</a>
</g>
</g>
<!-- dir_d55e902ee8ca40eb95d69786b7153853&#45;&gt;dir_0a4e3b93f123f4f2e45990353486eba4 -->
<g id="edge6" class="edge">
<title>dir_d55e902ee8ca40eb95d69786b7153853&#45;&gt;dir_0a4e3b93f123f4f2e45990353486eba4</title>
<path fill="none" stroke="#000000" d="M233.0786,-371.5252C273.7326,-362.6772 352.0121,-345.4331 417,-324 419.666,-323.1207 422.399,-322.1493 425.1543,-321.1268"/>
<polygon fill="#000000" stroke="#000000" points="426.4675,-324.3717 434.5429,-317.5133 423.9531,-317.8388 426.4675,-324.3717"/>
<g id="a_edge6&#45;headlabel"><a xlink:href="dir_000007_000012.html" target="_top" xlink:title="1">
<text text-anchor="middle" x="424.1326" y="-325.8126" font-family="Helvetica,sans-Serif" font-size="10.00" fill="#000000">1</text>
</a>
</g>
</g>
<!-- dir_608a06ce4a9e8522a04d92d6b87b6029 -->
<g id="node8" class="node">
<title>dir_608a06ce4a9e8522a04d92d6b87b6029</title>
<g id="a_node8"><a xlink:href="dir_608a06ce4a9e8522a04d92d6b87b6029.html" target="_top" xlink:title="object">
<polygon fill="#ffffff" stroke="#ff0000" points="196,-36 142,-36 142,0 196,0 196,-36"/>
<text text-anchor="middle" x="169" y="-15.5" font-family="Helvetica,sans-Serif" font-size="10.00" fill="#000000">object</text>
</a>
</g>
</g>
<!-- dir_d55e902ee8ca40eb95d69786b7153853&#45;&gt;dir_608a06ce4a9e8522a04d92d6b87b6029 -->
<g id="edge7" class="edge">
<title>dir_d55e902ee8ca40eb95d69786b7153853&#45;&gt;dir_608a06ce4a9e8522a04d92d6b87b6029</title>
<path fill="none" stroke="#000000" d="M178.6448,-372.3787C122.6088,-359.0941 0,-320.1801 0,-234 0,-234 0,-234 0,-162 0,-92.9772 82.683,-50.0604 132.3816,-30.4986"/>
<polygon fill="#000000" stroke="#000000" points="133.7457,-33.7244 141.8472,-26.8968 131.2562,-27.182 133.7457,-33.7244"/>
<g id="a_edge7&#45;headlabel"><a xlink:href="dir_000007_000010.html" target="_top" xlink:title="1">
<text text-anchor="middle" x="131.3958" y="-35.1563" font-family="Helvetica,sans-Serif" font-size="10.00" fill="#000000">1</text>
</a>
</g>
</g>
<!-- dir_7f0c039cf765669d984ed76edfe1aa5b -->
<g id="node9" class="node">
<title>dir_7f0c039cf765669d984ed76edfe1aa5b</title>
<g id="a_node9"><a xlink:href="dir_7f0c039cf765669d984ed76edfe1aa5b.html" target="_top" xlink:title="float">
<polygon fill="#ffffff" stroke="#ff0000" points="234,-252 180,-252 180,-216 234,-216 234,-252"/>
<text text-anchor="middle" x="207" y="-231.5" font-family="Helvetica,sans-Serif" font-size="10.00" fill="#000000">float</text>
</a>
</g>
</g>
<!-- dir_d55e902ee8ca40eb95d69786b7153853&#45;&gt;dir_7f0c039cf765669d984ed76edfe1aa5b -->
<g id="edge8" class="edge">
<title>dir_d55e902ee8ca40eb95d69786b7153853&#45;&gt;dir_7f0c039cf765669d984ed76edfe1aa5b</title>
<path fill="none" stroke="#000000" d="M202.585,-359.5804C200.8291,-349.1767 198.8774,-335.9092 198,-324 196.8244,-308.0432 196.6803,-303.9455 198,-288 198.6945,-279.6085 199.9862,-270.5578 201.3786,-262.3092"/>
<polygon fill="#000000" stroke="#000000" points="204.8353,-262.8612 203.1587,-252.3999 197.9456,-261.6235 204.8353,-262.8612"/>
<g id="a_edge8&#45;headlabel"><a xlink:href="dir_000007_000003.html" target="_top" xlink:title="1">
<text text-anchor="middle" x="206.9944" y="-264.4012" font-family="Helvetica,sans-Serif" font-size="10.00" fill="#000000">1</text>
</a>
</g>
</g>
<!-- dir_267116d250309cbe7bd39c0026ee016a&#45;&gt;dir_608a06ce4a9e8522a04d92d6b87b6029 -->
<g id="edge9" class="edge">
<title>dir_267116d250309cbe7bd39c0026ee016a&#45;&gt;dir_608a06ce4a9e8522a04d92d6b87b6029</title>
<path fill="none" stroke="#000000" d="M169,-71.8314C169,-64.131 169,-54.9743 169,-46.4166"/>
<polygon fill="#000000" stroke="#000000" points="172.5001,-46.4132 169,-36.4133 165.5001,-46.4133 172.5001,-46.4132"/>
<g id="a_edge9&#45;headlabel"><a xlink:href="dir_000023_000010.html" target="_top" xlink:title="1">
<text text-anchor="middle" x="175.3393" y="-47.5079" font-family="Helvetica,sans-Serif" font-size="10.00" fill="#000000">1</text>
</a>
</g>
</g>
<!-- dir_6c90db5314e3398bb3690284b771412f&#45;&gt;dir_267116d250309cbe7bd39c0026ee016a -->
<g id="edge10" class="edge">
<title>dir_6c90db5314e3398bb3690284b771412f&#45;&gt;dir_267116d250309cbe7bd39c0026ee016a</title>
<path fill="none" stroke="#000000" d="M63.0465,-215.9284C68.0563,-196.6014 78.0688,-165.7953 95,-144 105.3246,-130.7092 119.7578,-119.1794 133.1388,-110.2257"/>
<polygon fill="#000000" stroke="#000000" points="135.1962,-113.0643 141.7263,-104.7212 131.4186,-107.171 135.1962,-113.0643"/>
<g id="a_edge10&#45;headlabel"><a xlink:href="dir_000001_000023.html" target="_top" xlink:title="2">
<text text-anchor="middle" x="133.7021" y="-114.8944" font-family="Helvetica,sans-Serif" font-size="10.00" fill="#000000">2</text>
</a>
</g>
</g>
<!-- dir_6c90db5314e3398bb3690284b771412f&#45;&gt;dir_835d68fe110b5be82c2962ab9d4c9d0f -->
<g id="edge11" class="edge">
<title>dir_6c90db5314e3398bb3690284b771412f&#45;&gt;dir_835d68fe110b5be82c2962ab9d4c9d0f</title>
<path fill="none" stroke="#000000" d="M77.1686,-215.8314C85.7152,-207.2848 96.0557,-196.9443 105.3802,-187.6198"/>
<polygon fill="#000000" stroke="#000000" points="107.9905,-189.9592 112.5867,-180.4133 103.0408,-185.0095 107.9905,-189.9592"/>
<g id="a_edge11&#45;headlabel"><a xlink:href="dir_000001_000014.html" target="_top" xlink:title="2">
<text text-anchor="middle" x="107.4564" y="-192.0087" font-family="Helvetica,sans-Serif" font-size="10.00" fill="#000000">2</text>
</a>
</g>
</g>
<!-- dir_6c90db5314e3398bb3690284b771412f&#45;&gt;dir_608a06ce4a9e8522a04d92d6b87b6029 -->
<g id="edge12" class="edge">
<title>dir_6c90db5314e3398bb3690284b771412f&#45;&gt;dir_608a06ce4a9e8522a04d92d6b87b6029</title>
<path fill="none" stroke="#000000" d="M59.1036,-215.7509C59.7828,-197.0844 62.4668,-167.5618 72,-144 87.8832,-104.7438 119.56,-67.2922 142.4,-43.5777"/>
<polygon fill="#000000" stroke="#000000" points="144.9633,-45.9627 149.4738,-36.376 139.9694,-41.0575 144.9633,-45.9627"/>
<g id="a_edge12&#45;headlabel"><a xlink:href="dir_000001_000010.html" target="_top" xlink:title="3">
<text text-anchor="middle" x="144.47" y="-48.0167" font-family="Helvetica,sans-Serif" font-size="10.00" fill="#000000">3</text>
</a>
</g>
</g>
<!-- dir_835d68fe110b5be82c2962ab9d4c9d0f&#45;&gt;dir_267116d250309cbe7bd39c0026ee016a -->
<g id="edge13" class="edge">
<title>dir_835d68fe110b5be82c2962ab9d4c9d0f&#45;&gt;dir_267116d250309cbe7bd39c0026ee016a</title>
<path fill="none" stroke="#000000" d="M140.589,-143.8314C144.8317,-135.7925 149.9121,-126.1666 154.596,-117.2918"/>
<polygon fill="#000000" stroke="#000000" points="157.7096,-118.8908 159.2819,-108.4133 151.5189,-115.6235 157.7096,-118.8908"/>
<g id="a_edge13&#45;headlabel"><a xlink:href="dir_000014_000023.html" target="_top" xlink:title="1">
<text text-anchor="middle" x="158.5428" y="-120.895" font-family="Helvetica,sans-Serif" font-size="10.00" fill="#000000">1</text>
</a>
</g>
</g>
<!-- dir_835d68fe110b5be82c2962ab9d4c9d0f&#45;&gt;dir_608a06ce4a9e8522a04d92d6b87b6029 -->
<g id="edge14" class="edge">
<title>dir_835d68fe110b5be82c2962ab9d4c9d0f&#45;&gt;dir_608a06ce4a9e8522a04d92d6b87b6029</title>
<path fill="none" stroke="#000000" d="M128.4991,-143.9321C126.5989,-125.4098 125.4412,-96.0003 133,-72 136.0647,-62.269 141.4652,-52.6661 147.1657,-44.3181"/>
<polygon fill="#000000" stroke="#000000" points="150.077,-46.2657 153.1294,-36.1201 144.4163,-42.1477 150.077,-46.2657"/>
<g id="a_edge14&#45;headlabel"><a xlink:href="dir_000014_000010.html" target="_top" xlink:title="2">
<text text-anchor="middle" x="150.2584" y="-48.3428" font-family="Helvetica,sans-Serif" font-size="10.00" fill="#000000">2</text>
</a>
</g>
</g>
<!-- dir_1c5debea106edff2946b598282d156d8&#45;&gt;dir_608a06ce4a9e8522a04d92d6b87b6029 -->
<g id="edge15" class="edge">
<title>dir_1c5debea106edff2946b598282d156d8&#45;&gt;dir_608a06ce4a9e8522a04d92d6b87b6029</title>
<path fill="none" stroke="#000000" d="M381.1047,-287.8991C362.3004,-246.232 311.5014,-141.767 246,-72 234.082,-59.3059 218.7317,-47.8172 204.8768,-38.7324"/>
<polygon fill="#000000" stroke="#000000" points="206.3573,-35.5266 196.0391,-33.1211 202.6051,-41.436 206.3573,-35.5266"/>
<g id="a_edge15&#45;headlabel"><a xlink:href="dir_000005_000010.html" target="_top" xlink:title="1">
<text text-anchor="middle" x="210.9138" y="-32.5564" font-family="Helvetica,sans-Serif" font-size="10.00" fill="#000000">1</text>
</a>
</g>
</g>
<!-- dir_66f3f3dae83f5c1ca431cfa8ee514064&#45;&gt;dir_267116d250309cbe7bd39c0026ee016a -->
<g id="edge16" class="edge">
<title>dir_66f3f3dae83f5c1ca431cfa8ee514064&#45;&gt;dir_267116d250309cbe7bd39c0026ee016a</title>
<path fill="none" stroke="#000000" d="M239.5605,-287.7699C244.3073,-269.3721 249.4305,-240.2878 243,-216 233.01,-178.2681 208.2982,-140.3776 190.1691,-116.1486"/>
<polygon fill="#000000" stroke="#000000" points="192.922,-113.9867 184.0661,-108.1709 187.3623,-118.2399 192.922,-113.9867"/>
<g id="a_edge16&#45;headlabel"><a xlink:href="dir_000008_000023.html" target="_top" xlink:title="1">
<text text-anchor="middle" x="197.3611" y="-112.6165" font-family="Helvetica,sans-Serif" font-size="10.00" fill="#000000">1</text>
</a>
</g>
</g>
<!-- dir_66f3f3dae83f5c1ca431cfa8ee514064&#45;&gt;dir_835d68fe110b5be82c2962ab9d4c9d0f -->
<g id="edge17" class="edge">
<title>dir_66f3f3dae83f5c1ca431cfa8ee514064&#45;&gt;dir_835d68fe110b5be82c2962ab9d4c9d0f</title>
<path fill="none" stroke="#000000" d="M207.9813,-287.969C195.5732,-278.3829 181.2402,-265.748 171,-252 156.9526,-233.1406 146.4539,-208.5694 139.7453,-189.8666"/>
<polygon fill="#000000" stroke="#000000" points="142.9679,-188.4745 136.4097,-180.1534 136.3474,-190.7481 142.9679,-188.4745"/>
<g id="a_edge17&#45;headlabel"><a xlink:href="dir_000008_000014.html" target="_top" xlink:title="1">
<text text-anchor="middle" x="146.8207" y="-188.4521" font-family="Helvetica,sans-Serif" font-size="10.00" fill="#000000">1</text>
</a>
</g>
</g>
<!-- dir_66f3f3dae83f5c1ca431cfa8ee514064&#45;&gt;dir_608a06ce4a9e8522a04d92d6b87b6029 -->
<g id="edge18" class="edge">
<title>dir_66f3f3dae83f5c1ca431cfa8ee514064&#45;&gt;dir_608a06ce4a9e8522a04d92d6b87b6029</title>
<path fill="none" stroke="#000000" d="M244.888,-287.7133C250.2929,-277.5709 256.2445,-264.5105 259,-252 262.4415,-236.3745 260.9549,-231.8801 259,-216 250.9396,-150.5246 255.5032,-129.4068 223,-72 216.9877,-61.3811 208.3185,-51.4178 199.6801,-43.0112"/>
<polygon fill="#000000" stroke="#000000" points="201.8782,-40.2764 192.1642,-36.047 197.1205,-45.411 201.8782,-40.2764"/>
<g id="a_edge18&#45;headlabel"><a xlink:href="dir_000008_000010.html" target="_top" xlink:title="3">
<text text-anchor="middle" x="206.4447" y="-38.1369" font-family="Helvetica,sans-Serif" font-size="10.00" fill="#000000">3</text>
</a>
</g>
</g>
<!-- dir_66f3f3dae83f5c1ca431cfa8ee514064&#45;&gt;dir_7f0c039cf765669d984ed76edfe1aa5b -->
<g id="edge19" class="edge">
<title>dir_66f3f3dae83f5c1ca431cfa8ee514064&#45;&gt;dir_7f0c039cf765669d984ed76edfe1aa5b</title>
<path fill="none" stroke="#000000" d="M221.2344,-287.8314C217.5563,-280.0463 213.8613,-270.7729 210.9458,-262.1347"/>
<polygon fill="#000000" stroke="#000000" points="214.2356,-260.9266 207.929,-252.4133 207.5501,-263.0013 214.2356,-260.9266"/>
<g id="a_edge19&#45;headlabel"><a xlink:href="dir_000008_000003.html" target="_top" xlink:title="1">
<text text-anchor="middle" x="218.0126" y="-261.0182" font-family="Helvetica,sans-Serif" font-size="10.00" fill="#000000">1</text>
</a>
</g>
</g>
<!-- dir_0a4e3b93f123f4f2e45990353486eba4&#45;&gt;dir_d55e902ee8ca40eb95d69786b7153853 -->
<g id="edge20" class="edge">
<title>dir_0a4e3b93f123f4f2e45990353486eba4&#45;&gt;dir_d55e902ee8ca40eb95d69786b7153853</title>
<path fill="none" stroke="#000000" d="M434.5829,-324.1374C368.6456,-345.8466 289.1488,-363.2417 243.2471,-371.94"/>
<polygon fill="#000000" stroke="#000000" points="242.3483,-368.5469 233.1545,-373.8122 243.6251,-375.4295 242.3483,-368.5469"/>
<g id="a_edge20&#45;headlabel"><a xlink:href="dir_000012_000007.html" target="_top" xlink:title="1">
<text text-anchor="middle" x="245.3648" y="-362.5997" font-family="Helvetica,sans-Serif" font-size="10.00" fill="#000000">1</text>
</a>
</g>
</g>
<!-- dir_7f0c039cf765669d984ed76edfe1aa5b&#45;&gt;dir_267116d250309cbe7bd39c0026ee016a -->
<g id="edge21" class="edge">
<title>dir_7f0c039cf765669d984ed76edfe1aa5b&#45;&gt;dir_267116d250309cbe7bd39c0026ee016a</title>
<path fill="none" stroke="#000000" d="M202.1873,-215.7623C195.6773,-191.0928 184.0047,-146.8598 176.3818,-117.9731"/>
<polygon fill="#000000" stroke="#000000" points="179.7094,-116.8656 173.7736,-108.0896 172.9411,-118.6517 179.7094,-116.8656"/>
<g id="a_edge21&#45;headlabel"><a xlink:href="dir_000003_000023.html" target="_top" xlink:title="2">
<text text-anchor="middle" x="183.3718" y="-117.1168" font-family="Helvetica,sans-Serif" font-size="10.00" fill="#000000">2</text>
</a>
</g>
</g>
<!-- dir_7f0c039cf765669d984ed76edfe1aa5b&#45;&gt;dir_835d68fe110b5be82c2962ab9d4c9d0f -->
<g id="edge22" class="edge">
<title>dir_7f0c039cf765669d984ed76edfe1aa5b&#45;&gt;dir_835d68fe110b5be82c2962ab9d4c9d0f</title>
<path fill="none" stroke="#000000" d="M187.822,-215.8314C178.6412,-207.1337 167.4994,-196.5783 157.5224,-187.1265"/>
<polygon fill="#000000" stroke="#000000" points="159.8385,-184.4995 150.1719,-180.1628 155.0243,-189.5811 159.8385,-184.4995"/>
<g id="a_edge22&#45;headlabel"><a xlink:href="dir_000003_000014.html" target="_top" xlink:title="2">
<text text-anchor="middle" x="164.4007" y="-182.4104" font-family="Helvetica,sans-Serif" font-size="10.00" fill="#000000">2</text>
</a>
</g>
</g>
<!-- dir_7f0c039cf765669d984ed76edfe1aa5b&#45;&gt;dir_66f3f3dae83f5c1ca431cfa8ee514064 -->
<g id="edge23" class="edge">
<title>dir_7f0c039cf765669d984ed76edfe1aa5b&#45;&gt;dir_66f3f3dae83f5c1ca431cfa8ee514064</title>
<path fill="none" stroke="#000000" d="M219.881,-252.4133C223.5593,-260.2292 227.2462,-269.5113 230.1454,-278.136"/>
<polygon fill="#000000" stroke="#000000" points="226.8445,-279.3092 233.1392,-287.8314 233.5329,-277.2438 226.8445,-279.3092"/>
<g id="a_edge23&#45;headlabel"><a xlink:href="dir_000003_000008.html" target="_top" xlink:title="1">
<text text-anchor="middle" x="223.0711" y="-274.2122" font-family="Helvetica,sans-Serif" font-size="10.00" fill="#000000">1</text>
</a>
</g>
</g>
<!-- dir_7f0c039cf765669d984ed76edfe1aa5b&#45;&gt;dir_608a06ce4a9e8522a04d92d6b87b6029 -->
<g id="edge24" class="edge">
<title>dir_7f0c039cf765669d984ed76edfe1aa5b&#45;&gt;dir_608a06ce4a9e8522a04d92d6b87b6029</title>
<path fill="none" stroke="#000000" d="M210.032,-215.9883C214.4509,-185.5264 220.5524,-122.2459 205,-72 201.9833,-62.254 196.597,-52.6467 190.8946,-44.2993"/>
<polygon fill="#000000" stroke="#000000" points="193.641,-42.1252 184.9238,-36.1035 187.9832,-46.247 193.641,-42.1252"/>
<g id="a_edge24&#45;headlabel"><a xlink:href="dir_000003_000010.html" target="_top" xlink:title="4">
<text text-anchor="middle" x="198.0525" y="-40.8587" font-family="Helvetica,sans-Serif" font-size="10.00" fill="#000000">4</text>
</a>
</g>
</g>
</g>
</svg>
        <g id="navigator" transform="translate(0 0)" fill="#404254">
                <rect fill="#f2f5e9" fill-opacity="0.5" stroke="#606060" stroke-width=".5" x="0" y="0" width="60" height="60"/>
                <use id="zoomplus" xlink:href="#zoomPlus" x="17" y="9" onmousedown="handleZoom(evt,'in')"/>
                <use id="zoomminus" xlink:href="#zoomMin" x="42" y="9" onmousedown="handleZoom(evt,'out')"/>
                <use id="reset" xlink:href="#resetDef" x="30" y="36" onmousedown="handleReset()"/>
                <g id="arrowUp" xlink:href="#dirArrow" transform="translate(30 24)" onmousedown="handlePan(0,-1)">
                  <use xlink:href="#rim" fill="#404040">
                        <set attributeName="fill" to="#808080" begin="arrowUp.mouseover" end="arrowUp.mouseout"/>
                  </use>
                  <path fill="none" stroke="white" stroke-width="1.5" d="M0,-3.0v7 M-2.5,-0.5L0,-3.0L2.5,-0.5"/>
                </g>
                <g id="arrowRight" xlink:href="#dirArrow" transform="rotate(90) translate(36 -43)" onmousedown="handlePan(1,0)">
                  <use xlink:href="#rim" fill="#404040">
                        <set attributeName="fill" to="#808080" begin="arrowRight.mouseover" end="arrowRight.mouseout"/>
                  </use>
                  <path fill="none" stroke="white" stroke-width="1.5" d="M0,-3.0v7 M-2.5,-0.5L0,-3.0L2.5,-0.5"/>
                </g>
                <g id="arrowDown" xlink:href="#dirArrow" transform="rotate(180) translate(-30 -48)" onmousedown="handlePan(0,1)">
                  <use xlink:href="#rim" fill="#404040">
                        <set attributeName="fill" to="#808080" begin="arrowDown.mouseover" end="arrowDown.mouseout"/>
                  </use>
                  <path fill="none" stroke="white" stroke-width="1.5" d="M0,-3.0v7 M-2.5,-0.5L0,-3.0L2.5,-0.5"/>
                </g>
                <g id="arrowLeft" xlink:href="#dirArrow" transform="rotate(270) translate(-36 17)" onmousedown="handlePan(-1,0)">
                  <use xlink:href="#rim" fill="#404040">
                        <set attributeName="fill" to="#808080" begin="arrowLeft.mouseover" end="arrowLeft.mouseout"/>
                  </use>
                  <path fill="none" stroke="white" stroke-width="1.5" d="M0,-3.0v7 M-2.5,-0.5L0,-3.0L2.5,-0.5"/>
                </g>
        </g>
        <svg viewBox="0 0 15 15" width="100%" height="30px" preserveAspectRatio="xMaxYMin meet">
         <g id="arrow_out" transform="scale(0.3 0.3)">
          <a xlink:href="dir_d55e902ee8ca40eb95d69786b7153853_dep_org.svg" target="_base">
           <rect id="button" ry="5" rx="5" y="6" x="6" height="38" width="38"
                fill="#f2f5e9" fill-opacity="0.5" stroke="#606060" stroke-width="1.0"/>
           <path id="arrow"
             d="M 11.500037,31.436501 C 11.940474,20.09759 22.043105,11.32322 32.158766,21.979434 L 37.068811,17.246167 C 37.068811,17.246167 37.088388,32 37.088388,32 L 22.160133,31.978069 C 22.160133,31.978069 26.997745,27.140456 26.997745,27.140456 C 18.528582,18.264221 13.291696,25.230495 11.500037,31.436501 z"
             style="fill:#404040;"/>
          </a>
         </g>
        </svg>
</svg>
