<?xml version="1.0" encoding="UTF-8" standalone="no"?>
<!DOCTYPE svg PUBLIC "-//W3C//DTD SVG 1.1//EN"
 "http://www.w3.org/Graphics/SVG/1.1/DTD/svg11.dtd">
<!-- Generated by graphviz version 2.40.1 (20161225.0304)
 -->
<!-- Title: builtins/serialization Pages: 1 -->
<svg width="196pt" height="195pt"
 viewBox="0.00 0.00 196.00 195.00" xmlns="http://www.w3.org/2000/svg" xmlns:xlink="http://www.w3.org/1999/xlink">
<g id="graph0" class="graph" transform="scale(1 1) rotate(0) translate(4 191)">
<title>builtins/serialization</title>
<polygon fill="#ffffff" stroke="transparent" points="-4,4 -4,-191 192,-191 192,4 -4,4"/>
<g id="clust1" class="cluster">
<title>clusterdir_96245007931de700bb8a76b2e98ce70a</title>
<g id="a_clust1"><a xlink:href="dir_96245007931de700bb8a76b2e98ce70a.html" target="_top" xlink:title="builtins">
<polygon fill="#ddddee" stroke="#000000" points="8,-56 8,-143 180,-143 180,-56 8,-56"/>
<text text-anchor="middle" x="94" y="-131" font-family="Helvetica,sans-Serif" font-size="10.00" fill="#000000">builtins</text>
</a>
</g>
</g>
<g id="clust2" class="cluster">
<title>clusterdir_0a4e3b93f123f4f2e45990353486eba4</title>
<g id="a_clust2"><a xlink:href="dir_0a4e3b93f123f4f2e45990353486eba4.html" target="_top">
<polygon fill="#eeeeff" stroke="#000000" points="16,-64 16,-116 172,-116 172,-64 16,-64"/>
</a>
</g>
</g>
<!-- dir_0a4e3b93f123f4f2e45990353486eba4 -->
<g id="node1" class="node">
<title>dir_0a4e3b93f123f4f2e45990353486eba4</title>
<text text-anchor="middle" x="130" y="-87.5" font-family="Helvetica,sans-Serif" font-size="10.00" fill="#000000">serialization</text>
</g>
<!-- dir_d55e902ee8ca40eb95d69786b7153853 -->
<g id="node3" class="node">
<title>dir_d55e902ee8ca40eb95d69786b7153853</title>
<g id="a_node3"><a xlink:href="dir_d55e902ee8ca40eb95d69786b7153853.html" target="_top" xlink:title="include">
<polygon fill="none" stroke="#000000" points="157,-187 103,-187 103,-151 157,-151 157,-187"/>
<text text-anchor="middle" x="130" y="-166.5" font-family="Helvetica,sans-Serif" font-size="10.00" fill="#000000">include</text>
</a>
</g>
</g>
<!-- dir_0a4e3b93f123f4f2e45990353486eba4&#45;&gt;dir_d55e902ee8ca40eb95d69786b7153853 -->
<g id="edge4" class="edge">
<title>dir_0a4e3b93f123f4f2e45990353486eba4&#45;&gt;dir_d55e902ee8ca40eb95d69786b7153853</title>
<path fill="none" stroke="#000000" d="M124.2091,-108.2234C123.2525,-117.779 123.0115,-129.7025 123.4861,-140.4513"/>
<polygon fill="#000000" stroke="#000000" points="120.0119,-140.945 124.1992,-150.6772 126.9949,-140.4579 120.0119,-140.945"/>
<g id="a_edge4&#45;headlabel"><a xlink:href="dir_000012_000007.html" target="_top" xlink:title="1">
<text text-anchor="middle" x="116.9295" y="-135.0566" font-family="Helvetica,sans-Serif" font-size="10.00" fill="#000000">1</text>
</a>
</g>
</g>
<!-- dir_26f4ce567e80b2c0f4e958d1d4376679 -->
<g id="node2" class="node">
<title>dir_26f4ce567e80b2c0f4e958d1d4376679</title>
<g id="a_node2"><a xlink:href="dir_26f4ce567e80b2c0f4e958d1d4376679.html" target="_top" xlink:title="include">
<polygon fill="#ffffff" stroke="#000000" points="78,-108 24,-108 24,-72 78,-72 78,-108"/>
<text text-anchor="middle" x="51" y="-87.5" font-family="Helvetica,sans-Serif" font-size="10.00" fill="#000000">include</text>
</a>
</g>
</g>
<!-- dir_e558b8e126febdf8b95f4d8be0195ecf -->
<g id="node4" class="node">
<title>dir_e558b8e126febdf8b95f4d8be0195ecf</title>
<g id="a_node4"><a xlink:href="dir_e558b8e126febdf8b95f4d8be0195ecf.html" target="_top" xlink:title="type">
<polygon fill="#ffffff" stroke="#ff0000" points="78,-36 24,-36 24,0 78,0 78,-36"/>
<text text-anchor="middle" x="51" y="-15.5" font-family="Helvetica,sans-Serif" font-size="10.00" fill="#000000">type</text>
</a>
</g>
</g>
<!-- dir_26f4ce567e80b2c0f4e958d1d4376679&#45;&gt;dir_e558b8e126febdf8b95f4d8be0195ecf -->
<g id="edge3" class="edge">
<title>dir_26f4ce567e80b2c0f4e958d1d4376679&#45;&gt;dir_e558b8e126febdf8b95f4d8be0195ecf</title>
<path fill="none" stroke="#000000" d="M51,-71.8314C51,-64.131 51,-54.9743 51,-46.4166"/>
<polygon fill="#000000" stroke="#000000" points="54.5001,-46.4132 51,-36.4133 47.5001,-46.4133 54.5001,-46.4132"/>
<g id="a_edge3&#45;headlabel"><a xlink:href="dir_000013_000016.html" target="_top" xlink:title="1">
<text text-anchor="middle" x="57.3393" y="-47.5079" font-family="Helvetica,sans-Serif" font-size="10.00" fill="#000000">1</text>
</a>
</g>
</g>
<!-- dir_d55e902ee8ca40eb95d69786b7153853&#45;&gt;dir_0a4e3b93f123f4f2e45990353486eba4 -->
<g id="edge2" class="edge">
<title>dir_d55e902ee8ca40eb95d69786b7153853&#45;&gt;dir_0a4e3b93f123f4f2e45990353486eba4</title>
<path fill="none" stroke="#000000" d="M135.8008,-150.6772C136.7525,-141.1053 136.9885,-129.1777 136.509,-118.4371"/>
<polygon fill="#000000" stroke="#000000" points="139.9837,-117.9533 135.7909,-108.2234 133.0009,-118.4443 139.9837,-117.9533"/>
<g id="a_edge2&#45;headlabel"><a xlink:href="dir_000007_000012.html" target="_top" xlink:title="1">
<text text-anchor="middle" x="143.068" y="-118.8399" font-family="Helvetica,sans-Serif" font-size="10.00" fill="#000000">1</text>
</a>
</g>
</g>
<!-- dir_d55e902ee8ca40eb95d69786b7153853&#45;&gt;dir_26f4ce567e80b2c0f4e958d1d4376679 -->
<g id="edge1" class="edge">
<title>dir_d55e902ee8ca40eb95d69786b7153853&#45;&gt;dir_26f4ce567e80b2c0f4e958d1d4376679</title>
<path fill="none" stroke="#000000" d="M102.8037,-154.9979C97.2527,-151.4894 91.6838,-147.4427 87,-143 79.0103,-135.4217 71.8163,-125.7785 65.9975,-116.8008"/>
<polygon fill="#000000" stroke="#000000" points="68.8876,-114.8193 60.6584,-108.1461 62.93,-118.4946 68.8876,-114.8193"/>
<g id="a_edge1&#45;headlabel"><a xlink:href="dir_000007_000013.html" target="_top" xlink:title="1">
<text text-anchor="middle" x="73.1913" y="-113.888" font-family="Helvetica,sans-Serif" font-size="10.00" fill="#000000">1</text>
</a>
</g>
</g>
</g>
</svg>
