<?xml version="1.0" encoding="UTF-8" standalone="no"?>
<!DOCTYPE svg PUBLIC "-//W3C//DTD SVG 1.1//EN"
 "http://www.w3.org/Graphics/SVG/1.1/DTD/svg11.dtd">
<!-- Generated by graphviz version 2.40.1 (20161225.0304)
 -->
<!-- Title: builtins Pages: 1 -->
<svg width="471pt" height="508pt"
 viewBox="0.00 0.00 471.46 508.00" xmlns="http://www.w3.org/2000/svg" xmlns:xlink="http://www.w3.org/1999/xlink">
<g id="graph0" class="graph" transform="scale(1 1) rotate(0) translate(4 504)">
<title>builtins</title>
<polygon fill="#ffffff" stroke="transparent" points="-4,4 -4,-504 467.4592,-504 467.4592,4 -4,4"/>
<g id="clust1" class="cluster">
<title>clusterdir_96245007931de700bb8a76b2e98ce70a</title>
<g id="a_clust1"><a xlink:href="dir_96245007931de700bb8a76b2e98ce70a.html" target="_top">
<polygon fill="#eeeeff" stroke="#000000" points="8,-8 8,-492 292,-492 292,-8 8,-8"/>
</a>
</g>
</g>
<!-- dir_96245007931de700bb8a76b2e98ce70a -->
<g id="node1" class="node">
<title>dir_96245007931de700bb8a76b2e98ce70a</title>
<text text-anchor="middle" x="254" y="-463.5" font-family="Helvetica,sans-Serif" font-size="10.00" fill="#000000">builtins</text>
</g>
<!-- dir_6c90db5314e3398bb3690284b771412f -->
<g id="node2" class="node">
<title>dir_6c90db5314e3398bb3690284b771412f</title>
<g id="a_node2"><a xlink:href="dir_6c90db5314e3398bb3690284b771412f.html" target="_top" xlink:title="code">
<polygon fill="#ffffff" stroke="#ff0000" points="284,-340 230,-340 230,-304 284,-304 284,-340"/>
<text text-anchor="middle" x="257" y="-319.5" font-family="Helvetica,sans-Serif" font-size="10.00" fill="#000000">code</text>
</a>
</g>
</g>
<!-- dir_608a06ce4a9e8522a04d92d6b87b6029 -->
<g id="node7" class="node">
<title>dir_608a06ce4a9e8522a04d92d6b87b6029</title>
<g id="a_node7"><a xlink:href="dir_608a06ce4a9e8522a04d92d6b87b6029.html" target="_top" xlink:title="object">
<polygon fill="#ffffff" stroke="#ff0000" points="203,-124 149,-124 149,-88 203,-88 203,-124"/>
<text text-anchor="middle" x="176" y="-103.5" font-family="Helvetica,sans-Serif" font-size="10.00" fill="#000000">object</text>
</a>
</g>
</g>
<!-- dir_6c90db5314e3398bb3690284b771412f&#45;&gt;dir_608a06ce4a9e8522a04d92d6b87b6029 -->
<g id="edge16" class="edge">
<title>dir_6c90db5314e3398bb3690284b771412f&#45;&gt;dir_608a06ce4a9e8522a04d92d6b87b6029</title>
<path fill="none" stroke="#000000" d="M262.3051,-303.9604C266.8519,-285.4608 271.573,-256.069 264,-232 251.697,-192.8976 222.4672,-155.3487 201.0581,-131.5716"/>
<polygon fill="#000000" stroke="#000000" points="203.4826,-129.0377 194.1332,-124.0537 198.3339,-133.7802 203.4826,-129.0377"/>
<g id="a_edge16&#45;headlabel"><a xlink:href="dir_000001_000010.html" target="_top" xlink:title="3">
<text text-anchor="middle" x="208.0062" y="-127.2579" font-family="Helvetica,sans-Serif" font-size="10.00" fill="#000000">3</text>
</a>
</g>
</g>
<!-- dir_835d68fe110b5be82c2962ab9d4c9d0f -->
<g id="node9" class="node">
<title>dir_835d68fe110b5be82c2962ab9d4c9d0f</title>
<g id="a_node9"><a xlink:href="dir_835d68fe110b5be82c2962ab9d4c9d0f.html" target="_top" xlink:title="string">
<polygon fill="#ffffff" stroke="#ff0000" points="157,-196 103,-196 103,-160 157,-160 157,-196"/>
<text text-anchor="middle" x="130" y="-175.5" font-family="Helvetica,sans-Serif" font-size="10.00" fill="#000000">string</text>
</a>
</g>
</g>
<!-- dir_6c90db5314e3398bb3690284b771412f&#45;&gt;dir_835d68fe110b5be82c2962ab9d4c9d0f -->
<g id="edge15" class="edge">
<title>dir_6c90db5314e3398bb3690284b771412f&#45;&gt;dir_835d68fe110b5be82c2962ab9d4c9d0f</title>
<path fill="none" stroke="#000000" d="M261.4393,-303.6819C265.063,-284.1441 267.4994,-253.1591 253,-232 233.5686,-203.6435 195.7368,-190.039 167.1355,-183.5995"/>
<polygon fill="#000000" stroke="#000000" points="167.5659,-180.1151 157.0669,-181.5372 166.1612,-186.9727 167.5659,-180.1151"/>
<g id="a_edge15&#45;headlabel"><a xlink:href="dir_000001_000014.html" target="_top" xlink:title="2">
<text text-anchor="middle" x="171.6571" y="-175.5548" font-family="Helvetica,sans-Serif" font-size="10.00" fill="#000000">2</text>
</a>
</g>
</g>
<!-- dir_267116d250309cbe7bd39c0026ee016a -->
<g id="node11" class="node">
<title>dir_267116d250309cbe7bd39c0026ee016a</title>
<g id="a_node11"><a xlink:href="dir_267116d250309cbe7bd39c0026ee016a.html" target="_top" xlink:title="memory">
<polygon fill="#ffffff" stroke="#ff0000" points="356,-196 302,-196 302,-160 356,-160 356,-196"/>
<text text-anchor="middle" x="329" y="-175.5" font-family="Helvetica,sans-Serif" font-size="10.00" fill="#000000">memory</text>
</a>
</g>
</g>
<!-- dir_6c90db5314e3398bb3690284b771412f&#45;&gt;dir_267116d250309cbe7bd39c0026ee016a -->
<g id="edge13" class="edge">
<title>dir_6c90db5314e3398bb3690284b771412f&#45;&gt;dir_267116d250309cbe7bd39c0026ee016a</title>
<path fill="none" stroke="#000000" d="M284.1824,-308.4456C299.3902,-299.2801 317.0435,-285.6305 326,-268 335.6932,-248.9193 335.8775,-224.5096 333.9507,-205.9263"/>
<polygon fill="#000000" stroke="#000000" points="337.4219,-205.4771 332.6695,-196.0079 330.4796,-206.374 337.4219,-205.4771"/>
<g id="a_edge13&#45;headlabel"><a xlink:href="dir_000001_000023.html" target="_top" xlink:title="2">
<text text-anchor="middle" x="340.6982" y="-206.1783" font-family="Helvetica,sans-Serif" font-size="10.00" fill="#000000">2</text>
</a>
</g>
</g>
<!-- dir_572890c148f68441e050f6560d78312b -->
<g id="node12" class="node">
<title>dir_572890c148f68441e050f6560d78312b</title>
<g id="a_node12"><a xlink:href="dir_572890c148f68441e050f6560d78312b.html" target="_top" xlink:title="parser">
<polygon fill="#ffffff" stroke="#ff0000" points="432,-268 378,-268 378,-232 432,-232 432,-268"/>
<text text-anchor="middle" x="405" y="-247.5" font-family="Helvetica,sans-Serif" font-size="10.00" fill="#000000">parser</text>
</a>
</g>
</g>
<!-- dir_6c90db5314e3398bb3690284b771412f&#45;&gt;dir_572890c148f68441e050f6560d78312b -->
<g id="edge14" class="edge">
<title>dir_6c90db5314e3398bb3690284b771412f&#45;&gt;dir_572890c148f68441e050f6560d78312b</title>
<path fill="none" stroke="#000000" d="M284.1455,-308.7941C307.8544,-297.26 342.464,-280.4229 368.5764,-267.7196"/>
<polygon fill="#000000" stroke="#000000" points="370.3152,-270.7659 377.7764,-263.2439 367.2529,-264.4713 370.3152,-270.7659"/>
<g id="a_edge14&#45;headlabel"><a xlink:href="dir_000001_000025.html" target="_top" xlink:title="2">
<text text-anchor="middle" x="368.3249" y="-272.3916" font-family="Helvetica,sans-Serif" font-size="10.00" fill="#000000">2</text>
</a>
</g>
</g>
<!-- dir_7f0c039cf765669d984ed76edfe1aa5b -->
<g id="node3" class="node">
<title>dir_7f0c039cf765669d984ed76edfe1aa5b</title>
<g id="a_node3"><a xlink:href="dir_7f0c039cf765669d984ed76edfe1aa5b.html" target="_top" xlink:title="float">
<polygon fill="#ffffff" stroke="#ff0000" points="185,-340 131,-340 131,-304 185,-304 185,-340"/>
<text text-anchor="middle" x="158" y="-319.5" font-family="Helvetica,sans-Serif" font-size="10.00" fill="#000000">float</text>
</a>
</g>
</g>
<!-- dir_66f3f3dae83f5c1ca431cfa8ee514064 -->
<g id="node6" class="node">
<title>dir_66f3f3dae83f5c1ca431cfa8ee514064</title>
<g id="a_node6"><a xlink:href="dir_66f3f3dae83f5c1ca431cfa8ee514064.html" target="_top" xlink:title="integer">
<polygon fill="#ffffff" stroke="#ff0000" points="130,-268 76,-268 76,-232 130,-232 130,-268"/>
<text text-anchor="middle" x="103" y="-247.5" font-family="Helvetica,sans-Serif" font-size="10.00" fill="#000000">integer</text>
</a>
</g>
</g>
<!-- dir_7f0c039cf765669d984ed76edfe1aa5b&#45;&gt;dir_66f3f3dae83f5c1ca431cfa8ee514064 -->
<g id="edge29" class="edge">
<title>dir_7f0c039cf765669d984ed76edfe1aa5b&#45;&gt;dir_66f3f3dae83f5c1ca431cfa8ee514064</title>
<path fill="none" stroke="#000000" d="M138.1688,-303.8314C131.0988,-295.6232 123.3665,-285.7606 116.8734,-276.7323"/>
<polygon fill="#000000" stroke="#000000" points="119.6718,-274.626 111.0897,-268.4133 113.9243,-278.6219 119.6718,-274.626"/>
<g id="a_edge29&#45;headlabel"><a xlink:href="dir_000003_000008.html" target="_top" xlink:title="1">
<text text-anchor="middle" x="124.0549" y="-273.4567" font-family="Helvetica,sans-Serif" font-size="10.00" fill="#000000">1</text>
</a>
</g>
</g>
<!-- dir_7f0c039cf765669d984ed76edfe1aa5b&#45;&gt;dir_608a06ce4a9e8522a04d92d6b87b6029 -->
<g id="edge30" class="edge">
<title>dir_7f0c039cf765669d984ed76edfe1aa5b&#45;&gt;dir_608a06ce4a9e8522a04d92d6b87b6029</title>
<path fill="none" stroke="#000000" d="M159.5037,-303.9555C162.6405,-266.3144 169.9011,-179.1867 173.6563,-134.1246"/>
<polygon fill="#000000" stroke="#000000" points="177.1453,-134.4012 174.4879,-124.1451 170.1695,-133.8198 177.1453,-134.4012"/>
<g id="a_edge30&#45;headlabel"><a xlink:href="dir_000003_000010.html" target="_top" xlink:title="4">
<text text-anchor="middle" x="179.6763" y="-135.7192" font-family="Helvetica,sans-Serif" font-size="10.00" fill="#000000">4</text>
</a>
</g>
</g>
<!-- dir_7f0c039cf765669d984ed76edfe1aa5b&#45;&gt;dir_835d68fe110b5be82c2962ab9d4c9d0f -->
<g id="edge28" class="edge">
<title>dir_7f0c039cf765669d984ed76edfe1aa5b&#45;&gt;dir_835d68fe110b5be82c2962ab9d4c9d0f</title>
<path fill="none" stroke="#000000" d="M154.4538,-303.7623C149.6569,-279.0928 141.0561,-234.8598 135.4392,-205.9731"/>
<polygon fill="#000000" stroke="#000000" points="138.8619,-205.2377 133.5174,-196.0896 131.9905,-206.5738 138.8619,-205.2377"/>
<g id="a_edge28&#45;headlabel"><a xlink:href="dir_000003_000014.html" target="_top" xlink:title="2">
<text text-anchor="middle" x="142.335" y="-205.7243" font-family="Helvetica,sans-Serif" font-size="10.00" fill="#000000">2</text>
</a>
</g>
</g>
<!-- dir_7f0c039cf765669d984ed76edfe1aa5b&#45;&gt;dir_267116d250309cbe7bd39c0026ee016a -->
<g id="edge27" class="edge">
<title>dir_7f0c039cf765669d984ed76edfe1aa5b&#45;&gt;dir_267116d250309cbe7bd39c0026ee016a</title>
<path fill="none" stroke="#000000" d="M185.4105,-309.653C205.3153,-299.9462 232.2783,-285.2144 253,-268 275.3721,-249.4146 296.3425,-223.7027 310.5641,-204.5184"/>
<polygon fill="#000000" stroke="#000000" points="313.5535,-206.3586 316.6042,-196.2124 307.8922,-202.2416 313.5535,-206.3586"/>
<g id="a_edge27&#45;headlabel"><a xlink:href="dir_000003_000023.html" target="_top" xlink:title="2">
<text text-anchor="middle" x="313.7358" y="-208.4356" font-family="Helvetica,sans-Serif" font-size="10.00" fill="#000000">2</text>
</a>
</g>
</g>
<!-- dir_1c5debea106edff2946b598282d156d8 -->
<g id="node4" class="node">
<title>dir_1c5debea106edff2946b598282d156d8</title>
<g id="a_node4"><a xlink:href="dir_1c5debea106edff2946b598282d156d8.html" target="_top" xlink:title="hashmap">
<polygon fill="#ffffff" stroke="#ff0000" points="244,-268 188,-268 188,-232 244,-232 244,-268"/>
<text text-anchor="middle" x="216" y="-247.5" font-family="Helvetica,sans-Serif" font-size="10.00" fill="#000000">hashmap</text>
</a>
</g>
</g>
<!-- dir_1c5debea106edff2946b598282d156d8&#45;&gt;dir_608a06ce4a9e8522a04d92d6b87b6029 -->
<g id="edge19" class="edge">
<title>dir_1c5debea106edff2946b598282d156d8&#45;&gt;dir_608a06ce4a9e8522a04d92d6b87b6029</title>
<path fill="none" stroke="#000000" d="M210.934,-231.7623C204.0813,-207.0928 191.7944,-162.8598 183.7703,-133.9731"/>
<polygon fill="#000000" stroke="#000000" points="187.0737,-132.788 181.0249,-124.0896 180.3291,-134.6616 187.0737,-132.788"/>
<g id="a_edge19&#45;headlabel"><a xlink:href="dir_000005_000010.html" target="_top" xlink:title="1">
<text text-anchor="middle" x="190.7714" y="-132.9916" font-family="Helvetica,sans-Serif" font-size="10.00" fill="#000000">1</text>
</a>
</g>
</g>
<!-- dir_d55e902ee8ca40eb95d69786b7153853 -->
<g id="node5" class="node">
<title>dir_d55e902ee8ca40eb95d69786b7153853</title>
<g id="a_node5"><a xlink:href="dir_d55e902ee8ca40eb95d69786b7153853.html" target="_top" xlink:title="include">
<polygon fill="#ffffff" stroke="#000000" points="188,-412 134,-412 134,-376 188,-376 188,-412"/>
<text text-anchor="middle" x="161" y="-391.5" font-family="Helvetica,sans-Serif" font-size="10.00" fill="#000000">include</text>
</a>
</g>
</g>
<!-- dir_d55e902ee8ca40eb95d69786b7153853&#45;&gt;dir_6c90db5314e3398bb3690284b771412f -->
<g id="edge2" class="edge">
<title>dir_d55e902ee8ca40eb95d69786b7153853&#45;&gt;dir_6c90db5314e3398bb3690284b771412f</title>
<path fill="none" stroke="#000000" d="M185.2249,-375.8314C197.1628,-366.8779 211.7256,-355.9558 224.606,-346.2955"/>
<polygon fill="#000000" stroke="#000000" points="226.8829,-348.9629 232.7829,-340.1628 222.6829,-343.3629 226.8829,-348.9629"/>
<g id="a_edge2&#45;headlabel"><a xlink:href="dir_000007_000001.html" target="_top" xlink:title="1">
<text text-anchor="middle" x="225.7108" y="-350.891" font-family="Helvetica,sans-Serif" font-size="10.00" fill="#000000">1</text>
</a>
</g>
</g>
<!-- dir_d55e902ee8ca40eb95d69786b7153853&#45;&gt;dir_7f0c039cf765669d984ed76edfe1aa5b -->
<g id="edge8" class="edge">
<title>dir_d55e902ee8ca40eb95d69786b7153853&#45;&gt;dir_7f0c039cf765669d984ed76edfe1aa5b</title>
<path fill="none" stroke="#000000" d="M160.243,-375.8314C159.9221,-368.131 159.5406,-358.9743 159.184,-350.4166"/>
<polygon fill="#000000" stroke="#000000" points="162.6806,-350.2589 158.7672,-340.4133 155.6867,-350.5503 162.6806,-350.2589"/>
<g id="a_edge8&#45;headlabel"><a xlink:href="dir_000007_000003.html" target="_top" xlink:title="1">
<text text-anchor="middle" x="165.6669" y="-351.2322" font-family="Helvetica,sans-Serif" font-size="10.00" fill="#000000">1</text>
</a>
</g>
</g>
<!-- dir_d55e902ee8ca40eb95d69786b7153853&#45;&gt;dir_1c5debea106edff2946b598282d156d8 -->
<g id="edge4" class="edge">
<title>dir_d55e902ee8ca40eb95d69786b7153853&#45;&gt;dir_1c5debea106edff2946b598282d156d8</title>
<path fill="none" stroke="#000000" d="M174.1002,-375.7681C180.8622,-365.6418 188.7682,-352.5793 194,-340 202.3133,-320.0117 207.9661,-296.1652 211.4581,-278.0418"/>
<polygon fill="#000000" stroke="#000000" points="214.9194,-278.5701 213.2682,-268.1047 208.0327,-277.3156 214.9194,-278.5701"/>
<g id="a_edge4&#45;headlabel"><a xlink:href="dir_000007_000005.html" target="_top" xlink:title="1">
<text text-anchor="middle" x="217.0686" y="-280.1153" font-family="Helvetica,sans-Serif" font-size="10.00" fill="#000000">1</text>
</a>
</g>
</g>
<!-- dir_d55e902ee8ca40eb95d69786b7153853&#45;&gt;dir_66f3f3dae83f5c1ca431cfa8ee514064 -->
<g id="edge5" class="edge">
<title>dir_d55e902ee8ca40eb95d69786b7153853&#45;&gt;dir_66f3f3dae83f5c1ca431cfa8ee514064</title>
<path fill="none" stroke="#000000" d="M144.8244,-375.707C136.8363,-365.7696 127.7113,-352.9009 122,-340 113.2996,-320.3472 108.4959,-296.4834 105.8964,-278.2682"/>
<polygon fill="#000000" stroke="#000000" points="109.3575,-277.741 104.6077,-268.2705 102.4149,-278.6359 109.3575,-277.741"/>
<g id="a_edge5&#45;headlabel"><a xlink:href="dir_000007_000008.html" target="_top" xlink:title="1">
<text text-anchor="middle" x="112.6329" y="-278.4432" font-family="Helvetica,sans-Serif" font-size="10.00" fill="#000000">1</text>
</a>
</g>
</g>
<!-- dir_d55e902ee8ca40eb95d69786b7153853&#45;&gt;dir_608a06ce4a9e8522a04d92d6b87b6029 -->
<g id="edge7" class="edge">
<title>dir_d55e902ee8ca40eb95d69786b7153853&#45;&gt;dir_608a06ce4a9e8522a04d92d6b87b6029</title>
<path fill="none" stroke="#000000" d="M133.6097,-382.6062C115.2671,-373.6202 92.0006,-359.3643 78,-340 49.4444,-300.5046 50.8939,-280.0583 59,-232 64.634,-198.5977 62.5134,-186.1875 84,-160 98.572,-142.2399 120.6224,-129.0126 139.4828,-120.0952"/>
<polygon fill="#000000" stroke="#000000" points="141.032,-123.2362 148.7175,-115.9435 138.1617,-116.8518 141.032,-123.2362"/>
<g id="a_edge7&#45;headlabel"><a xlink:href="dir_000007_000010.html" target="_top" xlink:title="1">
<text text-anchor="middle" x="138.9178" y="-124.7997" font-family="Helvetica,sans-Serif" font-size="10.00" fill="#000000">1</text>
</a>
</g>
</g>
<!-- dir_0a4e3b93f123f4f2e45990353486eba4 -->
<g id="node8" class="node">
<title>dir_0a4e3b93f123f4f2e45990353486eba4</title>
<g id="a_node8"><a xlink:href="dir_0a4e3b93f123f4f2e45990353486eba4.html" target="_top" xlink:title="serialization">
<polygon fill="#ffffff" stroke="#ff0000" points="195,-484 127,-484 127,-448 195,-448 195,-484"/>
<text text-anchor="middle" x="161" y="-463.5" font-family="Helvetica,sans-Serif" font-size="10.00" fill="#000000">serialization</text>
</a>
</g>
</g>
<!-- dir_d55e902ee8ca40eb95d69786b7153853&#45;&gt;dir_0a4e3b93f123f4f2e45990353486eba4 -->
<g id="edge6" class="edge">
<title>dir_d55e902ee8ca40eb95d69786b7153853&#45;&gt;dir_0a4e3b93f123f4f2e45990353486eba4</title>
<path fill="none" stroke="#000000" d="M166.976,-412.4133C167.7071,-420.0593 167.9203,-429.1084 167.6155,-437.5726"/>
<polygon fill="#000000" stroke="#000000" points="164.1048,-437.6264 166.9524,-447.8314 171.0902,-438.078 164.1048,-437.6264"/>
<g id="a_edge6&#45;headlabel"><a xlink:href="dir_000007_000012.html" target="_top" xlink:title="1">
<text text-anchor="middle" x="161.5032" y="-431.3562" font-family="Helvetica,sans-Serif" font-size="10.00" fill="#000000">1</text>
</a>
</g>
</g>
<!-- dir_d55e902ee8ca40eb95d69786b7153853&#45;&gt;dir_835d68fe110b5be82c2962ab9d4c9d0f -->
<g id="edge3" class="edge">
<title>dir_d55e902ee8ca40eb95d69786b7153853&#45;&gt;dir_835d68fe110b5be82c2962ab9d4c9d0f</title>
<path fill="none" stroke="#000000" d="M139.8184,-375.7042C115.8295,-353.2586 78.5696,-312.6484 67,-268 62.9865,-252.5115 60.3143,-246.5362 67,-232 72.948,-219.0678 83.6904,-208.0737 94.6398,-199.4482"/>
<polygon fill="#000000" stroke="#000000" points="96.9919,-202.0633 102.9774,-193.3211 92.8466,-196.4226 96.9919,-202.0633"/>
<g id="a_edge3&#45;headlabel"><a xlink:href="dir_000007_000014.html" target="_top" xlink:title="1">
<text text-anchor="middle" x="95.7767" y="-203.9798" font-family="Helvetica,sans-Serif" font-size="10.00" fill="#000000">1</text>
</a>
</g>
</g>
<!-- dir_d55e902ee8ca40eb95d69786b7153853&#45;&gt;dir_267116d250309cbe7bd39c0026ee016a -->
<g id="edge1" class="edge">
<title>dir_d55e902ee8ca40eb95d69786b7153853&#45;&gt;dir_267116d250309cbe7bd39c0026ee016a</title>
<path fill="none" stroke="#000000" d="M188.055,-392.0131C247.9194,-385.935 390.2979,-361.7844 441,-268 448.6092,-253.9252 449.5094,-245.5495 441,-232 424.6824,-206.0175 391.9597,-192.2405 366.0782,-185.1252"/>
<polygon fill="#000000" stroke="#000000" points="366.7397,-181.6825 356.1874,-182.6308 365.0279,-188.47 366.7397,-181.6825"/>
<g id="a_edge1&#45;headlabel"><a xlink:href="dir_000007_000023.html" target="_top" xlink:title="1">
<text text-anchor="middle" x="370.9195" y="-177.3084" font-family="Helvetica,sans-Serif" font-size="10.00" fill="#000000">1</text>
</a>
</g>
</g>
<!-- dir_66f3f3dae83f5c1ca431cfa8ee514064&#45;&gt;dir_7f0c039cf765669d984ed76edfe1aa5b -->
<g id="edge23" class="edge">
<title>dir_66f3f3dae83f5c1ca431cfa8ee514064&#45;&gt;dir_7f0c039cf765669d984ed76edfe1aa5b</title>
<path fill="none" stroke="#000000" d="M123.0417,-268.4133C130.1246,-276.654 137.851,-286.5245 144.3194,-295.536"/>
<polygon fill="#000000" stroke="#000000" points="141.4981,-297.6095 150.0736,-303.8314 147.2498,-293.6197 141.4981,-297.6095"/>
<g id="a_edge23&#45;headlabel"><a xlink:href="dir_000008_000003.html" target="_top" xlink:title="1">
<text text-anchor="middle" x="137.1164" y="-293.7742" font-family="Helvetica,sans-Serif" font-size="10.00" fill="#000000">1</text>
</a>
</g>
</g>
<!-- dir_66f3f3dae83f5c1ca431cfa8ee514064&#45;&gt;dir_608a06ce4a9e8522a04d92d6b87b6029 -->
<g id="edge22" class="edge">
<title>dir_66f3f3dae83f5c1ca431cfa8ee514064&#45;&gt;dir_608a06ce4a9e8522a04d92d6b87b6029</title>
<path fill="none" stroke="#000000" d="M95.4927,-231.9183C88.8273,-212.8586 81.8587,-182.5329 94,-160 103.7558,-141.8943 122.5307,-128.8602 139.6559,-120.1389"/>
<polygon fill="#000000" stroke="#000000" points="141.4013,-123.1847 148.9325,-115.7327 138.398,-116.8617 141.4013,-123.1847"/>
<g id="a_edge22&#45;headlabel"><a xlink:href="dir_000008_000010.html" target="_top" xlink:title="3">
<text text-anchor="middle" x="139.3725" y="-124.7916" font-family="Helvetica,sans-Serif" font-size="10.00" fill="#000000">3</text>
</a>
</g>
</g>
<!-- dir_66f3f3dae83f5c1ca431cfa8ee514064&#45;&gt;dir_835d68fe110b5be82c2962ab9d4c9d0f -->
<g id="edge21" class="edge">
<title>dir_66f3f3dae83f5c1ca431cfa8ee514064&#45;&gt;dir_835d68fe110b5be82c2962ab9d4c9d0f</title>
<path fill="none" stroke="#000000" d="M109.8132,-231.8314C112.7644,-223.9617 116.2858,-214.5712 119.555,-205.8533"/>
<polygon fill="#000000" stroke="#000000" points="122.8609,-207.0055 123.095,-196.4133 116.3066,-204.5476 122.8609,-207.0055"/>
<g id="a_edge21&#45;headlabel"><a xlink:href="dir_000008_000014.html" target="_top" xlink:title="1">
<text text-anchor="middle" x="124.2573" y="-208.8682" font-family="Helvetica,sans-Serif" font-size="10.00" fill="#000000">1</text>
</a>
</g>
</g>
<!-- dir_66f3f3dae83f5c1ca431cfa8ee514064&#45;&gt;dir_267116d250309cbe7bd39c0026ee016a -->
<g id="edge20" class="edge">
<title>dir_66f3f3dae83f5c1ca431cfa8ee514064&#45;&gt;dir_267116d250309cbe7bd39c0026ee016a</title>
<path fill="none" stroke="#000000" d="M130.2047,-243.2008C172.2541,-232.5666 251.9272,-211.8921 292.4495,-197.0566"/>
<polygon fill="#000000" stroke="#000000" points="293.7948,-200.289 301.8615,-193.4203 291.2721,-193.7594 293.7948,-200.289"/>
<g id="a_edge20&#45;headlabel"><a xlink:href="dir_000008_000023.html" target="_top" xlink:title="1">
<text text-anchor="middle" x="291.465" y="-201.7329" font-family="Helvetica,sans-Serif" font-size="10.00" fill="#000000">1</text>
</a>
</g>
</g>
<!-- dir_e558b8e126febdf8b95f4d8be0195ecf -->
<g id="node10" class="node">
<title>dir_e558b8e126febdf8b95f4d8be0195ecf</title>
<g id="a_node10"><a xlink:href="dir_e558b8e126febdf8b95f4d8be0195ecf.html" target="_top" xlink:title="type">
<polygon fill="#ffffff" stroke="#ff0000" points="203,-52 149,-52 149,-16 203,-16 203,-52"/>
<text text-anchor="middle" x="176" y="-31.5" font-family="Helvetica,sans-Serif" font-size="10.00" fill="#000000">type</text>
</a>
</g>
</g>
<!-- dir_608a06ce4a9e8522a04d92d6b87b6029&#45;&gt;dir_e558b8e126febdf8b95f4d8be0195ecf -->
<g id="edge26" class="edge">
<title>dir_608a06ce4a9e8522a04d92d6b87b6029&#45;&gt;dir_e558b8e126febdf8b95f4d8be0195ecf</title>
<path fill="none" stroke="#000000" d="M176,-87.8314C176,-80.131 176,-70.9743 176,-62.4166"/>
<polygon fill="#000000" stroke="#000000" points="179.5001,-62.4132 176,-52.4133 172.5001,-62.4133 179.5001,-62.4132"/>
<g id="a_edge26&#45;headlabel"><a xlink:href="dir_000010_000016.html" target="_top" xlink:title="2">
<text text-anchor="middle" x="182.3393" y="-63.5079" font-family="Helvetica,sans-Serif" font-size="10.00" fill="#000000">2</text>
</a>
</g>
</g>
<!-- dir_0a4e3b93f123f4f2e45990353486eba4&#45;&gt;dir_d55e902ee8ca40eb95d69786b7153853 -->
<g id="edge24" class="edge">
<title>dir_0a4e3b93f123f4f2e45990353486eba4&#45;&gt;dir_d55e902ee8ca40eb95d69786b7153853</title>
<path fill="none" stroke="#000000" d="M155.0476,-447.8314C154.2972,-440.131 154.0763,-430.9743 154.3849,-422.4166"/>
<polygon fill="#000000" stroke="#000000" points="157.8792,-422.6161 155.024,-412.4133 150.8935,-422.1697 157.8792,-422.6161"/>
<g id="a_edge24&#45;headlabel"><a xlink:href="dir_000012_000007.html" target="_top" xlink:title="1">
<text text-anchor="middle" x="160.4836" y="-423.8844" font-family="Helvetica,sans-Serif" font-size="10.00" fill="#000000">1</text>
</a>
</g>
</g>
<!-- dir_0a4e3b93f123f4f2e45990353486eba4&#45;&gt;dir_e558b8e126febdf8b95f4d8be0195ecf -->
<g id="edge25" class="edge">
<title>dir_0a4e3b93f123f4f2e45990353486eba4&#45;&gt;dir_e558b8e126febdf8b95f4d8be0195ecf</title>
<path fill="none" stroke="#000000" d="M126.874,-450.4565C84.2913,-428.4445 17,-383.8718 17,-322 17,-322 17,-322 17,-178 17,-112.323 92.452,-68.7978 139.4029,-48.0715"/>
<polygon fill="#000000" stroke="#000000" points="140.8468,-51.2607 148.6669,-44.1126 138.096,-44.8238 140.8468,-51.2607"/>
<g id="a_edge25&#45;headlabel"><a xlink:href="dir_000012_000016.html" target="_top" xlink:title="1">
<text text-anchor="middle" x="138.657" y="-52.7841" font-family="Helvetica,sans-Serif" font-size="10.00" fill="#000000">1</text>
</a>
</g>
</g>
<!-- dir_835d68fe110b5be82c2962ab9d4c9d0f&#45;&gt;dir_608a06ce4a9e8522a04d92d6b87b6029 -->
<g id="edge18" class="edge">
<title>dir_835d68fe110b5be82c2962ab9d4c9d0f&#45;&gt;dir_608a06ce4a9e8522a04d92d6b87b6029</title>
<path fill="none" stroke="#000000" d="M141.6077,-159.8314C146.7978,-151.7079 153.0232,-141.9637 158.7425,-133.0118"/>
<polygon fill="#000000" stroke="#000000" points="161.8015,-134.7246 164.236,-124.4133 155.9026,-130.9559 161.8015,-134.7246"/>
<g id="a_edge18&#45;headlabel"><a xlink:href="dir_000014_000010.html" target="_top" xlink:title="2">
<text text-anchor="middle" x="162.2589" y="-136.7824" font-family="Helvetica,sans-Serif" font-size="10.00" fill="#000000">2</text>
</a>
</g>
</g>
<!-- dir_835d68fe110b5be82c2962ab9d4c9d0f&#45;&gt;dir_267116d250309cbe7bd39c0026ee016a -->
<g id="edge17" class="edge">
<title>dir_835d68fe110b5be82c2962ab9d4c9d0f&#45;&gt;dir_267116d250309cbe7bd39c0026ee016a</title>
<path fill="none" stroke="#000000" d="M157.207,-178C202.0226,-178 246.8381,-178 291.6536,-178"/>
<polygon fill="#000000" stroke="#000000" points="291.8218,-181.5001 301.8218,-178 291.8218,-174.5001 291.8218,-181.5001"/>
<g id="a_edge17&#45;headlabel"><a xlink:href="dir_000014_000023.html" target="_top" xlink:title="1">
<text text-anchor="middle" x="288.2272" y="-181.8393" font-family="Helvetica,sans-Serif" font-size="10.00" fill="#000000">1</text>
</a>
</g>
</g>
<!-- dir_e558b8e126febdf8b95f4d8be0195ecf&#45;&gt;dir_267116d250309cbe7bd39c0026ee016a -->
<g id="edge11" class="edge">
<title>dir_e558b8e126febdf8b95f4d8be0195ecf&#45;&gt;dir_267116d250309cbe7bd39c0026ee016a</title>
<path fill="none" stroke="#000000" d="M195.2202,-52.0896C222.2648,-77.5434 271.6597,-124.0326 302.2699,-152.8423"/>
<polygon fill="#000000" stroke="#000000" points="299.9416,-155.4573 309.6224,-159.7623 304.7392,-150.3599 299.9416,-155.4573"/>
<g id="a_edge11&#45;headlabel"><a xlink:href="dir_000016_000023.html" target="_top" xlink:title="1">
<text text-anchor="middle" x="295.3781" y="-152.5613" font-family="Helvetica,sans-Serif" font-size="10.00" fill="#000000">1</text>
</a>
</g>
</g>
<!-- dir_267116d250309cbe7bd39c0026ee016a&#45;&gt;dir_d55e902ee8ca40eb95d69786b7153853 -->
<g id="edge9" class="edge">
<title>dir_267116d250309cbe7bd39c0026ee016a&#45;&gt;dir_d55e902ee8ca40eb95d69786b7153853</title>
<path fill="none" stroke="#000000" d="M356.2392,-180.7183C386.9086,-185.3989 435.4026,-198.0432 458,-232 466.8642,-245.3201 463.0596,-252.8211 458,-268 445.3509,-305.9473 437.6115,-318.3144 404,-340 370.2563,-361.7709 257.4448,-380.3906 198.146,-388.9612"/>
<polygon fill="#000000" stroke="#000000" points="197.4794,-385.5207 188.0722,-390.3947 198.4656,-392.4508 197.4794,-385.5207"/>
<g id="a_edge9&#45;headlabel"><a xlink:href="dir_000023_000007.html" target="_top" xlink:title="1">
<text text-anchor="middle" x="200.6381" y="-379.7034" font-family="Helvetica,sans-Serif" font-size="10.00" fill="#000000">1</text>
</a>
</g>
</g>
<!-- dir_267116d250309cbe7bd39c0026ee016a&#45;&gt;dir_608a06ce4a9e8522a04d92d6b87b6029 -->
<g id="edge10" class="edge">
<title>dir_267116d250309cbe7bd39c0026ee016a&#45;&gt;dir_608a06ce4a9e8522a04d92d6b87b6029</title>
<path fill="none" stroke="#000000" d="M301.7137,-162.9076C299.7885,-161.9073 297.8702,-160.9292 296,-160 268.4874,-146.3312 236.7679,-132.1225 212.8524,-121.7127"/>
<polygon fill="#000000" stroke="#000000" points="214.0106,-118.4002 203.4432,-117.6377 211.2286,-124.8237 214.0106,-118.4002"/>
<g id="a_edge10&#45;headlabel"><a xlink:href="dir_000023_000010.html" target="_top" xlink:title="1">
<text text-anchor="middle" x="218.4375" y="-114.7233" font-family="Helvetica,sans-Serif" font-size="10.00" fill="#000000">1</text>
</a>
</g>
</g>
<!-- dir_572890c148f68441e050f6560d78312b&#45;&gt;dir_d55e902ee8ca40eb95d69786b7153853 -->
<g id="edge12" class="edge">
<title>dir_572890c148f68441e050f6560d78312b&#45;&gt;dir_d55e902ee8ca40eb95d69786b7153853</title>
<path fill="none" stroke="#000000" d="M386.0459,-268.1092C364.7349,-287.7537 328.4572,-319.1002 293,-340 262.5092,-357.9724 224.9133,-372.7105 197.6536,-382.2227"/>
<polygon fill="#000000" stroke="#000000" points="196.4395,-378.9388 188.1105,-385.487 198.7051,-385.562 196.4395,-378.9388"/>
<g id="a_edge12&#45;headlabel"><a xlink:href="dir_000025_000007.html" target="_top" xlink:title="2">
<text text-anchor="middle" x="198.9217" y="-372.589" font-family="Helvetica,sans-Serif" font-size="10.00" fill="#000000">2</text>
</a>
</g>
</g>
</g>
</svg>
