<?xml version="1.0" encoding="UTF-8" standalone="no"?>
<!DOCTYPE svg PUBLIC "-//W3C//DTD SVG 1.1//EN"
 "http://www.w3.org/Graphics/SVG/1.1/DTD/svg11.dtd">
<!-- Generated by graphviz version 2.40.1 (20161225.0304)
 -->
<!-- Title: main/memory Pages: 1 -->
<svg width="114pt" height="231pt"
 viewBox="0.00 0.00 114.00 231.00" xmlns="http://www.w3.org/2000/svg" xmlns:xlink="http://www.w3.org/1999/xlink">
<g id="graph0" class="graph" transform="scale(1 1) rotate(0) translate(4 227)">
<title>main/memory</title>
<polygon fill="#ffffff" stroke="transparent" points="-4,4 -4,-227 110,-227 110,4 -4,4"/>
<g id="clust1" class="cluster">
<title>clusterdir_5c982d53a68cdbcd421152b4020263a9</title>
<g id="a_clust1"><a xlink:href="dir_5c982d53a68cdbcd421152b4020263a9.html" target="_top" xlink:title="main">
<polygon fill="#ddddee" stroke="#000000" points="8,-56 8,-215 98,-215 98,-56 8,-56"/>
<text text-anchor="middle" x="53" y="-203" font-family="Helvetica,sans-Serif" font-size="10.00" fill="#000000">main</text>
</a>
</g>
</g>
<g id="clust2" class="cluster">
<title>clusterdir_54f5d1d9f0fa6067393036cb4af8fee6</title>
<g id="a_clust2"><a xlink:href="dir_54f5d1d9f0fa6067393036cb4af8fee6.html" target="_top">
<polygon fill="#eeeeff" stroke="#000000" points="16,-64 16,-188 90,-188 90,-64 16,-64"/>
</a>
</g>
</g>
<!-- dir_54f5d1d9f0fa6067393036cb4af8fee6 -->
<g id="node1" class="node">
<title>dir_54f5d1d9f0fa6067393036cb4af8fee6</title>
<text text-anchor="middle" x="53" y="-159.5" font-family="Helvetica,sans-Serif" font-size="10.00" fill="#000000">memory</text>
</g>
<!-- dir_f0bff7ca3af979b4b00d6dcb9440fd84 -->
<g id="node2" class="node">
<title>dir_f0bff7ca3af979b4b00d6dcb9440fd84</title>
<g id="a_node2"><a xlink:href="dir_f0bff7ca3af979b4b00d6dcb9440fd84.html" target="_top" xlink:title="include">
<polygon fill="#ffffff" stroke="#000000" points="80,-108 26,-108 26,-72 80,-72 80,-108"/>
<text text-anchor="middle" x="53" y="-87.5" font-family="Helvetica,sans-Serif" font-size="10.00" fill="#000000">include</text>
</a>
</g>
</g>
<!-- dir_54f5d1d9f0fa6067393036cb4af8fee6&#45;&gt;dir_f0bff7ca3af979b4b00d6dcb9440fd84 -->
<g id="edge3" class="edge">
<title>dir_54f5d1d9f0fa6067393036cb4af8fee6&#45;&gt;dir_f0bff7ca3af979b4b00d6dcb9440fd84</title>
<path fill="none" stroke="#000000" d="M53,-143.8314C53,-136.131 53,-126.9743 53,-118.4166"/>
<polygon fill="#000000" stroke="#000000" points="56.5001,-118.4132 53,-108.4133 49.5001,-118.4133 56.5001,-118.4132"/>
<g id="a_edge3&#45;headlabel"><a xlink:href="dir_000026_000027.html" target="_top" xlink:title="1">
<text text-anchor="middle" x="59.3393" y="-119.5079" font-family="Helvetica,sans-Serif" font-size="10.00" fill="#000000">1</text>
</a>
</g>
</g>
<!-- dir_f9352377262e2d6c535a8e1ae042e5ec -->
<g id="node3" class="node">
<title>dir_f9352377262e2d6c535a8e1ae042e5ec</title>
<g id="a_node3"><a xlink:href="dir_f9352377262e2d6c535a8e1ae042e5ec.html" target="_top" xlink:title="builtins">
<polygon fill="#ffffff" stroke="#ff0000" points="80,-36 26,-36 26,0 80,0 80,-36"/>
<text text-anchor="middle" x="53" y="-15.5" font-family="Helvetica,sans-Serif" font-size="10.00" fill="#000000">builtins</text>
</a>
</g>
</g>
<!-- dir_f0bff7ca3af979b4b00d6dcb9440fd84&#45;&gt;dir_f9352377262e2d6c535a8e1ae042e5ec -->
<g id="edge1" class="edge">
<title>dir_f0bff7ca3af979b4b00d6dcb9440fd84&#45;&gt;dir_f9352377262e2d6c535a8e1ae042e5ec</title>
<path fill="none" stroke="#000000" d="M47.0476,-71.8314C46.2972,-64.131 46.0763,-54.9743 46.3849,-46.4166"/>
<polygon fill="#000000" stroke="#000000" points="49.8792,-46.6161 47.024,-36.4133 42.8935,-46.1697 49.8792,-46.6161"/>
<g id="a_edge1&#45;headlabel"><a xlink:href="dir_000027_000001.html" target="_top" xlink:title="1">
<text text-anchor="middle" x="52.4836" y="-47.8844" font-family="Helvetica,sans-Serif" font-size="10.00" fill="#000000">1</text>
</a>
</g>
</g>
<!-- dir_f9352377262e2d6c535a8e1ae042e5ec&#45;&gt;dir_f0bff7ca3af979b4b00d6dcb9440fd84 -->
<g id="edge2" class="edge">
<title>dir_f9352377262e2d6c535a8e1ae042e5ec&#45;&gt;dir_f0bff7ca3af979b4b00d6dcb9440fd84</title>
<path fill="none" stroke="#000000" d="M58.976,-36.4133C59.7071,-44.0593 59.9203,-53.1084 59.6155,-61.5726"/>
<polygon fill="#000000" stroke="#000000" points="56.1048,-61.6264 58.9524,-71.8314 63.0902,-62.078 56.1048,-61.6264"/>
<g id="a_edge2&#45;headlabel"><a xlink:href="dir_000001_000027.html" target="_top" xlink:title="9">
<text text-anchor="middle" x="53.5032" y="-55.3562" font-family="Helvetica,sans-Serif" font-size="10.00" fill="#000000">9</text>
</a>
</g>
</g>
</g>
</svg>
