<?xml version="1.0" encoding="UTF-8" standalone="no"?>
<!DOCTYPE svg PUBLIC "-//W3C//DTD SVG 1.1//EN"
 "http://www.w3.org/Graphics/SVG/1.1/DTD/svg11.dtd">
<!-- Generated by graphviz version 2.40.1 (20161225.0304)
 -->
<!-- Title: builtins/include Pages: 1 -->
<svg width="375pt" height="439pt"
 viewBox="0.00 0.00 375.00 439.00" xmlns="http://www.w3.org/2000/svg" xmlns:xlink="http://www.w3.org/1999/xlink">
<g id="graph0" class="graph" transform="scale(1 1) rotate(0) translate(4 435)">
<title>builtins/include</title>
<polygon fill="#ffffff" stroke="transparent" points="-4,4 -4,-435 371,-435 371,4 -4,4"/>
<g id="clust1" class="cluster">
<title>clusterdir_96245007931de700bb8a76b2e98ce70a</title>
<g id="a_clust1"><a xlink:href="dir_96245007931de700bb8a76b2e98ce70a.html" target="_top" xlink:title="builtins">
<polygon fill="#ddddee" stroke="#000000" points="172,-352 172,-423 242,-423 242,-352 172,-352"/>
<text text-anchor="middle" x="207" y="-411" font-family="Helvetica,sans-Serif" font-size="10.00" fill="#000000">builtins</text>
</a>
</g>
</g>
<!-- dir_d55e902ee8ca40eb95d69786b7153853 -->
<g id="node1" class="node">
<title>dir_d55e902ee8ca40eb95d69786b7153853</title>
<g id="a_node1"><a xlink:href="dir_d55e902ee8ca40eb95d69786b7153853.html" target="_top" xlink:title="include">
<polygon fill="#eeeeff" stroke="#000000" points="234,-396 180,-396 180,-360 234,-360 234,-396"/>
<text text-anchor="middle" x="207" y="-375.5" font-family="Helvetica,sans-Serif" font-size="10.00" fill="#000000">include</text>
</a>
</g>
</g>
<!-- dir_267116d250309cbe7bd39c0026ee016a -->
<g id="node2" class="node">
<title>dir_267116d250309cbe7bd39c0026ee016a</title>
<g id="a_node2"><a xlink:href="dir_267116d250309cbe7bd39c0026ee016a.html" target="_top" xlink:title="memory">
<polygon fill="#ffffff" stroke="#ff0000" points="196,-108 142,-108 142,-72 196,-72 196,-108"/>
<text text-anchor="middle" x="169" y="-87.5" font-family="Helvetica,sans-Serif" font-size="10.00" fill="#000000">memory</text>
</a>
</g>
</g>
<!-- dir_d55e902ee8ca40eb95d69786b7153853&#45;&gt;dir_267116d250309cbe7bd39c0026ee016a -->
<g id="edge1" class="edge">
<title>dir_d55e902ee8ca40eb95d69786b7153853&#45;&gt;dir_267116d250309cbe7bd39c0026ee016a</title>
<path fill="none" stroke="#000000" d="M213.3597,-359.8223C226.454,-319.292 252.728,-219.1756 222,-144 217.5408,-133.0907 209.6975,-123.1954 201.3897,-114.9434"/>
<polygon fill="#000000" stroke="#000000" points="203.7552,-112.3637 194.0428,-108.1305 198.9955,-117.4965 203.7552,-112.3637"/>
<g id="a_edge1&#45;headlabel"><a xlink:href="dir_000005_000017.html" target="_top" xlink:title="1">
<text text-anchor="middle" x="208.3215" y="-110.226" font-family="Helvetica,sans-Serif" font-size="10.00" fill="#000000">1</text>
</a>
</g>
</g>
<!-- dir_835d68fe110b5be82c2962ab9d4c9d0f -->
<g id="node3" class="node">
<title>dir_835d68fe110b5be82c2962ab9d4c9d0f</title>
<g id="a_node3"><a xlink:href="dir_835d68fe110b5be82c2962ab9d4c9d0f.html" target="_top" xlink:title="string">
<polygon fill="#ffffff" stroke="#ff0000" points="196,-180 142,-180 142,-144 196,-144 196,-180"/>
<text text-anchor="middle" x="169" y="-159.5" font-family="Helvetica,sans-Serif" font-size="10.00" fill="#000000">string</text>
</a>
</g>
</g>
<!-- dir_d55e902ee8ca40eb95d69786b7153853&#45;&gt;dir_835d68fe110b5be82c2962ab9d4c9d0f -->
<g id="edge2" class="edge">
<title>dir_d55e902ee8ca40eb95d69786b7153853&#45;&gt;dir_835d68fe110b5be82c2962ab9d4c9d0f</title>
<path fill="none" stroke="#000000" d="M207.9464,-359.954C208.5887,-341.6996 208.7433,-312.7244 205,-288 199.7619,-253.4023 187.8228,-214.8949 179.1257,-189.6649"/>
<polygon fill="#000000" stroke="#000000" points="182.3598,-188.311 175.7415,-180.0376 175.7559,-190.6324 182.3598,-188.311"/>
<g id="a_edge2&#45;headlabel"><a xlink:href="dir_000005_000010.html" target="_top" xlink:title="1">
<text text-anchor="middle" x="186.2304" y="-188.2606" font-family="Helvetica,sans-Serif" font-size="10.00" fill="#000000">1</text>
</a>
</g>
</g>
<!-- dir_1c5debea106edff2946b598282d156d8 -->
<g id="node4" class="node">
<title>dir_1c5debea106edff2946b598282d156d8</title>
<g id="a_node4"><a xlink:href="dir_1c5debea106edff2946b598282d156d8.html" target="_top" xlink:title="hashmap">
<polygon fill="#ffffff" stroke="#ff0000" points="367,-324 311,-324 311,-288 367,-288 367,-324"/>
<text text-anchor="middle" x="339" y="-303.5" font-family="Helvetica,sans-Serif" font-size="10.00" fill="#000000">hashmap</text>
</a>
</g>
</g>
<!-- dir_d55e902ee8ca40eb95d69786b7153853&#45;&gt;dir_1c5debea106edff2946b598282d156d8 -->
<g id="edge3" class="edge">
<title>dir_d55e902ee8ca40eb95d69786b7153853&#45;&gt;dir_1c5debea106edff2946b598282d156d8</title>
<path fill="none" stroke="#000000" d="M234.0307,-363.256C253.5661,-352.6003 280.1982,-338.0737 301.7481,-326.3192"/>
<polygon fill="#000000" stroke="#000000" points="303.5341,-329.3319 310.6371,-321.4707 300.1821,-323.1866 303.5341,-329.3319"/>
<g id="a_edge3&#45;headlabel"><a xlink:href="dir_000005_000003.html" target="_top" xlink:title="1">
<text text-anchor="middle" x="301.738" y="-331.0457" font-family="Helvetica,sans-Serif" font-size="10.00" fill="#000000">1</text>
</a>
</g>
</g>
<!-- dir_66f3f3dae83f5c1ca431cfa8ee514064 -->
<g id="node5" class="node">
<title>dir_66f3f3dae83f5c1ca431cfa8ee514064</title>
<g id="a_node5"><a xlink:href="dir_66f3f3dae83f5c1ca431cfa8ee514064.html" target="_top" xlink:title="integer">
<polygon fill="#ffffff" stroke="#ff0000" points="196,-324 142,-324 142,-288 196,-288 196,-324"/>
<text text-anchor="middle" x="169" y="-303.5" font-family="Helvetica,sans-Serif" font-size="10.00" fill="#000000">integer</text>
</a>
</g>
</g>
<!-- dir_d55e902ee8ca40eb95d69786b7153853&#45;&gt;dir_66f3f3dae83f5c1ca431cfa8ee514064 -->
<g id="edge4" class="edge">
<title>dir_d55e902ee8ca40eb95d69786b7153853&#45;&gt;dir_66f3f3dae83f5c1ca431cfa8ee514064</title>
<path fill="none" stroke="#000000" d="M197.411,-359.8314C193.1683,-351.7925 188.0879,-342.1666 183.404,-333.2918"/>
<polygon fill="#000000" stroke="#000000" points="186.4811,-331.6235 178.7181,-324.4133 180.2904,-334.8908 186.4811,-331.6235"/>
<g id="a_edge4&#45;headlabel"><a xlink:href="dir_000005_000006.html" target="_top" xlink:title="1">
<text text-anchor="middle" x="190.6699" y="-330.9772" font-family="Helvetica,sans-Serif" font-size="10.00" fill="#000000">1</text>
</a>
</g>
</g>
<!-- dir_608a06ce4a9e8522a04d92d6b87b6029 -->
<g id="node6" class="node">
<title>dir_608a06ce4a9e8522a04d92d6b87b6029</title>
<g id="a_node6"><a xlink:href="dir_608a06ce4a9e8522a04d92d6b87b6029.html" target="_top" xlink:title="object">
<polygon fill="#ffffff" stroke="#ff0000" points="122,-36 68,-36 68,0 122,0 122,-36"/>
<text text-anchor="middle" x="95" y="-15.5" font-family="Helvetica,sans-Serif" font-size="10.00" fill="#000000">object</text>
</a>
</g>
</g>
<!-- dir_d55e902ee8ca40eb95d69786b7153853&#45;&gt;dir_608a06ce4a9e8522a04d92d6b87b6029 -->
<g id="edge5" class="edge">
<title>dir_d55e902ee8ca40eb95d69786b7153853&#45;&gt;dir_608a06ce4a9e8522a04d92d6b87b6029</title>
<path fill="none" stroke="#000000" d="M179.9384,-372.5226C123.8286,-359.4186 0,-320.6802 0,-234 0,-234 0,-234 0,-162 0,-114.0912 37.0913,-69.8312 64.921,-43.3654"/>
<polygon fill="#000000" stroke="#000000" points="67.5108,-45.7382 72.4863,-36.3843 62.7636,-40.5938 67.5108,-45.7382"/>
<g id="a_edge5&#45;headlabel"><a xlink:href="dir_000005_000008.html" target="_top" xlink:title="1">
<text text-anchor="middle" x="66.7945" y="-47.7625" font-family="Helvetica,sans-Serif" font-size="10.00" fill="#000000">1</text>
</a>
</g>
</g>
<!-- dir_7f0c039cf765669d984ed76edfe1aa5b -->
<g id="node7" class="node">
<title>dir_7f0c039cf765669d984ed76edfe1aa5b</title>
<g id="a_node7"><a xlink:href="dir_7f0c039cf765669d984ed76edfe1aa5b.html" target="_top" xlink:title="float">
<polygon fill="#ffffff" stroke="#ff0000" points="141,-252 87,-252 87,-216 141,-216 141,-252"/>
<text text-anchor="middle" x="114" y="-231.5" font-family="Helvetica,sans-Serif" font-size="10.00" fill="#000000">float</text>
</a>
</g>
</g>
<!-- dir_d55e902ee8ca40eb95d69786b7153853&#45;&gt;dir_7f0c039cf765669d984ed76edfe1aa5b -->
<g id="edge6" class="edge">
<title>dir_d55e902ee8ca40eb95d69786b7153853&#45;&gt;dir_7f0c039cf765669d984ed76edfe1aa5b</title>
<path fill="none" stroke="#000000" d="M179.7601,-364.6717C163.7213,-355.4325 144.4033,-341.6264 133,-324 121.1253,-305.645 116.5174,-281.1849 114.8001,-262.3976"/>
<polygon fill="#000000" stroke="#000000" points="118.2868,-262.0836 114.1027,-252.3501 111.3036,-262.5684 118.2868,-262.0836"/>
<g id="a_edge6&#45;headlabel"><a xlink:href="dir_000005_000001.html" target="_top" xlink:title="1">
<text text-anchor="middle" x="121.3681" y="-262.9731" font-family="Helvetica,sans-Serif" font-size="10.00" fill="#000000">1</text>
</a>
</g>
</g>
<!-- dir_267116d250309cbe7bd39c0026ee016a&#45;&gt;dir_608a06ce4a9e8522a04d92d6b87b6029 -->
<g id="edge7" class="edge">
<title>dir_267116d250309cbe7bd39c0026ee016a&#45;&gt;dir_608a06ce4a9e8522a04d92d6b87b6029</title>
<path fill="none" stroke="#000000" d="M150.3267,-71.8314C141.4751,-63.219 130.7514,-52.7851 121.1105,-43.4048"/>
<polygon fill="#000000" stroke="#000000" points="123.2754,-40.6279 113.6674,-36.1628 118.3939,-45.645 123.2754,-40.6279"/>
<g id="a_edge7&#45;headlabel"><a xlink:href="dir_000017_000008.html" target="_top" xlink:title="1">
<text text-anchor="middle" x="127.8317" y="-38.5996" font-family="Helvetica,sans-Serif" font-size="10.00" fill="#000000">1</text>
</a>
</g>
</g>
<!-- dir_835d68fe110b5be82c2962ab9d4c9d0f&#45;&gt;dir_267116d250309cbe7bd39c0026ee016a -->
<g id="edge8" class="edge">
<title>dir_835d68fe110b5be82c2962ab9d4c9d0f&#45;&gt;dir_267116d250309cbe7bd39c0026ee016a</title>
<path fill="none" stroke="#000000" d="M169,-143.8314C169,-136.131 169,-126.9743 169,-118.4166"/>
<polygon fill="#000000" stroke="#000000" points="172.5001,-118.4132 169,-108.4133 165.5001,-118.4133 172.5001,-118.4132"/>
<g id="a_edge8&#45;headlabel"><a xlink:href="dir_000010_000017.html" target="_top" xlink:title="1">
<text text-anchor="middle" x="175.3393" y="-119.5079" font-family="Helvetica,sans-Serif" font-size="10.00" fill="#000000">1</text>
</a>
</g>
</g>
<!-- dir_835d68fe110b5be82c2962ab9d4c9d0f&#45;&gt;dir_608a06ce4a9e8522a04d92d6b87b6029 -->
<g id="edge9" class="edge">
<title>dir_835d68fe110b5be82c2962ab9d4c9d0f&#45;&gt;dir_608a06ce4a9e8522a04d92d6b87b6029</title>
<path fill="none" stroke="#000000" d="M155.438,-143.5475C148.2749,-133.3566 139.6216,-120.3027 133,-108 122.0804,-87.712 112.0496,-63.6131 105.039,-45.4605"/>
<polygon fill="#000000" stroke="#000000" points="108.2882,-44.1576 101.4685,-36.0494 101.7434,-46.6407 108.2882,-44.1576"/>
<g id="a_edge9&#45;headlabel"><a xlink:href="dir_000010_000008.html" target="_top" xlink:title="2">
<text text-anchor="middle" x="112.2179" y="-44.0113" font-family="Helvetica,sans-Serif" font-size="10.00" fill="#000000">2</text>
</a>
</g>
</g>
<!-- dir_1c5debea106edff2946b598282d156d8&#45;&gt;dir_608a06ce4a9e8522a04d92d6b87b6029 -->
<g id="edge10" class="edge">
<title>dir_1c5debea106edff2946b598282d156d8&#45;&gt;dir_608a06ce4a9e8522a04d92d6b87b6029</title>
<path fill="none" stroke="#000000" d="M332.8341,-287.7942C317.5251,-244.9899 273.9638,-136.7039 205,-72 184.0939,-52.3853 154.7195,-38.4583 131.584,-29.6659"/>
<polygon fill="#000000" stroke="#000000" points="132.6876,-26.343 122.0936,-26.2104 130.2927,-32.9205 132.6876,-26.343"/>
<g id="a_edge10&#45;headlabel"><a xlink:href="dir_000003_000008.html" target="_top" xlink:title="1">
<text text-anchor="middle" x="137.0367" y="-22.4048" font-family="Helvetica,sans-Serif" font-size="10.00" fill="#000000">1</text>
</a>
</g>
</g>
<!-- dir_66f3f3dae83f5c1ca431cfa8ee514064&#45;&gt;dir_267116d250309cbe7bd39c0026ee016a -->
<g id="edge11" class="edge">
<title>dir_66f3f3dae83f5c1ca431cfa8ee514064&#45;&gt;dir_267116d250309cbe7bd39c0026ee016a</title>
<path fill="none" stroke="#000000" d="M179.0862,-287.7911C194.4883,-257.5675 220.5291,-195.2892 205,-144 202.0436,-134.2355 196.6748,-124.6229 190.97,-116.2762"/>
<polygon fill="#000000" stroke="#000000" points="193.7129,-114.0973 184.9905,-108.0831 188.0586,-118.2239 193.7129,-114.0973"/>
<g id="a_edge11&#45;headlabel"><a xlink:href="dir_000006_000017.html" target="_top" xlink:title="1">
<text text-anchor="middle" x="198.1253" y="-112.827" font-family="Helvetica,sans-Serif" font-size="10.00" fill="#000000">1</text>
</a>
</g>
</g>
<!-- dir_66f3f3dae83f5c1ca431cfa8ee514064&#45;&gt;dir_835d68fe110b5be82c2962ab9d4c9d0f -->
<g id="edge12" class="edge">
<title>dir_66f3f3dae83f5c1ca431cfa8ee514064&#45;&gt;dir_835d68fe110b5be82c2962ab9d4c9d0f</title>
<path fill="none" stroke="#000000" d="M169,-287.7623C169,-263.201 169,-219.2474 169,-190.3541"/>
<polygon fill="#000000" stroke="#000000" points="172.5001,-190.0896 169,-180.0896 165.5001,-190.0897 172.5001,-190.0896"/>
<g id="a_edge12&#45;headlabel"><a xlink:href="dir_000006_000010.html" target="_top" xlink:title="1">
<text text-anchor="middle" x="175.3393" y="-191.1842" font-family="Helvetica,sans-Serif" font-size="10.00" fill="#000000">1</text>
</a>
</g>
</g>
<!-- dir_66f3f3dae83f5c1ca431cfa8ee514064&#45;&gt;dir_608a06ce4a9e8522a04d92d6b87b6029 -->
<g id="edge13" class="edge">
<title>dir_66f3f3dae83f5c1ca431cfa8ee514064&#45;&gt;dir_608a06ce4a9e8522a04d92d6b87b6029</title>
<path fill="none" stroke="#000000" d="M141.6953,-298.0514C120.1494,-290.1773 91.5443,-275.7867 78,-252 40.4311,-186.0208 66.5856,-92.063 83.5835,-45.8518"/>
<polygon fill="#000000" stroke="#000000" points="86.9637,-46.8099 87.2514,-36.219 80.4219,-44.3189 86.9637,-46.8099"/>
<g id="a_edge13&#45;headlabel"><a xlink:href="dir_000006_000008.html" target="_top" xlink:title="3">
<text text-anchor="middle" x="88.338" y="-48.6796" font-family="Helvetica,sans-Serif" font-size="10.00" fill="#000000">3</text>
</a>
</g>
</g>
<!-- dir_66f3f3dae83f5c1ca431cfa8ee514064&#45;&gt;dir_7f0c039cf765669d984ed76edfe1aa5b -->
<g id="edge14" class="edge">
<title>dir_66f3f3dae83f5c1ca431cfa8ee514064&#45;&gt;dir_7f0c039cf765669d984ed76edfe1aa5b</title>
<path fill="none" stroke="#000000" d="M149.1688,-287.8314C142.0988,-279.6232 134.3665,-269.7606 127.8734,-260.7323"/>
<polygon fill="#000000" stroke="#000000" points="130.6718,-258.626 122.0897,-252.4133 124.9243,-262.6219 130.6718,-258.626"/>
<g id="a_edge14&#45;headlabel"><a xlink:href="dir_000006_000001.html" target="_top" xlink:title="1">
<text text-anchor="middle" x="135.0549" y="-257.4567" font-family="Helvetica,sans-Serif" font-size="10.00" fill="#000000">1</text>
</a>
</g>
</g>
<!-- dir_7f0c039cf765669d984ed76edfe1aa5b&#45;&gt;dir_267116d250309cbe7bd39c0026ee016a -->
<g id="edge15" class="edge">
<title>dir_7f0c039cf765669d984ed76edfe1aa5b&#45;&gt;dir_267116d250309cbe7bd39c0026ee016a</title>
<path fill="none" stroke="#000000" d="M115.7905,-215.8083C118.0888,-197.1875 123.0345,-167.7008 133,-144 136.9544,-134.5953 142.6152,-125.0879 148.2805,-116.727"/>
<polygon fill="#000000" stroke="#000000" points="151.1959,-118.6664 154.1147,-108.4815 145.4816,-114.6231 151.1959,-118.6664"/>
<g id="a_edge15&#45;headlabel"><a xlink:href="dir_000001_000017.html" target="_top" xlink:title="1">
<text text-anchor="middle" x="151.4374" y="-120.7406" font-family="Helvetica,sans-Serif" font-size="10.00" fill="#000000">1</text>
</a>
</g>
</g>
<!-- dir_7f0c039cf765669d984ed76edfe1aa5b&#45;&gt;dir_835d68fe110b5be82c2962ab9d4c9d0f -->
<g id="edge16" class="edge">
<title>dir_7f0c039cf765669d984ed76edfe1aa5b&#45;&gt;dir_835d68fe110b5be82c2962ab9d4c9d0f</title>
<path fill="none" stroke="#000000" d="M127.8788,-215.8314C134.2136,-207.5386 141.8384,-197.557 148.7926,-188.4533"/>
<polygon fill="#000000" stroke="#000000" points="151.6452,-190.4847 154.9343,-180.4133 146.0825,-186.2353 151.6452,-190.4847"/>
<g id="a_edge16&#45;headlabel"><a xlink:href="dir_000001_000010.html" target="_top" xlink:title="1">
<text text-anchor="middle" x="151.7195" y="-192.5647" font-family="Helvetica,sans-Serif" font-size="10.00" fill="#000000">1</text>
</a>
</g>
</g>
<!-- dir_7f0c039cf765669d984ed76edfe1aa5b&#45;&gt;dir_66f3f3dae83f5c1ca431cfa8ee514064 -->
<g id="edge17" class="edge">
<title>dir_7f0c039cf765669d984ed76edfe1aa5b&#45;&gt;dir_66f3f3dae83f5c1ca431cfa8ee514064</title>
<path fill="none" stroke="#000000" d="M134.0417,-252.4133C141.1246,-260.654 148.851,-270.5245 155.3194,-279.536"/>
<polygon fill="#000000" stroke="#000000" points="152.4981,-281.6095 161.0736,-287.8314 158.2498,-277.6197 152.4981,-281.6095"/>
<g id="a_edge17&#45;headlabel"><a xlink:href="dir_000001_000006.html" target="_top" xlink:title="1">
<text text-anchor="middle" x="148.1164" y="-277.7742" font-family="Helvetica,sans-Serif" font-size="10.00" fill="#000000">1</text>
</a>
</g>
</g>
<!-- dir_7f0c039cf765669d984ed76edfe1aa5b&#45;&gt;dir_608a06ce4a9e8522a04d92d6b87b6029 -->
<g id="edge18" class="edge">
<title>dir_7f0c039cf765669d984ed76edfe1aa5b&#45;&gt;dir_608a06ce4a9e8522a04d92d6b87b6029</title>
<path fill="none" stroke="#000000" d="M112.4128,-215.9555C109.1017,-178.3144 101.4377,-91.1867 97.4739,-46.1246"/>
<polygon fill="#000000" stroke="#000000" points="100.959,-45.7999 96.5961,-36.1451 93.9859,-46.4133 100.959,-45.7999"/>
<g id="a_edge18&#45;headlabel"><a xlink:href="dir_000001_000008.html" target="_top" xlink:title="3">
<text text-anchor="middle" x="104.1022" y="-46.6319" font-family="Helvetica,sans-Serif" font-size="10.00" fill="#000000">3</text>
</a>
</g>
</g>
</g>
</svg>
