<?xml version="1.0" encoding="UTF-8" standalone="no"?>
<!DOCTYPE svg PUBLIC "-//W3C//DTD SVG 1.1//EN"
 "http://www.w3.org/Graphics/SVG/1.1/DTD/svg11.dtd">
<!-- Generated by graphviz version 2.40.1 (20161225.0304)
 -->
<!-- Title: builtins Pages: 1 -->
<!--zoomable 508 -->
<svg id="main" version="1.1" xmlns="http://www.w3.org/2000/svg" xmlns:xlink="http://www.w3.org/1999/xlink" xml:space="preserve" onload="init(evt)">
<style type="text/css"><![CDATA[
.edge:hover path { stroke: red; }
.edge:hover polygon { stroke: red; fill: red; }
]]></style>
<script type="text/javascript"><![CDATA[
var edges = document.getElementsByTagName('g');
if (edges && edges.length) {
  for (var i=0;i<edges.length;i++) {
    if (edges[i].id.substr(0,4)=='edge') {
      edges[i].setAttribute('class','edge');
    }
  }
}
]]></script>
        <defs>
                <circle id="rim" cx="0" cy="0" r="7"/>
                <circle id="rim2" cx="0" cy="0" r="3.5"/>
                <g id="zoomPlus">
                        <use xlink:href="#rim" fill="#404040">
                                <set attributeName="fill" to="#808080" begin="zoomplus.mouseover" end="zoomplus.mouseout"/>
                        </use>
                        <path d="M-4,0h8M0,-4v8" fill="none" stroke="white" stroke-width="1.5" pointer-events="none"/>
                </g>
                <g id="zoomMin">
                        <use xlink:href="#rim" fill="#404040">
                                <set attributeName="fill" to="#808080" begin="zoomminus.mouseover" end="zoomminus.mouseout"/>
                        </use>
                        <path d="M-4,0h8" fill="none" stroke="white" stroke-width="1.5" pointer-events="none"/>
                </g>
                <g id="dirArrow">
                        <path fill="none" stroke="white" stroke-width="1.5" d="M0,-3.0v7 M-2.5,-0.5L0,-3.0L2.5,-0.5"/>
                </g>
               <g id="resetDef">
                       <use xlink:href="#rim2" fill="#404040">
                               <set attributeName="fill" to="#808080" begin="reset.mouseover" end="reset.mouseout"/>
                       </use>
               </g>
        </defs>

<script type="text/javascript">
var viewWidth = 496;
var viewHeight = 508;
var sectionId = 'dynsection-0';
</script>
<script xlink:href="svgpan.js"/>
<svg id="graph" class="graph">
<g id="viewport">
<title>builtins</title>
<polygon fill="#ffffff" stroke="transparent" points="-4,4 -4,-504 491.6727,-504 491.6727,4 -4,4"/>
<g id="clust1" class="cluster">
<title>clusterdir_96245007931de700bb8a76b2e98ce70a</title>
<g id="a_clust1"><a xlink:href="dir_96245007931de700bb8a76b2e98ce70a.html" target="_top">
<polygon fill="#eeeeff" stroke="#000000" points="89.6727,-8 89.6727,-492 423.6727,-492 423.6727,-8 89.6727,-8"/>
</a>
</g>
</g>
<!-- dir_96245007931de700bb8a76b2e98ce70a -->
<g id="node1" class="node">
<title>dir_96245007931de700bb8a76b2e98ce70a</title>
<text text-anchor="middle" x="376.6727" y="-463.5" font-family="Helvetica,sans-Serif" font-size="10.00" fill="#000000">builtins</text>
</g>
<!-- dir_d6cd80945d4bf03f62596b003a3d0f7d -->
<g id="node2" class="node">
<title>dir_d6cd80945d4bf03f62596b003a3d0f7d</title>
<g id="a_node2"><a xlink:href="dir_d6cd80945d4bf03f62596b003a3d0f7d.html" target="_top" xlink:title="boolean">
<polygon fill="#ffffff" stroke="#ff0000" points="223.6727,-268 169.6727,-268 169.6727,-232 223.6727,-232 223.6727,-268"/>
<text text-anchor="middle" x="196.6727" y="-247.5" font-family="Helvetica,sans-Serif" font-size="10.00" fill="#000000">boolean</text>
</a>
</g>
</g>
<!-- dir_608a06ce4a9e8522a04d92d6b87b6029 -->
<g id="node8" class="node">
<title>dir_608a06ce4a9e8522a04d92d6b87b6029</title>
<g id="a_node8"><a xlink:href="dir_608a06ce4a9e8522a04d92d6b87b6029.html" target="_top" xlink:title="object">
<polygon fill="#ffffff" stroke="#ff0000" points="284.6727,-124 230.6727,-124 230.6727,-88 284.6727,-88 284.6727,-124"/>
<text text-anchor="middle" x="257.6727" y="-103.5" font-family="Helvetica,sans-Serif" font-size="10.00" fill="#000000">object</text>
</a>
</g>
</g>
<!-- dir_d6cd80945d4bf03f62596b003a3d0f7d&#45;&gt;dir_608a06ce4a9e8522a04d92d6b87b6029 -->
<g id="edge29" class="edge">
<title>dir_d6cd80945d4bf03f62596b003a3d0f7d&#45;&gt;dir_608a06ce4a9e8522a04d92d6b87b6029</title>
<path fill="none" stroke="#000000" d="M193.0525,-231.834C190.1898,-212.973 188.2121,-183.0568 198.6727,-160 203.9614,-148.3428 213.0921,-138.0787 222.6119,-129.7161"/>
<polygon fill="#000000" stroke="#000000" points="225.1082,-132.1955 230.6242,-123.1498 220.6712,-126.7814 225.1082,-132.1955"/>
<g id="a_edge29&#45;headlabel"><a xlink:href="dir_000001_000012.html" target="_top" xlink:title="2">
<text text-anchor="middle" x="224.1276" y="-134.17" font-family="Helvetica,sans-Serif" font-size="10.00" fill="#000000">2</text>
</a>
</g>
</g>
<!-- dir_835d68fe110b5be82c2962ab9d4c9d0f -->
<g id="node10" class="node">
<title>dir_835d68fe110b5be82c2962ab9d4c9d0f</title>
<g id="a_node10"><a xlink:href="dir_835d68fe110b5be82c2962ab9d4c9d0f.html" target="_top" xlink:title="string">
<polygon fill="#ffffff" stroke="#ff0000" points="261.6727,-196 207.6727,-196 207.6727,-160 261.6727,-160 261.6727,-196"/>
<text text-anchor="middle" x="234.6727" y="-175.5" font-family="Helvetica,sans-Serif" font-size="10.00" fill="#000000">string</text>
</a>
</g>
</g>
<!-- dir_d6cd80945d4bf03f62596b003a3d0f7d&#45;&gt;dir_835d68fe110b5be82c2962ab9d4c9d0f -->
<g id="edge28" class="edge">
<title>dir_d6cd80945d4bf03f62596b003a3d0f7d&#45;&gt;dir_835d68fe110b5be82c2962ab9d4c9d0f</title>
<path fill="none" stroke="#000000" d="M206.2617,-231.8314C210.5044,-223.7925 215.5848,-214.1666 220.2687,-205.2918"/>
<polygon fill="#000000" stroke="#000000" points="223.3823,-206.8908 224.9546,-196.4133 217.1916,-203.6235 223.3823,-206.8908"/>
<g id="a_edge28&#45;headlabel"><a xlink:href="dir_000001_000016.html" target="_top" xlink:title="1">
<text text-anchor="middle" x="224.2155" y="-208.895" font-family="Helvetica,sans-Serif" font-size="10.00" fill="#000000">1</text>
</a>
</g>
</g>
<!-- dir_267116d250309cbe7bd39c0026ee016a -->
<g id="node12" class="node">
<title>dir_267116d250309cbe7bd39c0026ee016a</title>
<g id="a_node12"><a xlink:href="dir_267116d250309cbe7bd39c0026ee016a.html" target="_top" xlink:title="memory">
<polygon fill="#ffffff" stroke="#ff0000" points="81.6727,-196 27.6727,-196 27.6727,-160 81.6727,-160 81.6727,-196"/>
<text text-anchor="middle" x="54.6727" y="-175.5" font-family="Helvetica,sans-Serif" font-size="10.00" fill="#000000">memory</text>
</a>
</g>
</g>
<!-- dir_d6cd80945d4bf03f62596b003a3d0f7d&#45;&gt;dir_267116d250309cbe7bd39c0026ee016a -->
<g id="edge27" class="edge">
<title>dir_d6cd80945d4bf03f62596b003a3d0f7d&#45;&gt;dir_267116d250309cbe7bd39c0026ee016a</title>
<path fill="none" stroke="#000000" d="M169.5691,-236.3897C166.5707,-234.9015 163.5592,-233.4143 160.6727,-232 130.4526,-217.1933 120.1848,-213.8457 91.1697,-198.829"/>
<polygon fill="#000000" stroke="#000000" points="92.474,-195.561 81.992,-194.0187 89.2243,-201.761 92.474,-195.561"/>
<g id="a_edge27&#45;headlabel"><a xlink:href="dir_000001_000025.html" target="_top" xlink:title="1">
<text text-anchor="middle" x="96.9759" y="-192.215" font-family="Helvetica,sans-Serif" font-size="10.00" fill="#000000">1</text>
</a>
</g>
</g>
<!-- dir_6c90db5314e3398bb3690284b771412f -->
<g id="node3" class="node">
<title>dir_6c90db5314e3398bb3690284b771412f</title>
<g id="a_node3"><a xlink:href="dir_6c90db5314e3398bb3690284b771412f.html" target="_top" xlink:title="code">
<polygon fill="#ffffff" stroke="#ff0000" points="335.6727,-268 281.6727,-268 281.6727,-232 335.6727,-232 335.6727,-268"/>
<text text-anchor="middle" x="308.6727" y="-247.5" font-family="Helvetica,sans-Serif" font-size="10.00" fill="#000000">code</text>
</a>
</g>
</g>
<!-- dir_6c90db5314e3398bb3690284b771412f&#45;&gt;dir_608a06ce4a9e8522a04d92d6b87b6029 -->
<g id="edge16" class="edge">
<title>dir_6c90db5314e3398bb3690284b771412f&#45;&gt;dir_608a06ce4a9e8522a04d92d6b87b6029</title>
<path fill="none" stroke="#000000" d="M302.2135,-231.7623C293.4381,-206.9846 277.673,-162.4714 267.4455,-133.5939"/>
<polygon fill="#000000" stroke="#000000" points="270.7172,-132.3474 264.0794,-124.0896 264.1188,-134.6844 270.7172,-132.3474"/>
<g id="a_edge16&#45;headlabel"><a xlink:href="dir_000003_000012.html" target="_top" xlink:title="3">
<text text-anchor="middle" x="274.5935" y="-132.2879" font-family="Helvetica,sans-Serif" font-size="10.00" fill="#000000">3</text>
</a>
</g>
</g>
<!-- dir_6c90db5314e3398bb3690284b771412f&#45;&gt;dir_835d68fe110b5be82c2962ab9d4c9d0f -->
<g id="edge15" class="edge">
<title>dir_6c90db5314e3398bb3690284b771412f&#45;&gt;dir_835d68fe110b5be82c2962ab9d4c9d0f</title>
<path fill="none" stroke="#000000" d="M289.9994,-231.8314C281.1478,-223.219 270.4241,-212.7851 260.7832,-203.4048"/>
<polygon fill="#000000" stroke="#000000" points="262.9481,-200.6279 253.34,-196.1628 258.0666,-205.645 262.9481,-200.6279"/>
<g id="a_edge15&#45;headlabel"><a xlink:href="dir_000003_000016.html" target="_top" xlink:title="2">
<text text-anchor="middle" x="267.5044" y="-198.5996" font-family="Helvetica,sans-Serif" font-size="10.00" fill="#000000">2</text>
</a>
</g>
</g>
<!-- dir_6c90db5314e3398bb3690284b771412f&#45;&gt;dir_267116d250309cbe7bd39c0026ee016a -->
<g id="edge13" class="edge">
<title>dir_6c90db5314e3398bb3690284b771412f&#45;&gt;dir_267116d250309cbe7bd39c0026ee016a</title>
<path fill="none" stroke="#000000" d="M281.554,-243.5405C231.1228,-231.5157 125.2178,-206.2019 91.7712,-197.2497"/>
<polygon fill="#000000" stroke="#000000" points="92.421,-193.7932 81.8405,-194.3453 90.4559,-200.5118 92.421,-193.7932"/>
<g id="a_edge13&#45;headlabel"><a xlink:href="dir_000003_000025.html" target="_top" xlink:title="2">
<text text-anchor="middle" x="96.668" y="-189.5771" font-family="Helvetica,sans-Serif" font-size="10.00" fill="#000000">2</text>
</a>
</g>
</g>
<!-- dir_572890c148f68441e050f6560d78312b -->
<g id="node13" class="node">
<title>dir_572890c148f68441e050f6560d78312b</title>
<g id="a_node13"><a xlink:href="dir_572890c148f68441e050f6560d78312b.html" target="_top" xlink:title="parser">
<polygon fill="#ffffff" stroke="#ff0000" points="487.6727,-196 433.6727,-196 433.6727,-160 487.6727,-160 487.6727,-196"/>
<text text-anchor="middle" x="460.6727" y="-175.5" font-family="Helvetica,sans-Serif" font-size="10.00" fill="#000000">parser</text>
</a>
</g>
</g>
<!-- dir_6c90db5314e3398bb3690284b771412f&#45;&gt;dir_572890c148f68441e050f6560d78312b -->
<g id="edge14" class="edge">
<title>dir_6c90db5314e3398bb3690284b771412f&#45;&gt;dir_572890c148f68441e050f6560d78312b</title>
<path fill="none" stroke="#000000" d="M335.8776,-238.3337C358.1785,-228.6233 390.714,-214.123 424.3468,-197.5704"/>
<polygon fill="#000000" stroke="#000000" points="425.9815,-200.6664 433.383,-193.0856 422.8695,-194.3962 425.9815,-200.6664"/>
<g id="a_edge14&#45;headlabel"><a xlink:href="dir_000003_000027.html" target="_top" xlink:title="2">
<text text-anchor="middle" x="424.0239" y="-202.3077" font-family="Helvetica,sans-Serif" font-size="10.00" fill="#000000">2</text>
</a>
</g>
</g>
<!-- dir_7f0c039cf765669d984ed76edfe1aa5b -->
<g id="node4" class="node">
<title>dir_7f0c039cf765669d984ed76edfe1aa5b</title>
<g id="a_node4"><a xlink:href="dir_7f0c039cf765669d984ed76edfe1aa5b.html" target="_top" xlink:title="float">
<polygon fill="#ffffff" stroke="#ff0000" points="220.6727,-340 166.6727,-340 166.6727,-304 220.6727,-304 220.6727,-340"/>
<text text-anchor="middle" x="193.6727" y="-319.5" font-family="Helvetica,sans-Serif" font-size="10.00" fill="#000000">float</text>
</a>
</g>
</g>
<!-- dir_66f3f3dae83f5c1ca431cfa8ee514064 -->
<g id="node7" class="node">
<title>dir_66f3f3dae83f5c1ca431cfa8ee514064</title>
<g id="a_node7"><a xlink:href="dir_66f3f3dae83f5c1ca431cfa8ee514064.html" target="_top" xlink:title="integer">
<polygon fill="#ffffff" stroke="#ff0000" points="151.6727,-268 97.6727,-268 97.6727,-232 151.6727,-232 151.6727,-268"/>
<text text-anchor="middle" x="124.6727" y="-247.5" font-family="Helvetica,sans-Serif" font-size="10.00" fill="#000000">integer</text>
</a>
</g>
</g>
<!-- dir_7f0c039cf765669d984ed76edfe1aa5b&#45;&gt;dir_66f3f3dae83f5c1ca431cfa8ee514064 -->
<g id="edge32" class="edge">
<title>dir_7f0c039cf765669d984ed76edfe1aa5b&#45;&gt;dir_66f3f3dae83f5c1ca431cfa8ee514064</title>
<path fill="none" stroke="#000000" d="M170.3087,-303.8314C161.3746,-295.3694 151.3948,-285.1489 142.9828,-275.8971"/>
<polygon fill="#000000" stroke="#000000" points="145.5976,-273.5706 136.3427,-268.4133 140.3615,-278.2164 145.5976,-273.5706"/>
<g id="a_edge32&#45;headlabel"><a xlink:href="dir_000005_000010.html" target="_top" xlink:title="1">
<text text-anchor="middle" x="150.1071" y="-271.875" font-family="Helvetica,sans-Serif" font-size="10.00" fill="#000000">1</text>
</a>
</g>
</g>
<!-- dir_7f0c039cf765669d984ed76edfe1aa5b&#45;&gt;dir_608a06ce4a9e8522a04d92d6b87b6029 -->
<g id="edge33" class="edge">
<title>dir_7f0c039cf765669d984ed76edfe1aa5b&#45;&gt;dir_608a06ce4a9e8522a04d92d6b87b6029</title>
<path fill="none" stroke="#000000" d="M220.8974,-316.19C260.3026,-307.1659 330.1227,-288.6558 344.6727,-268 353.8867,-254.9194 350.5839,-246.868 344.6727,-232 336.5419,-211.5492 323.8954,-213.5928 310.6727,-196 302.39,-184.9799 285.2493,-155.3008 272.6948,-133.0153"/>
<polygon fill="#000000" stroke="#000000" points="275.747,-131.3023 267.802,-124.2932 269.642,-134.727 275.747,-131.3023"/>
<g id="a_edge33&#45;headlabel"><a xlink:href="dir_000005_000012.html" target="_top" xlink:title="4">
<text text-anchor="middle" x="279.9818" y="-130.5482" font-family="Helvetica,sans-Serif" font-size="10.00" fill="#000000">4</text>
</a>
</g>
</g>
<!-- dir_7f0c039cf765669d984ed76edfe1aa5b&#45;&gt;dir_835d68fe110b5be82c2962ab9d4c9d0f -->
<g id="edge31" class="edge">
<title>dir_7f0c039cf765669d984ed76edfe1aa5b&#45;&gt;dir_835d68fe110b5be82c2962ab9d4c9d0f</title>
<path fill="none" stroke="#000000" d="M211.2595,-303.6109C219.4113,-293.8433 228.2567,-281.1559 232.6727,-268 239.3349,-248.1524 239.5725,-224.4331 238.2849,-206.3284"/>
<polygon fill="#000000" stroke="#000000" points="241.7487,-205.7708 237.3589,-196.1282 234.7774,-206.4037 241.7487,-205.7708"/>
<g id="a_edge31&#45;headlabel"><a xlink:href="dir_000005_000016.html" target="_top" xlink:title="2">
<text text-anchor="middle" x="244.9013" y="-206.594" font-family="Helvetica,sans-Serif" font-size="10.00" fill="#000000">2</text>
</a>
</g>
</g>
<!-- dir_7f0c039cf765669d984ed76edfe1aa5b&#45;&gt;dir_267116d250309cbe7bd39c0026ee016a -->
<g id="edge30" class="edge">
<title>dir_7f0c039cf765669d984ed76edfe1aa5b&#45;&gt;dir_267116d250309cbe7bd39c0026ee016a</title>
<path fill="none" stroke="#000000" d="M166.498,-314.1747C142.9796,-306.1199 109.5524,-291.4023 88.6727,-268 73.1918,-250.6488 64.4934,-225.5527 59.7788,-206.2668"/>
<polygon fill="#000000" stroke="#000000" points="63.1361,-205.2399 57.5518,-196.2363 56.3026,-206.7572 63.1361,-205.2399"/>
<g id="a_edge30&#45;headlabel"><a xlink:href="dir_000005_000025.html" target="_top" xlink:title="2">
<text text-anchor="middle" x="66.687" y="-205.6337" font-family="Helvetica,sans-Serif" font-size="10.00" fill="#000000">2</text>
</a>
</g>
</g>
<!-- dir_1c5debea106edff2946b598282d156d8 -->
<g id="node5" class="node">
<title>dir_1c5debea106edff2946b598282d156d8</title>
<g id="a_node5"><a xlink:href="dir_1c5debea106edff2946b598282d156d8.html" target="_top" xlink:title="hashmap">
<polygon fill="#ffffff" stroke="#ff0000" points="375.6727,-196 319.6727,-196 319.6727,-160 375.6727,-160 375.6727,-196"/>
<text text-anchor="middle" x="347.6727" y="-175.5" font-family="Helvetica,sans-Serif" font-size="10.00" fill="#000000">hashmap</text>
</a>
</g>
</g>
<!-- dir_1c5debea106edff2946b598282d156d8&#45;&gt;dir_608a06ce4a9e8522a04d92d6b87b6029 -->
<g id="edge19" class="edge">
<title>dir_1c5debea106edff2946b598282d156d8&#45;&gt;dir_608a06ce4a9e8522a04d92d6b87b6029</title>
<path fill="none" stroke="#000000" d="M324.9619,-159.8314C313.8767,-150.9632 300.3773,-140.1637 288.3875,-130.5718"/>
<polygon fill="#000000" stroke="#000000" points="290.3714,-127.6768 280.3762,-124.1628 285.9985,-133.1429 290.3714,-127.6768"/>
<g id="a_edge19&#45;headlabel"><a xlink:href="dir_000007_000012.html" target="_top" xlink:title="1">
<text text-anchor="middle" x="294.952" y="-125.2052" font-family="Helvetica,sans-Serif" font-size="10.00" fill="#000000">1</text>
</a>
</g>
</g>
<!-- dir_d55e902ee8ca40eb95d69786b7153853 -->
<g id="node6" class="node">
<title>dir_d55e902ee8ca40eb95d69786b7153853</title>
<g id="a_node6"><a xlink:href="dir_d55e902ee8ca40eb95d69786b7153853.html" target="_top" xlink:title="include">
<polygon fill="#ffffff" stroke="#000000" points="301.6727,-412 247.6727,-412 247.6727,-376 301.6727,-376 301.6727,-412"/>
<text text-anchor="middle" x="274.6727" y="-391.5" font-family="Helvetica,sans-Serif" font-size="10.00" fill="#000000">include</text>
</a>
</g>
</g>
<!-- dir_d55e902ee8ca40eb95d69786b7153853&#45;&gt;dir_6c90db5314e3398bb3690284b771412f -->
<g id="edge2" class="edge">
<title>dir_d55e902ee8ca40eb95d69786b7153853&#45;&gt;dir_6c90db5314e3398bb3690284b771412f</title>
<path fill="none" stroke="#000000" d="M278.9788,-375.7623C284.8036,-351.0928 295.2475,-306.8598 302.0679,-277.9731"/>
<polygon fill="#000000" stroke="#000000" points="305.5099,-278.6263 304.4015,-268.0896 298.6972,-277.0177 305.5099,-278.6263"/>
<g id="a_edge2&#45;headlabel"><a xlink:href="dir_000009_000003.html" target="_top" xlink:title="1">
<text text-anchor="middle" x="307.4472" y="-280.2772" font-family="Helvetica,sans-Serif" font-size="10.00" fill="#000000">1</text>
</a>
</g>
</g>
<!-- dir_d55e902ee8ca40eb95d69786b7153853&#45;&gt;dir_7f0c039cf765669d984ed76edfe1aa5b -->
<g id="edge8" class="edge">
<title>dir_d55e902ee8ca40eb95d69786b7153853&#45;&gt;dir_7f0c039cf765669d984ed76edfe1aa5b</title>
<path fill="none" stroke="#000000" d="M254.233,-375.8314C244.3522,-367.0485 232.3403,-356.3712 221.6277,-346.8489"/>
<polygon fill="#000000" stroke="#000000" points="223.9053,-344.1906 214.1059,-340.1628 219.2547,-349.4224 223.9053,-344.1906"/>
<g id="a_edge8&#45;headlabel"><a xlink:href="dir_000009_000005.html" target="_top" xlink:title="1">
<text text-anchor="middle" x="228.4782" y="-341.9566" font-family="Helvetica,sans-Serif" font-size="10.00" fill="#000000">1</text>
</a>
</g>
</g>
<!-- dir_d55e902ee8ca40eb95d69786b7153853&#45;&gt;dir_1c5debea106edff2946b598282d156d8 -->
<g id="edge4" class="edge">
<title>dir_d55e902ee8ca40eb95d69786b7153853&#45;&gt;dir_1c5debea106edff2946b598282d156d8</title>
<path fill="none" stroke="#000000" d="M290.2455,-375.9149C309.0761,-352.7338 339.7298,-310.4463 351.6727,-268 357.3386,-247.8628 355.9922,-224.2006 353.4142,-206.1934"/>
<polygon fill="#000000" stroke="#000000" points="356.8666,-205.6175 351.7977,-196.3139 349.9585,-206.7478 356.8666,-205.6175"/>
<g id="a_edge4&#45;headlabel"><a xlink:href="dir_000009_000007.html" target="_top" xlink:title="1">
<text text-anchor="middle" x="360.249" y="-206.2065" font-family="Helvetica,sans-Serif" font-size="10.00" fill="#000000">1</text>
</a>
</g>
</g>
<!-- dir_d55e902ee8ca40eb95d69786b7153853&#45;&gt;dir_66f3f3dae83f5c1ca431cfa8ee514064 -->
<g id="edge5" class="edge">
<title>dir_d55e902ee8ca40eb95d69786b7153853&#45;&gt;dir_66f3f3dae83f5c1ca431cfa8ee514064</title>
<path fill="none" stroke="#000000" d="M247.3952,-387.8798C221.0801,-380.6475 181.7865,-366.1497 157.6727,-340 141.7978,-322.7848 133.4043,-297.3038 129.0641,-277.8446"/>
<polygon fill="#000000" stroke="#000000" points="132.492,-277.1374 127.0968,-268.0192 125.6283,-278.5118 132.492,-277.1374"/>
<g id="a_edge5&#45;headlabel"><a xlink:href="dir_000009_000010.html" target="_top" xlink:title="1">
<text text-anchor="middle" x="135.9817" y="-277.6047" font-family="Helvetica,sans-Serif" font-size="10.00" fill="#000000">1</text>
</a>
</g>
</g>
<!-- dir_d55e902ee8ca40eb95d69786b7153853&#45;&gt;dir_608a06ce4a9e8522a04d92d6b87b6029 -->
<g id="edge7" class="edge">
<title>dir_d55e902ee8ca40eb95d69786b7153853&#45;&gt;dir_608a06ce4a9e8522a04d92d6b87b6029</title>
<path fill="none" stroke="#000000" d="M298.5061,-375.7955C309.8044,-366.1668 322.7484,-353.546 331.6727,-340 377.5529,-270.359 430.6807,-229.5567 384.6727,-160 364.868,-130.0586 324.7408,-116.6675 294.8644,-110.7101"/>
<polygon fill="#000000" stroke="#000000" points="295.2356,-107.2209 284.7744,-108.898 293.9982,-114.1107 295.2356,-107.2209"/>
<g id="a_edge7&#45;headlabel"><a xlink:href="dir_000009_000012.html" target="_top" xlink:title="1">
<text text-anchor="middle" x="299.2755" y="-102.5617" font-family="Helvetica,sans-Serif" font-size="10.00" fill="#000000">1</text>
</a>
</g>
</g>
<!-- dir_0a4e3b93f123f4f2e45990353486eba4 -->
<g id="node9" class="node">
<title>dir_0a4e3b93f123f4f2e45990353486eba4</title>
<g id="a_node9"><a xlink:href="dir_0a4e3b93f123f4f2e45990353486eba4.html" target="_top" xlink:title="serialization">
<polygon fill="#ffffff" stroke="#ff0000" points="308.6727,-484 240.6727,-484 240.6727,-448 308.6727,-448 308.6727,-484"/>
<text text-anchor="middle" x="274.6727" y="-463.5" font-family="Helvetica,sans-Serif" font-size="10.00" fill="#000000">serialization</text>
</a>
</g>
</g>
<!-- dir_d55e902ee8ca40eb95d69786b7153853&#45;&gt;dir_0a4e3b93f123f4f2e45990353486eba4 -->
<g id="edge6" class="edge">
<title>dir_d55e902ee8ca40eb95d69786b7153853&#45;&gt;dir_0a4e3b93f123f4f2e45990353486eba4</title>
<path fill="none" stroke="#000000" d="M280.6487,-412.4133C281.3798,-420.0593 281.593,-429.1084 281.2882,-437.5726"/>
<polygon fill="#000000" stroke="#000000" points="277.7775,-437.6264 280.6251,-447.8314 284.7629,-438.078 277.7775,-437.6264"/>
<g id="a_edge6&#45;headlabel"><a xlink:href="dir_000009_000014.html" target="_top" xlink:title="1">
<text text-anchor="middle" x="275.1759" y="-431.3562" font-family="Helvetica,sans-Serif" font-size="10.00" fill="#000000">1</text>
</a>
</g>
</g>
<!-- dir_d55e902ee8ca40eb95d69786b7153853&#45;&gt;dir_835d68fe110b5be82c2962ab9d4c9d0f -->
<g id="edge3" class="edge">
<title>dir_d55e902ee8ca40eb95d69786b7153853&#45;&gt;dir_835d68fe110b5be82c2962ab9d4c9d0f</title>
<path fill="none" stroke="#000000" d="M271.3311,-375.9555C264.3605,-338.3144 248.2258,-251.1867 239.8809,-206.1246"/>
<polygon fill="#000000" stroke="#000000" points="243.2954,-205.3405 238.0329,-196.1451 236.4124,-206.6152 243.2954,-205.3405"/>
<g id="a_edge3&#45;headlabel"><a xlink:href="dir_000009_000016.html" target="_top" xlink:title="1">
<text text-anchor="middle" x="246.7416" y="-205.8581" font-family="Helvetica,sans-Serif" font-size="10.00" fill="#000000">1</text>
</a>
</g>
</g>
<!-- dir_d55e902ee8ca40eb95d69786b7153853&#45;&gt;dir_267116d250309cbe7bd39c0026ee016a -->
<g id="edge1" class="edge">
<title>dir_d55e902ee8ca40eb95d69786b7153853&#45;&gt;dir_267116d250309cbe7bd39c0026ee016a</title>
<path fill="none" stroke="#000000" d="M247.2843,-392.4601C187.104,-388.4458 46.4062,-375.3984 17.6727,-340 -12.5782,-302.7323 3.4714,-277.8511 17.6727,-232 20.7172,-222.1704 26.2368,-212.5387 32.0998,-204.1946"/>
<polygon fill="#000000" stroke="#000000" points="35.039,-206.1092 38.2446,-196.011 29.4413,-201.9061 35.039,-206.1092"/>
<g id="a_edge1&#45;headlabel"><a xlink:href="dir_000009_000025.html" target="_top" xlink:title="1">
<text text-anchor="middle" x="35.1511" y="-208.1885" font-family="Helvetica,sans-Serif" font-size="10.00" fill="#000000">1</text>
</a>
</g>
</g>
<!-- dir_66f3f3dae83f5c1ca431cfa8ee514064&#45;&gt;dir_7f0c039cf765669d984ed76edfe1aa5b -->
<g id="edge23" class="edge">
<title>dir_66f3f3dae83f5c1ca431cfa8ee514064&#45;&gt;dir_7f0c039cf765669d984ed76edfe1aa5b</title>
<path fill="none" stroke="#000000" d="M148.0306,-268.1628C157.0329,-276.6891 167.0977,-287.0016 175.5507,-296.3099"/>
<polygon fill="#000000" stroke="#000000" points="172.9627,-298.6667 182.2135,-303.8314 178.2025,-294.0251 172.9627,-298.6667"/>
<g id="a_edge23&#45;headlabel"><a xlink:href="dir_000010_000005.html" target="_top" xlink:title="1">
<text text-anchor="middle" x="168.4539" y="-295.3587" font-family="Helvetica,sans-Serif" font-size="10.00" fill="#000000">1</text>
</a>
</g>
</g>
<!-- dir_66f3f3dae83f5c1ca431cfa8ee514064&#45;&gt;dir_608a06ce4a9e8522a04d92d6b87b6029 -->
<g id="edge22" class="edge">
<title>dir_66f3f3dae83f5c1ca431cfa8ee514064&#45;&gt;dir_608a06ce4a9e8522a04d92d6b87b6029</title>
<path fill="none" stroke="#000000" d="M134.8223,-231.8564C146.0259,-212.745 165.3238,-182.3766 186.6727,-160 197.1675,-149 210.0544,-138.4954 221.9553,-129.7239"/>
<polygon fill="#000000" stroke="#000000" points="224.3173,-132.3367 230.3985,-123.6609 220.2343,-126.6508 224.3173,-132.3367"/>
<g id="a_edge22&#45;headlabel"><a xlink:href="dir_000010_000012.html" target="_top" xlink:title="3">
<text text-anchor="middle" x="223.0537" y="-134.2396" font-family="Helvetica,sans-Serif" font-size="10.00" fill="#000000">3</text>
</a>
</g>
</g>
<!-- dir_66f3f3dae83f5c1ca431cfa8ee514064&#45;&gt;dir_835d68fe110b5be82c2962ab9d4c9d0f -->
<g id="edge21" class="edge">
<title>dir_66f3f3dae83f5c1ca431cfa8ee514064&#45;&gt;dir_835d68fe110b5be82c2962ab9d4c9d0f</title>
<path fill="none" stroke="#000000" d="M151.8637,-232.2022C166.0105,-222.9425 183.4884,-211.5025 198.7357,-201.5224"/>
<polygon fill="#000000" stroke="#000000" points="200.963,-204.2476 207.4132,-195.8425 197.1294,-198.3907 200.963,-204.2476"/>
<g id="a_edge21&#45;headlabel"><a xlink:href="dir_000010_000016.html" target="_top" xlink:title="1">
<text text-anchor="middle" x="199.5104" y="-206.0918" font-family="Helvetica,sans-Serif" font-size="10.00" fill="#000000">1</text>
</a>
</g>
</g>
<!-- dir_66f3f3dae83f5c1ca431cfa8ee514064&#45;&gt;dir_267116d250309cbe7bd39c0026ee016a -->
<g id="edge20" class="edge">
<title>dir_66f3f3dae83f5c1ca431cfa8ee514064&#45;&gt;dir_267116d250309cbe7bd39c0026ee016a</title>
<path fill="none" stroke="#000000" d="M107.0087,-231.8314C98.6995,-223.2848 88.6463,-212.9443 79.5809,-203.6198"/>
<polygon fill="#000000" stroke="#000000" points="82.0548,-201.1435 72.5745,-196.4133 77.0358,-206.023 82.0548,-201.1435"/>
<g id="a_edge20&#45;headlabel"><a xlink:href="dir_000010_000025.html" target="_top" xlink:title="1">
<text text-anchor="middle" x="86.5962" y="-199.2416" font-family="Helvetica,sans-Serif" font-size="10.00" fill="#000000">1</text>
</a>
</g>
</g>
<!-- dir_e558b8e126febdf8b95f4d8be0195ecf -->
<g id="node11" class="node">
<title>dir_e558b8e126febdf8b95f4d8be0195ecf</title>
<g id="a_node11"><a xlink:href="dir_e558b8e126febdf8b95f4d8be0195ecf.html" target="_top" xlink:title="type">
<polygon fill="#ffffff" stroke="#ff0000" points="284.6727,-52 230.6727,-52 230.6727,-16 284.6727,-16 284.6727,-52"/>
<text text-anchor="middle" x="257.6727" y="-31.5" font-family="Helvetica,sans-Serif" font-size="10.00" fill="#000000">type</text>
</a>
</g>
</g>
<!-- dir_608a06ce4a9e8522a04d92d6b87b6029&#45;&gt;dir_e558b8e126febdf8b95f4d8be0195ecf -->
<g id="edge26" class="edge">
<title>dir_608a06ce4a9e8522a04d92d6b87b6029&#45;&gt;dir_e558b8e126febdf8b95f4d8be0195ecf</title>
<path fill="none" stroke="#000000" d="M257.6727,-87.8314C257.6727,-80.131 257.6727,-70.9743 257.6727,-62.4166"/>
<polygon fill="#000000" stroke="#000000" points="261.1728,-62.4132 257.6727,-52.4133 254.1728,-62.4133 261.1728,-62.4132"/>
<g id="a_edge26&#45;headlabel"><a xlink:href="dir_000012_000018.html" target="_top" xlink:title="2">
<text text-anchor="middle" x="264.012" y="-63.5079" font-family="Helvetica,sans-Serif" font-size="10.00" fill="#000000">2</text>
</a>
</g>
</g>
<!-- dir_0a4e3b93f123f4f2e45990353486eba4&#45;&gt;dir_d55e902ee8ca40eb95d69786b7153853 -->
<g id="edge24" class="edge">
<title>dir_0a4e3b93f123f4f2e45990353486eba4&#45;&gt;dir_d55e902ee8ca40eb95d69786b7153853</title>
<path fill="none" stroke="#000000" d="M268.7203,-447.8314C267.9699,-440.131 267.749,-430.9743 268.0576,-422.4166"/>
<polygon fill="#000000" stroke="#000000" points="271.5519,-422.6161 268.6967,-412.4133 264.5661,-422.1697 271.5519,-422.6161"/>
<g id="a_edge24&#45;headlabel"><a xlink:href="dir_000014_000009.html" target="_top" xlink:title="1">
<text text-anchor="middle" x="274.1563" y="-423.8844" font-family="Helvetica,sans-Serif" font-size="10.00" fill="#000000">1</text>
</a>
</g>
</g>
<!-- dir_0a4e3b93f123f4f2e45990353486eba4&#45;&gt;dir_e558b8e126febdf8b95f4d8be0195ecf -->
<g id="edge25" class="edge">
<title>dir_0a4e3b93f123f4f2e45990353486eba4&#45;&gt;dir_e558b8e126febdf8b95f4d8be0195ecf</title>
<path fill="none" stroke="#000000" d="M308.9205,-449.622C350.3674,-427.1339 414.6727,-382.4955 414.6727,-322 414.6727,-322 414.6727,-322 414.6727,-178 414.6727,-113.0843 340.8736,-69.4937 294.4698,-48.501"/>
<polygon fill="#000000" stroke="#000000" points="295.5843,-45.1683 285.02,-44.3648 292.7775,-51.5809 295.5843,-45.1683"/>
<g id="a_edge25&#45;headlabel"><a xlink:href="dir_000014_000018.html" target="_top" xlink:title="1">
<text text-anchor="middle" x="300.0158" y="-41.5085" font-family="Helvetica,sans-Serif" font-size="10.00" fill="#000000">1</text>
</a>
</g>
</g>
<!-- dir_835d68fe110b5be82c2962ab9d4c9d0f&#45;&gt;dir_608a06ce4a9e8522a04d92d6b87b6029 -->
<g id="edge18" class="edge">
<title>dir_835d68fe110b5be82c2962ab9d4c9d0f&#45;&gt;dir_608a06ce4a9e8522a04d92d6b87b6029</title>
<path fill="none" stroke="#000000" d="M240.4766,-159.8314C242.9634,-152.0463 245.9258,-142.7729 248.6852,-134.1347"/>
<polygon fill="#000000" stroke="#000000" points="252.0817,-135.0041 251.7907,-124.4133 245.4136,-132.874 252.0817,-135.0041"/>
<g id="a_edge18&#45;headlabel"><a xlink:href="dir_000016_000012.html" target="_top" xlink:title="2">
<text text-anchor="middle" x="253.6925" y="-136.7922" font-family="Helvetica,sans-Serif" font-size="10.00" fill="#000000">2</text>
</a>
</g>
</g>
<!-- dir_835d68fe110b5be82c2962ab9d4c9d0f&#45;&gt;dir_267116d250309cbe7bd39c0026ee016a -->
<g id="edge17" class="edge">
<title>dir_835d68fe110b5be82c2962ab9d4c9d0f&#45;&gt;dir_267116d250309cbe7bd39c0026ee016a</title>
<path fill="none" stroke="#000000" d="M207.4918,-178C169.014,-178 130.5362,-178 92.0583,-178"/>
<polygon fill="#000000" stroke="#000000" points="91.743,-174.5001 81.743,-178 91.743,-181.5001 91.743,-174.5001"/>
<g id="a_edge17&#45;headlabel"><a xlink:href="dir_000016_000025.html" target="_top" xlink:title="1">
<text text-anchor="middle" x="95.3376" y="-169.1607" font-family="Helvetica,sans-Serif" font-size="10.00" fill="#000000">1</text>
</a>
</g>
</g>
<!-- dir_e558b8e126febdf8b95f4d8be0195ecf&#45;&gt;dir_267116d250309cbe7bd39c0026ee016a -->
<g id="edge11" class="edge">
<title>dir_e558b8e126febdf8b95f4d8be0195ecf&#45;&gt;dir_267116d250309cbe7bd39c0026ee016a</title>
<path fill="none" stroke="#000000" d="M232.1714,-52.0896C195.8325,-77.8669 129.0807,-125.218 88.6014,-153.9323"/>
<polygon fill="#000000" stroke="#000000" points="86.5141,-151.1218 80.3828,-159.7623 90.5641,-156.8312 86.5141,-151.1218"/>
<g id="a_edge11&#45;headlabel"><a xlink:href="dir_000018_000025.html" target="_top" xlink:title="1">
<text text-anchor="middle" x="87.8032" y="-144.2263" font-family="Helvetica,sans-Serif" font-size="10.00" fill="#000000">1</text>
</a>
</g>
</g>
<!-- dir_267116d250309cbe7bd39c0026ee016a&#45;&gt;dir_d55e902ee8ca40eb95d69786b7153853 -->
<g id="edge9" class="edge">
<title>dir_267116d250309cbe7bd39c0026ee016a&#45;&gt;dir_d55e902ee8ca40eb95d69786b7153853</title>
<path fill="none" stroke="#000000" d="M53.1148,-196.1474C52.2486,-214.9932 53.0242,-244.8972 63.6727,-268 82.2256,-308.2521 95.7217,-315.5242 132.6727,-340 165.3682,-361.657 207.9878,-376.3735 237.9731,-384.9057"/>
<polygon fill="#000000" stroke="#000000" points="237.0547,-388.283 247.6251,-387.5633 238.913,-381.5342 237.0547,-388.283"/>
<g id="a_edge9&#45;headlabel"><a xlink:href="dir_000025_000009.html" target="_top" xlink:title="1">
<text text-anchor="middle" x="232.8354" y="-387.5663" font-family="Helvetica,sans-Serif" font-size="10.00" fill="#000000">1</text>
</a>
</g>
</g>
<!-- dir_267116d250309cbe7bd39c0026ee016a&#45;&gt;dir_608a06ce4a9e8522a04d92d6b87b6029 -->
<g id="edge10" class="edge">
<title>dir_267116d250309cbe7bd39c0026ee016a&#45;&gt;dir_608a06ce4a9e8522a04d92d6b87b6029</title>
<path fill="none" stroke="#000000" d="M81.8849,-161.7601C83.1534,-161.1424 84.4198,-160.5522 85.6727,-160 130.6377,-140.1816 185.1428,-124.3613 220.574,-115.0894"/>
<polygon fill="#000000" stroke="#000000" points="221.6705,-118.4212 230.4814,-112.5375 219.9244,-111.6425 221.6705,-118.4212"/>
<g id="a_edge10&#45;headlabel"><a xlink:href="dir_000025_000012.html" target="_top" xlink:title="1">
<text text-anchor="middle" x="218.8977" y="-119.5673" font-family="Helvetica,sans-Serif" font-size="10.00" fill="#000000">1</text>
</a>
</g>
</g>
<!-- dir_572890c148f68441e050f6560d78312b&#45;&gt;dir_d55e902ee8ca40eb95d69786b7153853 -->
<g id="edge12" class="edge">
<title>dir_572890c148f68441e050f6560d78312b&#45;&gt;dir_d55e902ee8ca40eb95d69786b7153853</title>
<path fill="none" stroke="#000000" d="M458.4949,-196.2511C453.6672,-229.09 439.1788,-298.5646 399.6727,-340 376.0637,-364.7619 339.198,-378.7849 311.6101,-386.2971"/>
<polygon fill="#000000" stroke="#000000" points="310.7289,-382.9098 301.9077,-388.7781 312.4631,-389.6916 310.7289,-382.9098"/>
<g id="a_edge12&#45;headlabel"><a xlink:href="dir_000027_000009.html" target="_top" xlink:title="2">
<text text-anchor="middle" x="313.5081" y="-376.7686" font-family="Helvetica,sans-Serif" font-size="10.00" fill="#000000">2</text>
</a>
</g>
</g>
</g>
</svg>
        <g id="navigator" transform="translate(0 0)" fill="#404254">
                <rect fill="#f2f5e9" fill-opacity="0.5" stroke="#606060" stroke-width=".5" x="0" y="0" width="60" height="60"/>
                <use id="zoomplus" xlink:href="#zoomPlus" x="17" y="9" onmousedown="handleZoom(evt,'in')"/>
                <use id="zoomminus" xlink:href="#zoomMin" x="42" y="9" onmousedown="handleZoom(evt,'out')"/>
                <use id="reset" xlink:href="#resetDef" x="30" y="36" onmousedown="handleReset()"/>
                <g id="arrowUp" xlink:href="#dirArrow" transform="translate(30 24)" onmousedown="handlePan(0,-1)">
                  <use xlink:href="#rim" fill="#404040">
                        <set attributeName="fill" to="#808080" begin="arrowUp.mouseover" end="arrowUp.mouseout"/>
                  </use>
                  <path fill="none" stroke="white" stroke-width="1.5" d="M0,-3.0v7 M-2.5,-0.5L0,-3.0L2.5,-0.5"/>
                </g>
                <g id="arrowRight" xlink:href="#dirArrow" transform="rotate(90) translate(36 -43)" onmousedown="handlePan(1,0)">
                  <use xlink:href="#rim" fill="#404040">
                        <set attributeName="fill" to="#808080" begin="arrowRight.mouseover" end="arrowRight.mouseout"/>
                  </use>
                  <path fill="none" stroke="white" stroke-width="1.5" d="M0,-3.0v7 M-2.5,-0.5L0,-3.0L2.5,-0.5"/>
                </g>
                <g id="arrowDown" xlink:href="#dirArrow" transform="rotate(180) translate(-30 -48)" onmousedown="handlePan(0,1)">
                  <use xlink:href="#rim" fill="#404040">
                        <set attributeName="fill" to="#808080" begin="arrowDown.mouseover" end="arrowDown.mouseout"/>
                  </use>
                  <path fill="none" stroke="white" stroke-width="1.5" d="M0,-3.0v7 M-2.5,-0.5L0,-3.0L2.5,-0.5"/>
                </g>
                <g id="arrowLeft" xlink:href="#dirArrow" transform="rotate(270) translate(-36 17)" onmousedown="handlePan(-1,0)">
                  <use xlink:href="#rim" fill="#404040">
                        <set attributeName="fill" to="#808080" begin="arrowLeft.mouseover" end="arrowLeft.mouseout"/>
                  </use>
                  <path fill="none" stroke="white" stroke-width="1.5" d="M0,-3.0v7 M-2.5,-0.5L0,-3.0L2.5,-0.5"/>
                </g>
        </g>
        <svg viewBox="0 0 15 15" width="100%" height="30px" preserveAspectRatio="xMaxYMin meet">
         <g id="arrow_out" transform="scale(0.3 0.3)">
          <a xlink:href="dir_96245007931de700bb8a76b2e98ce70a_dep_org.svg" target="_base">
           <rect id="button" ry="5" rx="5" y="6" x="6" height="38" width="38"
                fill="#f2f5e9" fill-opacity="0.5" stroke="#606060" stroke-width="1.0"/>
           <path id="arrow"
             d="M 11.500037,31.436501 C 11.940474,20.09759 22.043105,11.32322 32.158766,21.979434 L 37.068811,17.246167 C 37.068811,17.246167 37.088388,32 37.088388,32 L 22.160133,31.978069 C 22.160133,31.978069 26.997745,27.140456 26.997745,27.140456 C 18.528582,18.264221 13.291696,25.230495 11.500037,31.436501 z"
             style="fill:#404040;"/>
          </a>
         </g>
        </svg>
</svg>
