<?xml version="1.0" encoding="UTF-8" standalone="no"?>
<!DOCTYPE svg PUBLIC "-//W3C//DTD SVG 1.1//EN"
 "http://www.w3.org/Graphics/SVG/1.1/DTD/svg11.dtd">
<!-- Generated by graphviz version 2.40.1 (20161225.0304)
 -->
<!-- Title: builtins Pages: 1 -->
<svg width="166pt" height="364pt"
 viewBox="0.00 0.00 166.00 364.00" xmlns="http://www.w3.org/2000/svg" xmlns:xlink="http://www.w3.org/1999/xlink">
<g id="graph0" class="graph" transform="scale(1 1) rotate(0) translate(4 360)">
<title>builtins</title>
<polygon fill="#ffffff" stroke="transparent" points="-4,4 -4,-360 162,-360 162,4 -4,4"/>
<g id="clust1" class="cluster">
<title>clusterdir_96245007931de700bb8a76b2e98ce70a</title>
<g id="a_clust1"><a xlink:href="dir_96245007931de700bb8a76b2e98ce70a.html" target="_top">
<polygon fill="#eeeeff" stroke="#000000" points="8,-8 8,-348 150,-348 150,-8 8,-8"/>
</a>
</g>
</g>
<!-- dir_96245007931de700bb8a76b2e98ce70a -->
<g id="node1" class="node">
<title>dir_96245007931de700bb8a76b2e98ce70a</title>
<text text-anchor="middle" x="115" y="-319.5" font-family="Helvetica,sans-Serif" font-size="10.00" fill="#000000">builtins</text>
</g>
<!-- dir_d55e902ee8ca40eb95d69786b7153853 -->
<g id="node2" class="node">
<title>dir_d55e902ee8ca40eb95d69786b7153853</title>
<g id="a_node2"><a xlink:href="dir_d55e902ee8ca40eb95d69786b7153853.html" target="_top" xlink:title="include">
<polygon fill="#ffffff" stroke="#000000" points="70,-340 16,-340 16,-304 70,-304 70,-340"/>
<text text-anchor="middle" x="43" y="-319.5" font-family="Helvetica,sans-Serif" font-size="10.00" fill="#000000">include</text>
</a>
</g>
</g>
<!-- dir_66f3f3dae83f5c1ca431cfa8ee514064 -->
<g id="node3" class="node">
<title>dir_66f3f3dae83f5c1ca431cfa8ee514064</title>
<g id="a_node3"><a xlink:href="dir_66f3f3dae83f5c1ca431cfa8ee514064.html" target="_top" xlink:title="integer">
<polygon fill="#ffffff" stroke="#ff0000" points="90,-268 36,-268 36,-232 90,-232 90,-268"/>
<text text-anchor="middle" x="63" y="-247.5" font-family="Helvetica,sans-Serif" font-size="10.00" fill="#000000">integer</text>
</a>
</g>
</g>
<!-- dir_d55e902ee8ca40eb95d69786b7153853&#45;&gt;dir_66f3f3dae83f5c1ca431cfa8ee514064 -->
<g id="edge2" class="edge">
<title>dir_d55e902ee8ca40eb95d69786b7153853&#45;&gt;dir_66f3f3dae83f5c1ca431cfa8ee514064</title>
<path fill="none" stroke="#000000" d="M48.0468,-303.8314C50.2094,-296.0463 52.7853,-286.7729 55.1848,-278.1347"/>
<polygon fill="#000000" stroke="#000000" points="58.581,-278.9852 57.8852,-268.4133 51.8364,-277.1117 58.581,-278.9852"/>
<g id="a_edge2&#45;headlabel"><a xlink:href="dir_000001_000002.html" target="_top" xlink:title="1">
<text text-anchor="middle" x="60.3547" y="-280.7086" font-family="Helvetica,sans-Serif" font-size="10.00" fill="#000000">1</text>
</a>
</g>
</g>
<!-- dir_608a06ce4a9e8522a04d92d6b87b6029 -->
<g id="node4" class="node">
<title>dir_608a06ce4a9e8522a04d92d6b87b6029</title>
<g id="a_node4"><a xlink:href="dir_608a06ce4a9e8522a04d92d6b87b6029.html" target="_top" xlink:title="object">
<polygon fill="#ffffff" stroke="#ff0000" points="80,-124 26,-124 26,-88 80,-88 80,-124"/>
<text text-anchor="middle" x="53" y="-103.5" font-family="Helvetica,sans-Serif" font-size="10.00" fill="#000000">object</text>
</a>
</g>
</g>
<!-- dir_d55e902ee8ca40eb95d69786b7153853&#45;&gt;dir_608a06ce4a9e8522a04d92d6b87b6029 -->
<g id="edge3" class="edge">
<title>dir_d55e902ee8ca40eb95d69786b7153853&#45;&gt;dir_608a06ce4a9e8522a04d92d6b87b6029</title>
<path fill="none" stroke="#000000" d="M36.1805,-303.7996C32.6719,-293.4645 28.7683,-280.1925 27,-268 20.175,-220.9414 33.3065,-166.3705 43.27,-134.0946"/>
<polygon fill="#000000" stroke="#000000" points="46.6462,-135.0276 46.3642,-124.4366 39.98,-132.8919 46.6462,-135.0276"/>
<g id="a_edge3&#45;headlabel"><a xlink:href="dir_000001_000004.html" target="_top" xlink:title="1">
<text text-anchor="middle" x="48.2534" y="-136.8171" font-family="Helvetica,sans-Serif" font-size="10.00" fill="#000000">1</text>
</a>
</g>
</g>
<!-- dir_835d68fe110b5be82c2962ab9d4c9d0f -->
<g id="node5" class="node">
<title>dir_835d68fe110b5be82c2962ab9d4c9d0f</title>
<g id="a_node5"><a xlink:href="dir_835d68fe110b5be82c2962ab9d4c9d0f.html" target="_top" xlink:title="string">
<polygon fill="#ffffff" stroke="#ff0000" points="126,-196 72,-196 72,-160 126,-160 126,-196"/>
<text text-anchor="middle" x="99" y="-175.5" font-family="Helvetica,sans-Serif" font-size="10.00" fill="#000000">string</text>
</a>
</g>
</g>
<!-- dir_d55e902ee8ca40eb95d69786b7153853&#45;&gt;dir_835d68fe110b5be82c2962ab9d4c9d0f -->
<g id="edge1" class="edge">
<title>dir_d55e902ee8ca40eb95d69786b7153853&#45;&gt;dir_835d68fe110b5be82c2962ab9d4c9d0f</title>
<path fill="none" stroke="#000000" d="M69.7231,-303.9104C81.0085,-294.6439 92.926,-282.295 99,-268 107.2748,-248.5254 106.795,-224.4697 104.5073,-206.1293"/>
<polygon fill="#000000" stroke="#000000" points="107.9435,-205.4418 103.0039,-196.069 101.0204,-206.4765 107.9435,-205.4418"/>
<g id="a_edge1&#45;headlabel"><a xlink:href="dir_000001_000006.html" target="_top" xlink:title="1">
<text text-anchor="middle" x="111.2828" y="-206.0774" font-family="Helvetica,sans-Serif" font-size="10.00" fill="#000000">1</text>
</a>
</g>
</g>
<!-- dir_66f3f3dae83f5c1ca431cfa8ee514064&#45;&gt;dir_608a06ce4a9e8522a04d92d6b87b6029 -->
<g id="edge6" class="edge">
<title>dir_66f3f3dae83f5c1ca431cfa8ee514064&#45;&gt;dir_608a06ce4a9e8522a04d92d6b87b6029</title>
<path fill="none" stroke="#000000" d="M61.7335,-231.7623C60.0279,-207.201 56.9755,-163.2474 54.969,-134.3541"/>
<polygon fill="#000000" stroke="#000000" points="58.4407,-133.8231 54.2562,-124.0896 51.4575,-134.3081 58.4407,-133.8231"/>
<g id="a_edge6&#45;headlabel"><a xlink:href="dir_000002_000004.html" target="_top" xlink:title="3">
<text text-anchor="middle" x="61.5221" y="-134.7124" font-family="Helvetica,sans-Serif" font-size="10.00" fill="#000000">3</text>
</a>
</g>
</g>
<!-- dir_66f3f3dae83f5c1ca431cfa8ee514064&#45;&gt;dir_835d68fe110b5be82c2962ab9d4c9d0f -->
<g id="edge5" class="edge">
<title>dir_66f3f3dae83f5c1ca431cfa8ee514064&#45;&gt;dir_835d68fe110b5be82c2962ab9d4c9d0f</title>
<path fill="none" stroke="#000000" d="M72.0843,-231.8314C76.0615,-223.8771 80.8155,-214.369 85.2139,-205.5723"/>
<polygon fill="#000000" stroke="#000000" points="88.4517,-206.9228 89.7934,-196.4133 82.1907,-203.7923 88.4517,-206.9228"/>
<g id="a_edge5&#45;headlabel"><a xlink:href="dir_000002_000006.html" target="_top" xlink:title="1">
<text text-anchor="middle" x="89.3837" y="-208.9077" font-family="Helvetica,sans-Serif" font-size="10.00" fill="#000000">1</text>
</a>
</g>
</g>
<!-- dir_e558b8e126febdf8b95f4d8be0195ecf -->
<g id="node6" class="node">
<title>dir_e558b8e126febdf8b95f4d8be0195ecf</title>
<g id="a_node6"><a xlink:href="dir_e558b8e126febdf8b95f4d8be0195ecf.html" target="_top" xlink:title="type">
<polygon fill="#ffffff" stroke="#ff0000" points="80,-52 26,-52 26,-16 80,-16 80,-52"/>
<text text-anchor="middle" x="53" y="-31.5" font-family="Helvetica,sans-Serif" font-size="10.00" fill="#000000">type</text>
</a>
</g>
</g>
<!-- dir_608a06ce4a9e8522a04d92d6b87b6029&#45;&gt;dir_e558b8e126febdf8b95f4d8be0195ecf -->
<g id="edge7" class="edge">
<title>dir_608a06ce4a9e8522a04d92d6b87b6029&#45;&gt;dir_e558b8e126febdf8b95f4d8be0195ecf</title>
<path fill="none" stroke="#000000" d="M53,-87.8314C53,-80.131 53,-70.9743 53,-62.4166"/>
<polygon fill="#000000" stroke="#000000" points="56.5001,-62.4132 53,-52.4133 49.5001,-62.4133 56.5001,-62.4132"/>
<g id="a_edge7&#45;headlabel"><a xlink:href="dir_000004_000008.html" target="_top" xlink:title="2">
<text text-anchor="middle" x="59.3393" y="-63.5079" font-family="Helvetica,sans-Serif" font-size="10.00" fill="#000000">2</text>
</a>
</g>
</g>
<!-- dir_835d68fe110b5be82c2962ab9d4c9d0f&#45;&gt;dir_608a06ce4a9e8522a04d92d6b87b6029 -->
<g id="edge4" class="edge">
<title>dir_835d68fe110b5be82c2962ab9d4c9d0f&#45;&gt;dir_608a06ce4a9e8522a04d92d6b87b6029</title>
<path fill="none" stroke="#000000" d="M87.3923,-159.8314C82.2022,-151.7079 75.9768,-141.9637 70.2575,-133.0118"/>
<polygon fill="#000000" stroke="#000000" points="73.0974,-130.9559 64.764,-124.4133 67.1985,-134.7246 73.0974,-130.9559"/>
<g id="a_edge4&#45;headlabel"><a xlink:href="dir_000006_000004.html" target="_top" xlink:title="2">
<text text-anchor="middle" x="77.4253" y="-129.9564" font-family="Helvetica,sans-Serif" font-size="10.00" fill="#000000">2</text>
</a>
</g>
</g>
</g>
</svg>
