<?xml version="1.0" encoding="UTF-8" standalone="no"?>
<!DOCTYPE svg PUBLIC "-//W3C//DTD SVG 1.1//EN"
 "http://www.w3.org/Graphics/SVG/1.1/DTD/svg11.dtd">
<!-- Generated by graphviz version 2.40.1 (20161225.0304)
 -->
<!-- Title: parser Pages: 1 -->
<svg width="180pt" height="204pt"
 viewBox="0.00 0.00 180.00 204.00" xmlns="http://www.w3.org/2000/svg" xmlns:xlink="http://www.w3.org/1999/xlink">
<g id="graph0" class="graph" transform="scale(1 1) rotate(0) translate(4 200)">
<title>parser</title>
<polygon fill="#ffffff" stroke="transparent" points="-4,4 -4,-200 176,-200 176,4 -4,4"/>
<g id="clust1" class="cluster">
<title>clusterdir_572890c148f68441e050f6560d78312b</title>
<g id="a_clust1"><a xlink:href="dir_572890c148f68441e050f6560d78312b.html" target="_top">
<polygon fill="#eeeeff" stroke="#000000" points="8,-64 8,-188 164,-188 164,-64 8,-64"/>
</a>
</g>
</g>
<!-- dir_572890c148f68441e050f6560d78312b -->
<g id="node1" class="node">
<title>dir_572890c148f68441e050f6560d78312b</title>
<text text-anchor="middle" x="129" y="-159.5" font-family="Helvetica,sans-Serif" font-size="10.00" fill="#000000">parser</text>
</g>
<!-- dir_993b4b96b9d24e1e5416bf28e31c7e44 -->
<g id="node2" class="node">
<title>dir_993b4b96b9d24e1e5416bf28e31c7e44</title>
<g id="a_node2"><a xlink:href="dir_993b4b96b9d24e1e5416bf28e31c7e44.html" target="_top" xlink:title="include">
<polygon fill="#ffffff" stroke="#000000" points="116,-108 62,-108 62,-72 116,-72 116,-108"/>
<text text-anchor="middle" x="89" y="-87.5" font-family="Helvetica,sans-Serif" font-size="10.00" fill="#000000">include</text>
</a>
</g>
</g>
<!-- dir_572890c148f68441e050f6560d78312b&#45;&gt;dir_993b4b96b9d24e1e5416bf28e31c7e44 -->
<g id="edge1" class="edge">
<title>dir_572890c148f68441e050f6560d78312b&#45;&gt;dir_993b4b96b9d24e1e5416bf28e31c7e44</title>
<path fill="none" stroke="#000000" d="M118.9063,-143.8314C114.4403,-135.7925 109.0925,-126.1666 104.1621,-117.2918"/>
<polygon fill="#000000" stroke="#000000" points="107.1456,-115.4551 99.2296,-108.4133 101.0265,-118.8546 107.1456,-115.4551"/>
<g id="a_edge1&#45;headlabel"><a xlink:href="dir_000025_000026.html" target="_top" xlink:title="24">
<text text-anchor="middle" x="111.3732" y="-114.7185" font-family="Helvetica,sans-Serif" font-size="10.00" fill="#000000">24</text>
</a>
</g>
</g>
<!-- dir_96245007931de700bb8a76b2e98ce70a -->
<g id="node4" class="node">
<title>dir_96245007931de700bb8a76b2e98ce70a</title>
<g id="a_node4"><a xlink:href="dir_96245007931de700bb8a76b2e98ce70a.html" target="_top" xlink:title="builtins">
<polygon fill="#ffffff" stroke="#ff0000" points="116,-36 62,-36 62,0 116,0 116,-36"/>
<text text-anchor="middle" x="89" y="-15.5" font-family="Helvetica,sans-Serif" font-size="10.00" fill="#000000">builtins</text>
</a>
</g>
</g>
<!-- dir_993b4b96b9d24e1e5416bf28e31c7e44&#45;&gt;dir_96245007931de700bb8a76b2e98ce70a -->
<g id="edge4" class="edge">
<title>dir_993b4b96b9d24e1e5416bf28e31c7e44&#45;&gt;dir_96245007931de700bb8a76b2e98ce70a</title>
<path fill="none" stroke="#000000" d="M83.0476,-71.8314C82.2972,-64.131 82.0763,-54.9743 82.3849,-46.4166"/>
<polygon fill="#000000" stroke="#000000" points="85.8792,-46.6161 83.024,-36.4133 78.8935,-46.1697 85.8792,-46.6161"/>
<g id="a_edge4&#45;headlabel"><a xlink:href="dir_000026_000000.html" target="_top" xlink:title="1">
<text text-anchor="middle" x="88.4836" y="-47.8844" font-family="Helvetica,sans-Serif" font-size="10.00" fill="#000000">1</text>
</a>
</g>
</g>
<!-- dir_aa5e47c4bffeeec7e25e41aaf2682e12 -->
<g id="node3" class="node">
<title>dir_aa5e47c4bffeeec7e25e41aaf2682e12</title>
<g id="a_node3"><a xlink:href="dir_aa5e47c4bffeeec7e25e41aaf2682e12.html" target="_top" xlink:title="parserfuncs">
<polygon fill="#ffffff" stroke="#000000" points="84,-180 16,-180 16,-144 84,-144 84,-180"/>
<text text-anchor="middle" x="50" y="-159.5" font-family="Helvetica,sans-Serif" font-size="10.00" fill="#000000">parserfuncs</text>
</a>
</g>
</g>
<!-- dir_aa5e47c4bffeeec7e25e41aaf2682e12&#45;&gt;dir_993b4b96b9d24e1e5416bf28e31c7e44 -->
<g id="edge2" class="edge">
<title>dir_aa5e47c4bffeeec7e25e41aaf2682e12&#45;&gt;dir_993b4b96b9d24e1e5416bf28e31c7e44</title>
<path fill="none" stroke="#000000" d="M59.8413,-143.8314C64.1957,-135.7925 69.4098,-126.1666 74.2169,-117.2918"/>
<polygon fill="#000000" stroke="#000000" points="77.3408,-118.8732 79.0261,-108.4133 71.1857,-115.5392 77.3408,-118.8732"/>
<g id="a_edge2&#45;headlabel"><a xlink:href="dir_000027_000026.html" target="_top" xlink:title="16">
<text text-anchor="middle" x="78.1253" y="-120.8862" font-family="Helvetica,sans-Serif" font-size="10.00" fill="#000000">16</text>
</a>
</g>
</g>
<!-- dir_96245007931de700bb8a76b2e98ce70a&#45;&gt;dir_993b4b96b9d24e1e5416bf28e31c7e44 -->
<g id="edge3" class="edge">
<title>dir_96245007931de700bb8a76b2e98ce70a&#45;&gt;dir_993b4b96b9d24e1e5416bf28e31c7e44</title>
<path fill="none" stroke="#000000" d="M94.976,-36.4133C95.7071,-44.0593 95.9203,-53.1084 95.6155,-61.5726"/>
<polygon fill="#000000" stroke="#000000" points="92.1048,-61.6264 94.9524,-71.8314 99.0902,-62.078 92.1048,-61.6264"/>
<g id="a_edge3&#45;headlabel"><a xlink:href="dir_000000_000026.html" target="_top" xlink:title="2">
<text text-anchor="middle" x="89.5032" y="-55.3562" font-family="Helvetica,sans-Serif" font-size="10.00" fill="#000000">2</text>
</a>
</g>
</g>
</g>
</svg>
