<?xml version="1.0" encoding="UTF-8" standalone="no"?>
<!DOCTYPE svg PUBLIC "-//W3C//DTD SVG 1.1//EN"
 "http://www.w3.org/Graphics/SVG/1.1/DTD/svg11.dtd">
<!-- Generated by graphviz version 2.40.1 (20161225.0304)
 -->
<!-- Title: errorstack_traceback Pages: 1 -->
<svg width="354pt" height="66pt"
 viewBox="0.00 0.00 354.00 66.00" xmlns="http://www.w3.org/2000/svg" xmlns:xlink="http://www.w3.org/1999/xlink">
<g id="graph0" class="graph" transform="scale(1 1) rotate(0) translate(4 62)">
<title>errorstack_traceback</title>
<polygon fill="#ffffff" stroke="transparent" points="-4,4 -4,-62 350,-62 350,4 -4,4"/>
<!-- Node12 -->
<g id="node1" class="node">
<title>Node12</title>
<g id="a_node1"><a xlink:title="Throw all errors on the errorstack.">
<polygon fill="#bfbfbf" stroke="#000000" points="0,-19.5 0,-38.5 119,-38.5 119,-19.5 0,-19.5"/>
<text text-anchor="middle" x="59.5" y="-26.5" font-family="Helvetica,sans-Serif" font-size="10.00" fill="#000000">errorstack_traceback</text>
</a>
</g>
</g>
<!-- Node13 -->
<g id="node2" class="node">
<title>Node13</title>
<g id="a_node2"><a xlink:href="error_8c.html#aadbe92bd95e3d1a125d27b6b30cc048a" target="_top" xlink:title=" ">
<polygon fill="#ffffff" stroke="#000000" points="162,-38.5 162,-57.5 235,-57.5 235,-38.5 162,-38.5"/>
<text text-anchor="middle" x="198.5" y="-45.5" font-family="Helvetica,sans-Serif" font-size="10.00" fill="#000000">error_throw</text>
</a>
</g>
</g>
<!-- Node12&#45;&gt;Node13 -->
<g id="edge1" class="edge">
<title>Node12&#45;&gt;Node13</title>
<path fill="none" stroke="#191970" d="M119.2552,-37.168C130.0717,-38.6465 141.2094,-40.1689 151.5923,-41.5882"/>
<polygon fill="#191970" stroke="#191970" points="151.3019,-45.0809 161.6838,-42.9676 152.25,-38.1454 151.3019,-45.0809"/>
</g>
<!-- Node15 -->
<g id="node4" class="node">
<title>Node15</title>
<g id="a_node4"><a xlink:href="error_8c.html#ada8989f80d38ce7cae1936a543524c3b" target="_top" xlink:title="Return the top error of the errorstack.">
<polygon fill="#ffffff" stroke="#000000" points="155,-.5 155,-19.5 242,-19.5 242,-.5 155,-.5"/>
<text text-anchor="middle" x="198.5" y="-7.5" font-family="Helvetica,sans-Serif" font-size="10.00" fill="#000000">errorstack_top</text>
</a>
</g>
</g>
<!-- Node12&#45;&gt;Node15 -->
<g id="edge3" class="edge">
<title>Node12&#45;&gt;Node15</title>
<path fill="none" stroke="#191970" d="M119.2552,-20.832C127.7297,-19.6736 136.4015,-18.4883 144.7529,-17.3467"/>
<polygon fill="#191970" stroke="#191970" points="145.3122,-20.8029 154.7461,-15.9808 144.3642,-13.8674 145.3122,-20.8029"/>
</g>
<!-- Node14 -->
<g id="node3" class="node">
<title>Node14</title>
<g id="a_node3"><a xlink:href="error_8c.html#a280084f31295d0ad8646299d4f4db9f2" target="_top" xlink:title="prints an error struct">
<polygon fill="#ffffff" stroke="#000000" points="278,-38.5 278,-57.5 346,-57.5 346,-38.5 278,-38.5"/>
<text text-anchor="middle" x="312" y="-45.5" font-family="Helvetica,sans-Serif" font-size="10.00" fill="#000000">error_print</text>
</a>
</g>
</g>
<!-- Node13&#45;&gt;Node14 -->
<g id="edge2" class="edge">
<title>Node13&#45;&gt;Node14</title>
<path fill="none" stroke="#191970" d="M235.0369,-48C245.448,-48 256.9033,-48 267.7222,-48"/>
<polygon fill="#191970" stroke="#191970" points="267.8453,-51.5001 277.8453,-48 267.8452,-44.5001 267.8453,-51.5001"/>
</g>
</g>
</svg>
