<?xml version="1.0" encoding="UTF-8" standalone="no"?>
<!DOCTYPE svg PUBLIC "-//W3C//DTD SVG 1.1//EN"
 "http://www.w3.org/Graphics/SVG/1.1/DTD/svg11.dtd">
<!-- Generated by graphviz version 2.40.1 (20161225.0304)
 -->
<!-- Title: errorstack_traceback Pages: 1 -->
<svg width="327pt" height="66pt"
 viewBox="0.00 0.00 327.00 66.00" xmlns="http://www.w3.org/2000/svg" xmlns:xlink="http://www.w3.org/1999/xlink">
<g id="graph0" class="graph" transform="scale(1 1) rotate(0) translate(4 62)">
<title>errorstack_traceback</title>
<polygon fill="#ffffff" stroke="transparent" points="-4,4 -4,-62 323,-62 323,4 -4,4"/>
<!-- Node12 -->
<g id="node1" class="node">
<title>Node12</title>
<g id="a_node1"><a xlink:title="Throw all errors on the errorstack.">
<polygon fill="#bfbfbf" stroke="#000000" points="0,-19.5 0,-38.5 108,-38.5 108,-19.5 0,-19.5"/>
<text text-anchor="middle" x="54" y="-26.5" font-family="Helvetica,sans-Serif" font-size="10.00" fill="#000000">errorstack_traceback</text>
</a>
</g>
</g>
<!-- Node13 -->
<g id="node2" class="node">
<title>Node13</title>
<g id="a_node2"><a xlink:href="error_8c.html#adc799734c0f6f7e223ee20590c3b46e8" target="_top" xlink:title=" ">
<polygon fill="#ffffff" stroke="#000000" points="151,-38.5 151,-57.5 216,-57.5 216,-38.5 151,-38.5"/>
<text text-anchor="middle" x="183.5" y="-45.5" font-family="Helvetica,sans-Serif" font-size="10.00" fill="#000000">error_throw</text>
</a>
</g>
</g>
<!-- Node12&#45;&gt;Node13 -->
<g id="edge1" class="edge">
<title>Node12&#45;&gt;Node13</title>
<path fill="none" stroke="#191970" d="M108.1693,-36.9476C119.0855,-38.5492 130.4141,-40.2113 140.8684,-41.7452"/>
<polygon fill="#191970" stroke="#191970" points="140.5814,-45.2405 150.9836,-43.2293 141.5976,-38.3146 140.5814,-45.2405"/>
</g>
<!-- Node15 -->
<g id="node4" class="node">
<title>Node15</title>
<g id="a_node4"><a xlink:href="error_8c.html#a08f836642a23e867f57c5f849f26443c" target="_top" xlink:title="Return the top error of the errorstack.">
<polygon fill="#ffffff" stroke="#000000" points="144,-.5 144,-19.5 223,-19.5 223,-.5 144,-.5"/>
<text text-anchor="middle" x="183.5" y="-7.5" font-family="Helvetica,sans-Serif" font-size="10.00" fill="#000000">errorstack_top</text>
</a>
</g>
</g>
<!-- Node12&#45;&gt;Node15 -->
<g id="edge3" class="edge">
<title>Node12&#45;&gt;Node15</title>
<path fill="none" stroke="#191970" d="M108.1693,-21.0524C116.6445,-19.8089 125.3683,-18.529 133.7386,-17.3009"/>
<polygon fill="#191970" stroke="#191970" points="134.3466,-20.7493 143.7326,-15.8346 133.3304,-13.8234 134.3466,-20.7493"/>
</g>
<!-- Node14 -->
<g id="node3" class="node">
<title>Node14</title>
<g id="a_node3"><a xlink:href="error_8c.html#a661c01cb3d40abca57dc9d223e3d6381" target="_top" xlink:title="prints an error struct">
<polygon fill="#ffffff" stroke="#000000" points="259,-38.5 259,-57.5 319,-57.5 319,-38.5 259,-38.5"/>
<text text-anchor="middle" x="289" y="-45.5" font-family="Helvetica,sans-Serif" font-size="10.00" fill="#000000">error_print</text>
</a>
</g>
</g>
<!-- Node13&#45;&gt;Node14 -->
<g id="edge2" class="edge">
<title>Node13&#45;&gt;Node14</title>
<path fill="none" stroke="#191970" d="M216.0143,-48C226.3834,-48 237.982,-48 248.8274,-48"/>
<polygon fill="#191970" stroke="#191970" points="248.9301,-51.5001 258.9301,-48 248.93,-44.5001 248.9301,-51.5001"/>
</g>
</g>
</svg>
