<?xml version="1.0" encoding="UTF-8" standalone="no"?>
<!DOCTYPE svg PUBLIC "-//W3C//DTD SVG 1.1//EN"
 "http://www.w3.org/Graphics/SVG/1.1/DTD/svg11.dtd">
<!-- Generated by graphviz version 2.40.1 (20161225.0304)
 -->
<!-- Title: parser/include/error.h Pages: 1 -->
<svg width="980pt" height="151pt"
 viewBox="0.00 0.00 979.50 151.00" xmlns="http://www.w3.org/2000/svg" xmlns:xlink="http://www.w3.org/1999/xlink">
<g id="graph0" class="graph" transform="scale(1 1) rotate(0) translate(4 147)">
<title>parser/include/error.h</title>
<polygon fill="#ffffff" stroke="transparent" points="-4,4 -4,-147 975.5,-147 975.5,4 -4,4"/>
<!-- Node3 -->
<g id="node1" class="node">
<title>Node3</title>
<g id="a_node1"><a xlink:title=" ">
<polygon fill="#bfbfbf" stroke="#000000" points="462.5,-123.5 462.5,-142.5 569.5,-142.5 569.5,-123.5 462.5,-123.5"/>
<text text-anchor="middle" x="516" y="-130.5" font-family="Helvetica,sans-Serif" font-size="10.00" fill="#000000">parser/include/error.h</text>
</a>
</g>
</g>
<!-- Node4 -->
<g id="node2" class="node">
<title>Node4</title>
<g id="a_node2"><a xlink:href="main_8c.html" target="_top" xlink:title=" ">
<polygon fill="#ffffff" stroke="#000000" points="0,-6 0,-25 70,-25 70,-6 0,-6"/>
<text text-anchor="middle" x="35" y="-13" font-family="Helvetica,sans-Serif" font-size="10.00" fill="#000000">main/main.c</text>
</a>
</g>
</g>
<!-- Node3&#45;&gt;Node4 -->
<g id="edge1" class="edge">
<title>Node3&#45;&gt;Node4</title>
<path fill="none" stroke="#191970" d="M452.2353,-121.8015C405.0291,-113.1872 339.2517,-100.504 282,-87 190.9074,-65.5139 168.3026,-59.0098 79,-31 73.2814,-29.2064 67.1924,-27.1545 61.4249,-25.1437"/>
<polygon fill="#191970" stroke="#191970" points="451.8517,-125.2889 462.3159,-123.6307 453.1015,-118.4014 451.8517,-125.2889"/>
</g>
<!-- Node5 -->
<g id="node3" class="node">
<title>Node5</title>
<g id="a_node3"><a xlink:href="error_8c.html" target="_top" xlink:title=" ">
<polygon fill="#ffffff" stroke="#000000" points="701,-67.5 701,-86.5 775,-86.5 775,-67.5 701,-67.5"/>
<text text-anchor="middle" x="738" y="-74.5" font-family="Helvetica,sans-Serif" font-size="10.00" fill="#000000">parser/error.c</text>
</a>
</g>
</g>
<!-- Node3&#45;&gt;Node5 -->
<g id="edge2" class="edge">
<title>Node3&#45;&gt;Node5</title>
<path fill="none" stroke="#191970" d="M563.704,-120.9665C604.8164,-110.5959 663.3287,-95.836 700.9847,-86.3372"/>
<polygon fill="#191970" stroke="#191970" points="562.7511,-117.5972 553.9109,-123.4369 564.4633,-124.3846 562.7511,-117.5972"/>
</g>
<!-- Node6 -->
<g id="node4" class="node">
<title>Node6</title>
<g id="a_node4"><a xlink:href="parser_8h.html" target="_top" xlink:title=" ">
<polygon fill="#ffffff" stroke="#000000" points="415.5,-67.5 415.5,-86.5 530.5,-86.5 530.5,-67.5 415.5,-67.5"/>
<text text-anchor="middle" x="473" y="-74.5" font-family="Helvetica,sans-Serif" font-size="10.00" fill="#000000">parser/include/parser.h</text>
</a>
</g>
</g>
<!-- Node3&#45;&gt;Node6 -->
<g id="edge3" class="edge">
<title>Node3&#45;&gt;Node6</title>
<path fill="none" stroke="#191970" d="M502.3408,-115.2112C495.0737,-105.7472 486.4219,-94.4797 480.4042,-86.6427"/>
<polygon fill="#191970" stroke="#191970" points="499.6436,-117.4456 508.51,-123.2455 505.1957,-113.1824 499.6436,-117.4456"/>
</g>
<!-- Node8 -->
<g id="node6" class="node">
<title>Node8</title>
<g id="a_node6"><a xlink:href="compound_8c.html" target="_top" xlink:title=" ">
<polygon fill="#ffffff" stroke="#000000" points="88,-.5 88,-30.5 186,-30.5 186,-.5 88,-.5"/>
<text text-anchor="start" x="96" y="-18.5" font-family="Helvetica,sans-Serif" font-size="10.00" fill="#000000">parser/parserfuncs</text>
<text text-anchor="middle" x="137" y="-7.5" font-family="Helvetica,sans-Serif" font-size="10.00" fill="#000000">/compound.c</text>
</a>
</g>
</g>
<!-- Node3&#45;&gt;Node8 -->
<g id="edge13" class="edge">
<title>Node3&#45;&gt;Node8</title>
<path fill="none" stroke="#191970" d="M466.4029,-120.9708C431.4335,-112.2261 383.6062,-99.7347 342,-87 284.1519,-69.2941 218.2605,-45.6852 177.1497,-30.5348"/>
<polygon fill="#191970" stroke="#191970" points="465.8154,-124.4312 476.3644,-123.4476 467.5044,-117.638 465.8154,-124.4312"/>
</g>
<!-- Node9 -->
<g id="node7" class="node">
<title>Node9</title>
<g id="a_node7"><a xlink:href="expressions_8c.html" target="_top" xlink:title=" ">
<polygon fill="#ffffff" stroke="#000000" points="204,-.5 204,-30.5 302,-30.5 302,-.5 204,-.5"/>
<text text-anchor="start" x="212" y="-18.5" font-family="Helvetica,sans-Serif" font-size="10.00" fill="#000000">parser/parserfuncs</text>
<text text-anchor="middle" x="253" y="-7.5" font-family="Helvetica,sans-Serif" font-size="10.00" fill="#000000">/expressions.c</text>
</a>
</g>
</g>
<!-- Node3&#45;&gt;Node9 -->
<g id="edge14" class="edge">
<title>Node3&#45;&gt;Node9</title>
<path fill="none" stroke="#191970" d="M475.4839,-120.2624C449.7655,-111.7601 415.9884,-99.8184 387,-87 348.1734,-69.8312 305.1833,-45.9776 278.6234,-30.6381"/>
<polygon fill="#191970" stroke="#191970" points="474.6771,-123.6809 485.2697,-123.4605 476.8516,-117.0272 474.6771,-123.6809"/>
</g>
<!-- Node10 -->
<g id="node8" class="node">
<title>Node10</title>
<g id="a_node8"><a xlink:href="floats_8c.html" target="_top" xlink:title=" ">
<polygon fill="#ffffff" stroke="#000000" points="320,-.5 320,-30.5 418,-30.5 418,-.5 320,-.5"/>
<text text-anchor="start" x="328" y="-18.5" font-family="Helvetica,sans-Serif" font-size="10.00" fill="#000000">parser/parserfuncs</text>
<text text-anchor="middle" x="369" y="-7.5" font-family="Helvetica,sans-Serif" font-size="10.00" fill="#000000">/floats.c</text>
</a>
</g>
</g>
<!-- Node3&#45;&gt;Node10 -->
<g id="edge15" class="edge">
<title>Node3&#45;&gt;Node10</title>
<path fill="none" stroke="#191970" d="M466.0902,-120.3354C445.6129,-113.1917 422.819,-102.5019 406,-87 389.1453,-71.4651 378.7009,-46.4907 373.3707,-30.5466"/>
<polygon fill="#191970" stroke="#191970" points="465.019,-123.6675 475.612,-123.4677 467.2065,-117.0181 465.019,-123.6675"/>
</g>
<!-- Node11 -->
<g id="node9" class="node">
<title>Node11</title>
<g id="a_node9"><a xlink:href="integers_8c.html" target="_top" xlink:title=" ">
<polygon fill="#ffffff" stroke="#000000" points="528,-.5 528,-30.5 626,-30.5 626,-.5 528,-.5"/>
<text text-anchor="start" x="536" y="-18.5" font-family="Helvetica,sans-Serif" font-size="10.00" fill="#000000">parser/parserfuncs</text>
<text text-anchor="middle" x="577" y="-7.5" font-family="Helvetica,sans-Serif" font-size="10.00" fill="#000000">/integers.c</text>
</a>
</g>
</g>
<!-- Node3&#45;&gt;Node11 -->
<g id="edge16" class="edge">
<title>Node3&#45;&gt;Node11</title>
<path fill="none" stroke="#191970" d="M525.7363,-114.2456C537.7632,-91.079 557.991,-52.1157 569.1015,-30.7143"/>
<polygon fill="#191970" stroke="#191970" points="522.4932,-112.8965 520.9919,-123.3845 528.7059,-116.1219 522.4932,-112.8965"/>
</g>
<!-- Node12 -->
<g id="node10" class="node">
<title>Node12</title>
<g id="a_node10"><a xlink:href="parser_8c.html" target="_top" xlink:title=" ">
<polygon fill="#ffffff" stroke="#000000" points="644,-.5 644,-30.5 742,-30.5 742,-.5 644,-.5"/>
<text text-anchor="start" x="652" y="-18.5" font-family="Helvetica,sans-Serif" font-size="10.00" fill="#000000">parser/parserfuncs</text>
<text text-anchor="middle" x="693" y="-7.5" font-family="Helvetica,sans-Serif" font-size="10.00" fill="#000000">/parser.c</text>
</a>
</g>
</g>
<!-- Node3&#45;&gt;Node12 -->
<g id="edge17" class="edge">
<title>Node3&#45;&gt;Node12</title>
<path fill="none" stroke="#191970" d="M538.8565,-117.8269C572.8854,-95.2371 636.4873,-53.0155 670.3791,-30.5167"/>
<polygon fill="#191970" stroke="#191970" points="536.8803,-114.9378 530.4847,-123.3845 540.7518,-120.7697 536.8803,-114.9378"/>
</g>
<!-- Node13 -->
<g id="node11" class="node">
<title>Node13</title>
<g id="a_node11"><a xlink:href="strings_8c.html" target="_top" xlink:title=" ">
<polygon fill="#ffffff" stroke="#000000" points="760,-.5 760,-30.5 858,-30.5 858,-.5 760,-.5"/>
<text text-anchor="start" x="768" y="-18.5" font-family="Helvetica,sans-Serif" font-size="10.00" fill="#000000">parser/parserfuncs</text>
<text text-anchor="middle" x="809" y="-7.5" font-family="Helvetica,sans-Serif" font-size="10.00" fill="#000000">/strings.c</text>
</a>
</g>
</g>
<!-- Node3&#45;&gt;Node13 -->
<g id="edge18" class="edge">
<title>Node3&#45;&gt;Node13</title>
<path fill="none" stroke="#191970" d="M546.2442,-119.1278C566.0873,-110.0164 592.5988,-97.8243 616,-87 635.1298,-78.1514 639.4502,-74.8774 659,-67 692.5831,-53.468 731.2437,-40.2493 760.9042,-30.5926"/>
<polygon fill="#191970" stroke="#191970" points="544.7096,-115.981 537.0815,-123.3337 547.6299,-122.3428 544.7096,-115.981"/>
</g>
<!-- Node14 -->
<g id="node12" class="node">
<title>Node14</title>
<g id="a_node12"><a xlink:href="parserutil_8c.html" target="_top" xlink:title=" ">
<polygon fill="#ffffff" stroke="#000000" points="876.5,-6 876.5,-25 971.5,-25 971.5,-6 876.5,-6"/>
<text text-anchor="middle" x="924" y="-13" font-family="Helvetica,sans-Serif" font-size="10.00" fill="#000000">parser/parserutil.c</text>
</a>
</g>
</g>
<!-- Node3&#45;&gt;Node14 -->
<g id="edge19" class="edge">
<title>Node3&#45;&gt;Node14</title>
<path fill="none" stroke="#191970" d="M557.3884,-120.3838C584.3612,-111.7994 620.1474,-99.7226 651,-87 669.7435,-79.2708 672.8086,-73.5385 692,-67 767.1639,-41.3918 789.7613,-49.4272 867,-31 874.5812,-29.1913 882.6847,-27.0905 890.3323,-25.0303"/>
<polygon fill="#191970" stroke="#191970" points="555.9963,-117.1527 547.5109,-123.4969 558.1006,-123.829 555.9963,-117.1527"/>
</g>
<!-- Node6&#45;&gt;Node4 -->
<g id="edge4" class="edge">
<title>Node6&#45;&gt;Node4</title>
<path fill="none" stroke="#191970" d="M404.8986,-73.6544C325.7261,-68.7087 191.529,-57.0468 79,-31 72.3721,-29.4659 65.3564,-27.2697 58.9211,-25.0111"/>
<polygon fill="#191970" stroke="#191970" points="405.0294,-77.1687 415.223,-74.2806 405.4533,-70.1815 405.0294,-77.1687"/>
</g>
<!-- Node7 -->
<g id="node5" class="node">
<title>Node7</title>
<g id="a_node5"><a xlink:href="AST_8c.html" target="_top" xlink:title=" ">
<polygon fill="#ffffff" stroke="#000000" points="436,-6 436,-25 510,-25 510,-6 436,-6"/>
<text text-anchor="middle" x="473" y="-13" font-family="Helvetica,sans-Serif" font-size="10.00" fill="#000000">parser/AST.c</text>
</a>
</g>
</g>
<!-- Node6&#45;&gt;Node7 -->
<g id="edge5" class="edge">
<title>Node6&#45;&gt;Node7</title>
<path fill="none" stroke="#191970" d="M473,-57.2462C473,-46.5519 473,-33.814 473,-25.2449"/>
<polygon fill="#191970" stroke="#191970" points="469.5001,-57.3906 473,-67.3906 476.5001,-57.3907 469.5001,-57.3906"/>
</g>
<!-- Node6&#45;&gt;Node8 -->
<g id="edge6" class="edge">
<title>Node6&#45;&gt;Node8</title>
<path fill="none" stroke="#191970" d="M405.2165,-67.6648C348.7115,-59.4335 266.2398,-46.375 195,-31 192.1473,-30.3843 189.2248,-29.7179 186.2818,-29.0192"/>
<polygon fill="#191970" stroke="#191970" points="405.0586,-71.1783 415.4565,-69.1451 406.0601,-64.2503 405.0586,-71.1783"/>
</g>
<!-- Node6&#45;&gt;Node9 -->
<g id="edge7" class="edge">
<title>Node6&#45;&gt;Node9</title>
<path fill="none" stroke="#191970" d="M428.7289,-64.6242C392.1135,-54.3885 340.155,-39.8638 302.2353,-29.2635"/>
<polygon fill="#191970" stroke="#191970" points="428.0519,-68.0691 438.625,-67.3906 429.9365,-61.3275 428.0519,-68.0691"/>
</g>
<!-- Node6&#45;&gt;Node10 -->
<g id="edge8" class="edge">
<title>Node6&#45;&gt;Node10</title>
<path fill="none" stroke="#191970" d="M447.8432,-62.1236C431.6551,-52.5508 410.685,-40.1502 394.4413,-30.5446"/>
<polygon fill="#191970" stroke="#191970" points="446.3608,-65.3132 456.75,-67.3906 449.9239,-59.2878 446.3608,-65.3132"/>
</g>
<!-- Node6&#45;&gt;Node11 -->
<g id="edge9" class="edge">
<title>Node6&#45;&gt;Node11</title>
<path fill="none" stroke="#191970" d="M498.1568,-62.1236C514.3449,-52.5508 535.315,-40.1502 551.5587,-30.5446"/>
<polygon fill="#191970" stroke="#191970" points="496.0761,-59.2878 489.25,-67.3906 499.6392,-65.3132 496.0761,-59.2878"/>
</g>
<!-- Node6&#45;&gt;Node12 -->
<g id="edge10" class="edge">
<title>Node6&#45;&gt;Node12</title>
<path fill="none" stroke="#191970" d="M517.2711,-64.6242C553.8865,-54.3885 605.845,-39.8638 643.7647,-29.2635"/>
<polygon fill="#191970" stroke="#191970" points="516.0635,-61.3275 507.375,-67.3906 517.9481,-68.0691 516.0635,-61.3275"/>
</g>
<!-- Node6&#45;&gt;Node13 -->
<g id="edge11" class="edge">
<title>Node6&#45;&gt;Node13</title>
<path fill="none" stroke="#191970" d="M540.7835,-67.6648C597.2885,-59.4335 679.7602,-46.375 751,-31 753.8527,-30.3843 756.7752,-29.7179 759.7182,-29.0192"/>
<polygon fill="#191970" stroke="#191970" points="539.9399,-64.2503 530.5435,-69.1451 540.9414,-71.1783 539.9399,-64.2503"/>
</g>
<!-- Node6&#45;&gt;Node14 -->
<g id="edge12" class="edge">
<title>Node6&#45;&gt;Node14</title>
<path fill="none" stroke="#191970" d="M540.7883,-72.1794C619.6687,-65.8572 753.5933,-52.9124 867,-31 875.2565,-29.4047 884.0719,-27.2411 892.2411,-25.0369"/>
<polygon fill="#191970" stroke="#191970" points="540.1969,-68.7151 530.5033,-72.9911 540.7477,-75.6934 540.1969,-68.7151"/>
</g>
</g>
</svg>
