<?xml version="1.0" encoding="UTF-8" standalone="no"?>
<!DOCTYPE svg PUBLIC "-//W3C//DTD SVG 1.1//EN"
 "http://www.w3.org/Graphics/SVG/1.1/DTD/svg11.dtd">
<!-- Generated by graphviz version 2.40.1 (20161225.0304)
 -->
<!-- Title: parser/include/error.h Pages: 1 -->
<svg width="748pt" height="151pt"
 viewBox="0.00 0.00 747.50 151.00" xmlns="http://www.w3.org/2000/svg" xmlns:xlink="http://www.w3.org/1999/xlink">
<g id="graph0" class="graph" transform="scale(1 1) rotate(0) translate(4 147)">
<title>parser/include/error.h</title>
<polygon fill="#ffffff" stroke="transparent" points="-4,4 -4,-147 743.5,-147 743.5,4 -4,4"/>
<!-- Node3 -->
<g id="node1" class="node">
<title>Node3</title>
<g id="a_node1"><a xlink:title=" ">
<polygon fill="#bfbfbf" stroke="#000000" points="346.5,-123.5 346.5,-142.5 453.5,-142.5 453.5,-123.5 346.5,-123.5"/>
<text text-anchor="middle" x="400" y="-130.5" font-family="Helvetica,sans-Serif" font-size="10.00" fill="#000000">parser/include/error.h</text>
</a>
</g>
</g>
<!-- Node4 -->
<g id="node2" class="node">
<title>Node4</title>
<g id="a_node2"><a xlink:href="main_8c.html" target="_top" xlink:title=" ">
<polygon fill="#ffffff" stroke="#000000" points="0,-6 0,-25 70,-25 70,-6 0,-6"/>
<text text-anchor="middle" x="35" y="-13" font-family="Helvetica,sans-Serif" font-size="10.00" fill="#000000">main/main.c</text>
</a>
</g>
</g>
<!-- Node3&#45;&gt;Node4 -->
<g id="edge1" class="edge">
<title>Node3&#45;&gt;Node4</title>
<path fill="none" stroke="#191970" d="M349.278,-121.0094C314.3624,-112.4101 267.0531,-100.0747 226,-87 164.5981,-67.4446 93.9645,-39.5561 58.26,-25.0671"/>
<polygon fill="#191970" stroke="#191970" points="348.6925,-124.4693 359.2376,-123.4439 350.3547,-117.6695 348.6925,-124.4693"/>
</g>
<!-- Node5 -->
<g id="node3" class="node">
<title>Node5</title>
<g id="a_node3"><a xlink:href="error_8c.html" target="_top" xlink:title=" ">
<polygon fill="#ffffff" stroke="#000000" points="547,-67.5 547,-86.5 621,-86.5 621,-67.5 547,-67.5"/>
<text text-anchor="middle" x="584" y="-74.5" font-family="Helvetica,sans-Serif" font-size="10.00" fill="#000000">parser/error.c</text>
</a>
</g>
</g>
<!-- Node3&#45;&gt;Node5 -->
<g id="edge2" class="edge">
<title>Node3&#45;&gt;Node5</title>
<path fill="none" stroke="#191970" d="M441.2157,-120.4561C474.9916,-110.1765 522.0663,-95.8494 552.782,-86.5011"/>
<polygon fill="#191970" stroke="#191970" points="440.1784,-117.1132 431.6307,-123.3733 442.2166,-123.8099 440.1784,-117.1132"/>
</g>
<!-- Node6 -->
<g id="node4" class="node">
<title>Node6</title>
<g id="a_node4"><a xlink:href="parser_8h.html" target="_top" xlink:title=" ">
<polygon fill="#ffffff" stroke="#000000" points="299.5,-67.5 299.5,-86.5 414.5,-86.5 414.5,-67.5 299.5,-67.5"/>
<text text-anchor="middle" x="357" y="-74.5" font-family="Helvetica,sans-Serif" font-size="10.00" fill="#000000">parser/include/parser.h</text>
</a>
</g>
</g>
<!-- Node3&#45;&gt;Node6 -->
<g id="edge3" class="edge">
<title>Node3&#45;&gt;Node6</title>
<path fill="none" stroke="#191970" d="M386.3408,-115.2112C379.0737,-105.7472 370.4219,-94.4797 364.4042,-86.6427"/>
<polygon fill="#191970" stroke="#191970" points="383.6436,-117.4456 392.51,-123.2455 389.1957,-113.1824 383.6436,-117.4456"/>
</g>
<!-- Node8 -->
<g id="node6" class="node">
<title>Node8</title>
<g id="a_node6"><a xlink:href="expressions_8c.html" target="_top" xlink:title=" ">
<polygon fill="#ffffff" stroke="#000000" points="88,-.5 88,-30.5 186,-30.5 186,-.5 88,-.5"/>
<text text-anchor="start" x="96" y="-18.5" font-family="Helvetica,sans-Serif" font-size="10.00" fill="#000000">parser/parserfuncs</text>
<text text-anchor="middle" x="137" y="-7.5" font-family="Helvetica,sans-Serif" font-size="10.00" fill="#000000">/expressions.c</text>
</a>
</g>
</g>
<!-- Node3&#45;&gt;Node8 -->
<g id="edge11" class="edge">
<title>Node3&#45;&gt;Node8</title>
<path fill="none" stroke="#191970" d="M359.4839,-120.2624C333.7655,-111.7601 299.9884,-99.8184 271,-87 232.1734,-69.8312 189.1833,-45.9776 162.6234,-30.6381"/>
<polygon fill="#191970" stroke="#191970" points="358.6771,-123.6809 369.2697,-123.4605 360.8516,-117.0272 358.6771,-123.6809"/>
</g>
<!-- Node9 -->
<g id="node7" class="node">
<title>Node9</title>
<g id="a_node7"><a xlink:href="floats_8c.html" target="_top" xlink:title=" ">
<polygon fill="#ffffff" stroke="#000000" points="204,-.5 204,-30.5 302,-30.5 302,-.5 204,-.5"/>
<text text-anchor="start" x="212" y="-18.5" font-family="Helvetica,sans-Serif" font-size="10.00" fill="#000000">parser/parserfuncs</text>
<text text-anchor="middle" x="253" y="-7.5" font-family="Helvetica,sans-Serif" font-size="10.00" fill="#000000">/floats.c</text>
</a>
</g>
</g>
<!-- Node3&#45;&gt;Node9 -->
<g id="edge12" class="edge">
<title>Node3&#45;&gt;Node9</title>
<path fill="none" stroke="#191970" d="M350.0902,-120.3354C329.6129,-113.1917 306.819,-102.5019 290,-87 273.1453,-71.4651 262.7009,-46.4907 257.3707,-30.5466"/>
<polygon fill="#191970" stroke="#191970" points="349.019,-123.6675 359.612,-123.4677 351.2065,-117.0181 349.019,-123.6675"/>
</g>
<!-- Node10 -->
<g id="node8" class="node">
<title>Node10</title>
<g id="a_node8"><a xlink:href="integers_8c.html" target="_top" xlink:title=" ">
<polygon fill="#ffffff" stroke="#000000" points="412,-.5 412,-30.5 510,-30.5 510,-.5 412,-.5"/>
<text text-anchor="start" x="420" y="-18.5" font-family="Helvetica,sans-Serif" font-size="10.00" fill="#000000">parser/parserfuncs</text>
<text text-anchor="middle" x="461" y="-7.5" font-family="Helvetica,sans-Serif" font-size="10.00" fill="#000000">/integers.c</text>
</a>
</g>
</g>
<!-- Node3&#45;&gt;Node10 -->
<g id="edge13" class="edge">
<title>Node3&#45;&gt;Node10</title>
<path fill="none" stroke="#191970" d="M409.7363,-114.2456C421.7632,-91.079 441.991,-52.1157 453.1015,-30.7143"/>
<polygon fill="#191970" stroke="#191970" points="406.4932,-112.8965 404.9919,-123.3845 412.7059,-116.1219 406.4932,-112.8965"/>
</g>
<!-- Node11 -->
<g id="node9" class="node">
<title>Node11</title>
<g id="a_node9"><a xlink:href="parser_8c.html" target="_top" xlink:title=" ">
<polygon fill="#ffffff" stroke="#000000" points="528,-.5 528,-30.5 626,-30.5 626,-.5 528,-.5"/>
<text text-anchor="start" x="536" y="-18.5" font-family="Helvetica,sans-Serif" font-size="10.00" fill="#000000">parser/parserfuncs</text>
<text text-anchor="middle" x="577" y="-7.5" font-family="Helvetica,sans-Serif" font-size="10.00" fill="#000000">/parser.c</text>
</a>
</g>
</g>
<!-- Node3&#45;&gt;Node11 -->
<g id="edge14" class="edge">
<title>Node3&#45;&gt;Node11</title>
<path fill="none" stroke="#191970" d="M422.8565,-117.8269C456.8854,-95.2371 520.4873,-53.0155 554.3791,-30.5167"/>
<polygon fill="#191970" stroke="#191970" points="420.8803,-114.9378 414.4847,-123.3845 424.7518,-120.7697 420.8803,-114.9378"/>
</g>
<!-- Node12 -->
<g id="node10" class="node">
<title>Node12</title>
<g id="a_node10"><a xlink:href="parserutil_8c.html" target="_top" xlink:title=" ">
<polygon fill="#ffffff" stroke="#000000" points="644.5,-6 644.5,-25 739.5,-25 739.5,-6 644.5,-6"/>
<text text-anchor="middle" x="692" y="-13" font-family="Helvetica,sans-Serif" font-size="10.00" fill="#000000">parser/parserutil.c</text>
</a>
</g>
</g>
<!-- Node3&#45;&gt;Node12 -->
<g id="edge15" class="edge">
<title>Node3&#45;&gt;Node12</title>
<path fill="none" stroke="#191970" d="M430.7157,-119.1008C450.3387,-110.1294 476.2743,-98.1016 499,-87 516.5029,-78.4498 520.0451,-74.555 538,-67 578.6663,-49.8886 627.1649,-34.4519 658.7217,-25.0372"/>
<polygon fill="#191970" stroke="#191970" points="429.0039,-116.0346 421.3563,-123.367 431.9073,-122.4041 429.0039,-116.0346"/>
</g>
<!-- Node6&#45;&gt;Node4 -->
<g id="edge4" class="edge">
<title>Node6&#45;&gt;Node4</title>
<path fill="none" stroke="#191970" d="M289.4971,-69.1876C232.7726,-61.8253 149.8483,-49.1917 79,-31 72.7244,-29.3886 66.0741,-27.2707 59.8963,-25.1201"/>
<polygon fill="#191970" stroke="#191970" points="289.0598,-72.6601 299.423,-70.4568 289.9477,-65.7166 289.0598,-72.6601"/>
</g>
<!-- Node7 -->
<g id="node5" class="node">
<title>Node7</title>
<g id="a_node5"><a xlink:href="AST_8c.html" target="_top" xlink:title=" ">
<polygon fill="#ffffff" stroke="#000000" points="320,-6 320,-25 394,-25 394,-6 320,-6"/>
<text text-anchor="middle" x="357" y="-13" font-family="Helvetica,sans-Serif" font-size="10.00" fill="#000000">parser/AST.c</text>
</a>
</g>
</g>
<!-- Node6&#45;&gt;Node7 -->
<g id="edge5" class="edge">
<title>Node6&#45;&gt;Node7</title>
<path fill="none" stroke="#191970" d="M357,-57.2462C357,-46.5519 357,-33.814 357,-25.2449"/>
<polygon fill="#191970" stroke="#191970" points="353.5001,-57.3906 357,-67.3906 360.5001,-57.3907 353.5001,-57.3906"/>
</g>
<!-- Node6&#45;&gt;Node8 -->
<g id="edge6" class="edge">
<title>Node6&#45;&gt;Node8</title>
<path fill="none" stroke="#191970" d="M312.7289,-64.6242C276.1135,-54.3885 224.155,-39.8638 186.2353,-29.2635"/>
<polygon fill="#191970" stroke="#191970" points="312.0519,-68.0691 322.625,-67.3906 313.9365,-61.3275 312.0519,-68.0691"/>
</g>
<!-- Node6&#45;&gt;Node9 -->
<g id="edge7" class="edge">
<title>Node6&#45;&gt;Node9</title>
<path fill="none" stroke="#191970" d="M331.8432,-62.1236C315.6551,-52.5508 294.685,-40.1502 278.4413,-30.5446"/>
<polygon fill="#191970" stroke="#191970" points="330.3608,-65.3132 340.75,-67.3906 333.9239,-59.2878 330.3608,-65.3132"/>
</g>
<!-- Node6&#45;&gt;Node10 -->
<g id="edge8" class="edge">
<title>Node6&#45;&gt;Node10</title>
<path fill="none" stroke="#191970" d="M382.1568,-62.1236C398.3449,-52.5508 419.315,-40.1502 435.5587,-30.5446"/>
<polygon fill="#191970" stroke="#191970" points="380.0761,-59.2878 373.25,-67.3906 383.6392,-65.3132 380.0761,-59.2878"/>
</g>
<!-- Node6&#45;&gt;Node11 -->
<g id="edge9" class="edge">
<title>Node6&#45;&gt;Node11</title>
<path fill="none" stroke="#191970" d="M401.2711,-64.6242C437.8865,-54.3885 489.845,-39.8638 527.7647,-29.2635"/>
<polygon fill="#191970" stroke="#191970" points="400.0635,-61.3275 391.375,-67.3906 401.9481,-68.0691 400.0635,-61.3275"/>
</g>
<!-- Node6&#45;&gt;Node12 -->
<g id="edge10" class="edge">
<title>Node6&#45;&gt;Node12</title>
<path fill="none" stroke="#191970" d="M424.8012,-67.7464C481.3167,-59.5637 563.794,-46.5307 635,-31 642.9155,-29.2736 651.3738,-27.1366 659.286,-25.0069"/>
<polygon fill="#191970" stroke="#191970" points="423.96,-64.3312 414.5592,-69.2174 424.9552,-71.2601 423.96,-64.3312"/>
</g>
</g>
</svg>
