<?xml version="1.0" encoding="UTF-8" standalone="no"?>
<!DOCTYPE svg PUBLIC "-//W3C//DTD SVG 1.1//EN"
 "http://www.w3.org/Graphics/SVG/1.1/DTD/svg11.dtd">
<!-- Generated by graphviz version 2.40.1 (20161225.0304)
 -->
<!-- Title: parser/include/error.h Pages: 1 -->
<svg width="864pt" height="151pt"
 viewBox="0.00 0.00 863.50 151.00" xmlns="http://www.w3.org/2000/svg" xmlns:xlink="http://www.w3.org/1999/xlink">
<g id="graph0" class="graph" transform="scale(1 1) rotate(0) translate(4 147)">
<title>parser/include/error.h</title>
<polygon fill="#ffffff" stroke="transparent" points="-4,4 -4,-147 859.5,-147 859.5,4 -4,4"/>
<!-- Node3 -->
<g id="node1" class="node">
<title>Node3</title>
<g id="a_node1"><a xlink:title=" ">
<polygon fill="#bfbfbf" stroke="#000000" points="407.5,-123.5 407.5,-142.5 514.5,-142.5 514.5,-123.5 407.5,-123.5"/>
<text text-anchor="middle" x="461" y="-130.5" font-family="Helvetica,sans-Serif" font-size="10.00" fill="#000000">parser/include/error.h</text>
</a>
</g>
</g>
<!-- Node4 -->
<g id="node2" class="node">
<title>Node4</title>
<g id="a_node2"><a xlink:href="main_8c.html" target="_top" xlink:title=" ">
<polygon fill="#ffffff" stroke="#000000" points="0,-6 0,-25 70,-25 70,-6 0,-6"/>
<text text-anchor="middle" x="35" y="-13" font-family="Helvetica,sans-Serif" font-size="10.00" fill="#000000">main/main.c</text>
</a>
</g>
</g>
<!-- Node3&#45;&gt;Node4 -->
<g id="edge1" class="edge">
<title>Node3&#45;&gt;Node4</title>
<path fill="none" stroke="#191970" d="M397.1864,-122.6215C351.3687,-114.5524 288.3671,-102.1891 234,-87 169.1199,-68.8738 95.0057,-39.9966 58.2307,-25.0943"/>
<polygon fill="#191970" stroke="#191970" points="396.8238,-126.1109 407.2759,-124.378 398.0244,-119.2146 396.8238,-126.1109"/>
</g>
<!-- Node5 -->
<g id="node3" class="node">
<title>Node5</title>
<g id="a_node3"><a xlink:href="error_8c.html" target="_top" xlink:title=" ">
<polygon fill="#ffffff" stroke="#000000" points="603,-67.5 603,-86.5 677,-86.5 677,-67.5 603,-67.5"/>
<text text-anchor="middle" x="640" y="-74.5" font-family="Helvetica,sans-Serif" font-size="10.00" fill="#000000">parser/error.c</text>
</a>
</g>
</g>
<!-- Node3&#45;&gt;Node5 -->
<g id="edge2" class="edge">
<title>Node3&#45;&gt;Node5</title>
<path fill="none" stroke="#191970" d="M501.5195,-120.3235C534.3466,-110.0536 579.8776,-95.8093 609.6303,-86.5011"/>
<polygon fill="#191970" stroke="#191970" points="500.27,-117.0471 491.7712,-123.3733 502.3601,-123.7278 500.27,-117.0471"/>
</g>
<!-- Node6 -->
<g id="node4" class="node">
<title>Node6</title>
<g id="a_node4"><a xlink:href="parser_8h.html" target="_top" xlink:title=" ">
<polygon fill="#ffffff" stroke="#000000" points="317.5,-67.5 317.5,-86.5 432.5,-86.5 432.5,-67.5 317.5,-67.5"/>
<text text-anchor="middle" x="375" y="-74.5" font-family="Helvetica,sans-Serif" font-size="10.00" fill="#000000">parser/include/parser.h</text>
</a>
</g>
</g>
<!-- Node3&#45;&gt;Node6 -->
<g id="edge3" class="edge">
<title>Node3&#45;&gt;Node6</title>
<path fill="none" stroke="#191970" d="M437.6095,-117.769C422.3701,-107.8456 402.9491,-95.1994 389.8084,-86.6427"/>
<polygon fill="#191970" stroke="#191970" points="435.7301,-120.7218 446.0199,-123.2455 439.5498,-114.8558 435.7301,-120.7218"/>
</g>
<!-- Node8 -->
<g id="node6" class="node">
<title>Node8</title>
<g id="a_node6"><a xlink:href="compound_8c.html" target="_top" xlink:title=" ">
<polygon fill="#ffffff" stroke="#000000" points="88,-.5 88,-30.5 186,-30.5 186,-.5 88,-.5"/>
<text text-anchor="start" x="96" y="-18.5" font-family="Helvetica,sans-Serif" font-size="10.00" fill="#000000">parser/parserfuncs</text>
<text text-anchor="middle" x="137" y="-7.5" font-family="Helvetica,sans-Serif" font-size="10.00" fill="#000000">/compound.c</text>
</a>
</g>
</g>
<!-- Node3&#45;&gt;Node8 -->
<g id="edge12" class="edge">
<title>Node3&#45;&gt;Node8</title>
<path fill="none" stroke="#191970" d="M403.2296,-121.1911C367.9527,-113.2168 322.2366,-101.507 283,-87 239.8505,-71.0462 192.4592,-46.4217 163.7211,-30.6359"/>
<polygon fill="#191970" stroke="#191970" points="402.8337,-124.6885 413.355,-123.4425 404.3531,-117.8554 402.8337,-124.6885"/>
</g>
<!-- Node9 -->
<g id="node7" class="node">
<title>Node9</title>
<g id="a_node7"><a xlink:href="expressions_8c.html" target="_top" xlink:title=" ">
<polygon fill="#ffffff" stroke="#000000" points="204,-.5 204,-30.5 302,-30.5 302,-.5 204,-.5"/>
<text text-anchor="start" x="212" y="-18.5" font-family="Helvetica,sans-Serif" font-size="10.00" fill="#000000">parser/parserfuncs</text>
<text text-anchor="middle" x="253" y="-7.5" font-family="Helvetica,sans-Serif" font-size="10.00" fill="#000000">/expressions.c</text>
</a>
</g>
</g>
<!-- Node3&#45;&gt;Node9 -->
<g id="edge13" class="edge">
<title>Node3&#45;&gt;Node9</title>
<path fill="none" stroke="#191970" d="M397.0841,-123.0544C368.0341,-116.3025 334.3517,-105.167 308,-87 286.7253,-72.3332 270.0269,-46.8702 260.8436,-30.6209"/>
<polygon fill="#191970" stroke="#191970" points="396.6286,-126.5377 407.1466,-125.2641 398.1301,-119.7006 396.6286,-126.5377"/>
</g>
<!-- Node10 -->
<g id="node8" class="node">
<title>Node10</title>
<g id="a_node8"><a xlink:href="floats_8c.html" target="_top" xlink:title=" ">
<polygon fill="#ffffff" stroke="#000000" points="412,-.5 412,-30.5 510,-30.5 510,-.5 412,-.5"/>
<text text-anchor="start" x="420" y="-18.5" font-family="Helvetica,sans-Serif" font-size="10.00" fill="#000000">parser/parserfuncs</text>
<text text-anchor="middle" x="461" y="-7.5" font-family="Helvetica,sans-Serif" font-size="10.00" fill="#000000">/floats.c</text>
</a>
</g>
</g>
<!-- Node3&#45;&gt;Node10 -->
<g id="edge14" class="edge">
<title>Node3&#45;&gt;Node10</title>
<path fill="none" stroke="#191970" d="M461,-113.3022C461,-90.0339 461,-51.8278 461,-30.7143"/>
<polygon fill="#191970" stroke="#191970" points="457.5001,-113.3844 461,-123.3845 464.5001,-113.3845 457.5001,-113.3844"/>
</g>
<!-- Node11 -->
<g id="node9" class="node">
<title>Node11</title>
<g id="a_node9"><a xlink:href="integers_8c.html" target="_top" xlink:title=" ">
<polygon fill="#ffffff" stroke="#000000" points="528,-.5 528,-30.5 626,-30.5 626,-.5 528,-.5"/>
<text text-anchor="start" x="536" y="-18.5" font-family="Helvetica,sans-Serif" font-size="10.00" fill="#000000">parser/parserfuncs</text>
<text text-anchor="middle" x="577" y="-7.5" font-family="Helvetica,sans-Serif" font-size="10.00" fill="#000000">/integers.c</text>
</a>
</g>
</g>
<!-- Node3&#45;&gt;Node11 -->
<g id="edge15" class="edge">
<title>Node3&#45;&gt;Node11</title>
<path fill="none" stroke="#191970" d="M476.612,-115.8694C489.0003,-102.4016 506.8589,-83.2634 523,-67 535.4113,-54.4947 549.8758,-40.7416 560.7092,-30.5959"/>
<polygon fill="#191970" stroke="#191970" points="473.8449,-113.7085 469.6696,-123.4459 479.0059,-118.4376 473.8449,-113.7085"/>
</g>
<!-- Node12 -->
<g id="node10" class="node">
<title>Node12</title>
<g id="a_node10"><a xlink:href="parser_8c.html" target="_top" xlink:title=" ">
<polygon fill="#ffffff" stroke="#000000" points="644,-.5 644,-30.5 742,-30.5 742,-.5 644,-.5"/>
<text text-anchor="start" x="652" y="-18.5" font-family="Helvetica,sans-Serif" font-size="10.00" fill="#000000">parser/parserfuncs</text>
<text text-anchor="middle" x="693" y="-7.5" font-family="Helvetica,sans-Serif" font-size="10.00" fill="#000000">/parser.c</text>
</a>
</g>
</g>
<!-- Node3&#45;&gt;Node12 -->
<g id="edge16" class="edge">
<title>Node3&#45;&gt;Node12</title>
<path fill="none" stroke="#191970" d="M481.9573,-117.2708C501.6578,-102.9525 532.3249,-81.8441 561,-67 588.8531,-52.5814 621.7046,-39.7505 647.6666,-30.5023"/>
<polygon fill="#191970" stroke="#191970" points="479.7071,-114.5811 473.7239,-123.3248 483.8538,-120.2206 479.7071,-114.5811"/>
</g>
<!-- Node13 -->
<g id="node11" class="node">
<title>Node13</title>
<g id="a_node11"><a xlink:href="parserutil_8c.html" target="_top" xlink:title=" ">
<polygon fill="#ffffff" stroke="#000000" points="760.5,-6 760.5,-25 855.5,-25 855.5,-6 760.5,-6"/>
<text text-anchor="middle" x="808" y="-13" font-family="Helvetica,sans-Serif" font-size="10.00" fill="#000000">parser/parserutil.c</text>
</a>
</g>
</g>
<!-- Node3&#45;&gt;Node13 -->
<g id="edge17" class="edge">
<title>Node3&#45;&gt;Node13</title>
<path fill="none" stroke="#191970" d="M490.8269,-119.1658C509.8717,-110.2199 535.0239,-98.1962 557,-87 573.656,-78.5142 576.5083,-73.5934 594,-67 660.9876,-41.7492 681.5571,-48.396 751,-31 758.3614,-29.1559 766.2297,-27.0828 773.6968,-25.0672"/>
<polygon fill="#191970" stroke="#191970" points="489.3154,-116.0088 481.7418,-123.4176 492.2826,-122.3488 489.3154,-116.0088"/>
</g>
<!-- Node6&#45;&gt;Node4 -->
<g id="edge4" class="edge">
<title>Node6&#45;&gt;Node4</title>
<path fill="none" stroke="#191970" d="M307.169,-70.066C246.7093,-63.0346 156.1166,-50.3985 79,-31 72.5595,-29.3799 65.7305,-27.2074 59.4227,-25.0025"/>
<polygon fill="#191970" stroke="#191970" points="307.0181,-73.5715 317.351,-71.2303 307.8134,-66.6168 307.0181,-73.5715"/>
</g>
<!-- Node7 -->
<g id="node5" class="node">
<title>Node7</title>
<g id="a_node5"><a xlink:href="AST_8c.html" target="_top" xlink:title=" ">
<polygon fill="#ffffff" stroke="#000000" points="320,-6 320,-25 394,-25 394,-6 320,-6"/>
<text text-anchor="middle" x="357" y="-13" font-family="Helvetica,sans-Serif" font-size="10.00" fill="#000000">parser/AST.c</text>
</a>
</g>
</g>
<!-- Node6&#45;&gt;Node7 -->
<g id="edge5" class="edge">
<title>Node6&#45;&gt;Node7</title>
<path fill="none" stroke="#191970" d="M369.317,-57.5832C366.167,-46.8205 362.3866,-33.9042 359.8522,-25.2449"/>
<polygon fill="#191970" stroke="#191970" points="366.0194,-58.7764 372.1875,-67.3906 372.7375,-56.8101 366.0194,-58.7764"/>
</g>
<!-- Node6&#45;&gt;Node8 -->
<g id="edge6" class="edge">
<title>Node6&#45;&gt;Node8</title>
<path fill="none" stroke="#191970" d="M327.2175,-64.9403C290.9216,-55.7429 239.7828,-42.7058 195,-31 192.0756,-30.2356 189.0695,-29.4455 186.0377,-28.6453"/>
<polygon fill="#191970" stroke="#191970" points="326.4904,-68.3666 337.0436,-67.4283 328.2087,-61.5807 326.4904,-68.3666"/>
</g>
<!-- Node6&#45;&gt;Node9 -->
<g id="edge7" class="edge">
<title>Node6&#45;&gt;Node9</title>
<path fill="none" stroke="#191970" d="M346.8108,-62.7899C327.6517,-53.1318 302.3449,-40.3747 282.8446,-30.5446"/>
<polygon fill="#191970" stroke="#191970" points="345.4324,-66.0145 355.9375,-67.3906 348.5834,-59.7638 345.4324,-66.0145"/>
</g>
<!-- Node6&#45;&gt;Node10 -->
<g id="edge8" class="edge">
<title>Node6&#45;&gt;Node10</title>
<path fill="none" stroke="#191970" d="M396.9379,-61.3119C410.1584,-51.8577 426.9064,-39.8809 439.962,-30.5446"/>
<polygon fill="#191970" stroke="#191970" points="394.5357,-58.7268 388.4375,-67.3906 398.6076,-64.4207 394.5357,-58.7268"/>
</g>
<!-- Node6&#45;&gt;Node11 -->
<g id="edge9" class="edge">
<title>Node6&#45;&gt;Node11</title>
<path fill="none" stroke="#191970" d="M416.1707,-64.4654C448.5416,-54.6099 493.7336,-40.8509 527.9725,-30.4267"/>
<polygon fill="#191970" stroke="#191970" points="415.1095,-61.1297 406.5625,-67.3906 417.1484,-67.8263 415.1095,-61.1297"/>
</g>
<!-- Node6&#45;&gt;Node12 -->
<g id="edge10" class="edge">
<title>Node6&#45;&gt;Node12</title>
<path fill="none" stroke="#191970" d="M442.4951,-66.693C495.1634,-58.2566 570.042,-45.398 635,-31 637.8492,-30.3685 640.769,-29.6896 643.7099,-28.9815"/>
<polygon fill="#191970" stroke="#191970" points="441.9227,-63.2399 432.5972,-68.2683 443.023,-70.1529 441.9227,-63.2399"/>
</g>
<!-- Node6&#45;&gt;Node13 -->
<g id="edge11" class="edge">
<title>Node6&#45;&gt;Node13</title>
<path fill="none" stroke="#191970" d="M443.0753,-71.6373C518.7512,-64.9894 644.3688,-51.9081 751,-31 759.2521,-29.3819 768.0659,-27.2101 776.2349,-25.0054"/>
<polygon fill="#191970" stroke="#191970" points="442.3964,-68.1829 432.7357,-72.5328 443.0005,-75.1568 442.3964,-68.1829"/>
</g>
</g>
</svg>
