<?xml version="1.0" encoding="UTF-8" standalone="no"?>
<!DOCTYPE svg PUBLIC "-//W3C//DTD SVG 1.1//EN"
 "http://www.w3.org/Graphics/SVG/1.1/DTD/svg11.dtd">
<!-- Generated by graphviz version 2.40.1 (20161225.0304)
 -->
<!-- Title: main/parser/error.c Pages: 1 -->
<svg width="341pt" height="140pt"
 viewBox="0.00 0.00 341.15 140.00" xmlns="http://www.w3.org/2000/svg" xmlns:xlink="http://www.w3.org/1999/xlink">
<g id="graph0" class="graph" transform="scale(1 1) rotate(0) translate(4 136)">
<title>main/parser/error.c</title>
<polygon fill="#ffffff" stroke="transparent" points="-4,4 -4,-136 337.15,-136 337.15,4 -4,4"/>
<!-- Node0 -->
<g id="node1" class="node">
<title>Node0</title>
<g id="a_node1"><a xlink:title=" ">
<polygon fill="#bfbfbf" stroke="#000000" points="131.5,-112.5 131.5,-131.5 240.5,-131.5 240.5,-112.5 131.5,-112.5"/>
<text text-anchor="middle" x="186" y="-119.5" font-family="Helvetica,sans-Serif" font-size="10.00" fill="#000000">main/parser/error.c</text>
</a>
</g>
</g>
<!-- Node1 -->
<g id="node2" class="node">
<title>Node1</title>
<g id="a_node2"><a xlink:title=" ">
<polygon fill="#ffffff" stroke="#bfbfbf" points="0,-.5 0,-19.5 62,-19.5 62,-.5 0,-.5"/>
<text text-anchor="middle" x="31" y="-7.5" font-family="Helvetica,sans-Serif" font-size="10.00" fill="#000000">stdbool.h</text>
</a>
</g>
</g>
<!-- Node0&#45;&gt;Node1 -->
<g id="edge1" class="edge">
<title>Node0&#45;&gt;Node1</title>
<path fill="none" stroke="#191970" d="M131.3028,-114.5741C86.8333,-107.2833 29.2143,-94.5434 15,-76 4.5097,-62.3149 11.2274,-42.7256 18.9152,-28.4445"/>
<polygon fill="#191970" stroke="#191970" points="22.1033,-29.9302 24.1931,-19.5435 16.0822,-26.36 22.1033,-29.9302"/>
</g>
<!-- Node2 -->
<g id="node3" class="node">
<title>Node2</title>
<g id="a_node3"><a xlink:title=" ">
<polygon fill="#ffffff" stroke="#bfbfbf" points="200.5,-.5 200.5,-19.5 253.5,-19.5 253.5,-.5 200.5,-.5"/>
<text text-anchor="middle" x="227" y="-7.5" font-family="Helvetica,sans-Serif" font-size="10.00" fill="#000000">stdint.h</text>
</a>
</g>
</g>
<!-- Node0&#45;&gt;Node2 -->
<g id="edge2" class="edge">
<title>Node0&#45;&gt;Node2</title>
<path fill="none" stroke="#191970" d="M235.215,-112.4614C271.6393,-104.2851 316.7978,-91.4043 328,-76 348.3822,-47.9724 300.2353,-28.6057 263.6231,-18.4115"/>
<polygon fill="#191970" stroke="#191970" points="264.2314,-14.9521 253.6689,-15.7798 262.4422,-21.7196 264.2314,-14.9521"/>
</g>
<!-- Node3 -->
<g id="node4" class="node">
<title>Node3</title>
<g id="a_node4"><a xlink:title=" ">
<polygon fill="#ffffff" stroke="#bfbfbf" points="126,-56.5 126,-75.5 176,-75.5 176,-56.5 126,-56.5"/>
<text text-anchor="middle" x="151" y="-63.5" font-family="Helvetica,sans-Serif" font-size="10.00" fill="#000000">stdio.h</text>
</a>
</g>
</g>
<!-- Node0&#45;&gt;Node3 -->
<g id="edge3" class="edge">
<title>Node0&#45;&gt;Node3</title>
<path fill="none" stroke="#191970" d="M179.9035,-112.2455C175.0855,-104.5367 168.2249,-93.5598 162.3968,-84.2348"/>
<polygon fill="#191970" stroke="#191970" points="165.2947,-82.2677 157.0267,-75.6427 159.3587,-85.9777 165.2947,-82.2677"/>
</g>
<!-- Node4 -->
<g id="node5" class="node">
<title>Node4</title>
<g id="a_node5"><a xlink:title=" ">
<polygon fill="#ffffff" stroke="#bfbfbf" points="194.5,-56.5 194.5,-75.5 247.5,-75.5 247.5,-56.5 194.5,-56.5"/>
<text text-anchor="middle" x="221" y="-63.5" font-family="Helvetica,sans-Serif" font-size="10.00" fill="#000000">stdlib.h</text>
</a>
</g>
</g>
<!-- Node0&#45;&gt;Node4 -->
<g id="edge4" class="edge">
<title>Node0&#45;&gt;Node4</title>
<path fill="none" stroke="#191970" d="M192.0965,-112.2455C196.9145,-104.5367 203.7751,-93.5598 209.6032,-84.2348"/>
<polygon fill="#191970" stroke="#191970" points="212.6413,-85.9777 214.9733,-75.6427 206.7053,-82.2677 212.6413,-85.9777"/>
</g>
<!-- Node5 -->
<g id="node6" class="node">
<title>Node5</title>
<g id="a_node6"><a xlink:title=" ">
<polygon fill="#ffffff" stroke="#bfbfbf" points="265.5,-56.5 265.5,-75.5 318.5,-75.5 318.5,-56.5 265.5,-56.5"/>
<text text-anchor="middle" x="292" y="-63.5" font-family="Helvetica,sans-Serif" font-size="10.00" fill="#000000">string.h</text>
</a>
</g>
</g>
<!-- Node0&#45;&gt;Node5 -->
<g id="edge5" class="edge">
<title>Node0&#45;&gt;Node5</title>
<path fill="none" stroke="#191970" d="M204.4638,-112.2455C221.1074,-103.4527 245.7993,-90.4079 264.7192,-80.4125"/>
<polygon fill="#191970" stroke="#191970" points="266.5408,-83.4086 273.7478,-75.6427 263.2709,-77.2193 266.5408,-83.4086"/>
</g>
<!-- Node6 -->
<g id="node7" class="node">
<title>Node6</title>
<g id="a_node7"><a xlink:href="parser__error_8h.html" target="_top" xlink:title=" ">
<polygon fill="#ffffff" stroke="#000000" points="24,-56.5 24,-75.5 108,-75.5 108,-56.5 24,-56.5"/>
<text text-anchor="middle" x="66" y="-63.5" font-family="Helvetica,sans-Serif" font-size="10.00" fill="#000000">parser_error.h</text>
</a>
</g>
</g>
<!-- Node0&#45;&gt;Node6 -->
<g id="edge6" class="edge">
<title>Node0&#45;&gt;Node6</title>
<path fill="none" stroke="#191970" d="M165.3713,-112.3733C146.1081,-103.3838 117.1514,-89.8706 95.4581,-79.7471"/>
<polygon fill="#191970" stroke="#191970" points="96.9015,-76.5584 86.3595,-75.5011 93.9413,-82.9017 96.9015,-76.5584"/>
</g>
<!-- Node6&#45;&gt;Node1 -->
<g id="edge7" class="edge">
<title>Node6&#45;&gt;Node1</title>
<path fill="none" stroke="#191970" d="M59.9035,-56.2455C55.0855,-48.5367 48.2249,-37.5598 42.3968,-28.2348"/>
<polygon fill="#191970" stroke="#191970" points="45.2947,-26.2677 37.0267,-19.6427 39.3587,-29.9777 45.2947,-26.2677"/>
</g>
<!-- Node6&#45;&gt;Node2 -->
<g id="edge8" class="edge">
<title>Node6&#45;&gt;Node2</title>
<path fill="none" stroke="#191970" d="M93.6769,-56.3733C120.5752,-47.0173 161.5611,-32.7614 190.9865,-22.5264"/>
<polygon fill="#191970" stroke="#191970" points="192.1902,-25.8135 200.4853,-19.2225 189.8905,-19.202 192.1902,-25.8135"/>
</g>
</g>
</svg>
