<?xml version="1.0" encoding="UTF-8" standalone="no"?>
<!DOCTYPE svg PUBLIC "-//W3C//DTD SVG 1.1//EN"
 "http://www.w3.org/Graphics/SVG/1.1/DTD/svg11.dtd">
<!-- Generated by graphviz version 2.40.1 (20161225.0304)
 -->
<!-- Title: hvm/executestack.c Pages: 1 -->
<svg width="850pt" height="420pt"
 viewBox="0.00 0.00 850.00 420.00" xmlns="http://www.w3.org/2000/svg" xmlns:xlink="http://www.w3.org/1999/xlink">
<g id="graph0" class="graph" transform="scale(1 1) rotate(0) translate(4 416)">
<title>hvm/executestack.c</title>
<polygon fill="#ffffff" stroke="transparent" points="-4,4 -4,-416 846,-416 846,4 -4,4"/>
<!-- Node0 -->
<g id="node1" class="node">
<title>Node0</title>
<g id="a_node1"><a xlink:title=" ">
<polygon fill="#bfbfbf" stroke="#000000" points="443.5,-392.5 443.5,-411.5 548.5,-411.5 548.5,-392.5 443.5,-392.5"/>
<text text-anchor="middle" x="496" y="-399.5" font-family="Helvetica,sans-Serif" font-size="10.00" fill="#000000">hvm/executestack.c</text>
</a>
</g>
</g>
<!-- Node1 -->
<g id="node2" class="node">
<title>Node1</title>
<g id="a_node2"><a xlink:href="builtins_8h.html" target="_top" xlink:title=" ">
<polygon fill="#ffffff" stroke="#000000" points="433,-280.5 433,-299.5 489,-299.5 489,-280.5 433,-280.5"/>
<text text-anchor="middle" x="461" y="-287.5" font-family="Helvetica,sans-Serif" font-size="10.00" fill="#000000">builtins.h</text>
</a>
</g>
</g>
<!-- Node0&#45;&gt;Node1 -->
<g id="edge1" class="edge">
<title>Node0&#45;&gt;Node1</title>
<path fill="none" stroke="#191970" d="M492.4108,-392.1813C489.0607,-382.9031 483.9927,-368.5717 480,-356 475.0937,-340.5516 470.0406,-322.8998 466.38,-309.7405"/>
<polygon fill="#191970" stroke="#191970" points="469.6967,-308.6016 463.6664,-299.8903 462.9481,-310.4608 469.6967,-308.6016"/>
</g>
<!-- Node7 -->
<g id="node8" class="node">
<title>Node7</title>
<g id="a_node8"><a xlink:title=" ">
<polygon fill="#ffffff" stroke="#bfbfbf" points="128,-.5 128,-19.5 184,-19.5 184,-.5 128,-.5"/>
<text text-anchor="middle" x="156" y="-7.5" font-family="Helvetica,sans-Serif" font-size="10.00" fill="#000000">stdbool.h</text>
</a>
</g>
</g>
<!-- Node0&#45;&gt;Node7 -->
<g id="edge29" class="edge">
<title>Node0&#45;&gt;Node7</title>
<path fill="none" stroke="#191970" d="M443.3328,-400.2489C345.302,-396.3389 138.8983,-384.861 74,-356 33.7327,-338.0927 0,-334.0695 0,-290 0,-290 0,-290 0,-122 0,-64.0704 71.862,-33.183 118.0384,-19.3153"/>
<polygon fill="#191970" stroke="#191970" points="119.1,-22.652 127.7496,-16.5336 117.1724,-15.9227 119.1,-22.652"/>
</g>
<!-- Node9 -->
<g id="node10" class="node">
<title>Node9</title>
<g id="a_node10"><a xlink:title=" ">
<polygon fill="#ffffff" stroke="#bfbfbf" points="705.5,-.5 705.5,-19.5 754.5,-19.5 754.5,-.5 705.5,-.5"/>
<text text-anchor="middle" x="730" y="-7.5" font-family="Helvetica,sans-Serif" font-size="10.00" fill="#000000">stdint.h</text>
</a>
</g>
</g>
<!-- Node0&#45;&gt;Node9 -->
<g id="edge30" class="edge">
<title>Node0&#45;&gt;Node9</title>
<path fill="none" stroke="#191970" d="M544.3147,-392.4508C622.4767,-375.6023 768,-337.8132 768,-290 768,-290 768,-290 768,-122 768,-87.6118 751.7366,-50.2832 740.489,-28.5791"/>
<polygon fill="#191970" stroke="#191970" points="743.431,-26.6605 735.607,-19.5166 737.2683,-29.9804 743.431,-26.6605"/>
</g>
<!-- Node10 -->
<g id="node11" class="node">
<title>Node10</title>
<g id="a_node11"><a xlink:title=" ">
<polygon fill="#ffffff" stroke="#bfbfbf" points="54,-56.5 54,-75.5 102,-75.5 102,-56.5 54,-56.5"/>
<text text-anchor="middle" x="78" y="-63.5" font-family="Helvetica,sans-Serif" font-size="10.00" fill="#000000">stdlib.h</text>
</a>
</g>
</g>
<!-- Node0&#45;&gt;Node10 -->
<g id="edge32" class="edge">
<title>Node0&#45;&gt;Node10</title>
<path fill="none" stroke="#191970" d="M443.4616,-400.188C323.1598,-394.6121 38,-372.6754 38,-290 38,-290 38,-290 38,-178 38,-143.4432 55.097,-106.1996 66.9358,-84.5529"/>
<polygon fill="#191970" stroke="#191970" points="70.0287,-86.1941 71.9249,-75.7703 63.9422,-82.7365 70.0287,-86.1941"/>
</g>
<!-- Node16 -->
<g id="node17" class="node">
<title>Node16</title>
<g id="a_node17"><a xlink:href="executestack_8h.html" target="_top" xlink:title=" ">
<polygon fill="#ffffff" stroke="#000000" points="489.5,-336.5 489.5,-355.5 572.5,-355.5 572.5,-336.5 489.5,-336.5"/>
<text text-anchor="middle" x="531" y="-343.5" font-family="Helvetica,sans-Serif" font-size="10.00" fill="#000000">executestack.h</text>
</a>
</g>
</g>
<!-- Node0&#45;&gt;Node16 -->
<g id="edge26" class="edge">
<title>Node0&#45;&gt;Node16</title>
<path fill="none" stroke="#191970" d="M502.0965,-392.2455C506.9145,-384.5367 513.7751,-373.5598 519.6032,-364.2348"/>
<polygon fill="#191970" stroke="#191970" points="522.6413,-365.9777 524.9733,-355.6427 516.7053,-362.2677 522.6413,-365.9777"/>
</g>
<!-- Node17 -->
<g id="node18" class="node">
<title>Node17</title>
<g id="a_node18"><a xlink:title=" ">
<polygon fill="#ffffff" stroke="#bfbfbf" points="796,-336.5 796,-355.5 842,-355.5 842,-336.5 796,-336.5"/>
<text text-anchor="middle" x="819" y="-343.5" font-family="Helvetica,sans-Serif" font-size="10.00" fill="#000000">stdio.h</text>
</a>
</g>
</g>
<!-- Node0&#45;&gt;Node17 -->
<g id="edge31" class="edge">
<title>Node0&#45;&gt;Node17</title>
<path fill="none" stroke="#191970" d="M548.7569,-395.1982C606.38,-387.3783 701.2416,-373.3582 782,-356 783.2808,-355.7247 784.5834,-355.4326 785.8969,-355.1279"/>
<polygon fill="#191970" stroke="#191970" points="787.1386,-358.4258 795.9982,-352.6157 785.4491,-351.6328 787.1386,-358.4258"/>
</g>
<!-- Node2 -->
<g id="node3" class="node">
<title>Node2</title>
<g id="a_node3"><a xlink:href="builtinutils_8h.html" target="_top" xlink:title=" ">
<polygon fill="#ffffff" stroke="#000000" points="619,-.5 619,-19.5 687,-19.5 687,-.5 619,-.5"/>
<text text-anchor="middle" x="653" y="-7.5" font-family="Helvetica,sans-Serif" font-size="10.00" fill="#000000">builtinutils.h</text>
</a>
</g>
</g>
<!-- Node1&#45;&gt;Node2 -->
<g id="edge2" class="edge">
<title>Node1&#45;&gt;Node2</title>
<path fill="none" stroke="#191970" d="M489.3315,-285.9825C536.1699,-278.8926 627.1509,-263.0903 653,-244 680.4076,-223.7587 692,-212.0718 692,-178 692,-178 692,-178 692,-122 692,-87.5398 675.3304,-50.2666 663.7876,-28.5877"/>
<polygon fill="#191970" stroke="#191970" points="666.8252,-26.8481 658.9233,-19.7906 660.6994,-30.2355 666.8252,-26.8481"/>
</g>
<!-- Node3 -->
<g id="node4" class="node">
<title>Node3</title>
<g id="a_node4"><a xlink:href="helios__code_8h.html" target="_top" xlink:title=" ">
<polygon fill="#ffffff" stroke="#000000" points="456.5,-224.5 456.5,-243.5 533.5,-243.5 533.5,-224.5 456.5,-224.5"/>
<text text-anchor="middle" x="495" y="-231.5" font-family="Helvetica,sans-Serif" font-size="10.00" fill="#000000">helios_code.h</text>
</a>
</g>
</g>
<!-- Node1&#45;&gt;Node3 -->
<g id="edge3" class="edge">
<title>Node1&#45;&gt;Node3</title>
<path fill="none" stroke="#191970" d="M466.9223,-280.2455C471.6027,-272.5367 478.2673,-261.5598 483.9289,-252.2348"/>
<polygon fill="#191970" stroke="#191970" points="486.9475,-254.007 489.1455,-243.6427 480.9639,-250.3741 486.9475,-254.007"/>
</g>
<!-- Node4 -->
<g id="node5" class="node">
<title>Node4</title>
<g id="a_node5"><a xlink:href="helios__object_8h.html" target="_top" xlink:title=" ">
<polygon fill="#ffffff" stroke="#000000" points="353,-168.5 353,-187.5 435,-187.5 435,-168.5 353,-168.5"/>
<text text-anchor="middle" x="394" y="-175.5" font-family="Helvetica,sans-Serif" font-size="10.00" fill="#000000">helios_object.h</text>
</a>
</g>
</g>
<!-- Node1&#45;&gt;Node4 -->
<g id="edge20" class="edge">
<title>Node1&#45;&gt;Node4</title>
<path fill="none" stroke="#191970" d="M455.2876,-280.4509C444.1623,-261.8533 419.4192,-220.4919 405.005,-196.3964"/>
<polygon fill="#191970" stroke="#191970" points="407.8352,-194.3098 399.6979,-187.5249 401.8281,-197.9034 407.8352,-194.3098"/>
</g>
<!-- Node6 -->
<g id="node7" class="node">
<title>Node6</title>
<g id="a_node7"><a xlink:href="helios__memory_8h.html" target="_top" xlink:title=" ">
<polygon fill="#ffffff" stroke="#000000" points="532,-56.5 532,-75.5 622,-75.5 622,-56.5 532,-56.5"/>
<text text-anchor="middle" x="577" y="-63.5" font-family="Helvetica,sans-Serif" font-size="10.00" fill="#000000">helios_memory.h</text>
</a>
</g>
</g>
<!-- Node1&#45;&gt;Node6 -->
<g id="edge23" class="edge">
<title>Node1&#45;&gt;Node6</title>
<path fill="none" stroke="#191970" d="M489.2975,-286.68C533.9015,-280.8 617.3192,-266.9625 635,-244 673.5705,-193.9076 620.0417,-117.1724 592.1044,-83.2024"/>
<polygon fill="#191970" stroke="#191970" points="594.7509,-80.9114 585.6248,-75.5296 589.4028,-85.4279 594.7509,-80.9114"/>
</g>
<!-- Node11 -->
<g id="node12" class="node">
<title>Node11</title>
<g id="a_node12"><a xlink:href="helios__float_8h.html" target="_top" xlink:title=" ">
<polygon fill="#ffffff" stroke="#000000" points="552,-224.5 552,-243.5 626,-243.5 626,-224.5 552,-224.5"/>
<text text-anchor="middle" x="589" y="-231.5" font-family="Helvetica,sans-Serif" font-size="10.00" fill="#000000">helios_float.h</text>
</a>
</g>
</g>
<!-- Node1&#45;&gt;Node11 -->
<g id="edge13" class="edge">
<title>Node1&#45;&gt;Node11</title>
<path fill="none" stroke="#191970" d="M483.004,-280.3733C503.6435,-271.3435 534.7158,-257.7494 557.8889,-247.6111"/>
<polygon fill="#191970" stroke="#191970" points="559.5245,-250.7159 567.2831,-243.5011 556.7187,-244.3028 559.5245,-250.7159"/>
</g>
<!-- Node12 -->
<g id="node13" class="node">
<title>Node12</title>
<g id="a_node13"><a xlink:href="helios__hashmap_8h.html" target="_top" xlink:title=" ">
<polygon fill="#ffffff" stroke="#000000" points="104.5,-224.5 104.5,-243.5 199.5,-243.5 199.5,-224.5 104.5,-224.5"/>
<text text-anchor="middle" x="152" y="-231.5" font-family="Helvetica,sans-Serif" font-size="10.00" fill="#000000">helios_hashmap.h</text>
</a>
</g>
</g>
<!-- Node1&#45;&gt;Node12 -->
<g id="edge15" class="edge">
<title>Node1&#45;&gt;Node12</title>
<path fill="none" stroke="#191970" d="M432.7592,-284.8819C382.3103,-275.7391 275.7875,-256.434 209.4273,-244.4075"/>
<polygon fill="#191970" stroke="#191970" points="210.002,-240.9548 199.5381,-242.6153 208.7537,-247.8426 210.002,-240.9548"/>
</g>
<!-- Node13 -->
<g id="node14" class="node">
<title>Node13</title>
<g id="a_node14"><a xlink:href="helios__integer_8h.html" target="_top" xlink:title=" ">
<polygon fill="#ffffff" stroke="#000000" points="218,-224.5 218,-243.5 302,-243.5 302,-224.5 218,-224.5"/>
<text text-anchor="middle" x="260" y="-231.5" font-family="Helvetica,sans-Serif" font-size="10.00" fill="#000000">helios_integer.h</text>
</a>
</g>
</g>
<!-- Node1&#45;&gt;Node13 -->
<g id="edge18" class="edge">
<title>Node1&#45;&gt;Node13</title>
<path fill="none" stroke="#191970" d="M432.6279,-282.0953C399.1795,-272.7764 343.202,-257.1807 304.0873,-246.283"/>
<polygon fill="#191970" stroke="#191970" points="304.8545,-242.8635 294.282,-243.5512 302.9757,-249.6067 304.8545,-242.8635"/>
</g>
<!-- Node14 -->
<g id="node15" class="node">
<title>Node14</title>
<g id="a_node15"><a xlink:href="helios__string_8h.html" target="_top" xlink:title=" ">
<polygon fill="#ffffff" stroke="#000000" points="320,-224.5 320,-243.5 400,-243.5 400,-224.5 320,-224.5"/>
<text text-anchor="middle" x="360" y="-231.5" font-family="Helvetica,sans-Serif" font-size="10.00" fill="#000000">helios_string.h</text>
</a>
</g>
</g>
<!-- Node1&#45;&gt;Node14 -->
<g id="edge21" class="edge">
<title>Node1&#45;&gt;Node14</title>
<path fill="none" stroke="#191970" d="M443.4071,-280.2455C427.621,-271.4928 404.2361,-258.527 386.2413,-248.5496"/>
<polygon fill="#191970" stroke="#191970" points="387.8341,-245.4308 377.3913,-243.6427 384.4397,-251.5528 387.8341,-245.4308"/>
</g>
<!-- Node15 -->
<g id="node16" class="node">
<title>Node15</title>
<g id="a_node16"><a xlink:href="serialize_8h.html" target="_top" xlink:title=" ">
<polygon fill="#ffffff" stroke="#000000" points="66.5,-168.5 66.5,-187.5 127.5,-187.5 127.5,-168.5 66.5,-168.5"/>
<text text-anchor="middle" x="97" y="-175.5" font-family="Helvetica,sans-Serif" font-size="10.00" fill="#000000">serialize.h</text>
</a>
</g>
</g>
<!-- Node1&#45;&gt;Node15 -->
<g id="edge24" class="edge">
<title>Node1&#45;&gt;Node15</title>
<path fill="none" stroke="#191970" d="M432.8295,-288.5681C350.9395,-284.1205 117.322,-269.3031 95,-244 84.0154,-231.5484 86.1011,-212.0587 89.9834,-197.4812"/>
<polygon fill="#191970" stroke="#191970" points="93.3337,-198.494 92.9665,-187.9056 86.6505,-196.4119 93.3337,-198.494"/>
</g>
<!-- Node3&#45;&gt;Node4 -->
<g id="edge4" class="edge">
<title>Node3&#45;&gt;Node4</title>
<path fill="none" stroke="#191970" d="M477.4071,-224.2455C461.621,-215.4928 438.2361,-202.527 420.2413,-192.5496"/>
<polygon fill="#191970" stroke="#191970" points="421.8341,-189.4308 411.3913,-187.6427 418.4397,-195.5528 421.8341,-189.4308"/>
</g>
<!-- Node5 -->
<g id="node6" class="node">
<title>Node5</title>
<g id="a_node6"><a xlink:href="helios__type_8h.html" target="_top" xlink:title=" ">
<polygon fill="#ffffff" stroke="#000000" points="357,-112.5 357,-131.5 431,-131.5 431,-112.5 357,-112.5"/>
<text text-anchor="middle" x="394" y="-119.5" font-family="Helvetica,sans-Serif" font-size="10.00" fill="#000000">helios_type.h</text>
</a>
</g>
</g>
<!-- Node4&#45;&gt;Node5 -->
<g id="edge5" class="edge">
<title>Node4&#45;&gt;Node5</title>
<path fill="none" stroke="#191970" d="M394,-168.2455C394,-160.9382 394,-150.6944 394,-141.7046"/>
<polygon fill="#191970" stroke="#191970" points="397.5001,-141.6426 394,-131.6427 390.5001,-141.6427 397.5001,-141.6426"/>
</g>
<!-- Node5&#45;&gt;Node6 -->
<g id="edge6" class="edge">
<title>Node5&#45;&gt;Node6</title>
<path fill="none" stroke="#191970" d="M425.4588,-112.3733C456.0207,-103.021 502.5826,-88.7725 536.0261,-78.5385"/>
<polygon fill="#191970" stroke="#191970" points="537.4136,-81.7742 545.9517,-75.5011 535.3652,-75.0806 537.4136,-81.7742"/>
</g>
<!-- Node5&#45;&gt;Node9 -->
<g id="edge11" class="edge">
<title>Node5&#45;&gt;Node9</title>
<path fill="none" stroke="#191970" d="M431.0197,-119.3581C478.7867,-114.9423 563.7364,-103.6377 631,-76 661.3216,-63.5413 692.094,-41.1665 711.1063,-25.9572"/>
<polygon fill="#191970" stroke="#191970" points="713.439,-28.5711 718.9703,-19.5348 709.0112,-23.1494 713.439,-28.5711"/>
</g>
<!-- Node5&#45;&gt;Node10 -->
<g id="edge12" class="edge">
<title>Node5&#45;&gt;Node10</title>
<path fill="none" stroke="#191970" d="M356.8216,-115.4114C295.1046,-104.4742 172.3806,-82.7257 112.4892,-72.112"/>
<polygon fill="#191970" stroke="#191970" points="112.865,-68.6241 102.4076,-70.3254 111.6435,-75.5168 112.865,-68.6241"/>
</g>
<!-- Node6&#45;&gt;Node2 -->
<g id="edge7" class="edge">
<title>Node6&#45;&gt;Node2</title>
<path fill="none" stroke="#191970" d="M590.2382,-56.2455C601.681,-47.814 618.4296,-35.4729 631.7475,-25.6598"/>
<polygon fill="#191970" stroke="#191970" points="633.9391,-28.3924 639.9135,-19.6427 629.7867,-22.757 633.9391,-28.3924"/>
</g>
<!-- Node6&#45;&gt;Node7 -->
<g id="edge8" class="edge">
<title>Node6&#45;&gt;Node7</title>
<path fill="none" stroke="#191970" d="M531.9456,-60.007C448.7811,-48.9448 272.5422,-25.5021 194.5351,-15.1258"/>
<polygon fill="#191970" stroke="#191970" points="194.574,-11.6002 184.1998,-13.751 193.6509,-18.5391 194.574,-11.6002"/>
</g>
<!-- Node8 -->
<g id="node9" class="node">
<title>Node8</title>
<g id="a_node9"><a xlink:title=" ">
<polygon fill="#ffffff" stroke="#bfbfbf" points="549,-.5 549,-19.5 601,-19.5 601,-.5 549,-.5"/>
<text text-anchor="middle" x="575" y="-7.5" font-family="Helvetica,sans-Serif" font-size="10.00" fill="#000000">stddef.h</text>
</a>
</g>
</g>
<!-- Node6&#45;&gt;Node8 -->
<g id="edge9" class="edge">
<title>Node6&#45;&gt;Node8</title>
<path fill="none" stroke="#191970" d="M576.6516,-56.2455C576.3907,-48.9382 576.0248,-38.6944 575.7037,-29.7046"/>
<polygon fill="#191970" stroke="#191970" points="579.1992,-29.5113 575.3444,-19.6427 572.2036,-29.7613 579.1992,-29.5113"/>
</g>
<!-- Node6&#45;&gt;Node9 -->
<g id="edge10" class="edge">
<title>Node6&#45;&gt;Node9</title>
<path fill="none" stroke="#191970" d="M603.3016,-56.3733C628.9051,-47.0021 667.9399,-32.7148 695.9128,-22.4764"/>
<polygon fill="#191970" stroke="#191970" points="697.118,-25.7624 705.3057,-19.0384 694.7119,-19.1889 697.118,-25.7624"/>
</g>
<!-- Node11&#45;&gt;Node4 -->
<g id="edge14" class="edge">
<title>Node11&#45;&gt;Node4</title>
<path fill="none" stroke="#191970" d="M555.4783,-224.3733C522.6317,-214.9404 472.4405,-200.5265 436.7422,-190.2747"/>
<polygon fill="#191970" stroke="#191970" points="437.6619,-186.8974 427.0843,-187.5011 435.7297,-193.6255 437.6619,-186.8974"/>
</g>
<!-- Node12&#45;&gt;Node4 -->
<g id="edge16" class="edge">
<title>Node12&#45;&gt;Node4</title>
<path fill="none" stroke="#191970" d="M193.3263,-224.4369C234.7427,-214.8529 298.5777,-200.0812 343.0935,-189.78"/>
<polygon fill="#191970" stroke="#191970" points="343.8907,-193.1881 352.8441,-187.5237 342.3125,-186.3683 343.8907,-193.1881"/>
</g>
<!-- Node12&#45;&gt;Node7 -->
<g id="edge17" class="edge">
<title>Node12&#45;&gt;Node7</title>
<path fill="none" stroke="#191970" d="M152.1719,-224.375C152.7771,-190.4851 154.8173,-76.2317 155.6458,-29.8332"/>
<polygon fill="#191970" stroke="#191970" points="159.1496,-29.6501 155.8288,-19.5891 152.1507,-29.525 159.1496,-29.6501"/>
</g>
<!-- Node13&#45;&gt;Node4 -->
<g id="edge19" class="edge">
<title>Node13&#45;&gt;Node4</title>
<path fill="none" stroke="#191970" d="M283.0354,-224.3733C304.7388,-215.3032 337.4618,-201.6279 361.755,-191.4755"/>
<polygon fill="#191970" stroke="#191970" points="363.3881,-194.5865 371.2652,-187.5011 360.6889,-188.1278 363.3881,-194.5865"/>
</g>
<!-- Node14&#45;&gt;Node4 -->
<g id="edge22" class="edge">
<title>Node14&#45;&gt;Node4</title>
<path fill="none" stroke="#191970" d="M365.9223,-224.2455C370.6027,-216.5367 377.2673,-205.5598 382.9289,-196.2348"/>
<polygon fill="#191970" stroke="#191970" points="385.9475,-198.007 388.1455,-187.6427 379.9639,-194.3741 385.9475,-198.007"/>
</g>
<!-- Node15&#45;&gt;Node5 -->
<g id="edge25" class="edge">
<title>Node15&#45;&gt;Node5</title>
<path fill="none" stroke="#191970" d="M127.6656,-172.2179C179.6111,-162.4235 285.244,-142.5062 346.7192,-130.9149"/>
<polygon fill="#191970" stroke="#191970" points="347.3804,-134.352 356.5587,-129.0596 346.0833,-127.4732 347.3804,-134.352"/>
</g>
<!-- Node16&#45;&gt;Node1 -->
<g id="edge27" class="edge">
<title>Node16&#45;&gt;Node1</title>
<path fill="none" stroke="#191970" d="M518.8069,-336.2455C508.3679,-327.8943 493.1345,-315.7076 480.926,-305.9408"/>
<polygon fill="#191970" stroke="#191970" points="483.0485,-303.1566 473.0533,-299.6427 478.6756,-308.6227 483.0485,-303.1566"/>
</g>
<!-- Node16&#45;&gt;Node9 -->
<g id="edge28" class="edge">
<title>Node16&#45;&gt;Node9</title>
<path fill="none" stroke="#191970" d="M572.7169,-341.1934C631.0701,-331.8875 730,-305.5585 730,-234 730,-234 730,-234 730,-122 730,-89.7116 730,-52.1872 730,-29.8048"/>
<polygon fill="#191970" stroke="#191970" points="733.5001,-29.5883 730,-19.5884 726.5001,-29.5884 733.5001,-29.5883"/>
</g>
</g>
</svg>
