<?xml version="1.0" encoding="UTF-8" standalone="no"?>
<!DOCTYPE svg PUBLIC "-//W3C//DTD SVG 1.1//EN"
 "http://www.w3.org/Graphics/SVG/1.1/DTD/svg11.dtd">
<!-- Generated by graphviz version 2.40.1 (20161225.0304)
 -->
<!-- Title: PARSERFUNC Pages: 1 -->
<!--zoomable 363 -->
<svg id="main" version="1.1" xmlns="http://www.w3.org/2000/svg" xmlns:xlink="http://www.w3.org/1999/xlink" xml:space="preserve" onload="init(evt)">
<style type="text/css"><![CDATA[
.edge:hover path { stroke: red; }
.edge:hover polygon { stroke: red; fill: red; }
]]></style>
<script type="text/javascript"><![CDATA[
var edges = document.getElementsByTagName('g');
if (edges && edges.length) {
  for (var i=0;i<edges.length;i++) {
    if (edges[i].id.substr(0,4)=='edge') {
      edges[i].setAttribute('class','edge');
    }
  }
}
]]></script>
        <defs>
                <circle id="rim" cx="0" cy="0" r="7"/>
                <circle id="rim2" cx="0" cy="0" r="3.5"/>
                <g id="zoomPlus">
                        <use xlink:href="#rim" fill="#404040">
                                <set attributeName="fill" to="#808080" begin="zoomplus.mouseover" end="zoomplus.mouseout"/>
                        </use>
                        <path d="M-4,0h8M0,-4v8" fill="none" stroke="white" stroke-width="1.5" pointer-events="none"/>
                </g>
                <g id="zoomMin">
                        <use xlink:href="#rim" fill="#404040">
                                <set attributeName="fill" to="#808080" begin="zoomminus.mouseover" end="zoomminus.mouseout"/>
                        </use>
                        <path d="M-4,0h8" fill="none" stroke="white" stroke-width="1.5" pointer-events="none"/>
                </g>
                <g id="dirArrow">
                        <path fill="none" stroke="white" stroke-width="1.5" d="M0,-3.0v7 M-2.5,-0.5L0,-3.0L2.5,-0.5"/>
                </g>
               <g id="resetDef">
                       <use xlink:href="#rim2" fill="#404040">
                               <set attributeName="fill" to="#808080" begin="reset.mouseover" end="reset.mouseout"/>
                       </use>
               </g>
        </defs>

<script type="text/javascript">
var viewWidth = 694;
var viewHeight = 363;
var sectionId = 'dynsection-6';
</script>
<script xlink:href="svgpan.js"/>
<svg id="graph" class="graph">
<g id="viewport">
<title>PARSERFUNC</title>
<polygon fill="#ffffff" stroke="transparent" points="-4,4 -4,-359 690,-359 690,4 -4,4"/>
<!-- Node75 -->
<g id="node1" class="node">
<title>Node75</title>
<g id="a_node1"><a xlink:title="Accepts parts of expressions containing operators like * and / or operators with the same precedance.">
<polygon fill="#bfbfbf" stroke="#000000" points="0,-145.5 0,-164.5 81,-164.5 81,-145.5 0,-145.5"/>
<text text-anchor="middle" x="40.5" y="-152.5" font-family="Helvetica,sans-Serif" font-size="10.00" fill="#000000">PARSERFUNC</text>
</a>
</g>
</g>
<!-- Node76 -->
<g id="node2" class="node">
<title>Node76</title>
<g id="a_node2"><a xlink:href="parser_8h.html#a8c4c57eca60b2cec9a372a04abea456d" target="_top" xlink:title="Advances the parser as long as it can find whitespace.">
<polygon fill="#ffffff" stroke="#000000" points="278,-335.5 278,-354.5 364,-354.5 364,-335.5 278,-335.5"/>
<text text-anchor="middle" x="321" y="-342.5" font-family="Helvetica,sans-Serif" font-size="10.00" fill="#000000">parser_skipws</text>
</a>
</g>
</g>
<!-- Node75&#45;&gt;Node76 -->
<g id="edge1" class="edge">
<title>Node75&#45;&gt;Node76</title>
<path fill="none" stroke="#191970" d="M44.5275,-164.7153C53.9944,-186.427 79.7116,-239.3019 117,-269 161.2953,-304.2787 223.6195,-324.2954 267.6961,-334.8304"/>
<polygon fill="#191970" stroke="#191970" points="267.1164,-338.2885 277.6468,-337.1225 268.6876,-331.4671 267.1164,-338.2885"/>
</g>
<!-- Node79 -->
<g id="node5" class="node">
<title>Node79</title>
<g id="a_node5"><a xlink:href="parser_8h.html#a3c9c52258898d196f76b4d58595b33b9" target="_top" xlink:title="Advances the parser only if the next n characters (where n is the length of the string) matches the s...">
<polygon fill="#ffffff" stroke="#000000" points="117,-240.5 117,-259.5 230,-259.5 230,-240.5 117,-240.5"/>
<text text-anchor="middle" x="173.5" y="-247.5" font-family="Helvetica,sans-Serif" font-size="10.00" fill="#000000">parser_acceptstring</text>
</a>
</g>
</g>
<!-- Node75&#45;&gt;Node79 -->
<g id="edge4" class="edge">
<title>Node75&#45;&gt;Node79</title>
<path fill="none" stroke="#191970" d="M49.0431,-164.8728C62.3338,-179.7473 89.3232,-208.0679 117,-226 122.9492,-229.8546 129.6212,-233.3263 136.2387,-236.354"/>
<polygon fill="#191970" stroke="#191970" points="135.2353,-239.7322 145.8047,-240.465 137.9991,-233.3009 135.2353,-239.7322"/>
</g>
<!-- Node84 -->
<g id="node10" class="node">
<title>Node84</title>
<g id="a_node10"><a xlink:href="parser_8h.html#a1a00af051004cb18edac760f39982eea" target="_top" xlink:title="Searches for the given character, advances the parser if it found it.">
<polygon fill="#ffffff" stroke="#000000" points="268,-145.5 268,-164.5 374,-164.5 374,-145.5 268,-145.5"/>
<text text-anchor="middle" x="321" y="-152.5" font-family="Helvetica,sans-Serif" font-size="10.00" fill="#000000">parser_acceptchar</text>
</a>
</g>
</g>
<!-- Node75&#45;&gt;Node84 -->
<g id="edge10" class="edge">
<title>Node75&#45;&gt;Node84</title>
<path fill="none" stroke="#191970" d="M54.6829,-164.5615C69.4911,-173.9214 93.756,-187.5449 117,-193 165.8938,-204.4747 181.251,-205.075 230,-193 247.561,-188.6502 249.4014,-181.1969 266,-174 270.8008,-171.9184 275.9105,-169.9014 281.0076,-168.0079"/>
<polygon fill="#191970" stroke="#191970" points="282.4742,-171.2005 290.7093,-164.5347 280.1148,-164.6101 282.4742,-171.2005"/>
</g>
<!-- Node85 -->
<g id="node11" class="node">
<title>Node85</title>
<g id="a_node11"><a xlink:href="AST_8c.html#a3a1c70c232e669f02ef0a4e171ee6ab2" target="_top" xlink:title="Constructore for ast objects.">
<polygon fill="#ffffff" stroke="#000000" points="143,-164.5 143,-183.5 204,-183.5 204,-164.5 143,-164.5"/>
<text text-anchor="middle" x="173.5" y="-171.5" font-family="Helvetica,sans-Serif" font-size="10.00" fill="#000000">AST_new</text>
</a>
</g>
</g>
<!-- Node75&#45;&gt;Node85 -->
<g id="edge12" class="edge">
<title>Node75&#45;&gt;Node85</title>
<path fill="none" stroke="#191970" d="M81.1271,-160.8039C97.4201,-163.1314 116.1681,-165.8097 132.4984,-168.1426"/>
<polygon fill="#191970" stroke="#191970" points="132.4361,-171.6692 142.8306,-169.6187 133.4261,-164.7395 132.4361,-171.6692"/>
</g>
<!-- Node86 -->
<g id="node12" class="node">
<title>Node86</title>
<g id="a_node12"><a xlink:href="token_8h.html#a5f63b7723640416a125433badc7d6563" target="_top" xlink:title="Constructor for token objects.">
<polygon fill="#ffffff" stroke="#000000" points="138.5,-126.5 138.5,-145.5 208.5,-145.5 208.5,-126.5 138.5,-126.5"/>
<text text-anchor="middle" x="173.5" y="-133.5" font-family="Helvetica,sans-Serif" font-size="10.00" fill="#000000">token_new</text>
</a>
</g>
</g>
<!-- Node75&#45;&gt;Node86 -->
<g id="edge13" class="edge">
<title>Node75&#45;&gt;Node86</title>
<path fill="none" stroke="#191970" d="M81.1271,-149.1961C95.8994,-147.0858 112.6898,-144.6872 127.8667,-142.519"/>
<polygon fill="#191970" stroke="#191970" points="128.6668,-145.9404 138.0713,-141.0612 127.6768,-139.0107 128.6668,-145.9404"/>
</g>
<!-- Node87 -->
<g id="node13" class="node">
<title>Node87</title>
<g id="a_node13"><a xlink:href="helios__string_8c.html#a4338910535421a24735fc7eb3123495c" target="_top" xlink:title="Create a helios_string object from a c string.">
<polygon fill="#ffffff" stroke="#000000" points="120,-77 120,-107 227,-107 227,-77 120,-77"/>
<text text-anchor="start" x="128" y="-95" font-family="Helvetica,sans-Serif" font-size="10.00" fill="#000000">helios_string_from</text>
<text text-anchor="middle" x="173.5" y="-84" font-family="Helvetica,sans-Serif" font-size="10.00" fill="#000000">_charp</text>
</a>
</g>
</g>
<!-- Node75&#45;&gt;Node87 -->
<g id="edge14" class="edge">
<title>Node75&#45;&gt;Node87</title>
<path fill="none" stroke="#191970" d="M59.2497,-145.3957C74.6676,-137.5684 97.1316,-126.3247 117,-117 121.0419,-115.1031 125.2631,-113.1621 129.4984,-111.2415"/>
<polygon fill="#191970" stroke="#191970" points="131.0415,-114.3853 138.7289,-107.0946 128.1729,-108.0001 131.0415,-114.3853"/>
</g>
<!-- Node91 -->
<g id="node17" class="node">
<title>Node91</title>
<g id="a_node17"><a xlink:href="error_8c.html#ae07365063509d8944da638087336597b" target="_top" xlink:title="Construct a new error object out of parameters, and push it to the errorstack.">
<polygon fill="#ffffff" stroke="#000000" points="126,-38.5 126,-57.5 221,-57.5 221,-38.5 126,-38.5"/>
<text text-anchor="middle" x="173.5" y="-45.5" font-family="Helvetica,sans-Serif" font-size="10.00" fill="#000000">errorstack_push</text>
</a>
</g>
</g>
<!-- Node75&#45;&gt;Node91 -->
<g id="edge18" class="edge">
<title>Node75&#45;&gt;Node91</title>
<path fill="none" stroke="#191970" d="M46.3967,-145.3034C57.8182,-127.309 84.6989,-88.6179 117,-67 119.9268,-65.0412 123.0739,-63.2674 126.3311,-61.6641"/>
<polygon fill="#191970" stroke="#191970" points="127.9359,-64.7829 135.71,-57.5847 125.1438,-58.3637 127.9359,-64.7829"/>
</g>
<!-- Node92 -->
<g id="node18" class="node">
<title>Node92</title>
<g id="a_node18"><a xlink:href="AST_8c.html#a5f9c0bcd1d544aac044f4acf93c27ddb" target="_top" xlink:title="Adds a child ast node to a parent ast node.">
<polygon fill="#ffffff" stroke="#000000" points="132,-.5 132,-19.5 215,-19.5 215,-.5 132,-.5"/>
<text text-anchor="middle" x="173.5" y="-7.5" font-family="Helvetica,sans-Serif" font-size="10.00" fill="#000000">AST_addChild</text>
</a>
</g>
</g>
<!-- Node75&#45;&gt;Node92 -->
<g id="edge19" class="edge">
<title>Node75&#45;&gt;Node92</title>
<path fill="none" stroke="#191970" d="M43.763,-145.2075C52.1003,-121.6668 76.4348,-61.4542 117,-29 119.2727,-27.1817 121.7281,-25.5336 124.2984,-24.0402"/>
<polygon fill="#191970" stroke="#191970" points="125.9777,-27.1143 133.3824,-19.5366 122.8684,-20.8427 125.9777,-27.1143"/>
</g>
<!-- Node77 -->
<g id="node3" class="node">
<title>Node77</title>
<g id="a_node3"><a xlink:href="parserutil_8c.html#a2d9e8c20025b7b883c4e87790685a6ad" target="_top" xlink:title="Proxy to parser_next.">
<polygon fill="#ffffff" stroke="#000000" points="447,-259.5 447,-278.5 541,-278.5 541,-259.5 447,-259.5"/>
<text text-anchor="middle" x="494" y="-266.5" font-family="Helvetica,sans-Serif" font-size="10.00" fill="#000000">parser_advance</text>
</a>
</g>
</g>
<!-- Node76&#45;&gt;Node77 -->
<g id="edge2" class="edge">
<title>Node76&#45;&gt;Node77</title>
<path fill="none" stroke="#191970" d="M350.6387,-335.4743C358.9207,-332.6202 367.8753,-329.3521 376,-326 407.7934,-312.8825 443.1854,-295.3808 466.8393,-283.247"/>
<polygon fill="#191970" stroke="#191970" points="468.6292,-286.2618 475.9077,-278.5628 465.4167,-280.0425 468.6292,-286.2618"/>
</g>
<!-- Node78 -->
<g id="node4" class="node">
<title>Node78</title>
<g id="a_node4"><a xlink:href="parserutil_8c.html#ab25a97ff31329fe9461666bfe2dc6f2c" target="_top" xlink:title="Iterate the parser.">
<polygon fill="#ffffff" stroke="#000000" points="612,-259.5 612,-278.5 686,-278.5 686,-259.5 612,-259.5"/>
<text text-anchor="middle" x="649" y="-266.5" font-family="Helvetica,sans-Serif" font-size="10.00" fill="#000000">parser_next</text>
</a>
</g>
</g>
<!-- Node77&#45;&gt;Node78 -->
<g id="edge3" class="edge">
<title>Node77&#45;&gt;Node78</title>
<path fill="none" stroke="#191970" d="M541.3473,-269C560.5156,-269 582.5994,-269 601.7571,-269"/>
<polygon fill="#191970" stroke="#191970" points="601.7689,-272.5001 611.7689,-269 601.7689,-265.5001 601.7689,-272.5001"/>
</g>
<!-- Node80 -->
<g id="node6" class="node">
<title>Node80</title>
<g id="a_node6"><a xlink:href="parserutil_8c.html#aecf4b8bdaae9ca8435542900cf024f4e" target="_top" xlink:title="Copy a parser.">
<polygon fill="#ffffff" stroke="#000000" points="283,-297.5 283,-316.5 359,-316.5 359,-297.5 283,-297.5"/>
<text text-anchor="middle" x="321" y="-304.5" font-family="Helvetica,sans-Serif" font-size="10.00" fill="#000000">parser_copy</text>
</a>
</g>
</g>
<!-- Node79&#45;&gt;Node80 -->
<g id="edge5" class="edge">
<title>Node79&#45;&gt;Node80</title>
<path fill="none" stroke="#191970" d="M195.7877,-259.5749C214.4357,-267.485 241.8009,-278.8581 266,-288 271.3159,-290.0082 276.951,-292.0512 282.5086,-294.0168"/>
<polygon fill="#191970" stroke="#191970" points="281.7477,-297.4582 292.3425,-297.4469 284.0531,-290.8487 281.7477,-297.4582"/>
</g>
<!-- Node81 -->
<g id="node7" class="node">
<title>Node81</title>
<g id="a_node7"><a xlink:href="parserutil_8c.html#a1a00af051004cb18edac760f39982eea" target="_top" xlink:title="Searches for the given character, advances the parser if it found it.">
<polygon fill="#ffffff" stroke="#000000" points="268,-259.5 268,-278.5 374,-278.5 374,-259.5 268,-259.5"/>
<text text-anchor="middle" x="321" y="-266.5" font-family="Helvetica,sans-Serif" font-size="10.00" fill="#000000">parser_acceptchar</text>
</a>
</g>
</g>
<!-- Node79&#45;&gt;Node81 -->
<g id="edge6" class="edge">
<title>Node79&#45;&gt;Node81</title>
<path fill="none" stroke="#191970" d="M230.1055,-257.2916C239.0776,-258.4473 248.4082,-259.6492 257.525,-260.8236"/>
<polygon fill="#191970" stroke="#191970" points="257.3318,-264.3275 267.697,-262.1338 258.2261,-257.3849 257.3318,-264.3275"/>
</g>
<!-- Node82 -->
<g id="node8" class="node">
<title>Node82</title>
<g id="a_node8"><a xlink:href="parserutil_8c.html#a1f1841a636bfe529466c99e3db9999cd" target="_top" xlink:title="Restores a parser to another parser&#39;s position.">
<polygon fill="#ffffff" stroke="#000000" points="277.5,-221.5 277.5,-240.5 364.5,-240.5 364.5,-221.5 277.5,-221.5"/>
<text text-anchor="middle" x="321" y="-228.5" font-family="Helvetica,sans-Serif" font-size="10.00" fill="#000000">parser_restore</text>
</a>
</g>
</g>
<!-- Node79&#45;&gt;Node82 -->
<g id="edge8" class="edge">
<title>Node79&#45;&gt;Node82</title>
<path fill="none" stroke="#191970" d="M230.1055,-242.7084C242.2918,-241.1387 255.1392,-239.4838 267.2144,-237.9283"/>
<polygon fill="#191970" stroke="#191970" points="267.6736,-241.3982 277.1445,-236.6492 266.7793,-234.4555 267.6736,-241.3982"/>
</g>
<!-- Node83 -->
<g id="node9" class="node">
<title>Node83</title>
<g id="a_node9"><a xlink:href="parserutil_8c.html#ab62454c7986532e03ea36b14956b5ad1" target="_top" xlink:title="Simple parser destructor.">
<polygon fill="#ffffff" stroke="#000000" points="266,-183.5 266,-202.5 376,-202.5 376,-183.5 266,-183.5"/>
<text text-anchor="middle" x="321" y="-190.5" font-family="Helvetica,sans-Serif" font-size="10.00" fill="#000000">parser_free_simple</text>
</a>
</g>
</g>
<!-- Node79&#45;&gt;Node83 -->
<g id="edge9" class="edge">
<title>Node79&#45;&gt;Node83</title>
<path fill="none" stroke="#191970" d="M195.7877,-240.4251C214.4357,-232.515 241.8009,-221.1419 266,-212 271.3159,-209.9918 276.951,-207.9488 282.5086,-205.9832"/>
<polygon fill="#191970" stroke="#191970" points="284.0531,-209.1513 292.3425,-202.5531 281.7477,-202.5418 284.0531,-209.1513"/>
</g>
<!-- Node81&#45;&gt;Node77 -->
<g id="edge7" class="edge">
<title>Node81&#45;&gt;Node77</title>
<path fill="none" stroke="#191970" d="M374.3173,-269C394.0159,-269 416.4207,-269 436.4759,-269"/>
<polygon fill="#191970" stroke="#191970" points="436.7226,-272.5001 446.7225,-269 436.7225,-265.5001 436.7226,-272.5001"/>
</g>
<!-- Node84&#45;&gt;Node77 -->
<g id="edge11" class="edge">
<title>Node84&#45;&gt;Node77</title>
<path fill="none" stroke="#191970" d="M354.6609,-164.5636C361.9039,-167.1836 369.3699,-170.3328 376,-174 415.5902,-195.8977 455.2554,-231.2625 477.0183,-252.1079"/>
<polygon fill="#191970" stroke="#191970" points="474.8352,-254.867 484.4451,-259.3279 479.7146,-249.8478 474.8352,-254.867"/>
</g>
<!-- Node88 -->
<g id="node14" class="node">
<title>Node88</title>
<g id="a_node14"><a xlink:href="helios__string_8c.html#af727ca5352482ab7e542510f178a9f85" target="_top" xlink:title="Constructor of a helios_string.">
<polygon fill="#ffffff" stroke="#000000" points="271,-82.5 271,-101.5 371,-101.5 371,-82.5 271,-82.5"/>
<text text-anchor="middle" x="321" y="-89.5" font-family="Helvetica,sans-Serif" font-size="10.00" fill="#000000">helios_string_init</text>
</a>
</g>
</g>
<!-- Node87&#45;&gt;Node88 -->
<g id="edge15" class="edge">
<title>Node87&#45;&gt;Node88</title>
<path fill="none" stroke="#191970" d="M227.1681,-92C238.0154,-92 249.49,-92 260.5517,-92"/>
<polygon fill="#191970" stroke="#191970" points="260.5645,-95.5001 270.5644,-92 260.5644,-88.5001 260.5645,-95.5001"/>
</g>
<!-- Node89 -->
<g id="node15" class="node">
<title>Node89</title>
<g id="a_node15"><a xlink:href="helios__memory_8h.html#af87f0050f8e236d0945592fa4e54dc94" target="_top" xlink:title="Allocates a new helios object (and performs all the GC steps associated with that action).">
<polygon fill="#ffffff" stroke="#000000" points="431.5,-101.5 431.5,-120.5 556.5,-120.5 556.5,-101.5 431.5,-101.5"/>
<text text-anchor="middle" x="494" y="-108.5" font-family="Helvetica,sans-Serif" font-size="10.00" fill="#000000">helios_allocate_object</text>
</a>
</g>
</g>
<!-- Node88&#45;&gt;Node89 -->
<g id="edge16" class="edge">
<title>Node88&#45;&gt;Node89</title>
<path fill="none" stroke="#191970" d="M371.0388,-97.4956C386.6578,-99.211 404.2181,-101.1396 421.0733,-102.9907"/>
<polygon fill="#191970" stroke="#191970" points="421.1309,-106.518 431.4532,-104.1307 421.8951,-99.5598 421.1309,-106.518"/>
</g>
<!-- Node90 -->
<g id="node16" class="node">
<title>Node90</title>
<g id="a_node16"><a xlink:href="helios__memory_8h.html#ab14fb1c046aae61ab06eda8eeaf2cd85" target="_top" xlink:title=" ">
<polygon fill="#ffffff" stroke="#000000" points="412,-63.5 412,-82.5 576,-82.5 576,-63.5 412,-63.5"/>
<text text-anchor="middle" x="494" y="-70.5" font-family="Helvetica,sans-Serif" font-size="10.00" fill="#000000">helios_set_garbagecollectable</text>
</a>
</g>
</g>
<!-- Node88&#45;&gt;Node90 -->
<g id="edge17" class="edge">
<title>Node88&#45;&gt;Node90</title>
<path fill="none" stroke="#191970" d="M371.0388,-86.5044C380.7186,-85.4413 391.144,-84.2963 401.6852,-83.1386"/>
<polygon fill="#191970" stroke="#191970" points="402.2484,-86.5979 411.8065,-82.027 401.4842,-79.6397 402.2484,-86.5979"/>
</g>
</g>
</svg>
        <g id="navigator" transform="translate(0 0)" fill="#404254">
                <rect fill="#f2f5e9" fill-opacity="0.5" stroke="#606060" stroke-width=".5" x="0" y="0" width="60" height="60"/>
                <use id="zoomplus" xlink:href="#zoomPlus" x="17" y="9" onmousedown="handleZoom(evt,'in')"/>
                <use id="zoomminus" xlink:href="#zoomMin" x="42" y="9" onmousedown="handleZoom(evt,'out')"/>
                <use id="reset" xlink:href="#resetDef" x="30" y="36" onmousedown="handleReset()"/>
                <g id="arrowUp" xlink:href="#dirArrow" transform="translate(30 24)" onmousedown="handlePan(0,-1)">
                  <use xlink:href="#rim" fill="#404040">
                        <set attributeName="fill" to="#808080" begin="arrowUp.mouseover" end="arrowUp.mouseout"/>
                  </use>
                  <path fill="none" stroke="white" stroke-width="1.5" d="M0,-3.0v7 M-2.5,-0.5L0,-3.0L2.5,-0.5"/>
                </g>
                <g id="arrowRight" xlink:href="#dirArrow" transform="rotate(90) translate(36 -43)" onmousedown="handlePan(1,0)">
                  <use xlink:href="#rim" fill="#404040">
                        <set attributeName="fill" to="#808080" begin="arrowRight.mouseover" end="arrowRight.mouseout"/>
                  </use>
                  <path fill="none" stroke="white" stroke-width="1.5" d="M0,-3.0v7 M-2.5,-0.5L0,-3.0L2.5,-0.5"/>
                </g>
                <g id="arrowDown" xlink:href="#dirArrow" transform="rotate(180) translate(-30 -48)" onmousedown="handlePan(0,1)">
                  <use xlink:href="#rim" fill="#404040">
                        <set attributeName="fill" to="#808080" begin="arrowDown.mouseover" end="arrowDown.mouseout"/>
                  </use>
                  <path fill="none" stroke="white" stroke-width="1.5" d="M0,-3.0v7 M-2.5,-0.5L0,-3.0L2.5,-0.5"/>
                </g>
                <g id="arrowLeft" xlink:href="#dirArrow" transform="rotate(270) translate(-36 17)" onmousedown="handlePan(-1,0)">
                  <use xlink:href="#rim" fill="#404040">
                        <set attributeName="fill" to="#808080" begin="arrowLeft.mouseover" end="arrowLeft.mouseout"/>
                  </use>
                  <path fill="none" stroke="white" stroke-width="1.5" d="M0,-3.0v7 M-2.5,-0.5L0,-3.0L2.5,-0.5"/>
                </g>
        </g>
        <svg viewBox="0 0 15 15" width="100%" height="30px" preserveAspectRatio="xMaxYMin meet">
         <g id="arrow_out" transform="scale(0.3 0.3)">
          <a xlink:href="expressions_8c_ad45988994a42cff94c6d5c6e462ff076_cgraph_org.svg" target="_base">
           <rect id="button" ry="5" rx="5" y="6" x="6" height="38" width="38"
                fill="#f2f5e9" fill-opacity="0.5" stroke="#606060" stroke-width="1.0"/>
           <path id="arrow"
             d="M 11.500037,31.436501 C 11.940474,20.09759 22.043105,11.32322 32.158766,21.979434 L 37.068811,17.246167 C 37.068811,17.246167 37.088388,32 37.088388,32 L 22.160133,31.978069 C 22.160133,31.978069 26.997745,27.140456 26.997745,27.140456 C 18.528582,18.264221 13.291696,25.230495 11.500037,31.436501 z"
             style="fill:#404040;"/>
          </a>
         </g>
        </svg>
</svg>
