<?xml version="1.0" encoding="UTF-8" standalone="no"?>
<!DOCTYPE svg PUBLIC "-//W3C//DTD SVG 1.1//EN"
 "http://www.w3.org/Graphics/SVG/1.1/DTD/svg11.dtd">
<!-- Generated by graphviz version 2.40.1 (20161225.0304)
 -->
<!-- Title: PARSERFUNC Pages: 1 -->
<svg width="586pt" height="142pt"
 viewBox="0.00 0.00 586.00 142.00" xmlns="http://www.w3.org/2000/svg" xmlns:xlink="http://www.w3.org/1999/xlink">
<g id="graph0" class="graph" transform="scale(1 1) rotate(0) translate(4 138)">
<title>PARSERFUNC</title>
<polygon fill="#ffffff" stroke="transparent" points="-4,4 -4,-138 582,-138 582,4 -4,4"/>
<!-- Node21 -->
<g id="node1" class="node">
<title>Node21</title>
<g id="a_node1"><a xlink:title="Either accepts an atom or a bracketed expression.">
<polygon fill="#bfbfbf" stroke="#000000" points="0,-76.5 0,-95.5 86,-95.5 86,-76.5 0,-76.5"/>
<text text-anchor="middle" x="43" y="-83.5" font-family="Helvetica,sans-Serif" font-size="10.00" fill="#000000">PARSERFUNC</text>
</a>
</g>
</g>
<!-- Node22 -->
<g id="node2" class="node">
<title>Node22</title>
<g id="a_node2"><a xlink:href="parser_8h.html#a8c4c57eca60b2cec9a372a04abea456d" target="_top" xlink:title="Advances the parser as long as it can find whitespace.">
<polygon fill="#ffffff" stroke="#000000" points="263.5,-114.5 263.5,-133.5 343.5,-133.5 343.5,-114.5 263.5,-114.5"/>
<text text-anchor="middle" x="303.5" y="-121.5" font-family="Helvetica,sans-Serif" font-size="10.00" fill="#000000">parser_skipws</text>
</a>
</g>
</g>
<!-- Node21&#45;&gt;Node22 -->
<g id="edge1" class="edge">
<title>Node21&#45;&gt;Node22</title>
<path fill="none" stroke="#191970" d="M78.1874,-95.513C91.7922,-98.9141 107.5413,-102.5156 122,-105 165.9083,-112.5446 216.3423,-117.5335 252.8848,-120.498"/>
<polygon fill="#191970" stroke="#191970" points="253.0366,-124.0208 263.2807,-121.3173 253.5866,-117.0424 253.0366,-124.0208"/>
</g>
<!-- Node25 -->
<g id="node5" class="node">
<title>Node25</title>
<g id="a_node5"><a xlink:href="parser_8h.html#a1a00af051004cb18edac760f39982eea" target="_top" xlink:title="Searches for the given character, advances the parser if it found it.">
<polygon fill="#ffffff" stroke="#000000" points="122,-76.5 122,-95.5 219,-95.5 219,-76.5 122,-76.5"/>
<text text-anchor="middle" x="170.5" y="-83.5" font-family="Helvetica,sans-Serif" font-size="10.00" fill="#000000">parser_acceptchar</text>
</a>
</g>
</g>
<!-- Node21&#45;&gt;Node25 -->
<g id="edge4" class="edge">
<title>Node21&#45;&gt;Node25</title>
<path fill="none" stroke="#191970" d="M86.1657,-86C94.2807,-86 102.8942,-86 111.3968,-86"/>
<polygon fill="#191970" stroke="#191970" points="111.6723,-89.5001 121.6723,-86 111.6723,-82.5001 111.6723,-89.5001"/>
</g>
<!-- Node26 -->
<g id="node6" class="node">
<title>Node26</title>
<g id="a_node6"><a xlink:href="parser_8h.html#ad7f3825521eb3e5bd3af734357caa4d6" target="_top" xlink:title="If the parser can accept the given character, accept it, else push an error on the parsers errorstack...">
<polygon fill="#ffffff" stroke="#000000" points="122,-38.5 122,-57.5 219,-57.5 219,-38.5 122,-38.5"/>
<text text-anchor="middle" x="170.5" y="-45.5" font-family="Helvetica,sans-Serif" font-size="10.00" fill="#000000">parser_expectchar</text>
</a>
</g>
</g>
<!-- Node21&#45;&gt;Node26 -->
<g id="edge6" class="edge">
<title>Node21&#45;&gt;Node26</title>
<path fill="none" stroke="#191970" d="M75.1736,-76.411C91.3307,-71.5956 111.108,-65.7012 128.4518,-60.532"/>
<polygon fill="#191970" stroke="#191970" points="129.7529,-63.7964 138.3367,-57.5859 127.7535,-57.088 129.7529,-63.7964"/>
</g>
<!-- Node23 -->
<g id="node3" class="node">
<title>Node23</title>
<g id="a_node3"><a xlink:href="parserutil_8c.html#a2d9e8c20025b7b883c4e87790685a6ad" target="_top" xlink:title="Proxy to parser_next.">
<polygon fill="#ffffff" stroke="#000000" points="388,-76.5 388,-95.5 474,-95.5 474,-76.5 388,-76.5"/>
<text text-anchor="middle" x="431" y="-83.5" font-family="Helvetica,sans-Serif" font-size="10.00" fill="#000000">parser_advance</text>
</a>
</g>
</g>
<!-- Node22&#45;&gt;Node23 -->
<g id="edge2" class="edge">
<title>Node22&#45;&gt;Node23</title>
<path fill="none" stroke="#191970" d="M335.6736,-114.411C351.8307,-109.5956 371.608,-103.7012 388.9518,-98.532"/>
<polygon fill="#191970" stroke="#191970" points="390.2529,-101.7964 398.8367,-95.5859 388.2535,-95.088 390.2529,-101.7964"/>
</g>
<!-- Node24 -->
<g id="node4" class="node">
<title>Node24</title>
<g id="a_node4"><a xlink:href="parserutil_8c.html#ab25a97ff31329fe9461666bfe2dc6f2c" target="_top" xlink:title="Iterate the parser.">
<polygon fill="#ffffff" stroke="#000000" points="510,-76.5 510,-95.5 578,-95.5 578,-76.5 510,-76.5"/>
<text text-anchor="middle" x="544" y="-83.5" font-family="Helvetica,sans-Serif" font-size="10.00" fill="#000000">parser_next</text>
</a>
</g>
</g>
<!-- Node23&#45;&gt;Node24 -->
<g id="edge3" class="edge">
<title>Node23&#45;&gt;Node24</title>
<path fill="none" stroke="#191970" d="M474.0428,-86C482.4677,-86 491.3165,-86 499.7791,-86"/>
<polygon fill="#191970" stroke="#191970" points="499.8556,-89.5001 509.8556,-86 499.8555,-82.5001 499.8556,-89.5001"/>
</g>
<!-- Node25&#45;&gt;Node23 -->
<g id="edge5" class="edge">
<title>Node25&#45;&gt;Node23</title>
<path fill="none" stroke="#191970" d="M219.1925,-86C264.2351,-86 331.0516,-86 377.5517,-86"/>
<polygon fill="#191970" stroke="#191970" points="377.7354,-89.5001 387.7353,-86 377.7353,-82.5001 377.7354,-89.5001"/>
</g>
<!-- Node27 -->
<g id="node7" class="node">
<title>Node27</title>
<g id="a_node7"><a xlink:href="parserutil_8c.html#a1a00af051004cb18edac760f39982eea" target="_top" xlink:title="Searches for the given character, advances the parser if it found it.">
<polygon fill="#ffffff" stroke="#000000" points="255,-38.5 255,-57.5 352,-57.5 352,-38.5 255,-38.5"/>
<text text-anchor="middle" x="303.5" y="-45.5" font-family="Helvetica,sans-Serif" font-size="10.00" fill="#000000">parser_acceptchar</text>
</a>
</g>
</g>
<!-- Node26&#45;&gt;Node27 -->
<g id="edge7" class="edge">
<title>Node26&#45;&gt;Node27</title>
<path fill="none" stroke="#191970" d="M219.2691,-48C227.4913,-48 236.1037,-48 244.5514,-48"/>
<polygon fill="#191970" stroke="#191970" points="244.7368,-51.5001 254.7368,-48 244.7368,-44.5001 244.7368,-51.5001"/>
</g>
<!-- Node28 -->
<g id="node8" class="node">
<title>Node28</title>
<g id="a_node8"><a xlink:href="error_8c.html#afe624477a33ab8814a9454f58a0bc1fa" target="_top" xlink:title="Construct a new error object out of parameters, and push it to the errorstack.">
<polygon fill="#ffffff" stroke="#000000" points="260.5,-.5 260.5,-19.5 346.5,-19.5 346.5,-.5 260.5,-.5"/>
<text text-anchor="middle" x="303.5" y="-7.5" font-family="Helvetica,sans-Serif" font-size="10.00" fill="#000000">errorstack_push</text>
</a>
</g>
</g>
<!-- Node26&#45;&gt;Node28 -->
<g id="edge9" class="edge">
<title>Node26&#45;&gt;Node28</title>
<path fill="none" stroke="#191970" d="M204.0615,-38.411C221.073,-33.5506 241.9319,-27.5909 260.1446,-22.3873"/>
<polygon fill="#191970" stroke="#191970" points="261.2955,-25.6986 269.9492,-19.5859 259.3724,-18.9679 261.2955,-25.6986"/>
</g>
<!-- Node27&#45;&gt;Node23 -->
<g id="edge8" class="edge">
<title>Node27&#45;&gt;Node23</title>
<path fill="none" stroke="#191970" d="M335.6736,-57.589C351.8307,-62.4044 371.608,-68.2988 388.9518,-73.468"/>
<polygon fill="#191970" stroke="#191970" points="388.2535,-76.912 398.8367,-76.4141 390.2529,-70.2036 388.2535,-76.912"/>
</g>
</g>
</svg>
