<?xml version="1.0" encoding="UTF-8" standalone="no"?>
<!DOCTYPE svg PUBLIC "-//W3C//DTD SVG 1.1//EN"
 "http://www.w3.org/Graphics/SVG/1.1/DTD/svg11.dtd">
<!-- Generated by graphviz version 2.40.1 (20161225.0304)
 -->
<!-- Title: PARSERFUNC Pages: 1 -->
<!--zoomable 306 -->
<svg id="main" version="1.1" xmlns="http://www.w3.org/2000/svg" xmlns:xlink="http://www.w3.org/1999/xlink" xml:space="preserve" onload="init(evt)">
<style type="text/css"><![CDATA[
.edge:hover path { stroke: red; }
.edge:hover polygon { stroke: red; fill: red; }
]]></style>
<script type="text/javascript"><![CDATA[
var edges = document.getElementsByTagName('g');
if (edges && edges.length) {
  for (var i=0;i<edges.length;i++) {
    if (edges[i].id.substr(0,4)=='edge') {
      edges[i].setAttribute('class','edge');
    }
  }
}
]]></script>
        <defs>
                <circle id="rim" cx="0" cy="0" r="7"/>
                <circle id="rim2" cx="0" cy="0" r="3.5"/>
                <g id="zoomPlus">
                        <use xlink:href="#rim" fill="#404040">
                                <set attributeName="fill" to="#808080" begin="zoomplus.mouseover" end="zoomplus.mouseout"/>
                        </use>
                        <path d="M-4,0h8M0,-4v8" fill="none" stroke="white" stroke-width="1.5" pointer-events="none"/>
                </g>
                <g id="zoomMin">
                        <use xlink:href="#rim" fill="#404040">
                                <set attributeName="fill" to="#808080" begin="zoomminus.mouseover" end="zoomminus.mouseout"/>
                        </use>
                        <path d="M-4,0h8" fill="none" stroke="white" stroke-width="1.5" pointer-events="none"/>
                </g>
                <g id="dirArrow">
                        <path fill="none" stroke="white" stroke-width="1.5" d="M0,-3.0v7 M-2.5,-0.5L0,-3.0L2.5,-0.5"/>
                </g>
               <g id="resetDef">
                       <use xlink:href="#rim2" fill="#404040">
                               <set attributeName="fill" to="#808080" begin="reset.mouseover" end="reset.mouseout"/>
                       </use>
               </g>
        </defs>

<script type="text/javascript">
var viewWidth = 654;
var viewHeight = 306;
var sectionId = 'dynsection-3';
</script>
<script xlink:href="svgpan.js"/>
<svg id="graph" class="graph">
<g id="viewport">
<title>PARSERFUNC</title>
<polygon fill="#ffffff" stroke="transparent" points="-4,4 -4,-302 650,-302 650,4 -4,4"/>
<!-- Node32 -->
<g id="node1" class="node">
<title>Node32</title>
<g id="a_node1"><a xlink:title="Accepts parts of expressions which can have exponent notation (a ** b) in them.">
<polygon fill="#bfbfbf" stroke="#000000" points="0,-126.5 0,-145.5 86,-145.5 86,-126.5 0,-126.5"/>
<text text-anchor="middle" x="43" y="-133.5" font-family="Helvetica,sans-Serif" font-size="10.00" fill="#000000">PARSERFUNC</text>
</a>
</g>
</g>
<!-- Node33 -->
<g id="node2" class="node">
<title>Node33</title>
<g id="a_node2"><a xlink:href="parser_8h.html#a8c4c57eca60b2cec9a372a04abea456d" target="_top" xlink:title="Advances the parser as long as it can find whitespace.">
<polygon fill="#ffffff" stroke="#000000" points="269.5,-278.5 269.5,-297.5 349.5,-297.5 349.5,-278.5 269.5,-278.5"/>
<text text-anchor="middle" x="309.5" y="-285.5" font-family="Helvetica,sans-Serif" font-size="10.00" fill="#000000">parser_skipws</text>
</a>
</g>
</g>
<!-- Node32&#45;&gt;Node33 -->
<g id="edge1" class="edge">
<title>Node32&#45;&gt;Node33</title>
<path fill="none" stroke="#191970" d="M48.3831,-145.6703C59.556,-164.8536 87.1525,-207.8636 122,-231 163.7196,-258.6991 219.4474,-273.3894 259.2842,-280.8732"/>
<polygon fill="#191970" stroke="#191970" points="258.8461,-284.3504 269.3064,-282.6676 260.0798,-277.4599 258.8461,-284.3504"/>
</g>
<!-- Node36 -->
<g id="node5" class="node">
<title>Node36</title>
<g id="a_node5"><a xlink:href="parser_8h.html#a3c9c52258898d196f76b4d58595b33b9" target="_top" xlink:title="Advances the parser only if the next n characters (where n is the length of the string) matches the s...">
<polygon fill="#ffffff" stroke="#000000" points="122,-202.5 122,-221.5 224,-221.5 224,-202.5 122,-202.5"/>
<text text-anchor="middle" x="173" y="-209.5" font-family="Helvetica,sans-Serif" font-size="10.00" fill="#000000">parser_acceptstring</text>
</a>
</g>
</g>
<!-- Node32&#45;&gt;Node36 -->
<g id="edge4" class="edge">
<title>Node32&#45;&gt;Node36</title>
<path fill="none" stroke="#191970" d="M54.1351,-145.5287C68.8773,-157.7814 96.0461,-179.1291 122,-193 125.7499,-195.0041 129.7574,-196.8908 133.816,-198.6393"/>
<polygon fill="#191970" stroke="#191970" points="132.6984,-201.9625 143.2816,-202.4588 135.3178,-195.471 132.6984,-201.9625"/>
</g>
<!-- Node41 -->
<g id="node10" class="node">
<title>Node41</title>
<g id="a_node10"><a xlink:href="AST_8c.html#a3a1c70c232e669f02ef0a4e171ee6ab2" target="_top" xlink:title="Constructore for ast objects.">
<polygon fill="#ffffff" stroke="#000000" points="143.5,-164.5 143.5,-183.5 202.5,-183.5 202.5,-164.5 143.5,-164.5"/>
<text text-anchor="middle" x="173" y="-171.5" font-family="Helvetica,sans-Serif" font-size="10.00" fill="#000000">AST_new</text>
</a>
</g>
</g>
<!-- Node32&#45;&gt;Node41 -->
<g id="edge10" class="edge">
<title>Node32&#45;&gt;Node41</title>
<path fill="none" stroke="#191970" d="M75.8045,-145.589C93.4019,-150.7329 115.2112,-157.1079 133.709,-162.515"/>
<polygon fill="#191970" stroke="#191970" points="132.7376,-165.8774 143.318,-165.3237 134.7016,-159.1586 132.7376,-165.8774"/>
</g>
<!-- Node42 -->
<g id="node11" class="node">
<title>Node42</title>
<g id="a_node11"><a xlink:href="token_8h.html#a5f63b7723640416a125433badc7d6563" target="_top" xlink:title="Constructor for token objects.">
<polygon fill="#ffffff" stroke="#000000" points="141,-126.5 141,-145.5 205,-145.5 205,-126.5 141,-126.5"/>
<text text-anchor="middle" x="173" y="-133.5" font-family="Helvetica,sans-Serif" font-size="10.00" fill="#000000">token_new</text>
</a>
</g>
</g>
<!-- Node32&#45;&gt;Node42 -->
<g id="edge11" class="edge">
<title>Node32&#45;&gt;Node42</title>
<path fill="none" stroke="#191970" d="M86.2881,-136C100.5526,-136 116.3932,-136 130.5914,-136"/>
<polygon fill="#191970" stroke="#191970" points="130.5936,-139.5001 140.5936,-136 130.5936,-132.5001 130.5936,-139.5001"/>
</g>
<!-- Node43 -->
<g id="node12" class="node">
<title>Node43</title>
<g id="a_node12"><a xlink:href="helios__string_8c.html#a4338910535421a24735fc7eb3123495c" target="_top" xlink:title="Create a helios_string object from a c string.">
<polygon fill="#ffffff" stroke="#000000" points="125,-77 125,-107 221,-107 221,-77 125,-77"/>
<text text-anchor="start" x="133" y="-95" font-family="Helvetica,sans-Serif" font-size="10.00" fill="#000000">helios_string_from</text>
<text text-anchor="middle" x="173" y="-84" font-family="Helvetica,sans-Serif" font-size="10.00" fill="#000000">_charp</text>
</a>
</g>
</g>
<!-- Node32&#45;&gt;Node43 -->
<g id="edge12" class="edge">
<title>Node32&#45;&gt;Node43</title>
<path fill="none" stroke="#191970" d="M71.2081,-126.4527C85.1911,-121.7199 102.5613,-115.8408 118.9709,-110.2868"/>
<polygon fill="#191970" stroke="#191970" points="120.1386,-113.5867 128.4887,-107.0654 117.8944,-106.9561 120.1386,-113.5867"/>
</g>
<!-- Node47 -->
<g id="node16" class="node">
<title>Node47</title>
<g id="a_node16"><a xlink:href="error_8c.html#a1febf822c4d9249dd4afd09c5d5f87bb" target="_top" xlink:title="Construct a new error object out of parameters, and push it to the errorstack.">
<polygon fill="#ffffff" stroke="#000000" points="130,-38.5 130,-57.5 216,-57.5 216,-38.5 130,-38.5"/>
<text text-anchor="middle" x="173" y="-45.5" font-family="Helvetica,sans-Serif" font-size="10.00" fill="#000000">errorstack_push</text>
</a>
</g>
</g>
<!-- Node32&#45;&gt;Node47 -->
<g id="edge16" class="edge">
<title>Node32&#45;&gt;Node47</title>
<path fill="none" stroke="#191970" d="M51.8495,-126.2888C65.61,-111.6811 93.5271,-83.9623 122,-67 125.3738,-64.9901 128.9964,-63.132 132.6981,-61.4295"/>
<polygon fill="#191970" stroke="#191970" points="134.1125,-64.6315 141.9657,-57.5197 131.3916,-58.182 134.1125,-64.6315"/>
</g>
<!-- Node48 -->
<g id="node17" class="node">
<title>Node48</title>
<g id="a_node17"><a xlink:href="AST_8c.html#a5f9c0bcd1d544aac044f4acf93c27ddb" target="_top" xlink:title="Adds a child ast node to a parent ast node.">
<polygon fill="#ffffff" stroke="#000000" points="133,-.5 133,-19.5 213,-19.5 213,-.5 133,-.5"/>
<text text-anchor="middle" x="173" y="-7.5" font-family="Helvetica,sans-Serif" font-size="10.00" fill="#000000">AST_addChild</text>
</a>
</g>
</g>
<!-- Node32&#45;&gt;Node48 -->
<g id="edge17" class="edge">
<title>Node32&#45;&gt;Node48</title>
<path fill="none" stroke="#191970" d="M47.7048,-126.2484C58.1958,-105.4748 85.4848,-56.513 122,-29 124.449,-27.1547 127.0967,-25.472 129.8534,-23.9402"/>
<polygon fill="#191970" stroke="#191970" points="131.4459,-27.0578 138.919,-19.5476 128.3936,-20.7583 131.4459,-27.0578"/>
</g>
<!-- Node34 -->
<g id="node3" class="node">
<title>Node34</title>
<g id="a_node3"><a xlink:href="parserutil_8c.html#a2d9e8c20025b7b883c4e87790685a6ad" target="_top" xlink:title="Proxy to parser_next.">
<polygon fill="#ffffff" stroke="#000000" points="425.5,-240.5 425.5,-259.5 511.5,-259.5 511.5,-240.5 425.5,-240.5"/>
<text text-anchor="middle" x="468.5" y="-247.5" font-family="Helvetica,sans-Serif" font-size="10.00" fill="#000000">parser_advance</text>
</a>
</g>
</g>
<!-- Node33&#45;&gt;Node34 -->
<g id="edge2" class="edge">
<title>Node33&#45;&gt;Node34</title>
<path fill="none" stroke="#191970" d="M349.6224,-278.411C370.6042,-273.3965 396.4817,-267.2119 418.7299,-261.8947"/>
<polygon fill="#191970" stroke="#191970" points="419.7536,-265.2487 428.6661,-259.5201 418.1264,-258.4405 419.7536,-265.2487"/>
</g>
<!-- Node35 -->
<g id="node4" class="node">
<title>Node35</title>
<g id="a_node4"><a xlink:href="parserutil_8c.html#ab25a97ff31329fe9461666bfe2dc6f2c" target="_top" xlink:title="Iterate the parser.">
<polygon fill="#ffffff" stroke="#000000" points="578,-240.5 578,-259.5 646,-259.5 646,-240.5 578,-240.5"/>
<text text-anchor="middle" x="612" y="-247.5" font-family="Helvetica,sans-Serif" font-size="10.00" fill="#000000">parser_next</text>
</a>
</g>
</g>
<!-- Node34&#45;&gt;Node35 -->
<g id="edge3" class="edge">
<title>Node34&#45;&gt;Node35</title>
<path fill="none" stroke="#191970" d="M511.5547,-250C529.2218,-250 549.6679,-250 567.4835,-250"/>
<polygon fill="#191970" stroke="#191970" points="567.6282,-253.5001 577.6282,-250 567.6281,-246.5001 567.6282,-253.5001"/>
</g>
<!-- Node37 -->
<g id="node6" class="node">
<title>Node37</title>
<g id="a_node6"><a xlink:href="parserutil_8c.html#aecf4b8bdaae9ca8435542900cf024f4e" target="_top" xlink:title="Copy a parser.">
<polygon fill="#ffffff" stroke="#000000" points="274.5,-240.5 274.5,-259.5 344.5,-259.5 344.5,-240.5 274.5,-240.5"/>
<text text-anchor="middle" x="309.5" y="-247.5" font-family="Helvetica,sans-Serif" font-size="10.00" fill="#000000">parser_copy</text>
</a>
</g>
</g>
<!-- Node36&#45;&gt;Node37 -->
<g id="edge5" class="edge">
<title>Node36&#45;&gt;Node37</title>
<path fill="none" stroke="#191970" d="M207.4447,-221.589C224.9847,-226.4719 246.51,-232.4643 265.2631,-237.685"/>
<polygon fill="#191970" stroke="#191970" points="264.494,-241.1039 275.0663,-240.4141 266.3713,-234.3603 264.494,-241.1039"/>
</g>
<!-- Node38 -->
<g id="node7" class="node">
<title>Node38</title>
<g id="a_node7"><a xlink:href="parserutil_8c.html#a1a00af051004cb18edac760f39982eea" target="_top" xlink:title="Searches for the given character, advances the parser if it found it.">
<polygon fill="#ffffff" stroke="#000000" points="261,-202.5 261,-221.5 358,-221.5 358,-202.5 261,-202.5"/>
<text text-anchor="middle" x="309.5" y="-209.5" font-family="Helvetica,sans-Serif" font-size="10.00" fill="#000000">parser_acceptchar</text>
</a>
</g>
</g>
<!-- Node36&#45;&gt;Node38 -->
<g id="edge6" class="edge">
<title>Node36&#45;&gt;Node38</title>
<path fill="none" stroke="#191970" d="M224.2159,-212C232.8068,-212 241.7824,-212 250.5494,-212"/>
<polygon fill="#191970" stroke="#191970" points="250.7098,-215.5001 260.7097,-212 250.7097,-208.5001 250.7098,-215.5001"/>
</g>
<!-- Node39 -->
<g id="node8" class="node">
<title>Node39</title>
<g id="a_node8"><a xlink:href="parserutil_8c.html#a1f1841a636bfe529466c99e3db9999cd" target="_top" xlink:title="Restores a parser to another parser&#39;s position.">
<polygon fill="#ffffff" stroke="#000000" points="270,-164.5 270,-183.5 349,-183.5 349,-164.5 270,-164.5"/>
<text text-anchor="middle" x="309.5" y="-171.5" font-family="Helvetica,sans-Serif" font-size="10.00" fill="#000000">parser_restore</text>
</a>
</g>
</g>
<!-- Node36&#45;&gt;Node39 -->
<g id="edge8" class="edge">
<title>Node36&#45;&gt;Node39</title>
<path fill="none" stroke="#191970" d="M207.4447,-202.411C224.9847,-197.5281 246.51,-191.5357 265.2631,-186.315"/>
<polygon fill="#191970" stroke="#191970" points="266.3713,-189.6397 275.0663,-183.5859 264.494,-182.8961 266.3713,-189.6397"/>
</g>
<!-- Node40 -->
<g id="node9" class="node">
<title>Node40</title>
<g id="a_node9"><a xlink:href="parserutil_8c.html#ab62454c7986532e03ea36b14956b5ad1" target="_top" xlink:title="Simple parser destructor.">
<polygon fill="#ffffff" stroke="#000000" points="260,-126.5 260,-145.5 359,-145.5 359,-126.5 260,-126.5"/>
<text text-anchor="middle" x="309.5" y="-133.5" font-family="Helvetica,sans-Serif" font-size="10.00" fill="#000000">parser_free_simple</text>
</a>
</g>
</g>
<!-- Node36&#45;&gt;Node40 -->
<g id="edge9" class="edge">
<title>Node36&#45;&gt;Node40</title>
<path fill="none" stroke="#191970" d="M205.3738,-202.4812C211.8101,-199.8992 218.3264,-196.7539 224,-193 243.402,-180.1627 240.6616,-167.9329 260,-155 262.8801,-153.0739 265.9834,-151.3034 269.182,-149.6844"/>
<polygon fill="#191970" stroke="#191970" points="270.6878,-152.8446 278.3425,-145.5196 267.7906,-146.4723 270.6878,-152.8446"/>
</g>
<!-- Node38&#45;&gt;Node34 -->
<g id="edge7" class="edge">
<title>Node38&#45;&gt;Node34</title>
<path fill="none" stroke="#191970" d="M349.6224,-221.589C370.6042,-226.6035 396.4817,-232.7881 418.7299,-238.1053"/>
<polygon fill="#191970" stroke="#191970" points="418.1264,-241.5595 428.6661,-240.4799 419.7536,-234.7513 418.1264,-241.5595"/>
</g>
<!-- Node44 -->
<g id="node13" class="node">
<title>Node44</title>
<g id="a_node13"><a xlink:href="helios__string_8c.html#af727ca5352482ab7e542510f178a9f85" target="_top" xlink:title="Constructor of a helios_string.">
<polygon fill="#ffffff" stroke="#000000" points="265,-82.5 265,-101.5 354,-101.5 354,-82.5 265,-82.5"/>
<text text-anchor="middle" x="309.5" y="-89.5" font-family="Helvetica,sans-Serif" font-size="10.00" fill="#000000">helios_string_init</text>
</a>
</g>
</g>
<!-- Node43&#45;&gt;Node44 -->
<g id="edge13" class="edge">
<title>Node43&#45;&gt;Node44</title>
<path fill="none" stroke="#191970" d="M221.1248,-92C231.8275,-92 243.2553,-92 254.2195,-92"/>
<polygon fill="#191970" stroke="#191970" points="254.5507,-95.5001 264.5507,-92 254.5507,-88.5001 254.5507,-95.5001"/>
</g>
<!-- Node45 -->
<g id="node14" class="node">
<title>Node45</title>
<g id="a_node14"><a xlink:href="helios__memory_8h.html#af87f0050f8e236d0945592fa4e54dc94" target="_top" xlink:title="Allocates a new helios object (and performs all the GC steps associated with that action).">
<polygon fill="#ffffff" stroke="#000000" points="412,-101.5 412,-120.5 525,-120.5 525,-101.5 412,-101.5"/>
<text text-anchor="middle" x="468.5" y="-108.5" font-family="Helvetica,sans-Serif" font-size="10.00" fill="#000000">helios_allocate_object</text>
</a>
</g>
</g>
<!-- Node44&#45;&gt;Node45 -->
<g id="edge14" class="edge">
<title>Node44&#45;&gt;Node45</title>
<path fill="none" stroke="#191970" d="M354.2135,-97.3431C368.9062,-99.0989 385.5736,-101.0906 401.5476,-102.9994"/>
<polygon fill="#191970" stroke="#191970" points="401.5723,-106.5272 411.917,-104.2385 402.4029,-99.5766 401.5723,-106.5272"/>
</g>
<!-- Node46 -->
<g id="node15" class="node">
<title>Node46</title>
<g id="a_node15"><a xlink:href="helios__memory_8h.html#ab14fb1c046aae61ab06eda8eeaf2cd85" target="_top" xlink:title=" ">
<polygon fill="#ffffff" stroke="#000000" points="395,-63.5 395,-82.5 542,-82.5 542,-63.5 395,-63.5"/>
<text text-anchor="middle" x="468.5" y="-70.5" font-family="Helvetica,sans-Serif" font-size="10.00" fill="#000000">helios_set_garbagecollectable</text>
</a>
</g>
</g>
<!-- Node44&#45;&gt;Node46 -->
<g id="edge15" class="edge">
<title>Node44&#45;&gt;Node46</title>
<path fill="none" stroke="#191970" d="M354.2135,-86.6569C363.8192,-85.509 374.2689,-84.2603 384.8171,-82.9998"/>
<polygon fill="#191970" stroke="#191970" points="385.4221,-86.4525 394.9361,-81.7907 384.5914,-79.502 385.4221,-86.4525"/>
</g>
</g>
</svg>
        <g id="navigator" transform="translate(0 0)" fill="#404254">
                <rect fill="#f2f5e9" fill-opacity="0.5" stroke="#606060" stroke-width=".5" x="0" y="0" width="60" height="60"/>
                <use id="zoomplus" xlink:href="#zoomPlus" x="17" y="9" onmousedown="handleZoom(evt,'in')"/>
                <use id="zoomminus" xlink:href="#zoomMin" x="42" y="9" onmousedown="handleZoom(evt,'out')"/>
                <use id="reset" xlink:href="#resetDef" x="30" y="36" onmousedown="handleReset()"/>
                <g id="arrowUp" xlink:href="#dirArrow" transform="translate(30 24)" onmousedown="handlePan(0,-1)">
                  <use xlink:href="#rim" fill="#404040">
                        <set attributeName="fill" to="#808080" begin="arrowUp.mouseover" end="arrowUp.mouseout"/>
                  </use>
                  <path fill="none" stroke="white" stroke-width="1.5" d="M0,-3.0v7 M-2.5,-0.5L0,-3.0L2.5,-0.5"/>
                </g>
                <g id="arrowRight" xlink:href="#dirArrow" transform="rotate(90) translate(36 -43)" onmousedown="handlePan(1,0)">
                  <use xlink:href="#rim" fill="#404040">
                        <set attributeName="fill" to="#808080" begin="arrowRight.mouseover" end="arrowRight.mouseout"/>
                  </use>
                  <path fill="none" stroke="white" stroke-width="1.5" d="M0,-3.0v7 M-2.5,-0.5L0,-3.0L2.5,-0.5"/>
                </g>
                <g id="arrowDown" xlink:href="#dirArrow" transform="rotate(180) translate(-30 -48)" onmousedown="handlePan(0,1)">
                  <use xlink:href="#rim" fill="#404040">
                        <set attributeName="fill" to="#808080" begin="arrowDown.mouseover" end="arrowDown.mouseout"/>
                  </use>
                  <path fill="none" stroke="white" stroke-width="1.5" d="M0,-3.0v7 M-2.5,-0.5L0,-3.0L2.5,-0.5"/>
                </g>
                <g id="arrowLeft" xlink:href="#dirArrow" transform="rotate(270) translate(-36 17)" onmousedown="handlePan(-1,0)">
                  <use xlink:href="#rim" fill="#404040">
                        <set attributeName="fill" to="#808080" begin="arrowLeft.mouseover" end="arrowLeft.mouseout"/>
                  </use>
                  <path fill="none" stroke="white" stroke-width="1.5" d="M0,-3.0v7 M-2.5,-0.5L0,-3.0L2.5,-0.5"/>
                </g>
        </g>
        <svg viewBox="0 0 15 15" width="100%" height="30px" preserveAspectRatio="xMaxYMin meet">
         <g id="arrow_out" transform="scale(0.3 0.3)">
          <a xlink:href="expressions_8c_a25cf7f081bc441c29e1053c9adcf4314_cgraph_org.svg" target="_base">
           <rect id="button" ry="5" rx="5" y="6" x="6" height="38" width="38"
                fill="#f2f5e9" fill-opacity="0.5" stroke="#606060" stroke-width="1.0"/>
           <path id="arrow"
             d="M 11.500037,31.436501 C 11.940474,20.09759 22.043105,11.32322 32.158766,21.979434 L 37.068811,17.246167 C 37.068811,17.246167 37.088388,32 37.088388,32 L 22.160133,31.978069 C 22.160133,31.978069 26.997745,27.140456 26.997745,27.140456 C 18.528582,18.264221 13.291696,25.230495 11.500037,31.436501 z"
             style="fill:#404040;"/>
          </a>
         </g>
        </svg>
</svg>
