<?xml version="1.0" encoding="UTF-8" standalone="no"?>
<!DOCTYPE svg PUBLIC "-//W3C//DTD SVG 1.1//EN"
 "http://www.w3.org/Graphics/SVG/1.1/DTD/svg11.dtd">
<!-- Generated by graphviz version 2.40.1 (20161225.0304)
 -->
<!-- Title: PARSERFUNC Pages: 1 -->
<svg width="593pt" height="313pt"
 viewBox="0.00 0.00 593.00 313.00" xmlns="http://www.w3.org/2000/svg" xmlns:xlink="http://www.w3.org/1999/xlink">
<g id="graph0" class="graph" transform="scale(1 1) rotate(0) translate(4 309)">
<title>PARSERFUNC</title>
<polygon fill="#ffffff" stroke="transparent" points="-4,4 -4,-309 589,-309 589,4 -4,4"/>
<!-- Node55 -->
<g id="node1" class="node">
<title>Node55</title>
<g id="a_node1"><a xlink:title="Accepts parts of expressions containing operators like * and / or operators with the same precedance.">
<polygon fill="#bfbfbf" stroke="#000000" points="0,-114.5 0,-133.5 86,-133.5 86,-114.5 0,-114.5"/>
<text text-anchor="middle" x="43" y="-121.5" font-family="Helvetica,sans-Serif" font-size="10.00" fill="#000000">PARSERFUNC</text>
</a>
</g>
</g>
<!-- Node56 -->
<g id="node2" class="node">
<title>Node56</title>
<g id="a_node2"><a xlink:href="parser_8h.html#a8c4c57eca60b2cec9a372a04abea456d" target="_top" xlink:title="Advances the parser as long as it can find whitespace.">
<polygon fill="#ffffff" stroke="#000000" points="269.5,-285.5 269.5,-304.5 349.5,-304.5 349.5,-285.5 269.5,-285.5"/>
<text text-anchor="middle" x="309.5" y="-292.5" font-family="Helvetica,sans-Serif" font-size="10.00" fill="#000000">parser_skipws</text>
</a>
</g>
</g>
<!-- Node55&#45;&gt;Node56 -->
<g id="edge1" class="edge">
<title>Node55&#45;&gt;Node56</title>
<path fill="none" stroke="#191970" d="M48.7589,-133.6775C60.3969,-152.4966 88.4827,-194.3356 122,-219 164.2498,-250.0904 221.0157,-270.7709 260.9824,-282.6063"/>
<polygon fill="#191970" stroke="#191970" points="260.1842,-286.0187 270.7624,-285.4257 262.1233,-279.2926 260.1842,-286.0187"/>
</g>
<!-- Node59 -->
<g id="node5" class="node">
<title>Node59</title>
<g id="a_node5"><a xlink:href="parser_8h.html#a3c9c52258898d196f76b4d58595b33b9" target="_top" xlink:title="Advances the parser only if the next n characters (where n is the length of the string) matches the s...">
<polygon fill="#ffffff" stroke="#000000" points="122,-190.5 122,-209.5 224,-209.5 224,-190.5 122,-190.5"/>
<text text-anchor="middle" x="173" y="-197.5" font-family="Helvetica,sans-Serif" font-size="10.00" fill="#000000">parser_acceptstring</text>
</a>
</g>
</g>
<!-- Node55&#45;&gt;Node59 -->
<g id="edge4" class="edge">
<title>Node55&#45;&gt;Node59</title>
<path fill="none" stroke="#191970" d="M56.3333,-133.6225C71.7507,-144.5471 98.0817,-162.59 122,-176 128.1936,-179.4725 134.9736,-182.9047 141.5099,-186.0404"/>
<polygon fill="#191970" stroke="#191970" points="140.2742,-189.3263 150.8152,-190.3927 143.2399,-182.9856 140.2742,-189.3263"/>
</g>
<!-- Node64 -->
<g id="node10" class="node">
<title>Node64</title>
<g id="a_node10"><a xlink:href="parser_8h.html#a1a00af051004cb18edac760f39982eea" target="_top" xlink:title="Searches for the given character, advances the parser if it found it.">
<polygon fill="#ffffff" stroke="#000000" points="261,-95.5 261,-114.5 358,-114.5 358,-95.5 261,-95.5"/>
<text text-anchor="middle" x="309.5" y="-102.5" font-family="Helvetica,sans-Serif" font-size="10.00" fill="#000000">parser_acceptchar</text>
</a>
</g>
</g>
<!-- Node55&#45;&gt;Node64 -->
<g id="edge10" class="edge">
<title>Node55&#45;&gt;Node64</title>
<path fill="none" stroke="#191970" d="M73.5461,-133.54C109.89,-143.4459 172.1687,-155.8385 224,-143 241.561,-138.6502 243.5257,-131.477 260,-124 264.216,-122.0865 268.686,-120.1915 273.1477,-118.3816"/>
<polygon fill="#191970" stroke="#191970" points="274.7771,-121.5016 282.7994,-114.5811 272.2124,-114.9884 274.7771,-121.5016"/>
</g>
<!-- Node65 -->
<g id="node11" class="node">
<title>Node65</title>
<g id="a_node11"><a xlink:href="AST_8c.html#a8c2fa2cf1cd82b5d85d7297e1150980b" target="_top" xlink:title="Constructore for ast objects.">
<polygon fill="#ffffff" stroke="#000000" points="143.5,-114.5 143.5,-133.5 202.5,-133.5 202.5,-114.5 143.5,-114.5"/>
<text text-anchor="middle" x="173" y="-121.5" font-family="Helvetica,sans-Serif" font-size="10.00" fill="#000000">AST_new</text>
</a>
</g>
</g>
<!-- Node55&#45;&gt;Node65 -->
<g id="edge12" class="edge">
<title>Node55&#45;&gt;Node65</title>
<path fill="none" stroke="#191970" d="M86.2881,-124C101.3847,-124 118.2467,-124 133.0587,-124"/>
<polygon fill="#191970" stroke="#191970" points="133.4273,-127.5001 143.4273,-124 133.4273,-120.5001 133.4273,-127.5001"/>
</g>
<!-- Node66 -->
<g id="node12" class="node">
<title>Node66</title>
<g id="a_node12"><a xlink:href="token_8h.html#a6df9cba793453cf8281c9843e576fe40" target="_top" xlink:title="Constructor for token objects.">
<polygon fill="#ffffff" stroke="#000000" points="141,-76.5 141,-95.5 205,-95.5 205,-76.5 141,-76.5"/>
<text text-anchor="middle" x="173" y="-83.5" font-family="Helvetica,sans-Serif" font-size="10.00" fill="#000000">token_new</text>
</a>
</g>
</g>
<!-- Node55&#45;&gt;Node66 -->
<g id="edge13" class="edge">
<title>Node55&#45;&gt;Node66</title>
<path fill="none" stroke="#191970" d="M75.8045,-114.411C92.5592,-109.5135 113.1321,-103.4998 131.0297,-98.2682"/>
<polygon fill="#191970" stroke="#191970" points="132.04,-101.6195 140.6563,-95.4543 130.076,-94.9006 132.04,-101.6195"/>
</g>
<!-- Node67 -->
<g id="node13" class="node">
<title>Node67</title>
<g id="a_node13"><a xlink:href="AST_8c.html#a6d2da376a87fc874be61ece3d28c7a4f" target="_top" xlink:title="Adds a child ast node to a parent ast node.">
<polygon fill="#ffffff" stroke="#000000" points="133,-38.5 133,-57.5 213,-57.5 213,-38.5 133,-38.5"/>
<text text-anchor="middle" x="173" y="-45.5" font-family="Helvetica,sans-Serif" font-size="10.00" fill="#000000">AST_addChild</text>
</a>
</g>
</g>
<!-- Node55&#45;&gt;Node67 -->
<g id="edge14" class="edge">
<title>Node55&#45;&gt;Node67</title>
<path fill="none" stroke="#191970" d="M54.1351,-114.4713C68.8773,-102.2186 96.0461,-80.8709 122,-67 125.7499,-64.9959 129.7574,-63.1092 133.816,-61.3607"/>
<polygon fill="#191970" stroke="#191970" points="135.3178,-64.529 143.2816,-57.5412 132.6984,-58.0375 135.3178,-64.529"/>
</g>
<!-- Node68 -->
<g id="node14" class="node">
<title>Node68</title>
<g id="a_node14"><a xlink:href="error_8c.html#afe624477a33ab8814a9454f58a0bc1fa" target="_top" xlink:title="Construct a new error object out of parameters, and push it to the errorstack.">
<polygon fill="#ffffff" stroke="#000000" points="130,-.5 130,-19.5 216,-19.5 216,-.5 130,-.5"/>
<text text-anchor="middle" x="173" y="-7.5" font-family="Helvetica,sans-Serif" font-size="10.00" fill="#000000">errorstack_push</text>
</a>
</g>
</g>
<!-- Node55&#45;&gt;Node68 -->
<g id="edge15" class="edge">
<title>Node55&#45;&gt;Node68</title>
<path fill="none" stroke="#191970" d="M48.6837,-114.2184C60.1899,-95.2168 88.0553,-53.0728 122,-29 124.659,-27.1143 127.5276,-25.3918 130.5009,-23.8227"/>
<polygon fill="#191970" stroke="#191970" points="132.0463,-26.964 139.6306,-19.5661 129.0883,-20.6197 132.0463,-26.964"/>
</g>
<!-- Node57 -->
<g id="node3" class="node">
<title>Node57</title>
<g id="a_node3"><a xlink:href="parserutil_8c.html#a2d9e8c20025b7b883c4e87790685a6ad" target="_top" xlink:title="Proxy to parser_next.">
<polygon fill="#ffffff" stroke="#000000" points="395,-209.5 395,-228.5 481,-228.5 481,-209.5 395,-209.5"/>
<text text-anchor="middle" x="438" y="-216.5" font-family="Helvetica,sans-Serif" font-size="10.00" fill="#000000">parser_advance</text>
</a>
</g>
</g>
<!-- Node56&#45;&gt;Node57 -->
<g id="edge2" class="edge">
<title>Node56&#45;&gt;Node57</title>
<path fill="none" stroke="#191970" d="M338.0749,-285.4751C345.0778,-282.7514 352.4415,-279.5469 359,-276 380.715,-264.2563 403.3509,-247.3732 418.7976,-235.0297"/>
<polygon fill="#191970" stroke="#191970" points="421.0334,-237.7228 426.5879,-228.7007 416.6195,-232.2897 421.0334,-237.7228"/>
</g>
<!-- Node58 -->
<g id="node4" class="node">
<title>Node58</title>
<g id="a_node4"><a xlink:href="parserutil_8c.html#ab25a97ff31329fe9461666bfe2dc6f2c" target="_top" xlink:title="Iterate the parser.">
<polygon fill="#ffffff" stroke="#000000" points="517,-209.5 517,-228.5 585,-228.5 585,-209.5 517,-209.5"/>
<text text-anchor="middle" x="551" y="-216.5" font-family="Helvetica,sans-Serif" font-size="10.00" fill="#000000">parser_next</text>
</a>
</g>
</g>
<!-- Node57&#45;&gt;Node58 -->
<g id="edge3" class="edge">
<title>Node57&#45;&gt;Node58</title>
<path fill="none" stroke="#191970" d="M481.0428,-219C489.4677,-219 498.3165,-219 506.7791,-219"/>
<polygon fill="#191970" stroke="#191970" points="506.8556,-222.5001 516.8556,-219 506.8555,-215.5001 506.8556,-222.5001"/>
</g>
<!-- Node60 -->
<g id="node6" class="node">
<title>Node60</title>
<g id="a_node6"><a xlink:href="parserutil_8c.html#aecf4b8bdaae9ca8435542900cf024f4e" target="_top" xlink:title="Copy a parser.">
<polygon fill="#ffffff" stroke="#000000" points="274.5,-247.5 274.5,-266.5 344.5,-266.5 344.5,-247.5 274.5,-247.5"/>
<text text-anchor="middle" x="309.5" y="-254.5" font-family="Helvetica,sans-Serif" font-size="10.00" fill="#000000">parser_copy</text>
</a>
</g>
</g>
<!-- Node59&#45;&gt;Node60 -->
<g id="edge5" class="edge">
<title>Node59&#45;&gt;Node60</title>
<path fill="none" stroke="#191970" d="M194.3369,-209.6415C211.879,-217.4904 237.4304,-228.745 260,-238 264.6017,-239.887 269.466,-241.8239 274.2771,-243.7054"/>
<polygon fill="#191970" stroke="#191970" points="273.3871,-247.1138 283.9764,-247.4564 275.9119,-240.585 273.3871,-247.1138"/>
</g>
<!-- Node61 -->
<g id="node7" class="node">
<title>Node61</title>
<g id="a_node7"><a xlink:href="parserutil_8c.html#a1a00af051004cb18edac760f39982eea" target="_top" xlink:title="Searches for the given character, advances the parser if it found it.">
<polygon fill="#ffffff" stroke="#000000" points="261,-209.5 261,-228.5 358,-228.5 358,-209.5 261,-209.5"/>
<text text-anchor="middle" x="309.5" y="-216.5" font-family="Helvetica,sans-Serif" font-size="10.00" fill="#000000">parser_acceptchar</text>
</a>
</g>
</g>
<!-- Node59&#45;&gt;Node61 -->
<g id="edge6" class="edge">
<title>Node59&#45;&gt;Node61</title>
<path fill="none" stroke="#191970" d="M224.2159,-207.129C232.8068,-208.3248 241.7824,-209.5741 250.5494,-210.7944"/>
<polygon fill="#191970" stroke="#191970" points="250.3227,-214.2965 260.7097,-212.2087 251.2878,-207.3634 250.3227,-214.2965"/>
</g>
<!-- Node62 -->
<g id="node8" class="node">
<title>Node62</title>
<g id="a_node8"><a xlink:href="parserutil_8c.html#a1f1841a636bfe529466c99e3db9999cd" target="_top" xlink:title="Restores a parser to another parser&#39;s position.">
<polygon fill="#ffffff" stroke="#000000" points="270,-171.5 270,-190.5 349,-190.5 349,-171.5 270,-171.5"/>
<text text-anchor="middle" x="309.5" y="-178.5" font-family="Helvetica,sans-Serif" font-size="10.00" fill="#000000">parser_restore</text>
</a>
</g>
</g>
<!-- Node59&#45;&gt;Node62 -->
<g id="edge8" class="edge">
<title>Node59&#45;&gt;Node62</title>
<path fill="none" stroke="#191970" d="M224.2159,-192.871C235.9179,-191.2422 248.3336,-189.514 259.9637,-187.8952"/>
<polygon fill="#191970" stroke="#191970" points="260.5221,-191.3513 269.9441,-186.506 259.557,-184.4181 260.5221,-191.3513"/>
</g>
<!-- Node63 -->
<g id="node9" class="node">
<title>Node63</title>
<g id="a_node9"><a xlink:href="parserutil_8c.html#ab62454c7986532e03ea36b14956b5ad1" target="_top" xlink:title="Simple parser destructor.">
<polygon fill="#ffffff" stroke="#000000" points="260,-133.5 260,-152.5 359,-152.5 359,-133.5 260,-133.5"/>
<text text-anchor="middle" x="309.5" y="-140.5" font-family="Helvetica,sans-Serif" font-size="10.00" fill="#000000">parser_free_simple</text>
</a>
</g>
</g>
<!-- Node59&#45;&gt;Node63 -->
<g id="edge9" class="edge">
<title>Node59&#45;&gt;Node63</title>
<path fill="none" stroke="#191970" d="M194.3369,-190.3585C211.879,-182.5096 237.4304,-171.255 260,-162 264.6017,-160.113 269.466,-158.1761 274.2771,-156.2946"/>
<polygon fill="#191970" stroke="#191970" points="275.9119,-159.415 283.9764,-152.5436 273.3871,-152.8862 275.9119,-159.415"/>
</g>
<!-- Node61&#45;&gt;Node57 -->
<g id="edge7" class="edge">
<title>Node61&#45;&gt;Node57</title>
<path fill="none" stroke="#191970" d="M358.0803,-219C366.7645,-219 375.8553,-219 384.6642,-219"/>
<polygon fill="#191970" stroke="#191970" points="384.8344,-222.5001 394.8343,-219 384.8343,-215.5001 384.8344,-222.5001"/>
</g>
<!-- Node64&#45;&gt;Node57 -->
<g id="edge11" class="edge">
<title>Node64&#45;&gt;Node57</title>
<path fill="none" stroke="#191970" d="M341.6264,-114.571C347.6882,-117.1253 353.7625,-120.2467 359,-124 388.333,-145.0207 413.2302,-179.4406 426.8537,-200.5705"/>
<polygon fill="#191970" stroke="#191970" points="424.0173,-202.6354 432.2954,-209.2478 429.9477,-198.9164 424.0173,-202.6354"/>
</g>
</g>
</svg>
