<?xml version="1.0" encoding="UTF-8" standalone="no"?>
<!DOCTYPE svg PUBLIC "-//W3C//DTD SVG 1.1//EN"
 "http://www.w3.org/Graphics/SVG/1.1/DTD/svg11.dtd">
<!-- Generated by graphviz version 2.40.1 (20161225.0304)
 -->
<!-- Title: parser/parserfuncs/expressions.c Pages: 1 -->
<svg width="471pt" height="263pt"
 viewBox="0.00 0.00 471.04 263.00" xmlns="http://www.w3.org/2000/svg" xmlns:xlink="http://www.w3.org/1999/xlink">
<g id="graph0" class="graph" transform="scale(1 1) rotate(0) translate(4 259)">
<title>parser/parserfuncs/expressions.c</title>
<polygon fill="#ffffff" stroke="transparent" points="-4,4 -4,-259 467.0422,-259 467.0422,4 -4,4"/>
<!-- Node0 -->
<g id="node1" class="node">
<title>Node0</title>
<g id="a_node1"><a xlink:title=" ">
<polygon fill="#bfbfbf" stroke="#000000" points="149.5422,-224.5 149.5422,-254.5 247.5422,-254.5 247.5422,-224.5 149.5422,-224.5"/>
<text text-anchor="start" x="157.5422" y="-242.5" font-family="Helvetica,sans-Serif" font-size="10.00" fill="#000000">parser/parserfuncs</text>
<text text-anchor="middle" x="198.5422" y="-231.5" font-family="Helvetica,sans-Serif" font-size="10.00" fill="#000000">/expressions.c</text>
</a>
</g>
</g>
<!-- Node1 -->
<g id="node2" class="node">
<title>Node1</title>
<g id="a_node2"><a xlink:href="AST_8h.html" target="_top" xlink:title=" ">
<polygon fill="#ffffff" stroke="#000000" points="12.5422,-112.5 12.5422,-131.5 56.5422,-131.5 56.5422,-112.5 12.5422,-112.5"/>
<text text-anchor="middle" x="34.5422" y="-119.5" font-family="Helvetica,sans-Serif" font-size="10.00" fill="#000000">AST.h</text>
</a>
</g>
</g>
<!-- Node0&#45;&gt;Node1 -->
<g id="edge1" class="edge">
<title>Node0&#45;&gt;Node1</title>
<path fill="none" stroke="#191970" d="M149.2445,-228.2888C123.46,-220.4406 92.7352,-207.7408 70.5422,-188 56.4167,-175.4353 46.751,-155.9604 41.0204,-141.4172"/>
<polygon fill="#191970" stroke="#191970" points="44.2518,-140.0624 37.5355,-131.8684 37.676,-142.4623 44.2518,-140.0624"/>
</g>
<!-- Node2 -->
<g id="node3" class="node">
<title>Node2</title>
<g id="a_node3"><a xlink:title=" ">
<polygon fill="#ffffff" stroke="#bfbfbf" points="48.0422,-.5 48.0422,-19.5 97.0422,-19.5 97.0422,-.5 48.0422,-.5"/>
<text text-anchor="middle" x="72.5422" y="-7.5" font-family="Helvetica,sans-Serif" font-size="10.00" fill="#000000">stdint.h</text>
</a>
</g>
</g>
<!-- Node0&#45;&gt;Node2 -->
<g id="edge16" class="edge">
<title>Node0&#45;&gt;Node2</title>
<path fill="none" stroke="#191970" d="M149.1527,-230.7557C98.9301,-218.688 25.4711,-191.2794 3.5422,-132 -11.3889,-91.6372 27.243,-48.8157 52.5556,-26.1972"/>
<polygon fill="#191970" stroke="#191970" points="54.9302,-28.7712 60.2212,-19.5921 50.3608,-23.4682 54.9302,-28.7712"/>
</g>
<!-- Node3 -->
<g id="node4" class="node">
<title>Node3</title>
<g id="a_node4"><a xlink:href="token_8h.html" target="_top" xlink:title=" ">
<polygon fill="#ffffff" stroke="#000000" points="48.0422,-56.5 48.0422,-75.5 97.0422,-75.5 97.0422,-56.5 48.0422,-56.5"/>
<text text-anchor="middle" x="72.5422" y="-63.5" font-family="Helvetica,sans-Serif" font-size="10.00" fill="#000000">token.h</text>
</a>
</g>
</g>
<!-- Node0&#45;&gt;Node3 -->
<g id="edge14" class="edge">
<title>Node0&#45;&gt;Node3</title>
<path fill="none" stroke="#191970" d="M159.3905,-224.3433C142.2543,-215.9467 123.2096,-203.9356 110.5422,-188 86.3721,-157.5939 77.4884,-111.7108 74.2873,-85.7449"/>
<polygon fill="#191970" stroke="#191970" points="77.7504,-85.2124 73.2083,-75.6406 70.79,-85.9557 77.7504,-85.2124"/>
</g>
<!-- Node4 -->
<g id="node5" class="node">
<title>Node4</title>
<g id="a_node5"><a xlink:title=" ">
<polygon fill="#ffffff" stroke="#bfbfbf" points="180.5422,-.5 180.5422,-19.5 236.5422,-19.5 236.5422,-.5 180.5422,-.5"/>
<text text-anchor="middle" x="208.5422" y="-7.5" font-family="Helvetica,sans-Serif" font-size="10.00" fill="#000000">stdbool.h</text>
</a>
</g>
</g>
<!-- Node0&#45;&gt;Node4 -->
<g id="edge15" class="edge">
<title>Node0&#45;&gt;Node4</title>
<path fill="none" stroke="#191970" d="M204.3655,-224.2137C215.6189,-192.6589 238.2537,-118.0685 226.5422,-56 224.7981,-46.7566 221.2441,-36.9893 217.7513,-28.844"/>
<polygon fill="#191970" stroke="#191970" points="220.8446,-27.1923 213.5007,-19.5556 214.4794,-30.1052 220.8446,-27.1923"/>
</g>
<!-- Node5 -->
<g id="node6" class="node">
<title>Node5</title>
<g id="a_node6"><a xlink:href="error_8h.html" target="_top" xlink:title=" ">
<polygon fill="#ffffff" stroke="#000000" points="158.5422,-56.5 158.5422,-75.5 202.5422,-75.5 202.5422,-56.5 158.5422,-56.5"/>
<text text-anchor="middle" x="180.5422" y="-63.5" font-family="Helvetica,sans-Serif" font-size="10.00" fill="#000000">error.h</text>
</a>
</g>
</g>
<!-- Node0&#45;&gt;Node5 -->
<g id="edge6" class="edge">
<title>Node0&#45;&gt;Node5</title>
<path fill="none" stroke="#191970" d="M196.9763,-224.4065C193.7193,-193.0126 186.2167,-120.6961 182.5853,-85.6925"/>
<polygon fill="#191970" stroke="#191970" points="186.0658,-85.3234 181.5525,-75.738 179.1032,-86.0458 186.0658,-85.3234"/>
</g>
<!-- Node6 -->
<g id="node7" class="node">
<title>Node6</title>
<g id="a_node7"><a xlink:href="parser_8h.html" target="_top" xlink:title=" ">
<polygon fill="#ffffff" stroke="#000000" points="119.0422,-168.5 119.0422,-187.5 170.0422,-187.5 170.0422,-168.5 119.0422,-168.5"/>
<text text-anchor="middle" x="144.5422" y="-175.5" font-family="Helvetica,sans-Serif" font-size="10.00" fill="#000000">parser.h</text>
</a>
</g>
</g>
<!-- Node0&#45;&gt;Node6 -->
<g id="edge9" class="edge">
<title>Node0&#45;&gt;Node6</title>
<path fill="none" stroke="#191970" d="M185.1939,-224.2977C177.542,-215.5831 167.9049,-204.6075 159.9346,-195.5302"/>
<polygon fill="#191970" stroke="#191970" points="162.4164,-193.052 153.1883,-187.8469 157.1563,-197.6707 162.4164,-193.052"/>
</g>
<!-- Node7 -->
<g id="node8" class="node">
<title>Node7</title>
<g id="a_node8"><a xlink:title=" ">
<polygon fill="#ffffff" stroke="#bfbfbf" points="283.5422,-168.5 283.5422,-187.5 329.5422,-187.5 329.5422,-168.5 283.5422,-168.5"/>
<text text-anchor="middle" x="306.5422" y="-175.5" font-family="Helvetica,sans-Serif" font-size="10.00" fill="#000000">stdio.h</text>
</a>
</g>
</g>
<!-- Node0&#45;&gt;Node7 -->
<g id="edge17" class="edge">
<title>Node0&#45;&gt;Node7</title>
<path fill="none" stroke="#191970" d="M224.962,-224.4554C242.0336,-214.734 264.1325,-202.15 281.0232,-192.5317"/>
<polygon fill="#191970" stroke="#191970" points="282.8481,-195.5202 289.8061,-187.5303 279.3842,-189.4373 282.8481,-195.5202"/>
</g>
<!-- Node8 -->
<g id="node9" class="node">
<title>Node8</title>
<g id="a_node9"><a xlink:title=" ">
<polygon fill="#ffffff" stroke="#bfbfbf" points="347.5422,-168.5 347.5422,-187.5 395.5422,-187.5 395.5422,-168.5 347.5422,-168.5"/>
<text text-anchor="middle" x="371.5422" y="-175.5" font-family="Helvetica,sans-Serif" font-size="10.00" fill="#000000">stdlib.h</text>
</a>
</g>
</g>
<!-- Node0&#45;&gt;Node8 -->
<g id="edge18" class="edge">
<title>Node0&#45;&gt;Node8</title>
<path fill="none" stroke="#191970" d="M240.8628,-224.4554C270.6192,-213.8773 309.9103,-199.9096 337.6126,-190.0617"/>
<polygon fill="#191970" stroke="#191970" points="339.0053,-193.2813 347.2553,-186.6338 336.6605,-186.6856 339.0053,-193.2813"/>
</g>
<!-- Node9 -->
<g id="node10" class="node">
<title>Node9</title>
<g id="a_node10"><a xlink:title=" ">
<polygon fill="#ffffff" stroke="#bfbfbf" points="414.0422,-168.5 414.0422,-187.5 463.0422,-187.5 463.0422,-168.5 414.0422,-168.5"/>
<text text-anchor="middle" x="438.5422" y="-175.5" font-family="Helvetica,sans-Serif" font-size="10.00" fill="#000000">string.h</text>
</a>
</g>
</g>
<!-- Node0&#45;&gt;Node9 -->
<g id="edge19" class="edge">
<title>Node0&#45;&gt;Node9</title>
<path fill="none" stroke="#191970" d="M247.8041,-227.7865C287.4241,-218.2295 344.746,-204.0978 403.8147,-188.1214"/>
<polygon fill="#191970" stroke="#191970" points="404.9613,-191.4368 413.6933,-185.4364 403.1253,-184.6818 404.9613,-191.4368"/>
</g>
<!-- Node1&#45;&gt;Node2 -->
<g id="edge2" class="edge">
<title>Node1&#45;&gt;Node2</title>
<path fill="none" stroke="#191970" d="M33.4486,-112.2556C32.3393,-99.0634 31.6425,-74.989 38.5422,-56 42.3682,-45.4704 49.4247,-35.2881 56.1216,-27.1918"/>
<polygon fill="#191970" stroke="#191970" points="58.8394,-29.4014 62.8198,-19.5827 53.5851,-24.7762 58.8394,-29.4014"/>
</g>
<!-- Node1&#45;&gt;Node3 -->
<g id="edge3" class="edge">
<title>Node1&#45;&gt;Node3</title>
<path fill="none" stroke="#191970" d="M41.1613,-112.2455C46.4468,-104.4564 53.9963,-93.3308 60.366,-83.9439"/>
<polygon fill="#191970" stroke="#191970" points="63.2801,-85.8827 65.999,-75.6427 57.4878,-81.9522 63.2801,-85.8827"/>
</g>
<!-- Node3&#45;&gt;Node2 -->
<g id="edge5" class="edge">
<title>Node3&#45;&gt;Node2</title>
<path fill="none" stroke="#191970" d="M72.5422,-56.2455C72.5422,-48.9382 72.5422,-38.6944 72.5422,-29.7046"/>
<polygon fill="#191970" stroke="#191970" points="76.0423,-29.6426 72.5422,-19.6427 69.0423,-29.6427 76.0423,-29.6426"/>
</g>
<!-- Node3&#45;&gt;Node4 -->
<g id="edge4" class="edge">
<title>Node3&#45;&gt;Node4</title>
<path fill="none" stroke="#191970" d="M95.9215,-56.3733C118.0467,-47.2629 151.4556,-33.5062 176.1441,-23.3404"/>
<polygon fill="#191970" stroke="#191970" points="177.5539,-26.5451 185.4681,-19.5011 174.8886,-20.0723 177.5539,-26.5451"/>
</g>
<!-- Node5&#45;&gt;Node2 -->
<g id="edge8" class="edge">
<title>Node5&#45;&gt;Node2</title>
<path fill="none" stroke="#191970" d="M161.7301,-56.2455C144.6949,-47.4125 119.3847,-34.2887 100.0741,-24.2758"/>
<polygon fill="#191970" stroke="#191970" points="101.6275,-21.1388 91.1388,-19.6427 98.4052,-27.353 101.6275,-21.1388"/>
</g>
<!-- Node5&#45;&gt;Node4 -->
<g id="edge7" class="edge">
<title>Node5&#45;&gt;Node4</title>
<path fill="none" stroke="#191970" d="M185.4195,-56.2455C189.1936,-48.6973 194.5343,-38.0158 199.1324,-28.8197"/>
<polygon fill="#191970" stroke="#191970" points="202.3792,-30.1522 203.7209,-19.6427 196.1182,-27.0217 202.3792,-30.1522"/>
</g>
<!-- Node6&#45;&gt;Node1 -->
<g id="edge10" class="edge">
<title>Node6&#45;&gt;Node1</title>
<path fill="none" stroke="#191970" d="M125.3817,-168.2455C108.0311,-159.4125 82.2522,-146.2887 62.5839,-136.2758"/>
<polygon fill="#191970" stroke="#191970" points="63.9827,-133.0605 53.4832,-131.6427 60.8069,-139.2986 63.9827,-133.0605"/>
</g>
<!-- Node6&#45;&gt;Node2 -->
<g id="edge13" class="edge">
<title>Node6&#45;&gt;Node2</title>
<path fill="none" stroke="#191970" d="M142.5591,-168.4286C137.9599,-147.3256 125.419,-95.5351 105.5422,-56 100.5493,-46.069 93.5275,-35.9349 87.2438,-27.7155"/>
<polygon fill="#191970" stroke="#191970" points="89.802,-25.3085 80.846,-19.6481 84.3174,-29.6581 89.802,-25.3085"/>
</g>
<!-- Node6&#45;&gt;Node4 -->
<g id="edge12" class="edge">
<title>Node6&#45;&gt;Node4</title>
<path fill="none" stroke="#191970" d="M153.8884,-168.3374C169.5751,-151.3498 200.5614,-114.288 211.5422,-76 215.8901,-60.8397 214.702,-42.9248 212.6704,-29.5878"/>
<polygon fill="#191970" stroke="#191970" points="216.092,-28.8401 210.8685,-19.6225 209.2037,-30.0857 216.092,-28.8401"/>
</g>
<!-- Node6&#45;&gt;Node5 -->
<g id="edge11" class="edge">
<title>Node6&#45;&gt;Node5</title>
<path fill="none" stroke="#191970" d="M147.6116,-168.4509C153.5097,-150.1013 166.5309,-109.5908 174.3164,-85.3693"/>
<polygon fill="#191970" stroke="#191970" points="177.7526,-86.1162 177.4807,-75.5249 171.0884,-83.9741 177.7526,-86.1162"/>
</g>
</g>
</svg>
