<?xml version="1.0" encoding="UTF-8" standalone="no"?>
<!DOCTYPE svg PUBLIC "-//W3C//DTD SVG 1.1//EN"
 "http://www.w3.org/Graphics/SVG/1.1/DTD/svg11.dtd">
<!-- Generated by graphviz version 2.40.1 (20161225.0304)
 -->
<!-- Title: PARSERFUNC Pages: 1 -->
<svg width="476pt" height="274pt"
 viewBox="0.00 0.00 476.00 274.00" xmlns="http://www.w3.org/2000/svg" xmlns:xlink="http://www.w3.org/1999/xlink">
<g id="graph0" class="graph" transform="scale(1 1) rotate(0) translate(4 270)">
<title>PARSERFUNC</title>
<polygon fill="#ffffff" stroke="transparent" points="-4,4 -4,-270 472,-270 472,4 -4,4"/>
<!-- Node24 -->
<g id="node1" class="node">
<title>Node24</title>
<g id="a_node1"><a xlink:title="Tries to accept a floating point constant.">
<polygon fill="#bfbfbf" stroke="#000000" points="0,-132.5 0,-151.5 81,-151.5 81,-132.5 0,-132.5"/>
<text text-anchor="middle" x="40.5" y="-139.5" font-family="Helvetica,sans-Serif" font-size="10.00" fill="#000000">PARSERFUNC</text>
</a>
</g>
</g>
<!-- Node25 -->
<g id="node2" class="node">
<title>Node25</title>
<g id="a_node2"><a xlink:href="parser_8h.html#a8c4c57eca60b2cec9a372a04abea456d" target="_top" xlink:title="Advances the parser as long as it can find whitespace.">
<polygon fill="#ffffff" stroke="#000000" points="129.5,-246.5 129.5,-265.5 215.5,-265.5 215.5,-246.5 129.5,-246.5"/>
<text text-anchor="middle" x="172.5" y="-253.5" font-family="Helvetica,sans-Serif" font-size="10.00" fill="#000000">parser_skipws</text>
</a>
</g>
</g>
<!-- Node24&#45;&gt;Node25 -->
<g id="edge1" class="edge">
<title>Node24&#45;&gt;Node25</title>
<path fill="none" stroke="#191970" d="M45.701,-151.5741C56.4992,-170.5846 83.1864,-213.2992 117,-237 119.7104,-238.8998 122.6272,-240.6235 125.6541,-242.1851"/>
<polygon fill="#191970" stroke="#191970" points="124.4159,-245.4663 134.9697,-246.3979 127.3003,-239.0882 124.4159,-245.4663"/>
</g>
<!-- Node28 -->
<g id="node5" class="node">
<title>Node28</title>
<g id="a_node5"><a xlink:href="error_8c.html#abce5ae15abadd0806e96f190e0294797" target="_top" xlink:title="Find the length of an errorstack.">
<polygon fill="#ffffff" stroke="#000000" points="121.5,-208.5 121.5,-227.5 223.5,-227.5 223.5,-208.5 121.5,-208.5"/>
<text text-anchor="middle" x="172.5" y="-215.5" font-family="Helvetica,sans-Serif" font-size="10.00" fill="#000000">errorstack_length</text>
</a>
</g>
</g>
<!-- Node24&#45;&gt;Node28 -->
<g id="edge4" class="edge">
<title>Node24&#45;&gt;Node28</title>
<path fill="none" stroke="#191970" d="M51.1714,-151.6619C65.3268,-164.0587 91.5059,-185.5619 117,-199 121.0106,-201.114 125.3046,-203.0673 129.6621,-204.8519"/>
<polygon fill="#191970" stroke="#191970" points="128.6266,-208.2026 139.2177,-208.486 131.115,-201.6598 128.6266,-208.2026"/>
</g>
<!-- Node29 -->
<g id="node6" class="node">
<title>Node29</title>
<g id="a_node6"><a xlink:href="parser_8h.html#aecf4b8bdaae9ca8435542900cf024f4e" target="_top" xlink:title="Copy a parser.">
<polygon fill="#ffffff" stroke="#000000" points="134.5,-170.5 134.5,-189.5 210.5,-189.5 210.5,-170.5 134.5,-170.5"/>
<text text-anchor="middle" x="172.5" y="-177.5" font-family="Helvetica,sans-Serif" font-size="10.00" fill="#000000">parser_copy</text>
</a>
</g>
</g>
<!-- Node24&#45;&gt;Node29 -->
<g id="edge5" class="edge">
<title>Node24&#45;&gt;Node29</title>
<path fill="none" stroke="#191970" d="M73.8092,-151.589C90.6928,-156.4494 111.3948,-162.4091 129.4705,-167.6127"/>
<polygon fill="#191970" stroke="#191970" points="128.6235,-171.011 139.2015,-170.4141 130.56,-164.2842 128.6235,-171.011"/>
</g>
<!-- Node30 -->
<g id="node7" class="node">
<title>Node30</title>
<g id="a_node7"><a xlink:href="parser_8h.html#ab62454c7986532e03ea36b14956b5ad1" target="_top" xlink:title="Simple parser destructor.">
<polygon fill="#ffffff" stroke="#000000" points="117.5,-132.5 117.5,-151.5 227.5,-151.5 227.5,-132.5 117.5,-132.5"/>
<text text-anchor="middle" x="172.5" y="-139.5" font-family="Helvetica,sans-Serif" font-size="10.00" fill="#000000">parser_free_simple</text>
</a>
</g>
</g>
<!-- Node24&#45;&gt;Node30 -->
<g id="edge6" class="edge">
<title>Node24&#45;&gt;Node30</title>
<path fill="none" stroke="#191970" d="M81.1814,-142C89.3484,-142 98.125,-142 106.8923,-142"/>
<polygon fill="#191970" stroke="#191970" points="107.1432,-145.5001 117.1431,-142 107.1431,-138.5001 107.1432,-145.5001"/>
</g>
<!-- Node31 -->
<g id="node8" class="node">
<title>Node31</title>
<g id="a_node8"><a xlink:href="AST_8c.html#adc8be8765bd5abffeef1f5649587cb45" target="_top" xlink:title="Destructor for ast objects.">
<polygon fill="#ffffff" stroke="#000000" points="142.5,-76.5 142.5,-95.5 202.5,-95.5 202.5,-76.5 142.5,-76.5"/>
<text text-anchor="middle" x="172.5" y="-83.5" font-family="Helvetica,sans-Serif" font-size="10.00" fill="#000000">AST_free</text>
</a>
</g>
</g>
<!-- Node24&#45;&gt;Node31 -->
<g id="edge7" class="edge">
<title>Node24&#45;&gt;Node31</title>
<path fill="none" stroke="#191970" d="M63.1916,-132.3733C84.5711,-123.3032 116.8057,-109.6279 140.7362,-99.4755"/>
<polygon fill="#191970" stroke="#191970" points="142.2656,-102.6287 150.1045,-95.5011 139.5317,-96.1846 142.2656,-102.6287"/>
</g>
<!-- Node33 -->
<g id="node10" class="node">
<title>Node33</title>
<g id="a_node10"><a xlink:href="error_8c.html#a89fd5777df6b835a420106d940842f2a" target="_top" xlink:title="pop the errorstack until it has a desired length.">
<polygon fill="#ffffff" stroke="#000000" points="117,-38.5 117,-57.5 228,-57.5 228,-38.5 117,-38.5"/>
<text text-anchor="middle" x="172.5" y="-45.5" font-family="Helvetica,sans-Serif" font-size="10.00" fill="#000000">errorstack_popuntil</text>
</a>
</g>
</g>
<!-- Node24&#45;&gt;Node33 -->
<g id="edge10" class="edge">
<title>Node24&#45;&gt;Node33</title>
<path fill="none" stroke="#191970" d="M47.9268,-132.3174C60.5137,-116.5237 87.5555,-85.1608 117,-67 120.2235,-65.0118 123.6816,-63.2003 127.2382,-61.5561"/>
<polygon fill="#191970" stroke="#191970" points="128.897,-64.6571 136.7889,-57.5882 126.2114,-58.1927 128.897,-64.6571"/>
</g>
<!-- Node35 -->
<g id="node12" class="node">
<title>Node35</title>
<g id="a_node12"><a xlink:href="parser_8h.html#a1f1841a636bfe529466c99e3db9999cd" target="_top" xlink:title="Restores a parser to another parser&#39;s position.">
<polygon fill="#ffffff" stroke="#000000" points="129,-.5 129,-19.5 216,-19.5 216,-.5 129,-.5"/>
<text text-anchor="middle" x="172.5" y="-7.5" font-family="Helvetica,sans-Serif" font-size="10.00" fill="#000000">parser_restore</text>
</a>
</g>
</g>
<!-- Node24&#45;&gt;Node35 -->
<g id="edge12" class="edge">
<title>Node24&#45;&gt;Node35</title>
<path fill="none" stroke="#191970" d="M44.4769,-132.2753C53.8403,-110.5604 79.3593,-57.7788 117,-29 119.4297,-27.1423 122.0531,-25.459 124.7914,-23.9348"/>
<polygon fill="#191970" stroke="#191970" points="126.335,-27.0762 133.8313,-19.5891 123.3022,-20.7673 126.335,-27.0762"/>
</g>
<!-- Node26 -->
<g id="node3" class="node">
<title>Node26</title>
<g id="a_node3"><a xlink:href="parserutil_8c.html#a2d9e8c20025b7b883c4e87790685a6ad" target="_top" xlink:title="Proxy to parser_next.">
<polygon fill="#ffffff" stroke="#000000" points="264,-246.5 264,-265.5 358,-265.5 358,-246.5 264,-246.5"/>
<text text-anchor="middle" x="311" y="-253.5" font-family="Helvetica,sans-Serif" font-size="10.00" fill="#000000">parser_advance</text>
</a>
</g>
</g>
<!-- Node25&#45;&gt;Node26 -->
<g id="edge2" class="edge">
<title>Node25&#45;&gt;Node26</title>
<path fill="none" stroke="#191970" d="M215.5631,-256C227.5934,-256 240.8603,-256 253.5786,-256"/>
<polygon fill="#191970" stroke="#191970" points="253.6268,-259.5001 263.6267,-256 253.6267,-252.5001 253.6268,-259.5001"/>
</g>
<!-- Node27 -->
<g id="node4" class="node">
<title>Node27</title>
<g id="a_node4"><a xlink:href="parserutil_8c.html#ab25a97ff31329fe9461666bfe2dc6f2c" target="_top" xlink:title="Iterate the parser.">
<polygon fill="#ffffff" stroke="#000000" points="394,-246.5 394,-265.5 468,-265.5 468,-246.5 394,-246.5"/>
<text text-anchor="middle" x="431" y="-253.5" font-family="Helvetica,sans-Serif" font-size="10.00" fill="#000000">parser_next</text>
</a>
</g>
</g>
<!-- Node26&#45;&gt;Node27 -->
<g id="edge3" class="edge">
<title>Node26&#45;&gt;Node27</title>
<path fill="none" stroke="#191970" d="M358.0828,-256C366.4854,-256 375.2428,-256 383.6528,-256"/>
<polygon fill="#191970" stroke="#191970" points="383.6916,-259.5001 393.6916,-256 383.6916,-252.5001 383.6916,-259.5001"/>
</g>
<!-- Node31&#45;&gt;Node31 -->
<g id="edge8" class="edge">
<title>Node31&#45;&gt;Node31</title>
<path fill="none" stroke="#191970" d="M152.155,-95.7571C142.2574,-104.5653 149.0391,-114 172.5,-114 187.5297,-114 195.7142,-110.128 197.0535,-105.0292"/>
<polygon fill="#191970" stroke="#191970" points="200.1652,-103.4164 192.845,-95.7571 193.791,-106.3096 200.1652,-103.4164"/>
</g>
<!-- Node32 -->
<g id="node9" class="node">
<title>Node32</title>
<g id="a_node9"><a xlink:href="token_8h.html#a863ec10d282f1f7e0dbbbaae6cec4f15" target="_top" xlink:title="Destroys a token object.Also frees the token&#39;s value.">
<polygon fill="#ffffff" stroke="#000000" points="276.5,-76.5 276.5,-95.5 345.5,-95.5 345.5,-76.5 276.5,-76.5"/>
<text text-anchor="middle" x="311" y="-83.5" font-family="Helvetica,sans-Serif" font-size="10.00" fill="#000000">token_free</text>
</a>
</g>
</g>
<!-- Node31&#45;&gt;Node32 -->
<g id="edge9" class="edge">
<title>Node31&#45;&gt;Node32</title>
<path fill="none" stroke="#191970" d="M202.5524,-86C221.0647,-86 245.1494,-86 265.918,-86"/>
<polygon fill="#191970" stroke="#191970" points="266.1177,-89.5001 276.1177,-86 266.1176,-82.5001 266.1177,-89.5001"/>
</g>
<!-- Node34 -->
<g id="node11" class="node">
<title>Node34</title>
<g id="a_node11"><a xlink:href="error_8c.html#a88bbc44b859ab2f2b708bdde8e6394bf" target="_top" xlink:title="Pop and return the top element of the errorstack.">
<polygon fill="#ffffff" stroke="#000000" points="266.5,-38.5 266.5,-57.5 355.5,-57.5 355.5,-38.5 266.5,-38.5"/>
<text text-anchor="middle" x="311" y="-45.5" font-family="Helvetica,sans-Serif" font-size="10.00" fill="#000000">errorstack_pop</text>
</a>
</g>
</g>
<!-- Node33&#45;&gt;Node34 -->
<g id="edge11" class="edge">
<title>Node33&#45;&gt;Node34</title>
<path fill="none" stroke="#191970" d="M228.0352,-48C237.2213,-48 246.7428,-48 255.9177,-48"/>
<polygon fill="#191970" stroke="#191970" points="256.0928,-51.5001 266.0928,-48 256.0928,-44.5001 256.0928,-51.5001"/>
</g>
</g>
</svg>
