<?xml version="1.0" encoding="UTF-8" standalone="no"?>
<!DOCTYPE svg PUBLIC "-//W3C//DTD SVG 1.1//EN"
 "http://www.w3.org/Graphics/SVG/1.1/DTD/svg11.dtd">
<!-- Generated by graphviz version 2.40.1 (20161225.0304)
 -->
<!-- Title: PARSERFUNC Pages: 1 -->
<svg width="602pt" height="218pt"
 viewBox="0.00 0.00 602.00 218.00" xmlns="http://www.w3.org/2000/svg" xmlns:xlink="http://www.w3.org/1999/xlink">
<g id="graph0" class="graph" transform="scale(1 1) rotate(0) translate(4 214)">
<title>PARSERFUNC</title>
<polygon fill="#ffffff" stroke="transparent" points="-4,4 -4,-214 598,-214 598,4 -4,4"/>
<!-- Node64 -->
<g id="node1" class="node">
<title>Node64</title>
<g id="a_node1"><a xlink:title="Accepts parts of expressions containing unary operators like + &#45; and ~ to negate, invert or make posi...">
<polygon fill="#bfbfbf" stroke="#000000" points="0,-95.5 0,-114.5 86,-114.5 86,-95.5 0,-95.5"/>
<text text-anchor="middle" x="43" y="-102.5" font-family="Helvetica,sans-Serif" font-size="10.00" fill="#000000">PARSERFUNC</text>
</a>
</g>
</g>
<!-- Node65 -->
<g id="node2" class="node">
<title>Node65</title>
<g id="a_node2"><a xlink:href="parser_8h.html#a8c4c57eca60b2cec9a372a04abea456d" target="_top" xlink:title="Advances the parser as long as it can find whitespace.">
<polygon fill="#ffffff" stroke="#000000" points="279.5,-190.5 279.5,-209.5 359.5,-209.5 359.5,-190.5 279.5,-190.5"/>
<text text-anchor="middle" x="319.5" y="-197.5" font-family="Helvetica,sans-Serif" font-size="10.00" fill="#000000">parser_skipws</text>
</a>
</g>
</g>
<!-- Node64&#45;&gt;Node65 -->
<g id="edge1" class="edge">
<title>Node64&#45;&gt;Node65</title>
<path fill="none" stroke="#191970" d="M49.4942,-114.5377C61.5434,-131.3469 89.1465,-165.8938 122,-181 168.5953,-202.4247 227.7934,-205.3556 269.1756,-204.0574"/>
<polygon fill="#191970" stroke="#191970" points="269.445,-207.5494 279.2941,-203.6449 269.1598,-200.5552 269.445,-207.5494"/>
</g>
<!-- Node68 -->
<g id="node5" class="node">
<title>Node68</title>
<g id="a_node5"><a xlink:href="parser_8h.html#a499e49a3ad7a6fde77c49792f1a0774a" target="_top" xlink:title="Searches for any of the characters given in the parser.">
<polygon fill="#ffffff" stroke="#000000" points="122,-152.5 122,-171.5 235,-171.5 235,-152.5 122,-152.5"/>
<text text-anchor="middle" x="178.5" y="-159.5" font-family="Helvetica,sans-Serif" font-size="10.00" fill="#000000">parser_acceptanychar</text>
</a>
</g>
</g>
<!-- Node64&#45;&gt;Node68 -->
<g id="edge4" class="edge">
<title>Node64&#45;&gt;Node68</title>
<path fill="none" stroke="#191970" d="M61.2248,-114.5634C77.0525,-122.6752 100.7127,-134.3399 122,-143 127.1524,-145.0961 132.632,-147.1496 138.0741,-149.086"/>
<polygon fill="#191970" stroke="#191970" points="137.1561,-152.4718 147.7509,-152.4289 139.4418,-145.8554 137.1561,-152.4718"/>
</g>
<!-- Node70 -->
<g id="node7" class="node">
<title>Node70</title>
<g id="a_node7"><a xlink:href="AST_8c.html#a3a1c70c232e669f02ef0a4e171ee6ab2" target="_top" xlink:title="Constructore for ast objects.">
<polygon fill="#ffffff" stroke="#000000" points="149,-114.5 149,-133.5 208,-133.5 208,-114.5 149,-114.5"/>
<text text-anchor="middle" x="178.5" y="-121.5" font-family="Helvetica,sans-Serif" font-size="10.00" fill="#000000">AST_new</text>
</a>
</g>
</g>
<!-- Node64&#45;&gt;Node70 -->
<g id="edge7" class="edge">
<title>Node64&#45;&gt;Node70</title>
<path fill="none" stroke="#191970" d="M86.2456,-111.064C103.1784,-113.4383 122.4713,-116.1436 139.0214,-118.4643"/>
<polygon fill="#191970" stroke="#191970" points="138.537,-121.9305 148.9262,-119.8531 139.5091,-114.9983 138.537,-121.9305"/>
</g>
<!-- Node71 -->
<g id="node8" class="node">
<title>Node71</title>
<g id="a_node8"><a xlink:href="token_8h.html#a5f63b7723640416a125433badc7d6563" target="_top" xlink:title="Constructor for token objects.">
<polygon fill="#ffffff" stroke="#000000" points="146.5,-76.5 146.5,-95.5 210.5,-95.5 210.5,-76.5 146.5,-76.5"/>
<text text-anchor="middle" x="178.5" y="-83.5" font-family="Helvetica,sans-Serif" font-size="10.00" fill="#000000">token_new</text>
</a>
</g>
</g>
<!-- Node64&#45;&gt;Node71 -->
<g id="edge8" class="edge">
<title>Node64&#45;&gt;Node71</title>
<path fill="none" stroke="#191970" d="M86.2456,-98.936C102.2562,-96.691 120.3769,-94.1501 136.2939,-91.9182"/>
<polygon fill="#191970" stroke="#191970" points="136.974,-95.3572 146.3911,-90.5024 136.0019,-88.425 136.974,-95.3572"/>
</g>
<!-- Node72 -->
<g id="node9" class="node">
<title>Node72</title>
<g id="a_node9"><a xlink:href="error_8c.html#a1febf822c4d9249dd4afd09c5d5f87bb" target="_top" xlink:title="Construct a new error object out of parameters, and push it to the errorstack.">
<polygon fill="#ffffff" stroke="#000000" points="135.5,-38.5 135.5,-57.5 221.5,-57.5 221.5,-38.5 135.5,-38.5"/>
<text text-anchor="middle" x="178.5" y="-45.5" font-family="Helvetica,sans-Serif" font-size="10.00" fill="#000000">errorstack_push</text>
</a>
</g>
</g>
<!-- Node64&#45;&gt;Node72 -->
<g id="edge9" class="edge">
<title>Node64&#45;&gt;Node72</title>
<path fill="none" stroke="#191970" d="M61.2248,-95.4366C77.0525,-87.3248 100.7127,-75.6601 122,-67 127.1524,-64.9039 132.632,-62.8504 138.0741,-60.914"/>
<polygon fill="#191970" stroke="#191970" points="139.4418,-64.1446 147.7509,-57.5711 137.1561,-57.5282 139.4418,-64.1446"/>
</g>
<!-- Node73 -->
<g id="node10" class="node">
<title>Node73</title>
<g id="a_node10"><a xlink:href="AST_8c.html#a5f9c0bcd1d544aac044f4acf93c27ddb" target="_top" xlink:title="Adds a child ast node to a parent ast node.">
<polygon fill="#ffffff" stroke="#000000" points="138.5,-.5 138.5,-19.5 218.5,-19.5 218.5,-.5 138.5,-.5"/>
<text text-anchor="middle" x="178.5" y="-7.5" font-family="Helvetica,sans-Serif" font-size="10.00" fill="#000000">AST_addChild</text>
</a>
</g>
</g>
<!-- Node64&#45;&gt;Node73 -->
<g id="edge10" class="edge">
<title>Node64&#45;&gt;Node73</title>
<path fill="none" stroke="#191970" d="M50.4919,-95.4352C63.4436,-79.5018 91.5709,-47.4569 122,-29 125.3873,-26.9454 129.0249,-25.0805 132.7622,-23.3944"/>
<polygon fill="#191970" stroke="#191970" points="134.2287,-26.5764 142.172,-19.5654 131.5903,-20.0926 134.2287,-26.5764"/>
</g>
<!-- Node66 -->
<g id="node3" class="node">
<title>Node66</title>
<g id="a_node3"><a xlink:href="parserutil_8c.html#a2d9e8c20025b7b883c4e87790685a6ad" target="_top" xlink:title="Proxy to parser_next.">
<polygon fill="#ffffff" stroke="#000000" points="404,-171.5 404,-190.5 490,-190.5 490,-171.5 404,-171.5"/>
<text text-anchor="middle" x="447" y="-178.5" font-family="Helvetica,sans-Serif" font-size="10.00" fill="#000000">parser_advance</text>
</a>
</g>
</g>
<!-- Node65&#45;&gt;Node66 -->
<g id="edge2" class="edge">
<title>Node65&#45;&gt;Node66</title>
<path fill="none" stroke="#191970" d="M359.8418,-193.9883C370.5663,-192.3901 382.3173,-190.639 393.6211,-188.9545"/>
<polygon fill="#191970" stroke="#191970" points="394.4594,-192.3683 403.8343,-187.4325 393.4276,-185.4448 394.4594,-192.3683"/>
</g>
<!-- Node67 -->
<g id="node4" class="node">
<title>Node67</title>
<g id="a_node4"><a xlink:href="parserutil_8c.html#ab25a97ff31329fe9461666bfe2dc6f2c" target="_top" xlink:title="Iterate the parser.">
<polygon fill="#ffffff" stroke="#000000" points="526,-171.5 526,-190.5 594,-190.5 594,-171.5 526,-171.5"/>
<text text-anchor="middle" x="560" y="-178.5" font-family="Helvetica,sans-Serif" font-size="10.00" fill="#000000">parser_next</text>
</a>
</g>
</g>
<!-- Node66&#45;&gt;Node67 -->
<g id="edge3" class="edge">
<title>Node66&#45;&gt;Node67</title>
<path fill="none" stroke="#191970" d="M490.0428,-181C498.4677,-181 507.3165,-181 515.7791,-181"/>
<polygon fill="#191970" stroke="#191970" points="515.8556,-184.5001 525.8556,-181 515.8555,-177.5001 515.8556,-184.5001"/>
</g>
<!-- Node69 -->
<g id="node6" class="node">
<title>Node69</title>
<g id="a_node6"><a xlink:href="parserutil_8c.html#a1a00af051004cb18edac760f39982eea" target="_top" xlink:title="Searches for the given character, advances the parser if it found it.">
<polygon fill="#ffffff" stroke="#000000" points="271,-152.5 271,-171.5 368,-171.5 368,-152.5 271,-152.5"/>
<text text-anchor="middle" x="319.5" y="-159.5" font-family="Helvetica,sans-Serif" font-size="10.00" fill="#000000">parser_acceptchar</text>
</a>
</g>
</g>
<!-- Node68&#45;&gt;Node69 -->
<g id="edge5" class="edge">
<title>Node68&#45;&gt;Node69</title>
<path fill="none" stroke="#191970" d="M235.0377,-162C243.4259,-162 252.0888,-162 260.5254,-162"/>
<polygon fill="#191970" stroke="#191970" points="260.6704,-165.5001 270.6703,-162 260.6703,-158.5001 260.6704,-165.5001"/>
</g>
<!-- Node69&#45;&gt;Node66 -->
<g id="edge6" class="edge">
<title>Node69&#45;&gt;Node66</title>
<path fill="none" stroke="#191970" d="M368.066,-169.2373C376.5637,-170.5036 385.4435,-171.8269 394.0526,-173.1098"/>
<polygon fill="#191970" stroke="#191970" points="393.5887,-176.5792 403.9954,-174.5915 394.6205,-169.6557 393.5887,-176.5792"/>
</g>
</g>
</svg>
