<?xml version="1.0" encoding="UTF-8" standalone="no"?>
<!DOCTYPE svg PUBLIC "-//W3C//DTD SVG 1.1//EN"
 "http://www.w3.org/Graphics/SVG/1.1/DTD/svg11.dtd">
<!-- Generated by graphviz version 2.40.1 (20161225.0304)
 -->
<!-- Title: PARSERFUNC Pages: 1 -->
<!--zoomable 306 -->
<svg id="main" version="1.1" xmlns="http://www.w3.org/2000/svg" xmlns:xlink="http://www.w3.org/1999/xlink" xml:space="preserve" onload="init(evt)">
<style type="text/css"><![CDATA[
.edge:hover path { stroke: red; }
.edge:hover polygon { stroke: red; fill: red; }
]]></style>
<script type="text/javascript"><![CDATA[
var edges = document.getElementsByTagName('g');
if (edges && edges.length) {
  for (var i=0;i<edges.length;i++) {
    if (edges[i].id.substr(0,4)=='edge') {
      edges[i].setAttribute('class','edge');
    }
  }
}
]]></script>
        <defs>
                <circle id="rim" cx="0" cy="0" r="7"/>
                <circle id="rim2" cx="0" cy="0" r="3.5"/>
                <g id="zoomPlus">
                        <use xlink:href="#rim" fill="#404040">
                                <set attributeName="fill" to="#808080" begin="zoomplus.mouseover" end="zoomplus.mouseout"/>
                        </use>
                        <path d="M-4,0h8M0,-4v8" fill="none" stroke="white" stroke-width="1.5" pointer-events="none"/>
                </g>
                <g id="zoomMin">
                        <use xlink:href="#rim" fill="#404040">
                                <set attributeName="fill" to="#808080" begin="zoomminus.mouseover" end="zoomminus.mouseout"/>
                        </use>
                        <path d="M-4,0h8" fill="none" stroke="white" stroke-width="1.5" pointer-events="none"/>
                </g>
                <g id="dirArrow">
                        <path fill="none" stroke="white" stroke-width="1.5" d="M0,-3.0v7 M-2.5,-0.5L0,-3.0L2.5,-0.5"/>
                </g>
               <g id="resetDef">
                       <use xlink:href="#rim2" fill="#404040">
                               <set attributeName="fill" to="#808080" begin="reset.mouseover" end="reset.mouseout"/>
                       </use>
               </g>
        </defs>

<script type="text/javascript">
var viewWidth = 694;
var viewHeight = 306;
var sectionId = 'dynsection-4';
</script>
<script xlink:href="svgpan.js"/>
<svg id="graph" class="graph">
<g id="viewport">
<title>PARSERFUNC</title>
<polygon fill="#ffffff" stroke="transparent" points="-4,4 -4,-302 690,-302 690,4 -4,4"/>
<!-- Node46 -->
<g id="node1" class="node">
<title>Node46</title>
<g id="a_node1"><a xlink:title="Accepts parts of expressions which can have exponent notation (a ** b) in them.">
<polygon fill="#bfbfbf" stroke="#000000" points="0,-126.5 0,-145.5 81,-145.5 81,-126.5 0,-126.5"/>
<text text-anchor="middle" x="40.5" y="-133.5" font-family="Helvetica,sans-Serif" font-size="10.00" fill="#000000">PARSERFUNC</text>
</a>
</g>
</g>
<!-- Node47 -->
<g id="node2" class="node">
<title>Node47</title>
<g id="a_node2"><a xlink:href="parser_8h.html#a8c4c57eca60b2cec9a372a04abea456d" target="_top" xlink:title="Advances the parser as long as it can find whitespace.">
<polygon fill="#ffffff" stroke="#000000" points="278,-278.5 278,-297.5 364,-297.5 364,-278.5 278,-278.5"/>
<text text-anchor="middle" x="321" y="-285.5" font-family="Helvetica,sans-Serif" font-size="10.00" fill="#000000">parser_skipws</text>
</a>
</g>
</g>
<!-- Node46&#45;&gt;Node47 -->
<g id="edge1" class="edge">
<title>Node46&#45;&gt;Node47</title>
<path fill="none" stroke="#191970" d="M45.5876,-145.741C56.1819,-165.0515 82.5205,-208.2788 117,-231 162.7671,-261.1594 224.3945,-275.5219 267.8989,-282.2586"/>
<polygon fill="#191970" stroke="#191970" points="267.5936,-285.7511 277.995,-283.736 268.6072,-278.8249 267.5936,-285.7511"/>
</g>
<!-- Node50 -->
<g id="node5" class="node">
<title>Node50</title>
<g id="a_node5"><a xlink:href="parser_8h.html#a3c9c52258898d196f76b4d58595b33b9" target="_top" xlink:title="Advances the parser only if the next n characters (where n is the length of the string) matches the s...">
<polygon fill="#ffffff" stroke="#000000" points="117,-202.5 117,-221.5 230,-221.5 230,-202.5 117,-202.5"/>
<text text-anchor="middle" x="173.5" y="-209.5" font-family="Helvetica,sans-Serif" font-size="10.00" fill="#000000">parser_acceptstring</text>
</a>
</g>
</g>
<!-- Node46&#45;&gt;Node50 -->
<g id="edge4" class="edge">
<title>Node46&#45;&gt;Node50</title>
<path fill="none" stroke="#191970" d="M51.1602,-145.6832C65.3034,-158.1031 91.4695,-179.6312 117,-193 121.0282,-195.1093 125.3379,-197.0543 129.714,-198.8291"/>
<polygon fill="#191970" stroke="#191970" points="128.7243,-202.1962 139.3163,-202.4407 131.1886,-195.6443 128.7243,-202.1962"/>
</g>
<!-- Node55 -->
<g id="node10" class="node">
<title>Node55</title>
<g id="a_node10"><a xlink:href="AST_8c.html#a3a1c70c232e669f02ef0a4e171ee6ab2" target="_top" xlink:title="Constructore for ast objects.">
<polygon fill="#ffffff" stroke="#000000" points="143,-164.5 143,-183.5 204,-183.5 204,-164.5 143,-164.5"/>
<text text-anchor="middle" x="173.5" y="-171.5" font-family="Helvetica,sans-Serif" font-size="10.00" fill="#000000">AST_new</text>
</a>
</g>
</g>
<!-- Node46&#45;&gt;Node55 -->
<g id="edge10" class="edge">
<title>Node46&#45;&gt;Node55</title>
<path fill="none" stroke="#191970" d="M74.0615,-145.589C91.9346,-150.6956 114.0545,-157.0156 132.8904,-162.3973"/>
<polygon fill="#191970" stroke="#191970" points="132.1074,-165.8135 142.6842,-165.1955 134.0305,-159.0829 132.1074,-165.8135"/>
</g>
<!-- Node56 -->
<g id="node11" class="node">
<title>Node56</title>
<g id="a_node11"><a xlink:href="token_8h.html#a5f63b7723640416a125433badc7d6563" target="_top" xlink:title="Constructor for token objects.">
<polygon fill="#ffffff" stroke="#000000" points="138.5,-126.5 138.5,-145.5 208.5,-145.5 208.5,-126.5 138.5,-126.5"/>
<text text-anchor="middle" x="173.5" y="-133.5" font-family="Helvetica,sans-Serif" font-size="10.00" fill="#000000">token_new</text>
</a>
</g>
</g>
<!-- Node46&#45;&gt;Node56 -->
<g id="edge11" class="edge">
<title>Node46&#45;&gt;Node56</title>
<path fill="none" stroke="#191970" d="M81.1271,-136C95.8994,-136 112.6898,-136 127.8667,-136"/>
<polygon fill="#191970" stroke="#191970" points="128.0714,-139.5001 138.0713,-136 128.0713,-132.5001 128.0714,-139.5001"/>
</g>
<!-- Node57 -->
<g id="node12" class="node">
<title>Node57</title>
<g id="a_node12"><a xlink:href="helios__string_8c.html#a4338910535421a24735fc7eb3123495c" target="_top" xlink:title="Create a helios_string object from a c string.">
<polygon fill="#ffffff" stroke="#000000" points="120,-77 120,-107 227,-107 227,-77 120,-77"/>
<text text-anchor="start" x="128" y="-95" font-family="Helvetica,sans-Serif" font-size="10.00" fill="#000000">helios_string_from</text>
<text text-anchor="middle" x="173.5" y="-84" font-family="Helvetica,sans-Serif" font-size="10.00" fill="#000000">_charp</text>
</a>
</g>
</g>
<!-- Node46&#45;&gt;Node57 -->
<g id="edge12" class="edge">
<title>Node46&#45;&gt;Node57</title>
<path fill="none" stroke="#191970" d="M69.359,-126.4527C83.6648,-121.7199 101.4358,-115.8408 118.224,-110.2868"/>
<polygon fill="#191970" stroke="#191970" points="119.5669,-113.5292 127.9615,-107.0654 117.3682,-106.8834 119.5669,-113.5292"/>
</g>
<!-- Node61 -->
<g id="node16" class="node">
<title>Node61</title>
<g id="a_node16"><a xlink:href="error_8c.html#ae07365063509d8944da638087336597b" target="_top" xlink:title="Construct a new error object out of parameters, and push it to the errorstack.">
<polygon fill="#ffffff" stroke="#000000" points="126,-38.5 126,-57.5 221,-57.5 221,-38.5 126,-38.5"/>
<text text-anchor="middle" x="173.5" y="-45.5" font-family="Helvetica,sans-Serif" font-size="10.00" fill="#000000">errorstack_push</text>
</a>
</g>
</g>
<!-- Node46&#45;&gt;Node61 -->
<g id="edge16" class="edge">
<title>Node46&#45;&gt;Node61</title>
<path fill="none" stroke="#191970" d="M48.9371,-126.1559C62.0893,-111.3746 88.9002,-83.4321 117,-67 120.6181,-64.8842 124.5054,-62.9624 128.4864,-61.226"/>
<polygon fill="#191970" stroke="#191970" points="129.8572,-64.4477 137.8623,-57.5073 127.2763,-57.9408 129.8572,-64.4477"/>
</g>
<!-- Node62 -->
<g id="node17" class="node">
<title>Node62</title>
<g id="a_node17"><a xlink:href="AST_8c.html#a5f9c0bcd1d544aac044f4acf93c27ddb" target="_top" xlink:title="Adds a child ast node to a parent ast node.">
<polygon fill="#ffffff" stroke="#000000" points="132,-.5 132,-19.5 215,-19.5 215,-.5 132,-.5"/>
<text text-anchor="middle" x="173.5" y="-7.5" font-family="Helvetica,sans-Serif" font-size="10.00" fill="#000000">AST_addChild</text>
</a>
</g>
</g>
<!-- Node46&#45;&gt;Node62 -->
<g id="edge17" class="edge">
<title>Node46&#45;&gt;Node62</title>
<path fill="none" stroke="#191970" d="M44.7566,-126.4697C54.5092,-105.6967 80.4758,-56.0383 117,-29 119.4979,-27.1508 122.1873,-25.4741 124.9888,-23.9547"/>
<polygon fill="#191970" stroke="#191970" points="126.6573,-27.0379 134.2214,-19.6193 123.682,-20.7017 126.6573,-27.0379"/>
</g>
<!-- Node48 -->
<g id="node3" class="node">
<title>Node48</title>
<g id="a_node3"><a xlink:href="parserutil_8c.html#a2d9e8c20025b7b883c4e87790685a6ad" target="_top" xlink:title="Proxy to parser_next.">
<polygon fill="#ffffff" stroke="#000000" points="447,-240.5 447,-259.5 541,-259.5 541,-240.5 447,-240.5"/>
<text text-anchor="middle" x="494" y="-247.5" font-family="Helvetica,sans-Serif" font-size="10.00" fill="#000000">parser_advance</text>
</a>
</g>
</g>
<!-- Node47&#45;&gt;Node48 -->
<g id="edge2" class="edge">
<title>Node47&#45;&gt;Node48</title>
<path fill="none" stroke="#191970" d="M364.2089,-278.509C387.4308,-273.4083 416.2612,-267.0756 440.8475,-261.6751"/>
<polygon fill="#191970" stroke="#191970" points="441.7261,-265.0657 450.7423,-259.5017 440.2242,-258.2286 441.7261,-265.0657"/>
</g>
<!-- Node49 -->
<g id="node4" class="node">
<title>Node49</title>
<g id="a_node4"><a xlink:href="parserutil_8c.html#ab25a97ff31329fe9461666bfe2dc6f2c" target="_top" xlink:title="Iterate the parser.">
<polygon fill="#ffffff" stroke="#000000" points="612,-240.5 612,-259.5 686,-259.5 686,-240.5 612,-240.5"/>
<text text-anchor="middle" x="649" y="-247.5" font-family="Helvetica,sans-Serif" font-size="10.00" fill="#000000">parser_next</text>
</a>
</g>
</g>
<!-- Node48&#45;&gt;Node49 -->
<g id="edge3" class="edge">
<title>Node48&#45;&gt;Node49</title>
<path fill="none" stroke="#191970" d="M541.3473,-250C560.5156,-250 582.5994,-250 601.7571,-250"/>
<polygon fill="#191970" stroke="#191970" points="601.7689,-253.5001 611.7689,-250 601.7689,-246.5001 601.7689,-253.5001"/>
</g>
<!-- Node51 -->
<g id="node6" class="node">
<title>Node51</title>
<g id="a_node6"><a xlink:href="parserutil_8c.html#aecf4b8bdaae9ca8435542900cf024f4e" target="_top" xlink:title="Copy a parser.">
<polygon fill="#ffffff" stroke="#000000" points="283,-240.5 283,-259.5 359,-259.5 359,-240.5 283,-240.5"/>
<text text-anchor="middle" x="321" y="-247.5" font-family="Helvetica,sans-Serif" font-size="10.00" fill="#000000">parser_copy</text>
</a>
</g>
</g>
<!-- Node50&#45;&gt;Node51 -->
<g id="edge5" class="edge">
<title>Node50&#45;&gt;Node51</title>
<path fill="none" stroke="#191970" d="M210.7205,-221.589C230.0093,-226.5583 253.7584,-232.6767 274.271,-237.9613"/>
<polygon fill="#191970" stroke="#191970" points="273.4902,-241.3744 284.0472,-240.4799 275.2366,-234.5957 273.4902,-241.3744"/>
</g>
<!-- Node52 -->
<g id="node7" class="node">
<title>Node52</title>
<g id="a_node7"><a xlink:href="parserutil_8c.html#a1a00af051004cb18edac760f39982eea" target="_top" xlink:title="Searches for the given character, advances the parser if it found it.">
<polygon fill="#ffffff" stroke="#000000" points="268,-202.5 268,-221.5 374,-221.5 374,-202.5 268,-202.5"/>
<text text-anchor="middle" x="321" y="-209.5" font-family="Helvetica,sans-Serif" font-size="10.00" fill="#000000">parser_acceptchar</text>
</a>
</g>
</g>
<!-- Node50&#45;&gt;Node52 -->
<g id="edge6" class="edge">
<title>Node50&#45;&gt;Node52</title>
<path fill="none" stroke="#191970" d="M230.1055,-212C239.0776,-212 248.4082,-212 257.525,-212"/>
<polygon fill="#191970" stroke="#191970" points="257.697,-215.5001 267.697,-212 257.697,-208.5001 257.697,-215.5001"/>
</g>
<!-- Node53 -->
<g id="node8" class="node">
<title>Node53</title>
<g id="a_node8"><a xlink:href="parserutil_8c.html#a1f1841a636bfe529466c99e3db9999cd" target="_top" xlink:title="Restores a parser to another parser&#39;s position.">
<polygon fill="#ffffff" stroke="#000000" points="277.5,-164.5 277.5,-183.5 364.5,-183.5 364.5,-164.5 277.5,-164.5"/>
<text text-anchor="middle" x="321" y="-171.5" font-family="Helvetica,sans-Serif" font-size="10.00" fill="#000000">parser_restore</text>
</a>
</g>
</g>
<!-- Node50&#45;&gt;Node53 -->
<g id="edge8" class="edge">
<title>Node50&#45;&gt;Node53</title>
<path fill="none" stroke="#191970" d="M210.7205,-202.411C230.0093,-197.4417 253.7584,-191.3233 274.271,-186.0387"/>
<polygon fill="#191970" stroke="#191970" points="275.2366,-189.4043 284.0472,-183.5201 273.4902,-182.6256 275.2366,-189.4043"/>
</g>
<!-- Node54 -->
<g id="node9" class="node">
<title>Node54</title>
<g id="a_node9"><a xlink:href="parserutil_8c.html#ab62454c7986532e03ea36b14956b5ad1" target="_top" xlink:title="Simple parser destructor.">
<polygon fill="#ffffff" stroke="#000000" points="266,-126.5 266,-145.5 376,-145.5 376,-126.5 266,-126.5"/>
<text text-anchor="middle" x="321" y="-133.5" font-family="Helvetica,sans-Serif" font-size="10.00" fill="#000000">parser_free_simple</text>
</a>
</g>
</g>
<!-- Node50&#45;&gt;Node54 -->
<g id="edge9" class="edge">
<title>Node50&#45;&gt;Node54</title>
<path fill="none" stroke="#191970" d="M210.5631,-202.4383C217.3029,-199.9043 224.0694,-196.7881 230,-193 249.6063,-180.4769 246.4453,-167.6035 266,-155 269.1126,-152.9938 272.4615,-151.1726 275.9152,-149.5245"/>
<polygon fill="#191970" stroke="#191970" points="277.3874,-152.7017 285.2118,-145.5582 274.6404,-146.2632 277.3874,-152.7017"/>
</g>
<!-- Node52&#45;&gt;Node48 -->
<g id="edge7" class="edge">
<title>Node52&#45;&gt;Node48</title>
<path fill="none" stroke="#191970" d="M364.6552,-221.589C387.7929,-226.6713 416.4024,-232.9554 440.8268,-238.3203"/>
<polygon fill="#191970" stroke="#191970" points="440.1406,-241.753 450.6587,-240.4799 441.6425,-234.916 440.1406,-241.753"/>
</g>
<!-- Node58 -->
<g id="node13" class="node">
<title>Node58</title>
<g id="a_node13"><a xlink:href="helios__string_8c.html#af727ca5352482ab7e542510f178a9f85" target="_top" xlink:title="Constructor of a helios_string.">
<polygon fill="#ffffff" stroke="#000000" points="271,-82.5 271,-101.5 371,-101.5 371,-82.5 271,-82.5"/>
<text text-anchor="middle" x="321" y="-89.5" font-family="Helvetica,sans-Serif" font-size="10.00" fill="#000000">helios_string_init</text>
</a>
</g>
</g>
<!-- Node57&#45;&gt;Node58 -->
<g id="edge13" class="edge">
<title>Node57&#45;&gt;Node58</title>
<path fill="none" stroke="#191970" d="M227.1681,-92C238.0154,-92 249.49,-92 260.5517,-92"/>
<polygon fill="#191970" stroke="#191970" points="260.5645,-95.5001 270.5644,-92 260.5644,-88.5001 260.5645,-95.5001"/>
</g>
<!-- Node59 -->
<g id="node14" class="node">
<title>Node59</title>
<g id="a_node14"><a xlink:href="helios__memory_8h.html#af87f0050f8e236d0945592fa4e54dc94" target="_top" xlink:title="Allocates a new helios object (and performs all the GC steps associated with that action).">
<polygon fill="#ffffff" stroke="#000000" points="431.5,-101.5 431.5,-120.5 556.5,-120.5 556.5,-101.5 431.5,-101.5"/>
<text text-anchor="middle" x="494" y="-108.5" font-family="Helvetica,sans-Serif" font-size="10.00" fill="#000000">helios_allocate_object</text>
</a>
</g>
</g>
<!-- Node58&#45;&gt;Node59 -->
<g id="edge14" class="edge">
<title>Node58&#45;&gt;Node59</title>
<path fill="none" stroke="#191970" d="M371.0388,-97.4956C386.6578,-99.211 404.2181,-101.1396 421.0733,-102.9907"/>
<polygon fill="#191970" stroke="#191970" points="421.1309,-106.518 431.4532,-104.1307 421.8951,-99.5598 421.1309,-106.518"/>
</g>
<!-- Node60 -->
<g id="node15" class="node">
<title>Node60</title>
<g id="a_node15"><a xlink:href="helios__memory_8h.html#ab14fb1c046aae61ab06eda8eeaf2cd85" target="_top" xlink:title=" ">
<polygon fill="#ffffff" stroke="#000000" points="412,-63.5 412,-82.5 576,-82.5 576,-63.5 412,-63.5"/>
<text text-anchor="middle" x="494" y="-70.5" font-family="Helvetica,sans-Serif" font-size="10.00" fill="#000000">helios_set_garbagecollectable</text>
</a>
</g>
</g>
<!-- Node58&#45;&gt;Node60 -->
<g id="edge15" class="edge">
<title>Node58&#45;&gt;Node60</title>
<path fill="none" stroke="#191970" d="M371.0388,-86.5044C380.7186,-85.4413 391.144,-84.2963 401.6852,-83.1386"/>
<polygon fill="#191970" stroke="#191970" points="402.2484,-86.5979 411.8065,-82.027 401.4842,-79.6397 402.2484,-86.5979"/>
</g>
</g>
</svg>
        <g id="navigator" transform="translate(0 0)" fill="#404254">
                <rect fill="#f2f5e9" fill-opacity="0.5" stroke="#606060" stroke-width=".5" x="0" y="0" width="60" height="60"/>
                <use id="zoomplus" xlink:href="#zoomPlus" x="17" y="9" onmousedown="handleZoom(evt,'in')"/>
                <use id="zoomminus" xlink:href="#zoomMin" x="42" y="9" onmousedown="handleZoom(evt,'out')"/>
                <use id="reset" xlink:href="#resetDef" x="30" y="36" onmousedown="handleReset()"/>
                <g id="arrowUp" xlink:href="#dirArrow" transform="translate(30 24)" onmousedown="handlePan(0,-1)">
                  <use xlink:href="#rim" fill="#404040">
                        <set attributeName="fill" to="#808080" begin="arrowUp.mouseover" end="arrowUp.mouseout"/>
                  </use>
                  <path fill="none" stroke="white" stroke-width="1.5" d="M0,-3.0v7 M-2.5,-0.5L0,-3.0L2.5,-0.5"/>
                </g>
                <g id="arrowRight" xlink:href="#dirArrow" transform="rotate(90) translate(36 -43)" onmousedown="handlePan(1,0)">
                  <use xlink:href="#rim" fill="#404040">
                        <set attributeName="fill" to="#808080" begin="arrowRight.mouseover" end="arrowRight.mouseout"/>
                  </use>
                  <path fill="none" stroke="white" stroke-width="1.5" d="M0,-3.0v7 M-2.5,-0.5L0,-3.0L2.5,-0.5"/>
                </g>
                <g id="arrowDown" xlink:href="#dirArrow" transform="rotate(180) translate(-30 -48)" onmousedown="handlePan(0,1)">
                  <use xlink:href="#rim" fill="#404040">
                        <set attributeName="fill" to="#808080" begin="arrowDown.mouseover" end="arrowDown.mouseout"/>
                  </use>
                  <path fill="none" stroke="white" stroke-width="1.5" d="M0,-3.0v7 M-2.5,-0.5L0,-3.0L2.5,-0.5"/>
                </g>
                <g id="arrowLeft" xlink:href="#dirArrow" transform="rotate(270) translate(-36 17)" onmousedown="handlePan(-1,0)">
                  <use xlink:href="#rim" fill="#404040">
                        <set attributeName="fill" to="#808080" begin="arrowLeft.mouseover" end="arrowLeft.mouseout"/>
                  </use>
                  <path fill="none" stroke="white" stroke-width="1.5" d="M0,-3.0v7 M-2.5,-0.5L0,-3.0L2.5,-0.5"/>
                </g>
        </g>
        <svg viewBox="0 0 15 15" width="100%" height="30px" preserveAspectRatio="xMaxYMin meet">
         <g id="arrow_out" transform="scale(0.3 0.3)">
          <a xlink:href="expressions_8c_a25cf7f081bc441c29e1053c9adcf4314_cgraph_org.svg" target="_base">
           <rect id="button" ry="5" rx="5" y="6" x="6" height="38" width="38"
                fill="#f2f5e9" fill-opacity="0.5" stroke="#606060" stroke-width="1.0"/>
           <path id="arrow"
             d="M 11.500037,31.436501 C 11.940474,20.09759 22.043105,11.32322 32.158766,21.979434 L 37.068811,17.246167 C 37.068811,17.246167 37.088388,32 37.088388,32 L 22.160133,31.978069 C 22.160133,31.978069 26.997745,27.140456 26.997745,27.140456 C 18.528582,18.264221 13.291696,25.230495 11.500037,31.436501 z"
             style="fill:#404040;"/>
          </a>
         </g>
        </svg>
</svg>
