<?xml version="1.0" encoding="UTF-8" standalone="no"?>
<!DOCTYPE svg PUBLIC "-//W3C//DTD SVG 1.1//EN"
 "http://www.w3.org/Graphics/SVG/1.1/DTD/svg11.dtd">
<!-- Generated by graphviz version 2.40.1 (20161225.0304)
 -->
<!-- Title: main/parser/parserfuncs/expressions.c Pages: 1 -->
<svg width="1381pt" height="543pt"
 viewBox="0.00 0.00 1381.00 543.00" xmlns="http://www.w3.org/2000/svg" xmlns:xlink="http://www.w3.org/1999/xlink">
<g id="graph0" class="graph" transform="scale(1 1) rotate(0) translate(4 539)">
<title>main/parser/parserfuncs/expressions.c</title>
<polygon fill="#ffffff" stroke="transparent" points="-4,4 -4,-539 1377,-539 1377,4 -4,4"/>
<!-- Node0 -->
<g id="node1" class="node">
<title>Node0</title>
<g id="a_node1"><a xlink:title=" ">
<polygon fill="#bfbfbf" stroke="#000000" points="994,-504.5 994,-534.5 1129,-534.5 1129,-504.5 994,-504.5"/>
<text text-anchor="start" x="1002" y="-522.5" font-family="Helvetica,sans-Serif" font-size="10.00" fill="#000000">main/parser/parserfuncs</text>
<text text-anchor="middle" x="1061.5" y="-511.5" font-family="Helvetica,sans-Serif" font-size="10.00" fill="#000000">/expressions.c</text>
</a>
</g>
</g>
<!-- Node1 -->
<g id="node2" class="node">
<title>Node1</title>
<g id="a_node2"><a xlink:href="AST_8h.html" target="_top" xlink:title=" ">
<polygon fill="#ffffff" stroke="#000000" points="974,-392.5 974,-411.5 1017,-411.5 1017,-392.5 974,-392.5"/>
<text text-anchor="middle" x="995.5" y="-399.5" font-family="Helvetica,sans-Serif" font-size="10.00" fill="#000000">AST.h</text>
</a>
</g>
</g>
<!-- Node0&#45;&gt;Node1 -->
<g id="edge1" class="edge">
<title>Node0&#45;&gt;Node1</title>
<path fill="none" stroke="#191970" d="M1049.281,-504.2894C1041.6058,-494.3231 1031.811,-480.8134 1024.5,-468 1015.8863,-452.9034 1008.0839,-434.7632 1002.7474,-421.3243"/>
<polygon fill="#191970" stroke="#191970" points="1005.8982,-419.7678 999.0279,-411.7024 999.369,-422.2918 1005.8982,-419.7678"/>
</g>
<!-- Node2 -->
<g id="node3" class="node">
<title>Node2</title>
<g id="a_node3"><a xlink:title=" ">
<polygon fill="#ffffff" stroke="#bfbfbf" points="1045,-.5 1045,-19.5 1098,-19.5 1098,-.5 1045,-.5"/>
<text text-anchor="middle" x="1071.5" y="-7.5" font-family="Helvetica,sans-Serif" font-size="10.00" fill="#000000">stdint.h</text>
</a>
</g>
</g>
<!-- Node0&#45;&gt;Node2 -->
<g id="edge44" class="edge">
<title>Node0&#45;&gt;Node2</title>
<path fill="none" stroke="#191970" d="M1116.7981,-504.3713C1163.7283,-487.7726 1223.5,-456.027 1223.5,-402 1223.5,-402 1223.5,-402 1223.5,-122 1223.5,-64.8609 1153.0242,-33.607 1108.0498,-19.4795"/>
<polygon fill="#191970" stroke="#191970" points="1108.9086,-16.0831 1098.3247,-16.5642 1106.8985,-22.7883 1108.9086,-16.0831"/>
</g>
<!-- Node3 -->
<g id="node4" class="node">
<title>Node3</title>
<g id="a_node4"><a xlink:href="token_8h.html" target="_top" xlink:title=" ">
<polygon fill="#ffffff" stroke="#000000" points="923,-336.5 923,-355.5 976,-355.5 976,-336.5 923,-336.5"/>
<text text-anchor="middle" x="949.5" y="-343.5" font-family="Helvetica,sans-Serif" font-size="10.00" fill="#000000">token.h</text>
</a>
</g>
</g>
<!-- Node0&#45;&gt;Node3 -->
<g id="edge42" class="edge">
<title>Node0&#45;&gt;Node3</title>
<path fill="none" stroke="#191970" d="M1042.6367,-504.1768C1020.4546,-485.0473 984.2842,-450.1649 965.5,-412 958.3411,-397.4547 954.2566,-379.4942 952.0092,-365.9832"/>
<polygon fill="#191970" stroke="#191970" points="955.4379,-365.2407 950.5263,-355.8531 948.5117,-366.2547 955.4379,-365.2407"/>
</g>
<!-- Node10 -->
<g id="node11" class="node">
<title>Node10</title>
<g id="a_node11"><a xlink:title=" ">
<polygon fill="#ffffff" stroke="#bfbfbf" points="850.5,-.5 850.5,-19.5 912.5,-19.5 912.5,-.5 850.5,-.5"/>
<text text-anchor="middle" x="881.5" y="-7.5" font-family="Helvetica,sans-Serif" font-size="10.00" fill="#000000">stdbool.h</text>
</a>
</g>
</g>
<!-- Node0&#45;&gt;Node10 -->
<g id="edge43" class="edge">
<title>Node0&#45;&gt;Node10</title>
<path fill="none" stroke="#191970" d="M1003.0915,-504.4048C954.9335,-488.0249 894.5,-456.5936 894.5,-402 894.5,-402 894.5,-402 894.5,-290 894.5,-192.2016 886.4884,-75.3954 883.0439,-29.6959"/>
<polygon fill="#191970" stroke="#191970" points="886.5291,-29.3673 882.2743,-19.6643 879.5496,-29.9028 886.5291,-29.3673"/>
</g>
<!-- Node12 -->
<g id="node13" class="node">
<title>Node12</title>
<g id="a_node13"><a xlink:title=" ">
<polygon fill="#ffffff" stroke="#bfbfbf" points="0,-56.5 0,-75.5 53,-75.5 53,-56.5 0,-56.5"/>
<text text-anchor="middle" x="26.5" y="-63.5" font-family="Helvetica,sans-Serif" font-size="10.00" fill="#000000">stdlib.h</text>
</a>
</g>
</g>
<!-- Node0&#45;&gt;Node12 -->
<g id="edge46" class="edge">
<title>Node0&#45;&gt;Node12</title>
<path fill="none" stroke="#191970" d="M993.7845,-518.8763C765.0787,-515.8852 35.5,-498.7602 35.5,-402 35.5,-402 35.5,-402 35.5,-178 35.5,-145.6075 31.7133,-108.1141 29.0523,-85.7662"/>
<polygon fill="#191970" stroke="#191970" points="32.4919,-85.0616 27.7895,-75.5676 25.545,-85.9219 32.4919,-85.0616"/>
</g>
<!-- Node19 -->
<g id="node20" class="node">
<title>Node19</title>
<g id="a_node20"><a xlink:href="parser_8h.html" target="_top" xlink:title=" ">
<polygon fill="#ffffff" stroke="#000000" points="1033.5,-448.5 1033.5,-467.5 1089.5,-467.5 1089.5,-448.5 1033.5,-448.5"/>
<text text-anchor="middle" x="1061.5" y="-455.5" font-family="Helvetica,sans-Serif" font-size="10.00" fill="#000000">parser.h</text>
</a>
</g>
</g>
<!-- Node0&#45;&gt;Node19 -->
<g id="edge34" class="edge">
<title>Node0&#45;&gt;Node19</title>
<path fill="none" stroke="#191970" d="M1061.5,-504.2977C1061.5,-496.3834 1061.5,-486.6043 1061.5,-478.0759"/>
<polygon fill="#191970" stroke="#191970" points="1065.0001,-477.8469 1061.5,-467.8469 1058.0001,-477.847 1065.0001,-477.8469"/>
</g>
<!-- Node20 -->
<g id="node21" class="node">
<title>Node20</title>
<g id="a_node21"><a xlink:href="parser__error_8h.html" target="_top" xlink:title=" ">
<polygon fill="#ffffff" stroke="#000000" points="1073.5,-336.5 1073.5,-355.5 1157.5,-355.5 1157.5,-336.5 1073.5,-336.5"/>
<text text-anchor="middle" x="1115.5" y="-343.5" font-family="Helvetica,sans-Serif" font-size="10.00" fill="#000000">parser_error.h</text>
</a>
</g>
</g>
<!-- Node0&#45;&gt;Node20 -->
<g id="edge41" class="edge">
<title>Node0&#45;&gt;Node20</title>
<path fill="none" stroke="#191970" d="M1075.3322,-504.4528C1083.4315,-494.7623 1093.0999,-481.4916 1098.5,-468 1112.1517,-433.8924 1115.1366,-390.6214 1115.6232,-365.8453"/>
<polygon fill="#191970" stroke="#191970" points="1119.125,-365.6008 1115.6989,-355.5753 1112.1252,-365.5492 1119.125,-365.6008"/>
</g>
<!-- Node21 -->
<g id="node22" class="node">
<title>Node21</title>
<g id="a_node22"><a xlink:title=" ">
<polygon fill="#ffffff" stroke="#bfbfbf" points="1251.5,-448.5 1251.5,-467.5 1301.5,-467.5 1301.5,-448.5 1251.5,-448.5"/>
<text text-anchor="middle" x="1276.5" y="-455.5" font-family="Helvetica,sans-Serif" font-size="10.00" fill="#000000">stdio.h</text>
</a>
</g>
</g>
<!-- Node0&#45;&gt;Node21 -->
<g id="edge45" class="edge">
<title>Node0&#45;&gt;Node21</title>
<path fill="none" stroke="#191970" d="M1114.0949,-504.4554C1153.8099,-493.0951 1207.1917,-477.8254 1241.7235,-467.9477"/>
<polygon fill="#191970" stroke="#191970" points="1242.7155,-471.3044 1251.3673,-465.1891 1240.7903,-464.5743 1242.7155,-471.3044"/>
</g>
<!-- Node22 -->
<g id="node23" class="node">
<title>Node22</title>
<g id="a_node23"><a xlink:title=" ">
<polygon fill="#ffffff" stroke="#bfbfbf" points="1320,-448.5 1320,-467.5 1373,-467.5 1373,-448.5 1320,-448.5"/>
<text text-anchor="middle" x="1346.5" y="-455.5" font-family="Helvetica,sans-Serif" font-size="10.00" fill="#000000">string.h</text>
</a>
</g>
</g>
<!-- Node0&#45;&gt;Node22 -->
<g id="edge47" class="edge">
<title>Node0&#45;&gt;Node22</title>
<path fill="none" stroke="#191970" d="M1129.1453,-506.7811C1177.025,-497.4849 1242.9399,-484.0976 1309.9266,-468.0184"/>
<polygon fill="#191970" stroke="#191970" points="1310.9186,-471.3794 1319.8156,-465.6267 1309.273,-464.5756 1310.9186,-471.3794"/>
</g>
<!-- Node1&#45;&gt;Node2 -->
<g id="edge2" class="edge">
<title>Node1&#45;&gt;Node2</title>
<path fill="none" stroke="#191970" d="M1003.3471,-392.4674C1022.765,-367.8777 1071.5,-299.6252 1071.5,-234 1071.5,-234 1071.5,-234 1071.5,-122 1071.5,-89.7116 1071.5,-52.1872 1071.5,-29.8048"/>
<polygon fill="#191970" stroke="#191970" points="1075.0001,-29.5883 1071.5,-19.5884 1068.0001,-29.5884 1075.0001,-29.5883"/>
</g>
<!-- Node1&#45;&gt;Node3 -->
<g id="edge3" class="edge">
<title>Node1&#45;&gt;Node3</title>
<path fill="none" stroke="#191970" d="M987.4874,-392.2455C981.0232,-384.3761 971.7615,-373.101 964.0017,-363.6542"/>
<polygon fill="#191970" stroke="#191970" points="966.4727,-361.1484 957.4208,-355.6427 961.0636,-365.5916 966.4727,-361.1484"/>
</g>
<!-- Node3&#45;&gt;Node2 -->
<g id="edge33" class="edge">
<title>Node3&#45;&gt;Node2</title>
<path fill="none" stroke="#191970" d="M956.4864,-336.3606C969.3548,-317.6259 995.5,-274.5697 995.5,-234 995.5,-234 995.5,-234 995.5,-122 995.5,-82.2361 1028.7071,-46.1042 1051.2208,-26.177"/>
<polygon fill="#191970" stroke="#191970" points="1053.6079,-28.7412 1058.9501,-19.5918 1049.0683,-23.4128 1053.6079,-28.7412"/>
</g>
<!-- Node4 -->
<g id="node5" class="node">
<title>Node4</title>
<g id="a_node5"><a xlink:href="builtins_8h.html" target="_top" xlink:title=" ">
<polygon fill="#ffffff" stroke="#000000" points="403.5,-280.5 403.5,-299.5 465.5,-299.5 465.5,-280.5 403.5,-280.5"/>
<text text-anchor="middle" x="434.5" y="-287.5" font-family="Helvetica,sans-Serif" font-size="10.00" fill="#000000">builtins.h</text>
</a>
</g>
</g>
<!-- Node3&#45;&gt;Node4 -->
<g id="edge4" class="edge">
<title>Node3&#45;&gt;Node4</title>
<path fill="none" stroke="#191970" d="M922.8958,-343.1071C838.7477,-333.957 577.9281,-305.5961 475.9583,-294.5081"/>
<polygon fill="#191970" stroke="#191970" points="476.0638,-290.999 465.744,-293.3974 475.307,-297.958 476.0638,-290.999"/>
</g>
<!-- Node3&#45;&gt;Node10 -->
<g id="edge32" class="edge">
<title>Node3&#45;&gt;Node10</title>
<path fill="none" stroke="#191970" d="M948.1111,-336.4049C942.7177,-299.7223 922.1346,-164.9472 895.5,-56 893.3497,-47.2043 890.5082,-37.6039 887.9473,-29.4599"/>
<polygon fill="#191970" stroke="#191970" points="891.2264,-28.2244 884.8241,-19.7828 884.5647,-30.3744 891.2264,-28.2244"/>
</g>
<!-- Node5 -->
<g id="node6" class="node">
<title>Node5</title>
<g id="a_node6"><a xlink:href="builtinutils_8h.html" target="_top" xlink:title=" ">
<polygon fill="#ffffff" stroke="#000000" points="133,-.5 133,-19.5 210,-19.5 210,-.5 133,-.5"/>
<text text-anchor="middle" x="171.5" y="-7.5" font-family="Helvetica,sans-Serif" font-size="10.00" fill="#000000">builtinutils.h</text>
</a>
</g>
</g>
<!-- Node4&#45;&gt;Node5 -->
<g id="edge5" class="edge">
<title>Node4&#45;&gt;Node5</title>
<path fill="none" stroke="#191970" d="M403.339,-287.2547C339.3515,-281.2443 195.4647,-265.7038 151.5,-244 113.1583,-225.0722 81.5,-220.7592 81.5,-178 81.5,-178 81.5,-178 81.5,-122 81.5,-79.8672 120.6791,-44.5758 147.3373,-25.4395"/>
<polygon fill="#191970" stroke="#191970" points="149.5813,-28.1434 155.8232,-19.5825 145.605,-22.3824 149.5813,-28.1434"/>
</g>
<!-- Node6 -->
<g id="node7" class="node">
<title>Node6</title>
<g id="a_node7"><a xlink:href="helios__boolean_8h.html" target="_top" xlink:title=" ">
<polygon fill="#ffffff" stroke="#000000" points="767,-224.5 767,-243.5 866,-243.5 866,-224.5 767,-224.5"/>
<text text-anchor="middle" x="816.5" y="-231.5" font-family="Helvetica,sans-Serif" font-size="10.00" fill="#000000">helios_boolean.h</text>
</a>
</g>
</g>
<!-- Node4&#45;&gt;Node6 -->
<g id="edge6" class="edge">
<title>Node4&#45;&gt;Node6</title>
<path fill="none" stroke="#191970" d="M465.7215,-285.8329C521.7836,-278.29 643.4568,-261.6456 757.0327,-244.0392"/>
<polygon fill="#191970" stroke="#191970" points="757.598,-247.4935 766.941,-242.4975 756.5217,-240.5767 757.598,-247.4935"/>
</g>
<!-- Node7 -->
<g id="node8" class="node">
<title>Node7</title>
<g id="a_node8"><a xlink:href="helios__object_8h.html" target="_top" xlink:title=" ">
<polygon fill="#ffffff" stroke="#000000" points="443.5,-168.5 443.5,-187.5 533.5,-187.5 533.5,-168.5 443.5,-168.5"/>
<text text-anchor="middle" x="488.5" y="-175.5" font-family="Helvetica,sans-Serif" font-size="10.00" fill="#000000">helios_object.h</text>
</a>
</g>
</g>
<!-- Node4&#45;&gt;Node7 -->
<g id="edge26" class="edge">
<title>Node4&#45;&gt;Node7</title>
<path fill="none" stroke="#191970" d="M465.7265,-285.6292C508.2146,-278.9696 580.7694,-264.8192 596.5,-244 615.5709,-218.7599 579.0371,-201.0354 543.4074,-190.3557"/>
<polygon fill="#191970" stroke="#191970" points="544.0042,-186.8871 533.4289,-187.5299 542.0969,-193.6223 544.0042,-186.8871"/>
</g>
<!-- Node9 -->
<g id="node10" class="node">
<title>Node9</title>
<g id="a_node10"><a xlink:href="helios__memory_8h.html" target="_top" xlink:title=" ">
<polygon fill="#ffffff" stroke="#000000" points="351.5,-56.5 351.5,-75.5 451.5,-75.5 451.5,-56.5 351.5,-56.5"/>
<text text-anchor="middle" x="401.5" y="-63.5" font-family="Helvetica,sans-Serif" font-size="10.00" fill="#000000">helios_memory.h</text>
</a>
</g>
</g>
<!-- Node4&#45;&gt;Node9 -->
<g id="edge29" class="edge">
<title>Node4&#45;&gt;Node9</title>
<path fill="none" stroke="#191970" d="M403.3171,-286.8977C335.9559,-279.8822 181.6755,-262.0021 166.5,-244 102.0855,-167.5873 272.6641,-104.1819 357.2227,-78.3987"/>
<polygon fill="#191970" stroke="#191970" points="358.2687,-81.7391 366.8423,-75.5146 356.2583,-75.034 358.2687,-81.7391"/>
</g>
<!-- Node13 -->
<g id="node14" class="node">
<title>Node13</title>
<g id="a_node14"><a xlink:href="helios__code_8h.html" target="_top" xlink:title=" ">
<polygon fill="#ffffff" stroke="#000000" points="186,-224.5 186,-243.5 269,-243.5 269,-224.5 186,-224.5"/>
<text text-anchor="middle" x="227.5" y="-231.5" font-family="Helvetica,sans-Serif" font-size="10.00" fill="#000000">helios_code.h</text>
</a>
</g>
</g>
<!-- Node4&#45;&gt;Node13 -->
<g id="edge17" class="edge">
<title>Node4&#45;&gt;Node13</title>
<path fill="none" stroke="#191970" d="M403.0612,-281.4948C368.3105,-272.0937 312.0437,-256.8717 272.5994,-246.2008"/>
<polygon fill="#191970" stroke="#191970" points="273.2733,-242.7574 262.7063,-243.5244 271.4453,-249.5145 273.2733,-242.7574"/>
</g>
<!-- Node14 -->
<g id="node15" class="node">
<title>Node14</title>
<g id="a_node15"><a xlink:href="helios__float_8h.html" target="_top" xlink:title=" ">
<polygon fill="#ffffff" stroke="#000000" points="287.5,-224.5 287.5,-243.5 369.5,-243.5 369.5,-224.5 287.5,-224.5"/>
<text text-anchor="middle" x="328.5" y="-231.5" font-family="Helvetica,sans-Serif" font-size="10.00" fill="#000000">helios_float.h</text>
</a>
</g>
</g>
<!-- Node4&#45;&gt;Node14 -->
<g id="edge19" class="edge">
<title>Node4&#45;&gt;Node14</title>
<path fill="none" stroke="#191970" d="M416.0362,-280.2455C399.3926,-271.4527 374.7007,-258.4079 355.7808,-248.4125"/>
<polygon fill="#191970" stroke="#191970" points="357.2291,-245.2193 346.7522,-243.6427 353.9592,-251.4086 357.2291,-245.2193"/>
</g>
<!-- Node15 -->
<g id="node16" class="node">
<title>Node15</title>
<g id="a_node16"><a xlink:href="helios__hashmap_8h.html" target="_top" xlink:title=" ">
<polygon fill="#ffffff" stroke="#000000" points="644,-224.5 644,-243.5 749,-243.5 749,-224.5 644,-224.5"/>
<text text-anchor="middle" x="696.5" y="-231.5" font-family="Helvetica,sans-Serif" font-size="10.00" fill="#000000">helios_hashmap.h</text>
</a>
</g>
</g>
<!-- Node4&#45;&gt;Node15 -->
<g id="edge21" class="edge">
<title>Node4&#45;&gt;Node15</title>
<path fill="none" stroke="#191970" d="M465.5837,-283.3562C509.0073,-274.0748 588.4925,-257.0856 641.9127,-245.6675"/>
<polygon fill="#191970" stroke="#191970" points="642.8524,-249.0458 651.8999,-243.5328 641.3892,-242.2004 642.8524,-249.0458"/>
</g>
<!-- Node16 -->
<g id="node17" class="node">
<title>Node16</title>
<g id="a_node17"><a xlink:href="helios__integer_8h.html" target="_top" xlink:title=" ">
<polygon fill="#ffffff" stroke="#000000" points="387.5,-224.5 387.5,-243.5 481.5,-243.5 481.5,-224.5 387.5,-224.5"/>
<text text-anchor="middle" x="434.5" y="-231.5" font-family="Helvetica,sans-Serif" font-size="10.00" fill="#000000">helios_integer.h</text>
</a>
</g>
</g>
<!-- Node4&#45;&gt;Node16 -->
<g id="edge24" class="edge">
<title>Node4&#45;&gt;Node16</title>
<path fill="none" stroke="#191970" d="M434.5,-280.2455C434.5,-272.9382 434.5,-262.6944 434.5,-253.7046"/>
<polygon fill="#191970" stroke="#191970" points="438.0001,-253.6426 434.5,-243.6427 431.0001,-253.6427 438.0001,-253.6426"/>
</g>
<!-- Node17 -->
<g id="node18" class="node">
<title>Node17</title>
<g id="a_node18"><a xlink:href="helios__string_8h.html" target="_top" xlink:title=" ">
<polygon fill="#ffffff" stroke="#000000" points="499.5,-224.5 499.5,-243.5 587.5,-243.5 587.5,-224.5 499.5,-224.5"/>
<text text-anchor="middle" x="543.5" y="-231.5" font-family="Helvetica,sans-Serif" font-size="10.00" fill="#000000">helios_string.h</text>
</a>
</g>
</g>
<!-- Node4&#45;&gt;Node17 -->
<g id="edge27" class="edge">
<title>Node4&#45;&gt;Node17</title>
<path fill="none" stroke="#191970" d="M453.4864,-280.2455C470.6792,-271.4125 496.2238,-258.2887 515.7132,-248.2758"/>
<polygon fill="#191970" stroke="#191970" points="517.4359,-251.3257 524.7312,-243.6427 514.237,-245.0993 517.4359,-251.3257"/>
</g>
<!-- Node18 -->
<g id="node19" class="node">
<title>Node18</title>
<g id="a_node19"><a xlink:href="serialize_8h.html" target="_top" xlink:title=" ">
<polygon fill="#ffffff" stroke="#000000" points="280,-168.5 280,-187.5 347,-187.5 347,-168.5 280,-168.5"/>
<text text-anchor="middle" x="313.5" y="-175.5" font-family="Helvetica,sans-Serif" font-size="10.00" fill="#000000">serialize.h</text>
</a>
</g>
</g>
<!-- Node4&#45;&gt;Node18 -->
<g id="edge30" class="edge">
<title>Node4&#45;&gt;Node18</title>
<path fill="none" stroke="#191970" d="M403.344,-289.2372C341.1543,-286.988 205.1281,-278.1838 176.5,-244 147.3207,-209.158 219.3283,-191.331 269.6353,-183.3904"/>
<polygon fill="#191970" stroke="#191970" points="270.3113,-186.8283 279.6836,-181.8877 269.2759,-179.9053 270.3113,-186.8283"/>
</g>
<!-- Node6&#45;&gt;Node7 -->
<g id="edge7" class="edge">
<title>Node6&#45;&gt;Node7</title>
<path fill="none" stroke="#191970" d="M766.6839,-225.4948C706.6729,-215.249 606.1677,-198.0896 543.8055,-187.4424"/>
<polygon fill="#191970" stroke="#191970" points="544.205,-183.96 533.7586,-185.7271 543.0269,-190.8602 544.205,-183.96"/>
</g>
<!-- Node6&#45;&gt;Node10 -->
<g id="edge16" class="edge">
<title>Node6&#45;&gt;Node10</title>
<path fill="none" stroke="#191970" d="M819.2086,-224.3364C826.7284,-197.5545 848.5569,-120.1246 867.5,-56 870.0982,-47.2049 873.0446,-37.4871 875.562,-29.2582"/>
<polygon fill="#191970" stroke="#191970" points="878.9684,-30.088 878.5587,-19.5011 872.2769,-28.0328 878.9684,-30.088"/>
</g>
<!-- Node8 -->
<g id="node9" class="node">
<title>Node8</title>
<g id="a_node9"><a xlink:href="helios__type_8h.html" target="_top" xlink:title=" ">
<polygon fill="#ffffff" stroke="#000000" points="360.5,-112.5 360.5,-131.5 442.5,-131.5 442.5,-112.5 360.5,-112.5"/>
<text text-anchor="middle" x="401.5" y="-119.5" font-family="Helvetica,sans-Serif" font-size="10.00" fill="#000000">helios_type.h</text>
</a>
</g>
</g>
<!-- Node7&#45;&gt;Node8 -->
<g id="edge8" class="edge">
<title>Node7&#45;&gt;Node8</title>
<path fill="none" stroke="#191970" d="M473.3458,-168.2455C459.9973,-159.6534 440.3414,-147.0014 424.9617,-137.1018"/>
<polygon fill="#191970" stroke="#191970" points="426.7836,-134.1121 416.4806,-131.6427 422.9949,-139.9982 426.7836,-134.1121"/>
</g>
<!-- Node8&#45;&gt;Node2 -->
<g id="edge14" class="edge">
<title>Node8&#45;&gt;Node2</title>
<path fill="none" stroke="#191970" d="M442.6541,-115.1205C563.996,-94.8365 919.0582,-35.4828 1034.6588,-16.1585"/>
<polygon fill="#191970" stroke="#191970" points="1035.4848,-19.5691 1044.7709,-14.4682 1034.3306,-12.6649 1035.4848,-19.5691"/>
</g>
<!-- Node8&#45;&gt;Node9 -->
<g id="edge9" class="edge">
<title>Node8&#45;&gt;Node9</title>
<path fill="none" stroke="#191970" d="M401.5,-112.2455C401.5,-104.9382 401.5,-94.6944 401.5,-85.7046"/>
<polygon fill="#191970" stroke="#191970" points="405.0001,-85.6426 401.5,-75.6427 398.0001,-85.6427 405.0001,-85.6426"/>
</g>
<!-- Node8&#45;&gt;Node12 -->
<g id="edge15" class="edge">
<title>Node8&#45;&gt;Node12</title>
<path fill="none" stroke="#191970" d="M360.2957,-115.8468C286.6397,-104.8475 133.5369,-81.9842 63.237,-71.4861"/>
<polygon fill="#191970" stroke="#191970" points="63.4944,-67.9858 53.0871,-69.9703 62.4605,-74.909 63.4944,-67.9858"/>
</g>
<!-- Node9&#45;&gt;Node2 -->
<g id="edge13" class="edge">
<title>Node9&#45;&gt;Node2</title>
<path fill="none" stroke="#191970" d="M451.5849,-61.8138C580.4911,-51.0396 921.4981,-22.5375 1034.522,-13.0907"/>
<polygon fill="#191970" stroke="#191970" points="1035.0597,-16.5581 1044.7334,-12.2372 1034.4766,-9.5824 1035.0597,-16.5581"/>
</g>
<!-- Node9&#45;&gt;Node5 -->
<g id="edge10" class="edge">
<title>Node9&#45;&gt;Node5</title>
<path fill="none" stroke="#191970" d="M362.2229,-56.4369C322.9068,-46.8643 262.3342,-32.1162 220.0326,-21.8166"/>
<polygon fill="#191970" stroke="#191970" points="220.7756,-18.3954 210.2314,-19.4303 219.1196,-25.1967 220.7756,-18.3954"/>
</g>
<!-- Node9&#45;&gt;Node10 -->
<g id="edge11" class="edge">
<title>Node9&#45;&gt;Node10</title>
<path fill="none" stroke="#191970" d="M451.51,-60.1655C546.6893,-49.0613 752.2194,-25.0827 840.1866,-14.8199"/>
<polygon fill="#191970" stroke="#191970" points="840.7892,-18.2734 850.3162,-13.6381 839.978,-11.3206 840.7892,-18.2734"/>
</g>
<!-- Node11 -->
<g id="node12" class="node">
<title>Node11</title>
<g id="a_node12"><a xlink:title=" ">
<polygon fill="#ffffff" stroke="#bfbfbf" points="373.5,-.5 373.5,-19.5 429.5,-19.5 429.5,-.5 373.5,-.5"/>
<text text-anchor="middle" x="401.5" y="-7.5" font-family="Helvetica,sans-Serif" font-size="10.00" fill="#000000">stddef.h</text>
</a>
</g>
</g>
<!-- Node9&#45;&gt;Node11 -->
<g id="edge12" class="edge">
<title>Node9&#45;&gt;Node11</title>
<path fill="none" stroke="#191970" d="M401.5,-56.2455C401.5,-48.9382 401.5,-38.6944 401.5,-29.7046"/>
<polygon fill="#191970" stroke="#191970" points="405.0001,-29.6426 401.5,-19.6427 398.0001,-29.6427 405.0001,-29.6426"/>
</g>
<!-- Node13&#45;&gt;Node7 -->
<g id="edge18" class="edge">
<title>Node13&#45;&gt;Node7</title>
<path fill="none" stroke="#191970" d="M269.1448,-225.0647C313.8468,-215.4735 385.0388,-200.1986 434.1297,-189.6657"/>
<polygon fill="#191970" stroke="#191970" points="434.9021,-193.0797 443.9453,-187.5596 433.4335,-186.2354 434.9021,-193.0797"/>
</g>
<!-- Node14&#45;&gt;Node7 -->
<g id="edge20" class="edge">
<title>Node14&#45;&gt;Node7</title>
<path fill="none" stroke="#191970" d="M356.005,-224.3733C382.3802,-215.1419 422.3851,-201.1402 451.5358,-190.9375"/>
<polygon fill="#191970" stroke="#191970" points="453.0716,-194.1082 461.3539,-187.5011 450.7591,-187.5012 453.0716,-194.1082"/>
</g>
<!-- Node15&#45;&gt;Node7 -->
<g id="edge22" class="edge">
<title>Node15&#45;&gt;Node7</title>
<path fill="none" stroke="#191970" d="M660.7435,-224.3733C625.5574,-214.9001 571.7119,-200.4032 533.6044,-190.1435"/>
<polygon fill="#191970" stroke="#191970" points="534.356,-186.7213 523.7899,-187.5011 532.5361,-193.4806 534.356,-186.7213"/>
</g>
<!-- Node15&#45;&gt;Node10 -->
<g id="edge23" class="edge">
<title>Node15&#45;&gt;Node10</title>
<path fill="none" stroke="#191970" d="M704.4492,-224.375C732.9131,-189.9107 830.0175,-72.3356 867.0195,-27.5331"/>
<polygon fill="#191970" stroke="#191970" points="869.9111,-29.5283 873.5804,-19.5891 864.5138,-25.0707 869.9111,-29.5283"/>
</g>
<!-- Node16&#45;&gt;Node7 -->
<g id="edge25" class="edge">
<title>Node16&#45;&gt;Node7</title>
<path fill="none" stroke="#191970" d="M443.9061,-224.2455C451.6493,-216.2155 462.812,-204.6394 472.0318,-195.0781"/>
<polygon fill="#191970" stroke="#191970" points="474.7798,-197.2706 479.2017,-187.6427 469.7409,-192.4117 474.7798,-197.2706"/>
</g>
<!-- Node17&#45;&gt;Node7 -->
<g id="edge28" class="edge">
<title>Node17&#45;&gt;Node7</title>
<path fill="none" stroke="#191970" d="M533.9197,-224.2455C525.9542,-216.1352 514.4359,-204.4075 504.9921,-194.7919"/>
<polygon fill="#191970" stroke="#191970" points="507.4747,-192.3247 497.9705,-187.6427 502.4805,-197.2297 507.4747,-192.3247"/>
</g>
<!-- Node18&#45;&gt;Node8 -->
<g id="edge31" class="edge">
<title>Node18&#45;&gt;Node8</title>
<path fill="none" stroke="#191970" d="M328.8284,-168.2455C342.3303,-159.6534 362.2122,-147.0014 377.7686,-137.1018"/>
<polygon fill="#191970" stroke="#191970" points="379.7897,-139.9643 386.3472,-131.6427 376.0315,-134.0587 379.7897,-139.9643"/>
</g>
<!-- Node19&#45;&gt;Node1 -->
<g id="edge35" class="edge">
<title>Node19&#45;&gt;Node1</title>
<path fill="none" stroke="#191970" d="M1050.0037,-448.2455C1040.2558,-439.9746 1026.0741,-427.9416 1014.6202,-418.2232"/>
<polygon fill="#191970" stroke="#191970" points="1016.7541,-415.4437 1006.8646,-411.6427 1012.2253,-420.7813 1016.7541,-415.4437"/>
</g>
<!-- Node19&#45;&gt;Node2 -->
<g id="edge40" class="edge">
<title>Node19&#45;&gt;Node2</title>
<path fill="none" stroke="#191970" d="M1086.8925,-448.4421C1123.1703,-432.9427 1185.5,-398.6516 1185.5,-346 1185.5,-346 1185.5,-346 1185.5,-122 1185.5,-75.4628 1136.5617,-41.828 1102.8136,-24.1659"/>
<polygon fill="#191970" stroke="#191970" points="1104.2576,-20.9746 1093.751,-19.6105 1101.1138,-27.2289 1104.2576,-20.9746"/>
</g>
<!-- Node19&#45;&gt;Node10 -->
<g id="edge39" class="edge">
<title>Node19&#45;&gt;Node10</title>
<path fill="none" stroke="#191970" d="M1059.3954,-448.2292C1052.8837,-417.1132 1033.5,-317.478 1033.5,-234 1033.5,-234 1033.5,-234 1033.5,-122 1033.5,-66.6894 967.4625,-35.6337 922.4425,-20.8886"/>
<polygon fill="#191970" stroke="#191970" points="923.2151,-17.4631 912.6263,-17.8195 921.1262,-24.1442 923.2151,-17.4631"/>
</g>
<!-- Node19&#45;&gt;Node20 -->
<g id="edge36" class="edge">
<title>Node19&#45;&gt;Node20</title>
<path fill="none" stroke="#191970" d="M1066.104,-448.4509C1075.0309,-429.936 1094.8358,-388.8591 1106.4749,-364.7187"/>
<polygon fill="#191970" stroke="#191970" points="1109.7173,-366.0527 1110.9076,-355.5249 1103.4119,-363.0125 1109.7173,-366.0527"/>
</g>
<!-- Node20&#45;&gt;Node2 -->
<g id="edge38" class="edge">
<title>Node20&#45;&gt;Node2</title>
<path fill="none" stroke="#191970" d="M1120.2217,-336.3774C1129.123,-317.3222 1147.5,-273.2317 1147.5,-234 1147.5,-234 1147.5,-234 1147.5,-122 1147.5,-90.7875 1141.0636,-81.802 1123.5,-56 1115.6578,-44.4793 1104.2918,-33.9817 1094.1849,-25.9331"/>
<polygon fill="#191970" stroke="#191970" points="1096.1741,-23.0487 1086.0962,-19.7796 1091.9358,-28.6198 1096.1741,-23.0487"/>
</g>
<!-- Node20&#45;&gt;Node10 -->
<g id="edge37" class="edge">
<title>Node20&#45;&gt;Node10</title>
<path fill="none" stroke="#191970" d="M1114.6403,-336.4209C1112.9813,-317.0797 1109.5,-271.971 1109.5,-234 1109.5,-234 1109.5,-234 1109.5,-122 1109.5,-81.7538 1081.9472,-76.8121 1047.5,-56 1008.7108,-32.5646 957.6761,-20.7557 922.4857,-15.0206"/>
<polygon fill="#191970" stroke="#191970" points="922.9704,-11.5541 912.5548,-13.4944 921.9071,-18.4729 922.9704,-11.5541"/>
</g>
</g>
</svg>
