<?xml version="1.0" encoding="UTF-8" standalone="no"?>
<!DOCTYPE svg PUBLIC "-//W3C//DTD SVG 1.1//EN"
 "http://www.w3.org/Graphics/SVG/1.1/DTD/svg11.dtd">
<!-- Generated by graphviz version 2.40.1 (20161225.0304)
 -->
<!-- Title: PARSERFUNC Pages: 1 -->
<svg width="455pt" height="274pt"
 viewBox="0.00 0.00 455.00 274.00" xmlns="http://www.w3.org/2000/svg" xmlns:xlink="http://www.w3.org/1999/xlink">
<g id="graph0" class="graph" transform="scale(1 1) rotate(0) translate(4 270)">
<title>PARSERFUNC</title>
<polygon fill="#ffffff" stroke="transparent" points="-4,4 -4,-270 451,-270 451,4 -4,4"/>
<!-- Node24 -->
<g id="node1" class="node">
<title>Node24</title>
<g id="a_node1"><a xlink:title="Tries to accept a floating point constant.">
<polygon fill="#bfbfbf" stroke="#000000" points="0,-132.5 0,-151.5 86,-151.5 86,-132.5 0,-132.5"/>
<text text-anchor="middle" x="43" y="-139.5" font-family="Helvetica,sans-Serif" font-size="10.00" fill="#000000">PARSERFUNC</text>
</a>
</g>
</g>
<!-- Node25 -->
<g id="node2" class="node">
<title>Node25</title>
<g id="a_node2"><a xlink:href="parser_8h.html#a8c4c57eca60b2cec9a372a04abea456d" target="_top" xlink:title="Advances the parser as long as it can find whitespace.">
<polygon fill="#ffffff" stroke="#000000" points="131.5,-246.5 131.5,-265.5 211.5,-265.5 211.5,-246.5 131.5,-246.5"/>
<text text-anchor="middle" x="171.5" y="-253.5" font-family="Helvetica,sans-Serif" font-size="10.00" fill="#000000">parser_skipws</text>
</a>
</g>
</g>
<!-- Node24&#45;&gt;Node25 -->
<g id="edge1" class="edge">
<title>Node24&#45;&gt;Node25</title>
<path fill="none" stroke="#191970" d="M48.7046,-151.7522C60.2477,-170.7021 88.1745,-212.7599 122,-237 124.5369,-238.818 127.2702,-240.4878 130.1032,-242.0166"/>
<polygon fill="#191970" stroke="#191970" points="128.84,-245.2916 139.3736,-246.429 131.8484,-238.971 128.84,-245.2916"/>
</g>
<!-- Node28 -->
<g id="node5" class="node">
<title>Node28</title>
<g id="a_node5"><a xlink:href="error_8c.html#ac348843496d6fe5024df7b11724d71c2" target="_top" xlink:title="Find the length of an errorstack.">
<polygon fill="#ffffff" stroke="#000000" points="125.5,-208.5 125.5,-227.5 217.5,-227.5 217.5,-208.5 125.5,-208.5"/>
<text text-anchor="middle" x="171.5" y="-215.5" font-family="Helvetica,sans-Serif" font-size="10.00" fill="#000000">errorstack_length</text>
</a>
</g>
</g>
<!-- Node24&#45;&gt;Node28 -->
<g id="edge4" class="edge">
<title>Node24&#45;&gt;Node28</title>
<path fill="none" stroke="#191970" d="M54.4121,-151.7007C69.2339,-163.944 96.2637,-185.0816 122,-199 125.6891,-200.9951 129.6331,-202.8819 133.6243,-204.6357"/>
<polygon fill="#191970" stroke="#191970" points="132.3462,-207.8946 142.9251,-208.4751 135.0172,-201.4242 132.3462,-207.8946"/>
</g>
<!-- Node29 -->
<g id="node6" class="node">
<title>Node29</title>
<g id="a_node6"><a xlink:href="parser_8h.html#aecf4b8bdaae9ca8435542900cf024f4e" target="_top" xlink:title="Copy a parser.">
<polygon fill="#ffffff" stroke="#000000" points="136.5,-170.5 136.5,-189.5 206.5,-189.5 206.5,-170.5 136.5,-170.5"/>
<text text-anchor="middle" x="171.5" y="-177.5" font-family="Helvetica,sans-Serif" font-size="10.00" fill="#000000">parser_copy</text>
</a>
</g>
</g>
<!-- Node24&#45;&gt;Node29 -->
<g id="edge5" class="edge">
<title>Node24&#45;&gt;Node29</title>
<path fill="none" stroke="#191970" d="M75.426,-151.589C91.7097,-156.4044 111.6421,-162.2988 129.122,-167.468"/>
<polygon fill="#191970" stroke="#191970" points="128.5024,-170.9345 139.0844,-170.4141 130.4875,-164.2219 128.5024,-170.9345"/>
</g>
<!-- Node30 -->
<g id="node7" class="node">
<title>Node30</title>
<g id="a_node7"><a xlink:href="parser_8h.html#ab62454c7986532e03ea36b14956b5ad1" target="_top" xlink:title="Simple parser destructor.">
<polygon fill="#ffffff" stroke="#000000" points="122,-132.5 122,-151.5 221,-151.5 221,-132.5 122,-132.5"/>
<text text-anchor="middle" x="171.5" y="-139.5" font-family="Helvetica,sans-Serif" font-size="10.00" fill="#000000">parser_free_simple</text>
</a>
</g>
</g>
<!-- Node24&#45;&gt;Node30 -->
<g id="edge6" class="edge">
<title>Node24&#45;&gt;Node30</title>
<path fill="none" stroke="#191970" d="M86.1461,-142C94.2324,-142 102.8205,-142 111.3134,-142"/>
<polygon fill="#191970" stroke="#191970" points="111.5858,-145.5001 121.5858,-142 111.5857,-138.5001 111.5858,-145.5001"/>
</g>
<!-- Node31 -->
<g id="node8" class="node">
<title>Node31</title>
<g id="a_node8"><a xlink:href="AST_8c.html#adc8be8765bd5abffeef1f5649587cb45" target="_top" xlink:title="Destructor for ast objects.">
<polygon fill="#ffffff" stroke="#000000" points="142.5,-76.5 142.5,-95.5 200.5,-95.5 200.5,-76.5 142.5,-76.5"/>
<text text-anchor="middle" x="171.5" y="-83.5" font-family="Helvetica,sans-Serif" font-size="10.00" fill="#000000">AST_free</text>
</a>
</g>
</g>
<!-- Node24&#45;&gt;Node31 -->
<g id="edge7" class="edge">
<title>Node24&#45;&gt;Node31</title>
<path fill="none" stroke="#191970" d="M65.0899,-132.3733C85.81,-123.3435 117.0037,-109.7494 140.2674,-99.6111"/>
<polygon fill="#191970" stroke="#191970" points="141.9293,-102.7048 149.6983,-95.5011 139.1327,-96.2877 141.9293,-102.7048"/>
</g>
<!-- Node33 -->
<g id="node10" class="node">
<title>Node33</title>
<g id="a_node10"><a xlink:href="error_8c.html#a4b3b88945de18cbfb783a3e8f76b573d" target="_top" xlink:title="pop the errorstack until it has a desired length.">
<polygon fill="#ffffff" stroke="#000000" points="122,-38.5 122,-57.5 221,-57.5 221,-38.5 122,-38.5"/>
<text text-anchor="middle" x="171.5" y="-45.5" font-family="Helvetica,sans-Serif" font-size="10.00" fill="#000000">errorstack_popuntil</text>
</a>
</g>
</g>
<!-- Node24&#45;&gt;Node33 -->
<g id="edge10" class="edge">
<title>Node24&#45;&gt;Node33</title>
<path fill="none" stroke="#191970" d="M50.8174,-132.4547C64.0284,-116.8585 92.2527,-85.7731 122,-67 125.1016,-65.0426 128.4369,-63.2342 131.8579,-61.576"/>
<polygon fill="#191970" stroke="#191970" points="133.2755,-64.7761 141.0121,-57.5376 130.4502,-58.3716 133.2755,-64.7761"/>
</g>
<!-- Node35 -->
<g id="node12" class="node">
<title>Node35</title>
<g id="a_node12"><a xlink:href="parser_8h.html#a1f1841a636bfe529466c99e3db9999cd" target="_top" xlink:title="Restores a parser to another parser&#39;s position.">
<polygon fill="#ffffff" stroke="#000000" points="132,-.5 132,-19.5 211,-19.5 211,-.5 132,-.5"/>
<text text-anchor="middle" x="171.5" y="-7.5" font-family="Helvetica,sans-Serif" font-size="10.00" fill="#000000">parser_restore</text>
</a>
</g>
</g>
<!-- Node24&#45;&gt;Node35 -->
<g id="edge12" class="edge">
<title>Node24&#45;&gt;Node35</title>
<path fill="none" stroke="#191970" d="M47.2728,-132.3771C57.2821,-110.8705 84.2854,-58.4875 122,-29 124.2775,-27.2193 126.7412,-25.5896 129.3111,-24.1006"/>
<polygon fill="#191970" stroke="#191970" points="130.9762,-27.181 138.3417,-19.5653 127.8346,-20.9256 130.9762,-27.181"/>
</g>
<!-- Node26 -->
<g id="node3" class="node">
<title>Node26</title>
<g id="a_node3"><a xlink:href="parserutil_8c.html#a2d9e8c20025b7b883c4e87790685a6ad" target="_top" xlink:title="Proxy to parser_next.">
<polygon fill="#ffffff" stroke="#000000" points="257,-246.5 257,-265.5 343,-265.5 343,-246.5 257,-246.5"/>
<text text-anchor="middle" x="300" y="-253.5" font-family="Helvetica,sans-Serif" font-size="10.00" fill="#000000">parser_advance</text>
</a>
</g>
</g>
<!-- Node25&#45;&gt;Node26 -->
<g id="edge2" class="edge">
<title>Node25&#45;&gt;Node26</title>
<path fill="none" stroke="#191970" d="M211.8056,-256C222.8496,-256 234.9949,-256 246.6477,-256"/>
<polygon fill="#191970" stroke="#191970" points="246.7211,-259.5001 256.7211,-256 246.721,-252.5001 246.7211,-259.5001"/>
</g>
<!-- Node27 -->
<g id="node4" class="node">
<title>Node27</title>
<g id="a_node4"><a xlink:href="parserutil_8c.html#ab25a97ff31329fe9461666bfe2dc6f2c" target="_top" xlink:title="Iterate the parser.">
<polygon fill="#ffffff" stroke="#000000" points="379,-246.5 379,-265.5 447,-265.5 447,-246.5 379,-246.5"/>
<text text-anchor="middle" x="413" y="-253.5" font-family="Helvetica,sans-Serif" font-size="10.00" fill="#000000">parser_next</text>
</a>
</g>
</g>
<!-- Node26&#45;&gt;Node27 -->
<g id="edge3" class="edge">
<title>Node26&#45;&gt;Node27</title>
<path fill="none" stroke="#191970" d="M343.0428,-256C351.4677,-256 360.3165,-256 368.7791,-256"/>
<polygon fill="#191970" stroke="#191970" points="368.8556,-259.5001 378.8556,-256 368.8555,-252.5001 368.8556,-259.5001"/>
</g>
<!-- Node31&#45;&gt;Node31 -->
<g id="edge8" class="edge">
<title>Node31&#45;&gt;Node31</title>
<path fill="none" stroke="#191970" d="M151.7715,-95.7571C142.1738,-104.5653 148.75,-114 171.5,-114 186.0742,-114 194.0107,-110.128 195.3094,-105.0292"/>
<polygon fill="#191970" stroke="#191970" points="198.4604,-103.4998 191.2285,-95.7571 192.0535,-106.3197 198.4604,-103.4998"/>
</g>
<!-- Node32 -->
<g id="node9" class="node">
<title>Node32</title>
<g id="a_node9"><a xlink:href="token_8h.html#a863ec10d282f1f7e0dbbbaae6cec4f15" target="_top" xlink:title="Destroys a token object.Also frees the token&#39;s value.">
<polygon fill="#ffffff" stroke="#000000" points="269,-76.5 269,-95.5 331,-95.5 331,-76.5 269,-76.5"/>
<text text-anchor="middle" x="300" y="-83.5" font-family="Helvetica,sans-Serif" font-size="10.00" fill="#000000">token_free</text>
</a>
</g>
</g>
<!-- Node31&#45;&gt;Node32 -->
<g id="edge9" class="edge">
<title>Node31&#45;&gt;Node32</title>
<path fill="none" stroke="#191970" d="M200.6586,-86C217.7778,-86 239.6914,-86 258.5793,-86"/>
<polygon fill="#191970" stroke="#191970" points="258.7118,-89.5001 268.7117,-86 258.7117,-82.5001 258.7118,-89.5001"/>
</g>
<!-- Node34 -->
<g id="node11" class="node">
<title>Node34</title>
<g id="a_node11"><a xlink:href="error_8c.html#a97e94bccb231e66498eb7b2b72d8ec87" target="_top" xlink:title="Pop and return the top element of the errorstack.">
<polygon fill="#ffffff" stroke="#000000" points="259.5,-38.5 259.5,-57.5 340.5,-57.5 340.5,-38.5 259.5,-38.5"/>
<text text-anchor="middle" x="300" y="-45.5" font-family="Helvetica,sans-Serif" font-size="10.00" fill="#000000">errorstack_pop</text>
</a>
</g>
</g>
<!-- Node33&#45;&gt;Node34 -->
<g id="edge11" class="edge">
<title>Node33&#45;&gt;Node34</title>
<path fill="none" stroke="#191970" d="M221.1815,-48C230.3152,-48 239.8636,-48 249.0345,-48"/>
<polygon fill="#191970" stroke="#191970" points="249.186,-51.5001 259.1859,-48 249.1859,-44.5001 249.186,-51.5001"/>
</g>
</g>
</svg>
