<?xml version="1.0" encoding="UTF-8" standalone="no"?>
<!DOCTYPE svg PUBLIC "-//W3C//DTD SVG 1.1//EN"
 "http://www.w3.org/Graphics/SVG/1.1/DTD/svg11.dtd">
<!-- Generated by graphviz version 2.40.1 (20161225.0304)
 -->
<!-- Title: PARSERFUNC Pages: 1 -->
<svg width="453pt" height="218pt"
 viewBox="0.00 0.00 453.00 218.00" xmlns="http://www.w3.org/2000/svg" xmlns:xlink="http://www.w3.org/1999/xlink">
<g id="graph0" class="graph" transform="scale(1 1) rotate(0) translate(4 214)">
<title>PARSERFUNC</title>
<polygon fill="#ffffff" stroke="transparent" points="-4,4 -4,-214 449,-214 449,4 -4,4"/>
<!-- Node70 -->
<g id="node1" class="node">
<title>Node70</title>
<g id="a_node1"><a xlink:title="Accepts any full expression.">
<polygon fill="#bfbfbf" stroke="#000000" points="0,-95.5 0,-114.5 86,-114.5 86,-95.5 0,-95.5"/>
<text text-anchor="middle" x="43" y="-102.5" font-family="Helvetica,sans-Serif" font-size="10.00" fill="#000000">PARSERFUNC</text>
</a>
</g>
</g>
<!-- Node71 -->
<g id="node2" class="node">
<title>Node71</title>
<g id="a_node2"><a xlink:href="parser_8h.html#a8c4c57eca60b2cec9a372a04abea456d" target="_top" xlink:title="Advances the parser as long as it can find whitespace.">
<polygon fill="#ffffff" stroke="#000000" points="130.5,-190.5 130.5,-209.5 210.5,-209.5 210.5,-190.5 130.5,-190.5"/>
<text text-anchor="middle" x="170.5" y="-197.5" font-family="Helvetica,sans-Serif" font-size="10.00" fill="#000000">parser_skipws</text>
</a>
</g>
</g>
<!-- Node70&#45;&gt;Node71 -->
<g id="edge1" class="edge">
<title>Node70&#45;&gt;Node71</title>
<path fill="none" stroke="#191970" d="M50.8038,-114.6568C63.9953,-130.4383 92.1922,-161.9063 122,-181 124.9448,-182.8863 128.1067,-184.6363 131.3529,-186.2482"/>
<polygon fill="#191970" stroke="#191970" points="130.0592,-189.5042 140.6142,-190.4232 132.9361,-183.1226 130.0592,-189.5042"/>
</g>
<!-- Node74 -->
<g id="node5" class="node">
<title>Node74</title>
<g id="a_node5"><a xlink:href="parser_8h.html#a1a00af051004cb18edac760f39982eea" target="_top" xlink:title="Searches for the given character, advances the parser if it found it.">
<polygon fill="#ffffff" stroke="#000000" points="122,-152.5 122,-171.5 219,-171.5 219,-152.5 122,-152.5"/>
<text text-anchor="middle" x="170.5" y="-159.5" font-family="Helvetica,sans-Serif" font-size="10.00" fill="#000000">parser_acceptchar</text>
</a>
</g>
</g>
<!-- Node70&#45;&gt;Node74 -->
<g id="edge4" class="edge">
<title>Node70&#45;&gt;Node74</title>
<path fill="none" stroke="#191970" d="M61.9707,-114.6194C77.859,-122.5559 101.2102,-133.9429 122,-143 126.4303,-144.9301 131.1243,-146.8823 135.7789,-148.7632"/>
<polygon fill="#191970" stroke="#191970" points="134.5946,-152.0587 145.1805,-152.4942 137.1767,-145.5523 134.5946,-152.0587"/>
</g>
<!-- Node75 -->
<g id="node6" class="node">
<title>Node75</title>
<g id="a_node6"><a xlink:href="AST_8c.html#a8c2fa2cf1cd82b5d85d7297e1150980b" target="_top" xlink:title="Constructore for ast objects.">
<polygon fill="#ffffff" stroke="#000000" points="141,-114.5 141,-133.5 200,-133.5 200,-114.5 141,-114.5"/>
<text text-anchor="middle" x="170.5" y="-121.5" font-family="Helvetica,sans-Serif" font-size="10.00" fill="#000000">AST_new</text>
</a>
</g>
</g>
<!-- Node70&#45;&gt;Node75 -->
<g id="edge6" class="edge">
<title>Node70&#45;&gt;Node75</title>
<path fill="none" stroke="#191970" d="M86.1657,-111.4325C100.5828,-113.581 116.5733,-115.9639 130.7205,-118.0721"/>
<polygon fill="#191970" stroke="#191970" points="130.2405,-121.5391 140.6472,-119.5513 131.2723,-114.6156 130.2405,-121.5391"/>
</g>
<!-- Node76 -->
<g id="node7" class="node">
<title>Node76</title>
<g id="a_node7"><a xlink:href="token_8h.html#a6df9cba793453cf8281c9843e576fe40" target="_top" xlink:title="Constructor for token objects.">
<polygon fill="#ffffff" stroke="#000000" points="138.5,-76.5 138.5,-95.5 202.5,-95.5 202.5,-76.5 138.5,-76.5"/>
<text text-anchor="middle" x="170.5" y="-83.5" font-family="Helvetica,sans-Serif" font-size="10.00" fill="#000000">token_new</text>
</a>
</g>
</g>
<!-- Node70&#45;&gt;Node76 -->
<g id="edge7" class="edge">
<title>Node70&#45;&gt;Node76</title>
<path fill="none" stroke="#191970" d="M86.1657,-98.5675C99.752,-96.5428 114.7356,-94.31 128.2571,-92.295"/>
<polygon fill="#191970" stroke="#191970" points="128.8897,-95.7395 138.2646,-90.8037 127.8579,-88.8159 128.8897,-95.7395"/>
</g>
<!-- Node77 -->
<g id="node8" class="node">
<title>Node77</title>
<g id="a_node8"><a xlink:href="AST_8c.html#a6d2da376a87fc874be61ece3d28c7a4f" target="_top" xlink:title="Adds a child ast node to a parent ast node.">
<polygon fill="#ffffff" stroke="#000000" points="130.5,-38.5 130.5,-57.5 210.5,-57.5 210.5,-38.5 130.5,-38.5"/>
<text text-anchor="middle" x="170.5" y="-45.5" font-family="Helvetica,sans-Serif" font-size="10.00" fill="#000000">AST_addChild</text>
</a>
</g>
</g>
<!-- Node70&#45;&gt;Node77 -->
<g id="edge8" class="edge">
<title>Node70&#45;&gt;Node77</title>
<path fill="none" stroke="#191970" d="M61.9707,-95.3806C77.859,-87.4441 101.2102,-76.0571 122,-67 126.4303,-65.0699 131.1243,-63.1177 135.7789,-61.2368"/>
<polygon fill="#191970" stroke="#191970" points="137.1767,-64.4477 145.1805,-57.5058 134.5946,-57.9413 137.1767,-64.4477"/>
</g>
<!-- Node78 -->
<g id="node9" class="node">
<title>Node78</title>
<g id="a_node9"><a xlink:href="error_8c.html#afe624477a33ab8814a9454f58a0bc1fa" target="_top" xlink:title="Construct a new error object out of parameters, and push it to the errorstack.">
<polygon fill="#ffffff" stroke="#000000" points="127.5,-.5 127.5,-19.5 213.5,-19.5 213.5,-.5 127.5,-.5"/>
<text text-anchor="middle" x="170.5" y="-7.5" font-family="Helvetica,sans-Serif" font-size="10.00" fill="#000000">errorstack_push</text>
</a>
</g>
</g>
<!-- Node70&#45;&gt;Node78 -->
<g id="edge9" class="edge">
<title>Node70&#45;&gt;Node78</title>
<path fill="none" stroke="#191970" d="M50.8038,-95.3432C63.9953,-79.5617 92.1922,-48.0937 122,-29 124.9448,-27.1137 128.1067,-25.3637 131.3529,-23.7518"/>
<polygon fill="#191970" stroke="#191970" points="132.9361,-26.8774 140.6142,-19.5768 130.0592,-20.4958 132.9361,-26.8774"/>
</g>
<!-- Node72 -->
<g id="node3" class="node">
<title>Node72</title>
<g id="a_node3"><a xlink:href="parserutil_8c.html#a2d9e8c20025b7b883c4e87790685a6ad" target="_top" xlink:title="Proxy to parser_next.">
<polygon fill="#ffffff" stroke="#000000" points="255,-171.5 255,-190.5 341,-190.5 341,-171.5 255,-171.5"/>
<text text-anchor="middle" x="298" y="-178.5" font-family="Helvetica,sans-Serif" font-size="10.00" fill="#000000">parser_advance</text>
</a>
</g>
</g>
<!-- Node71&#45;&gt;Node72 -->
<g id="edge2" class="edge">
<title>Node71&#45;&gt;Node72</title>
<path fill="none" stroke="#191970" d="M210.8418,-193.9883C221.5663,-192.3901 233.3173,-190.639 244.6211,-188.9545"/>
<polygon fill="#191970" stroke="#191970" points="245.4594,-192.3683 254.8343,-187.4325 244.4276,-185.4448 245.4594,-192.3683"/>
</g>
<!-- Node73 -->
<g id="node4" class="node">
<title>Node73</title>
<g id="a_node4"><a xlink:href="parserutil_8c.html#ab25a97ff31329fe9461666bfe2dc6f2c" target="_top" xlink:title="Iterate the parser.">
<polygon fill="#ffffff" stroke="#000000" points="377,-171.5 377,-190.5 445,-190.5 445,-171.5 377,-171.5"/>
<text text-anchor="middle" x="411" y="-178.5" font-family="Helvetica,sans-Serif" font-size="10.00" fill="#000000">parser_next</text>
</a>
</g>
</g>
<!-- Node72&#45;&gt;Node73 -->
<g id="edge3" class="edge">
<title>Node72&#45;&gt;Node73</title>
<path fill="none" stroke="#191970" d="M341.0428,-181C349.4677,-181 358.3165,-181 366.7791,-181"/>
<polygon fill="#191970" stroke="#191970" points="366.8556,-184.5001 376.8556,-181 366.8555,-177.5001 366.8556,-184.5001"/>
</g>
<!-- Node74&#45;&gt;Node72 -->
<g id="edge5" class="edge">
<title>Node74&#45;&gt;Node72</title>
<path fill="none" stroke="#191970" d="M219.066,-169.2373C227.5637,-170.5036 236.4435,-171.8269 245.0526,-173.1098"/>
<polygon fill="#191970" stroke="#191970" points="244.5887,-176.5792 254.9954,-174.5915 245.6205,-169.6557 244.5887,-176.5792"/>
</g>
</g>
</svg>
