<?xml version="1.0" encoding="UTF-8" standalone="no"?>
<!DOCTYPE svg PUBLIC "-//W3C//DTD SVG 1.1//EN"
 "http://www.w3.org/Graphics/SVG/1.1/DTD/svg11.dtd">
<!-- Generated by graphviz version 2.40.1 (20161225.0304)
 -->
<!-- Title: files/files.c Pages: 1 -->
<svg width="262pt" height="84pt"
 viewBox="0.00 0.00 262.00 84.00" xmlns="http://www.w3.org/2000/svg" xmlns:xlink="http://www.w3.org/1999/xlink">
<g id="graph0" class="graph" transform="scale(1 1) rotate(0) translate(4 80)">
<title>files/files.c</title>
<polygon fill="#ffffff" stroke="transparent" points="-4,4 -4,-80 258,-80 258,4 -4,4"/>
<!-- Node0 -->
<g id="node1" class="node">
<title>Node0</title>
<g id="a_node1"><a xlink:title=" ">
<polygon fill="#bfbfbf" stroke="#000000" points="89.5,-56.5 89.5,-75.5 154.5,-75.5 154.5,-56.5 89.5,-56.5"/>
<text text-anchor="middle" x="122" y="-63.5" font-family="Helvetica,sans-Serif" font-size="10.00" fill="#000000">files/files.c</text>
</a>
</g>
</g>
<!-- Node1 -->
<g id="node2" class="node">
<title>Node1</title>
<g id="a_node2"><a xlink:title=" ">
<polygon fill="#ffffff" stroke="#bfbfbf" points="0,-.5 0,-19.5 46,-19.5 46,-.5 0,-.5"/>
<text text-anchor="middle" x="23" y="-7.5" font-family="Helvetica,sans-Serif" font-size="10.00" fill="#000000">stdio.h</text>
</a>
</g>
</g>
<!-- Node0&#45;&gt;Node1 -->
<g id="edge1" class="edge">
<title>Node0&#45;&gt;Node1</title>
<path fill="none" stroke="#191970" d="M104.7555,-56.2455C89.4239,-47.5731 66.7801,-34.7645 49.2084,-24.825"/>
<polygon fill="#191970" stroke="#191970" points="50.4741,-21.5198 40.0469,-19.6427 47.0276,-27.6126 50.4741,-21.5198"/>
</g>
<!-- Node2 -->
<g id="node3" class="node">
<title>Node2</title>
<g id="a_node3"><a xlink:title=" ">
<polygon fill="#ffffff" stroke="#bfbfbf" points="64.5,-.5 64.5,-19.5 113.5,-19.5 113.5,-.5 64.5,-.5"/>
<text text-anchor="middle" x="89" y="-7.5" font-family="Helvetica,sans-Serif" font-size="10.00" fill="#000000">stdint.h</text>
</a>
</g>
</g>
<!-- Node0&#45;&gt;Node2 -->
<g id="edge2" class="edge">
<title>Node0&#45;&gt;Node2</title>
<path fill="none" stroke="#191970" d="M116.2518,-56.2455C111.7565,-48.617 105.3752,-37.7881 99.9175,-28.5267"/>
<polygon fill="#191970" stroke="#191970" points="102.7747,-26.4811 94.6823,-19.6427 96.7439,-30.035 102.7747,-26.4811"/>
</g>
<!-- Node3 -->
<g id="node4" class="node">
<title>Node3</title>
<g id="a_node4"><a xlink:title=" ">
<polygon fill="#ffffff" stroke="#bfbfbf" points="132,-.5 132,-19.5 180,-19.5 180,-.5 132,-.5"/>
<text text-anchor="middle" x="156" y="-7.5" font-family="Helvetica,sans-Serif" font-size="10.00" fill="#000000">stdlib.h</text>
</a>
</g>
</g>
<!-- Node0&#45;&gt;Node3 -->
<g id="edge3" class="edge">
<title>Node0&#45;&gt;Node3</title>
<path fill="none" stroke="#191970" d="M127.9223,-56.2455C132.6027,-48.5367 139.2673,-37.5598 144.9289,-28.2348"/>
<polygon fill="#191970" stroke="#191970" points="147.9475,-30.007 150.1455,-19.6427 141.9639,-26.3741 147.9475,-30.007"/>
</g>
<!-- Node4 -->
<g id="node5" class="node">
<title>Node4</title>
<g id="a_node5"><a xlink:title=" ">
<polygon fill="#ffffff" stroke="#bfbfbf" points="198,-.5 198,-19.5 254,-19.5 254,-.5 198,-.5"/>
<text text-anchor="middle" x="226" y="-7.5" font-family="Helvetica,sans-Serif" font-size="10.00" fill="#000000">stdbool.h</text>
</a>
</g>
</g>
<!-- Node0&#45;&gt;Node4 -->
<g id="edge4" class="edge">
<title>Node0&#45;&gt;Node4</title>
<path fill="none" stroke="#191970" d="M140.1154,-56.2455C156.445,-47.4527 180.671,-34.4079 199.2339,-24.4125"/>
<polygon fill="#191970" stroke="#191970" points="200.9468,-27.4654 208.0922,-19.6427 197.6281,-21.3021 200.9468,-27.4654"/>
</g>
</g>
</svg>
