<?xml version="1.0" encoding="UTF-8" standalone="no"?>
<!DOCTYPE svg PUBLIC "-//W3C//DTD SVG 1.1//EN"
 "http://www.w3.org/Graphics/SVG/1.1/DTD/svg11.dtd">
<!-- Generated by graphviz version 2.40.1 (20161225.0304)
 -->
<!-- Title: files/files.c Pages: 1 -->
<svg width="438pt" height="196pt"
 viewBox="0.00 0.00 438.00 196.00" xmlns="http://www.w3.org/2000/svg" xmlns:xlink="http://www.w3.org/1999/xlink">
<g id="graph0" class="graph" transform="scale(1 1) rotate(0) translate(4 192)">
<title>files/files.c</title>
<polygon fill="#ffffff" stroke="transparent" points="-4,4 -4,-192 434,-192 434,4 -4,4"/>
<!-- Node0 -->
<g id="node1" class="node">
<title>Node0</title>
<g id="a_node1"><a xlink:title=" ">
<polygon fill="#bfbfbf" stroke="#000000" points="211.5,-168.5 211.5,-187.5 276.5,-187.5 276.5,-168.5 211.5,-168.5"/>
<text text-anchor="middle" x="244" y="-175.5" font-family="Helvetica,sans-Serif" font-size="10.00" fill="#000000">files/files.c</text>
</a>
</g>
</g>
<!-- Node1 -->
<g id="node2" class="node">
<title>Node1</title>
<g id="a_node2"><a xlink:title=" ">
<polygon fill="#ffffff" stroke="#bfbfbf" points="45.5,-112.5 45.5,-131.5 104.5,-131.5 104.5,-112.5 45.5,-112.5"/>
<text text-anchor="middle" x="75" y="-119.5" font-family="Helvetica,sans-Serif" font-size="10.00" fill="#000000">inttypes.h</text>
</a>
</g>
</g>
<!-- Node0&#45;&gt;Node1 -->
<g id="edge1" class="edge">
<title>Node0&#45;&gt;Node1</title>
<path fill="none" stroke="#191970" d="M214.9479,-168.3733C186.8457,-159.0613 144.0946,-144.8953 113.2393,-134.671"/>
<polygon fill="#191970" stroke="#191970" points="114.2664,-131.3243 103.673,-131.5011 112.0645,-137.969 114.2664,-131.3243"/>
</g>
<!-- Node2 -->
<g id="node3" class="node">
<title>Node2</title>
<g id="a_node3"><a xlink:href="program_8h.html" target="_top" xlink:title=" ">
<polygon fill="#ffffff" stroke="#000000" points="123,-112.5 123,-131.5 183,-131.5 183,-112.5 123,-112.5"/>
<text text-anchor="middle" x="153" y="-119.5" font-family="Helvetica,sans-Serif" font-size="10.00" fill="#000000">program.h</text>
</a>
</g>
</g>
<!-- Node0&#45;&gt;Node2 -->
<g id="edge2" class="edge">
<title>Node0&#45;&gt;Node2</title>
<path fill="none" stroke="#191970" d="M228.149,-168.2455C214.1868,-159.6534 193.6272,-147.0014 177.5404,-137.1018"/>
<polygon fill="#191970" stroke="#191970" points="179.0203,-133.9029 168.6693,-131.6427 175.3516,-139.8645 179.0203,-133.9029"/>
</g>
<!-- Node4 -->
<g id="node5" class="node">
<title>Node4</title>
<g id="a_node5"><a xlink:title=" ">
<polygon fill="#ffffff" stroke="#bfbfbf" points="96.5,-.5 96.5,-19.5 145.5,-19.5 145.5,-.5 96.5,-.5"/>
<text text-anchor="middle" x="121" y="-7.5" font-family="Helvetica,sans-Serif" font-size="10.00" fill="#000000">stdint.h</text>
</a>
</g>
</g>
<!-- Node0&#45;&gt;Node4 -->
<g id="edge9" class="edge">
<title>Node0&#45;&gt;Node4</title>
<path fill="none" stroke="#191970" d="M242.4799,-168.3696C238.5598,-146.2393 226.2904,-90.9788 197,-56 185.6284,-42.42 169.1646,-31.7667 154.466,-24.1472"/>
<polygon fill="#191970" stroke="#191970" points="155.6535,-20.8317 145.1331,-19.5779 152.5754,-27.1186 155.6535,-20.8317"/>
</g>
<!-- Node6 -->
<g id="node7" class="node">
<title>Node6</title>
<g id="a_node7"><a xlink:title=" ">
<polygon fill="#ffffff" stroke="#bfbfbf" points="244,-112.5 244,-131.5 300,-131.5 300,-112.5 244,-112.5"/>
<text text-anchor="middle" x="272" y="-119.5" font-family="Helvetica,sans-Serif" font-size="10.00" fill="#000000">stdbool.h</text>
</a>
</g>
</g>
<!-- Node0&#45;&gt;Node6 -->
<g id="edge8" class="edge">
<title>Node0&#45;&gt;Node6</title>
<path fill="none" stroke="#191970" d="M248.8772,-168.2455C252.6513,-160.6973 257.9921,-150.0158 262.5901,-140.8197"/>
<polygon fill="#191970" stroke="#191970" points="265.837,-142.1522 267.1787,-131.6427 259.576,-139.0217 265.837,-142.1522"/>
</g>
<!-- Node7 -->
<g id="node8" class="node">
<title>Node7</title>
<g id="a_node8"><a xlink:title=" ">
<polygon fill="#ffffff" stroke="#bfbfbf" points="318,-112.5 318,-131.5 364,-131.5 364,-112.5 318,-112.5"/>
<text text-anchor="middle" x="341" y="-119.5" font-family="Helvetica,sans-Serif" font-size="10.00" fill="#000000">stdio.h</text>
</a>
</g>
</g>
<!-- Node0&#45;&gt;Node7 -->
<g id="edge10" class="edge">
<title>Node0&#45;&gt;Node7</title>
<path fill="none" stroke="#191970" d="M260.8961,-168.2455C275.918,-159.5731 298.1043,-146.7645 315.321,-136.825"/>
<polygon fill="#191970" stroke="#191970" points="317.3871,-139.6737 324.2975,-131.6427 313.8872,-133.6114 317.3871,-139.6737"/>
</g>
<!-- Node8 -->
<g id="node9" class="node">
<title>Node8</title>
<g id="a_node9"><a xlink:title=" ">
<polygon fill="#ffffff" stroke="#bfbfbf" points="382,-112.5 382,-131.5 430,-131.5 430,-112.5 382,-112.5"/>
<text text-anchor="middle" x="406" y="-119.5" font-family="Helvetica,sans-Serif" font-size="10.00" fill="#000000">stdlib.h</text>
</a>
</g>
</g>
<!-- Node0&#45;&gt;Node8 -->
<g id="edge11" class="edge">
<title>Node0&#45;&gt;Node8</title>
<path fill="none" stroke="#191970" d="M271.8488,-168.3733C299.7269,-158.7364 342.6443,-143.9007 372.398,-133.6155"/>
<polygon fill="#191970" stroke="#191970" points="373.6353,-136.8911 381.943,-130.316 371.3483,-130.2752 373.6353,-136.8911"/>
</g>
<!-- Node3 -->
<g id="node4" class="node">
<title>Node3</title>
<g id="a_node4"><a xlink:href="constant_8h.html" target="_top" xlink:title=" ">
<polygon fill="#ffffff" stroke="#000000" points="0,-56.5 0,-75.5 62,-75.5 62,-56.5 0,-56.5"/>
<text text-anchor="middle" x="31" y="-63.5" font-family="Helvetica,sans-Serif" font-size="10.00" fill="#000000">constant.h</text>
</a>
</g>
</g>
<!-- Node2&#45;&gt;Node3 -->
<g id="edge3" class="edge">
<title>Node2&#45;&gt;Node3</title>
<path fill="none" stroke="#191970" d="M132.0275,-112.3733C112.4433,-103.3838 83.0039,-89.8706 60.949,-79.7471"/>
<polygon fill="#191970" stroke="#191970" points="62.2473,-76.4919 51.6989,-75.5011 59.3271,-82.8538 62.2473,-76.4919"/>
</g>
<!-- Node2&#45;&gt;Node4 -->
<g id="edge7" class="edge">
<title>Node2&#45;&gt;Node4</title>
<path fill="none" stroke="#191970" d="M139.3664,-112.4516C128.8452,-104.1822 115.0909,-91.1795 109,-76 102.9174,-60.841 107.1012,-42.4825 112.1281,-28.98"/>
<polygon fill="#191970" stroke="#191970" points="115.365,-30.3114 115.9805,-19.7345 108.9035,-27.619 115.365,-30.3114"/>
</g>
<!-- Node5 -->
<g id="node6" class="node">
<title>Node5</title>
<g id="a_node6"><a xlink:href="instruction_8h.html" target="_top" xlink:title=" ">
<polygon fill="#ffffff" stroke="#000000" points="118,-56.5 118,-75.5 188,-75.5 188,-56.5 118,-56.5"/>
<text text-anchor="middle" x="153" y="-63.5" font-family="Helvetica,sans-Serif" font-size="10.00" fill="#000000">instruction.h</text>
</a>
</g>
</g>
<!-- Node2&#45;&gt;Node5 -->
<g id="edge5" class="edge">
<title>Node2&#45;&gt;Node5</title>
<path fill="none" stroke="#191970" d="M153,-112.2455C153,-104.9382 153,-94.6944 153,-85.7046"/>
<polygon fill="#191970" stroke="#191970" points="156.5001,-85.6426 153,-75.6427 149.5001,-85.6427 156.5001,-85.6426"/>
</g>
<!-- Node3&#45;&gt;Node4 -->
<g id="edge4" class="edge">
<title>Node3&#45;&gt;Node4</title>
<path fill="none" stroke="#191970" d="M46.6768,-56.2455C60.4856,-47.6534 80.8193,-35.0014 96.7292,-25.1018"/>
<polygon fill="#191970" stroke="#191970" points="98.8613,-27.8974 105.5028,-19.6427 95.1632,-21.954 98.8613,-27.8974"/>
</g>
<!-- Node5&#45;&gt;Node4 -->
<g id="edge6" class="edge">
<title>Node5&#45;&gt;Node4</title>
<path fill="none" stroke="#191970" d="M147.426,-56.2455C143.0669,-48.617 136.8789,-37.7881 131.5867,-28.5267"/>
<polygon fill="#191970" stroke="#191970" points="134.5104,-26.5886 126.5101,-19.6427 128.4327,-30.0616 134.5104,-26.5886"/>
</g>
</g>
</svg>
