<?xml version="1.0" encoding="UTF-8" standalone="no"?>
<!DOCTYPE svg PUBLIC "-//W3C//DTD SVG 1.1//EN"
 "http://www.w3.org/Graphics/SVG/1.1/DTD/svg11.dtd">
<!-- Generated by graphviz version 2.40.1 (20161225.0304)
 -->
<!-- Title: PARSERFUNC Pages: 1 -->
<svg width="682pt" height="300pt"
 viewBox="0.00 0.00 682.00 299.97" xmlns="http://www.w3.org/2000/svg" xmlns:xlink="http://www.w3.org/1999/xlink">
<g id="graph0" class="graph" transform="scale(1 1) rotate(0) translate(4 295.9672)">
<title>PARSERFUNC</title>
<polygon fill="#ffffff" stroke="transparent" points="-4,4 -4,-295.9672 678,-295.9672 678,4 -4,4"/>
<!-- Node0 -->
<g id="node1" class="node">
<title>Node0</title>
<g id="a_node1"><a xlink:title="Accepts a floating point constant in the format of.">
<polygon fill="#bfbfbf" stroke="#000000" points="0,-120.4672 0,-139.4672 86,-139.4672 86,-120.4672 0,-120.4672"/>
<text text-anchor="middle" x="43" y="-127.4672" font-family="Helvetica,sans-Serif" font-size="10.00" fill="#000000">PARSERFUNC</text>
</a>
</g>
</g>
<!-- Node1 -->
<g id="node2" class="node">
<title>Node1</title>
<g id="a_node2"><a xlink:href="parser_8h.html#a8c4c57eca60b2cec9a372a04abea456d" target="_top" xlink:title="Advances the parser as long as it can find whitespace.">
<polygon fill="#ffffff" stroke="#000000" points="297.5,-272.4672 297.5,-291.4672 377.5,-291.4672 377.5,-272.4672 297.5,-272.4672"/>
<text text-anchor="middle" x="337.5" y="-279.4672" font-family="Helvetica,sans-Serif" font-size="10.00" fill="#000000">parser_skipws</text>
</a>
</g>
</g>
<!-- Node0&#45;&gt;Node1 -->
<g id="edge1" class="edge">
<title>Node0&#45;&gt;Node1</title>
<path fill="none" stroke="#191970" d="M48.3121,-139.7466C59.3573,-159.1261 86.7356,-202.4713 122,-224.9672 172.6552,-257.2813 241.1318,-271.3653 287.1816,-277.4459"/>
<polygon fill="#191970" stroke="#191970" points="286.8727,-280.9343 297.2277,-278.6926 287.7349,-273.9876 286.8727,-280.9343"/>
</g>
<!-- Node4 -->
<g id="node5" class="node">
<title>Node4</title>
<g id="a_node5"><a xlink:href="parser_8h.html#a3c9c52258898d196f76b4d58595b33b9" target="_top" xlink:title="Advances the parser only if the next n characters (where n is the length of the string) matches the s...">
<polygon fill="#ffffff" stroke="#000000" points="136,-196.4672 136,-215.4672 238,-215.4672 238,-196.4672 136,-196.4672"/>
<text text-anchor="middle" x="187" y="-203.4672" font-family="Helvetica,sans-Serif" font-size="10.00" fill="#000000">parser_acceptstring</text>
</a>
</g>
</g>
<!-- Node0&#45;&gt;Node4 -->
<g id="edge4" class="edge">
<title>Node0&#45;&gt;Node4</title>
<path fill="none" stroke="#191970" d="M53.736,-139.5714C68.2569,-152.1052 95.4103,-173.9683 122,-186.9672 126.6342,-189.2328 131.5892,-191.2798 136.6189,-193.1168"/>
<polygon fill="#191970" stroke="#191970" points="135.7245,-196.5089 146.3187,-196.3925 137.9643,-189.8768 135.7245,-196.5089"/>
</g>
<!-- Node9 -->
<g id="node10" class="node">
<title>Node9</title>
<g id="a_node10"><a xlink:href="AST_8c.html#a3a1c70c232e669f02ef0a4e171ee6ab2" target="_top" xlink:title="Constructore for ast objects.">
<polygon fill="#ffffff" stroke="#000000" points="157.5,-158.4672 157.5,-177.4672 216.5,-177.4672 216.5,-158.4672 157.5,-158.4672"/>
<text text-anchor="middle" x="187" y="-165.4672" font-family="Helvetica,sans-Serif" font-size="10.00" fill="#000000">AST_new</text>
</a>
</g>
</g>
<!-- Node0&#45;&gt;Node9 -->
<g id="edge10" class="edge">
<title>Node0&#45;&gt;Node9</title>
<path fill="none" stroke="#191970" d="M79.3373,-139.5563C100.1961,-145.0607 126.3973,-151.9749 147.7294,-157.6042"/>
<polygon fill="#191970" stroke="#191970" points="146.8955,-161.0039 157.4575,-160.1713 148.6816,-154.2356 146.8955,-161.0039"/>
</g>
<!-- Node10 -->
<g id="node11" class="node">
<title>Node10</title>
<g id="a_node11"><a xlink:href="token_8h.html#a5f63b7723640416a125433badc7d6563" target="_top" xlink:title="Constructor for token objects.">
<polygon fill="#ffffff" stroke="#000000" points="155,-120.4672 155,-139.4672 219,-139.4672 219,-120.4672 155,-120.4672"/>
<text text-anchor="middle" x="187" y="-127.4672" font-family="Helvetica,sans-Serif" font-size="10.00" fill="#000000">token_new</text>
</a>
</g>
</g>
<!-- Node0&#45;&gt;Node10 -->
<g id="edge11" class="edge">
<title>Node0&#45;&gt;Node10</title>
<path fill="none" stroke="#191970" d="M86.2047,-129.9672C104.712,-129.9672 126.2582,-129.9672 144.6681,-129.9672"/>
<polygon fill="#191970" stroke="#191970" points="144.8153,-133.4673 154.8152,-129.9672 144.8152,-126.4673 144.8153,-133.4673"/>
</g>
<!-- Node11 -->
<g id="node12" class="node">
<title>Node11</title>
<g id="a_node12"><a xlink:href="helios__float_8c.html#a826b7f7e3b3c75b0161be6e84c349135" target="_top" xlink:title="Create a helios_float object from a c double type.">
<polygon fill="#ffffff" stroke="#000000" points="122,-82.4672 122,-101.4672 252,-101.4672 252,-82.4672 122,-82.4672"/>
<text text-anchor="middle" x="187" y="-89.4672" font-family="Helvetica,sans-Serif" font-size="10.00" fill="#000000">helios_float_from_cdouble</text>
</a>
</g>
</g>
<!-- Node0&#45;&gt;Node11 -->
<g id="edge12" class="edge">
<title>Node0&#45;&gt;Node11</title>
<path fill="none" stroke="#191970" d="M79.3373,-120.3782C98.0829,-115.4315 121.1432,-109.3461 141.1066,-104.078"/>
<polygon fill="#191970" stroke="#191970" points="142.1481,-107.4231 150.924,-101.4873 140.3619,-100.6548 142.1481,-107.4231"/>
</g>
<!-- Node15 -->
<g id="node16" class="node">
<title>Node15</title>
<g id="a_node16"><a xlink:href="error_8c.html#a1febf822c4d9249dd4afd09c5d5f87bb" target="_top" xlink:title="Construct a new error object out of parameters, and push it to the errorstack.">
<polygon fill="#ffffff" stroke="#000000" points="144,-44.4672 144,-63.4672 230,-63.4672 230,-44.4672 144,-44.4672"/>
<text text-anchor="middle" x="187" y="-51.4672" font-family="Helvetica,sans-Serif" font-size="10.00" fill="#000000">errorstack_push</text>
</a>
</g>
</g>
<!-- Node0&#45;&gt;Node15 -->
<g id="edge16" class="edge">
<title>Node0&#45;&gt;Node15</title>
<path fill="none" stroke="#191970" d="M53.736,-120.3631C68.2569,-107.8292 95.4103,-85.9662 122,-72.9672 126.6342,-70.7017 131.5892,-68.6547 136.6189,-66.8177"/>
<polygon fill="#191970" stroke="#191970" points="137.9643,-70.0577 146.3187,-63.542 135.7245,-63.4256 137.9643,-70.0577"/>
</g>
<!-- Node16 -->
<g id="node17" class="node">
<title>Node16</title>
<g id="a_node17"><a xlink:href="parser_8h.html#a2d9e8c20025b7b883c4e87790685a6ad" target="_top" xlink:title="Proxy to parser_next.">
<polygon fill="#ffffff" stroke="#000000" points="453.5,-16.4672 453.5,-35.4672 539.5,-35.4672 539.5,-16.4672 453.5,-16.4672"/>
<text text-anchor="middle" x="496.5" y="-23.4672" font-family="Helvetica,sans-Serif" font-size="10.00" fill="#000000">parser_advance</text>
</a>
</g>
</g>
<!-- Node0&#45;&gt;Node16 -->
<g id="edge17" class="edge">
<title>Node0&#45;&gt;Node16</title>
<path fill="none" stroke="#191970" d="M47.4402,-120.3958C57.4171,-100.1775 83.7663,-53.4627 122,-34.9672 227.541,16.0879 370.1465,-.2985 445.281,-14.4609"/>
<polygon fill="#191970" stroke="#191970" points="444.9393,-17.9601 455.4241,-16.4373 446.2781,-11.0893 444.9393,-17.9601"/>
</g>
<!-- Node2 -->
<g id="node3" class="node">
<title>Node2</title>
<g id="a_node3"><a xlink:href="parserutil_8c.html#a2d9e8c20025b7b883c4e87790685a6ad" target="_top" xlink:title="Proxy to parser_next.">
<polygon fill="#ffffff" stroke="#000000" points="453.5,-196.4672 453.5,-215.4672 539.5,-215.4672 539.5,-196.4672 453.5,-196.4672"/>
<text text-anchor="middle" x="496.5" y="-203.4672" font-family="Helvetica,sans-Serif" font-size="10.00" fill="#000000">parser_advance</text>
</a>
</g>
</g>
<!-- Node1&#45;&gt;Node2 -->
<g id="edge2" class="edge">
<title>Node1&#45;&gt;Node2</title>
<path fill="none" stroke="#191970" d="M363.9316,-272.4574C371.4571,-269.5789 379.6142,-266.2941 387,-262.9672 416.1075,-249.8559 448.4147,-232.7044 470.3432,-220.6534"/>
<polygon fill="#191970" stroke="#191970" points="472.2973,-223.5722 479.3525,-215.6681 468.9081,-217.4474 472.2973,-223.5722"/>
</g>
<!-- Node3 -->
<g id="node4" class="node">
<title>Node3</title>
<g id="a_node4"><a xlink:href="parserutil_8c.html#ab25a97ff31329fe9461666bfe2dc6f2c" target="_top" xlink:title="Iterate the parser.">
<polygon fill="#ffffff" stroke="#000000" points="606,-101.4672 606,-120.4672 674,-120.4672 674,-101.4672 606,-101.4672"/>
<text text-anchor="middle" x="640" y="-108.4672" font-family="Helvetica,sans-Serif" font-size="10.00" fill="#000000">parser_next</text>
</a>
</g>
</g>
<!-- Node2&#45;&gt;Node3 -->
<g id="edge3" class="edge">
<title>Node2&#45;&gt;Node3</title>
<path fill="none" stroke="#191970" d="M511.0492,-196.3353C535.9747,-179.8342 587.0348,-146.0313 616.8826,-126.2715"/>
<polygon fill="#191970" stroke="#191970" points="619.006,-129.0633 625.4122,-120.6246 615.1418,-123.2264 619.006,-129.0633"/>
</g>
<!-- Node5 -->
<g id="node6" class="node">
<title>Node5</title>
<g id="a_node6"><a xlink:href="parserutil_8c.html#aecf4b8bdaae9ca8435542900cf024f4e" target="_top" xlink:title="Copy a parser.">
<polygon fill="#ffffff" stroke="#000000" points="302.5,-234.4672 302.5,-253.4672 372.5,-253.4672 372.5,-234.4672 302.5,-234.4672"/>
<text text-anchor="middle" x="337.5" y="-241.4672" font-family="Helvetica,sans-Serif" font-size="10.00" fill="#000000">parser_copy</text>
</a>
</g>
</g>
<!-- Node4&#45;&gt;Node5 -->
<g id="edge5" class="edge">
<title>Node4&#45;&gt;Node5</title>
<path fill="none" stroke="#191970" d="M224.9775,-215.5563C245.4999,-220.738 270.9705,-227.1691 292.4856,-232.6015"/>
<polygon fill="#191970" stroke="#191970" points="291.8221,-236.0437 302.3747,-235.0984 293.5359,-229.2567 291.8221,-236.0437"/>
</g>
<!-- Node6 -->
<g id="node7" class="node">
<title>Node6</title>
<g id="a_node7"><a xlink:href="parserutil_8c.html#a1a00af051004cb18edac760f39982eea" target="_top" xlink:title="Searches for the given character, advances the parser if it found it.">
<polygon fill="#ffffff" stroke="#000000" points="289,-196.4672 289,-215.4672 386,-215.4672 386,-196.4672 289,-196.4672"/>
<text text-anchor="middle" x="337.5" y="-203.4672" font-family="Helvetica,sans-Serif" font-size="10.00" fill="#000000">parser_acceptchar</text>
</a>
</g>
</g>
<!-- Node4&#45;&gt;Node6 -->
<g id="edge6" class="edge">
<title>Node4&#45;&gt;Node6</title>
<path fill="none" stroke="#191970" d="M238.3726,-205.9672C251.4011,-205.9672 265.495,-205.9672 278.854,-205.9672"/>
<polygon fill="#191970" stroke="#191970" points="278.8968,-209.4673 288.8967,-205.9672 278.8967,-202.4673 278.8968,-209.4673"/>
</g>
<!-- Node7 -->
<g id="node8" class="node">
<title>Node7</title>
<g id="a_node8"><a xlink:href="parserutil_8c.html#a1f1841a636bfe529466c99e3db9999cd" target="_top" xlink:title="Restores a parser to another parser&#39;s position.">
<polygon fill="#ffffff" stroke="#000000" points="298,-158.4672 298,-177.4672 377,-177.4672 377,-158.4672 298,-158.4672"/>
<text text-anchor="middle" x="337.5" y="-165.4672" font-family="Helvetica,sans-Serif" font-size="10.00" fill="#000000">parser_restore</text>
</a>
</g>
</g>
<!-- Node4&#45;&gt;Node7 -->
<g id="edge8" class="edge">
<title>Node4&#45;&gt;Node7</title>
<path fill="none" stroke="#191970" d="M224.9775,-196.3782C244.6587,-191.4089 268.8907,-185.2905 289.8206,-180.0059"/>
<polygon fill="#191970" stroke="#191970" points="290.9567,-183.329 299.7956,-177.4873 289.243,-176.542 290.9567,-183.329"/>
</g>
<!-- Node8 -->
<g id="node9" class="node">
<title>Node8</title>
<g id="a_node9"><a xlink:href="parserutil_8c.html#ab62454c7986532e03ea36b14956b5ad1" target="_top" xlink:title="Simple parser destructor.">
<polygon fill="#ffffff" stroke="#000000" points="288,-120.4672 288,-139.4672 387,-139.4672 387,-120.4672 288,-120.4672"/>
<text text-anchor="middle" x="337.5" y="-127.4672" font-family="Helvetica,sans-Serif" font-size="10.00" fill="#000000">parser_free_simple</text>
</a>
</g>
</g>
<!-- Node4&#45;&gt;Node8 -->
<g id="edge9" class="edge">
<title>Node4&#45;&gt;Node8</title>
<path fill="none" stroke="#191970" d="M231.3503,-196.4371C238.533,-193.9402 245.6793,-190.8286 252,-186.9672 271.8529,-174.8389 268.6616,-161.9002 288,-148.9672 290.8801,-147.0411 293.9834,-145.2706 297.182,-143.6517"/>
<polygon fill="#191970" stroke="#191970" points="298.6878,-146.8119 306.3425,-139.4868 295.7906,-140.4396 298.6878,-146.8119"/>
</g>
<!-- Node6&#45;&gt;Node2 -->
<g id="edge7" class="edge">
<title>Node6&#45;&gt;Node2</title>
<path fill="none" stroke="#191970" d="M386.0692,-205.9672C404.1775,-205.9672 424.8223,-205.9672 443.3231,-205.9672"/>
<polygon fill="#191970" stroke="#191970" points="443.3511,-209.4673 453.3511,-205.9672 443.3511,-202.4673 443.3511,-209.4673"/>
</g>
<!-- Node12 -->
<g id="node13" class="node">
<title>Node12</title>
<g id="a_node13"><a xlink:href="helios__float_8c.html#a6b9f18063c74a36f08d05c6310bc45da" target="_top" xlink:title="Constructor of a helios_float object.">
<polygon fill="#ffffff" stroke="#000000" points="295.5,-82.4672 295.5,-101.4672 379.5,-101.4672 379.5,-82.4672 295.5,-82.4672"/>
<text text-anchor="middle" x="337.5" y="-89.4672" font-family="Helvetica,sans-Serif" font-size="10.00" fill="#000000">helios_float_init</text>
</a>
</g>
</g>
<!-- Node11&#45;&gt;Node12 -->
<g id="edge13" class="edge">
<title>Node11&#45;&gt;Node12</title>
<path fill="none" stroke="#191970" d="M252.1362,-91.9672C263.2134,-91.9672 274.5884,-91.9672 285.2774,-91.9672"/>
<polygon fill="#191970" stroke="#191970" points="285.2834,-95.4673 295.2833,-91.9672 285.2833,-88.4673 285.2834,-95.4673"/>
</g>
<!-- Node13 -->
<g id="node14" class="node">
<title>Node13</title>
<g id="a_node14"><a xlink:href="helios__memory_8h.html#af87f0050f8e236d0945592fa4e54dc94" target="_top" xlink:title="Allocates a new helios object (and performs all the GC steps associated with that action).">
<polygon fill="#ffffff" stroke="#000000" points="440,-101.4672 440,-120.4672 553,-120.4672 553,-101.4672 440,-101.4672"/>
<text text-anchor="middle" x="496.5" y="-108.4672" font-family="Helvetica,sans-Serif" font-size="10.00" fill="#000000">helios_allocate_object</text>
</a>
</g>
</g>
<!-- Node12&#45;&gt;Node13 -->
<g id="edge14" class="edge">
<title>Node12&#45;&gt;Node13</title>
<path fill="none" stroke="#191970" d="M379.6916,-97.009C394.9293,-98.8299 412.5319,-100.9333 429.3747,-102.946"/>
<polygon fill="#191970" stroke="#191970" points="429.391,-106.4728 439.7357,-104.1841 430.2217,-99.5222 429.391,-106.4728"/>
</g>
<!-- Node14 -->
<g id="node15" class="node">
<title>Node14</title>
<g id="a_node15"><a xlink:href="helios__memory_8h.html#ab14fb1c046aae61ab06eda8eeaf2cd85" target="_top" xlink:title=" ">
<polygon fill="#ffffff" stroke="#000000" points="423,-63.4672 423,-82.4672 570,-82.4672 570,-63.4672 423,-63.4672"/>
<text text-anchor="middle" x="496.5" y="-70.4672" font-family="Helvetica,sans-Serif" font-size="10.00" fill="#000000">helios_set_garbagecollectable</text>
</a>
</g>
</g>
<!-- Node12&#45;&gt;Node14 -->
<g id="edge15" class="edge">
<title>Node12&#45;&gt;Node14</title>
<path fill="none" stroke="#191970" d="M379.6916,-86.9255C389.9383,-85.701 401.2542,-84.3488 412.6895,-82.9823"/>
<polygon fill="#191970" stroke="#191970" points="413.2315,-86.4426 422.7455,-81.7807 412.4008,-79.492 413.2315,-86.4426"/>
</g>
<!-- Node16&#45;&gt;Node3 -->
<g id="edge18" class="edge">
<title>Node16&#45;&gt;Node3</title>
<path fill="none" stroke="#191970" d="M528.2586,-35.5715C541.5929,-40.2299 556.9925,-46.4559 570,-53.9672 589.5562,-65.2603 609.2746,-81.899 622.7769,-94.2878"/>
<polygon fill="#191970" stroke="#191970" points="620.6356,-97.078 630.3237,-101.3666 625.4245,-91.9725 620.6356,-97.078"/>
</g>
</g>
</svg>
