<?xml version="1.0" encoding="UTF-8" standalone="no"?>
<!DOCTYPE svg PUBLIC "-//W3C//DTD SVG 1.1//EN"
 "http://www.w3.org/Graphics/SVG/1.1/DTD/svg11.dtd">
<!-- Generated by graphviz version 2.40.1 (20161225.0304)
 -->
<!-- Title: PARSERFUNC Pages: 1 -->
<svg width="593pt" height="527pt"
 viewBox="0.00 0.00 593.00 527.06" xmlns="http://www.w3.org/2000/svg" xmlns:xlink="http://www.w3.org/1999/xlink">
<g id="graph0" class="graph" transform="scale(1 1) rotate(0) translate(4 523.0638)">
<title>PARSERFUNC</title>
<polygon fill="#ffffff" stroke="transparent" points="-4,4 -4,-523.0638 589,-523.0638 589,4 -4,4"/>
<!-- Node9 -->
<g id="node1" class="node">
<title>Node9</title>
<g id="a_node1"><a xlink:title="Accepts a floating point constant in the format of.">
<polygon fill="#bfbfbf" stroke="#000000" points="0,-266.5 0,-285.5 86,-285.5 86,-266.5 0,-266.5"/>
<text text-anchor="middle" x="43" y="-273.5" font-family="Helvetica,sans-Serif" font-size="10.00" fill="#000000">PARSERFUNC</text>
</a>
</g>
</g>
<!-- Node10 -->
<g id="node2" class="node">
<title>Node10</title>
<g id="a_node2"><a xlink:href="parser_8h.html#a8c4c57eca60b2cec9a372a04abea456d" target="_top" xlink:title="Advances the parser as long as it can find whitespace.">
<polygon fill="#ffffff" stroke="#000000" points="269.5,-427.5 269.5,-446.5 349.5,-446.5 349.5,-427.5 269.5,-427.5"/>
<text text-anchor="middle" x="309.5" y="-434.5" font-family="Helvetica,sans-Serif" font-size="10.00" fill="#000000">parser_skipws</text>
</a>
</g>
</g>
<!-- Node9&#45;&gt;Node10 -->
<g id="edge1" class="edge">
<title>Node9&#45;&gt;Node10</title>
<path fill="none" stroke="#191970" d="M44.8126,-285.5286C52.5628,-325.1648 84.2474,-476.165 122,-503 158.9499,-529.2644 181.0936,-517.634 224,-503 252.111,-493.4123 278.1667,-470.4234 293.9492,-454.2866"/>
<polygon fill="#191970" stroke="#191970" points="296.9043,-456.2549 301.2225,-446.58 291.8134,-451.4503 296.9043,-456.2549"/>
</g>
<!-- Node13 -->
<g id="node5" class="node">
<title>Node13</title>
<g id="a_node5"><a xlink:href="error_8c.html#a28e1cff59ef8560afa8ede4b201938c6" target="_top" xlink:title="Find the length of an errorstack.">
<polygon fill="#ffffff" stroke="#000000" points="127,-474.5 127,-493.5 219,-493.5 219,-474.5 127,-474.5"/>
<text text-anchor="middle" x="173" y="-481.5" font-family="Helvetica,sans-Serif" font-size="10.00" fill="#000000">errorstack_length</text>
</a>
</g>
</g>
<!-- Node9&#45;&gt;Node13 -->
<g id="edge4" class="edge">
<title>Node9&#45;&gt;Node13</title>
<path fill="none" stroke="#191970" d="M44.316,-285.762C48.9661,-316.5228 67.3943,-412.4991 122,-465 123.6326,-466.5696 125.4065,-468.0119 127.281,-469.3369"/>
<polygon fill="#191970" stroke="#191970" points="125.6148,-472.4168 136.0173,-474.4264 129.1385,-466.3683 125.6148,-472.4168"/>
</g>
<!-- Node14 -->
<g id="node6" class="node">
<title>Node14</title>
<g id="a_node6"><a xlink:href="parser_8h.html#aecf4b8bdaae9ca8435542900cf024f4e" target="_top" xlink:title="Copy a parser.">
<polygon fill="#ffffff" stroke="#000000" points="138,-436.5 138,-455.5 208,-455.5 208,-436.5 138,-436.5"/>
<text text-anchor="middle" x="173" y="-443.5" font-family="Helvetica,sans-Serif" font-size="10.00" fill="#000000">parser_copy</text>
</a>
</g>
</g>
<!-- Node9&#45;&gt;Node14 -->
<g id="edge5" class="edge">
<title>Node9&#45;&gt;Node14</title>
<path fill="none" stroke="#191970" d="M45.4225,-285.6422C52.5391,-312.0528 75.8439,-386.2971 122,-427 124.1592,-428.9041 126.5269,-430.6241 129.0229,-432.1769"/>
<polygon fill="#191970" stroke="#191970" points="127.4064,-435.2813 137.8865,-436.8363 130.6636,-429.0852 127.4064,-435.2813"/>
</g>
<!-- Node15 -->
<g id="node7" class="node">
<title>Node15</title>
<g id="a_node7"><a xlink:href="AST_8c.html#a3a1c70c232e669f02ef0a4e171ee6ab2" target="_top" xlink:title="Constructore for ast objects.">
<polygon fill="#ffffff" stroke="#000000" points="143.5,-398.5 143.5,-417.5 202.5,-417.5 202.5,-398.5 143.5,-398.5"/>
<text text-anchor="middle" x="173" y="-405.5" font-family="Helvetica,sans-Serif" font-size="10.00" fill="#000000">AST_new</text>
</a>
</g>
</g>
<!-- Node9&#45;&gt;Node15 -->
<g id="edge6" class="edge">
<title>Node9&#45;&gt;Node15</title>
<path fill="none" stroke="#191970" d="M47.252,-285.6497C57.2186,-307.2111 84.1402,-359.6991 122,-389 125.6287,-391.8084 129.7159,-394.235 133.9571,-396.3236"/>
<polygon fill="#191970" stroke="#191970" points="132.8004,-399.6361 143.3696,-400.373 135.5669,-393.2059 132.8004,-399.6361"/>
</g>
<!-- Node16 -->
<g id="node8" class="node">
<title>Node16</title>
<g id="a_node8"><a xlink:href="token_8h.html#a6df9cba793453cf8281c9843e576fe40" target="_top" xlink:title="Constructor for token objects.">
<polygon fill="#ffffff" stroke="#000000" points="141,-360.5 141,-379.5 205,-379.5 205,-360.5 141,-360.5"/>
<text text-anchor="middle" x="173" y="-367.5" font-family="Helvetica,sans-Serif" font-size="10.00" fill="#000000">token_new</text>
</a>
</g>
</g>
<!-- Node9&#45;&gt;Node16 -->
<g id="edge7" class="edge">
<title>Node9&#45;&gt;Node16</title>
<path fill="none" stroke="#191970" d="M50.7967,-285.5783C63.9779,-301.222 92.1604,-332.3741 122,-351 125.151,-352.9669 128.537,-354.7777 132.0114,-356.4341"/>
<polygon fill="#191970" stroke="#191970" points="130.7466,-359.7004 141.3143,-360.4588 133.5261,-353.2758 130.7466,-359.7004"/>
</g>
<!-- Node17 -->
<g id="node9" class="node">
<title>Node17</title>
<g id="a_node9"><a xlink:href="AST_8c.html#adc8be8765bd5abffeef1f5649587cb45" target="_top" xlink:title="Destructor for ast objects.">
<polygon fill="#ffffff" stroke="#000000" points="144,-304.5 144,-323.5 202,-323.5 202,-304.5 144,-304.5"/>
<text text-anchor="middle" x="173" y="-311.5" font-family="Helvetica,sans-Serif" font-size="10.00" fill="#000000">AST_free</text>
</a>
</g>
</g>
<!-- Node9&#45;&gt;Node17 -->
<g id="edge8" class="edge">
<title>Node9&#45;&gt;Node17</title>
<path fill="none" stroke="#191970" d="M75.8045,-285.589C93.5294,-290.7701 115.5275,-297.2004 134.1107,-302.6323"/>
<polygon fill="#191970" stroke="#191970" points="133.1742,-306.005 143.7546,-305.4513 135.1382,-299.2862 133.1742,-306.005"/>
</g>
<!-- Node19 -->
<g id="node11" class="node">
<title>Node19</title>
<g id="a_node11"><a xlink:href="error_8c.html#ade2d9bb9a151b899f16f096d482a9f0e" target="_top" xlink:title="pop the errorstack until it has a desired length.">
<polygon fill="#ffffff" stroke="#000000" points="123.5,-266.5 123.5,-285.5 222.5,-285.5 222.5,-266.5 123.5,-266.5"/>
<text text-anchor="middle" x="173" y="-273.5" font-family="Helvetica,sans-Serif" font-size="10.00" fill="#000000">errorstack_popuntil</text>
</a>
</g>
</g>
<!-- Node9&#45;&gt;Node19 -->
<g id="edge11" class="edge">
<title>Node9&#45;&gt;Node19</title>
<path fill="none" stroke="#191970" d="M86.2881,-276C94.8745,-276 104.032,-276 113.0586,-276"/>
<polygon fill="#191970" stroke="#191970" points="113.1569,-279.5001 123.1568,-276 113.1568,-272.5001 113.1569,-279.5001"/>
</g>
<!-- Node21 -->
<g id="node13" class="node">
<title>Node21</title>
<g id="a_node13"><a xlink:href="parser_8h.html#a1f1841a636bfe529466c99e3db9999cd" target="_top" xlink:title="Restores a parser to another parser&#39;s position.">
<polygon fill="#ffffff" stroke="#000000" points="133.5,-228.5 133.5,-247.5 212.5,-247.5 212.5,-228.5 133.5,-228.5"/>
<text text-anchor="middle" x="173" y="-235.5" font-family="Helvetica,sans-Serif" font-size="10.00" fill="#000000">parser_restore</text>
</a>
</g>
</g>
<!-- Node9&#45;&gt;Node21 -->
<g id="edge13" class="edge">
<title>Node9&#45;&gt;Node21</title>
<path fill="none" stroke="#191970" d="M75.8045,-266.411C92.2783,-261.5956 112.4434,-255.7012 130.1273,-250.532"/>
<polygon fill="#191970" stroke="#191970" points="131.5897,-253.7511 140.206,-247.5859 129.6256,-247.0323 131.5897,-253.7511"/>
</g>
<!-- Node22 -->
<g id="node14" class="node">
<title>Node22</title>
<g id="a_node14"><a xlink:href="AST_8c.html#a5f9c0bcd1d544aac044f4acf93c27ddb" target="_top" xlink:title="Adds a child ast node to a parent ast node.">
<polygon fill="#ffffff" stroke="#000000" points="133,-190.5 133,-209.5 213,-209.5 213,-190.5 133,-190.5"/>
<text text-anchor="middle" x="173" y="-197.5" font-family="Helvetica,sans-Serif" font-size="10.00" fill="#000000">AST_addChild</text>
</a>
</g>
</g>
<!-- Node9&#45;&gt;Node22 -->
<g id="edge14" class="edge">
<title>Node9&#45;&gt;Node22</title>
<path fill="none" stroke="#191970" d="M54.1351,-266.4713C68.8773,-254.2186 96.0461,-232.8709 122,-219 125.7499,-216.9959 129.7574,-215.1092 133.816,-213.3607"/>
<polygon fill="#191970" stroke="#191970" points="135.3178,-216.529 143.2816,-209.5412 132.6984,-210.0375 135.3178,-216.529"/>
</g>
<!-- Node23 -->
<g id="node15" class="node">
<title>Node23</title>
<g id="a_node15"><a xlink:href="parser_8h.html#ad7f3825521eb3e5bd3af734357caa4d6" target="_top" xlink:title="If the parser can accept the given character, accept it, else push an error on the parsers errorstack...">
<polygon fill="#ffffff" stroke="#000000" points="124.5,-114.5 124.5,-133.5 221.5,-133.5 221.5,-114.5 124.5,-114.5"/>
<text text-anchor="middle" x="173" y="-121.5" font-family="Helvetica,sans-Serif" font-size="10.00" fill="#000000">parser_expectchar</text>
</a>
</g>
</g>
<!-- Node9&#45;&gt;Node23 -->
<g id="edge15" class="edge">
<title>Node9&#45;&gt;Node23</title>
<path fill="none" stroke="#191970" d="M46.6715,-266.3525C55.9513,-243.1051 82.4564,-183.3057 122,-148 126.1972,-144.2526 131.0819,-140.9778 136.1335,-138.1524"/>
<polygon fill="#191970" stroke="#191970" points="137.9318,-141.1658 145.2941,-133.5469 134.7875,-134.9117 137.9318,-141.1658"/>
</g>
<!-- Node25 -->
<g id="node17" class="node">
<title>Node25</title>
<g id="a_node17"><a xlink:href="error_8c.html#afe624477a33ab8814a9454f58a0bc1fa" target="_top" xlink:title="Construct a new error object out of parameters, and push it to the errorstack.">
<polygon fill="#ffffff" stroke="#000000" points="266.5,-152.5 266.5,-171.5 352.5,-171.5 352.5,-152.5 266.5,-152.5"/>
<text text-anchor="middle" x="309.5" y="-159.5" font-family="Helvetica,sans-Serif" font-size="10.00" fill="#000000">errorstack_push</text>
</a>
</g>
</g>
<!-- Node9&#45;&gt;Node25 -->
<g id="edge25" class="edge">
<title>Node9&#45;&gt;Node25</title>
<path fill="none" stroke="#191970" d="M47.7099,-266.3512C58.0229,-246.4074 84.6956,-200.8518 122,-181 163.2297,-159.0593 216.7764,-155.6793 256.0855,-156.983"/>
<polygon fill="#191970" stroke="#191970" points="256.1183,-160.4878 266.2637,-157.4347 256.4287,-153.4946 256.1183,-160.4878"/>
</g>
<!-- Node26 -->
<g id="node18" class="node">
<title>Node26</title>
<g id="a_node18"><a xlink:href="parser_8h.html#a3c9c52258898d196f76b4d58595b33b9" target="_top" xlink:title="Advances the parser only if the next n characters (where n is the length of the string) matches the s...">
<polygon fill="#ffffff" stroke="#000000" points="122,-76.5 122,-95.5 224,-95.5 224,-76.5 122,-76.5"/>
<text text-anchor="middle" x="173" y="-83.5" font-family="Helvetica,sans-Serif" font-size="10.00" fill="#000000">parser_acceptstring</text>
</a>
</g>
</g>
<!-- Node9&#45;&gt;Node26 -->
<g id="edge19" class="edge">
<title>Node9&#45;&gt;Node26</title>
<path fill="none" stroke="#191970" d="M44.7731,-266.3538C50.5384,-237.6545 71.3858,-151.8992 122,-105 123.6894,-103.4346 125.5194,-101.9951 127.448,-100.6717"/>
<polygon fill="#191970" stroke="#191970" points="129.4391,-103.5658 136.4041,-95.5821 125.9806,-97.4799 129.4391,-103.5658"/>
</g>
<!-- Node30 -->
<g id="node22" class="node">
<title>Node30</title>
<g id="a_node22"><a xlink:href="parser_8h.html#ab62454c7986532e03ea36b14956b5ad1" target="_top" xlink:title="Simple parser destructor.">
<polygon fill="#ffffff" stroke="#000000" points="123.5,-38.5 123.5,-57.5 222.5,-57.5 222.5,-38.5 123.5,-38.5"/>
<text text-anchor="middle" x="173" y="-45.5" font-family="Helvetica,sans-Serif" font-size="10.00" fill="#000000">parser_free_simple</text>
</a>
</g>
</g>
<!-- Node9&#45;&gt;Node30 -->
<g id="edge24" class="edge">
<title>Node9&#45;&gt;Node30</title>
<path fill="none" stroke="#191970" d="M43.8813,-266.1617C47.3438,-233.26 62.8874,-125.8313 122,-67 123.4566,-65.5503 125.0339,-64.2098 126.7007,-62.9704"/>
<polygon fill="#191970" stroke="#191970" points="128.8838,-65.741 135.6382,-57.5784 125.2678,-59.7473 128.8838,-65.741"/>
</g>
<!-- Node11 -->
<g id="node3" class="node">
<title>Node11</title>
<g id="a_node3"><a xlink:href="parserutil_8c.html#a2d9e8c20025b7b883c4e87790685a6ad" target="_top" xlink:title="Proxy to parser_next.">
<polygon fill="#ffffff" stroke="#000000" points="395,-270.5 395,-289.5 481,-289.5 481,-270.5 395,-270.5"/>
<text text-anchor="middle" x="438" y="-277.5" font-family="Helvetica,sans-Serif" font-size="10.00" fill="#000000">parser_advance</text>
</a>
</g>
</g>
<!-- Node10&#45;&gt;Node11 -->
<g id="edge2" class="edge">
<title>Node10&#45;&gt;Node11</title>
<path fill="none" stroke="#191970" d="M317.5383,-427.1789C338.7221,-401.2968 396.3089,-330.9377 423.4622,-297.7622"/>
<polygon fill="#191970" stroke="#191970" points="426.3395,-299.7727 429.9648,-289.8173 420.9226,-295.339 426.3395,-299.7727"/>
</g>
<!-- Node12 -->
<g id="node4" class="node">
<title>Node12</title>
<g id="a_node4"><a xlink:href="parserutil_8c.html#ab25a97ff31329fe9461666bfe2dc6f2c" target="_top" xlink:title="Iterate the parser.">
<polygon fill="#ffffff" stroke="#000000" points="517,-270.5 517,-289.5 585,-289.5 585,-270.5 517,-270.5"/>
<text text-anchor="middle" x="551" y="-277.5" font-family="Helvetica,sans-Serif" font-size="10.00" fill="#000000">parser_next</text>
</a>
</g>
</g>
<!-- Node11&#45;&gt;Node12 -->
<g id="edge3" class="edge">
<title>Node11&#45;&gt;Node12</title>
<path fill="none" stroke="#191970" d="M481.0428,-280C489.4677,-280 498.3165,-280 506.7791,-280"/>
<polygon fill="#191970" stroke="#191970" points="506.8556,-283.5001 516.8556,-280 506.8555,-276.5001 506.8556,-283.5001"/>
</g>
<!-- Node17&#45;&gt;Node17 -->
<g id="edge9" class="edge">
<title>Node17&#45;&gt;Node17</title>
<path fill="none" stroke="#191970" d="M152.9632,-323.7571C143.2156,-332.5653 149.8945,-342 173,-342 187.8019,-342 195.8624,-338.128 197.1814,-333.0292"/>
<polygon fill="#191970" stroke="#191970" points="200.313,-331.4582 193.0368,-323.7571 193.9224,-334.3148 200.313,-331.4582"/>
</g>
<!-- Node18 -->
<g id="node10" class="node">
<title>Node18</title>
<g id="a_node10"><a xlink:href="token_8h.html#a863ec10d282f1f7e0dbbbaae6cec4f15" target="_top" xlink:title=" ">
<polygon fill="#ffffff" stroke="#000000" points="278.5,-304.5 278.5,-323.5 340.5,-323.5 340.5,-304.5 278.5,-304.5"/>
<text text-anchor="middle" x="309.5" y="-311.5" font-family="Helvetica,sans-Serif" font-size="10.00" fill="#000000">token_free</text>
</a>
</g>
</g>
<!-- Node17&#45;&gt;Node18 -->
<g id="edge10" class="edge">
<title>Node17&#45;&gt;Node18</title>
<path fill="none" stroke="#191970" d="M202.2827,-314C221.5363,-314 247.012,-314 268.2992,-314"/>
<polygon fill="#191970" stroke="#191970" points="268.3673,-317.5001 278.3673,-314 268.3672,-310.5001 268.3673,-317.5001"/>
</g>
<!-- Node20 -->
<g id="node12" class="node">
<title>Node20</title>
<g id="a_node12"><a xlink:href="error_8c.html#afbf47f2a1edae9c81dcaced1f61515b6" target="_top" xlink:title="Pop and return the top element of the errorstack.">
<polygon fill="#ffffff" stroke="#000000" points="269,-266.5 269,-285.5 350,-285.5 350,-266.5 269,-266.5"/>
<text text-anchor="middle" x="309.5" y="-273.5" font-family="Helvetica,sans-Serif" font-size="10.00" fill="#000000">errorstack_pop</text>
</a>
</g>
</g>
<!-- Node19&#45;&gt;Node20 -->
<g id="edge12" class="edge">
<title>Node19&#45;&gt;Node20</title>
<path fill="none" stroke="#191970" d="M222.6658,-276C234.3394,-276 246.7982,-276 258.5281,-276"/>
<polygon fill="#191970" stroke="#191970" points="258.6106,-279.5001 268.6105,-276 258.6105,-272.5001 258.6106,-279.5001"/>
</g>
<!-- Node24 -->
<g id="node16" class="node">
<title>Node24</title>
<g id="a_node16"><a xlink:href="parserutil_8c.html#a1a00af051004cb18edac760f39982eea" target="_top" xlink:title="Searches for the given character, advances the parser if it found it.">
<polygon fill="#ffffff" stroke="#000000" points="261,-114.5 261,-133.5 358,-133.5 358,-114.5 261,-114.5"/>
<text text-anchor="middle" x="309.5" y="-121.5" font-family="Helvetica,sans-Serif" font-size="10.00" fill="#000000">parser_acceptchar</text>
</a>
</g>
</g>
<!-- Node23&#45;&gt;Node24 -->
<g id="edge16" class="edge">
<title>Node23&#45;&gt;Node24</title>
<path fill="none" stroke="#191970" d="M221.5091,-124C230.9501,-124 240.9424,-124 250.6741,-124"/>
<polygon fill="#191970" stroke="#191970" points="250.6872,-127.5001 260.6872,-124 250.6871,-120.5001 250.6872,-127.5001"/>
</g>
<!-- Node23&#45;&gt;Node25 -->
<g id="edge18" class="edge">
<title>Node23&#45;&gt;Node25</title>
<path fill="none" stroke="#191970" d="M207.4447,-133.589C224.9847,-138.4719 246.51,-144.4643 265.2631,-149.685"/>
<polygon fill="#191970" stroke="#191970" points="264.494,-153.1039 275.0663,-152.4141 266.3713,-146.3603 264.494,-153.1039"/>
</g>
<!-- Node24&#45;&gt;Node11 -->
<g id="edge17" class="edge">
<title>Node24&#45;&gt;Node11</title>
<path fill="none" stroke="#191970" d="M343.7077,-133.5729C349.1881,-136.0717 354.5212,-139.1728 359,-143 397.1096,-175.5654 421.0432,-231.3646 431.6369,-260.6928"/>
<polygon fill="#191970" stroke="#191970" points="428.3537,-261.9076 434.9379,-270.2082 434.967,-259.6134 428.3537,-261.9076"/>
</g>
<!-- Node26&#45;&gt;Node24 -->
<g id="edge21" class="edge">
<title>Node26&#45;&gt;Node24</title>
<path fill="none" stroke="#191970" d="M207.4447,-95.589C224.9847,-100.4719 246.51,-106.4643 265.2631,-111.685"/>
<polygon fill="#191970" stroke="#191970" points="264.494,-115.1039 275.0663,-114.4141 266.3713,-108.3603 264.494,-115.1039"/>
</g>
<!-- Node27 -->
<g id="node19" class="node">
<title>Node27</title>
<g id="a_node19"><a xlink:href="parserutil_8c.html#aecf4b8bdaae9ca8435542900cf024f4e" target="_top" xlink:title="Copy a parser.">
<polygon fill="#ffffff" stroke="#000000" points="274.5,-76.5 274.5,-95.5 344.5,-95.5 344.5,-76.5 274.5,-76.5"/>
<text text-anchor="middle" x="309.5" y="-83.5" font-family="Helvetica,sans-Serif" font-size="10.00" fill="#000000">parser_copy</text>
</a>
</g>
</g>
<!-- Node26&#45;&gt;Node27 -->
<g id="edge20" class="edge">
<title>Node26&#45;&gt;Node27</title>
<path fill="none" stroke="#191970" d="M224.2159,-86C237.2181,-86 251.1015,-86 263.8092,-86"/>
<polygon fill="#191970" stroke="#191970" points="264.162,-89.5001 274.162,-86 264.162,-82.5001 264.162,-89.5001"/>
</g>
<!-- Node28 -->
<g id="node20" class="node">
<title>Node28</title>
<g id="a_node20"><a xlink:href="parserutil_8c.html#a1f1841a636bfe529466c99e3db9999cd" target="_top" xlink:title="Restores a parser to another parser&#39;s position.">
<polygon fill="#ffffff" stroke="#000000" points="270,-38.5 270,-57.5 349,-57.5 349,-38.5 270,-38.5"/>
<text text-anchor="middle" x="309.5" y="-45.5" font-family="Helvetica,sans-Serif" font-size="10.00" fill="#000000">parser_restore</text>
</a>
</g>
</g>
<!-- Node26&#45;&gt;Node28 -->
<g id="edge22" class="edge">
<title>Node26&#45;&gt;Node28</title>
<path fill="none" stroke="#191970" d="M207.4447,-76.411C224.9847,-71.5281 246.51,-65.5357 265.2631,-60.315"/>
<polygon fill="#191970" stroke="#191970" points="266.3713,-63.6397 275.0663,-57.5859 264.494,-56.8961 266.3713,-63.6397"/>
</g>
<!-- Node29 -->
<g id="node21" class="node">
<title>Node29</title>
<g id="a_node21"><a xlink:href="parserutil_8c.html#ab62454c7986532e03ea36b14956b5ad1" target="_top" xlink:title="Simple parser destructor.">
<polygon fill="#ffffff" stroke="#000000" points="260,-.5 260,-19.5 359,-19.5 359,-.5 260,-.5"/>
<text text-anchor="middle" x="309.5" y="-7.5" font-family="Helvetica,sans-Serif" font-size="10.00" fill="#000000">parser_free_simple</text>
</a>
</g>
</g>
<!-- Node26&#45;&gt;Node29 -->
<g id="edge23" class="edge">
<title>Node26&#45;&gt;Node29</title>
<path fill="none" stroke="#191970" d="M205.3738,-76.4812C211.8101,-73.8992 218.3264,-70.7539 224,-67 243.402,-54.1627 240.6616,-41.9329 260,-29 262.8801,-27.0739 265.9834,-25.3034 269.182,-23.6844"/>
<polygon fill="#191970" stroke="#191970" points="270.6878,-26.8446 278.3425,-19.5196 267.7906,-20.4723 270.6878,-26.8446"/>
</g>
</g>
</svg>
