<?xml version="1.0" encoding="UTF-8" standalone="no"?>
<!DOCTYPE svg PUBLIC "-//W3C//DTD SVG 1.1//EN"
 "http://www.w3.org/Graphics/SVG/1.1/DTD/svg11.dtd">
<!-- Generated by graphviz version 2.40.1 (20161225.0304)
 -->
<!-- Title: parser/parserfuncs/floats.c Pages: 1 -->
<!--zoomable 543 -->
<svg id="main" version="1.1" xmlns="http://www.w3.org/2000/svg" xmlns:xlink="http://www.w3.org/1999/xlink" xml:space="preserve" onload="init(evt)">
<style type="text/css"><![CDATA[
.edge:hover path { stroke: red; }
.edge:hover polygon { stroke: red; fill: red; }
]]></style>
<script type="text/javascript"><![CDATA[
var edges = document.getElementsByTagName('g');
if (edges && edges.length) {
  for (var i=0;i<edges.length;i++) {
    if (edges[i].id.substr(0,4)=='edge') {
      edges[i].setAttribute('class','edge');
    }
  }
}
]]></script>
        <defs>
                <circle id="rim" cx="0" cy="0" r="7"/>
                <circle id="rim2" cx="0" cy="0" r="3.5"/>
                <g id="zoomPlus">
                        <use xlink:href="#rim" fill="#404040">
                                <set attributeName="fill" to="#808080" begin="zoomplus.mouseover" end="zoomplus.mouseout"/>
                        </use>
                        <path d="M-4,0h8M0,-4v8" fill="none" stroke="white" stroke-width="1.5" pointer-events="none"/>
                </g>
                <g id="zoomMin">
                        <use xlink:href="#rim" fill="#404040">
                                <set attributeName="fill" to="#808080" begin="zoomminus.mouseover" end="zoomminus.mouseout"/>
                        </use>
                        <path d="M-4,0h8" fill="none" stroke="white" stroke-width="1.5" pointer-events="none"/>
                </g>
                <g id="dirArrow">
                        <path fill="none" stroke="white" stroke-width="1.5" d="M0,-3.0v7 M-2.5,-0.5L0,-3.0L2.5,-0.5"/>
                </g>
               <g id="resetDef">
                       <use xlink:href="#rim2" fill="#404040">
                               <set attributeName="fill" to="#808080" begin="reset.mouseover" end="reset.mouseout"/>
                       </use>
               </g>
        </defs>

<script type="text/javascript">
var viewWidth = 1455;
var viewHeight = 543;
var sectionId = 'dynsection-0';
</script>
<script xlink:href="svgpan.js"/>
<svg id="graph" class="graph">
<g id="viewport">
<title>parser/parserfuncs/floats.c</title>
<polygon fill="#ffffff" stroke="transparent" points="-4,4 -4,-539 1450.5,-539 1450.5,4 -4,4"/>
<!-- Node0 -->
<g id="node1" class="node">
<title>Node0</title>
<g id="a_node1"><a xlink:title=" ">
<polygon fill="#bfbfbf" stroke="#000000" points="1039,-504.5 1039,-534.5 1137,-534.5 1137,-504.5 1039,-504.5"/>
<text text-anchor="start" x="1047" y="-522.5" font-family="Helvetica,sans-Serif" font-size="10.00" fill="#000000">parser/parserfuncs</text>
<text text-anchor="middle" x="1088" y="-511.5" font-family="Helvetica,sans-Serif" font-size="10.00" fill="#000000">/floats.c</text>
</a>
</g>
</g>
<!-- Node1 -->
<g id="node2" class="node">
<title>Node1</title>
<g id="a_node2"><a xlink:href="AST_8h.html" target="_top" xlink:title=" ">
<polygon fill="#ffffff" stroke="#000000" points="997,-392.5 997,-411.5 1041,-411.5 1041,-392.5 997,-392.5"/>
<text text-anchor="middle" x="1019" y="-399.5" font-family="Helvetica,sans-Serif" font-size="10.00" fill="#000000">AST.h</text>
</a>
</g>
</g>
<!-- Node0&#45;&gt;Node1 -->
<g id="edge1" class="edge">
<title>Node0&#45;&gt;Node1</title>
<path fill="none" stroke="#191970" d="M1077.8952,-504.3524C1071.2118,-494.1848 1062.3582,-480.4268 1055,-468 1045.6733,-452.2487 1035.7608,-433.9468 1028.7037,-420.6166"/>
<polygon fill="#191970" stroke="#191970" points="1031.6714,-418.74 1023.9207,-411.5167 1025.4752,-421.9969 1031.6714,-418.74"/>
</g>
<!-- Node2 -->
<g id="node3" class="node">
<title>Node2</title>
<g id="a_node3"><a xlink:title=" ">
<polygon fill="#ffffff" stroke="#bfbfbf" points="898.5,-.5 898.5,-19.5 947.5,-19.5 947.5,-.5 898.5,-.5"/>
<text text-anchor="middle" x="923" y="-7.5" font-family="Helvetica,sans-Serif" font-size="10.00" fill="#000000">stdint.h</text>
</a>
</g>
</g>
<!-- Node0&#45;&gt;Node2 -->
<g id="edge47" class="edge">
<title>Node0&#45;&gt;Node2</title>
<path fill="none" stroke="#191970" d="M1083.9706,-504.416C1078.3933,-482.1752 1069,-439.1957 1069,-402 1069,-402 1069,-402 1069,-346 1069,-269.8196 1103,-254.1804 1103,-178 1103,-178 1103,-178 1103,-122 1103,-54.1973 1009.7905,-25.9798 957.5194,-15.4865"/>
<polygon fill="#191970" stroke="#191970" points="958.1274,-12.0395 947.6508,-13.6176 956.8249,-18.9172 958.1274,-12.0395"/>
</g>
<!-- Node3 -->
<g id="node4" class="node">
<title>Node3</title>
<g id="a_node4"><a xlink:href="token_8h.html" target="_top" xlink:title=" ">
<polygon fill="#ffffff" stroke="#000000" points="906.5,-336.5 906.5,-355.5 955.5,-355.5 955.5,-336.5 906.5,-336.5"/>
<text text-anchor="middle" x="931" y="-343.5" font-family="Helvetica,sans-Serif" font-size="10.00" fill="#000000">token.h</text>
</a>
</g>
</g>
<!-- Node0&#45;&gt;Node3 -->
<g id="edge42" class="edge">
<title>Node0&#45;&gt;Node3</title>
<path fill="none" stroke="#191970" d="M1073.3323,-504.2591C1063.5504,-494.0521 1050.4361,-480.2852 1039,-468 1016.0631,-443.3599 1010.3369,-437.1853 988,-412 973.661,-395.8325 957.5921,-377.1762 946.1798,-363.8324"/>
<polygon fill="#191970" stroke="#191970" points="948.5722,-361.244 939.4178,-355.9103 943.248,-365.7886 948.5722,-361.244"/>
</g>
<!-- Node10 -->
<g id="node11" class="node">
<title>Node10</title>
<g id="a_node11"><a xlink:title=" ">
<polygon fill="#ffffff" stroke="#bfbfbf" points="124,-.5 124,-19.5 180,-19.5 180,-.5 124,-.5"/>
<text text-anchor="middle" x="152" y="-7.5" font-family="Helvetica,sans-Serif" font-size="10.00" fill="#000000">stdbool.h</text>
</a>
</g>
</g>
<!-- Node0&#45;&gt;Node10 -->
<g id="edge46" class="edge">
<title>Node0&#45;&gt;Node10</title>
<path fill="none" stroke="#191970" d="M1038.7811,-516.8061C826.5049,-504.8689 0,-454.9886 0,-402 0,-402 0,-402 0,-122 0,-65.4704 68.9804,-34.2766 114.0024,-19.9374"/>
<polygon fill="#191970" stroke="#191970" points="115.2164,-23.2266 123.7662,-16.9695 113.1805,-16.5292 115.2164,-23.2266"/>
</g>
<!-- Node12 -->
<g id="node13" class="node">
<title>Node12</title>
<g id="a_node13"><a xlink:title=" ">
<polygon fill="#ffffff" stroke="#bfbfbf" points="951,-56.5 951,-75.5 999,-75.5 999,-56.5 951,-56.5"/>
<text text-anchor="middle" x="975" y="-63.5" font-family="Helvetica,sans-Serif" font-size="10.00" fill="#000000">stdlib.h</text>
</a>
</g>
</g>
<!-- Node0&#45;&gt;Node12 -->
<g id="edge49" class="edge">
<title>Node0&#45;&gt;Node12</title>
<path fill="none" stroke="#191970" d="M1092.0294,-504.416C1097.6067,-482.1752 1107,-439.1957 1107,-402 1107,-402 1107,-402 1107,-346 1107,-237.399 1024.7506,-125.7819 990.1019,-83.5797"/>
<polygon fill="#191970" stroke="#191970" points="992.7581,-81.3 983.6609,-75.8694 987.3859,-85.7878 992.7581,-81.3"/>
</g>
<!-- Node19 -->
<g id="node20" class="node">
<title>Node19</title>
<g id="a_node20"><a xlink:href="error_8h.html" target="_top" xlink:title=" ">
<polygon fill="#ffffff" stroke="#000000" points="86,-336.5 86,-355.5 130,-355.5 130,-336.5 86,-336.5"/>
<text text-anchor="middle" x="108" y="-343.5" font-family="Helvetica,sans-Serif" font-size="10.00" fill="#000000">error.h</text>
</a>
</g>
</g>
<!-- Node0&#45;&gt;Node19 -->
<g id="edge34" class="edge">
<title>Node0&#45;&gt;Node19</title>
<path fill="none" stroke="#191970" d="M1038.9614,-511.8309C931.0596,-494.8459 664.9898,-452.3578 443,-412 331.5878,-391.7452 199.911,-364.9682 140.2509,-352.6814"/>
<polygon fill="#191970" stroke="#191970" points="140.8044,-349.222 130.3035,-350.6296 139.3902,-356.0777 140.8044,-349.222"/>
</g>
<!-- Node20 -->
<g id="node21" class="node">
<title>Node20</title>
<g id="a_node21"><a xlink:href="parser_8h.html" target="_top" xlink:title=" ">
<polygon fill="#ffffff" stroke="#000000" points="851.5,-448.5 851.5,-467.5 902.5,-467.5 902.5,-448.5 851.5,-448.5"/>
<text text-anchor="middle" x="877" y="-455.5" font-family="Helvetica,sans-Serif" font-size="10.00" fill="#000000">parser.h</text>
</a>
</g>
</g>
<!-- Node0&#45;&gt;Node20 -->
<g id="edge37" class="edge">
<title>Node0&#45;&gt;Node20</title>
<path fill="none" stroke="#191970" d="M1038.7962,-505.1586C1000.0042,-493.8519 946.8511,-478.3595 912.2239,-468.2667"/>
<polygon fill="#191970" stroke="#191970" points="913.1225,-464.883 902.5426,-465.4449 911.1637,-471.6034 913.1225,-464.883"/>
</g>
<!-- Node21 -->
<g id="node22" class="node">
<title>Node21</title>
<g id="a_node22"><a xlink:title=" ">
<polygon fill="#ffffff" stroke="#bfbfbf" points="1135.5,-448.5 1135.5,-467.5 1184.5,-467.5 1184.5,-448.5 1135.5,-448.5"/>
<text text-anchor="middle" x="1160" y="-455.5" font-family="Helvetica,sans-Serif" font-size="10.00" fill="#000000">ctype.h</text>
</a>
</g>
</g>
<!-- Node0&#45;&gt;Node21 -->
<g id="edge43" class="edge">
<title>Node0&#45;&gt;Node21</title>
<path fill="none" stroke="#191970" d="M1105.7978,-504.2977C1116.4167,-495.2274 1129.9031,-483.7077 1140.7667,-474.4285"/>
<polygon fill="#191970" stroke="#191970" points="1143.1413,-477.0031 1148.4719,-467.8469 1138.5949,-471.6805 1143.1413,-477.0031"/>
</g>
<!-- Node22 -->
<g id="node23" class="node">
<title>Node22</title>
<g id="a_node23"><a xlink:title=" ">
<polygon fill="#ffffff" stroke="#bfbfbf" points="1202.5,-448.5 1202.5,-467.5 1249.5,-467.5 1249.5,-448.5 1202.5,-448.5"/>
<text text-anchor="middle" x="1226" y="-455.5" font-family="Helvetica,sans-Serif" font-size="10.00" fill="#000000">errno.h</text>
</a>
</g>
</g>
<!-- Node0&#45;&gt;Node22 -->
<g id="edge44" class="edge">
<title>Node0&#45;&gt;Node22</title>
<path fill="none" stroke="#191970" d="M1121.7586,-504.4554C1144.2793,-494.419 1173.6467,-481.3314 1195.4692,-471.6061"/>
<polygon fill="#191970" stroke="#191970" points="1196.9056,-474.7979 1204.6149,-467.5303 1194.0561,-468.4041 1196.9056,-474.7979"/>
</g>
<!-- Node23 -->
<g id="node24" class="node">
<title>Node23</title>
<g id="a_node24"><a xlink:title=" ">
<polygon fill="#ffffff" stroke="#bfbfbf" points="1267.5,-448.5 1267.5,-467.5 1314.5,-467.5 1314.5,-448.5 1267.5,-448.5"/>
<text text-anchor="middle" x="1291" y="-455.5" font-family="Helvetica,sans-Serif" font-size="10.00" fill="#000000">math.h</text>
</a>
</g>
</g>
<!-- Node0&#45;&gt;Node23 -->
<g id="edge45" class="edge">
<title>Node0&#45;&gt;Node23</title>
<path fill="none" stroke="#191970" d="M1137.0579,-504.872C1168.9922,-495.3163 1211.8023,-482.444 1257.4597,-468.4553"/>
<polygon fill="#191970" stroke="#191970" points="1258.7091,-471.7331 1267.2428,-465.4541 1256.6561,-465.0409 1258.7091,-471.7331"/>
</g>
<!-- Node24 -->
<g id="node25" class="node">
<title>Node24</title>
<g id="a_node25"><a xlink:title=" ">
<polygon fill="#ffffff" stroke="#bfbfbf" points="1333,-448.5 1333,-467.5 1379,-467.5 1379,-448.5 1333,-448.5"/>
<text text-anchor="middle" x="1356" y="-455.5" font-family="Helvetica,sans-Serif" font-size="10.00" fill="#000000">stdio.h</text>
</a>
</g>
</g>
<!-- Node0&#45;&gt;Node24 -->
<g id="edge48" class="edge">
<title>Node0&#45;&gt;Node24</title>
<path fill="none" stroke="#191970" d="M1137.1157,-510.0939C1182.9092,-501.0299 1253.2746,-486.3545 1323.1452,-468.0592"/>
<polygon fill="#191970" stroke="#191970" points="1324.2253,-471.394 1332.9983,-465.4538 1322.4358,-464.6265 1324.2253,-471.394"/>
</g>
<!-- Node25 -->
<g id="node26" class="node">
<title>Node25</title>
<g id="a_node26"><a xlink:title=" ">
<polygon fill="#ffffff" stroke="#bfbfbf" points="1397.5,-448.5 1397.5,-467.5 1446.5,-467.5 1446.5,-448.5 1397.5,-448.5"/>
<text text-anchor="middle" x="1422" y="-455.5" font-family="Helvetica,sans-Serif" font-size="10.00" fill="#000000">string.h</text>
</a>
</g>
</g>
<!-- Node0&#45;&gt;Node25 -->
<g id="edge50" class="edge">
<title>Node0&#45;&gt;Node25</title>
<path fill="none" stroke="#191970" d="M1137.1935,-512.8447C1194.8686,-504.6453 1293.4594,-489.3966 1387.2665,-467.9535"/>
<polygon fill="#191970" stroke="#191970" points="1388.2522,-471.3179 1397.2058,-465.6536 1386.6741,-464.4981 1388.2522,-471.3179"/>
</g>
<!-- Node1&#45;&gt;Node2 -->
<g id="edge2" class="edge">
<title>Node1&#45;&gt;Node2</title>
<path fill="none" stroke="#191970" d="M1021.1938,-392.1916C1032.2278,-341.8351 1079.6336,-112.5259 1041,-56 1031.2041,-41.6674 988.5956,-27.5141 957.3818,-18.7723"/>
<polygon fill="#191970" stroke="#191970" points="958.2726,-15.3875 947.7039,-16.1308 956.4294,-22.1405 958.2726,-15.3875"/>
</g>
<!-- Node1&#45;&gt;Node3 -->
<g id="edge3" class="edge">
<title>Node1&#45;&gt;Node3</title>
<path fill="none" stroke="#191970" d="M1003.6716,-392.2455C990.1697,-383.6534 970.2878,-371.0014 954.7314,-361.1018"/>
<polygon fill="#191970" stroke="#191970" points="956.4685,-358.0587 946.1528,-355.6427 952.7103,-363.9643 956.4685,-358.0587"/>
</g>
<!-- Node3&#45;&gt;Node2 -->
<g id="edge33" class="edge">
<title>Node3&#45;&gt;Node2</title>
<path fill="none" stroke="#191970" d="M933.9511,-336.2168C939.5144,-316.8801 951,-272.3189 951,-234 951,-234 951,-234 951,-178 951,-123.7502 936.6186,-60.9707 928.4693,-29.7515"/>
<polygon fill="#191970" stroke="#191970" points="931.7584,-28.5036 925.7871,-19.7518 924.9974,-30.3172 931.7584,-28.5036"/>
</g>
<!-- Node4 -->
<g id="node5" class="node">
<title>Node4</title>
<g id="a_node5"><a xlink:href="builtins_8h.html" target="_top" xlink:title=" ">
<polygon fill="#ffffff" stroke="#000000" points="591,-280.5 591,-299.5 647,-299.5 647,-280.5 591,-280.5"/>
<text text-anchor="middle" x="619" y="-287.5" font-family="Helvetica,sans-Serif" font-size="10.00" fill="#000000">builtins.h</text>
</a>
</g>
</g>
<!-- Node3&#45;&gt;Node4 -->
<g id="edge4" class="edge">
<title>Node3&#45;&gt;Node4</title>
<path fill="none" stroke="#191970" d="M906.2571,-341.559C852.0549,-331.8304 722.503,-308.5775 657.5319,-296.916"/>
<polygon fill="#191970" stroke="#191970" points="657.7667,-293.4023 647.3057,-295.0805 656.53,-300.2922 657.7667,-293.4023"/>
</g>
<!-- Node3&#45;&gt;Node10 -->
<g id="edge32" class="edge">
<title>Node3&#45;&gt;Node10</title>
<path fill="none" stroke="#191970" d="M906.3995,-345.1191C773.9847,-340.06 152,-312.1374 152,-234 152,-234 152,-234 152,-122 152,-89.7116 152,-52.1872 152,-29.8048"/>
<polygon fill="#191970" stroke="#191970" points="155.5001,-29.5883 152,-19.5884 148.5001,-29.5884 155.5001,-29.5883"/>
</g>
<!-- Node5 -->
<g id="node6" class="node">
<title>Node5</title>
<g id="a_node6"><a xlink:href="builtinutils_8h.html" target="_top" xlink:title=" ">
<polygon fill="#ffffff" stroke="#000000" points="232,-.5 232,-19.5 300,-19.5 300,-.5 232,-.5"/>
<text text-anchor="middle" x="266" y="-7.5" font-family="Helvetica,sans-Serif" font-size="10.00" fill="#000000">builtinutils.h</text>
</a>
</g>
</g>
<!-- Node4&#45;&gt;Node5 -->
<g id="edge5" class="edge">
<title>Node4&#45;&gt;Node5</title>
<path fill="none" stroke="#191970" d="M590.8024,-289.6817C512.2719,-288.3272 292.9027,-281.2217 233,-244 203.2634,-225.5226 190,-213.0097 190,-178 190,-178 190,-178 190,-122 190,-82.2361 223.2071,-46.1042 245.7208,-26.177"/>
<polygon fill="#191970" stroke="#191970" points="248.1079,-28.7412 253.4501,-19.5918 243.5683,-23.4128 248.1079,-28.7412"/>
</g>
<!-- Node6 -->
<g id="node7" class="node">
<title>Node6</title>
<g id="a_node7"><a xlink:href="helios__boolean_8h.html" target="_top" xlink:title=" ">
<polygon fill="#ffffff" stroke="#000000" points="256.5,-224.5 256.5,-243.5 345.5,-243.5 345.5,-224.5 256.5,-224.5"/>
<text text-anchor="middle" x="301" y="-231.5" font-family="Helvetica,sans-Serif" font-size="10.00" fill="#000000">helios_boolean.h</text>
</a>
</g>
</g>
<!-- Node4&#45;&gt;Node6 -->
<g id="edge6" class="edge">
<title>Node4&#45;&gt;Node6</title>
<path fill="none" stroke="#191970" d="M590.7381,-285.2336C543.9657,-277.3154 447.2646,-260.8176 355.5296,-244.2595"/>
<polygon fill="#191970" stroke="#191970" points="355.9876,-240.7856 345.5243,-242.4496 354.7416,-247.6738 355.9876,-240.7856"/>
</g>
<!-- Node7 -->
<g id="node8" class="node">
<title>Node7</title>
<g id="a_node8"><a xlink:href="helios__object_8h.html" target="_top" xlink:title=" ">
<polygon fill="#ffffff" stroke="#000000" points="612,-168.5 612,-187.5 694,-187.5 694,-168.5 612,-168.5"/>
<text text-anchor="middle" x="653" y="-175.5" font-family="Helvetica,sans-Serif" font-size="10.00" fill="#000000">helios_object.h</text>
</a>
</g>
</g>
<!-- Node4&#45;&gt;Node7 -->
<g id="edge26" class="edge">
<title>Node4&#45;&gt;Node7</title>
<path fill="none" stroke="#191970" d="M634.618,-280.4791C646.2472,-272.3972 661.2332,-259.6339 668,-244 674.5462,-228.8758 669.4176,-210.5139 663.4415,-197.0013"/>
<polygon fill="#191970" stroke="#191970" points="666.4427,-195.1731 658.8857,-187.7472 660.1625,-198.2649 666.4427,-195.1731"/>
</g>
<!-- Node9 -->
<g id="node10" class="node">
<title>Node9</title>
<g id="a_node10"><a xlink:href="helios__memory_8h.html" target="_top" xlink:title=" ">
<polygon fill="#ffffff" stroke="#000000" points="332,-56.5 332,-75.5 422,-75.5 422,-56.5 332,-56.5"/>
<text text-anchor="middle" x="377" y="-63.5" font-family="Helvetica,sans-Serif" font-size="10.00" fill="#000000">helios_memory.h</text>
</a>
</g>
</g>
<!-- Node4&#45;&gt;Node9 -->
<g id="edge29" class="edge">
<title>Node4&#45;&gt;Node9</title>
<path fill="none" stroke="#191970" d="M590.9594,-288.6351C508.2701,-284.3259 269.7618,-269.7498 247,-244 197.0151,-187.4534 301.2066,-112.3866 351.6844,-80.8978"/>
<polygon fill="#191970" stroke="#191970" points="353.7347,-83.7465 360.4353,-75.5396 350.0793,-77.7766 353.7347,-83.7465"/>
</g>
<!-- Node13 -->
<g id="node14" class="node">
<title>Node13</title>
<g id="a_node14"><a xlink:href="helios__code_8h.html" target="_top" xlink:title=" ">
<polygon fill="#ffffff" stroke="#000000" points="715.5,-224.5 715.5,-243.5 792.5,-243.5 792.5,-224.5 715.5,-224.5"/>
<text text-anchor="middle" x="754" y="-231.5" font-family="Helvetica,sans-Serif" font-size="10.00" fill="#000000">helios_code.h</text>
</a>
</g>
</g>
<!-- Node4&#45;&gt;Node13 -->
<g id="edge17" class="edge">
<title>Node4&#45;&gt;Node13</title>
<path fill="none" stroke="#191970" d="M642.2073,-280.3733C664.1699,-271.2629 697.3332,-257.5062 721.8401,-247.3404"/>
<polygon fill="#191970" stroke="#191970" points="723.1997,-250.5657 731.0955,-243.5011 720.5176,-244.0999 723.1997,-250.5657"/>
</g>
<!-- Node14 -->
<g id="node15" class="node">
<title>Node14</title>
<g id="a_node15"><a xlink:href="helios__float_8h.html" target="_top" xlink:title=" ">
<polygon fill="#ffffff" stroke="#000000" points="811,-224.5 811,-243.5 885,-243.5 885,-224.5 811,-224.5"/>
<text text-anchor="middle" x="848" y="-231.5" font-family="Helvetica,sans-Serif" font-size="10.00" fill="#000000">helios_float.h</text>
</a>
</g>
</g>
<!-- Node4&#45;&gt;Node14 -->
<g id="edge19" class="edge">
<title>Node4&#45;&gt;Node14</title>
<path fill="none" stroke="#191970" d="M647.0799,-283.1333C685.4675,-273.7459 754.8388,-256.7818 801.1647,-245.4532"/>
<polygon fill="#191970" stroke="#191970" points="802.0863,-248.831 810.9686,-243.0557 800.4234,-242.0314 802.0863,-248.831"/>
</g>
<!-- Node15 -->
<g id="node16" class="node">
<title>Node15</title>
<g id="a_node16"><a xlink:href="helios__hashmap_8h.html" target="_top" xlink:title=" ">
<polygon fill="#ffffff" stroke="#000000" points="363.5,-224.5 363.5,-243.5 458.5,-243.5 458.5,-224.5 363.5,-224.5"/>
<text text-anchor="middle" x="411" y="-231.5" font-family="Helvetica,sans-Serif" font-size="10.00" fill="#000000">helios_hashmap.h</text>
</a>
</g>
</g>
<!-- Node4&#45;&gt;Node15 -->
<g id="edge21" class="edge">
<title>Node4&#45;&gt;Node15</title>
<path fill="none" stroke="#191970" d="M590.9482,-282.4476C556.4252,-273.1529 497.3518,-257.2486 456.3493,-246.2094"/>
<polygon fill="#191970" stroke="#191970" points="457.1656,-242.8046 446.5995,-243.5845 455.3457,-249.5639 457.1656,-242.8046"/>
</g>
<!-- Node16 -->
<g id="node17" class="node">
<title>Node16</title>
<g id="a_node17"><a xlink:href="helios__integer_8h.html" target="_top" xlink:title=" ">
<polygon fill="#ffffff" stroke="#000000" points="477,-224.5 477,-243.5 561,-243.5 561,-224.5 477,-224.5"/>
<text text-anchor="middle" x="519" y="-231.5" font-family="Helvetica,sans-Serif" font-size="10.00" fill="#000000">helios_integer.h</text>
</a>
</g>
</g>
<!-- Node4&#45;&gt;Node16 -->
<g id="edge24" class="edge">
<title>Node4&#45;&gt;Node16</title>
<path fill="none" stroke="#191970" d="M601.5813,-280.2455C585.9515,-271.4928 562.7981,-258.527 544.9815,-248.5496"/>
<polygon fill="#191970" stroke="#191970" points="546.6543,-245.475 536.2191,-243.6427 543.234,-251.5825 546.6543,-245.475"/>
</g>
<!-- Node17 -->
<g id="node18" class="node">
<title>Node17</title>
<g id="a_node18"><a xlink:href="helios__string_8h.html" target="_top" xlink:title=" ">
<polygon fill="#ffffff" stroke="#000000" points="579,-224.5 579,-243.5 659,-243.5 659,-224.5 579,-224.5"/>
<text text-anchor="middle" x="619" y="-231.5" font-family="Helvetica,sans-Serif" font-size="10.00" fill="#000000">helios_string.h</text>
</a>
</g>
</g>
<!-- Node4&#45;&gt;Node17 -->
<g id="edge27" class="edge">
<title>Node4&#45;&gt;Node17</title>
<path fill="none" stroke="#191970" d="M619,-280.2455C619,-272.9382 619,-262.6944 619,-253.7046"/>
<polygon fill="#191970" stroke="#191970" points="622.5001,-253.6426 619,-243.6427 615.5001,-253.6427 622.5001,-253.6426"/>
</g>
<!-- Node18 -->
<g id="node19" class="node">
<title>Node18</title>
<g id="a_node19"><a xlink:href="serialize_8h.html" target="_top" xlink:title=" ">
<polygon fill="#ffffff" stroke="#000000" points="858.5,-168.5 858.5,-187.5 919.5,-187.5 919.5,-168.5 858.5,-168.5"/>
<text text-anchor="middle" x="889" y="-175.5" font-family="Helvetica,sans-Serif" font-size="10.00" fill="#000000">serialize.h</text>
</a>
</g>
</g>
<!-- Node4&#45;&gt;Node18 -->
<g id="edge30" class="edge">
<title>Node4&#45;&gt;Node18</title>
<path fill="none" stroke="#191970" d="M647.4394,-287.3123C714.5075,-280.6881 878.1265,-262.7492 894,-244 904.7547,-231.2969 901.7388,-211.8403 897.0922,-197.339"/>
<polygon fill="#191970" stroke="#191970" points="900.3295,-196.0013 893.5941,-187.8229 893.7594,-198.4165 900.3295,-196.0013"/>
</g>
<!-- Node6&#45;&gt;Node7 -->
<g id="edge7" class="edge">
<title>Node6&#45;&gt;Node7</title>
<path fill="none" stroke="#191970" d="M345.5133,-225.4882C348.3834,-224.9743 351.2312,-224.4741 354,-224 440.8617,-209.1282 542.3093,-193.9898 601.9063,-185.3233"/>
<polygon fill="#191970" stroke="#191970" points="602.4245,-188.7849 611.8185,-183.8855 601.4196,-181.8574 602.4245,-188.7849"/>
</g>
<!-- Node6&#45;&gt;Node10 -->
<g id="edge16" class="edge">
<title>Node6&#45;&gt;Node10</title>
<path fill="none" stroke="#191970" d="M294.5977,-224.375C271.7682,-190.0543 194.1151,-73.3139 164.0377,-28.097"/>
<polygon fill="#191970" stroke="#191970" points="166.8311,-25.9769 158.3785,-19.5891 161.0028,-29.8538 166.8311,-25.9769"/>
</g>
<!-- Node8 -->
<g id="node9" class="node">
<title>Node8</title>
<g id="a_node9"><a xlink:href="helios__type_8h.html" target="_top" xlink:title=" ">
<polygon fill="#ffffff" stroke="#000000" points="848,-112.5 848,-131.5 922,-131.5 922,-112.5 848,-112.5"/>
<text text-anchor="middle" x="885" y="-119.5" font-family="Helvetica,sans-Serif" font-size="10.00" fill="#000000">helios_type.h</text>
</a>
</g>
</g>
<!-- Node7&#45;&gt;Node8 -->
<g id="edge8" class="edge">
<title>Node7&#45;&gt;Node8</title>
<path fill="none" stroke="#191970" d="M692.6186,-168.4369C732.8757,-158.7197 795.2267,-143.6694 837.9663,-133.353"/>
<polygon fill="#191970" stroke="#191970" points="838.9463,-136.717 847.8458,-130.9682 837.3037,-129.9124 838.9463,-136.717"/>
</g>
<!-- Node8&#45;&gt;Node2 -->
<g id="edge14" class="edge">
<title>Node8&#45;&gt;Node2</title>
<path fill="none" stroke="#191970" d="M888.2399,-112.4509C894.4937,-94.0186 908.3342,-53.2254 916.539,-29.043"/>
<polygon fill="#191970" stroke="#191970" points="919.8697,-30.1192 919.7683,-19.5249 913.2409,-27.8701 919.8697,-30.1192"/>
</g>
<!-- Node8&#45;&gt;Node9 -->
<g id="edge9" class="edge">
<title>Node8&#45;&gt;Node9</title>
<path fill="none" stroke="#191970" d="M847.6455,-117.8822C759.1676,-108.1287 536.4474,-83.5769 432.297,-72.0957"/>
<polygon fill="#191970" stroke="#191970" points="432.6195,-68.6102 422.2962,-70.9933 431.8524,-75.568 432.6195,-68.6102"/>
</g>
<!-- Node8&#45;&gt;Node12 -->
<g id="edge15" class="edge">
<title>Node8&#45;&gt;Node12</title>
<path fill="none" stroke="#191970" d="M900.6768,-112.2455C914.4856,-103.6534 934.8193,-91.0014 950.7292,-81.1018"/>
<polygon fill="#191970" stroke="#191970" points="952.8613,-83.8974 959.5028,-75.6427 949.1632,-77.954 952.8613,-83.8974"/>
</g>
<!-- Node9&#45;&gt;Node2 -->
<g id="edge13" class="edge">
<title>Node9&#45;&gt;Node2</title>
<path fill="none" stroke="#191970" d="M422.0463,-58.0135C426.7509,-57.2847 431.468,-56.5973 436,-56 605.0146,-33.7253 808.4071,-18.0996 888.3438,-12.3913"/>
<polygon fill="#191970" stroke="#191970" points="888.6221,-15.8805 898.3499,-11.6827 888.1276,-8.898 888.6221,-15.8805"/>
</g>
<!-- Node9&#45;&gt;Node5 -->
<g id="edge10" class="edge">
<title>Node9&#45;&gt;Node5</title>
<path fill="none" stroke="#191970" d="M357.9184,-56.3733C340.2598,-47.4644 313.7947,-34.1127 293.7902,-24.0203"/>
<polygon fill="#191970" stroke="#191970" points="295.3372,-20.8806 284.8326,-19.5011 292.1842,-27.1303 295.3372,-20.8806"/>
</g>
<!-- Node9&#45;&gt;Node10 -->
<g id="edge11" class="edge">
<title>Node9&#45;&gt;Node10</title>
<path fill="none" stroke="#191970" d="M338.5768,-56.4369C297.1535,-46.1271 231.61,-29.814 190.253,-19.5207"/>
<polygon fill="#191970" stroke="#191970" points="190.8383,-16.0597 180.289,-17.0408 189.1476,-22.8525 190.8383,-16.0597"/>
</g>
<!-- Node11 -->
<g id="node12" class="node">
<title>Node11</title>
<g id="a_node12"><a xlink:title=" ">
<polygon fill="#ffffff" stroke="#bfbfbf" points="351,-.5 351,-19.5 403,-19.5 403,-.5 351,-.5"/>
<text text-anchor="middle" x="377" y="-7.5" font-family="Helvetica,sans-Serif" font-size="10.00" fill="#000000">stddef.h</text>
</a>
</g>
</g>
<!-- Node9&#45;&gt;Node11 -->
<g id="edge12" class="edge">
<title>Node9&#45;&gt;Node11</title>
<path fill="none" stroke="#191970" d="M377,-56.2455C377,-48.9382 377,-38.6944 377,-29.7046"/>
<polygon fill="#191970" stroke="#191970" points="380.5001,-29.6426 377,-19.6427 373.5001,-29.6427 380.5001,-29.6426"/>
</g>
<!-- Node13&#45;&gt;Node7 -->
<g id="edge18" class="edge">
<title>Node13&#45;&gt;Node7</title>
<path fill="none" stroke="#191970" d="M736.4071,-224.2455C720.621,-215.4928 697.2361,-202.527 679.2413,-192.5496"/>
<polygon fill="#191970" stroke="#191970" points="680.8341,-189.4308 670.3913,-187.6427 677.4397,-195.5528 680.8341,-189.4308"/>
</g>
<!-- Node14&#45;&gt;Node7 -->
<g id="edge20" class="edge">
<title>Node14&#45;&gt;Node7</title>
<path fill="none" stroke="#191970" d="M814.4783,-224.3733C781.6317,-214.9404 731.4405,-200.5265 695.7422,-190.2747"/>
<polygon fill="#191970" stroke="#191970" points="696.6619,-186.8974 686.0843,-187.5011 694.7297,-193.6255 696.6619,-186.8974"/>
</g>
<!-- Node15&#45;&gt;Node7 -->
<g id="edge22" class="edge">
<title>Node15&#45;&gt;Node7</title>
<path fill="none" stroke="#191970" d="M452.3263,-224.4369C493.7427,-214.8529 557.5777,-200.0812 602.0935,-189.78"/>
<polygon fill="#191970" stroke="#191970" points="602.8907,-193.1881 611.8441,-187.5237 601.3125,-186.3683 602.8907,-193.1881"/>
</g>
<!-- Node15&#45;&gt;Node10 -->
<g id="edge23" class="edge">
<title>Node15&#45;&gt;Node10</title>
<path fill="none" stroke="#191970" d="M399.8711,-224.375C359.6066,-189.5517 221.2329,-69.8771 170.6815,-26.1569"/>
<polygon fill="#191970" stroke="#191970" points="172.9406,-23.4834 163.0874,-19.5891 168.3616,-28.778 172.9406,-23.4834"/>
</g>
<!-- Node16&#45;&gt;Node7 -->
<g id="edge25" class="edge">
<title>Node16&#45;&gt;Node7</title>
<path fill="none" stroke="#191970" d="M542.0354,-224.3733C563.7388,-215.3032 596.4618,-201.6279 620.755,-191.4755"/>
<polygon fill="#191970" stroke="#191970" points="622.3881,-194.5865 630.2652,-187.5011 619.6889,-188.1278 622.3881,-194.5865"/>
</g>
<!-- Node17&#45;&gt;Node7 -->
<g id="edge28" class="edge">
<title>Node17&#45;&gt;Node7</title>
<path fill="none" stroke="#191970" d="M624.9223,-224.2455C629.6027,-216.5367 636.2673,-205.5598 641.9289,-196.2348"/>
<polygon fill="#191970" stroke="#191970" points="644.9475,-198.007 647.1455,-187.6427 638.9639,-194.3741 644.9475,-198.007"/>
</g>
<!-- Node18&#45;&gt;Node8 -->
<g id="edge31" class="edge">
<title>Node18&#45;&gt;Node8</title>
<path fill="none" stroke="#191970" d="M888.3033,-168.2455C887.7813,-160.9382 887.0496,-150.6944 886.4075,-141.7046"/>
<polygon fill="#191970" stroke="#191970" points="889.8924,-141.3679 885.6888,-131.6427 882.9102,-141.8667 889.8924,-141.3679"/>
</g>
<!-- Node19&#45;&gt;Node2 -->
<g id="edge36" class="edge">
<title>Node19&#45;&gt;Node2</title>
<path fill="none" stroke="#191970" d="M116.4038,-336.2577C136.6218,-313.4002 190.5045,-255.8592 247,-224 472.9931,-96.5568 785.0663,-33.9087 888.3033,-15.747"/>
<polygon fill="#191970" stroke="#191970" points="888.9342,-19.1899 898.189,-14.0324 887.7379,-12.2929 888.9342,-19.1899"/>
</g>
<!-- Node19&#45;&gt;Node10 -->
<g id="edge35" class="edge">
<title>Node19&#45;&gt;Node10</title>
<path fill="none" stroke="#191970" d="M103.2783,-336.3774C94.377,-317.3222 76,-273.2317 76,-234 76,-234 76,-234 76,-122 76,-82.2361 109.2071,-46.1042 131.7208,-26.177"/>
<polygon fill="#191970" stroke="#191970" points="134.1079,-28.7412 139.4501,-19.5918 129.5683,-23.4128 134.1079,-28.7412"/>
</g>
<!-- Node20&#45;&gt;Node1 -->
<g id="edge38" class="edge">
<title>Node20&#45;&gt;Node1</title>
<path fill="none" stroke="#191970" d="M901.4107,-448.3733C925.1768,-439.0007 961.4121,-424.7107 987.3747,-414.472"/>
<polygon fill="#191970" stroke="#191970" points="988.756,-417.6896 996.7747,-410.7649 986.1879,-411.1777 988.756,-417.6896"/>
</g>
<!-- Node20&#45;&gt;Node2 -->
<g id="edge41" class="edge">
<title>Node20&#45;&gt;Node2</title>
<path fill="none" stroke="#191970" d="M888.5906,-448.3825C907.7754,-431.7418 945.8152,-395.5431 964,-356 1016.6322,-241.5505 998.1925,-201.5892 1008,-76 1008.692,-67.1381 1012.5501,-63.636 1008,-56 997.0063,-37.5502 975.7573,-26.0503 957.2562,-19.1629"/>
<polygon fill="#191970" stroke="#191970" points="958.2172,-15.7928 947.6227,-15.8827 955.9609,-22.4192 958.2172,-15.7928"/>
</g>
<!-- Node20&#45;&gt;Node10 -->
<g id="edge40" class="edge">
<title>Node20&#45;&gt;Node10</title>
<path fill="none" stroke="#191970" d="M851.2858,-456.3837C720.9911,-447.9763 137.4994,-407.6453 77,-356 33.7044,-319.0407 38,-290.9253 38,-234 38,-234 38,-234 38,-122 38,-75.4628 86.9383,-41.828 120.6864,-24.1659"/>
<polygon fill="#191970" stroke="#191970" points="122.3862,-27.2289 129.749,-19.6105 119.2424,-20.9746 122.3862,-27.2289"/>
</g>
<!-- Node20&#45;&gt;Node19 -->
<g id="edge39" class="edge">
<title>Node20&#45;&gt;Node19</title>
<path fill="none" stroke="#191970" d="M851.414,-454.2736C736.4582,-437.531 267.7987,-369.2737 140.2057,-350.6906"/>
<polygon fill="#191970" stroke="#191970" points="140.669,-347.2212 130.2689,-349.2433 139.6601,-354.1481 140.669,-347.2212"/>
</g>
</g>
</svg>
        <g id="navigator" transform="translate(0 0)" fill="#404254">
                <rect fill="#f2f5e9" fill-opacity="0.5" stroke="#606060" stroke-width=".5" x="0" y="0" width="60" height="60"/>
                <use id="zoomplus" xlink:href="#zoomPlus" x="17" y="9" onmousedown="handleZoom(evt,'in')"/>
                <use id="zoomminus" xlink:href="#zoomMin" x="42" y="9" onmousedown="handleZoom(evt,'out')"/>
                <use id="reset" xlink:href="#resetDef" x="30" y="36" onmousedown="handleReset()"/>
                <g id="arrowUp" xlink:href="#dirArrow" transform="translate(30 24)" onmousedown="handlePan(0,-1)">
                  <use xlink:href="#rim" fill="#404040">
                        <set attributeName="fill" to="#808080" begin="arrowUp.mouseover" end="arrowUp.mouseout"/>
                  </use>
                  <path fill="none" stroke="white" stroke-width="1.5" d="M0,-3.0v7 M-2.5,-0.5L0,-3.0L2.5,-0.5"/>
                </g>
                <g id="arrowRight" xlink:href="#dirArrow" transform="rotate(90) translate(36 -43)" onmousedown="handlePan(1,0)">
                  <use xlink:href="#rim" fill="#404040">
                        <set attributeName="fill" to="#808080" begin="arrowRight.mouseover" end="arrowRight.mouseout"/>
                  </use>
                  <path fill="none" stroke="white" stroke-width="1.5" d="M0,-3.0v7 M-2.5,-0.5L0,-3.0L2.5,-0.5"/>
                </g>
                <g id="arrowDown" xlink:href="#dirArrow" transform="rotate(180) translate(-30 -48)" onmousedown="handlePan(0,1)">
                  <use xlink:href="#rim" fill="#404040">
                        <set attributeName="fill" to="#808080" begin="arrowDown.mouseover" end="arrowDown.mouseout"/>
                  </use>
                  <path fill="none" stroke="white" stroke-width="1.5" d="M0,-3.0v7 M-2.5,-0.5L0,-3.0L2.5,-0.5"/>
                </g>
                <g id="arrowLeft" xlink:href="#dirArrow" transform="rotate(270) translate(-36 17)" onmousedown="handlePan(-1,0)">
                  <use xlink:href="#rim" fill="#404040">
                        <set attributeName="fill" to="#808080" begin="arrowLeft.mouseover" end="arrowLeft.mouseout"/>
                  </use>
                  <path fill="none" stroke="white" stroke-width="1.5" d="M0,-3.0v7 M-2.5,-0.5L0,-3.0L2.5,-0.5"/>
                </g>
        </g>
        <svg viewBox="0 0 15 15" width="100%" height="30px" preserveAspectRatio="xMaxYMin meet">
         <g id="arrow_out" transform="scale(0.3 0.3)">
          <a xlink:href="floats_8c__incl_org.svg" target="_base">
           <rect id="button" ry="5" rx="5" y="6" x="6" height="38" width="38"
                fill="#f2f5e9" fill-opacity="0.5" stroke="#606060" stroke-width="1.0"/>
           <path id="arrow"
             d="M 11.500037,31.436501 C 11.940474,20.09759 22.043105,11.32322 32.158766,21.979434 L 37.068811,17.246167 C 37.068811,17.246167 37.088388,32 37.088388,32 L 22.160133,31.978069 C 22.160133,31.978069 26.997745,27.140456 26.997745,27.140456 C 18.528582,18.264221 13.291696,25.230495 11.500037,31.436501 z"
             style="fill:#404040;"/>
          </a>
         </g>
        </svg>
</svg>
