<?xml version="1.0" encoding="UTF-8" standalone="no"?>
<!DOCTYPE svg PUBLIC "-//W3C//DTD SVG 1.1//EN"
 "http://www.w3.org/Graphics/SVG/1.1/DTD/svg11.dtd">
<!-- Generated by graphviz version 2.40.1 (20161225.0304)
 -->
<!-- Title: PARSERFUNC Pages: 1 -->
<svg width="602pt" height="142pt"
 viewBox="0.00 0.00 602.00 142.00" xmlns="http://www.w3.org/2000/svg" xmlns:xlink="http://www.w3.org/1999/xlink">
<g id="graph0" class="graph" transform="scale(1 1) rotate(0) translate(4 138)">
<title>PARSERFUNC</title>
<polygon fill="#ffffff" stroke="transparent" points="-4,4 -4,-138 598,-138 598,4 -4,4"/>
<!-- Node0 -->
<g id="node1" class="node">
<title>Node0</title>
<g id="a_node1"><a xlink:title="Similar to the function accepting integers but does not accept the 0d prefix.">
<polygon fill="#bfbfbf" stroke="#000000" points="0,-57.5 0,-76.5 86,-76.5 86,-57.5 0,-57.5"/>
<text text-anchor="middle" x="43" y="-64.5" font-family="Helvetica,sans-Serif" font-size="10.00" fill="#000000">PARSERFUNC</text>
</a>
</g>
</g>
<!-- Node1 -->
<g id="node2" class="node">
<title>Node1</title>
<g id="a_node2"><a xlink:href="parser_8h.html#a499e49a3ad7a6fde77c49792f1a0774a" target="_top" xlink:title="Searches for any of the characters given in the parser.">
<polygon fill="#ffffff" stroke="#000000" points="122,-114.5 122,-133.5 235,-133.5 235,-114.5 122,-114.5"/>
<text text-anchor="middle" x="178.5" y="-121.5" font-family="Helvetica,sans-Serif" font-size="10.00" fill="#000000">parser_acceptanychar</text>
</a>
</g>
</g>
<!-- Node0&#45;&gt;Node1 -->
<g id="edge1" class="edge">
<title>Node0&#45;&gt;Node1</title>
<path fill="none" stroke="#191970" d="M61.2248,-76.5634C77.0525,-84.6752 100.7127,-96.3399 122,-105 127.1524,-107.0961 132.632,-109.1496 138.0741,-111.086"/>
<polygon fill="#191970" stroke="#191970" points="137.1561,-114.4718 147.7509,-114.4289 139.4418,-107.8554 137.1561,-114.4718"/>
</g>
<!-- Node5 -->
<g id="node6" class="node">
<title>Node5</title>
<g id="a_node6"><a xlink:href="error_8c.html#afe624477a33ab8814a9454f58a0bc1fa" target="_top" xlink:title="Construct a new error object out of parameters, and push it to the errorstack.">
<polygon fill="#ffffff" stroke="#000000" points="135.5,-76.5 135.5,-95.5 221.5,-95.5 221.5,-76.5 135.5,-76.5"/>
<text text-anchor="middle" x="178.5" y="-83.5" font-family="Helvetica,sans-Serif" font-size="10.00" fill="#000000">errorstack_push</text>
</a>
</g>
</g>
<!-- Node0&#45;&gt;Node5 -->
<g id="edge5" class="edge">
<title>Node0&#45;&gt;Node5</title>
<path fill="none" stroke="#191970" d="M86.2456,-73.064C98.5906,-74.795 112.1901,-76.7019 125.0666,-78.5075"/>
<polygon fill="#191970" stroke="#191970" points="124.8113,-82.0059 135.2005,-79.9285 125.7834,-75.0737 124.8113,-82.0059"/>
</g>
<!-- Node6 -->
<g id="node7" class="node">
<title>Node6</title>
<g id="a_node7"><a xlink:href="AST_8c.html#a8c2fa2cf1cd82b5d85d7297e1150980b" target="_top" xlink:title="Constructore for ast objects.">
<polygon fill="#ffffff" stroke="#000000" points="149,-38.5 149,-57.5 208,-57.5 208,-38.5 149,-38.5"/>
<text text-anchor="middle" x="178.5" y="-45.5" font-family="Helvetica,sans-Serif" font-size="10.00" fill="#000000">AST_new</text>
</a>
</g>
</g>
<!-- Node0&#45;&gt;Node6 -->
<g id="edge6" class="edge">
<title>Node0&#45;&gt;Node6</title>
<path fill="none" stroke="#191970" d="M86.2456,-60.936C103.1784,-58.5617 122.4713,-55.8564 139.0214,-53.5357"/>
<polygon fill="#191970" stroke="#191970" points="139.5091,-57.0017 148.9262,-52.1469 138.537,-50.0695 139.5091,-57.0017"/>
</g>
<!-- Node7 -->
<g id="node8" class="node">
<title>Node7</title>
<g id="a_node8"><a xlink:href="token_8h.html#a6df9cba793453cf8281c9843e576fe40" target="_top" xlink:title="Constructor for token objects.">
<polygon fill="#ffffff" stroke="#000000" points="146.5,-.5 146.5,-19.5 210.5,-19.5 210.5,-.5 146.5,-.5"/>
<text text-anchor="middle" x="178.5" y="-7.5" font-family="Helvetica,sans-Serif" font-size="10.00" fill="#000000">token_new</text>
</a>
</g>
</g>
<!-- Node0&#45;&gt;Node7 -->
<g id="edge7" class="edge">
<title>Node0&#45;&gt;Node7</title>
<path fill="none" stroke="#191970" d="M61.2248,-57.4366C77.0525,-49.3248 100.7127,-37.6601 122,-29 127.1524,-26.9039 132.632,-24.8504 138.0741,-22.914"/>
<polygon fill="#191970" stroke="#191970" points="139.4418,-26.1446 147.7509,-19.5711 137.1561,-19.5282 139.4418,-26.1446"/>
</g>
<!-- Node2 -->
<g id="node3" class="node">
<title>Node2</title>
<g id="a_node3"><a xlink:href="parserutil_8c.html#a1a00af051004cb18edac760f39982eea" target="_top" xlink:title="Searches for the given character, advances the parser if it found it.">
<polygon fill="#ffffff" stroke="#000000" points="271,-114.5 271,-133.5 368,-133.5 368,-114.5 271,-114.5"/>
<text text-anchor="middle" x="319.5" y="-121.5" font-family="Helvetica,sans-Serif" font-size="10.00" fill="#000000">parser_acceptchar</text>
</a>
</g>
</g>
<!-- Node1&#45;&gt;Node2 -->
<g id="edge2" class="edge">
<title>Node1&#45;&gt;Node2</title>
<path fill="none" stroke="#191970" d="M235.0377,-124C243.4259,-124 252.0888,-124 260.5254,-124"/>
<polygon fill="#191970" stroke="#191970" points="260.6704,-127.5001 270.6703,-124 260.6703,-120.5001 260.6704,-127.5001"/>
</g>
<!-- Node3 -->
<g id="node4" class="node">
<title>Node3</title>
<g id="a_node4"><a xlink:href="parserutil_8c.html#a2d9e8c20025b7b883c4e87790685a6ad" target="_top" xlink:title="Proxy to parser_next.">
<polygon fill="#ffffff" stroke="#000000" points="404,-114.5 404,-133.5 490,-133.5 490,-114.5 404,-114.5"/>
<text text-anchor="middle" x="447" y="-121.5" font-family="Helvetica,sans-Serif" font-size="10.00" fill="#000000">parser_advance</text>
</a>
</g>
</g>
<!-- Node2&#45;&gt;Node3 -->
<g id="edge3" class="edge">
<title>Node2&#45;&gt;Node3</title>
<path fill="none" stroke="#191970" d="M368.066,-124C376.4713,-124 385.2505,-124 393.7717,-124"/>
<polygon fill="#191970" stroke="#191970" points="393.9954,-127.5001 403.9954,-124 393.9954,-120.5001 393.9954,-127.5001"/>
</g>
<!-- Node4 -->
<g id="node5" class="node">
<title>Node4</title>
<g id="a_node5"><a xlink:href="parserutil_8c.html#ab25a97ff31329fe9461666bfe2dc6f2c" target="_top" xlink:title="Iterate the parser.">
<polygon fill="#ffffff" stroke="#000000" points="526,-114.5 526,-133.5 594,-133.5 594,-114.5 526,-114.5"/>
<text text-anchor="middle" x="560" y="-121.5" font-family="Helvetica,sans-Serif" font-size="10.00" fill="#000000">parser_next</text>
</a>
</g>
</g>
<!-- Node3&#45;&gt;Node4 -->
<g id="edge4" class="edge">
<title>Node3&#45;&gt;Node4</title>
<path fill="none" stroke="#191970" d="M490.0428,-124C498.4677,-124 507.3165,-124 515.7791,-124"/>
<polygon fill="#191970" stroke="#191970" points="515.8556,-127.5001 525.8556,-124 515.8555,-120.5001 515.8556,-127.5001"/>
</g>
</g>
</svg>
