<?xml version="1.0" encoding="UTF-8" standalone="no"?>
<!DOCTYPE svg PUBLIC "-//W3C//DTD SVG 1.1//EN"
 "http://www.w3.org/Graphics/SVG/1.1/DTD/svg11.dtd">
<!-- Generated by graphviz version 2.40.1 (20161225.0304)
 -->
<!-- Title: PARSERFUNC Pages: 1 -->
<svg width="726pt" height="303pt"
 viewBox="0.00 0.00 726.00 303.21" xmlns="http://www.w3.org/2000/svg" xmlns:xlink="http://www.w3.org/1999/xlink">
<g id="graph0" class="graph" transform="scale(1 1) rotate(0) translate(4 299.2086)">
<title>PARSERFUNC</title>
<polygon fill="#ffffff" stroke="transparent" points="-4,4 -4,-299.2086 722,-299.2086 722,4 -4,4"/>
<!-- Node0 -->
<g id="node1" class="node">
<title>Node0</title>
<g id="a_node1"><a xlink:title="Accepts a floating point constant in the format of.">
<polygon fill="#bfbfbf" stroke="#000000" points="0,-123.7086 0,-142.7086 81,-142.7086 81,-123.7086 0,-123.7086"/>
<text text-anchor="middle" x="40.5" y="-130.7086" font-family="Helvetica,sans-Serif" font-size="10.00" fill="#000000">PARSERFUNC</text>
</a>
</g>
</g>
<!-- Node1 -->
<g id="node2" class="node">
<title>Node1</title>
<g id="a_node2"><a xlink:href="parser_8h.html#a8c4c57eca60b2cec9a372a04abea456d" target="_top" xlink:title="Advances the parser as long as it can find whitespace.">
<polygon fill="#ffffff" stroke="#000000" points="310,-275.7086 310,-294.7086 396,-294.7086 396,-275.7086 310,-275.7086"/>
<text text-anchor="middle" x="353" y="-282.7086" font-family="Helvetica,sans-Serif" font-size="10.00" fill="#000000">parser_skipws</text>
</a>
</g>
</g>
<!-- Node0&#45;&gt;Node1 -->
<g id="edge1" class="edge">
<title>Node0&#45;&gt;Node1</title>
<path fill="none" stroke="#191970" d="M45.36,-142.7563C55.7246,-162.106 81.944,-205.9893 117,-228.2086 172.9555,-263.6747 249.1603,-277.0772 299.6584,-282.1397"/>
<polygon fill="#191970" stroke="#191970" points="299.4339,-285.6338 309.7143,-283.0717 300.08,-278.6637 299.4339,-285.6338"/>
</g>
<!-- Node4 -->
<g id="node5" class="node">
<title>Node4</title>
<g id="a_node5"><a xlink:href="parser_8h.html#a3c9c52258898d196f76b4d58595b33b9" target="_top" xlink:title="Advances the parser only if the next n characters (where n is the length of the string) matches the s...">
<polygon fill="#ffffff" stroke="#000000" points="133,-199.7086 133,-218.7086 246,-218.7086 246,-199.7086 133,-199.7086"/>
<text text-anchor="middle" x="189.5" y="-206.7086" font-family="Helvetica,sans-Serif" font-size="10.00" fill="#000000">parser_acceptstring</text>
</a>
</g>
</g>
<!-- Node0&#45;&gt;Node4 -->
<g id="edge4" class="edge">
<title>Node0&#45;&gt;Node4</title>
<path fill="none" stroke="#191970" d="M50.5468,-142.727C64.4235,-155.3701 90.7307,-177.5732 117,-190.2086 121.9102,-192.5704 127.1539,-194.668 132.4906,-196.5245"/>
<polygon fill="#191970" stroke="#191970" points="131.5543,-199.8996 142.1452,-199.6109 133.6859,-193.232 131.5543,-199.8996"/>
</g>
<!-- Node9 -->
<g id="node10" class="node">
<title>Node9</title>
<g id="a_node10"><a xlink:href="AST_8c.html#a3a1c70c232e669f02ef0a4e171ee6ab2" target="_top" xlink:title="Constructore for ast objects.">
<polygon fill="#ffffff" stroke="#000000" points="159,-161.7086 159,-180.7086 220,-180.7086 220,-161.7086 159,-161.7086"/>
<text text-anchor="middle" x="189.5" y="-168.7086" font-family="Helvetica,sans-Serif" font-size="10.00" fill="#000000">AST_new</text>
</a>
</g>
</g>
<!-- Node0&#45;&gt;Node9 -->
<g id="edge10" class="edge">
<title>Node0&#45;&gt;Node9</title>
<path fill="none" stroke="#191970" d="M78.099,-142.7976C99.7797,-148.3269 127.0385,-155.2789 149.1651,-160.9219"/>
<polygon fill="#191970" stroke="#191970" points="148.377,-164.3328 158.9318,-163.4127 150.1069,-157.55 148.377,-164.3328"/>
</g>
<!-- Node10 -->
<g id="node11" class="node">
<title>Node10</title>
<g id="a_node11"><a xlink:href="token_8h.html#a5f63b7723640416a125433badc7d6563" target="_top" xlink:title="Constructor for token objects.">
<polygon fill="#ffffff" stroke="#000000" points="154.5,-123.7086 154.5,-142.7086 224.5,-142.7086 224.5,-123.7086 154.5,-123.7086"/>
<text text-anchor="middle" x="189.5" y="-130.7086" font-family="Helvetica,sans-Serif" font-size="10.00" fill="#000000">token_new</text>
</a>
</g>
</g>
<!-- Node0&#45;&gt;Node10 -->
<g id="edge11" class="edge">
<title>Node0&#45;&gt;Node10</title>
<path fill="none" stroke="#191970" d="M81.2149,-133.2086C100.7325,-133.2086 124.175,-133.2086 144.2494,-133.2086"/>
<polygon fill="#191970" stroke="#191970" points="144.4014,-136.7087 154.4013,-133.2086 144.4013,-129.7087 144.4014,-136.7087"/>
</g>
<!-- Node11 -->
<g id="node12" class="node">
<title>Node11</title>
<g id="a_node12"><a xlink:href="helios__float_8c.html#a826b7f7e3b3c75b0161be6e84c349135" target="_top" xlink:title="Create a helios_float object from a c double type.">
<polygon fill="#ffffff" stroke="#000000" points="117,-85.7086 117,-104.7086 262,-104.7086 262,-85.7086 117,-85.7086"/>
<text text-anchor="middle" x="189.5" y="-92.7086" font-family="Helvetica,sans-Serif" font-size="10.00" fill="#000000">helios_float_from_cdouble</text>
</a>
</g>
</g>
<!-- Node0&#45;&gt;Node11 -->
<g id="edge12" class="edge">
<title>Node0&#45;&gt;Node11</title>
<path fill="none" stroke="#191970" d="M78.099,-123.6196C97.584,-118.6503 121.5745,-112.5319 142.2958,-107.2473"/>
<polygon fill="#191970" stroke="#191970" points="143.3465,-110.5914 152.1714,-104.7287 141.6166,-103.8085 143.3465,-110.5914"/>
</g>
<!-- Node15 -->
<g id="node16" class="node">
<title>Node15</title>
<g id="a_node16"><a xlink:href="error_8c.html#ae07365063509d8944da638087336597b" target="_top" xlink:title="Construct a new error object out of parameters, and push it to the errorstack.">
<polygon fill="#ffffff" stroke="#000000" points="142,-47.7086 142,-66.7086 237,-66.7086 237,-47.7086 142,-47.7086"/>
<text text-anchor="middle" x="189.5" y="-54.7086" font-family="Helvetica,sans-Serif" font-size="10.00" fill="#000000">errorstack_push</text>
</a>
</g>
</g>
<!-- Node0&#45;&gt;Node15 -->
<g id="edge16" class="edge">
<title>Node0&#45;&gt;Node15</title>
<path fill="none" stroke="#191970" d="M50.5468,-123.6902C64.4235,-111.0472 90.7307,-88.8441 117,-76.2086 121.9102,-73.8468 127.1539,-71.7493 132.4906,-69.8928"/>
<polygon fill="#191970" stroke="#191970" points="133.6859,-73.1853 142.1452,-66.8064 131.5543,-66.5177 133.6859,-73.1853"/>
</g>
<!-- Node16 -->
<g id="node17" class="node">
<title>Node16</title>
<g id="a_node17"><a xlink:href="parser_8h.html#a2d9e8c20025b7b883c4e87790685a6ad" target="_top" xlink:title="Proxy to parser_next.">
<polygon fill="#ffffff" stroke="#000000" points="479,-19.7086 479,-38.7086 573,-38.7086 573,-19.7086 479,-19.7086"/>
<text text-anchor="middle" x="526" y="-26.7086" font-family="Helvetica,sans-Serif" font-size="10.00" fill="#000000">parser_advance</text>
</a>
</g>
</g>
<!-- Node0&#45;&gt;Node16 -->
<g id="edge17" class="edge">
<title>Node0&#45;&gt;Node16</title>
<path fill="none" stroke="#191970" d="M44.7083,-123.6405C54.1919,-103.4287 79.3826,-56.7258 117,-38.2086 235.2452,19.9975 396.9646,-1.4499 477.0049,-17.6585"/>
<polygon fill="#191970" stroke="#191970" points="476.3131,-21.0894 486.8168,-19.7028 477.7409,-14.2366 476.3131,-21.0894"/>
</g>
<!-- Node2 -->
<g id="node3" class="node">
<title>Node2</title>
<g id="a_node3"><a xlink:href="parserutil_8c.html#a2d9e8c20025b7b883c4e87790685a6ad" target="_top" xlink:title="Proxy to parser_next.">
<polygon fill="#ffffff" stroke="#000000" points="479,-199.7086 479,-218.7086 573,-218.7086 573,-199.7086 479,-199.7086"/>
<text text-anchor="middle" x="526" y="-206.7086" font-family="Helvetica,sans-Serif" font-size="10.00" fill="#000000">parser_advance</text>
</a>
</g>
</g>
<!-- Node1&#45;&gt;Node2 -->
<g id="edge2" class="edge">
<title>Node1&#45;&gt;Node2</title>
<path fill="none" stroke="#191970" d="M382.6387,-275.6829C390.9207,-272.8288 399.8753,-269.5607 408,-266.2086 439.7934,-253.0912 475.1854,-235.5895 498.8393,-223.4556"/>
<polygon fill="#191970" stroke="#191970" points="500.6292,-226.4705 507.9077,-218.7715 497.4167,-220.2511 500.6292,-226.4705"/>
</g>
<!-- Node3 -->
<g id="node4" class="node">
<title>Node3</title>
<g id="a_node4"><a xlink:href="parserutil_8c.html#ab25a97ff31329fe9461666bfe2dc6f2c" target="_top" xlink:title="Iterate the parser.">
<polygon fill="#ffffff" stroke="#000000" points="644,-104.7086 644,-123.7086 718,-123.7086 718,-104.7086 644,-104.7086"/>
<text text-anchor="middle" x="681" y="-111.7086" font-family="Helvetica,sans-Serif" font-size="10.00" fill="#000000">parser_next</text>
</a>
</g>
</g>
<!-- Node2&#45;&gt;Node3 -->
<g id="edge3" class="edge">
<title>Node2&#45;&gt;Node3</title>
<path fill="none" stroke="#191970" d="M541.7152,-199.5767C568.7542,-183.0045 624.2662,-148.981 656.4456,-129.2581"/>
<polygon fill="#191970" stroke="#191970" points="658.5461,-132.0758 665.2432,-123.866 654.8882,-126.1076 658.5461,-132.0758"/>
</g>
<!-- Node5 -->
<g id="node6" class="node">
<title>Node5</title>
<g id="a_node6"><a xlink:href="parserutil_8c.html#aecf4b8bdaae9ca8435542900cf024f4e" target="_top" xlink:title="Copy a parser.">
<polygon fill="#ffffff" stroke="#000000" points="315,-237.7086 315,-256.7086 391,-256.7086 391,-237.7086 315,-237.7086"/>
<text text-anchor="middle" x="353" y="-244.7086" font-family="Helvetica,sans-Serif" font-size="10.00" fill="#000000">parser_copy</text>
</a>
</g>
</g>
<!-- Node4&#45;&gt;Node5 -->
<g id="edge5" class="edge">
<title>Node4&#45;&gt;Node5</title>
<path fill="none" stroke="#191970" d="M230.758,-218.7976C253.3557,-224.0497 281.4759,-230.5853 305.0468,-236.0635"/>
<polygon fill="#191970" stroke="#191970" points="304.3079,-239.485 314.8406,-238.3398 305.8926,-232.6668 304.3079,-239.485"/>
</g>
<!-- Node6 -->
<g id="node7" class="node">
<title>Node6</title>
<g id="a_node7"><a xlink:href="parserutil_8c.html#a1a00af051004cb18edac760f39982eea" target="_top" xlink:title="Searches for the given character, advances the parser if it found it.">
<polygon fill="#ffffff" stroke="#000000" points="300,-199.7086 300,-218.7086 406,-218.7086 406,-199.7086 300,-199.7086"/>
<text text-anchor="middle" x="353" y="-206.7086" font-family="Helvetica,sans-Serif" font-size="10.00" fill="#000000">parser_acceptchar</text>
</a>
</g>
</g>
<!-- Node4&#45;&gt;Node6 -->
<g id="edge6" class="edge">
<title>Node4&#45;&gt;Node6</title>
<path fill="none" stroke="#191970" d="M246.2255,-209.2086C260.2527,-209.2086 275.3677,-209.2086 289.6866,-209.2086"/>
<polygon fill="#191970" stroke="#191970" points="289.9454,-212.7087 299.9454,-209.2086 289.9453,-205.7087 289.9454,-212.7087"/>
</g>
<!-- Node7 -->
<g id="node8" class="node">
<title>Node7</title>
<g id="a_node8"><a xlink:href="parserutil_8c.html#a1f1841a636bfe529466c99e3db9999cd" target="_top" xlink:title="Restores a parser to another parser&#39;s position.">
<polygon fill="#ffffff" stroke="#000000" points="309.5,-161.7086 309.5,-180.7086 396.5,-180.7086 396.5,-161.7086 309.5,-161.7086"/>
<text text-anchor="middle" x="353" y="-168.7086" font-family="Helvetica,sans-Serif" font-size="10.00" fill="#000000">parser_restore</text>
</a>
</g>
</g>
<!-- Node4&#45;&gt;Node7 -->
<g id="edge8" class="edge">
<title>Node4&#45;&gt;Node7</title>
<path fill="none" stroke="#191970" d="M230.758,-199.6196C252.4307,-194.5825 279.1832,-188.3648 302.1303,-183.0316"/>
<polygon fill="#191970" stroke="#191970" points="303.0907,-186.4017 312.0387,-180.7287 301.506,-179.5834 303.0907,-186.4017"/>
</g>
<!-- Node8 -->
<g id="node9" class="node">
<title>Node8</title>
<g id="a_node9"><a xlink:href="parserutil_8c.html#ab62454c7986532e03ea36b14956b5ad1" target="_top" xlink:title="Simple parser destructor.">
<polygon fill="#ffffff" stroke="#000000" points="298,-123.7086 298,-142.7086 408,-142.7086 408,-123.7086 298,-123.7086"/>
<text text-anchor="middle" x="353" y="-130.7086" font-family="Helvetica,sans-Serif" font-size="10.00" fill="#000000">parser_free_simple</text>
</a>
</g>
</g>
<!-- Node4&#45;&gt;Node8 -->
<g id="edge9" class="edge">
<title>Node4&#45;&gt;Node8</title>
<path fill="none" stroke="#191970" d="M240.8662,-199.5903C248.2319,-197.1294 255.5052,-194.0522 262,-190.2086 282.0212,-178.3602 278.4453,-164.8122 298,-152.2086 301.1126,-150.2025 304.4615,-148.3812 307.9152,-146.7332"/>
<polygon fill="#191970" stroke="#191970" points="309.3874,-149.9104 317.2118,-142.7668 306.6404,-143.4719 309.3874,-149.9104"/>
</g>
<!-- Node6&#45;&gt;Node2 -->
<g id="edge7" class="edge">
<title>Node6&#45;&gt;Node2</title>
<path fill="none" stroke="#191970" d="M406.3173,-209.2086C426.0159,-209.2086 448.4207,-209.2086 468.4759,-209.2086"/>
<polygon fill="#191970" stroke="#191970" points="468.7226,-212.7087 478.7225,-209.2086 468.7225,-205.7087 468.7226,-212.7087"/>
</g>
<!-- Node12 -->
<g id="node13" class="node">
<title>Node12</title>
<g id="a_node13"><a xlink:href="helios__float_8c.html#a6b9f18063c74a36f08d05c6310bc45da" target="_top" xlink:title="Constructor of a helios_float object.">
<polygon fill="#ffffff" stroke="#000000" points="306,-85.7086 306,-104.7086 400,-104.7086 400,-85.7086 306,-85.7086"/>
<text text-anchor="middle" x="353" y="-92.7086" font-family="Helvetica,sans-Serif" font-size="10.00" fill="#000000">helios_float_init</text>
</a>
</g>
</g>
<!-- Node11&#45;&gt;Node12 -->
<g id="edge13" class="edge">
<title>Node11&#45;&gt;Node12</title>
<path fill="none" stroke="#191970" d="M262.1656,-95.2086C273.4115,-95.2086 284.8895,-95.2086 295.7343,-95.2086"/>
<polygon fill="#191970" stroke="#191970" points="295.9096,-98.7087 305.9095,-95.2086 295.9095,-91.7087 295.9096,-98.7087"/>
</g>
<!-- Node13 -->
<g id="node14" class="node">
<title>Node13</title>
<g id="a_node14"><a xlink:href="helios__memory_8h.html#af87f0050f8e236d0945592fa4e54dc94" target="_top" xlink:title="Allocates a new helios object (and performs all the GC steps associated with that action).">
<polygon fill="#ffffff" stroke="#000000" points="463.5,-104.7086 463.5,-123.7086 588.5,-123.7086 588.5,-104.7086 463.5,-104.7086"/>
<text text-anchor="middle" x="526" y="-111.7086" font-family="Helvetica,sans-Serif" font-size="10.00" fill="#000000">helios_allocate_object</text>
</a>
</g>
</g>
<!-- Node12&#45;&gt;Node13 -->
<g id="edge14" class="edge">
<title>Node12&#45;&gt;Node13</title>
<path fill="none" stroke="#191970" d="M400.273,-100.4005C416.4972,-102.1823 435.0572,-104.2207 452.8457,-106.1743"/>
<polygon fill="#191970" stroke="#191970" points="452.8843,-109.6995 463.2067,-107.3123 453.6485,-102.7414 452.8843,-109.6995"/>
</g>
<!-- Node14 -->
<g id="node15" class="node">
<title>Node14</title>
<g id="a_node15"><a xlink:href="helios__memory_8h.html#ab14fb1c046aae61ab06eda8eeaf2cd85" target="_top" xlink:title=" ">
<polygon fill="#ffffff" stroke="#000000" points="444,-66.7086 444,-85.7086 608,-85.7086 608,-66.7086 444,-66.7086"/>
<text text-anchor="middle" x="526" y="-73.7086" font-family="Helvetica,sans-Serif" font-size="10.00" fill="#000000">helios_set_garbagecollectable</text>
</a>
</g>
</g>
<!-- Node12&#45;&gt;Node14 -->
<g id="edge15" class="edge">
<title>Node12&#45;&gt;Node14</title>
<path fill="none" stroke="#191970" d="M400.273,-90.0168C410.7189,-88.8696 422.1331,-87.616 433.6863,-86.3471"/>
<polygon fill="#191970" stroke="#191970" points="434.2959,-89.8013 443.854,-85.2304 433.5316,-82.8432 434.2959,-89.8013"/>
</g>
<!-- Node16&#45;&gt;Node3 -->
<g id="edge18" class="edge">
<title>Node16&#45;&gt;Node3</title>
<path fill="none" stroke="#191970" d="M562.2039,-38.7106C576.8843,-43.2853 593.7111,-49.4768 608,-57.2086 628.5697,-68.3391 649.3311,-85.2224 663.426,-97.7281"/>
<polygon fill="#191970" stroke="#191970" points="661.144,-100.3835 670.9027,-104.5089 665.8465,-95.1983 661.144,-100.3835"/>
</g>
</g>
</svg>
