<?xml version="1.0" encoding="UTF-8" standalone="no"?>
<!DOCTYPE svg PUBLIC "-//W3C//DTD SVG 1.1//EN"
 "http://www.w3.org/Graphics/SVG/1.1/DTD/svg11.dtd">
<!-- Generated by graphviz version 2.40.1 (20161225.0304)
 -->
<!-- Title: generator/generator.c Pages: 1 -->
<svg width="495pt" height="196pt"
 viewBox="0.00 0.00 494.50 196.00" xmlns="http://www.w3.org/2000/svg" xmlns:xlink="http://www.w3.org/1999/xlink">
<g id="graph0" class="graph" transform="scale(1 1) rotate(0) translate(4 192)">
<title>generator/generator.c</title>
<polygon fill="#ffffff" stroke="transparent" points="-4,4 -4,-192 490.5,-192 490.5,4 -4,4"/>
<!-- Node0 -->
<g id="node1" class="node">
<title>Node0</title>
<g id="a_node1"><a xlink:title=" ">
<polygon fill="#bfbfbf" stroke="#000000" points="167,-168.5 167,-187.5 275,-187.5 275,-168.5 167,-168.5"/>
<text text-anchor="middle" x="221" y="-175.5" font-family="Helvetica,sans-Serif" font-size="10.00" fill="#000000">generator/generator.c</text>
</a>
</g>
</g>
<!-- Node1 -->
<g id="node2" class="node">
<title>Node1</title>
<g id="a_node2"><a xlink:href="AST_8h.html" target="_top" xlink:title=" ">
<polygon fill="#ffffff" stroke="#000000" points="85,-112.5 85,-131.5 129,-131.5 129,-112.5 85,-112.5"/>
<text text-anchor="middle" x="107" y="-119.5" font-family="Helvetica,sans-Serif" font-size="10.00" fill="#000000">AST.h</text>
</a>
</g>
</g>
<!-- Node0&#45;&gt;Node1 -->
<g id="edge1" class="edge">
<title>Node0&#45;&gt;Node1</title>
<path fill="none" stroke="#191970" d="M201.4027,-168.3733C183.2669,-159.4644 156.0865,-146.1127 135.5413,-136.0203"/>
<polygon fill="#191970" stroke="#191970" points="136.8603,-132.7688 126.3416,-131.5011 133.7739,-139.0517 136.8603,-132.7688"/>
</g>
<!-- Node3 -->
<g id="node4" class="node">
<title>Node3</title>
<g id="a_node4"><a xlink:href="token_8h.html" target="_top" xlink:title=" ">
<polygon fill="#ffffff" stroke="#000000" points="29.5,-56.5 29.5,-75.5 78.5,-75.5 78.5,-56.5 29.5,-56.5"/>
<text text-anchor="middle" x="54" y="-63.5" font-family="Helvetica,sans-Serif" font-size="10.00" fill="#000000">token.h</text>
</a>
</g>
</g>
<!-- Node0&#45;&gt;Node3 -->
<g id="edge18" class="edge">
<title>Node0&#45;&gt;Node3</title>
<path fill="none" stroke="#191970" d="M176.0944,-168.4545C139.0524,-159.7535 90.3427,-146.1355 76,-132 63.6609,-119.8391 58.2424,-100.5858 55.8629,-86.0057"/>
<polygon fill="#191970" stroke="#191970" points="59.3183,-85.4339 54.5715,-75.9619 52.3755,-86.3266 59.3183,-85.4339"/>
</g>
<!-- Node4 -->
<g id="node5" class="node">
<title>Node4</title>
<g id="a_node5"><a xlink:title=" ">
<polygon fill="#ffffff" stroke="#bfbfbf" points="0,-.5 0,-19.5 56,-19.5 56,-.5 0,-.5"/>
<text text-anchor="middle" x="28" y="-7.5" font-family="Helvetica,sans-Serif" font-size="10.00" fill="#000000">stdbool.h</text>
</a>
</g>
</g>
<!-- Node0&#45;&gt;Node4 -->
<g id="edge14" class="edge">
<title>Node0&#45;&gt;Node4</title>
<path fill="none" stroke="#191970" d="M166.7176,-171.7157C133.4963,-165.7471 91.473,-154.2049 60,-132 35.008,-114.3675 29.3342,-105.127 20,-76 15.1082,-60.7354 17.8781,-42.6095 21.4366,-29.2188"/>
<polygon fill="#191970" stroke="#191970" points="24.7889,-30.2249 24.3283,-19.6401 18.0876,-28.2019 24.7889,-30.2249"/>
</g>
<!-- Node5 -->
<g id="node6" class="node">
<title>Node5</title>
<g id="a_node6"><a xlink:href="constant_8h.html" target="_top" xlink:title=" ">
<polygon fill="#ffffff" stroke="#000000" points="261,-56.5 261,-75.5 323,-75.5 323,-56.5 261,-56.5"/>
<text text-anchor="middle" x="292" y="-63.5" font-family="Helvetica,sans-Serif" font-size="10.00" fill="#000000">constant.h</text>
</a>
</g>
</g>
<!-- Node0&#45;&gt;Node5 -->
<g id="edge6" class="edge">
<title>Node0&#45;&gt;Node5</title>
<path fill="none" stroke="#191970" d="M230.4491,-168.3459C238.874,-159.4125 251.1996,-145.5105 260,-132 269.7477,-117.0352 278.4194,-98.658 284.2683,-85.099"/>
<polygon fill="#191970" stroke="#191970" points="287.5257,-86.3816 288.1619,-75.8058 281.0694,-83.6765 287.5257,-86.3816"/>
</g>
<!-- Node6 -->
<g id="node7" class="node">
<title>Node6</title>
<g id="a_node7"><a xlink:href="instruction_8h.html" target="_top" xlink:title=" ">
<polygon fill="#ffffff" stroke="#000000" points="135,-56.5 135,-75.5 205,-75.5 205,-56.5 135,-56.5"/>
<text text-anchor="middle" x="170" y="-63.5" font-family="Helvetica,sans-Serif" font-size="10.00" fill="#000000">instruction.h</text>
</a>
</g>
</g>
<!-- Node0&#45;&gt;Node6 -->
<g id="edge8" class="edge">
<title>Node0&#45;&gt;Node6</title>
<path fill="none" stroke="#191970" d="M209.9298,-168.1744C200.9474,-159.5513 188.7113,-146.1989 182,-132 175.1569,-117.5223 172.2029,-99.5567 170.9345,-86.0266"/>
<polygon fill="#191970" stroke="#191970" points="174.4136,-85.6067 170.217,-75.8785 167.4311,-86.1004 174.4136,-85.6067"/>
</g>
<!-- Node7 -->
<g id="node8" class="node">
<title>Node7</title>
<g id="a_node8"><a xlink:href="program_8h.html" target="_top" xlink:title=" ">
<polygon fill="#ffffff" stroke="#000000" points="191,-112.5 191,-131.5 251,-131.5 251,-112.5 191,-112.5"/>
<text text-anchor="middle" x="221" y="-119.5" font-family="Helvetica,sans-Serif" font-size="10.00" fill="#000000">program.h</text>
</a>
</g>
</g>
<!-- Node0&#45;&gt;Node7 -->
<g id="edge10" class="edge">
<title>Node0&#45;&gt;Node7</title>
<path fill="none" stroke="#191970" d="M221,-168.2455C221,-160.9382 221,-150.6944 221,-141.7046"/>
<polygon fill="#191970" stroke="#191970" points="224.5001,-141.6426 221,-131.6427 217.5001,-141.6427 224.5001,-141.6426"/>
</g>
<!-- Node8 -->
<g id="node9" class="node">
<title>Node8</title>
<g id="a_node9"><a xlink:title=" ">
<polygon fill="#ffffff" stroke="#bfbfbf" points="307,-112.5 307,-131.5 353,-131.5 353,-112.5 307,-112.5"/>
<text text-anchor="middle" x="330" y="-119.5" font-family="Helvetica,sans-Serif" font-size="10.00" fill="#000000">stdio.h</text>
</a>
</g>
</g>
<!-- Node0&#45;&gt;Node8 -->
<g id="edge15" class="edge">
<title>Node0&#45;&gt;Node8</title>
<path fill="none" stroke="#191970" d="M239.9864,-168.2455C257.1792,-159.4125 282.7238,-146.2887 302.2132,-136.2758"/>
<polygon fill="#191970" stroke="#191970" points="303.9359,-139.3257 311.2312,-131.6427 300.737,-133.0993 303.9359,-139.3257"/>
</g>
<!-- Node9 -->
<g id="node10" class="node">
<title>Node9</title>
<g id="a_node10"><a xlink:title=" ">
<polygon fill="#ffffff" stroke="#bfbfbf" points="371,-112.5 371,-131.5 419,-131.5 419,-112.5 371,-112.5"/>
<text text-anchor="middle" x="395" y="-119.5" font-family="Helvetica,sans-Serif" font-size="10.00" fill="#000000">stdlib.h</text>
</a>
</g>
</g>
<!-- Node0&#45;&gt;Node9 -->
<g id="edge16" class="edge">
<title>Node0&#45;&gt;Node9</title>
<path fill="none" stroke="#191970" d="M250.9117,-168.3733C281.5111,-158.5252 328.9796,-143.2479 360.9895,-132.9459"/>
<polygon fill="#191970" stroke="#191970" points="362.3513,-136.1845 370.7982,-129.7891 360.2067,-129.5211 362.3513,-136.1845"/>
</g>
<!-- Node10 -->
<g id="node11" class="node">
<title>Node10</title>
<g id="a_node11"><a xlink:title=" ">
<polygon fill="#ffffff" stroke="#bfbfbf" points="437.5,-112.5 437.5,-131.5 486.5,-131.5 486.5,-112.5 437.5,-112.5"/>
<text text-anchor="middle" x="462" y="-119.5" font-family="Helvetica,sans-Serif" font-size="10.00" fill="#000000">string.h</text>
</a>
</g>
</g>
<!-- Node0&#45;&gt;Node10 -->
<g id="edge17" class="edge">
<title>Node0&#45;&gt;Node10</title>
<path fill="none" stroke="#191970" d="M268.0756,-168.4826C308.0344,-160.1915 367.0855,-147.441 427.4709,-132.0115"/>
<polygon fill="#191970" stroke="#191970" points="428.3606,-135.3967 437.1712,-129.5124 426.6142,-128.618 428.3606,-135.3967"/>
</g>
<!-- Node2 -->
<g id="node3" class="node">
<title>Node2</title>
<g id="a_node3"><a xlink:title=" ">
<polygon fill="#ffffff" stroke="#bfbfbf" points="145.5,-.5 145.5,-19.5 194.5,-19.5 194.5,-.5 145.5,-.5"/>
<text text-anchor="middle" x="170" y="-7.5" font-family="Helvetica,sans-Serif" font-size="10.00" fill="#000000">stdint.h</text>
</a>
</g>
</g>
<!-- Node1&#45;&gt;Node2 -->
<g id="edge2" class="edge">
<title>Node1&#45;&gt;Node2</title>
<path fill="none" stroke="#191970" d="M108.2707,-112.477C110.3684,-99.121 115.4221,-74.4004 126,-56 132.3254,-44.9969 141.8305,-34.6085 150.3895,-26.4976"/>
<polygon fill="#191970" stroke="#191970" points="152.7961,-29.0402 157.8654,-19.7369 148.1008,-23.8484 152.7961,-29.0402"/>
</g>
<!-- Node1&#45;&gt;Node3 -->
<g id="edge3" class="edge">
<title>Node1&#45;&gt;Node3</title>
<path fill="none" stroke="#191970" d="M97.7681,-112.2455C90.1683,-104.2155 79.2123,-92.6394 70.1632,-83.0781"/>
<polygon fill="#191970" stroke="#191970" points="72.542,-80.4998 63.1261,-75.6427 67.4579,-85.3115 72.542,-80.4998"/>
</g>
<!-- Node3&#45;&gt;Node2 -->
<g id="edge5" class="edge">
<title>Node3&#45;&gt;Node2</title>
<path fill="none" stroke="#191970" d="M73.9411,-56.3733C92.4786,-47.4241 120.3028,-33.9917 141.2413,-23.8835"/>
<polygon fill="#191970" stroke="#191970" points="142.8352,-27.0006 150.3191,-19.5011 139.7919,-20.6967 142.8352,-27.0006"/>
</g>
<!-- Node3&#45;&gt;Node4 -->
<g id="edge4" class="edge">
<title>Node3&#45;&gt;Node4</title>
<path fill="none" stroke="#191970" d="M49.4711,-56.2455C45.9666,-48.6973 41.0073,-38.0158 36.7377,-28.8197"/>
<polygon fill="#191970" stroke="#191970" points="39.8627,-27.2389 32.477,-19.6427 33.5136,-30.1867 39.8627,-27.2389"/>
</g>
<!-- Node5&#45;&gt;Node2 -->
<g id="edge7" class="edge">
<title>Node5&#45;&gt;Node2</title>
<path fill="none" stroke="#191970" d="M271.0275,-56.3733C251.4433,-47.3838 222.0039,-33.8706 199.949,-23.7471"/>
<polygon fill="#191970" stroke="#191970" points="201.2473,-20.4919 190.6989,-19.5011 198.3271,-26.8538 201.2473,-20.4919"/>
</g>
<!-- Node6&#45;&gt;Node2 -->
<g id="edge9" class="edge">
<title>Node6&#45;&gt;Node2</title>
<path fill="none" stroke="#191970" d="M170,-56.2455C170,-48.9382 170,-38.6944 170,-29.7046"/>
<polygon fill="#191970" stroke="#191970" points="173.5001,-29.6426 170,-19.6427 166.5001,-29.6427 173.5001,-29.6426"/>
</g>
<!-- Node7&#45;&gt;Node2 -->
<g id="edge13" class="edge">
<title>Node7&#45;&gt;Node2</title>
<path fill="none" stroke="#191970" d="M221.8771,-112.0819C222.6433,-98.6928 222.5355,-74.3961 214,-56 208.7295,-44.6407 199.5043,-34.325 190.8579,-26.3546"/>
<polygon fill="#191970" stroke="#191970" points="193.0607,-23.6322 183.2101,-19.7314 188.4782,-28.9238 193.0607,-23.6322"/>
</g>
<!-- Node7&#45;&gt;Node5 -->
<g id="edge11" class="edge">
<title>Node7&#45;&gt;Node5</title>
<path fill="none" stroke="#191970" d="M233.3673,-112.2455C243.9554,-103.8943 259.4064,-91.7076 271.7893,-81.9408"/>
<polygon fill="#191970" stroke="#191970" points="274.0903,-84.5837 279.7745,-75.6427 269.7553,-79.0875 274.0903,-84.5837"/>
</g>
<!-- Node7&#45;&gt;Node6 -->
<g id="edge12" class="edge">
<title>Node7&#45;&gt;Node6</title>
<path fill="none" stroke="#191970" d="M212.1165,-112.2455C204.8034,-104.2155 194.2609,-92.6394 185.5533,-83.0781"/>
<polygon fill="#191970" stroke="#191970" points="188.1028,-80.6795 178.7817,-75.6427 182.9273,-85.3928 188.1028,-80.6795"/>
</g>
</g>
</svg>
