<?xml version="1.0" encoding="UTF-8" standalone="no"?>
<!DOCTYPE svg PUBLIC "-//W3C//DTD SVG 1.1//EN"
 "http://www.w3.org/Graphics/SVG/1.1/DTD/svg11.dtd">
<!-- Generated by graphviz version 2.40.1 (20161225.0304)
 -->
<!-- Title: generator/include/generator.h Pages: 1 -->
<svg width="305pt" height="196pt"
 viewBox="0.00 0.00 305.00 196.00" xmlns="http://www.w3.org/2000/svg" xmlns:xlink="http://www.w3.org/1999/xlink">
<g id="graph0" class="graph" transform="scale(1 1) rotate(0) translate(4 192)">
<title>generator/include/generator.h</title>
<polygon fill="#ffffff" stroke="transparent" points="-4,4 -4,-192 301,-192 301,4 -4,4"/>
<!-- Node0 -->
<g id="node1" class="node">
<title>Node0</title>
<g id="a_node1"><a xlink:title=" ">
<polygon fill="#bfbfbf" stroke="#000000" points="45,-168.5 45,-187.5 187,-187.5 187,-168.5 45,-168.5"/>
<text text-anchor="middle" x="116" y="-175.5" font-family="Helvetica,sans-Serif" font-size="10.00" fill="#000000">generator/include/generator.h</text>
</a>
</g>
</g>
<!-- Node1 -->
<g id="node2" class="node">
<title>Node1</title>
<g id="a_node2"><a xlink:href="AST_8h.html" target="_top" xlink:title=" ">
<polygon fill="#ffffff" stroke="#000000" points="59,-112.5 59,-131.5 103,-131.5 103,-112.5 59,-112.5"/>
<text text-anchor="middle" x="81" y="-119.5" font-family="Helvetica,sans-Serif" font-size="10.00" fill="#000000">AST.h</text>
</a>
</g>
</g>
<!-- Node0&#45;&gt;Node1 -->
<g id="edge1" class="edge">
<title>Node0&#45;&gt;Node1</title>
<path fill="none" stroke="#191970" d="M109.9035,-168.2455C105.0855,-160.5367 98.2249,-149.5598 92.3968,-140.2348"/>
<polygon fill="#191970" stroke="#191970" points="95.2947,-138.2677 87.0267,-131.6427 89.3587,-141.9777 95.2947,-138.2677"/>
</g>
<!-- Node5 -->
<g id="node6" class="node">
<title>Node5</title>
<g id="a_node6"><a xlink:href="program_8h.html" target="_top" xlink:title=" ">
<polygon fill="#ffffff" stroke="#000000" points="134,-112.5 134,-131.5 194,-131.5 194,-112.5 134,-112.5"/>
<text text-anchor="middle" x="164" y="-119.5" font-family="Helvetica,sans-Serif" font-size="10.00" fill="#000000">program.h</text>
</a>
</g>
</g>
<!-- Node0&#45;&gt;Node5 -->
<g id="edge6" class="edge">
<title>Node0&#45;&gt;Node5</title>
<path fill="none" stroke="#191970" d="M124.361,-168.2455C131.175,-160.2958 140.9681,-148.8706 149.1152,-139.3656"/>
<polygon fill="#191970" stroke="#191970" points="151.8843,-141.513 155.7349,-131.6427 146.5695,-136.9575 151.8843,-141.513"/>
</g>
<!-- Node2 -->
<g id="node3" class="node">
<title>Node2</title>
<g id="a_node3"><a xlink:title=" ">
<polygon fill="#ffffff" stroke="#bfbfbf" points="94.5,-.5 94.5,-19.5 143.5,-19.5 143.5,-.5 94.5,-.5"/>
<text text-anchor="middle" x="119" y="-7.5" font-family="Helvetica,sans-Serif" font-size="10.00" fill="#000000">stdint.h</text>
</a>
</g>
</g>
<!-- Node1&#45;&gt;Node2 -->
<g id="edge2" class="edge">
<title>Node1&#45;&gt;Node2</title>
<path fill="none" stroke="#191970" d="M84.2399,-112.4509C90.4937,-94.0186 104.3342,-53.2254 112.539,-29.043"/>
<polygon fill="#191970" stroke="#191970" points="115.8697,-30.1192 115.7683,-19.5249 109.2409,-27.8701 115.8697,-30.1192"/>
</g>
<!-- Node3 -->
<g id="node4" class="node">
<title>Node3</title>
<g id="a_node4"><a xlink:href="token_8h.html" target="_top" xlink:title=" ">
<polygon fill="#ffffff" stroke="#000000" points="3.5,-56.5 3.5,-75.5 52.5,-75.5 52.5,-56.5 3.5,-56.5"/>
<text text-anchor="middle" x="28" y="-63.5" font-family="Helvetica,sans-Serif" font-size="10.00" fill="#000000">token.h</text>
</a>
</g>
</g>
<!-- Node1&#45;&gt;Node3 -->
<g id="edge3" class="edge">
<title>Node1&#45;&gt;Node3</title>
<path fill="none" stroke="#191970" d="M71.7681,-112.2455C64.1683,-104.2155 53.2123,-92.6394 44.1632,-83.0781"/>
<polygon fill="#191970" stroke="#191970" points="46.542,-80.4998 37.1261,-75.6427 41.4579,-85.3115 46.542,-80.4998"/>
</g>
<!-- Node3&#45;&gt;Node2 -->
<g id="edge5" class="edge">
<title>Node3&#45;&gt;Node2</title>
<path fill="none" stroke="#191970" d="M43.851,-56.2455C57.8132,-47.6534 78.3728,-35.0014 94.4596,-25.1018"/>
<polygon fill="#191970" stroke="#191970" points="96.6484,-27.8645 103.3307,-19.6427 92.9797,-21.9029 96.6484,-27.8645"/>
</g>
<!-- Node4 -->
<g id="node5" class="node">
<title>Node4</title>
<g id="a_node5"><a xlink:title=" ">
<polygon fill="#ffffff" stroke="#bfbfbf" points="0,-.5 0,-19.5 56,-19.5 56,-.5 0,-.5"/>
<text text-anchor="middle" x="28" y="-7.5" font-family="Helvetica,sans-Serif" font-size="10.00" fill="#000000">stdbool.h</text>
</a>
</g>
</g>
<!-- Node3&#45;&gt;Node4 -->
<g id="edge4" class="edge">
<title>Node3&#45;&gt;Node4</title>
<path fill="none" stroke="#191970" d="M28,-56.2455C28,-48.9382 28,-38.6944 28,-29.7046"/>
<polygon fill="#191970" stroke="#191970" points="31.5001,-29.6426 28,-19.6427 24.5001,-29.6427 31.5001,-29.6426"/>
</g>
<!-- Node5&#45;&gt;Node2 -->
<g id="edge11" class="edge">
<title>Node5&#45;&gt;Node2</title>
<path fill="none" stroke="#191970" d="M157.7328,-112.467C151.9815,-103.3906 143.5382,-89.1956 138,-76 131.6551,-60.8824 126.6448,-42.9643 123.3658,-29.6153"/>
<polygon fill="#191970" stroke="#191970" points="126.7171,-28.5759 121.0274,-19.6385 119.9018,-30.1734 126.7171,-28.5759"/>
</g>
<!-- Node6 -->
<g id="node7" class="node">
<title>Node6</title>
<g id="a_node7"><a xlink:href="constant_8h.html" target="_top" xlink:title=" ">
<polygon fill="#ffffff" stroke="#000000" points="147,-56.5 147,-75.5 209,-75.5 209,-56.5 147,-56.5"/>
<text text-anchor="middle" x="178" y="-63.5" font-family="Helvetica,sans-Serif" font-size="10.00" fill="#000000">constant.h</text>
</a>
</g>
</g>
<!-- Node5&#45;&gt;Node6 -->
<g id="edge7" class="edge">
<title>Node5&#45;&gt;Node6</title>
<path fill="none" stroke="#191970" d="M166.4386,-112.2455C168.2855,-104.8579 170.8828,-94.4689 173.1478,-85.4087"/>
<polygon fill="#191970" stroke="#191970" points="176.5594,-86.193 175.5893,-75.6427 169.7684,-84.4952 176.5594,-86.193"/>
</g>
<!-- Node7 -->
<g id="node8" class="node">
<title>Node7</title>
<g id="a_node8"><a xlink:href="instruction_8h.html" target="_top" xlink:title=" ">
<polygon fill="#ffffff" stroke="#000000" points="227,-56.5 227,-75.5 297,-75.5 297,-56.5 227,-56.5"/>
<text text-anchor="middle" x="262" y="-63.5" font-family="Helvetica,sans-Serif" font-size="10.00" fill="#000000">instruction.h</text>
</a>
</g>
</g>
<!-- Node5&#45;&gt;Node7 -->
<g id="edge9" class="edge">
<title>Node5&#45;&gt;Node7</title>
<path fill="none" stroke="#191970" d="M181.0703,-112.2455C196.247,-103.5731 218.6621,-90.7645 236.0563,-80.825"/>
<polygon fill="#191970" stroke="#191970" points="238.1794,-83.643 245.1253,-75.6427 234.7064,-77.5653 238.1794,-83.643"/>
</g>
<!-- Node6&#45;&gt;Node2 -->
<g id="edge8" class="edge">
<title>Node6&#45;&gt;Node2</title>
<path fill="none" stroke="#191970" d="M167.723,-56.2455C159.1782,-48.1352 146.8222,-36.4075 136.6915,-26.7919"/>
<polygon fill="#191970" stroke="#191970" points="138.8218,-23.9884 129.1592,-19.6427 134.0028,-29.0655 138.8218,-23.9884"/>
</g>
<!-- Node7&#45;&gt;Node2 -->
<g id="edge10" class="edge">
<title>Node7&#45;&gt;Node2</title>
<path fill="none" stroke="#191970" d="M237.4174,-56.3733C214.0504,-47.2226 178.7138,-33.3844 152.7216,-23.2057"/>
<polygon fill="#191970" stroke="#191970" points="153.8495,-19.8886 143.2618,-19.5011 151.297,-26.4066 153.8495,-19.8886"/>
</g>
</g>
</svg>
