<?xml version="1.0" encoding="UTF-8" standalone="no"?>
<!DOCTYPE svg PUBLIC "-//W3C//DTD SVG 1.1//EN"
 "http://www.w3.org/Graphics/SVG/1.1/DTD/svg11.dtd">
<!-- Generated by graphviz version 2.40.1 (20161225.0304)
 -->
<!-- Title: builtins/float/include/helios_float.h Pages: 1 -->
<!--zoomable 363 -->
<svg id="main" version="1.1" xmlns="http://www.w3.org/2000/svg" xmlns:xlink="http://www.w3.org/1999/xlink" xml:space="preserve" onload="init(evt)">
<style type="text/css"><![CDATA[
.edge:hover path { stroke: red; }
.edge:hover polygon { stroke: red; fill: red; }
]]></style>
<script type="text/javascript"><![CDATA[
var edges = document.getElementsByTagName('g');
if (edges && edges.length) {
  for (var i=0;i<edges.length;i++) {
    if (edges[i].id.substr(0,4)=='edge') {
      edges[i].setAttribute('class','edge');
    }
  }
}
]]></script>
        <defs>
                <circle id="rim" cx="0" cy="0" r="7"/>
                <circle id="rim2" cx="0" cy="0" r="3.5"/>
                <g id="zoomPlus">
                        <use xlink:href="#rim" fill="#404040">
                                <set attributeName="fill" to="#808080" begin="zoomplus.mouseover" end="zoomplus.mouseout"/>
                        </use>
                        <path d="M-4,0h8M0,-4v8" fill="none" stroke="white" stroke-width="1.5" pointer-events="none"/>
                </g>
                <g id="zoomMin">
                        <use xlink:href="#rim" fill="#404040">
                                <set attributeName="fill" to="#808080" begin="zoomminus.mouseover" end="zoomminus.mouseout"/>
                        </use>
                        <path d="M-4,0h8" fill="none" stroke="white" stroke-width="1.5" pointer-events="none"/>
                </g>
                <g id="dirArrow">
                        <path fill="none" stroke="white" stroke-width="1.5" d="M0,-3.0v7 M-2.5,-0.5L0,-3.0L2.5,-0.5"/>
                </g>
               <g id="resetDef">
                       <use xlink:href="#rim2" fill="#404040">
                               <set attributeName="fill" to="#808080" begin="reset.mouseover" end="reset.mouseout"/>
                       </use>
               </g>
        </defs>

<script type="text/javascript">
var viewWidth = 1568;
var viewHeight = 363;
var sectionId = 'dynsection-1';
</script>
<script xlink:href="svgpan.js"/>
<svg id="graph" class="graph">
<g id="viewport">
<title>builtins/float/include/helios_float.h</title>
<polygon fill="#ffffff" stroke="transparent" points="-4,4 -4,-359 1563.5,-359 1563.5,4 -4,4"/>
<!-- Node9 -->
<g id="node1" class="node">
<title>Node9</title>
<g id="a_node1"><a xlink:title=" ">
<polygon fill="#bfbfbf" stroke="#000000" points="233.5,-324.5 233.5,-354.5 336.5,-354.5 336.5,-324.5 233.5,-324.5"/>
<text text-anchor="start" x="241.5" y="-342.5" font-family="Helvetica,sans-Serif" font-size="10.00" fill="#000000">builtins/float/include</text>
<text text-anchor="middle" x="285" y="-331.5" font-family="Helvetica,sans-Serif" font-size="10.00" fill="#000000">/helios_float.h</text>
</a>
</g>
</g>
<!-- Node10 -->
<g id="node2" class="node">
<title>Node10</title>
<g id="a_node2"><a xlink:href="helios__float_8c.html" target="_top" xlink:title=" ">
<polygon fill="#ffffff" stroke="#000000" points="0,-257.5 0,-287.5 98,-287.5 98,-257.5 0,-257.5"/>
<text text-anchor="start" x="8" y="-275.5" font-family="Helvetica,sans-Serif" font-size="10.00" fill="#000000">builtins/float/helios</text>
<text text-anchor="middle" x="49" y="-264.5" font-family="Helvetica,sans-Serif" font-size="10.00" fill="#000000">_float.c</text>
</a>
</g>
</g>
<!-- Node9&#45;&gt;Node10 -->
<g id="edge1" class="edge">
<title>Node9&#45;&gt;Node10</title>
<path fill="none" stroke="#191970" d="M223.5334,-322.0497C184.5031,-310.9691 134.6674,-296.8208 98.2489,-286.4817"/>
<polygon fill="#191970" stroke="#191970" points="222.6331,-325.4324 233.2088,-324.7966 224.5448,-318.6985 222.6331,-325.4324"/>
</g>
<!-- Node11 -->
<g id="node3" class="node">
<title>Node11</title>
<g id="a_node3"><a xlink:href="helios__float__math_8c.html" target="_top" xlink:title=" ">
<polygon fill="#ffffff" stroke="#000000" points="116,-257.5 116,-287.5 214,-287.5 214,-257.5 116,-257.5"/>
<text text-anchor="start" x="124" y="-275.5" font-family="Helvetica,sans-Serif" font-size="10.00" fill="#000000">builtins/float/helios</text>
<text text-anchor="middle" x="165" y="-264.5" font-family="Helvetica,sans-Serif" font-size="10.00" fill="#000000">_float_math.c</text>
</a>
</g>
</g>
<!-- Node9&#45;&gt;Node11 -->
<g id="edge2" class="edge">
<title>Node9&#45;&gt;Node11</title>
<path fill="none" stroke="#191970" d="M248.9214,-319.3561C230.7305,-309.1995 209.0315,-297.0843 192.2556,-287.7177"/>
<polygon fill="#191970" stroke="#191970" points="247.6321,-322.6448 258.0697,-324.4639 251.0446,-316.5329 247.6321,-322.6448"/>
</g>
<!-- Node12 -->
<g id="node4" class="node">
<title>Node12</title>
<g id="a_node4"><a xlink:href="strtod_8c.html" target="_top" xlink:title=" ">
<polygon fill="#ffffff" stroke="#000000" points="232.5,-263 232.5,-282 337.5,-282 337.5,-263 232.5,-263"/>
<text text-anchor="middle" x="285" y="-270" font-family="Helvetica,sans-Serif" font-size="10.00" fill="#000000">builtins/float/strtod.c</text>
</a>
</g>
</g>
<!-- Node9&#45;&gt;Node12 -->
<g id="edge3" class="edge">
<title>Node9&#45;&gt;Node12</title>
<path fill="none" stroke="#191970" d="M285,-314.1199C285,-302.9072 285,-290.4031 285,-282.055"/>
<polygon fill="#191970" stroke="#191970" points="281.5001,-314.2966 285,-324.2967 288.5001,-314.2967 281.5001,-314.2966"/>
</g>
<!-- Node13 -->
<g id="node5" class="node">
<title>Node13</title>
<g id="a_node5"><a xlink:href="builtins_8h.html" target="_top" xlink:title=" ">
<polygon fill="#ffffff" stroke="#000000" points="355.5,-263 355.5,-282 478.5,-282 478.5,-263 355.5,-263"/>
<text text-anchor="middle" x="417" y="-270" font-family="Helvetica,sans-Serif" font-size="10.00" fill="#000000">builtins/include/builtins.h</text>
</a>
</g>
</g>
<!-- Node9&#45;&gt;Node13 -->
<g id="edge4" class="edge">
<title>Node9&#45;&gt;Node13</title>
<path fill="none" stroke="#191970" d="M323.6737,-319.8702C348.1607,-307.4412 378.7423,-291.9187 398.0788,-282.1039"/>
<polygon fill="#191970" stroke="#191970" points="321.9563,-316.8168 314.6234,-324.4639 325.1246,-323.0587 321.9563,-316.8168"/>
</g>
<!-- Node34 -->
<g id="node26" class="node">
<title>Node34</title>
<g id="a_node26"><a xlink:href="helios__integer__math_8c.html" target="_top" xlink:title=" ">
<polygon fill="#ffffff" stroke="#000000" points="497,-257.5 497,-287.5 605,-287.5 605,-257.5 497,-257.5"/>
<text text-anchor="start" x="505" y="-275.5" font-family="Helvetica,sans-Serif" font-size="10.00" fill="#000000">builtins/integer/helios</text>
<text text-anchor="middle" x="551" y="-264.5" font-family="Helvetica,sans-Serif" font-size="10.00" fill="#000000">_integer_math.c</text>
</a>
</g>
</g>
<!-- Node9&#45;&gt;Node34 -->
<g id="edge46" class="edge">
<title>Node9&#45;&gt;Node34</title>
<path fill="none" stroke="#191970" d="M346.3366,-324.0506C391.7836,-312.6034 453.1474,-297.1471 496.7995,-286.152"/>
<polygon fill="#191970" stroke="#191970" points="345.4451,-320.6657 336.6029,-326.5023 347.1549,-327.4537 345.4451,-320.6657"/>
</g>
<!-- Node14 -->
<g id="node6" class="node">
<title>Node14</title>
<g id="a_node6"><a xlink:href="serialize_8c.html" target="_top" xlink:title=" ">
<polygon fill="#ffffff" stroke="#000000" points="72,-190.5 72,-220.5 174,-220.5 174,-190.5 72,-190.5"/>
<text text-anchor="start" x="80" y="-208.5" font-family="Helvetica,sans-Serif" font-size="10.00" fill="#000000">builtins/serialization</text>
<text text-anchor="middle" x="123" y="-197.5" font-family="Helvetica,sans-Serif" font-size="10.00" fill="#000000">/serialize.c</text>
</a>
</g>
</g>
<!-- Node13&#45;&gt;Node14 -->
<g id="edge5" class="edge">
<title>Node13&#45;&gt;Node14</title>
<path fill="none" stroke="#191970" d="M364.0712,-260.7996C317.6289,-250.4847 248.2852,-234.966 188,-221 183.4793,-219.9527 178.7844,-218.8543 174.0801,-217.7462"/>
<polygon fill="#191970" stroke="#191970" points="363.3911,-264.2337 373.9119,-262.9835 364.9077,-257.4 363.3911,-264.2337"/>
</g>
<!-- Node15 -->
<g id="node7" class="node">
<title>Node15</title>
<g id="a_node7"><a xlink:href="executestack_8c.html" target="_top" xlink:title=" ">
<polygon fill="#ffffff" stroke="#000000" points="167.5,-134.5 167.5,-153.5 272.5,-153.5 272.5,-134.5 167.5,-134.5"/>
<text text-anchor="middle" x="220" y="-141.5" font-family="Helvetica,sans-Serif" font-size="10.00" fill="#000000">hvm/executestack.c</text>
</a>
</g>
</g>
<!-- Node13&#45;&gt;Node15 -->
<g id="edge6" class="edge">
<title>Node13&#45;&gt;Node15</title>
<path fill="none" stroke="#191970" d="M365.4478,-260.5835C308.9236,-247.2758 225.5604,-226.8348 221,-221 205.6868,-201.4077 212.0977,-169.6377 216.7486,-153.7284"/>
<polygon fill="#191970" stroke="#191970" points="364.781,-264.022 375.3161,-262.8987 366.3799,-257.207 364.781,-264.022"/>
</g>
<!-- Node16 -->
<g id="node8" class="node">
<title>Node16</title>
<g id="a_node8"><a xlink:href="hvm_8c.html" target="_top" xlink:title=" ">
<polygon fill="#ffffff" stroke="#000000" points="325.5,-134.5 325.5,-153.5 390.5,-153.5 390.5,-134.5 325.5,-134.5"/>
<text text-anchor="middle" x="358" y="-141.5" font-family="Helvetica,sans-Serif" font-size="10.00" fill="#000000">hvm/hvm.c</text>
</a>
</g>
</g>
<!-- Node13&#45;&gt;Node16 -->
<g id="edge7" class="edge">
<title>Node13&#45;&gt;Node16</title>
<path fill="none" stroke="#191970" d="M408.2365,-253.4134C395.4723,-225.6134 372.2292,-174.9907 362.486,-153.7705"/>
<polygon fill="#191970" stroke="#191970" points="405.212,-255.2142 412.5654,-262.8416 411.5735,-252.2933 405.212,-255.2142"/>
</g>
<!-- Node17 -->
<g id="node9" class="node">
<title>Node17</title>
<g id="a_node9"><a xlink:href="executestack_8h.html" target="_top" xlink:title=" ">
<polygon fill="#ffffff" stroke="#000000" points="230.5,-196 230.5,-215 369.5,-215 369.5,-196 230.5,-196"/>
<text text-anchor="middle" x="300" y="-203" font-family="Helvetica,sans-Serif" font-size="10.00" fill="#000000">hvm/include/executestack.h</text>
</a>
</g>
</g>
<!-- Node13&#45;&gt;Node17 -->
<g id="edge8" class="edge">
<title>Node13&#45;&gt;Node17</title>
<path fill="none" stroke="#191970" d="M391.4776,-257.8846C368.7873,-244.891 336.2667,-226.2681 316.7322,-215.0817"/>
<polygon fill="#191970" stroke="#191970" points="389.8196,-260.9684 400.2368,-262.9005 393.2982,-254.8939 389.8196,-260.9684"/>
</g>
<!-- Node18 -->
<g id="node10" class="node">
<title>Node18</title>
<g id="a_node10"><a xlink:href="hvm_8h.html" target="_top" xlink:title=" ">
<polygon fill="#ffffff" stroke="#000000" points="346.5,-73 346.5,-92 445.5,-92 445.5,-73 346.5,-73"/>
<text text-anchor="middle" x="396" y="-80" font-family="Helvetica,sans-Serif" font-size="10.00" fill="#000000">hvm/include/hvm.h</text>
</a>
</g>
</g>
<!-- Node13&#45;&gt;Node18 -->
<g id="edge11" class="edge">
<title>Node13&#45;&gt;Node18</title>
<path fill="none" stroke="#191970" d="M414.8071,-252.6594C410.3558,-212.386 400.4025,-122.3318 397.0933,-92.3917"/>
<polygon fill="#191970" stroke="#191970" points="411.3523,-253.2617 415.9297,-262.8167 418.3099,-252.4927 411.3523,-253.2617"/>
</g>
<!-- Node19 -->
<g id="node11" class="node">
<title>Node19</title>
<g id="a_node11"><a xlink:href="main_8c.html" target="_top" xlink:title=" ">
<polygon fill="#ffffff" stroke="#000000" points="456,-6 456,-25 526,-25 526,-6 456,-6"/>
<text text-anchor="middle" x="491" y="-13" font-family="Helvetica,sans-Serif" font-size="10.00" fill="#000000">main/main.c</text>
</a>
</g>
</g>
<!-- Node13&#45;&gt;Node19 -->
<g id="edge13" class="edge">
<title>Node13&#45;&gt;Node19</title>
<path fill="none" stroke="#191970" d="M422.6587,-252.8475C437.5196,-201.2362 477.2613,-63.2143 488.1867,-25.2706"/>
<polygon fill="#191970" stroke="#191970" points="419.2142,-252.1611 419.8105,-262.7391 425.9409,-254.098 419.2142,-252.1611"/>
</g>
<!-- Node20 -->
<g id="node12" class="node">
<title>Node20</title>
<g id="a_node12"><a xlink:href="token_8h.html" target="_top" xlink:title=" ">
<polygon fill="#ffffff" stroke="#000000" points="1104.5,-196 1104.5,-215 1217.5,-215 1217.5,-196 1104.5,-196"/>
<text text-anchor="middle" x="1161" y="-203" font-family="Helvetica,sans-Serif" font-size="10.00" fill="#000000">parser/include/token.h</text>
</a>
</g>
</g>
<!-- Node13&#45;&gt;Node20 -->
<g id="edge14" class="edge">
<title>Node13&#45;&gt;Node20</title>
<path fill="none" stroke="#191970" d="M465.8207,-260.9131C473.2214,-259.4267 480.791,-258.0575 488,-257 714.9546,-223.707 988.3227,-211.2175 1104.4269,-207.1827"/>
<polygon fill="#191970" stroke="#191970" points="464.9534,-257.5187 455.8833,-262.9944 466.3885,-264.3701 464.9534,-257.5187"/>
</g>
<!-- Node33 -->
<g id="node25" class="node">
<title>Node33</title>
<g id="a_node25"><a xlink:href="token_8c.html" target="_top" xlink:title=" ">
<polygon fill="#ffffff" stroke="#000000" points="1480.5,-134.5 1480.5,-153.5 1559.5,-153.5 1559.5,-134.5 1480.5,-134.5"/>
<text text-anchor="middle" x="1520" y="-141.5" font-family="Helvetica,sans-Serif" font-size="10.00" fill="#000000">parser/token.c</text>
</a>
</g>
</g>
<!-- Node13&#45;&gt;Node33 -->
<g id="edge45" class="edge">
<title>Node13&#45;&gt;Node33</title>
<path fill="none" stroke="#191970" d="M465.009,-260.8897C472.6622,-259.3659 480.5211,-257.9918 488,-257 813.5402,-213.8305 901.4185,-270.8683 1226,-221 1325.3482,-205.7363 1439.6395,-170.5509 1491.6207,-153.5451"/>
<polygon fill="#191970" stroke="#191970" points="464.1872,-257.4858 455.1158,-262.9594 465.6206,-264.3374 464.1872,-257.4858"/>
</g>
<!-- Node17&#45;&gt;Node15 -->
<g id="edge9" class="edge">
<title>Node17&#45;&gt;Node15</title>
<path fill="none" stroke="#191970" d="M279.381,-189.6491C264.5164,-178.222 244.943,-163.1749 232.4122,-153.5419"/>
<polygon fill="#191970" stroke="#191970" points="277.4387,-192.5707 287.5,-195.8906 281.7051,-187.021 277.4387,-192.5707"/>
</g>
<!-- Node17&#45;&gt;Node16 -->
<g id="edge10" class="edge">
<title>Node17&#45;&gt;Node16</title>
<path fill="none" stroke="#191970" d="M316.1261,-188.4007C326.6642,-177.2268 340.0477,-163.0356 348.8097,-153.7449"/>
<polygon fill="#191970" stroke="#191970" points="313.3773,-186.2142 309.0625,-195.8906 318.4698,-191.0169 313.3773,-186.2142"/>
</g>
<!-- Node18&#45;&gt;Node19 -->
<g id="edge12" class="edge">
<title>Node18&#45;&gt;Node19</title>
<path fill="none" stroke="#191970" d="M417.9632,-67.0102C436.3154,-54.067 461.9051,-36.0195 477.4141,-25.0817"/>
<polygon fill="#191970" stroke="#191970" points="415.766,-64.2768 409.6112,-72.9005 419.8005,-69.9973 415.766,-64.2768"/>
</g>
<!-- Node21 -->
<g id="node13" class="node">
<title>Node21</title>
<g id="a_node13"><a xlink:href="AST_8c.html" target="_top" xlink:title=" ">
<polygon fill="#ffffff" stroke="#000000" points="561,-6 561,-25 635,-25 635,-6 561,-6"/>
<text text-anchor="middle" x="598" y="-13" font-family="Helvetica,sans-Serif" font-size="10.00" fill="#000000">parser/AST.c</text>
</a>
</g>
</g>
<!-- Node20&#45;&gt;Node21 -->
<g id="edge15" class="edge">
<title>Node20&#45;&gt;Node21</title>
<path fill="none" stroke="#191970" d="M1093.9703,-201.2007C997.3566,-194.2516 824.2712,-178.7731 767,-154 694.9292,-122.8253 628.9142,-51.5113 606.2832,-25.3536"/>
<polygon fill="#191970" stroke="#191970" points="1093.9951,-204.7111 1104.2174,-201.9264 1094.4897,-197.7286 1093.9951,-204.7111"/>
</g>
<!-- Node22 -->
<g id="node14" class="node">
<title>Node22</title>
<g id="a_node14"><a xlink:href="AST_8h.html" target="_top" xlink:title=" ">
<polygon fill="#ffffff" stroke="#000000" points="1016.5,-134.5 1016.5,-153.5 1123.5,-153.5 1123.5,-134.5 1016.5,-134.5"/>
<text text-anchor="middle" x="1070" y="-141.5" font-family="Helvetica,sans-Serif" font-size="10.00" fill="#000000">parser/include/AST.h</text>
</a>
</g>
</g>
<!-- Node20&#45;&gt;Node22 -->
<g id="edge16" class="edge">
<title>Node20&#45;&gt;Node22</title>
<path fill="none" stroke="#191970" d="M1138.4883,-190.286C1121.4725,-178.7864 1098.6391,-163.355 1084.1189,-153.5419"/>
<polygon fill="#191970" stroke="#191970" points="1136.5361,-193.191 1146.7813,-195.8906 1140.4557,-187.3913 1136.5361,-193.191"/>
</g>
<!-- Node26 -->
<g id="node18" class="node">
<title>Node26</title>
<g id="a_node18"><a xlink:href="compound_8c.html" target="_top" xlink:title=" ">
<polygon fill="#ffffff" stroke="#000000" points="653,-.5 653,-30.5 751,-30.5 751,-.5 653,-.5"/>
<text text-anchor="start" x="661" y="-18.5" font-family="Helvetica,sans-Serif" font-size="10.00" fill="#000000">parser/parserfuncs</text>
<text text-anchor="middle" x="702" y="-7.5" font-family="Helvetica,sans-Serif" font-size="10.00" fill="#000000">/compound.c</text>
</a>
</g>
</g>
<!-- Node20&#45;&gt;Node26 -->
<g id="edge38" class="edge">
<title>Node20&#45;&gt;Node26</title>
<path fill="none" stroke="#191970" d="M1094.0023,-200.3975C1005.3121,-192.8663 854.2794,-177.1231 804,-154 769.6612,-138.2079 762.6263,-128.2753 740,-98 724.1406,-76.7792 712.7314,-47.8809 706.7616,-30.5209"/>
<polygon fill="#191970" stroke="#191970" points="1093.9768,-203.9075 1104.2337,-201.2534 1094.5604,-196.9319 1093.9768,-203.9075"/>
</g>
<!-- Node27 -->
<g id="node19" class="node">
<title>Node27</title>
<g id="a_node19"><a xlink:href="expressions_8c.html" target="_top" xlink:title=" ">
<polygon fill="#ffffff" stroke="#000000" points="769,-.5 769,-30.5 867,-30.5 867,-.5 769,-.5"/>
<text text-anchor="start" x="777" y="-18.5" font-family="Helvetica,sans-Serif" font-size="10.00" fill="#000000">parser/parserfuncs</text>
<text text-anchor="middle" x="818" y="-7.5" font-family="Helvetica,sans-Serif" font-size="10.00" fill="#000000">/expressions.c</text>
</a>
</g>
</g>
<!-- Node20&#45;&gt;Node27 -->
<g id="edge39" class="edge">
<title>Node20&#45;&gt;Node27</title>
<path fill="none" stroke="#191970" d="M1094.1289,-197.8921C988.5616,-184.3522 790.9329,-152.2781 749,-98 730.3929,-73.9149 763.4541,-47.0543 789.9308,-30.7169"/>
<polygon fill="#191970" stroke="#191970" points="1094.0001,-201.4035 1104.3596,-199.1832 1094.8766,-194.4586 1094.0001,-201.4035"/>
</g>
<!-- Node28 -->
<g id="node20" class="node">
<title>Node28</title>
<g id="a_node20"><a xlink:href="floats_8c.html" target="_top" xlink:title=" ">
<polygon fill="#ffffff" stroke="#000000" points="1385,-.5 1385,-30.5 1483,-30.5 1483,-.5 1385,-.5"/>
<text text-anchor="start" x="1393" y="-18.5" font-family="Helvetica,sans-Serif" font-size="10.00" fill="#000000">parser/parserfuncs</text>
<text text-anchor="middle" x="1434" y="-7.5" font-family="Helvetica,sans-Serif" font-size="10.00" fill="#000000">/floats.c</text>
</a>
</g>
</g>
<!-- Node20&#45;&gt;Node28 -->
<g id="edge40" class="edge">
<title>Node20&#45;&gt;Node28</title>
<path fill="none" stroke="#191970" d="M1207.1185,-193.1495C1245.9553,-182.2131 1297.9753,-166.1461 1316,-154 1366.2966,-120.1071 1407.5233,-59.1473 1424.9931,-30.7857"/>
<polygon fill="#191970" stroke="#191970" points="1205.7507,-189.8972 1197.0565,-195.9521 1207.6289,-196.6405 1205.7507,-189.8972"/>
</g>
<!-- Node29 -->
<g id="node21" class="node">
<title>Node29</title>
<g id="a_node21"><a xlink:href="integers_8c.html" target="_top" xlink:title=" ">
<polygon fill="#ffffff" stroke="#000000" points="1037,-.5 1037,-30.5 1135,-30.5 1135,-.5 1037,-.5"/>
<text text-anchor="start" x="1045" y="-18.5" font-family="Helvetica,sans-Serif" font-size="10.00" fill="#000000">parser/parserfuncs</text>
<text text-anchor="middle" x="1086" y="-7.5" font-family="Helvetica,sans-Serif" font-size="10.00" fill="#000000">/integers.c</text>
</a>
</g>
</g>
<!-- Node20&#45;&gt;Node29 -->
<g id="edge41" class="edge">
<title>Node20&#45;&gt;Node29</title>
<path fill="none" stroke="#191970" d="M1170.324,-186.8582C1182.9191,-158.7969 1201.3672,-104.9539 1179,-67 1169.161,-50.3046 1151.7478,-38.6409 1134.6288,-30.69"/>
<polygon fill="#191970" stroke="#191970" points="1167.1348,-185.4153 1166.0349,-195.9529 1173.4661,-188.4012 1167.1348,-185.4153"/>
</g>
<!-- Node30 -->
<g id="node22" class="node">
<title>Node30</title>
<g id="a_node22"><a xlink:href="parser_8c.html" target="_top" xlink:title=" ">
<polygon fill="#ffffff" stroke="#000000" points="1153,-.5 1153,-30.5 1251,-30.5 1251,-.5 1153,-.5"/>
<text text-anchor="start" x="1161" y="-18.5" font-family="Helvetica,sans-Serif" font-size="10.00" fill="#000000">parser/parserfuncs</text>
<text text-anchor="middle" x="1202" y="-7.5" font-family="Helvetica,sans-Serif" font-size="10.00" fill="#000000">/parser.c</text>
</a>
</g>
</g>
<!-- Node20&#45;&gt;Node30 -->
<g id="edge42" class="edge">
<title>Node20&#45;&gt;Node30</title>
<path fill="none" stroke="#191970" d="M1201.3719,-192.6635C1230.9126,-182.3591 1267.2905,-167.4433 1276,-154 1297.0242,-121.5486 1293.9034,-101.2721 1276,-67 1267.6656,-51.0457 1251.8862,-39.0327 1237.0324,-30.6397"/>
<polygon fill="#191970" stroke="#191970" points="1200.0014,-189.4328 1191.6657,-195.9725 1202.2602,-196.0584 1200.0014,-189.4328"/>
</g>
<!-- Node31 -->
<g id="node23" class="node">
<title>Node31</title>
<g id="a_node23"><a xlink:href="strings_8c.html" target="_top" xlink:title=" ">
<polygon fill="#ffffff" stroke="#000000" points="1269,-.5 1269,-30.5 1367,-30.5 1367,-.5 1269,-.5"/>
<text text-anchor="start" x="1277" y="-18.5" font-family="Helvetica,sans-Serif" font-size="10.00" fill="#000000">parser/parserfuncs</text>
<text text-anchor="middle" x="1318" y="-7.5" font-family="Helvetica,sans-Serif" font-size="10.00" fill="#000000">/strings.c</text>
</a>
</g>
</g>
<!-- Node20&#45;&gt;Node31 -->
<g id="edge43" class="edge">
<title>Node20&#45;&gt;Node31</title>
<path fill="none" stroke="#191970" d="M1207.5866,-193.1307C1241.861,-183.0762 1284.4156,-168.2687 1296,-154 1325.3103,-117.8982 1323.1306,-58.5702 1320.1341,-30.7701"/>
<polygon fill="#191970" stroke="#191970" points="1206.3625,-189.8406 1197.7165,-195.9641 1208.2941,-196.5689 1206.3625,-189.8406"/>
</g>
<!-- Node20&#45;&gt;Node33 -->
<g id="edge44" class="edge">
<title>Node20&#45;&gt;Node33</title>
<path fill="none" stroke="#191970" d="M1227.5529,-194.574C1289.3759,-184.3506 1383.977,-168.5187 1466,-154 1470.6942,-153.1691 1475.6147,-152.2813 1480.494,-151.3905"/>
<polygon fill="#191970" stroke="#191970" points="1226.8362,-191.1449 1217.5404,-196.2281 1227.9772,-198.0513 1226.8362,-191.1449"/>
</g>
<!-- Node22&#45;&gt;Node19 -->
<g id="edge19" class="edge">
<title>Node22&#45;&gt;Node19</title>
<path fill="none" stroke="#191970" d="M1006.1731,-139.55C907.4536,-132.2129 722.4896,-116.5298 659,-98 599.1107,-80.5209 534.5553,-42.8542 506.0208,-25.1133"/>
<polygon fill="#191970" stroke="#191970" points="1006.0906,-143.0533 1016.3207,-140.2974 1006.6048,-136.0722 1006.0906,-143.0533"/>
</g>
<!-- Node22&#45;&gt;Node21 -->
<g id="edge20" class="edge">
<title>Node22&#45;&gt;Node21</title>
<path fill="none" stroke="#191970" d="M1006.2683,-139.2142C919.7605,-132.1095 770.094,-117.487 719,-98 673.3885,-80.604 628.1318,-42.8958 608.3541,-25.1289"/>
<polygon fill="#191970" stroke="#191970" points="1005.9866,-142.7028 1016.2368,-140.0226 1006.5525,-135.7257 1005.9866,-142.7028"/>
</g>
<!-- Node23 -->
<g id="node15" class="node">
<title>Node23</title>
<g id="a_node15"><a xlink:href="helios__code_8c.html" target="_top" xlink:title=" ">
<polygon fill="#ffffff" stroke="#000000" points="902,-67.5 902,-97.5 1002,-97.5 1002,-67.5 902,-67.5"/>
<text text-anchor="start" x="910" y="-85.5" font-family="Helvetica,sans-Serif" font-size="10.00" fill="#000000">builtins/code/helios</text>
<text text-anchor="middle" x="952" y="-74.5" font-family="Helvetica,sans-Serif" font-size="10.00" fill="#000000">_code.c</text>
</a>
</g>
</g>
<!-- Node22&#45;&gt;Node23 -->
<g id="edge17" class="edge">
<title>Node22&#45;&gt;Node23</title>
<path fill="none" stroke="#191970" d="M1042.4808,-129.6574C1023.9807,-120.0154 999.6409,-107.3298 980.866,-97.5446"/>
<polygon fill="#191970" stroke="#191970" points="1041.077,-132.8725 1051.5625,-134.3906 1044.3123,-126.665 1041.077,-132.8725"/>
</g>
<!-- Node24 -->
<g id="node16" class="node">
<title>Node24</title>
<g id="a_node16"><a xlink:href="helios__instruction_8c.html" target="_top" xlink:title=" ">
<polygon fill="#ffffff" stroke="#000000" points="1020,-67.5 1020,-97.5 1120,-97.5 1120,-67.5 1020,-67.5"/>
<text text-anchor="start" x="1028" y="-85.5" font-family="Helvetica,sans-Serif" font-size="10.00" fill="#000000">builtins/code/helios</text>
<text text-anchor="middle" x="1070" y="-74.5" font-family="Helvetica,sans-Serif" font-size="10.00" fill="#000000">_instruction.c</text>
</a>
</g>
</g>
<!-- Node22&#45;&gt;Node24 -->
<g id="edge18" class="edge">
<title>Node22&#45;&gt;Node24</title>
<path fill="none" stroke="#191970" d="M1070,-124.3693C1070,-115.681 1070,-105.6241 1070,-97.5446"/>
<polygon fill="#191970" stroke="#191970" points="1066.5001,-124.3906 1070,-134.3906 1073.5001,-124.3907 1066.5001,-124.3906"/>
</g>
<!-- Node25 -->
<g id="node17" class="node">
<title>Node25</title>
<g id="a_node17"><a xlink:href="parser_8h.html" target="_top" xlink:title=" ">
<polygon fill="#ffffff" stroke="#000000" points="768.5,-73 768.5,-92 883.5,-92 883.5,-73 768.5,-73"/>
<text text-anchor="middle" x="826" y="-80" font-family="Helvetica,sans-Serif" font-size="10.00" fill="#000000">parser/include/parser.h</text>
</a>
</g>
</g>
<!-- Node22&#45;&gt;Node25 -->
<g id="edge21" class="edge">
<title>Node22&#45;&gt;Node25</title>
<path fill="none" stroke="#191970" d="M1022.342,-131.9878C976.0349,-120.3162 906.633,-102.8235 863.9461,-92.0643"/>
<polygon fill="#191970" stroke="#191970" points="1021.5905,-135.4078 1032.1427,-134.4581 1023.3014,-128.6201 1021.5905,-135.4078"/>
</g>
<!-- Node22&#45;&gt;Node26 -->
<g id="edge31" class="edge">
<title>Node22&#45;&gt;Node26</title>
<path fill="none" stroke="#191970" d="M1006.1784,-141.4249C924.7957,-137.0387 789.7258,-125.7214 749,-98 725.2893,-81.8605 712.0975,-49.5477 706.0792,-30.5032"/>
<polygon fill="#191970" stroke="#191970" points="1006.1466,-144.9278 1016.3144,-141.9504 1006.5091,-137.9372 1006.1466,-144.9278"/>
</g>
<!-- Node22&#45;&gt;Node27 -->
<g id="edge32" class="edge">
<title>Node22&#45;&gt;Node27</title>
<path fill="none" stroke="#191970" d="M1006.1164,-138.9743C919.827,-131.5279 774.9123,-116.4391 759,-98 739.9029,-75.8704 770.3801,-47.7513 794.1698,-30.7151"/>
<polygon fill="#191970" stroke="#191970" points="1006.0754,-142.4833 1016.3363,-139.8442 1006.6692,-135.5086 1006.0754,-142.4833"/>
</g>
<!-- Node22&#45;&gt;Node28 -->
<g id="edge33" class="edge">
<title>Node22&#45;&gt;Node28</title>
<path fill="none" stroke="#191970" d="M1121.7441,-132.1006C1155.9604,-123.7399 1201.6039,-111.6426 1241,-98 1299.1929,-77.8482 1364.6636,-48.349 1402.4423,-30.6263"/>
<polygon fill="#191970" stroke="#191970" points="1120.86,-128.7134 1111.9624,-134.4652 1122.5048,-135.5174 1120.86,-128.7134"/>
</g>
<!-- Node22&#45;&gt;Node29 -->
<g id="edge34" class="edge">
<title>Node22&#45;&gt;Node29</title>
<path fill="none" stroke="#191970" d="M1119.8388,-130.7345C1136.1495,-123.7694 1152.5039,-113.3649 1162,-98 1169.2434,-86.2799 1168.4552,-79.172 1162,-67 1153.487,-50.9479 1137.4848,-38.9795 1122.3517,-30.6411"/>
<polygon fill="#191970" stroke="#191970" points="1118.3424,-127.5611 1110.2925,-134.4495 1120.8811,-134.0845 1118.3424,-127.5611"/>
</g>
<!-- Node22&#45;&gt;Node30 -->
<g id="edge35" class="edge">
<title>Node22&#45;&gt;Node30</title>
<path fill="none" stroke="#191970" d="M1125.7222,-131.2096C1144.9537,-124.272 1165.1283,-113.7629 1179,-98 1195.6993,-79.0241 1200.3623,-48.8698 1201.6108,-30.7514"/>
<polygon fill="#191970" stroke="#191970" points="1124.4655,-127.9392 1116.0904,-134.4282 1126.6841,-134.5783 1124.4655,-127.9392"/>
</g>
<!-- Node22&#45;&gt;Node31 -->
<g id="edge36" class="edge">
<title>Node22&#45;&gt;Node31</title>
<path fill="none" stroke="#191970" d="M1115.4918,-131.6333C1141.5617,-123.6991 1174.468,-112.2205 1202,-98 1239.3267,-78.7205 1278.2324,-48.6658 1300.1598,-30.6486"/>
<polygon fill="#191970" stroke="#191970" points="1114.447,-128.2924 1105.8604,-134.4989 1116.4433,-135.0017 1114.447,-128.2924"/>
</g>
<!-- Node32 -->
<g id="node24" class="node">
<title>Node32</title>
<g id="a_node24"><a xlink:href="parserutil_8c.html" target="_top" xlink:title=" ">
<polygon fill="#ffffff" stroke="#000000" points="913.5,-6 913.5,-25 1008.5,-25 1008.5,-6 913.5,-6"/>
<text text-anchor="middle" x="961" y="-13" font-family="Helvetica,sans-Serif" font-size="10.00" fill="#000000">parser/parserutil.c</text>
</a>
</g>
</g>
<!-- Node22&#45;&gt;Node32 -->
<g id="edge37" class="edge">
<title>Node22&#45;&gt;Node32</title>
<path fill="none" stroke="#191970" d="M1098.8315,-129.1908C1110.4479,-121.5771 1122.5959,-111.1135 1129,-98 1135.046,-85.6197 1137.1912,-78.0784 1129,-67 1121.2012,-56.4523 1048.0442,-36.8302 1000.8745,-25.0887"/>
<polygon fill="#191970" stroke="#191970" points="1096.8902,-126.2748 1090.1561,-134.4543 1100.5211,-132.2595 1096.8902,-126.2748"/>
</g>
<!-- Node25&#45;&gt;Node19 -->
<g id="edge22" class="edge">
<title>Node25&#45;&gt;Node19</title>
<path fill="none" stroke="#191970" d="M759.5591,-71.221C703.9221,-61.4869 622.524,-46.5715 552,-31 543.5708,-29.1389 534.535,-26.9503 526.0697,-24.8137"/>
<polygon fill="#191970" stroke="#191970" points="759.1872,-74.7089 769.6395,-72.9773 760.3887,-67.8128 759.1872,-74.7089"/>
</g>
<!-- Node25&#45;&gt;Node21 -->
<g id="edge23" class="edge">
<title>Node25&#45;&gt;Node21</title>
<path fill="none" stroke="#191970" d="M780.3144,-70.243C743.3948,-60.1769 690.1617,-45.2988 644,-31 638.043,-29.1548 631.6863,-27.0812 625.6587,-25.0655"/>
<polygon fill="#191970" stroke="#191970" points="779.7076,-73.705 790.2756,-72.9501 781.5435,-66.95 779.7076,-73.705"/>
</g>
<!-- Node25&#45;&gt;Node26 -->
<g id="edge24" class="edge">
<title>Node25&#45;&gt;Node26</title>
<path fill="none" stroke="#191970" d="M799.4121,-68.1339C778.9011,-57.0514 750.6112,-41.7657 729.8015,-30.5218"/>
<polygon fill="#191970" stroke="#191970" points="797.7721,-71.2261 808.2338,-72.9005 801.0998,-65.0675 797.7721,-71.2261"/>
</g>
<!-- Node25&#45;&gt;Node27 -->
<g id="edge25" class="edge">
<title>Node25&#45;&gt;Node27</title>
<path fill="none" stroke="#191970" d="M823.6449,-62.7758C822.4136,-52.4641 820.9306,-40.0437 819.7936,-30.5218"/>
<polygon fill="#191970" stroke="#191970" points="820.1928,-63.3861 824.8538,-72.9005 827.1434,-62.5561 820.1928,-63.3861"/>
</g>
<!-- Node25&#45;&gt;Node28 -->
<g id="edge26" class="edge">
<title>Node25&#45;&gt;Node28</title>
<path fill="none" stroke="#191970" d="M872.5223,-70.7741C879.3576,-69.3323 886.3384,-68.0127 893,-67 1105.8169,-34.6464 1163.7602,-66.9449 1376,-31 1378.8774,-30.5127 1381.8192,-29.9465 1384.777,-29.3246"/>
<polygon fill="#191970" stroke="#191970" points="871.6747,-67.3769 862.6657,-72.9526 873.1855,-74.2119 871.6747,-67.3769"/>
</g>
<!-- Node25&#45;&gt;Node29 -->
<g id="edge27" class="edge">
<title>Node25&#45;&gt;Node29</title>
<path fill="none" stroke="#191970" d="M872.7498,-70.4529C919.0206,-58.5293 989.58,-40.3467 1036.7144,-28.2005"/>
<polygon fill="#191970" stroke="#191970" points="871.7858,-67.0869 862.9755,-72.9717 873.5326,-73.8655 871.7858,-67.0869"/>
</g>
<!-- Node25&#45;&gt;Node30 -->
<g id="edge28" class="edge">
<title>Node25&#45;&gt;Node30</title>
<path fill="none" stroke="#191970" d="M874.9436,-70.6723C881.0083,-69.356 887.1358,-68.0968 893,-67 1003.7762,-46.2809 1033.5897,-53.5879 1144,-31 1146.8592,-30.4151 1149.7867,-29.7727 1152.7336,-29.0924"/>
<polygon fill="#191970" stroke="#191970" points="873.8521,-67.3297 864.854,-72.9231 875.3762,-74.1618 873.8521,-67.3297"/>
</g>
<!-- Node25&#45;&gt;Node31 -->
<g id="edge29" class="edge">
<title>Node25&#45;&gt;Node31</title>
<path fill="none" stroke="#191970" d="M873.4989,-70.7126C880.0248,-69.3274 886.6599,-68.0398 893,-67 1054.7332,-40.4743 1098.7381,-60.2547 1260,-31 1262.8715,-30.4791 1265.8087,-29.8867 1268.7629,-29.2447"/>
<polygon fill="#191970" stroke="#191970" points="872.3998,-67.371 863.3917,-72.9481 873.9116,-74.2058 872.3998,-67.371"/>
</g>
<!-- Node25&#45;&gt;Node32 -->
<g id="edge30" class="edge">
<title>Node25&#45;&gt;Node32</title>
<path fill="none" stroke="#191970" d="M854.4078,-68.4013C880.6267,-55.389 918.8532,-36.4173 941.6937,-25.0817"/>
<polygon fill="#191970" stroke="#191970" points="852.7438,-65.3198 845.3422,-72.9005 855.8557,-71.59 852.7438,-65.3198"/>
</g>
</g>
</svg>
        <g id="navigator" transform="translate(0 0)" fill="#404254">
                <rect fill="#f2f5e9" fill-opacity="0.5" stroke="#606060" stroke-width=".5" x="0" y="0" width="60" height="60"/>
                <use id="zoomplus" xlink:href="#zoomPlus" x="17" y="9" onmousedown="handleZoom(evt,'in')"/>
                <use id="zoomminus" xlink:href="#zoomMin" x="42" y="9" onmousedown="handleZoom(evt,'out')"/>
                <use id="reset" xlink:href="#resetDef" x="30" y="36" onmousedown="handleReset()"/>
                <g id="arrowUp" xlink:href="#dirArrow" transform="translate(30 24)" onmousedown="handlePan(0,-1)">
                  <use xlink:href="#rim" fill="#404040">
                        <set attributeName="fill" to="#808080" begin="arrowUp.mouseover" end="arrowUp.mouseout"/>
                  </use>
                  <path fill="none" stroke="white" stroke-width="1.5" d="M0,-3.0v7 M-2.5,-0.5L0,-3.0L2.5,-0.5"/>
                </g>
                <g id="arrowRight" xlink:href="#dirArrow" transform="rotate(90) translate(36 -43)" onmousedown="handlePan(1,0)">
                  <use xlink:href="#rim" fill="#404040">
                        <set attributeName="fill" to="#808080" begin="arrowRight.mouseover" end="arrowRight.mouseout"/>
                  </use>
                  <path fill="none" stroke="white" stroke-width="1.5" d="M0,-3.0v7 M-2.5,-0.5L0,-3.0L2.5,-0.5"/>
                </g>
                <g id="arrowDown" xlink:href="#dirArrow" transform="rotate(180) translate(-30 -48)" onmousedown="handlePan(0,1)">
                  <use xlink:href="#rim" fill="#404040">
                        <set attributeName="fill" to="#808080" begin="arrowDown.mouseover" end="arrowDown.mouseout"/>
                  </use>
                  <path fill="none" stroke="white" stroke-width="1.5" d="M0,-3.0v7 M-2.5,-0.5L0,-3.0L2.5,-0.5"/>
                </g>
                <g id="arrowLeft" xlink:href="#dirArrow" transform="rotate(270) translate(-36 17)" onmousedown="handlePan(-1,0)">
                  <use xlink:href="#rim" fill="#404040">
                        <set attributeName="fill" to="#808080" begin="arrowLeft.mouseover" end="arrowLeft.mouseout"/>
                  </use>
                  <path fill="none" stroke="white" stroke-width="1.5" d="M0,-3.0v7 M-2.5,-0.5L0,-3.0L2.5,-0.5"/>
                </g>
        </g>
        <svg viewBox="0 0 15 15" width="100%" height="30px" preserveAspectRatio="xMaxYMin meet">
         <g id="arrow_out" transform="scale(0.3 0.3)">
          <a xlink:href="helios__float_8h__dep__incl_org.svg" target="_base">
           <rect id="button" ry="5" rx="5" y="6" x="6" height="38" width="38"
                fill="#f2f5e9" fill-opacity="0.5" stroke="#606060" stroke-width="1.0"/>
           <path id="arrow"
             d="M 11.500037,31.436501 C 11.940474,20.09759 22.043105,11.32322 32.158766,21.979434 L 37.068811,17.246167 C 37.068811,17.246167 37.088388,32 37.088388,32 L 22.160133,31.978069 C 22.160133,31.978069 26.997745,27.140456 26.997745,27.140456 C 18.528582,18.264221 13.291696,25.230495 11.500037,31.436501 z"
             style="fill:#404040;"/>
          </a>
         </g>
        </svg>
</svg>
