<?xml version="1.0" encoding="UTF-8" standalone="no"?>
<!DOCTYPE svg PUBLIC "-//W3C//DTD SVG 1.1//EN"
 "http://www.w3.org/Graphics/SVG/1.1/DTD/svg11.dtd">
<!-- Generated by graphviz version 2.40.1 (20161225.0304)
 -->
<!-- Title: builtins/float/helios_float_math.c Pages: 1 -->
<svg width="439pt" height="319pt"
 viewBox="0.00 0.00 439.00 319.00" xmlns="http://www.w3.org/2000/svg" xmlns:xlink="http://www.w3.org/1999/xlink">
<g id="graph0" class="graph" transform="scale(1 1) rotate(0) translate(4 315)">
<title>builtins/float/helios_float_math.c</title>
<polygon fill="#ffffff" stroke="transparent" points="-4,4 -4,-315 435,-315 435,4 -4,4"/>
<!-- Node0 -->
<g id="node1" class="node">
<title>Node0</title>
<g id="a_node1"><a xlink:title=" ">
<polygon fill="#bfbfbf" stroke="#000000" points="241,-280.5 241,-310.5 339,-310.5 339,-280.5 241,-280.5"/>
<text text-anchor="start" x="249" y="-298.5" font-family="Helvetica,sans-Serif" font-size="10.00" fill="#000000">builtins/float/helios</text>
<text text-anchor="middle" x="290" y="-287.5" font-family="Helvetica,sans-Serif" font-size="10.00" fill="#000000">_float_math.c</text>
</a>
</g>
</g>
<!-- Node1 -->
<g id="node2" class="node">
<title>Node1</title>
<g id="a_node2"><a xlink:href="helios__float_8h.html" target="_top" xlink:title=" ">
<polygon fill="#ffffff" stroke="#000000" points="153,-224.5 153,-243.5 227,-243.5 227,-224.5 153,-224.5"/>
<text text-anchor="middle" x="190" y="-231.5" font-family="Helvetica,sans-Serif" font-size="10.00" fill="#000000">helios_float.h</text>
</a>
</g>
</g>
<!-- Node0&#45;&gt;Node1 -->
<g id="edge1" class="edge">
<title>Node0&#45;&gt;Node1</title>
<path fill="none" stroke="#191970" d="M265.5372,-280.4554C249.8765,-270.8241 229.6468,-258.3828 214.0644,-248.7996"/>
<polygon fill="#191970" stroke="#191970" points="215.848,-245.7876 205.4965,-243.5303 212.181,-251.7503 215.848,-245.7876"/>
</g>
<!-- Node2 -->
<g id="node3" class="node">
<title>Node2</title>
<g id="a_node3"><a xlink:href="helios__object_8h.html" target="_top" xlink:title=" ">
<polygon fill="#ffffff" stroke="#000000" points="214,-168.5 214,-187.5 296,-187.5 296,-168.5 214,-168.5"/>
<text text-anchor="middle" x="255" y="-175.5" font-family="Helvetica,sans-Serif" font-size="10.00" fill="#000000">helios_object.h</text>
</a>
</g>
</g>
<!-- Node0&#45;&gt;Node2 -->
<g id="edge13" class="edge">
<title>Node0&#45;&gt;Node2</title>
<path fill="none" stroke="#191970" d="M285.1553,-280.202C281.9378,-269.9708 277.6503,-256.1986 274,-244 269.3532,-228.4716 264.284,-210.8247 260.5512,-197.6877"/>
<polygon fill="#191970" stroke="#191970" points="263.8603,-196.5272 257.7686,-187.8588 257.125,-198.4341 263.8603,-196.5272"/>
</g>
<!-- Node10 -->
<g id="node11" class="node">
<title>Node10</title>
<g id="a_node11"><a xlink:href="helios__integer_8h.html" target="_top" xlink:title=" ">
<polygon fill="#ffffff" stroke="#000000" points="283,-224.5 283,-243.5 367,-243.5 367,-224.5 283,-224.5"/>
<text text-anchor="middle" x="325" y="-231.5" font-family="Helvetica,sans-Serif" font-size="10.00" fill="#000000">helios_integer.h</text>
</a>
</g>
</g>
<!-- Node0&#45;&gt;Node10 -->
<g id="edge11" class="edge">
<title>Node0&#45;&gt;Node10</title>
<path fill="none" stroke="#191970" d="M298.6517,-280.2977C303.4088,-271.9388 309.3498,-261.4997 314.3857,-252.6509"/>
<polygon fill="#191970" stroke="#191970" points="317.4917,-254.2692 319.3961,-243.8469 311.4079,-250.8069 317.4917,-254.2692"/>
</g>
<!-- Node11 -->
<g id="node12" class="node">
<title>Node11</title>
<g id="a_node12"><a xlink:title=" ">
<polygon fill="#ffffff" stroke="#bfbfbf" points="385,-224.5 385,-243.5 431,-243.5 431,-224.5 385,-224.5"/>
<text text-anchor="middle" x="408" y="-231.5" font-family="Helvetica,sans-Serif" font-size="10.00" fill="#000000">stdio.h</text>
</a>
</g>
</g>
<!-- Node0&#45;&gt;Node11 -->
<g id="edge14" class="edge">
<title>Node0&#45;&gt;Node11</title>
<path fill="none" stroke="#191970" d="M318.866,-280.4554C337.6911,-270.644 362.111,-257.9167 380.6292,-248.2653"/>
<polygon fill="#191970" stroke="#191970" points="382.464,-251.2559 389.7142,-243.5303 379.2287,-245.0484 382.464,-251.2559"/>
</g>
<!-- Node1&#45;&gt;Node2 -->
<g id="edge2" class="edge">
<title>Node1&#45;&gt;Node2</title>
<path fill="none" stroke="#191970" d="M201.3221,-224.2455C210.9223,-215.9746 224.8892,-203.9416 236.1695,-194.2232"/>
<polygon fill="#191970" stroke="#191970" points="238.516,-196.8214 243.8076,-187.6427 233.947,-191.5182 238.516,-196.8214"/>
</g>
<!-- Node3 -->
<g id="node4" class="node">
<title>Node3</title>
<g id="a_node4"><a xlink:href="helios__type_8h.html" target="_top" xlink:title=" ">
<polygon fill="#ffffff" stroke="#000000" points="218,-112.5 218,-131.5 292,-131.5 292,-112.5 218,-112.5"/>
<text text-anchor="middle" x="255" y="-119.5" font-family="Helvetica,sans-Serif" font-size="10.00" fill="#000000">helios_type.h</text>
</a>
</g>
</g>
<!-- Node2&#45;&gt;Node3 -->
<g id="edge3" class="edge">
<title>Node2&#45;&gt;Node3</title>
<path fill="none" stroke="#191970" d="M255,-168.2455C255,-160.9382 255,-150.6944 255,-141.7046"/>
<polygon fill="#191970" stroke="#191970" points="258.5001,-141.6426 255,-131.6427 251.5001,-141.6427 258.5001,-141.6426"/>
</g>
<!-- Node4 -->
<g id="node5" class="node">
<title>Node4</title>
<g id="a_node5"><a xlink:href="helios__memory_8h.html" target="_top" xlink:title=" ">
<polygon fill="#ffffff" stroke="#000000" points="137,-56.5 137,-75.5 227,-75.5 227,-56.5 137,-56.5"/>
<text text-anchor="middle" x="182" y="-63.5" font-family="Helvetica,sans-Serif" font-size="10.00" fill="#000000">helios_memory.h</text>
</a>
</g>
</g>
<!-- Node3&#45;&gt;Node4 -->
<g id="edge4" class="edge">
<title>Node3&#45;&gt;Node4</title>
<path fill="none" stroke="#191970" d="M242.2844,-112.2455C231.398,-103.8943 215.5117,-91.7076 202.78,-81.9408"/>
<polygon fill="#191970" stroke="#191970" points="204.6346,-78.9523 194.5699,-75.6427 200.3739,-84.5063 204.6346,-78.9523"/>
</g>
<!-- Node8 -->
<g id="node9" class="node">
<title>Node8</title>
<g id="a_node9"><a xlink:title=" ">
<polygon fill="#ffffff" stroke="#bfbfbf" points="230.5,-.5 230.5,-19.5 279.5,-19.5 279.5,-.5 230.5,-.5"/>
<text text-anchor="middle" x="255" y="-7.5" font-family="Helvetica,sans-Serif" font-size="10.00" fill="#000000">stdint.h</text>
</a>
</g>
</g>
<!-- Node3&#45;&gt;Node8 -->
<g id="edge9" class="edge">
<title>Node3&#45;&gt;Node8</title>
<path fill="none" stroke="#191970" d="M255,-112.4509C255,-94.184 255,-53.9553 255,-29.6976"/>
<polygon fill="#191970" stroke="#191970" points="258.5001,-29.5249 255,-19.5249 251.5001,-29.5249 258.5001,-29.5249"/>
</g>
<!-- Node9 -->
<g id="node10" class="node">
<title>Node9</title>
<g id="a_node10"><a xlink:title=" ">
<polygon fill="#ffffff" stroke="#bfbfbf" points="283,-56.5 283,-75.5 331,-75.5 331,-56.5 283,-56.5"/>
<text text-anchor="middle" x="307" y="-63.5" font-family="Helvetica,sans-Serif" font-size="10.00" fill="#000000">stdlib.h</text>
</a>
</g>
</g>
<!-- Node3&#45;&gt;Node9 -->
<g id="edge10" class="edge">
<title>Node3&#45;&gt;Node9</title>
<path fill="none" stroke="#191970" d="M264.0577,-112.2455C271.5142,-104.2155 282.2634,-92.6394 291.1417,-83.0781"/>
<polygon fill="#191970" stroke="#191970" points="293.8063,-85.3522 298.0461,-75.6427 288.6768,-80.589 293.8063,-85.3522"/>
</g>
<!-- Node5 -->
<g id="node6" class="node">
<title>Node5</title>
<g id="a_node6"><a xlink:href="builtinutils_8h.html" target="_top" xlink:title=" ">
<polygon fill="#ffffff" stroke="#000000" points="0,-.5 0,-19.5 68,-19.5 68,-.5 0,-.5"/>
<text text-anchor="middle" x="34" y="-7.5" font-family="Helvetica,sans-Serif" font-size="10.00" fill="#000000">builtinutils.h</text>
</a>
</g>
</g>
<!-- Node4&#45;&gt;Node5 -->
<g id="edge5" class="edge">
<title>Node4&#45;&gt;Node5</title>
<path fill="none" stroke="#191970" d="M156.5579,-56.3733C132.2674,-47.1822 95.4792,-33.2624 68.5457,-23.0713"/>
<polygon fill="#191970" stroke="#191970" points="69.7016,-19.7666 59.1101,-19.5011 67.2243,-26.3136 69.7016,-19.7666"/>
</g>
<!-- Node6 -->
<g id="node7" class="node">
<title>Node6</title>
<g id="a_node7"><a xlink:title=" ">
<polygon fill="#ffffff" stroke="#bfbfbf" points="86,-.5 86,-19.5 142,-19.5 142,-.5 86,-.5"/>
<text text-anchor="middle" x="114" y="-7.5" font-family="Helvetica,sans-Serif" font-size="10.00" fill="#000000">stdbool.h</text>
</a>
</g>
</g>
<!-- Node4&#45;&gt;Node6 -->
<g id="edge6" class="edge">
<title>Node4&#45;&gt;Node6</title>
<path fill="none" stroke="#191970" d="M170.1553,-56.2455C160.112,-47.9746 145.5005,-35.9416 133.6996,-26.2232"/>
<polygon fill="#191970" stroke="#191970" points="135.6533,-23.298 125.709,-19.6427 131.2033,-28.7015 135.6533,-23.298"/>
</g>
<!-- Node7 -->
<g id="node8" class="node">
<title>Node7</title>
<g id="a_node8"><a xlink:title=" ">
<polygon fill="#ffffff" stroke="#bfbfbf" points="160,-.5 160,-19.5 212,-19.5 212,-.5 160,-.5"/>
<text text-anchor="middle" x="186" y="-7.5" font-family="Helvetica,sans-Serif" font-size="10.00" fill="#000000">stddef.h</text>
</a>
</g>
</g>
<!-- Node4&#45;&gt;Node7 -->
<g id="edge7" class="edge">
<title>Node4&#45;&gt;Node7</title>
<path fill="none" stroke="#191970" d="M182.6967,-56.2455C183.2187,-48.9382 183.9504,-38.6944 184.5925,-29.7046"/>
<polygon fill="#191970" stroke="#191970" points="188.0898,-29.8667 185.3112,-19.6427 181.1076,-29.3679 188.0898,-29.8667"/>
</g>
<!-- Node4&#45;&gt;Node8 -->
<g id="edge8" class="edge">
<title>Node4&#45;&gt;Node8</title>
<path fill="none" stroke="#191970" d="M194.7156,-56.2455C205.602,-47.8943 221.4883,-35.7076 234.22,-25.9408"/>
<polygon fill="#191970" stroke="#191970" points="236.6261,-28.5063 242.4301,-19.6427 232.3654,-22.9523 236.6261,-28.5063"/>
</g>
<!-- Node10&#45;&gt;Node2 -->
<g id="edge12" class="edge">
<title>Node10&#45;&gt;Node2</title>
<path fill="none" stroke="#191970" d="M312.8069,-224.2455C302.3679,-215.8943 287.1345,-203.7076 274.926,-193.9408"/>
<polygon fill="#191970" stroke="#191970" points="277.0485,-191.1566 267.0533,-187.6427 272.6756,-196.6227 277.0485,-191.1566"/>
</g>
</g>
</svg>
