<?xml version="1.0" encoding="UTF-8" standalone="no"?>
<!DOCTYPE svg PUBLIC "-//W3C//DTD SVG 1.1//EN"
 "http://www.w3.org/Graphics/SVG/1.1/DTD/svg11.dtd">
<!-- Generated by graphviz version 2.40.1 (20161225.0304)
 -->
<!-- Title: builtins/code/helios_code.c Pages: 1 -->
<!--zoomable 487 -->
<svg id="main" version="1.1" xmlns="http://www.w3.org/2000/svg" xmlns:xlink="http://www.w3.org/1999/xlink" xml:space="preserve" onload="init(evt)">
<style type="text/css"><![CDATA[
.edge:hover path { stroke: red; }
.edge:hover polygon { stroke: red; fill: red; }
]]></style>
<script type="text/javascript"><![CDATA[
var edges = document.getElementsByTagName('g');
if (edges && edges.length) {
  for (var i=0;i<edges.length;i++) {
    if (edges[i].id.substr(0,4)=='edge') {
      edges[i].setAttribute('class','edge');
    }
  }
}
]]></script>
        <defs>
                <circle id="rim" cx="0" cy="0" r="7"/>
                <circle id="rim2" cx="0" cy="0" r="3.5"/>
                <g id="zoomPlus">
                        <use xlink:href="#rim" fill="#404040">
                                <set attributeName="fill" to="#808080" begin="zoomplus.mouseover" end="zoomplus.mouseout"/>
                        </use>
                        <path d="M-4,0h8M0,-4v8" fill="none" stroke="white" stroke-width="1.5" pointer-events="none"/>
                </g>
                <g id="zoomMin">
                        <use xlink:href="#rim" fill="#404040">
                                <set attributeName="fill" to="#808080" begin="zoomminus.mouseover" end="zoomminus.mouseout"/>
                        </use>
                        <path d="M-4,0h8" fill="none" stroke="white" stroke-width="1.5" pointer-events="none"/>
                </g>
                <g id="dirArrow">
                        <path fill="none" stroke="white" stroke-width="1.5" d="M0,-3.0v7 M-2.5,-0.5L0,-3.0L2.5,-0.5"/>
                </g>
               <g id="resetDef">
                       <use xlink:href="#rim2" fill="#404040">
                               <set attributeName="fill" to="#808080" begin="reset.mouseover" end="reset.mouseout"/>
                       </use>
               </g>
        </defs>

<script type="text/javascript">
var viewWidth = 1014;
var viewHeight = 487;
var sectionId = 'dynsection-0';
</script>
<script xlink:href="svgpan.js"/>
<svg id="graph" class="graph">
<g id="viewport">
<title>builtins/code/helios_code.c</title>
<polygon fill="#ffffff" stroke="transparent" points="-4,4 -4,-483 1010,-483 1010,4 -4,4"/>
<!-- Node0 -->
<g id="node1" class="node">
<title>Node0</title>
<g id="a_node1"><a xlink:title=" ">
<polygon fill="#bfbfbf" stroke="#000000" points="825,-448.5 825,-478.5 925,-478.5 925,-448.5 825,-448.5"/>
<text text-anchor="start" x="833" y="-466.5" font-family="Helvetica,sans-Serif" font-size="10.00" fill="#000000">builtins/code/helios</text>
<text text-anchor="middle" x="875" y="-455.5" font-family="Helvetica,sans-Serif" font-size="10.00" fill="#000000">_code.c</text>
</a>
</g>
</g>
<!-- Node1 -->
<g id="node2" class="node">
<title>Node1</title>
<g id="a_node2"><a xlink:href="AST_8h.html" target="_top" xlink:title=" ">
<polygon fill="#ffffff" stroke="#000000" points="54,-392.5 54,-411.5 98,-411.5 98,-392.5 54,-392.5"/>
<text text-anchor="middle" x="76" y="-399.5" font-family="Helvetica,sans-Serif" font-size="10.00" fill="#000000">AST.h</text>
</a>
</g>
</g>
<!-- Node0&#45;&gt;Node1 -->
<g id="edge1" class="edge">
<title>Node0&#45;&gt;Node1</title>
<path fill="none" stroke="#191970" d="M824.7163,-459.6296C674.511,-448.0681 231.9139,-414.0009 108.3596,-404.4908"/>
<polygon fill="#191970" stroke="#191970" points="108.3004,-400.9759 98.0613,-403.6981 107.7631,-407.9553 108.3004,-400.9759"/>
</g>
<!-- Node7 -->
<g id="node8" class="node">
<title>Node7</title>
<g id="a_node8"><a xlink:href="helios__object_8h.html" target="_top" xlink:title=" ">
<polygon fill="#ffffff" stroke="#000000" points="488,-168.5 488,-187.5 570,-187.5 570,-168.5 488,-168.5"/>
<text text-anchor="middle" x="529" y="-175.5" font-family="Helvetica,sans-Serif" font-size="10.00" fill="#000000">helios_object.h</text>
</a>
</g>
</g>
<!-- Node0&#45;&gt;Node7 -->
<g id="edge36" class="edge">
<title>Node0&#45;&gt;Node7</title>
<path fill="none" stroke="#191970" d="M860.3572,-448.0612C851.4836,-438.2233 840.311,-424.9353 832,-412 781.9256,-334.0636 814.6964,-281.4174 742,-224 717.3863,-204.5595 635.2984,-191.0044 580.5155,-183.8664"/>
<polygon fill="#191970" stroke="#191970" points="580.6479,-180.3551 570.2864,-182.5664 579.7653,-187.2993 580.6479,-180.3551"/>
</g>
<!-- Node9 -->
<g id="node10" class="node">
<title>Node9</title>
<g id="a_node10"><a xlink:href="helios__memory_8h.html" target="_top" xlink:title=" ">
<polygon fill="#ffffff" stroke="#000000" points="684,-56.5 684,-75.5 774,-75.5 774,-56.5 684,-56.5"/>
<text text-anchor="middle" x="729" y="-63.5" font-family="Helvetica,sans-Serif" font-size="10.00" fill="#000000">helios_memory.h</text>
</a>
</g>
</g>
<!-- Node0&#45;&gt;Node9 -->
<g id="edge35" class="edge">
<title>Node0&#45;&gt;Node9</title>
<path fill="none" stroke="#191970" d="M887.9342,-448.3025C904.7516,-426.9383 932,-386.131 932,-346 932,-346 932,-346 932,-178 932,-110.2711 844.2985,-83.1899 784.1858,-72.5827"/>
<polygon fill="#191970" stroke="#191970" points="784.4901,-69.0854 774.0523,-70.9025 783.3451,-75.9911 784.4901,-69.0854"/>
</g>
<!-- Node13 -->
<g id="node14" class="node">
<title>Node13</title>
<g id="a_node14"><a xlink:href="helios__code_8h.html" target="_top" xlink:title=" ">
<polygon fill="#ffffff" stroke="#000000" points="557.5,-224.5 557.5,-243.5 634.5,-243.5 634.5,-224.5 557.5,-224.5"/>
<text text-anchor="middle" x="596" y="-231.5" font-family="Helvetica,sans-Serif" font-size="10.00" fill="#000000">helios_code.h</text>
</a>
</g>
</g>
<!-- Node0&#45;&gt;Node13 -->
<g id="edge34" class="edge">
<title>Node0&#45;&gt;Node13</title>
<path fill="none" stroke="#191970" d="M868.2757,-448.2448C860.9461,-432.8121 848.0857,-408.8855 832,-392 768.8426,-325.7021 673.1264,-272.4474 625.3238,-248.2001"/>
<polygon fill="#191970" stroke="#191970" points="626.6611,-244.9555 616.1524,-243.6069 623.5265,-251.2145 626.6611,-244.9555"/>
</g>
<!-- Node17 -->
<g id="node18" class="node">
<title>Node17</title>
<g id="a_node18"><a xlink:href="helios__string_8h.html" target="_top" xlink:title=" ">
<polygon fill="#ffffff" stroke="#000000" points="653,-224.5 653,-243.5 733,-243.5 733,-224.5 653,-224.5"/>
<text text-anchor="middle" x="693" y="-231.5" font-family="Helvetica,sans-Serif" font-size="10.00" fill="#000000">helios_string.h</text>
</a>
</g>
</g>
<!-- Node0&#45;&gt;Node17 -->
<g id="edge37" class="edge">
<title>Node0&#45;&gt;Node17</title>
<path fill="none" stroke="#191970" d="M880.0052,-448.4171C890.313,-414.2442 909.7744,-330.0099 870,-280 854.3036,-260.2643 789.9402,-247.3099 743.3476,-240.3197"/>
<polygon fill="#191970" stroke="#191970" points="743.8036,-236.8493 733.4046,-238.877 742.7984,-243.7768 743.8036,-236.8493"/>
</g>
<!-- Node19 -->
<g id="node20" class="node">
<title>Node19</title>
<g id="a_node20"><a xlink:title=" ">
<polygon fill="#ffffff" stroke="#bfbfbf" points="960,-392.5 960,-411.5 1006,-411.5 1006,-392.5 960,-392.5"/>
<text text-anchor="middle" x="983" y="-399.5" font-family="Helvetica,sans-Serif" font-size="10.00" fill="#000000">stdio.h</text>
</a>
</g>
</g>
<!-- Node0&#45;&gt;Node19 -->
<g id="edge38" class="edge">
<title>Node0&#45;&gt;Node19</title>
<path fill="none" stroke="#191970" d="M901.4198,-448.4554C918.4914,-438.734 940.5902,-426.15 957.4809,-416.5317"/>
<polygon fill="#191970" stroke="#191970" points="959.3059,-419.5202 966.2638,-411.5303 955.842,-413.4373 959.3059,-419.5202"/>
</g>
<!-- Node2 -->
<g id="node3" class="node">
<title>Node2</title>
<g id="a_node3"><a xlink:title=" ">
<polygon fill="#ffffff" stroke="#bfbfbf" points="90.5,-.5 90.5,-19.5 139.5,-19.5 139.5,-.5 90.5,-.5"/>
<text text-anchor="middle" x="115" y="-7.5" font-family="Helvetica,sans-Serif" font-size="10.00" fill="#000000">stdint.h</text>
</a>
</g>
</g>
<!-- Node1&#45;&gt;Node2 -->
<g id="edge2" class="edge">
<title>Node1&#45;&gt;Node2</title>
<path fill="none" stroke="#191970" d="M63.4501,-392.4082C41.864,-374.7155 0,-334.6472 0,-290 0,-290 0,-290 0,-122 0,-75.2547 49.3676,-41.6844 83.4117,-24.0917"/>
<polygon fill="#191970" stroke="#191970" points="85.1515,-27.1357 92.5538,-19.5557 82.0402,-20.8651 85.1515,-27.1357"/>
</g>
<!-- Node3 -->
<g id="node4" class="node">
<title>Node3</title>
<g id="a_node4"><a xlink:href="token_8h.html" target="_top" xlink:title=" ">
<polygon fill="#ffffff" stroke="#000000" points="51.5,-336.5 51.5,-355.5 100.5,-355.5 100.5,-336.5 51.5,-336.5"/>
<text text-anchor="middle" x="76" y="-343.5" font-family="Helvetica,sans-Serif" font-size="10.00" fill="#000000">token.h</text>
</a>
</g>
</g>
<!-- Node1&#45;&gt;Node3 -->
<g id="edge3" class="edge">
<title>Node1&#45;&gt;Node3</title>
<path fill="none" stroke="#191970" d="M76,-392.2455C76,-384.9382 76,-374.6944 76,-365.7046"/>
<polygon fill="#191970" stroke="#191970" points="79.5001,-365.6426 76,-355.6427 72.5001,-365.6427 79.5001,-365.6426"/>
</g>
<!-- Node3&#45;&gt;Node2 -->
<g id="edge33" class="edge">
<title>Node3&#45;&gt;Node2</title>
<path fill="none" stroke="#191970" d="M70.393,-336.4834C59.8226,-317.6141 38,-273.8343 38,-234 38,-234 38,-234 38,-122 38,-90.7875 44.3148,-81.7188 62,-56 69.982,-44.3921 81.5655,-33.886 91.869,-25.8544"/>
<polygon fill="#191970" stroke="#191970" points="94.181,-28.4967 100.1156,-19.72 90.0031,-22.8802 94.181,-28.4967"/>
</g>
<!-- Node4 -->
<g id="node5" class="node">
<title>Node4</title>
<g id="a_node5"><a xlink:href="builtins_8h.html" target="_top" xlink:title=" ">
<polygon fill="#ffffff" stroke="#000000" points="501,-280.5 501,-299.5 557,-299.5 557,-280.5 501,-280.5"/>
<text text-anchor="middle" x="529" y="-287.5" font-family="Helvetica,sans-Serif" font-size="10.00" fill="#000000">builtins.h</text>
</a>
</g>
</g>
<!-- Node3&#45;&gt;Node4 -->
<g id="edge4" class="edge">
<title>Node3&#45;&gt;Node4</title>
<path fill="none" stroke="#191970" d="M100.6769,-342.9494C175.5349,-333.6955 400.4304,-305.8938 490.7951,-294.7229"/>
<polygon fill="#191970" stroke="#191970" points="491.3833,-298.1769 500.8784,-293.4764 490.5245,-291.2298 491.3833,-298.1769"/>
</g>
<!-- Node10 -->
<g id="node11" class="node">
<title>Node10</title>
<g id="a_node11"><a xlink:title=" ">
<polygon fill="#ffffff" stroke="#bfbfbf" points="179,-.5 179,-19.5 235,-19.5 235,-.5 179,-.5"/>
<text text-anchor="middle" x="207" y="-7.5" font-family="Helvetica,sans-Serif" font-size="10.00" fill="#000000">stdbool.h</text>
</a>
</g>
</g>
<!-- Node3&#45;&gt;Node10 -->
<g id="edge32" class="edge">
<title>Node3&#45;&gt;Node10</title>
<path fill="none" stroke="#191970" d="M76,-336.4116C76,-317.0538 76,-271.9167 76,-234 76,-234 76,-234 76,-122 76,-72.348 131.0403,-40.0069 169.7673,-23.3965"/>
<polygon fill="#191970" stroke="#191970" points="171.2999,-26.5508 179.2183,-19.5116 168.6385,-20.0764 171.2999,-26.5508"/>
</g>
<!-- Node5 -->
<g id="node6" class="node">
<title>Node5</title>
<g id="a_node6"><a xlink:href="builtinutils_8h.html" target="_top" xlink:title=" ">
<polygon fill="#ffffff" stroke="#000000" points="818,-.5 818,-19.5 886,-19.5 886,-.5 818,-.5"/>
<text text-anchor="middle" x="852" y="-7.5" font-family="Helvetica,sans-Serif" font-size="10.00" fill="#000000">builtinutils.h</text>
</a>
</g>
</g>
<!-- Node4&#45;&gt;Node5 -->
<g id="edge5" class="edge">
<title>Node4&#45;&gt;Node5</title>
<path fill="none" stroke="#191970" d="M557.0215,-287.0429C639.3922,-277.5814 875,-244.6897 875,-178 875,-178 875,-178 875,-122 875,-88.906 865.2452,-51.4151 858.4412,-29.2901"/>
<polygon fill="#191970" stroke="#191970" points="861.7706,-28.2105 855.3937,-19.7497 855.1026,-30.3405 861.7706,-28.2105"/>
</g>
<!-- Node6 -->
<g id="node7" class="node">
<title>Node6</title>
<g id="a_node7"><a xlink:href="helios__boolean_8h.html" target="_top" xlink:title=" ">
<polygon fill="#ffffff" stroke="#000000" points="217.5,-224.5 217.5,-243.5 306.5,-243.5 306.5,-224.5 217.5,-224.5"/>
<text text-anchor="middle" x="262" y="-231.5" font-family="Helvetica,sans-Serif" font-size="10.00" fill="#000000">helios_boolean.h</text>
</a>
</g>
</g>
<!-- Node4&#45;&gt;Node6 -->
<g id="edge6" class="edge">
<title>Node4&#45;&gt;Node6</title>
<path fill="none" stroke="#191970" d="M500.931,-284.1129C457.4458,-274.9924 372.9853,-257.2778 317.0328,-245.5425"/>
<polygon fill="#191970" stroke="#191970" points="317.4388,-242.0515 306.9333,-243.4242 316.0019,-248.9025 317.4388,-242.0515"/>
</g>
<!-- Node4&#45;&gt;Node7 -->
<g id="edge26" class="edge">
<title>Node4&#45;&gt;Node7</title>
<path fill="none" stroke="#191970" d="M529,-280.4509C529,-262.184 529,-221.9553 529,-197.6976"/>
<polygon fill="#191970" stroke="#191970" points="532.5001,-197.5249 529,-187.5249 525.5001,-197.5249 532.5001,-197.5249"/>
</g>
<!-- Node4&#45;&gt;Node9 -->
<g id="edge29" class="edge">
<title>Node4&#45;&gt;Node9</title>
<path fill="none" stroke="#191970" d="M557.1159,-288.6449C612.5764,-285.3209 732.8824,-274.6648 758,-244 796.2652,-197.284 760.4132,-119.927 740.4028,-84.6138"/>
<polygon fill="#191970" stroke="#191970" points="743.3301,-82.6863 735.2537,-75.8289 737.291,-86.2261 743.3301,-82.6863"/>
</g>
<!-- Node4&#45;&gt;Node13 -->
<g id="edge17" class="edge">
<title>Node4&#45;&gt;Node13</title>
<path fill="none" stroke="#191970" d="M540.6705,-280.2455C550.5661,-271.9746 564.9627,-259.9416 576.5901,-250.2232"/>
<polygon fill="#191970" stroke="#191970" points="579.035,-252.7413 584.4632,-243.6427 574.5458,-247.3703 579.035,-252.7413"/>
</g>
<!-- Node14 -->
<g id="node15" class="node">
<title>Node14</title>
<g id="a_node15"><a xlink:href="helios__float_8h.html" target="_top" xlink:title=" ">
<polygon fill="#ffffff" stroke="#000000" points="325,-224.5 325,-243.5 399,-243.5 399,-224.5 325,-224.5"/>
<text text-anchor="middle" x="362" y="-231.5" font-family="Helvetica,sans-Serif" font-size="10.00" fill="#000000">helios_float.h</text>
</a>
</g>
</g>
<!-- Node4&#45;&gt;Node14 -->
<g id="edge19" class="edge">
<title>Node4&#45;&gt;Node14</title>
<path fill="none" stroke="#191970" d="M500.6707,-280.5004C472.9604,-271.2083 430.5774,-256.996 399.9615,-246.7296"/>
<polygon fill="#191970" stroke="#191970" points="401.0622,-243.4072 390.4682,-243.5462 398.8366,-250.044 401.0622,-243.4072"/>
</g>
<!-- Node15 -->
<g id="node16" class="node">
<title>Node15</title>
<g id="a_node16"><a xlink:href="helios__hashmap_8h.html" target="_top" xlink:title=" ">
<polygon fill="#ffffff" stroke="#000000" points="104.5,-224.5 104.5,-243.5 199.5,-243.5 199.5,-224.5 104.5,-224.5"/>
<text text-anchor="middle" x="152" y="-231.5" font-family="Helvetica,sans-Serif" font-size="10.00" fill="#000000">helios_hashmap.h</text>
</a>
</g>
</g>
<!-- Node4&#45;&gt;Node15 -->
<g id="edge21" class="edge">
<title>Node4&#45;&gt;Node15</title>
<path fill="none" stroke="#191970" d="M500.61,-286.2653C446.162,-279.0311 323.0661,-262.3305 209.54,-244.2099"/>
<polygon fill="#191970" stroke="#191970" points="210.0681,-240.7499 199.6399,-242.622 208.9595,-247.6616 210.0681,-240.7499"/>
</g>
<!-- Node16 -->
<g id="node17" class="node">
<title>Node16</title>
<g id="a_node17"><a xlink:href="helios__integer_8h.html" target="_top" xlink:title=" ">
<polygon fill="#ffffff" stroke="#000000" points="417,-224.5 417,-243.5 501,-243.5 501,-224.5 417,-224.5"/>
<text text-anchor="middle" x="459" y="-231.5" font-family="Helvetica,sans-Serif" font-size="10.00" fill="#000000">helios_integer.h</text>
</a>
</g>
</g>
<!-- Node4&#45;&gt;Node16 -->
<g id="edge24" class="edge">
<title>Node4&#45;&gt;Node16</title>
<path fill="none" stroke="#191970" d="M516.8069,-280.2455C506.3679,-271.8943 491.1345,-259.7076 478.926,-249.9408"/>
<polygon fill="#191970" stroke="#191970" points="481.0485,-247.1566 471.0533,-243.6427 476.6756,-252.6227 481.0485,-247.1566"/>
</g>
<!-- Node4&#45;&gt;Node17 -->
<g id="edge27" class="edge">
<title>Node4&#45;&gt;Node17</title>
<path fill="none" stroke="#191970" d="M557.1926,-280.3733C584.3453,-271.1016 625.5907,-257.0178 655.5025,-246.804"/>
<polygon fill="#191970" stroke="#191970" points="656.8428,-250.0449 665.1753,-243.5011 654.5808,-243.4204 656.8428,-250.0449"/>
</g>
<!-- Node18 -->
<g id="node19" class="node">
<title>Node18</title>
<g id="a_node19"><a xlink:href="serialize_8h.html" target="_top" xlink:title=" ">
<polygon fill="#ffffff" stroke="#000000" points="649.5,-168.5 649.5,-187.5 710.5,-187.5 710.5,-168.5 649.5,-168.5"/>
<text text-anchor="middle" x="680" y="-175.5" font-family="Helvetica,sans-Serif" font-size="10.00" fill="#000000">serialize.h</text>
</a>
</g>
</g>
<!-- Node4&#45;&gt;Node18 -->
<g id="edge30" class="edge">
<title>Node4&#45;&gt;Node18</title>
<path fill="none" stroke="#191970" d="M557.1843,-288.1751C609.651,-284.1278 719.0713,-272.4091 742,-244 757.0798,-225.3159 732.0999,-205.4346 709.4914,-192.4347"/>
<polygon fill="#191970" stroke="#191970" points="711.1667,-189.3617 700.7126,-187.6404 707.8115,-195.5052 711.1667,-189.3617"/>
</g>
<!-- Node6&#45;&gt;Node7 -->
<g id="edge7" class="edge">
<title>Node6&#45;&gt;Node7</title>
<path fill="none" stroke="#191970" d="M306.6898,-224.6269C353.9109,-214.7228 428.2628,-199.1284 477.8092,-188.7366"/>
<polygon fill="#191970" stroke="#191970" points="478.6107,-192.1448 487.6793,-186.6665 477.1738,-185.2938 478.6107,-192.1448"/>
</g>
<!-- Node6&#45;&gt;Node10 -->
<g id="edge16" class="edge">
<title>Node6&#45;&gt;Node10</title>
<path fill="none" stroke="#191970" d="M259.6367,-224.375C251.2979,-190.4133 223.1433,-75.7472 211.7976,-29.5392"/>
<polygon fill="#191970" stroke="#191970" points="215.1381,-28.4661 209.3545,-19.5891 208.34,-30.1353 215.1381,-28.4661"/>
</g>
<!-- Node8 -->
<g id="node9" class="node">
<title>Node8</title>
<g id="a_node9"><a xlink:href="helios__type_8h.html" target="_top" xlink:title=" ">
<polygon fill="#ffffff" stroke="#000000" points="515,-112.5 515,-131.5 589,-131.5 589,-112.5 515,-112.5"/>
<text text-anchor="middle" x="552" y="-119.5" font-family="Helvetica,sans-Serif" font-size="10.00" fill="#000000">helios_type.h</text>
</a>
</g>
</g>
<!-- Node7&#45;&gt;Node8 -->
<g id="edge8" class="edge">
<title>Node7&#45;&gt;Node8</title>
<path fill="none" stroke="#191970" d="M533.0063,-168.2455C536.0735,-160.7776 540.4003,-150.2427 544.1497,-141.1137"/>
<polygon fill="#191970" stroke="#191970" points="547.4779,-142.2226 548.0396,-131.6427 541.0028,-139.5631 547.4779,-142.2226"/>
</g>
<!-- Node8&#45;&gt;Node2 -->
<g id="edge14" class="edge">
<title>Node8&#45;&gt;Node2</title>
<path fill="none" stroke="#191970" d="M514.7416,-112.4509C431.3818,-91.0864 230.8076,-39.6807 149.8045,-18.9201"/>
<polygon fill="#191970" stroke="#191970" points="150.1943,-15.407 139.6384,-16.3146 148.4563,-22.1878 150.1943,-15.407"/>
</g>
<!-- Node8&#45;&gt;Node9 -->
<g id="edge9" class="edge">
<title>Node8&#45;&gt;Node9</title>
<path fill="none" stroke="#191970" d="M582.4274,-112.3733C611.9872,-103.021 657.0226,-88.7725 689.3695,-78.5385"/>
<polygon fill="#191970" stroke="#191970" points="690.4913,-81.8546 698.9697,-75.5011 688.3797,-75.1807 690.4913,-81.8546"/>
</g>
<!-- Node12 -->
<g id="node13" class="node">
<title>Node12</title>
<g id="a_node13"><a xlink:title=" ">
<polygon fill="#ffffff" stroke="#bfbfbf" points="528,-56.5 528,-75.5 576,-75.5 576,-56.5 528,-56.5"/>
<text text-anchor="middle" x="552" y="-63.5" font-family="Helvetica,sans-Serif" font-size="10.00" fill="#000000">stdlib.h</text>
</a>
</g>
</g>
<!-- Node8&#45;&gt;Node12 -->
<g id="edge15" class="edge">
<title>Node8&#45;&gt;Node12</title>
<path fill="none" stroke="#191970" d="M552,-112.2455C552,-104.9382 552,-94.6944 552,-85.7046"/>
<polygon fill="#191970" stroke="#191970" points="555.5001,-85.6426 552,-75.6427 548.5001,-85.6427 555.5001,-85.6426"/>
</g>
<!-- Node9&#45;&gt;Node2 -->
<g id="edge13" class="edge">
<title>Node9&#45;&gt;Node2</title>
<path fill="none" stroke="#191970" d="M683.9043,-62.8617C569.3463,-54.7972 269.1975,-33.0676 170,-20 163.433,-19.1349 156.4583,-18.0203 149.7601,-16.8508"/>
<polygon fill="#191970" stroke="#191970" points="150.0252,-13.3416 139.5603,-14.9956 148.7725,-20.2286 150.0252,-13.3416"/>
</g>
<!-- Node9&#45;&gt;Node5 -->
<g id="edge10" class="edge">
<title>Node9&#45;&gt;Node5</title>
<path fill="none" stroke="#191970" d="M750.1445,-56.3733C769.8892,-47.3838 799.5698,-33.8706 821.8055,-23.7471"/>
<polygon fill="#191970" stroke="#191970" points="823.4806,-26.8302 831.1315,-19.5011 820.58,-20.4594 823.4806,-26.8302"/>
</g>
<!-- Node9&#45;&gt;Node10 -->
<g id="edge11" class="edge">
<title>Node9&#45;&gt;Node10</title>
<path fill="none" stroke="#191970" d="M683.5891,-61.1283C582.3206,-50.2643 339.5209,-24.2168 245.2925,-14.108"/>
<polygon fill="#191970" stroke="#191970" points="245.3929,-10.5988 235.0765,-13.012 244.6461,-17.5588 245.3929,-10.5988"/>
</g>
<!-- Node11 -->
<g id="node12" class="node">
<title>Node11</title>
<g id="a_node12"><a xlink:title=" ">
<polygon fill="#ffffff" stroke="#bfbfbf" points="703,-.5 703,-19.5 755,-19.5 755,-.5 703,-.5"/>
<text text-anchor="middle" x="729" y="-7.5" font-family="Helvetica,sans-Serif" font-size="10.00" fill="#000000">stddef.h</text>
</a>
</g>
</g>
<!-- Node9&#45;&gt;Node11 -->
<g id="edge12" class="edge">
<title>Node9&#45;&gt;Node11</title>
<path fill="none" stroke="#191970" d="M729,-56.2455C729,-48.9382 729,-38.6944 729,-29.7046"/>
<polygon fill="#191970" stroke="#191970" points="732.5001,-29.6426 729,-19.6427 725.5001,-29.6427 732.5001,-29.6426"/>
</g>
<!-- Node13&#45;&gt;Node7 -->
<g id="edge18" class="edge">
<title>Node13&#45;&gt;Node7</title>
<path fill="none" stroke="#191970" d="M584.3295,-224.2455C574.4339,-215.9746 560.0373,-203.9416 548.4099,-194.2232"/>
<polygon fill="#191970" stroke="#191970" points="550.4542,-191.3703 540.5368,-187.6427 545.965,-196.7413 550.4542,-191.3703"/>
</g>
<!-- Node14&#45;&gt;Node7 -->
<g id="edge20" class="edge">
<title>Node14&#45;&gt;Node7</title>
<path fill="none" stroke="#191970" d="M390.7083,-224.3733C418.3577,-215.1016 460.3576,-201.0178 490.8166,-190.804"/>
<polygon fill="#191970" stroke="#191970" points="492.2979,-193.9989 500.6663,-187.5011 490.0724,-187.3621 492.2979,-193.9989"/>
</g>
<!-- Node15&#45;&gt;Node7 -->
<g id="edge22" class="edge">
<title>Node15&#45;&gt;Node7</title>
<path fill="none" stroke="#191970" d="M199.6399,-225.378C202.467,-224.902 205.2698,-224.4393 208,-224 303.0378,-208.7096 414.3182,-193.324 477.7495,-184.7913"/>
<polygon fill="#191970" stroke="#191970" points="478.4415,-188.2299 487.8873,-183.4312 477.5106,-181.2921 478.4415,-188.2299"/>
</g>
<!-- Node15&#45;&gt;Node10 -->
<g id="edge23" class="edge">
<title>Node15&#45;&gt;Node10</title>
<path fill="none" stroke="#191970" d="M154.3633,-224.375C162.7021,-190.4133 190.8567,-75.7472 202.2024,-29.5392"/>
<polygon fill="#191970" stroke="#191970" points="205.66,-30.1353 204.6455,-19.5891 198.8619,-28.4661 205.66,-30.1353"/>
</g>
<!-- Node16&#45;&gt;Node7 -->
<g id="edge25" class="edge">
<title>Node16&#45;&gt;Node7</title>
<path fill="none" stroke="#191970" d="M471.1931,-224.2455C481.6321,-215.8943 496.8655,-203.7076 509.074,-193.9408"/>
<polygon fill="#191970" stroke="#191970" points="511.3244,-196.6227 516.9467,-187.6427 506.9515,-191.1566 511.3244,-196.6227"/>
</g>
<!-- Node17&#45;&gt;Node7 -->
<g id="edge28" class="edge">
<title>Node17&#45;&gt;Node7</title>
<path fill="none" stroke="#191970" d="M664.8074,-224.3733C637.6547,-215.1016 596.4093,-201.0178 566.4975,-190.804"/>
<polygon fill="#191970" stroke="#191970" points="567.4192,-187.4204 556.8247,-187.5011 565.1572,-194.0449 567.4192,-187.4204"/>
</g>
<!-- Node18&#45;&gt;Node8 -->
<g id="edge31" class="edge">
<title>Node18&#45;&gt;Node8</title>
<path fill="none" stroke="#191970" d="M657.996,-168.3733C637.3565,-159.3435 606.2842,-145.7494 583.1111,-135.6111"/>
<polygon fill="#191970" stroke="#191970" points="584.2813,-132.3028 573.7169,-131.5011 581.4755,-138.7159 584.2813,-132.3028"/>
</g>
</g>
</svg>
        <g id="navigator" transform="translate(0 0)" fill="#404254">
                <rect fill="#f2f5e9" fill-opacity="0.5" stroke="#606060" stroke-width=".5" x="0" y="0" width="60" height="60"/>
                <use id="zoomplus" xlink:href="#zoomPlus" x="17" y="9" onmousedown="handleZoom(evt,'in')"/>
                <use id="zoomminus" xlink:href="#zoomMin" x="42" y="9" onmousedown="handleZoom(evt,'out')"/>
                <use id="reset" xlink:href="#resetDef" x="30" y="36" onmousedown="handleReset()"/>
                <g id="arrowUp" xlink:href="#dirArrow" transform="translate(30 24)" onmousedown="handlePan(0,-1)">
                  <use xlink:href="#rim" fill="#404040">
                        <set attributeName="fill" to="#808080" begin="arrowUp.mouseover" end="arrowUp.mouseout"/>
                  </use>
                  <path fill="none" stroke="white" stroke-width="1.5" d="M0,-3.0v7 M-2.5,-0.5L0,-3.0L2.5,-0.5"/>
                </g>
                <g id="arrowRight" xlink:href="#dirArrow" transform="rotate(90) translate(36 -43)" onmousedown="handlePan(1,0)">
                  <use xlink:href="#rim" fill="#404040">
                        <set attributeName="fill" to="#808080" begin="arrowRight.mouseover" end="arrowRight.mouseout"/>
                  </use>
                  <path fill="none" stroke="white" stroke-width="1.5" d="M0,-3.0v7 M-2.5,-0.5L0,-3.0L2.5,-0.5"/>
                </g>
                <g id="arrowDown" xlink:href="#dirArrow" transform="rotate(180) translate(-30 -48)" onmousedown="handlePan(0,1)">
                  <use xlink:href="#rim" fill="#404040">
                        <set attributeName="fill" to="#808080" begin="arrowDown.mouseover" end="arrowDown.mouseout"/>
                  </use>
                  <path fill="none" stroke="white" stroke-width="1.5" d="M0,-3.0v7 M-2.5,-0.5L0,-3.0L2.5,-0.5"/>
                </g>
                <g id="arrowLeft" xlink:href="#dirArrow" transform="rotate(270) translate(-36 17)" onmousedown="handlePan(-1,0)">
                  <use xlink:href="#rim" fill="#404040">
                        <set attributeName="fill" to="#808080" begin="arrowLeft.mouseover" end="arrowLeft.mouseout"/>
                  </use>
                  <path fill="none" stroke="white" stroke-width="1.5" d="M0,-3.0v7 M-2.5,-0.5L0,-3.0L2.5,-0.5"/>
                </g>
        </g>
        <svg viewBox="0 0 15 15" width="100%" height="30px" preserveAspectRatio="xMaxYMin meet">
         <g id="arrow_out" transform="scale(0.3 0.3)">
          <a xlink:href="helios__code_8c__incl_org.svg" target="_base">
           <rect id="button" ry="5" rx="5" y="6" x="6" height="38" width="38"
                fill="#f2f5e9" fill-opacity="0.5" stroke="#606060" stroke-width="1.0"/>
           <path id="arrow"
             d="M 11.500037,31.436501 C 11.940474,20.09759 22.043105,11.32322 32.158766,21.979434 L 37.068811,17.246167 C 37.068811,17.246167 37.088388,32 37.088388,32 L 22.160133,31.978069 C 22.160133,31.978069 26.997745,27.140456 26.997745,27.140456 C 18.528582,18.264221 13.291696,25.230495 11.500037,31.436501 z"
             style="fill:#404040;"/>
          </a>
         </g>
        </svg>
</svg>
