<?xml version="1.0" encoding="UTF-8" standalone="no"?>
<!DOCTYPE svg PUBLIC "-//W3C//DTD SVG 1.1//EN"
 "http://www.w3.org/Graphics/SVG/1.1/DTD/svg11.dtd">
<!-- Generated by graphviz version 2.40.1 (20161225.0304)
 -->
<!-- Title: helios_integer_less Pages: 1 -->
<svg width="805pt" height="97pt"
 viewBox="0.00 0.00 805.00 96.50" xmlns="http://www.w3.org/2000/svg" xmlns:xlink="http://www.w3.org/1999/xlink">
<g id="graph0" class="graph" transform="scale(1 1) rotate(0) translate(4 92.5)">
<title>helios_integer_less</title>
<polygon fill="#ffffff" stroke="transparent" points="-4,4 -4,-92.5 801,-92.5 801,4 -4,4"/>
<!-- Node25 -->
<g id="node1" class="node">
<title>Node25</title>
<g id="a_node1"><a xlink:title=" ">
<polygon fill="#bfbfbf" stroke="#000000" points="0,-41.5 0,-60.5 110,-60.5 110,-41.5 0,-41.5"/>
<text text-anchor="middle" x="55" y="-48.5" font-family="Helvetica,sans-Serif" font-size="10.00" fill="#000000">helios_integer_less</text>
</a>
</g>
</g>
<!-- Node25&#45;&gt;Node25 -->
<g id="edge3" class="edge">
<title>Node25&#45;&gt;Node25</title>
<path fill="none" stroke="#191970" d="M30.9559,-60.7571C19.2587,-69.5653 27.2734,-79 55,-79 73.1956,-79 82.9019,-74.9368 84.1191,-69.6539"/>
<polygon fill="#191970" stroke="#191970" points="87.0391,-67.7091 79.0441,-60.7571 80.9588,-71.1775 87.0391,-67.7091"/>
</g>
<!-- Node26 -->
<g id="node2" class="node">
<title>Node26</title>
<g id="a_node2"><a xlink:href="helios__boolean_8c.html#a50e186696d4b9f2e8efdcddc17ab5ce5" target="_top" xlink:title="Create a helios_boolean object from a c boolean type.">
<polygon fill="#ffffff" stroke="#000000" points="151.5,-58 151.5,-88 270.5,-88 270.5,-58 151.5,-58"/>
<text text-anchor="start" x="159.5" y="-76" font-family="Helvetica,sans-Serif" font-size="10.00" fill="#000000">helios_boolean_from</text>
<text text-anchor="middle" x="211" y="-65" font-family="Helvetica,sans-Serif" font-size="10.00" fill="#000000">_cbool</text>
</a>
</g>
</g>
<!-- Node25&#45;&gt;Node26 -->
<g id="edge1" class="edge">
<title>Node25&#45;&gt;Node26</title>
<path fill="none" stroke="#191970" d="M110.439,-58.8183C120.357,-60.217 130.8074,-61.6908 141.0695,-63.138"/>
<polygon fill="#191970" stroke="#191970" points="140.8514,-66.6418 151.2422,-64.5726 141.829,-59.7104 140.8514,-66.6418"/>
</g>
<!-- Node28 -->
<g id="node4" class="node">
<title>Node28</title>
<g id="a_node4"><a xlink:href="helios__boolean_8c.html#a856733e7e090437084fcf595bd4e3b8f" target="_top" xlink:title="Convert a boolean to an integer.">
<polygon fill="#ffffff" stroke="#000000" points="146,-19.5 146,-38.5 276,-38.5 276,-19.5 146,-19.5"/>
<text text-anchor="middle" x="211" y="-26.5" font-family="Helvetica,sans-Serif" font-size="10.00" fill="#000000">helios_boolean_integer</text>
</a>
</g>
</g>
<!-- Node25&#45;&gt;Node28 -->
<g id="edge4" class="edge">
<title>Node25&#45;&gt;Node28</title>
<path fill="none" stroke="#191970" d="M110.439,-43.1817C118.6848,-42.0188 127.2987,-40.804 135.8664,-39.5958"/>
<polygon fill="#191970" stroke="#191970" points="136.4649,-43.0461 145.8781,-38.1839 135.4873,-36.1147 136.4649,-43.0461"/>
</g>
<!-- Node27 -->
<g id="node3" class="node">
<title>Node27</title>
<g id="a_node3"><a xlink:href="helios__boolean_8c.html#ab172c15c28782b45e824c42601484606" target="_top" xlink:title="Create a helios_boolean object from a c integer type.">
<polygon fill="#ffffff" stroke="#000000" points="312,-63.5 312,-82.5 454,-82.5 454,-63.5 312,-63.5"/>
<text text-anchor="middle" x="383" y="-70.5" font-family="Helvetica,sans-Serif" font-size="10.00" fill="#000000">helios_boolean_from_cint</text>
</a>
</g>
</g>
<!-- Node26&#45;&gt;Node27 -->
<g id="edge2" class="edge">
<title>Node26&#45;&gt;Node27</title>
<path fill="none" stroke="#191970" d="M270.6745,-73C280.7479,-73 291.3545,-73 301.864,-73"/>
<polygon fill="#191970" stroke="#191970" points="301.8898,-76.5001 311.8897,-73 301.8897,-69.5001 301.8898,-76.5001"/>
</g>
<!-- Node29 -->
<g id="node5" class="node">
<title>Node29</title>
<g id="a_node5"><a xlink:href="helios__integer_8c.html#af677316afd6536844aeb027f14c198cf" target="_top" xlink:title="Create a helios_integer object from a c integer type.">
<polygon fill="#ffffff" stroke="#000000" points="314.5,-19.5 314.5,-38.5 451.5,-38.5 451.5,-19.5 314.5,-19.5"/>
<text text-anchor="middle" x="383" y="-26.5" font-family="Helvetica,sans-Serif" font-size="10.00" fill="#000000">helios_integer_from_cint</text>
</a>
</g>
</g>
<!-- Node28&#45;&gt;Node29 -->
<g id="edge5" class="edge">
<title>Node28&#45;&gt;Node29</title>
<path fill="none" stroke="#191970" d="M276.0258,-29C285.2476,-29 294.8121,-29 304.259,-29"/>
<polygon fill="#191970" stroke="#191970" points="304.4419,-32.5001 314.4418,-29 304.4418,-25.5001 304.4419,-32.5001"/>
</g>
<!-- Node30 -->
<g id="node6" class="node">
<title>Node30</title>
<g id="a_node6"><a xlink:href="helios__integer_8c.html#a50a26b1e9578164839f3a5bb17e04051" target="_top" xlink:title="Constructor of a helios_integer object.">
<polygon fill="#ffffff" stroke="#000000" points="490,-19.5 490,-38.5 597,-38.5 597,-19.5 490,-19.5"/>
<text text-anchor="middle" x="543.5" y="-26.5" font-family="Helvetica,sans-Serif" font-size="10.00" fill="#000000">helios_integer_init</text>
</a>
</g>
</g>
<!-- Node29&#45;&gt;Node30 -->
<g id="edge6" class="edge">
<title>Node29&#45;&gt;Node30</title>
<path fill="none" stroke="#191970" d="M451.532,-29C460.8177,-29 470.3173,-29 479.519,-29"/>
<polygon fill="#191970" stroke="#191970" points="479.7542,-32.5001 489.7542,-29 479.7541,-25.5001 479.7542,-32.5001"/>
</g>
<!-- Node31 -->
<g id="node7" class="node">
<title>Node31</title>
<g id="a_node7"><a xlink:href="helios__memory_8h.html#af87f0050f8e236d0945592fa4e54dc94" target="_top" xlink:title="Allocates a new helios object (and performs all the GC steps associated with that action).">
<polygon fill="#ffffff" stroke="#000000" points="652.5,-38.5 652.5,-57.5 777.5,-57.5 777.5,-38.5 652.5,-38.5"/>
<text text-anchor="middle" x="715" y="-45.5" font-family="Helvetica,sans-Serif" font-size="10.00" fill="#000000">helios_allocate_object</text>
</a>
</g>
</g>
<!-- Node30&#45;&gt;Node31 -->
<g id="edge7" class="edge">
<title>Node30&#45;&gt;Node31</title>
<path fill="none" stroke="#191970" d="M597.2931,-34.9596C611.5001,-36.5335 627.0727,-38.2588 642.106,-39.9243"/>
<polygon fill="#191970" stroke="#191970" points="642.0794,-43.4427 652.404,-41.0652 642.8503,-36.4852 642.0794,-43.4427"/>
</g>
<!-- Node32 -->
<g id="node8" class="node">
<title>Node32</title>
<g id="a_node8"><a xlink:href="helios__memory_8h.html#ab14fb1c046aae61ab06eda8eeaf2cd85" target="_top" xlink:title=" ">
<polygon fill="#ffffff" stroke="#000000" points="633,-.5 633,-19.5 797,-19.5 797,-.5 633,-.5"/>
<text text-anchor="middle" x="715" y="-7.5" font-family="Helvetica,sans-Serif" font-size="10.00" fill="#000000">helios_set_garbagecollectable</text>
</a>
</g>
</g>
<!-- Node30&#45;&gt;Node32 -->
<g id="edge8" class="edge">
<title>Node30&#45;&gt;Node32</title>
<path fill="none" stroke="#191970" d="M597.2931,-23.0404C605.4127,-22.1409 613.9784,-21.1919 622.6345,-20.2329"/>
<polygon fill="#191970" stroke="#191970" points="623.2625,-23.6848 632.8162,-19.1049 622.4916,-16.7274 623.2625,-23.6848"/>
</g>
</g>
</svg>
