<?xml version="1.0" encoding="UTF-8" standalone="no"?>
<!DOCTYPE svg PUBLIC "-//W3C//DTD SVG 1.1//EN"
 "http://www.w3.org/Graphics/SVG/1.1/DTD/svg11.dtd">
<!-- Generated by graphviz version 2.40.1 (20161225.0304)
 -->
<!-- Title: helios_boolean_less Pages: 1 -->
<svg width="956pt" height="103pt"
 viewBox="0.00 0.00 956.00 103.00" xmlns="http://www.w3.org/2000/svg" xmlns:xlink="http://www.w3.org/1999/xlink">
<g id="graph0" class="graph" transform="scale(1 1) rotate(0) translate(4 99)">
<title>helios_boolean_less</title>
<polygon fill="#ffffff" stroke="transparent" points="-4,4 -4,-99 952,-99 952,4 -4,4"/>
<!-- Node39 -->
<g id="node1" class="node">
<title>Node39</title>
<g id="a_node1"><a xlink:title=" ">
<polygon fill="#bfbfbf" stroke="#000000" points="0,-38.5 0,-57.5 115,-57.5 115,-38.5 0,-38.5"/>
<text text-anchor="middle" x="57.5" y="-45.5" font-family="Helvetica,sans-Serif" font-size="10.00" fill="#000000">helios_boolean_less</text>
</a>
</g>
</g>
<!-- Node40 -->
<g id="node2" class="node">
<title>Node40</title>
<g id="a_node2"><a xlink:href="helios__integer__compare_8c.html#a09042a280230b0083b6d06d84213b0ee" target="_top" xlink:title=" ">
<polygon fill="#ffffff" stroke="#000000" points="151,-57.5 151,-76.5 261,-76.5 261,-57.5 151,-57.5"/>
<text text-anchor="middle" x="206" y="-64.5" font-family="Helvetica,sans-Serif" font-size="10.00" fill="#000000">helios_integer_less</text>
</a>
</g>
</g>
<!-- Node39&#45;&gt;Node40 -->
<g id="edge1" class="edge">
<title>Node39&#45;&gt;Node40</title>
<path fill="none" stroke="#191970" d="M115.3392,-55.4003C123.768,-56.4787 132.4939,-57.5952 141.0522,-58.6902"/>
<polygon fill="#191970" stroke="#191970" points="140.6308,-62.1647 150.9942,-59.9622 141.5193,-55.2213 140.6308,-62.1647"/>
</g>
<!-- Node43 -->
<g id="node5" class="node">
<title>Node43</title>
<g id="a_node5"><a xlink:href="helios__boolean_8c.html#a856733e7e090437084fcf595bd4e3b8f" target="_top" xlink:title="Convert a boolean to an integer.">
<polygon fill="#ffffff" stroke="#000000" points="297,-19.5 297,-38.5 427,-38.5 427,-19.5 297,-19.5"/>
<text text-anchor="middle" x="362" y="-26.5" font-family="Helvetica,sans-Serif" font-size="10.00" fill="#000000">helios_boolean_integer</text>
</a>
</g>
</g>
<!-- Node39&#45;&gt;Node43 -->
<g id="edge10" class="edge">
<title>Node39&#45;&gt;Node43</title>
<path fill="none" stroke="#191970" d="M115.1321,-44.4039C163.8065,-41.3668 233.8572,-36.9958 286.9134,-33.6852"/>
<polygon fill="#191970" stroke="#191970" points="287.187,-37.175 296.9496,-33.059 286.751,-30.1886 287.187,-37.175"/>
</g>
<!-- Node40&#45;&gt;Node40 -->
<g id="edge4" class="edge">
<title>Node40&#45;&gt;Node40</title>
<path fill="none" stroke="#191970" d="M183.1889,-76.7571C172.0916,-85.5653 179.6953,-95 206,-95 223.2625,-95 232.4711,-90.9368 233.6258,-85.6539"/>
<polygon fill="#191970" stroke="#191970" points="236.6488,-83.886 228.8111,-76.7571 230.4924,-87.2176 236.6488,-83.886"/>
</g>
<!-- Node41 -->
<g id="node3" class="node">
<title>Node41</title>
<g id="a_node3"><a xlink:href="helios__boolean_8c.html#a50e186696d4b9f2e8efdcddc17ab5ce5" target="_top" xlink:title="Create a helios_boolean object from a c boolean type.">
<polygon fill="#ffffff" stroke="#000000" points="302.5,-58 302.5,-88 421.5,-88 421.5,-58 302.5,-58"/>
<text text-anchor="start" x="310.5" y="-76" font-family="Helvetica,sans-Serif" font-size="10.00" fill="#000000">helios_boolean_from</text>
<text text-anchor="middle" x="362" y="-65" font-family="Helvetica,sans-Serif" font-size="10.00" fill="#000000">_cbool</text>
</a>
</g>
</g>
<!-- Node40&#45;&gt;Node41 -->
<g id="edge2" class="edge">
<title>Node40&#45;&gt;Node41</title>
<path fill="none" stroke="#191970" d="M261.439,-69.1323C271.357,-69.5137 281.8074,-69.9157 292.0695,-70.3104"/>
<polygon fill="#191970" stroke="#191970" points="292.115,-73.8146 302.2422,-70.7016 292.3841,-66.8198 292.115,-73.8146"/>
</g>
<!-- Node40&#45;&gt;Node43 -->
<g id="edge5" class="edge">
<title>Node40&#45;&gt;Node43</title>
<path fill="none" stroke="#191970" d="M245.3654,-57.411C265.9513,-52.3965 291.3405,-46.2119 313.169,-40.8947"/>
<polygon fill="#191970" stroke="#191970" points="314.0302,-44.2874 322.9177,-38.5201 312.3734,-37.4863 314.0302,-44.2874"/>
</g>
<!-- Node42 -->
<g id="node4" class="node">
<title>Node42</title>
<g id="a_node4"><a xlink:href="helios__boolean_8c.html#ab172c15c28782b45e824c42601484606" target="_top" xlink:title="Create a helios_boolean object from a c integer type.">
<polygon fill="#ffffff" stroke="#000000" points="463,-63.5 463,-82.5 605,-82.5 605,-63.5 463,-63.5"/>
<text text-anchor="middle" x="534" y="-70.5" font-family="Helvetica,sans-Serif" font-size="10.00" fill="#000000">helios_boolean_from_cint</text>
</a>
</g>
</g>
<!-- Node41&#45;&gt;Node42 -->
<g id="edge3" class="edge">
<title>Node41&#45;&gt;Node42</title>
<path fill="none" stroke="#191970" d="M421.6745,-73C431.7479,-73 442.3545,-73 452.864,-73"/>
<polygon fill="#191970" stroke="#191970" points="452.8898,-76.5001 462.8897,-73 452.8897,-69.5001 452.8898,-76.5001"/>
</g>
<!-- Node44 -->
<g id="node6" class="node">
<title>Node44</title>
<g id="a_node6"><a xlink:href="helios__integer_8c.html#af677316afd6536844aeb027f14c198cf" target="_top" xlink:title="Create a helios_integer object from a c integer type.">
<polygon fill="#ffffff" stroke="#000000" points="465.5,-19.5 465.5,-38.5 602.5,-38.5 602.5,-19.5 465.5,-19.5"/>
<text text-anchor="middle" x="534" y="-26.5" font-family="Helvetica,sans-Serif" font-size="10.00" fill="#000000">helios_integer_from_cint</text>
</a>
</g>
</g>
<!-- Node43&#45;&gt;Node44 -->
<g id="edge6" class="edge">
<title>Node43&#45;&gt;Node44</title>
<path fill="none" stroke="#191970" d="M427.0258,-29C436.2476,-29 445.8121,-29 455.259,-29"/>
<polygon fill="#191970" stroke="#191970" points="455.4419,-32.5001 465.4418,-29 455.4418,-25.5001 455.4419,-32.5001"/>
</g>
<!-- Node45 -->
<g id="node7" class="node">
<title>Node45</title>
<g id="a_node7"><a xlink:href="helios__integer_8c.html#a50a26b1e9578164839f3a5bb17e04051" target="_top" xlink:title="Constructor of a helios_integer object.">
<polygon fill="#ffffff" stroke="#000000" points="641,-19.5 641,-38.5 748,-38.5 748,-19.5 641,-19.5"/>
<text text-anchor="middle" x="694.5" y="-26.5" font-family="Helvetica,sans-Serif" font-size="10.00" fill="#000000">helios_integer_init</text>
</a>
</g>
</g>
<!-- Node44&#45;&gt;Node45 -->
<g id="edge7" class="edge">
<title>Node44&#45;&gt;Node45</title>
<path fill="none" stroke="#191970" d="M602.532,-29C611.8177,-29 621.3173,-29 630.519,-29"/>
<polygon fill="#191970" stroke="#191970" points="630.7542,-32.5001 640.7542,-29 630.7541,-25.5001 630.7542,-32.5001"/>
</g>
<!-- Node46 -->
<g id="node8" class="node">
<title>Node46</title>
<g id="a_node8"><a xlink:href="helios__memory_8h.html#af87f0050f8e236d0945592fa4e54dc94" target="_top" xlink:title="Allocates a new helios object (and performs all the GC steps associated with that action).">
<polygon fill="#ffffff" stroke="#000000" points="803.5,-38.5 803.5,-57.5 928.5,-57.5 928.5,-38.5 803.5,-38.5"/>
<text text-anchor="middle" x="866" y="-45.5" font-family="Helvetica,sans-Serif" font-size="10.00" fill="#000000">helios_allocate_object</text>
</a>
</g>
</g>
<!-- Node45&#45;&gt;Node46 -->
<g id="edge8" class="edge">
<title>Node45&#45;&gt;Node46</title>
<path fill="none" stroke="#191970" d="M748.2931,-34.9596C762.5001,-36.5335 778.0727,-38.2588 793.106,-39.9243"/>
<polygon fill="#191970" stroke="#191970" points="793.0794,-43.4427 803.404,-41.0652 793.8503,-36.4852 793.0794,-43.4427"/>
</g>
<!-- Node47 -->
<g id="node9" class="node">
<title>Node47</title>
<g id="a_node9"><a xlink:href="helios__memory_8h.html#ab14fb1c046aae61ab06eda8eeaf2cd85" target="_top" xlink:title=" ">
<polygon fill="#ffffff" stroke="#000000" points="784,-.5 784,-19.5 948,-19.5 948,-.5 784,-.5"/>
<text text-anchor="middle" x="866" y="-7.5" font-family="Helvetica,sans-Serif" font-size="10.00" fill="#000000">helios_set_garbagecollectable</text>
</a>
</g>
</g>
<!-- Node45&#45;&gt;Node47 -->
<g id="edge9" class="edge">
<title>Node45&#45;&gt;Node47</title>
<path fill="none" stroke="#191970" d="M748.2931,-23.0404C756.4127,-22.1409 764.9784,-21.1919 773.6345,-20.2329"/>
<polygon fill="#191970" stroke="#191970" points="774.2625,-23.6848 783.8162,-19.1049 773.4916,-16.7274 774.2625,-23.6848"/>
</g>
</g>
</svg>
