<?xml version="1.0" encoding="UTF-8" standalone="no"?>
<!DOCTYPE svg PUBLIC "-//W3C//DTD SVG 1.1//EN"
 "http://www.w3.org/Graphics/SVG/1.1/DTD/svg11.dtd">
<!-- Generated by graphviz version 2.40.1 (20161225.0304)
 -->
<!-- Title: builtins/type/include/helios_type.h Pages: 1 -->
<svg width="1020pt" height="240pt"
 viewBox="0.00 0.00 1020.00 240.00" xmlns="http://www.w3.org/2000/svg" xmlns:xlink="http://www.w3.org/1999/xlink">
<g id="graph0" class="graph" transform="scale(1 1) rotate(0) translate(4 236)">
<title>builtins/type/include/helios_type.h</title>
<polygon fill="#ffffff" stroke="transparent" points="-4,4 -4,-236 1016,-236 1016,4 -4,4"/>
<!-- Node7 -->
<g id="node1" class="node">
<title>Node7</title>
<g id="a_node1"><a xlink:title=" ">
<polygon fill="#bfbfbf" stroke="#000000" points="411,-201.5 411,-231.5 514,-231.5 514,-201.5 411,-201.5"/>
<text text-anchor="start" x="419" y="-219.5" font-family="Helvetica,sans-Serif" font-size="10.00" fill="#000000">builtins/type/include</text>
<text text-anchor="middle" x="462.5" y="-208.5" font-family="Helvetica,sans-Serif" font-size="10.00" fill="#000000">/helios_type.h</text>
</a>
</g>
</g>
<!-- Node8 -->
<g id="node2" class="node">
<title>Node8</title>
<g id="a_node2"><a xlink:href="helios__object_8c.html" target="_top" xlink:title=" ">
<polygon fill="#ffffff" stroke="#000000" points="0,-67.5 0,-97.5 105,-97.5 105,-67.5 0,-67.5"/>
<text text-anchor="start" x="8" y="-85.5" font-family="Helvetica,sans-Serif" font-size="10.00" fill="#000000">builtins/object/helios</text>
<text text-anchor="middle" x="52.5" y="-74.5" font-family="Helvetica,sans-Serif" font-size="10.00" fill="#000000">_object.c</text>
</a>
</g>
</g>
<!-- Node7&#45;&gt;Node8 -->
<g id="edge1" class="edge">
<title>Node7&#45;&gt;Node8</title>
<path fill="none" stroke="#191970" d="M406.6515,-198.2471C324.9426,-171.5422 174.3241,-122.3157 98.5663,-97.5558"/>
<polygon fill="#191970" stroke="#191970" points="405.6722,-201.6092 416.2648,-201.389 407.8469,-194.9555 405.6722,-201.6092"/>
</g>
<!-- Node9 -->
<g id="node3" class="node">
<title>Node9</title>
<g id="a_node3"><a xlink:href="helios__object_8h.html" target="_top" xlink:title=" ">
<polygon fill="#ffffff" stroke="#000000" points="407.5,-134.5 407.5,-164.5 517.5,-164.5 517.5,-134.5 407.5,-134.5"/>
<text text-anchor="start" x="415.5" y="-152.5" font-family="Helvetica,sans-Serif" font-size="10.00" fill="#000000">builtins/object/include</text>
<text text-anchor="middle" x="462.5" y="-141.5" font-family="Helvetica,sans-Serif" font-size="10.00" fill="#000000">/helios_object.h</text>
</a>
</g>
</g>
<!-- Node7&#45;&gt;Node9 -->
<g id="edge2" class="edge">
<title>Node7&#45;&gt;Node9</title>
<path fill="none" stroke="#191970" d="M462.5,-191.0249C462.5,-182.128 462.5,-172.4287 462.5,-164.6432"/>
<polygon fill="#191970" stroke="#191970" points="459.0001,-191.2966 462.5,-201.2967 466.0001,-191.2967 459.0001,-191.2966"/>
</g>
<!-- Node21 -->
<g id="node15" class="node">
<title>Node21</title>
<g id="a_node15"><a xlink:href="helios__type_8c.html" target="_top" xlink:title=" ">
<polygon fill="#ffffff" stroke="#000000" points="535.5,-134.5 535.5,-164.5 633.5,-164.5 633.5,-134.5 535.5,-134.5"/>
<text text-anchor="start" x="543.5" y="-152.5" font-family="Helvetica,sans-Serif" font-size="10.00" fill="#000000">builtins/type/helios</text>
<text text-anchor="middle" x="584.5" y="-141.5" font-family="Helvetica,sans-Serif" font-size="10.00" fill="#000000">_type.c</text>
</a>
</g>
</g>
<!-- Node7&#45;&gt;Node21 -->
<g id="edge28" class="edge">
<title>Node7&#45;&gt;Node21</title>
<path fill="none" stroke="#191970" d="M498.6718,-196.6352C517.2688,-186.422 539.5781,-174.1702 556.7901,-164.7177"/>
<polygon fill="#191970" stroke="#191970" points="496.9596,-193.5823 489.8792,-201.4639 500.3292,-199.718 496.9596,-193.5823"/>
</g>
<!-- Node9&#45;&gt;Node8 -->
<g id="edge20" class="edge">
<title>Node9&#45;&gt;Node8</title>
<path fill="none" stroke="#191970" d="M397.0137,-141.2197C327.7986,-132.1057 215.5719,-116.2961 119.5,-98 114.8087,-97.1066 109.9476,-96.1139 105.0844,-95.0749"/>
<polygon fill="#191970" stroke="#191970" points="396.9553,-144.7418 407.3251,-142.5697 397.8641,-137.801 396.9553,-144.7418"/>
</g>
<!-- Node10 -->
<g id="node4" class="node">
<title>Node10</title>
<g id="a_node4"><a xlink:href="helios__float_8c.html" target="_top" xlink:title=" ">
<polygon fill="#ffffff" stroke="#000000" points="593.5,-.5 593.5,-30.5 691.5,-30.5 691.5,-.5 593.5,-.5"/>
<text text-anchor="start" x="601.5" y="-18.5" font-family="Helvetica,sans-Serif" font-size="10.00" fill="#000000">builtins/float/helios</text>
<text text-anchor="middle" x="642.5" y="-7.5" font-family="Helvetica,sans-Serif" font-size="10.00" fill="#000000">_float.c</text>
</a>
</g>
</g>
<!-- Node9&#45;&gt;Node10 -->
<g id="edge3" class="edge">
<title>Node9&#45;&gt;Node10</title>
<path fill="none" stroke="#191970" d="M527.6138,-131.9642C569.1873,-120.2089 616.5558,-105.5476 623.5,-98 640.5172,-79.504 643.2779,-48.9075 643.2352,-30.6286"/>
<polygon fill="#191970" stroke="#191970" points="526.4341,-128.66 517.7507,-134.7303 528.3243,-135.3999 526.4341,-128.66"/>
</g>
<!-- Node11 -->
<g id="node5" class="node">
<title>Node11</title>
<g id="a_node5"><a xlink:href="helios__float__math_8c.html" target="_top" xlink:title=" ">
<polygon fill="#ffffff" stroke="#000000" points="121.5,-.5 121.5,-30.5 219.5,-30.5 219.5,-.5 121.5,-.5"/>
<text text-anchor="start" x="129.5" y="-18.5" font-family="Helvetica,sans-Serif" font-size="10.00" fill="#000000">builtins/float/helios</text>
<text text-anchor="middle" x="170.5" y="-7.5" font-family="Helvetica,sans-Serif" font-size="10.00" fill="#000000">_float_math.c</text>
</a>
</g>
</g>
<!-- Node9&#45;&gt;Node11 -->
<g id="edge4" class="edge">
<title>Node9&#45;&gt;Node11</title>
<path fill="none" stroke="#191970" d="M397.2957,-146.3323C323.3807,-141.2959 209.3802,-128.6675 180.5,-98 163.5859,-80.0391 164.8061,-49.2628 167.4812,-30.8055"/>
<polygon fill="#191970" stroke="#191970" points="397.2399,-149.836 407.4464,-146.9937 397.6951,-142.8509 397.2399,-149.836"/>
</g>
<!-- Node12 -->
<g id="node6" class="node">
<title>Node12</title>
<g id="a_node6"><a xlink:href="helios__float_8h.html" target="_top" xlink:title=" ">
<polygon fill="#ffffff" stroke="#000000" points="200,-67.5 200,-97.5 303,-97.5 303,-67.5 200,-67.5"/>
<text text-anchor="start" x="208" y="-85.5" font-family="Helvetica,sans-Serif" font-size="10.00" fill="#000000">builtins/float/include</text>
<text text-anchor="middle" x="251.5" y="-74.5" font-family="Helvetica,sans-Serif" font-size="10.00" fill="#000000">/helios_float.h</text>
</a>
</g>
</g>
<!-- Node9&#45;&gt;Node12 -->
<g id="edge5" class="edge">
<title>Node9&#45;&gt;Node12</title>
<path fill="none" stroke="#191970" d="M405.5373,-131.4123C372.2103,-120.8298 330.6203,-107.6235 299.059,-97.6017"/>
<polygon fill="#191970" stroke="#191970" points="404.5572,-134.7732 415.1475,-134.4639 406.6757,-128.1015 404.5572,-134.7732"/>
</g>
<!-- Node13 -->
<g id="node7" class="node">
<title>Node13</title>
<g id="a_node7"><a xlink:href="builtins_8h.html" target="_top" xlink:title=" ">
<polygon fill="#ffffff" stroke="#000000" points="401,-6 401,-25 524,-25 524,-6 401,-6"/>
<text text-anchor="middle" x="462.5" y="-13" font-family="Helvetica,sans-Serif" font-size="10.00" fill="#000000">builtins/include/builtins.h</text>
</a>
</g>
</g>
<!-- Node9&#45;&gt;Node13 -->
<g id="edge12" class="edge">
<title>Node9&#45;&gt;Node13</title>
<path fill="none" stroke="#191970" d="M462.5,-124.2559C462.5,-94.2327 462.5,-45.6073 462.5,-25.1042"/>
<polygon fill="#191970" stroke="#191970" points="459.0001,-124.3889 462.5,-134.389 466.0001,-124.389 459.0001,-124.3889"/>
</g>
<!-- Node14 -->
<g id="node8" class="node">
<title>Node14</title>
<g id="a_node8"><a xlink:href="helios__integer__math_8c.html" target="_top" xlink:title=" ">
<polygon fill="#ffffff" stroke="#000000" points="237.5,-.5 237.5,-30.5 345.5,-30.5 345.5,-.5 237.5,-.5"/>
<text text-anchor="start" x="245.5" y="-18.5" font-family="Helvetica,sans-Serif" font-size="10.00" fill="#000000">builtins/integer/helios</text>
<text text-anchor="middle" x="291.5" y="-7.5" font-family="Helvetica,sans-Serif" font-size="10.00" fill="#000000">_integer_math.c</text>
</a>
</g>
</g>
<!-- Node9&#45;&gt;Node14 -->
<g id="edge14" class="edge">
<title>Node9&#45;&gt;Node14</title>
<path fill="none" stroke="#191970" d="M396.9833,-146.4263C325.0227,-141.5158 216.2167,-129.0428 190.5,-98 167.7509,-70.5395 211.2237,-45.6409 248.0453,-30.5461"/>
<polygon fill="#191970" stroke="#191970" points="397.113,-149.942 407.3188,-147.0973 397.5666,-142.9567 397.113,-149.942"/>
</g>
<!-- Node15 -->
<g id="node9" class="node">
<title>Node15</title>
<g id="a_node9"><a xlink:href="helios__hashmap_8h.html" target="_top" xlink:title=" ">
<polygon fill="#ffffff" stroke="#000000" points="490.5,-67.5 490.5,-97.5 614.5,-97.5 614.5,-67.5 490.5,-67.5"/>
<text text-anchor="start" x="498.5" y="-85.5" font-family="Helvetica,sans-Serif" font-size="10.00" fill="#000000">builtins/hashmap/include</text>
<text text-anchor="middle" x="552.5" y="-74.5" font-family="Helvetica,sans-Serif" font-size="10.00" fill="#000000">/helios_hashmap.h</text>
</a>
</g>
</g>
<!-- Node9&#45;&gt;Node15 -->
<g id="edge10" class="edge">
<title>Node9&#45;&gt;Node15</title>
<path fill="none" stroke="#191970" d="M491.2942,-128.0643C504.6016,-118.1577 520.0913,-106.6265 532.1584,-97.6432"/>
<polygon fill="#191970" stroke="#191970" points="488.8537,-125.5177 482.9224,-134.2967 493.0338,-131.1327 488.8537,-125.5177"/>
</g>
<!-- Node16 -->
<g id="node10" class="node">
<title>Node16</title>
<g id="a_node10"><a xlink:href="helios__integer_8c.html" target="_top" xlink:title=" ">
<polygon fill="#ffffff" stroke="#000000" points="782.5,-.5 782.5,-30.5 890.5,-30.5 890.5,-.5 782.5,-.5"/>
<text text-anchor="start" x="790.5" y="-18.5" font-family="Helvetica,sans-Serif" font-size="10.00" fill="#000000">builtins/integer/helios</text>
<text text-anchor="middle" x="836.5" y="-7.5" font-family="Helvetica,sans-Serif" font-size="10.00" fill="#000000">_integer.c</text>
</a>
</g>
</g>
<!-- Node9&#45;&gt;Node16 -->
<g id="edge13" class="edge">
<title>Node9&#45;&gt;Node16</title>
<path fill="none" stroke="#191970" d="M527.5989,-134.3603C599.6222,-127.1597 876.6875,-127.4948 903.5,-98 924.1029,-75.336 889.8149,-47.3755 863.1596,-30.5169"/>
<polygon fill="#191970" stroke="#191970" points="527.0329,-130.9041 517.5552,-135.6394 527.9172,-137.848 527.0329,-130.9041"/>
</g>
<!-- Node17 -->
<g id="node11" class="node">
<title>Node17</title>
<g id="a_node11"><a xlink:href="helios__integer_8h.html" target="_top" xlink:title=" ">
<polygon fill="#ffffff" stroke="#000000" points="321,-67.5 321,-97.5 434,-97.5 434,-67.5 321,-67.5"/>
<text text-anchor="start" x="329" y="-85.5" font-family="Helvetica,sans-Serif" font-size="10.00" fill="#000000">builtins/integer/include</text>
<text text-anchor="middle" x="377.5" y="-74.5" font-family="Helvetica,sans-Serif" font-size="10.00" fill="#000000">/helios_integer.h</text>
</a>
</g>
</g>
<!-- Node9&#45;&gt;Node17 -->
<g id="edge15" class="edge">
<title>Node9&#45;&gt;Node17</title>
<path fill="none" stroke="#191970" d="M435.3055,-128.0643C422.7374,-118.1577 408.1083,-106.6265 396.7115,-97.6432"/>
<polygon fill="#191970" stroke="#191970" points="433.1919,-130.8549 443.2122,-134.2967 437.5253,-125.3574 433.1919,-130.8549"/>
</g>
<!-- Node18 -->
<g id="node12" class="node">
<title>Node18</title>
<g id="a_node12"><a xlink:href="helios__string_8c.html" target="_top" xlink:title=" ">
<polygon fill="#ffffff" stroke="#000000" points="909,-.5 909,-30.5 1012,-30.5 1012,-.5 909,-.5"/>
<text text-anchor="start" x="917" y="-18.5" font-family="Helvetica,sans-Serif" font-size="10.00" fill="#000000">builtins/string/helios</text>
<text text-anchor="middle" x="960.5" y="-7.5" font-family="Helvetica,sans-Serif" font-size="10.00" fill="#000000">_string.c</text>
</a>
</g>
</g>
<!-- Node9&#45;&gt;Node18 -->
<g id="edge21" class="edge">
<title>Node9&#45;&gt;Node18</title>
<path fill="none" stroke="#191970" d="M527.5332,-134.1725C628.6589,-121.414 850.5976,-146.3615 920.5,-98 943.277,-82.2419 953.5705,-49.792 957.8279,-30.6206"/>
<polygon fill="#191970" stroke="#191970" points="526.9444,-130.7212 517.5527,-135.6249 527.9526,-137.6483 526.9444,-130.7212"/>
</g>
<!-- Node19 -->
<g id="node13" class="node">
<title>Node19</title>
<g id="a_node13"><a xlink:href="helios__string_8h.html" target="_top" xlink:title=" ">
<polygon fill="#ffffff" stroke="#000000" points="786.5,-67.5 786.5,-97.5 894.5,-97.5 894.5,-67.5 786.5,-67.5"/>
<text text-anchor="start" x="794.5" y="-85.5" font-family="Helvetica,sans-Serif" font-size="10.00" fill="#000000">builtins/string/include</text>
<text text-anchor="middle" x="840.5" y="-74.5" font-family="Helvetica,sans-Serif" font-size="10.00" fill="#000000">/helios_string.h</text>
</a>
</g>
</g>
<!-- Node9&#45;&gt;Node19 -->
<g id="edge22" class="edge">
<title>Node9&#45;&gt;Node19</title>
<path fill="none" stroke="#191970" d="M527.5328,-133.9152C638.9156,-113.0736 670.0035,-118.8797 777.5,-98 780.3748,-97.4416 783.3155,-96.8368 786.2791,-96.2006"/>
<polygon fill="#191970" stroke="#191970" points="526.7554,-130.5002 517.5853,-135.8068 528.0631,-137.377 526.7554,-130.5002"/>
</g>
<!-- Node20 -->
<g id="node14" class="node">
<title>Node20</title>
<g id="a_node14"><a xlink:href="refcount_8c.html" target="_top" xlink:title=" ">
<polygon fill="#ffffff" stroke="#000000" points="670.5,-73 670.5,-92 768.5,-92 768.5,-73 670.5,-73"/>
<text text-anchor="middle" x="719.5" y="-80" font-family="Helvetica,sans-Serif" font-size="10.00" fill="#000000">memory/refcount.c</text>
</a>
</g>
</g>
<!-- Node9&#45;&gt;Node20 -->
<g id="edge27" class="edge">
<title>Node9&#45;&gt;Node20</title>
<path fill="none" stroke="#191970" d="M527.5647,-132.5376C576.8292,-119.6943 642.6983,-102.5222 683.0586,-92.0003"/>
<polygon fill="#191970" stroke="#191970" points="526.4266,-129.2173 517.6329,-135.1268 528.1925,-135.9909 526.4266,-129.2173"/>
</g>
<!-- Node12&#45;&gt;Node10 -->
<g id="edge6" class="edge">
<title>Node12&#45;&gt;Node10</title>
<path fill="none" stroke="#191970" d="M313.1366,-66.8058C379.4871,-53.8545 518.7842,-33.3167 593.3538,-22.539"/>
<polygon fill="#191970" stroke="#191970" points="312.2491,-63.4142 303.1352,-68.8167 313.6289,-70.2768 312.2491,-63.4142"/>
</g>
<!-- Node12&#45;&gt;Node11 -->
<g id="edge7" class="edge">
<title>Node12&#45;&gt;Node11</title>
<path fill="none" stroke="#191970" d="M225.2425,-60.7808C213.3433,-50.9383 199.5644,-39.541 188.8074,-30.6432"/>
<polygon fill="#191970" stroke="#191970" points="223.1835,-63.6198 233.1198,-67.2967 227.6451,-58.2259 223.1835,-63.6198"/>
</g>
<!-- Node12&#45;&gt;Node13 -->
<g id="edge8" class="edge">
<title>Node12&#45;&gt;Node13</title>
<path fill="none" stroke="#191970" d="M308.4876,-64.4044C348.4921,-51.7016 400.3933,-35.2211 432.5654,-25.0053"/>
<polygon fill="#191970" stroke="#191970" points="307.3243,-61.1015 298.8525,-67.4639 309.4428,-67.7732 307.3243,-61.1015"/>
</g>
<!-- Node12&#45;&gt;Node14 -->
<g id="edge9" class="edge">
<title>Node12&#45;&gt;Node14</title>
<path fill="none" stroke="#191970" d="M265.8381,-58.4837C271.3808,-49.1996 277.5558,-38.8565 282.4593,-30.6432"/>
<polygon fill="#191970" stroke="#191970" points="262.6976,-56.9163 260.5766,-67.2967 268.7079,-60.5046 262.6976,-56.9163"/>
</g>
<!-- Node15&#45;&gt;Node13 -->
<g id="edge11" class="edge">
<title>Node15&#45;&gt;Node13</title>
<path fill="none" stroke="#191970" d="M523.9038,-61.2117C507.5868,-49.0646 487.9362,-34.4358 475.335,-25.055"/>
<polygon fill="#191970" stroke="#191970" points="521.9662,-64.1327 532.0776,-67.2967 526.1463,-58.5177 521.9662,-64.1327"/>
</g>
<!-- Node17&#45;&gt;Node11 -->
<g id="edge16" class="edge">
<title>Node17&#45;&gt;Node11</title>
<path fill="none" stroke="#191970" d="M321.1957,-64.2759C288.5719,-53.7165 247.9875,-40.5805 217.1575,-30.6017"/>
<polygon fill="#191970" stroke="#191970" points="320.4533,-67.7143 331.0452,-67.4639 322.6089,-61.0545 320.4533,-67.7143"/>
</g>
<!-- Node17&#45;&gt;Node13 -->
<g id="edge17" class="edge">
<title>Node17&#45;&gt;Node13</title>
<path fill="none" stroke="#191970" d="M404.9325,-60.8767C420.258,-48.7967 438.5861,-34.3498 450.378,-25.055"/>
<polygon fill="#191970" stroke="#191970" points="402.4747,-58.3574 396.7878,-67.2967 406.8081,-63.8549 402.4747,-58.3574"/>
</g>
<!-- Node17&#45;&gt;Node14 -->
<g id="edge19" class="edge">
<title>Node17&#45;&gt;Node14</title>
<path fill="none" stroke="#191970" d="M349.9855,-61.0643C337.2696,-51.1577 322.4684,-39.6265 310.9375,-30.6432"/>
<polygon fill="#191970" stroke="#191970" points="347.9456,-63.9119 357.9853,-67.2967 352.2477,-58.3899 347.9456,-63.9119"/>
</g>
<!-- Node17&#45;&gt;Node16 -->
<g id="edge18" class="edge">
<title>Node17&#45;&gt;Node16</title>
<path fill="none" stroke="#191970" d="M444.4018,-72.4899C456.7373,-70.6553 469.5065,-68.7637 481.5,-67 588.093,-51.3251 712.7404,-33.3168 782.3616,-23.2872"/>
<polygon fill="#191970" stroke="#191970" points="443.5441,-69.0789 434.1685,-74.0134 444.5749,-76.0026 443.5441,-69.0789"/>
</g>
<!-- Node19&#45;&gt;Node10 -->
<g id="edge23" class="edge">
<title>Node19&#45;&gt;Node10</title>
<path fill="none" stroke="#191970" d="M786.2398,-64.1392C755.1039,-53.6033 716.4913,-40.5375 687.1289,-30.6017"/>
<polygon fill="#191970" stroke="#191970" points="785.4707,-67.5739 796.0649,-67.4639 787.7144,-60.9432 785.4707,-67.5739"/>
</g>
<!-- Node19&#45;&gt;Node13 -->
<g id="edge24" class="edge">
<title>Node19&#45;&gt;Node13</title>
<path fill="none" stroke="#191970" d="M776.3711,-66.855C683.0124,-48.0323 585.5433,-33.0042 524.0337,-24.0875"/>
<polygon fill="#191970" stroke="#191970" points="775.7685,-70.3041 786.2655,-68.8675 777.1638,-63.4445 775.7685,-70.3041"/>
</g>
<!-- Node19&#45;&gt;Node16 -->
<g id="edge25" class="edge">
<title>Node19&#45;&gt;Node16</title>
<path fill="none" stroke="#191970" d="M838.9791,-57.0249C838.4479,-48.128 837.8689,-38.4287 837.4041,-30.6432"/>
<polygon fill="#191970" stroke="#191970" points="835.5025,-57.5231 839.5923,-67.2967 842.4901,-57.1058 835.5025,-57.5231"/>
</g>
<!-- Node19&#45;&gt;Node18 -->
<g id="edge26" class="edge">
<title>Node19&#45;&gt;Node18</title>
<path fill="none" stroke="#191970" d="M876.5786,-62.3561C894.7695,-52.1995 916.4685,-40.0843 933.2444,-30.7177"/>
<polygon fill="#191970" stroke="#191970" points="874.4554,-59.5329 867.4303,-67.4639 877.8679,-65.6448 874.4554,-59.5329"/>
</g>
</g>
</svg>
