<?xml version="1.0" encoding="UTF-8" standalone="no"?>
<!DOCTYPE svg PUBLIC "-//W3C//DTD SVG 1.1//EN"
 "http://www.w3.org/Graphics/SVG/1.1/DTD/svg11.dtd">
<!-- Generated by graphviz version 2.40.1 (20161225.0304)
 -->
<!-- Title: helios_set_garbagecollectable Pages: 1 -->
<svg width="286pt" height="104pt"
 viewBox="0.00 0.00 286.00 104.00" xmlns="http://www.w3.org/2000/svg" xmlns:xlink="http://www.w3.org/1999/xlink">
<g id="graph0" class="graph" transform="scale(1 1) rotate(0) translate(4 100)">
<title>helios_set_garbagecollectable</title>
<polygon fill="#ffffff" stroke="transparent" points="-4,4 -4,-100 282,-100 282,4 -4,4"/>
<!-- Node14 -->
<g id="node1" class="node">
<title>Node14</title>
<g id="a_node1"><a xlink:title=" ">
<polygon fill="#bfbfbf" stroke="#000000" points="131,-38.5 131,-57.5 278,-57.5 278,-38.5 131,-38.5"/>
<text text-anchor="middle" x="204.5" y="-45.5" font-family="Helvetica,sans-Serif" font-size="10.00" fill="#000000">helios_set_garbagecollectable</text>
</a>
</g>
</g>
<!-- Node15 -->
<g id="node2" class="node">
<title>Node15</title>
<g id="a_node2"><a xlink:href="helios__float_8h.html#a6b9f18063c74a36f08d05c6310bc45da" target="_top" xlink:title="Constructor of a helios_float object.">
<polygon fill="#ffffff" stroke="#000000" points="5.5,-76.5 5.5,-95.5 89.5,-95.5 89.5,-76.5 5.5,-76.5"/>
<text text-anchor="middle" x="47.5" y="-83.5" font-family="Helvetica,sans-Serif" font-size="10.00" fill="#000000">helios_float_init</text>
</a>
</g>
</g>
<!-- Node14&#45;&gt;Node15 -->
<g id="edge1" class="edge">
<title>Node14&#45;&gt;Node15</title>
<path fill="none" stroke="#191970" d="M155.0533,-59.968C133.0522,-65.2931 107.5062,-71.4762 86.8328,-76.4799"/>
<polygon fill="#191970" stroke="#191970" points="155.9863,-63.3433 164.8823,-57.589 154.3395,-56.5398 155.9863,-63.3433"/>
</g>
<!-- Node16 -->
<g id="node3" class="node">
<title>Node16</title>
<g id="a_node3"><a xlink:href="helios__integer_8h.html#a50a26b1e9578164839f3a5bb17e04051" target="_top" xlink:title="Constructor of a helios_integer object.">
<polygon fill="#ffffff" stroke="#000000" points="0,-38.5 0,-57.5 95,-57.5 95,-38.5 0,-38.5"/>
<text text-anchor="middle" x="47.5" y="-45.5" font-family="Helvetica,sans-Serif" font-size="10.00" fill="#000000">helios_integer_init</text>
</a>
</g>
</g>
<!-- Node14&#45;&gt;Node16 -->
<g id="edge2" class="edge">
<title>Node14&#45;&gt;Node16</title>
<path fill="none" stroke="#191970" d="M120.3882,-48C111.7057,-48 103.1152,-48 95.0446,-48"/>
<polygon fill="#191970" stroke="#191970" points="120.5973,-51.5001 130.5973,-48 120.5972,-44.5001 120.5973,-51.5001"/>
</g>
<!-- Node17 -->
<g id="node4" class="node">
<title>Node17</title>
<g id="a_node4"><a xlink:href="helios__string_8h.html#af727ca5352482ab7e542510f178a9f85" target="_top" xlink:title="Constructor of a helios_string.">
<polygon fill="#ffffff" stroke="#000000" points="3,-.5 3,-19.5 92,-19.5 92,-.5 3,-.5"/>
<text text-anchor="middle" x="47.5" y="-7.5" font-family="Helvetica,sans-Serif" font-size="10.00" fill="#000000">helios_string_init</text>
</a>
</g>
</g>
<!-- Node14&#45;&gt;Node17 -->
<g id="edge3" class="edge">
<title>Node14&#45;&gt;Node17</title>
<path fill="none" stroke="#191970" d="M155.0533,-36.032C133.0522,-30.7069 107.5062,-24.5238 86.8328,-19.5201"/>
<polygon fill="#191970" stroke="#191970" points="154.3395,-39.4602 164.8823,-38.411 155.9863,-32.6567 154.3395,-39.4602"/>
</g>
</g>
</svg>
