<?xml version="1.0" encoding="UTF-8" standalone="no"?>
<!DOCTYPE svg PUBLIC "-//W3C//DTD SVG 1.1//EN"
 "http://www.w3.org/Graphics/SVG/1.1/DTD/svg11.dtd">
<!-- Generated by graphviz version 2.40.1 (20161225.0304)
 -->
<!-- Title: helios_float_copy Pages: 1 -->
<svg width="439pt" height="66pt"
 viewBox="0.00 0.00 439.00 66.00" xmlns="http://www.w3.org/2000/svg" xmlns:xlink="http://www.w3.org/1999/xlink">
<g id="graph0" class="graph" transform="scale(1 1) rotate(0) translate(4 62)">
<title>helios_float_copy</title>
<polygon fill="#ffffff" stroke="transparent" points="-4,4 -4,-62 435,-62 435,4 -4,4"/>
<!-- Node2 -->
<g id="node1" class="node">
<title>Node2</title>
<g id="a_node1"><a xlink:title="Copy a helios float object.">
<polygon fill="#bfbfbf" stroke="#000000" points="0,-19.5 0,-38.5 101,-38.5 101,-19.5 0,-19.5"/>
<text text-anchor="middle" x="50.5" y="-26.5" font-family="Helvetica,sans-Serif" font-size="10.00" fill="#000000">helios_float_copy</text>
</a>
</g>
</g>
<!-- Node3 -->
<g id="node2" class="node">
<title>Node3</title>
<g id="a_node2"><a xlink:href="helios__float_8c.html#a6b9f18063c74a36f08d05c6310bc45da" target="_top" xlink:title="Constructor of a helios_float object.">
<polygon fill="#ffffff" stroke="#000000" points="137,-19.5 137,-38.5 231,-38.5 231,-19.5 137,-19.5"/>
<text text-anchor="middle" x="184" y="-26.5" font-family="Helvetica,sans-Serif" font-size="10.00" fill="#000000">helios_float_init</text>
</a>
</g>
</g>
<!-- Node2&#45;&gt;Node3 -->
<g id="edge1" class="edge">
<title>Node2&#45;&gt;Node3</title>
<path fill="none" stroke="#191970" d="M101.3515,-29C109.6284,-29 118.2517,-29 126.6709,-29"/>
<polygon fill="#191970" stroke="#191970" points="126.8023,-32.5001 136.8023,-29 126.8022,-25.5001 126.8023,-32.5001"/>
</g>
<!-- Node4 -->
<g id="node3" class="node">
<title>Node4</title>
<g id="a_node3"><a xlink:href="helios__memory_8h.html#af87f0050f8e236d0945592fa4e54dc94" target="_top" xlink:title="Allocates a new helios object (and performs all the GC steps associated with that action).">
<polygon fill="#ffffff" stroke="#000000" points="286.5,-38.5 286.5,-57.5 411.5,-57.5 411.5,-38.5 286.5,-38.5"/>
<text text-anchor="middle" x="349" y="-45.5" font-family="Helvetica,sans-Serif" font-size="10.00" fill="#000000">helios_allocate_object</text>
</a>
</g>
</g>
<!-- Node3&#45;&gt;Node4 -->
<g id="edge2" class="edge">
<title>Node3&#45;&gt;Node4</title>
<path fill="none" stroke="#191970" d="M231.2824,-34.4446C245.3435,-36.0638 261.0849,-37.8764 276.3681,-39.6363"/>
<polygon fill="#191970" stroke="#191970" points="275.988,-43.1156 286.3228,-40.7826 276.7888,-36.1616 275.988,-43.1156"/>
</g>
<!-- Node5 -->
<g id="node4" class="node">
<title>Node5</title>
<g id="a_node4"><a xlink:href="helios__memory_8h.html#ab14fb1c046aae61ab06eda8eeaf2cd85" target="_top" xlink:title=" ">
<polygon fill="#ffffff" stroke="#000000" points="267,-.5 267,-19.5 431,-19.5 431,-.5 267,-.5"/>
<text text-anchor="middle" x="349" y="-7.5" font-family="Helvetica,sans-Serif" font-size="10.00" fill="#000000">helios_set_garbagecollectable</text>
</a>
</g>
</g>
<!-- Node3&#45;&gt;Node5 -->
<g id="edge3" class="edge">
<title>Node3&#45;&gt;Node5</title>
<path fill="none" stroke="#191970" d="M231.2824,-23.5554C239.3776,-22.6232 248.0297,-21.6269 256.8307,-20.6134"/>
<polygon fill="#191970" stroke="#191970" points="257.2748,-24.0855 266.8087,-19.4644 256.474,-17.1315 257.2748,-24.0855"/>
</g>
</g>
</svg>
