<?xml version="1.0" encoding="UTF-8" standalone="no"?>
<!DOCTYPE svg PUBLIC "-//W3C//DTD SVG 1.1//EN"
 "http://www.w3.org/Graphics/SVG/1.1/DTD/svg11.dtd">
<!-- Generated by graphviz version 2.40.1 (20161225.0304)
 -->
<!-- Title: helios_float_copy Pages: 1 -->
<svg width="403pt" height="66pt"
 viewBox="0.00 0.00 403.00 66.00" xmlns="http://www.w3.org/2000/svg" xmlns:xlink="http://www.w3.org/1999/xlink">
<g id="graph0" class="graph" transform="scale(1 1) rotate(0) translate(4 62)">
<title>helios_float_copy</title>
<polygon fill="#ffffff" stroke="transparent" points="-4,4 -4,-62 399,-62 399,4 -4,4"/>
<!-- Node1 -->
<g id="node1" class="node">
<title>Node1</title>
<g id="a_node1"><a xlink:title="Copy a helios float object.">
<polygon fill="#bfbfbf" stroke="#000000" points="0,-19.5 0,-38.5 92,-38.5 92,-19.5 0,-19.5"/>
<text text-anchor="middle" x="46" y="-26.5" font-family="Helvetica,sans-Serif" font-size="10.00" fill="#000000">helios_float_copy</text>
</a>
</g>
</g>
<!-- Node2 -->
<g id="node2" class="node">
<title>Node2</title>
<g id="a_node2"><a xlink:href="helios__float_8c.html#a6b9f18063c74a36f08d05c6310bc45da" target="_top" xlink:title="Constructor of a helios_float object.">
<polygon fill="#ffffff" stroke="#000000" points="128,-19.5 128,-38.5 212,-38.5 212,-19.5 128,-19.5"/>
<text text-anchor="middle" x="170" y="-26.5" font-family="Helvetica,sans-Serif" font-size="10.00" fill="#000000">helios_float_init</text>
</a>
</g>
</g>
<!-- Node1&#45;&gt;Node2 -->
<g id="edge1" class="edge">
<title>Node1&#45;&gt;Node2</title>
<path fill="none" stroke="#191970" d="M92.173,-29C100.4951,-29 109.2248,-29 117.7061,-29"/>
<polygon fill="#191970" stroke="#191970" points="117.8841,-32.5001 127.8841,-29 117.8841,-25.5001 117.8841,-32.5001"/>
</g>
<!-- Node3 -->
<g id="node3" class="node">
<title>Node3</title>
<g id="a_node3"><a xlink:href="helios__memory_8h.html#af87f0050f8e236d0945592fa4e54dc94" target="_top" xlink:title="Allocates a new helios object (and performs all the GC steps associated with that action).">
<polygon fill="#ffffff" stroke="#000000" points="265,-38.5 265,-57.5 378,-57.5 378,-38.5 265,-38.5"/>
<text text-anchor="middle" x="321.5" y="-45.5" font-family="Helvetica,sans-Serif" font-size="10.00" fill="#000000">helios_allocate_object</text>
</a>
</g>
</g>
<!-- Node2&#45;&gt;Node3 -->
<g id="edge2" class="edge">
<title>Node2&#45;&gt;Node3</title>
<path fill="none" stroke="#191970" d="M212.2012,-34.2926C225.4328,-35.952 240.3758,-37.826 254.8671,-39.6434"/>
<polygon fill="#191970" stroke="#191970" points="254.443,-43.1175 264.8008,-40.8892 255.3141,-36.172 254.443,-43.1175"/>
</g>
<!-- Node4 -->
<g id="node4" class="node">
<title>Node4</title>
<g id="a_node4"><a xlink:href="helios__memory_8h.html#ab14fb1c046aae61ab06eda8eeaf2cd85" target="_top" xlink:title=" ">
<polygon fill="#ffffff" stroke="#000000" points="248,-.5 248,-19.5 395,-19.5 395,-.5 248,-.5"/>
<text text-anchor="middle" x="321.5" y="-7.5" font-family="Helvetica,sans-Serif" font-size="10.00" fill="#000000">helios_set_garbagecollectable</text>
</a>
</g>
</g>
<!-- Node2&#45;&gt;Node4 -->
<g id="edge3" class="edge">
<title>Node2&#45;&gt;Node4</title>
<path fill="none" stroke="#191970" d="M212.2012,-23.7074C220.2801,-22.6942 228.997,-21.601 237.8596,-20.4896"/>
<polygon fill="#191970" stroke="#191970" points="238.4147,-23.9475 247.9014,-19.2302 237.5435,-17.0019 238.4147,-23.9475"/>
</g>
</g>
</svg>
