<?xml version="1.0" encoding="UTF-8" standalone="no"?>
<!DOCTYPE svg PUBLIC "-//W3C//DTD SVG 1.1//EN"
 "http://www.w3.org/Graphics/SVG/1.1/DTD/svg11.dtd">
<!-- Generated by graphviz version 2.40.1 (20161225.0304)
 -->
<!-- Title: helios_integer_represent Pages: 1 -->
<svg width="537pt" height="39pt"
 viewBox="0.00 0.00 537.00 39.00" xmlns="http://www.w3.org/2000/svg" xmlns:xlink="http://www.w3.org/1999/xlink">
<g id="graph0" class="graph" transform="scale(1 1) rotate(0) translate(4 35)">
<title>helios_integer_represent</title>
<polygon fill="#ffffff" stroke="transparent" points="-4,4 -4,-35 533,-35 533,4 -4,4"/>
<!-- Node4 -->
<g id="node1" class="node">
<title>Node4</title>
<g id="a_node1"><a xlink:title="Alias of helios_integer_tostring for completeness.">
<polygon fill="#bfbfbf" stroke="#000000" points="0,-6 0,-25 122,-25 122,-6 0,-6"/>
<text text-anchor="middle" x="61" y="-13" font-family="Helvetica,sans-Serif" font-size="10.00" fill="#000000">helios_integer_represent</text>
</a>
</g>
</g>
<!-- Node5 -->
<g id="node2" class="node">
<title>Node5</title>
<g id="a_node2"><a xlink:href="helios__integer_8c.html#a75f742d10b1abafa4a857c91f2932733" target="_top" xlink:title="Create a helios_string object which represents the helios_integer object&#39;s value.">
<polygon fill="#ffffff" stroke="#000000" points="158,-6 158,-25 272,-25 272,-6 158,-6"/>
<text text-anchor="middle" x="215" y="-13" font-family="Helvetica,sans-Serif" font-size="10.00" fill="#000000">helios_integer_tostring</text>
</a>
</g>
</g>
<!-- Node4&#45;&gt;Node5 -->
<g id="edge1" class="edge">
<title>Node4&#45;&gt;Node5</title>
<path fill="none" stroke="#191970" d="M122.3074,-15.5C130.6559,-15.5 139.2614,-15.5 147.7085,-15.5"/>
<polygon fill="#191970" stroke="#191970" points="147.9057,-19.0001 157.9057,-15.5 147.9057,-12.0001 147.9057,-19.0001"/>
</g>
<!-- Node6 -->
<g id="node3" class="node">
<title>Node6</title>
<g id="a_node3"><a xlink:href="helios__string_8c.html#a4338910535421a24735fc7eb3123495c" target="_top" xlink:title="Create a helios_string object from a c string.">
<polygon fill="#ffffff" stroke="#000000" points="308,-.5 308,-30.5 404,-30.5 404,-.5 308,-.5"/>
<text text-anchor="start" x="316" y="-18.5" font-family="Helvetica,sans-Serif" font-size="10.00" fill="#000000">helios_string_from</text>
<text text-anchor="middle" x="356" y="-7.5" font-family="Helvetica,sans-Serif" font-size="10.00" fill="#000000">_charp</text>
</a>
</g>
</g>
<!-- Node5&#45;&gt;Node6 -->
<g id="edge2" class="edge">
<title>Node5&#45;&gt;Node6</title>
<path fill="none" stroke="#191970" d="M272.3501,-15.5C280.6976,-15.5 289.3,-15.5 297.6667,-15.5"/>
<polygon fill="#191970" stroke="#191970" points="297.7224,-19.0001 307.7224,-15.5 297.7223,-12.0001 297.7224,-19.0001"/>
</g>
<!-- Node7 -->
<g id="node4" class="node">
<title>Node7</title>
<g id="a_node4"><a xlink:href="helios__string_8c.html#af727ca5352482ab7e542510f178a9f85" target="_top" xlink:title="Constructor of a helios_string.">
<polygon fill="#ffffff" stroke="#000000" points="440,-6 440,-25 529,-25 529,-6 440,-6"/>
<text text-anchor="middle" x="484.5" y="-13" font-family="Helvetica,sans-Serif" font-size="10.00" fill="#000000">helios_string_init</text>
</a>
</g>
</g>
<!-- Node6&#45;&gt;Node7 -->
<g id="edge3" class="edge">
<title>Node6&#45;&gt;Node7</title>
<path fill="none" stroke="#191970" d="M404.2143,-15.5C412.5175,-15.5 421.2026,-15.5 429.6649,-15.5"/>
<polygon fill="#191970" stroke="#191970" points="429.8359,-19.0001 439.8359,-15.5 429.8359,-12.0001 429.8359,-19.0001"/>
</g>
</g>
</svg>
