<?xml version="1.0" encoding="UTF-8" standalone="no"?>
<!DOCTYPE svg PUBLIC "-//W3C//DTD SVG 1.1//EN"
 "http://www.w3.org/Graphics/SVG/1.1/DTD/svg11.dtd">
<!-- Generated by graphviz version 2.40.1 (20161225.0304)
 -->
<!-- Title: builtins/integer/helios_integer.c Pages: 1 -->
<svg width="358pt" height="263pt"
 viewBox="0.00 0.00 358.00 263.00" xmlns="http://www.w3.org/2000/svg" xmlns:xlink="http://www.w3.org/1999/xlink">
<g id="graph0" class="graph" transform="scale(1 1) rotate(0) translate(4 259)">
<title>builtins/integer/helios_integer.c</title>
<polygon fill="#ffffff" stroke="transparent" points="-4,4 -4,-259 354,-259 354,4 -4,4"/>
<!-- Node0 -->
<g id="node1" class="node">
<title>Node0</title>
<g id="a_node1"><a xlink:title=" ">
<polygon fill="#bfbfbf" stroke="#000000" points="126,-224.5 126,-254.5 234,-254.5 234,-224.5 126,-224.5"/>
<text text-anchor="start" x="134" y="-242.5" font-family="Helvetica,sans-Serif" font-size="10.00" fill="#000000">builtins/integer/helios</text>
<text text-anchor="middle" x="180" y="-231.5" font-family="Helvetica,sans-Serif" font-size="10.00" fill="#000000">_integer.c</text>
</a>
</g>
</g>
<!-- Node1 -->
<g id="node2" class="node">
<title>Node1</title>
<g id="a_node2"><a xlink:href="helios__integer_8h.html" target="_top" xlink:title=" ">
<polygon fill="#ffffff" stroke="#000000" points="0,-168.5 0,-187.5 84,-187.5 84,-168.5 0,-168.5"/>
<text text-anchor="middle" x="42" y="-175.5" font-family="Helvetica,sans-Serif" font-size="10.00" fill="#000000">helios_integer.h</text>
</a>
</g>
</g>
<!-- Node0&#45;&gt;Node1 -->
<g id="edge1" class="edge">
<title>Node0&#45;&gt;Node1</title>
<path fill="none" stroke="#191970" d="M146.2414,-224.4554C123.7207,-214.419 94.3533,-201.3314 72.5308,-191.6061"/>
<polygon fill="#191970" stroke="#191970" points="73.9439,-188.4041 63.3851,-187.5303 71.0944,-194.7979 73.9439,-188.4041"/>
</g>
<!-- Node2 -->
<g id="node3" class="node">
<title>Node2</title>
<g id="a_node3"><a xlink:href="helios__object_8h.html" target="_top" xlink:title=" ">
<polygon fill="#ffffff" stroke="#000000" points="71,-112.5 71,-131.5 153,-131.5 153,-112.5 71,-112.5"/>
<text text-anchor="middle" x="112" y="-119.5" font-family="Helvetica,sans-Serif" font-size="10.00" fill="#000000">helios_object.h</text>
</a>
</g>
</g>
<!-- Node0&#45;&gt;Node2 -->
<g id="edge6" class="edge">
<title>Node0&#45;&gt;Node2</title>
<path fill="none" stroke="#191970" d="M161.8718,-224.4696C151.4887,-214.9828 138.9776,-201.9198 131,-188 122.7551,-173.6138 117.8611,-155.3818 115.1105,-141.7273"/>
<polygon fill="#191970" stroke="#191970" points="118.4898,-140.7431 113.2775,-131.5191 111.6,-141.9803 118.4898,-140.7431"/>
</g>
<!-- Node6 -->
<g id="node7" class="node">
<title>Node6</title>
<g id="a_node7"><a xlink:href="helios__string_8h.html" target="_top" xlink:title=" ">
<polygon fill="#ffffff" stroke="#000000" points="140,-168.5 140,-187.5 220,-187.5 220,-168.5 140,-168.5"/>
<text text-anchor="middle" x="180" y="-175.5" font-family="Helvetica,sans-Serif" font-size="10.00" fill="#000000">helios_string.h</text>
</a>
</g>
</g>
<!-- Node0&#45;&gt;Node6 -->
<g id="edge7" class="edge">
<title>Node0&#45;&gt;Node6</title>
<path fill="none" stroke="#191970" d="M180,-224.2977C180,-216.3834 180,-206.6043 180,-198.0759"/>
<polygon fill="#191970" stroke="#191970" points="183.5001,-197.8469 180,-187.8469 176.5001,-197.847 183.5001,-197.8469"/>
</g>
<!-- Node7 -->
<g id="node8" class="node">
<title>Node7</title>
<g id="a_node8"><a xlink:title=" ">
<polygon fill="#ffffff" stroke="#bfbfbf" points="238.5,-168.5 238.5,-187.5 285.5,-187.5 285.5,-168.5 238.5,-168.5"/>
<text text-anchor="middle" x="262" y="-175.5" font-family="Helvetica,sans-Serif" font-size="10.00" fill="#000000">math.h</text>
</a>
</g>
</g>
<!-- Node0&#45;&gt;Node7 -->
<g id="edge9" class="edge">
<title>Node0&#45;&gt;Node7</title>
<path fill="none" stroke="#191970" d="M200.2697,-224.2977C212.6006,-215.0495 228.3266,-203.2551 240.8197,-193.8853"/>
<polygon fill="#191970" stroke="#191970" points="242.9708,-196.647 248.8708,-187.8469 238.7707,-191.047 242.9708,-196.647"/>
</g>
<!-- Node8 -->
<g id="node9" class="node">
<title>Node8</title>
<g id="a_node9"><a xlink:title=" ">
<polygon fill="#ffffff" stroke="#bfbfbf" points="304,-168.5 304,-187.5 350,-187.5 350,-168.5 304,-168.5"/>
<text text-anchor="middle" x="327" y="-175.5" font-family="Helvetica,sans-Serif" font-size="10.00" fill="#000000">stdio.h</text>
</a>
</g>
</g>
<!-- Node0&#45;&gt;Node8 -->
<g id="edge10" class="edge">
<title>Node0&#45;&gt;Node8</title>
<path fill="none" stroke="#191970" d="M215.9602,-224.4554C240.0573,-214.374 271.513,-201.2139 294.7903,-191.4755"/>
<polygon fill="#191970" stroke="#191970" points="296.3459,-194.6187 304.2202,-187.5303 293.6442,-188.1611 296.3459,-194.6187"/>
</g>
<!-- Node1&#45;&gt;Node2 -->
<g id="edge2" class="edge">
<title>Node1&#45;&gt;Node2</title>
<path fill="none" stroke="#191970" d="M54.1931,-168.2455C64.6321,-159.8943 79.8655,-147.7076 92.074,-137.9408"/>
<polygon fill="#191970" stroke="#191970" points="94.3244,-140.6227 99.9467,-131.6427 89.9515,-135.1566 94.3244,-140.6227"/>
</g>
<!-- Node3 -->
<g id="node4" class="node">
<title>Node3</title>
<g id="a_node4"><a xlink:href="helios__type_8h.html" target="_top" xlink:title=" ">
<polygon fill="#ffffff" stroke="#000000" points="75,-56.5 75,-75.5 149,-75.5 149,-56.5 75,-56.5"/>
<text text-anchor="middle" x="112" y="-63.5" font-family="Helvetica,sans-Serif" font-size="10.00" fill="#000000">helios_type.h</text>
</a>
</g>
</g>
<!-- Node2&#45;&gt;Node3 -->
<g id="edge3" class="edge">
<title>Node2&#45;&gt;Node3</title>
<path fill="none" stroke="#191970" d="M112,-112.2455C112,-104.9382 112,-94.6944 112,-85.7046"/>
<polygon fill="#191970" stroke="#191970" points="115.5001,-85.6426 112,-75.6427 108.5001,-85.6427 115.5001,-85.6426"/>
</g>
<!-- Node4 -->
<g id="node5" class="node">
<title>Node4</title>
<g id="a_node5"><a xlink:title=" ">
<polygon fill="#ffffff" stroke="#bfbfbf" points="54.5,-.5 54.5,-19.5 103.5,-19.5 103.5,-.5 54.5,-.5"/>
<text text-anchor="middle" x="79" y="-7.5" font-family="Helvetica,sans-Serif" font-size="10.00" fill="#000000">stdint.h</text>
</a>
</g>
</g>
<!-- Node3&#45;&gt;Node4 -->
<g id="edge4" class="edge">
<title>Node3&#45;&gt;Node4</title>
<path fill="none" stroke="#191970" d="M106.2518,-56.2455C101.7565,-48.617 95.3752,-37.7881 89.9175,-28.5267"/>
<polygon fill="#191970" stroke="#191970" points="92.7747,-26.4811 84.6823,-19.6427 86.7439,-30.035 92.7747,-26.4811"/>
</g>
<!-- Node5 -->
<g id="node6" class="node">
<title>Node5</title>
<g id="a_node6"><a xlink:title=" ">
<polygon fill="#ffffff" stroke="#bfbfbf" points="122,-.5 122,-19.5 170,-19.5 170,-.5 122,-.5"/>
<text text-anchor="middle" x="146" y="-7.5" font-family="Helvetica,sans-Serif" font-size="10.00" fill="#000000">stdlib.h</text>
</a>
</g>
</g>
<!-- Node3&#45;&gt;Node5 -->
<g id="edge5" class="edge">
<title>Node3&#45;&gt;Node5</title>
<path fill="none" stroke="#191970" d="M117.9223,-56.2455C122.6027,-48.5367 129.2673,-37.5598 134.9289,-28.2348"/>
<polygon fill="#191970" stroke="#191970" points="137.9475,-30.007 140.1455,-19.6427 131.9639,-26.3741 137.9475,-30.007"/>
</g>
<!-- Node6&#45;&gt;Node2 -->
<g id="edge8" class="edge">
<title>Node6&#45;&gt;Node2</title>
<path fill="none" stroke="#191970" d="M168.1553,-168.2455C158.112,-159.9746 143.5005,-147.9416 131.6996,-138.2232"/>
<polygon fill="#191970" stroke="#191970" points="133.6533,-135.298 123.709,-131.6427 129.2033,-140.7015 133.6533,-135.298"/>
</g>
</g>
</svg>
