<?xml version="1.0" encoding="UTF-8" standalone="no"?>
<!DOCTYPE svg PUBLIC "-//W3C//DTD SVG 1.1//EN"
 "http://www.w3.org/Graphics/SVG/1.1/DTD/svg11.dtd">
<!-- Generated by graphviz version 2.40.1 (20161225.0304)
 -->
<!-- Title: builtins/integer/helios_integer_math.c Pages: 1 -->
<svg width="143pt" height="263pt"
 viewBox="0.00 0.00 143.00 263.00" xmlns="http://www.w3.org/2000/svg" xmlns:xlink="http://www.w3.org/1999/xlink">
<g id="graph0" class="graph" transform="scale(1 1) rotate(0) translate(4 259)">
<title>builtins/integer/helios_integer_math.c</title>
<polygon fill="#ffffff" stroke="transparent" points="-4,4 -4,-259 139,-259 139,4 -4,4"/>
<!-- Node0 -->
<g id="node1" class="node">
<title>Node0</title>
<g id="a_node1"><a xlink:title=" ">
<polygon fill="#bfbfbf" stroke="#000000" points="23,-224.5 23,-254.5 131,-254.5 131,-224.5 23,-224.5"/>
<text text-anchor="start" x="31" y="-242.5" font-family="Helvetica,sans-Serif" font-size="10.00" fill="#000000">builtins/integer/helios</text>
<text text-anchor="middle" x="77" y="-231.5" font-family="Helvetica,sans-Serif" font-size="10.00" fill="#000000">_integer_math.c</text>
</a>
</g>
</g>
<!-- Node1 -->
<g id="node2" class="node">
<title>Node1</title>
<g id="a_node2"><a xlink:href="helios__integer_8h.html" target="_top" xlink:title=" ">
<polygon fill="#ffffff" stroke="#000000" points="0,-168.5 0,-187.5 84,-187.5 84,-168.5 0,-168.5"/>
<text text-anchor="middle" x="42" y="-175.5" font-family="Helvetica,sans-Serif" font-size="10.00" fill="#000000">helios_integer.h</text>
</a>
</g>
</g>
<!-- Node0&#45;&gt;Node1 -->
<g id="edge1" class="edge">
<title>Node0&#45;&gt;Node1</title>
<path fill="none" stroke="#191970" d="M68.3483,-224.2977C63.5912,-215.9388 57.6502,-205.4997 52.6143,-196.6509"/>
<polygon fill="#191970" stroke="#191970" points="55.5921,-194.8069 47.6039,-187.8469 49.5083,-198.2692 55.5921,-194.8069"/>
</g>
<!-- Node2 -->
<g id="node3" class="node">
<title>Node2</title>
<g id="a_node3"><a xlink:href="helios__object_8h.html" target="_top" xlink:title=" ">
<polygon fill="#ffffff" stroke="#000000" points="36,-112.5 36,-131.5 118,-131.5 118,-112.5 36,-112.5"/>
<text text-anchor="middle" x="77" y="-119.5" font-family="Helvetica,sans-Serif" font-size="10.00" fill="#000000">helios_object.h</text>
</a>
</g>
</g>
<!-- Node0&#45;&gt;Node2 -->
<g id="edge6" class="edge">
<title>Node0&#45;&gt;Node2</title>
<path fill="none" stroke="#191970" d="M83.9301,-224.2501C89.6412,-209.8368 96.3057,-187.5662 93,-168 91.455,-158.8551 88.2966,-149.1019 85.191,-140.9405"/>
<polygon fill="#191970" stroke="#191970" points="88.4127,-139.5713 81.411,-131.6198 81.9258,-142.2021 88.4127,-139.5713"/>
</g>
<!-- Node1&#45;&gt;Node2 -->
<g id="edge2" class="edge">
<title>Node1&#45;&gt;Node2</title>
<path fill="none" stroke="#191970" d="M48.0965,-168.2455C52.9145,-160.5367 59.7751,-149.5598 65.6032,-140.2348"/>
<polygon fill="#191970" stroke="#191970" points="68.6413,-141.9777 70.9733,-131.6427 62.7053,-138.2677 68.6413,-141.9777"/>
</g>
<!-- Node3 -->
<g id="node4" class="node">
<title>Node3</title>
<g id="a_node4"><a xlink:href="helios__type_8h.html" target="_top" xlink:title=" ">
<polygon fill="#ffffff" stroke="#000000" points="40,-56.5 40,-75.5 114,-75.5 114,-56.5 40,-56.5"/>
<text text-anchor="middle" x="77" y="-63.5" font-family="Helvetica,sans-Serif" font-size="10.00" fill="#000000">helios_type.h</text>
</a>
</g>
</g>
<!-- Node2&#45;&gt;Node3 -->
<g id="edge3" class="edge">
<title>Node2&#45;&gt;Node3</title>
<path fill="none" stroke="#191970" d="M77,-112.2455C77,-104.9382 77,-94.6944 77,-85.7046"/>
<polygon fill="#191970" stroke="#191970" points="80.5001,-85.6426 77,-75.6427 73.5001,-85.6427 80.5001,-85.6426"/>
</g>
<!-- Node4 -->
<g id="node5" class="node">
<title>Node4</title>
<g id="a_node5"><a xlink:title=" ">
<polygon fill="#ffffff" stroke="#bfbfbf" points="19.5,-.5 19.5,-19.5 68.5,-19.5 68.5,-.5 19.5,-.5"/>
<text text-anchor="middle" x="44" y="-7.5" font-family="Helvetica,sans-Serif" font-size="10.00" fill="#000000">stdint.h</text>
</a>
</g>
</g>
<!-- Node3&#45;&gt;Node4 -->
<g id="edge4" class="edge">
<title>Node3&#45;&gt;Node4</title>
<path fill="none" stroke="#191970" d="M71.2518,-56.2455C66.7565,-48.617 60.3752,-37.7881 54.9175,-28.5267"/>
<polygon fill="#191970" stroke="#191970" points="57.7747,-26.4811 49.6823,-19.6427 51.7439,-30.035 57.7747,-26.4811"/>
</g>
<!-- Node5 -->
<g id="node6" class="node">
<title>Node5</title>
<g id="a_node6"><a xlink:title=" ">
<polygon fill="#ffffff" stroke="#bfbfbf" points="87,-.5 87,-19.5 135,-19.5 135,-.5 87,-.5"/>
<text text-anchor="middle" x="111" y="-7.5" font-family="Helvetica,sans-Serif" font-size="10.00" fill="#000000">stdlib.h</text>
</a>
</g>
</g>
<!-- Node3&#45;&gt;Node5 -->
<g id="edge5" class="edge">
<title>Node3&#45;&gt;Node5</title>
<path fill="none" stroke="#191970" d="M82.9223,-56.2455C87.6027,-48.5367 94.2673,-37.5598 99.9289,-28.2348"/>
<polygon fill="#191970" stroke="#191970" points="102.9475,-30.007 105.1455,-19.6427 96.9639,-26.3741 102.9475,-30.007"/>
</g>
</g>
</svg>
