<?xml version="1.0" encoding="UTF-8" standalone="no"?>
<!DOCTYPE svg PUBLIC "-//W3C//DTD SVG 1.1//EN"
 "http://www.w3.org/Graphics/SVG/1.1/DTD/svg11.dtd">
<!-- Generated by graphviz version 2.40.1 (20161225.0304)
 -->
<!-- Title: builtins/code/include/helios_code.h Pages: 1 -->
<!--zoomable 352 -->
<svg id="main" version="1.1" xmlns="http://www.w3.org/2000/svg" xmlns:xlink="http://www.w3.org/1999/xlink" xml:space="preserve" onload="init(evt)">
<style type="text/css"><![CDATA[
.edge:hover path { stroke: red; }
.edge:hover polygon { stroke: red; fill: red; }
]]></style>
<script type="text/javascript"><![CDATA[
var edges = document.getElementsByTagName('g');
if (edges && edges.length) {
  for (var i=0;i<edges.length;i++) {
    if (edges[i].id.substr(0,4)=='edge') {
      edges[i].setAttribute('class','edge');
    }
  }
}
]]></script>
        <defs>
                <circle id="rim" cx="0" cy="0" r="7"/>
                <circle id="rim2" cx="0" cy="0" r="3.5"/>
                <g id="zoomPlus">
                        <use xlink:href="#rim" fill="#404040">
                                <set attributeName="fill" to="#808080" begin="zoomplus.mouseover" end="zoomplus.mouseout"/>
                        </use>
                        <path d="M-4,0h8M0,-4v8" fill="none" stroke="white" stroke-width="1.5" pointer-events="none"/>
                </g>
                <g id="zoomMin">
                        <use xlink:href="#rim" fill="#404040">
                                <set attributeName="fill" to="#808080" begin="zoomminus.mouseover" end="zoomminus.mouseout"/>
                        </use>
                        <path d="M-4,0h8" fill="none" stroke="white" stroke-width="1.5" pointer-events="none"/>
                </g>
                <g id="dirArrow">
                        <path fill="none" stroke="white" stroke-width="1.5" d="M0,-3.0v7 M-2.5,-0.5L0,-3.0L2.5,-0.5"/>
                </g>
               <g id="resetDef">
                       <use xlink:href="#rim2" fill="#404040">
                               <set attributeName="fill" to="#808080" begin="reset.mouseover" end="reset.mouseout"/>
                       </use>
               </g>
        </defs>

<script type="text/javascript">
var viewWidth = 1253;
var viewHeight = 352;
var sectionId = 'dynsection-1';
</script>
<script xlink:href="svgpan.js"/>
<svg id="graph" class="graph">
<g id="viewport">
<title>builtins/code/include/helios_code.h</title>
<polygon fill="#ffffff" stroke="transparent" points="-4,4 -4,-348 1249,-348 1249,4 -4,4"/>
<!-- Node9 -->
<g id="node1" class="node">
<title>Node9</title>
<g id="a_node1"><a xlink:title=" ">
<polygon fill="#bfbfbf" stroke="#000000" points="1140,-313.5 1140,-343.5 1245,-343.5 1245,-313.5 1140,-313.5"/>
<text text-anchor="start" x="1148" y="-331.5" font-family="Helvetica,sans-Serif" font-size="10.00" fill="#000000">builtins/code/include</text>
<text text-anchor="middle" x="1192.5" y="-320.5" font-family="Helvetica,sans-Serif" font-size="10.00" fill="#000000">/helios_code.h</text>
</a>
</g>
</g>
<!-- Node10 -->
<g id="node2" class="node">
<title>Node10</title>
<g id="a_node2"><a xlink:href="helios__code_8c.html" target="_top" xlink:title=" ">
<polygon fill="#ffffff" stroke="#000000" points="870.5,-67.5 870.5,-97.5 970.5,-97.5 970.5,-67.5 870.5,-67.5"/>
<text text-anchor="start" x="878.5" y="-85.5" font-family="Helvetica,sans-Serif" font-size="10.00" fill="#000000">builtins/code/helios</text>
<text text-anchor="middle" x="920.5" y="-74.5" font-family="Helvetica,sans-Serif" font-size="10.00" fill="#000000">_code.c</text>
</a>
</g>
</g>
<!-- Node9&#45;&gt;Node10 -->
<g id="edge1" class="edge">
<title>Node9&#45;&gt;Node10</title>
<path fill="none" stroke="#191970" d="M1168.4733,-306.7699C1114.2848,-257.7613 983.6719,-139.6334 937.2337,-97.6341"/>
<polygon fill="#191970" stroke="#191970" points="1166.1302,-309.37 1175.8946,-313.4819 1170.8257,-304.1783 1166.1302,-309.37"/>
</g>
<!-- Node11 -->
<g id="node3" class="node">
<title>Node11</title>
<g id="a_node3"><a xlink:href="helios__instruction_8c.html" target="_top" xlink:title=" ">
<polygon fill="#ffffff" stroke="#000000" points="988.5,-67.5 988.5,-97.5 1088.5,-97.5 1088.5,-67.5 988.5,-67.5"/>
<text text-anchor="start" x="996.5" y="-85.5" font-family="Helvetica,sans-Serif" font-size="10.00" fill="#000000">builtins/code/helios</text>
<text text-anchor="middle" x="1038.5" y="-74.5" font-family="Helvetica,sans-Serif" font-size="10.00" fill="#000000">_instruction.c</text>
</a>
</g>
</g>
<!-- Node9&#45;&gt;Node11 -->
<g id="edge2" class="edge">
<title>Node9&#45;&gt;Node11</title>
<path fill="none" stroke="#191970" d="M1203.5281,-304.0271C1219.6461,-264.1574 1243.8882,-184.5668 1206.5,-134 1192.3534,-114.867 1133.0632,-99.9284 1088.9013,-91.1772"/>
<polygon fill="#191970" stroke="#191970" points="1200.2933,-302.6906 1199.6478,-313.2658 1206.7471,-305.4014 1200.2933,-302.6906"/>
</g>
<!-- Node12 -->
<g id="node4" class="node">
<title>Node12</title>
<g id="a_node4"><a xlink:href="builtins_8h.html" target="_top" xlink:title=" ">
<polygon fill="#ffffff" stroke="#000000" points="245,-257.5 245,-276.5 368,-276.5 368,-257.5 245,-257.5"/>
<text text-anchor="middle" x="306.5" y="-264.5" font-family="Helvetica,sans-Serif" font-size="10.00" fill="#000000">builtins/include/builtins.h</text>
</a>
</g>
</g>
<!-- Node9&#45;&gt;Node12 -->
<g id="edge3" class="edge">
<title>Node9&#45;&gt;Node12</title>
<path fill="none" stroke="#191970" d="M1129.3601,-324.1173C965.8628,-312.7684 530.1738,-282.5259 368.241,-271.2856"/>
<polygon fill="#191970" stroke="#191970" points="1129.5116,-327.6361 1139.73,-324.8371 1129.9964,-320.6529 1129.5116,-327.6361"/>
</g>
<!-- Node13 -->
<g id="node5" class="node">
<title>Node13</title>
<g id="a_node5"><a xlink:href="serialize_8c.html" target="_top" xlink:title=" ">
<polygon fill="#ffffff" stroke="#000000" points="555.5,-190.5 555.5,-220.5 657.5,-220.5 657.5,-190.5 555.5,-190.5"/>
<text text-anchor="start" x="563.5" y="-208.5" font-family="Helvetica,sans-Serif" font-size="10.00" fill="#000000">builtins/serialization</text>
<text text-anchor="middle" x="606.5" y="-197.5" font-family="Helvetica,sans-Serif" font-size="10.00" fill="#000000">/serialize.c</text>
</a>
</g>
</g>
<!-- Node12&#45;&gt;Node13 -->
<g id="edge4" class="edge">
<title>Node12&#45;&gt;Node13</title>
<path fill="none" stroke="#191970" d="M371.5429,-255.6862C419.9545,-246.9859 487.5683,-234.2456 546.5,-221 549.4391,-220.3394 552.453,-219.6379 555.4903,-218.9123"/>
<polygon fill="#191970" stroke="#191970" points="370.7413,-252.2739 361.5139,-257.4801 371.974,-259.1645 370.7413,-252.2739"/>
</g>
<!-- Node14 -->
<g id="node6" class="node">
<title>Node14</title>
<g id="a_node6"><a xlink:href="executestack_8c.html" target="_top" xlink:title=" ">
<polygon fill="#ffffff" stroke="#000000" points="0,-134.5 0,-153.5 105,-153.5 105,-134.5 0,-134.5"/>
<text text-anchor="middle" x="52.5" y="-141.5" font-family="Helvetica,sans-Serif" font-size="10.00" fill="#000000">hvm/executestack.c</text>
</a>
</g>
</g>
<!-- Node12&#45;&gt;Node14 -->
<g id="edge5" class="edge">
<title>Node12&#45;&gt;Node14</title>
<path fill="none" stroke="#191970" d="M234.7339,-263.8513C168.2854,-259.2603 76.3955,-248.0743 53.5,-221 37.3568,-201.9103 44.2642,-169.6235 49.1605,-153.6056"/>
<polygon fill="#191970" stroke="#191970" points="234.546,-267.3463 244.7533,-264.5074 235.0035,-260.3613 234.546,-267.3463"/>
</g>
<!-- Node15 -->
<g id="node7" class="node">
<title>Node15</title>
<g id="a_node7"><a xlink:href="hvm_8c.html" target="_top" xlink:title=" ">
<polygon fill="#ffffff" stroke="#000000" points="158,-134.5 158,-153.5 223,-153.5 223,-134.5 158,-134.5"/>
<text text-anchor="middle" x="190.5" y="-141.5" font-family="Helvetica,sans-Serif" font-size="10.00" fill="#000000">hvm/hvm.c</text>
</a>
</g>
</g>
<!-- Node12&#45;&gt;Node15 -->
<g id="edge6" class="edge">
<title>Node12&#45;&gt;Node15</title>
<path fill="none" stroke="#191970" d="M286.6685,-250.7046C276.6867,-242.1961 264.595,-231.4107 254.5,-221 232.3555,-198.163 209.1666,-168.6286 197.7424,-153.6418"/>
<polygon fill="#191970" stroke="#191970" points="284.5594,-253.5039 294.4669,-257.2579 289.0629,-248.1449 284.5594,-253.5039"/>
</g>
<!-- Node16 -->
<g id="node8" class="node">
<title>Node16</title>
<g id="a_node8"><a xlink:href="executestack_8h.html" target="_top" xlink:title=" ">
<polygon fill="#ffffff" stroke="#000000" points="63,-196 63,-215 202,-215 202,-196 63,-196"/>
<text text-anchor="middle" x="132.5" y="-203" font-family="Helvetica,sans-Serif" font-size="10.00" fill="#000000">hvm/include/executestack.h</text>
</a>
</g>
</g>
<!-- Node12&#45;&gt;Node16 -->
<g id="edge7" class="edge">
<title>Node12&#45;&gt;Node16</title>
<path fill="none" stroke="#191970" d="M269.5791,-253.9504C236.5932,-242.2916 189.0434,-225.4852 159.4966,-215.0419"/>
<polygon fill="#191970" stroke="#191970" points="268.7177,-257.3581 279.3125,-257.3906 271.0505,-250.7582 268.7177,-257.3581"/>
</g>
<!-- Node17 -->
<g id="node9" class="node">
<title>Node17</title>
<g id="a_node9"><a xlink:href="hvm_8h.html" target="_top" xlink:title=" ">
<polygon fill="#ffffff" stroke="#000000" points="179,-73 179,-92 278,-92 278,-73 179,-73"/>
<text text-anchor="middle" x="228.5" y="-80" font-family="Helvetica,sans-Serif" font-size="10.00" fill="#000000">hvm/include/hvm.h</text>
</a>
</g>
</g>
<!-- Node12&#45;&gt;Node17 -->
<g id="edge10" class="edge">
<title>Node12&#45;&gt;Node17</title>
<path fill="none" stroke="#191970" d="M298.3252,-247.6634C281.7695,-208.5029 244.8097,-121.0787 232.5434,-92.0641"/>
<polygon fill="#191970" stroke="#191970" points="295.2984,-249.4924 302.4162,-257.3402 301.7459,-246.7666 295.2984,-249.4924"/>
</g>
<!-- Node18 -->
<g id="node10" class="node">
<title>Node18</title>
<g id="a_node10"><a xlink:href="main_8c.html" target="_top" xlink:title=" ">
<polygon fill="#ffffff" stroke="#000000" points="271.5,-6 271.5,-25 341.5,-25 341.5,-6 271.5,-6"/>
<text text-anchor="middle" x="306.5" y="-13" font-family="Helvetica,sans-Serif" font-size="10.00" fill="#000000">main/main.c</text>
</a>
</g>
</g>
<!-- Node12&#45;&gt;Node18 -->
<g id="edge12" class="edge">
<title>Node12&#45;&gt;Node18</title>
<path fill="none" stroke="#191970" d="M306.5,-247.1283C306.5,-196.1303 306.5,-62.0374 306.5,-25.0615"/>
<polygon fill="#191970" stroke="#191970" points="303.0001,-247.448 306.5,-257.448 310.0001,-247.448 303.0001,-247.448"/>
</g>
<!-- Node19 -->
<g id="node11" class="node">
<title>Node19</title>
<g id="a_node11"><a xlink:href="token_8h.html" target="_top" xlink:title=" ">
<polygon fill="#ffffff" stroke="#000000" points="424,-196 424,-215 537,-215 537,-196 424,-196"/>
<text text-anchor="middle" x="480.5" y="-203" font-family="Helvetica,sans-Serif" font-size="10.00" fill="#000000">parser/include/token.h</text>
</a>
</g>
</g>
<!-- Node12&#45;&gt;Node19 -->
<g id="edge13" class="edge">
<title>Node12&#45;&gt;Node19</title>
<path fill="none" stroke="#191970" d="M343.4209,-253.9504C376.4068,-242.2916 423.9566,-225.4852 453.5034,-215.0419"/>
<polygon fill="#191970" stroke="#191970" points="341.9495,-250.7582 333.6875,-257.3906 344.2823,-257.3581 341.9495,-250.7582"/>
</g>
<!-- Node28 -->
<g id="node20" class="node">
<title>Node28</title>
<g id="a_node20"><a xlink:href="token_8c.html" target="_top" xlink:title=" ">
<polygon fill="#ffffff" stroke="#000000" points="335,-134.5 335,-153.5 414,-153.5 414,-134.5 335,-134.5"/>
<text text-anchor="middle" x="374.5" y="-141.5" font-family="Helvetica,sans-Serif" font-size="10.00" fill="#000000">parser/token.c</text>
</a>
</g>
</g>
<!-- Node12&#45;&gt;Node28 -->
<g id="edge38" class="edge">
<title>Node12&#45;&gt;Node28</title>
<path fill="none" stroke="#191970" d="M316.8406,-248.2956C331.54,-221.7071 357.9396,-173.9549 369.1889,-153.6068"/>
<polygon fill="#191970" stroke="#191970" points="313.6111,-246.9033 311.8358,-257.3484 319.7373,-250.2902 313.6111,-246.9033"/>
</g>
<!-- Node16&#45;&gt;Node14 -->
<g id="edge8" class="edge">
<title>Node16&#45;&gt;Node14</title>
<path fill="none" stroke="#191970" d="M111.881,-189.6491C97.0164,-178.222 77.443,-163.1749 64.9122,-153.5419"/>
<polygon fill="#191970" stroke="#191970" points="109.9387,-192.5707 120,-195.8906 114.2051,-187.021 109.9387,-192.5707"/>
</g>
<!-- Node16&#45;&gt;Node15 -->
<g id="edge9" class="edge">
<title>Node16&#45;&gt;Node15</title>
<path fill="none" stroke="#191970" d="M148.6261,-188.4007C159.1642,-177.2268 172.5477,-163.0356 181.3097,-153.7449"/>
<polygon fill="#191970" stroke="#191970" points="145.8773,-186.2142 141.5625,-195.8906 150.9698,-191.0169 145.8773,-186.2142"/>
</g>
<!-- Node17&#45;&gt;Node18 -->
<g id="edge11" class="edge">
<title>Node17&#45;&gt;Node18</title>
<path fill="none" stroke="#191970" d="M247.3606,-66.2992C262.3624,-53.4131 282.8431,-35.8207 295.3452,-25.0817"/>
<polygon fill="#191970" stroke="#191970" points="244.9806,-63.7296 239.6755,-72.9005 249.5418,-69.0396 244.9806,-63.7296"/>
</g>
<!-- Node20 -->
<g id="node12" class="node">
<title>Node20</title>
<g id="a_node12"><a xlink:href="AST_8c.html" target="_top" xlink:title=" ">
<polygon fill="#ffffff" stroke="#000000" points="359.5,-6 359.5,-25 433.5,-25 433.5,-6 359.5,-6"/>
<text text-anchor="middle" x="396.5" y="-13" font-family="Helvetica,sans-Serif" font-size="10.00" fill="#000000">parser/AST.c</text>
</a>
</g>
</g>
<!-- Node19&#45;&gt;Node20 -->
<g id="edge14" class="edge">
<title>Node19&#45;&gt;Node20</title>
<path fill="none" stroke="#191970" d="M472.0688,-186.4294C454.4359,-146.5455 414.1949,-55.5242 400.8732,-25.3917"/>
<polygon fill="#191970" stroke="#191970" points="468.9743,-188.0859 476.2189,-195.8167 475.3765,-185.2554 468.9743,-188.0859"/>
</g>
<!-- Node21 -->
<g id="node13" class="node">
<title>Node21</title>
<g id="a_node13"><a xlink:href="AST_8h.html" target="_top" xlink:title=" ">
<polygon fill="#ffffff" stroke="#000000" points="627,-134.5 627,-153.5 734,-153.5 734,-134.5 627,-134.5"/>
<text text-anchor="middle" x="680.5" y="-141.5" font-family="Helvetica,sans-Serif" font-size="10.00" fill="#000000">parser/include/AST.h</text>
</a>
</g>
</g>
<!-- Node19&#45;&gt;Node21 -->
<g id="edge15" class="edge">
<title>Node19&#45;&gt;Node21</title>
<path fill="none" stroke="#191970" d="M521.4754,-192.9001C559.4357,-181.2273 615.0684,-164.1202 649.4694,-153.5419"/>
<polygon fill="#191970" stroke="#191970" points="520.2796,-189.606 511.75,-195.8906 522.337,-196.2968 520.2796,-189.606"/>
</g>
<!-- Node23 -->
<g id="node15" class="node">
<title>Node23</title>
<g id="a_node15"><a xlink:href="expressions_8c.html" target="_top" xlink:title=" ">
<polygon fill="#ffffff" stroke="#000000" points="451.5,-.5 451.5,-30.5 549.5,-30.5 549.5,-.5 451.5,-.5"/>
<text text-anchor="start" x="459.5" y="-18.5" font-family="Helvetica,sans-Serif" font-size="10.00" fill="#000000">parser/parserfuncs</text>
<text text-anchor="middle" x="500.5" y="-7.5" font-family="Helvetica,sans-Serif" font-size="10.00" fill="#000000">/expressions.c</text>
</a>
</g>
</g>
<!-- Node19&#45;&gt;Node23 -->
<g id="edge33" class="edge">
<title>Node19&#45;&gt;Node23</title>
<path fill="none" stroke="#191970" d="M482.6064,-185.4895C486.6266,-147.297 495.3124,-64.782 498.8999,-30.7011"/>
<polygon fill="#191970" stroke="#191970" points="479.0855,-185.5052 481.5193,-195.8167 486.047,-186.238 479.0855,-185.5052"/>
</g>
<!-- Node24 -->
<g id="node16" class="node">
<title>Node24</title>
<g id="a_node16"><a xlink:href="floats_8c.html" target="_top" xlink:title=" ">
<polygon fill="#ffffff" stroke="#000000" points="797.5,-.5 797.5,-30.5 895.5,-30.5 895.5,-.5 797.5,-.5"/>
<text text-anchor="start" x="805.5" y="-18.5" font-family="Helvetica,sans-Serif" font-size="10.00" fill="#000000">parser/parserfuncs</text>
<text text-anchor="middle" x="846.5" y="-7.5" font-family="Helvetica,sans-Serif" font-size="10.00" fill="#000000">/floats.c</text>
</a>
</g>
</g>
<!-- Node19&#45;&gt;Node24 -->
<g id="edge34" class="edge">
<title>Node19&#45;&gt;Node24</title>
<path fill="none" stroke="#191970" d="M528.9627,-193.7384C534.8583,-192.42 540.8075,-191.1424 546.5,-190 668.2127,-165.5739 1017.2733,-192.7327 1097.5,-98 1190.0868,11.3276 1219.9917,-102.4696 904.5,-31 901.6537,-30.3552 898.7362,-29.6661 895.7971,-28.95"/>
<polygon fill="#191970" stroke="#191970" points="528.1165,-190.3414 519.146,-195.9788 529.6741,-197.1659 528.1165,-190.3414"/>
</g>
<!-- Node25 -->
<g id="node17" class="node">
<title>Node25</title>
<g id="a_node17"><a xlink:href="integers_8c.html" target="_top" xlink:title=" ">
<polygon fill="#ffffff" stroke="#000000" points="913.5,-.5 913.5,-30.5 1011.5,-30.5 1011.5,-.5 913.5,-.5"/>
<text text-anchor="start" x="921.5" y="-18.5" font-family="Helvetica,sans-Serif" font-size="10.00" fill="#000000">parser/parserfuncs</text>
<text text-anchor="middle" x="962.5" y="-7.5" font-family="Helvetica,sans-Serif" font-size="10.00" fill="#000000">/integers.c</text>
</a>
</g>
</g>
<!-- Node19&#45;&gt;Node25 -->
<g id="edge35" class="edge">
<title>Node19&#45;&gt;Node25</title>
<path fill="none" stroke="#191970" d="M526.7929,-193.6749C533.3767,-192.2721 540.0877,-190.9898 546.5,-190 675.2558,-170.1246 1058.6938,-209.8482 1125.5,-98 1153.6367,-50.8931 1069.306,-29.778 1011.6651,-21.0379"/>
<polygon fill="#191970" stroke="#191970" points="525.6067,-190.3538 516.6129,-195.954 527.136,-197.1847 525.6067,-190.3538"/>
</g>
<!-- Node26 -->
<g id="node18" class="node">
<title>Node26</title>
<g id="a_node18"><a xlink:href="parser_8c.html" target="_top" xlink:title=" ">
<polygon fill="#ffffff" stroke="#000000" points="567.5,-.5 567.5,-30.5 665.5,-30.5 665.5,-.5 567.5,-.5"/>
<text text-anchor="start" x="575.5" y="-18.5" font-family="Helvetica,sans-Serif" font-size="10.00" fill="#000000">parser/parserfuncs</text>
<text text-anchor="middle" x="616.5" y="-7.5" font-family="Helvetica,sans-Serif" font-size="10.00" fill="#000000">/parser.c</text>
</a>
</g>
</g>
<!-- Node19&#45;&gt;Node26 -->
<g id="edge36" class="edge">
<title>Node19&#45;&gt;Node26</title>
<path fill="none" stroke="#191970" d="M493.4379,-187.4249C520.1141,-150.1567 580.8038,-65.3696 605.6192,-30.7011"/>
<polygon fill="#191970" stroke="#191970" points="490.4057,-185.6479 487.4312,-195.8167 496.0978,-189.7223 490.4057,-185.6479"/>
</g>
<!-- Node19&#45;&gt;Node28 -->
<g id="edge37" class="edge">
<title>Node19&#45;&gt;Node28</title>
<path fill="none" stroke="#191970" d="M455.0919,-190.7585C435.1909,-179.2122 408.0926,-163.49 390.9462,-153.5419"/>
<polygon fill="#191970" stroke="#191970" points="453.5314,-193.8995 463.9375,-195.8906 457.0443,-187.8448 453.5314,-193.8995"/>
</g>
<!-- Node21&#45;&gt;Node10 -->
<g id="edge16" class="edge">
<title>Node21&#45;&gt;Node10</title>
<path fill="none" stroke="#191970" d="M727.51,-131.9537C768.6219,-121.4188 828.1659,-106.1606 870.2195,-95.3844"/>
<polygon fill="#191970" stroke="#191970" points="726.5549,-128.5853 717.7367,-134.4581 728.2925,-135.3662 726.5549,-128.5853"/>
</g>
<!-- Node21&#45;&gt;Node11 -->
<g id="edge17" class="edge">
<title>Node21&#45;&gt;Node11</title>
<path fill="none" stroke="#191970" d="M744.2064,-136.1578C804.9762,-128.2159 898.9274,-114.734 979.5,-98 982.4034,-97.397 985.3775,-96.7405 988.3721,-96.0493"/>
<polygon fill="#191970" stroke="#191970" points="743.469,-132.724 734.0017,-137.4801 744.3686,-139.6659 743.469,-132.724"/>
</g>
<!-- Node21&#45;&gt;Node18 -->
<g id="edge18" class="edge">
<title>Node21&#45;&gt;Node18</title>
<path fill="none" stroke="#191970" d="M621.0599,-132.4195C583.4355,-124.3842 534.0377,-112.528 491.5,-98 428.6016,-76.5182 357.7407,-41.7882 324.9577,-25.0807"/>
<polygon fill="#191970" stroke="#191970" points="620.3445,-135.8455 630.8512,-134.4813 621.787,-128.9957 620.3445,-135.8455"/>
</g>
<!-- Node21&#45;&gt;Node20 -->
<g id="edge19" class="edge">
<title>Node21&#45;&gt;Node20</title>
<path fill="none" stroke="#191970" d="M642.6224,-131.1134C618.0671,-122.4472 585.5468,-110.3808 557.5,-98 503.7703,-74.2819 442.6292,-41.1937 413.5736,-25.0802"/>
<polygon fill="#191970" stroke="#191970" points="641.691,-134.4954 652.2858,-134.4937 644.0023,-127.888 641.691,-134.4954"/>
</g>
<!-- Node22 -->
<g id="node14" class="node">
<title>Node22</title>
<g id="a_node14"><a xlink:href="parser_8h.html" target="_top" xlink:title=" ">
<polygon fill="#ffffff" stroke="#000000" points="623,-73 623,-92 738,-92 738,-73 623,-73"/>
<text text-anchor="middle" x="680.5" y="-80" font-family="Helvetica,sans-Serif" font-size="10.00" fill="#000000">parser/include/parser.h</text>
</a>
</g>
</g>
<!-- Node21&#45;&gt;Node22 -->
<g id="edge20" class="edge">
<title>Node21&#45;&gt;Node22</title>
<path fill="none" stroke="#191970" d="M680.5,-124.2462C680.5,-113.5519 680.5,-100.814 680.5,-92.2449"/>
<polygon fill="#191970" stroke="#191970" points="677.0001,-124.3906 680.5,-134.3906 684.0001,-124.3907 677.0001,-124.3906"/>
</g>
<!-- Node21&#45;&gt;Node23 -->
<g id="edge28" class="edge">
<title>Node21&#45;&gt;Node23</title>
<path fill="none" stroke="#191970" d="M653.7318,-129.5072C638.3916,-120.8853 618.9739,-109.4276 602.5,-98 571.2477,-76.3209 537.3635,-47.8182 517.5808,-30.6201"/>
<polygon fill="#191970" stroke="#191970" points="652.2518,-132.6888 662.6936,-134.4835 655.6501,-126.5689 652.2518,-132.6888"/>
</g>
<!-- Node21&#45;&gt;Node24 -->
<g id="edge29" class="edge">
<title>Node21&#45;&gt;Node24</title>
<path fill="none" stroke="#191970" d="M710.6984,-129.8188C727.0032,-121.5449 747.0928,-110.324 763.5,-98 790.7914,-77.5005 818.0079,-48.3768 833.4945,-30.7766"/>
<polygon fill="#191970" stroke="#191970" points="708.9953,-126.7567 701.5922,-134.3359 712.106,-133.0276 708.9953,-126.7567"/>
</g>
<!-- Node21&#45;&gt;Node25 -->
<g id="edge30" class="edge">
<title>Node21&#45;&gt;Node25</title>
<path fill="none" stroke="#191970" d="M714.864,-130.7096C737.3894,-121.8269 767.391,-109.671 793.5,-98 843.1289,-75.8154 899.6898,-47.5899 933.1723,-30.5657"/>
<polygon fill="#191970" stroke="#191970" points="713.4228,-127.5152 705.392,-134.4259 715.9795,-134.0317 713.4228,-127.5152"/>
</g>
<!-- Node21&#45;&gt;Node26 -->
<g id="edge31" class="edge">
<title>Node21&#45;&gt;Node26</title>
<path fill="none" stroke="#191970" d="M647.6056,-129.5194C634.8523,-122.074 621.6245,-111.6498 614.5,-98 603.429,-76.7891 607.6533,-48.1438 611.9286,-30.7899"/>
<polygon fill="#191970" stroke="#191970" points="646.2492,-132.7638 656.7141,-134.4178 649.5647,-126.5988 646.2492,-132.7638"/>
</g>
<!-- Node27 -->
<g id="node19" class="node">
<title>Node27</title>
<g id="a_node19"><a xlink:href="parserutil_8c.html" target="_top" xlink:title=" ">
<polygon fill="#ffffff" stroke="#000000" points="684,-6 684,-25 779,-25 779,-6 684,-6"/>
<text text-anchor="middle" x="731.5" y="-13" font-family="Helvetica,sans-Serif" font-size="10.00" fill="#000000">parser/parserutil.c</text>
</a>
</g>
</g>
<!-- Node21&#45;&gt;Node27 -->
<g id="edge32" class="edge">
<title>Node21&#45;&gt;Node27</title>
<path fill="none" stroke="#191970" d="M714.1633,-129.4672C727.0198,-122.0514 740.3071,-111.6635 747.5,-98 760.1412,-73.9871 745.9669,-41.3168 737.2701,-25.2456"/>
<polygon fill="#191970" stroke="#191970" points="712.1632,-126.5664 704.9712,-134.3462 715.445,-132.7494 712.1632,-126.5664"/>
</g>
<!-- Node22&#45;&gt;Node18 -->
<g id="edge21" class="edge">
<title>Node22&#45;&gt;Node18</title>
<path fill="none" stroke="#191970" d="M612.8824,-75.6332C545.6622,-67.9474 439.9507,-53.5316 350.5,-31 344.217,-29.4174 337.5641,-27.3103 331.3859,-25.1609"/>
<polygon fill="#191970" stroke="#191970" points="612.594,-79.1227 622.9229,-76.7638 613.3774,-72.1667 612.594,-79.1227"/>
</g>
<!-- Node22&#45;&gt;Node20 -->
<g id="edge22" class="edge">
<title>Node22&#45;&gt;Node20</title>
<path fill="none" stroke="#191970" d="M618.1045,-70.9832C569.8234,-61.5946 501.475,-47.2618 442.5,-31 436.1632,-29.2527 429.4175,-27.1312 423.1004,-25.0258"/>
<polygon fill="#191970" stroke="#191970" points="617.61,-74.4522 628.092,-72.9104 618.9363,-67.579 617.61,-74.4522"/>
</g>
<!-- Node22&#45;&gt;Node23 -->
<g id="edge23" class="edge">
<title>Node22&#45;&gt;Node23</title>
<path fill="none" stroke="#191970" d="M645.0784,-69.3153C615.1044,-58.1583 572.1532,-42.1709 540.857,-30.5218"/>
<polygon fill="#191970" stroke="#191970" points="644.1176,-72.6922 654.7104,-72.9005 646.5595,-66.1319 644.1176,-72.6922"/>
</g>
<!-- Node22&#45;&gt;Node24 -->
<g id="edge24" class="edge">
<title>Node22&#45;&gt;Node24</title>
<path fill="none" stroke="#191970" d="M713.8904,-69.0231C741.4973,-57.8806 780.6708,-42.0696 809.2819,-30.5218"/>
<polygon fill="#191970" stroke="#191970" points="712.2469,-65.9121 704.2838,-72.9005 714.8669,-72.4033 712.2469,-65.9121"/>
</g>
<!-- Node22&#45;&gt;Node25 -->
<g id="edge25" class="edge">
<title>Node22&#45;&gt;Node25</title>
<path fill="none" stroke="#191970" d="M733.9005,-70.7769C779.3621,-60.6641 846.3554,-45.4486 904.5,-31 907.4334,-30.2711 910.4465,-29.5084 913.4836,-28.7289"/>
<polygon fill="#191970" stroke="#191970" points="732.9724,-67.3976 723.9683,-72.9813 734.4891,-74.2314 732.9724,-67.3976"/>
</g>
<!-- Node22&#45;&gt;Node26 -->
<g id="edge26" class="edge">
<title>Node22&#45;&gt;Node26</title>
<path fill="none" stroke="#191970" d="M664.1272,-65.3597C653.8485,-54.5992 640.7188,-40.8541 630.8491,-30.5218"/>
<polygon fill="#191970" stroke="#191970" points="661.8921,-68.087 671.3304,-72.9005 666.9539,-63.2518 661.8921,-68.087"/>
</g>
<!-- Node22&#45;&gt;Node27 -->
<g id="edge27" class="edge">
<title>Node22&#45;&gt;Node27</title>
<path fill="none" stroke="#191970" d="M693.9361,-64.8486C703.6256,-52.1194 716.3348,-35.4229 724.2065,-25.0817"/>
<polygon fill="#191970" stroke="#191970" points="691.079,-62.8236 687.8071,-72.9005 696.6489,-67.0634 691.079,-62.8236"/>
</g>
</g>
</svg>
        <g id="navigator" transform="translate(0 0)" fill="#404254">
                <rect fill="#f2f5e9" fill-opacity="0.5" stroke="#606060" stroke-width=".5" x="0" y="0" width="60" height="60"/>
                <use id="zoomplus" xlink:href="#zoomPlus" x="17" y="9" onmousedown="handleZoom(evt,'in')"/>
                <use id="zoomminus" xlink:href="#zoomMin" x="42" y="9" onmousedown="handleZoom(evt,'out')"/>
                <use id="reset" xlink:href="#resetDef" x="30" y="36" onmousedown="handleReset()"/>
                <g id="arrowUp" xlink:href="#dirArrow" transform="translate(30 24)" onmousedown="handlePan(0,-1)">
                  <use xlink:href="#rim" fill="#404040">
                        <set attributeName="fill" to="#808080" begin="arrowUp.mouseover" end="arrowUp.mouseout"/>
                  </use>
                  <path fill="none" stroke="white" stroke-width="1.5" d="M0,-3.0v7 M-2.5,-0.5L0,-3.0L2.5,-0.5"/>
                </g>
                <g id="arrowRight" xlink:href="#dirArrow" transform="rotate(90) translate(36 -43)" onmousedown="handlePan(1,0)">
                  <use xlink:href="#rim" fill="#404040">
                        <set attributeName="fill" to="#808080" begin="arrowRight.mouseover" end="arrowRight.mouseout"/>
                  </use>
                  <path fill="none" stroke="white" stroke-width="1.5" d="M0,-3.0v7 M-2.5,-0.5L0,-3.0L2.5,-0.5"/>
                </g>
                <g id="arrowDown" xlink:href="#dirArrow" transform="rotate(180) translate(-30 -48)" onmousedown="handlePan(0,1)">
                  <use xlink:href="#rim" fill="#404040">
                        <set attributeName="fill" to="#808080" begin="arrowDown.mouseover" end="arrowDown.mouseout"/>
                  </use>
                  <path fill="none" stroke="white" stroke-width="1.5" d="M0,-3.0v7 M-2.5,-0.5L0,-3.0L2.5,-0.5"/>
                </g>
                <g id="arrowLeft" xlink:href="#dirArrow" transform="rotate(270) translate(-36 17)" onmousedown="handlePan(-1,0)">
                  <use xlink:href="#rim" fill="#404040">
                        <set attributeName="fill" to="#808080" begin="arrowLeft.mouseover" end="arrowLeft.mouseout"/>
                  </use>
                  <path fill="none" stroke="white" stroke-width="1.5" d="M0,-3.0v7 M-2.5,-0.5L0,-3.0L2.5,-0.5"/>
                </g>
        </g>
        <svg viewBox="0 0 15 15" width="100%" height="30px" preserveAspectRatio="xMaxYMin meet">
         <g id="arrow_out" transform="scale(0.3 0.3)">
          <a xlink:href="helios__code_8h__dep__incl_org.svg" target="_base">
           <rect id="button" ry="5" rx="5" y="6" x="6" height="38" width="38"
                fill="#f2f5e9" fill-opacity="0.5" stroke="#606060" stroke-width="1.0"/>
           <path id="arrow"
             d="M 11.500037,31.436501 C 11.940474,20.09759 22.043105,11.32322 32.158766,21.979434 L 37.068811,17.246167 C 37.068811,17.246167 37.088388,32 37.088388,32 L 22.160133,31.978069 C 22.160133,31.978069 26.997745,27.140456 26.997745,27.140456 C 18.528582,18.264221 13.291696,25.230495 11.500037,31.436501 z"
             style="fill:#404040;"/>
          </a>
         </g>
        </svg>
</svg>
