<?xml version="1.0" encoding="UTF-8" standalone="no"?>
<!DOCTYPE svg PUBLIC "-//W3C//DTD SVG 1.1//EN"
 "http://www.w3.org/Graphics/SVG/1.1/DTD/svg11.dtd">
<!-- Generated by graphviz version 2.40.1 (20161225.0304)
 -->
<!-- Title: builtins/object/include/helios_object.h Pages: 1 -->
<!--zoomable 430 -->
<svg id="main" version="1.1" xmlns="http://www.w3.org/2000/svg" xmlns:xlink="http://www.w3.org/1999/xlink" xml:space="preserve" onload="init(evt)">
<style type="text/css"><![CDATA[
.edge:hover path { stroke: red; }
.edge:hover polygon { stroke: red; fill: red; }
]]></style>
<script type="text/javascript"><![CDATA[
var edges = document.getElementsByTagName('g');
if (edges && edges.length) {
  for (var i=0;i<edges.length;i++) {
    if (edges[i].id.substr(0,4)=='edge') {
      edges[i].setAttribute('class','edge');
    }
  }
}
]]></script>
        <defs>
                <circle id="rim" cx="0" cy="0" r="7"/>
                <circle id="rim2" cx="0" cy="0" r="3.5"/>
                <g id="zoomPlus">
                        <use xlink:href="#rim" fill="#404040">
                                <set attributeName="fill" to="#808080" begin="zoomplus.mouseover" end="zoomplus.mouseout"/>
                        </use>
                        <path d="M-4,0h8M0,-4v8" fill="none" stroke="white" stroke-width="1.5" pointer-events="none"/>
                </g>
                <g id="zoomMin">
                        <use xlink:href="#rim" fill="#404040">
                                <set attributeName="fill" to="#808080" begin="zoomminus.mouseover" end="zoomminus.mouseout"/>
                        </use>
                        <path d="M-4,0h8" fill="none" stroke="white" stroke-width="1.5" pointer-events="none"/>
                </g>
                <g id="dirArrow">
                        <path fill="none" stroke="white" stroke-width="1.5" d="M0,-3.0v7 M-2.5,-0.5L0,-3.0L2.5,-0.5"/>
                </g>
               <g id="resetDef">
                       <use xlink:href="#rim2" fill="#404040">
                               <set attributeName="fill" to="#808080" begin="reset.mouseover" end="reset.mouseout"/>
                       </use>
               </g>
        </defs>

<script type="text/javascript">
var viewWidth = 1340;
var viewHeight = 430;
var sectionId = 'dynsection-1';
</script>
<script xlink:href="svgpan.js"/>
<svg id="graph" class="graph">
<g id="viewport">
<title>builtins/object/include/helios_object.h</title>
<polygon fill="#ffffff" stroke="transparent" points="-4,4 -4,-426 1336,-426 1336,4 -4,4"/>
<!-- Node8 -->
<g id="node1" class="node">
<title>Node8</title>
<g id="a_node1"><a xlink:title=" ">
<polygon fill="#bfbfbf" stroke="#000000" points="625,-391.5 625,-421.5 735,-421.5 735,-391.5 625,-391.5"/>
<text text-anchor="start" x="633" y="-409.5" font-family="Helvetica,sans-Serif" font-size="10.00" fill="#000000">builtins/object/include</text>
<text text-anchor="middle" x="680" y="-398.5" font-family="Helvetica,sans-Serif" font-size="10.00" fill="#000000">/helios_object.h</text>
</a>
</g>
</g>
<!-- Node9 -->
<g id="node2" class="node">
<title>Node9</title>
<g id="a_node2"><a xlink:href="helios__code_8c.html" target="_top" xlink:title=" ">
<polygon fill="#ffffff" stroke="#000000" points="0,-67.5 0,-97.5 100,-97.5 100,-67.5 0,-67.5"/>
<text text-anchor="start" x="8" y="-85.5" font-family="Helvetica,sans-Serif" font-size="10.00" fill="#000000">builtins/code/helios</text>
<text text-anchor="middle" x="50" y="-74.5" font-family="Helvetica,sans-Serif" font-size="10.00" fill="#000000">_code.c</text>
</a>
</g>
</g>
<!-- Node8&#45;&gt;Node9 -->
<g id="edge1" class="edge">
<title>Node8&#45;&gt;Node9</title>
<path fill="none" stroke="#191970" d="M614.6431,-405.4848C461.519,-402.5046 89.2736,-391.5424 47,-355 18.5345,-330.3937 28,-310.1265 28,-272.5 28,-272.5 28,-272.5 28,-205.5 28,-166.2356 38.9977,-121.0066 45.4416,-97.8754"/>
<polygon fill="#191970" stroke="#191970" points="614.7799,-408.9879 624.8444,-405.6778 614.9124,-401.9892 614.7799,-408.9879"/>
</g>
<!-- Node10 -->
<g id="node3" class="node">
<title>Node10</title>
<g id="a_node3"><a xlink:href="helios__instruction_8c.html" target="_top" xlink:title=" ">
<polygon fill="#ffffff" stroke="#000000" points="118,-67.5 118,-97.5 218,-97.5 218,-67.5 118,-67.5"/>
<text text-anchor="start" x="126" y="-85.5" font-family="Helvetica,sans-Serif" font-size="10.00" fill="#000000">builtins/code/helios</text>
<text text-anchor="middle" x="168" y="-74.5" font-family="Helvetica,sans-Serif" font-size="10.00" fill="#000000">_instruction.c</text>
</a>
</g>
</g>
<!-- Node8&#45;&gt;Node10 -->
<g id="edge2" class="edge">
<title>Node8&#45;&gt;Node10</title>
<path fill="none" stroke="#191970" d="M614.8274,-402.4552C487.359,-392.9165 213.3266,-363.8281 166,-288 127.7462,-226.7086 151.2625,-133.7996 162.7623,-97.6434"/>
<polygon fill="#191970" stroke="#191970" points="614.625,-405.9496 624.8535,-403.1877 615.1351,-398.9682 614.625,-405.9496"/>
</g>
<!-- Node11 -->
<g id="node4" class="node">
<title>Node11</title>
<g id="a_node4"><a xlink:href="helios__code_8h.html" target="_top" xlink:title=" ">
<polygon fill="#ffffff" stroke="#000000" points="56.5,-324.5 56.5,-354.5 161.5,-354.5 161.5,-324.5 56.5,-324.5"/>
<text text-anchor="start" x="64.5" y="-342.5" font-family="Helvetica,sans-Serif" font-size="10.00" fill="#000000">builtins/code/include</text>
<text text-anchor="middle" x="109" y="-331.5" font-family="Helvetica,sans-Serif" font-size="10.00" fill="#000000">/helios_code.h</text>
</a>
</g>
</g>
<!-- Node8&#45;&gt;Node11 -->
<g id="edge3" class="edge">
<title>Node8&#45;&gt;Node11</title>
<path fill="none" stroke="#191970" d="M614.706,-402.457C518.2831,-395.8932 332.3408,-380.9665 176,-355 171.2889,-354.2175 166.4142,-353.3012 161.5422,-352.3119"/>
<polygon fill="#191970" stroke="#191970" points="614.6715,-405.9625 624.8838,-403.1413 615.1412,-398.9782 614.6715,-405.9625"/>
</g>
<!-- Node12 -->
<g id="node5" class="node">
<title>Node12</title>
<g id="a_node5"><a xlink:href="builtins_8h.html" target="_top" xlink:title=" ">
<polygon fill="#ffffff" stroke="#000000" points="684.5,-263 684.5,-282 807.5,-282 807.5,-263 684.5,-263"/>
<text text-anchor="middle" x="746" y="-270" font-family="Helvetica,sans-Serif" font-size="10.00" fill="#000000">builtins/include/builtins.h</text>
</a>
</g>
</g>
<!-- Node8&#45;&gt;Node12 -->
<g id="edge53" class="edge">
<title>Node8&#45;&gt;Node12</title>
<path fill="none" stroke="#191970" d="M745.1805,-389.6843C776.0417,-380.2727 808.0918,-367.8655 817,-355 824.8432,-343.6726 823.2598,-336.2737 817,-324 806.9682,-304.3304 785.5226,-290.4208 768.8113,-282.0564"/>
<polygon fill="#191970" stroke="#191970" points="743.827,-386.4348 735.2333,-392.6315 745.8156,-393.1465 743.827,-386.4348"/>
</g>
<!-- Node29 -->
<g id="node22" class="node">
<title>Node29</title>
<g id="a_node22"><a xlink:href="helios__float_8c.html" target="_top" xlink:title=" ">
<polygon fill="#ffffff" stroke="#000000" points="335,-257.5 335,-287.5 433,-287.5 433,-257.5 335,-257.5"/>
<text text-anchor="start" x="343" y="-275.5" font-family="Helvetica,sans-Serif" font-size="10.00" fill="#000000">builtins/float/helios</text>
<text text-anchor="middle" x="384" y="-264.5" font-family="Helvetica,sans-Serif" font-size="10.00" fill="#000000">_float.c</text>
</a>
</g>
</g>
<!-- Node8&#45;&gt;Node29 -->
<g id="edge42" class="edge">
<title>Node8&#45;&gt;Node29</title>
<path fill="none" stroke="#191970" d="M614.8076,-404.0724C538.3207,-399.7323 418.2024,-387.7575 389,-355 372.672,-336.6842 375.9263,-306.0271 379.8874,-287.6881"/>
<polygon fill="#191970" stroke="#191970" points="614.6602,-407.5694 624.8339,-404.612 615.0365,-400.5795 614.6602,-407.5694"/>
</g>
<!-- Node30 -->
<g id="node23" class="node">
<title>Node30</title>
<g id="a_node23"><a xlink:href="helios__float__math_8c.html" target="_top" xlink:title=" ">
<polygon fill="#ffffff" stroke="#000000" points="952,-257.5 952,-287.5 1050,-287.5 1050,-257.5 952,-257.5"/>
<text text-anchor="start" x="960" y="-275.5" font-family="Helvetica,sans-Serif" font-size="10.00" fill="#000000">builtins/float/helios</text>
<text text-anchor="middle" x="1001" y="-264.5" font-family="Helvetica,sans-Serif" font-size="10.00" fill="#000000">_float_math.c</text>
</a>
</g>
</g>
<!-- Node8&#45;&gt;Node30 -->
<g id="edge43" class="edge">
<title>Node8&#45;&gt;Node30</title>
<path fill="none" stroke="#191970" d="M745.1281,-401.3259C840.017,-393.1185 1007.0004,-375.8859 1025,-355 1041.5546,-335.7908 1025.5391,-305.7131 1012.9105,-287.6724"/>
<polygon fill="#191970" stroke="#191970" points="744.7191,-397.848 735.0534,-402.1868 745.3152,-404.8226 744.7191,-397.848"/>
</g>
<!-- Node31 -->
<g id="node24" class="node">
<title>Node31</title>
<g id="a_node24"><a xlink:href="helios__float_8h.html" target="_top" xlink:title=" ">
<polygon fill="#ffffff" stroke="#000000" points="562.5,-324.5 562.5,-354.5 665.5,-354.5 665.5,-324.5 562.5,-324.5"/>
<text text-anchor="start" x="570.5" y="-342.5" font-family="Helvetica,sans-Serif" font-size="10.00" fill="#000000">builtins/float/include</text>
<text text-anchor="middle" x="614" y="-331.5" font-family="Helvetica,sans-Serif" font-size="10.00" fill="#000000">/helios_float.h</text>
</a>
</g>
</g>
<!-- Node8&#45;&gt;Node31 -->
<g id="edge44" class="edge">
<title>Node8&#45;&gt;Node31</title>
<path fill="none" stroke="#191970" d="M657.7622,-383.9253C648.2637,-374.2828 637.4293,-363.2843 628.9172,-354.6432"/>
<polygon fill="#191970" stroke="#191970" points="655.5124,-386.6288 665.0236,-391.2967 660.4993,-381.7164 655.5124,-386.6288"/>
</g>
<!-- Node32 -->
<g id="node25" class="node">
<title>Node32</title>
<g id="a_node25"><a xlink:href="strtod_8c.html" target="_top" xlink:title=" ">
<polygon fill="#ffffff" stroke="#000000" points="489.5,-263 489.5,-282 594.5,-282 594.5,-263 489.5,-263"/>
<text text-anchor="middle" x="542" y="-270" font-family="Helvetica,sans-Serif" font-size="10.00" fill="#000000">builtins/float/strtod.c</text>
</a>
</g>
</g>
<!-- Node8&#45;&gt;Node32 -->
<g id="edge50" class="edge">
<title>Node8&#45;&gt;Node32</title>
<path fill="none" stroke="#191970" d="M615.2949,-394.0008C592.6301,-386.4178 569.0931,-374.3028 554,-355 537.1501,-333.4504 538.6394,-298.7527 540.5731,-282.0668"/>
<polygon fill="#191970" stroke="#191970" points="614.34,-397.369 624.9278,-396.9809 616.4089,-390.6817 614.34,-397.369"/>
</g>
<!-- Node33 -->
<g id="node26" class="node">
<title>Node33</title>
<g id="a_node26"><a xlink:href="helios__integer__math_8c.html" target="_top" xlink:title=" ">
<polygon fill="#ffffff" stroke="#000000" points="1068,-257.5 1068,-287.5 1176,-287.5 1176,-257.5 1068,-257.5"/>
<text text-anchor="start" x="1076" y="-275.5" font-family="Helvetica,sans-Serif" font-size="10.00" fill="#000000">builtins/integer/helios</text>
<text text-anchor="middle" x="1122" y="-264.5" font-family="Helvetica,sans-Serif" font-size="10.00" fill="#000000">_integer_math.c</text>
</a>
</g>
</g>
<!-- Node8&#45;&gt;Node33 -->
<g id="edge55" class="edge">
<title>Node8&#45;&gt;Node33</title>
<path fill="none" stroke="#191970" d="M745.3862,-402.2804C835.2323,-395.6252 991.4815,-380.7284 1042,-355 1072.9342,-339.2456 1098.7753,-306.7944 1112.1558,-287.6217"/>
<polygon fill="#191970" stroke="#191970" points="745.024,-398.7974 735.3041,-403.0133 745.5316,-405.779 745.024,-398.7974"/>
</g>
<!-- Node34 -->
<g id="node27" class="node">
<title>Node34</title>
<g id="a_node27"><a xlink:href="helios__hashmap_8h.html" target="_top" xlink:title=" ">
<polygon fill="#ffffff" stroke="#000000" points="684,-324.5 684,-354.5 808,-354.5 808,-324.5 684,-324.5"/>
<text text-anchor="start" x="692" y="-342.5" font-family="Helvetica,sans-Serif" font-size="10.00" fill="#000000">builtins/hashmap/include</text>
<text text-anchor="middle" x="746" y="-331.5" font-family="Helvetica,sans-Serif" font-size="10.00" fill="#000000">/helios_hashmap.h</text>
</a>
</g>
</g>
<!-- Node8&#45;&gt;Node34 -->
<g id="edge51" class="edge">
<title>Node8&#45;&gt;Node34</title>
<path fill="none" stroke="#191970" d="M702.2378,-383.9253C711.7363,-374.2828 722.5707,-363.2843 731.0828,-354.6432"/>
<polygon fill="#191970" stroke="#191970" points="699.5007,-381.7164 694.9764,-391.2967 704.4876,-386.6288 699.5007,-381.7164"/>
</g>
<!-- Node35 -->
<g id="node28" class="node">
<title>Node35</title>
<g id="a_node28"><a xlink:href="helios__integer_8c.html" target="_top" xlink:title=" ">
<polygon fill="#ffffff" stroke="#000000" points="826,-257.5 826,-287.5 934,-287.5 934,-257.5 826,-257.5"/>
<text text-anchor="start" x="834" y="-275.5" font-family="Helvetica,sans-Serif" font-size="10.00" fill="#000000">builtins/integer/helios</text>
<text text-anchor="middle" x="880" y="-264.5" font-family="Helvetica,sans-Serif" font-size="10.00" fill="#000000">_integer.c</text>
</a>
</g>
</g>
<!-- Node8&#45;&gt;Node35 -->
<g id="edge54" class="edge">
<title>Node8&#45;&gt;Node35</title>
<path fill="none" stroke="#191970" d="M745.127,-395.5733C774.4547,-388.0575 808.0207,-375.5669 833,-355 854.7609,-337.083 868.4212,-306.2919 875.0934,-287.82"/>
<polygon fill="#191970" stroke="#191970" points="744.2585,-392.1824 735.3621,-397.9359 745.9047,-398.9861 744.2585,-392.1824"/>
</g>
<!-- Node36 -->
<g id="node29" class="node">
<title>Node36</title>
<g id="a_node29"><a xlink:href="helios__integer_8h.html" target="_top" xlink:title=" ">
<polygon fill="#ffffff" stroke="#000000" points="902.5,-324.5 902.5,-354.5 1015.5,-354.5 1015.5,-324.5 902.5,-324.5"/>
<text text-anchor="start" x="910.5" y="-342.5" font-family="Helvetica,sans-Serif" font-size="10.00" fill="#000000">builtins/integer/include</text>
<text text-anchor="middle" x="959" y="-331.5" font-family="Helvetica,sans-Serif" font-size="10.00" fill="#000000">/helios_integer.h</text>
</a>
</g>
</g>
<!-- Node8&#45;&gt;Node36 -->
<g id="edge56" class="edge">
<title>Node8&#45;&gt;Node36</title>
<path fill="none" stroke="#191970" d="M745.0124,-390.8877C792.5859,-379.4632 856.5136,-364.1114 902.0776,-353.1695"/>
<polygon fill="#191970" stroke="#191970" points="744.0277,-387.5246 735.1214,-393.263 745.6623,-394.3311 744.0277,-387.5246"/>
</g>
<!-- Node37 -->
<g id="node30" class="node">
<title>Node37</title>
<g id="a_node30"><a xlink:href="helios__object_8c.html" target="_top" xlink:title=" ">
<polygon fill="#ffffff" stroke="#000000" points="1110.5,-324.5 1110.5,-354.5 1215.5,-354.5 1215.5,-324.5 1110.5,-324.5"/>
<text text-anchor="start" x="1118.5" y="-342.5" font-family="Helvetica,sans-Serif" font-size="10.00" fill="#000000">builtins/object/helios</text>
<text text-anchor="middle" x="1163" y="-331.5" font-family="Helvetica,sans-Serif" font-size="10.00" fill="#000000">_object.c</text>
</a>
</g>
</g>
<!-- Node8&#45;&gt;Node37 -->
<g id="edge61" class="edge">
<title>Node8&#45;&gt;Node37</title>
<path fill="none" stroke="#191970" d="M745.3102,-400.5396C827.4986,-392.5519 972.82,-376.812 1096,-355 1100.7025,-354.1673 1105.5712,-353.2164 1110.4394,-352.2046"/>
<polygon fill="#191970" stroke="#191970" points="744.7358,-397.0786 735.1177,-401.5218 745.4074,-404.0463 744.7358,-397.0786"/>
</g>
<!-- Node38 -->
<g id="node31" class="node">
<title>Node38</title>
<g id="a_node31"><a xlink:href="helios__string_8c.html" target="_top" xlink:title=" ">
<polygon fill="#ffffff" stroke="#000000" points="175.5,-257.5 175.5,-287.5 278.5,-287.5 278.5,-257.5 175.5,-257.5"/>
<text text-anchor="start" x="183.5" y="-275.5" font-family="Helvetica,sans-Serif" font-size="10.00" fill="#000000">builtins/string/helios</text>
<text text-anchor="middle" x="227" y="-264.5" font-family="Helvetica,sans-Serif" font-size="10.00" fill="#000000">_string.c</text>
</a>
</g>
</g>
<!-- Node8&#45;&gt;Node38 -->
<g id="edge62" class="edge">
<title>Node8&#45;&gt;Node38</title>
<path fill="none" stroke="#191970" d="M614.527,-402.1351C551.2219,-396.3901 453.3499,-383.4473 373,-355 325.5206,-338.1903 275.5372,-306.4238 248.1171,-287.5923"/>
<polygon fill="#191970" stroke="#191970" points="614.5028,-405.6462 624.7693,-403.0291 615.1115,-398.6727 614.5028,-405.6462"/>
</g>
<!-- Node39 -->
<g id="node32" class="node">
<title>Node39</title>
<g id="a_node32"><a xlink:href="helios__string_8h.html" target="_top" xlink:title=" ">
<polygon fill="#ffffff" stroke="#000000" points="398,-324.5 398,-354.5 506,-354.5 506,-324.5 398,-324.5"/>
<text text-anchor="start" x="406" y="-342.5" font-family="Helvetica,sans-Serif" font-size="10.00" fill="#000000">builtins/string/include</text>
<text text-anchor="middle" x="452" y="-331.5" font-family="Helvetica,sans-Serif" font-size="10.00" fill="#000000">/helios_string.h</text>
</a>
</g>
</g>
<!-- Node8&#45;&gt;Node39 -->
<g id="edge63" class="edge">
<title>Node8&#45;&gt;Node39</title>
<path fill="none" stroke="#191970" d="M618.911,-388.5484C582.8218,-377.9432 537.6413,-364.6665 503.3908,-354.6017"/>
<polygon fill="#191970" stroke="#191970" points="618.2512,-392.0025 628.8323,-391.4639 620.2248,-385.2864 618.2512,-392.0025"/>
</g>
<!-- Node40 -->
<g id="node33" class="node">
<title>Node40</title>
<g id="a_node33"><a xlink:href="refcount_8c.html" target="_top" xlink:title=" ">
<polygon fill="#ffffff" stroke="#000000" points="1234,-330 1234,-349 1332,-349 1332,-330 1234,-330"/>
<text text-anchor="middle" x="1283" y="-337" font-family="Helvetica,sans-Serif" font-size="10.00" fill="#000000">memory/refcount.c</text>
</a>
</g>
</g>
<!-- Node8&#45;&gt;Node40 -->
<g id="edge71" class="edge">
<title>Node8&#45;&gt;Node40</title>
<path fill="none" stroke="#191970" d="M745.5647,-403.8409C848.4096,-398.8776 1053.6211,-385.7747 1225,-355 1233.5147,-353.471 1242.605,-351.3041 1251.0026,-349.0737"/>
<polygon fill="#191970" stroke="#191970" points="745.16,-400.356 735.3363,-404.3239 745.4902,-407.3482 745.16,-400.356"/>
</g>
<!-- Node11&#45;&gt;Node9 -->
<g id="edge4" class="edge">
<title>Node11&#45;&gt;Node9</title>
<path fill="none" stroke="#191970" d="M101.8856,-314.3203C99.5976,-305.9673 97.1104,-296.6051 95,-288 77.6014,-217.0575 59.9223,-131.5354 53.0202,-97.5142"/>
<polygon fill="#191970" stroke="#191970" points="98.5882,-315.5276 104.6339,-324.2282 105.3335,-313.6565 98.5882,-315.5276"/>
</g>
<!-- Node11&#45;&gt;Node10 -->
<g id="edge5" class="edge">
<title>Node11&#45;&gt;Node10</title>
<path fill="none" stroke="#191970" d="M108.1502,-314.3982C107.6309,-274.7648 109.9631,-195.8424 133,-134 137.9812,-120.628 147.131,-107.3536 154.8261,-97.6314"/>
<polygon fill="#191970" stroke="#191970" points="104.6527,-314.5621 108.3574,-324.4881 111.6513,-314.4183 104.6527,-314.5621"/>
</g>
<!-- Node11&#45;&gt;Node12 -->
<g id="edge6" class="edge">
<title>Node11&#45;&gt;Node12</title>
<path fill="none" stroke="#191970" d="M171.9514,-333.0535C265.9924,-323.3999 448.7307,-304.5512 604,-288 630.3857,-285.1874 659.5217,-282.0181 684.4994,-279.2817"/>
<polygon fill="#191970" stroke="#191970" points="171.3459,-329.5971 161.7554,-334.0998 172.0605,-336.5606 171.3459,-329.5971"/>
</g>
<!-- Node13 -->
<g id="node6" class="node">
<title>Node13</title>
<g id="a_node6"><a xlink:href="serialize_8c.html" target="_top" xlink:title=" ">
<polygon fill="#ffffff" stroke="#000000" points="1141,-190.5 1141,-220.5 1243,-220.5 1243,-190.5 1141,-190.5"/>
<text text-anchor="start" x="1149" y="-208.5" font-family="Helvetica,sans-Serif" font-size="10.00" fill="#000000">builtins/serialization</text>
<text text-anchor="middle" x="1192" y="-197.5" font-family="Helvetica,sans-Serif" font-size="10.00" fill="#000000">/serialize.c</text>
</a>
</g>
</g>
<!-- Node12&#45;&gt;Node13 -->
<g id="edge7" class="edge">
<title>Node12&#45;&gt;Node13</title>
<path fill="none" stroke="#191970" d="M796.3993,-260.8521C803.3008,-259.4462 810.3109,-258.1157 817,-257 953.8136,-234.1801 990.4112,-245.129 1127,-221 1131.4555,-220.2129 1136.0619,-219.3059 1140.6701,-218.3338"/>
<polygon fill="#191970" stroke="#191970" points="795.4824,-257.4683 786.4157,-262.9496 796.9217,-264.3187 795.4824,-257.4683"/>
</g>
<!-- Node14 -->
<g id="node7" class="node">
<title>Node14</title>
<g id="a_node7"><a xlink:href="executestack_8c.html" target="_top" xlink:title=" ">
<polygon fill="#ffffff" stroke="#000000" points="962.5,-134.5 962.5,-153.5 1067.5,-153.5 1067.5,-134.5 962.5,-134.5"/>
<text text-anchor="middle" x="1015" y="-141.5" font-family="Helvetica,sans-Serif" font-size="10.00" fill="#000000">hvm/executestack.c</text>
</a>
</g>
</g>
<!-- Node12&#45;&gt;Node14 -->
<g id="edge8" class="edge">
<title>Node12&#45;&gt;Node14</title>
<path fill="none" stroke="#191970" d="M791.5808,-260.1007C821.3126,-251.1585 860.4898,-237.7345 893,-221 914.2693,-210.0517 916.9031,-202.9754 937,-190 957.4717,-176.7826 981.7476,-162.7074 997.7164,-153.6585"/>
<polygon fill="#191970" stroke="#191970" points="790.4853,-256.7746 781.8832,-262.9597 792.4649,-263.4889 790.4853,-256.7746"/>
</g>
<!-- Node15 -->
<g id="node8" class="node">
<title>Node15</title>
<g id="a_node8"><a xlink:href="hvm_8c.html" target="_top" xlink:title=" ">
<polygon fill="#ffffff" stroke="#000000" points="1085.5,-134.5 1085.5,-153.5 1150.5,-153.5 1150.5,-134.5 1085.5,-134.5"/>
<text text-anchor="middle" x="1118" y="-141.5" font-family="Helvetica,sans-Serif" font-size="10.00" fill="#000000">hvm/hvm.c</text>
</a>
</g>
</g>
<!-- Node12&#45;&gt;Node15 -->
<g id="edge9" class="edge">
<title>Node12&#45;&gt;Node15</title>
<path fill="none" stroke="#191970" d="M796.6726,-260.8842C803.4882,-259.4843 810.4022,-258.1467 817,-257 878.1564,-246.3706 1046.4816,-260.9386 1094,-221 1114.2591,-203.9725 1117.6858,-170.1176 1118.0918,-153.563"/>
<polygon fill="#191970" stroke="#191970" points="795.8685,-257.4767 786.8059,-262.9649 797.3129,-264.3261 795.8685,-257.4767"/>
</g>
<!-- Node16 -->
<g id="node9" class="node">
<title>Node16</title>
<g id="a_node9"><a xlink:href="executestack_8h.html" target="_top" xlink:title=" ">
<polygon fill="#ffffff" stroke="#000000" points="945.5,-196 945.5,-215 1084.5,-215 1084.5,-196 945.5,-196"/>
<text text-anchor="middle" x="1015" y="-203" font-family="Helvetica,sans-Serif" font-size="10.00" fill="#000000">hvm/include/executestack.h</text>
</a>
</g>
</g>
<!-- Node12&#45;&gt;Node16 -->
<g id="edge10" class="edge">
<title>Node12&#45;&gt;Node16</title>
<path fill="none" stroke="#191970" d="M794.2653,-260.4785C846.4017,-247.4929 928.4303,-227.062 976.441,-215.1039"/>
<polygon fill="#191970" stroke="#191970" points="793.1131,-257.1585 784.2555,-262.9717 794.8049,-263.951 793.1131,-257.1585"/>
</g>
<!-- Node17 -->
<g id="node10" class="node">
<title>Node17</title>
<g id="a_node10"><a xlink:href="hvm_8h.html" target="_top" xlink:title=" ">
<polygon fill="#ffffff" stroke="#000000" points="1091.5,-73 1091.5,-92 1190.5,-92 1190.5,-73 1091.5,-73"/>
<text text-anchor="middle" x="1141" y="-80" font-family="Helvetica,sans-Serif" font-size="10.00" fill="#000000">hvm/include/hvm.h</text>
</a>
</g>
</g>
<!-- Node12&#45;&gt;Node17 -->
<g id="edge13" class="edge">
<title>Node12&#45;&gt;Node17</title>
<path fill="none" stroke="#191970" d="M795.091,-260.9C802.4067,-259.4284 809.8801,-258.067 817,-257 864.963,-249.8122 1219.151,-256.6799 1252,-221 1294.2643,-175.0935 1200.2118,-115.1523 1159.055,-92.1037"/>
<polygon fill="#191970" stroke="#191970" points="794.3317,-257.483 785.261,-262.9578 795.766,-264.3345 794.3317,-257.483"/>
</g>
<!-- Node18 -->
<g id="node11" class="node">
<title>Node18</title>
<g id="a_node11"><a xlink:href="main_8c.html" target="_top" xlink:title=" ">
<polygon fill="#ffffff" stroke="#000000" points="883,-6 883,-25 953,-25 953,-6 883,-6"/>
<text text-anchor="middle" x="918" y="-13" font-family="Helvetica,sans-Serif" font-size="10.00" fill="#000000">main/main.c</text>
</a>
</g>
</g>
<!-- Node12&#45;&gt;Node18 -->
<g id="edge15" class="edge">
<title>Node12&#45;&gt;Node18</title>
<path fill="none" stroke="#191970" d="M782.2754,-259.0429C823.0278,-241.7283 887.1149,-207.3659 915,-154 937.6107,-110.7282 926.2486,-48.994 920.5749,-25.287"/>
<polygon fill="#191970" stroke="#191970" points="780.8697,-255.8365 772.9547,-262.8795 783.5342,-262.3096 780.8697,-255.8365"/>
</g>
<!-- Node19 -->
<g id="node12" class="node">
<title>Node19</title>
<g id="a_node12"><a xlink:href="token_8h.html" target="_top" xlink:title=" ">
<polygon fill="#ffffff" stroke="#000000" points="673.5,-196 673.5,-215 786.5,-215 786.5,-196 673.5,-196"/>
<text text-anchor="middle" x="730" y="-203" font-family="Helvetica,sans-Serif" font-size="10.00" fill="#000000">parser/include/token.h</text>
</a>
</g>
</g>
<!-- Node12&#45;&gt;Node19 -->
<g id="edge16" class="edge">
<title>Node12&#45;&gt;Node19</title>
<path fill="none" stroke="#191970" d="M741.34,-252.9863C738.365,-240.5286 734.639,-224.9258 732.2882,-215.0817"/>
<polygon fill="#191970" stroke="#191970" points="737.9805,-253.987 743.7076,-262.9005 744.789,-252.361 737.9805,-253.987"/>
</g>
<!-- Node28 -->
<g id="node21" class="node">
<title>Node28</title>
<g id="a_node21"><a xlink:href="token_8c.html" target="_top" xlink:title=" ">
<polygon fill="#ffffff" stroke="#000000" points="826.5,-134.5 826.5,-153.5 905.5,-153.5 905.5,-134.5 826.5,-134.5"/>
<text text-anchor="middle" x="866" y="-141.5" font-family="Helvetica,sans-Serif" font-size="10.00" fill="#000000">parser/token.c</text>
</a>
</g>
</g>
<!-- Node12&#45;&gt;Node28 -->
<g id="edge41" class="edge">
<title>Node12&#45;&gt;Node28</title>
<path fill="none" stroke="#191970" d="M762.8479,-255.4287C772.6117,-245.4656 785.0928,-232.6095 796,-221 818.5141,-197.0362 844.3962,-168.2277 857.4781,-153.5751"/>
<polygon fill="#191970" stroke="#191970" points="760.1956,-253.1342 755.6822,-262.7196 765.188,-258.0409 760.1956,-253.1342"/>
</g>
<!-- Node16&#45;&gt;Node14 -->
<g id="edge11" class="edge">
<title>Node16&#45;&gt;Node14</title>
<path fill="none" stroke="#191970" d="M1015,-185.7462C1015,-175.0519 1015,-162.314 1015,-153.7449"/>
<polygon fill="#191970" stroke="#191970" points="1011.5001,-185.8906 1015,-195.8906 1018.5001,-185.8907 1011.5001,-185.8906"/>
</g>
<!-- Node16&#45;&gt;Node15 -->
<g id="edge12" class="edge">
<title>Node16&#45;&gt;Node15</title>
<path fill="none" stroke="#191970" d="M1039.689,-190.7585C1059.0268,-179.2122 1085.3582,-163.49 1102.0193,-153.5419"/>
<polygon fill="#191970" stroke="#191970" points="1037.8854,-187.7589 1031.0938,-195.8906 1041.474,-193.7691 1037.8854,-187.7589"/>
</g>
<!-- Node17&#45;&gt;Node18 -->
<g id="edge14" class="edge">
<title>Node17&#45;&gt;Node18</title>
<path fill="none" stroke="#191970" d="M1099.3817,-69.9958C1056.0709,-56.9832 989.1923,-36.8896 949.8912,-25.0817"/>
<polygon fill="#191970" stroke="#191970" points="1098.4653,-73.375 1109.0495,-72.9005 1100.4796,-66.6711 1098.4653,-73.375"/>
</g>
<!-- Node20 -->
<g id="node13" class="node">
<title>Node20</title>
<g id="a_node13"><a xlink:href="AST_8c.html" target="_top" xlink:title=" ">
<polygon fill="#ffffff" stroke="#000000" points="313,-6 313,-25 387,-25 387,-6 313,-6"/>
<text text-anchor="middle" x="350" y="-13" font-family="Helvetica,sans-Serif" font-size="10.00" fill="#000000">parser/AST.c</text>
</a>
</g>
</g>
<!-- Node19&#45;&gt;Node20 -->
<g id="edge17" class="edge">
<title>Node19&#45;&gt;Node20</title>
<path fill="none" stroke="#191970" d="M663.2191,-200.1526C585.1291,-192.9039 461.5076,-178.0317 422,-154 373.8414,-124.7061 356.4093,-51.5831 351.5653,-25.1919"/>
<polygon fill="#191970" stroke="#191970" points="663.1743,-203.6629 673.4502,-201.083 663.8083,-196.6917 663.1743,-203.6629"/>
</g>
<!-- Node21 -->
<g id="node14" class="node">
<title>Node21</title>
<g id="a_node14"><a xlink:href="AST_8h.html" target="_top" xlink:title=" ">
<polygon fill="#ffffff" stroke="#000000" points="430.5,-134.5 430.5,-153.5 537.5,-153.5 537.5,-134.5 430.5,-134.5"/>
<text text-anchor="middle" x="484" y="-141.5" font-family="Helvetica,sans-Serif" font-size="10.00" fill="#000000">parser/include/AST.h</text>
</a>
</g>
</g>
<!-- Node19&#45;&gt;Node21 -->
<g id="edge18" class="edge">
<title>Node19&#45;&gt;Node21</title>
<path fill="none" stroke="#191970" d="M681.9514,-193.4878C635.2646,-181.8162 565.294,-164.3235 522.2571,-153.5643"/>
<polygon fill="#191970" stroke="#191970" points="681.2821,-196.9282 691.8324,-195.9581 682.9799,-190.1372 681.2821,-196.9282"/>
</g>
<!-- Node23 -->
<g id="node16" class="node">
<title>Node23</title>
<g id="a_node16"><a xlink:href="expressions_8c.html" target="_top" xlink:title=" ">
<polygon fill="#ffffff" stroke="#000000" points="519,-.5 519,-30.5 617,-30.5 617,-.5 519,-.5"/>
<text text-anchor="start" x="527" y="-18.5" font-family="Helvetica,sans-Serif" font-size="10.00" fill="#000000">parser/parserfuncs</text>
<text text-anchor="middle" x="568" y="-7.5" font-family="Helvetica,sans-Serif" font-size="10.00" fill="#000000">/expressions.c</text>
</a>
</g>
</g>
<!-- Node19&#45;&gt;Node23 -->
<g id="edge36" class="edge">
<title>Node19&#45;&gt;Node23</title>
<path fill="none" stroke="#191970" d="M714.9904,-187.8961C683.426,-150.8762 610.6457,-65.5165 580.9609,-30.7011"/>
<polygon fill="#191970" stroke="#191970" points="712.5922,-190.478 721.7437,-195.8167 717.9189,-185.9363 712.5922,-190.478"/>
</g>
<!-- Node24 -->
<g id="node17" class="node">
<title>Node24</title>
<g id="a_node17"><a xlink:href="floats_8c.html" target="_top" xlink:title=" ">
<polygon fill="#ffffff" stroke="#000000" points="197,-.5 197,-30.5 295,-30.5 295,-.5 197,-.5"/>
<text text-anchor="start" x="205" y="-18.5" font-family="Helvetica,sans-Serif" font-size="10.00" fill="#000000">parser/parserfuncs</text>
<text text-anchor="middle" x="246" y="-7.5" font-family="Helvetica,sans-Serif" font-size="10.00" fill="#000000">/floats.c</text>
</a>
</g>
</g>
<!-- Node19&#45;&gt;Node24 -->
<g id="edge37" class="edge">
<title>Node19&#45;&gt;Node24</title>
<path fill="none" stroke="#191970" d="M663.0213,-199.2316C579.4898,-190.7209 441.949,-174.2266 395,-154 331.7509,-126.751 278.4058,-60.6543 256.5746,-30.7022"/>
<polygon fill="#191970" stroke="#191970" points="662.8806,-202.7351 673.181,-200.2546 663.582,-195.7703 662.8806,-202.7351"/>
</g>
<!-- Node25 -->
<g id="node18" class="node">
<title>Node25</title>
<g id="a_node18"><a xlink:href="integers_8c.html" target="_top" xlink:title=" ">
<polygon fill="#ffffff" stroke="#000000" points="751,-.5 751,-30.5 849,-30.5 849,-.5 751,-.5"/>
<text text-anchor="start" x="759" y="-18.5" font-family="Helvetica,sans-Serif" font-size="10.00" fill="#000000">parser/parserfuncs</text>
<text text-anchor="middle" x="800" y="-7.5" font-family="Helvetica,sans-Serif" font-size="10.00" fill="#000000">/integers.c</text>
</a>
</g>
</g>
<!-- Node19&#45;&gt;Node25 -->
<g id="edge38" class="edge">
<title>Node19&#45;&gt;Node25</title>
<path fill="none" stroke="#191970" d="M740.6474,-187.1773C745.9948,-177.5117 752.3146,-165.3355 757,-154 774.985,-110.4888 789.6392,-56.6433 796.2321,-30.7781"/>
<polygon fill="#191970" stroke="#191970" points="737.6005,-185.455 735.7207,-195.8818 743.6924,-188.903 737.6005,-185.455"/>
</g>
<!-- Node26 -->
<g id="node19" class="node">
<title>Node26</title>
<g id="a_node19"><a xlink:href="parser_8c.html" target="_top" xlink:title=" ">
<polygon fill="#ffffff" stroke="#000000" points="635,-.5 635,-30.5 733,-30.5 733,-.5 635,-.5"/>
<text text-anchor="start" x="643" y="-18.5" font-family="Helvetica,sans-Serif" font-size="10.00" fill="#000000">parser/parserfuncs</text>
<text text-anchor="middle" x="684" y="-7.5" font-family="Helvetica,sans-Serif" font-size="10.00" fill="#000000">/parser.c</text>
</a>
</g>
</g>
<!-- Node19&#45;&gt;Node26 -->
<g id="edge39" class="edge">
<title>Node19&#45;&gt;Node26</title>
<path fill="none" stroke="#191970" d="M735.8732,-185.9692C743.1038,-158.2957 752.5286,-106.6326 736,-67 729.8866,-52.3412 717.3456,-39.7191 706.1114,-30.6396"/>
<polygon fill="#191970" stroke="#191970" points="732.4054,-185.3741 733.0832,-195.9472 739.1469,-187.2592 732.4054,-185.3741"/>
</g>
<!-- Node19&#45;&gt;Node28 -->
<g id="edge40" class="edge">
<title>Node19&#45;&gt;Node28</title>
<path fill="none" stroke="#191970" d="M760.5402,-191.6895C786.2352,-180.0701 822.3028,-163.7601 844.8992,-153.5419"/>
<polygon fill="#191970" stroke="#191970" points="758.9195,-188.5811 751.25,-195.8906 761.8038,-194.9593 758.9195,-188.5811"/>
</g>
<!-- Node21&#45;&gt;Node9 -->
<g id="edge19" class="edge">
<title>Node21&#45;&gt;Node9</title>
<path fill="none" stroke="#191970" d="M420.0191,-138.7991C345.0445,-132.0946 217.2829,-118.7668 109,-98 106.0877,-97.4415 103.1066,-96.8197 100.1067,-96.1552"/>
<polygon fill="#191970" stroke="#191970" points="419.9715,-142.3084 430.2405,-139.7012 420.587,-135.3355 419.9715,-142.3084"/>
</g>
<!-- Node21&#45;&gt;Node10 -->
<g id="edge20" class="edge">
<title>Node21&#45;&gt;Node10</title>
<path fill="none" stroke="#191970" d="M424.9606,-132.5097C365.3857,-120.9153 274.3903,-103.2057 218.1884,-92.2677"/>
<polygon fill="#191970" stroke="#191970" points="424.4872,-135.9832 434.9717,-134.4581 425.8245,-129.1121 424.4872,-135.9832"/>
</g>
<!-- Node21&#45;&gt;Node18 -->
<g id="edge21" class="edge">
<title>Node21&#45;&gt;Node18</title>
<path fill="none" stroke="#191970" d="M530.1986,-131.7967C564.0128,-122.7563 610.9604,-109.9791 652,-98 738.0977,-72.8688 839.0866,-40.8409 888.1798,-25.1064"/>
<polygon fill="#191970" stroke="#191970" points="528.9076,-128.5186 520.1473,-134.4774 530.7115,-135.2822 528.9076,-128.5186"/>
</g>
<!-- Node21&#45;&gt;Node20 -->
<g id="edge22" class="edge">
<title>Node21&#45;&gt;Node20</title>
<path fill="none" stroke="#191970" d="M455.2963,-129.5952C440.785,-121.4961 423.4491,-110.5061 410,-98 385.6174,-75.327 364.6884,-41.4622 355.2901,-25.0712"/>
<polygon fill="#191970" stroke="#191970" points="453.8931,-132.8151 464.3552,-134.4869 457.2191,-126.6558 453.8931,-132.8151"/>
</g>
<!-- Node22 -->
<g id="node15" class="node">
<title>Node22</title>
<g id="a_node15"><a xlink:href="parser_8h.html" target="_top" xlink:title=" ">
<polygon fill="#ffffff" stroke="#000000" points="426.5,-73 426.5,-92 541.5,-92 541.5,-73 426.5,-73"/>
<text text-anchor="middle" x="484" y="-80" font-family="Helvetica,sans-Serif" font-size="10.00" fill="#000000">parser/include/parser.h</text>
</a>
</g>
</g>
<!-- Node21&#45;&gt;Node22 -->
<g id="edge23" class="edge">
<title>Node21&#45;&gt;Node22</title>
<path fill="none" stroke="#191970" d="M484,-124.2462C484,-113.5519 484,-100.814 484,-92.2449"/>
<polygon fill="#191970" stroke="#191970" points="480.5001,-124.3906 484,-134.3906 487.5001,-124.3907 480.5001,-124.3906"/>
</g>
<!-- Node21&#45;&gt;Node23 -->
<g id="edge31" class="edge">
<title>Node21&#45;&gt;Node23</title>
<path fill="none" stroke="#191970" d="M514.8472,-129.5598C527.9051,-121.9408 542.1216,-111.3703 551,-98 564.5906,-77.5333 567.6648,-48.3994 568.1724,-30.7882"/>
<polygon fill="#191970" stroke="#191970" points="513.1648,-126.4906 506.0721,-134.3611 516.5248,-132.6315 513.1648,-126.4906"/>
</g>
<!-- Node21&#45;&gt;Node24 -->
<g id="edge32" class="edge">
<title>Node21&#45;&gt;Node24</title>
<path fill="none" stroke="#191970" d="M450.71,-130.6317C430.0285,-121.9957 403.0798,-110.1376 380,-98 339.6199,-76.7642 294.8992,-48.1264 268.6849,-30.7809"/>
<polygon fill="#191970" stroke="#191970" points="449.4456,-133.8962 460.0243,-134.4807 452.119,-127.4268 449.4456,-133.8962"/>
</g>
<!-- Node21&#45;&gt;Node25 -->
<g id="edge33" class="edge">
<title>Node21&#45;&gt;Node25</title>
<path fill="none" stroke="#191970" d="M521.8102,-130.9589C546.3382,-122.2304 578.8535,-110.1524 607,-98 635.6499,-85.6302 641.4709,-79.6457 670,-67 699.6282,-53.8671 733.7081,-40.4262 759.5394,-30.5699"/>
<polygon fill="#191970" stroke="#191970" points="520.4227,-127.737 512.1591,-134.3675 522.7539,-134.3375 520.4227,-127.737"/>
</g>
<!-- Node21&#45;&gt;Node26 -->
<g id="edge34" class="edge">
<title>Node21&#45;&gt;Node26</title>
<path fill="none" stroke="#191970" d="M513.1526,-129.9116C530.3317,-121.2855 552.2952,-109.688 571,-98 605.4008,-76.5041 643.0067,-47.9456 664.9967,-30.6865"/>
<polygon fill="#191970" stroke="#191970" points="511.5526,-126.7983 504.1519,-134.3799 514.6652,-133.0682 511.5526,-126.7983"/>
</g>
<!-- Node27 -->
<g id="node20" class="node">
<title>Node27</title>
<g id="a_node20"><a xlink:href="parserutil_8c.html" target="_top" xlink:title=" ">
<polygon fill="#ffffff" stroke="#000000" points="405.5,-6 405.5,-25 500.5,-25 500.5,-6 405.5,-6"/>
<text text-anchor="middle" x="453" y="-13" font-family="Helvetica,sans-Serif" font-size="10.00" fill="#000000">parser/parserutil.c</text>
</a>
</g>
</g>
<!-- Node21&#45;&gt;Node27 -->
<g id="edge35" class="edge">
<title>Node21&#45;&gt;Node27</title>
<path fill="none" stroke="#191970" d="M451.1056,-129.5194C438.3523,-122.074 425.1245,-111.6498 418,-98 404.7536,-72.6213 428.6299,-41.1048 443.1082,-25.3843"/>
<polygon fill="#191970" stroke="#191970" points="449.7492,-132.7638 460.2141,-134.4178 453.0647,-126.5988 449.7492,-132.7638"/>
</g>
<!-- Node22&#45;&gt;Node18 -->
<g id="edge24" class="edge">
<title>Node22&#45;&gt;Node18</title>
<path fill="none" stroke="#191970" d="M551.9704,-75.539C627.2174,-67.2767 751.9061,-51.9351 858,-31 866.4441,-29.3338 875.47,-27.1953 883.8895,-25.0424"/>
<polygon fill="#191970" stroke="#191970" points="551.2507,-72.0965 541.6879,-76.6577 552.0079,-79.0555 551.2507,-72.0965"/>
</g>
<!-- Node22&#45;&gt;Node20 -->
<g id="edge25" class="edge">
<title>Node22&#45;&gt;Node20</title>
<path fill="none" stroke="#191970" d="M455.8026,-68.4013C429.7779,-55.389 391.8346,-36.4173 369.1633,-25.0817"/>
<polygon fill="#191970" stroke="#191970" points="454.2915,-71.5588 464.8011,-72.9005 457.4221,-65.2978 454.2915,-71.5588"/>
</g>
<!-- Node22&#45;&gt;Node23 -->
<g id="edge26" class="edge">
<title>Node22&#45;&gt;Node23</title>
<path fill="none" stroke="#191970" d="M503.92,-66.6115C517.6219,-55.6825 535.7048,-41.2592 549.1667,-30.5218"/>
<polygon fill="#191970" stroke="#191970" points="501.6705,-63.9287 496.0352,-72.9005 506.0354,-69.4011 501.6705,-63.9287"/>
</g>
<!-- Node22&#45;&gt;Node24 -->
<g id="edge27" class="edge">
<title>Node22&#45;&gt;Node24</title>
<path fill="none" stroke="#191970" d="M440.4256,-70.2333C399.3274,-58.6636 337.8097,-41.3456 295.0184,-29.2993"/>
<polygon fill="#191970" stroke="#191970" points="439.5788,-73.6309 450.1532,-72.9717 441.4758,-66.8928 439.5788,-73.6309"/>
</g>
<!-- Node22&#45;&gt;Node25 -->
<g id="edge28" class="edge">
<title>Node22&#45;&gt;Node25</title>
<path fill="none" stroke="#191970" d="M547.2318,-71.0496C599.6125,-61.2837 675.9024,-46.4122 742,-31 744.8421,-30.3373 747.7564,-29.6341 750.693,-28.9073"/>
<polygon fill="#191970" stroke="#191970" points="546.2777,-67.6668 537.0845,-72.9334 547.5554,-74.5493 546.2777,-67.6668"/>
</g>
<!-- Node22&#45;&gt;Node26 -->
<g id="edge29" class="edge">
<title>Node22&#45;&gt;Node26</title>
<path fill="none" stroke="#191970" d="M522.4918,-69.6052C555.8308,-58.4367 604.083,-42.2722 639.1589,-30.5218"/>
<polygon fill="#191970" stroke="#191970" points="521.0254,-66.4052 512.6551,-72.9005 523.249,-73.0427 521.0254,-66.4052"/>
</g>
<!-- Node22&#45;&gt;Node27 -->
<g id="edge30" class="edge">
<title>Node22&#45;&gt;Node27</title>
<path fill="none" stroke="#191970" d="M475.3188,-63.7374C469.5,-51.1614 462.0801,-35.1246 457.4333,-25.0817"/>
<polygon fill="#191970" stroke="#191970" points="472.1828,-65.2946 479.5585,-72.9005 478.5357,-62.3552 472.1828,-65.2946"/>
</g>
<!-- Node31&#45;&gt;Node12 -->
<g id="edge48" class="edge">
<title>Node31&#45;&gt;Node12</title>
<path fill="none" stroke="#191970" d="M652.6737,-319.8702C677.1607,-307.4412 707.7423,-291.9187 727.0788,-282.1039"/>
<polygon fill="#191970" stroke="#191970" points="650.9563,-316.8168 643.6234,-324.4639 654.1246,-323.0587 650.9563,-316.8168"/>
</g>
<!-- Node31&#45;&gt;Node29 -->
<g id="edge45" class="edge">
<title>Node31&#45;&gt;Node29</title>
<path fill="none" stroke="#191970" d="M552.6011,-321.6142C515.1808,-310.7135 468.0068,-296.9715 433.0807,-286.7974"/>
<polygon fill="#191970" stroke="#191970" points="551.8037,-325.0274 562.3835,-324.4639 553.7615,-318.3067 551.8037,-325.0274"/>
</g>
<!-- Node31&#45;&gt;Node30 -->
<g id="edge46" class="edge">
<title>Node31&#45;&gt;Node30</title>
<path fill="none" stroke="#191970" d="M675.6869,-324.0145C794.7468,-301.6882 828.2588,-310.9409 943,-288 945.8617,-287.4278 948.7913,-286.7954 951.7397,-286.1227"/>
<polygon fill="#191970" stroke="#191970" points="674.9881,-320.5847 665.8225,-325.8991 676.3017,-327.4603 674.9881,-320.5847"/>
</g>
<!-- Node31&#45;&gt;Node32 -->
<g id="edge47" class="edge">
<title>Node31&#45;&gt;Node32</title>
<path fill="none" stroke="#191970" d="M590.0393,-317.2032C577.2084,-305.2634 562.0715,-291.1776 552.268,-282.055"/>
<polygon fill="#191970" stroke="#191970" points="587.9571,-320.0466 597.6621,-324.2967 592.7257,-314.9221 587.9571,-320.0466"/>
</g>
<!-- Node31&#45;&gt;Node33 -->
<g id="edge49" class="edge">
<title>Node31&#45;&gt;Node33</title>
<path fill="none" stroke="#191970" d="M675.8299,-324.0441C845.7096,-295.6147 893.1986,-316.0103 1059,-288 1061.8876,-287.5122 1064.8386,-286.9635 1067.8101,-286.3715"/>
<polygon fill="#191970" stroke="#191970" points="675.0653,-320.6239 665.7963,-325.7557 676.2425,-327.5242 675.0653,-320.6239"/>
</g>
<!-- Node34&#45;&gt;Node12 -->
<g id="edge52" class="edge">
<title>Node34&#45;&gt;Node12</title>
<path fill="none" stroke="#191970" d="M746,-314.1199C746,-302.9072 746,-290.4031 746,-282.055"/>
<polygon fill="#191970" stroke="#191970" points="742.5001,-314.2966 746,-324.2967 749.5001,-314.2967 742.5001,-314.2966"/>
</g>
<!-- Node36&#45;&gt;Node12 -->
<g id="edge58" class="edge">
<title>Node36&#45;&gt;Node12</title>
<path fill="none" stroke="#191970" d="M901.4723,-321.4044C861.0885,-308.7016 808.6954,-292.2211 776.2183,-282.0053"/>
<polygon fill="#191970" stroke="#191970" points="900.6092,-324.802 911.1986,-324.4639 902.7097,-318.1245 900.6092,-324.802"/>
</g>
<!-- Node36&#45;&gt;Node30 -->
<g id="edge57" class="edge">
<title>Node36&#45;&gt;Node30</title>
<path fill="none" stroke="#191970" d="M973.8733,-315.7735C979.7396,-306.4154 986.305,-295.9421 991.5073,-287.6432"/>
<polygon fill="#191970" stroke="#191970" points="970.8763,-313.9648 968.5305,-324.2967 976.8074,-317.6828 970.8763,-313.9648"/>
</g>
<!-- Node36&#45;&gt;Node33 -->
<g id="edge60" class="edge">
<title>Node36&#45;&gt;Node33</title>
<path fill="none" stroke="#191970" d="M1005.0058,-320.5897C1030.3994,-310.1518 1061.5065,-297.3654 1085.2601,-287.6017"/>
<polygon fill="#191970" stroke="#191970" points="1003.4989,-317.4248 995.5804,-324.4639 1006.1602,-323.8992 1003.4989,-317.4248"/>
</g>
<!-- Node36&#45;&gt;Node35 -->
<g id="edge59" class="edge">
<title>Node36&#45;&gt;Node35</title>
<path fill="none" stroke="#191970" d="M933.3908,-317.7808C921.7854,-307.9383 908.3468,-296.541 897.8554,-287.6432"/>
<polygon fill="#191970" stroke="#191970" points="931.1833,-320.4978 941.0737,-324.2967 935.711,-315.1593 931.1833,-320.4978"/>
</g>
<!-- Node39&#45;&gt;Node9 -->
<g id="edge64" class="edge">
<title>Node39&#45;&gt;Node9</title>
<path fill="none" stroke="#191970" d="M397.0233,-320.9205C374.339,-312.2733 348.2144,-301.0101 326,-288 306.8935,-276.8101 304.5848,-270.4553 287,-257 208.2761,-196.7632 112.7638,-127.611 71.1176,-97.6486"/>
<polygon fill="#191970" stroke="#191970" points="395.9205,-324.2447 406.5131,-324.4638 398.3691,-317.6869 395.9205,-324.2447"/>
</g>
<!-- Node39&#45;&gt;Node10 -->
<g id="edge65" class="edge">
<title>Node39&#45;&gt;Node10</title>
<path fill="none" stroke="#191970" d="M454.1755,-313.8494C454.4311,-296.5983 452.3246,-273.9926 442,-257 390.0195,-171.4485 278.3966,-120.6425 214.828,-97.5284"/>
<polygon fill="#191970" stroke="#191970" points="450.6592,-314.1594 453.7291,-324.2997 457.6528,-314.4582 450.6592,-314.1594"/>
</g>
<!-- Node39&#45;&gt;Node12 -->
<g id="edge68" class="edge">
<title>Node39&#45;&gt;Node12</title>
<path fill="none" stroke="#191970" d="M516.2562,-324.8566C573.2615,-311.8656 654.8872,-293.2638 703.9405,-282.085"/>
<polygon fill="#191970" stroke="#191970" points="515.2391,-321.4986 506.2668,-327.1331 516.7945,-328.3236 515.2391,-321.4986"/>
</g>
<!-- Node39&#45;&gt;Node29 -->
<g id="edge66" class="edge">
<title>Node39&#45;&gt;Node29</title>
<path fill="none" stroke="#191970" d="M429.3786,-317.2113C419.5233,-307.5009 408.2261,-296.3698 399.3692,-287.6432"/>
<polygon fill="#191970" stroke="#191970" points="426.99,-319.7713 436.5697,-324.2967 431.903,-314.785 426.99,-319.7713"/>
</g>
<!-- Node39&#45;&gt;Node32 -->
<g id="edge67" class="edge">
<title>Node39&#45;&gt;Node32</title>
<path fill="none" stroke="#191970" d="M480.5962,-318.2117C496.9132,-306.0646 516.5638,-291.4358 529.165,-282.055"/>
<polygon fill="#191970" stroke="#191970" points="478.3537,-315.5177 472.4224,-324.2967 482.5338,-321.1327 478.3537,-315.5177"/>
</g>
<!-- Node39&#45;&gt;Node35 -->
<g id="edge69" class="edge">
<title>Node39&#45;&gt;Node35</title>
<path fill="none" stroke="#191970" d="M516.1604,-329.6023C528.7034,-327.7092 541.7603,-325.7676 554,-324 670.7675,-307.1372 701.114,-310.1236 817,-288 819.8766,-287.4508 822.8187,-286.8533 825.7834,-286.223"/>
<polygon fill="#191970" stroke="#191970" points="515.5996,-326.1473 506.2368,-331.106 516.6483,-333.0683 515.5996,-326.1473"/>
</g>
<!-- Node39&#45;&gt;Node38 -->
<g id="edge70" class="edge">
<title>Node39&#45;&gt;Node38</title>
<path fill="none" stroke="#191970" d="M391.7148,-321.5484C356.1004,-310.9432 311.5144,-297.6665 277.7146,-287.6017"/>
<polygon fill="#191970" stroke="#191970" points="390.9226,-324.9643 401.5056,-324.4639 392.9204,-318.2555 390.9226,-324.9643"/>
</g>
</g>
</svg>
        <g id="navigator" transform="translate(0 0)" fill="#404254">
                <rect fill="#f2f5e9" fill-opacity="0.5" stroke="#606060" stroke-width=".5" x="0" y="0" width="60" height="60"/>
                <use id="zoomplus" xlink:href="#zoomPlus" x="17" y="9" onmousedown="handleZoom(evt,'in')"/>
                <use id="zoomminus" xlink:href="#zoomMin" x="42" y="9" onmousedown="handleZoom(evt,'out')"/>
                <use id="reset" xlink:href="#resetDef" x="30" y="36" onmousedown="handleReset()"/>
                <g id="arrowUp" xlink:href="#dirArrow" transform="translate(30 24)" onmousedown="handlePan(0,-1)">
                  <use xlink:href="#rim" fill="#404040">
                        <set attributeName="fill" to="#808080" begin="arrowUp.mouseover" end="arrowUp.mouseout"/>
                  </use>
                  <path fill="none" stroke="white" stroke-width="1.5" d="M0,-3.0v7 M-2.5,-0.5L0,-3.0L2.5,-0.5"/>
                </g>
                <g id="arrowRight" xlink:href="#dirArrow" transform="rotate(90) translate(36 -43)" onmousedown="handlePan(1,0)">
                  <use xlink:href="#rim" fill="#404040">
                        <set attributeName="fill" to="#808080" begin="arrowRight.mouseover" end="arrowRight.mouseout"/>
                  </use>
                  <path fill="none" stroke="white" stroke-width="1.5" d="M0,-3.0v7 M-2.5,-0.5L0,-3.0L2.5,-0.5"/>
                </g>
                <g id="arrowDown" xlink:href="#dirArrow" transform="rotate(180) translate(-30 -48)" onmousedown="handlePan(0,1)">
                  <use xlink:href="#rim" fill="#404040">
                        <set attributeName="fill" to="#808080" begin="arrowDown.mouseover" end="arrowDown.mouseout"/>
                  </use>
                  <path fill="none" stroke="white" stroke-width="1.5" d="M0,-3.0v7 M-2.5,-0.5L0,-3.0L2.5,-0.5"/>
                </g>
                <g id="arrowLeft" xlink:href="#dirArrow" transform="rotate(270) translate(-36 17)" onmousedown="handlePan(-1,0)">
                  <use xlink:href="#rim" fill="#404040">
                        <set attributeName="fill" to="#808080" begin="arrowLeft.mouseover" end="arrowLeft.mouseout"/>
                  </use>
                  <path fill="none" stroke="white" stroke-width="1.5" d="M0,-3.0v7 M-2.5,-0.5L0,-3.0L2.5,-0.5"/>
                </g>
        </g>
        <svg viewBox="0 0 15 15" width="100%" height="30px" preserveAspectRatio="xMaxYMin meet">
         <g id="arrow_out" transform="scale(0.3 0.3)">
          <a xlink:href="helios__object_8h__dep__incl_org.svg" target="_base">
           <rect id="button" ry="5" rx="5" y="6" x="6" height="38" width="38"
                fill="#f2f5e9" fill-opacity="0.5" stroke="#606060" stroke-width="1.0"/>
           <path id="arrow"
             d="M 11.500037,31.436501 C 11.940474,20.09759 22.043105,11.32322 32.158766,21.979434 L 37.068811,17.246167 C 37.068811,17.246167 37.088388,32 37.088388,32 L 22.160133,31.978069 C 22.160133,31.978069 26.997745,27.140456 26.997745,27.140456 C 18.528582,18.264221 13.291696,25.230495 11.500037,31.436501 z"
             style="fill:#404040;"/>
          </a>
         </g>
        </svg>
</svg>
