<?xml version="1.0" encoding="UTF-8" standalone="no"?>
<!DOCTYPE svg PUBLIC "-//W3C//DTD SVG 1.1//EN"
 "http://www.w3.org/Graphics/SVG/1.1/DTD/svg11.dtd">
<!-- Generated by graphviz version 2.40.1 (20161225.0304)
 -->
<!-- Title: helios_float_from_cstring Pages: 1 -->
<svg width="659pt" height="66pt"
 viewBox="0.00 0.00 659.00 66.00" xmlns="http://www.w3.org/2000/svg" xmlns:xlink="http://www.w3.org/1999/xlink">
<g id="graph0" class="graph" transform="scale(1 1) rotate(0) translate(4 62)">
<title>helios_float_from_cstring</title>
<polygon fill="#ffffff" stroke="transparent" points="-4,4 -4,-62 655,-62 655,4 -4,4"/>
<!-- Node21 -->
<g id="node1" class="node">
<title>Node21</title>
<g id="a_node1"><a xlink:title="Convert a string to a helios double.">
<polygon fill="#bfbfbf" stroke="#000000" points="0,-19.5 0,-38.5 140,-38.5 140,-19.5 0,-19.5"/>
<text text-anchor="middle" x="70" y="-26.5" font-family="Helvetica,sans-Serif" font-size="10.00" fill="#000000">helios_float_from_cstring</text>
</a>
</g>
</g>
<!-- Node22 -->
<g id="node2" class="node">
<title>Node22</title>
<g id="a_node2"><a xlink:href="helios__float_8c.html#a826b7f7e3b3c75b0161be6e84c349135" target="_top" xlink:title="Create a helios_float object from a c double type.">
<polygon fill="#ffffff" stroke="#000000" points="176,-19.5 176,-38.5 321,-38.5 321,-19.5 176,-19.5"/>
<text text-anchor="middle" x="248.5" y="-26.5" font-family="Helvetica,sans-Serif" font-size="10.00" fill="#000000">helios_float_from_cdouble</text>
</a>
</g>
</g>
<!-- Node21&#45;&gt;Node22 -->
<g id="edge1" class="edge">
<title>Node21&#45;&gt;Node22</title>
<path fill="none" stroke="#191970" d="M140.0356,-29C148.4598,-29 157.1237,-29 165.7075,-29"/>
<polygon fill="#191970" stroke="#191970" points="165.7283,-32.5001 175.7283,-29 165.7282,-25.5001 165.7283,-32.5001"/>
</g>
<!-- Node23 -->
<g id="node3" class="node">
<title>Node23</title>
<g id="a_node3"><a xlink:href="helios__float_8c.html#a6b9f18063c74a36f08d05c6310bc45da" target="_top" xlink:title="Constructor of a helios_float object.">
<polygon fill="#ffffff" stroke="#000000" points="357,-19.5 357,-38.5 451,-38.5 451,-19.5 357,-19.5"/>
<text text-anchor="middle" x="404" y="-26.5" font-family="Helvetica,sans-Serif" font-size="10.00" fill="#000000">helios_float_init</text>
</a>
</g>
</g>
<!-- Node22&#45;&gt;Node23 -->
<g id="edge2" class="edge">
<title>Node22&#45;&gt;Node23</title>
<path fill="none" stroke="#191970" d="M321.2419,-29C329.6897,-29 338.2167,-29 346.4217,-29"/>
<polygon fill="#191970" stroke="#191970" points="346.6124,-32.5001 356.6124,-29 346.6123,-25.5001 346.6124,-32.5001"/>
</g>
<!-- Node24 -->
<g id="node4" class="node">
<title>Node24</title>
<g id="a_node4"><a xlink:href="helios__memory_8h.html#af87f0050f8e236d0945592fa4e54dc94" target="_top" xlink:title="Allocates a new helios object (and performs all the GC steps associated with that action).">
<polygon fill="#ffffff" stroke="#000000" points="506.5,-38.5 506.5,-57.5 631.5,-57.5 631.5,-38.5 506.5,-38.5"/>
<text text-anchor="middle" x="569" y="-45.5" font-family="Helvetica,sans-Serif" font-size="10.00" fill="#000000">helios_allocate_object</text>
</a>
</g>
</g>
<!-- Node23&#45;&gt;Node24 -->
<g id="edge3" class="edge">
<title>Node23&#45;&gt;Node24</title>
<path fill="none" stroke="#191970" d="M451.2824,-34.4446C465.3435,-36.0638 481.0849,-37.8764 496.3681,-39.6363"/>
<polygon fill="#191970" stroke="#191970" points="495.988,-43.1156 506.3228,-40.7826 496.7888,-36.1616 495.988,-43.1156"/>
</g>
<!-- Node25 -->
<g id="node5" class="node">
<title>Node25</title>
<g id="a_node5"><a xlink:href="helios__memory_8h.html#ab14fb1c046aae61ab06eda8eeaf2cd85" target="_top" xlink:title=" ">
<polygon fill="#ffffff" stroke="#000000" points="487,-.5 487,-19.5 651,-19.5 651,-.5 487,-.5"/>
<text text-anchor="middle" x="569" y="-7.5" font-family="Helvetica,sans-Serif" font-size="10.00" fill="#000000">helios_set_garbagecollectable</text>
</a>
</g>
</g>
<!-- Node23&#45;&gt;Node25 -->
<g id="edge4" class="edge">
<title>Node23&#45;&gt;Node25</title>
<path fill="none" stroke="#191970" d="M451.2824,-23.5554C459.3776,-22.6232 468.0297,-21.6269 476.8307,-20.6134"/>
<polygon fill="#191970" stroke="#191970" points="477.2748,-24.0855 486.8087,-19.4644 476.474,-17.1315 477.2748,-24.0855"/>
</g>
</g>
</svg>
