<?xml version="1.0" encoding="UTF-8" standalone="no"?>
<!DOCTYPE svg PUBLIC "-//W3C//DTD SVG 1.1//EN"
 "http://www.w3.org/Graphics/SVG/1.1/DTD/svg11.dtd">
<!-- Generated by graphviz version 2.40.1 (20161225.0304)
 -->
<!-- Title: helios_integer_notequal Pages: 1 -->
<svg width="829pt" height="97pt"
 viewBox="0.00 0.00 829.00 96.50" xmlns="http://www.w3.org/2000/svg" xmlns:xlink="http://www.w3.org/1999/xlink">
<g id="graph0" class="graph" transform="scale(1 1) rotate(0) translate(4 92.5)">
<title>helios_integer_notequal</title>
<polygon fill="#ffffff" stroke="transparent" points="-4,4 -4,-92.5 825,-92.5 825,4 -4,4"/>
<!-- Node41 -->
<g id="node1" class="node">
<title>Node41</title>
<g id="a_node1"><a xlink:title=" ">
<polygon fill="#bfbfbf" stroke="#000000" points="0,-41.5 0,-60.5 134,-60.5 134,-41.5 0,-41.5"/>
<text text-anchor="middle" x="67" y="-48.5" font-family="Helvetica,sans-Serif" font-size="10.00" fill="#000000">helios_integer_notequal</text>
</a>
</g>
</g>
<!-- Node41&#45;&gt;Node41 -->
<g id="edge3" class="edge">
<title>Node41&#45;&gt;Node41</title>
<path fill="none" stroke="#191970" d="M41.1063,-60.7571C28.5094,-69.5653 37.1406,-79 67,-79 87.0618,-79 97.5408,-74.741 98.4371,-69.2746"/>
<polygon fill="#191970" stroke="#191970" points="101.2819,-67.2291 92.8937,-60.7571 95.415,-71.0475 101.2819,-67.2291"/>
</g>
<!-- Node42 -->
<g id="node2" class="node">
<title>Node42</title>
<g id="a_node2"><a xlink:href="helios__boolean_8c.html#a50e186696d4b9f2e8efdcddc17ab5ce5" target="_top" xlink:title="Create a helios_boolean object from a c boolean type.">
<polygon fill="#ffffff" stroke="#000000" points="175.5,-58 175.5,-88 294.5,-88 294.5,-58 175.5,-58"/>
<text text-anchor="start" x="183.5" y="-76" font-family="Helvetica,sans-Serif" font-size="10.00" fill="#000000">helios_boolean_from</text>
<text text-anchor="middle" x="235" y="-65" font-family="Helvetica,sans-Serif" font-size="10.00" fill="#000000">_cbool</text>
</a>
</g>
</g>
<!-- Node41&#45;&gt;Node42 -->
<g id="edge1" class="edge">
<title>Node41&#45;&gt;Node42</title>
<path fill="none" stroke="#191970" d="M134.364,-59.8215C144.5653,-61.1574 155.1076,-62.5379 165.3561,-63.88"/>
<polygon fill="#191970" stroke="#191970" points="165.1133,-67.378 175.4832,-65.2061 166.0223,-60.4372 165.1133,-67.378"/>
</g>
<!-- Node44 -->
<g id="node4" class="node">
<title>Node44</title>
<g id="a_node4"><a xlink:href="helios__boolean_8c.html#a856733e7e090437084fcf595bd4e3b8f" target="_top" xlink:title="Convert a boolean to an integer.">
<polygon fill="#ffffff" stroke="#000000" points="170,-19.5 170,-38.5 300,-38.5 300,-19.5 170,-19.5"/>
<text text-anchor="middle" x="235" y="-26.5" font-family="Helvetica,sans-Serif" font-size="10.00" fill="#000000">helios_boolean_integer</text>
</a>
</g>
</g>
<!-- Node41&#45;&gt;Node44 -->
<g id="edge4" class="edge">
<title>Node41&#45;&gt;Node44</title>
<path fill="none" stroke="#191970" d="M134.364,-42.1785C142.6711,-41.0907 151.2044,-39.9732 159.6209,-38.8711"/>
<polygon fill="#191970" stroke="#191970" points="160.3455,-42.3062 169.8064,-37.5373 159.4365,-35.3654 160.3455,-42.3062"/>
</g>
<!-- Node43 -->
<g id="node3" class="node">
<title>Node43</title>
<g id="a_node3"><a xlink:href="helios__boolean_8c.html#ab172c15c28782b45e824c42601484606" target="_top" xlink:title="Create a helios_boolean object from a c integer type.">
<polygon fill="#ffffff" stroke="#000000" points="336,-63.5 336,-82.5 478,-82.5 478,-63.5 336,-63.5"/>
<text text-anchor="middle" x="407" y="-70.5" font-family="Helvetica,sans-Serif" font-size="10.00" fill="#000000">helios_boolean_from_cint</text>
</a>
</g>
</g>
<!-- Node42&#45;&gt;Node43 -->
<g id="edge2" class="edge">
<title>Node42&#45;&gt;Node43</title>
<path fill="none" stroke="#191970" d="M294.6745,-73C304.7479,-73 315.3545,-73 325.864,-73"/>
<polygon fill="#191970" stroke="#191970" points="325.8898,-76.5001 335.8897,-73 325.8897,-69.5001 325.8898,-76.5001"/>
</g>
<!-- Node45 -->
<g id="node5" class="node">
<title>Node45</title>
<g id="a_node5"><a xlink:href="helios__integer_8c.html#af677316afd6536844aeb027f14c198cf" target="_top" xlink:title="Create a helios_integer object from a c integer type.">
<polygon fill="#ffffff" stroke="#000000" points="338.5,-19.5 338.5,-38.5 475.5,-38.5 475.5,-19.5 338.5,-19.5"/>
<text text-anchor="middle" x="407" y="-26.5" font-family="Helvetica,sans-Serif" font-size="10.00" fill="#000000">helios_integer_from_cint</text>
</a>
</g>
</g>
<!-- Node44&#45;&gt;Node45 -->
<g id="edge5" class="edge">
<title>Node44&#45;&gt;Node45</title>
<path fill="none" stroke="#191970" d="M300.0258,-29C309.2476,-29 318.8121,-29 328.259,-29"/>
<polygon fill="#191970" stroke="#191970" points="328.4419,-32.5001 338.4418,-29 328.4418,-25.5001 328.4419,-32.5001"/>
</g>
<!-- Node46 -->
<g id="node6" class="node">
<title>Node46</title>
<g id="a_node6"><a xlink:href="helios__integer_8c.html#a50a26b1e9578164839f3a5bb17e04051" target="_top" xlink:title="Constructor of a helios_integer object.">
<polygon fill="#ffffff" stroke="#000000" points="514,-19.5 514,-38.5 621,-38.5 621,-19.5 514,-19.5"/>
<text text-anchor="middle" x="567.5" y="-26.5" font-family="Helvetica,sans-Serif" font-size="10.00" fill="#000000">helios_integer_init</text>
</a>
</g>
</g>
<!-- Node45&#45;&gt;Node46 -->
<g id="edge6" class="edge">
<title>Node45&#45;&gt;Node46</title>
<path fill="none" stroke="#191970" d="M475.532,-29C484.8177,-29 494.3173,-29 503.519,-29"/>
<polygon fill="#191970" stroke="#191970" points="503.7542,-32.5001 513.7542,-29 503.7541,-25.5001 503.7542,-32.5001"/>
</g>
<!-- Node47 -->
<g id="node7" class="node">
<title>Node47</title>
<g id="a_node7"><a xlink:href="helios__memory_8h.html#af87f0050f8e236d0945592fa4e54dc94" target="_top" xlink:title="Allocates a new helios object (and performs all the GC steps associated with that action).">
<polygon fill="#ffffff" stroke="#000000" points="676.5,-38.5 676.5,-57.5 801.5,-57.5 801.5,-38.5 676.5,-38.5"/>
<text text-anchor="middle" x="739" y="-45.5" font-family="Helvetica,sans-Serif" font-size="10.00" fill="#000000">helios_allocate_object</text>
</a>
</g>
</g>
<!-- Node46&#45;&gt;Node47 -->
<g id="edge7" class="edge">
<title>Node46&#45;&gt;Node47</title>
<path fill="none" stroke="#191970" d="M621.2931,-34.9596C635.5001,-36.5335 651.0727,-38.2588 666.106,-39.9243"/>
<polygon fill="#191970" stroke="#191970" points="666.0794,-43.4427 676.404,-41.0652 666.8503,-36.4852 666.0794,-43.4427"/>
</g>
<!-- Node48 -->
<g id="node8" class="node">
<title>Node48</title>
<g id="a_node8"><a xlink:href="helios__memory_8h.html#ab14fb1c046aae61ab06eda8eeaf2cd85" target="_top" xlink:title=" ">
<polygon fill="#ffffff" stroke="#000000" points="657,-.5 657,-19.5 821,-19.5 821,-.5 657,-.5"/>
<text text-anchor="middle" x="739" y="-7.5" font-family="Helvetica,sans-Serif" font-size="10.00" fill="#000000">helios_set_garbagecollectable</text>
</a>
</g>
</g>
<!-- Node46&#45;&gt;Node48 -->
<g id="edge8" class="edge">
<title>Node46&#45;&gt;Node48</title>
<path fill="none" stroke="#191970" d="M621.2931,-23.0404C629.4127,-22.1409 637.9784,-21.1919 646.6345,-20.2329"/>
<polygon fill="#191970" stroke="#191970" points="647.2625,-23.6848 656.8162,-19.1049 646.4916,-16.7274 647.2625,-23.6848"/>
</g>
</g>
</svg>
