<?xml version="1.0" encoding="UTF-8" standalone="no"?>
<!DOCTYPE svg PUBLIC "-//W3C//DTD SVG 1.1//EN"
 "http://www.w3.org/Graphics/SVG/1.1/DTD/svg11.dtd">
<!-- Generated by graphviz version 2.40.1 (20161225.0304)
 -->
<!-- Title: builtins/type/include/helios_type.h Pages: 1 -->
<svg width="1304pt" height="497pt"
 viewBox="0.00 0.00 1303.99 497.00" xmlns="http://www.w3.org/2000/svg" xmlns:xlink="http://www.w3.org/1999/xlink">
<g id="graph0" class="graph" transform="scale(1 1) rotate(0) translate(4 493)">
<title>builtins/type/include/helios_type.h</title>
<polygon fill="#ffffff" stroke="transparent" points="-4,4 -4,-493 1299.9897,-493 1299.9897,4 -4,4"/>
<!-- Node7 -->
<g id="node1" class="node">
<title>Node7</title>
<g id="a_node1"><a xlink:title=" ">
<polygon fill="#bfbfbf" stroke="#000000" points="398.4897,-458.5 398.4897,-488.5 501.4897,-488.5 501.4897,-458.5 398.4897,-458.5"/>
<text text-anchor="start" x="406.4897" y="-476.5" font-family="Helvetica,sans-Serif" font-size="10.00" fill="#000000">builtins/type/include</text>
<text text-anchor="middle" x="449.9897" y="-465.5" font-family="Helvetica,sans-Serif" font-size="10.00" fill="#000000">/helios_type.h</text>
</a>
</g>
</g>
<!-- Node8 -->
<g id="node2" class="node">
<title>Node8</title>
<g id="a_node2"><a xlink:href="helios__object_8c.html" target="_top" xlink:title=" ">
<polygon fill="#ffffff" stroke="#000000" points="16.4897,-324.5 16.4897,-354.5 121.4897,-354.5 121.4897,-324.5 16.4897,-324.5"/>
<text text-anchor="start" x="24.4897" y="-342.5" font-family="Helvetica,sans-Serif" font-size="10.00" fill="#000000">builtins/object/helios</text>
<text text-anchor="middle" x="68.9897" y="-331.5" font-family="Helvetica,sans-Serif" font-size="10.00" fill="#000000">_object.c</text>
</a>
</g>
</g>
<!-- Node7&#45;&gt;Node8 -->
<g id="edge1" class="edge">
<title>Node7&#45;&gt;Node8</title>
<path fill="none" stroke="#191970" d="M397.1624,-454.9203C321.0252,-428.1424 181.9108,-379.215 111.7976,-354.5558"/>
<polygon fill="#191970" stroke="#191970" points="396.43,-458.3728 407.0248,-458.389 398.7525,-451.7693 396.43,-458.3728"/>
</g>
<!-- Node9 -->
<g id="node3" class="node">
<title>Node9</title>
<g id="a_node3"><a xlink:href="helios__object_8h.html" target="_top" xlink:title=" ">
<polygon fill="#ffffff" stroke="#000000" points="563.9897,-391.5 563.9897,-421.5 673.9897,-421.5 673.9897,-391.5 563.9897,-391.5"/>
<text text-anchor="start" x="571.9897" y="-409.5" font-family="Helvetica,sans-Serif" font-size="10.00" fill="#000000">builtins/object/include</text>
<text text-anchor="middle" x="618.9897" y="-398.5" font-family="Helvetica,sans-Serif" font-size="10.00" fill="#000000">/helios_object.h</text>
</a>
</g>
</g>
<!-- Node7&#45;&gt;Node9 -->
<g id="edge2" class="edge">
<title>Node7&#45;&gt;Node9</title>
<path fill="none" stroke="#191970" d="M497.3413,-454.7275C523.733,-444.2645 556.161,-431.4084 580.8974,-421.6017"/>
<polygon fill="#191970" stroke="#191970" points="495.9228,-451.5248 487.9166,-458.4639 498.5027,-458.032 495.9228,-451.5248"/>
</g>
<!-- Node41 -->
<g id="node35" class="node">
<title>Node41</title>
<g id="a_node35"><a xlink:href="serialize_8h.html" target="_top" xlink:title=" ">
<polygon fill="#ffffff" stroke="#000000" points="64.9897,-391.5 64.9897,-421.5 166.9897,-421.5 166.9897,-391.5 64.9897,-391.5"/>
<text text-anchor="start" x="72.9897" y="-409.5" font-family="Helvetica,sans-Serif" font-size="10.00" fill="#000000">builtins/serialization</text>
<text text-anchor="middle" x="115.9897" y="-398.5" font-family="Helvetica,sans-Serif" font-size="10.00" fill="#000000">/include/serialize.h</text>
</a>
</g>
</g>
<!-- Node7&#45;&gt;Node41 -->
<g id="edge74" class="edge">
<title>Node7&#45;&gt;Node41</title>
<path fill="none" stroke="#191970" d="M388.3122,-462.387C333.8994,-452.4069 252.5086,-437.0497 181.9897,-422 177.1552,-420.9682 172.1305,-419.8578 167.1081,-418.7223"/>
<polygon fill="#191970" stroke="#191970" points="388.0198,-465.8915 398.4864,-464.2481 389.2795,-459.0058 388.0198,-465.8915"/>
</g>
<!-- Node42 -->
<g id="node36" class="node">
<title>Node42</title>
<g id="a_node36"><a xlink:href="helios__type_8c.html" target="_top" xlink:title=" ">
<polygon fill="#ffffff" stroke="#000000" points="691.9897,-391.5 691.9897,-421.5 789.9897,-421.5 789.9897,-391.5 691.9897,-391.5"/>
<text text-anchor="start" x="699.9897" y="-409.5" font-family="Helvetica,sans-Serif" font-size="10.00" fill="#000000">builtins/type/helios</text>
<text text-anchor="middle" x="740.9897" y="-398.5" font-family="Helvetica,sans-Serif" font-size="10.00" fill="#000000">_type.c</text>
</a>
</g>
</g>
<!-- Node7&#45;&gt;Node42 -->
<g id="edge76" class="edge">
<title>Node7&#45;&gt;Node42</title>
<path fill="none" stroke="#191970" d="M511.541,-460.6607C558.6129,-450.6566 625.059,-436.1358 682.9897,-422 685.9262,-421.2835 688.9417,-420.5304 691.9805,-419.7582"/>
<polygon fill="#191970" stroke="#191970" points="510.5603,-457.2907 501.5032,-462.7879 512.0116,-464.1386 510.5603,-457.2907"/>
</g>
<!-- Node9&#45;&gt;Node8 -->
<g id="edge63" class="edge">
<title>Node9&#45;&gt;Node8</title>
<path fill="none" stroke="#191970" d="M553.5168,-402.0474C460.3253,-395.1372 284.2756,-379.9636 135.9897,-355 131.2803,-354.2072 126.4069,-353.2837 121.5356,-352.2898"/>
<polygon fill="#191970" stroke="#191970" points="553.4129,-405.5491 563.6421,-402.7898 553.9249,-398.5678 553.4129,-405.5491"/>
</g>
<!-- Node10 -->
<g id="node4" class="node">
<title>Node10</title>
<g id="a_node4"><a xlink:href="helios__code_8c.html" target="_top" xlink:title=" ">
<polygon fill="#ffffff" stroke="#000000" points="1035.9897,-67.5 1035.9897,-97.5 1135.9897,-97.5 1135.9897,-67.5 1035.9897,-67.5"/>
<text text-anchor="start" x="1043.9897" y="-85.5" font-family="Helvetica,sans-Serif" font-size="10.00" fill="#000000">builtins/code/helios</text>
<text text-anchor="middle" x="1085.9897" y="-74.5" font-family="Helvetica,sans-Serif" font-size="10.00" fill="#000000">_code.c</text>
</a>
</g>
</g>
<!-- Node9&#45;&gt;Node10 -->
<g id="edge3" class="edge">
<title>Node9&#45;&gt;Node10</title>
<path fill="none" stroke="#191970" d="M684.2557,-391.0941C809.7971,-374.7887 1085.5059,-393.3684 1187.9897,-355 1244.5576,-333.8218 1295.9897,-332.9024 1295.9897,-272.5 1295.9897,-272.5 1295.9897,-272.5 1295.9897,-205.5 1295.9897,-131.6651 1198.1368,-101.3183 1136.0232,-89.4927"/>
<polygon fill="#191970" stroke="#191970" points="683.4359,-387.6756 674.0311,-392.554 684.4254,-394.6053 683.4359,-387.6756"/>
</g>
<!-- Node11 -->
<g id="node5" class="node">
<title>Node11</title>
<g id="a_node5"><a xlink:href="helios__instruction_8c.html" target="_top" xlink:title=" ">
<polygon fill="#ffffff" stroke="#000000" points="135.9897,-67.5 135.9897,-97.5 235.9897,-97.5 235.9897,-67.5 135.9897,-67.5"/>
<text text-anchor="start" x="143.9897" y="-85.5" font-family="Helvetica,sans-Serif" font-size="10.00" fill="#000000">builtins/code/helios</text>
<text text-anchor="middle" x="185.9897" y="-74.5" font-family="Helvetica,sans-Serif" font-size="10.00" fill="#000000">_instruction.c</text>
</a>
</g>
</g>
<!-- Node9&#45;&gt;Node11 -->
<g id="edge4" class="edge">
<title>Node9&#45;&gt;Node11</title>
<path fill="none" stroke="#191970" d="M553.783,-403.1587C435.9559,-396.5269 197.1228,-380.136 168.9897,-355 140.9312,-329.9306 149.9897,-310.1265 149.9897,-272.5 149.9897,-272.5 149.9897,-272.5 149.9897,-205.5 149.9897,-165.2275 167.9859,-120.416 178.5305,-97.6158"/>
<polygon fill="#191970" stroke="#191970" points="553.5901,-406.6533 563.7689,-403.7137 553.9786,-399.6641 553.5901,-406.6533"/>
</g>
<!-- Node12 -->
<g id="node6" class="node">
<title>Node12</title>
<g id="a_node6"><a xlink:href="helios__code_8h.html" target="_top" xlink:title=" ">
<polygon fill="#ffffff" stroke="#000000" points="178.4897,-324.5 178.4897,-354.5 283.4897,-354.5 283.4897,-324.5 178.4897,-324.5"/>
<text text-anchor="start" x="186.4897" y="-342.5" font-family="Helvetica,sans-Serif" font-size="10.00" fill="#000000">builtins/code/include</text>
<text text-anchor="middle" x="230.9897" y="-331.5" font-family="Helvetica,sans-Serif" font-size="10.00" fill="#000000">/helios_code.h</text>
</a>
</g>
</g>
<!-- Node9&#45;&gt;Node12 -->
<g id="edge5" class="edge">
<title>Node9&#45;&gt;Node12</title>
<path fill="none" stroke="#191970" d="M553.6707,-397.9108C487.6362,-388.8224 382.7939,-373.2818 292.9897,-355 289.9455,-354.3803 286.8255,-353.7107 283.6828,-353.0096"/>
<polygon fill="#191970" stroke="#191970" points="553.5453,-401.4261 563.9274,-399.3134 554.4939,-394.4907 553.5453,-401.4261"/>
</g>
<!-- Node13 -->
<g id="node7" class="node">
<title>Node13</title>
<g id="a_node7"><a xlink:href="builtins_8h.html" target="_top" xlink:title=" ">
<polygon fill="#ffffff" stroke="#000000" points="300.4897,-263 300.4897,-282 423.4897,-282 423.4897,-263 300.4897,-263"/>
<text text-anchor="middle" x="361.9897" y="-270" font-family="Helvetica,sans-Serif" font-size="10.00" fill="#000000">builtins/include/builtins.h</text>
</a>
</g>
</g>
<!-- Node9&#45;&gt;Node13 -->
<g id="edge55" class="edge">
<title>Node9&#45;&gt;Node13</title>
<path fill="none" stroke="#191970" d="M572.5163,-387.5348C550.8095,-378.2993 524.786,-366.6825 501.9897,-355 455.0399,-330.9394 401.979,-298.0091 376.7866,-282.0055"/>
<polygon fill="#191970" stroke="#191970" points="571.2708,-390.8081 581.8449,-391.471 573.9921,-384.3587 571.2708,-390.8081"/>
</g>
<!-- Node30 -->
<g id="node24" class="node">
<title>Node30</title>
<g id="a_node24"><a xlink:href="helios__float_8c.html" target="_top" xlink:title=" ">
<polygon fill="#ffffff" stroke="#000000" points="847.9897,-257.5 847.9897,-287.5 945.9897,-287.5 945.9897,-257.5 847.9897,-257.5"/>
<text text-anchor="start" x="855.9897" y="-275.5" font-family="Helvetica,sans-Serif" font-size="10.00" fill="#000000">builtins/float/helios</text>
<text text-anchor="middle" x="896.9897" y="-264.5" font-family="Helvetica,sans-Serif" font-size="10.00" fill="#000000">_float.c</text>
</a>
</g>
</g>
<!-- Node9&#45;&gt;Node30 -->
<g id="edge44" class="edge">
<title>Node9&#45;&gt;Node30</title>
<path fill="none" stroke="#191970" d="M684.0217,-389.8111C732.5351,-377.1065 792.2121,-360.8406 802.9897,-355 820.171,-345.6891 859.6633,-308.6849 881.5976,-287.5343"/>
<polygon fill="#191970" stroke="#191970" points="682.9654,-386.4695 674.1736,-392.3816 684.7334,-393.2426 682.9654,-386.4695"/>
</g>
<!-- Node31 -->
<g id="node25" class="node">
<title>Node31</title>
<g id="a_node25"><a xlink:href="helios__float__math_8c.html" target="_top" xlink:title=" ">
<polygon fill="#ffffff" stroke="#000000" points="479.9897,-257.5 479.9897,-287.5 577.9897,-287.5 577.9897,-257.5 479.9897,-257.5"/>
<text text-anchor="start" x="487.9897" y="-275.5" font-family="Helvetica,sans-Serif" font-size="10.00" fill="#000000">builtins/float/helios</text>
<text text-anchor="middle" x="528.9897" y="-264.5" font-family="Helvetica,sans-Serif" font-size="10.00" fill="#000000">_float_math.c</text>
</a>
</g>
</g>
<!-- Node9&#45;&gt;Node31 -->
<g id="edge45" class="edge">
<title>Node9&#45;&gt;Node31</title>
<path fill="none" stroke="#191970" d="M554.5048,-389.2915C537.8172,-381.6004 521.8013,-370.6113 511.9897,-355 498.9165,-334.1991 510.3232,-305.1696 519.7101,-287.6697"/>
<polygon fill="#191970" stroke="#191970" points="553.2365,-392.5553 563.8096,-393.2334 555.9671,-386.1098 553.2365,-392.5553"/>
</g>
<!-- Node32 -->
<g id="node26" class="node">
<title>Node32</title>
<g id="a_node26"><a xlink:href="helios__float_8h.html" target="_top" xlink:title=" ">
<polygon fill="#ffffff" stroke="#000000" points="690.4897,-324.5 690.4897,-354.5 793.4897,-354.5 793.4897,-324.5 690.4897,-324.5"/>
<text text-anchor="start" x="698.4897" y="-342.5" font-family="Helvetica,sans-Serif" font-size="10.00" fill="#000000">builtins/float/include</text>
<text text-anchor="middle" x="741.9897" y="-331.5" font-family="Helvetica,sans-Serif" font-size="10.00" fill="#000000">/helios_float.h</text>
</a>
</g>
</g>
<!-- Node9&#45;&gt;Node32 -->
<g id="edge46" class="edge">
<title>Node9&#45;&gt;Node32</title>
<path fill="none" stroke="#191970" d="M655.458,-386.6352C674.2075,-376.422 696.6997,-364.1702 714.0527,-354.7177"/>
<polygon fill="#191970" stroke="#191970" points="653.7008,-383.6067 646.5933,-391.4639 657.0493,-389.7539 653.7008,-383.6067"/>
</g>
<!-- Node33 -->
<g id="node27" class="node">
<title>Node33</title>
<g id="a_node27"><a xlink:href="strtod_8c.html" target="_top" xlink:title=" ">
<polygon fill="#ffffff" stroke="#000000" points="964.4897,-263 964.4897,-282 1069.4897,-282 1069.4897,-263 964.4897,-263"/>
<text text-anchor="middle" x="1016.9897" y="-270" font-family="Helvetica,sans-Serif" font-size="10.00" fill="#000000">builtins/float/strtod.c</text>
</a>
</g>
</g>
<!-- Node9&#45;&gt;Node33 -->
<g id="edge52" class="edge">
<title>Node9&#45;&gt;Node33</title>
<path fill="none" stroke="#191970" d="M684.1656,-390.8078C752.9531,-375.5285 775.2853,-382.6835 835.9897,-355 857.4257,-345.2244 858.2123,-335.1067 878.9897,-324 913.2693,-305.6757 955.4923,-290.9557 984.141,-282.02"/>
<polygon fill="#191970" stroke="#191970" points="683.1003,-387.4615 674.1422,-393.1186 684.6729,-394.2826 683.1003,-387.4615"/>
</g>
<!-- Node34 -->
<g id="node28" class="node">
<title>Node34</title>
<g id="a_node28"><a xlink:href="helios__integer__math_8c.html" target="_top" xlink:title=" ">
<polygon fill="#ffffff" stroke="#000000" points="595.9897,-257.5 595.9897,-287.5 703.9897,-287.5 703.9897,-257.5 595.9897,-257.5"/>
<text text-anchor="start" x="603.9897" y="-275.5" font-family="Helvetica,sans-Serif" font-size="10.00" fill="#000000">builtins/integer/helios</text>
<text text-anchor="middle" x="649.9897" y="-264.5" font-family="Helvetica,sans-Serif" font-size="10.00" fill="#000000">_integer_math.c</text>
</a>
</g>
</g>
<!-- Node9&#45;&gt;Node34 -->
<g id="edge57" class="edge">
<title>Node9&#45;&gt;Node34</title>
<path fill="none" stroke="#191970" d="M632.4998,-382.0995C636.5415,-373.7423 640.544,-364.1802 642.9897,-355 649.0956,-332.0817 650.2386,-304.4343 650.2796,-287.6747"/>
<polygon fill="#191970" stroke="#191970" points="629.2526,-380.7629 627.8281,-391.2616 635.4887,-383.9427 629.2526,-380.7629"/>
</g>
<!-- Node35 -->
<g id="node29" class="node">
<title>Node35</title>
<g id="a_node29"><a xlink:href="helios__hashmap_8h.html" target="_top" xlink:title=" ">
<polygon fill="#ffffff" stroke="#000000" points="301.9897,-324.5 301.9897,-354.5 425.9897,-354.5 425.9897,-324.5 301.9897,-324.5"/>
<text text-anchor="start" x="309.9897" y="-342.5" font-family="Helvetica,sans-Serif" font-size="10.00" fill="#000000">builtins/hashmap/include</text>
<text text-anchor="middle" x="363.9897" y="-331.5" font-family="Helvetica,sans-Serif" font-size="10.00" fill="#000000">/helios_hashmap.h</text>
</a>
</g>
</g>
<!-- Node9&#45;&gt;Node35 -->
<g id="edge53" class="edge">
<title>Node9&#45;&gt;Node35</title>
<path fill="none" stroke="#191970" d="M554.0748,-389.4439C513.058,-378.667 460.5496,-364.8706 421.1175,-354.51"/>
<polygon fill="#191970" stroke="#191970" points="553.4113,-392.8883 563.9725,-392.0445 555.1902,-386.1181 553.4113,-392.8883"/>
</g>
<!-- Node36 -->
<g id="node30" class="node">
<title>Node36</title>
<g id="a_node30"><a xlink:href="helios__integer_8c.html" target="_top" xlink:title=" ">
<polygon fill="#ffffff" stroke="#000000" points="721.9897,-257.5 721.9897,-287.5 829.9897,-287.5 829.9897,-257.5 721.9897,-257.5"/>
<text text-anchor="start" x="729.9897" y="-275.5" font-family="Helvetica,sans-Serif" font-size="10.00" fill="#000000">builtins/integer/helios</text>
<text text-anchor="middle" x="775.9897" y="-264.5" font-family="Helvetica,sans-Serif" font-size="10.00" fill="#000000">_integer.c</text>
</a>
</g>
</g>
<!-- Node9&#45;&gt;Node36 -->
<g id="edge56" class="edge">
<title>Node9&#45;&gt;Node36</title>
<path fill="none" stroke="#191970" d="M684.194,-391.1981C767.5968,-380.9523 950.4575,-404.966 994.9897,-355 1077.9175,-261.9534 1045.8465,-337.312 838.9897,-288 836.141,-287.3209 833.2211,-286.6199 830.2738,-285.9083"/>
<polygon fill="#191970" stroke="#191970" points="683.4316,-387.773 674.057,-392.7092 684.4638,-394.6965 683.4316,-387.773"/>
</g>
<!-- Node37 -->
<g id="node31" class="node">
<title>Node37</title>
<g id="a_node31"><a xlink:href="helios__integer_8h.html" target="_top" xlink:title=" ">
<polygon fill="#ffffff" stroke="#000000" points="520.4897,-324.5 520.4897,-354.5 633.4897,-354.5 633.4897,-324.5 520.4897,-324.5"/>
<text text-anchor="start" x="528.4897" y="-342.5" font-family="Helvetica,sans-Serif" font-size="10.00" fill="#000000">builtins/integer/include</text>
<text text-anchor="middle" x="576.9897" y="-331.5" font-family="Helvetica,sans-Serif" font-size="10.00" fill="#000000">/helios_integer.h</text>
</a>
</g>
</g>
<!-- Node9&#45;&gt;Node37 -->
<g id="edge58" class="edge">
<title>Node9&#45;&gt;Node37</title>
<path fill="none" stroke="#191970" d="M604.1164,-382.7735C598.2501,-373.4154 591.6848,-362.9421 586.4825,-354.6432"/>
<polygon fill="#191970" stroke="#191970" points="601.1824,-384.6828 609.4593,-391.2967 607.1134,-380.9648 601.1824,-384.6828"/>
</g>
<!-- Node38 -->
<g id="node32" class="node">
<title>Node38</title>
<g id="a_node32"><a xlink:href="helios__string_8c.html" target="_top" xlink:title=" ">
<polygon fill="#ffffff" stroke="#000000" points="1164.4897,-257.5 1164.4897,-287.5 1267.4897,-287.5 1267.4897,-257.5 1164.4897,-257.5"/>
<text text-anchor="start" x="1172.4897" y="-275.5" font-family="Helvetica,sans-Serif" font-size="10.00" fill="#000000">builtins/string/helios</text>
<text text-anchor="middle" x="1215.9897" y="-264.5" font-family="Helvetica,sans-Serif" font-size="10.00" fill="#000000">_string.c</text>
</a>
</g>
</g>
<!-- Node9&#45;&gt;Node38 -->
<g id="edge64" class="edge">
<title>Node9&#45;&gt;Node38</title>
<path fill="none" stroke="#191970" d="M684.087,-391.1515C803.4365,-376.2795 1069.5819,-406.2916 1158.9897,-355 1185.2647,-339.9265 1202.1547,-307.2306 1210.2791,-287.8313"/>
<polygon fill="#191970" stroke="#191970" points="683.4467,-387.7071 674.0335,-392.5694 684.4243,-394.6385 683.4467,-387.7071"/>
</g>
<!-- Node39 -->
<g id="node33" class="node">
<title>Node39</title>
<g id="a_node33"><a xlink:href="helios__string_8h.html" target="_top" xlink:title=" ">
<polygon fill="#ffffff" stroke="#000000" points="1041.9897,-324.5 1041.9897,-354.5 1149.9897,-354.5 1149.9897,-324.5 1041.9897,-324.5"/>
<text text-anchor="start" x="1049.9897" y="-342.5" font-family="Helvetica,sans-Serif" font-size="10.00" fill="#000000">builtins/string/include</text>
<text text-anchor="middle" x="1095.9897" y="-331.5" font-family="Helvetica,sans-Serif" font-size="10.00" fill="#000000">/helios_string.h</text>
</a>
</g>
</g>
<!-- Node9&#45;&gt;Node39 -->
<g id="edge65" class="edge">
<title>Node9&#45;&gt;Node39</title>
<path fill="none" stroke="#191970" d="M684.2546,-390.9331C836.7247,-365.4396 879.1612,-379.6355 1027.9897,-355 1032.5291,-354.2486 1037.2192,-353.3787 1041.9152,-352.4422"/>
<polygon fill="#191970" stroke="#191970" points="683.3208,-387.5416 674.0502,-392.6705 684.4958,-394.4423 683.3208,-387.5416"/>
</g>
<!-- Node40 -->
<g id="node34" class="node">
<title>Node40</title>
<g id="a_node34"><a xlink:href="refcount_8c.html" target="_top" xlink:title=" ">
<polygon fill="#ffffff" stroke="#000000" points="887.9897,-330 887.9897,-349 985.9897,-349 985.9897,-330 887.9897,-330"/>
<text text-anchor="middle" x="936.9897" y="-337" font-family="Helvetica,sans-Serif" font-size="10.00" fill="#000000">memory/refcount.c</text>
</a>
</g>
</g>
<!-- Node9&#45;&gt;Node40 -->
<g id="edge73" class="edge">
<title>Node9&#45;&gt;Node40</title>
<path fill="none" stroke="#191970" d="M683.9512,-390.8579C769.1209,-372.8389 792.6226,-372.6636 873.9897,-355 882.3553,-353.184 891.3063,-351.0801 899.7578,-349.0194"/>
<polygon fill="#191970" stroke="#191970" points="683.1544,-387.449 674.1066,-392.9614 684.6172,-394.2945 683.1544,-387.449"/>
</g>
<!-- Node12&#45;&gt;Node10 -->
<g id="edge6" class="edge">
<title>Node12&#45;&gt;Node10</title>
<path fill="none" stroke="#191970" d="M293.7093,-323.6783C352.4129,-308.8445 431.3692,-288.817 432.9897,-288 452.4522,-278.188 450.7315,-265.0415 470.9897,-257 575.1476,-215.6549 874.6479,-272.8601 973.9897,-221 1027.4448,-193.0945 1064.4485,-127.3414 1079.0481,-97.5904"/>
<polygon fill="#191970" stroke="#191970" points="292.5815,-320.3532 283.7433,-326.1959 294.296,-327.14 292.5815,-320.3532"/>
</g>
<!-- Node12&#45;&gt;Node11 -->
<g id="edge7" class="edge">
<title>Node12&#45;&gt;Node11</title>
<path fill="none" stroke="#191970" d="M226.5752,-314.2879C217.3205,-261.4334 196.1265,-140.3924 188.6559,-97.7267"/>
<polygon fill="#191970" stroke="#191970" points="223.1372,-314.9467 228.3095,-324.1931 230.0323,-313.7393 223.1372,-314.9467"/>
</g>
<!-- Node12&#45;&gt;Node13 -->
<g id="edge8" class="edge">
<title>Node12&#45;&gt;Node13</title>
<path fill="none" stroke="#191970" d="M269.3704,-319.8702C293.6719,-307.4412 324.0219,-291.9187 343.2119,-282.1039"/>
<polygon fill="#191970" stroke="#191970" points="267.6981,-316.7942 260.3887,-324.4639 270.8856,-323.0264 267.6981,-316.7942"/>
</g>
<!-- Node14 -->
<g id="node8" class="node">
<title>Node14</title>
<g id="a_node8"><a xlink:href="serialize_8c.html" target="_top" xlink:title=" ">
<polygon fill="#ffffff" stroke="#000000" points="604.9897,-190.5 604.9897,-220.5 706.9897,-220.5 706.9897,-190.5 604.9897,-190.5"/>
<text text-anchor="start" x="612.9897" y="-208.5" font-family="Helvetica,sans-Serif" font-size="10.00" fill="#000000">builtins/serialization</text>
<text text-anchor="middle" x="655.9897" y="-197.5" font-family="Helvetica,sans-Serif" font-size="10.00" fill="#000000">/serialize.c</text>
</a>
</g>
</g>
<!-- Node13&#45;&gt;Node14 -->
<g id="edge9" class="edge">
<title>Node13&#45;&gt;Node14</title>
<path fill="none" stroke="#191970" d="M414.9185,-260.7996C461.3608,-250.4847 530.7046,-234.966 590.9897,-221 595.5105,-219.9527 600.2054,-218.8543 604.9097,-217.7462"/>
<polygon fill="#191970" stroke="#191970" points="414.082,-257.4 405.0779,-262.9835 415.5987,-264.2337 414.082,-257.4"/>
</g>
<!-- Node15 -->
<g id="node9" class="node">
<title>Node15</title>
<g id="a_node9"><a xlink:href="executestack_8c.html" target="_top" xlink:title=" ">
<polygon fill="#ffffff" stroke="#000000" points="819.4897,-134.5 819.4897,-153.5 924.4897,-153.5 924.4897,-134.5 819.4897,-134.5"/>
<text text-anchor="middle" x="871.9897" y="-141.5" font-family="Helvetica,sans-Serif" font-size="10.00" fill="#000000">hvm/executestack.c</text>
</a>
</g>
</g>
<!-- Node13&#45;&gt;Node15 -->
<g id="edge10" class="edge">
<title>Node13&#45;&gt;Node15</title>
<path fill="none" stroke="#191970" d="M416.028,-260.9789C423.3929,-259.5552 430.8666,-258.186 437.9897,-257 560.8852,-236.5382 596.7354,-257.0607 715.9897,-221 770.6297,-204.4777 829.6196,-170.3821 856.7544,-153.6668"/>
<polygon fill="#191970" stroke="#191970" points="415.2272,-257.5694 406.0957,-262.9419 416.5845,-264.4366 415.2272,-257.5694"/>
</g>
<!-- Node16 -->
<g id="node10" class="node">
<title>Node16</title>
<g id="a_node10"><a xlink:href="hvm_8c.html" target="_top" xlink:title=" ">
<polygon fill="#ffffff" stroke="#000000" points="942.4897,-134.5 942.4897,-153.5 1007.4897,-153.5 1007.4897,-134.5 942.4897,-134.5"/>
<text text-anchor="middle" x="974.9897" y="-141.5" font-family="Helvetica,sans-Serif" font-size="10.00" fill="#000000">hvm/hvm.c</text>
</a>
</g>
</g>
<!-- Node13&#45;&gt;Node16 -->
<g id="edge11" class="edge">
<title>Node13&#45;&gt;Node16</title>
<path fill="none" stroke="#191970" d="M413.4598,-261.0545C421.6356,-259.5108 430.0218,-258.0873 437.9897,-257 494.6052,-249.2741 906.1792,-256.4544 950.9897,-221 971.7437,-204.5793 974.9346,-170.4352 975.1832,-153.6877"/>
<polygon fill="#191970" stroke="#191970" points="412.7728,-257.6225 403.6338,-262.9825 414.1207,-264.4915 412.7728,-257.6225"/>
</g>
<!-- Node17 -->
<g id="node11" class="node">
<title>Node17</title>
<g id="a_node11"><a xlink:href="executestack_8h.html" target="_top" xlink:title=" ">
<polygon fill="#ffffff" stroke="#000000" points="802.4897,-196 802.4897,-215 941.4897,-215 941.4897,-196 802.4897,-196"/>
<text text-anchor="middle" x="871.9897" y="-203" font-family="Helvetica,sans-Serif" font-size="10.00" fill="#000000">hvm/include/executestack.h</text>
</a>
</g>
</g>
<!-- Node13&#45;&gt;Node17 -->
<g id="edge12" class="edge">
<title>Node13&#45;&gt;Node17</title>
<path fill="none" stroke="#191970" d="M415.1821,-260.9995C422.8159,-259.5393 430.5888,-258.1546 437.9897,-257 584.1998,-234.1899 622.2378,-240.0143 768.9897,-221 782.7984,-219.2108 797.6187,-217.0957 811.5927,-215.0125"/>
<polygon fill="#191970" stroke="#191970" points="414.406,-257.585 405.2698,-262.9496 415.7574,-264.4533 414.406,-257.585"/>
</g>
<!-- Node18 -->
<g id="node12" class="node">
<title>Node18</title>
<g id="a_node12"><a xlink:href="hvm_8h.html" target="_top" xlink:title=" ">
<polygon fill="#ffffff" stroke="#000000" points="18.4897,-73 18.4897,-92 117.4897,-92 117.4897,-73 18.4897,-73"/>
<text text-anchor="middle" x="67.9897" y="-80" font-family="Helvetica,sans-Serif" font-size="10.00" fill="#000000">hvm/include/hvm.h</text>
</a>
</g>
</g>
<!-- Node13&#45;&gt;Node18 -->
<g id="edge15" class="edge">
<title>Node13&#45;&gt;Node18</title>
<path fill="none" stroke="#191970" d="M338.4797,-257.3064C280.2846,-219.6973 130.7728,-123.0741 82.9433,-92.1638"/>
<polygon fill="#191970" stroke="#191970" points="336.7075,-260.3284 347.006,-262.8167 340.507,-254.4493 336.7075,-260.3284"/>
</g>
<!-- Node19 -->
<g id="node13" class="node">
<title>Node19</title>
<g id="a_node13"><a xlink:href="main_8c.html" target="_top" xlink:title=" ">
<polygon fill="#ffffff" stroke="#000000" points="200.9897,-6 200.9897,-25 270.9897,-25 270.9897,-6 200.9897,-6"/>
<text text-anchor="middle" x="235.9897" y="-13" font-family="Helvetica,sans-Serif" font-size="10.00" fill="#000000">main/main.c</text>
</a>
</g>
</g>
<!-- Node13&#45;&gt;Node19 -->
<g id="edge17" class="edge">
<title>Node13&#45;&gt;Node19</title>
<path fill="none" stroke="#191970" d="M352.6707,-253.4921C327.6194,-202.3953 259.4607,-63.3733 240.78,-25.2706"/>
<polygon fill="#191970" stroke="#191970" points="349.6594,-255.3009 357.2042,-262.7391 355.9447,-252.2194 349.6594,-255.3009"/>
</g>
<!-- Node20 -->
<g id="node14" class="node">
<title>Node20</title>
<g id="a_node14"><a xlink:href="token_8h.html" target="_top" xlink:title=" ">
<polygon fill="#ffffff" stroke="#000000" points="435.4897,-196 435.4897,-215 548.4897,-215 548.4897,-196 435.4897,-196"/>
<text text-anchor="middle" x="491.9897" y="-203" font-family="Helvetica,sans-Serif" font-size="10.00" fill="#000000">parser/include/token.h</text>
</a>
</g>
</g>
<!-- Node13&#45;&gt;Node20 -->
<g id="edge18" class="edge">
<title>Node13&#45;&gt;Node20</title>
<path fill="none" stroke="#191970" d="M389.6783,-258.2298C414.9158,-245.2227 451.5004,-226.3676 473.3985,-215.0817"/>
<polygon fill="#191970" stroke="#191970" points="387.901,-255.2082 380.6156,-262.9005 391.1079,-261.4304 387.901,-255.2082"/>
</g>
<!-- Node29 -->
<g id="node23" class="node">
<title>Node29</title>
<g id="a_node23"><a xlink:href="token_8c.html" target="_top" xlink:title=" ">
<polygon fill="#ffffff" stroke="#000000" points="722.4897,-134.5 722.4897,-153.5 801.4897,-153.5 801.4897,-134.5 722.4897,-134.5"/>
<text text-anchor="middle" x="761.9897" y="-141.5" font-family="Helvetica,sans-Serif" font-size="10.00" fill="#000000">parser/token.c</text>
</a>
</g>
</g>
<!-- Node13&#45;&gt;Node29 -->
<g id="edge43" class="edge">
<title>Node13&#45;&gt;Node29</title>
<path fill="none" stroke="#191970" d="M416.9275,-260.8102C465.8943,-249.8951 533.4935,-233.4624 557.9897,-221 577.4161,-211.1169 576.6299,-200.0129 595.9897,-190 617.9043,-178.6659 680.5294,-162.8328 722.2829,-153.0086"/>
<polygon fill="#191970" stroke="#191970" points="416.1012,-257.4083 407.0925,-262.9845 417.6123,-264.2433 416.1012,-257.4083"/>
</g>
<!-- Node17&#45;&gt;Node15 -->
<g id="edge13" class="edge">
<title>Node17&#45;&gt;Node15</title>
<path fill="none" stroke="#191970" d="M871.9897,-185.7462C871.9897,-175.0519 871.9897,-162.314 871.9897,-153.7449"/>
<polygon fill="#191970" stroke="#191970" points="868.4898,-185.8906 871.9897,-195.8906 875.4898,-185.8907 868.4898,-185.8906"/>
</g>
<!-- Node17&#45;&gt;Node16 -->
<g id="edge14" class="edge">
<title>Node17&#45;&gt;Node16</title>
<path fill="none" stroke="#191970" d="M896.6787,-190.7585C916.0165,-179.2122 942.3479,-163.49 959.009,-153.5419"/>
<polygon fill="#191970" stroke="#191970" points="894.8751,-187.7589 888.0835,-195.8906 898.4638,-193.7691 894.8751,-187.7589"/>
</g>
<!-- Node18&#45;&gt;Node19 -->
<g id="edge16" class="edge">
<title>Node18&#45;&gt;Node19</title>
<path fill="none" stroke="#191970" d="M101.6384,-69.0806C134.2946,-56.057 183.0418,-36.6162 211.9641,-25.0817"/>
<polygon fill="#191970" stroke="#191970" points="100.0521,-65.9451 92.06,-72.9005 102.6452,-72.4471 100.0521,-65.9451"/>
</g>
<!-- Node21 -->
<g id="node15" class="node">
<title>Node21</title>
<g id="a_node15"><a xlink:href="AST_8c.html" target="_top" xlink:title=" ">
<polygon fill="#ffffff" stroke="#000000" points="750.9897,-6 750.9897,-25 824.9897,-25 824.9897,-6 750.9897,-6"/>
<text text-anchor="middle" x="787.9897" y="-13" font-family="Helvetica,sans-Serif" font-size="10.00" fill="#000000">parser/AST.c</text>
</a>
</g>
</g>
<!-- Node20&#45;&gt;Node21 -->
<g id="edge19" class="edge">
<title>Node20&#45;&gt;Node21</title>
<path fill="none" stroke="#191970" d="M537.0163,-192.9507C566.3219,-183.9584 604.917,-170.5347 636.9897,-154 675.5661,-134.1124 684.8066,-127.1187 716.9897,-98 743.193,-74.2917 768.9994,-41.199 781.0071,-25.0823"/>
<polygon fill="#191970" stroke="#191970" points="535.6319,-189.7122 527.0639,-195.9444 537.6483,-196.4155 535.6319,-189.7122"/>
</g>
<!-- Node22 -->
<g id="node16" class="node">
<title>Node22</title>
<g id="a_node16"><a xlink:href="AST_8h.html" target="_top" xlink:title=" ">
<polygon fill="#ffffff" stroke="#000000" points="520.4897,-134.5 520.4897,-153.5 627.4897,-153.5 627.4897,-134.5 520.4897,-134.5"/>
<text text-anchor="middle" x="573.9897" y="-141.5" font-family="Helvetica,sans-Serif" font-size="10.00" fill="#000000">parser/include/AST.h</text>
</a>
</g>
</g>
<!-- Node20&#45;&gt;Node22 -->
<g id="edge20" class="edge">
<title>Node20&#45;&gt;Node22</title>
<path fill="none" stroke="#191970" d="M513.1243,-189.6491C528.3604,-178.222 548.4232,-163.1749 561.2672,-153.5419"/>
<polygon fill="#191970" stroke="#191970" points="510.7022,-187.0906 504.8022,-195.8906 514.9023,-192.6906 510.7022,-187.0906"/>
</g>
<!-- Node24 -->
<g id="node18" class="node">
<title>Node24</title>
<g id="a_node18"><a xlink:href="expressions_8c.html" target="_top" xlink:title=" ">
<polygon fill="#ffffff" stroke="#000000" points="288.9897,-.5 288.9897,-30.5 386.9897,-30.5 386.9897,-.5 288.9897,-.5"/>
<text text-anchor="start" x="296.9897" y="-18.5" font-family="Helvetica,sans-Serif" font-size="10.00" fill="#000000">parser/parserfuncs</text>
<text text-anchor="middle" x="337.9897" y="-7.5" font-family="Helvetica,sans-Serif" font-size="10.00" fill="#000000">/expressions.c</text>
</a>
</g>
</g>
<!-- Node20&#45;&gt;Node24 -->
<g id="edge38" class="edge">
<title>Node20&#45;&gt;Node24</title>
<path fill="none" stroke="#191970" d="M477.7213,-187.8961C447.7157,-150.8762 378.5295,-65.5165 350.3106,-30.7011"/>
<polygon fill="#191970" stroke="#191970" points="475.1254,-190.2519 484.1411,-195.8167 480.5634,-185.8441 475.1254,-190.2519"/>
</g>
<!-- Node25 -->
<g id="node19" class="node">
<title>Node25</title>
<g id="a_node19"><a xlink:href="floats_8c.html" target="_top" xlink:title=" ">
<polygon fill="#ffffff" stroke="#000000" points="842.9897,-.5 842.9897,-30.5 940.9897,-30.5 940.9897,-.5 842.9897,-.5"/>
<text text-anchor="start" x="850.9897" y="-18.5" font-family="Helvetica,sans-Serif" font-size="10.00" fill="#000000">parser/parserfuncs</text>
<text text-anchor="middle" x="891.9897" y="-7.5" font-family="Helvetica,sans-Serif" font-size="10.00" fill="#000000">/floats.c</text>
</a>
</g>
</g>
<!-- Node20&#45;&gt;Node25 -->
<g id="edge39" class="edge">
<title>Node20&#45;&gt;Node25</title>
<path fill="none" stroke="#191970" d="M538.1518,-193.3349C582.0139,-181.5338 644.6348,-163.988 667.9897,-154 713.7597,-134.4261 722.547,-124.0123 764.9897,-98 801.978,-75.3306 844.0445,-47.6113 869.2774,-30.769"/>
<polygon fill="#191970" stroke="#191970" points="537.0245,-190.0134 528.2708,-195.9818 538.8359,-196.775 537.0245,-190.0134"/>
</g>
<!-- Node26 -->
<g id="node20" class="node">
<title>Node26</title>
<g id="a_node20"><a xlink:href="integers_8c.html" target="_top" xlink:title=" ">
<polygon fill="#ffffff" stroke="#000000" points="404.9897,-.5 404.9897,-30.5 502.9897,-30.5 502.9897,-.5 404.9897,-.5"/>
<text text-anchor="start" x="412.9897" y="-18.5" font-family="Helvetica,sans-Serif" font-size="10.00" fill="#000000">parser/parserfuncs</text>
<text text-anchor="middle" x="453.9897" y="-7.5" font-family="Helvetica,sans-Serif" font-size="10.00" fill="#000000">/integers.c</text>
</a>
</g>
</g>
<!-- Node20&#45;&gt;Node26 -->
<g id="edge40" class="edge">
<title>Node20&#45;&gt;Node26</title>
<path fill="none" stroke="#191970" d="M486.2167,-185.9707C483.5035,-176.3897 480.3538,-164.6464 477.9897,-154 468.0975,-109.4506 459.8512,-56.0836 456.1245,-30.5519"/>
<polygon fill="#191970" stroke="#191970" points="482.8886,-187.0615 489.0293,-195.6954 489.613,-185.1166 482.8886,-187.0615"/>
</g>
<!-- Node27 -->
<g id="node21" class="node">
<title>Node27</title>
<g id="a_node21"><a xlink:href="parser_8c.html" target="_top" xlink:title=" ">
<polygon fill="#ffffff" stroke="#000000" points="520.9897,-.5 520.9897,-30.5 618.9897,-30.5 618.9897,-.5 520.9897,-.5"/>
<text text-anchor="start" x="528.9897" y="-18.5" font-family="Helvetica,sans-Serif" font-size="10.00" fill="#000000">parser/parserfuncs</text>
<text text-anchor="middle" x="569.9897" y="-7.5" font-family="Helvetica,sans-Serif" font-size="10.00" fill="#000000">/parser.c</text>
</a>
</g>
</g>
<!-- Node20&#45;&gt;Node27 -->
<g id="edge41" class="edge">
<title>Node20&#45;&gt;Node27</title>
<path fill="none" stroke="#191970" d="M490.7236,-185.5641C489.8168,-157.4046 491.4353,-105.1625 511.9897,-67 519.9717,-52.1803 533.987,-39.5544 546.2408,-30.5132"/>
<polygon fill="#191970" stroke="#191970" points="487.2357,-185.9067 491.1993,-195.7321 494.2281,-185.5795 487.2357,-185.9067"/>
</g>
<!-- Node20&#45;&gt;Node29 -->
<g id="edge42" class="edge">
<title>Node20&#45;&gt;Node29</title>
<path fill="none" stroke="#191970" d="M543.9122,-193.6732C595.9512,-181.8199 674.9355,-163.829 722.2019,-153.0628"/>
<polygon fill="#191970" stroke="#191970" points="542.8539,-190.3245 533.881,-195.9581 544.4086,-197.1497 542.8539,-190.3245"/>
</g>
<!-- Node22&#45;&gt;Node10 -->
<g id="edge21" class="edge">
<title>Node22&#45;&gt;Node10</title>
<path fill="none" stroke="#191970" d="M637.7878,-136.3368C740.9613,-123.9438 942.3049,-99.759 1035.9136,-88.515"/>
<polygon fill="#191970" stroke="#191970" points="637.3262,-132.867 627.815,-137.5347 638.1611,-139.817 637.3262,-132.867"/>
</g>
<!-- Node22&#45;&gt;Node11 -->
<g id="edge22" class="edge">
<title>Node22&#45;&gt;Node11</title>
<path fill="none" stroke="#191970" d="M510.4339,-133.9261C433.7442,-121.7704 306.3845,-101.5832 236.2158,-90.4611"/>
<polygon fill="#191970" stroke="#191970" points="510.0227,-137.4045 520.4474,-135.5133 511.1186,-130.4908 510.0227,-137.4045"/>
</g>
<!-- Node22&#45;&gt;Node19 -->
<g id="edge23" class="edge">
<title>Node22&#45;&gt;Node19</title>
<path fill="none" stroke="#191970" d="M529.8985,-131.656C500.2484,-123.0237 460.437,-110.7892 425.9897,-98 362.7779,-74.5314 290.2376,-41.1842 255.943,-25.0185"/>
<polygon fill="#191970" stroke="#191970" points="528.9633,-135.0288 539.5418,-134.4409 530.9055,-128.3037 528.9633,-135.0288"/>
</g>
<!-- Node22&#45;&gt;Node21 -->
<g id="edge24" class="edge">
<title>Node22&#45;&gt;Node21</title>
<path fill="none" stroke="#191970" d="M611.3917,-130.8239C632.7296,-122.6387 659.6008,-111.1786 681.9897,-98 719.7714,-75.7608 759.2278,-41.6926 777.5232,-25.163"/>
<polygon fill="#191970" stroke="#191970" points="610.1425,-127.5543 602.0131,-134.3486 612.6052,-134.1068 610.1425,-127.5543"/>
</g>
<!-- Node23 -->
<g id="node17" class="node">
<title>Node23</title>
<g id="a_node17"><a xlink:href="parser_8h.html" target="_top" xlink:title=" ">
<polygon fill="#ffffff" stroke="#000000" points="520.4897,-73 520.4897,-92 635.4897,-92 635.4897,-73 520.4897,-73"/>
<text text-anchor="middle" x="577.9897" y="-80" font-family="Helvetica,sans-Serif" font-size="10.00" fill="#000000">parser/include/parser.h</text>
</a>
</g>
</g>
<!-- Node22&#45;&gt;Node23 -->
<g id="edge25" class="edge">
<title>Node22&#45;&gt;Node23</title>
<path fill="none" stroke="#191970" d="M575.2745,-124.2462C575.9701,-113.5519 576.7986,-100.814 577.3559,-92.2449"/>
<polygon fill="#191970" stroke="#191970" points="571.7712,-124.1845 574.6147,-134.3906 578.7565,-124.6389 571.7712,-124.1845"/>
</g>
<!-- Node22&#45;&gt;Node24 -->
<g id="edge33" class="edge">
<title>Node22&#45;&gt;Node24</title>
<path fill="none" stroke="#191970" d="M544.9596,-129.7807C526.9949,-120.8691 503.5195,-109.0206 482.9897,-98 440.7563,-75.3287 392.5278,-47.4904 363.7068,-30.6413"/>
<polygon fill="#191970" stroke="#191970" points="543.8036,-133.1134 554.3194,-134.4056 546.9046,-126.8377 543.8036,-133.1134"/>
</g>
<!-- Node22&#45;&gt;Node25 -->
<g id="edge34" class="edge">
<title>Node22&#45;&gt;Node25</title>
<path fill="none" stroke="#191970" d="M617.6344,-131.5608C646.2228,-123.0228 684.2227,-110.9312 716.9897,-98 769.6356,-77.2238 828.7936,-48.0559 863.0833,-30.5441"/>
<polygon fill="#191970" stroke="#191970" points="616.5357,-128.2358 607.9389,-134.4281 618.5209,-134.9484 616.5357,-128.2358"/>
</g>
<!-- Node22&#45;&gt;Node26 -->
<g id="edge35" class="edge">
<title>Node22&#45;&gt;Node26</title>
<path fill="none" stroke="#191970" d="M550.0457,-128.9078C537.9014,-120.6164 523.3573,-109.6619 511.9897,-98 491.4585,-76.9371 472.896,-47.9895 462.5603,-30.5769"/>
<polygon fill="#191970" stroke="#191970" points="548.1183,-131.8293 558.3848,-134.4466 551.9913,-125.9983 548.1183,-131.8293"/>
</g>
<!-- Node22&#45;&gt;Node27 -->
<g id="edge36" class="edge">
<title>Node22&#45;&gt;Node27</title>
<path fill="none" stroke="#191970" d="M609.8189,-129.8042C623.3688,-122.4683 637.3521,-112.0489 644.9897,-98 651.5704,-85.8954 651.4074,-79.1918 644.9897,-67 636.5288,-50.9266 620.5347,-38.9016 605.4829,-30.5313"/>
<polygon fill="#191970" stroke="#191970" points="607.9838,-126.8079 600.5908,-134.397 611.1028,-133.0747 607.9838,-126.8079"/>
</g>
<!-- Node28 -->
<g id="node22" class="node">
<title>Node28</title>
<g id="a_node22"><a xlink:href="parserutil_8c.html" target="_top" xlink:title=" ">
<polygon fill="#ffffff" stroke="#000000" points="637.4897,-6 637.4897,-25 732.4897,-25 732.4897,-6 637.4897,-6"/>
<text text-anchor="middle" x="684.9897" y="-13" font-family="Helvetica,sans-Serif" font-size="10.00" fill="#000000">parser/parserutil.c</text>
</a>
</g>
</g>
<!-- Node22&#45;&gt;Node28 -->
<g id="edge37" class="edge">
<title>Node22&#45;&gt;Node28</title>
<path fill="none" stroke="#191970" d="M614.8669,-130.4648C631.2739,-123.1769 649.0802,-112.6147 660.9897,-98 678.7993,-76.1451 683.3934,-41.5929 684.5782,-25.004"/>
<polygon fill="#191970" stroke="#191970" points="613.3185,-127.3179 605.4235,-134.3833 616.0014,-133.7833 613.3185,-127.3179"/>
</g>
<!-- Node23&#45;&gt;Node19 -->
<g id="edge26" class="edge">
<title>Node23&#45;&gt;Node19</title>
<path fill="none" stroke="#191970" d="M510.0055,-74.0582C449.1524,-65.7218 357.795,-51.2747 279.9897,-31 273.7199,-29.3662 267.0718,-27.2398 260.8942,-25.0883"/>
<polygon fill="#191970" stroke="#191970" points="509.8731,-77.572 520.2519,-75.4436 510.8111,-70.6352 509.8731,-77.572"/>
</g>
<!-- Node23&#45;&gt;Node21 -->
<g id="edge27" class="edge">
<title>Node23&#45;&gt;Node21</title>
<path fill="none" stroke="#191970" d="M618.9983,-69.8808C652.2179,-59.5962 700.1987,-44.601 741.9897,-31 747.7595,-29.1222 753.9225,-27.0746 759.801,-25.1012"/>
<polygon fill="#191970" stroke="#191970" points="617.7058,-66.6169 609.1858,-72.9146 619.7735,-73.3045 617.7058,-66.6169"/>
</g>
<!-- Node23&#45;&gt;Node24 -->
<g id="edge28" class="edge">
<title>Node23&#45;&gt;Node24</title>
<path fill="none" stroke="#191970" d="M534.0492,-70.2333C492.6056,-58.6636 430.571,-41.3456 387.4201,-29.2993"/>
<polygon fill="#191970" stroke="#191970" points="533.2856,-73.6539 543.8585,-72.9717 535.1679,-66.9117 533.2856,-73.6539"/>
</g>
<!-- Node23&#45;&gt;Node25 -->
<g id="edge29" class="edge">
<title>Node23&#45;&gt;Node25</title>
<path fill="none" stroke="#191970" d="M640.2359,-71.1074C692.2215,-61.3225 768.1894,-46.3949 833.9897,-31 836.8314,-30.3352 839.7453,-29.6303 842.6816,-28.9022"/>
<polygon fill="#191970" stroke="#191970" points="639.3526,-67.7119 630.1686,-72.9944 640.6423,-74.5921 639.3526,-67.7119"/>
</g>
<!-- Node23&#45;&gt;Node26 -->
<g id="edge30" class="edge">
<title>Node23&#45;&gt;Node26</title>
<path fill="none" stroke="#191970" d="M551.4018,-68.1339C530.8908,-57.0514 502.6009,-41.7657 481.7912,-30.5218"/>
<polygon fill="#191970" stroke="#191970" points="549.7619,-71.2261 560.2236,-72.9005 553.0895,-65.0675 549.7619,-71.2261"/>
</g>
<!-- Node23&#45;&gt;Node27 -->
<g id="edge31" class="edge">
<title>Node23&#45;&gt;Node27</title>
<path fill="none" stroke="#191970" d="M575.6346,-62.7758C574.4034,-52.4641 572.9203,-40.0437 571.7834,-30.5218"/>
<polygon fill="#191970" stroke="#191970" points="572.1825,-63.3861 576.8435,-72.9005 579.1332,-62.5561 572.1825,-63.3861"/>
</g>
<!-- Node23&#45;&gt;Node28 -->
<g id="edge32" class="edge">
<title>Node23&#45;&gt;Node28</title>
<path fill="none" stroke="#191970" d="M601.8862,-67.5368C622.6095,-54.5605 651.9815,-36.1687 669.6877,-25.0817"/>
<polygon fill="#191970" stroke="#191970" points="599.9383,-64.6269 593.3202,-72.9005 603.6533,-70.5598 599.9383,-64.6269"/>
</g>
<!-- Node32&#45;&gt;Node13 -->
<g id="edge50" class="edge">
<title>Node32&#45;&gt;Node13</title>
<path fill="none" stroke="#191970" d="M680.3261,-328.6277C606.9912,-315.6976 485.7588,-294.3224 415.9758,-282.0186"/>
<polygon fill="#191970" stroke="#191970" points="679.8899,-332.1047 690.3458,-330.3944 681.1054,-325.2111 679.8899,-332.1047"/>
</g>
<!-- Node32&#45;&gt;Node30 -->
<g id="edge47" class="edge">
<title>Node32&#45;&gt;Node30</title>
<path fill="none" stroke="#191970" d="M786.057,-320.4516C810.1454,-310.0392 839.5647,-297.3224 862.053,-287.6017"/>
<polygon fill="#191970" stroke="#191970" points="784.5652,-317.2834 776.7748,-324.4639 787.3427,-323.7088 784.5652,-317.2834"/>
</g>
<!-- Node32&#45;&gt;Node31 -->
<g id="edge48" class="edge">
<title>Node32&#45;&gt;Node31</title>
<path fill="none" stroke="#191970" d="M684.4871,-321.4123C650.8442,-310.8298 608.86,-297.6235 576.9996,-287.6017"/>
<polygon fill="#191970" stroke="#191970" points="683.5989,-324.802 694.1884,-324.4639 685.6994,-318.1245 683.5989,-324.802"/>
</g>
<!-- Node32&#45;&gt;Node33 -->
<g id="edge49" class="edge">
<title>Node32&#45;&gt;Node33</title>
<path fill="none" stroke="#191970" d="M803.5928,-324.7388C846.1436,-314.5102 904.0283,-300.5308 954.9897,-288 962.7472,-286.0925 971.0454,-284.0319 978.9665,-282.0552"/>
<polygon fill="#191970" stroke="#191970" points="802.5717,-321.3844 793.6662,-327.1239 804.2071,-328.1907 802.5717,-321.3844"/>
</g>
<!-- Node32&#45;&gt;Node34 -->
<g id="edge51" class="edge">
<title>Node32&#45;&gt;Node34</title>
<path fill="none" stroke="#191970" d="M712.9437,-318.3469C699.2545,-308.3776 683.2362,-296.7121 670.7833,-287.6432"/>
<polygon fill="#191970" stroke="#191970" points="710.9695,-321.2389 721.1135,-324.2967 715.0904,-315.5804 710.9695,-321.2389"/>
</g>
<!-- Node35&#45;&gt;Node13 -->
<g id="edge54" class="edge">
<title>Node35&#45;&gt;Node13</title>
<path fill="none" stroke="#191970" d="M363.2321,-314.1199C362.8974,-302.9072 362.5242,-290.4031 362.275,-282.055"/>
<polygon fill="#191970" stroke="#191970" points="359.739,-314.4056 363.5359,-324.2967 366.7359,-314.1967 359.739,-314.4056"/>
</g>
<!-- Node37&#45;&gt;Node13 -->
<g id="edge60" class="edge">
<title>Node37&#45;&gt;Node13</title>
<path fill="none" stroke="#191970" d="M519.1802,-321.4849C478.3826,-308.7713 425.3431,-292.2427 392.4918,-282.0053"/>
<polygon fill="#191970" stroke="#191970" points="518.151,-324.8302 528.7395,-324.4639 520.2337,-318.1471 518.151,-324.8302"/>
</g>
<!-- Node37&#45;&gt;Node31 -->
<g id="edge59" class="edge">
<title>Node37&#45;&gt;Node31</title>
<path fill="none" stroke="#191970" d="M560.1987,-316.0626C553.4422,-306.6315 545.8453,-296.0276 539.8386,-287.6432"/>
<polygon fill="#191970" stroke="#191970" points="557.4287,-318.2059 566.0978,-324.2967 563.1191,-314.1292 557.4287,-318.2059"/>
</g>
<!-- Node37&#45;&gt;Node34 -->
<g id="edge62" class="edge">
<title>Node37&#45;&gt;Node34</title>
<path fill="none" stroke="#191970" d="M600.9637,-317.4965C611.6164,-307.7193 623.8891,-296.4554 633.4905,-287.6432"/>
<polygon fill="#191970" stroke="#191970" points="598.5553,-314.9562 593.5546,-324.2967 603.2886,-320.1134 598.5553,-314.9562"/>
</g>
<!-- Node37&#45;&gt;Node36 -->
<g id="edge61" class="edge">
<title>Node37&#45;&gt;Node36</title>
<path fill="none" stroke="#191970" d="M631.524,-321.1392C662.8171,-310.6033 701.6247,-297.5375 731.1355,-287.6017"/>
<polygon fill="#191970" stroke="#191970" points="630.0097,-317.9559 621.6492,-324.4639 632.2433,-324.59 630.0097,-317.9559"/>
</g>
<!-- Node39&#45;&gt;Node10 -->
<g id="edge66" class="edge">
<title>Node39&#45;&gt;Node10</title>
<path fill="none" stroke="#191970" d="M1105.2887,-314.8879C1108.0169,-306.4856 1110.6315,-296.9499 1111.9897,-288 1122.7544,-217.069 1100.9514,-131.8897 1090.8031,-97.7461"/>
<polygon fill="#191970" stroke="#191970" points="1101.9393,-313.8645 1101.9813,-324.4593 1108.5554,-316.1507 1101.9393,-313.8645"/>
</g>
<!-- Node39&#45;&gt;Node11 -->
<g id="edge67" class="edge">
<title>Node39&#45;&gt;Node11</title>
<path fill="none" stroke="#191970" d="M1098.2332,-314.0789C1098.3546,-295.3426 1095.0091,-270.8073 1078.9897,-257 1024.0318,-209.631 496.5484,-241.6345 426.9897,-221 336.5423,-194.1689 243.6893,-127.5456 204.8533,-97.5543"/>
<polygon fill="#191970" stroke="#191970" points="1094.7264,-314.1857 1097.8307,-324.3155 1101.721,-314.4607 1094.7264,-314.1857"/>
</g>
<!-- Node39&#45;&gt;Node13 -->
<g id="edge70" class="edge">
<title>Node39&#45;&gt;Node13</title>
<path fill="none" stroke="#191970" d="M1031.7528,-328.8173C1019.5677,-327.0251 1006.9051,-325.3213 994.9897,-324 762.9739,-298.2724 703.1438,-312.4485 470.9897,-288 455.4975,-286.3685 438.822,-284.2048 423.2869,-282.0132"/>
<polygon fill="#191970" stroke="#191970" points="1031.4395,-332.3095 1041.8491,-330.3372 1032.4816,-325.3875 1031.4395,-332.3095"/>
</g>
<!-- Node39&#45;&gt;Node30 -->
<g id="edge68" class="edge">
<title>Node39&#45;&gt;Node30</title>
<path fill="none" stroke="#191970" d="M1041.4555,-321.1392C1010.1623,-310.6033 971.3548,-297.5375 941.844,-287.6017"/>
<polygon fill="#191970" stroke="#191970" points="1040.7362,-324.59 1051.3303,-324.4639 1042.9698,-317.9559 1040.7362,-324.59"/>
</g>
<!-- Node39&#45;&gt;Node33 -->
<g id="edge69" class="edge">
<title>Node39&#45;&gt;Node33</title>
<path fill="none" stroke="#191970" d="M1070.0973,-317.5406C1055.935,-305.5296 1039.1141,-291.2637 1028.256,-282.055"/>
<polygon fill="#191970" stroke="#191970" points="1068.173,-320.4979 1078.0634,-324.2967 1072.7007,-315.1593 1068.173,-320.4979"/>
</g>
<!-- Node39&#45;&gt;Node36 -->
<g id="edge71" class="edge">
<title>Node39&#45;&gt;Node36</title>
<path fill="none" stroke="#191970" d="M1031.8248,-324.8085C1030.5358,-324.5347 1029.2564,-324.2649 1027.9897,-324 944.2904,-306.4953 922.5361,-306.2209 838.9897,-288 836.1284,-287.376 833.1985,-286.7188 830.2434,-286.0417"/>
<polygon fill="#191970" stroke="#191970" points="1031.3239,-328.281 1041.8376,-326.9723 1032.8025,-321.439 1031.3239,-328.281"/>
</g>
<!-- Node39&#45;&gt;Node38 -->
<g id="edge72" class="edge">
<title>Node39&#45;&gt;Node38</title>
<path fill="none" stroke="#191970" d="M1132.0683,-319.3561C1150.2593,-309.1995 1171.9582,-297.0843 1188.7341,-287.7177"/>
<polygon fill="#191970" stroke="#191970" points="1129.9451,-316.5329 1122.9201,-324.4639 1133.3576,-322.6448 1129.9451,-316.5329"/>
</g>
<!-- Node41&#45;&gt;Node13 -->
<g id="edge75" class="edge">
<title>Node41&#45;&gt;Node13</title>
<path fill="none" stroke="#191970" d="M58.6694,-387.7242C21.8128,-372.6558 -15.3449,-349.8085 6.9897,-324 25.889,-302.1612 203.7949,-284.9311 300.3489,-277.0973"/>
<polygon fill="#191970" stroke="#191970" points="57.4094,-390.9896 67.9969,-391.3847 59.9666,-384.4734 57.4094,-390.9896"/>
</g>
</g>
</svg>
