<?xml version="1.0" encoding="UTF-8" standalone="no"?>
<!DOCTYPE svg PUBLIC "-//W3C//DTD SVG 1.1//EN"
 "http://www.w3.org/Graphics/SVG/1.1/DTD/svg11.dtd">
<!-- Generated by graphviz version 2.40.1 (20161225.0304)
 -->
<!-- Title: main/builtins/integer/helios_integer_compare.c Pages: 1 -->
<svg width="471pt" height="319pt"
 viewBox="0.00 0.00 470.96 319.00" xmlns="http://www.w3.org/2000/svg" xmlns:xlink="http://www.w3.org/1999/xlink">
<g id="graph0" class="graph" transform="scale(1 1) rotate(0) translate(4 315)">
<title>main/builtins/integer/helios_integer_compare.c</title>
<polygon fill="#ffffff" stroke="transparent" points="-4,4 -4,-315 466.9649,-315 466.9649,4 -4,4"/>
<!-- Node0 -->
<g id="node1" class="node">
<title>Node0</title>
<g id="a_node1"><a xlink:title=" ">
<polygon fill="#bfbfbf" stroke="#000000" points="145.4649,-280.5 145.4649,-310.5 290.4649,-310.5 290.4649,-280.5 145.4649,-280.5"/>
<text text-anchor="start" x="153.4649" y="-298.5" font-family="Helvetica,sans-Serif" font-size="10.00" fill="#000000">main/builtins/integer</text>
<text text-anchor="middle" x="217.9649" y="-287.5" font-family="Helvetica,sans-Serif" font-size="10.00" fill="#000000">/helios_integer_compare.c</text>
</a>
</g>
</g>
<!-- Node1 -->
<g id="node2" class="node">
<title>Node1</title>
<g id="a_node2"><a xlink:href="helios__boolean_8h.html" target="_top" xlink:title=" ">
<polygon fill="#ffffff" stroke="#000000" points="226.4649,-224.5 226.4649,-243.5 325.4649,-243.5 325.4649,-224.5 226.4649,-224.5"/>
<text text-anchor="middle" x="275.9649" y="-231.5" font-family="Helvetica,sans-Serif" font-size="10.00" fill="#000000">helios_boolean.h</text>
</a>
</g>
</g>
<!-- Node0&#45;&gt;Node1 -->
<g id="edge1" class="edge">
<title>Node0&#45;&gt;Node1</title>
<path fill="none" stroke="#191970" d="M232.302,-280.2977C240.6046,-271.4941 251.0832,-260.3833 259.6939,-251.2529"/>
<polygon fill="#191970" stroke="#191970" points="262.3636,-253.5234 266.6784,-243.8469 257.2711,-248.7206 262.3636,-253.5234"/>
</g>
<!-- Node2 -->
<g id="node3" class="node">
<title>Node2</title>
<g id="a_node3"><a xlink:href="helios__object_8h.html" target="_top" xlink:title=" ">
<polygon fill="#ffffff" stroke="#000000" points="40.9649,-168.5 40.9649,-187.5 130.9649,-187.5 130.9649,-168.5 40.9649,-168.5"/>
<text text-anchor="middle" x="85.9649" y="-175.5" font-family="Helvetica,sans-Serif" font-size="10.00" fill="#000000">helios_object.h</text>
</a>
</g>
</g>
<!-- Node0&#45;&gt;Node2 -->
<g id="edge16" class="edge">
<title>Node0&#45;&gt;Node2</title>
<path fill="none" stroke="#191970" d="M145.2422,-287.5095C90.6154,-279.8327 22.3471,-266.0858 4.9649,-244 -11.9683,-222.4847 19.224,-203.3968 47.6787,-191.3532"/>
<polygon fill="#191970" stroke="#191970" points="49.1773,-194.5231 57.1501,-187.5456 46.5662,-188.0283 49.1773,-194.5231"/>
</g>
<!-- Node10 -->
<g id="node11" class="node">
<title>Node10</title>
<g id="a_node11"><a xlink:href="helios__float_8h.html" target="_top" xlink:title=" ">
<polygon fill="#ffffff" stroke="#000000" points="13.9649,-224.5 13.9649,-243.5 95.9649,-243.5 95.9649,-224.5 13.9649,-224.5"/>
<text text-anchor="middle" x="54.9649" y="-231.5" font-family="Helvetica,sans-Serif" font-size="10.00" fill="#000000">helios_float.h</text>
</a>
</g>
</g>
<!-- Node0&#45;&gt;Node10 -->
<g id="edge12" class="edge">
<title>Node0&#45;&gt;Node10</title>
<path fill="none" stroke="#191970" d="M178.0906,-280.4554C151.013,-270.239 115.5555,-256.8609 89.6483,-247.0861"/>
<polygon fill="#191970" stroke="#191970" points="90.8159,-243.7858 80.2241,-243.5303 88.3448,-250.3352 90.8159,-243.7858"/>
</g>
<!-- Node11 -->
<g id="node12" class="node">
<title>Node11</title>
<g id="a_node12"><a xlink:href="helios__integer_8h.html" target="_top" xlink:title=" ">
<polygon fill="#ffffff" stroke="#000000" points="113.9649,-224.5 113.9649,-243.5 207.9649,-243.5 207.9649,-224.5 113.9649,-224.5"/>
<text text-anchor="middle" x="160.9649" y="-231.5" font-family="Helvetica,sans-Serif" font-size="10.00" fill="#000000">helios_integer.h</text>
</a>
</g>
</g>
<!-- Node0&#45;&gt;Node11 -->
<g id="edge14" class="edge">
<title>Node0&#45;&gt;Node11</title>
<path fill="none" stroke="#191970" d="M203.875,-280.2977C195.7156,-271.4941 185.4177,-260.3833 176.9554,-251.2529"/>
<polygon fill="#191970" stroke="#191970" points="179.456,-248.8021 170.0913,-243.8469 174.322,-253.5604 179.456,-248.8021"/>
</g>
<!-- Node12 -->
<g id="node13" class="node">
<title>Node12</title>
<g id="a_node13"><a xlink:title=" ">
<polygon fill="#ffffff" stroke="#bfbfbf" points="343.4649,-224.5 343.4649,-243.5 394.4649,-243.5 394.4649,-224.5 343.4649,-224.5"/>
<text text-anchor="middle" x="368.9649" y="-231.5" font-family="Helvetica,sans-Serif" font-size="10.00" fill="#000000">math.h</text>
</a>
</g>
</g>
<!-- Node0&#45;&gt;Node12 -->
<g id="edge17" class="edge">
<title>Node0&#45;&gt;Node12</title>
<path fill="none" stroke="#191970" d="M254.9037,-280.4554C279.7669,-270.329 312.2568,-257.0964 336.1985,-247.3453"/>
<polygon fill="#191970" stroke="#191970" points="337.6242,-250.5438 345.5653,-243.5303 334.9837,-244.0609 337.6242,-250.5438"/>
</g>
<!-- Node13 -->
<g id="node14" class="node">
<title>Node13</title>
<g id="a_node14"><a xlink:title=" ">
<polygon fill="#ffffff" stroke="#bfbfbf" points="412.9649,-224.5 412.9649,-243.5 462.9649,-243.5 462.9649,-224.5 412.9649,-224.5"/>
<text text-anchor="middle" x="437.9649" y="-231.5" font-family="Helvetica,sans-Serif" font-size="10.00" fill="#000000">stdio.h</text>
</a>
</g>
</g>
<!-- Node0&#45;&gt;Node13 -->
<g id="edge18" class="edge">
<title>Node0&#45;&gt;Node13</title>
<path fill="none" stroke="#191970" d="M273.3733,-280.4068C308.0774,-270.8962 353.9769,-258.2143 402.9036,-244.2755"/>
<polygon fill="#191970" stroke="#191970" points="404.0717,-247.5819 412.7269,-241.4715 402.1503,-240.8508 404.0717,-247.5819"/>
</g>
<!-- Node1&#45;&gt;Node2 -->
<g id="edge2" class="edge">
<title>Node1&#45;&gt;Node2</title>
<path fill="none" stroke="#191970" d="M243.3028,-224.3733C211.4351,-214.9807 162.8118,-200.6496 128.0579,-190.4064"/>
<polygon fill="#191970" stroke="#191970" points="128.7824,-186.9711 118.2009,-187.5011 126.8034,-193.6855 128.7824,-186.9711"/>
</g>
<!-- Node6 -->
<g id="node7" class="node">
<title>Node6</title>
<g id="a_node7"><a xlink:title=" ">
<polygon fill="#ffffff" stroke="#bfbfbf" points="244.9649,-.5 244.9649,-19.5 306.9649,-19.5 306.9649,-.5 244.9649,-.5"/>
<text text-anchor="middle" x="275.9649" y="-7.5" font-family="Helvetica,sans-Serif" font-size="10.00" fill="#000000">stdbool.h</text>
</a>
</g>
</g>
<!-- Node1&#45;&gt;Node6 -->
<g id="edge11" class="edge">
<title>Node1&#45;&gt;Node6</title>
<path fill="none" stroke="#191970" d="M275.9649,-224.375C275.9649,-190.4851 275.9649,-76.2317 275.9649,-29.8332"/>
<polygon fill="#191970" stroke="#191970" points="279.465,-29.5891 275.9649,-19.5891 272.465,-29.5892 279.465,-29.5891"/>
</g>
<!-- Node3 -->
<g id="node4" class="node">
<title>Node3</title>
<g id="a_node4"><a xlink:href="helios__type_8h.html" target="_top" xlink:title=" ">
<polygon fill="#ffffff" stroke="#000000" points="44.9649,-112.5 44.9649,-131.5 126.9649,-131.5 126.9649,-112.5 44.9649,-112.5"/>
<text text-anchor="middle" x="85.9649" y="-119.5" font-family="Helvetica,sans-Serif" font-size="10.00" fill="#000000">helios_type.h</text>
</a>
</g>
</g>
<!-- Node2&#45;&gt;Node3 -->
<g id="edge3" class="edge">
<title>Node2&#45;&gt;Node3</title>
<path fill="none" stroke="#191970" d="M85.9649,-168.2455C85.9649,-160.9382 85.9649,-150.6944 85.9649,-141.7046"/>
<polygon fill="#191970" stroke="#191970" points="89.465,-141.6426 85.9649,-131.6427 82.465,-141.6427 89.465,-141.6426"/>
</g>
<!-- Node4 -->
<g id="node5" class="node">
<title>Node4</title>
<g id="a_node5"><a xlink:href="helios__memory_8h.html" target="_top" xlink:title=" ">
<polygon fill="#ffffff" stroke="#000000" points="130.9649,-56.5 130.9649,-75.5 230.9649,-75.5 230.9649,-56.5 130.9649,-56.5"/>
<text text-anchor="middle" x="180.9649" y="-63.5" font-family="Helvetica,sans-Serif" font-size="10.00" fill="#000000">helios_memory.h</text>
</a>
</g>
</g>
<!-- Node3&#45;&gt;Node4 -->
<g id="edge4" class="edge">
<title>Node3&#45;&gt;Node4</title>
<path fill="none" stroke="#191970" d="M102.5127,-112.2455C117.2248,-103.5731 138.9537,-90.7645 155.8154,-80.825"/>
<polygon fill="#191970" stroke="#191970" points="157.7695,-83.736 164.6068,-75.6427 154.2148,-77.7057 157.7695,-83.736"/>
</g>
<!-- Node8 -->
<g id="node9" class="node">
<title>Node8</title>
<g id="a_node9"><a xlink:title=" ">
<polygon fill="#ffffff" stroke="#bfbfbf" points="4.4649,-.5 4.4649,-19.5 57.4649,-19.5 57.4649,-.5 4.4649,-.5"/>
<text text-anchor="middle" x="30.9649" y="-7.5" font-family="Helvetica,sans-Serif" font-size="10.00" fill="#000000">stdint.h</text>
</a>
</g>
</g>
<!-- Node3&#45;&gt;Node8 -->
<g id="edge9" class="edge">
<title>Node3&#45;&gt;Node8</title>
<path fill="none" stroke="#191970" d="M76.4393,-112.1898C68.3526,-103.3706 56.9757,-89.7278 49.9649,-76 42.5081,-61.3988 37.5803,-43.4424 34.616,-29.9473"/>
<polygon fill="#191970" stroke="#191970" points="37.9839,-28.9425 32.5753,-19.8322 31.1221,-30.3269 37.9839,-28.9425"/>
</g>
<!-- Node9 -->
<g id="node10" class="node">
<title>Node9</title>
<g id="a_node10"><a xlink:title=" ">
<polygon fill="#ffffff" stroke="#bfbfbf" points="59.4649,-56.5 59.4649,-75.5 112.4649,-75.5 112.4649,-56.5 59.4649,-56.5"/>
<text text-anchor="middle" x="85.9649" y="-63.5" font-family="Helvetica,sans-Serif" font-size="10.00" fill="#000000">stdlib.h</text>
</a>
</g>
</g>
<!-- Node3&#45;&gt;Node9 -->
<g id="edge10" class="edge">
<title>Node3&#45;&gt;Node9</title>
<path fill="none" stroke="#191970" d="M85.9649,-112.2455C85.9649,-104.9382 85.9649,-94.6944 85.9649,-85.7046"/>
<polygon fill="#191970" stroke="#191970" points="89.465,-85.6426 85.9649,-75.6427 82.465,-85.6427 89.465,-85.6426"/>
</g>
<!-- Node5 -->
<g id="node6" class="node">
<title>Node5</title>
<g id="a_node6"><a xlink:href="builtinutils_8h.html" target="_top" xlink:title=" ">
<polygon fill="#ffffff" stroke="#000000" points="75.4649,-.5 75.4649,-19.5 152.4649,-19.5 152.4649,-.5 75.4649,-.5"/>
<text text-anchor="middle" x="113.9649" y="-7.5" font-family="Helvetica,sans-Serif" font-size="10.00" fill="#000000">builtinutils.h</text>
</a>
</g>
</g>
<!-- Node4&#45;&gt;Node5 -->
<g id="edge5" class="edge">
<title>Node4&#45;&gt;Node5</title>
<path fill="none" stroke="#191970" d="M169.2944,-56.2455C159.3989,-47.9746 145.0022,-35.9416 133.3749,-26.2232"/>
<polygon fill="#191970" stroke="#191970" points="135.4191,-23.3703 125.5017,-19.6427 130.9299,-28.7413 135.4191,-23.3703"/>
</g>
<!-- Node4&#45;&gt;Node6 -->
<g id="edge6" class="edge">
<title>Node4&#45;&gt;Node6</title>
<path fill="none" stroke="#191970" d="M197.5127,-56.2455C212.2248,-47.5731 233.9537,-34.7645 250.8154,-24.825"/>
<polygon fill="#191970" stroke="#191970" points="252.7695,-27.736 259.6068,-19.6427 249.2148,-21.7057 252.7695,-27.736"/>
</g>
<!-- Node7 -->
<g id="node8" class="node">
<title>Node7</title>
<g id="a_node8"><a xlink:title=" ">
<polygon fill="#ffffff" stroke="#bfbfbf" points="170.9649,-.5 170.9649,-19.5 226.9649,-19.5 226.9649,-.5 170.9649,-.5"/>
<text text-anchor="middle" x="198.9649" y="-7.5" font-family="Helvetica,sans-Serif" font-size="10.00" fill="#000000">stddef.h</text>
</a>
</g>
</g>
<!-- Node4&#45;&gt;Node7 -->
<g id="edge7" class="edge">
<title>Node4&#45;&gt;Node7</title>
<path fill="none" stroke="#191970" d="M184.1003,-56.2455C186.4749,-48.8579 189.8142,-38.4689 192.7264,-29.4087"/>
<polygon fill="#191970" stroke="#191970" points="196.1374,-30.234 195.8655,-19.6427 189.4732,-28.0919 196.1374,-30.234"/>
</g>
<!-- Node4&#45;&gt;Node8 -->
<g id="edge8" class="edge">
<title>Node4&#45;&gt;Node8</title>
<path fill="none" stroke="#191970" d="M155.179,-56.3733C130.5602,-47.1822 93.2749,-33.2624 65.9775,-23.0713"/>
<polygon fill="#191970" stroke="#191970" points="67.0069,-19.7198 56.4144,-19.5011 64.5586,-26.2777 67.0069,-19.7198"/>
</g>
<!-- Node10&#45;&gt;Node2 -->
<g id="edge13" class="edge">
<title>Node10&#45;&gt;Node2</title>
<path fill="none" stroke="#191970" d="M60.3647,-224.2455C64.5876,-216.617 70.5822,-205.7881 75.709,-196.5267"/>
<polygon fill="#191970" stroke="#191970" points="78.8459,-198.0867 80.627,-187.6427 72.7217,-194.6965 78.8459,-198.0867"/>
</g>
<!-- Node11&#45;&gt;Node2 -->
<g id="edge15" class="edge">
<title>Node11&#45;&gt;Node2</title>
<path fill="none" stroke="#191970" d="M147.9009,-224.2455C136.6087,-215.814 120.0804,-203.4729 106.9378,-193.6598"/>
<polygon fill="#191970" stroke="#191970" points="108.9861,-190.8211 98.8792,-187.6427 104.798,-196.4301 108.9861,-190.8211"/>
</g>
</g>
</svg>
