<?xml version="1.0" encoding="UTF-8" standalone="no"?>
<!DOCTYPE svg PUBLIC "-//W3C//DTD SVG 1.1//EN"
 "http://www.w3.org/Graphics/SVG/1.1/DTD/svg11.dtd">
<!-- Generated by graphviz version 2.40.1 (20161225.0304)
 -->
<!-- Title: helios_float_tostring Pages: 1 -->
<svg width="603pt" height="66pt"
 viewBox="0.00 0.00 603.00 66.00" xmlns="http://www.w3.org/2000/svg" xmlns:xlink="http://www.w3.org/1999/xlink">
<g id="graph0" class="graph" transform="scale(1 1) rotate(0) translate(4 62)">
<title>helios_float_tostring</title>
<polygon fill="#ffffff" stroke="transparent" points="-4,4 -4,-62 599,-62 599,4 -4,4"/>
<!-- Node24 -->
<g id="node1" class="node">
<title>Node24</title>
<g id="a_node1"><a xlink:title="Create a helios_string object which represents the helios_float object&#39;s value.">
<polygon fill="#bfbfbf" stroke="#000000" points="0,-19.5 0,-38.5 116,-38.5 116,-19.5 0,-19.5"/>
<text text-anchor="middle" x="58" y="-26.5" font-family="Helvetica,sans-Serif" font-size="10.00" fill="#000000">helios_float_tostring</text>
</a>
</g>
</g>
<!-- Node25 -->
<g id="node2" class="node">
<title>Node25</title>
<g id="a_node2"><a xlink:href="helios__string_8c.html#a4338910535421a24735fc7eb3123495c" target="_top" xlink:title="Create a helios_string object from a c string.">
<polygon fill="#ffffff" stroke="#000000" points="152,-14 152,-44 259,-44 259,-14 152,-14"/>
<text text-anchor="start" x="160" y="-32" font-family="Helvetica,sans-Serif" font-size="10.00" fill="#000000">helios_string_from</text>
<text text-anchor="middle" x="205.5" y="-21" font-family="Helvetica,sans-Serif" font-size="10.00" fill="#000000">_charp</text>
</a>
</g>
</g>
<!-- Node24&#45;&gt;Node25 -->
<g id="edge1" class="edge">
<title>Node24&#45;&gt;Node25</title>
<path fill="none" stroke="#191970" d="M116.2959,-29C124.6541,-29 133.2897,-29 141.7465,-29"/>
<polygon fill="#191970" stroke="#191970" points="141.9428,-32.5001 151.9428,-29 141.9427,-25.5001 141.9428,-32.5001"/>
</g>
<!-- Node26 -->
<g id="node3" class="node">
<title>Node26</title>
<g id="a_node3"><a xlink:href="helios__string_8c.html#af727ca5352482ab7e542510f178a9f85" target="_top" xlink:title="Constructor of a helios_string.">
<polygon fill="#ffffff" stroke="#000000" points="295,-19.5 295,-38.5 395,-38.5 395,-19.5 295,-19.5"/>
<text text-anchor="middle" x="345" y="-26.5" font-family="Helvetica,sans-Serif" font-size="10.00" fill="#000000">helios_string_init</text>
</a>
</g>
</g>
<!-- Node25&#45;&gt;Node26 -->
<g id="edge2" class="edge">
<title>Node25&#45;&gt;Node26</title>
<path fill="none" stroke="#191970" d="M259.0354,-29C267.3384,-29 275.966,-29 284.4112,-29"/>
<polygon fill="#191970" stroke="#191970" points="284.588,-32.5001 294.588,-29 284.588,-25.5001 284.588,-32.5001"/>
</g>
<!-- Node27 -->
<g id="node4" class="node">
<title>Node27</title>
<g id="a_node4"><a xlink:href="helios__memory_8h.html#af87f0050f8e236d0945592fa4e54dc94" target="_top" xlink:title="Allocates a new helios object (and performs all the GC steps associated with that action).">
<polygon fill="#ffffff" stroke="#000000" points="450.5,-38.5 450.5,-57.5 575.5,-57.5 575.5,-38.5 450.5,-38.5"/>
<text text-anchor="middle" x="513" y="-45.5" font-family="Helvetica,sans-Serif" font-size="10.00" fill="#000000">helios_allocate_object</text>
</a>
</g>
</g>
<!-- Node26&#45;&gt;Node27 -->
<g id="edge3" class="edge">
<title>Node26&#45;&gt;Node27</title>
<path fill="none" stroke="#191970" d="M395.4055,-34.7006C409.4623,-36.2904 425.0217,-38.0501 440.0959,-39.7549"/>
<polygon fill="#191970" stroke="#191970" points="440.0999,-43.2776 450.4299,-40.9236 440.8866,-36.3219 440.0999,-43.2776"/>
</g>
<!-- Node28 -->
<g id="node5" class="node">
<title>Node28</title>
<g id="a_node5"><a xlink:href="helios__memory_8h.html#ab14fb1c046aae61ab06eda8eeaf2cd85" target="_top" xlink:title=" ">
<polygon fill="#ffffff" stroke="#000000" points="431,-.5 431,-19.5 595,-19.5 595,-.5 431,-.5"/>
<text text-anchor="middle" x="513" y="-7.5" font-family="Helvetica,sans-Serif" font-size="10.00" fill="#000000">helios_set_garbagecollectable</text>
</a>
</g>
</g>
<!-- Node26&#45;&gt;Node28 -->
<g id="edge4" class="edge">
<title>Node26&#45;&gt;Node28</title>
<path fill="none" stroke="#191970" d="M395.4055,-23.2994C403.4638,-22.388 412.016,-21.4208 420.6875,-20.4401"/>
<polygon fill="#191970" stroke="#191970" points="421.3561,-23.8869 430.8994,-19.2852 420.5694,-16.9312 421.3561,-23.8869"/>
</g>
</g>
</svg>
