<?xml version="1.0" encoding="UTF-8" standalone="no"?>
<!DOCTYPE svg PUBLIC "-//W3C//DTD SVG 1.1//EN"
 "http://www.w3.org/Graphics/SVG/1.1/DTD/svg11.dtd">
<!-- Generated by graphviz version 2.40.1 (20161225.0304)
 -->
<!-- Title: helios_hashmap_put Pages: 1 -->
<svg width="419pt" height="28pt"
 viewBox="0.00 0.00 419.00 28.00" xmlns="http://www.w3.org/2000/svg" xmlns:xlink="http://www.w3.org/1999/xlink">
<g id="graph0" class="graph" transform="scale(1 1) rotate(0) translate(4 24)">
<title>helios_hashmap_put</title>
<polygon fill="#ffffff" stroke="transparent" points="-4,4 -4,-24 415,-24 415,4 -4,4"/>
<!-- Node5 -->
<g id="node1" class="node">
<title>Node5</title>
<g id="a_node1"><a xlink:title="Insert a key,value pair into a hashmap.">
<polygon fill="#bfbfbf" stroke="#000000" points="0,-.5 0,-19.5 117,-19.5 117,-.5 0,-.5"/>
<text text-anchor="middle" x="58.5" y="-7.5" font-family="Helvetica,sans-Serif" font-size="10.00" fill="#000000">helios_hashmap_put</text>
</a>
</g>
</g>
<!-- Node6 -->
<g id="node2" class="node">
<title>Node6</title>
<g id="a_node2"><a xlink:href="buitlins_8c.html#a26dc7bca8513c7725d5f705266da0a89" target="_top" xlink:title="Copy of helios_hash for internal use.">
<polygon fill="#ffffff" stroke="#000000" points="153,-.5 153,-19.5 251,-19.5 251,-.5 153,-.5"/>
<text text-anchor="middle" x="202" y="-7.5" font-family="Helvetica,sans-Serif" font-size="10.00" fill="#000000">helios_hash_cint</text>
</a>
</g>
</g>
<!-- Node5&#45;&gt;Node6 -->
<g id="edge1" class="edge">
<title>Node5&#45;&gt;Node6</title>
<path fill="none" stroke="#191970" d="M117.281,-10C125.6452,-10 134.2526,-10 142.6279,-10"/>
<polygon fill="#191970" stroke="#191970" points="142.6971,-13.5001 152.697,-10 142.697,-6.5001 142.6971,-13.5001"/>
</g>
<!-- Node7 -->
<g id="node3" class="node">
<title>Node7</title>
<g id="a_node3"><a xlink:href="helios__integer_8c.html#a431fa4b0a6028a9ec5fab0a4d4699718" target="_top" xlink:title="Extract the c integer (long) from a helios object.">
<polygon fill="#ffffff" stroke="#000000" points="287,-.5 287,-19.5 411,-19.5 411,-.5 287,-.5"/>
<text text-anchor="middle" x="349" y="-7.5" font-family="Helvetica,sans-Serif" font-size="10.00" fill="#000000">helios_integer_to_cint</text>
</a>
</g>
</g>
<!-- Node6&#45;&gt;Node7 -->
<g id="edge2" class="edge">
<title>Node6&#45;&gt;Node7</title>
<path fill="none" stroke="#191970" d="M251.3578,-10C259.5709,-10 268.2365,-10 276.8766,-10"/>
<polygon fill="#191970" stroke="#191970" points="276.9792,-13.5001 286.9792,-10 276.9791,-6.5001 276.9792,-13.5001"/>
</g>
</g>
</svg>
