<?xml version="1.0" encoding="UTF-8" standalone="no"?>
<!DOCTYPE svg PUBLIC "-//W3C//DTD SVG 1.1//EN"
 "http://www.w3.org/Graphics/SVG/1.1/DTD/svg11.dtd">
<!-- Generated by graphviz version 2.40.1 (20161225.0304)
 -->
<!-- Title: builtins/type/include/helios_type.h Pages: 1 -->
<svg width="339pt" height="151pt"
 viewBox="0.00 0.00 339.00 151.00" xmlns="http://www.w3.org/2000/svg" xmlns:xlink="http://www.w3.org/1999/xlink">
<g id="graph0" class="graph" transform="scale(1 1) rotate(0) translate(4 147)">
<title>builtins/type/include/helios_type.h</title>
<polygon fill="#ffffff" stroke="transparent" points="-4,4 -4,-147 335,-147 335,4 -4,4"/>
<!-- Node0 -->
<g id="node1" class="node">
<title>Node0</title>
<g id="a_node1"><a xlink:title=" ">
<polygon fill="#bfbfbf" stroke="#000000" points="203.5,-112.5 203.5,-142.5 306.5,-142.5 306.5,-112.5 203.5,-112.5"/>
<text text-anchor="start" x="211.5" y="-130.5" font-family="Helvetica,sans-Serif" font-size="10.00" fill="#000000">builtins/type/include</text>
<text text-anchor="middle" x="255" y="-119.5" font-family="Helvetica,sans-Serif" font-size="10.00" fill="#000000">/helios_type.h</text>
</a>
</g>
</g>
<!-- Node1 -->
<g id="node2" class="node">
<title>Node1</title>
<g id="a_node2"><a xlink:href="helios__memory_8h.html" target="_top" xlink:title=" ">
<polygon fill="#ffffff" stroke="#000000" points="137,-56.5 137,-75.5 227,-75.5 227,-56.5 137,-56.5"/>
<text text-anchor="middle" x="182" y="-63.5" font-family="Helvetica,sans-Serif" font-size="10.00" fill="#000000">helios_memory.h</text>
</a>
</g>
</g>
<!-- Node0&#45;&gt;Node1 -->
<g id="edge1" class="edge">
<title>Node0&#45;&gt;Node1</title>
<path fill="none" stroke="#191970" d="M236.9551,-112.2977C226.1886,-103.2274 212.5149,-91.7077 201.5005,-82.4285"/>
<polygon fill="#191970" stroke="#191970" points="203.5911,-79.6132 193.6882,-75.8469 199.0809,-84.9667 203.5911,-79.6132"/>
</g>
<!-- Node5 -->
<g id="node6" class="node">
<title>Node5</title>
<g id="a_node6"><a xlink:title=" ">
<polygon fill="#ffffff" stroke="#bfbfbf" points="230.5,-.5 230.5,-19.5 279.5,-19.5 279.5,-.5 230.5,-.5"/>
<text text-anchor="middle" x="255" y="-7.5" font-family="Helvetica,sans-Serif" font-size="10.00" fill="#000000">stdint.h</text>
</a>
</g>
</g>
<!-- Node0&#45;&gt;Node5 -->
<g id="edge6" class="edge">
<title>Node0&#45;&gt;Node5</title>
<path fill="none" stroke="#191970" d="M255,-112.1389C255,-90.9692 255,-52.8174 255,-29.6112"/>
<polygon fill="#191970" stroke="#191970" points="258.5001,-29.5594 255,-19.5595 251.5001,-29.5595 258.5001,-29.5594"/>
</g>
<!-- Node6 -->
<g id="node7" class="node">
<title>Node6</title>
<g id="a_node7"><a xlink:title=" ">
<polygon fill="#ffffff" stroke="#bfbfbf" points="283,-56.5 283,-75.5 331,-75.5 331,-56.5 283,-56.5"/>
<text text-anchor="middle" x="307" y="-63.5" font-family="Helvetica,sans-Serif" font-size="10.00" fill="#000000">stdlib.h</text>
</a>
</g>
</g>
<!-- Node0&#45;&gt;Node6 -->
<g id="edge7" class="edge">
<title>Node0&#45;&gt;Node6</title>
<path fill="none" stroke="#191970" d="M267.8539,-112.2977C275.2224,-103.5831 284.5026,-92.6075 292.1777,-83.5302"/>
<polygon fill="#191970" stroke="#191970" points="294.8902,-85.743 298.6741,-75.8469 289.5448,-81.2233 294.8902,-85.743"/>
</g>
<!-- Node2 -->
<g id="node3" class="node">
<title>Node2</title>
<g id="a_node3"><a xlink:href="builtinutils_8h.html" target="_top" xlink:title=" ">
<polygon fill="#ffffff" stroke="#000000" points="0,-.5 0,-19.5 68,-19.5 68,-.5 0,-.5"/>
<text text-anchor="middle" x="34" y="-7.5" font-family="Helvetica,sans-Serif" font-size="10.00" fill="#000000">builtinutils.h</text>
</a>
</g>
</g>
<!-- Node1&#45;&gt;Node2 -->
<g id="edge2" class="edge">
<title>Node1&#45;&gt;Node2</title>
<path fill="none" stroke="#191970" d="M156.5579,-56.3733C132.2674,-47.1822 95.4792,-33.2624 68.5457,-23.0713"/>
<polygon fill="#191970" stroke="#191970" points="69.7016,-19.7666 59.1101,-19.5011 67.2243,-26.3136 69.7016,-19.7666"/>
</g>
<!-- Node3 -->
<g id="node4" class="node">
<title>Node3</title>
<g id="a_node4"><a xlink:title=" ">
<polygon fill="#ffffff" stroke="#bfbfbf" points="86,-.5 86,-19.5 142,-19.5 142,-.5 86,-.5"/>
<text text-anchor="middle" x="114" y="-7.5" font-family="Helvetica,sans-Serif" font-size="10.00" fill="#000000">stdbool.h</text>
</a>
</g>
</g>
<!-- Node1&#45;&gt;Node3 -->
<g id="edge3" class="edge">
<title>Node1&#45;&gt;Node3</title>
<path fill="none" stroke="#191970" d="M170.1553,-56.2455C160.112,-47.9746 145.5005,-35.9416 133.6996,-26.2232"/>
<polygon fill="#191970" stroke="#191970" points="135.6533,-23.298 125.709,-19.6427 131.2033,-28.7015 135.6533,-23.298"/>
</g>
<!-- Node4 -->
<g id="node5" class="node">
<title>Node4</title>
<g id="a_node5"><a xlink:title=" ">
<polygon fill="#ffffff" stroke="#bfbfbf" points="160,-.5 160,-19.5 212,-19.5 212,-.5 160,-.5"/>
<text text-anchor="middle" x="186" y="-7.5" font-family="Helvetica,sans-Serif" font-size="10.00" fill="#000000">stddef.h</text>
</a>
</g>
</g>
<!-- Node1&#45;&gt;Node4 -->
<g id="edge4" class="edge">
<title>Node1&#45;&gt;Node4</title>
<path fill="none" stroke="#191970" d="M182.6967,-56.2455C183.2187,-48.9382 183.9504,-38.6944 184.5925,-29.7046"/>
<polygon fill="#191970" stroke="#191970" points="188.0898,-29.8667 185.3112,-19.6427 181.1076,-29.3679 188.0898,-29.8667"/>
</g>
<!-- Node1&#45;&gt;Node5 -->
<g id="edge5" class="edge">
<title>Node1&#45;&gt;Node5</title>
<path fill="none" stroke="#191970" d="M194.7156,-56.2455C205.602,-47.8943 221.4883,-35.7076 234.22,-25.9408"/>
<polygon fill="#191970" stroke="#191970" points="236.6261,-28.5063 242.4301,-19.6427 232.3654,-22.9523 236.6261,-28.5063"/>
</g>
</g>
</svg>
