<?xml version="1.0" encoding="UTF-8" standalone="no"?>
<!DOCTYPE svg PUBLIC "-//W3C//DTD SVG 1.1//EN"
 "http://www.w3.org/Graphics/SVG/1.1/DTD/svg11.dtd">
<!-- Generated by graphviz version 2.40.1 (20161225.0304)
 -->
<!-- Title: helios_free_object Pages: 1 -->
<svg width="259pt" height="192pt"
 viewBox="0.00 0.00 259.00 192.00" xmlns="http://www.w3.org/2000/svg" xmlns:xlink="http://www.w3.org/1999/xlink">
<g id="graph0" class="graph" transform="scale(1 1) rotate(0) translate(4 188)">
<title>helios_free_object</title>
<polygon fill="#ffffff" stroke="transparent" points="-4,4 -4,-188 255,-188 255,4 -4,4"/>
<!-- Node5 -->
<g id="node1" class="node">
<title>Node5</title>
<g id="a_node1"><a xlink:title=" ">
<polygon fill="#bfbfbf" stroke="#000000" points="156,-88.5 156,-107.5 251,-107.5 251,-88.5 156,-88.5"/>
<text text-anchor="middle" x="203.5" y="-95.5" font-family="Helvetica,sans-Serif" font-size="10.00" fill="#000000">helios_free_object</text>
</a>
</g>
</g>
<!-- Node6 -->
<g id="node2" class="node">
<title>Node6</title>
<g id="a_node2"><a xlink:href="helios__code_8h.html#a4a6bd5c2d4489cebee037663182b5dd3" target="_top" xlink:title=" ">
<polygon fill="#ffffff" stroke="#000000" points="10,-164.5 10,-183.5 110,-183.5 110,-164.5 10,-164.5"/>
<text text-anchor="middle" x="60" y="-171.5" font-family="Helvetica,sans-Serif" font-size="10.00" fill="#000000">helios_code_delete</text>
</a>
</g>
</g>
<!-- Node5&#45;&gt;Node6 -->
<g id="edge1" class="edge">
<title>Node5&#45;&gt;Node6</title>
<path fill="none" stroke="#191970" d="M183.5336,-114.1095C167.228,-126.6364 143.1716,-143.726 120,-155 112.5328,-158.6331 104.2112,-161.7836 96.2006,-164.4179"/>
<polygon fill="#191970" stroke="#191970" points="186.0232,-116.6055 191.74,-107.6853 181.7083,-111.0935 186.0232,-116.6055"/>
</g>
<!-- Node7 -->
<g id="node3" class="node">
<title>Node7</title>
<g id="a_node3"><a xlink:href="helios__float_8h.html#a7ed95856db3f5ffda6f0fc91c9196dd3" target="_top" xlink:title="Destructor of a helios_float object.">
<polygon fill="#ffffff" stroke="#000000" points="11,-126.5 11,-145.5 109,-145.5 109,-126.5 11,-126.5"/>
<text text-anchor="middle" x="60" y="-133.5" font-family="Helvetica,sans-Serif" font-size="10.00" fill="#000000">helios_float_delete</text>
</a>
</g>
</g>
<!-- Node5&#45;&gt;Node7 -->
<g id="edge2" class="edge">
<title>Node5&#45;&gt;Node7</title>
<path fill="none" stroke="#191970" d="M157.5265,-110.1742C137.6836,-115.4287 114.8072,-121.4866 96.1995,-126.4141"/>
<polygon fill="#191970" stroke="#191970" points="158.5181,-113.5323 167.2889,-107.589 156.7261,-106.7655 158.5181,-113.5323"/>
</g>
<!-- Node8 -->
<g id="node4" class="node">
<title>Node8</title>
<g id="a_node4"><a xlink:href="helios__integer_8h.html#ac7731385ec91b5f6fdf7ef205eba7ded" target="_top" xlink:title="Destructor of a helios_integer object.">
<polygon fill="#ffffff" stroke="#000000" points="6,-88.5 6,-107.5 114,-107.5 114,-88.5 6,-88.5"/>
<text text-anchor="middle" x="60" y="-95.5" font-family="Helvetica,sans-Serif" font-size="10.00" fill="#000000">helios_integer_delete</text>
</a>
</g>
</g>
<!-- Node5&#45;&gt;Node8 -->
<g id="edge3" class="edge">
<title>Node5&#45;&gt;Node8</title>
<path fill="none" stroke="#191970" d="M145.4869,-98C135.09,-98 124.2934,-98 114.0148,-98"/>
<polygon fill="#191970" stroke="#191970" points="145.7166,-101.5001 155.7166,-98 145.7165,-94.5001 145.7166,-101.5001"/>
</g>
<!-- Node9 -->
<g id="node5" class="node">
<title>Node9</title>
<g id="a_node5"><a xlink:href="serialize_8c.html#ae1a2313279db47de086283c9aabcd458" target="_top" xlink:title=" ">
<polygon fill="#ffffff" stroke="#000000" points="0,-39 0,-69 120,-69 120,-39 0,-39"/>
<text text-anchor="start" x="8" y="-57" font-family="Helvetica,sans-Serif" font-size="10.00" fill="#000000">helios_serialized_object</text>
<text text-anchor="middle" x="60" y="-46" font-family="Helvetica,sans-Serif" font-size="10.00" fill="#000000">_delete</text>
</a>
</g>
</g>
<!-- Node5&#45;&gt;Node9 -->
<g id="edge4" class="edge">
<title>Node5&#45;&gt;Node9</title>
<path fill="none" stroke="#191970" d="M162.4094,-85.4008C145.7964,-80.3069 126.4825,-74.3849 109.1336,-69.0654"/>
<polygon fill="#191970" stroke="#191970" points="161.7759,-88.8673 172.3626,-88.4527 163.828,-82.1749 161.7759,-88.8673"/>
</g>
<!-- Node10 -->
<g id="node6" class="node">
<title>Node10</title>
<g id="a_node6"><a xlink:href="helios__string_8h.html#aa95b3f21f6ec9f9c19dd873193c473f9" target="_top" xlink:title="Destructor of a helios_string object.">
<polygon fill="#ffffff" stroke="#000000" points="8.5,-.5 8.5,-19.5 111.5,-19.5 111.5,-.5 8.5,-.5"/>
<text text-anchor="middle" x="60" y="-7.5" font-family="Helvetica,sans-Serif" font-size="10.00" fill="#000000">helios_string_delete</text>
</a>
</g>
</g>
<!-- Node5&#45;&gt;Node10 -->
<g id="edge5" class="edge">
<title>Node5&#45;&gt;Node10</title>
<path fill="none" stroke="#191970" d="M186.6175,-81.1119C170.6431,-65.9382 145.3918,-43.9574 120,-30 112.4946,-25.8745 103.9928,-22.4062 95.7984,-19.5778"/>
<polygon fill="#191970" stroke="#191970" points="184.4622,-83.8974 194.077,-88.3478 189.3361,-78.8728 184.4622,-83.8974"/>
</g>
</g>
</svg>
