<?xml version="1.0" encoding="UTF-8" standalone="no"?>
<!DOCTYPE svg PUBLIC "-//W3C//DTD SVG 1.1//EN"
 "http://www.w3.org/Graphics/SVG/1.1/DTD/svg11.dtd">
<!-- Generated by graphviz version 2.40.1 (20161225.0304)
 -->
<!-- Title: builtins/integer/include/helios_integer.h Pages: 1 -->
<svg width="1496pt" height="363pt"
 viewBox="0.00 0.00 1495.50 363.00" xmlns="http://www.w3.org/2000/svg" xmlns:xlink="http://www.w3.org/1999/xlink">
<g id="graph0" class="graph" transform="scale(1 1) rotate(0) translate(4 359)">
<title>builtins/integer/include/helios_integer.h</title>
<polygon fill="#ffffff" stroke="transparent" points="-4,4 -4,-359 1491.5,-359 1491.5,4 -4,4"/>
<!-- Node9 -->
<g id="node1" class="node">
<title>Node9</title>
<g id="a_node1"><a xlink:title=" ">
<polygon fill="#bfbfbf" stroke="#000000" points="355.5,-324.5 355.5,-354.5 468.5,-354.5 468.5,-324.5 355.5,-324.5"/>
<text text-anchor="start" x="363.5" y="-342.5" font-family="Helvetica,sans-Serif" font-size="10.00" fill="#000000">builtins/integer/include</text>
<text text-anchor="middle" x="412" y="-331.5" font-family="Helvetica,sans-Serif" font-size="10.00" fill="#000000">/helios_integer.h</text>
</a>
</g>
</g>
<!-- Node10 -->
<g id="node2" class="node">
<title>Node10</title>
<g id="a_node2"><a xlink:href="helios__float__math_8c.html" target="_top" xlink:title=" ">
<polygon fill="#ffffff" stroke="#000000" points="167,-257.5 167,-287.5 265,-287.5 265,-257.5 167,-257.5"/>
<text text-anchor="start" x="175" y="-275.5" font-family="Helvetica,sans-Serif" font-size="10.00" fill="#000000">builtins/float/helios</text>
<text text-anchor="middle" x="216" y="-264.5" font-family="Helvetica,sans-Serif" font-size="10.00" fill="#000000">_float_math.c</text>
</a>
</g>
</g>
<!-- Node9&#45;&gt;Node10 -->
<g id="edge1" class="edge">
<title>Node9&#45;&gt;Node10</title>
<path fill="none" stroke="#191970" d="M358.2879,-321.1392C327.4665,-310.6033 289.244,-297.5375 260.1781,-287.6017"/>
<polygon fill="#191970" stroke="#191970" points="357.4192,-324.5411 368.0138,-324.4639 359.6835,-317.9174 357.4192,-324.5411"/>
</g>
<!-- Node11 -->
<g id="node3" class="node">
<title>Node11</title>
<g id="a_node3"><a xlink:href="builtins_8h.html" target="_top" xlink:title=" ">
<polygon fill="#ffffff" stroke="#000000" points="283.5,-263 283.5,-282 406.5,-282 406.5,-263 283.5,-263"/>
<text text-anchor="middle" x="345" y="-270" font-family="Helvetica,sans-Serif" font-size="10.00" fill="#000000">builtins/include/builtins.h</text>
</a>
</g>
</g>
<!-- Node9&#45;&gt;Node11 -->
<g id="edge2" class="edge">
<title>Node9&#45;&gt;Node11</title>
<path fill="none" stroke="#191970" d="M389.7032,-317.2032C377.7634,-305.2634 363.6776,-291.1776 354.555,-282.055"/>
<polygon fill="#191970" stroke="#191970" points="387.2507,-319.7004 396.7967,-324.2967 392.2004,-314.7507 387.2507,-319.7004"/>
</g>
<!-- Node32 -->
<g id="node24" class="node">
<title>Node32</title>
<g id="a_node24"><a xlink:href="helios__integer_8c.html" target="_top" xlink:title=" ">
<polygon fill="#ffffff" stroke="#000000" points="425,-257.5 425,-287.5 533,-287.5 533,-257.5 425,-257.5"/>
<text text-anchor="start" x="433" y="-275.5" font-family="Helvetica,sans-Serif" font-size="10.00" fill="#000000">builtins/integer/helios</text>
<text text-anchor="middle" x="479" y="-264.5" font-family="Helvetica,sans-Serif" font-size="10.00" fill="#000000">_integer.c</text>
</a>
</g>
</g>
<!-- Node9&#45;&gt;Node32 -->
<g id="edge44" class="edge">
<title>Node9&#45;&gt;Node32</title>
<path fill="none" stroke="#191970" d="M434.2887,-317.2113C443.9991,-307.5009 455.1302,-296.3698 463.8568,-287.6432"/>
<polygon fill="#191970" stroke="#191970" points="431.7996,-314.7507 427.2033,-324.2967 436.7493,-319.7004 431.7996,-314.7507"/>
</g>
<!-- Node33 -->
<g id="node25" class="node">
<title>Node33</title>
<g id="a_node25"><a xlink:href="helios__integer__math_8c.html" target="_top" xlink:title=" ">
<polygon fill="#ffffff" stroke="#000000" points="551,-257.5 551,-287.5 659,-287.5 659,-257.5 551,-257.5"/>
<text text-anchor="start" x="559" y="-275.5" font-family="Helvetica,sans-Serif" font-size="10.00" fill="#000000">builtins/integer/helios</text>
<text text-anchor="middle" x="605" y="-264.5" font-family="Helvetica,sans-Serif" font-size="10.00" fill="#000000">_integer_math.c</text>
</a>
</g>
</g>
<!-- Node9&#45;&gt;Node33 -->
<g id="edge45" class="edge">
<title>Node9&#45;&gt;Node33</title>
<path fill="none" stroke="#191970" d="M464.89,-321.1392C495.2396,-310.6033 532.8771,-297.5375 561.4981,-287.6017"/>
<polygon fill="#191970" stroke="#191970" points="463.6121,-317.8779 455.313,-324.4639 465.9078,-324.4907 463.6121,-317.8779"/>
</g>
<!-- Node12 -->
<g id="node4" class="node">
<title>Node12</title>
<g id="a_node4"><a xlink:href="serialize_8c.html" target="_top" xlink:title=" ">
<polygon fill="#ffffff" stroke="#000000" points="0,-190.5 0,-220.5 102,-220.5 102,-190.5 0,-190.5"/>
<text text-anchor="start" x="8" y="-208.5" font-family="Helvetica,sans-Serif" font-size="10.00" fill="#000000">builtins/serialization</text>
<text text-anchor="middle" x="51" y="-197.5" font-family="Helvetica,sans-Serif" font-size="10.00" fill="#000000">/serialize.c</text>
</a>
</g>
</g>
<!-- Node11&#45;&gt;Node12 -->
<g id="edge3" class="edge">
<title>Node11&#45;&gt;Node12</title>
<path fill="none" stroke="#191970" d="M292.0712,-260.7996C245.6289,-250.4847 176.2852,-234.966 116,-221 111.4793,-219.9527 106.7844,-218.8543 102.0801,-217.7462"/>
<polygon fill="#191970" stroke="#191970" points="291.3911,-264.2337 301.9119,-262.9835 292.9077,-257.4 291.3911,-264.2337"/>
</g>
<!-- Node13 -->
<g id="node5" class="node">
<title>Node13</title>
<g id="a_node5"><a xlink:href="executestack_8c.html" target="_top" xlink:title=" ">
<polygon fill="#ffffff" stroke="#000000" points="95.5,-134.5 95.5,-153.5 200.5,-153.5 200.5,-134.5 95.5,-134.5"/>
<text text-anchor="middle" x="148" y="-141.5" font-family="Helvetica,sans-Serif" font-size="10.00" fill="#000000">hvm/executestack.c</text>
</a>
</g>
</g>
<!-- Node11&#45;&gt;Node13 -->
<g id="edge4" class="edge">
<title>Node11&#45;&gt;Node13</title>
<path fill="none" stroke="#191970" d="M293.4478,-260.5835C236.9236,-247.2758 153.5604,-226.8348 149,-221 133.6868,-201.4077 140.0977,-169.6377 144.7486,-153.7284"/>
<polygon fill="#191970" stroke="#191970" points="292.781,-264.022 303.3161,-262.8987 294.3799,-257.207 292.781,-264.022"/>
</g>
<!-- Node14 -->
<g id="node6" class="node">
<title>Node14</title>
<g id="a_node6"><a xlink:href="hvm_8c.html" target="_top" xlink:title=" ">
<polygon fill="#ffffff" stroke="#000000" points="253.5,-134.5 253.5,-153.5 318.5,-153.5 318.5,-134.5 253.5,-134.5"/>
<text text-anchor="middle" x="286" y="-141.5" font-family="Helvetica,sans-Serif" font-size="10.00" fill="#000000">hvm/hvm.c</text>
</a>
</g>
</g>
<!-- Node11&#45;&gt;Node14 -->
<g id="edge5" class="edge">
<title>Node11&#45;&gt;Node14</title>
<path fill="none" stroke="#191970" d="M336.2365,-253.4134C323.4723,-225.6134 300.2292,-174.9907 290.486,-153.7705"/>
<polygon fill="#191970" stroke="#191970" points="333.212,-255.2142 340.5654,-262.8416 339.5735,-252.2933 333.212,-255.2142"/>
</g>
<!-- Node15 -->
<g id="node7" class="node">
<title>Node15</title>
<g id="a_node7"><a xlink:href="executestack_8h.html" target="_top" xlink:title=" ">
<polygon fill="#ffffff" stroke="#000000" points="158.5,-196 158.5,-215 297.5,-215 297.5,-196 158.5,-196"/>
<text text-anchor="middle" x="228" y="-203" font-family="Helvetica,sans-Serif" font-size="10.00" fill="#000000">hvm/include/executestack.h</text>
</a>
</g>
</g>
<!-- Node11&#45;&gt;Node15 -->
<g id="edge6" class="edge">
<title>Node11&#45;&gt;Node15</title>
<path fill="none" stroke="#191970" d="M319.4776,-257.8846C296.7873,-244.891 264.2667,-226.2681 244.7322,-215.0817"/>
<polygon fill="#191970" stroke="#191970" points="317.8196,-260.9684 328.2368,-262.9005 321.2982,-254.8939 317.8196,-260.9684"/>
</g>
<!-- Node16 -->
<g id="node8" class="node">
<title>Node16</title>
<g id="a_node8"><a xlink:href="hvm_8h.html" target="_top" xlink:title=" ">
<polygon fill="#ffffff" stroke="#000000" points="274.5,-73 274.5,-92 373.5,-92 373.5,-73 274.5,-73"/>
<text text-anchor="middle" x="324" y="-80" font-family="Helvetica,sans-Serif" font-size="10.00" fill="#000000">hvm/include/hvm.h</text>
</a>
</g>
</g>
<!-- Node11&#45;&gt;Node16 -->
<g id="edge9" class="edge">
<title>Node11&#45;&gt;Node16</title>
<path fill="none" stroke="#191970" d="M342.8071,-252.6594C338.3558,-212.386 328.4025,-122.3318 325.0933,-92.3917"/>
<polygon fill="#191970" stroke="#191970" points="339.3523,-253.2617 343.9297,-262.8167 346.3099,-252.4927 339.3523,-253.2617"/>
</g>
<!-- Node17 -->
<g id="node9" class="node">
<title>Node17</title>
<g id="a_node9"><a xlink:href="main_8c.html" target="_top" xlink:title=" ">
<polygon fill="#ffffff" stroke="#000000" points="384,-6 384,-25 454,-25 454,-6 384,-6"/>
<text text-anchor="middle" x="419" y="-13" font-family="Helvetica,sans-Serif" font-size="10.00" fill="#000000">main/main.c</text>
</a>
</g>
</g>
<!-- Node11&#45;&gt;Node17 -->
<g id="edge11" class="edge">
<title>Node11&#45;&gt;Node17</title>
<path fill="none" stroke="#191970" d="M350.6587,-252.8475C365.5196,-201.2362 405.2613,-63.2143 416.1867,-25.2706"/>
<polygon fill="#191970" stroke="#191970" points="347.2142,-252.1611 347.8105,-262.7391 353.9409,-254.098 347.2142,-252.1611"/>
</g>
<!-- Node18 -->
<g id="node10" class="node">
<title>Node18</title>
<g id="a_node10"><a xlink:href="token_8h.html" target="_top" xlink:title=" ">
<polygon fill="#ffffff" stroke="#000000" points="1032.5,-196 1032.5,-215 1145.5,-215 1145.5,-196 1032.5,-196"/>
<text text-anchor="middle" x="1089" y="-203" font-family="Helvetica,sans-Serif" font-size="10.00" fill="#000000">parser/include/token.h</text>
</a>
</g>
</g>
<!-- Node11&#45;&gt;Node18 -->
<g id="edge12" class="edge">
<title>Node11&#45;&gt;Node18</title>
<path fill="none" stroke="#191970" d="M393.8207,-260.9131C401.2214,-259.4267 408.791,-258.0575 416,-257 642.9546,-223.707 916.3227,-211.2175 1032.4269,-207.1827"/>
<polygon fill="#191970" stroke="#191970" points="392.9534,-257.5187 383.8833,-262.9944 394.3885,-264.3701 392.9534,-257.5187"/>
</g>
<!-- Node31 -->
<g id="node23" class="node">
<title>Node31</title>
<g id="a_node23"><a xlink:href="token_8c.html" target="_top" xlink:title=" ">
<polygon fill="#ffffff" stroke="#000000" points="1408.5,-134.5 1408.5,-153.5 1487.5,-153.5 1487.5,-134.5 1408.5,-134.5"/>
<text text-anchor="middle" x="1448" y="-141.5" font-family="Helvetica,sans-Serif" font-size="10.00" fill="#000000">parser/token.c</text>
</a>
</g>
</g>
<!-- Node11&#45;&gt;Node31 -->
<g id="edge43" class="edge">
<title>Node11&#45;&gt;Node31</title>
<path fill="none" stroke="#191970" d="M393.009,-260.8897C400.6622,-259.3659 408.5211,-257.9918 416,-257 741.5402,-213.8305 829.4185,-270.8683 1154,-221 1253.3482,-205.7363 1367.6395,-170.5509 1419.6207,-153.5451"/>
<polygon fill="#191970" stroke="#191970" points="392.1872,-257.4858 383.1158,-262.9594 393.6206,-264.3374 392.1872,-257.4858"/>
</g>
<!-- Node15&#45;&gt;Node13 -->
<g id="edge7" class="edge">
<title>Node15&#45;&gt;Node13</title>
<path fill="none" stroke="#191970" d="M207.381,-189.6491C192.5164,-178.222 172.943,-163.1749 160.4122,-153.5419"/>
<polygon fill="#191970" stroke="#191970" points="205.4387,-192.5707 215.5,-195.8906 209.7051,-187.021 205.4387,-192.5707"/>
</g>
<!-- Node15&#45;&gt;Node14 -->
<g id="edge8" class="edge">
<title>Node15&#45;&gt;Node14</title>
<path fill="none" stroke="#191970" d="M244.1261,-188.4007C254.6642,-177.2268 268.0477,-163.0356 276.8097,-153.7449"/>
<polygon fill="#191970" stroke="#191970" points="241.3773,-186.2142 237.0625,-195.8906 246.4698,-191.0169 241.3773,-186.2142"/>
</g>
<!-- Node16&#45;&gt;Node17 -->
<g id="edge10" class="edge">
<title>Node16&#45;&gt;Node17</title>
<path fill="none" stroke="#191970" d="M345.9632,-67.0102C364.3154,-54.067 389.9051,-36.0195 405.4141,-25.0817"/>
<polygon fill="#191970" stroke="#191970" points="343.766,-64.2768 337.6112,-72.9005 347.8005,-69.9973 343.766,-64.2768"/>
</g>
<!-- Node19 -->
<g id="node11" class="node">
<title>Node19</title>
<g id="a_node11"><a xlink:href="AST_8c.html" target="_top" xlink:title=" ">
<polygon fill="#ffffff" stroke="#000000" points="489,-6 489,-25 563,-25 563,-6 489,-6"/>
<text text-anchor="middle" x="526" y="-13" font-family="Helvetica,sans-Serif" font-size="10.00" fill="#000000">parser/AST.c</text>
</a>
</g>
</g>
<!-- Node18&#45;&gt;Node19 -->
<g id="edge13" class="edge">
<title>Node18&#45;&gt;Node19</title>
<path fill="none" stroke="#191970" d="M1021.9703,-201.2007C925.3566,-194.2516 752.2712,-178.7731 695,-154 622.9292,-122.8253 556.9142,-51.5113 534.2832,-25.3536"/>
<polygon fill="#191970" stroke="#191970" points="1021.9951,-204.7111 1032.2174,-201.9264 1022.4897,-197.7286 1021.9951,-204.7111"/>
</g>
<!-- Node20 -->
<g id="node12" class="node">
<title>Node20</title>
<g id="a_node12"><a xlink:href="AST_8h.html" target="_top" xlink:title=" ">
<polygon fill="#ffffff" stroke="#000000" points="944.5,-134.5 944.5,-153.5 1051.5,-153.5 1051.5,-134.5 944.5,-134.5"/>
<text text-anchor="middle" x="998" y="-141.5" font-family="Helvetica,sans-Serif" font-size="10.00" fill="#000000">parser/include/AST.h</text>
</a>
</g>
</g>
<!-- Node18&#45;&gt;Node20 -->
<g id="edge14" class="edge">
<title>Node18&#45;&gt;Node20</title>
<path fill="none" stroke="#191970" d="M1066.4883,-190.286C1049.4725,-178.7864 1026.6391,-163.355 1012.1189,-153.5419"/>
<polygon fill="#191970" stroke="#191970" points="1064.5361,-193.191 1074.7813,-195.8906 1068.4557,-187.3913 1064.5361,-193.191"/>
</g>
<!-- Node24 -->
<g id="node16" class="node">
<title>Node24</title>
<g id="a_node16"><a xlink:href="compound_8c.html" target="_top" xlink:title=" ">
<polygon fill="#ffffff" stroke="#000000" points="581,-.5 581,-30.5 679,-30.5 679,-.5 581,-.5"/>
<text text-anchor="start" x="589" y="-18.5" font-family="Helvetica,sans-Serif" font-size="10.00" fill="#000000">parser/parserfuncs</text>
<text text-anchor="middle" x="630" y="-7.5" font-family="Helvetica,sans-Serif" font-size="10.00" fill="#000000">/compound.c</text>
</a>
</g>
</g>
<!-- Node18&#45;&gt;Node24 -->
<g id="edge36" class="edge">
<title>Node18&#45;&gt;Node24</title>
<path fill="none" stroke="#191970" d="M1022.0023,-200.3975C933.3121,-192.8663 782.2794,-177.1231 732,-154 697.6612,-138.2079 690.6263,-128.2753 668,-98 652.1406,-76.7792 640.7314,-47.8809 634.7616,-30.5209"/>
<polygon fill="#191970" stroke="#191970" points="1021.9768,-203.9075 1032.2337,-201.2534 1022.5604,-196.9319 1021.9768,-203.9075"/>
</g>
<!-- Node25 -->
<g id="node17" class="node">
<title>Node25</title>
<g id="a_node17"><a xlink:href="expressions_8c.html" target="_top" xlink:title=" ">
<polygon fill="#ffffff" stroke="#000000" points="697,-.5 697,-30.5 795,-30.5 795,-.5 697,-.5"/>
<text text-anchor="start" x="705" y="-18.5" font-family="Helvetica,sans-Serif" font-size="10.00" fill="#000000">parser/parserfuncs</text>
<text text-anchor="middle" x="746" y="-7.5" font-family="Helvetica,sans-Serif" font-size="10.00" fill="#000000">/expressions.c</text>
</a>
</g>
</g>
<!-- Node18&#45;&gt;Node25 -->
<g id="edge37" class="edge">
<title>Node18&#45;&gt;Node25</title>
<path fill="none" stroke="#191970" d="M1022.1289,-197.8921C916.5616,-184.3522 718.9329,-152.2781 677,-98 658.3929,-73.9149 691.4541,-47.0543 717.9308,-30.7169"/>
<polygon fill="#191970" stroke="#191970" points="1022.0001,-201.4035 1032.3596,-199.1832 1022.8766,-194.4586 1022.0001,-201.4035"/>
</g>
<!-- Node26 -->
<g id="node18" class="node">
<title>Node26</title>
<g id="a_node18"><a xlink:href="floats_8c.html" target="_top" xlink:title=" ">
<polygon fill="#ffffff" stroke="#000000" points="1313,-.5 1313,-30.5 1411,-30.5 1411,-.5 1313,-.5"/>
<text text-anchor="start" x="1321" y="-18.5" font-family="Helvetica,sans-Serif" font-size="10.00" fill="#000000">parser/parserfuncs</text>
<text text-anchor="middle" x="1362" y="-7.5" font-family="Helvetica,sans-Serif" font-size="10.00" fill="#000000">/floats.c</text>
</a>
</g>
</g>
<!-- Node18&#45;&gt;Node26 -->
<g id="edge38" class="edge">
<title>Node18&#45;&gt;Node26</title>
<path fill="none" stroke="#191970" d="M1135.1185,-193.1495C1173.9553,-182.2131 1225.9753,-166.1461 1244,-154 1294.2966,-120.1071 1335.5233,-59.1473 1352.9931,-30.7857"/>
<polygon fill="#191970" stroke="#191970" points="1133.7507,-189.8972 1125.0565,-195.9521 1135.6289,-196.6405 1133.7507,-189.8972"/>
</g>
<!-- Node27 -->
<g id="node19" class="node">
<title>Node27</title>
<g id="a_node19"><a xlink:href="integers_8c.html" target="_top" xlink:title=" ">
<polygon fill="#ffffff" stroke="#000000" points="965,-.5 965,-30.5 1063,-30.5 1063,-.5 965,-.5"/>
<text text-anchor="start" x="973" y="-18.5" font-family="Helvetica,sans-Serif" font-size="10.00" fill="#000000">parser/parserfuncs</text>
<text text-anchor="middle" x="1014" y="-7.5" font-family="Helvetica,sans-Serif" font-size="10.00" fill="#000000">/integers.c</text>
</a>
</g>
</g>
<!-- Node18&#45;&gt;Node27 -->
<g id="edge39" class="edge">
<title>Node18&#45;&gt;Node27</title>
<path fill="none" stroke="#191970" d="M1098.324,-186.8582C1110.9191,-158.7969 1129.3672,-104.9539 1107,-67 1097.161,-50.3046 1079.7478,-38.6409 1062.6288,-30.69"/>
<polygon fill="#191970" stroke="#191970" points="1095.1348,-185.4153 1094.0349,-195.9529 1101.4661,-188.4012 1095.1348,-185.4153"/>
</g>
<!-- Node28 -->
<g id="node20" class="node">
<title>Node28</title>
<g id="a_node20"><a xlink:href="parser_8c.html" target="_top" xlink:title=" ">
<polygon fill="#ffffff" stroke="#000000" points="1081,-.5 1081,-30.5 1179,-30.5 1179,-.5 1081,-.5"/>
<text text-anchor="start" x="1089" y="-18.5" font-family="Helvetica,sans-Serif" font-size="10.00" fill="#000000">parser/parserfuncs</text>
<text text-anchor="middle" x="1130" y="-7.5" font-family="Helvetica,sans-Serif" font-size="10.00" fill="#000000">/parser.c</text>
</a>
</g>
</g>
<!-- Node18&#45;&gt;Node28 -->
<g id="edge40" class="edge">
<title>Node18&#45;&gt;Node28</title>
<path fill="none" stroke="#191970" d="M1129.3719,-192.6635C1158.9126,-182.3591 1195.2905,-167.4433 1204,-154 1225.0242,-121.5486 1221.9034,-101.2721 1204,-67 1195.6656,-51.0457 1179.8862,-39.0327 1165.0324,-30.6397"/>
<polygon fill="#191970" stroke="#191970" points="1128.0014,-189.4328 1119.6657,-195.9725 1130.2602,-196.0584 1128.0014,-189.4328"/>
</g>
<!-- Node29 -->
<g id="node21" class="node">
<title>Node29</title>
<g id="a_node21"><a xlink:href="strings_8c.html" target="_top" xlink:title=" ">
<polygon fill="#ffffff" stroke="#000000" points="1197,-.5 1197,-30.5 1295,-30.5 1295,-.5 1197,-.5"/>
<text text-anchor="start" x="1205" y="-18.5" font-family="Helvetica,sans-Serif" font-size="10.00" fill="#000000">parser/parserfuncs</text>
<text text-anchor="middle" x="1246" y="-7.5" font-family="Helvetica,sans-Serif" font-size="10.00" fill="#000000">/strings.c</text>
</a>
</g>
</g>
<!-- Node18&#45;&gt;Node29 -->
<g id="edge41" class="edge">
<title>Node18&#45;&gt;Node29</title>
<path fill="none" stroke="#191970" d="M1135.5866,-193.1307C1169.861,-183.0762 1212.4156,-168.2687 1224,-154 1253.3103,-117.8982 1251.1306,-58.5702 1248.1341,-30.7701"/>
<polygon fill="#191970" stroke="#191970" points="1134.3625,-189.8406 1125.7165,-195.9641 1136.2941,-196.5689 1134.3625,-189.8406"/>
</g>
<!-- Node18&#45;&gt;Node31 -->
<g id="edge42" class="edge">
<title>Node18&#45;&gt;Node31</title>
<path fill="none" stroke="#191970" d="M1155.5529,-194.574C1217.3759,-184.3506 1311.977,-168.5187 1394,-154 1398.6942,-153.1691 1403.6147,-152.2813 1408.494,-151.3905"/>
<polygon fill="#191970" stroke="#191970" points="1154.8362,-191.1449 1145.5404,-196.2281 1155.9772,-198.0513 1154.8362,-191.1449"/>
</g>
<!-- Node20&#45;&gt;Node17 -->
<g id="edge17" class="edge">
<title>Node20&#45;&gt;Node17</title>
<path fill="none" stroke="#191970" d="M934.1731,-139.55C835.4536,-132.2129 650.4896,-116.5298 587,-98 527.1107,-80.5209 462.5553,-42.8542 434.0208,-25.1133"/>
<polygon fill="#191970" stroke="#191970" points="934.0906,-143.0533 944.3207,-140.2974 934.6048,-136.0722 934.0906,-143.0533"/>
</g>
<!-- Node20&#45;&gt;Node19 -->
<g id="edge18" class="edge">
<title>Node20&#45;&gt;Node19</title>
<path fill="none" stroke="#191970" d="M934.2683,-139.2142C847.7605,-132.1095 698.094,-117.487 647,-98 601.3885,-80.604 556.1318,-42.8958 536.3541,-25.1289"/>
<polygon fill="#191970" stroke="#191970" points="933.9866,-142.7028 944.2368,-140.0226 934.5525,-135.7257 933.9866,-142.7028"/>
</g>
<!-- Node21 -->
<g id="node13" class="node">
<title>Node21</title>
<g id="a_node13"><a xlink:href="helios__code_8c.html" target="_top" xlink:title=" ">
<polygon fill="#ffffff" stroke="#000000" points="830,-67.5 830,-97.5 930,-97.5 930,-67.5 830,-67.5"/>
<text text-anchor="start" x="838" y="-85.5" font-family="Helvetica,sans-Serif" font-size="10.00" fill="#000000">builtins/code/helios</text>
<text text-anchor="middle" x="880" y="-74.5" font-family="Helvetica,sans-Serif" font-size="10.00" fill="#000000">_code.c</text>
</a>
</g>
</g>
<!-- Node20&#45;&gt;Node21 -->
<g id="edge15" class="edge">
<title>Node20&#45;&gt;Node21</title>
<path fill="none" stroke="#191970" d="M970.4808,-129.6574C951.9807,-120.0154 927.6409,-107.3298 908.866,-97.5446"/>
<polygon fill="#191970" stroke="#191970" points="969.077,-132.8725 979.5625,-134.3906 972.3123,-126.665 969.077,-132.8725"/>
</g>
<!-- Node22 -->
<g id="node14" class="node">
<title>Node22</title>
<g id="a_node14"><a xlink:href="helios__instruction_8c.html" target="_top" xlink:title=" ">
<polygon fill="#ffffff" stroke="#000000" points="948,-67.5 948,-97.5 1048,-97.5 1048,-67.5 948,-67.5"/>
<text text-anchor="start" x="956" y="-85.5" font-family="Helvetica,sans-Serif" font-size="10.00" fill="#000000">builtins/code/helios</text>
<text text-anchor="middle" x="998" y="-74.5" font-family="Helvetica,sans-Serif" font-size="10.00" fill="#000000">_instruction.c</text>
</a>
</g>
</g>
<!-- Node20&#45;&gt;Node22 -->
<g id="edge16" class="edge">
<title>Node20&#45;&gt;Node22</title>
<path fill="none" stroke="#191970" d="M998,-124.3693C998,-115.681 998,-105.6241 998,-97.5446"/>
<polygon fill="#191970" stroke="#191970" points="994.5001,-124.3906 998,-134.3906 1001.5001,-124.3907 994.5001,-124.3906"/>
</g>
<!-- Node23 -->
<g id="node15" class="node">
<title>Node23</title>
<g id="a_node15"><a xlink:href="parser_8h.html" target="_top" xlink:title=" ">
<polygon fill="#ffffff" stroke="#000000" points="696.5,-73 696.5,-92 811.5,-92 811.5,-73 696.5,-73"/>
<text text-anchor="middle" x="754" y="-80" font-family="Helvetica,sans-Serif" font-size="10.00" fill="#000000">parser/include/parser.h</text>
</a>
</g>
</g>
<!-- Node20&#45;&gt;Node23 -->
<g id="edge19" class="edge">
<title>Node20&#45;&gt;Node23</title>
<path fill="none" stroke="#191970" d="M950.342,-131.9878C904.0349,-120.3162 834.633,-102.8235 791.9461,-92.0643"/>
<polygon fill="#191970" stroke="#191970" points="949.5905,-135.4078 960.1427,-134.4581 951.3014,-128.6201 949.5905,-135.4078"/>
</g>
<!-- Node20&#45;&gt;Node24 -->
<g id="edge29" class="edge">
<title>Node20&#45;&gt;Node24</title>
<path fill="none" stroke="#191970" d="M934.1784,-141.4249C852.7957,-137.0387 717.7258,-125.7214 677,-98 653.2893,-81.8605 640.0975,-49.5477 634.0792,-30.5032"/>
<polygon fill="#191970" stroke="#191970" points="934.1466,-144.9278 944.3144,-141.9504 934.5091,-137.9372 934.1466,-144.9278"/>
</g>
<!-- Node20&#45;&gt;Node25 -->
<g id="edge30" class="edge">
<title>Node20&#45;&gt;Node25</title>
<path fill="none" stroke="#191970" d="M934.1164,-138.9743C847.827,-131.5279 702.9123,-116.4391 687,-98 667.9029,-75.8704 698.3801,-47.7513 722.1698,-30.7151"/>
<polygon fill="#191970" stroke="#191970" points="934.0754,-142.4833 944.3363,-139.8442 934.6692,-135.5086 934.0754,-142.4833"/>
</g>
<!-- Node20&#45;&gt;Node26 -->
<g id="edge31" class="edge">
<title>Node20&#45;&gt;Node26</title>
<path fill="none" stroke="#191970" d="M1049.7441,-132.1006C1083.9604,-123.7399 1129.6039,-111.6426 1169,-98 1227.1929,-77.8482 1292.6636,-48.349 1330.4423,-30.6263"/>
<polygon fill="#191970" stroke="#191970" points="1048.86,-128.7134 1039.9624,-134.4652 1050.5048,-135.5174 1048.86,-128.7134"/>
</g>
<!-- Node20&#45;&gt;Node27 -->
<g id="edge32" class="edge">
<title>Node20&#45;&gt;Node27</title>
<path fill="none" stroke="#191970" d="M1047.8388,-130.7345C1064.1495,-123.7694 1080.5039,-113.3649 1090,-98 1097.2434,-86.2799 1096.4552,-79.172 1090,-67 1081.487,-50.9479 1065.4848,-38.9795 1050.3517,-30.6411"/>
<polygon fill="#191970" stroke="#191970" points="1046.3424,-127.5611 1038.2925,-134.4495 1048.8811,-134.0845 1046.3424,-127.5611"/>
</g>
<!-- Node20&#45;&gt;Node28 -->
<g id="edge33" class="edge">
<title>Node20&#45;&gt;Node28</title>
<path fill="none" stroke="#191970" d="M1053.7222,-131.2096C1072.9537,-124.272 1093.1283,-113.7629 1107,-98 1123.6993,-79.0241 1128.3623,-48.8698 1129.6108,-30.7514"/>
<polygon fill="#191970" stroke="#191970" points="1052.4655,-127.9392 1044.0904,-134.4282 1054.6841,-134.5783 1052.4655,-127.9392"/>
</g>
<!-- Node20&#45;&gt;Node29 -->
<g id="edge34" class="edge">
<title>Node20&#45;&gt;Node29</title>
<path fill="none" stroke="#191970" d="M1043.4918,-131.6333C1069.5617,-123.6991 1102.468,-112.2205 1130,-98 1167.3267,-78.7205 1206.2324,-48.6658 1228.1598,-30.6486"/>
<polygon fill="#191970" stroke="#191970" points="1042.447,-128.2924 1033.8604,-134.4989 1044.4433,-135.0017 1042.447,-128.2924"/>
</g>
<!-- Node30 -->
<g id="node22" class="node">
<title>Node30</title>
<g id="a_node22"><a xlink:href="parserutil_8c.html" target="_top" xlink:title=" ">
<polygon fill="#ffffff" stroke="#000000" points="841.5,-6 841.5,-25 936.5,-25 936.5,-6 841.5,-6"/>
<text text-anchor="middle" x="889" y="-13" font-family="Helvetica,sans-Serif" font-size="10.00" fill="#000000">parser/parserutil.c</text>
</a>
</g>
</g>
<!-- Node20&#45;&gt;Node30 -->
<g id="edge35" class="edge">
<title>Node20&#45;&gt;Node30</title>
<path fill="none" stroke="#191970" d="M1026.8315,-129.1908C1038.4479,-121.5771 1050.5959,-111.1135 1057,-98 1063.046,-85.6197 1065.1912,-78.0784 1057,-67 1049.2012,-56.4523 976.0442,-36.8302 928.8745,-25.0887"/>
<polygon fill="#191970" stroke="#191970" points="1024.8902,-126.2748 1018.1561,-134.4543 1028.5211,-132.2595 1024.8902,-126.2748"/>
</g>
<!-- Node23&#45;&gt;Node17 -->
<g id="edge20" class="edge">
<title>Node23&#45;&gt;Node17</title>
<path fill="none" stroke="#191970" d="M687.5591,-71.221C631.9221,-61.4869 550.524,-46.5715 480,-31 471.5708,-29.1389 462.535,-26.9503 454.0697,-24.8137"/>
<polygon fill="#191970" stroke="#191970" points="687.1872,-74.7089 697.6395,-72.9773 688.3887,-67.8128 687.1872,-74.7089"/>
</g>
<!-- Node23&#45;&gt;Node19 -->
<g id="edge21" class="edge">
<title>Node23&#45;&gt;Node19</title>
<path fill="none" stroke="#191970" d="M708.3144,-70.243C671.3948,-60.1769 618.1617,-45.2988 572,-31 566.043,-29.1548 559.6863,-27.0812 553.6587,-25.0655"/>
<polygon fill="#191970" stroke="#191970" points="707.7076,-73.705 718.2756,-72.9501 709.5435,-66.95 707.7076,-73.705"/>
</g>
<!-- Node23&#45;&gt;Node24 -->
<g id="edge22" class="edge">
<title>Node23&#45;&gt;Node24</title>
<path fill="none" stroke="#191970" d="M727.4121,-68.1339C706.9011,-57.0514 678.6112,-41.7657 657.8015,-30.5218"/>
<polygon fill="#191970" stroke="#191970" points="725.7721,-71.2261 736.2338,-72.9005 729.0998,-65.0675 725.7721,-71.2261"/>
</g>
<!-- Node23&#45;&gt;Node25 -->
<g id="edge23" class="edge">
<title>Node23&#45;&gt;Node25</title>
<path fill="none" stroke="#191970" d="M751.6449,-62.7758C750.4136,-52.4641 748.9306,-40.0437 747.7936,-30.5218"/>
<polygon fill="#191970" stroke="#191970" points="748.1928,-63.3861 752.8538,-72.9005 755.1434,-62.5561 748.1928,-63.3861"/>
</g>
<!-- Node23&#45;&gt;Node26 -->
<g id="edge24" class="edge">
<title>Node23&#45;&gt;Node26</title>
<path fill="none" stroke="#191970" d="M800.5223,-70.7741C807.3576,-69.3323 814.3384,-68.0127 821,-67 1033.8169,-34.6464 1091.7602,-66.9449 1304,-31 1306.8774,-30.5127 1309.8192,-29.9465 1312.777,-29.3246"/>
<polygon fill="#191970" stroke="#191970" points="799.6747,-67.3769 790.6657,-72.9526 801.1855,-74.2119 799.6747,-67.3769"/>
</g>
<!-- Node23&#45;&gt;Node27 -->
<g id="edge25" class="edge">
<title>Node23&#45;&gt;Node27</title>
<path fill="none" stroke="#191970" d="M800.7498,-70.4529C847.0206,-58.5293 917.58,-40.3467 964.7144,-28.2005"/>
<polygon fill="#191970" stroke="#191970" points="799.7858,-67.0869 790.9755,-72.9717 801.5326,-73.8655 799.7858,-67.0869"/>
</g>
<!-- Node23&#45;&gt;Node28 -->
<g id="edge26" class="edge">
<title>Node23&#45;&gt;Node28</title>
<path fill="none" stroke="#191970" d="M802.9436,-70.6723C809.0083,-69.356 815.1358,-68.0968 821,-67 931.7762,-46.2809 961.5897,-53.5879 1072,-31 1074.8592,-30.4151 1077.7867,-29.7727 1080.7336,-29.0924"/>
<polygon fill="#191970" stroke="#191970" points="801.8521,-67.3297 792.854,-72.9231 803.3762,-74.1618 801.8521,-67.3297"/>
</g>
<!-- Node23&#45;&gt;Node29 -->
<g id="edge27" class="edge">
<title>Node23&#45;&gt;Node29</title>
<path fill="none" stroke="#191970" d="M801.4989,-70.7126C808.0248,-69.3274 814.6599,-68.0398 821,-67 982.7332,-40.4743 1026.7381,-60.2547 1188,-31 1190.8715,-30.4791 1193.8087,-29.8867 1196.7629,-29.2447"/>
<polygon fill="#191970" stroke="#191970" points="800.3998,-67.371 791.3917,-72.9481 801.9116,-74.2058 800.3998,-67.371"/>
</g>
<!-- Node23&#45;&gt;Node30 -->
<g id="edge28" class="edge">
<title>Node23&#45;&gt;Node30</title>
<path fill="none" stroke="#191970" d="M782.4078,-68.4013C808.6267,-55.389 846.8532,-36.4173 869.6937,-25.0817"/>
<polygon fill="#191970" stroke="#191970" points="780.7438,-65.3198 773.3422,-72.9005 783.8557,-71.59 780.7438,-65.3198"/>
</g>
</g>
</svg>
