<?xml version="1.0" encoding="UTF-8" standalone="no"?>
<!DOCTYPE svg PUBLIC "-//W3C//DTD SVG 1.1//EN"
 "http://www.w3.org/Graphics/SVG/1.1/DTD/svg11.dtd">
<!-- Generated by graphviz version 2.40.1 (20161225.0304)
 -->
<!-- Title: helios_string_init Pages: 1 -->
<svg width="419pt" height="28pt"
 viewBox="0.00 0.00 419.00 28.00" xmlns="http://www.w3.org/2000/svg" xmlns:xlink="http://www.w3.org/1999/xlink">
<g id="graph0" class="graph" transform="scale(1 1) rotate(0) translate(4 24)">
<title>helios_string_init</title>
<polygon fill="#ffffff" stroke="transparent" points="-4,4 -4,-24 415,-24 415,4 -4,4"/>
<!-- Node6 -->
<g id="node1" class="node">
<title>Node6</title>
<g id="a_node1"><a xlink:title="Constructor of a helios_string.">
<polygon fill="#bfbfbf" stroke="#000000" points="0,-.5 0,-19.5 89,-19.5 89,-.5 0,-.5"/>
<text text-anchor="middle" x="44.5" y="-7.5" font-family="Helvetica,sans-Serif" font-size="10.00" fill="#000000">helios_string_init</text>
</a>
</g>
</g>
<!-- Node7 -->
<g id="node2" class="node">
<title>Node7</title>
<g id="a_node2"><a xlink:href="helios__memory_8c.html#aab8866fd2abd9389795ad1639991caa4" target="_top" xlink:title="Allocates a new helios object (and performs all the GC steps associated with that action).">
<polygon fill="#ffffff" stroke="#000000" points="125,-.5 125,-19.5 238,-19.5 238,-.5 125,-.5"/>
<text text-anchor="middle" x="181.5" y="-7.5" font-family="Helvetica,sans-Serif" font-size="10.00" fill="#000000">helios_allocate_object</text>
</a>
</g>
</g>
<!-- Node6&#45;&gt;Node7 -->
<g id="edge1" class="edge">
<title>Node6&#45;&gt;Node7</title>
<path fill="none" stroke="#191970" d="M89.3589,-10C97.348,-10 105.826,-10 114.2781,-10"/>
<polygon fill="#191970" stroke="#191970" points="114.5404,-13.5001 124.5403,-10 114.5403,-6.5001 114.5404,-13.5001"/>
</g>
<!-- Node8 -->
<g id="node3" class="node">
<title>Node8</title>
<g id="a_node3"><a xlink:href="helios__memory_8c.html#a27b2da5d6954fd6e7aa0d2f352336c25" target="_top" xlink:title="Get the global current garbage collector.">
<polygon fill="#ffffff" stroke="#000000" points="274,-.5 274,-19.5 411,-19.5 411,-.5 274,-.5"/>
<text text-anchor="middle" x="342.5" y="-7.5" font-family="Helvetica,sans-Serif" font-size="10.00" fill="#000000">helios_get_garbagecollector</text>
</a>
</g>
</g>
<!-- Node7&#45;&gt;Node8 -->
<g id="edge2" class="edge">
<title>Node7&#45;&gt;Node8</title>
<path fill="none" stroke="#191970" d="M238.2626,-10C246.5265,-10 255.157,-10 263.7607,-10"/>
<polygon fill="#191970" stroke="#191970" points="263.8248,-13.5001 273.8248,-10 263.8247,-6.5001 263.8248,-13.5001"/>
</g>
</g>
</svg>
