<?xml version="1.0" encoding="UTF-8" standalone="no"?>
<!DOCTYPE svg PUBLIC "-//W3C//DTD SVG 1.1//EN"
 "http://www.w3.org/Graphics/SVG/1.1/DTD/svg11.dtd">
<!-- Generated by graphviz version 2.40.1 (20161225.0304)
 -->
<!-- Title: main/builtins/code/helios_instruction.c Pages: 1 -->
<svg width="1070pt" height="487pt"
 viewBox="0.00 0.00 1070.00 487.00" xmlns="http://www.w3.org/2000/svg" xmlns:xlink="http://www.w3.org/1999/xlink">
<g id="graph0" class="graph" transform="scale(1 1) rotate(0) translate(4 483)">
<title>main/builtins/code/helios_instruction.c</title>
<polygon fill="#ffffff" stroke="transparent" points="-4,4 -4,-483 1066,-483 1066,4 -4,4"/>
<!-- Node0 -->
<g id="node1" class="node">
<title>Node0</title>
<g id="a_node1"><a xlink:title=" ">
<polygon fill="#bfbfbf" stroke="#000000" points="870,-448.5 870,-478.5 984,-478.5 984,-448.5 870,-448.5"/>
<text text-anchor="start" x="878" y="-466.5" font-family="Helvetica,sans-Serif" font-size="10.00" fill="#000000">main/builtins/code</text>
<text text-anchor="middle" x="927" y="-455.5" font-family="Helvetica,sans-Serif" font-size="10.00" fill="#000000">/helios_instruction.c</text>
</a>
</g>
</g>
<!-- Node1 -->
<g id="node2" class="node">
<title>Node1</title>
<g id="a_node2"><a xlink:href="AST_8h.html" target="_top" xlink:title=" ">
<polygon fill="#ffffff" stroke="#000000" points="54.5,-392.5 54.5,-411.5 97.5,-411.5 97.5,-392.5 54.5,-392.5"/>
<text text-anchor="middle" x="76" y="-399.5" font-family="Helvetica,sans-Serif" font-size="10.00" fill="#000000">AST.h</text>
</a>
</g>
</g>
<!-- Node0&#45;&gt;Node1 -->
<g id="edge1" class="edge">
<title>Node0&#45;&gt;Node1</title>
<path fill="none" stroke="#191970" d="M869.8421,-459.3693C705.4434,-447.4886 235.0174,-413.4919 107.9584,-404.3096"/>
<polygon fill="#191970" stroke="#191970" points="107.9661,-400.8011 97.7398,-403.5711 107.4615,-407.7829 107.9661,-400.8011"/>
</g>
<!-- Node7 -->
<g id="node8" class="node">
<title>Node7</title>
<g id="a_node8"><a xlink:href="helios__object_8h.html" target="_top" xlink:title=" ">
<polygon fill="#ffffff" stroke="#000000" points="522,-168.5 522,-187.5 612,-187.5 612,-168.5 522,-168.5"/>
<text text-anchor="middle" x="567" y="-175.5" font-family="Helvetica,sans-Serif" font-size="10.00" fill="#000000">helios_object.h</text>
</a>
</g>
</g>
<!-- Node0&#45;&gt;Node7 -->
<g id="edge36" class="edge">
<title>Node0&#45;&gt;Node7</title>
<path fill="none" stroke="#191970" d="M912.3572,-448.0612C903.4836,-438.2233 892.311,-424.9353 884,-412 833.9256,-334.0636 867.0613,-280.9524 794,-224 767.8222,-203.594 681.0063,-190.3769 622.6465,-183.563"/>
<polygon fill="#191970" stroke="#191970" points="622.7931,-180.0571 612.4616,-182.4047 622.002,-187.0123 622.7931,-180.0571"/>
</g>
<!-- Node9 -->
<g id="node10" class="node">
<title>Node9</title>
<g id="a_node10"><a xlink:href="helios__memory_8h.html" target="_top" xlink:title=" ">
<polygon fill="#ffffff" stroke="#000000" points="724,-56.5 724,-75.5 824,-75.5 824,-56.5 724,-56.5"/>
<text text-anchor="middle" x="774" y="-63.5" font-family="Helvetica,sans-Serif" font-size="10.00" fill="#000000">helios_memory.h</text>
</a>
</g>
</g>
<!-- Node0&#45;&gt;Node9 -->
<g id="edge35" class="edge">
<title>Node0&#45;&gt;Node9</title>
<path fill="none" stroke="#191970" d="M939.9342,-448.3025C956.7516,-426.9383 984,-386.131 984,-346 984,-346 984,-346 984,-178 984,-109.602 896.1954,-82.8299 834.1386,-72.4498"/>
<polygon fill="#191970" stroke="#191970" points="834.4551,-68.9567 824.0334,-70.8642 833.37,-75.8721 834.4551,-68.9567"/>
</g>
<!-- Node13 -->
<g id="node14" class="node">
<title>Node13</title>
<g id="a_node14"><a xlink:href="helios__code_8h.html" target="_top" xlink:title=" ">
<polygon fill="#ffffff" stroke="#000000" points="595.5,-224.5 595.5,-243.5 678.5,-243.5 678.5,-224.5 595.5,-224.5"/>
<text text-anchor="middle" x="637" y="-231.5" font-family="Helvetica,sans-Serif" font-size="10.00" fill="#000000">helios_code.h</text>
</a>
</g>
</g>
<!-- Node0&#45;&gt;Node13 -->
<g id="edge34" class="edge">
<title>Node0&#45;&gt;Node13</title>
<path fill="none" stroke="#191970" d="M920.483,-448.4627C913.2353,-432.9849 900.362,-408.8205 884,-392 818.1137,-324.2672 717.911,-271.6891 667.7983,-247.9"/>
<polygon fill="#191970" stroke="#191970" points="669.009,-244.6023 658.4686,-243.5301 666.0399,-250.9414 669.009,-244.6023"/>
</g>
<!-- Node17 -->
<g id="node18" class="node">
<title>Node17</title>
<g id="a_node18"><a xlink:href="helios__string_8h.html" target="_top" xlink:title=" ">
<polygon fill="#ffffff" stroke="#000000" points="697,-224.5 697,-243.5 785,-243.5 785,-224.5 697,-224.5"/>
<text text-anchor="middle" x="741" y="-231.5" font-family="Helvetica,sans-Serif" font-size="10.00" fill="#000000">helios_string.h</text>
</a>
</g>
</g>
<!-- Node0&#45;&gt;Node17 -->
<g id="edge37" class="edge">
<title>Node0&#45;&gt;Node17</title>
<path fill="none" stroke="#191970" d="M932.0242,-448.402C942.3713,-414.1976 961.909,-329.9025 922,-280 906.247,-260.3023 842.7876,-247.5566 795.4275,-240.5883"/>
<polygon fill="#191970" stroke="#191970" points="795.6805,-237.0891 785.2875,-239.1472 794.6956,-244.0195 795.6805,-237.0891"/>
</g>
<!-- Node19 -->
<g id="node20" class="node">
<title>Node19</title>
<g id="a_node20"><a xlink:title=" ">
<polygon fill="#ffffff" stroke="#bfbfbf" points="1012,-392.5 1012,-411.5 1062,-411.5 1062,-392.5 1012,-392.5"/>
<text text-anchor="middle" x="1037" y="-399.5" font-family="Helvetica,sans-Serif" font-size="10.00" fill="#000000">stdio.h</text>
</a>
</g>
</g>
<!-- Node0&#45;&gt;Node19 -->
<g id="edge38" class="edge">
<title>Node0&#45;&gt;Node19</title>
<path fill="none" stroke="#191970" d="M953.909,-448.4554C971.2968,-438.734 993.8049,-426.15 1011.0084,-416.5317"/>
<polygon fill="#191970" stroke="#191970" points="1012.9335,-419.4653 1019.9539,-411.5303 1009.5174,-413.3554 1012.9335,-419.4653"/>
</g>
<!-- Node2 -->
<g id="node3" class="node">
<title>Node2</title>
<g id="a_node3"><a xlink:title=" ">
<polygon fill="#ffffff" stroke="#bfbfbf" points="92.5,-.5 92.5,-19.5 145.5,-19.5 145.5,-.5 92.5,-.5"/>
<text text-anchor="middle" x="119" y="-7.5" font-family="Helvetica,sans-Serif" font-size="10.00" fill="#000000">stdint.h</text>
</a>
</g>
</g>
<!-- Node1&#45;&gt;Node2 -->
<g id="edge2" class="edge">
<title>Node1&#45;&gt;Node2</title>
<path fill="none" stroke="#191970" d="M63.4501,-392.4082C41.864,-374.7155 0,-334.6472 0,-290 0,-290 0,-290 0,-122 0,-74.6726 50.5294,-41.4677 85.7357,-24.0761"/>
<polygon fill="#191970" stroke="#191970" points="87.6651,-27.035 95.2046,-19.5915 84.6688,-20.7087 87.6651,-27.035"/>
</g>
<!-- Node3 -->
<g id="node4" class="node">
<title>Node3</title>
<g id="a_node4"><a xlink:href="token_8h.html" target="_top" xlink:title=" ">
<polygon fill="#ffffff" stroke="#000000" points="49.5,-336.5 49.5,-355.5 102.5,-355.5 102.5,-336.5 49.5,-336.5"/>
<text text-anchor="middle" x="76" y="-343.5" font-family="Helvetica,sans-Serif" font-size="10.00" fill="#000000">token.h</text>
</a>
</g>
</g>
<!-- Node1&#45;&gt;Node3 -->
<g id="edge3" class="edge">
<title>Node1&#45;&gt;Node3</title>
<path fill="none" stroke="#191970" d="M76,-392.2455C76,-384.9382 76,-374.6944 76,-365.7046"/>
<polygon fill="#191970" stroke="#191970" points="79.5001,-365.6426 76,-355.6427 72.5001,-365.6427 79.5001,-365.6426"/>
</g>
<!-- Node3&#45;&gt;Node2 -->
<g id="edge33" class="edge">
<title>Node3&#45;&gt;Node2</title>
<path fill="none" stroke="#191970" d="M70.393,-336.4834C59.8226,-317.6141 38,-273.8343 38,-234 38,-234 38,-234 38,-122 38,-90.7875 43.8573,-81.3981 62,-56 70.5736,-43.9977 83.0797,-33.4282 94.1946,-25.4571"/>
<polygon fill="#191970" stroke="#191970" points="96.4237,-28.1733 102.7086,-19.6438 92.4764,-22.3923 96.4237,-28.1733"/>
</g>
<!-- Node4 -->
<g id="node5" class="node">
<title>Node4</title>
<g id="a_node5"><a xlink:href="builtins_8h.html" target="_top" xlink:title=" ">
<polygon fill="#ffffff" stroke="#000000" points="536,-280.5 536,-299.5 598,-299.5 598,-280.5 536,-280.5"/>
<text text-anchor="middle" x="567" y="-287.5" font-family="Helvetica,sans-Serif" font-size="10.00" fill="#000000">builtins.h</text>
</a>
</g>
</g>
<!-- Node3&#45;&gt;Node4 -->
<g id="edge4" class="edge">
<title>Node3&#45;&gt;Node4</title>
<path fill="none" stroke="#191970" d="M102.747,-342.9494C183.9384,-333.6893 427.9701,-305.8568 525.7857,-294.7006"/>
<polygon fill="#191970" stroke="#191970" points="526.3418,-298.16 535.8808,-293.5492 525.5486,-291.2051 526.3418,-298.16"/>
</g>
<!-- Node10 -->
<g id="node11" class="node">
<title>Node10</title>
<g id="a_node11"><a xlink:title=" ">
<polygon fill="#ffffff" stroke="#bfbfbf" points="185,-.5 185,-19.5 247,-19.5 247,-.5 185,-.5"/>
<text text-anchor="middle" x="216" y="-7.5" font-family="Helvetica,sans-Serif" font-size="10.00" fill="#000000">stdbool.h</text>
</a>
</g>
</g>
<!-- Node3&#45;&gt;Node10 -->
<g id="edge32" class="edge">
<title>Node3&#45;&gt;Node10</title>
<path fill="none" stroke="#191970" d="M76,-336.4116C76,-317.0538 76,-271.9167 76,-234 76,-234 76,-234 76,-122 76,-70.7073 134.0103,-39.0413 175.3475,-22.988"/>
<polygon fill="#191970" stroke="#191970" points="176.7757,-26.1911 184.9295,-19.426 174.3366,-19.6298 176.7757,-26.1911"/>
</g>
<!-- Node5 -->
<g id="node6" class="node">
<title>Node5</title>
<g id="a_node6"><a xlink:href="builtinutils_8h.html" target="_top" xlink:title=" ">
<polygon fill="#ffffff" stroke="#000000" points="865.5,-.5 865.5,-19.5 942.5,-19.5 942.5,-.5 865.5,-.5"/>
<text text-anchor="middle" x="904" y="-7.5" font-family="Helvetica,sans-Serif" font-size="10.00" fill="#000000">builtinutils.h</text>
</a>
</g>
</g>
<!-- Node4&#45;&gt;Node5 -->
<g id="edge5" class="edge">
<title>Node4&#45;&gt;Node5</title>
<path fill="none" stroke="#191970" d="M598.005,-287.0757C685.3279,-277.9905 927,-246.6458 927,-178 927,-178 927,-178 927,-122 927,-88.906 917.2452,-51.4151 910.4412,-29.2901"/>
<polygon fill="#191970" stroke="#191970" points="913.7706,-28.2105 907.3937,-19.7497 907.1026,-30.3405 913.7706,-28.2105"/>
</g>
<!-- Node6 -->
<g id="node7" class="node">
<title>Node6</title>
<g id="a_node7"><a xlink:href="helios__boolean_8h.html" target="_top" xlink:title=" ">
<polygon fill="#ffffff" stroke="#000000" points="227.5,-224.5 227.5,-243.5 326.5,-243.5 326.5,-224.5 227.5,-224.5"/>
<text text-anchor="middle" x="277" y="-231.5" font-family="Helvetica,sans-Serif" font-size="10.00" fill="#000000">helios_boolean.h</text>
</a>
</g>
</g>
<!-- Node4&#45;&gt;Node6 -->
<g id="edge6" class="edge">
<title>Node4&#45;&gt;Node6</title>
<path fill="none" stroke="#191970" d="M535.9649,-284.007C488.5184,-274.8449 397.0929,-257.1903 336.556,-245.5005"/>
<polygon fill="#191970" stroke="#191970" points="336.8565,-241.9939 326.3742,-243.5343 335.5292,-248.8669 336.8565,-241.9939"/>
</g>
<!-- Node4&#45;&gt;Node7 -->
<g id="edge26" class="edge">
<title>Node4&#45;&gt;Node7</title>
<path fill="none" stroke="#191970" d="M567,-280.4509C567,-262.184 567,-221.9553 567,-197.6976"/>
<polygon fill="#191970" stroke="#191970" points="570.5001,-197.5249 567,-187.5249 563.5001,-197.5249 570.5001,-197.5249"/>
</g>
<!-- Node4&#45;&gt;Node9 -->
<g id="edge29" class="edge">
<title>Node4&#45;&gt;Node9</title>
<path fill="none" stroke="#191970" d="M598.18,-288.8561C657.58,-285.9518 783.4296,-276.0721 810,-244 848.7935,-197.1739 808.7006,-119.8727 786.5664,-84.5937"/>
<polygon fill="#191970" stroke="#191970" points="789.2553,-82.3069 780.8802,-75.8177 783.3806,-86.1133 789.2553,-82.3069"/>
</g>
<!-- Node4&#45;&gt;Node13 -->
<g id="edge17" class="edge">
<title>Node4&#45;&gt;Node13</title>
<path fill="none" stroke="#191970" d="M579.1931,-280.2455C589.6321,-271.8943 604.8655,-259.7076 617.074,-249.9408"/>
<polygon fill="#191970" stroke="#191970" points="619.3244,-252.6227 624.9467,-243.6427 614.9515,-247.1566 619.3244,-252.6227"/>
</g>
<!-- Node14 -->
<g id="node15" class="node">
<title>Node14</title>
<g id="a_node15"><a xlink:href="helios__float_8h.html" target="_top" xlink:title=" ">
<polygon fill="#ffffff" stroke="#000000" points="345,-224.5 345,-243.5 427,-243.5 427,-224.5 345,-224.5"/>
<text text-anchor="middle" x="386" y="-231.5" font-family="Helvetica,sans-Serif" font-size="10.00" fill="#000000">helios_float.h</text>
</a>
</g>
</g>
<!-- Node4&#45;&gt;Node14 -->
<g id="edge19" class="edge">
<title>Node4&#45;&gt;Node14</title>
<path fill="none" stroke="#191970" d="M535.885,-280.3733C505.6571,-271.021 459.604,-256.7725 426.5261,-246.5385"/>
<polygon fill="#191970" stroke="#191970" points="427.2967,-243.1133 416.709,-243.5011 425.2277,-249.8005 427.2967,-243.1133"/>
</g>
<!-- Node15 -->
<g id="node16" class="node">
<title>Node15</title>
<g id="a_node16"><a xlink:href="helios__hashmap_8h.html" target="_top" xlink:title=" ">
<polygon fill="#ffffff" stroke="#000000" points="104.5,-224.5 104.5,-243.5 209.5,-243.5 209.5,-224.5 104.5,-224.5"/>
<text text-anchor="middle" x="157" y="-231.5" font-family="Helvetica,sans-Serif" font-size="10.00" fill="#000000">helios_hashmap.h</text>
</a>
</g>
</g>
<!-- Node4&#45;&gt;Node15 -->
<g id="edge21" class="edge">
<title>Node4&#45;&gt;Node15</title>
<path fill="none" stroke="#191970" d="M535.6697,-286.2058C476.1259,-278.9225 342.2883,-262.2065 219.5054,-244.1898"/>
<polygon fill="#191970" stroke="#191970" points="219.9596,-240.719 209.5561,-242.7234 218.9388,-247.6442 219.9596,-240.719"/>
</g>
<!-- Node16 -->
<g id="node17" class="node">
<title>Node16</title>
<g id="a_node17"><a xlink:href="helios__integer_8h.html" target="_top" xlink:title=" ">
<polygon fill="#ffffff" stroke="#000000" points="445,-224.5 445,-243.5 539,-243.5 539,-224.5 445,-224.5"/>
<text text-anchor="middle" x="492" y="-231.5" font-family="Helvetica,sans-Serif" font-size="10.00" fill="#000000">helios_integer.h</text>
</a>
</g>
</g>
<!-- Node4&#45;&gt;Node16 -->
<g id="edge24" class="edge">
<title>Node4&#45;&gt;Node16</title>
<path fill="none" stroke="#191970" d="M553.936,-280.2455C542.6438,-271.814 526.1155,-259.4729 512.9729,-249.6598"/>
<polygon fill="#191970" stroke="#191970" points="515.0211,-246.8211 504.9143,-243.6427 510.8331,-252.4301 515.0211,-246.8211"/>
</g>
<!-- Node4&#45;&gt;Node17 -->
<g id="edge27" class="edge">
<title>Node4&#45;&gt;Node17</title>
<path fill="none" stroke="#191970" d="M596.9117,-280.3733C625.8452,-271.0613 669.8611,-256.8953 701.6293,-246.671"/>
<polygon fill="#191970" stroke="#191970" points="703.0318,-249.8965 711.4787,-243.5011 700.8872,-243.2331 703.0318,-249.8965"/>
</g>
<!-- Node18 -->
<g id="node19" class="node">
<title>Node18</title>
<g id="a_node19"><a xlink:href="serialize_8h.html" target="_top" xlink:title=" ">
<polygon fill="#ffffff" stroke="#000000" points="693.5,-168.5 693.5,-187.5 760.5,-187.5 760.5,-168.5 693.5,-168.5"/>
<text text-anchor="middle" x="727" y="-175.5" font-family="Helvetica,sans-Serif" font-size="10.00" fill="#000000">serialize.h</text>
</a>
</g>
</g>
<!-- Node4&#45;&gt;Node18 -->
<g id="edge30" class="edge">
<title>Node4&#45;&gt;Node18</title>
<path fill="none" stroke="#191970" d="M598.3274,-288.3875C654.6955,-284.7599 769.6281,-273.806 794,-244 809.7634,-224.7219 782.9636,-204.9885 758.7209,-192.1848"/>
<polygon fill="#191970" stroke="#191970" points="760.1565,-188.9893 749.6489,-187.6323 757.0169,-195.2457 760.1565,-188.9893"/>
</g>
<!-- Node6&#45;&gt;Node7 -->
<g id="edge7" class="edge">
<title>Node6&#45;&gt;Node7</title>
<path fill="none" stroke="#191970" d="M326.5233,-224.4369C378.0437,-214.4881 458.5133,-198.9491 511.9845,-188.6237"/>
<polygon fill="#191970" stroke="#191970" points="512.8166,-192.0278 521.9715,-186.6951 511.4893,-185.1547 512.8166,-192.0278"/>
</g>
<!-- Node6&#45;&gt;Node10 -->
<g id="edge16" class="edge">
<title>Node6&#45;&gt;Node10</title>
<path fill="none" stroke="#191970" d="M274.3789,-224.375C265.1108,-190.3415 233.7722,-75.262 221.2414,-29.247"/>
<polygon fill="#191970" stroke="#191970" points="224.616,-28.3181 218.6113,-19.5891 217.8619,-30.1574 224.616,-28.3181"/>
</g>
<!-- Node8 -->
<g id="node9" class="node">
<title>Node8</title>
<g id="a_node9"><a xlink:href="helios__type_8h.html" target="_top" xlink:title=" ">
<polygon fill="#ffffff" stroke="#000000" points="548,-112.5 548,-131.5 630,-131.5 630,-112.5 548,-112.5"/>
<text text-anchor="middle" x="589" y="-119.5" font-family="Helvetica,sans-Serif" font-size="10.00" fill="#000000">helios_type.h</text>
</a>
</g>
</g>
<!-- Node7&#45;&gt;Node8 -->
<g id="edge8" class="edge">
<title>Node7&#45;&gt;Node8</title>
<path fill="none" stroke="#191970" d="M570.8321,-168.2455C573.7659,-160.7776 577.9047,-150.2427 581.491,-141.1137"/>
<polygon fill="#191970" stroke="#191970" points="584.8129,-142.23 585.2118,-131.6427 578.2976,-139.6704 584.8129,-142.23"/>
</g>
<!-- Node8&#45;&gt;Node2 -->
<g id="edge14" class="edge">
<title>Node8&#45;&gt;Node2</title>
<path fill="none" stroke="#191970" d="M548.9281,-112.4509C459.0141,-91.0246 242.304,-39.3831 155.6801,-18.7408"/>
<polygon fill="#191970" stroke="#191970" points="156.3173,-15.2947 145.7784,-16.3812 154.6946,-22.104 156.3173,-15.2947"/>
</g>
<!-- Node8&#45;&gt;Node9 -->
<g id="edge9" class="edge">
<title>Node8&#45;&gt;Node9</title>
<path fill="none" stroke="#191970" d="M620.8026,-112.3733C651.8317,-102.9807 699.1754,-88.6496 733.0147,-78.4064"/>
<polygon fill="#191970" stroke="#191970" points="734.0553,-81.7483 742.6124,-75.5011 732.0272,-75.0485 734.0553,-81.7483"/>
</g>
<!-- Node12 -->
<g id="node13" class="node">
<title>Node12</title>
<g id="a_node13"><a xlink:title=" ">
<polygon fill="#ffffff" stroke="#bfbfbf" points="562.5,-56.5 562.5,-75.5 615.5,-75.5 615.5,-56.5 562.5,-56.5"/>
<text text-anchor="middle" x="589" y="-63.5" font-family="Helvetica,sans-Serif" font-size="10.00" fill="#000000">stdlib.h</text>
</a>
</g>
</g>
<!-- Node8&#45;&gt;Node12 -->
<g id="edge15" class="edge">
<title>Node8&#45;&gt;Node12</title>
<path fill="none" stroke="#191970" d="M589,-112.2455C589,-104.9382 589,-94.6944 589,-85.7046"/>
<polygon fill="#191970" stroke="#191970" points="592.5001,-85.6426 589,-75.6427 585.5001,-85.6427 592.5001,-85.6426"/>
</g>
<!-- Node9&#45;&gt;Node2 -->
<g id="edge13" class="edge">
<title>Node9&#45;&gt;Node2</title>
<path fill="none" stroke="#191970" d="M723.9969,-62.4336C590.0512,-52.8403 229.6571,-26.7544 176,-20 169.4583,-19.1765 162.5248,-18.1181 155.8302,-16.9993"/>
<polygon fill="#191970" stroke="#191970" points="156.0499,-13.4849 145.5976,-15.2166 154.8484,-20.3811 156.0499,-13.4849"/>
</g>
<!-- Node9&#45;&gt;Node5 -->
<g id="edge10" class="edge">
<title>Node9&#45;&gt;Node5</title>
<path fill="none" stroke="#191970" d="M796.3478,-56.3733C817.4033,-47.3032 849.1495,-33.6279 872.7175,-23.4755"/>
<polygon fill="#191970" stroke="#191970" points="874.1444,-26.6719 881.9438,-19.5011 871.375,-20.243 874.1444,-26.6719"/>
</g>
<!-- Node9&#45;&gt;Node10 -->
<g id="edge11" class="edge">
<title>Node9&#45;&gt;Node10</title>
<path fill="none" stroke="#191970" d="M723.9902,-60.9811C614.9622,-50.0392 357.6082,-24.2116 257.1672,-14.1315"/>
<polygon fill="#191970" stroke="#191970" points="257.4063,-10.638 247.1067,-13.1218 256.7072,-17.603 257.4063,-10.638"/>
</g>
<!-- Node11 -->
<g id="node12" class="node">
<title>Node11</title>
<g id="a_node12"><a xlink:title=" ">
<polygon fill="#ffffff" stroke="#bfbfbf" points="746,-.5 746,-19.5 802,-19.5 802,-.5 746,-.5"/>
<text text-anchor="middle" x="774" y="-7.5" font-family="Helvetica,sans-Serif" font-size="10.00" fill="#000000">stddef.h</text>
</a>
</g>
</g>
<!-- Node9&#45;&gt;Node11 -->
<g id="edge12" class="edge">
<title>Node9&#45;&gt;Node11</title>
<path fill="none" stroke="#191970" d="M774,-56.2455C774,-48.9382 774,-38.6944 774,-29.7046"/>
<polygon fill="#191970" stroke="#191970" points="777.5001,-29.6426 774,-19.6427 770.5001,-29.6427 777.5001,-29.6426"/>
</g>
<!-- Node13&#45;&gt;Node7 -->
<g id="edge18" class="edge">
<title>Node13&#45;&gt;Node7</title>
<path fill="none" stroke="#191970" d="M624.8069,-224.2455C614.3679,-215.8943 599.1345,-203.7076 586.926,-193.9408"/>
<polygon fill="#191970" stroke="#191970" points="589.0485,-191.1566 579.0533,-187.6427 584.6756,-196.6227 589.0485,-191.1566"/>
</g>
<!-- Node14&#45;&gt;Node7 -->
<g id="edge20" class="edge">
<title>Node14&#45;&gt;Node7</title>
<path fill="none" stroke="#191970" d="M417.115,-224.3733C447.3429,-215.021 493.396,-200.7725 526.4739,-190.5385"/>
<polygon fill="#191970" stroke="#191970" points="527.7723,-193.8005 536.291,-187.5011 525.7033,-187.1133 527.7723,-193.8005"/>
</g>
<!-- Node15&#45;&gt;Node7 -->
<g id="edge22" class="edge">
<title>Node15&#45;&gt;Node7</title>
<path fill="none" stroke="#191970" d="M209.5561,-225.2766C212.411,-224.8364 215.2398,-224.4081 218,-224 321.5094,-208.6979 442.6682,-193.2886 511.5707,-184.7599"/>
<polygon fill="#191970" stroke="#191970" points="512.2637,-188.201 521.7594,-183.5018 511.4058,-181.2538 512.2637,-188.201"/>
</g>
<!-- Node15&#45;&gt;Node10 -->
<g id="edge23" class="edge">
<title>Node15&#45;&gt;Node10</title>
<path fill="none" stroke="#191970" d="M159.5352,-224.375C168.4804,-190.4133 198.6827,-75.7472 210.8535,-29.5392"/>
<polygon fill="#191970" stroke="#191970" points="214.3117,-30.1508 213.4743,-19.5891 207.5426,-28.3678 214.3117,-30.1508"/>
</g>
<!-- Node16&#45;&gt;Node7 -->
<g id="edge25" class="edge">
<title>Node16&#45;&gt;Node7</title>
<path fill="none" stroke="#191970" d="M505.064,-224.2455C516.3562,-215.814 532.8845,-203.4729 546.0271,-193.6598"/>
<polygon fill="#191970" stroke="#191970" points="548.1669,-196.4301 554.0857,-187.6427 543.9789,-190.8211 548.1669,-196.4301"/>
</g>
<!-- Node17&#45;&gt;Node7 -->
<g id="edge28" class="edge">
<title>Node17&#45;&gt;Node7</title>
<path fill="none" stroke="#191970" d="M711.0883,-224.3733C682.1548,-215.0613 638.1389,-200.8953 606.3707,-190.671"/>
<polygon fill="#191970" stroke="#191970" points="607.1128,-187.2331 596.5213,-187.5011 604.9682,-193.8965 607.1128,-187.2331"/>
</g>
<!-- Node18&#45;&gt;Node8 -->
<g id="edge31" class="edge">
<title>Node18&#45;&gt;Node8</title>
<path fill="none" stroke="#191970" d="M703.277,-168.3733C680.8263,-159.2629 646.9261,-145.5062 621.8745,-135.3404"/>
<polygon fill="#191970" stroke="#191970" points="622.9957,-132.0182 612.4135,-131.5011 620.3635,-138.5045 622.9957,-132.0182"/>
</g>
</g>
</svg>
