<?xml version="1.0" encoding="UTF-8" standalone="no"?>
<!DOCTYPE svg PUBLIC "-//W3C//DTD SVG 1.1//EN"
 "http://www.w3.org/Graphics/SVG/1.1/DTD/svg11.dtd">
<!-- Generated by graphviz version 2.40.1 (20161225.0304)
 -->
<!-- Title: builtins/object/helios_object.c Pages: 1 -->
<svg width="141pt" height="207pt"
 viewBox="0.00 0.00 141.00 207.00" xmlns="http://www.w3.org/2000/svg" xmlns:xlink="http://www.w3.org/1999/xlink">
<g id="graph0" class="graph" transform="scale(1 1) rotate(0) translate(4 203)">
<title>builtins/object/helios_object.c</title>
<polygon fill="#ffffff" stroke="transparent" points="-4,4 -4,-203 137,-203 137,4 -4,4"/>
<!-- Node0 -->
<g id="node1" class="node">
<title>Node0</title>
<g id="a_node1"><a xlink:title=" ">
<polygon fill="#bfbfbf" stroke="#000000" points="22.5,-168.5 22.5,-198.5 127.5,-198.5 127.5,-168.5 22.5,-168.5"/>
<text text-anchor="start" x="30.5" y="-186.5" font-family="Helvetica,sans-Serif" font-size="10.00" fill="#000000">builtins/object/helios</text>
<text text-anchor="middle" x="75" y="-175.5" font-family="Helvetica,sans-Serif" font-size="10.00" fill="#000000">_object.c</text>
</a>
</g>
</g>
<!-- Node1 -->
<g id="node2" class="node">
<title>Node1</title>
<g id="a_node2"><a xlink:href="helios__object_8h.html" target="_top" xlink:title=" ">
<polygon fill="#ffffff" stroke="#000000" points="0,-112.5 0,-131.5 82,-131.5 82,-112.5 0,-112.5"/>
<text text-anchor="middle" x="41" y="-119.5" font-family="Helvetica,sans-Serif" font-size="10.00" fill="#000000">helios_object.h</text>
</a>
</g>
</g>
<!-- Node0&#45;&gt;Node1 -->
<g id="edge1" class="edge">
<title>Node0&#45;&gt;Node1</title>
<path fill="none" stroke="#191970" d="M66.5955,-168.2977C61.9743,-159.9388 56.2031,-149.4997 51.3111,-140.6509"/>
<polygon fill="#191970" stroke="#191970" points="54.3452,-138.9051 46.4438,-131.8469 48.2191,-142.292 54.3452,-138.9051"/>
</g>
<!-- Node2 -->
<g id="node3" class="node">
<title>Node2</title>
<g id="a_node3"><a xlink:href="helios__type_8h.html" target="_top" xlink:title=" ">
<polygon fill="#ffffff" stroke="#000000" points="38,-56.5 38,-75.5 112,-75.5 112,-56.5 38,-56.5"/>
<text text-anchor="middle" x="75" y="-63.5" font-family="Helvetica,sans-Serif" font-size="10.00" fill="#000000">helios_type.h</text>
</a>
</g>
</g>
<!-- Node0&#45;&gt;Node2 -->
<g id="edge5" class="edge">
<title>Node0&#45;&gt;Node2</title>
<path fill="none" stroke="#191970" d="M81.9301,-168.2501C87.6412,-153.8368 94.3057,-131.5662 91,-112 89.455,-102.8551 86.2966,-93.1019 83.191,-84.9405"/>
<polygon fill="#191970" stroke="#191970" points="86.4127,-83.5713 79.411,-75.6198 79.9258,-86.2021 86.4127,-83.5713"/>
</g>
<!-- Node1&#45;&gt;Node2 -->
<g id="edge2" class="edge">
<title>Node1&#45;&gt;Node2</title>
<path fill="none" stroke="#191970" d="M46.9223,-112.2455C51.6027,-104.5367 58.2673,-93.5598 63.9289,-84.2348"/>
<polygon fill="#191970" stroke="#191970" points="66.9475,-86.007 69.1455,-75.6427 60.9639,-82.3741 66.9475,-86.007"/>
</g>
<!-- Node3 -->
<g id="node4" class="node">
<title>Node3</title>
<g id="a_node4"><a xlink:title=" ">
<polygon fill="#ffffff" stroke="#bfbfbf" points="17.5,-.5 17.5,-19.5 66.5,-19.5 66.5,-.5 17.5,-.5"/>
<text text-anchor="middle" x="42" y="-7.5" font-family="Helvetica,sans-Serif" font-size="10.00" fill="#000000">stdint.h</text>
</a>
</g>
</g>
<!-- Node2&#45;&gt;Node3 -->
<g id="edge3" class="edge">
<title>Node2&#45;&gt;Node3</title>
<path fill="none" stroke="#191970" d="M69.2518,-56.2455C64.7565,-48.617 58.3752,-37.7881 52.9175,-28.5267"/>
<polygon fill="#191970" stroke="#191970" points="55.7747,-26.4811 47.6823,-19.6427 49.7439,-30.035 55.7747,-26.4811"/>
</g>
<!-- Node4 -->
<g id="node5" class="node">
<title>Node4</title>
<g id="a_node5"><a xlink:title=" ">
<polygon fill="#ffffff" stroke="#bfbfbf" points="85,-.5 85,-19.5 133,-19.5 133,-.5 85,-.5"/>
<text text-anchor="middle" x="109" y="-7.5" font-family="Helvetica,sans-Serif" font-size="10.00" fill="#000000">stdlib.h</text>
</a>
</g>
</g>
<!-- Node2&#45;&gt;Node4 -->
<g id="edge4" class="edge">
<title>Node2&#45;&gt;Node4</title>
<path fill="none" stroke="#191970" d="M80.9223,-56.2455C85.6027,-48.5367 92.2673,-37.5598 97.9289,-28.2348"/>
<polygon fill="#191970" stroke="#191970" points="100.9475,-30.007 103.1455,-19.6427 94.9639,-26.3741 100.9475,-30.007"/>
</g>
</g>
</svg>
