<?xml version="1.0" encoding="UTF-8" standalone="no"?>
<!DOCTYPE svg PUBLIC "-//W3C//DTD SVG 1.1//EN"
 "http://www.w3.org/Graphics/SVG/1.1/DTD/svg11.dtd">
<!-- Generated by graphviz version 2.40.1 (20161225.0304)
 -->
<!-- Title: builtins/integer/helios_integer.c Pages: 1 -->
<svg width="396pt" height="319pt"
 viewBox="0.00 0.00 396.00 319.00" xmlns="http://www.w3.org/2000/svg" xmlns:xlink="http://www.w3.org/1999/xlink">
<g id="graph0" class="graph" transform="scale(1 1) rotate(0) translate(4 315)">
<title>builtins/integer/helios_integer.c</title>
<polygon fill="#ffffff" stroke="transparent" points="-4,4 -4,-315 392,-315 392,4 -4,4"/>
<!-- Node0 -->
<g id="node1" class="node">
<title>Node0</title>
<g id="a_node1"><a xlink:title=" ">
<polygon fill="#bfbfbf" stroke="#000000" points="160,-280.5 160,-310.5 268,-310.5 268,-280.5 160,-280.5"/>
<text text-anchor="start" x="168" y="-298.5" font-family="Helvetica,sans-Serif" font-size="10.00" fill="#000000">builtins/integer/helios</text>
<text text-anchor="middle" x="214" y="-287.5" font-family="Helvetica,sans-Serif" font-size="10.00" fill="#000000">_integer.c</text>
</a>
</g>
</g>
<!-- Node1 -->
<g id="node2" class="node">
<title>Node1</title>
<g id="a_node2"><a xlink:href="helios__integer_8h.html" target="_top" xlink:title=" ">
<polygon fill="#ffffff" stroke="#000000" points="0,-224.5 0,-243.5 84,-243.5 84,-224.5 0,-224.5"/>
<text text-anchor="middle" x="42" y="-231.5" font-family="Helvetica,sans-Serif" font-size="10.00" fill="#000000">helios_integer.h</text>
</a>
</g>
</g>
<!-- Node0&#45;&gt;Node1 -->
<g id="edge1" class="edge">
<title>Node0&#45;&gt;Node1</title>
<path fill="none" stroke="#191970" d="M171.9241,-280.4554C143.2254,-270.194 105.6063,-256.7429 78.2377,-246.9571"/>
<polygon fill="#191970" stroke="#191970" points="79.2485,-243.6015 68.6539,-243.5303 76.8917,-250.1929 79.2485,-243.6015"/>
</g>
<!-- Node2 -->
<g id="node3" class="node">
<title>Node2</title>
<g id="a_node3"><a xlink:href="helios__object_8h.html" target="_top" xlink:title=" ">
<polygon fill="#ffffff" stroke="#000000" points="82,-168.5 82,-187.5 164,-187.5 164,-168.5 82,-168.5"/>
<text text-anchor="middle" x="123" y="-175.5" font-family="Helvetica,sans-Serif" font-size="10.00" fill="#000000">helios_object.h</text>
</a>
</g>
</g>
<!-- Node0&#45;&gt;Node2 -->
<g id="edge12" class="edge">
<title>Node0&#45;&gt;Node2</title>
<path fill="none" stroke="#191970" d="M174.8887,-280.3653C158.689,-272.0806 141.3092,-260.1534 131,-244 122.2786,-230.3345 120.719,-211.7973 121.0879,-197.8475"/>
<polygon fill="#191970" stroke="#191970" points="124.5839,-198.0182 121.6972,-187.8242 117.5968,-197.5934 124.5839,-198.0182"/>
</g>
<!-- Node4 -->
<g id="node5" class="node">
<title>Node4</title>
<g id="a_node5"><a xlink:href="helios__memory_8h.html" target="_top" xlink:title=" ">
<polygon fill="#ffffff" stroke="#000000" points="197,-56.5 197,-75.5 287,-75.5 287,-56.5 197,-56.5"/>
<text text-anchor="middle" x="242" y="-63.5" font-family="Helvetica,sans-Serif" font-size="10.00" fill="#000000">helios_memory.h</text>
</a>
</g>
</g>
<!-- Node0&#45;&gt;Node4 -->
<g id="edge11" class="edge">
<title>Node0&#45;&gt;Node4</title>
<path fill="none" stroke="#191970" d="M219.3183,-280.3773C222.6624,-270.2202 226.7555,-256.4645 229,-244 239.2171,-187.2609 241.4497,-118.9704 241.907,-85.8921"/>
<polygon fill="#191970" stroke="#191970" points="245.4083,-85.7703 242.0049,-75.737 238.4086,-85.7028 245.4083,-85.7703"/>
</g>
<!-- Node10 -->
<g id="node11" class="node">
<title>Node10</title>
<g id="a_node11"><a xlink:href="helios__string_8h.html" target="_top" xlink:title=" ">
<polygon fill="#ffffff" stroke="#000000" points="140,-224.5 140,-243.5 220,-243.5 220,-224.5 140,-224.5"/>
<text text-anchor="middle" x="180" y="-231.5" font-family="Helvetica,sans-Serif" font-size="10.00" fill="#000000">helios_string.h</text>
</a>
</g>
</g>
<!-- Node0&#45;&gt;Node10 -->
<g id="edge13" class="edge">
<title>Node0&#45;&gt;Node10</title>
<path fill="none" stroke="#191970" d="M205.5955,-280.2977C200.9743,-271.9388 195.2031,-261.4997 190.3111,-252.6509"/>
<polygon fill="#191970" stroke="#191970" points="193.3452,-250.9051 185.4438,-243.8469 187.2191,-254.292 193.3452,-250.9051"/>
</g>
<!-- Node11 -->
<g id="node12" class="node">
<title>Node11</title>
<g id="a_node12"><a xlink:title=" ">
<polygon fill="#ffffff" stroke="#bfbfbf" points="276.5,-224.5 276.5,-243.5 323.5,-243.5 323.5,-224.5 276.5,-224.5"/>
<text text-anchor="middle" x="300" y="-231.5" font-family="Helvetica,sans-Serif" font-size="10.00" fill="#000000">math.h</text>
</a>
</g>
</g>
<!-- Node0&#45;&gt;Node11 -->
<g id="edge15" class="edge">
<title>Node0&#45;&gt;Node11</title>
<path fill="none" stroke="#191970" d="M235.2584,-280.2977C248.2718,-270.9917 264.8903,-259.1075 278.0317,-249.7099"/>
<polygon fill="#191970" stroke="#191970" points="280.3889,-252.3271 286.4871,-243.6633 276.3171,-246.6332 280.3889,-252.3271"/>
</g>
<!-- Node12 -->
<g id="node13" class="node">
<title>Node12</title>
<g id="a_node13"><a xlink:title=" ">
<polygon fill="#ffffff" stroke="#bfbfbf" points="342,-224.5 342,-243.5 388,-243.5 388,-224.5 342,-224.5"/>
<text text-anchor="middle" x="365" y="-231.5" font-family="Helvetica,sans-Serif" font-size="10.00" fill="#000000">stdio.h</text>
</a>
</g>
</g>
<!-- Node0&#45;&gt;Node12 -->
<g id="edge16" class="edge">
<title>Node0&#45;&gt;Node12</title>
<path fill="none" stroke="#191970" d="M250.9388,-280.4554C275.802,-270.329 308.2918,-257.0964 332.2336,-247.3453"/>
<polygon fill="#191970" stroke="#191970" points="333.6593,-250.5438 341.6004,-243.5303 331.0188,-244.0609 333.6593,-250.5438"/>
</g>
<!-- Node1&#45;&gt;Node2 -->
<g id="edge2" class="edge">
<title>Node1&#45;&gt;Node2</title>
<path fill="none" stroke="#191970" d="M56.1091,-224.2455C68.4209,-215.7337 86.4958,-203.2375 100.7538,-193.3801"/>
<polygon fill="#191970" stroke="#191970" points="102.8174,-196.2085 109.0526,-187.6427 98.8366,-190.4506 102.8174,-196.2085"/>
</g>
<!-- Node3 -->
<g id="node4" class="node">
<title>Node3</title>
<g id="a_node4"><a xlink:href="helios__type_8h.html" target="_top" xlink:title=" ">
<polygon fill="#ffffff" stroke="#000000" points="110,-112.5 110,-131.5 184,-131.5 184,-112.5 110,-112.5"/>
<text text-anchor="middle" x="147" y="-119.5" font-family="Helvetica,sans-Serif" font-size="10.00" fill="#000000">helios_type.h</text>
</a>
</g>
</g>
<!-- Node2&#45;&gt;Node3 -->
<g id="edge3" class="edge">
<title>Node2&#45;&gt;Node3</title>
<path fill="none" stroke="#191970" d="M127.1805,-168.2455C130.381,-160.7776 134.896,-150.2427 138.8084,-141.1137"/>
<polygon fill="#191970" stroke="#191970" points="142.1452,-142.2129 142.8674,-131.6427 135.7112,-139.4554 142.1452,-142.2129"/>
</g>
<!-- Node3&#45;&gt;Node4 -->
<g id="edge4" class="edge">
<title>Node3&#45;&gt;Node4</title>
<path fill="none" stroke="#191970" d="M163.5477,-112.2455C178.2599,-103.5731 199.9888,-90.7645 216.8505,-80.825"/>
<polygon fill="#191970" stroke="#191970" points="218.8046,-83.736 225.6419,-75.6427 215.2498,-77.7057 218.8046,-83.736"/>
</g>
<!-- Node8 -->
<g id="node9" class="node">
<title>Node8</title>
<g id="a_node9"><a xlink:title=" ">
<polygon fill="#ffffff" stroke="#bfbfbf" points="76.5,-.5 76.5,-19.5 125.5,-19.5 125.5,-.5 76.5,-.5"/>
<text text-anchor="middle" x="101" y="-7.5" font-family="Helvetica,sans-Serif" font-size="10.00" fill="#000000">stdint.h</text>
</a>
</g>
</g>
<!-- Node3&#45;&gt;Node8 -->
<g id="edge9" class="edge">
<title>Node3&#45;&gt;Node8</title>
<path fill="none" stroke="#191970" d="M140.2361,-112.1523C134.2539,-103.0886 125.626,-89.104 120,-76 113.532,-60.9347 108.5308,-43.0127 105.2866,-29.6489"/>
<polygon fill="#191970" stroke="#191970" points="108.6401,-28.6151 102.9812,-19.6581 101.8194,-30.1891 108.6401,-28.6151"/>
</g>
<!-- Node9 -->
<g id="node10" class="node">
<title>Node9</title>
<g id="a_node10"><a xlink:title=" ">
<polygon fill="#ffffff" stroke="#bfbfbf" points="129,-56.5 129,-75.5 177,-75.5 177,-56.5 129,-56.5"/>
<text text-anchor="middle" x="153" y="-63.5" font-family="Helvetica,sans-Serif" font-size="10.00" fill="#000000">stdlib.h</text>
</a>
</g>
</g>
<!-- Node3&#45;&gt;Node9 -->
<g id="edge10" class="edge">
<title>Node3&#45;&gt;Node9</title>
<path fill="none" stroke="#191970" d="M148.0451,-112.2455C148.828,-104.9382 149.9256,-94.6944 150.8888,-85.7046"/>
<polygon fill="#191970" stroke="#191970" points="154.3815,-85.9587 151.9669,-75.6427 147.4214,-85.2129 154.3815,-85.9587"/>
</g>
<!-- Node5 -->
<g id="node6" class="node">
<title>Node5</title>
<g id="a_node6"><a xlink:href="builtinutils_8h.html" target="_top" xlink:title=" ">
<polygon fill="#ffffff" stroke="#000000" points="288,-.5 288,-19.5 356,-19.5 356,-.5 288,-.5"/>
<text text-anchor="middle" x="322" y="-7.5" font-family="Helvetica,sans-Serif" font-size="10.00" fill="#000000">builtinutils.h</text>
</a>
</g>
</g>
<!-- Node4&#45;&gt;Node5 -->
<g id="edge5" class="edge">
<title>Node4&#45;&gt;Node5</title>
<path fill="none" stroke="#191970" d="M255.9349,-56.2455C268.0947,-47.7337 285.9464,-35.2375 300.0285,-25.3801"/>
<polygon fill="#191970" stroke="#191970" points="302.0395,-28.2447 308.2248,-19.6427 298.0253,-22.51 302.0395,-28.2447"/>
</g>
<!-- Node6 -->
<g id="node7" class="node">
<title>Node6</title>
<g id="a_node7"><a xlink:title=" ">
<polygon fill="#ffffff" stroke="#bfbfbf" points="144,-.5 144,-19.5 200,-19.5 200,-.5 144,-.5"/>
<text text-anchor="middle" x="172" y="-7.5" font-family="Helvetica,sans-Serif" font-size="10.00" fill="#000000">stdbool.h</text>
</a>
</g>
</g>
<!-- Node4&#45;&gt;Node6 -->
<g id="edge6" class="edge">
<title>Node4&#45;&gt;Node6</title>
<path fill="none" stroke="#191970" d="M229.8069,-56.2455C219.3679,-47.8943 204.1345,-35.7076 191.926,-25.9408"/>
<polygon fill="#191970" stroke="#191970" points="194.0485,-23.1566 184.0533,-19.6427 189.6756,-28.6227 194.0485,-23.1566"/>
</g>
<!-- Node7 -->
<g id="node8" class="node">
<title>Node7</title>
<g id="a_node8"><a xlink:title=" ">
<polygon fill="#ffffff" stroke="#bfbfbf" points="218,-.5 218,-19.5 270,-19.5 270,-.5 218,-.5"/>
<text text-anchor="middle" x="244" y="-7.5" font-family="Helvetica,sans-Serif" font-size="10.00" fill="#000000">stddef.h</text>
</a>
</g>
</g>
<!-- Node4&#45;&gt;Node7 -->
<g id="edge7" class="edge">
<title>Node4&#45;&gt;Node7</title>
<path fill="none" stroke="#191970" d="M242.3484,-56.2455C242.6093,-48.9382 242.9752,-38.6944 243.2963,-29.7046"/>
<polygon fill="#191970" stroke="#191970" points="246.7964,-29.7613 243.6556,-19.6427 239.8008,-29.5113 246.7964,-29.7613"/>
</g>
<!-- Node4&#45;&gt;Node8 -->
<g id="edge8" class="edge">
<title>Node4&#45;&gt;Node8</title>
<path fill="none" stroke="#191970" d="M217.7612,-56.3733C194.7211,-47.2226 159.8786,-33.3844 134.2499,-23.2057"/>
<polygon fill="#191970" stroke="#191970" points="135.5082,-19.9395 124.9225,-19.5011 132.9244,-26.4452 135.5082,-19.9395"/>
</g>
<!-- Node10&#45;&gt;Node2 -->
<g id="edge14" class="edge">
<title>Node10&#45;&gt;Node2</title>
<path fill="none" stroke="#191970" d="M170.0714,-224.2455C161.8162,-216.1352 149.8791,-204.4075 140.0918,-194.7919"/>
<polygon fill="#191970" stroke="#191970" points="142.4011,-192.1542 132.8149,-187.6427 137.4954,-197.1476 142.4011,-192.1542"/>
</g>
</g>
</svg>
