<?xml version="1.0" encoding="UTF-8" standalone="no"?>
<!DOCTYPE svg PUBLIC "-//W3C//DTD SVG 1.1//EN"
 "http://www.w3.org/Graphics/SVG/1.1/DTD/svg11.dtd">
<!-- Generated by graphviz version 2.40.1 (20161225.0304)
 -->
<!-- Title: memory/include/helios_memory.h Pages: 1 -->
<svg width="288pt" height="95pt"
 viewBox="0.00 0.00 287.50 95.00" xmlns="http://www.w3.org/2000/svg" xmlns:xlink="http://www.w3.org/1999/xlink">
<g id="graph0" class="graph" transform="scale(1 1) rotate(0) translate(4 91)">
<title>memory/include/helios_memory.h</title>
<polygon fill="#ffffff" stroke="transparent" points="-4,4 -4,-91 283.5,-91 283.5,4 -4,4"/>
<!-- Node0 -->
<g id="node1" class="node">
<title>Node0</title>
<g id="a_node1"><a xlink:title=" ">
<polygon fill="#bfbfbf" stroke="#000000" points="93,-56.5 93,-86.5 207,-86.5 207,-56.5 93,-56.5"/>
<text text-anchor="start" x="101" y="-74.5" font-family="Helvetica,sans-Serif" font-size="10.00" fill="#000000">memory/include/helios</text>
<text text-anchor="middle" x="150" y="-63.5" font-family="Helvetica,sans-Serif" font-size="10.00" fill="#000000">_memory.h</text>
</a>
</g>
</g>
<!-- Node1 -->
<g id="node2" class="node">
<title>Node1</title>
<g id="a_node2"><a xlink:href="builtinutils_8h.html" target="_top" xlink:title=" ">
<polygon fill="#ffffff" stroke="#000000" points="0,-.5 0,-19.5 68,-19.5 68,-.5 0,-.5"/>
<text text-anchor="middle" x="34" y="-7.5" font-family="Helvetica,sans-Serif" font-size="10.00" fill="#000000">builtinutils.h</text>
</a>
</g>
</g>
<!-- Node0&#45;&gt;Node1 -->
<g id="edge1" class="edge">
<title>Node0&#45;&gt;Node1</title>
<path fill="none" stroke="#191970" d="M121.6232,-56.4554C103.1172,-46.644 79.1112,-33.9167 60.9069,-24.2653"/>
<polygon fill="#191970" stroke="#191970" points="62.4505,-21.1222 51.9759,-19.5303 59.1715,-27.3068 62.4505,-21.1222"/>
</g>
<!-- Node2 -->
<g id="node3" class="node">
<title>Node2</title>
<g id="a_node3"><a xlink:title=" ">
<polygon fill="#ffffff" stroke="#bfbfbf" points="86,-.5 86,-19.5 142,-19.5 142,-.5 86,-.5"/>
<text text-anchor="middle" x="114" y="-7.5" font-family="Helvetica,sans-Serif" font-size="10.00" fill="#000000">stdbool.h</text>
</a>
</g>
</g>
<!-- Node0&#45;&gt;Node2 -->
<g id="edge2" class="edge">
<title>Node0&#45;&gt;Node2</title>
<path fill="none" stroke="#191970" d="M141.1011,-56.2977C136.2081,-47.9388 130.0974,-37.4997 124.9176,-28.6509"/>
<polygon fill="#191970" stroke="#191970" points="127.8365,-26.7089 119.7641,-19.8469 121.7953,-30.2452 127.8365,-26.7089"/>
</g>
<!-- Node3 -->
<g id="node4" class="node">
<title>Node3</title>
<g id="a_node4"><a xlink:title=" ">
<polygon fill="#ffffff" stroke="#bfbfbf" points="160,-.5 160,-19.5 212,-19.5 212,-.5 160,-.5"/>
<text text-anchor="middle" x="186" y="-7.5" font-family="Helvetica,sans-Serif" font-size="10.00" fill="#000000">stddef.h</text>
</a>
</g>
</g>
<!-- Node0&#45;&gt;Node3 -->
<g id="edge3" class="edge">
<title>Node0&#45;&gt;Node3</title>
<path fill="none" stroke="#191970" d="M158.8989,-56.2977C163.7919,-47.9388 169.9026,-37.4997 175.0824,-28.6509"/>
<polygon fill="#191970" stroke="#191970" points="178.2047,-30.2452 180.2359,-19.8469 172.1635,-26.7089 178.2047,-30.2452"/>
</g>
<!-- Node4 -->
<g id="node5" class="node">
<title>Node4</title>
<g id="a_node5"><a xlink:title=" ">
<polygon fill="#ffffff" stroke="#bfbfbf" points="230.5,-.5 230.5,-19.5 279.5,-19.5 279.5,-.5 230.5,-.5"/>
<text text-anchor="middle" x="255" y="-7.5" font-family="Helvetica,sans-Serif" font-size="10.00" fill="#000000">stdint.h</text>
</a>
</g>
</g>
<!-- Node0&#45;&gt;Node4 -->
<g id="edge4" class="edge">
<title>Node0&#45;&gt;Node4</title>
<path fill="none" stroke="#191970" d="M175.6859,-56.4554C192.1297,-46.8241 213.3708,-34.3828 229.7323,-24.7996"/>
<polygon fill="#191970" stroke="#191970" points="231.8688,-27.6045 238.7287,-19.5303 228.331,-21.5643 231.8688,-27.6045"/>
</g>
</g>
</svg>
