<?xml version="1.0" encoding="UTF-8" standalone="no"?>
<!DOCTYPE svg PUBLIC "-//W3C//DTD SVG 1.1//EN"
 "http://www.w3.org/Graphics/SVG/1.1/DTD/svg11.dtd">
<!-- Generated by graphviz version 2.40.1 (20161225.0304)
 -->
<!-- Title: builtins/string/helios_string.c Pages: 1 -->
<svg width="333pt" height="319pt"
 viewBox="0.00 0.00 332.50 319.00" xmlns="http://www.w3.org/2000/svg" xmlns:xlink="http://www.w3.org/1999/xlink">
<g id="graph0" class="graph" transform="scale(1 1) rotate(0) translate(4 315)">
<title>builtins/string/helios_string.c</title>
<polygon fill="#ffffff" stroke="transparent" points="-4,4 -4,-315 328.5,-315 328.5,4 -4,4"/>
<!-- Node0 -->
<g id="node1" class="node">
<title>Node0</title>
<g id="a_node1"><a xlink:title=" ">
<polygon fill="#bfbfbf" stroke="#000000" points="131.5,-280.5 131.5,-310.5 234.5,-310.5 234.5,-280.5 131.5,-280.5"/>
<text text-anchor="start" x="139.5" y="-298.5" font-family="Helvetica,sans-Serif" font-size="10.00" fill="#000000">builtins/string/helios</text>
<text text-anchor="middle" x="183" y="-287.5" font-family="Helvetica,sans-Serif" font-size="10.00" fill="#000000">_string.c</text>
</a>
</g>
</g>
<!-- Node1 -->
<g id="node2" class="node">
<title>Node1</title>
<g id="a_node2"><a xlink:href="helios__memory_8h.html" target="_top" xlink:title=" ">
<polygon fill="#ffffff" stroke="#000000" points="66,-56.5 66,-75.5 156,-75.5 156,-56.5 66,-56.5"/>
<text text-anchor="middle" x="111" y="-63.5" font-family="Helvetica,sans-Serif" font-size="10.00" fill="#000000">helios_memory.h</text>
</a>
</g>
</g>
<!-- Node0&#45;&gt;Node1 -->
<g id="edge1" class="edge">
<title>Node0&#45;&gt;Node1</title>
<path fill="none" stroke="#191970" d="M174.6455,-280.3001C163.762,-259.8866 144.8473,-222.2152 134,-188 122.8662,-152.881 116.3466,-110.27 113.243,-85.8284"/>
<polygon fill="#191970" stroke="#191970" points="116.6921,-85.1943 112.0208,-75.6849 109.7423,-86.0318 116.6921,-85.1943"/>
</g>
<!-- Node5 -->
<g id="node6" class="node">
<title>Node5</title>
<g id="a_node6"><a xlink:href="helios__object_8h.html" target="_top" xlink:title=" ">
<polygon fill="#ffffff" stroke="#000000" points="143,-168.5 143,-187.5 225,-187.5 225,-168.5 143,-168.5"/>
<text text-anchor="middle" x="184" y="-175.5" font-family="Helvetica,sans-Serif" font-size="10.00" fill="#000000">helios_object.h</text>
</a>
</g>
</g>
<!-- Node0&#45;&gt;Node5 -->
<g id="edge5" class="edge">
<title>Node0&#45;&gt;Node5</title>
<path fill="none" stroke="#191970" d="M176.4128,-280.2242C170.995,-265.7926 164.7039,-243.5097 168,-224 169.545,-214.8551 172.7034,-205.1019 175.809,-196.9405"/>
<polygon fill="#191970" stroke="#191970" points="179.0742,-198.2021 179.589,-187.6198 172.5873,-195.5713 179.0742,-198.2021"/>
</g>
<!-- Node8 -->
<g id="node9" class="node">
<title>Node8</title>
<g id="a_node9"><a xlink:href="helios__string_8h.html" target="_top" xlink:title=" ">
<polygon fill="#ffffff" stroke="#000000" points="177,-224.5 177,-243.5 257,-243.5 257,-224.5 177,-224.5"/>
<text text-anchor="middle" x="217" y="-231.5" font-family="Helvetica,sans-Serif" font-size="10.00" fill="#000000">helios_string.h</text>
</a>
</g>
</g>
<!-- Node0&#45;&gt;Node8 -->
<g id="edge10" class="edge">
<title>Node0&#45;&gt;Node8</title>
<path fill="none" stroke="#191970" d="M191.4045,-280.2977C196.0257,-271.9388 201.7969,-261.4997 206.6889,-252.6509"/>
<polygon fill="#191970" stroke="#191970" points="209.7809,-254.292 211.5562,-243.8469 203.6548,-250.9051 209.7809,-254.292"/>
</g>
<!-- Node9 -->
<g id="node10" class="node">
<title>Node9</title>
<g id="a_node10"><a xlink:title=" ">
<polygon fill="#ffffff" stroke="#bfbfbf" points="275.5,-224.5 275.5,-243.5 324.5,-243.5 324.5,-224.5 275.5,-224.5"/>
<text text-anchor="middle" x="300" y="-231.5" font-family="Helvetica,sans-Serif" font-size="10.00" fill="#000000">string.h</text>
</a>
</g>
</g>
<!-- Node0&#45;&gt;Node9 -->
<g id="edge12" class="edge">
<title>Node0&#45;&gt;Node9</title>
<path fill="none" stroke="#191970" d="M211.6214,-280.4554C230.287,-270.644 254.4999,-257.9167 272.8612,-248.2653"/>
<polygon fill="#191970" stroke="#191970" points="274.646,-251.2812 281.8692,-243.5303 271.389,-245.0851 274.646,-251.2812"/>
</g>
<!-- Node2 -->
<g id="node3" class="node">
<title>Node2</title>
<g id="a_node3"><a xlink:href="builtinutils_8h.html" target="_top" xlink:title=" ">
<polygon fill="#ffffff" stroke="#000000" points="0,-.5 0,-19.5 68,-19.5 68,-.5 0,-.5"/>
<text text-anchor="middle" x="34" y="-7.5" font-family="Helvetica,sans-Serif" font-size="10.00" fill="#000000">builtinutils.h</text>
</a>
</g>
</g>
<!-- Node1&#45;&gt;Node2 -->
<g id="edge2" class="edge">
<title>Node1&#45;&gt;Node2</title>
<path fill="none" stroke="#191970" d="M97.5876,-56.2455C85.9943,-47.814 69.0252,-35.4729 55.5322,-25.6598"/>
<polygon fill="#191970" stroke="#191970" points="57.4047,-22.6938 47.2587,-19.6427 53.2874,-28.355 57.4047,-22.6938"/>
</g>
<!-- Node3 -->
<g id="node4" class="node">
<title>Node3</title>
<g id="a_node4"><a xlink:title=" ">
<polygon fill="#ffffff" stroke="#bfbfbf" points="86,-.5 86,-19.5 138,-19.5 138,-.5 86,-.5"/>
<text text-anchor="middle" x="112" y="-7.5" font-family="Helvetica,sans-Serif" font-size="10.00" fill="#000000">stddef.h</text>
</a>
</g>
</g>
<!-- Node1&#45;&gt;Node3 -->
<g id="edge3" class="edge">
<title>Node1&#45;&gt;Node3</title>
<path fill="none" stroke="#191970" d="M111.1742,-56.2455C111.3047,-48.9382 111.4876,-38.6944 111.6481,-29.7046"/>
<polygon fill="#191970" stroke="#191970" points="115.1486,-29.7036 111.8278,-19.6427 108.1497,-29.5786 115.1486,-29.7036"/>
</g>
<!-- Node4 -->
<g id="node5" class="node">
<title>Node4</title>
<g id="a_node5"><a xlink:title=" ">
<polygon fill="#ffffff" stroke="#bfbfbf" points="158.5,-.5 158.5,-19.5 207.5,-19.5 207.5,-.5 158.5,-.5"/>
<text text-anchor="middle" x="183" y="-7.5" font-family="Helvetica,sans-Serif" font-size="10.00" fill="#000000">stdint.h</text>
</a>
</g>
</g>
<!-- Node1&#45;&gt;Node4 -->
<g id="edge4" class="edge">
<title>Node1&#45;&gt;Node4</title>
<path fill="none" stroke="#191970" d="M123.5414,-56.2455C134.2787,-47.8943 149.9473,-35.7076 162.5047,-25.9408"/>
<polygon fill="#191970" stroke="#191970" points="164.8575,-28.5449 170.6023,-19.6427 160.5599,-23.0194 164.8575,-28.5449"/>
</g>
<!-- Node6 -->
<g id="node7" class="node">
<title>Node6</title>
<g id="a_node7"><a xlink:href="helios__type_8h.html" target="_top" xlink:title=" ">
<polygon fill="#ffffff" stroke="#000000" points="147,-112.5 147,-131.5 221,-131.5 221,-112.5 147,-112.5"/>
<text text-anchor="middle" x="184" y="-119.5" font-family="Helvetica,sans-Serif" font-size="10.00" fill="#000000">helios_type.h</text>
</a>
</g>
</g>
<!-- Node5&#45;&gt;Node6 -->
<g id="edge6" class="edge">
<title>Node5&#45;&gt;Node6</title>
<path fill="none" stroke="#191970" d="M184,-168.2455C184,-160.9382 184,-150.6944 184,-141.7046"/>
<polygon fill="#191970" stroke="#191970" points="187.5001,-141.6426 184,-131.6427 180.5001,-141.6427 187.5001,-141.6426"/>
</g>
<!-- Node6&#45;&gt;Node1 -->
<g id="edge7" class="edge">
<title>Node6&#45;&gt;Node1</title>
<path fill="none" stroke="#191970" d="M171.2844,-112.2455C160.398,-103.8943 144.5117,-91.7076 131.78,-81.9408"/>
<polygon fill="#191970" stroke="#191970" points="133.6346,-78.9523 123.5699,-75.6427 129.3739,-84.5063 133.6346,-78.9523"/>
</g>
<!-- Node6&#45;&gt;Node4 -->
<g id="edge8" class="edge">
<title>Node6&#45;&gt;Node4</title>
<path fill="none" stroke="#191970" d="M183.9147,-112.4509C183.7516,-94.184 183.3925,-53.9553 183.1759,-29.6976"/>
<polygon fill="#191970" stroke="#191970" points="186.6743,-29.4932 183.085,-19.5249 179.6746,-29.5558 186.6743,-29.4932"/>
</g>
<!-- Node7 -->
<g id="node8" class="node">
<title>Node7</title>
<g id="a_node8"><a xlink:title=" ">
<polygon fill="#ffffff" stroke="#bfbfbf" points="212,-56.5 212,-75.5 260,-75.5 260,-56.5 212,-56.5"/>
<text text-anchor="middle" x="236" y="-63.5" font-family="Helvetica,sans-Serif" font-size="10.00" fill="#000000">stdlib.h</text>
</a>
</g>
</g>
<!-- Node6&#45;&gt;Node7 -->
<g id="edge9" class="edge">
<title>Node6&#45;&gt;Node7</title>
<path fill="none" stroke="#191970" d="M193.0577,-112.2455C200.5142,-104.2155 211.2634,-92.6394 220.1417,-83.0781"/>
<polygon fill="#191970" stroke="#191970" points="222.8063,-85.3522 227.0461,-75.6427 217.6768,-80.589 222.8063,-85.3522"/>
</g>
<!-- Node8&#45;&gt;Node5 -->
<g id="edge11" class="edge">
<title>Node8&#45;&gt;Node5</title>
<path fill="none" stroke="#191970" d="M211.2518,-224.2455C206.7565,-216.617 200.3752,-205.7881 194.9175,-196.5267"/>
<polygon fill="#191970" stroke="#191970" points="197.7747,-194.4811 189.6823,-187.6427 191.7439,-198.035 197.7747,-194.4811"/>
</g>
</g>
</svg>
