<?xml version="1.0" encoding="UTF-8" standalone="no"?>
<!DOCTYPE svg PUBLIC "-//W3C//DTD SVG 1.1//EN"
 "http://www.w3.org/Graphics/SVG/1.1/DTD/svg11.dtd">
<!-- Generated by graphviz version 2.40.1 (20161225.0304)
 -->
<!-- Title: helios_float_equal Pages: 1 -->
<svg width="800pt" height="97pt"
 viewBox="0.00 0.00 800.00 96.50" xmlns="http://www.w3.org/2000/svg" xmlns:xlink="http://www.w3.org/1999/xlink">
<g id="graph0" class="graph" transform="scale(1 1) rotate(0) translate(4 92.5)">
<title>helios_float_equal</title>
<polygon fill="#ffffff" stroke="transparent" points="-4,4 -4,-92.5 796,-92.5 796,4 -4,4"/>
<!-- Node1 -->
<g id="node1" class="node">
<title>Node1</title>
<g id="a_node1"><a xlink:title=" ">
<polygon fill="#bfbfbf" stroke="#000000" points="0,-41.5 0,-60.5 105,-60.5 105,-41.5 0,-41.5"/>
<text text-anchor="middle" x="52.5" y="-48.5" font-family="Helvetica,sans-Serif" font-size="10.00" fill="#000000">helios_float_equal</text>
</a>
</g>
</g>
<!-- Node2 -->
<g id="node2" class="node">
<title>Node2</title>
<g id="a_node2"><a xlink:href="helios__boolean_8c.html#a50e186696d4b9f2e8efdcddc17ab5ce5" target="_top" xlink:title="Create a helios_boolean object from a c boolean type.">
<polygon fill="#ffffff" stroke="#000000" points="146.5,-58 146.5,-88 265.5,-88 265.5,-58 146.5,-58"/>
<text text-anchor="start" x="154.5" y="-76" font-family="Helvetica,sans-Serif" font-size="10.00" fill="#000000">helios_boolean_from</text>
<text text-anchor="middle" x="206" y="-65" font-family="Helvetica,sans-Serif" font-size="10.00" fill="#000000">_cbool</text>
</a>
</g>
</g>
<!-- Node1&#45;&gt;Node2 -->
<g id="edge1" class="edge">
<title>Node1&#45;&gt;Node2</title>
<path fill="none" stroke="#191970" d="M105.326,-58.5712C115.3811,-60.0123 126.0449,-61.5406 136.5261,-63.0428"/>
<polygon fill="#191970" stroke="#191970" points="136.0978,-66.5171 146.4933,-64.4713 137.091,-59.5879 136.0978,-66.5171"/>
</g>
<!-- Node4 -->
<g id="node4" class="node">
<title>Node4</title>
<g id="a_node4"><a xlink:href="helios__boolean_8c.html#a856733e7e090437084fcf595bd4e3b8f" target="_top" xlink:title="Convert a boolean to an integer.">
<polygon fill="#ffffff" stroke="#000000" points="141,-19.5 141,-38.5 271,-38.5 271,-19.5 141,-19.5"/>
<text text-anchor="middle" x="206" y="-26.5" font-family="Helvetica,sans-Serif" font-size="10.00" fill="#000000">helios_boolean_integer</text>
</a>
</g>
</g>
<!-- Node1&#45;&gt;Node4 -->
<g id="edge3" class="edge">
<title>Node1&#45;&gt;Node4</title>
<path fill="none" stroke="#191970" d="M105.326,-43.4288C113.5538,-42.2496 122.1892,-41.012 130.7986,-39.778"/>
<polygon fill="#191970" stroke="#191970" points="131.4651,-43.2184 140.8674,-38.335 130.472,-36.2892 131.4651,-43.2184"/>
</g>
<!-- Node3 -->
<g id="node3" class="node">
<title>Node3</title>
<g id="a_node3"><a xlink:href="helios__boolean_8c.html#ab172c15c28782b45e824c42601484606" target="_top" xlink:title="Create a helios_boolean object from a c integer type.">
<polygon fill="#ffffff" stroke="#000000" points="307,-63.5 307,-82.5 449,-82.5 449,-63.5 307,-63.5"/>
<text text-anchor="middle" x="378" y="-70.5" font-family="Helvetica,sans-Serif" font-size="10.00" fill="#000000">helios_boolean_from_cint</text>
</a>
</g>
</g>
<!-- Node2&#45;&gt;Node3 -->
<g id="edge2" class="edge">
<title>Node2&#45;&gt;Node3</title>
<path fill="none" stroke="#191970" d="M265.6745,-73C275.7479,-73 286.3545,-73 296.864,-73"/>
<polygon fill="#191970" stroke="#191970" points="296.8898,-76.5001 306.8897,-73 296.8897,-69.5001 296.8898,-76.5001"/>
</g>
<!-- Node5 -->
<g id="node5" class="node">
<title>Node5</title>
<g id="a_node5"><a xlink:href="helios__integer_8c.html#af677316afd6536844aeb027f14c198cf" target="_top" xlink:title="Create a helios_integer object from a c integer type.">
<polygon fill="#ffffff" stroke="#000000" points="309.5,-19.5 309.5,-38.5 446.5,-38.5 446.5,-19.5 309.5,-19.5"/>
<text text-anchor="middle" x="378" y="-26.5" font-family="Helvetica,sans-Serif" font-size="10.00" fill="#000000">helios_integer_from_cint</text>
</a>
</g>
</g>
<!-- Node4&#45;&gt;Node5 -->
<g id="edge4" class="edge">
<title>Node4&#45;&gt;Node5</title>
<path fill="none" stroke="#191970" d="M271.0258,-29C280.2476,-29 289.8121,-29 299.259,-29"/>
<polygon fill="#191970" stroke="#191970" points="299.4419,-32.5001 309.4418,-29 299.4418,-25.5001 299.4419,-32.5001"/>
</g>
<!-- Node6 -->
<g id="node6" class="node">
<title>Node6</title>
<g id="a_node6"><a xlink:href="helios__integer_8c.html#a50a26b1e9578164839f3a5bb17e04051" target="_top" xlink:title="Constructor of a helios_integer object.">
<polygon fill="#ffffff" stroke="#000000" points="485,-19.5 485,-38.5 592,-38.5 592,-19.5 485,-19.5"/>
<text text-anchor="middle" x="538.5" y="-26.5" font-family="Helvetica,sans-Serif" font-size="10.00" fill="#000000">helios_integer_init</text>
</a>
</g>
</g>
<!-- Node5&#45;&gt;Node6 -->
<g id="edge5" class="edge">
<title>Node5&#45;&gt;Node6</title>
<path fill="none" stroke="#191970" d="M446.532,-29C455.8177,-29 465.3173,-29 474.519,-29"/>
<polygon fill="#191970" stroke="#191970" points="474.7542,-32.5001 484.7542,-29 474.7541,-25.5001 474.7542,-32.5001"/>
</g>
<!-- Node7 -->
<g id="node7" class="node">
<title>Node7</title>
<g id="a_node7"><a xlink:href="helios__memory_8h.html#af87f0050f8e236d0945592fa4e54dc94" target="_top" xlink:title="Allocates a new helios object (and performs all the GC steps associated with that action).">
<polygon fill="#ffffff" stroke="#000000" points="647.5,-38.5 647.5,-57.5 772.5,-57.5 772.5,-38.5 647.5,-38.5"/>
<text text-anchor="middle" x="710" y="-45.5" font-family="Helvetica,sans-Serif" font-size="10.00" fill="#000000">helios_allocate_object</text>
</a>
</g>
</g>
<!-- Node6&#45;&gt;Node7 -->
<g id="edge6" class="edge">
<title>Node6&#45;&gt;Node7</title>
<path fill="none" stroke="#191970" d="M592.2931,-34.9596C606.5001,-36.5335 622.0727,-38.2588 637.106,-39.9243"/>
<polygon fill="#191970" stroke="#191970" points="637.0794,-43.4427 647.404,-41.0652 637.8503,-36.4852 637.0794,-43.4427"/>
</g>
<!-- Node8 -->
<g id="node8" class="node">
<title>Node8</title>
<g id="a_node8"><a xlink:href="helios__memory_8h.html#ab14fb1c046aae61ab06eda8eeaf2cd85" target="_top" xlink:title=" ">
<polygon fill="#ffffff" stroke="#000000" points="628,-.5 628,-19.5 792,-19.5 792,-.5 628,-.5"/>
<text text-anchor="middle" x="710" y="-7.5" font-family="Helvetica,sans-Serif" font-size="10.00" fill="#000000">helios_set_garbagecollectable</text>
</a>
</g>
</g>
<!-- Node6&#45;&gt;Node8 -->
<g id="edge7" class="edge">
<title>Node6&#45;&gt;Node8</title>
<path fill="none" stroke="#191970" d="M592.2931,-23.0404C600.4127,-22.1409 608.9784,-21.1919 617.6345,-20.2329"/>
<polygon fill="#191970" stroke="#191970" points="618.2625,-23.6848 627.8162,-19.1049 617.4916,-16.7274 618.2625,-23.6848"/>
</g>
</g>
</svg>
