<?xml version="1.0" encoding="UTF-8" standalone="no"?>
<!DOCTYPE svg PUBLIC "-//W3C//DTD SVG 1.1//EN"
 "http://www.w3.org/Graphics/SVG/1.1/DTD/svg11.dtd">
<!-- Generated by graphviz version 2.40.1 (20161225.0304)
 -->
<!-- Title: helios_integer_greater Pages: 1 -->
<svg width="983pt" height="112pt"
 viewBox="0.00 0.00 983.00 111.50" xmlns="http://www.w3.org/2000/svg" xmlns:xlink="http://www.w3.org/1999/xlink">
<g id="graph0" class="graph" transform="scale(1 1) rotate(0) translate(4 107.5)">
<title>helios_integer_greater</title>
<polygon fill="#ffffff" stroke="transparent" points="-4,4 -4,-107.5 979,-107.5 979,4 -4,4"/>
<!-- Node22 -->
<g id="node1" class="node">
<title>Node22</title>
<g id="a_node1"><a xlink:title=" ">
<polygon fill="#bfbfbf" stroke="#000000" points="0,-38.5 0,-57.5 126,-57.5 126,-38.5 0,-38.5"/>
<text text-anchor="middle" x="63" y="-45.5" font-family="Helvetica,sans-Serif" font-size="10.00" fill="#000000">helios_integer_greater</text>
</a>
</g>
</g>
<!-- Node23 -->
<g id="node2" class="node">
<title>Node23</title>
<g id="a_node2"><a xlink:href="helios__boolean_8c.html#a50e186696d4b9f2e8efdcddc17ab5ce5" target="_top" xlink:title="Create a helios_boolean object from a c boolean type.">
<polygon fill="#ffffff" stroke="#000000" points="329.5,-73 329.5,-103 448.5,-103 448.5,-73 329.5,-73"/>
<text text-anchor="start" x="337.5" y="-91" font-family="Helvetica,sans-Serif" font-size="10.00" fill="#000000">helios_boolean_from</text>
<text text-anchor="middle" x="389" y="-80" font-family="Helvetica,sans-Serif" font-size="10.00" fill="#000000">_cbool</text>
</a>
</g>
</g>
<!-- Node22&#45;&gt;Node23 -->
<g id="edge1" class="edge">
<title>Node22&#45;&gt;Node23</title>
<path fill="none" stroke="#191970" d="M82.5189,-57.5939C102.0804,-66.6506 133.3258,-79.6209 162,-85 214.0398,-94.7624 273.9732,-95.105 319.1849,-93.2258"/>
<polygon fill="#191970" stroke="#191970" points="319.3527,-96.7219 329.1806,-92.7644 319.0298,-89.7293 319.3527,-96.7219"/>
</g>
<!-- Node25 -->
<g id="node4" class="node">
<title>Node25</title>
<g id="a_node4"><a xlink:href="helios__integer__compare_8c.html#af1a63202644551627182d41ba5c511a4" target="_top" xlink:title=" ">
<polygon fill="#ffffff" stroke="#000000" points="162,-38.5 162,-57.5 288,-57.5 288,-38.5 162,-38.5"/>
<text text-anchor="middle" x="225" y="-45.5" font-family="Helvetica,sans-Serif" font-size="10.00" fill="#000000">helios_integer_greater</text>
</a>
</g>
</g>
<!-- Node22&#45;&gt;Node25 -->
<g id="edge3" class="edge">
<title>Node22&#45;&gt;Node25</title>
<path fill="none" stroke="#191970" d="M126.0973,-48C134.4345,-48 143.0381,-48 151.5304,-48"/>
<polygon fill="#191970" stroke="#191970" points="151.8084,-51.5001 161.8084,-48 151.8084,-44.5001 151.8084,-51.5001"/>
</g>
<!-- Node26 -->
<g id="node5" class="node">
<title>Node26</title>
<g id="a_node5"><a xlink:href="helios__boolean_8c.html#a856733e7e090437084fcf595bd4e3b8f" target="_top" xlink:title="Convert a boolean to an integer.">
<polygon fill="#ffffff" stroke="#000000" points="324,-19.5 324,-38.5 454,-38.5 454,-19.5 324,-19.5"/>
<text text-anchor="middle" x="389" y="-26.5" font-family="Helvetica,sans-Serif" font-size="10.00" fill="#000000">helios_boolean_integer</text>
</a>
</g>
</g>
<!-- Node22&#45;&gt;Node26 -->
<g id="edge11" class="edge">
<title>Node22&#45;&gt;Node26</title>
<path fill="none" stroke="#191970" d="M103.2105,-38.4894C121.0983,-34.7242 142.4867,-30.8556 162,-29 212.4106,-24.2064 269.4036,-24.2248 313.6717,-25.4323"/>
<polygon fill="#191970" stroke="#191970" points="313.6755,-28.9339 323.7757,-25.7344 313.8848,-21.937 313.6755,-28.9339"/>
</g>
<!-- Node24 -->
<g id="node3" class="node">
<title>Node24</title>
<g id="a_node3"><a xlink:href="helios__boolean_8c.html#ab172c15c28782b45e824c42601484606" target="_top" xlink:title="Create a helios_boolean object from a c integer type.">
<polygon fill="#ffffff" stroke="#000000" points="490,-78.5 490,-97.5 632,-97.5 632,-78.5 490,-78.5"/>
<text text-anchor="middle" x="561" y="-85.5" font-family="Helvetica,sans-Serif" font-size="10.00" fill="#000000">helios_boolean_from_cint</text>
</a>
</g>
</g>
<!-- Node23&#45;&gt;Node24 -->
<g id="edge2" class="edge">
<title>Node23&#45;&gt;Node24</title>
<path fill="none" stroke="#191970" d="M448.6745,-88C458.7479,-88 469.3545,-88 479.864,-88"/>
<polygon fill="#191970" stroke="#191970" points="479.8898,-91.5001 489.8897,-88 479.8897,-84.5001 479.8898,-91.5001"/>
</g>
<!-- Node25&#45;&gt;Node23 -->
<g id="edge4" class="edge">
<title>Node25&#45;&gt;Node23</title>
<path fill="none" stroke="#191970" d="M264.2821,-57.581C280.8247,-61.6158 300.5853,-66.4354 319.4465,-71.0357"/>
<polygon fill="#191970" stroke="#191970" points="318.6613,-74.4468 329.2059,-73.4161 320.32,-67.6461 318.6613,-74.4468"/>
</g>
<!-- Node25&#45;&gt;Node25 -->
<g id="edge5" class="edge">
<title>Node25&#45;&gt;Node25</title>
<path fill="none" stroke="#191970" d="M200.0311,-57.7571C187.8841,-66.5653 196.207,-76 225,-76 244.3453,-76 254.4501,-71.741 255.3144,-66.2746"/>
<polygon fill="#191970" stroke="#191970" points="258.2492,-64.3667 249.9689,-57.7571 252.3201,-68.0877 258.2492,-64.3667"/>
</g>
<!-- Node25&#45;&gt;Node26 -->
<g id="edge6" class="edge">
<title>Node25&#45;&gt;Node26</title>
<path fill="none" stroke="#191970" d="M288.4067,-40.6541C296.764,-39.6859 305.3933,-38.6861 313.922,-37.6981"/>
<polygon fill="#191970" stroke="#191970" points="314.3347,-41.1738 323.8654,-36.5461 313.529,-34.2203 314.3347,-41.1738"/>
</g>
<!-- Node27 -->
<g id="node6" class="node">
<title>Node27</title>
<g id="a_node6"><a xlink:href="helios__integer_8c.html#af677316afd6536844aeb027f14c198cf" target="_top" xlink:title="Create a helios_integer object from a c integer type.">
<polygon fill="#ffffff" stroke="#000000" points="492.5,-19.5 492.5,-38.5 629.5,-38.5 629.5,-19.5 492.5,-19.5"/>
<text text-anchor="middle" x="561" y="-26.5" font-family="Helvetica,sans-Serif" font-size="10.00" fill="#000000">helios_integer_from_cint</text>
</a>
</g>
</g>
<!-- Node26&#45;&gt;Node27 -->
<g id="edge7" class="edge">
<title>Node26&#45;&gt;Node27</title>
<path fill="none" stroke="#191970" d="M454.0258,-29C463.2476,-29 472.8121,-29 482.259,-29"/>
<polygon fill="#191970" stroke="#191970" points="482.4419,-32.5001 492.4418,-29 482.4418,-25.5001 482.4419,-32.5001"/>
</g>
<!-- Node28 -->
<g id="node7" class="node">
<title>Node28</title>
<g id="a_node7"><a xlink:href="helios__integer_8c.html#a50a26b1e9578164839f3a5bb17e04051" target="_top" xlink:title="Constructor of a helios_integer object.">
<polygon fill="#ffffff" stroke="#000000" points="668,-19.5 668,-38.5 775,-38.5 775,-19.5 668,-19.5"/>
<text text-anchor="middle" x="721.5" y="-26.5" font-family="Helvetica,sans-Serif" font-size="10.00" fill="#000000">helios_integer_init</text>
</a>
</g>
</g>
<!-- Node27&#45;&gt;Node28 -->
<g id="edge8" class="edge">
<title>Node27&#45;&gt;Node28</title>
<path fill="none" stroke="#191970" d="M629.532,-29C638.8177,-29 648.3173,-29 657.519,-29"/>
<polygon fill="#191970" stroke="#191970" points="657.7542,-32.5001 667.7542,-29 657.7541,-25.5001 657.7542,-32.5001"/>
</g>
<!-- Node29 -->
<g id="node8" class="node">
<title>Node29</title>
<g id="a_node8"><a xlink:href="helios__memory_8h.html#af87f0050f8e236d0945592fa4e54dc94" target="_top" xlink:title="Allocates a new helios object (and performs all the GC steps associated with that action).">
<polygon fill="#ffffff" stroke="#000000" points="830.5,-38.5 830.5,-57.5 955.5,-57.5 955.5,-38.5 830.5,-38.5"/>
<text text-anchor="middle" x="893" y="-45.5" font-family="Helvetica,sans-Serif" font-size="10.00" fill="#000000">helios_allocate_object</text>
</a>
</g>
</g>
<!-- Node28&#45;&gt;Node29 -->
<g id="edge9" class="edge">
<title>Node28&#45;&gt;Node29</title>
<path fill="none" stroke="#191970" d="M775.2931,-34.9596C789.5001,-36.5335 805.0727,-38.2588 820.106,-39.9243"/>
<polygon fill="#191970" stroke="#191970" points="820.0794,-43.4427 830.404,-41.0652 820.8503,-36.4852 820.0794,-43.4427"/>
</g>
<!-- Node30 -->
<g id="node9" class="node">
<title>Node30</title>
<g id="a_node9"><a xlink:href="helios__memory_8h.html#ab14fb1c046aae61ab06eda8eeaf2cd85" target="_top" xlink:title=" ">
<polygon fill="#ffffff" stroke="#000000" points="811,-.5 811,-19.5 975,-19.5 975,-.5 811,-.5"/>
<text text-anchor="middle" x="893" y="-7.5" font-family="Helvetica,sans-Serif" font-size="10.00" fill="#000000">helios_set_garbagecollectable</text>
</a>
</g>
</g>
<!-- Node28&#45;&gt;Node30 -->
<g id="edge10" class="edge">
<title>Node28&#45;&gt;Node30</title>
<path fill="none" stroke="#191970" d="M775.2931,-23.0404C783.4127,-22.1409 791.9784,-21.1919 800.6345,-20.2329"/>
<polygon fill="#191970" stroke="#191970" points="801.2625,-23.6848 810.8162,-19.1049 800.4916,-16.7274 801.2625,-23.6848"/>
</g>
</g>
</svg>
