<?xml version="1.0" encoding="UTF-8" standalone="no"?>
<!DOCTYPE svg PUBLIC "-//W3C//DTD SVG 1.1//EN"
 "http://www.w3.org/Graphics/SVG/1.1/DTD/svg11.dtd">
<!-- Generated by graphviz version 2.40.1 (20161225.0304)
 -->
<!-- Title: helios_float_tostring Pages: 1 -->
<svg width="552pt" height="66pt"
 viewBox="0.00 0.00 552.00 66.00" xmlns="http://www.w3.org/2000/svg" xmlns:xlink="http://www.w3.org/1999/xlink">
<g id="graph0" class="graph" transform="scale(1 1) rotate(0) translate(4 62)">
<title>helios_float_tostring</title>
<polygon fill="#ffffff" stroke="transparent" points="-4,4 -4,-62 548,-62 548,4 -4,4"/>
<!-- Node19 -->
<g id="node1" class="node">
<title>Node19</title>
<g id="a_node1"><a xlink:title="Create a helios_string object which represents the helios_float object&#39;s value.">
<polygon fill="#bfbfbf" stroke="#000000" points="0,-19.5 0,-38.5 104,-38.5 104,-19.5 0,-19.5"/>
<text text-anchor="middle" x="52" y="-26.5" font-family="Helvetica,sans-Serif" font-size="10.00" fill="#000000">helios_float_tostring</text>
</a>
</g>
</g>
<!-- Node20 -->
<g id="node2" class="node">
<title>Node20</title>
<g id="a_node2"><a xlink:href="helios__string_8c.html#a4338910535421a24735fc7eb3123495c" target="_top" xlink:title="Create a helios_string object from a c string.">
<polygon fill="#ffffff" stroke="#000000" points="140,-14 140,-44 236,-44 236,-14 140,-14"/>
<text text-anchor="start" x="148" y="-32" font-family="Helvetica,sans-Serif" font-size="10.00" fill="#000000">helios_string_from</text>
<text text-anchor="middle" x="188" y="-21" font-family="Helvetica,sans-Serif" font-size="10.00" fill="#000000">_charp</text>
</a>
</g>
</g>
<!-- Node19&#45;&gt;Node20 -->
<g id="edge1" class="edge">
<title>Node19&#45;&gt;Node20</title>
<path fill="none" stroke="#191970" d="M104.1922,-29C112.4999,-29 121.1409,-29 129.581,-29"/>
<polygon fill="#191970" stroke="#191970" points="129.7404,-32.5001 139.7404,-29 129.7404,-25.5001 129.7404,-32.5001"/>
</g>
<!-- Node21 -->
<g id="node3" class="node">
<title>Node21</title>
<g id="a_node3"><a xlink:href="helios__string_8c.html#af727ca5352482ab7e542510f178a9f85" target="_top" xlink:title="Constructor of a helios_string.">
<polygon fill="#ffffff" stroke="#000000" points="272,-19.5 272,-38.5 361,-38.5 361,-19.5 272,-19.5"/>
<text text-anchor="middle" x="316.5" y="-26.5" font-family="Helvetica,sans-Serif" font-size="10.00" fill="#000000">helios_string_init</text>
</a>
</g>
</g>
<!-- Node20&#45;&gt;Node21 -->
<g id="edge2" class="edge">
<title>Node20&#45;&gt;Node21</title>
<path fill="none" stroke="#191970" d="M236.2143,-29C244.5175,-29 253.2026,-29 261.6649,-29"/>
<polygon fill="#191970" stroke="#191970" points="261.8359,-32.5001 271.8359,-29 261.8359,-25.5001 261.8359,-32.5001"/>
</g>
<!-- Node22 -->
<g id="node4" class="node">
<title>Node22</title>
<g id="a_node4"><a xlink:href="helios__memory_8h.html#af87f0050f8e236d0945592fa4e54dc94" target="_top" xlink:title="Allocates a new helios object (and performs all the GC steps associated with that action).">
<polygon fill="#ffffff" stroke="#000000" points="414,-38.5 414,-57.5 527,-57.5 527,-38.5 414,-38.5"/>
<text text-anchor="middle" x="470.5" y="-45.5" font-family="Helvetica,sans-Serif" font-size="10.00" fill="#000000">helios_allocate_object</text>
</a>
</g>
</g>
<!-- Node21&#45;&gt;Node22 -->
<g id="edge3" class="edge">
<title>Node21&#45;&gt;Node22</title>
<path fill="none" stroke="#191970" d="M361.0432,-34.4956C374.4679,-36.1519 389.5038,-38.007 404.0302,-39.7992"/>
<polygon fill="#191970" stroke="#191970" points="403.626,-43.2758 413.9794,-41.0267 404.4832,-36.3284 403.626,-43.2758"/>
</g>
<!-- Node23 -->
<g id="node5" class="node">
<title>Node23</title>
<g id="a_node5"><a xlink:href="helios__memory_8h.html#ab14fb1c046aae61ab06eda8eeaf2cd85" target="_top" xlink:title=" ">
<polygon fill="#ffffff" stroke="#000000" points="397,-.5 397,-19.5 544,-19.5 544,-.5 397,-.5"/>
<text text-anchor="middle" x="470.5" y="-7.5" font-family="Helvetica,sans-Serif" font-size="10.00" fill="#000000">helios_set_garbagecollectable</text>
</a>
</g>
</g>
<!-- Node21&#45;&gt;Node23 -->
<g id="edge4" class="edge">
<title>Node21&#45;&gt;Node23</title>
<path fill="none" stroke="#191970" d="M361.0432,-23.5044C369.1755,-22.5011 377.899,-21.4248 386.7423,-20.3337"/>
<polygon fill="#191970" stroke="#191970" points="387.2564,-23.7969 396.7525,-19.0987 386.3992,-16.8496 387.2564,-23.7969"/>
</g>
</g>
</svg>
