<?xml version="1.0" encoding="UTF-8" standalone="no"?>
<!DOCTYPE svg PUBLIC "-//W3C//DTD SVG 1.1//EN"
 "http://www.w3.org/Graphics/SVG/1.1/DTD/svg11.dtd">
<!-- Generated by graphviz version 2.40.1 (20161225.0304)
 -->
<!-- Title: builtins/boolean/include/helios_boolean.h Pages: 1 -->
<svg width="288pt" height="263pt"
 viewBox="0.00 0.00 287.50 263.00" xmlns="http://www.w3.org/2000/svg" xmlns:xlink="http://www.w3.org/1999/xlink">
<g id="graph0" class="graph" transform="scale(1 1) rotate(0) translate(4 259)">
<title>builtins/boolean/include/helios_boolean.h</title>
<polygon fill="#ffffff" stroke="transparent" points="-4,4 -4,-259 283.5,-259 283.5,4 -4,4"/>
<!-- Node0 -->
<g id="node1" class="node">
<title>Node0</title>
<g id="a_node1"><a xlink:title=" ">
<polygon fill="#bfbfbf" stroke="#000000" points="110.5,-224.5 110.5,-254.5 228.5,-254.5 228.5,-224.5 110.5,-224.5"/>
<text text-anchor="start" x="118.5" y="-242.5" font-family="Helvetica,sans-Serif" font-size="10.00" fill="#000000">builtins/boolean/include</text>
<text text-anchor="middle" x="169.5" y="-231.5" font-family="Helvetica,sans-Serif" font-size="10.00" fill="#000000">/helios_boolean.h</text>
</a>
</g>
</g>
<!-- Node1 -->
<g id="node2" class="node">
<title>Node1</title>
<g id="a_node2"><a xlink:href="helios__object_8h.html" target="_top" xlink:title=" ">
<polygon fill="#ffffff" stroke="#000000" points="94.5,-168.5 94.5,-187.5 176.5,-187.5 176.5,-168.5 94.5,-168.5"/>
<text text-anchor="middle" x="135.5" y="-175.5" font-family="Helvetica,sans-Serif" font-size="10.00" fill="#000000">helios_object.h</text>
</a>
</g>
</g>
<!-- Node0&#45;&gt;Node1 -->
<g id="edge1" class="edge">
<title>Node0&#45;&gt;Node1</title>
<path fill="none" stroke="#191970" d="M161.0955,-224.2977C156.4743,-215.9388 150.7031,-205.4997 145.8111,-196.6509"/>
<polygon fill="#191970" stroke="#191970" points="148.8452,-194.9051 140.9438,-187.8469 142.7191,-198.292 148.8452,-194.9051"/>
</g>
<!-- Node5 -->
<g id="node6" class="node">
<title>Node5</title>
<g id="a_node6"><a xlink:title=" ">
<polygon fill="#ffffff" stroke="#bfbfbf" points="223.5,-.5 223.5,-19.5 279.5,-19.5 279.5,-.5 223.5,-.5"/>
<text text-anchor="middle" x="251.5" y="-7.5" font-family="Helvetica,sans-Serif" font-size="10.00" fill="#000000">stdbool.h</text>
</a>
</g>
</g>
<!-- Node0&#45;&gt;Node5 -->
<g id="edge10" class="edge">
<title>Node0&#45;&gt;Node5</title>
<path fill="none" stroke="#191970" d="M175.0875,-224.192C185.629,-195.2724 209.1331,-130.6072 228.5,-76 234.0136,-60.4539 240.1569,-42.8081 244.7065,-29.676"/>
<polygon fill="#191970" stroke="#191970" points="248.1434,-30.4466 248.1046,-19.8518 241.528,-28.1584 248.1434,-30.4466"/>
</g>
<!-- Node2 -->
<g id="node3" class="node">
<title>Node2</title>
<g id="a_node3"><a xlink:href="helios__type_8h.html" target="_top" xlink:title=" ">
<polygon fill="#ffffff" stroke="#000000" points="73.5,-112.5 73.5,-131.5 147.5,-131.5 147.5,-112.5 73.5,-112.5"/>
<text text-anchor="middle" x="110.5" y="-119.5" font-family="Helvetica,sans-Serif" font-size="10.00" fill="#000000">helios_type.h</text>
</a>
</g>
</g>
<!-- Node1&#45;&gt;Node2 -->
<g id="edge2" class="edge">
<title>Node1&#45;&gt;Node2</title>
<path fill="none" stroke="#191970" d="M131.1453,-168.2455C127.7756,-160.6973 123.007,-150.0158 118.9017,-140.8197"/>
<polygon fill="#191970" stroke="#191970" points="122.0773,-139.3473 114.8048,-131.6427 115.6853,-142.2009 122.0773,-139.3473"/>
</g>
<!-- Node3 -->
<g id="node4" class="node">
<title>Node3</title>
<g id="a_node4"><a xlink:href="helios__memory_8h.html" target="_top" xlink:title=" ">
<polygon fill="#ffffff" stroke="#000000" points="129.5,-56.5 129.5,-75.5 219.5,-75.5 219.5,-56.5 129.5,-56.5"/>
<text text-anchor="middle" x="174.5" y="-63.5" font-family="Helvetica,sans-Serif" font-size="10.00" fill="#000000">helios_memory.h</text>
</a>
</g>
</g>
<!-- Node2&#45;&gt;Node3 -->
<g id="edge3" class="edge">
<title>Node2&#45;&gt;Node3</title>
<path fill="none" stroke="#191970" d="M121.6479,-112.2455C131.0087,-104.0549 144.5858,-92.1749 155.6349,-82.5069"/>
<polygon fill="#191970" stroke="#191970" points="158.2588,-84.8618 163.4798,-75.6427 153.6492,-79.5937 158.2588,-84.8618"/>
</g>
<!-- Node7 -->
<g id="node8" class="node">
<title>Node7</title>
<g id="a_node8"><a xlink:title=" ">
<polygon fill="#ffffff" stroke="#bfbfbf" points="0,-.5 0,-19.5 49,-19.5 49,-.5 0,-.5"/>
<text text-anchor="middle" x="24.5" y="-7.5" font-family="Helvetica,sans-Serif" font-size="10.00" fill="#000000">stdint.h</text>
</a>
</g>
</g>
<!-- Node2&#45;&gt;Node7 -->
<g id="edge8" class="edge">
<title>Node2&#45;&gt;Node7</title>
<path fill="none" stroke="#191970" d="M95.0646,-112.2323C82.786,-103.8356 65.8413,-90.7687 54.5,-76 43.6263,-61.8402 35.5923,-43.1096 30.5894,-29.2203"/>
<polygon fill="#191970" stroke="#191970" points="33.8861,-28.0433 27.3577,-19.6988 27.2575,-30.2931 33.8861,-28.0433"/>
</g>
<!-- Node8 -->
<g id="node9" class="node">
<title>Node8</title>
<g id="a_node9"><a xlink:title=" ">
<polygon fill="#ffffff" stroke="#bfbfbf" points="63.5,-56.5 63.5,-75.5 111.5,-75.5 111.5,-56.5 63.5,-56.5"/>
<text text-anchor="middle" x="87.5" y="-63.5" font-family="Helvetica,sans-Serif" font-size="10.00" fill="#000000">stdlib.h</text>
</a>
</g>
</g>
<!-- Node2&#45;&gt;Node8 -->
<g id="edge9" class="edge">
<title>Node2&#45;&gt;Node8</title>
<path fill="none" stroke="#191970" d="M106.4937,-112.2455C103.4265,-104.7776 99.0997,-94.2427 95.3503,-85.1137"/>
<polygon fill="#191970" stroke="#191970" points="98.4972,-83.5631 91.4604,-75.6427 92.0221,-86.2226 98.4972,-83.5631"/>
</g>
<!-- Node4 -->
<g id="node5" class="node">
<title>Node4</title>
<g id="a_node5"><a xlink:href="builtinutils_8h.html" target="_top" xlink:title=" ">
<polygon fill="#ffffff" stroke="#000000" points="67.5,-.5 67.5,-19.5 135.5,-19.5 135.5,-.5 67.5,-.5"/>
<text text-anchor="middle" x="101.5" y="-7.5" font-family="Helvetica,sans-Serif" font-size="10.00" fill="#000000">builtinutils.h</text>
</a>
</g>
</g>
<!-- Node3&#45;&gt;Node4 -->
<g id="edge4" class="edge">
<title>Node3&#45;&gt;Node4</title>
<path fill="none" stroke="#191970" d="M161.7844,-56.2455C150.898,-47.8943 135.0117,-35.7076 122.28,-25.9408"/>
<polygon fill="#191970" stroke="#191970" points="124.1346,-22.9523 114.0699,-19.6427 119.8739,-28.5063 124.1346,-22.9523"/>
</g>
<!-- Node3&#45;&gt;Node5 -->
<g id="edge5" class="edge">
<title>Node3&#45;&gt;Node5</title>
<path fill="none" stroke="#191970" d="M187.9124,-56.2455C199.5057,-47.814 216.4748,-35.4729 229.9678,-25.6598"/>
<polygon fill="#191970" stroke="#191970" points="232.2126,-28.355 238.2413,-19.6427 228.0953,-22.6938 232.2126,-28.355"/>
</g>
<!-- Node6 -->
<g id="node7" class="node">
<title>Node6</title>
<g id="a_node7"><a xlink:title=" ">
<polygon fill="#ffffff" stroke="#bfbfbf" points="153.5,-.5 153.5,-19.5 205.5,-19.5 205.5,-.5 153.5,-.5"/>
<text text-anchor="middle" x="179.5" y="-7.5" font-family="Helvetica,sans-Serif" font-size="10.00" fill="#000000">stddef.h</text>
</a>
</g>
</g>
<!-- Node3&#45;&gt;Node6 -->
<g id="edge6" class="edge">
<title>Node3&#45;&gt;Node6</title>
<path fill="none" stroke="#191970" d="M175.3709,-56.2455C176.0234,-48.9382 176.938,-38.6944 177.7407,-29.7046"/>
<polygon fill="#191970" stroke="#191970" points="181.2358,-29.9143 178.639,-19.6427 174.2635,-29.2918 181.2358,-29.9143"/>
</g>
<!-- Node3&#45;&gt;Node7 -->
<g id="edge7" class="edge">
<title>Node3&#45;&gt;Node7</title>
<path fill="none" stroke="#191970" d="M148.7141,-56.3733C123.9461,-47.1265 86.3576,-33.0935 59.0173,-22.8865"/>
<polygon fill="#191970" stroke="#191970" points="60.0436,-19.5337 49.451,-19.315 57.5953,-26.0916 60.0436,-19.5337"/>
</g>
</g>
</svg>
