<?xml version="1.0" encoding="UTF-8" standalone="no"?>
<!DOCTYPE svg PUBLIC "-//W3C//DTD SVG 1.1//EN"
 "http://www.w3.org/Graphics/SVG/1.1/DTD/svg11.dtd">
<!-- Generated by graphviz version 2.40.1 (20161225.0304)
 -->
<!-- Title: helios_float_less Pages: 1 -->
<svg width="793pt" height="97pt"
 viewBox="0.00 0.00 793.00 96.50" xmlns="http://www.w3.org/2000/svg" xmlns:xlink="http://www.w3.org/1999/xlink">
<g id="graph0" class="graph" transform="scale(1 1) rotate(0) translate(4 92.5)">
<title>helios_float_less</title>
<polygon fill="#ffffff" stroke="transparent" points="-4,4 -4,-92.5 789,-92.5 789,4 -4,4"/>
<!-- Node50 -->
<g id="node1" class="node">
<title>Node50</title>
<g id="a_node1"><a xlink:title=" ">
<polygon fill="#bfbfbf" stroke="#000000" points="0,-41.5 0,-60.5 98,-60.5 98,-41.5 0,-41.5"/>
<text text-anchor="middle" x="49" y="-48.5" font-family="Helvetica,sans-Serif" font-size="10.00" fill="#000000">helios_float_less</text>
</a>
</g>
</g>
<!-- Node51 -->
<g id="node2" class="node">
<title>Node51</title>
<g id="a_node2"><a xlink:href="helios__boolean_8c.html#a50e186696d4b9f2e8efdcddc17ab5ce5" target="_top" xlink:title="Create a helios_boolean object from a c boolean type.">
<polygon fill="#ffffff" stroke="#000000" points="139.5,-58 139.5,-88 258.5,-88 258.5,-58 139.5,-58"/>
<text text-anchor="start" x="147.5" y="-76" font-family="Helvetica,sans-Serif" font-size="10.00" fill="#000000">helios_boolean_from</text>
<text text-anchor="middle" x="199" y="-65" font-family="Helvetica,sans-Serif" font-size="10.00" fill="#000000">_cbool</text>
</a>
</g>
</g>
<!-- Node50&#45;&gt;Node51 -->
<g id="edge1" class="edge">
<title>Node50&#45;&gt;Node51</title>
<path fill="none" stroke="#191970" d="M98.1156,-58.2036C108.087,-59.6661 118.7541,-61.2306 129.2817,-62.7747"/>
<polygon fill="#191970" stroke="#191970" points="128.9032,-66.2565 139.3052,-64.2448 129.919,-59.3306 128.9032,-66.2565"/>
</g>
<!-- Node53 -->
<g id="node4" class="node">
<title>Node53</title>
<g id="a_node4"><a xlink:href="helios__boolean_8c.html#a856733e7e090437084fcf595bd4e3b8f" target="_top" xlink:title="Convert a boolean to an integer.">
<polygon fill="#ffffff" stroke="#000000" points="134,-19.5 134,-38.5 264,-38.5 264,-19.5 134,-19.5"/>
<text text-anchor="middle" x="199" y="-26.5" font-family="Helvetica,sans-Serif" font-size="10.00" fill="#000000">helios_boolean_integer</text>
</a>
</g>
</g>
<!-- Node50&#45;&gt;Node53 -->
<g id="edge3" class="edge">
<title>Node50&#45;&gt;Node53</title>
<path fill="none" stroke="#191970" d="M98.1156,-43.7964C106.4963,-42.5672 115.3684,-41.266 124.2362,-39.9654"/>
<polygon fill="#191970" stroke="#191970" points="124.8336,-43.4153 134.2198,-38.5011 123.8178,-36.4894 124.8336,-43.4153"/>
</g>
<!-- Node52 -->
<g id="node3" class="node">
<title>Node52</title>
<g id="a_node3"><a xlink:href="helios__boolean_8c.html#ab172c15c28782b45e824c42601484606" target="_top" xlink:title="Create a helios_boolean object from a c integer type.">
<polygon fill="#ffffff" stroke="#000000" points="300,-63.5 300,-82.5 442,-82.5 442,-63.5 300,-63.5"/>
<text text-anchor="middle" x="371" y="-70.5" font-family="Helvetica,sans-Serif" font-size="10.00" fill="#000000">helios_boolean_from_cint</text>
</a>
</g>
</g>
<!-- Node51&#45;&gt;Node52 -->
<g id="edge2" class="edge">
<title>Node51&#45;&gt;Node52</title>
<path fill="none" stroke="#191970" d="M258.6745,-73C268.7479,-73 279.3545,-73 289.864,-73"/>
<polygon fill="#191970" stroke="#191970" points="289.8898,-76.5001 299.8897,-73 289.8897,-69.5001 289.8898,-76.5001"/>
</g>
<!-- Node54 -->
<g id="node5" class="node">
<title>Node54</title>
<g id="a_node5"><a xlink:href="helios__integer_8c.html#af677316afd6536844aeb027f14c198cf" target="_top" xlink:title="Create a helios_integer object from a c integer type.">
<polygon fill="#ffffff" stroke="#000000" points="302.5,-19.5 302.5,-38.5 439.5,-38.5 439.5,-19.5 302.5,-19.5"/>
<text text-anchor="middle" x="371" y="-26.5" font-family="Helvetica,sans-Serif" font-size="10.00" fill="#000000">helios_integer_from_cint</text>
</a>
</g>
</g>
<!-- Node53&#45;&gt;Node54 -->
<g id="edge4" class="edge">
<title>Node53&#45;&gt;Node54</title>
<path fill="none" stroke="#191970" d="M264.0258,-29C273.2476,-29 282.8121,-29 292.259,-29"/>
<polygon fill="#191970" stroke="#191970" points="292.4419,-32.5001 302.4418,-29 292.4418,-25.5001 292.4419,-32.5001"/>
</g>
<!-- Node55 -->
<g id="node6" class="node">
<title>Node55</title>
<g id="a_node6"><a xlink:href="helios__integer_8c.html#a50a26b1e9578164839f3a5bb17e04051" target="_top" xlink:title="Constructor of a helios_integer object.">
<polygon fill="#ffffff" stroke="#000000" points="478,-19.5 478,-38.5 585,-38.5 585,-19.5 478,-19.5"/>
<text text-anchor="middle" x="531.5" y="-26.5" font-family="Helvetica,sans-Serif" font-size="10.00" fill="#000000">helios_integer_init</text>
</a>
</g>
</g>
<!-- Node54&#45;&gt;Node55 -->
<g id="edge5" class="edge">
<title>Node54&#45;&gt;Node55</title>
<path fill="none" stroke="#191970" d="M439.532,-29C448.8177,-29 458.3173,-29 467.519,-29"/>
<polygon fill="#191970" stroke="#191970" points="467.7542,-32.5001 477.7542,-29 467.7541,-25.5001 467.7542,-32.5001"/>
</g>
<!-- Node56 -->
<g id="node7" class="node">
<title>Node56</title>
<g id="a_node7"><a xlink:href="helios__memory_8h.html#af87f0050f8e236d0945592fa4e54dc94" target="_top" xlink:title="Allocates a new helios object (and performs all the GC steps associated with that action).">
<polygon fill="#ffffff" stroke="#000000" points="640.5,-38.5 640.5,-57.5 765.5,-57.5 765.5,-38.5 640.5,-38.5"/>
<text text-anchor="middle" x="703" y="-45.5" font-family="Helvetica,sans-Serif" font-size="10.00" fill="#000000">helios_allocate_object</text>
</a>
</g>
</g>
<!-- Node55&#45;&gt;Node56 -->
<g id="edge6" class="edge">
<title>Node55&#45;&gt;Node56</title>
<path fill="none" stroke="#191970" d="M585.2931,-34.9596C599.5001,-36.5335 615.0727,-38.2588 630.106,-39.9243"/>
<polygon fill="#191970" stroke="#191970" points="630.0794,-43.4427 640.404,-41.0652 630.8503,-36.4852 630.0794,-43.4427"/>
</g>
<!-- Node57 -->
<g id="node8" class="node">
<title>Node57</title>
<g id="a_node8"><a xlink:href="helios__memory_8h.html#ab14fb1c046aae61ab06eda8eeaf2cd85" target="_top" xlink:title=" ">
<polygon fill="#ffffff" stroke="#000000" points="621,-.5 621,-19.5 785,-19.5 785,-.5 621,-.5"/>
<text text-anchor="middle" x="703" y="-7.5" font-family="Helvetica,sans-Serif" font-size="10.00" fill="#000000">helios_set_garbagecollectable</text>
</a>
</g>
</g>
<!-- Node55&#45;&gt;Node57 -->
<g id="edge7" class="edge">
<title>Node55&#45;&gt;Node57</title>
<path fill="none" stroke="#191970" d="M585.2931,-23.0404C593.4127,-22.1409 601.9784,-21.1919 610.6345,-20.2329"/>
<polygon fill="#191970" stroke="#191970" points="611.2625,-23.6848 620.8162,-19.1049 610.4916,-16.7274 611.2625,-23.6848"/>
</g>
</g>
</svg>
