<?xml version="1.0" encoding="UTF-8" standalone="no"?>
<!DOCTYPE svg PUBLIC "-//W3C//DTD SVG 1.1//EN"
 "http://www.w3.org/Graphics/SVG/1.1/DTD/svg11.dtd">
<!-- Generated by graphviz version 2.40.1 (20161225.0304)
 -->
<!-- Title: helios_integer_greater Pages: 1 -->
<svg width="821pt" height="97pt"
 viewBox="0.00 0.00 821.00 96.50" xmlns="http://www.w3.org/2000/svg" xmlns:xlink="http://www.w3.org/1999/xlink">
<g id="graph0" class="graph" transform="scale(1 1) rotate(0) translate(4 92.5)">
<title>helios_integer_greater</title>
<polygon fill="#ffffff" stroke="transparent" points="-4,4 -4,-92.5 817,-92.5 817,4 -4,4"/>
<!-- Node9 -->
<g id="node1" class="node">
<title>Node9</title>
<g id="a_node1"><a xlink:title=" ">
<polygon fill="#bfbfbf" stroke="#000000" points="0,-41.5 0,-60.5 126,-60.5 126,-41.5 0,-41.5"/>
<text text-anchor="middle" x="63" y="-48.5" font-family="Helvetica,sans-Serif" font-size="10.00" fill="#000000">helios_integer_greater</text>
</a>
</g>
</g>
<!-- Node9&#45;&gt;Node9 -->
<g id="edge3" class="edge">
<title>Node9&#45;&gt;Node9</title>
<path fill="none" stroke="#191970" d="M37.7228,-60.7571C25.4258,-69.5653 33.8516,-79 63,-79 82.5841,-79 92.8136,-74.741 93.6886,-69.2746"/>
<polygon fill="#191970" stroke="#191970" points="96.594,-67.3207 88.2772,-60.7571 90.6856,-71.0745 96.594,-67.3207"/>
</g>
<!-- Node10 -->
<g id="node2" class="node">
<title>Node10</title>
<g id="a_node2"><a xlink:href="helios__boolean_8c.html#a50e186696d4b9f2e8efdcddc17ab5ce5" target="_top" xlink:title="Create a helios_boolean object from a c boolean type.">
<polygon fill="#ffffff" stroke="#000000" points="167.5,-58 167.5,-88 286.5,-88 286.5,-58 167.5,-58"/>
<text text-anchor="start" x="175.5" y="-76" font-family="Helvetica,sans-Serif" font-size="10.00" fill="#000000">helios_boolean_from</text>
<text text-anchor="middle" x="227" y="-65" font-family="Helvetica,sans-Serif" font-size="10.00" fill="#000000">_cbool</text>
</a>
</g>
</g>
<!-- Node9&#45;&gt;Node10 -->
<g id="edge1" class="edge">
<title>Node9&#45;&gt;Node10</title>
<path fill="none" stroke="#191970" d="M126.4067,-59.5058C136.4794,-60.857 146.9472,-62.2612 157.1578,-63.6309"/>
<polygon fill="#191970" stroke="#191970" points="156.8819,-67.1252 167.2585,-64.9859 157.8126,-60.1873 156.8819,-67.1252"/>
</g>
<!-- Node12 -->
<g id="node4" class="node">
<title>Node12</title>
<g id="a_node4"><a xlink:href="helios__boolean_8c.html#a856733e7e090437084fcf595bd4e3b8f" target="_top" xlink:title="Convert a boolean to an integer.">
<polygon fill="#ffffff" stroke="#000000" points="162,-19.5 162,-38.5 292,-38.5 292,-19.5 162,-19.5"/>
<text text-anchor="middle" x="227" y="-26.5" font-family="Helvetica,sans-Serif" font-size="10.00" fill="#000000">helios_boolean_integer</text>
</a>
</g>
</g>
<!-- Node9&#45;&gt;Node12 -->
<g id="edge4" class="edge">
<title>Node9&#45;&gt;Node12</title>
<path fill="none" stroke="#191970" d="M126.4067,-42.4942C134.764,-41.3731 143.3933,-40.2155 151.922,-39.0714"/>
<polygon fill="#191970" stroke="#191970" points="152.4195,-42.5361 161.8654,-37.7376 151.4888,-35.5983 152.4195,-42.5361"/>
</g>
<!-- Node11 -->
<g id="node3" class="node">
<title>Node11</title>
<g id="a_node3"><a xlink:href="helios__boolean_8c.html#ab172c15c28782b45e824c42601484606" target="_top" xlink:title="Create a helios_boolean object from a c integer type.">
<polygon fill="#ffffff" stroke="#000000" points="328,-63.5 328,-82.5 470,-82.5 470,-63.5 328,-63.5"/>
<text text-anchor="middle" x="399" y="-70.5" font-family="Helvetica,sans-Serif" font-size="10.00" fill="#000000">helios_boolean_from_cint</text>
</a>
</g>
</g>
<!-- Node10&#45;&gt;Node11 -->
<g id="edge2" class="edge">
<title>Node10&#45;&gt;Node11</title>
<path fill="none" stroke="#191970" d="M286.6745,-73C296.7479,-73 307.3545,-73 317.864,-73"/>
<polygon fill="#191970" stroke="#191970" points="317.8898,-76.5001 327.8897,-73 317.8897,-69.5001 317.8898,-76.5001"/>
</g>
<!-- Node13 -->
<g id="node5" class="node">
<title>Node13</title>
<g id="a_node5"><a xlink:href="helios__integer_8c.html#af677316afd6536844aeb027f14c198cf" target="_top" xlink:title="Create a helios_integer object from a c integer type.">
<polygon fill="#ffffff" stroke="#000000" points="330.5,-19.5 330.5,-38.5 467.5,-38.5 467.5,-19.5 330.5,-19.5"/>
<text text-anchor="middle" x="399" y="-26.5" font-family="Helvetica,sans-Serif" font-size="10.00" fill="#000000">helios_integer_from_cint</text>
</a>
</g>
</g>
<!-- Node12&#45;&gt;Node13 -->
<g id="edge5" class="edge">
<title>Node12&#45;&gt;Node13</title>
<path fill="none" stroke="#191970" d="M292.0258,-29C301.2476,-29 310.8121,-29 320.259,-29"/>
<polygon fill="#191970" stroke="#191970" points="320.4419,-32.5001 330.4418,-29 320.4418,-25.5001 320.4419,-32.5001"/>
</g>
<!-- Node14 -->
<g id="node6" class="node">
<title>Node14</title>
<g id="a_node6"><a xlink:href="helios__integer_8c.html#a50a26b1e9578164839f3a5bb17e04051" target="_top" xlink:title="Constructor of a helios_integer object.">
<polygon fill="#ffffff" stroke="#000000" points="506,-19.5 506,-38.5 613,-38.5 613,-19.5 506,-19.5"/>
<text text-anchor="middle" x="559.5" y="-26.5" font-family="Helvetica,sans-Serif" font-size="10.00" fill="#000000">helios_integer_init</text>
</a>
</g>
</g>
<!-- Node13&#45;&gt;Node14 -->
<g id="edge6" class="edge">
<title>Node13&#45;&gt;Node14</title>
<path fill="none" stroke="#191970" d="M467.532,-29C476.8177,-29 486.3173,-29 495.519,-29"/>
<polygon fill="#191970" stroke="#191970" points="495.7542,-32.5001 505.7542,-29 495.7541,-25.5001 495.7542,-32.5001"/>
</g>
<!-- Node15 -->
<g id="node7" class="node">
<title>Node15</title>
<g id="a_node7"><a xlink:href="helios__memory_8h.html#af87f0050f8e236d0945592fa4e54dc94" target="_top" xlink:title="Allocates a new helios object (and performs all the GC steps associated with that action).">
<polygon fill="#ffffff" stroke="#000000" points="668.5,-38.5 668.5,-57.5 793.5,-57.5 793.5,-38.5 668.5,-38.5"/>
<text text-anchor="middle" x="731" y="-45.5" font-family="Helvetica,sans-Serif" font-size="10.00" fill="#000000">helios_allocate_object</text>
</a>
</g>
</g>
<!-- Node14&#45;&gt;Node15 -->
<g id="edge7" class="edge">
<title>Node14&#45;&gt;Node15</title>
<path fill="none" stroke="#191970" d="M613.2931,-34.9596C627.5001,-36.5335 643.0727,-38.2588 658.106,-39.9243"/>
<polygon fill="#191970" stroke="#191970" points="658.0794,-43.4427 668.404,-41.0652 658.8503,-36.4852 658.0794,-43.4427"/>
</g>
<!-- Node16 -->
<g id="node8" class="node">
<title>Node16</title>
<g id="a_node8"><a xlink:href="helios__memory_8h.html#ab14fb1c046aae61ab06eda8eeaf2cd85" target="_top" xlink:title=" ">
<polygon fill="#ffffff" stroke="#000000" points="649,-.5 649,-19.5 813,-19.5 813,-.5 649,-.5"/>
<text text-anchor="middle" x="731" y="-7.5" font-family="Helvetica,sans-Serif" font-size="10.00" fill="#000000">helios_set_garbagecollectable</text>
</a>
</g>
</g>
<!-- Node14&#45;&gt;Node16 -->
<g id="edge8" class="edge">
<title>Node14&#45;&gt;Node16</title>
<path fill="none" stroke="#191970" d="M613.2931,-23.0404C621.4127,-22.1409 629.9784,-21.1919 638.6345,-20.2329"/>
<polygon fill="#191970" stroke="#191970" points="639.2625,-23.6848 648.8162,-19.1049 638.4916,-16.7274 639.2625,-23.6848"/>
</g>
</g>
</svg>
