<?xml version="1.0" encoding="UTF-8" standalone="no"?>
<!DOCTYPE svg PUBLIC "-//W3C//DTD SVG 1.1//EN"
 "http://www.w3.org/Graphics/SVG/1.1/DTD/svg11.dtd">
<!-- Generated by graphviz version 2.40.1 (20161225.0304)
 -->
<!-- Title: builtins/float/include/helios_float.h Pages: 1 -->
<!--zoomable 363 -->
<svg id="main" version="1.1" xmlns="http://www.w3.org/2000/svg" xmlns:xlink="http://www.w3.org/1999/xlink" xml:space="preserve" onload="init(evt)">
<style type="text/css"><![CDATA[
.edge:hover path { stroke: red; }
.edge:hover polygon { stroke: red; fill: red; }
]]></style>
<script type="text/javascript"><![CDATA[
var edges = document.getElementsByTagName('g');
if (edges && edges.length) {
  for (var i=0;i<edges.length;i++) {
    if (edges[i].id.substr(0,4)=='edge') {
      edges[i].setAttribute('class','edge');
    }
  }
}
]]></script>
        <defs>
                <circle id="rim" cx="0" cy="0" r="7"/>
                <circle id="rim2" cx="0" cy="0" r="3.5"/>
                <g id="zoomPlus">
                        <use xlink:href="#rim" fill="#404040">
                                <set attributeName="fill" to="#808080" begin="zoomplus.mouseover" end="zoomplus.mouseout"/>
                        </use>
                        <path d="M-4,0h8M0,-4v8" fill="none" stroke="white" stroke-width="1.5" pointer-events="none"/>
                </g>
                <g id="zoomMin">
                        <use xlink:href="#rim" fill="#404040">
                                <set attributeName="fill" to="#808080" begin="zoomminus.mouseover" end="zoomminus.mouseout"/>
                        </use>
                        <path d="M-4,0h8" fill="none" stroke="white" stroke-width="1.5" pointer-events="none"/>
                </g>
                <g id="dirArrow">
                        <path fill="none" stroke="white" stroke-width="1.5" d="M0,-3.0v7 M-2.5,-0.5L0,-3.0L2.5,-0.5"/>
                </g>
               <g id="resetDef">
                       <use xlink:href="#rim2" fill="#404040">
                               <set attributeName="fill" to="#808080" begin="reset.mouseover" end="reset.mouseout"/>
                       </use>
               </g>
        </defs>

<script type="text/javascript">
var viewWidth = 1496;
var viewHeight = 363;
var sectionId = 'dynsection-1';
</script>
<script xlink:href="svgpan.js"/>
<svg id="graph" class="graph">
<g id="viewport">
<title>builtins/float/include/helios_float.h</title>
<polygon fill="#ffffff" stroke="transparent" points="-4,4 -4,-359 1491.5,-359 1491.5,4 -4,4"/>
<!-- Node9 -->
<g id="node1" class="node">
<title>Node9</title>
<g id="a_node1"><a xlink:title=" ">
<polygon fill="#bfbfbf" stroke="#000000" points="233.5,-324.5 233.5,-354.5 336.5,-354.5 336.5,-324.5 233.5,-324.5"/>
<text text-anchor="start" x="241.5" y="-342.5" font-family="Helvetica,sans-Serif" font-size="10.00" fill="#000000">builtins/float/include</text>
<text text-anchor="middle" x="285" y="-331.5" font-family="Helvetica,sans-Serif" font-size="10.00" fill="#000000">/helios_float.h</text>
</a>
</g>
</g>
<!-- Node10 -->
<g id="node2" class="node">
<title>Node10</title>
<g id="a_node2"><a xlink:href="helios__float_8c.html" target="_top" xlink:title=" ">
<polygon fill="#ffffff" stroke="#000000" points="0,-257.5 0,-287.5 98,-287.5 98,-257.5 0,-257.5"/>
<text text-anchor="start" x="8" y="-275.5" font-family="Helvetica,sans-Serif" font-size="10.00" fill="#000000">builtins/float/helios</text>
<text text-anchor="middle" x="49" y="-264.5" font-family="Helvetica,sans-Serif" font-size="10.00" fill="#000000">_float.c</text>
</a>
</g>
</g>
<!-- Node9&#45;&gt;Node10 -->
<g id="edge1" class="edge">
<title>Node9&#45;&gt;Node10</title>
<path fill="none" stroke="#191970" d="M223.5334,-322.0497C184.5031,-310.9691 134.6674,-296.8208 98.2489,-286.4817"/>
<polygon fill="#191970" stroke="#191970" points="222.6331,-325.4324 233.2088,-324.7966 224.5448,-318.6985 222.6331,-325.4324"/>
</g>
<!-- Node11 -->
<g id="node3" class="node">
<title>Node11</title>
<g id="a_node3"><a xlink:href="helios__float__math_8c.html" target="_top" xlink:title=" ">
<polygon fill="#ffffff" stroke="#000000" points="116,-257.5 116,-287.5 214,-287.5 214,-257.5 116,-257.5"/>
<text text-anchor="start" x="124" y="-275.5" font-family="Helvetica,sans-Serif" font-size="10.00" fill="#000000">builtins/float/helios</text>
<text text-anchor="middle" x="165" y="-264.5" font-family="Helvetica,sans-Serif" font-size="10.00" fill="#000000">_float_math.c</text>
</a>
</g>
</g>
<!-- Node9&#45;&gt;Node11 -->
<g id="edge2" class="edge">
<title>Node9&#45;&gt;Node11</title>
<path fill="none" stroke="#191970" d="M248.9214,-319.3561C230.7305,-309.1995 209.0315,-297.0843 192.2556,-287.7177"/>
<polygon fill="#191970" stroke="#191970" points="247.6321,-322.6448 258.0697,-324.4639 251.0446,-316.5329 247.6321,-322.6448"/>
</g>
<!-- Node12 -->
<g id="node4" class="node">
<title>Node12</title>
<g id="a_node4"><a xlink:href="strtod_8c.html" target="_top" xlink:title=" ">
<polygon fill="#ffffff" stroke="#000000" points="232.5,-263 232.5,-282 337.5,-282 337.5,-263 232.5,-263"/>
<text text-anchor="middle" x="285" y="-270" font-family="Helvetica,sans-Serif" font-size="10.00" fill="#000000">builtins/float/strtod.c</text>
</a>
</g>
</g>
<!-- Node9&#45;&gt;Node12 -->
<g id="edge3" class="edge">
<title>Node9&#45;&gt;Node12</title>
<path fill="none" stroke="#191970" d="M285,-314.1199C285,-302.9072 285,-290.4031 285,-282.055"/>
<polygon fill="#191970" stroke="#191970" points="281.5001,-314.2966 285,-324.2967 288.5001,-314.2967 281.5001,-314.2966"/>
</g>
<!-- Node13 -->
<g id="node5" class="node">
<title>Node13</title>
<g id="a_node5"><a xlink:href="builtins_8h.html" target="_top" xlink:title=" ">
<polygon fill="#ffffff" stroke="#000000" points="355.5,-263 355.5,-282 478.5,-282 478.5,-263 355.5,-263"/>
<text text-anchor="middle" x="417" y="-270" font-family="Helvetica,sans-Serif" font-size="10.00" fill="#000000">builtins/include/builtins.h</text>
</a>
</g>
</g>
<!-- Node9&#45;&gt;Node13 -->
<g id="edge4" class="edge">
<title>Node9&#45;&gt;Node13</title>
<path fill="none" stroke="#191970" d="M323.6737,-319.8702C348.1607,-307.4412 378.7423,-291.9187 398.0788,-282.1039"/>
<polygon fill="#191970" stroke="#191970" points="321.9563,-316.8168 314.6234,-324.4639 325.1246,-323.0587 321.9563,-316.8168"/>
</g>
<!-- Node32 -->
<g id="node24" class="node">
<title>Node32</title>
<g id="a_node24"><a xlink:href="helios__integer__math_8c.html" target="_top" xlink:title=" ">
<polygon fill="#ffffff" stroke="#000000" points="497,-257.5 497,-287.5 605,-287.5 605,-257.5 497,-257.5"/>
<text text-anchor="start" x="505" y="-275.5" font-family="Helvetica,sans-Serif" font-size="10.00" fill="#000000">builtins/integer/helios</text>
<text text-anchor="middle" x="551" y="-264.5" font-family="Helvetica,sans-Serif" font-size="10.00" fill="#000000">_integer_math.c</text>
</a>
</g>
</g>
<!-- Node9&#45;&gt;Node32 -->
<g id="edge40" class="edge">
<title>Node9&#45;&gt;Node32</title>
<path fill="none" stroke="#191970" d="M346.3366,-324.0506C391.7836,-312.6034 453.1474,-297.1471 496.7995,-286.152"/>
<polygon fill="#191970" stroke="#191970" points="345.4451,-320.6657 336.6029,-326.5023 347.1549,-327.4537 345.4451,-320.6657"/>
</g>
<!-- Node14 -->
<g id="node6" class="node">
<title>Node14</title>
<g id="a_node6"><a xlink:href="serialize_8c.html" target="_top" xlink:title=" ">
<polygon fill="#ffffff" stroke="#000000" points="72,-190.5 72,-220.5 174,-220.5 174,-190.5 72,-190.5"/>
<text text-anchor="start" x="80" y="-208.5" font-family="Helvetica,sans-Serif" font-size="10.00" fill="#000000">builtins/serialization</text>
<text text-anchor="middle" x="123" y="-197.5" font-family="Helvetica,sans-Serif" font-size="10.00" fill="#000000">/serialize.c</text>
</a>
</g>
</g>
<!-- Node13&#45;&gt;Node14 -->
<g id="edge5" class="edge">
<title>Node13&#45;&gt;Node14</title>
<path fill="none" stroke="#191970" d="M364.0712,-260.7996C317.6289,-250.4847 248.2852,-234.966 188,-221 183.4793,-219.9527 178.7844,-218.8543 174.0801,-217.7462"/>
<polygon fill="#191970" stroke="#191970" points="363.3911,-264.2337 373.9119,-262.9835 364.9077,-257.4 363.3911,-264.2337"/>
</g>
<!-- Node15 -->
<g id="node7" class="node">
<title>Node15</title>
<g id="a_node7"><a xlink:href="executestack_8c.html" target="_top" xlink:title=" ">
<polygon fill="#ffffff" stroke="#000000" points="167.5,-134.5 167.5,-153.5 272.5,-153.5 272.5,-134.5 167.5,-134.5"/>
<text text-anchor="middle" x="220" y="-141.5" font-family="Helvetica,sans-Serif" font-size="10.00" fill="#000000">hvm/executestack.c</text>
</a>
</g>
</g>
<!-- Node13&#45;&gt;Node15 -->
<g id="edge6" class="edge">
<title>Node13&#45;&gt;Node15</title>
<path fill="none" stroke="#191970" d="M365.4478,-260.5835C308.9236,-247.2758 225.5604,-226.8348 221,-221 205.6868,-201.4077 212.0977,-169.6377 216.7486,-153.7284"/>
<polygon fill="#191970" stroke="#191970" points="364.781,-264.022 375.3161,-262.8987 366.3799,-257.207 364.781,-264.022"/>
</g>
<!-- Node16 -->
<g id="node8" class="node">
<title>Node16</title>
<g id="a_node8"><a xlink:href="hvm_8c.html" target="_top" xlink:title=" ">
<polygon fill="#ffffff" stroke="#000000" points="325.5,-134.5 325.5,-153.5 390.5,-153.5 390.5,-134.5 325.5,-134.5"/>
<text text-anchor="middle" x="358" y="-141.5" font-family="Helvetica,sans-Serif" font-size="10.00" fill="#000000">hvm/hvm.c</text>
</a>
</g>
</g>
<!-- Node13&#45;&gt;Node16 -->
<g id="edge7" class="edge">
<title>Node13&#45;&gt;Node16</title>
<path fill="none" stroke="#191970" d="M408.2365,-253.4134C395.4723,-225.6134 372.2292,-174.9907 362.486,-153.7705"/>
<polygon fill="#191970" stroke="#191970" points="405.212,-255.2142 412.5654,-262.8416 411.5735,-252.2933 405.212,-255.2142"/>
</g>
<!-- Node17 -->
<g id="node9" class="node">
<title>Node17</title>
<g id="a_node9"><a xlink:href="executestack_8h.html" target="_top" xlink:title=" ">
<polygon fill="#ffffff" stroke="#000000" points="230.5,-196 230.5,-215 369.5,-215 369.5,-196 230.5,-196"/>
<text text-anchor="middle" x="300" y="-203" font-family="Helvetica,sans-Serif" font-size="10.00" fill="#000000">hvm/include/executestack.h</text>
</a>
</g>
</g>
<!-- Node13&#45;&gt;Node17 -->
<g id="edge8" class="edge">
<title>Node13&#45;&gt;Node17</title>
<path fill="none" stroke="#191970" d="M391.4776,-257.8846C368.7873,-244.891 336.2667,-226.2681 316.7322,-215.0817"/>
<polygon fill="#191970" stroke="#191970" points="389.8196,-260.9684 400.2368,-262.9005 393.2982,-254.8939 389.8196,-260.9684"/>
</g>
<!-- Node18 -->
<g id="node10" class="node">
<title>Node18</title>
<g id="a_node10"><a xlink:href="hvm_8h.html" target="_top" xlink:title=" ">
<polygon fill="#ffffff" stroke="#000000" points="464.5,-73 464.5,-92 563.5,-92 563.5,-73 464.5,-73"/>
<text text-anchor="middle" x="514" y="-80" font-family="Helvetica,sans-Serif" font-size="10.00" fill="#000000">hvm/include/hvm.h</text>
</a>
</g>
</g>
<!-- Node13&#45;&gt;Node18 -->
<g id="edge11" class="edge">
<title>Node13&#45;&gt;Node18</title>
<path fill="none" stroke="#191970" d="M429.4201,-254.461C435.8891,-244.7431 443.7343,-232.4321 450,-221 475.7163,-174.079 500.6967,-114.9724 510.0911,-92.1245"/>
<polygon fill="#191970" stroke="#191970" points="426.4364,-252.6253 423.7361,-262.8703 432.2359,-256.5453 426.4364,-252.6253"/>
</g>
<!-- Node19 -->
<g id="node11" class="node">
<title>Node19</title>
<g id="a_node11"><a xlink:href="main_8c.html" target="_top" xlink:title=" ">
<polygon fill="#ffffff" stroke="#000000" points="521,-6 521,-25 591,-25 591,-6 521,-6"/>
<text text-anchor="middle" x="556" y="-13" font-family="Helvetica,sans-Serif" font-size="10.00" fill="#000000">main/main.c</text>
</a>
</g>
</g>
<!-- Node13&#45;&gt;Node19 -->
<g id="edge13" class="edge">
<title>Node13&#45;&gt;Node19</title>
<path fill="none" stroke="#191970" d="M415.2289,-252.5776C412.7877,-213.049 412.7379,-123.6376 455,-67 471.0086,-45.546 498.513,-32.3522 520.7808,-24.6971"/>
<polygon fill="#191970" stroke="#191970" points="411.7529,-253.0323 415.9834,-262.7459 418.7337,-252.5143 411.7529,-253.0323"/>
</g>
<!-- Node20 -->
<g id="node12" class="node">
<title>Node20</title>
<g id="a_node12"><a xlink:href="token_8h.html" target="_top" xlink:title=" ">
<polygon fill="#ffffff" stroke="#000000" points="1066.5,-196 1066.5,-215 1179.5,-215 1179.5,-196 1066.5,-196"/>
<text text-anchor="middle" x="1123" y="-203" font-family="Helvetica,sans-Serif" font-size="10.00" fill="#000000">parser/include/token.h</text>
</a>
</g>
</g>
<!-- Node13&#45;&gt;Node20 -->
<g id="edge14" class="edge">
<title>Node13&#45;&gt;Node20</title>
<path fill="none" stroke="#191970" d="M466.0894,-260.8894C473.4053,-259.4193 480.8792,-258.0611 488,-257 699.9567,-225.4142 954.8089,-212.1397 1066.218,-207.5516"/>
<polygon fill="#191970" stroke="#191970" points="465.3305,-257.4723 456.2592,-262.9461 466.7641,-264.324 465.3305,-257.4723"/>
</g>
<!-- Node31 -->
<g id="node23" class="node">
<title>Node31</title>
<g id="a_node23"><a xlink:href="token_8c.html" target="_top" xlink:title=" ">
<polygon fill="#ffffff" stroke="#000000" points="1408.5,-134.5 1408.5,-153.5 1487.5,-153.5 1487.5,-134.5 1408.5,-134.5"/>
<text text-anchor="middle" x="1448" y="-141.5" font-family="Helvetica,sans-Serif" font-size="10.00" fill="#000000">parser/token.c</text>
</a>
</g>
</g>
<!-- Node13&#45;&gt;Node31 -->
<g id="edge39" class="edge">
<title>Node13&#45;&gt;Node31</title>
<path fill="none" stroke="#191970" d="M465.0114,-260.9071C472.6643,-259.381 480.5224,-258.0016 488,-257 796.7644,-215.64 880.9502,-273.5978 1188,-221 1276.3938,-205.8581 1377.2065,-170.6132 1423.0077,-153.569"/>
<polygon fill="#191970" stroke="#191970" points="464.1889,-257.5033 455.1183,-262.9782 465.6233,-264.3548 464.1889,-257.5033"/>
</g>
<!-- Node17&#45;&gt;Node15 -->
<g id="edge9" class="edge">
<title>Node17&#45;&gt;Node15</title>
<path fill="none" stroke="#191970" d="M279.381,-189.6491C264.5164,-178.222 244.943,-163.1749 232.4122,-153.5419"/>
<polygon fill="#191970" stroke="#191970" points="277.4387,-192.5707 287.5,-195.8906 281.7051,-187.021 277.4387,-192.5707"/>
</g>
<!-- Node17&#45;&gt;Node16 -->
<g id="edge10" class="edge">
<title>Node17&#45;&gt;Node16</title>
<path fill="none" stroke="#191970" d="M316.1261,-188.4007C326.6642,-177.2268 340.0477,-163.0356 348.8097,-153.7449"/>
<polygon fill="#191970" stroke="#191970" points="313.3773,-186.2142 309.0625,-195.8906 318.4698,-191.0169 313.3773,-186.2142"/>
</g>
<!-- Node18&#45;&gt;Node19 -->
<g id="edge12" class="edge">
<title>Node18&#45;&gt;Node19</title>
<path fill="none" stroke="#191970" d="M525.5281,-64.1099C533.4457,-51.4795 543.6357,-35.2241 549.9936,-25.0817"/>
<polygon fill="#191970" stroke="#191970" points="522.3635,-62.5687 520.0176,-72.9005 528.2945,-66.2866 522.3635,-62.5687"/>
</g>
<!-- Node21 -->
<g id="node13" class="node">
<title>Node21</title>
<g id="a_node13"><a xlink:href="AST_8c.html" target="_top" xlink:title=" ">
<polygon fill="#ffffff" stroke="#000000" points="1229,-6 1229,-25 1303,-25 1303,-6 1229,-6"/>
<text text-anchor="middle" x="1266" y="-13" font-family="Helvetica,sans-Serif" font-size="10.00" fill="#000000">parser/AST.c</text>
</a>
</g>
</g>
<!-- Node20&#45;&gt;Node21 -->
<g id="edge15" class="edge">
<title>Node20&#45;&gt;Node21</title>
<path fill="none" stroke="#191970" d="M1144.4666,-189.3867C1156.4986,-179.8094 1171.3759,-167.0193 1183,-154 1221.0861,-111.3424 1251.1783,-48.7215 1261.8318,-25.0418"/>
<polygon fill="#191970" stroke="#191970" points="1142.0348,-186.8443 1136.2955,-195.75 1146.3358,-192.3672 1142.0348,-186.8443"/>
</g>
<!-- Node22 -->
<g id="node14" class="node">
<title>Node22</title>
<g id="a_node14"><a xlink:href="AST_8h.html" target="_top" xlink:title=" ">
<polygon fill="#ffffff" stroke="#000000" points="964.5,-134.5 964.5,-153.5 1071.5,-153.5 1071.5,-134.5 964.5,-134.5"/>
<text text-anchor="middle" x="1018" y="-141.5" font-family="Helvetica,sans-Serif" font-size="10.00" fill="#000000">parser/include/AST.h</text>
</a>
</g>
</g>
<!-- Node20&#45;&gt;Node22 -->
<g id="edge16" class="edge">
<title>Node20&#45;&gt;Node22</title>
<path fill="none" stroke="#191970" d="M1097.8316,-190.7585C1078.1183,-179.2122 1051.2757,-163.49 1034.291,-153.5419"/>
<polygon fill="#191970" stroke="#191970" points="1096.196,-193.8566 1106.5938,-195.8906 1099.7338,-187.8164 1096.196,-193.8566"/>
</g>
<!-- Node26 -->
<g id="node18" class="node">
<title>Node26</title>
<g id="a_node18"><a xlink:href="expressions_8c.html" target="_top" xlink:title=" ">
<polygon fill="#ffffff" stroke="#000000" points="1321,-.5 1321,-30.5 1419,-30.5 1419,-.5 1321,-.5"/>
<text text-anchor="start" x="1329" y="-18.5" font-family="Helvetica,sans-Serif" font-size="10.00" fill="#000000">parser/parserfuncs</text>
<text text-anchor="middle" x="1370" y="-7.5" font-family="Helvetica,sans-Serif" font-size="10.00" fill="#000000">/expressions.c</text>
</a>
</g>
</g>
<!-- Node20&#45;&gt;Node26 -->
<g id="edge34" class="edge">
<title>Node20&#45;&gt;Node26</title>
<path fill="none" stroke="#191970" d="M1148.8056,-190.5408C1165.259,-180.7015 1186.8258,-167.2385 1205,-154 1261.8327,-112.6019 1324.1779,-57.3133 1353.289,-30.8621"/>
<polygon fill="#191970" stroke="#191970" points="1146.5966,-187.7811 1139.7733,-195.8862 1150.1617,-193.8052 1146.5966,-187.7811"/>
</g>
<!-- Node27 -->
<g id="node19" class="node">
<title>Node27</title>
<g id="a_node19"><a xlink:href="floats_8c.html" target="_top" xlink:title=" ">
<polygon fill="#ffffff" stroke="#000000" points="616,-.5 616,-30.5 714,-30.5 714,-.5 616,-.5"/>
<text text-anchor="start" x="624" y="-18.5" font-family="Helvetica,sans-Serif" font-size="10.00" fill="#000000">parser/parserfuncs</text>
<text text-anchor="middle" x="665" y="-7.5" font-family="Helvetica,sans-Serif" font-size="10.00" fill="#000000">/floats.c</text>
</a>
</g>
</g>
<!-- Node20&#45;&gt;Node27 -->
<g id="edge35" class="edge">
<title>Node20&#45;&gt;Node27</title>
<path fill="none" stroke="#191970" d="M1055.9383,-198.9455C976.6473,-190.4395 850.012,-174.2593 807,-154 746.5605,-125.5321 696.1769,-60.6731 675.3174,-30.9268"/>
<polygon fill="#191970" stroke="#191970" points="1056.0073,-202.4723 1066.3202,-200.0445 1056.7442,-195.5112 1056.0073,-202.4723"/>
</g>
<!-- Node28 -->
<g id="node20" class="node">
<title>Node28</title>
<g id="a_node20"><a xlink:href="integers_8c.html" target="_top" xlink:title=" ">
<polygon fill="#ffffff" stroke="#000000" points="732,-.5 732,-30.5 830,-30.5 830,-.5 732,-.5"/>
<text text-anchor="start" x="740" y="-18.5" font-family="Helvetica,sans-Serif" font-size="10.00" fill="#000000">parser/parserfuncs</text>
<text text-anchor="middle" x="781" y="-7.5" font-family="Helvetica,sans-Serif" font-size="10.00" fill="#000000">/integers.c</text>
</a>
</g>
</g>
<!-- Node20&#45;&gt;Node28 -->
<g id="edge36" class="edge">
<title>Node20&#45;&gt;Node28</title>
<path fill="none" stroke="#191970" d="M1056.4337,-195.8666C959.9035,-180.3808 788.5715,-146.6727 752,-98 736.5873,-77.4874 754.1626,-48.1039 767.8883,-30.5013"/>
<polygon fill="#191970" stroke="#191970" points="1055.9677,-199.3363 1066.3918,-197.4421 1057.0616,-192.4223 1055.9677,-199.3363"/>
</g>
<!-- Node29 -->
<g id="node21" class="node">
<title>Node29</title>
<g id="a_node21"><a xlink:href="parser_8c.html" target="_top" xlink:title=" ">
<polygon fill="#ffffff" stroke="#000000" points="1113,-.5 1113,-30.5 1211,-30.5 1211,-.5 1113,-.5"/>
<text text-anchor="start" x="1121" y="-18.5" font-family="Helvetica,sans-Serif" font-size="10.00" fill="#000000">parser/parserfuncs</text>
<text text-anchor="middle" x="1162" y="-7.5" font-family="Helvetica,sans-Serif" font-size="10.00" fill="#000000">/parser.c</text>
</a>
</g>
</g>
<!-- Node20&#45;&gt;Node29 -->
<g id="edge37" class="edge">
<title>Node20&#45;&gt;Node29</title>
<path fill="none" stroke="#191970" d="M1138.2166,-187.7747C1154.4472,-167.593 1179.1467,-132.8812 1189,-98 1192.7454,-84.7411 1192.2943,-80.3782 1189,-67 1185.8138,-54.0608 1178.7349,-40.7729 1172.6248,-30.936"/>
<polygon fill="#191970" stroke="#191970" points="1135.3129,-185.7942 1131.643,-195.7332 1140.7099,-190.2521 1135.3129,-185.7942"/>
</g>
<!-- Node20&#45;&gt;Node31 -->
<g id="edge38" class="edge">
<title>Node20&#45;&gt;Node31</title>
<path fill="none" stroke="#191970" d="M1183.6294,-194.0271C1249.2816,-181.6036 1352.1133,-162.1447 1408.2166,-151.5282"/>
<polygon fill="#191970" stroke="#191970" points="1182.5995,-190.6597 1173.4247,-195.9581 1183.9011,-197.5377 1182.5995,-190.6597"/>
</g>
<!-- Node22&#45;&gt;Node19 -->
<g id="edge19" class="edge">
<title>Node22&#45;&gt;Node19</title>
<path fill="none" stroke="#191970" d="M954.1296,-141.2206C889.9581,-136.9036 788.9511,-125.9144 706,-98 652.1983,-79.8949 595.1804,-42.8819 569.6946,-25.2534"/>
<polygon fill="#191970" stroke="#191970" points="954.2925,-144.738 964.495,-141.8813 954.7379,-137.7522 954.2925,-144.738"/>
</g>
<!-- Node22&#45;&gt;Node21 -->
<g id="edge20" class="edge">
<title>Node22&#45;&gt;Node21</title>
<path fill="none" stroke="#191970" d="M1082.061,-135.4703C1115.6857,-128.9109 1156.5268,-117.524 1189,-98 1221.0707,-78.718 1248.1484,-42.2843 1259.8313,-25.0258"/>
<polygon fill="#191970" stroke="#191970" points="1081.0712,-132.0939 1071.8747,-137.3546 1082.3446,-138.9771 1081.0712,-132.0939"/>
</g>
<!-- Node23 -->
<g id="node15" class="node">
<title>Node23</title>
<g id="a_node15"><a xlink:href="helios__code_8c.html" target="_top" xlink:title=" ">
<polygon fill="#ffffff" stroke="#000000" points="772,-67.5 772,-97.5 872,-97.5 872,-67.5 772,-67.5"/>
<text text-anchor="start" x="780" y="-85.5" font-family="Helvetica,sans-Serif" font-size="10.00" fill="#000000">builtins/code/helios</text>
<text text-anchor="middle" x="822" y="-74.5" font-family="Helvetica,sans-Serif" font-size="10.00" fill="#000000">_code.c</text>
</a>
</g>
</g>
<!-- Node22&#45;&gt;Node23 -->
<g id="edge17" class="edge">
<title>Node22&#45;&gt;Node23</title>
<path fill="none" stroke="#191970" d="M977.6801,-131.3486C946.4159,-121.5386 902.992,-107.9133 869.947,-97.5446"/>
<polygon fill="#191970" stroke="#191970" points="976.7858,-134.7362 987.375,-134.3906 978.8815,-128.0573 976.7858,-134.7362"/>
</g>
<!-- Node24 -->
<g id="node16" class="node">
<title>Node24</title>
<g id="a_node16"><a xlink:href="helios__instruction_8c.html" target="_top" xlink:title=" ">
<polygon fill="#ffffff" stroke="#000000" points="890,-67.5 890,-97.5 990,-97.5 990,-67.5 890,-67.5"/>
<text text-anchor="start" x="898" y="-85.5" font-family="Helvetica,sans-Serif" font-size="10.00" fill="#000000">builtins/code/helios</text>
<text text-anchor="middle" x="940" y="-74.5" font-family="Helvetica,sans-Serif" font-size="10.00" fill="#000000">_instruction.c</text>
</a>
</g>
</g>
<!-- Node22&#45;&gt;Node24 -->
<g id="edge18" class="edge">
<title>Node22&#45;&gt;Node24</title>
<path fill="none" stroke="#191970" d="M997.7561,-128.0385C985.8203,-118.6276 970.8083,-106.7911 959.0809,-97.5446"/>
<polygon fill="#191970" stroke="#191970" points="995.7927,-130.9475 1005.8125,-134.3906 1000.1268,-125.4506 995.7927,-130.9475"/>
</g>
<!-- Node25 -->
<g id="node17" class="node">
<title>Node25</title>
<g id="a_node17"><a xlink:href="parser_8h.html" target="_top" xlink:title=" ">
<polygon fill="#ffffff" stroke="#000000" points="1046.5,-73 1046.5,-92 1161.5,-92 1161.5,-73 1046.5,-73"/>
<text text-anchor="middle" x="1104" y="-80" font-family="Helvetica,sans-Serif" font-size="10.00" fill="#000000">parser/include/parser.h</text>
</a>
</g>
</g>
<!-- Node22&#45;&gt;Node25 -->
<g id="edge21" class="edge">
<title>Node22&#45;&gt;Node25</title>
<path fill="none" stroke="#191970" d="M1039.7188,-128.4685C1055.7509,-117.0037 1077.0604,-101.765 1090.6569,-92.0419"/>
<polygon fill="#191970" stroke="#191970" points="1037.5357,-125.7268 1031.4375,-134.3906 1041.6076,-131.4207 1037.5357,-125.7268"/>
</g>
<!-- Node22&#45;&gt;Node26 -->
<g id="edge29" class="edge">
<title>Node22&#45;&gt;Node26</title>
<path fill="none" stroke="#191970" d="M1081.8402,-134.3157C1122.5176,-126.9878 1175.8649,-115.2086 1221,-98 1268.383,-79.9343 1319.1507,-49.0482 1347.5028,-30.6268"/>
<polygon fill="#191970" stroke="#191970" points="1081.0271,-130.9049 1071.7841,-136.0835 1082.2391,-137.7992 1081.0271,-130.9049"/>
</g>
<!-- Node22&#45;&gt;Node27 -->
<g id="edge30" class="edge">
<title>Node22&#45;&gt;Node27</title>
<path fill="none" stroke="#191970" d="M954.1965,-137.2719C887.1052,-129.4416 786.5642,-115.3426 752,-98 719.8136,-81.8505 691.398,-49.8519 676.3555,-30.8005"/>
<polygon fill="#191970" stroke="#191970" points="953.9166,-140.7627 964.2509,-138.4279 954.7161,-133.8085 953.9166,-140.7627"/>
</g>
<!-- Node22&#45;&gt;Node28 -->
<g id="edge31" class="edge">
<title>Node22&#45;&gt;Node28</title>
<path fill="none" stroke="#191970" d="M954.1724,-141.5452C886.7444,-137.4522 786.9067,-126.6051 763,-98 747.0182,-78.8773 760.1999,-48.7712 770.8599,-30.7017"/>
<polygon fill="#191970" stroke="#191970" points="954.1022,-145.0468 964.2858,-142.1236 954.502,-138.0582 954.1022,-145.0468"/>
</g>
<!-- Node22&#45;&gt;Node29 -->
<g id="edge32" class="edge">
<title>Node22&#45;&gt;Node29</title>
<path fill="none" stroke="#191970" d="M1081.985,-132.5426C1118.4757,-124.5631 1159.0736,-112.7225 1170,-98 1184.5791,-78.3558 1176.2675,-48.4208 1169.0378,-30.5251"/>
<polygon fill="#191970" stroke="#191970" points="1080.8893,-129.1969 1071.8298,-134.6901 1082.3375,-136.0454 1080.8893,-129.1969"/>
</g>
<!-- Node30 -->
<g id="node22" class="node">
<title>Node30</title>
<g id="a_node22"><a xlink:href="parserutil_8c.html" target="_top" xlink:title=" ">
<polygon fill="#ffffff" stroke="#000000" points="984.5,-6 984.5,-25 1079.5,-25 1079.5,-6 984.5,-6"/>
<text text-anchor="middle" x="1032" y="-13" font-family="Helvetica,sans-Serif" font-size="10.00" fill="#000000">parser/parserutil.c</text>
</a>
</g>
</g>
<!-- Node22&#45;&gt;Node30 -->
<g id="edge33" class="edge">
<title>Node22&#45;&gt;Node30</title>
<path fill="none" stroke="#191970" d="M1020.1601,-124.1733C1023.2052,-96.2236 1028.644,-46.3037 1030.9355,-25.2705"/>
<polygon fill="#191970" stroke="#191970" points="1016.656,-124.0213 1019.0523,-134.3416 1023.6149,-124.7796 1016.656,-124.0213"/>
</g>
<!-- Node25&#45;&gt;Node19 -->
<g id="edge22" class="edge">
<title>Node25&#45;&gt;Node19</title>
<path fill="none" stroke="#191970" d="M1036.0825,-71.9167C1023.7579,-70.155 1011.0069,-68.4365 999,-67 825.2834,-46.2172 778.6964,-64.6113 607,-31 599.3714,-29.5066 591.2581,-27.3245 583.7995,-25.0663"/>
<polygon fill="#191970" stroke="#191970" points="1035.91,-75.4282 1046.3092,-73.4013 1036.9158,-68.5009 1035.91,-75.4282"/>
</g>
<!-- Node25&#45;&gt;Node21 -->
<g id="edge23" class="edge">
<title>Node25&#45;&gt;Node21</title>
<path fill="none" stroke="#191970" d="M1136.855,-68.9118C1168.3417,-55.8895 1215.0632,-36.5664 1242.8324,-25.0817"/>
<polygon fill="#191970" stroke="#191970" points="1135.1139,-65.8443 1127.2107,-72.9005 1137.7892,-72.3129 1135.1139,-65.8443"/>
</g>
<!-- Node25&#45;&gt;Node26 -->
<g id="edge24" class="edge">
<title>Node25&#45;&gt;Node26</title>
<path fill="none" stroke="#191970" d="M1153.2858,-70.5679C1195.4722,-60.2898 1257.8009,-44.9506 1312,-31 1314.9272,-30.2466 1317.9355,-29.4649 1320.969,-28.6711"/>
<polygon fill="#191970" stroke="#191970" points="1152.4314,-67.1736 1143.5426,-72.939 1154.0866,-73.9751 1152.4314,-67.1736"/>
</g>
<!-- Node25&#45;&gt;Node27 -->
<g id="edge25" class="edge">
<title>Node25&#45;&gt;Node27</title>
<path fill="none" stroke="#191970" d="M1036.0335,-72.2959C1023.714,-70.495 1010.9774,-68.6651 999,-67 876.4726,-49.9666 844.3511,-55.0211 723,-31 720.1372,-30.4333 717.2067,-29.8052 714.2577,-29.1358"/>
<polygon fill="#191970" stroke="#191970" points="1035.8554,-75.8072 1046.2579,-73.7976 1036.8727,-68.8815 1035.8554,-75.8072"/>
</g>
<!-- Node25&#45;&gt;Node28 -->
<g id="edge26" class="edge">
<title>Node25&#45;&gt;Node28</title>
<path fill="none" stroke="#191970" d="M1048.1533,-70.9157C986.7033,-58.1691 888.8876,-37.8792 830.2156,-25.7088"/>
<polygon fill="#191970" stroke="#191970" points="1047.5625,-74.3676 1058.065,-72.9717 1048.9843,-67.5135 1047.5625,-74.3676"/>
</g>
<!-- Node25&#45;&gt;Node29 -->
<g id="edge27" class="edge">
<title>Node25&#45;&gt;Node29</title>
<path fill="none" stroke="#191970" d="M1119.1126,-65.0423C1128.3859,-54.33 1140.1394,-40.7528 1148.9961,-30.5218"/>
<polygon fill="#191970" stroke="#191970" points="1116.2088,-63.0491 1112.31,-72.9005 1121.5013,-67.6307 1116.2088,-63.0491"/>
</g>
<!-- Node25&#45;&gt;Node30 -->
<g id="edge28" class="edge">
<title>Node25&#45;&gt;Node30</title>
<path fill="none" stroke="#191970" d="M1086.2042,-65.94C1072.393,-53.0879 1053.7303,-35.7212 1042.2967,-25.0817"/>
<polygon fill="#191970" stroke="#191970" points="1083.9791,-68.6504 1093.6842,-72.9005 1088.7478,-63.5259 1083.9791,-68.6504"/>
</g>
</g>
</svg>
        <g id="navigator" transform="translate(0 0)" fill="#404254">
                <rect fill="#f2f5e9" fill-opacity="0.5" stroke="#606060" stroke-width=".5" x="0" y="0" width="60" height="60"/>
                <use id="zoomplus" xlink:href="#zoomPlus" x="17" y="9" onmousedown="handleZoom(evt,'in')"/>
                <use id="zoomminus" xlink:href="#zoomMin" x="42" y="9" onmousedown="handleZoom(evt,'out')"/>
                <use id="reset" xlink:href="#resetDef" x="30" y="36" onmousedown="handleReset()"/>
                <g id="arrowUp" xlink:href="#dirArrow" transform="translate(30 24)" onmousedown="handlePan(0,-1)">
                  <use xlink:href="#rim" fill="#404040">
                        <set attributeName="fill" to="#808080" begin="arrowUp.mouseover" end="arrowUp.mouseout"/>
                  </use>
                  <path fill="none" stroke="white" stroke-width="1.5" d="M0,-3.0v7 M-2.5,-0.5L0,-3.0L2.5,-0.5"/>
                </g>
                <g id="arrowRight" xlink:href="#dirArrow" transform="rotate(90) translate(36 -43)" onmousedown="handlePan(1,0)">
                  <use xlink:href="#rim" fill="#404040">
                        <set attributeName="fill" to="#808080" begin="arrowRight.mouseover" end="arrowRight.mouseout"/>
                  </use>
                  <path fill="none" stroke="white" stroke-width="1.5" d="M0,-3.0v7 M-2.5,-0.5L0,-3.0L2.5,-0.5"/>
                </g>
                <g id="arrowDown" xlink:href="#dirArrow" transform="rotate(180) translate(-30 -48)" onmousedown="handlePan(0,1)">
                  <use xlink:href="#rim" fill="#404040">
                        <set attributeName="fill" to="#808080" begin="arrowDown.mouseover" end="arrowDown.mouseout"/>
                  </use>
                  <path fill="none" stroke="white" stroke-width="1.5" d="M0,-3.0v7 M-2.5,-0.5L0,-3.0L2.5,-0.5"/>
                </g>
                <g id="arrowLeft" xlink:href="#dirArrow" transform="rotate(270) translate(-36 17)" onmousedown="handlePan(-1,0)">
                  <use xlink:href="#rim" fill="#404040">
                        <set attributeName="fill" to="#808080" begin="arrowLeft.mouseover" end="arrowLeft.mouseout"/>
                  </use>
                  <path fill="none" stroke="white" stroke-width="1.5" d="M0,-3.0v7 M-2.5,-0.5L0,-3.0L2.5,-0.5"/>
                </g>
        </g>
        <svg viewBox="0 0 15 15" width="100%" height="30px" preserveAspectRatio="xMaxYMin meet">
         <g id="arrow_out" transform="scale(0.3 0.3)">
          <a xlink:href="helios__float_8h__dep__incl_org.svg" target="_base">
           <rect id="button" ry="5" rx="5" y="6" x="6" height="38" width="38"
                fill="#f2f5e9" fill-opacity="0.5" stroke="#606060" stroke-width="1.0"/>
           <path id="arrow"
             d="M 11.500037,31.436501 C 11.940474,20.09759 22.043105,11.32322 32.158766,21.979434 L 37.068811,17.246167 C 37.068811,17.246167 37.088388,32 37.088388,32 L 22.160133,31.978069 C 22.160133,31.978069 26.997745,27.140456 26.997745,27.140456 C 18.528582,18.264221 13.291696,25.230495 11.500037,31.436501 z"
             style="fill:#404040;"/>
          </a>
         </g>
        </svg>
</svg>
