<?xml version="1.0" encoding="UTF-8" standalone="no"?>
<!DOCTYPE svg PUBLIC "-//W3C//DTD SVG 1.1//EN"
 "http://www.w3.org/Graphics/SVG/1.1/DTD/svg11.dtd">
<!-- Generated by graphviz version 2.40.1 (20161225.0304)
 -->
<!-- Title: helios_string_from_charp Pages: 1 -->
<svg width="551pt" height="39pt"
 viewBox="0.00 0.00 551.00 39.00" xmlns="http://www.w3.org/2000/svg" xmlns:xlink="http://www.w3.org/1999/xlink">
<g id="graph0" class="graph" transform="scale(1 1) rotate(0) translate(4 35)">
<title>helios_string_from_charp</title>
<polygon fill="#ffffff" stroke="transparent" points="-4,4 -4,-35 547,-35 547,4 -4,4"/>
<!-- Node2 -->
<g id="node1" class="node">
<title>Node2</title>
<g id="a_node1"><a xlink:title="Create a helios_string object from a c string.">
<polygon fill="#bfbfbf" stroke="#000000" points="0,-.5 0,-30.5 96,-30.5 96,-.5 0,-.5"/>
<text text-anchor="start" x="8" y="-18.5" font-family="Helvetica,sans-Serif" font-size="10.00" fill="#000000">helios_string_from</text>
<text text-anchor="middle" x="48" y="-7.5" font-family="Helvetica,sans-Serif" font-size="10.00" fill="#000000">_charp</text>
</a>
</g>
</g>
<!-- Node3 -->
<g id="node2" class="node">
<title>Node3</title>
<g id="a_node2"><a xlink:href="helios__string_8c.html#af727ca5352482ab7e542510f178a9f85" target="_top" xlink:title="Constructor of a helios_string.">
<polygon fill="#ffffff" stroke="#000000" points="132,-6 132,-25 221,-25 221,-6 132,-6"/>
<text text-anchor="middle" x="176.5" y="-13" font-family="Helvetica,sans-Serif" font-size="10.00" fill="#000000">helios_string_init</text>
</a>
</g>
</g>
<!-- Node2&#45;&gt;Node3 -->
<g id="edge1" class="edge">
<title>Node2&#45;&gt;Node3</title>
<path fill="none" stroke="#191970" d="M96.2143,-15.5C104.5175,-15.5 113.2026,-15.5 121.6649,-15.5"/>
<polygon fill="#191970" stroke="#191970" points="121.8359,-19.0001 131.8359,-15.5 121.8359,-12.0001 121.8359,-19.0001"/>
</g>
<!-- Node4 -->
<g id="node3" class="node">
<title>Node4</title>
<g id="a_node3"><a xlink:href="helios__memory_8c.html#aab8866fd2abd9389795ad1639991caa4" target="_top" xlink:title="Allocates a new helios object (and performs all the GC steps associated with that action).">
<polygon fill="#ffffff" stroke="#000000" points="257,-6 257,-25 370,-25 370,-6 257,-6"/>
<text text-anchor="middle" x="313.5" y="-13" font-family="Helvetica,sans-Serif" font-size="10.00" fill="#000000">helios_allocate_object</text>
</a>
</g>
</g>
<!-- Node3&#45;&gt;Node4 -->
<g id="edge2" class="edge">
<title>Node3&#45;&gt;Node4</title>
<path fill="none" stroke="#191970" d="M221.3589,-15.5C229.348,-15.5 237.826,-15.5 246.2781,-15.5"/>
<polygon fill="#191970" stroke="#191970" points="246.5404,-19.0001 256.5403,-15.5 246.5403,-12.0001 246.5404,-19.0001"/>
</g>
<!-- Node5 -->
<g id="node4" class="node">
<title>Node5</title>
<g id="a_node4"><a xlink:href="helios__memory_8c.html#a27b2da5d6954fd6e7aa0d2f352336c25" target="_top" xlink:title="Get the global current garbage collector.">
<polygon fill="#ffffff" stroke="#000000" points="406,-6 406,-25 543,-25 543,-6 406,-6"/>
<text text-anchor="middle" x="474.5" y="-13" font-family="Helvetica,sans-Serif" font-size="10.00" fill="#000000">helios_get_garbagecollector</text>
</a>
</g>
</g>
<!-- Node4&#45;&gt;Node5 -->
<g id="edge3" class="edge">
<title>Node4&#45;&gt;Node5</title>
<path fill="none" stroke="#191970" d="M370.2626,-15.5C378.5265,-15.5 387.157,-15.5 395.7607,-15.5"/>
<polygon fill="#191970" stroke="#191970" points="395.8248,-19.0001 405.8248,-15.5 395.8247,-12.0001 395.8248,-19.0001"/>
</g>
</g>
</svg>
