<?xml version="1.0" encoding="UTF-8" standalone="no"?>
<!DOCTYPE svg PUBLIC "-//W3C//DTD SVG 1.1//EN"
 "http://www.w3.org/Graphics/SVG/1.1/DTD/svg11.dtd">
<!-- Generated by graphviz version 2.40.1 (20161225.0304)
 -->
<!-- Title: builtins/code/include/helios_code.h Pages: 1 -->
<svg width="1255pt" height="352pt"
 viewBox="0.00 0.00 1254.65 352.00" xmlns="http://www.w3.org/2000/svg" xmlns:xlink="http://www.w3.org/1999/xlink">
<g id="graph0" class="graph" transform="scale(1 1) rotate(0) translate(4 348)">
<title>builtins/code/include/helios_code.h</title>
<polygon fill="#ffffff" stroke="transparent" points="-4,4 -4,-348 1250.6527,-348 1250.6527,4 -4,4"/>
<!-- Node9 -->
<g id="node1" class="node">
<title>Node9</title>
<g id="a_node1"><a xlink:title=" ">
<polygon fill="#bfbfbf" stroke="#000000" points="170.6527,-313.5 170.6527,-343.5 275.6527,-343.5 275.6527,-313.5 170.6527,-313.5"/>
<text text-anchor="start" x="178.6527" y="-331.5" font-family="Helvetica,sans-Serif" font-size="10.00" fill="#000000">builtins/code/include</text>
<text text-anchor="middle" x="223.1527" y="-320.5" font-family="Helvetica,sans-Serif" font-size="10.00" fill="#000000">/helios_code.h</text>
</a>
</g>
</g>
<!-- Node10 -->
<g id="node2" class="node">
<title>Node10</title>
<g id="a_node2"><a xlink:href="helios__code_8c.html" target="_top" xlink:title=" ">
<polygon fill="#ffffff" stroke="#000000" points="55.1527,-67.5 55.1527,-97.5 155.1527,-97.5 155.1527,-67.5 55.1527,-67.5"/>
<text text-anchor="start" x="63.1527" y="-85.5" font-family="Helvetica,sans-Serif" font-size="10.00" fill="#000000">builtins/code/helios</text>
<text text-anchor="middle" x="105.1527" y="-74.5" font-family="Helvetica,sans-Serif" font-size="10.00" fill="#000000">_code.c</text>
</a>
</g>
</g>
<!-- Node9&#45;&gt;Node10 -->
<g id="edge1" class="edge">
<title>Node9&#45;&gt;Node10</title>
<path fill="none" stroke="#191970" d="M211.5467,-304.3046C187.3731,-253.9087 132.2279,-138.9449 112.4121,-97.6341"/>
<polygon fill="#191970" stroke="#191970" points="208.4682,-305.9793 215.9489,-313.4819 214.7796,-302.9518 208.4682,-305.9793"/>
</g>
<!-- Node11 -->
<g id="node3" class="node">
<title>Node11</title>
<g id="a_node3"><a xlink:href="helios__instruction_8c.html" target="_top" xlink:title=" ">
<polygon fill="#ffffff" stroke="#000000" points="173.1527,-67.5 173.1527,-97.5 273.1527,-97.5 273.1527,-67.5 173.1527,-67.5"/>
<text text-anchor="start" x="181.1527" y="-85.5" font-family="Helvetica,sans-Serif" font-size="10.00" fill="#000000">builtins/code/helios</text>
<text text-anchor="middle" x="223.1527" y="-74.5" font-family="Helvetica,sans-Serif" font-size="10.00" fill="#000000">_instruction.c</text>
</a>
</g>
</g>
<!-- Node9&#45;&gt;Node11 -->
<g id="edge2" class="edge">
<title>Node9&#45;&gt;Node11</title>
<path fill="none" stroke="#191970" d="M223.1527,-303.3521C223.1527,-252.4745 223.1527,-138.6867 223.1527,-97.6341"/>
<polygon fill="#191970" stroke="#191970" points="219.6528,-303.4819 223.1527,-313.4819 226.6528,-303.4819 219.6528,-303.4819"/>
</g>
<!-- Node12 -->
<g id="node4" class="node">
<title>Node12</title>
<g id="a_node4"><a xlink:href="builtins_8h.html" target="_top" xlink:title=" ">
<polygon fill="#ffffff" stroke="#000000" points="822.6527,-257.5 822.6527,-276.5 945.6527,-276.5 945.6527,-257.5 822.6527,-257.5"/>
<text text-anchor="middle" x="884.1527" y="-264.5" font-family="Helvetica,sans-Serif" font-size="10.00" fill="#000000">builtins/include/builtins.h</text>
</a>
</g>
</g>
<!-- Node9&#45;&gt;Node12 -->
<g id="edge3" class="edge">
<title>Node9&#45;&gt;Node12</title>
<path fill="none" stroke="#191970" d="M286.1473,-322.6389C412.7496,-310.8597 696.6518,-284.4452 822.301,-272.7547"/>
<polygon fill="#191970" stroke="#191970" points="285.4826,-319.1856 275.8499,-323.597 286.1312,-326.1555 285.4826,-319.1856"/>
</g>
<!-- Node13 -->
<g id="node5" class="node">
<title>Node13</title>
<g id="a_node5"><a xlink:href="serialize_8c.html" target="_top" xlink:title=" ">
<polygon fill="#ffffff" stroke="#000000" points="716.1527,-190.5 716.1527,-220.5 818.1527,-220.5 818.1527,-190.5 716.1527,-190.5"/>
<text text-anchor="start" x="724.1527" y="-208.5" font-family="Helvetica,sans-Serif" font-size="10.00" fill="#000000">builtins/serialization</text>
<text text-anchor="middle" x="767.1527" y="-197.5" font-family="Helvetica,sans-Serif" font-size="10.00" fill="#000000">/serialize.c</text>
</a>
</g>
</g>
<!-- Node12&#45;&gt;Node13 -->
<g id="edge4" class="edge">
<title>Node12&#45;&gt;Node13</title>
<path fill="none" stroke="#191970" d="M856.8667,-252.6574C838.5234,-243.0154 814.3898,-230.3298 795.7741,-220.5446"/>
<polygon fill="#191970" stroke="#191970" points="855.3913,-255.8359 865.8714,-257.3906 858.6483,-249.6397 855.3913,-255.8359"/>
</g>
<!-- Node14 -->
<g id="node6" class="node">
<title>Node14</title>
<g id="a_node6"><a xlink:href="executestack_8c.html" target="_top" xlink:title=" ">
<polygon fill="#ffffff" stroke="#000000" points="902.6527,-134.5 902.6527,-153.5 1007.6527,-153.5 1007.6527,-134.5 902.6527,-134.5"/>
<text text-anchor="middle" x="955.1527" y="-141.5" font-family="Helvetica,sans-Serif" font-size="10.00" fill="#000000">hvm/executestack.c</text>
</a>
</g>
</g>
<!-- Node12&#45;&gt;Node14 -->
<g id="edge5" class="edge">
<title>Node12&#45;&gt;Node14</title>
<path fill="none" stroke="#191970" d="M886.0943,-247.2738C888.4179,-230.9465 893.4391,-207.6515 904.1527,-190 913.3089,-174.9142 928.9239,-161.8969 940.4695,-153.5984"/>
<polygon fill="#191970" stroke="#191970" points="882.6067,-246.961 884.8798,-257.3091 889.556,-247.802 882.6067,-246.961"/>
</g>
<!-- Node15 -->
<g id="node7" class="node">
<title>Node15</title>
<g id="a_node7"><a xlink:href="hvm_8c.html" target="_top" xlink:title=" ">
<polygon fill="#ffffff" stroke="#000000" points="1025.6527,-134.5 1025.6527,-153.5 1090.6527,-153.5 1090.6527,-134.5 1025.6527,-134.5"/>
<text text-anchor="middle" x="1058.1527" y="-141.5" font-family="Helvetica,sans-Serif" font-size="10.00" fill="#000000">hvm/hvm.c</text>
</a>
</g>
</g>
<!-- Node12&#45;&gt;Node15 -->
<g id="edge6" class="edge">
<title>Node12&#45;&gt;Node15</title>
<path fill="none" stroke="#191970" d="M955.7432,-257.3972C998.8792,-249.9786 1047.9535,-238.0679 1061.1527,-221 1076.375,-201.3159 1067.8937,-169.5875 1062.1174,-153.7078"/>
<polygon fill="#191970" stroke="#191970" points="955.0826,-253.9589 945.7908,-259.0494 956.229,-260.8644 955.0826,-253.9589"/>
</g>
<!-- Node16 -->
<g id="node8" class="node">
<title>Node16</title>
<g id="a_node8"><a xlink:href="executestack_8h.html" target="_top" xlink:title=" ">
<polygon fill="#ffffff" stroke="#000000" points="912.6527,-196 912.6527,-215 1051.6527,-215 1051.6527,-196 912.6527,-196"/>
<text text-anchor="middle" x="982.1527" y="-203" font-family="Helvetica,sans-Serif" font-size="10.00" fill="#000000">hvm/include/executestack.h</text>
</a>
</g>
</g>
<!-- Node12&#45;&gt;Node16 -->
<g id="edge7" class="edge">
<title>Node12&#45;&gt;Node16</title>
<path fill="none" stroke="#191970" d="M908.1443,-251.944C926.4949,-240.4281 951.2389,-224.9 966.9477,-215.0419"/>
<polygon fill="#191970" stroke="#191970" points="906.075,-249.1105 899.4652,-257.3906 909.7959,-255.0397 906.075,-249.1105"/>
</g>
<!-- Node17 -->
<g id="node9" class="node">
<title>Node17</title>
<g id="a_node9"><a xlink:href="hvm_8h.html" target="_top" xlink:title=" ">
<polygon fill="#ffffff" stroke="#000000" points="1147.6527,-73 1147.6527,-92 1246.6527,-92 1246.6527,-73 1147.6527,-73"/>
<text text-anchor="middle" x="1197.1527" y="-80" font-family="Helvetica,sans-Serif" font-size="10.00" fill="#000000">hvm/include/hvm.h</text>
</a>
</g>
</g>
<!-- Node12&#45;&gt;Node17 -->
<g id="edge10" class="edge">
<title>Node12&#45;&gt;Node17</title>
<path fill="none" stroke="#191970" d="M955.8769,-261.0724C1019.3693,-254.5359 1106.0454,-242.0514 1133.1527,-221 1176.4582,-187.3692 1191.5753,-117.5711 1195.7757,-92.0836"/>
<polygon fill="#191970" stroke="#191970" points="955.5003,-257.5925 945.8985,-262.0708 956.1973,-264.5578 955.5003,-257.5925"/>
</g>
<!-- Node18 -->
<g id="node10" class="node">
<title>Node18</title>
<g id="a_node10"><a xlink:href="main_8c.html" target="_top" xlink:title=" ">
<polygon fill="#ffffff" stroke="#000000" points="995.1527,-6 995.1527,-25 1065.1527,-25 1065.1527,-6 995.1527,-6"/>
<text text-anchor="middle" x="1030.1527" y="-13" font-family="Helvetica,sans-Serif" font-size="10.00" fill="#000000">main/main.c</text>
</a>
</g>
</g>
<!-- Node12&#45;&gt;Node18 -->
<g id="edge12" class="edge">
<title>Node12&#45;&gt;Node18</title>
<path fill="none" stroke="#191970" d="M956.0093,-257.5998C1003.8898,-249.9572 1061.2028,-237.7006 1079.1527,-221 1108.2745,-193.9049 1110.6391,-172.37 1100.1527,-134 1087.9322,-89.285 1054.0338,-44.289 1038.331,-25.1168"/>
<polygon fill="#191970" stroke="#191970" points="955.2977,-254.1683 945.9528,-259.1606 956.3713,-261.0854 955.2977,-254.1683"/>
</g>
<!-- Node19 -->
<g id="node11" class="node">
<title>Node19</title>
<g id="a_node11"><a xlink:href="token_8h.html" target="_top" xlink:title=" ">
<polygon fill="#ffffff" stroke="#000000" points="584.6527,-196 584.6527,-215 697.6527,-215 697.6527,-196 584.6527,-196"/>
<text text-anchor="middle" x="641.1527" y="-203" font-family="Helvetica,sans-Serif" font-size="10.00" fill="#000000">parser/include/token.h</text>
</a>
</g>
</g>
<!-- Node12&#45;&gt;Node19 -->
<g id="edge13" class="edge">
<title>Node12&#45;&gt;Node19</title>
<path fill="none" stroke="#191970" d="M836.69,-254.9878C790.5726,-243.3162 721.4552,-225.8235 678.9433,-215.0643"/>
<polygon fill="#191970" stroke="#191970" points="835.8974,-258.3975 846.4505,-257.4581 837.6149,-251.6115 835.8974,-258.3975"/>
</g>
<!-- Node29 -->
<g id="node21" class="node">
<title>Node29</title>
<g id="a_node21"><a xlink:href="token_8c.html" target="_top" xlink:title=" ">
<polygon fill="#ffffff" stroke="#000000" points="805.6527,-134.5 805.6527,-153.5 884.6527,-153.5 884.6527,-134.5 805.6527,-134.5"/>
<text text-anchor="middle" x="845.1527" y="-141.5" font-family="Helvetica,sans-Serif" font-size="10.00" fill="#000000">parser/token.c</text>
</a>
</g>
</g>
<!-- Node12&#45;&gt;Node29 -->
<g id="edge41" class="edge">
<title>Node12&#45;&gt;Node29</title>
<path fill="none" stroke="#191970" d="M877.9976,-247.5879C869.5254,-220.8678 854.5937,-173.7756 848.1987,-153.6068"/>
<polygon fill="#191970" stroke="#191970" points="874.7336,-248.874 881.0924,-257.3484 881.4062,-246.7582 874.7336,-248.874"/>
</g>
<!-- Node16&#45;&gt;Node14 -->
<g id="edge8" class="edge">
<title>Node16&#45;&gt;Node14</title>
<path fill="none" stroke="#191970" d="M973.7756,-186.4189C969.0215,-175.5901 963.2722,-162.4944 959.4309,-153.7449"/>
<polygon fill="#191970" stroke="#191970" points="970.7092,-188.1412 977.9339,-195.8906 977.1187,-185.3272 970.7092,-188.1412"/>
</g>
<!-- Node16&#45;&gt;Node15 -->
<g id="edge9" class="edge">
<title>Node16&#45;&gt;Node15</title>
<path fill="none" stroke="#191970" d="M1002.0866,-189.3692C1016.0652,-178.0576 1034.2946,-163.3062 1046.1102,-153.7449"/>
<polygon fill="#191970" stroke="#191970" points="999.5996,-186.8793 994.0277,-195.8906 1004.003,-192.3209 999.5996,-186.8793"/>
</g>
<!-- Node17&#45;&gt;Node18 -->
<g id="edge11" class="edge">
<title>Node17&#45;&gt;Node18</title>
<path fill="none" stroke="#191970" d="M1163.7043,-69.0806C1131.2425,-56.057 1082.7855,-36.6162 1054.0353,-25.0817"/>
<polygon fill="#191970" stroke="#191970" points="1162.6415,-72.4253 1173.2256,-72.9005 1165.2479,-65.9287 1162.6415,-72.4253"/>
</g>
<!-- Node20 -->
<g id="node12" class="node">
<title>Node20</title>
<g id="a_node12"><a xlink:href="AST_8c.html" target="_top" xlink:title=" ">
<polygon fill="#ffffff" stroke="#000000" points="574.1527,-6 574.1527,-25 648.1527,-25 648.1527,-6 574.1527,-6"/>
<text text-anchor="middle" x="611.1527" y="-13" font-family="Helvetica,sans-Serif" font-size="10.00" fill="#000000">parser/AST.c</text>
</a>
</g>
</g>
<!-- Node19&#45;&gt;Node20 -->
<g id="edge14" class="edge">
<title>Node19&#45;&gt;Node20</title>
<path fill="none" stroke="#191970" d="M639.7972,-185.5752C637.743,-158.5375 633.2018,-108.8028 625.1527,-67 622.3146,-52.2607 617.4622,-35.5526 614.2813,-25.2698"/>
<polygon fill="#191970" stroke="#191970" points="636.3159,-185.9624 640.5282,-195.6839 643.2977,-185.4574 636.3159,-185.9624"/>
</g>
<!-- Node21 -->
<g id="node13" class="node">
<title>Node21</title>
<g id="a_node13"><a xlink:href="AST_8h.html" target="_top" xlink:title=" ">
<polygon fill="#ffffff" stroke="#000000" points="442.6527,-134.5 442.6527,-153.5 549.6527,-153.5 549.6527,-134.5 442.6527,-134.5"/>
<text text-anchor="middle" x="496.1527" y="-141.5" font-family="Helvetica,sans-Serif" font-size="10.00" fill="#000000">parser/include/AST.h</text>
</a>
</g>
</g>
<!-- Node19&#45;&gt;Node21 -->
<g id="edge15" class="edge">
<title>Node19&#45;&gt;Node21</title>
<path fill="none" stroke="#191970" d="M608.9528,-191.8428C581.5351,-180.2139 542.8477,-163.8051 518.6498,-153.5419"/>
<polygon fill="#191970" stroke="#191970" points="607.9236,-195.208 618.4964,-195.8906 610.6569,-188.7637 607.9236,-195.208"/>
</g>
<!-- Node23 -->
<g id="node15" class="node">
<title>Node23</title>
<g id="a_node15"><a xlink:href="compound_8c.html" target="_top" xlink:title=" ">
<polygon fill="#ffffff" stroke="#000000" points="344.1527,-.5 344.1527,-30.5 442.1527,-30.5 442.1527,-.5 344.1527,-.5"/>
<text text-anchor="start" x="352.1527" y="-18.5" font-family="Helvetica,sans-Serif" font-size="10.00" fill="#000000">parser/parserfuncs</text>
<text text-anchor="middle" x="393.1527" y="-7.5" font-family="Helvetica,sans-Serif" font-size="10.00" fill="#000000">/compound.c</text>
</a>
</g>
</g>
<!-- Node19&#45;&gt;Node23 -->
<g id="edge35" class="edge">
<title>Node19&#45;&gt;Node23</title>
<path fill="none" stroke="#191970" d="M574.6196,-196.3675C521.7096,-187.8069 453.3307,-173.4168 433.1527,-154 398.5269,-120.6804 393.3398,-59.434 392.9103,-30.8932"/>
<polygon fill="#191970" stroke="#191970" points="574.2162,-199.8471 584.6398,-197.9498 575.3081,-192.9328 574.2162,-199.8471"/>
</g>
<!-- Node24 -->
<g id="node16" class="node">
<title>Node24</title>
<g id="a_node16"><a xlink:href="expressions_8c.html" target="_top" xlink:title=" ">
<polygon fill="#ffffff" stroke="#000000" points="666.1527,-.5 666.1527,-30.5 764.1527,-30.5 764.1527,-.5 666.1527,-.5"/>
<text text-anchor="start" x="674.1527" y="-18.5" font-family="Helvetica,sans-Serif" font-size="10.00" fill="#000000">parser/parserfuncs</text>
<text text-anchor="middle" x="715.1527" y="-7.5" font-family="Helvetica,sans-Serif" font-size="10.00" fill="#000000">/expressions.c</text>
</a>
</g>
</g>
<!-- Node19&#45;&gt;Node24 -->
<g id="edge36" class="edge">
<title>Node19&#45;&gt;Node24</title>
<path fill="none" stroke="#191970" d="M648.5654,-186.4673C663.2657,-148.7233 695.8442,-65.0758 709.2322,-30.7011"/>
<polygon fill="#191970" stroke="#191970" points="645.292,-185.2282 644.9241,-195.8167 651.8147,-187.7687 645.292,-185.2282"/>
</g>
<!-- Node25 -->
<g id="node17" class="node">
<title>Node25</title>
<g id="a_node17"><a xlink:href="floats_8c.html" target="_top" xlink:title=" ">
<polygon fill="#ffffff" stroke="#000000" points="782.1527,-.5 782.1527,-30.5 880.1527,-30.5 880.1527,-.5 782.1527,-.5"/>
<text text-anchor="start" x="790.1527" y="-18.5" font-family="Helvetica,sans-Serif" font-size="10.00" fill="#000000">parser/parserfuncs</text>
<text text-anchor="middle" x="831.1527" y="-7.5" font-family="Helvetica,sans-Serif" font-size="10.00" fill="#000000">/floats.c</text>
</a>
</g>
</g>
<!-- Node19&#45;&gt;Node25 -->
<g id="edge37" class="edge">
<title>Node19&#45;&gt;Node25</title>
<path fill="none" stroke="#191970" d="M658.2905,-188.3621C695.0553,-151.5974 780.9892,-65.6634 815.9516,-30.7011"/>
<polygon fill="#191970" stroke="#191970" points="655.4322,-186.2707 650.836,-195.8167 660.382,-191.2204 655.4322,-186.2707"/>
</g>
<!-- Node26 -->
<g id="node18" class="node">
<title>Node26</title>
<g id="a_node18"><a xlink:href="integers_8c.html" target="_top" xlink:title=" ">
<polygon fill="#ffffff" stroke="#000000" points="112.1527,-.5 112.1527,-30.5 210.1527,-30.5 210.1527,-.5 112.1527,-.5"/>
<text text-anchor="start" x="120.1527" y="-18.5" font-family="Helvetica,sans-Serif" font-size="10.00" fill="#000000">parser/parserfuncs</text>
<text text-anchor="middle" x="161.1527" y="-7.5" font-family="Helvetica,sans-Serif" font-size="10.00" fill="#000000">/integers.c</text>
</a>
</g>
</g>
<!-- Node19&#45;&gt;Node26 -->
<g id="edge38" class="edge">
<title>Node19&#45;&gt;Node26</title>
<path fill="none" stroke="#191970" d="M574.2001,-202.9919C449.9587,-197.6965 188.5972,-183.3702 103.1527,-154 59.3116,-138.9303 37.4609,-138.6384 15.1527,-98 -8.2439,-55.379 61.0154,-33.257 112,-23.0267"/>
<polygon fill="#191970" stroke="#191970" points="574.2084,-206.4952 584.3462,-203.4172 574.5016,-199.5013 574.2084,-206.4952"/>
</g>
<!-- Node27 -->
<g id="node19" class="node">
<title>Node27</title>
<g id="a_node19"><a xlink:href="parser_8c.html" target="_top" xlink:title=" ">
<polygon fill="#ffffff" stroke="#000000" points="228.1527,-.5 228.1527,-30.5 326.1527,-30.5 326.1527,-.5 228.1527,-.5"/>
<text text-anchor="start" x="236.1527" y="-18.5" font-family="Helvetica,sans-Serif" font-size="10.00" fill="#000000">parser/parserfuncs</text>
<text text-anchor="middle" x="277.1527" y="-7.5" font-family="Helvetica,sans-Serif" font-size="10.00" fill="#000000">/parser.c</text>
</a>
</g>
</g>
<!-- Node19&#45;&gt;Node27 -->
<g id="edge39" class="edge">
<title>Node19&#45;&gt;Node27</title>
<path fill="none" stroke="#191970" d="M574.2429,-203.7499C433.2069,-198.5033 112.8811,-177.8648 46.1527,-98 -38.2961,3.0736 -18.0662,-87.3324 219.1527,-31 221.9921,-30.3257 224.9042,-29.6135 227.8392,-28.8797"/>
<polygon fill="#191970" stroke="#191970" points="574.369,-207.2565 584.4875,-204.1155 574.6188,-200.2609 574.369,-207.2565"/>
</g>
<!-- Node19&#45;&gt;Node29 -->
<g id="edge40" class="edge">
<title>Node19&#45;&gt;Node29</title>
<path fill="none" stroke="#191970" d="M682.9476,-192.9001C721.667,-181.2273 778.4124,-164.1202 813.5015,-153.5419"/>
<polygon fill="#191970" stroke="#191970" points="681.5918,-189.6531 673.0277,-195.8906 683.6123,-196.3552 681.5918,-189.6531"/>
</g>
<!-- Node21&#45;&gt;Node10 -->
<g id="edge16" class="edge">
<title>Node21&#45;&gt;Node10</title>
<path fill="none" stroke="#191970" d="M432.6394,-137.4791C365.5393,-130.0591 256.8264,-116.5248 164.1527,-98 161.2448,-97.4187 158.2672,-96.7792 155.27,-96.1011"/>
<polygon fill="#191970" stroke="#191970" points="432.3148,-140.9644 442.6363,-138.5733 433.0765,-134.0059 432.3148,-140.9644"/>
</g>
<!-- Node21&#45;&gt;Node11 -->
<g id="edge17" class="edge">
<title>Node21&#45;&gt;Node11</title>
<path fill="none" stroke="#191970" d="M444.0121,-132.254C394.9496,-121.2015 321.9693,-104.7609 273.5003,-93.8421"/>
<polygon fill="#191970" stroke="#191970" points="443.2712,-135.6748 453.796,-134.4581 444.8096,-128.8459 443.2712,-135.6748"/>
</g>
<!-- Node21&#45;&gt;Node18 -->
<g id="edge18" class="edge">
<title>Node21&#45;&gt;Node18</title>
<path fill="none" stroke="#191970" d="M552.2541,-132.3343C594.8413,-123.342 654.7984,-110.3889 707.1527,-98 812.1918,-73.144 935.613,-40.7183 994.8851,-24.9442"/>
<polygon fill="#191970" stroke="#191970" points="551.4233,-128.9325 542.3594,-134.4184 552.8661,-135.7822 551.4233,-128.9325"/>
</g>
<!-- Node21&#45;&gt;Node20 -->
<g id="edge19" class="edge">
<title>Node21&#45;&gt;Node20</title>
<path fill="none" stroke="#191970" d="M557.5569,-131.2C575.6994,-124.3633 593.738,-113.9206 605.1527,-98 620.8841,-76.0586 616.7458,-41.8508 613.4374,-25.2261"/>
<polygon fill="#191970" stroke="#191970" points="556.4113,-127.8927 548.0945,-134.4563 558.6892,-134.5117 556.4113,-127.8927"/>
</g>
<!-- Node22 -->
<g id="node14" class="node">
<title>Node22</title>
<g id="a_node14"><a xlink:href="parser_8h.html" target="_top" xlink:title=" ">
<polygon fill="#ffffff" stroke="#000000" points="481.6527,-73 481.6527,-92 596.6527,-92 596.6527,-73 481.6527,-73"/>
<text text-anchor="middle" x="539.1527" y="-80" font-family="Helvetica,sans-Serif" font-size="10.00" fill="#000000">parser/include/parser.h</text>
</a>
</g>
</g>
<!-- Node21&#45;&gt;Node22 -->
<g id="edge20" class="edge">
<title>Node21&#45;&gt;Node22</title>
<path fill="none" stroke="#191970" d="M508.7961,-125.9169C516.496,-114.9043 526.0324,-101.265 532.3392,-92.2449"/>
<polygon fill="#191970" stroke="#191970" points="505.7332,-124.1896 502.8714,-134.3906 511.47,-128.2007 505.7332,-124.1896"/>
</g>
<!-- Node21&#45;&gt;Node23 -->
<g id="edge29" class="edge">
<title>Node21&#45;&gt;Node23</title>
<path fill="none" stroke="#191970" d="M481.9723,-126.3089C461.6302,-100.9308 424.5111,-54.6219 405.3376,-30.7016"/>
<polygon fill="#191970" stroke="#191970" points="479.4256,-128.7279 488.4109,-134.3416 484.8875,-124.3498 479.4256,-128.7279"/>
</g>
<!-- Node21&#45;&gt;Node24 -->
<g id="edge30" class="edge">
<title>Node21&#45;&gt;Node24</title>
<path fill="none" stroke="#191970" d="M544.8673,-131.6566C569.9293,-124.0872 600.3407,-112.9487 625.1527,-98 656.1992,-79.2951 685.9259,-48.7688 702.2436,-30.5595"/>
<polygon fill="#191970" stroke="#191970" points="543.8121,-128.3184 535.1952,-134.4828 545.7755,-135.0375 543.8121,-128.3184"/>
</g>
<!-- Node21&#45;&gt;Node25 -->
<g id="edge31" class="edge">
<title>Node21&#45;&gt;Node25</title>
<path fill="none" stroke="#191970" d="M547.052,-132.0412C579.5713,-123.8145 622.3834,-111.8882 659.1527,-98 711.6673,-78.1646 770.0439,-48.4285 803.4982,-30.5981"/>
<polygon fill="#191970" stroke="#191970" points="546.1628,-128.6557 537.3083,-134.4736 547.8583,-135.4473 546.1628,-128.6557"/>
</g>
<!-- Node21&#45;&gt;Node26 -->
<g id="edge32" class="edge">
<title>Node21&#45;&gt;Node26</title>
<path fill="none" stroke="#191970" d="M457.4733,-131.2453C430.8265,-122.3064 394.6773,-109.879 363.1527,-98 304.1311,-75.7596 236.4361,-47.551 196.3165,-30.5453"/>
<polygon fill="#191970" stroke="#191970" points="456.5974,-134.6428 467.1912,-134.492 458.8156,-128.0035 456.5974,-134.6428"/>
</g>
<!-- Node21&#45;&gt;Node27 -->
<g id="edge33" class="edge">
<title>Node21&#45;&gt;Node27</title>
<path fill="none" stroke="#191970" d="M470.9319,-129.2015C429.0131,-104.6053 345.4296,-55.562 303.0605,-30.7016"/>
<polygon fill="#191970" stroke="#191970" points="469.2959,-132.2996 479.6921,-134.3416 472.8384,-126.2621 469.2959,-132.2996"/>
</g>
<!-- Node28 -->
<g id="node20" class="node">
<title>Node28</title>
<g id="a_node20"><a xlink:href="parserutil_8c.html" target="_top" xlink:title=" ">
<polygon fill="#ffffff" stroke="#000000" points="460.6527,-6 460.6527,-25 555.6527,-25 555.6527,-6 460.6527,-6"/>
<text text-anchor="middle" x="508.1527" y="-13" font-family="Helvetica,sans-Serif" font-size="10.00" fill="#000000">parser/parserutil.c</text>
</a>
</g>
</g>
<!-- Node21&#45;&gt;Node28 -->
<g id="edge34" class="edge">
<title>Node21&#45;&gt;Node28</title>
<path fill="none" stroke="#191970" d="M484.0279,-125.7224C479.3348,-117.5929 474.527,-107.6836 472.1527,-98 468.8717,-84.6186 468.0148,-80.1417 472.1527,-67 477.3291,-50.5597 489.829,-34.7955 498.6407,-25.1353"/>
<polygon fill="#191970" stroke="#191970" points="481.1054,-127.6514 489.3319,-134.328 487.0645,-123.9786 481.1054,-127.6514"/>
</g>
<!-- Node22&#45;&gt;Node18 -->
<g id="edge21" class="edge">
<title>Node22&#45;&gt;Node18</title>
<path fill="none" stroke="#191970" d="M606.8693,-73.2596C712.8217,-58.8018 914.0435,-31.3438 995.0593,-20.2887"/>
<polygon fill="#191970" stroke="#191970" points="606.3554,-69.7972 596.9204,-74.6172 607.3019,-76.733 606.3554,-69.7972"/>
</g>
<!-- Node22&#45;&gt;Node20 -->
<g id="edge22" class="edge">
<title>Node22&#45;&gt;Node20</title>
<path fill="none" stroke="#191970" d="M556.9484,-65.94C570.7597,-53.0879 589.4224,-35.7212 600.856,-25.0817"/>
<polygon fill="#191970" stroke="#191970" points="554.4049,-63.5259 549.4685,-72.9005 559.1735,-68.6504 554.4049,-63.5259"/>
</g>
<!-- Node22&#45;&gt;Node23 -->
<g id="edge23" class="edge">
<title>Node22&#45;&gt;Node23</title>
<path fill="none" stroke="#191970" d="M509.1439,-68.7289C484.9007,-57.6035 450.8299,-41.9683 425.8867,-30.5218"/>
<polygon fill="#191970" stroke="#191970" points="507.6859,-71.9107 518.2344,-72.9005 510.6056,-65.5486 507.6859,-71.9107"/>
</g>
<!-- Node22&#45;&gt;Node24 -->
<g id="edge24" class="edge">
<title>Node22&#45;&gt;Node24</title>
<path fill="none" stroke="#191970" d="M573.7871,-69.3153C603.095,-58.1583 645.0918,-42.1709 675.6925,-30.5218"/>
<polygon fill="#191970" stroke="#191970" points="572.4697,-66.0717 564.3692,-72.9005 574.9601,-72.6137 572.4697,-66.0717"/>
</g>
<!-- Node22&#45;&gt;Node25 -->
<g id="edge25" class="edge">
<title>Node22&#45;&gt;Node25</title>
<path fill="none" stroke="#191970" d="M595.2545,-70.8854C642.7584,-60.8757 712.5926,-45.7485 773.1527,-31 776.0895,-30.2848 779.1052,-29.5327 782.1442,-28.7613"/>
<polygon fill="#191970" stroke="#191970" points="594.5346,-67.4602 585.468,-72.9417 595.974,-74.3106 594.5346,-67.4602"/>
</g>
<!-- Node22&#45;&gt;Node26 -->
<g id="edge26" class="edge">
<title>Node22&#45;&gt;Node26</title>
<path fill="none" stroke="#191970" d="M471.4786,-73.644C406.4548,-64.6559 305.6025,-49.4581 219.1527,-31 216.2986,-30.3906 213.375,-29.7291 210.4313,-29.0342"/>
<polygon fill="#191970" stroke="#191970" points="471.2162,-77.1407 481.5992,-75.0327 472.1679,-70.2057 471.2162,-77.1407"/>
</g>
<!-- Node22&#45;&gt;Node27 -->
<g id="edge27" class="edge">
<title>Node22&#45;&gt;Node27</title>
<path fill="none" stroke="#191970" d="M490.9488,-70.5308C449.5812,-60.2112 388.39,-44.8328 335.1527,-31 332.2272,-30.2399 329.2202,-29.453 326.1878,-28.6553"/>
<polygon fill="#191970" stroke="#191970" points="490.2119,-73.9541 500.7615,-72.9765 491.9049,-67.1619 490.2119,-73.9541"/>
</g>
<!-- Node22&#45;&gt;Node28 -->
<g id="edge28" class="edge">
<title>Node22&#45;&gt;Node28</title>
<path fill="none" stroke="#191970" d="M530.4715,-63.7374C524.6527,-51.1614 517.2327,-35.1246 512.586,-25.0817"/>
<polygon fill="#191970" stroke="#191970" points="527.3354,-65.2946 534.7111,-72.9005 533.6884,-62.3552 527.3354,-65.2946"/>
</g>
</g>
</svg>
