<?xml version="1.0" encoding="UTF-8" standalone="no"?>
<!DOCTYPE svg PUBLIC "-//W3C//DTD SVG 1.1//EN"
 "http://www.w3.org/Graphics/SVG/1.1/DTD/svg11.dtd">
<!-- Generated by graphviz version 2.40.1 (20161225.0304)
 -->
<!-- Title: builtins/string/include/helios_string.h Pages: 1 -->
<svg width="1448pt" height="363pt"
 viewBox="0.00 0.00 1448.00 363.00" xmlns="http://www.w3.org/2000/svg" xmlns:xlink="http://www.w3.org/1999/xlink">
<g id="graph0" class="graph" transform="scale(1 1) rotate(0) translate(4 359)">
<title>builtins/string/include/helios_string.h</title>
<polygon fill="#ffffff" stroke="transparent" points="-4,4 -4,-359 1444,-359 1444,4 -4,4"/>
<!-- Node9 -->
<g id="node1" class="node">
<title>Node9</title>
<g id="a_node1"><a xlink:title=" ">
<polygon fill="#bfbfbf" stroke="#000000" points="900.5,-324.5 900.5,-354.5 1008.5,-354.5 1008.5,-324.5 900.5,-324.5"/>
<text text-anchor="start" x="908.5" y="-342.5" font-family="Helvetica,sans-Serif" font-size="10.00" fill="#000000">builtins/string/include</text>
<text text-anchor="middle" x="954.5" y="-331.5" font-family="Helvetica,sans-Serif" font-size="10.00" fill="#000000">/helios_string.h</text>
</a>
</g>
</g>
<!-- Node10 -->
<g id="node2" class="node">
<title>Node10</title>
<g id="a_node2"><a xlink:href="helios__boolean_8c.html" target="_top" xlink:title=" ">
<polygon fill="#ffffff" stroke="#000000" points="0,-257.5 0,-287.5 113,-287.5 113,-257.5 0,-257.5"/>
<text text-anchor="start" x="8" y="-275.5" font-family="Helvetica,sans-Serif" font-size="10.00" fill="#000000">builtins/boolean/helios</text>
<text text-anchor="middle" x="56.5" y="-264.5" font-family="Helvetica,sans-Serif" font-size="10.00" fill="#000000">_boolean.c</text>
</a>
</g>
</g>
<!-- Node9&#45;&gt;Node10 -->
<g id="edge1" class="edge">
<title>Node9&#45;&gt;Node10</title>
<path fill="none" stroke="#191970" d="M889.9186,-338.827C750.1945,-336.6384 409.6645,-327.3504 127.5,-288 122.8766,-287.3552 118.1065,-286.573 113.3286,-285.7066"/>
<polygon fill="#191970" stroke="#191970" points="889.9757,-342.3282 900.027,-338.9784 890.0806,-335.329 889.9757,-342.3282"/>
</g>
<!-- Node11 -->
<g id="node3" class="node">
<title>Node11</title>
<g id="a_node3"><a xlink:href="helios__code_8c.html" target="_top" xlink:title=" ">
<polygon fill="#ffffff" stroke="#000000" points="130.5,-67.5 130.5,-97.5 230.5,-97.5 230.5,-67.5 130.5,-67.5"/>
<text text-anchor="start" x="138.5" y="-85.5" font-family="Helvetica,sans-Serif" font-size="10.00" fill="#000000">builtins/code/helios</text>
<text text-anchor="middle" x="180.5" y="-74.5" font-family="Helvetica,sans-Serif" font-size="10.00" fill="#000000">_code.c</text>
</a>
</g>
</g>
<!-- Node9&#45;&gt;Node11 -->
<g id="edge2" class="edge">
<title>Node9&#45;&gt;Node11</title>
<path fill="none" stroke="#191970" d="M890.189,-328.6944C841.0177,-319.742 771.8175,-305.6463 712.5,-288 519.3747,-230.5473 297.1172,-134.5798 214.0792,-97.6344"/>
<polygon fill="#191970" stroke="#191970" points="889.5949,-332.1437 900.0568,-330.471 890.8352,-325.2544 889.5949,-332.1437"/>
</g>
<!-- Node12 -->
<g id="node4" class="node">
<title>Node12</title>
<g id="a_node4"><a xlink:href="helios__instruction_8c.html" target="_top" xlink:title=" ">
<polygon fill="#ffffff" stroke="#000000" points="248.5,-67.5 248.5,-97.5 348.5,-97.5 348.5,-67.5 248.5,-67.5"/>
<text text-anchor="start" x="256.5" y="-85.5" font-family="Helvetica,sans-Serif" font-size="10.00" fill="#000000">builtins/code/helios</text>
<text text-anchor="middle" x="298.5" y="-74.5" font-family="Helvetica,sans-Serif" font-size="10.00" fill="#000000">_instruction.c</text>
</a>
</g>
</g>
<!-- Node9&#45;&gt;Node12 -->
<g id="edge3" class="edge">
<title>Node9&#45;&gt;Node12</title>
<path fill="none" stroke="#191970" d="M899.0042,-321.1472C832.2113,-298.7652 716.8776,-259.1803 619.5,-221 512.9843,-179.2368 389.2901,-123.8847 331.466,-97.5985"/>
<polygon fill="#191970" stroke="#191970" points="898.304,-324.6035 908.8978,-324.4556 900.524,-317.9649 898.304,-324.6035"/>
</g>
<!-- Node13 -->
<g id="node5" class="node">
<title>Node13</title>
<g id="a_node5"><a xlink:href="helios__float_8c.html" target="_top" xlink:title=" ">
<polygon fill="#ffffff" stroke="#000000" points="970.5,-257.5 970.5,-287.5 1068.5,-287.5 1068.5,-257.5 970.5,-257.5"/>
<text text-anchor="start" x="978.5" y="-275.5" font-family="Helvetica,sans-Serif" font-size="10.00" fill="#000000">builtins/float/helios</text>
<text text-anchor="middle" x="1019.5" y="-264.5" font-family="Helvetica,sans-Serif" font-size="10.00" fill="#000000">_float.c</text>
</a>
</g>
</g>
<!-- Node9&#45;&gt;Node13 -->
<g id="edge4" class="edge">
<title>Node9&#45;&gt;Node13</title>
<path fill="none" stroke="#191970" d="M976.4008,-316.9253C985.7555,-307.2828 996.4257,-296.2843 1004.8089,-287.6432"/>
<polygon fill="#191970" stroke="#191970" points="973.7006,-314.6821 969.2495,-324.2967 978.7248,-319.5564 973.7006,-314.6821"/>
</g>
<!-- Node14 -->
<g id="node6" class="node">
<title>Node14</title>
<g id="a_node6"><a xlink:href="strtod_8c.html" target="_top" xlink:title=" ">
<polygon fill="#ffffff" stroke="#000000" points="1087,-263 1087,-282 1192,-282 1192,-263 1087,-263"/>
<text text-anchor="middle" x="1139.5" y="-270" font-family="Helvetica,sans-Serif" font-size="10.00" fill="#000000">builtins/float/strtod.c</text>
</a>
</g>
</g>
<!-- Node9&#45;&gt;Node14 -->
<g id="edge5" class="edge">
<title>Node9&#45;&gt;Node14</title>
<path fill="none" stroke="#191970" d="M1005.5812,-321.0003C1040.5006,-308.3538 1085.3445,-292.1131 1113.2541,-282.0053"/>
<polygon fill="#191970" stroke="#191970" points="1004.2282,-317.7678 996.0176,-324.4639 1006.6118,-324.3495 1004.2282,-317.7678"/>
</g>
<!-- Node15 -->
<g id="node7" class="node">
<title>Node15</title>
<g id="a_node7"><a xlink:href="builtins_8h.html" target="_top" xlink:title=" ">
<polygon fill="#ffffff" stroke="#000000" points="829,-263 829,-282 952,-282 952,-263 829,-263"/>
<text text-anchor="middle" x="890.5" y="-270" font-family="Helvetica,sans-Serif" font-size="10.00" fill="#000000">builtins/include/builtins.h</text>
</a>
</g>
</g>
<!-- Node9&#45;&gt;Node15 -->
<g id="edge6" class="edge">
<title>Node9&#45;&gt;Node15</title>
<path fill="none" stroke="#191970" d="M932.8783,-316.8648C921.5429,-304.998 908.2591,-291.0916 899.6271,-282.055"/>
<polygon fill="#191970" stroke="#191970" points="930.5392,-319.4831 939.9774,-324.2967 935.601,-314.648 930.5392,-319.4831"/>
</g>
<!-- Node33 -->
<g id="node25" class="node">
<title>Node33</title>
<g id="a_node25"><a xlink:href="helios__integer_8c.html" target="_top" xlink:title=" ">
<polygon fill="#ffffff" stroke="#000000" points="1210.5,-257.5 1210.5,-287.5 1318.5,-287.5 1318.5,-257.5 1210.5,-257.5"/>
<text text-anchor="start" x="1218.5" y="-275.5" font-family="Helvetica,sans-Serif" font-size="10.00" fill="#000000">builtins/integer/helios</text>
<text text-anchor="middle" x="1264.5" y="-264.5" font-family="Helvetica,sans-Serif" font-size="10.00" fill="#000000">_integer.c</text>
</a>
</g>
</g>
<!-- Node9&#45;&gt;Node33 -->
<g id="edge45" class="edge">
<title>Node9&#45;&gt;Node33</title>
<path fill="none" stroke="#191970" d="M1018.5976,-326.7883C1068.5373,-316.7268 1139.5582,-302.0726 1201.5,-288 1204.3558,-287.3512 1207.2813,-286.6743 1210.233,-285.9817"/>
<polygon fill="#191970" stroke="#191970" points="1017.7002,-323.3986 1008.586,-328.8008 1019.0797,-330.2613 1017.7002,-323.3986"/>
</g>
<!-- Node34 -->
<g id="node26" class="node">
<title>Node34</title>
<g id="a_node26"><a xlink:href="helios__string_8c.html" target="_top" xlink:title=" ">
<polygon fill="#ffffff" stroke="#000000" points="1337,-257.5 1337,-287.5 1440,-287.5 1440,-257.5 1337,-257.5"/>
<text text-anchor="start" x="1345" y="-275.5" font-family="Helvetica,sans-Serif" font-size="10.00" fill="#000000">builtins/string/helios</text>
<text text-anchor="middle" x="1388.5" y="-264.5" font-family="Helvetica,sans-Serif" font-size="10.00" fill="#000000">_string.c</text>
</a>
</g>
</g>
<!-- Node9&#45;&gt;Node34 -->
<g id="edge46" class="edge">
<title>Node9&#45;&gt;Node34</title>
<path fill="none" stroke="#191970" d="M1018.7269,-332.8388C1093.3405,-324.5911 1219.9619,-309.0184 1327.5,-288 1330.5027,-287.4131 1333.5783,-286.7692 1336.6749,-286.0877"/>
<polygon fill="#191970" stroke="#191970" points="1018.1104,-329.3853 1008.5512,-333.9537 1018.8729,-336.3436 1018.1104,-329.3853"/>
</g>
<!-- Node16 -->
<g id="node8" class="node">
<title>Node16</title>
<g id="a_node8"><a xlink:href="serialize_8c.html" target="_top" xlink:title=" ">
<polygon fill="#ffffff" stroke="#000000" points="760.5,-190.5 760.5,-220.5 862.5,-220.5 862.5,-190.5 760.5,-190.5"/>
<text text-anchor="start" x="768.5" y="-208.5" font-family="Helvetica,sans-Serif" font-size="10.00" fill="#000000">builtins/serialization</text>
<text text-anchor="middle" x="811.5" y="-197.5" font-family="Helvetica,sans-Serif" font-size="10.00" fill="#000000">/serialize.c</text>
</a>
</g>
</g>
<!-- Node15&#45;&gt;Node16 -->
<g id="edge7" class="edge">
<title>Node15&#45;&gt;Node16</title>
<path fill="none" stroke="#191970" d="M871.4,-256.3012C858.5589,-245.4107 841.7534,-231.1579 829.2122,-220.5218"/>
<polygon fill="#191970" stroke="#191970" points="869.2908,-259.1017 879.1812,-262.9005 873.8185,-253.7631 869.2908,-259.1017"/>
</g>
<!-- Node17 -->
<g id="node9" class="node">
<title>Node17</title>
<g id="a_node9"><a xlink:href="executestack_8c.html" target="_top" xlink:title=" ">
<polygon fill="#ffffff" stroke="#000000" points="959,-134.5 959,-153.5 1064,-153.5 1064,-134.5 959,-134.5"/>
<text text-anchor="middle" x="1011.5" y="-141.5" font-family="Helvetica,sans-Serif" font-size="10.00" fill="#000000">hvm/executestack.c</text>
</a>
</g>
</g>
<!-- Node15&#45;&gt;Node17 -->
<g id="edge8" class="edge">
<title>Node15&#45;&gt;Node17</title>
<path fill="none" stroke="#191970" d="M901.0132,-254.0895C911.6138,-236.4616 929.1422,-209.7079 948.5,-190 962.8299,-175.4109 982.1737,-162.0283 995.6309,-153.5046"/>
<polygon fill="#191970" stroke="#191970" points="897.9191,-252.4466 895.8691,-262.8412 903.9538,-255.9937 897.9191,-252.4466"/>
</g>
<!-- Node18 -->
<g id="node10" class="node">
<title>Node18</title>
<g id="a_node10"><a xlink:href="hvm_8c.html" target="_top" xlink:title=" ">
<polygon fill="#ffffff" stroke="#000000" points="1082,-134.5 1082,-153.5 1147,-153.5 1147,-134.5 1082,-134.5"/>
<text text-anchor="middle" x="1114.5" y="-141.5" font-family="Helvetica,sans-Serif" font-size="10.00" fill="#000000">hvm/hvm.c</text>
</a>
</g>
</g>
<!-- Node15&#45;&gt;Node18 -->
<g id="edge9" class="edge">
<title>Node15&#45;&gt;Node18</title>
<path fill="none" stroke="#191970" d="M942.7825,-260.7472C1005.5326,-246.5302 1102.7448,-224.1034 1105.5,-221 1122.2094,-202.1785 1119.3096,-169.768 1116.5326,-153.6641"/>
<polygon fill="#191970" stroke="#191970" points="942.0083,-257.3338 933.0271,-262.9542 943.553,-264.1612 942.0083,-257.3338"/>
</g>
<!-- Node19 -->
<g id="node11" class="node">
<title>Node19</title>
<g id="a_node11"><a xlink:href="executestack_8h.html" target="_top" xlink:title=" ">
<polygon fill="#ffffff" stroke="#000000" points="957,-196 957,-215 1096,-215 1096,-196 957,-196"/>
<text text-anchor="middle" x="1026.5" y="-203" font-family="Helvetica,sans-Serif" font-size="10.00" fill="#000000">hvm/include/executestack.h</text>
</a>
</g>
</g>
<!-- Node15&#45;&gt;Node19 -->
<g id="edge10" class="edge">
<title>Node15&#45;&gt;Node19</title>
<path fill="none" stroke="#191970" d="M919.1182,-258.4013C945.5314,-245.389 984.041,-226.4173 1007.0507,-215.0817"/>
<polygon fill="#191970" stroke="#191970" points="917.4092,-255.3415 909.9855,-262.9005 920.5028,-261.6209 917.4092,-255.3415"/>
</g>
<!-- Node20 -->
<g id="node12" class="node">
<title>Node20</title>
<g id="a_node12"><a xlink:href="hvm_8h.html" target="_top" xlink:title=" ">
<polygon fill="#ffffff" stroke="#000000" points="1204,-73 1204,-92 1303,-92 1303,-73 1204,-73"/>
<text text-anchor="middle" x="1253.5" y="-80" font-family="Helvetica,sans-Serif" font-size="10.00" fill="#000000">hvm/include/hvm.h</text>
</a>
</g>
</g>
<!-- Node15&#45;&gt;Node20 -->
<g id="edge13" class="edge">
<title>Node15&#45;&gt;Node20</title>
<path fill="none" stroke="#191970" d="M942.1844,-260.849C948.6759,-259.4941 955.2343,-258.1776 961.5,-257 1062.3236,-238.0515 1107.6614,-282.8618 1189.5,-221 1233.2403,-187.9367 1248.0891,-117.7884 1252.1709,-92.146"/>
<polygon fill="#191970" stroke="#191970" points="941.1437,-257.4919 932.0902,-262.9951 942.5995,-264.3389 941.1437,-257.4919"/>
</g>
<!-- Node21 -->
<g id="node13" class="node">
<title>Node21</title>
<g id="a_node13"><a xlink:href="main_8c.html" target="_top" xlink:title=" ">
<polygon fill="#ffffff" stroke="#000000" points="1069.5,-6 1069.5,-25 1139.5,-25 1139.5,-6 1069.5,-6"/>
<text text-anchor="middle" x="1104.5" y="-13" font-family="Helvetica,sans-Serif" font-size="10.00" fill="#000000">main/main.c</text>
</a>
</g>
</g>
<!-- Node15&#45;&gt;Node21 -->
<g id="edge15" class="edge">
<title>Node15&#45;&gt;Node21</title>
<path fill="none" stroke="#191970" d="M943.9902,-260.8154C1013.2686,-245.6766 1125.2751,-221.1806 1125.5,-221 1157.5056,-195.2983 1164.9267,-174.1737 1156.5,-134 1147.5064,-91.1233 1122.0428,-44.811 1110.4184,-25.1748"/>
<polygon fill="#191970" stroke="#191970" points="943.1196,-257.423 934.0973,-262.9771 944.6139,-264.2616 943.1196,-257.423"/>
</g>
<!-- Node22 -->
<g id="node14" class="node">
<title>Node22</title>
<g id="a_node14"><a xlink:href="token_8h.html" target="_top" xlink:title=" ">
<polygon fill="#ffffff" stroke="#000000" points="629,-196 629,-215 742,-215 742,-196 629,-196"/>
<text text-anchor="middle" x="685.5" y="-203" font-family="Helvetica,sans-Serif" font-size="10.00" fill="#000000">parser/include/token.h</text>
</a>
</g>
</g>
<!-- Node15&#45;&gt;Node22 -->
<g id="edge16" class="edge">
<title>Node15&#45;&gt;Node22</title>
<path fill="none" stroke="#191970" d="M851.484,-259.7484C811.6506,-246.7297 750.7176,-226.815 714.817,-215.0817"/>
<polygon fill="#191970" stroke="#191970" points="850.5359,-263.1207 861.1285,-262.9005 852.7106,-256.4671 850.5359,-263.1207"/>
</g>
<!-- Node32 -->
<g id="node24" class="node">
<title>Node32</title>
<g id="a_node24"><a xlink:href="token_8c.html" target="_top" xlink:title=" ">
<polygon fill="#ffffff" stroke="#000000" points="862,-134.5 862,-153.5 941,-153.5 941,-134.5 862,-134.5"/>
<text text-anchor="middle" x="901.5" y="-141.5" font-family="Helvetica,sans-Serif" font-size="10.00" fill="#000000">parser/token.c</text>
</a>
</g>
</g>
<!-- Node15&#45;&gt;Node32 -->
<g id="edge44" class="edge">
<title>Node15&#45;&gt;Node32</title>
<path fill="none" stroke="#191970" d="M892.1972,-252.6733C894.5898,-224.7236 898.8631,-174.8037 900.6636,-153.7705"/>
<polygon fill="#191970" stroke="#191970" points="888.6925,-252.5795 891.3268,-262.8416 895.667,-253.1766 888.6925,-252.5795"/>
</g>
<!-- Node19&#45;&gt;Node17 -->
<g id="edge11" class="edge">
<title>Node19&#45;&gt;Node17</title>
<path fill="none" stroke="#191970" d="M1021.7642,-186.0832C1019.1392,-175.3205 1015.9888,-162.4042 1013.8768,-153.7449"/>
<polygon fill="#191970" stroke="#191970" points="1018.3863,-187.0048 1024.1563,-195.8906 1025.1869,-185.346 1018.3863,-187.0048"/>
</g>
<!-- Node19&#45;&gt;Node18 -->
<g id="edge12" class="edge">
<title>Node19&#45;&gt;Node18</title>
<path fill="none" stroke="#191970" d="M1048.7239,-189.9685C1065.1288,-178.5037 1086.9339,-163.265 1100.8466,-153.5419"/>
<polygon fill="#191970" stroke="#191970" points="1046.4418,-187.2934 1040.25,-195.8906 1050.4517,-193.0311 1046.4418,-187.2934"/>
</g>
<!-- Node20&#45;&gt;Node21 -->
<g id="edge14" class="edge">
<title>Node20&#45;&gt;Node21</title>
<path fill="none" stroke="#191970" d="M1222.9047,-68.7424C1193.9498,-55.7224 1151.2387,-36.5167 1125.8085,-25.0817"/>
<polygon fill="#191970" stroke="#191970" points="1221.5962,-71.9915 1232.1519,-72.9005 1224.467,-65.6072 1221.5962,-71.9915"/>
</g>
<!-- Node23 -->
<g id="node15" class="node">
<title>Node23</title>
<g id="a_node15"><a xlink:href="AST_8c.html" target="_top" xlink:title=" ">
<polygon fill="#ffffff" stroke="#000000" points="649.5,-6 649.5,-25 723.5,-25 723.5,-6 649.5,-6"/>
<text text-anchor="middle" x="686.5" y="-13" font-family="Helvetica,sans-Serif" font-size="10.00" fill="#000000">parser/AST.c</text>
</a>
</g>
</g>
<!-- Node22&#45;&gt;Node23 -->
<g id="edge17" class="edge">
<title>Node22&#45;&gt;Node23</title>
<path fill="none" stroke="#191970" d="M690.6426,-185.6809C696.9437,-158.7628 706.1287,-109.1626 700.5,-67 698.5138,-52.122 693.435,-35.4507 689.9731,-25.2137"/>
<polygon fill="#191970" stroke="#191970" points="687.1581,-185.1945 688.1704,-195.7408 693.9559,-186.8651 687.1581,-185.1945"/>
</g>
<!-- Node24 -->
<g id="node16" class="node">
<title>Node24</title>
<g id="a_node16"><a xlink:href="AST_8h.html" target="_top" xlink:title=" ">
<polygon fill="#ffffff" stroke="#000000" points="518,-134.5 518,-153.5 625,-153.5 625,-134.5 518,-134.5"/>
<text text-anchor="middle" x="571.5" y="-141.5" font-family="Helvetica,sans-Serif" font-size="10.00" fill="#000000">parser/include/AST.h</text>
</a>
</g>
</g>
<!-- Node22&#45;&gt;Node24 -->
<g id="edge18" class="edge">
<title>Node22&#45;&gt;Node24</title>
<path fill="none" stroke="#191970" d="M658.7535,-191.071C637.2997,-179.4972 607.7947,-163.5801 589.1874,-153.5419"/>
<polygon fill="#191970" stroke="#191970" points="657.2247,-194.223 667.6875,-195.8906 660.5483,-188.0623 657.2247,-194.223"/>
</g>
<!-- Node26 -->
<g id="node18" class="node">
<title>Node26</title>
<g id="a_node18"><a xlink:href="compound_8c.html" target="_top" xlink:title=" ">
<polygon fill="#ffffff" stroke="#000000" points="419.5,-.5 419.5,-30.5 517.5,-30.5 517.5,-.5 419.5,-.5"/>
<text text-anchor="start" x="427.5" y="-18.5" font-family="Helvetica,sans-Serif" font-size="10.00" fill="#000000">parser/parserfuncs</text>
<text text-anchor="middle" x="468.5" y="-7.5" font-family="Helvetica,sans-Serif" font-size="10.00" fill="#000000">/compound.c</text>
</a>
</g>
</g>
<!-- Node22&#45;&gt;Node26 -->
<g id="edge38" class="edge">
<title>Node22&#45;&gt;Node26</title>
<path fill="none" stroke="#191970" d="M622.9474,-193.9381C578.8227,-184.586 524.7888,-170.3212 508.5,-154 474.5548,-119.9873 469.0274,-59.0874 468.3853,-30.7633"/>
<polygon fill="#191970" stroke="#191970" points="622.2658,-197.3711 632.7682,-195.9744 623.6871,-190.5169 622.2658,-197.3711"/>
</g>
<!-- Node27 -->
<g id="node19" class="node">
<title>Node27</title>
<g id="a_node19"><a xlink:href="expressions_8c.html" target="_top" xlink:title=" ">
<polygon fill="#ffffff" stroke="#000000" points="741.5,-.5 741.5,-30.5 839.5,-30.5 839.5,-.5 741.5,-.5"/>
<text text-anchor="start" x="749.5" y="-18.5" font-family="Helvetica,sans-Serif" font-size="10.00" fill="#000000">parser/parserfuncs</text>
<text text-anchor="middle" x="790.5" y="-7.5" font-family="Helvetica,sans-Serif" font-size="10.00" fill="#000000">/expressions.c</text>
</a>
</g>
</g>
<!-- Node22&#45;&gt;Node27 -->
<g id="edge39" class="edge">
<title>Node22&#45;&gt;Node27</title>
<path fill="none" stroke="#191970" d="M695.7521,-186.9486C716.481,-149.4391 763.0216,-65.2227 782.0994,-30.7011"/>
<polygon fill="#191970" stroke="#191970" points="692.6249,-185.3713 690.8513,-195.8167 698.7516,-188.7572 692.6249,-185.3713"/>
</g>
<!-- Node28 -->
<g id="node20" class="node">
<title>Node28</title>
<g id="a_node20"><a xlink:href="floats_8c.html" target="_top" xlink:title=" ">
<polygon fill="#ffffff" stroke="#000000" points="857.5,-.5 857.5,-30.5 955.5,-30.5 955.5,-.5 857.5,-.5"/>
<text text-anchor="start" x="865.5" y="-18.5" font-family="Helvetica,sans-Serif" font-size="10.00" fill="#000000">parser/parserfuncs</text>
<text text-anchor="middle" x="906.5" y="-7.5" font-family="Helvetica,sans-Serif" font-size="10.00" fill="#000000">/floats.c</text>
</a>
</g>
</g>
<!-- Node22&#45;&gt;Node28 -->
<g id="edge40" class="edge">
<title>Node22&#45;&gt;Node28</title>
<path fill="none" stroke="#191970" d="M704.3682,-189.2785C746.5131,-153.0453 847.8103,-65.9572 888.8187,-30.7011"/>
<polygon fill="#191970" stroke="#191970" points="702.0644,-186.6434 696.7633,-195.8167 706.6279,-191.9514 702.0644,-186.6434"/>
</g>
<!-- Node29 -->
<g id="node21" class="node">
<title>Node29</title>
<g id="a_node21"><a xlink:href="integers_8c.html" target="_top" xlink:title=" ">
<polygon fill="#ffffff" stroke="#000000" points="187.5,-.5 187.5,-30.5 285.5,-30.5 285.5,-.5 187.5,-.5"/>
<text text-anchor="start" x="195.5" y="-18.5" font-family="Helvetica,sans-Serif" font-size="10.00" fill="#000000">parser/parserfuncs</text>
<text text-anchor="middle" x="236.5" y="-7.5" font-family="Helvetica,sans-Serif" font-size="10.00" fill="#000000">/integers.c</text>
</a>
</g>
</g>
<!-- Node22&#45;&gt;Node29 -->
<g id="edge41" class="edge">
<title>Node22&#45;&gt;Node29</title>
<path fill="none" stroke="#191970" d="M618.7646,-202.8207C499.4487,-197.3631 254.5499,-182.948 174.5,-154 132.6523,-138.8668 112.3889,-137.2925 91.5,-98 68.8633,-55.4198 137.0081,-33.3289 187.4231,-23.0871"/>
<polygon fill="#191970" stroke="#191970" points="618.7229,-206.3222 628.8701,-203.2752 619.0374,-199.3293 618.7229,-206.3222"/>
</g>
<!-- Node30 -->
<g id="node22" class="node">
<title>Node30</title>
<g id="a_node22"><a xlink:href="parser_8c.html" target="_top" xlink:title=" ">
<polygon fill="#ffffff" stroke="#000000" points="303.5,-.5 303.5,-30.5 401.5,-30.5 401.5,-.5 303.5,-.5"/>
<text text-anchor="start" x="311.5" y="-18.5" font-family="Helvetica,sans-Serif" font-size="10.00" fill="#000000">parser/parserfuncs</text>
<text text-anchor="middle" x="352.5" y="-7.5" font-family="Helvetica,sans-Serif" font-size="10.00" fill="#000000">/parser.c</text>
</a>
</g>
</g>
<!-- Node22&#45;&gt;Node30 -->
<g id="edge42" class="edge">
<title>Node22&#45;&gt;Node30</title>
<path fill="none" stroke="#191970" d="M618.642,-203.0191C483.2042,-196.4412 183.9724,-173.5044 121.5,-98 37.737,3.2364 61.1902,-86.4041 294.5,-31 297.3394,-30.3257 300.2516,-29.6135 303.1866,-28.8797"/>
<polygon fill="#191970" stroke="#191970" points="618.7335,-206.5272 628.8868,-203.5005 619.0621,-199.5349 618.7335,-206.5272"/>
</g>
<!-- Node22&#45;&gt;Node32 -->
<g id="edge43" class="edge">
<title>Node22&#45;&gt;Node32</title>
<path fill="none" stroke="#191970" d="M728.9708,-193.1229C769.9826,-181.4459 830.5967,-164.1877 867.987,-153.5419"/>
<polygon fill="#191970" stroke="#191970" points="727.9093,-189.7859 719.25,-195.8906 729.8262,-196.5184 727.9093,-189.7859"/>
</g>
<!-- Node24&#45;&gt;Node11 -->
<g id="edge19" class="edge">
<title>Node24&#45;&gt;Node11</title>
<path fill="none" stroke="#191970" d="M507.9867,-137.4791C440.8866,-130.0591 332.1738,-116.5248 239.5,-98 236.5921,-97.4187 233.6146,-96.7792 230.6173,-96.1011"/>
<polygon fill="#191970" stroke="#191970" points="507.6622,-140.9644 517.9836,-138.5733 508.4238,-134.0059 507.6622,-140.9644"/>
</g>
<!-- Node24&#45;&gt;Node12 -->
<g id="edge20" class="edge">
<title>Node24&#45;&gt;Node12</title>
<path fill="none" stroke="#191970" d="M519.3594,-132.254C470.297,-121.2015 397.3166,-104.7609 348.8476,-93.8421"/>
<polygon fill="#191970" stroke="#191970" points="518.6185,-135.6748 529.1433,-134.4581 520.157,-128.8459 518.6185,-135.6748"/>
</g>
<!-- Node24&#45;&gt;Node21 -->
<g id="edge21" class="edge">
<title>Node24&#45;&gt;Node21</title>
<path fill="none" stroke="#191970" d="M627.6041,-132.3456C670.1927,-123.3592 730.1504,-110.4083 782.5,-98 887.2246,-73.1773 1010.2589,-40.7364 1069.344,-24.9515"/>
<polygon fill="#191970" stroke="#191970" points="626.7738,-128.9436 617.7091,-134.4282 628.2155,-135.7936 626.7738,-128.9436"/>
</g>
<!-- Node24&#45;&gt;Node23 -->
<g id="edge22" class="edge">
<title>Node24&#45;&gt;Node23</title>
<path fill="none" stroke="#191970" d="M632.9042,-131.2C651.0468,-124.3633 669.0854,-113.9206 680.5,-98 696.2314,-76.0586 692.0931,-41.8508 688.7847,-25.2261"/>
<polygon fill="#191970" stroke="#191970" points="631.7587,-127.8927 623.4419,-134.4563 634.0366,-134.5117 631.7587,-127.8927"/>
</g>
<!-- Node25 -->
<g id="node17" class="node">
<title>Node25</title>
<g id="a_node17"><a xlink:href="parser_8h.html" target="_top" xlink:title=" ">
<polygon fill="#ffffff" stroke="#000000" points="557,-73 557,-92 672,-92 672,-73 557,-73"/>
<text text-anchor="middle" x="614.5" y="-80" font-family="Helvetica,sans-Serif" font-size="10.00" fill="#000000">parser/include/parser.h</text>
</a>
</g>
</g>
<!-- Node24&#45;&gt;Node25 -->
<g id="edge23" class="edge">
<title>Node24&#45;&gt;Node25</title>
<path fill="none" stroke="#191970" d="M584.1435,-125.9169C591.8433,-114.9043 601.3797,-101.265 607.6865,-92.2449"/>
<polygon fill="#191970" stroke="#191970" points="581.0805,-124.1896 578.2188,-134.3906 586.8174,-128.2007 581.0805,-124.1896"/>
</g>
<!-- Node24&#45;&gt;Node26 -->
<g id="edge32" class="edge">
<title>Node24&#45;&gt;Node26</title>
<path fill="none" stroke="#191970" d="M557.3196,-126.3089C536.9776,-100.9308 499.8584,-54.6219 480.685,-30.7016"/>
<polygon fill="#191970" stroke="#191970" points="554.7729,-128.7279 563.7583,-134.3416 560.2348,-124.3498 554.7729,-128.7279"/>
</g>
<!-- Node24&#45;&gt;Node27 -->
<g id="edge33" class="edge">
<title>Node24&#45;&gt;Node27</title>
<path fill="none" stroke="#191970" d="M620.2146,-131.6566C645.2767,-124.0872 675.688,-112.9487 700.5,-98 731.5465,-79.2951 761.2732,-48.7688 777.5909,-30.5595"/>
<polygon fill="#191970" stroke="#191970" points="619.1595,-128.3184 610.5425,-134.4828 621.1228,-135.0375 619.1595,-128.3184"/>
</g>
<!-- Node24&#45;&gt;Node28 -->
<g id="edge34" class="edge">
<title>Node24&#45;&gt;Node28</title>
<path fill="none" stroke="#191970" d="M622.3993,-132.0412C654.9186,-123.8145 697.7307,-111.8882 734.5,-98 787.0146,-78.1646 845.3913,-48.4285 878.8455,-30.5981"/>
<polygon fill="#191970" stroke="#191970" points="621.5101,-128.6557 612.6556,-134.4736 623.2056,-135.4473 621.5101,-128.6557"/>
</g>
<!-- Node24&#45;&gt;Node29 -->
<g id="edge35" class="edge">
<title>Node24&#45;&gt;Node29</title>
<path fill="none" stroke="#191970" d="M532.8206,-131.2453C506.1739,-122.3064 470.0246,-109.879 438.5,-98 379.4785,-75.7596 311.7834,-47.551 271.6638,-30.5453"/>
<polygon fill="#191970" stroke="#191970" points="531.9447,-134.6428 542.5385,-134.492 534.1629,-128.0035 531.9447,-134.6428"/>
</g>
<!-- Node24&#45;&gt;Node30 -->
<g id="edge36" class="edge">
<title>Node24&#45;&gt;Node30</title>
<path fill="none" stroke="#191970" d="M546.2792,-129.2015C504.3605,-104.6053 420.777,-55.562 378.4078,-30.7016"/>
<polygon fill="#191970" stroke="#191970" points="544.6432,-132.2996 555.0394,-134.3416 548.1858,-126.2621 544.6432,-132.2996"/>
</g>
<!-- Node31 -->
<g id="node23" class="node">
<title>Node31</title>
<g id="a_node23"><a xlink:href="parserutil_8c.html" target="_top" xlink:title=" ">
<polygon fill="#ffffff" stroke="#000000" points="536,-6 536,-25 631,-25 631,-6 536,-6"/>
<text text-anchor="middle" x="583.5" y="-13" font-family="Helvetica,sans-Serif" font-size="10.00" fill="#000000">parser/parserutil.c</text>
</a>
</g>
</g>
<!-- Node24&#45;&gt;Node31 -->
<g id="edge37" class="edge">
<title>Node24&#45;&gt;Node31</title>
<path fill="none" stroke="#191970" d="M559.3753,-125.7224C554.6821,-117.5929 549.8743,-107.6836 547.5,-98 544.219,-84.6186 543.3621,-80.1417 547.5,-67 552.6765,-50.5597 565.1764,-34.7955 573.988,-25.1353"/>
<polygon fill="#191970" stroke="#191970" points="556.4528,-127.6514 564.6792,-134.328 562.4119,-123.9786 556.4528,-127.6514"/>
</g>
<!-- Node25&#45;&gt;Node21 -->
<g id="edge24" class="edge">
<title>Node25&#45;&gt;Node21</title>
<path fill="none" stroke="#191970" d="M682.0787,-73.2596C787.8153,-58.8018 988.6273,-31.3438 1069.4781,-20.2887"/>
<polygon fill="#191970" stroke="#191970" points="681.5837,-69.7947 672.1501,-74.6172 682.5321,-76.7301 681.5837,-69.7947"/>
</g>
<!-- Node25&#45;&gt;Node23 -->
<g id="edge25" class="edge">
<title>Node25&#45;&gt;Node23</title>
<path fill="none" stroke="#191970" d="M632.2958,-65.94C646.107,-53.0879 664.7697,-35.7212 676.2033,-25.0817"/>
<polygon fill="#191970" stroke="#191970" points="629.7522,-63.5259 624.8158,-72.9005 634.5209,-68.6504 629.7522,-63.5259"/>
</g>
<!-- Node25&#45;&gt;Node26 -->
<g id="edge26" class="edge">
<title>Node25&#45;&gt;Node26</title>
<path fill="none" stroke="#191970" d="M584.4912,-68.7289C560.248,-57.6035 526.1772,-41.9683 501.234,-30.5218"/>
<polygon fill="#191970" stroke="#191970" points="583.0333,-71.9107 593.5818,-72.9005 585.9529,-65.5486 583.0333,-71.9107"/>
</g>
<!-- Node25&#45;&gt;Node27 -->
<g id="edge27" class="edge">
<title>Node25&#45;&gt;Node27</title>
<path fill="none" stroke="#191970" d="M649.1345,-69.3153C678.4423,-58.1583 720.4391,-42.1709 751.0398,-30.5218"/>
<polygon fill="#191970" stroke="#191970" points="647.817,-66.0717 639.7165,-72.9005 650.3075,-72.6137 647.817,-66.0717"/>
</g>
<!-- Node25&#45;&gt;Node28 -->
<g id="edge28" class="edge">
<title>Node25&#45;&gt;Node28</title>
<path fill="none" stroke="#191970" d="M670.6018,-70.8854C718.1057,-60.8757 787.94,-45.7485 848.5,-31 851.4368,-30.2848 854.4525,-29.5327 857.4916,-28.7613"/>
<polygon fill="#191970" stroke="#191970" points="669.8819,-67.4602 660.8153,-72.9417 671.3213,-74.3106 669.8819,-67.4602"/>
</g>
<!-- Node25&#45;&gt;Node29 -->
<g id="edge29" class="edge">
<title>Node25&#45;&gt;Node29</title>
<path fill="none" stroke="#191970" d="M546.826,-73.644C481.8021,-64.6559 380.9499,-49.4581 294.5,-31 291.6459,-30.3906 288.7224,-29.7291 285.7786,-29.0342"/>
<polygon fill="#191970" stroke="#191970" points="546.5636,-77.1407 556.9466,-75.0327 547.5153,-70.2057 546.5636,-77.1407"/>
</g>
<!-- Node25&#45;&gt;Node30 -->
<g id="edge30" class="edge">
<title>Node25&#45;&gt;Node30</title>
<path fill="none" stroke="#191970" d="M566.2962,-70.5308C524.9285,-60.2112 463.7373,-44.8328 410.5,-31 407.5745,-30.2399 404.5676,-29.453 401.5351,-28.6553"/>
<polygon fill="#191970" stroke="#191970" points="565.5592,-73.9541 576.1089,-72.9765 567.2522,-67.1619 565.5592,-73.9541"/>
</g>
<!-- Node25&#45;&gt;Node31 -->
<g id="edge31" class="edge">
<title>Node25&#45;&gt;Node31</title>
<path fill="none" stroke="#191970" d="M605.8188,-63.7374C600,-51.1614 592.5801,-35.1246 587.9333,-25.0817"/>
<polygon fill="#191970" stroke="#191970" points="602.6828,-65.2946 610.0585,-72.9005 609.0357,-62.3552 602.6828,-65.2946"/>
</g>
</g>
</svg>
