<?xml version="1.0" encoding="UTF-8" standalone="no"?>
<!DOCTYPE svg PUBLIC "-//W3C//DTD SVG 1.1//EN"
 "http://www.w3.org/Graphics/SVG/1.1/DTD/svg11.dtd">
<!-- Generated by graphviz version 2.40.1 (20161225.0304)
 -->
<!-- Title: helios_integer_notequal Pages: 1 -->
<svg width="999pt" height="112pt"
 viewBox="0.00 0.00 999.00 111.50" xmlns="http://www.w3.org/2000/svg" xmlns:xlink="http://www.w3.org/1999/xlink">
<g id="graph0" class="graph" transform="scale(1 1) rotate(0) translate(4 107.5)">
<title>helios_integer_notequal</title>
<polygon fill="#ffffff" stroke="transparent" points="-4,4 -4,-107.5 995,-107.5 995,4 -4,4"/>
<!-- Node63 -->
<g id="node1" class="node">
<title>Node63</title>
<g id="a_node1"><a xlink:title=" ">
<polygon fill="#bfbfbf" stroke="#000000" points="0,-38.5 0,-57.5 134,-57.5 134,-38.5 0,-38.5"/>
<text text-anchor="middle" x="67" y="-45.5" font-family="Helvetica,sans-Serif" font-size="10.00" fill="#000000">helios_integer_notequal</text>
</a>
</g>
</g>
<!-- Node64 -->
<g id="node2" class="node">
<title>Node64</title>
<g id="a_node2"><a xlink:href="helios__boolean_8c.html#a50e186696d4b9f2e8efdcddc17ab5ce5" target="_top" xlink:title="Create a helios_boolean object from a c boolean type.">
<polygon fill="#ffffff" stroke="#000000" points="345.5,-73 345.5,-103 464.5,-103 464.5,-73 345.5,-73"/>
<text text-anchor="start" x="353.5" y="-91" font-family="Helvetica,sans-Serif" font-size="10.00" fill="#000000">helios_boolean_from</text>
<text text-anchor="middle" x="405" y="-80" font-family="Helvetica,sans-Serif" font-size="10.00" fill="#000000">_cbool</text>
</a>
</g>
</g>
<!-- Node63&#45;&gt;Node64 -->
<g id="edge1" class="edge">
<title>Node63&#45;&gt;Node64</title>
<path fill="none" stroke="#191970" d="M87.3521,-57.5963C107.7377,-66.6549 140.2706,-79.6265 170,-85 224.8007,-94.9051 287.9653,-95.1012 334.9987,-93.1255"/>
<polygon fill="#191970" stroke="#191970" points="335.2544,-96.6175 345.0817,-92.6584 334.9305,-89.625 335.2544,-96.6175"/>
</g>
<!-- Node66 -->
<g id="node4" class="node">
<title>Node66</title>
<g id="a_node4"><a xlink:href="helios__integer__compare_8c.html#a0b71bce728cb459e01cd664eead44680" target="_top" xlink:title=" ">
<polygon fill="#ffffff" stroke="#000000" points="170,-38.5 170,-57.5 304,-57.5 304,-38.5 170,-38.5"/>
<text text-anchor="middle" x="237" y="-45.5" font-family="Helvetica,sans-Serif" font-size="10.00" fill="#000000">helios_integer_notequal</text>
</a>
</g>
</g>
<!-- Node63&#45;&gt;Node66 -->
<g id="edge3" class="edge">
<title>Node63&#45;&gt;Node66</title>
<path fill="none" stroke="#191970" d="M134.1885,-48C142.5021,-48 151.0537,-48 159.5056,-48"/>
<polygon fill="#191970" stroke="#191970" points="159.7429,-51.5001 169.7428,-48 159.7428,-44.5001 159.7429,-51.5001"/>
</g>
<!-- Node67 -->
<g id="node5" class="node">
<title>Node67</title>
<g id="a_node5"><a xlink:href="helios__boolean_8c.html#a856733e7e090437084fcf595bd4e3b8f" target="_top" xlink:title="Convert a boolean to an integer.">
<polygon fill="#ffffff" stroke="#000000" points="340,-19.5 340,-38.5 470,-38.5 470,-19.5 340,-19.5"/>
<text text-anchor="middle" x="405" y="-26.5" font-family="Helvetica,sans-Serif" font-size="10.00" fill="#000000">helios_boolean_integer</text>
</a>
</g>
</g>
<!-- Node63&#45;&gt;Node67 -->
<g id="edge11" class="edge">
<title>Node63&#45;&gt;Node67</title>
<path fill="none" stroke="#191970" d="M108.8548,-38.4888C127.469,-34.7235 149.719,-30.8549 170,-29 223.1645,-24.1375 283.3779,-24.2459 329.5439,-25.5139"/>
<polygon fill="#191970" stroke="#191970" points="329.6681,-29.0191 339.7684,-25.8199 329.8775,-22.0222 329.6681,-29.0191"/>
</g>
<!-- Node65 -->
<g id="node3" class="node">
<title>Node65</title>
<g id="a_node3"><a xlink:href="helios__boolean_8c.html#ab172c15c28782b45e824c42601484606" target="_top" xlink:title="Create a helios_boolean object from a c integer type.">
<polygon fill="#ffffff" stroke="#000000" points="506,-78.5 506,-97.5 648,-97.5 648,-78.5 506,-78.5"/>
<text text-anchor="middle" x="577" y="-85.5" font-family="Helvetica,sans-Serif" font-size="10.00" fill="#000000">helios_boolean_from_cint</text>
</a>
</g>
</g>
<!-- Node64&#45;&gt;Node65 -->
<g id="edge2" class="edge">
<title>Node64&#45;&gt;Node65</title>
<path fill="none" stroke="#191970" d="M464.6745,-88C474.7479,-88 485.3545,-88 495.864,-88"/>
<polygon fill="#191970" stroke="#191970" points="495.8898,-91.5001 505.8897,-88 495.8897,-84.5001 495.8898,-91.5001"/>
</g>
<!-- Node66&#45;&gt;Node64 -->
<g id="edge4" class="edge">
<title>Node66&#45;&gt;Node64</title>
<path fill="none" stroke="#191970" d="M277.2402,-57.581C294.6792,-61.7331 315.6093,-66.7165 335.4337,-71.4366"/>
<polygon fill="#191970" stroke="#191970" points="334.8261,-74.8897 345.3649,-73.8012 336.4475,-68.0801 334.8261,-74.8897"/>
</g>
<!-- Node66&#45;&gt;Node66 -->
<g id="edge5" class="edge">
<title>Node66&#45;&gt;Node66</title>
<path fill="none" stroke="#191970" d="M211.1063,-57.7571C198.5094,-66.5653 207.1406,-76 237,-76 257.0618,-76 267.5408,-71.741 268.4371,-66.2746"/>
<polygon fill="#191970" stroke="#191970" points="271.2819,-64.2291 262.8937,-57.7571 265.415,-68.0475 271.2819,-64.2291"/>
</g>
<!-- Node66&#45;&gt;Node67 -->
<g id="edge6" class="edge">
<title>Node66&#45;&gt;Node67</title>
<path fill="none" stroke="#191970" d="M304.364,-40.3815C312.6711,-39.442 321.2044,-38.4769 329.6209,-37.525"/>
<polygon fill="#191970" stroke="#191970" points="330.2631,-40.9748 339.8064,-36.3731 329.4763,-34.0191 330.2631,-40.9748"/>
</g>
<!-- Node68 -->
<g id="node6" class="node">
<title>Node68</title>
<g id="a_node6"><a xlink:href="helios__integer_8c.html#af677316afd6536844aeb027f14c198cf" target="_top" xlink:title="Create a helios_integer object from a c integer type.">
<polygon fill="#ffffff" stroke="#000000" points="508.5,-19.5 508.5,-38.5 645.5,-38.5 645.5,-19.5 508.5,-19.5"/>
<text text-anchor="middle" x="577" y="-26.5" font-family="Helvetica,sans-Serif" font-size="10.00" fill="#000000">helios_integer_from_cint</text>
</a>
</g>
</g>
<!-- Node67&#45;&gt;Node68 -->
<g id="edge7" class="edge">
<title>Node67&#45;&gt;Node68</title>
<path fill="none" stroke="#191970" d="M470.0258,-29C479.2476,-29 488.8121,-29 498.259,-29"/>
<polygon fill="#191970" stroke="#191970" points="498.4419,-32.5001 508.4418,-29 498.4418,-25.5001 498.4419,-32.5001"/>
</g>
<!-- Node69 -->
<g id="node7" class="node">
<title>Node69</title>
<g id="a_node7"><a xlink:href="helios__integer_8c.html#a50a26b1e9578164839f3a5bb17e04051" target="_top" xlink:title="Constructor of a helios_integer object.">
<polygon fill="#ffffff" stroke="#000000" points="684,-19.5 684,-38.5 791,-38.5 791,-19.5 684,-19.5"/>
<text text-anchor="middle" x="737.5" y="-26.5" font-family="Helvetica,sans-Serif" font-size="10.00" fill="#000000">helios_integer_init</text>
</a>
</g>
</g>
<!-- Node68&#45;&gt;Node69 -->
<g id="edge8" class="edge">
<title>Node68&#45;&gt;Node69</title>
<path fill="none" stroke="#191970" d="M645.532,-29C654.8177,-29 664.3173,-29 673.519,-29"/>
<polygon fill="#191970" stroke="#191970" points="673.7542,-32.5001 683.7542,-29 673.7541,-25.5001 673.7542,-32.5001"/>
</g>
<!-- Node70 -->
<g id="node8" class="node">
<title>Node70</title>
<g id="a_node8"><a xlink:href="helios__memory_8h.html#af87f0050f8e236d0945592fa4e54dc94" target="_top" xlink:title="Allocates a new helios object (and performs all the GC steps associated with that action).">
<polygon fill="#ffffff" stroke="#000000" points="846.5,-38.5 846.5,-57.5 971.5,-57.5 971.5,-38.5 846.5,-38.5"/>
<text text-anchor="middle" x="909" y="-45.5" font-family="Helvetica,sans-Serif" font-size="10.00" fill="#000000">helios_allocate_object</text>
</a>
</g>
</g>
<!-- Node69&#45;&gt;Node70 -->
<g id="edge9" class="edge">
<title>Node69&#45;&gt;Node70</title>
<path fill="none" stroke="#191970" d="M791.2931,-34.9596C805.5001,-36.5335 821.0727,-38.2588 836.106,-39.9243"/>
<polygon fill="#191970" stroke="#191970" points="836.0794,-43.4427 846.404,-41.0652 836.8503,-36.4852 836.0794,-43.4427"/>
</g>
<!-- Node71 -->
<g id="node9" class="node">
<title>Node71</title>
<g id="a_node9"><a xlink:href="helios__memory_8h.html#ab14fb1c046aae61ab06eda8eeaf2cd85" target="_top" xlink:title=" ">
<polygon fill="#ffffff" stroke="#000000" points="827,-.5 827,-19.5 991,-19.5 991,-.5 827,-.5"/>
<text text-anchor="middle" x="909" y="-7.5" font-family="Helvetica,sans-Serif" font-size="10.00" fill="#000000">helios_set_garbagecollectable</text>
</a>
</g>
</g>
<!-- Node69&#45;&gt;Node71 -->
<g id="edge10" class="edge">
<title>Node69&#45;&gt;Node71</title>
<path fill="none" stroke="#191970" d="M791.2931,-23.0404C799.4127,-22.1409 807.9784,-21.1919 816.6345,-20.2329"/>
<polygon fill="#191970" stroke="#191970" points="817.2625,-23.6848 826.8162,-19.1049 816.4916,-16.7274 817.2625,-23.6848"/>
</g>
</g>
</svg>
