<?xml version="1.0" encoding="UTF-8" standalone="no"?>
<!DOCTYPE svg PUBLIC "-//W3C//DTD SVG 1.1//EN"
 "http://www.w3.org/Graphics/SVG/1.1/DTD/svg11.dtd">
<!-- Generated by graphviz version 2.40.1 (20161225.0304)
 -->
<!-- Title: builtins/boolean/helios_boolean.c Pages: 1 -->
<svg width="496pt" height="319pt"
 viewBox="0.00 0.00 496.00 319.00" xmlns="http://www.w3.org/2000/svg" xmlns:xlink="http://www.w3.org/1999/xlink">
<g id="graph0" class="graph" transform="scale(1 1) rotate(0) translate(4 315)">
<title>builtins/boolean/helios_boolean.c</title>
<polygon fill="#ffffff" stroke="transparent" points="-4,4 -4,-315 492,-315 492,4 -4,4"/>
<!-- Node0 -->
<g id="node1" class="node">
<title>Node0</title>
<g id="a_node1"><a xlink:title=" ">
<polygon fill="#bfbfbf" stroke="#000000" points="218.5,-280.5 218.5,-310.5 331.5,-310.5 331.5,-280.5 218.5,-280.5"/>
<text text-anchor="start" x="226.5" y="-298.5" font-family="Helvetica,sans-Serif" font-size="10.00" fill="#000000">builtins/boolean/helios</text>
<text text-anchor="middle" x="275" y="-287.5" font-family="Helvetica,sans-Serif" font-size="10.00" fill="#000000">_boolean.c</text>
</a>
</g>
</g>
<!-- Node1 -->
<g id="node2" class="node">
<title>Node1</title>
<g id="a_node2"><a xlink:href="helios__boolean_8h.html" target="_top" xlink:title=" ">
<polygon fill="#ffffff" stroke="#000000" points="230.5,-224.5 230.5,-243.5 319.5,-243.5 319.5,-224.5 230.5,-224.5"/>
<text text-anchor="middle" x="275" y="-231.5" font-family="Helvetica,sans-Serif" font-size="10.00" fill="#000000">helios_boolean.h</text>
</a>
</g>
</g>
<!-- Node0&#45;&gt;Node1 -->
<g id="edge1" class="edge">
<title>Node0&#45;&gt;Node1</title>
<path fill="none" stroke="#191970" d="M275,-280.2977C275,-272.3834 275,-262.6043 275,-254.0759"/>
<polygon fill="#191970" stroke="#191970" points="278.5001,-253.8469 275,-243.8469 271.5001,-253.847 278.5001,-253.8469"/>
</g>
<!-- Node2 -->
<g id="node3" class="node">
<title>Node2</title>
<g id="a_node3"><a xlink:href="helios__object_8h.html" target="_top" xlink:title=" ">
<polygon fill="#ffffff" stroke="#000000" points="153,-168.5 153,-187.5 235,-187.5 235,-168.5 153,-168.5"/>
<text text-anchor="middle" x="194" y="-175.5" font-family="Helvetica,sans-Serif" font-size="10.00" fill="#000000">helios_object.h</text>
</a>
</g>
</g>
<!-- Node0&#45;&gt;Node2 -->
<g id="edge13" class="edge">
<title>Node0&#45;&gt;Node2</title>
<path fill="none" stroke="#191970" d="M255.9701,-280.3543C244.9444,-270.8265 231.4243,-257.7611 222,-244 212.1219,-229.5763 204.6546,-211.1129 199.9262,-197.3841"/>
<polygon fill="#191970" stroke="#191970" points="203.1508,-195.9824 196.7276,-187.5566 196.4945,-198.1489 203.1508,-195.9824"/>
</g>
<!-- Node4 -->
<g id="node5" class="node">
<title>Node4</title>
<g id="a_node5"><a xlink:href="helios__memory_8h.html" target="_top" xlink:title=" ">
<polygon fill="#ffffff" stroke="#000000" points="57,-56.5 57,-75.5 147,-75.5 147,-56.5 57,-56.5"/>
<text text-anchor="middle" x="102" y="-63.5" font-family="Helvetica,sans-Serif" font-size="10.00" fill="#000000">helios_memory.h</text>
</a>
</g>
</g>
<!-- Node0&#45;&gt;Node4 -->
<g id="edge12" class="edge">
<title>Node0&#45;&gt;Node4</title>
<path fill="none" stroke="#191970" d="M218.0893,-287.7564C168.2085,-279.6648 101.1975,-265.1723 85,-244 48.7761,-196.6505 76.467,-120.1713 92.5641,-84.9128"/>
<polygon fill="#191970" stroke="#191970" points="95.7901,-86.2785 96.9195,-75.7441 89.4672,-83.2749 95.7901,-86.2785"/>
</g>
<!-- Node6 -->
<g id="node7" class="node">
<title>Node6</title>
<g id="a_node7"><a xlink:title=" ">
<polygon fill="#ffffff" stroke="#bfbfbf" points="251,-.5 251,-19.5 307,-19.5 307,-.5 251,-.5"/>
<text text-anchor="middle" x="279" y="-7.5" font-family="Helvetica,sans-Serif" font-size="10.00" fill="#000000">stdbool.h</text>
</a>
</g>
</g>
<!-- Node0&#45;&gt;Node6 -->
<g id="edge17" class="edge">
<title>Node0&#45;&gt;Node6</title>
<path fill="none" stroke="#191970" d="M295.5558,-280.387C306.9077,-271.0577 320.4077,-258.1827 329,-244 344.8166,-217.8927 348,-208.5246 348,-178 348,-178 348,-178 348,-122 348,-83.3203 317.7999,-46.7993 297.3591,-26.5101"/>
<polygon fill="#191970" stroke="#191970" points="299.7333,-23.9378 290.086,-19.5582 294.8965,-28.998 299.7333,-23.9378"/>
</g>
<!-- Node10 -->
<g id="node11" class="node">
<title>Node10</title>
<g id="a_node11"><a xlink:href="helios__string_8h.html" target="_top" xlink:title=" ">
<polygon fill="#ffffff" stroke="#000000" points="94,-224.5 94,-243.5 174,-243.5 174,-224.5 94,-224.5"/>
<text text-anchor="middle" x="134" y="-231.5" font-family="Helvetica,sans-Serif" font-size="10.00" fill="#000000">helios_string.h</text>
</a>
</g>
</g>
<!-- Node0&#45;&gt;Node10 -->
<g id="edge14" class="edge">
<title>Node0&#45;&gt;Node10</title>
<path fill="none" stroke="#191970" d="M240.5075,-280.4554C217.4972,-270.419 187.4914,-257.3314 165.1945,-247.6061"/>
<polygon fill="#191970" stroke="#191970" points="166.4154,-244.3202 155.85,-243.5303 163.6167,-250.7364 166.4154,-244.3202"/>
</g>
<!-- Node11 -->
<g id="node12" class="node">
<title>Node11</title>
<g id="a_node12"><a xlink:title=" ">
<polygon fill="#ffffff" stroke="#bfbfbf" points="376.5,-224.5 376.5,-243.5 423.5,-243.5 423.5,-224.5 376.5,-224.5"/>
<text text-anchor="middle" x="400" y="-231.5" font-family="Helvetica,sans-Serif" font-size="10.00" fill="#000000">math.h</text>
</a>
</g>
</g>
<!-- Node0&#45;&gt;Node11 -->
<g id="edge16" class="edge">
<title>Node0&#45;&gt;Node11</title>
<path fill="none" stroke="#191970" d="M305.5784,-280.4554C325.7032,-270.554 351.8639,-257.683 371.5438,-248.0004"/>
<polygon fill="#191970" stroke="#191970" points="373.2018,-251.0855 380.6294,-243.5303 370.1115,-244.8045 373.2018,-251.0855"/>
</g>
<!-- Node12 -->
<g id="node13" class="node">
<title>Node12</title>
<g id="a_node13"><a xlink:title=" ">
<polygon fill="#ffffff" stroke="#bfbfbf" points="442,-224.5 442,-243.5 488,-243.5 488,-224.5 442,-224.5"/>
<text text-anchor="middle" x="465" y="-231.5" font-family="Helvetica,sans-Serif" font-size="10.00" fill="#000000">stdio.h</text>
</a>
</g>
</g>
<!-- Node0&#45;&gt;Node12 -->
<g id="edge18" class="edge">
<title>Node0&#45;&gt;Node12</title>
<path fill="none" stroke="#191970" d="M321.4792,-280.4554C355.7295,-269.3691 401.4816,-254.5599 432.03,-244.6719"/>
<polygon fill="#191970" stroke="#191970" points="433.3322,-247.9292 441.7684,-241.5197 431.1765,-241.2694 433.3322,-247.9292"/>
</g>
<!-- Node1&#45;&gt;Node2 -->
<g id="edge2" class="edge">
<title>Node1&#45;&gt;Node2</title>
<path fill="none" stroke="#191970" d="M260.8909,-224.2455C248.5791,-215.7337 230.5042,-203.2375 216.2462,-193.3801"/>
<polygon fill="#191970" stroke="#191970" points="218.1634,-190.4506 207.9474,-187.6427 214.1826,-196.2085 218.1634,-190.4506"/>
</g>
<!-- Node1&#45;&gt;Node6 -->
<g id="edge11" class="edge">
<title>Node1&#45;&gt;Node6</title>
<path fill="none" stroke="#191970" d="M275.1719,-224.375C275.7771,-190.4851 277.8173,-76.2317 278.6458,-29.8332"/>
<polygon fill="#191970" stroke="#191970" points="282.1496,-29.6501 278.8288,-19.5891 275.1507,-29.525 282.1496,-29.6501"/>
</g>
<!-- Node3 -->
<g id="node4" class="node">
<title>Node3</title>
<g id="a_node4"><a xlink:href="helios__type_8h.html" target="_top" xlink:title=" ">
<polygon fill="#ffffff" stroke="#000000" points="154,-112.5 154,-131.5 228,-131.5 228,-112.5 154,-112.5"/>
<text text-anchor="middle" x="191" y="-119.5" font-family="Helvetica,sans-Serif" font-size="10.00" fill="#000000">helios_type.h</text>
</a>
</g>
</g>
<!-- Node2&#45;&gt;Node3 -->
<g id="edge3" class="edge">
<title>Node2&#45;&gt;Node3</title>
<path fill="none" stroke="#191970" d="M193.4774,-168.2455C193.086,-160.9382 192.5372,-150.6944 192.0556,-141.7046"/>
<polygon fill="#191970" stroke="#191970" points="195.5466,-141.4411 191.5166,-131.6427 188.5566,-141.8156 195.5466,-141.4411"/>
</g>
<!-- Node3&#45;&gt;Node4 -->
<g id="edge4" class="edge">
<title>Node3&#45;&gt;Node4</title>
<path fill="none" stroke="#191970" d="M175.4974,-112.2455C161.842,-103.6534 141.7343,-91.0014 126.0011,-81.1018"/>
<polygon fill="#191970" stroke="#191970" points="127.6529,-78.006 117.325,-75.6427 123.9249,-83.9307 127.6529,-78.006"/>
</g>
<!-- Node8 -->
<g id="node9" class="node">
<title>Node8</title>
<g id="a_node9"><a xlink:title=" ">
<polygon fill="#ffffff" stroke="#bfbfbf" points="174.5,-.5 174.5,-19.5 223.5,-19.5 223.5,-.5 174.5,-.5"/>
<text text-anchor="middle" x="199" y="-7.5" font-family="Helvetica,sans-Serif" font-size="10.00" fill="#000000">stdint.h</text>
</a>
</g>
</g>
<!-- Node3&#45;&gt;Node8 -->
<g id="edge9" class="edge">
<title>Node3&#45;&gt;Node8</title>
<path fill="none" stroke="#191970" d="M200.0741,-112.3243C207.5963,-103.5913 217.7231,-89.9994 222,-76 226.964,-59.7516 219.6178,-41.5337 211.9423,-28.3612"/>
<polygon fill="#191970" stroke="#191970" points="214.7899,-26.3168 206.4664,-19.7616 208.8853,-30.0766 214.7899,-26.3168"/>
</g>
<!-- Node9 -->
<g id="node10" class="node">
<title>Node9</title>
<g id="a_node10"><a xlink:title=" ">
<polygon fill="#ffffff" stroke="#bfbfbf" points="165,-56.5 165,-75.5 213,-75.5 213,-56.5 165,-56.5"/>
<text text-anchor="middle" x="189" y="-63.5" font-family="Helvetica,sans-Serif" font-size="10.00" fill="#000000">stdlib.h</text>
</a>
</g>
</g>
<!-- Node3&#45;&gt;Node9 -->
<g id="edge10" class="edge">
<title>Node3&#45;&gt;Node9</title>
<path fill="none" stroke="#191970" d="M190.6516,-112.2455C190.3907,-104.9382 190.0248,-94.6944 189.7037,-85.7046"/>
<polygon fill="#191970" stroke="#191970" points="193.1992,-85.5113 189.3444,-75.6427 186.2036,-85.7613 193.1992,-85.5113"/>
</g>
<!-- Node5 -->
<g id="node6" class="node">
<title>Node5</title>
<g id="a_node6"><a xlink:href="builtinutils_8h.html" target="_top" xlink:title=" ">
<polygon fill="#ffffff" stroke="#000000" points="0,-.5 0,-19.5 68,-19.5 68,-.5 0,-.5"/>
<text text-anchor="middle" x="34" y="-7.5" font-family="Helvetica,sans-Serif" font-size="10.00" fill="#000000">builtinutils.h</text>
</a>
</g>
</g>
<!-- Node4&#45;&gt;Node5 -->
<g id="edge5" class="edge">
<title>Node4&#45;&gt;Node5</title>
<path fill="none" stroke="#191970" d="M90.1553,-56.2455C80.112,-47.9746 65.5005,-35.9416 53.6996,-26.2232"/>
<polygon fill="#191970" stroke="#191970" points="55.6533,-23.298 45.709,-19.6427 51.2033,-28.7015 55.6533,-23.298"/>
</g>
<!-- Node4&#45;&gt;Node6 -->
<g id="edge6" class="edge">
<title>Node4&#45;&gt;Node6</title>
<path fill="none" stroke="#191970" d="M132.4274,-56.3733C162.5247,-46.851 208.6653,-32.2528 241.1211,-21.9843"/>
<polygon fill="#191970" stroke="#191970" points="242.2429,-25.3004 250.7214,-18.9469 240.1314,-18.6265 242.2429,-25.3004"/>
</g>
<!-- Node7 -->
<g id="node8" class="node">
<title>Node7</title>
<g id="a_node8"><a xlink:title=" ">
<polygon fill="#ffffff" stroke="#bfbfbf" points="86,-.5 86,-19.5 138,-19.5 138,-.5 86,-.5"/>
<text text-anchor="middle" x="112" y="-7.5" font-family="Helvetica,sans-Serif" font-size="10.00" fill="#000000">stddef.h</text>
</a>
</g>
</g>
<!-- Node4&#45;&gt;Node7 -->
<g id="edge7" class="edge">
<title>Node4&#45;&gt;Node7</title>
<path fill="none" stroke="#191970" d="M103.7419,-56.2455C105.0467,-48.9382 106.876,-38.6944 108.4813,-29.7046"/>
<polygon fill="#191970" stroke="#191970" points="111.9656,-30.1022 110.2781,-19.6427 105.0746,-28.8717 111.9656,-30.1022"/>
</g>
<!-- Node4&#45;&gt;Node8 -->
<g id="edge8" class="edge">
<title>Node4&#45;&gt;Node8</title>
<path fill="none" stroke="#191970" d="M118.8961,-56.2455C133.918,-47.5731 156.1043,-34.7645 173.321,-24.825"/>
<polygon fill="#191970" stroke="#191970" points="175.3871,-27.6737 182.2975,-19.6427 171.8872,-21.6114 175.3871,-27.6737"/>
</g>
<!-- Node10&#45;&gt;Node2 -->
<g id="edge15" class="edge">
<title>Node10&#45;&gt;Node2</title>
<path fill="none" stroke="#191970" d="M144.4512,-224.2455C153.2269,-216.0549 165.9554,-204.1749 176.314,-194.5069"/>
<polygon fill="#191970" stroke="#191970" points="178.7461,-197.0246 183.6686,-187.6427 173.9699,-191.9072 178.7461,-197.0246"/>
</g>
</g>
</svg>
