<?xml version="1.0" encoding="UTF-8" standalone="no"?>
<!DOCTYPE svg PUBLIC "-//W3C//DTD SVG 1.1//EN"
 "http://www.w3.org/Graphics/SVG/1.1/DTD/svg11.dtd">
<!-- Generated by graphviz version 2.40.1 (20161225.0304)
 -->
<!-- Title: main/builtins/boolean/helios_boolean.c Pages: 1 -->
<!--zoomable 319 -->
<svg id="main" version="1.1" xmlns="http://www.w3.org/2000/svg" xmlns:xlink="http://www.w3.org/1999/xlink" xml:space="preserve" onload="init(evt)">
<style type="text/css"><![CDATA[
.edge:hover path { stroke: red; }
.edge:hover polygon { stroke: red; fill: red; }
]]></style>
<script type="text/javascript"><![CDATA[
var edges = document.getElementsByTagName('g');
if (edges && edges.length) {
  for (var i=0;i<edges.length;i++) {
    if (edges[i].id.substr(0,4)=='edge') {
      edges[i].setAttribute('class','edge');
    }
  }
}
]]></script>
        <defs>
                <circle id="rim" cx="0" cy="0" r="7"/>
                <circle id="rim2" cx="0" cy="0" r="3.5"/>
                <g id="zoomPlus">
                        <use xlink:href="#rim" fill="#404040">
                                <set attributeName="fill" to="#808080" begin="zoomplus.mouseover" end="zoomplus.mouseout"/>
                        </use>
                        <path d="M-4,0h8M0,-4v8" fill="none" stroke="white" stroke-width="1.5" pointer-events="none"/>
                </g>
                <g id="zoomMin">
                        <use xlink:href="#rim" fill="#404040">
                                <set attributeName="fill" to="#808080" begin="zoomminus.mouseover" end="zoomminus.mouseout"/>
                        </use>
                        <path d="M-4,0h8" fill="none" stroke="white" stroke-width="1.5" pointer-events="none"/>
                </g>
                <g id="dirArrow">
                        <path fill="none" stroke="white" stroke-width="1.5" d="M0,-3.0v7 M-2.5,-0.5L0,-3.0L2.5,-0.5"/>
                </g>
               <g id="resetDef">
                       <use xlink:href="#rim2" fill="#404040">
                               <set attributeName="fill" to="#808080" begin="reset.mouseover" end="reset.mouseout"/>
                       </use>
               </g>
        </defs>

<script type="text/javascript">
var viewWidth = 600;
var viewHeight = 319;
var sectionId = 'dynsection-0';
</script>
<script xlink:href="svgpan.js"/>
<svg id="graph" class="graph">
<g id="viewport">
<title>main/builtins/boolean/helios_boolean.c</title>
<polygon fill="#ffffff" stroke="transparent" points="-4,4 -4,-315 595.5,-315 595.5,4 -4,4"/>
<!-- Node0 -->
<g id="node1" class="node">
<title>Node0</title>
<g id="a_node1"><a xlink:title=" ">
<polygon fill="#bfbfbf" stroke="#000000" points="248.5,-280.5 248.5,-310.5 370.5,-310.5 370.5,-280.5 248.5,-280.5"/>
<text text-anchor="start" x="256.5" y="-298.5" font-family="Helvetica,sans-Serif" font-size="10.00" fill="#000000">main/builtins/boolean</text>
<text text-anchor="middle" x="309.5" y="-287.5" font-family="Helvetica,sans-Serif" font-size="10.00" fill="#000000">/helios_boolean.c</text>
</a>
</g>
</g>
<!-- Node1 -->
<g id="node2" class="node">
<title>Node1</title>
<g id="a_node2"><a xlink:href="helios__boolean_8h.html" target="_top" xlink:title=" ">
<polygon fill="#ffffff" stroke="#000000" points="316,-224.5 316,-243.5 415,-243.5 415,-224.5 316,-224.5"/>
<text text-anchor="middle" x="365.5" y="-231.5" font-family="Helvetica,sans-Serif" font-size="10.00" fill="#000000">helios_boolean.h</text>
</a>
</g>
</g>
<!-- Node0&#45;&gt;Node1 -->
<g id="edge1" class="edge">
<title>Node0&#45;&gt;Node1</title>
<path fill="none" stroke="#191970" d="M323.3427,-280.2977C331.359,-271.4941 341.4762,-260.3833 349.79,-251.2529"/>
<polygon fill="#191970" stroke="#191970" points="352.3888,-253.5974 356.5337,-243.8469 347.2131,-248.8845 352.3888,-253.5974"/>
</g>
<!-- Node2 -->
<g id="node3" class="node">
<title>Node2</title>
<g id="a_node3"><a xlink:href="helios__object_8h.html" target="_top" xlink:title=" ">
<polygon fill="#ffffff" stroke="#000000" points="153.5,-168.5 153.5,-187.5 243.5,-187.5 243.5,-168.5 153.5,-168.5"/>
<text text-anchor="middle" x="198.5" y="-175.5" font-family="Helvetica,sans-Serif" font-size="10.00" fill="#000000">helios_object.h</text>
</a>
</g>
</g>
<!-- Node0&#45;&gt;Node2 -->
<g id="edge15" class="edge">
<title>Node0&#45;&gt;Node2</title>
<path fill="none" stroke="#191970" d="M248.3866,-289.6846C190.0334,-282.7183 108.1556,-268.7626 88.5,-244 68.3542,-218.6198 106.6408,-200.7698 143.4471,-190.0888"/>
<polygon fill="#191970" stroke="#191970" points="144.522,-193.4232 153.2361,-187.3969 142.6659,-186.6737 144.522,-193.4232"/>
</g>
<!-- Node4 -->
<g id="node5" class="node">
<title>Node4</title>
<g id="a_node5"><a xlink:href="helios__memory_8h.html" target="_top" xlink:title=" ">
<polygon fill="#ffffff" stroke="#000000" points="53.5,-56.5 53.5,-75.5 153.5,-75.5 153.5,-56.5 53.5,-56.5"/>
<text text-anchor="middle" x="103.5" y="-63.5" font-family="Helvetica,sans-Serif" font-size="10.00" fill="#000000">helios_memory.h</text>
</a>
</g>
</g>
<!-- Node0&#45;&gt;Node4 -->
<g id="edge14" class="edge">
<title>Node0&#45;&gt;Node4</title>
<path fill="none" stroke="#191970" d="M248.4658,-290.3241C187.6224,-283.7493 100.3146,-269.9907 79.5,-244 42.0668,-197.2581 74.302,-120.4749 92.7452,-85.0266"/>
<polygon fill="#191970" stroke="#191970" points="96.0524,-86.2682 97.7235,-75.8059 89.8928,-82.9425 96.0524,-86.2682"/>
</g>
<!-- Node6 -->
<g id="node7" class="node">
<title>Node6</title>
<g id="a_node7"><a xlink:title=" ">
<polygon fill="#ffffff" stroke="#bfbfbf" points="334.5,-.5 334.5,-19.5 396.5,-19.5 396.5,-.5 334.5,-.5"/>
<text text-anchor="middle" x="365.5" y="-7.5" font-family="Helvetica,sans-Serif" font-size="10.00" fill="#000000">stdbool.h</text>
</a>
</g>
</g>
<!-- Node0&#45;&gt;Node6 -->
<g id="edge19" class="edge">
<title>Node0&#45;&gt;Node6</title>
<path fill="none" stroke="#191970" d="M368.0987,-280.4185C388.4341,-272.5599 409.7988,-260.9309 424.5,-244 444.5131,-220.9516 443.5,-208.5246 443.5,-178 443.5,-178 443.5,-178 443.5,-122 443.5,-81.9033 409.4191,-45.8785 386.3129,-26.0622"/>
<polygon fill="#191970" stroke="#191970" points="388.3211,-23.1816 378.3801,-19.5173 383.8663,-28.5811 388.3211,-23.1816"/>
</g>
<!-- Node10 -->
<g id="node11" class="node">
<title>Node10</title>
<g id="a_node11"><a xlink:href="helios__integer_8h.html" target="_top" xlink:title=" ">
<polygon fill="#ffffff" stroke="#000000" points="97.5,-224.5 97.5,-243.5 191.5,-243.5 191.5,-224.5 97.5,-224.5"/>
<text text-anchor="middle" x="144.5" y="-231.5" font-family="Helvetica,sans-Serif" font-size="10.00" fill="#000000">helios_integer.h</text>
</a>
</g>
</g>
<!-- Node0&#45;&gt;Node10 -->
<g id="edge12" class="edge">
<title>Node0&#45;&gt;Node10</title>
<path fill="none" stroke="#191970" d="M269.1365,-280.4554C241.7265,-270.239 205.8341,-256.8609 179.609,-247.0861"/>
<polygon fill="#191970" stroke="#191970" points="180.6618,-243.7433 170.0691,-243.5303 178.217,-250.3025 180.6618,-243.7433"/>
</g>
<!-- Node11 -->
<g id="node12" class="node">
<title>Node11</title>
<g id="a_node12"><a xlink:href="helios__string_8h.html" target="_top" xlink:title=" ">
<polygon fill="#ffffff" stroke="#000000" points="209.5,-224.5 209.5,-243.5 297.5,-243.5 297.5,-224.5 209.5,-224.5"/>
<text text-anchor="middle" x="253.5" y="-231.5" font-family="Helvetica,sans-Serif" font-size="10.00" fill="#000000">helios_string.h</text>
</a>
</g>
</g>
<!-- Node0&#45;&gt;Node11 -->
<g id="edge16" class="edge">
<title>Node0&#45;&gt;Node11</title>
<path fill="none" stroke="#191970" d="M295.6573,-280.2977C287.641,-271.4941 277.5238,-260.3833 269.21,-251.2529"/>
<polygon fill="#191970" stroke="#191970" points="271.7869,-248.8845 262.4663,-243.8469 266.6112,-253.5974 271.7869,-248.8845"/>
</g>
<!-- Node12 -->
<g id="node13" class="node">
<title>Node12</title>
<g id="a_node13"><a xlink:title=" ">
<polygon fill="#ffffff" stroke="#bfbfbf" points="472,-224.5 472,-243.5 523,-243.5 523,-224.5 472,-224.5"/>
<text text-anchor="middle" x="497.5" y="-231.5" font-family="Helvetica,sans-Serif" font-size="10.00" fill="#000000">math.h</text>
</a>
</g>
</g>
<!-- Node0&#45;&gt;Node12 -->
<g id="edge18" class="edge">
<title>Node0&#45;&gt;Node12</title>
<path fill="none" stroke="#191970" d="M355.49,-280.4554C388.4031,-269.6886 432.0505,-255.4104 462.2269,-245.5388"/>
<polygon fill="#191970" stroke="#191970" points="463.4931,-248.8072 471.9092,-242.3714 461.3166,-242.1541 463.4931,-248.8072"/>
</g>
<!-- Node13 -->
<g id="node14" class="node">
<title>Node13</title>
<g id="a_node14"><a xlink:title=" ">
<polygon fill="#ffffff" stroke="#bfbfbf" points="541.5,-224.5 541.5,-243.5 591.5,-243.5 591.5,-224.5 541.5,-224.5"/>
<text text-anchor="middle" x="566.5" y="-231.5" font-family="Helvetica,sans-Serif" font-size="10.00" fill="#000000">stdio.h</text>
</a>
</g>
</g>
<!-- Node0&#45;&gt;Node13 -->
<g id="edge20" class="edge">
<title>Node0&#45;&gt;Node13</title>
<path fill="none" stroke="#191970" d="M370.7875,-282.3692C413.3519,-273.0146 471.5834,-259.7529 531.3091,-244.21"/>
<polygon fill="#191970" stroke="#191970" points="532.5091,-247.5138 541.2953,-241.5932 530.7347,-240.7424 532.5091,-247.5138"/>
</g>
<!-- Node1&#45;&gt;Node2 -->
<g id="edge2" class="edge">
<title>Node1&#45;&gt;Node2</title>
<path fill="none" stroke="#191970" d="M336.7917,-224.3733C309.1423,-215.1016 267.1424,-201.0178 236.6834,-190.804"/>
<polygon fill="#191970" stroke="#191970" points="237.4276,-187.3621 226.8337,-187.5011 235.2021,-193.9989 237.4276,-187.3621"/>
</g>
<!-- Node1&#45;&gt;Node6 -->
<g id="edge11" class="edge">
<title>Node1&#45;&gt;Node6</title>
<path fill="none" stroke="#191970" d="M365.5,-224.375C365.5,-190.4851 365.5,-76.2317 365.5,-29.8332"/>
<polygon fill="#191970" stroke="#191970" points="369.0001,-29.5891 365.5,-19.5891 362.0001,-29.5892 369.0001,-29.5891"/>
</g>
<!-- Node3 -->
<g id="node4" class="node">
<title>Node3</title>
<g id="a_node4"><a xlink:href="helios__type_8h.html" target="_top" xlink:title=" ">
<polygon fill="#ffffff" stroke="#000000" points="157.5,-112.5 157.5,-131.5 239.5,-131.5 239.5,-112.5 157.5,-112.5"/>
<text text-anchor="middle" x="198.5" y="-119.5" font-family="Helvetica,sans-Serif" font-size="10.00" fill="#000000">helios_type.h</text>
</a>
</g>
</g>
<!-- Node2&#45;&gt;Node3 -->
<g id="edge3" class="edge">
<title>Node2&#45;&gt;Node3</title>
<path fill="none" stroke="#191970" d="M198.5,-168.2455C198.5,-160.9382 198.5,-150.6944 198.5,-141.7046"/>
<polygon fill="#191970" stroke="#191970" points="202.0001,-141.6426 198.5,-131.6427 195.0001,-141.6427 202.0001,-141.6426"/>
</g>
<!-- Node3&#45;&gt;Node4 -->
<g id="edge4" class="edge">
<title>Node3&#45;&gt;Node4</title>
<path fill="none" stroke="#191970" d="M181.9523,-112.2455C167.2401,-103.5731 145.5112,-90.7645 128.6495,-80.825"/>
<polygon fill="#191970" stroke="#191970" points="130.2502,-77.7057 119.8581,-75.6427 126.6954,-83.736 130.2502,-77.7057"/>
</g>
<!-- Node8 -->
<g id="node9" class="node">
<title>Node8</title>
<g id="a_node9"><a xlink:title=" ">
<polygon fill="#ffffff" stroke="#bfbfbf" points="208,-.5 208,-19.5 261,-19.5 261,-.5 208,-.5"/>
<text text-anchor="middle" x="234.5" y="-7.5" font-family="Helvetica,sans-Serif" font-size="10.00" fill="#000000">stdint.h</text>
</a>
</g>
</g>
<!-- Node3&#45;&gt;Node8 -->
<g id="edge9" class="edge">
<title>Node3&#45;&gt;Node8</title>
<path fill="none" stroke="#191970" d="M209.3548,-112.2679C218.0343,-103.7019 229.5417,-90.3808 234.5,-76 239.6355,-61.1053 239.2544,-43.1706 237.8011,-29.7585"/>
<polygon fill="#191970" stroke="#191970" points="241.2511,-29.1543 236.4258,-19.7221 234.3159,-30.1047 241.2511,-29.1543"/>
</g>
<!-- Node9 -->
<g id="node10" class="node">
<title>Node9</title>
<g id="a_node10"><a xlink:title=" ">
<polygon fill="#ffffff" stroke="#bfbfbf" points="172,-56.5 172,-75.5 225,-75.5 225,-56.5 172,-56.5"/>
<text text-anchor="middle" x="198.5" y="-63.5" font-family="Helvetica,sans-Serif" font-size="10.00" fill="#000000">stdlib.h</text>
</a>
</g>
</g>
<!-- Node3&#45;&gt;Node9 -->
<g id="edge10" class="edge">
<title>Node3&#45;&gt;Node9</title>
<path fill="none" stroke="#191970" d="M198.5,-112.2455C198.5,-104.9382 198.5,-94.6944 198.5,-85.7046"/>
<polygon fill="#191970" stroke="#191970" points="202.0001,-85.6426 198.5,-75.6427 195.0001,-85.6427 202.0001,-85.6426"/>
</g>
<!-- Node5 -->
<g id="node6" class="node">
<title>Node5</title>
<g id="a_node6"><a xlink:href="builtinutils_8h.html" target="_top" xlink:title=" ">
<polygon fill="#ffffff" stroke="#000000" points="0,-.5 0,-19.5 77,-19.5 77,-.5 0,-.5"/>
<text text-anchor="middle" x="38.5" y="-7.5" font-family="Helvetica,sans-Serif" font-size="10.00" fill="#000000">builtinutils.h</text>
</a>
</g>
</g>
<!-- Node4&#45;&gt;Node5 -->
<g id="edge5" class="edge">
<title>Node4&#45;&gt;Node5</title>
<path fill="none" stroke="#191970" d="M92.1779,-56.2455C82.5777,-47.9746 68.6108,-35.9416 57.3305,-26.2232"/>
<polygon fill="#191970" stroke="#191970" points="59.553,-23.5182 49.6924,-19.6427 54.984,-28.8214 59.553,-23.5182"/>
</g>
<!-- Node4&#45;&gt;Node6 -->
<g id="edge6" class="edge">
<title>Node4&#45;&gt;Node6</title>
<path fill="none" stroke="#191970" d="M148.2417,-56.4369C197.6685,-45.8724 276.5872,-29.0043 324.4737,-18.769"/>
<polygon fill="#191970" stroke="#191970" points="325.4421,-22.1411 334.4896,-16.6282 323.9789,-15.2958 325.4421,-22.1411"/>
</g>
<!-- Node7 -->
<g id="node8" class="node">
<title>Node7</title>
<g id="a_node8"><a xlink:title=" ">
<polygon fill="#ffffff" stroke="#bfbfbf" points="95.5,-.5 95.5,-19.5 151.5,-19.5 151.5,-.5 95.5,-.5"/>
<text text-anchor="middle" x="123.5" y="-7.5" font-family="Helvetica,sans-Serif" font-size="10.00" fill="#000000">stddef.h</text>
</a>
</g>
</g>
<!-- Node4&#45;&gt;Node7 -->
<g id="edge7" class="edge">
<title>Node4&#45;&gt;Node7</title>
<path fill="none" stroke="#191970" d="M106.9837,-56.2455C109.6508,-48.7776 113.4133,-38.2427 116.6737,-29.1137"/>
<polygon fill="#191970" stroke="#191970" points="119.9889,-30.2373 120.0562,-19.6427 113.3967,-27.8829 119.9889,-30.2373"/>
</g>
<!-- Node4&#45;&gt;Node8 -->
<g id="edge8" class="edge">
<title>Node4&#45;&gt;Node8</title>
<path fill="none" stroke="#191970" d="M126.0197,-56.3733C147.2372,-47.3032 179.2276,-33.6279 202.9769,-23.4755"/>
<polygon fill="#191970" stroke="#191970" points="204.4548,-26.6502 212.2742,-19.5011 201.7033,-20.2136 204.4548,-26.6502"/>
</g>
<!-- Node10&#45;&gt;Node2 -->
<g id="edge13" class="edge">
<title>Node10&#45;&gt;Node2</title>
<path fill="none" stroke="#191970" d="M153.9061,-224.2455C161.6493,-216.2155 172.812,-204.6394 182.0318,-195.0781"/>
<polygon fill="#191970" stroke="#191970" points="184.7798,-197.2706 189.2017,-187.6427 179.7409,-192.4117 184.7798,-197.2706"/>
</g>
<!-- Node11&#45;&gt;Node2 -->
<g id="edge17" class="edge">
<title>Node11&#45;&gt;Node2</title>
<path fill="none" stroke="#191970" d="M243.9197,-224.2455C235.9542,-216.1352 224.4359,-204.4075 214.9921,-194.7919"/>
<polygon fill="#191970" stroke="#191970" points="217.4747,-192.3247 207.9705,-187.6427 212.4805,-197.2297 217.4747,-192.3247"/>
</g>
</g>
</svg>
        <g id="navigator" transform="translate(0 0)" fill="#404254">
                <rect fill="#f2f5e9" fill-opacity="0.5" stroke="#606060" stroke-width=".5" x="0" y="0" width="60" height="60"/>
                <use id="zoomplus" xlink:href="#zoomPlus" x="17" y="9" onmousedown="handleZoom(evt,'in')"/>
                <use id="zoomminus" xlink:href="#zoomMin" x="42" y="9" onmousedown="handleZoom(evt,'out')"/>
                <use id="reset" xlink:href="#resetDef" x="30" y="36" onmousedown="handleReset()"/>
                <g id="arrowUp" xlink:href="#dirArrow" transform="translate(30 24)" onmousedown="handlePan(0,-1)">
                  <use xlink:href="#rim" fill="#404040">
                        <set attributeName="fill" to="#808080" begin="arrowUp.mouseover" end="arrowUp.mouseout"/>
                  </use>
                  <path fill="none" stroke="white" stroke-width="1.5" d="M0,-3.0v7 M-2.5,-0.5L0,-3.0L2.5,-0.5"/>
                </g>
                <g id="arrowRight" xlink:href="#dirArrow" transform="rotate(90) translate(36 -43)" onmousedown="handlePan(1,0)">
                  <use xlink:href="#rim" fill="#404040">
                        <set attributeName="fill" to="#808080" begin="arrowRight.mouseover" end="arrowRight.mouseout"/>
                  </use>
                  <path fill="none" stroke="white" stroke-width="1.5" d="M0,-3.0v7 M-2.5,-0.5L0,-3.0L2.5,-0.5"/>
                </g>
                <g id="arrowDown" xlink:href="#dirArrow" transform="rotate(180) translate(-30 -48)" onmousedown="handlePan(0,1)">
                  <use xlink:href="#rim" fill="#404040">
                        <set attributeName="fill" to="#808080" begin="arrowDown.mouseover" end="arrowDown.mouseout"/>
                  </use>
                  <path fill="none" stroke="white" stroke-width="1.5" d="M0,-3.0v7 M-2.5,-0.5L0,-3.0L2.5,-0.5"/>
                </g>
                <g id="arrowLeft" xlink:href="#dirArrow" transform="rotate(270) translate(-36 17)" onmousedown="handlePan(-1,0)">
                  <use xlink:href="#rim" fill="#404040">
                        <set attributeName="fill" to="#808080" begin="arrowLeft.mouseover" end="arrowLeft.mouseout"/>
                  </use>
                  <path fill="none" stroke="white" stroke-width="1.5" d="M0,-3.0v7 M-2.5,-0.5L0,-3.0L2.5,-0.5"/>
                </g>
        </g>
        <svg viewBox="0 0 15 15" width="100%" height="30px" preserveAspectRatio="xMaxYMin meet">
         <g id="arrow_out" transform="scale(0.3 0.3)">
          <a xlink:href="helios__boolean_8c__incl_org.svg" target="_base">
           <rect id="button" ry="5" rx="5" y="6" x="6" height="38" width="38"
                fill="#f2f5e9" fill-opacity="0.5" stroke="#606060" stroke-width="1.0"/>
           <path id="arrow"
             d="M 11.500037,31.436501 C 11.940474,20.09759 22.043105,11.32322 32.158766,21.979434 L 37.068811,17.246167 C 37.068811,17.246167 37.088388,32 37.088388,32 L 22.160133,31.978069 C 22.160133,31.978069 26.997745,27.140456 26.997745,27.140456 C 18.528582,18.264221 13.291696,25.230495 11.500037,31.436501 z"
             style="fill:#404040;"/>
          </a>
         </g>
        </svg>
</svg>
