<?xml version="1.0" encoding="UTF-8" standalone="no"?>
<!DOCTYPE svg PUBLIC "-//W3C//DTD SVG 1.1//EN"
 "http://www.w3.org/Graphics/SVG/1.1/DTD/svg11.dtd">
<!-- Generated by graphviz version 2.40.1 (20161225.0304)
 -->
<!-- Title: helios_float_greater Pages: 1 -->
<svg width="808pt" height="97pt"
 viewBox="0.00 0.00 808.00 96.50" xmlns="http://www.w3.org/2000/svg" xmlns:xlink="http://www.w3.org/1999/xlink">
<g id="graph0" class="graph" transform="scale(1 1) rotate(0) translate(4 92.5)">
<title>helios_float_greater</title>
<polygon fill="#ffffff" stroke="transparent" points="-4,4 -4,-92.5 804,-92.5 804,4 -4,4"/>
<!-- Node26 -->
<g id="node1" class="node">
<title>Node26</title>
<g id="a_node1"><a xlink:title=" ">
<polygon fill="#bfbfbf" stroke="#000000" points="0,-41.5 0,-60.5 113,-60.5 113,-41.5 0,-41.5"/>
<text text-anchor="middle" x="56.5" y="-48.5" font-family="Helvetica,sans-Serif" font-size="10.00" fill="#000000">helios_float_greater</text>
</a>
</g>
</g>
<!-- Node27 -->
<g id="node2" class="node">
<title>Node27</title>
<g id="a_node2"><a xlink:href="helios__boolean_8c.html#a50e186696d4b9f2e8efdcddc17ab5ce5" target="_top" xlink:title="Create a helios_boolean object from a c boolean type.">
<polygon fill="#ffffff" stroke="#000000" points="154.5,-58 154.5,-88 273.5,-88 273.5,-58 154.5,-58"/>
<text text-anchor="start" x="162.5" y="-76" font-family="Helvetica,sans-Serif" font-size="10.00" fill="#000000">helios_boolean_from</text>
<text text-anchor="middle" x="214" y="-65" font-family="Helvetica,sans-Serif" font-size="10.00" fill="#000000">_cbool</text>
</a>
</g>
</g>
<!-- Node26&#45;&gt;Node27 -->
<g id="edge1" class="edge">
<title>Node26&#45;&gt;Node27</title>
<path fill="none" stroke="#191970" d="M113.3611,-58.9425C123.3399,-60.3364 133.8281,-61.8014 144.1121,-63.2379"/>
<polygon fill="#191970" stroke="#191970" points="143.9136,-66.744 154.3016,-64.6612 144.882,-59.8114 143.9136,-66.744"/>
</g>
<!-- Node29 -->
<g id="node4" class="node">
<title>Node29</title>
<g id="a_node4"><a xlink:href="helios__boolean_8c.html#a856733e7e090437084fcf595bd4e3b8f" target="_top" xlink:title="Convert a boolean to an integer.">
<polygon fill="#ffffff" stroke="#000000" points="149,-19.5 149,-38.5 279,-38.5 279,-19.5 149,-19.5"/>
<text text-anchor="middle" x="214" y="-26.5" font-family="Helvetica,sans-Serif" font-size="10.00" fill="#000000">helios_boolean_integer</text>
</a>
</g>
</g>
<!-- Node26&#45;&gt;Node29 -->
<g id="edge3" class="edge">
<title>Node26&#45;&gt;Node29</title>
<path fill="none" stroke="#191970" d="M113.3611,-43.0575C121.6575,-41.8986 130.306,-40.6906 138.8965,-39.4906"/>
<polygon fill="#191970" stroke="#191970" points="139.5102,-42.939 148.9298,-38.0892 138.5418,-36.0063 139.5102,-42.939"/>
</g>
<!-- Node28 -->
<g id="node3" class="node">
<title>Node28</title>
<g id="a_node3"><a xlink:href="helios__boolean_8c.html#ab172c15c28782b45e824c42601484606" target="_top" xlink:title="Create a helios_boolean object from a c integer type.">
<polygon fill="#ffffff" stroke="#000000" points="315,-63.5 315,-82.5 457,-82.5 457,-63.5 315,-63.5"/>
<text text-anchor="middle" x="386" y="-70.5" font-family="Helvetica,sans-Serif" font-size="10.00" fill="#000000">helios_boolean_from_cint</text>
</a>
</g>
</g>
<!-- Node27&#45;&gt;Node28 -->
<g id="edge2" class="edge">
<title>Node27&#45;&gt;Node28</title>
<path fill="none" stroke="#191970" d="M273.6745,-73C283.7479,-73 294.3545,-73 304.864,-73"/>
<polygon fill="#191970" stroke="#191970" points="304.8898,-76.5001 314.8897,-73 304.8897,-69.5001 304.8898,-76.5001"/>
</g>
<!-- Node30 -->
<g id="node5" class="node">
<title>Node30</title>
<g id="a_node5"><a xlink:href="helios__integer_8c.html#af677316afd6536844aeb027f14c198cf" target="_top" xlink:title="Create a helios_integer object from a c integer type.">
<polygon fill="#ffffff" stroke="#000000" points="317.5,-19.5 317.5,-38.5 454.5,-38.5 454.5,-19.5 317.5,-19.5"/>
<text text-anchor="middle" x="386" y="-26.5" font-family="Helvetica,sans-Serif" font-size="10.00" fill="#000000">helios_integer_from_cint</text>
</a>
</g>
</g>
<!-- Node29&#45;&gt;Node30 -->
<g id="edge4" class="edge">
<title>Node29&#45;&gt;Node30</title>
<path fill="none" stroke="#191970" d="M279.0258,-29C288.2476,-29 297.8121,-29 307.259,-29"/>
<polygon fill="#191970" stroke="#191970" points="307.4419,-32.5001 317.4418,-29 307.4418,-25.5001 307.4419,-32.5001"/>
</g>
<!-- Node31 -->
<g id="node6" class="node">
<title>Node31</title>
<g id="a_node6"><a xlink:href="helios__integer_8c.html#a50a26b1e9578164839f3a5bb17e04051" target="_top" xlink:title="Constructor of a helios_integer object.">
<polygon fill="#ffffff" stroke="#000000" points="493,-19.5 493,-38.5 600,-38.5 600,-19.5 493,-19.5"/>
<text text-anchor="middle" x="546.5" y="-26.5" font-family="Helvetica,sans-Serif" font-size="10.00" fill="#000000">helios_integer_init</text>
</a>
</g>
</g>
<!-- Node30&#45;&gt;Node31 -->
<g id="edge5" class="edge">
<title>Node30&#45;&gt;Node31</title>
<path fill="none" stroke="#191970" d="M454.532,-29C463.8177,-29 473.3173,-29 482.519,-29"/>
<polygon fill="#191970" stroke="#191970" points="482.7542,-32.5001 492.7542,-29 482.7541,-25.5001 482.7542,-32.5001"/>
</g>
<!-- Node32 -->
<g id="node7" class="node">
<title>Node32</title>
<g id="a_node7"><a xlink:href="helios__memory_8h.html#af87f0050f8e236d0945592fa4e54dc94" target="_top" xlink:title="Allocates a new helios object (and performs all the GC steps associated with that action).">
<polygon fill="#ffffff" stroke="#000000" points="655.5,-38.5 655.5,-57.5 780.5,-57.5 780.5,-38.5 655.5,-38.5"/>
<text text-anchor="middle" x="718" y="-45.5" font-family="Helvetica,sans-Serif" font-size="10.00" fill="#000000">helios_allocate_object</text>
</a>
</g>
</g>
<!-- Node31&#45;&gt;Node32 -->
<g id="edge6" class="edge">
<title>Node31&#45;&gt;Node32</title>
<path fill="none" stroke="#191970" d="M600.2931,-34.9596C614.5001,-36.5335 630.0727,-38.2588 645.106,-39.9243"/>
<polygon fill="#191970" stroke="#191970" points="645.0794,-43.4427 655.404,-41.0652 645.8503,-36.4852 645.0794,-43.4427"/>
</g>
<!-- Node33 -->
<g id="node8" class="node">
<title>Node33</title>
<g id="a_node8"><a xlink:href="helios__memory_8h.html#ab14fb1c046aae61ab06eda8eeaf2cd85" target="_top" xlink:title=" ">
<polygon fill="#ffffff" stroke="#000000" points="636,-.5 636,-19.5 800,-19.5 800,-.5 636,-.5"/>
<text text-anchor="middle" x="718" y="-7.5" font-family="Helvetica,sans-Serif" font-size="10.00" fill="#000000">helios_set_garbagecollectable</text>
</a>
</g>
</g>
<!-- Node31&#45;&gt;Node33 -->
<g id="edge7" class="edge">
<title>Node31&#45;&gt;Node33</title>
<path fill="none" stroke="#191970" d="M600.2931,-23.0404C608.4127,-22.1409 616.9784,-21.1919 625.6345,-20.2329"/>
<polygon fill="#191970" stroke="#191970" points="626.2625,-23.6848 635.8162,-19.1049 625.4916,-16.7274 626.2625,-23.6848"/>
</g>
</g>
</svg>
