<?xml version="1.0" encoding="UTF-8" standalone="no"?>
<!DOCTYPE svg PUBLIC "-//W3C//DTD SVG 1.1//EN"
 "http://www.w3.org/Graphics/SVG/1.1/DTD/svg11.dtd">
<!-- Generated by graphviz version 2.40.1 (20161225.0304)
 -->
<!-- Title: helios_float_lessequal Pages: 1 -->
<svg width="820pt" height="97pt"
 viewBox="0.00 0.00 820.00 96.50" xmlns="http://www.w3.org/2000/svg" xmlns:xlink="http://www.w3.org/1999/xlink">
<g id="graph0" class="graph" transform="scale(1 1) rotate(0) translate(4 92.5)">
<title>helios_float_lessequal</title>
<polygon fill="#ffffff" stroke="transparent" points="-4,4 -4,-92.5 816,-92.5 816,4 -4,4"/>
<!-- Node58 -->
<g id="node1" class="node">
<title>Node58</title>
<g id="a_node1"><a xlink:title=" ">
<polygon fill="#bfbfbf" stroke="#000000" points="0,-41.5 0,-60.5 125,-60.5 125,-41.5 0,-41.5"/>
<text text-anchor="middle" x="62.5" y="-48.5" font-family="Helvetica,sans-Serif" font-size="10.00" fill="#000000">helios_float_lessequal</text>
</a>
</g>
</g>
<!-- Node59 -->
<g id="node2" class="node">
<title>Node59</title>
<g id="a_node2"><a xlink:href="helios__boolean_8c.html#a50e186696d4b9f2e8efdcddc17ab5ce5" target="_top" xlink:title="Create a helios_boolean object from a c boolean type.">
<polygon fill="#ffffff" stroke="#000000" points="166.5,-58 166.5,-88 285.5,-88 285.5,-58 166.5,-58"/>
<text text-anchor="start" x="174.5" y="-76" font-family="Helvetica,sans-Serif" font-size="10.00" fill="#000000">helios_boolean_from</text>
<text text-anchor="middle" x="226" y="-65" font-family="Helvetica,sans-Serif" font-size="10.00" fill="#000000">_cbool</text>
</a>
</g>
</g>
<!-- Node58&#45;&gt;Node59 -->
<g id="edge1" class="edge">
<title>Node58&#45;&gt;Node59</title>
<path fill="none" stroke="#191970" d="M125.2458,-59.4429C135.3769,-60.8061 145.9203,-62.2247 156.2056,-63.6087"/>
<polygon fill="#191970" stroke="#191970" points="156.0026,-67.1128 166.38,-64.9777 156.9361,-60.1754 156.0026,-67.1128"/>
</g>
<!-- Node61 -->
<g id="node4" class="node">
<title>Node61</title>
<g id="a_node4"><a xlink:href="helios__boolean_8c.html#a856733e7e090437084fcf595bd4e3b8f" target="_top" xlink:title="Convert a boolean to an integer.">
<polygon fill="#ffffff" stroke="#000000" points="161,-19.5 161,-38.5 291,-38.5 291,-19.5 161,-19.5"/>
<text text-anchor="middle" x="226" y="-26.5" font-family="Helvetica,sans-Serif" font-size="10.00" fill="#000000">helios_boolean_integer</text>
</a>
</g>
</g>
<!-- Node58&#45;&gt;Node61 -->
<g id="edge3" class="edge">
<title>Node58&#45;&gt;Node61</title>
<path fill="none" stroke="#191970" d="M125.2458,-42.5571C133.6602,-41.4249 142.3591,-40.2544 150.9582,-39.0974"/>
<polygon fill="#191970" stroke="#191970" points="151.5402,-42.5507 160.9841,-37.7483 150.6067,-35.6132 151.5402,-42.5507"/>
</g>
<!-- Node60 -->
<g id="node3" class="node">
<title>Node60</title>
<g id="a_node3"><a xlink:href="helios__boolean_8c.html#ab172c15c28782b45e824c42601484606" target="_top" xlink:title="Create a helios_boolean object from a c integer type.">
<polygon fill="#ffffff" stroke="#000000" points="327,-63.5 327,-82.5 469,-82.5 469,-63.5 327,-63.5"/>
<text text-anchor="middle" x="398" y="-70.5" font-family="Helvetica,sans-Serif" font-size="10.00" fill="#000000">helios_boolean_from_cint</text>
</a>
</g>
</g>
<!-- Node59&#45;&gt;Node60 -->
<g id="edge2" class="edge">
<title>Node59&#45;&gt;Node60</title>
<path fill="none" stroke="#191970" d="M285.6745,-73C295.7479,-73 306.3545,-73 316.864,-73"/>
<polygon fill="#191970" stroke="#191970" points="316.8898,-76.5001 326.8897,-73 316.8897,-69.5001 316.8898,-76.5001"/>
</g>
<!-- Node62 -->
<g id="node5" class="node">
<title>Node62</title>
<g id="a_node5"><a xlink:href="helios__integer_8c.html#af677316afd6536844aeb027f14c198cf" target="_top" xlink:title="Create a helios_integer object from a c integer type.">
<polygon fill="#ffffff" stroke="#000000" points="329.5,-19.5 329.5,-38.5 466.5,-38.5 466.5,-19.5 329.5,-19.5"/>
<text text-anchor="middle" x="398" y="-26.5" font-family="Helvetica,sans-Serif" font-size="10.00" fill="#000000">helios_integer_from_cint</text>
</a>
</g>
</g>
<!-- Node61&#45;&gt;Node62 -->
<g id="edge4" class="edge">
<title>Node61&#45;&gt;Node62</title>
<path fill="none" stroke="#191970" d="M291.0258,-29C300.2476,-29 309.8121,-29 319.259,-29"/>
<polygon fill="#191970" stroke="#191970" points="319.4419,-32.5001 329.4418,-29 319.4418,-25.5001 319.4419,-32.5001"/>
</g>
<!-- Node63 -->
<g id="node6" class="node">
<title>Node63</title>
<g id="a_node6"><a xlink:href="helios__integer_8c.html#a50a26b1e9578164839f3a5bb17e04051" target="_top" xlink:title="Constructor of a helios_integer object.">
<polygon fill="#ffffff" stroke="#000000" points="505,-19.5 505,-38.5 612,-38.5 612,-19.5 505,-19.5"/>
<text text-anchor="middle" x="558.5" y="-26.5" font-family="Helvetica,sans-Serif" font-size="10.00" fill="#000000">helios_integer_init</text>
</a>
</g>
</g>
<!-- Node62&#45;&gt;Node63 -->
<g id="edge5" class="edge">
<title>Node62&#45;&gt;Node63</title>
<path fill="none" stroke="#191970" d="M466.532,-29C475.8177,-29 485.3173,-29 494.519,-29"/>
<polygon fill="#191970" stroke="#191970" points="494.7542,-32.5001 504.7542,-29 494.7541,-25.5001 494.7542,-32.5001"/>
</g>
<!-- Node64 -->
<g id="node7" class="node">
<title>Node64</title>
<g id="a_node7"><a xlink:href="helios__memory_8h.html#af87f0050f8e236d0945592fa4e54dc94" target="_top" xlink:title="Allocates a new helios object (and performs all the GC steps associated with that action).">
<polygon fill="#ffffff" stroke="#000000" points="667.5,-38.5 667.5,-57.5 792.5,-57.5 792.5,-38.5 667.5,-38.5"/>
<text text-anchor="middle" x="730" y="-45.5" font-family="Helvetica,sans-Serif" font-size="10.00" fill="#000000">helios_allocate_object</text>
</a>
</g>
</g>
<!-- Node63&#45;&gt;Node64 -->
<g id="edge6" class="edge">
<title>Node63&#45;&gt;Node64</title>
<path fill="none" stroke="#191970" d="M612.2931,-34.9596C626.5001,-36.5335 642.0727,-38.2588 657.106,-39.9243"/>
<polygon fill="#191970" stroke="#191970" points="657.0794,-43.4427 667.404,-41.0652 657.8503,-36.4852 657.0794,-43.4427"/>
</g>
<!-- Node65 -->
<g id="node8" class="node">
<title>Node65</title>
<g id="a_node8"><a xlink:href="helios__memory_8h.html#ab14fb1c046aae61ab06eda8eeaf2cd85" target="_top" xlink:title=" ">
<polygon fill="#ffffff" stroke="#000000" points="648,-.5 648,-19.5 812,-19.5 812,-.5 648,-.5"/>
<text text-anchor="middle" x="730" y="-7.5" font-family="Helvetica,sans-Serif" font-size="10.00" fill="#000000">helios_set_garbagecollectable</text>
</a>
</g>
</g>
<!-- Node63&#45;&gt;Node65 -->
<g id="edge7" class="edge">
<title>Node63&#45;&gt;Node65</title>
<path fill="none" stroke="#191970" d="M612.2931,-23.0404C620.4127,-22.1409 628.9784,-21.1919 637.6345,-20.2329"/>
<polygon fill="#191970" stroke="#191970" points="638.2625,-23.6848 647.8162,-19.1049 637.4916,-16.7274 638.2625,-23.6848"/>
</g>
</g>
</svg>
