<?xml version="1.0" encoding="UTF-8" standalone="no"?>
<!DOCTYPE svg PUBLIC "-//W3C//DTD SVG 1.1//EN"
 "http://www.w3.org/Graphics/SVG/1.1/DTD/svg11.dtd">
<!-- Generated by graphviz version 2.40.1 (20161225.0304)
 -->
<!-- Title: builtins/float/helios_float.c Pages: 1 -->
<svg width="386pt" height="319pt"
 viewBox="0.00 0.00 386.00 319.00" xmlns="http://www.w3.org/2000/svg" xmlns:xlink="http://www.w3.org/1999/xlink">
<g id="graph0" class="graph" transform="scale(1 1) rotate(0) translate(4 315)">
<title>builtins/float/helios_float.c</title>
<polygon fill="#ffffff" stroke="transparent" points="-4,4 -4,-315 382,-315 382,4 -4,4"/>
<!-- Node0 -->
<g id="node1" class="node">
<title>Node0</title>
<g id="a_node1"><a xlink:title=" ">
<polygon fill="#bfbfbf" stroke="#000000" points="155,-280.5 155,-310.5 253,-310.5 253,-280.5 155,-280.5"/>
<text text-anchor="start" x="163" y="-298.5" font-family="Helvetica,sans-Serif" font-size="10.00" fill="#000000">builtins/float/helios</text>
<text text-anchor="middle" x="204" y="-287.5" font-family="Helvetica,sans-Serif" font-size="10.00" fill="#000000">_float.c</text>
</a>
</g>
</g>
<!-- Node1 -->
<g id="node2" class="node">
<title>Node1</title>
<g id="a_node2"><a xlink:href="helios__float_8h.html" target="_top" xlink:title=" ">
<polygon fill="#ffffff" stroke="#000000" points="0,-224.5 0,-243.5 74,-243.5 74,-224.5 0,-224.5"/>
<text text-anchor="middle" x="37" y="-231.5" font-family="Helvetica,sans-Serif" font-size="10.00" fill="#000000">helios_float.h</text>
</a>
</g>
</g>
<!-- Node0&#45;&gt;Node1 -->
<g id="edge1" class="edge">
<title>Node0&#45;&gt;Node1</title>
<path fill="none" stroke="#191970" d="M163.1472,-280.4554C135.405,-270.239 99.0775,-256.8609 72.5345,-247.0861"/>
<polygon fill="#191970" stroke="#191970" points="73.4725,-243.7018 62.8791,-243.5303 71.0535,-250.2705 73.4725,-243.7018"/>
</g>
<!-- Node2 -->
<g id="node3" class="node">
<title>Node2</title>
<g id="a_node3"><a xlink:href="helios__object_8h.html" target="_top" xlink:title=" ">
<polygon fill="#ffffff" stroke="#000000" points="72,-168.5 72,-187.5 154,-187.5 154,-168.5 72,-168.5"/>
<text text-anchor="middle" x="113" y="-175.5" font-family="Helvetica,sans-Serif" font-size="10.00" fill="#000000">helios_object.h</text>
</a>
</g>
</g>
<!-- Node0&#45;&gt;Node2 -->
<g id="edge12" class="edge">
<title>Node0&#45;&gt;Node2</title>
<path fill="none" stroke="#191970" d="M164.8887,-280.3653C148.689,-272.0806 131.3092,-260.1534 121,-244 112.2786,-230.3345 110.719,-211.7973 111.0879,-197.8475"/>
<polygon fill="#191970" stroke="#191970" points="114.5839,-198.0182 111.6972,-187.8242 107.5968,-197.5934 114.5839,-198.0182"/>
</g>
<!-- Node4 -->
<g id="node5" class="node">
<title>Node4</title>
<g id="a_node5"><a xlink:href="helios__memory_8h.html" target="_top" xlink:title=" ">
<polygon fill="#ffffff" stroke="#000000" points="187,-56.5 187,-75.5 277,-75.5 277,-56.5 187,-56.5"/>
<text text-anchor="middle" x="232" y="-63.5" font-family="Helvetica,sans-Serif" font-size="10.00" fill="#000000">helios_memory.h</text>
</a>
</g>
</g>
<!-- Node0&#45;&gt;Node4 -->
<g id="edge11" class="edge">
<title>Node0&#45;&gt;Node4</title>
<path fill="none" stroke="#191970" d="M209.3183,-280.3773C212.6624,-270.2202 216.7555,-256.4645 219,-244 229.2171,-187.2609 231.4497,-118.9704 231.907,-85.8921"/>
<polygon fill="#191970" stroke="#191970" points="235.4083,-85.7703 232.0049,-75.737 228.4086,-85.7028 235.4083,-85.7703"/>
</g>
<!-- Node10 -->
<g id="node11" class="node">
<title>Node10</title>
<g id="a_node11"><a xlink:href="helios__string_8h.html" target="_top" xlink:title=" ">
<polygon fill="#ffffff" stroke="#000000" points="130,-224.5 130,-243.5 210,-243.5 210,-224.5 130,-224.5"/>
<text text-anchor="middle" x="170" y="-231.5" font-family="Helvetica,sans-Serif" font-size="10.00" fill="#000000">helios_string.h</text>
</a>
</g>
</g>
<!-- Node0&#45;&gt;Node10 -->
<g id="edge13" class="edge">
<title>Node0&#45;&gt;Node10</title>
<path fill="none" stroke="#191970" d="M195.5955,-280.2977C190.9743,-271.9388 185.2031,-261.4997 180.3111,-252.6509"/>
<polygon fill="#191970" stroke="#191970" points="183.3452,-250.9051 175.4438,-243.8469 177.2191,-254.292 183.3452,-250.9051"/>
</g>
<!-- Node11 -->
<g id="node12" class="node">
<title>Node11</title>
<g id="a_node12"><a xlink:title=" ">
<polygon fill="#ffffff" stroke="#bfbfbf" points="266.5,-224.5 266.5,-243.5 313.5,-243.5 313.5,-224.5 266.5,-224.5"/>
<text text-anchor="middle" x="290" y="-231.5" font-family="Helvetica,sans-Serif" font-size="10.00" fill="#000000">math.h</text>
</a>
</g>
</g>
<!-- Node0&#45;&gt;Node11 -->
<g id="edge15" class="edge">
<title>Node0&#45;&gt;Node11</title>
<path fill="none" stroke="#191970" d="M225.2584,-280.2977C238.2718,-270.9917 254.8903,-259.1075 268.0317,-249.7099"/>
<polygon fill="#191970" stroke="#191970" points="270.3889,-252.3271 276.4871,-243.6633 266.3171,-246.6332 270.3889,-252.3271"/>
</g>
<!-- Node12 -->
<g id="node13" class="node">
<title>Node12</title>
<g id="a_node13"><a xlink:title=" ">
<polygon fill="#ffffff" stroke="#bfbfbf" points="332,-224.5 332,-243.5 378,-243.5 378,-224.5 332,-224.5"/>
<text text-anchor="middle" x="355" y="-231.5" font-family="Helvetica,sans-Serif" font-size="10.00" fill="#000000">stdio.h</text>
</a>
</g>
</g>
<!-- Node0&#45;&gt;Node12 -->
<g id="edge16" class="edge">
<title>Node0&#45;&gt;Node12</title>
<path fill="none" stroke="#191970" d="M240.9388,-280.4554C265.802,-270.329 298.2918,-257.0964 322.2336,-247.3453"/>
<polygon fill="#191970" stroke="#191970" points="323.6593,-250.5438 331.6004,-243.5303 321.0188,-244.0609 323.6593,-250.5438"/>
</g>
<!-- Node1&#45;&gt;Node2 -->
<g id="edge2" class="edge">
<title>Node1&#45;&gt;Node2</title>
<path fill="none" stroke="#191970" d="M50.2382,-224.2455C61.681,-215.814 78.4296,-203.4729 91.7475,-193.6598"/>
<polygon fill="#191970" stroke="#191970" points="93.9391,-196.3924 99.9135,-187.6427 89.7867,-190.757 93.9391,-196.3924"/>
</g>
<!-- Node3 -->
<g id="node4" class="node">
<title>Node3</title>
<g id="a_node4"><a xlink:href="helios__type_8h.html" target="_top" xlink:title=" ">
<polygon fill="#ffffff" stroke="#000000" points="100,-112.5 100,-131.5 174,-131.5 174,-112.5 100,-112.5"/>
<text text-anchor="middle" x="137" y="-119.5" font-family="Helvetica,sans-Serif" font-size="10.00" fill="#000000">helios_type.h</text>
</a>
</g>
</g>
<!-- Node2&#45;&gt;Node3 -->
<g id="edge3" class="edge">
<title>Node2&#45;&gt;Node3</title>
<path fill="none" stroke="#191970" d="M117.1805,-168.2455C120.381,-160.7776 124.896,-150.2427 128.8084,-141.1137"/>
<polygon fill="#191970" stroke="#191970" points="132.1452,-142.2129 132.8674,-131.6427 125.7112,-139.4554 132.1452,-142.2129"/>
</g>
<!-- Node3&#45;&gt;Node4 -->
<g id="edge4" class="edge">
<title>Node3&#45;&gt;Node4</title>
<path fill="none" stroke="#191970" d="M153.5477,-112.2455C168.2599,-103.5731 189.9888,-90.7645 206.8505,-80.825"/>
<polygon fill="#191970" stroke="#191970" points="208.8046,-83.736 215.6419,-75.6427 205.2498,-77.7057 208.8046,-83.736"/>
</g>
<!-- Node8 -->
<g id="node9" class="node">
<title>Node8</title>
<g id="a_node9"><a xlink:title=" ">
<polygon fill="#ffffff" stroke="#bfbfbf" points="66.5,-.5 66.5,-19.5 115.5,-19.5 115.5,-.5 66.5,-.5"/>
<text text-anchor="middle" x="91" y="-7.5" font-family="Helvetica,sans-Serif" font-size="10.00" fill="#000000">stdint.h</text>
</a>
</g>
</g>
<!-- Node3&#45;&gt;Node8 -->
<g id="edge9" class="edge">
<title>Node3&#45;&gt;Node8</title>
<path fill="none" stroke="#191970" d="M130.2361,-112.1523C124.2539,-103.0886 115.626,-89.104 110,-76 103.532,-60.9347 98.5308,-43.0127 95.2866,-29.6489"/>
<polygon fill="#191970" stroke="#191970" points="98.6401,-28.6151 92.9812,-19.6581 91.8194,-30.1891 98.6401,-28.6151"/>
</g>
<!-- Node9 -->
<g id="node10" class="node">
<title>Node9</title>
<g id="a_node10"><a xlink:title=" ">
<polygon fill="#ffffff" stroke="#bfbfbf" points="119,-56.5 119,-75.5 167,-75.5 167,-56.5 119,-56.5"/>
<text text-anchor="middle" x="143" y="-63.5" font-family="Helvetica,sans-Serif" font-size="10.00" fill="#000000">stdlib.h</text>
</a>
</g>
</g>
<!-- Node3&#45;&gt;Node9 -->
<g id="edge10" class="edge">
<title>Node3&#45;&gt;Node9</title>
<path fill="none" stroke="#191970" d="M138.0451,-112.2455C138.828,-104.9382 139.9256,-94.6944 140.8888,-85.7046"/>
<polygon fill="#191970" stroke="#191970" points="144.3815,-85.9587 141.9669,-75.6427 137.4214,-85.2129 144.3815,-85.9587"/>
</g>
<!-- Node5 -->
<g id="node6" class="node">
<title>Node5</title>
<g id="a_node6"><a xlink:href="builtinutils_8h.html" target="_top" xlink:title=" ">
<polygon fill="#ffffff" stroke="#000000" points="278,-.5 278,-19.5 346,-19.5 346,-.5 278,-.5"/>
<text text-anchor="middle" x="312" y="-7.5" font-family="Helvetica,sans-Serif" font-size="10.00" fill="#000000">builtinutils.h</text>
</a>
</g>
</g>
<!-- Node4&#45;&gt;Node5 -->
<g id="edge5" class="edge">
<title>Node4&#45;&gt;Node5</title>
<path fill="none" stroke="#191970" d="M245.9349,-56.2455C258.0947,-47.7337 275.9464,-35.2375 290.0285,-25.3801"/>
<polygon fill="#191970" stroke="#191970" points="292.0395,-28.2447 298.2248,-19.6427 288.0253,-22.51 292.0395,-28.2447"/>
</g>
<!-- Node6 -->
<g id="node7" class="node">
<title>Node6</title>
<g id="a_node7"><a xlink:title=" ">
<polygon fill="#ffffff" stroke="#bfbfbf" points="134,-.5 134,-19.5 190,-19.5 190,-.5 134,-.5"/>
<text text-anchor="middle" x="162" y="-7.5" font-family="Helvetica,sans-Serif" font-size="10.00" fill="#000000">stdbool.h</text>
</a>
</g>
</g>
<!-- Node4&#45;&gt;Node6 -->
<g id="edge6" class="edge">
<title>Node4&#45;&gt;Node6</title>
<path fill="none" stroke="#191970" d="M219.8069,-56.2455C209.3679,-47.8943 194.1345,-35.7076 181.926,-25.9408"/>
<polygon fill="#191970" stroke="#191970" points="184.0485,-23.1566 174.0533,-19.6427 179.6756,-28.6227 184.0485,-23.1566"/>
</g>
<!-- Node7 -->
<g id="node8" class="node">
<title>Node7</title>
<g id="a_node8"><a xlink:title=" ">
<polygon fill="#ffffff" stroke="#bfbfbf" points="208,-.5 208,-19.5 260,-19.5 260,-.5 208,-.5"/>
<text text-anchor="middle" x="234" y="-7.5" font-family="Helvetica,sans-Serif" font-size="10.00" fill="#000000">stddef.h</text>
</a>
</g>
</g>
<!-- Node4&#45;&gt;Node7 -->
<g id="edge7" class="edge">
<title>Node4&#45;&gt;Node7</title>
<path fill="none" stroke="#191970" d="M232.3484,-56.2455C232.6093,-48.9382 232.9752,-38.6944 233.2963,-29.7046"/>
<polygon fill="#191970" stroke="#191970" points="236.7964,-29.7613 233.6556,-19.6427 229.8008,-29.5113 236.7964,-29.7613"/>
</g>
<!-- Node4&#45;&gt;Node8 -->
<g id="edge8" class="edge">
<title>Node4&#45;&gt;Node8</title>
<path fill="none" stroke="#191970" d="M207.7612,-56.3733C184.7211,-47.2226 149.8786,-33.3844 124.2499,-23.2057"/>
<polygon fill="#191970" stroke="#191970" points="125.5082,-19.9395 114.9225,-19.5011 122.9244,-26.4452 125.5082,-19.9395"/>
</g>
<!-- Node10&#45;&gt;Node2 -->
<g id="edge14" class="edge">
<title>Node10&#45;&gt;Node2</title>
<path fill="none" stroke="#191970" d="M160.0714,-224.2455C151.8162,-216.1352 139.8791,-204.4075 130.0918,-194.7919"/>
<polygon fill="#191970" stroke="#191970" points="132.4011,-192.1542 122.8149,-187.6427 127.4954,-197.1476 132.4011,-192.1542"/>
</g>
</g>
</svg>
