<?xml version="1.0" encoding="UTF-8" standalone="no"?>
<!DOCTYPE svg PUBLIC "-//W3C//DTD SVG 1.1//EN"
 "http://www.w3.org/Graphics/SVG/1.1/DTD/svg11.dtd">
<!-- Generated by graphviz version 2.40.1 (20161225.0304)
 -->
<!-- Title: builtins/type/include/helios_type.h Pages: 1 -->
<!--zoomable 296 -->
<svg id="main" version="1.1" xmlns="http://www.w3.org/2000/svg" xmlns:xlink="http://www.w3.org/1999/xlink" xml:space="preserve" onload="init(evt)">
<style type="text/css"><![CDATA[
.edge:hover path { stroke: red; }
.edge:hover polygon { stroke: red; fill: red; }
]]></style>
<script type="text/javascript"><![CDATA[
var edges = document.getElementsByTagName('g');
if (edges && edges.length) {
  for (var i=0;i<edges.length;i++) {
    if (edges[i].id.substr(0,4)=='edge') {
      edges[i].setAttribute('class','edge');
    }
  }
}
]]></script>
        <defs>
                <circle id="rim" cx="0" cy="0" r="7"/>
                <circle id="rim2" cx="0" cy="0" r="3.5"/>
                <g id="zoomPlus">
                        <use xlink:href="#rim" fill="#404040">
                                <set attributeName="fill" to="#808080" begin="zoomplus.mouseover" end="zoomplus.mouseout"/>
                        </use>
                        <path d="M-4,0h8M0,-4v8" fill="none" stroke="white" stroke-width="1.5" pointer-events="none"/>
                </g>
                <g id="zoomMin">
                        <use xlink:href="#rim" fill="#404040">
                                <set attributeName="fill" to="#808080" begin="zoomminus.mouseover" end="zoomminus.mouseout"/>
                        </use>
                        <path d="M-4,0h8" fill="none" stroke="white" stroke-width="1.5" pointer-events="none"/>
                </g>
                <g id="dirArrow">
                        <path fill="none" stroke="white" stroke-width="1.5" d="M0,-3.0v7 M-2.5,-0.5L0,-3.0L2.5,-0.5"/>
                </g>
               <g id="resetDef">
                       <use xlink:href="#rim2" fill="#404040">
                               <set attributeName="fill" to="#808080" begin="reset.mouseover" end="reset.mouseout"/>
                       </use>
               </g>
        </defs>

<script type="text/javascript">
var viewWidth = 1020;
var viewHeight = 296;
var sectionId = 'dynsection-1';
</script>
<script xlink:href="svgpan.js"/>
<svg id="graph" class="graph">
<g id="viewport">
<title>builtins/type/include/helios_type.h</title>
<polygon fill="#ffffff" stroke="transparent" points="-4,4 -4,-292 1016,-292 1016,4 -4,4"/>
<!-- Node7 -->
<g id="node1" class="node">
<title>Node7</title>
<g id="a_node1"><a xlink:title=" ">
<polygon fill="#bfbfbf" stroke="#000000" points="411,-257.5 411,-287.5 514,-287.5 514,-257.5 411,-257.5"/>
<text text-anchor="start" x="419" y="-275.5" font-family="Helvetica,sans-Serif" font-size="10.00" fill="#000000">builtins/type/include</text>
<text text-anchor="middle" x="462.5" y="-264.5" font-family="Helvetica,sans-Serif" font-size="10.00" fill="#000000">/helios_type.h</text>
</a>
</g>
</g>
<!-- Node8 -->
<g id="node2" class="node">
<title>Node8</title>
<g id="a_node2"><a xlink:href="helios__object_8c.html" target="_top" xlink:title=" ">
<polygon fill="#ffffff" stroke="#000000" points="0,-123.5 0,-153.5 105,-153.5 105,-123.5 0,-123.5"/>
<text text-anchor="start" x="8" y="-141.5" font-family="Helvetica,sans-Serif" font-size="10.00" fill="#000000">builtins/object/helios</text>
<text text-anchor="middle" x="52.5" y="-130.5" font-family="Helvetica,sans-Serif" font-size="10.00" fill="#000000">_object.c</text>
</a>
</g>
</g>
<!-- Node7&#45;&gt;Node8 -->
<g id="edge1" class="edge">
<title>Node7&#45;&gt;Node8</title>
<path fill="none" stroke="#191970" d="M406.6515,-254.2471C324.9426,-227.5422 174.3241,-178.3157 98.5663,-153.5558"/>
<polygon fill="#191970" stroke="#191970" points="405.6722,-257.6092 416.2648,-257.389 407.8469,-250.9555 405.6722,-257.6092"/>
</g>
<!-- Node9 -->
<g id="node3" class="node">
<title>Node9</title>
<g id="a_node3"><a xlink:href="helios__object_8h.html" target="_top" xlink:title=" ">
<polygon fill="#ffffff" stroke="#000000" points="407.5,-190.5 407.5,-220.5 517.5,-220.5 517.5,-190.5 407.5,-190.5"/>
<text text-anchor="start" x="415.5" y="-208.5" font-family="Helvetica,sans-Serif" font-size="10.00" fill="#000000">builtins/object/include</text>
<text text-anchor="middle" x="462.5" y="-197.5" font-family="Helvetica,sans-Serif" font-size="10.00" fill="#000000">/helios_object.h</text>
</a>
</g>
</g>
<!-- Node7&#45;&gt;Node9 -->
<g id="edge2" class="edge">
<title>Node7&#45;&gt;Node9</title>
<path fill="none" stroke="#191970" d="M462.5,-247.0249C462.5,-238.128 462.5,-228.4287 462.5,-220.6432"/>
<polygon fill="#191970" stroke="#191970" points="459.0001,-247.2966 462.5,-257.2967 466.0001,-247.2967 459.0001,-247.2966"/>
</g>
<!-- Node22 -->
<g id="node16" class="node">
<title>Node22</title>
<g id="a_node16"><a xlink:href="helios__type_8c.html" target="_top" xlink:title=" ">
<polygon fill="#ffffff" stroke="#000000" points="535.5,-190.5 535.5,-220.5 633.5,-220.5 633.5,-190.5 535.5,-190.5"/>
<text text-anchor="start" x="543.5" y="-208.5" font-family="Helvetica,sans-Serif" font-size="10.00" fill="#000000">builtins/type/helios</text>
<text text-anchor="middle" x="584.5" y="-197.5" font-family="Helvetica,sans-Serif" font-size="10.00" fill="#000000">_type.c</text>
</a>
</g>
</g>
<!-- Node7&#45;&gt;Node22 -->
<g id="edge29" class="edge">
<title>Node7&#45;&gt;Node22</title>
<path fill="none" stroke="#191970" d="M498.6718,-252.6352C517.2688,-242.422 539.5781,-230.1702 556.7901,-220.7177"/>
<polygon fill="#191970" stroke="#191970" points="496.9596,-249.5823 489.8792,-257.4639 500.3292,-255.718 496.9596,-249.5823"/>
</g>
<!-- Node9&#45;&gt;Node8 -->
<g id="edge21" class="edge">
<title>Node9&#45;&gt;Node8</title>
<path fill="none" stroke="#191970" d="M397.0137,-197.2197C327.7986,-188.1057 215.5719,-172.2961 119.5,-154 114.8087,-153.1066 109.9476,-152.1139 105.0844,-151.0749"/>
<polygon fill="#191970" stroke="#191970" points="396.9553,-200.7418 407.3251,-198.5697 397.8641,-193.801 396.9553,-200.7418"/>
</g>
<!-- Node10 -->
<g id="node4" class="node">
<title>Node10</title>
<g id="a_node4"><a xlink:href="helios__float_8c.html" target="_top" xlink:title=" ">
<polygon fill="#ffffff" stroke="#000000" points="593.5,-56.5 593.5,-86.5 691.5,-86.5 691.5,-56.5 593.5,-56.5"/>
<text text-anchor="start" x="601.5" y="-74.5" font-family="Helvetica,sans-Serif" font-size="10.00" fill="#000000">builtins/float/helios</text>
<text text-anchor="middle" x="642.5" y="-63.5" font-family="Helvetica,sans-Serif" font-size="10.00" fill="#000000">_float.c</text>
</a>
</g>
</g>
<!-- Node9&#45;&gt;Node10 -->
<g id="edge3" class="edge">
<title>Node9&#45;&gt;Node10</title>
<path fill="none" stroke="#191970" d="M527.6138,-187.9642C569.1873,-176.2089 616.5558,-161.5476 623.5,-154 640.5172,-135.504 643.2779,-104.9075 643.2352,-86.6286"/>
<polygon fill="#191970" stroke="#191970" points="526.4341,-184.66 517.7507,-190.7303 528.3243,-191.3999 526.4341,-184.66"/>
</g>
<!-- Node11 -->
<g id="node5" class="node">
<title>Node11</title>
<g id="a_node5"><a xlink:href="helios__float__math_8c.html" target="_top" xlink:title=" ">
<polygon fill="#ffffff" stroke="#000000" points="121.5,-56.5 121.5,-86.5 219.5,-86.5 219.5,-56.5 121.5,-56.5"/>
<text text-anchor="start" x="129.5" y="-74.5" font-family="Helvetica,sans-Serif" font-size="10.00" fill="#000000">builtins/float/helios</text>
<text text-anchor="middle" x="170.5" y="-63.5" font-family="Helvetica,sans-Serif" font-size="10.00" fill="#000000">_float_math.c</text>
</a>
</g>
</g>
<!-- Node9&#45;&gt;Node11 -->
<g id="edge4" class="edge">
<title>Node9&#45;&gt;Node11</title>
<path fill="none" stroke="#191970" d="M397.2957,-202.3323C323.3807,-197.2959 209.3802,-184.6675 180.5,-154 163.5859,-136.0391 164.8061,-105.2628 167.4812,-86.8055"/>
<polygon fill="#191970" stroke="#191970" points="397.2399,-205.836 407.4464,-202.9937 397.6951,-198.8509 397.2399,-205.836"/>
</g>
<!-- Node12 -->
<g id="node6" class="node">
<title>Node12</title>
<g id="a_node6"><a xlink:href="helios__float_8h.html" target="_top" xlink:title=" ">
<polygon fill="#ffffff" stroke="#000000" points="200,-123.5 200,-153.5 303,-153.5 303,-123.5 200,-123.5"/>
<text text-anchor="start" x="208" y="-141.5" font-family="Helvetica,sans-Serif" font-size="10.00" fill="#000000">builtins/float/include</text>
<text text-anchor="middle" x="251.5" y="-130.5" font-family="Helvetica,sans-Serif" font-size="10.00" fill="#000000">/helios_float.h</text>
</a>
</g>
</g>
<!-- Node9&#45;&gt;Node12 -->
<g id="edge5" class="edge">
<title>Node9&#45;&gt;Node12</title>
<path fill="none" stroke="#191970" d="M405.5373,-187.4123C372.2103,-176.8298 330.6203,-163.6235 299.059,-153.6017"/>
<polygon fill="#191970" stroke="#191970" points="404.5572,-190.7732 415.1475,-190.4639 406.6757,-184.1015 404.5572,-190.7732"/>
</g>
<!-- Node13 -->
<g id="node7" class="node">
<title>Node13</title>
<g id="a_node7"><a xlink:href="builtins_8h.html" target="_top" xlink:title=" ">
<polygon fill="#ffffff" stroke="#000000" points="401,-62 401,-81 524,-81 524,-62 401,-62"/>
<text text-anchor="middle" x="462.5" y="-69" font-family="Helvetica,sans-Serif" font-size="10.00" fill="#000000">builtins/include/builtins.h</text>
</a>
</g>
</g>
<!-- Node9&#45;&gt;Node13 -->
<g id="edge13" class="edge">
<title>Node9&#45;&gt;Node13</title>
<path fill="none" stroke="#191970" d="M462.5,-180.2559C462.5,-150.2327 462.5,-101.6073 462.5,-81.1042"/>
<polygon fill="#191970" stroke="#191970" points="459.0001,-180.3889 462.5,-190.389 466.0001,-180.389 459.0001,-180.3889"/>
</g>
<!-- Node15 -->
<g id="node9" class="node">
<title>Node15</title>
<g id="a_node9"><a xlink:href="helios__integer__math_8c.html" target="_top" xlink:title=" ">
<polygon fill="#ffffff" stroke="#000000" points="237.5,-56.5 237.5,-86.5 345.5,-86.5 345.5,-56.5 237.5,-56.5"/>
<text text-anchor="start" x="245.5" y="-74.5" font-family="Helvetica,sans-Serif" font-size="10.00" fill="#000000">builtins/integer/helios</text>
<text text-anchor="middle" x="291.5" y="-63.5" font-family="Helvetica,sans-Serif" font-size="10.00" fill="#000000">_integer_math.c</text>
</a>
</g>
</g>
<!-- Node9&#45;&gt;Node15 -->
<g id="edge15" class="edge">
<title>Node9&#45;&gt;Node15</title>
<path fill="none" stroke="#191970" d="M396.9833,-202.4263C325.0227,-197.5158 216.2167,-185.0428 190.5,-154 167.7509,-126.5395 211.2237,-101.6409 248.0453,-86.5461"/>
<polygon fill="#191970" stroke="#191970" points="397.113,-205.942 407.3188,-203.0973 397.5666,-198.9567 397.113,-205.942"/>
</g>
<!-- Node16 -->
<g id="node10" class="node">
<title>Node16</title>
<g id="a_node10"><a xlink:href="helios__hashmap_8h.html" target="_top" xlink:title=" ">
<polygon fill="#ffffff" stroke="#000000" points="490.5,-123.5 490.5,-153.5 614.5,-153.5 614.5,-123.5 490.5,-123.5"/>
<text text-anchor="start" x="498.5" y="-141.5" font-family="Helvetica,sans-Serif" font-size="10.00" fill="#000000">builtins/hashmap/include</text>
<text text-anchor="middle" x="552.5" y="-130.5" font-family="Helvetica,sans-Serif" font-size="10.00" fill="#000000">/helios_hashmap.h</text>
</a>
</g>
</g>
<!-- Node9&#45;&gt;Node16 -->
<g id="edge11" class="edge">
<title>Node9&#45;&gt;Node16</title>
<path fill="none" stroke="#191970" d="M491.2942,-184.0643C504.6016,-174.1577 520.0913,-162.6265 532.1584,-153.6432"/>
<polygon fill="#191970" stroke="#191970" points="488.8537,-181.5177 482.9224,-190.2967 493.0338,-187.1327 488.8537,-181.5177"/>
</g>
<!-- Node17 -->
<g id="node11" class="node">
<title>Node17</title>
<g id="a_node11"><a xlink:href="helios__integer_8c.html" target="_top" xlink:title=" ">
<polygon fill="#ffffff" stroke="#000000" points="782.5,-56.5 782.5,-86.5 890.5,-86.5 890.5,-56.5 782.5,-56.5"/>
<text text-anchor="start" x="790.5" y="-74.5" font-family="Helvetica,sans-Serif" font-size="10.00" fill="#000000">builtins/integer/helios</text>
<text text-anchor="middle" x="836.5" y="-63.5" font-family="Helvetica,sans-Serif" font-size="10.00" fill="#000000">_integer.c</text>
</a>
</g>
</g>
<!-- Node9&#45;&gt;Node17 -->
<g id="edge14" class="edge">
<title>Node9&#45;&gt;Node17</title>
<path fill="none" stroke="#191970" d="M527.5989,-190.3603C599.6222,-183.1597 876.6875,-183.4948 903.5,-154 924.1029,-131.336 889.8149,-103.3755 863.1596,-86.5169"/>
<polygon fill="#191970" stroke="#191970" points="527.0329,-186.9041 517.5552,-191.6394 527.9172,-193.848 527.0329,-186.9041"/>
</g>
<!-- Node18 -->
<g id="node12" class="node">
<title>Node18</title>
<g id="a_node12"><a xlink:href="helios__integer_8h.html" target="_top" xlink:title=" ">
<polygon fill="#ffffff" stroke="#000000" points="321,-123.5 321,-153.5 434,-153.5 434,-123.5 321,-123.5"/>
<text text-anchor="start" x="329" y="-141.5" font-family="Helvetica,sans-Serif" font-size="10.00" fill="#000000">builtins/integer/include</text>
<text text-anchor="middle" x="377.5" y="-130.5" font-family="Helvetica,sans-Serif" font-size="10.00" fill="#000000">/helios_integer.h</text>
</a>
</g>
</g>
<!-- Node9&#45;&gt;Node18 -->
<g id="edge16" class="edge">
<title>Node9&#45;&gt;Node18</title>
<path fill="none" stroke="#191970" d="M435.3055,-184.0643C422.7374,-174.1577 408.1083,-162.6265 396.7115,-153.6432"/>
<polygon fill="#191970" stroke="#191970" points="433.1919,-186.8549 443.2122,-190.2967 437.5253,-181.3574 433.1919,-186.8549"/>
</g>
<!-- Node19 -->
<g id="node13" class="node">
<title>Node19</title>
<g id="a_node13"><a xlink:href="helios__string_8c.html" target="_top" xlink:title=" ">
<polygon fill="#ffffff" stroke="#000000" points="909,-56.5 909,-86.5 1012,-86.5 1012,-56.5 909,-56.5"/>
<text text-anchor="start" x="917" y="-74.5" font-family="Helvetica,sans-Serif" font-size="10.00" fill="#000000">builtins/string/helios</text>
<text text-anchor="middle" x="960.5" y="-63.5" font-family="Helvetica,sans-Serif" font-size="10.00" fill="#000000">_string.c</text>
</a>
</g>
</g>
<!-- Node9&#45;&gt;Node19 -->
<g id="edge22" class="edge">
<title>Node9&#45;&gt;Node19</title>
<path fill="none" stroke="#191970" d="M527.5332,-190.1725C628.6589,-177.414 850.5976,-202.3615 920.5,-154 943.277,-138.2419 953.5705,-105.792 957.8279,-86.6206"/>
<polygon fill="#191970" stroke="#191970" points="526.9444,-186.7212 517.5527,-191.6249 527.9526,-193.6483 526.9444,-186.7212"/>
</g>
<!-- Node20 -->
<g id="node14" class="node">
<title>Node20</title>
<g id="a_node14"><a xlink:href="helios__string_8h.html" target="_top" xlink:title=" ">
<polygon fill="#ffffff" stroke="#000000" points="786.5,-123.5 786.5,-153.5 894.5,-153.5 894.5,-123.5 786.5,-123.5"/>
<text text-anchor="start" x="794.5" y="-141.5" font-family="Helvetica,sans-Serif" font-size="10.00" fill="#000000">builtins/string/include</text>
<text text-anchor="middle" x="840.5" y="-130.5" font-family="Helvetica,sans-Serif" font-size="10.00" fill="#000000">/helios_string.h</text>
</a>
</g>
</g>
<!-- Node9&#45;&gt;Node20 -->
<g id="edge23" class="edge">
<title>Node9&#45;&gt;Node20</title>
<path fill="none" stroke="#191970" d="M527.5328,-189.9152C638.9156,-169.0736 670.0035,-174.8797 777.5,-154 780.3748,-153.4416 783.3155,-152.8368 786.2791,-152.2006"/>
<polygon fill="#191970" stroke="#191970" points="526.7554,-186.5002 517.5853,-191.8068 528.0631,-193.377 526.7554,-186.5002"/>
</g>
<!-- Node21 -->
<g id="node15" class="node">
<title>Node21</title>
<g id="a_node15"><a xlink:href="refcount_8c.html" target="_top" xlink:title=" ">
<polygon fill="#ffffff" stroke="#000000" points="670.5,-129 670.5,-148 768.5,-148 768.5,-129 670.5,-129"/>
<text text-anchor="middle" x="719.5" y="-136" font-family="Helvetica,sans-Serif" font-size="10.00" fill="#000000">memory/refcount.c</text>
</a>
</g>
</g>
<!-- Node9&#45;&gt;Node21 -->
<g id="edge28" class="edge">
<title>Node9&#45;&gt;Node21</title>
<path fill="none" stroke="#191970" d="M527.5647,-188.5376C576.8292,-175.6943 642.6983,-158.5222 683.0586,-148.0003"/>
<polygon fill="#191970" stroke="#191970" points="526.4266,-185.2173 517.6329,-191.1268 528.1925,-191.9909 526.4266,-185.2173"/>
</g>
<!-- Node12&#45;&gt;Node10 -->
<g id="edge6" class="edge">
<title>Node12&#45;&gt;Node10</title>
<path fill="none" stroke="#191970" d="M313.1366,-122.8058C379.4871,-109.8545 518.7842,-89.3167 593.3538,-78.539"/>
<polygon fill="#191970" stroke="#191970" points="312.2491,-119.4142 303.1352,-124.8167 313.6289,-126.2768 312.2491,-119.4142"/>
</g>
<!-- Node12&#45;&gt;Node11 -->
<g id="edge7" class="edge">
<title>Node12&#45;&gt;Node11</title>
<path fill="none" stroke="#191970" d="M225.2425,-116.7808C213.3433,-106.9383 199.5644,-95.541 188.8074,-86.6432"/>
<polygon fill="#191970" stroke="#191970" points="223.1835,-119.6198 233.1198,-123.2967 227.6451,-114.2259 223.1835,-119.6198"/>
</g>
<!-- Node12&#45;&gt;Node13 -->
<g id="edge8" class="edge">
<title>Node12&#45;&gt;Node13</title>
<path fill="none" stroke="#191970" d="M308.4876,-120.4044C348.4921,-107.7016 400.3933,-91.2211 432.5654,-81.0053"/>
<polygon fill="#191970" stroke="#191970" points="307.3243,-117.1015 298.8525,-123.4639 309.4428,-123.7732 307.3243,-117.1015"/>
</g>
<!-- Node12&#45;&gt;Node15 -->
<g id="edge10" class="edge">
<title>Node12&#45;&gt;Node15</title>
<path fill="none" stroke="#191970" d="M265.8381,-114.4837C271.3808,-105.1996 277.5558,-94.8565 282.4593,-86.6432"/>
<polygon fill="#191970" stroke="#191970" points="262.6976,-112.9163 260.5766,-123.2967 268.7079,-116.5046 262.6976,-112.9163"/>
</g>
<!-- Node14 -->
<g id="node8" class="node">
<title>Node14</title>
<g id="a_node8"><a xlink:href="test_8c.html" target="_top" xlink:title=" ">
<polygon fill="#ffffff" stroke="#000000" points="432,-.5 432,-19.5 493,-19.5 493,-.5 432,-.5"/>
<text text-anchor="middle" x="462.5" y="-7.5" font-family="Helvetica,sans-Serif" font-size="10.00" fill="#000000">test/test.c</text>
</a>
</g>
</g>
<!-- Node13&#45;&gt;Node14 -->
<g id="edge9" class="edge">
<title>Node13&#45;&gt;Node14</title>
<path fill="none" stroke="#191970" d="M462.5,-51.7462C462.5,-41.0519 462.5,-28.314 462.5,-19.7449"/>
<polygon fill="#191970" stroke="#191970" points="459.0001,-51.8906 462.5,-61.8906 466.0001,-51.8907 459.0001,-51.8906"/>
</g>
<!-- Node16&#45;&gt;Node13 -->
<g id="edge12" class="edge">
<title>Node16&#45;&gt;Node13</title>
<path fill="none" stroke="#191970" d="M523.9038,-117.2117C507.5868,-105.0646 487.9362,-90.4358 475.335,-81.055"/>
<polygon fill="#191970" stroke="#191970" points="521.9662,-120.1327 532.0776,-123.2967 526.1463,-114.5177 521.9662,-120.1327"/>
</g>
<!-- Node18&#45;&gt;Node11 -->
<g id="edge17" class="edge">
<title>Node18&#45;&gt;Node11</title>
<path fill="none" stroke="#191970" d="M321.1957,-120.2759C288.5719,-109.7165 247.9875,-96.5805 217.1575,-86.6017"/>
<polygon fill="#191970" stroke="#191970" points="320.4533,-123.7143 331.0452,-123.4639 322.6089,-117.0545 320.4533,-123.7143"/>
</g>
<!-- Node18&#45;&gt;Node13 -->
<g id="edge18" class="edge">
<title>Node18&#45;&gt;Node13</title>
<path fill="none" stroke="#191970" d="M404.9325,-116.8767C420.258,-104.7967 438.5861,-90.3498 450.378,-81.055"/>
<polygon fill="#191970" stroke="#191970" points="402.4747,-114.3574 396.7878,-123.2967 406.8081,-119.8549 402.4747,-114.3574"/>
</g>
<!-- Node18&#45;&gt;Node15 -->
<g id="edge20" class="edge">
<title>Node18&#45;&gt;Node15</title>
<path fill="none" stroke="#191970" d="M349.9855,-117.0643C337.2696,-107.1577 322.4684,-95.6265 310.9375,-86.6432"/>
<polygon fill="#191970" stroke="#191970" points="347.9456,-119.9119 357.9853,-123.2967 352.2477,-114.3899 347.9456,-119.9119"/>
</g>
<!-- Node18&#45;&gt;Node17 -->
<g id="edge19" class="edge">
<title>Node18&#45;&gt;Node17</title>
<path fill="none" stroke="#191970" d="M444.4018,-128.4899C456.7373,-126.6553 469.5065,-124.7637 481.5,-123 588.093,-107.3251 712.7404,-89.3168 782.3616,-79.2872"/>
<polygon fill="#191970" stroke="#191970" points="443.5441,-125.0789 434.1685,-130.0134 444.5749,-132.0026 443.5441,-125.0789"/>
</g>
<!-- Node20&#45;&gt;Node10 -->
<g id="edge24" class="edge">
<title>Node20&#45;&gt;Node10</title>
<path fill="none" stroke="#191970" d="M786.2398,-120.1392C755.1039,-109.6033 716.4913,-96.5375 687.1289,-86.6017"/>
<polygon fill="#191970" stroke="#191970" points="785.4707,-123.5739 796.0649,-123.4639 787.7144,-116.9432 785.4707,-123.5739"/>
</g>
<!-- Node20&#45;&gt;Node13 -->
<g id="edge25" class="edge">
<title>Node20&#45;&gt;Node13</title>
<path fill="none" stroke="#191970" d="M776.3711,-122.855C683.0124,-104.0323 585.5433,-89.0042 524.0337,-80.0875"/>
<polygon fill="#191970" stroke="#191970" points="775.7685,-126.3041 786.2655,-124.8675 777.1638,-119.4445 775.7685,-126.3041"/>
</g>
<!-- Node20&#45;&gt;Node17 -->
<g id="edge26" class="edge">
<title>Node20&#45;&gt;Node17</title>
<path fill="none" stroke="#191970" d="M838.9791,-113.0249C838.4479,-104.128 837.8689,-94.4287 837.4041,-86.6432"/>
<polygon fill="#191970" stroke="#191970" points="835.5025,-113.5231 839.5923,-123.2967 842.4901,-113.1058 835.5025,-113.5231"/>
</g>
<!-- Node20&#45;&gt;Node19 -->
<g id="edge27" class="edge">
<title>Node20&#45;&gt;Node19</title>
<path fill="none" stroke="#191970" d="M876.5786,-118.3561C894.7695,-108.1995 916.4685,-96.0843 933.2444,-86.7177"/>
<polygon fill="#191970" stroke="#191970" points="874.4554,-115.5329 867.4303,-123.4639 877.8679,-121.6448 874.4554,-115.5329"/>
</g>
</g>
</svg>
        <g id="navigator" transform="translate(0 0)" fill="#404254">
                <rect fill="#f2f5e9" fill-opacity="0.5" stroke="#606060" stroke-width=".5" x="0" y="0" width="60" height="60"/>
                <use id="zoomplus" xlink:href="#zoomPlus" x="17" y="9" onmousedown="handleZoom(evt,'in')"/>
                <use id="zoomminus" xlink:href="#zoomMin" x="42" y="9" onmousedown="handleZoom(evt,'out')"/>
                <use id="reset" xlink:href="#resetDef" x="30" y="36" onmousedown="handleReset()"/>
                <g id="arrowUp" xlink:href="#dirArrow" transform="translate(30 24)" onmousedown="handlePan(0,-1)">
                  <use xlink:href="#rim" fill="#404040">
                        <set attributeName="fill" to="#808080" begin="arrowUp.mouseover" end="arrowUp.mouseout"/>
                  </use>
                  <path fill="none" stroke="white" stroke-width="1.5" d="M0,-3.0v7 M-2.5,-0.5L0,-3.0L2.5,-0.5"/>
                </g>
                <g id="arrowRight" xlink:href="#dirArrow" transform="rotate(90) translate(36 -43)" onmousedown="handlePan(1,0)">
                  <use xlink:href="#rim" fill="#404040">
                        <set attributeName="fill" to="#808080" begin="arrowRight.mouseover" end="arrowRight.mouseout"/>
                  </use>
                  <path fill="none" stroke="white" stroke-width="1.5" d="M0,-3.0v7 M-2.5,-0.5L0,-3.0L2.5,-0.5"/>
                </g>
                <g id="arrowDown" xlink:href="#dirArrow" transform="rotate(180) translate(-30 -48)" onmousedown="handlePan(0,1)">
                  <use xlink:href="#rim" fill="#404040">
                        <set attributeName="fill" to="#808080" begin="arrowDown.mouseover" end="arrowDown.mouseout"/>
                  </use>
                  <path fill="none" stroke="white" stroke-width="1.5" d="M0,-3.0v7 M-2.5,-0.5L0,-3.0L2.5,-0.5"/>
                </g>
                <g id="arrowLeft" xlink:href="#dirArrow" transform="rotate(270) translate(-36 17)" onmousedown="handlePan(-1,0)">
                  <use xlink:href="#rim" fill="#404040">
                        <set attributeName="fill" to="#808080" begin="arrowLeft.mouseover" end="arrowLeft.mouseout"/>
                  </use>
                  <path fill="none" stroke="white" stroke-width="1.5" d="M0,-3.0v7 M-2.5,-0.5L0,-3.0L2.5,-0.5"/>
                </g>
        </g>
        <svg viewBox="0 0 15 15" width="100%" height="30px" preserveAspectRatio="xMaxYMin meet">
         <g id="arrow_out" transform="scale(0.3 0.3)">
          <a xlink:href="helios__type_8h__dep__incl_org.svg" target="_base">
           <rect id="button" ry="5" rx="5" y="6" x="6" height="38" width="38"
                fill="#f2f5e9" fill-opacity="0.5" stroke="#606060" stroke-width="1.0"/>
           <path id="arrow"
             d="M 11.500037,31.436501 C 11.940474,20.09759 22.043105,11.32322 32.158766,21.979434 L 37.068811,17.246167 C 37.068811,17.246167 37.088388,32 37.088388,32 L 22.160133,31.978069 C 22.160133,31.978069 26.997745,27.140456 26.997745,27.140456 C 18.528582,18.264221 13.291696,25.230495 11.500037,31.436501 z"
             style="fill:#404040;"/>
          </a>
         </g>
        </svg>
</svg>
