<?xml version="1.0" encoding="UTF-8" standalone="no"?>
<!DOCTYPE svg PUBLIC "-//W3C//DTD SVG 1.1//EN"
 "http://www.w3.org/Graphics/SVG/1.1/DTD/svg11.dtd">
<!-- Generated by graphviz version 2.40.1 (20161225.0304)
 -->
<!-- Title: memory/include/helios_memory.h Pages: 1 -->
<svg width="919pt" height="363pt"
 viewBox="0.00 0.00 918.66 363.00" xmlns="http://www.w3.org/2000/svg" xmlns:xlink="http://www.w3.org/1999/xlink">
<g id="graph0" class="graph" transform="scale(1 1) rotate(0) translate(4 359)">
<title>memory/include/helios_memory.h</title>
<polygon fill="#ffffff" stroke="transparent" points="-4,4 -4,-359 914.6646,-359 914.6646,4 -4,4"/>
<!-- Node4 -->
<g id="node1" class="node">
<title>Node4</title>
<g id="a_node1"><a xlink:title=" ">
<polygon fill="#bfbfbf" stroke="#000000" points="296.7213,-324.5 296.7213,-354.5 410.7213,-354.5 410.7213,-324.5 296.7213,-324.5"/>
<text text-anchor="start" x="304.7213" y="-342.5" font-family="Helvetica,sans-Serif" font-size="10.00" fill="#000000">memory/include/helios</text>
<text text-anchor="middle" x="353.7213" y="-331.5" font-family="Helvetica,sans-Serif" font-size="10.00" fill="#000000">_memory.h</text>
</a>
</g>
</g>
<!-- Node5 -->
<g id="node2" class="node">
<title>Node5</title>
<g id="a_node2"><a xlink:href="builtins_8h.html" target="_top" xlink:title=" ">
<polygon fill="#ffffff" stroke="#000000" points="230.2213,-62 230.2213,-81 353.2213,-81 353.2213,-62 230.2213,-62"/>
<text text-anchor="middle" x="291.7213" y="-69" font-family="Helvetica,sans-Serif" font-size="10.00" fill="#000000">builtins/include/builtins.h</text>
</a>
</g>
</g>
<!-- Node4&#45;&gt;Node5 -->
<g id="edge1" class="edge">
<title>Node4&#45;&gt;Node5</title>
<path fill="none" stroke="#191970" d="M286.7585,-323.5964C207.8384,-300.8662 80.2935,-250.6979 23.7213,-154 -44.9248,-36.6645 53.4827,-120.5254 220.7213,-87 229.8755,-85.1649 239.67,-83.0956 248.9697,-81.0808"/>
<polygon fill="#191970" stroke="#191970" points="286.0345,-327.0285 296.6085,-326.3639 287.928,-320.2894 286.0345,-327.0285"/>
</g>
<!-- Node7 -->
<g id="node4" class="node">
<title>Node7</title>
<g id="a_node4"><a xlink:href="helios__integer_8c.html" target="_top" xlink:title=" ">
<polygon fill="#ffffff" stroke="#000000" points="467.7213,-56.5 467.7213,-86.5 575.7213,-86.5 575.7213,-56.5 467.7213,-56.5"/>
<text text-anchor="start" x="475.7213" y="-74.5" font-family="Helvetica,sans-Serif" font-size="10.00" fill="#000000">builtins/integer/helios</text>
<text text-anchor="middle" x="521.7213" y="-63.5" font-family="Helvetica,sans-Serif" font-size="10.00" fill="#000000">_integer.c</text>
</a>
</g>
</g>
<!-- Node4&#45;&gt;Node7 -->
<g id="edge3" class="edge">
<title>Node4&#45;&gt;Node7</title>
<path fill="none" stroke="#191970" d="M421.1722,-324.1538C544.0888,-294.6604 796.4541,-226.5297 845.7213,-154 936.9128,-19.7506 985.4188,-150.034 606.7213,-87 596.8075,-85.3499 586.2607,-83.5018 576.0914,-81.6724"/>
<polygon fill="#191970" stroke="#191970" points="420.0365,-320.8263 411.12,-326.5488 421.6589,-327.6357 420.0365,-320.8263"/>
</g>
<!-- Node8 -->
<g id="node5" class="node">
<title>Node8</title>
<g id="a_node5"><a xlink:href="helios__string_8c.html" target="_top" xlink:title=" ">
<polygon fill="#ffffff" stroke="#000000" points="109.2213,-56.5 109.2213,-86.5 212.2213,-86.5 212.2213,-56.5 109.2213,-56.5"/>
<text text-anchor="start" x="117.2213" y="-74.5" font-family="Helvetica,sans-Serif" font-size="10.00" fill="#000000">builtins/string/helios</text>
<text text-anchor="middle" x="160.7213" y="-63.5" font-family="Helvetica,sans-Serif" font-size="10.00" fill="#000000">_string.c</text>
</a>
</g>
</g>
<!-- Node4&#45;&gt;Node8 -->
<g id="edge4" class="edge">
<title>Node4&#45;&gt;Node8</title>
<path fill="none" stroke="#191970" d="M286.3887,-332.3048C240.207,-325.4368 178.5199,-312.3657 128.7213,-288 55.8356,-252.3381 27.1431,-231.9831 4.7213,-154 .9141,-140.7587 -3.3508,-134.1655 4.7213,-123 17.2537,-105.665 68.6581,-90.9633 109.0786,-81.7606"/>
<polygon fill="#191970" stroke="#191970" points="285.899,-335.7703 296.2932,-333.7185 286.8881,-328.8405 285.899,-335.7703"/>
</g>
<!-- Node9 -->
<g id="node6" class="node">
<title>Node9</title>
<g id="a_node6"><a xlink:href="helios__type_8h.html" target="_top" xlink:title=" ">
<polygon fill="#ffffff" stroke="#000000" points="302.2213,-257.5 302.2213,-287.5 405.2213,-287.5 405.2213,-257.5 302.2213,-257.5"/>
<text text-anchor="start" x="310.2213" y="-275.5" font-family="Helvetica,sans-Serif" font-size="10.00" fill="#000000">builtins/type/include</text>
<text text-anchor="middle" x="353.7213" y="-264.5" font-family="Helvetica,sans-Serif" font-size="10.00" fill="#000000">/helios_type.h</text>
</a>
</g>
</g>
<!-- Node4&#45;&gt;Node9 -->
<g id="edge5" class="edge">
<title>Node4&#45;&gt;Node9</title>
<path fill="none" stroke="#191970" d="M353.7213,-314.0249C353.7213,-305.128 353.7213,-295.4287 353.7213,-287.6432"/>
<polygon fill="#191970" stroke="#191970" points="350.2214,-314.2966 353.7213,-324.2967 357.2214,-314.2967 350.2214,-314.2966"/>
</g>
<!-- Node16 -->
<g id="node13" class="node">
<title>Node16</title>
<g id="a_node13"><a xlink:href="helios__memory_8c.html" target="_top" xlink:title=" ">
<polygon fill="#ffffff" stroke="#000000" points="708.7213,-129 708.7213,-148 836.7213,-148 836.7213,-129 708.7213,-129"/>
<text text-anchor="middle" x="772.7213" y="-136" font-family="Helvetica,sans-Serif" font-size="10.00" fill="#000000">memory/helios_memory.c</text>
</a>
</g>
</g>
<!-- Node4&#45;&gt;Node16 -->
<g id="edge25" class="edge">
<title>Node4&#45;&gt;Node16</title>
<path fill="none" stroke="#191970" d="M394.3593,-320.0054C482.4195,-277.7617 688.1229,-179.083 752.8532,-148.031"/>
<polygon fill="#191970" stroke="#191970" points="392.7168,-316.9114 385.2144,-324.3923 395.7445,-323.2228 392.7168,-316.9114"/>
</g>
<!-- Node6 -->
<g id="node3" class="node">
<title>Node6</title>
<g id="a_node3"><a xlink:href="test_8c.html" target="_top" xlink:title=" ">
<polygon fill="#ffffff" stroke="#000000" points="261.2213,-.5 261.2213,-19.5 322.2213,-19.5 322.2213,-.5 261.2213,-.5"/>
<text text-anchor="middle" x="291.7213" y="-7.5" font-family="Helvetica,sans-Serif" font-size="10.00" fill="#000000">test/test.c</text>
</a>
</g>
</g>
<!-- Node5&#45;&gt;Node6 -->
<g id="edge2" class="edge">
<title>Node5&#45;&gt;Node6</title>
<path fill="none" stroke="#191970" d="M291.7213,-51.7462C291.7213,-41.0519 291.7213,-28.314 291.7213,-19.7449"/>
<polygon fill="#191970" stroke="#191970" points="288.2214,-51.8906 291.7213,-61.8906 295.2214,-51.8907 288.2214,-51.8906"/>
</g>
<!-- Node10 -->
<g id="node7" class="node">
<title>Node10</title>
<g id="a_node7"><a xlink:href="helios__object_8c.html" target="_top" xlink:title=" ">
<polygon fill="#ffffff" stroke="#000000" points="33.2213,-123.5 33.2213,-153.5 138.2213,-153.5 138.2213,-123.5 33.2213,-123.5"/>
<text text-anchor="start" x="41.2213" y="-141.5" font-family="Helvetica,sans-Serif" font-size="10.00" fill="#000000">builtins/object/helios</text>
<text text-anchor="middle" x="85.7213" y="-130.5" font-family="Helvetica,sans-Serif" font-size="10.00" fill="#000000">_object.c</text>
</a>
</g>
</g>
<!-- Node9&#45;&gt;Node10 -->
<g id="edge6" class="edge">
<title>Node9&#45;&gt;Node10</title>
<path fill="none" stroke="#191970" d="M314.2398,-252.7593C260.2201,-225.7494 164.4468,-177.8628 115.8329,-153.5558"/>
<polygon fill="#191970" stroke="#191970" points="312.9897,-256.0473 323.4992,-257.389 316.1202,-249.7863 312.9897,-256.0473"/>
</g>
<!-- Node11 -->
<g id="node8" class="node">
<title>Node11</title>
<g id="a_node8"><a xlink:href="helios__object_8h.html" target="_top" xlink:title=" ">
<polygon fill="#ffffff" stroke="#000000" points="298.7213,-190.5 298.7213,-220.5 408.7213,-220.5 408.7213,-190.5 298.7213,-190.5"/>
<text text-anchor="start" x="306.7213" y="-208.5" font-family="Helvetica,sans-Serif" font-size="10.00" fill="#000000">builtins/object/include</text>
<text text-anchor="middle" x="353.7213" y="-197.5" font-family="Helvetica,sans-Serif" font-size="10.00" fill="#000000">/helios_object.h</text>
</a>
</g>
</g>
<!-- Node9&#45;&gt;Node11 -->
<g id="edge7" class="edge">
<title>Node9&#45;&gt;Node11</title>
<path fill="none" stroke="#191970" d="M353.7213,-247.0249C353.7213,-238.128 353.7213,-228.4287 353.7213,-220.6432"/>
<polygon fill="#191970" stroke="#191970" points="350.2214,-247.2966 353.7213,-257.2967 357.2214,-247.2967 350.2214,-247.2966"/>
</g>
<!-- Node17 -->
<g id="node14" class="node">
<title>Node17</title>
<g id="a_node14"><a xlink:href="helios__type_8c.html" target="_top" xlink:title=" ">
<polygon fill="#ffffff" stroke="#000000" points="426.7213,-190.5 426.7213,-220.5 524.7213,-220.5 524.7213,-190.5 426.7213,-190.5"/>
<text text-anchor="start" x="434.7213" y="-208.5" font-family="Helvetica,sans-Serif" font-size="10.00" fill="#000000">builtins/type/helios</text>
<text text-anchor="middle" x="475.7213" y="-197.5" font-family="Helvetica,sans-Serif" font-size="10.00" fill="#000000">_type.c</text>
</a>
</g>
</g>
<!-- Node9&#45;&gt;Node17 -->
<g id="edge24" class="edge">
<title>Node9&#45;&gt;Node17</title>
<path fill="none" stroke="#191970" d="M389.8931,-252.6352C408.4901,-242.422 430.7994,-230.1702 448.0114,-220.7177"/>
<polygon fill="#191970" stroke="#191970" points="388.1809,-249.5823 381.1005,-257.4639 391.5505,-255.718 388.1809,-249.5823"/>
</g>
<!-- Node11&#45;&gt;Node5 -->
<g id="edge10" class="edge">
<title>Node11&#45;&gt;Node5</title>
<path fill="none" stroke="#191970" d="M288.7836,-195.6259C264.1717,-188.3761 238.5358,-175.8035 223.7213,-154 215.9782,-142.6039 217.5886,-135.3376 223.7213,-123 233.3453,-103.6386 254.1094,-89.6106 270.1766,-81.13"/>
<polygon fill="#191970" stroke="#191970" points="287.937,-199.0225 298.5029,-198.2407 289.7556,-192.2628 287.937,-199.0225"/>
</g>
<!-- Node11&#45;&gt;Node7 -->
<g id="edge11" class="edge">
<title>Node11&#45;&gt;Node7</title>
<path fill="none" stroke="#191970" d="M417.6687,-187.3251C448.2684,-177.5264 480.6322,-165.1827 491.7213,-154 510.0717,-135.4946 517.2926,-104.9012 520.0647,-86.6254"/>
<polygon fill="#191970" stroke="#191970" points="416.3192,-184.0802 407.8249,-190.4124 418.4141,-190.7594 416.3192,-184.0802"/>
</g>
<!-- Node11&#45;&gt;Node8 -->
<g id="edge18" class="edge">
<title>Node11&#45;&gt;Node8</title>
<path fill="none" stroke="#191970" d="M288.7165,-190.7759C263.746,-182.8408 236.1281,-171.0654 214.7213,-154 191.8322,-135.7529 175.4276,-105.0728 167.0574,-86.7109"/>
<polygon fill="#191970" stroke="#191970" points="287.9148,-194.1899 298.4999,-193.7362 289.9422,-187.4899 287.9148,-194.1899"/>
</g>
<!-- Node11&#45;&gt;Node10 -->
<g id="edge17" class="edge">
<title>Node11&#45;&gt;Node10</title>
<path fill="none" stroke="#191970" d="M288.6338,-189.2281C242.585,-177.7159 181.6187,-162.4744 138.5732,-151.713"/>
<polygon fill="#191970" stroke="#191970" points="287.9662,-192.6689 298.5165,-191.6988 289.664,-185.8779 287.9662,-192.6689"/>
</g>
<!-- Node12 -->
<g id="node9" class="node">
<title>Node12</title>
<g id="a_node9"><a xlink:href="helios__hashmap_8h.html" target="_top" xlink:title=" ">
<polygon fill="#ffffff" stroke="#000000" points="358.7213,-123.5 358.7213,-153.5 482.7213,-153.5 482.7213,-123.5 358.7213,-123.5"/>
<text text-anchor="start" x="366.7213" y="-141.5" font-family="Helvetica,sans-Serif" font-size="10.00" fill="#000000">builtins/hashmap/include</text>
<text text-anchor="middle" x="420.7213" y="-130.5" font-family="Helvetica,sans-Serif" font-size="10.00" fill="#000000">/helios_hashmap.h</text>
</a>
</g>
</g>
<!-- Node11&#45;&gt;Node12 -->
<g id="edge8" class="edge">
<title>Node11&#45;&gt;Node12</title>
<path fill="none" stroke="#191970" d="M376.01,-183.2113C385.7204,-173.5009 396.8515,-162.3698 405.5781,-153.6432"/>
<polygon fill="#191970" stroke="#191970" points="373.5208,-180.7507 368.9246,-190.2967 378.4706,-185.7004 373.5208,-180.7507"/>
</g>
<!-- Node13 -->
<g id="node10" class="node">
<title>Node13</title>
<g id="a_node10"><a xlink:href="helios__integer__math_8c.html" target="_top" xlink:title=" ">
<polygon fill="#ffffff" stroke="#000000" points="615.7213,-56.5 615.7213,-86.5 723.7213,-86.5 723.7213,-56.5 615.7213,-56.5"/>
<text text-anchor="start" x="623.7213" y="-74.5" font-family="Helvetica,sans-Serif" font-size="10.00" fill="#000000">builtins/integer/helios</text>
<text text-anchor="middle" x="669.7213" y="-63.5" font-family="Helvetica,sans-Serif" font-size="10.00" fill="#000000">_integer_math.c</text>
</a>
</g>
</g>
<!-- Node11&#45;&gt;Node13 -->
<g id="edge12" class="edge">
<title>Node11&#45;&gt;Node13</title>
<path fill="none" stroke="#191970" d="M418.9929,-190.1466C486.4041,-180.8262 624.7915,-191.3373 660.7213,-154 677.9047,-136.1434 676.0607,-105.0398 673.0004,-86.5506"/>
<polygon fill="#191970" stroke="#191970" points="418.1083,-186.745 408.8098,-191.8231 419.2455,-193.6521 418.1083,-186.745"/>
</g>
<!-- Node14 -->
<g id="node11" class="node">
<title>Node14</title>
<g id="a_node11"><a xlink:href="helios__integer_8h.html" target="_top" xlink:title=" ">
<polygon fill="#ffffff" stroke="#000000" points="539.2213,-123.5 539.2213,-153.5 652.2213,-153.5 652.2213,-123.5 539.2213,-123.5"/>
<text text-anchor="start" x="547.2213" y="-141.5" font-family="Helvetica,sans-Serif" font-size="10.00" fill="#000000">builtins/integer/include</text>
<text text-anchor="middle" x="595.7213" y="-130.5" font-family="Helvetica,sans-Serif" font-size="10.00" fill="#000000">/helios_integer.h</text>
</a>
</g>
</g>
<!-- Node11&#45;&gt;Node14 -->
<g id="edge13" class="edge">
<title>Node11&#45;&gt;Node14</title>
<path fill="none" stroke="#191970" d="M418.0708,-187.6842C456.4565,-177.0568 504.666,-163.7095 541.1749,-153.6017"/>
<polygon fill="#191970" stroke="#191970" points="416.7344,-184.4225 408.0308,-190.4639 418.6022,-191.1687 416.7344,-184.4225"/>
</g>
<!-- Node15 -->
<g id="node12" class="node">
<title>Node15</title>
<g id="a_node12"><a xlink:href="helios__string_8h.html" target="_top" xlink:title=" ">
<polygon fill="#ffffff" stroke="#000000" points="232.7213,-123.5 232.7213,-153.5 340.7213,-153.5 340.7213,-123.5 232.7213,-123.5"/>
<text text-anchor="start" x="240.7213" y="-141.5" font-family="Helvetica,sans-Serif" font-size="10.00" fill="#000000">builtins/string/include</text>
<text text-anchor="middle" x="286.7213" y="-130.5" font-family="Helvetica,sans-Serif" font-size="10.00" fill="#000000">/helios_string.h</text>
</a>
</g>
</g>
<!-- Node11&#45;&gt;Node15 -->
<g id="edge19" class="edge">
<title>Node11&#45;&gt;Node15</title>
<path fill="none" stroke="#191970" d="M331.4326,-183.2113C321.7222,-173.5009 310.5911,-162.3698 301.8645,-153.6432"/>
<polygon fill="#191970" stroke="#191970" points="328.972,-185.7004 338.518,-190.2967 333.9217,-180.7507 328.972,-185.7004"/>
</g>
<!-- Node11&#45;&gt;Node16 -->
<g id="edge23" class="edge">
<title>Node11&#45;&gt;Node16</title>
<path fill="none" stroke="#191970" d="M418.957,-189.8936C541.5579,-167.6933 575.4446,-173.5795 694.7213,-154 705.3481,-152.2556 716.7403,-150.1352 727.4449,-148.03"/>
<polygon fill="#191970" stroke="#191970" points="418.0007,-186.5106 408.7978,-191.7601 419.2656,-193.3954 418.0007,-186.5106"/>
</g>
<!-- Node12&#45;&gt;Node5 -->
<g id="edge9" class="edge">
<title>Node12&#45;&gt;Node5</title>
<path fill="none" stroke="#191970" d="M382.61,-118.7057C358.733,-106.3045 329.0262,-90.8754 310.2124,-81.1039"/>
<polygon fill="#191970" stroke="#191970" points="381.2835,-121.9607 391.7712,-123.4639 384.51,-115.7486 381.2835,-121.9607"/>
</g>
<!-- Node14&#45;&gt;Node5 -->
<g id="edge14" class="edge">
<title>Node14&#45;&gt;Node5</title>
<path fill="none" stroke="#191970" d="M528.922,-123.7778C469.912,-110.7723 385.5956,-92.1894 334.9996,-81.0383"/>
<polygon fill="#191970" stroke="#191970" points="528.3789,-127.242 538.8978,-125.9764 529.8855,-120.4061 528.3789,-127.242"/>
</g>
<!-- Node14&#45;&gt;Node7 -->
<g id="edge15" class="edge">
<title>Node14&#45;&gt;Node7</title>
<path fill="none" stroke="#191970" d="M571.4189,-116.4965C560.6203,-106.7193 548.1795,-95.4554 538.4466,-86.6432"/>
<polygon fill="#191970" stroke="#191970" points="569.1674,-119.1794 578.9296,-123.2967 573.8657,-113.9903 569.1674,-119.1794"/>
</g>
<!-- Node14&#45;&gt;Node13 -->
<g id="edge16" class="edge">
<title>Node14&#45;&gt;Node13</title>
<path fill="none" stroke="#191970" d="M620.0237,-116.4965C630.8223,-106.7193 643.2631,-95.4554 652.996,-86.6432"/>
<polygon fill="#191970" stroke="#191970" points="617.5769,-113.9903 612.513,-123.2967 622.2752,-119.1794 617.5769,-113.9903"/>
</g>
<!-- Node15&#45;&gt;Node5 -->
<g id="edge20" class="edge">
<title>Node15&#45;&gt;Node5</title>
<path fill="none" stroke="#191970" d="M288.6153,-113.1199C289.4521,-101.9072 290.3852,-89.4031 291.0082,-81.055"/>
<polygon fill="#191970" stroke="#191970" points="285.1099,-113.0639 287.8559,-123.2967 292.0905,-113.5849 285.1099,-113.0639"/>
</g>
<!-- Node15&#45;&gt;Node7 -->
<g id="edge21" class="edge">
<title>Node15&#45;&gt;Node7</title>
<path fill="none" stroke="#191970" d="M349.2094,-120.6842C386.4849,-110.0568 433.2998,-96.7095 468.7527,-86.6017"/>
<polygon fill="#191970" stroke="#191970" points="348.117,-117.3561 339.4599,-123.4639 350.0363,-124.0879 348.117,-117.3561"/>
</g>
<!-- Node15&#45;&gt;Node8 -->
<g id="edge22" class="edge">
<title>Node15&#45;&gt;Node8</title>
<path fill="none" stroke="#191970" d="M249.3635,-118.6352C230.1568,-108.422 207.116,-96.1702 189.3397,-86.7177"/>
<polygon fill="#191970" stroke="#191970" points="247.9718,-121.8591 258.4444,-123.4639 251.2583,-115.6786 247.9718,-121.8591"/>
</g>
</g>
</svg>
