<?xml version="1.0" encoding="UTF-8" standalone="no"?>
<!DOCTYPE svg PUBLIC "-//W3C//DTD SVG 1.1//EN"
 "http://www.w3.org/Graphics/SVG/1.1/DTD/svg11.dtd">
<!-- Generated by graphviz version 2.40.1 (20161225.0304)
 -->
<!-- Title: helios_boolean_notequal Pages: 1 -->
<svg width="1003pt" height="103pt"
 viewBox="0.00 0.00 1003.00 103.00" xmlns="http://www.w3.org/2000/svg" xmlns:xlink="http://www.w3.org/1999/xlink">
<g id="graph0" class="graph" transform="scale(1 1) rotate(0) translate(4 99)">
<title>helios_boolean_notequal</title>
<polygon fill="#ffffff" stroke="transparent" points="-4,4 -4,-99 999,-99 999,4 -4,4"/>
<!-- Node57 -->
<g id="node1" class="node">
<title>Node57</title>
<g id="a_node1"><a xlink:title=" ">
<polygon fill="#bfbfbf" stroke="#000000" points="0,-38.5 0,-57.5 138,-57.5 138,-38.5 0,-38.5"/>
<text text-anchor="middle" x="69" y="-45.5" font-family="Helvetica,sans-Serif" font-size="10.00" fill="#000000">helios_boolean_notequal</text>
</a>
</g>
</g>
<!-- Node58 -->
<g id="node2" class="node">
<title>Node58</title>
<g id="a_node2"><a xlink:href="helios__integer__compare_8c.html#a0b71bce728cb459e01cd664eead44680" target="_top" xlink:title=" ">
<polygon fill="#ffffff" stroke="#000000" points="174,-57.5 174,-76.5 308,-76.5 308,-57.5 174,-57.5"/>
<text text-anchor="middle" x="241" y="-64.5" font-family="Helvetica,sans-Serif" font-size="10.00" fill="#000000">helios_integer_notequal</text>
</a>
</g>
</g>
<!-- Node57&#45;&gt;Node58 -->
<g id="edge1" class="edge">
<title>Node57&#45;&gt;Node58</title>
<path fill="none" stroke="#191970" d="M138.4632,-55.6733C146.7487,-56.5885 155.2471,-57.5273 163.6348,-58.4538"/>
<polygon fill="#191970" stroke="#191970" points="163.4654,-61.9563 173.7893,-59.5756 164.234,-54.9987 163.4654,-61.9563"/>
</g>
<!-- Node61 -->
<g id="node5" class="node">
<title>Node61</title>
<g id="a_node5"><a xlink:href="helios__boolean_8c.html#a856733e7e090437084fcf595bd4e3b8f" target="_top" xlink:title="Convert a boolean to an integer.">
<polygon fill="#ffffff" stroke="#000000" points="344,-19.5 344,-38.5 474,-38.5 474,-19.5 344,-19.5"/>
<text text-anchor="middle" x="409" y="-26.5" font-family="Helvetica,sans-Serif" font-size="10.00" fill="#000000">helios_boolean_integer</text>
</a>
</g>
</g>
<!-- Node57&#45;&gt;Node61 -->
<g id="edge10" class="edge">
<title>Node57&#45;&gt;Node61</title>
<path fill="none" stroke="#191970" d="M138.2139,-44.1322C194.9949,-40.9591 275.2536,-36.4741 333.6459,-33.211"/>
<polygon fill="#191970" stroke="#191970" points="334.1284,-36.6896 343.9175,-32.637 333.7378,-29.7005 334.1284,-36.6896"/>
</g>
<!-- Node58&#45;&gt;Node58 -->
<g id="edge4" class="edge">
<title>Node58&#45;&gt;Node58</title>
<path fill="none" stroke="#191970" d="M215.1063,-76.7571C202.5094,-85.5653 211.1406,-95 241,-95 261.0618,-95 271.5408,-90.741 272.4371,-85.2746"/>
<polygon fill="#191970" stroke="#191970" points="275.2819,-83.2291 266.8937,-76.7571 269.415,-87.0475 275.2819,-83.2291"/>
</g>
<!-- Node59 -->
<g id="node3" class="node">
<title>Node59</title>
<g id="a_node3"><a xlink:href="helios__boolean_8c.html#a50e186696d4b9f2e8efdcddc17ab5ce5" target="_top" xlink:title="Create a helios_boolean object from a c boolean type.">
<polygon fill="#ffffff" stroke="#000000" points="349.5,-58 349.5,-88 468.5,-88 468.5,-58 349.5,-58"/>
<text text-anchor="start" x="357.5" y="-76" font-family="Helvetica,sans-Serif" font-size="10.00" fill="#000000">helios_boolean_from</text>
<text text-anchor="middle" x="409" y="-65" font-family="Helvetica,sans-Serif" font-size="10.00" fill="#000000">_cbool</text>
</a>
</g>
</g>
<!-- Node58&#45;&gt;Node59 -->
<g id="edge2" class="edge">
<title>Node58&#45;&gt;Node59</title>
<path fill="none" stroke="#191970" d="M308.364,-69.4059C318.5653,-69.7702 329.1076,-70.1467 339.3561,-70.5127"/>
<polygon fill="#191970" stroke="#191970" points="339.3646,-74.0152 349.4832,-70.8744 339.6145,-67.0196 339.3646,-74.0152"/>
</g>
<!-- Node58&#45;&gt;Node61 -->
<g id="edge5" class="edge">
<title>Node58&#45;&gt;Node61</title>
<path fill="none" stroke="#191970" d="M283.3935,-57.411C305.7626,-52.3513 333.3982,-46.1004 357.0472,-40.7512"/>
<polygon fill="#191970" stroke="#191970" points="357.9299,-44.1401 366.9114,-38.5201 356.3856,-37.3125 357.9299,-44.1401"/>
</g>
<!-- Node60 -->
<g id="node4" class="node">
<title>Node60</title>
<g id="a_node4"><a xlink:href="helios__boolean_8c.html#ab172c15c28782b45e824c42601484606" target="_top" xlink:title="Create a helios_boolean object from a c integer type.">
<polygon fill="#ffffff" stroke="#000000" points="510,-63.5 510,-82.5 652,-82.5 652,-63.5 510,-63.5"/>
<text text-anchor="middle" x="581" y="-70.5" font-family="Helvetica,sans-Serif" font-size="10.00" fill="#000000">helios_boolean_from_cint</text>
</a>
</g>
</g>
<!-- Node59&#45;&gt;Node60 -->
<g id="edge3" class="edge">
<title>Node59&#45;&gt;Node60</title>
<path fill="none" stroke="#191970" d="M468.6745,-73C478.7479,-73 489.3545,-73 499.864,-73"/>
<polygon fill="#191970" stroke="#191970" points="499.8898,-76.5001 509.8897,-73 499.8897,-69.5001 499.8898,-76.5001"/>
</g>
<!-- Node62 -->
<g id="node6" class="node">
<title>Node62</title>
<g id="a_node6"><a xlink:href="helios__integer_8c.html#af677316afd6536844aeb027f14c198cf" target="_top" xlink:title="Create a helios_integer object from a c integer type.">
<polygon fill="#ffffff" stroke="#000000" points="512.5,-19.5 512.5,-38.5 649.5,-38.5 649.5,-19.5 512.5,-19.5"/>
<text text-anchor="middle" x="581" y="-26.5" font-family="Helvetica,sans-Serif" font-size="10.00" fill="#000000">helios_integer_from_cint</text>
</a>
</g>
</g>
<!-- Node61&#45;&gt;Node62 -->
<g id="edge6" class="edge">
<title>Node61&#45;&gt;Node62</title>
<path fill="none" stroke="#191970" d="M474.0258,-29C483.2476,-29 492.8121,-29 502.259,-29"/>
<polygon fill="#191970" stroke="#191970" points="502.4419,-32.5001 512.4418,-29 502.4418,-25.5001 502.4419,-32.5001"/>
</g>
<!-- Node63 -->
<g id="node7" class="node">
<title>Node63</title>
<g id="a_node7"><a xlink:href="helios__integer_8c.html#a50a26b1e9578164839f3a5bb17e04051" target="_top" xlink:title="Constructor of a helios_integer object.">
<polygon fill="#ffffff" stroke="#000000" points="688,-19.5 688,-38.5 795,-38.5 795,-19.5 688,-19.5"/>
<text text-anchor="middle" x="741.5" y="-26.5" font-family="Helvetica,sans-Serif" font-size="10.00" fill="#000000">helios_integer_init</text>
</a>
</g>
</g>
<!-- Node62&#45;&gt;Node63 -->
<g id="edge7" class="edge">
<title>Node62&#45;&gt;Node63</title>
<path fill="none" stroke="#191970" d="M649.532,-29C658.8177,-29 668.3173,-29 677.519,-29"/>
<polygon fill="#191970" stroke="#191970" points="677.7542,-32.5001 687.7542,-29 677.7541,-25.5001 677.7542,-32.5001"/>
</g>
<!-- Node64 -->
<g id="node8" class="node">
<title>Node64</title>
<g id="a_node8"><a xlink:href="helios__memory_8h.html#af87f0050f8e236d0945592fa4e54dc94" target="_top" xlink:title="Allocates a new helios object (and performs all the GC steps associated with that action).">
<polygon fill="#ffffff" stroke="#000000" points="850.5,-38.5 850.5,-57.5 975.5,-57.5 975.5,-38.5 850.5,-38.5"/>
<text text-anchor="middle" x="913" y="-45.5" font-family="Helvetica,sans-Serif" font-size="10.00" fill="#000000">helios_allocate_object</text>
</a>
</g>
</g>
<!-- Node63&#45;&gt;Node64 -->
<g id="edge8" class="edge">
<title>Node63&#45;&gt;Node64</title>
<path fill="none" stroke="#191970" d="M795.2931,-34.9596C809.5001,-36.5335 825.0727,-38.2588 840.106,-39.9243"/>
<polygon fill="#191970" stroke="#191970" points="840.0794,-43.4427 850.404,-41.0652 840.8503,-36.4852 840.0794,-43.4427"/>
</g>
<!-- Node65 -->
<g id="node9" class="node">
<title>Node65</title>
<g id="a_node9"><a xlink:href="helios__memory_8h.html#ab14fb1c046aae61ab06eda8eeaf2cd85" target="_top" xlink:title=" ">
<polygon fill="#ffffff" stroke="#000000" points="831,-.5 831,-19.5 995,-19.5 995,-.5 831,-.5"/>
<text text-anchor="middle" x="913" y="-7.5" font-family="Helvetica,sans-Serif" font-size="10.00" fill="#000000">helios_set_garbagecollectable</text>
</a>
</g>
</g>
<!-- Node63&#45;&gt;Node65 -->
<g id="edge9" class="edge">
<title>Node63&#45;&gt;Node65</title>
<path fill="none" stroke="#191970" d="M795.2931,-23.0404C803.4127,-22.1409 811.9784,-21.1919 820.6345,-20.2329"/>
<polygon fill="#191970" stroke="#191970" points="821.2625,-23.6848 830.8162,-19.1049 820.4916,-16.7274 821.2625,-23.6848"/>
</g>
</g>
</svg>
