<?xml version="1.0" encoding="UTF-8" standalone="no"?>
<!DOCTYPE svg PUBLIC "-//W3C//DTD SVG 1.1//EN"
 "http://www.w3.org/Graphics/SVG/1.1/DTD/svg11.dtd">
<!-- Generated by graphviz version 2.40.1 (20161225.0304)
 -->
<!-- Title: helios_boolean_equal Pages: 1 -->
<svg width="971pt" height="103pt"
 viewBox="0.00 0.00 971.00 103.00" xmlns="http://www.w3.org/2000/svg" xmlns:xlink="http://www.w3.org/1999/xlink">
<g id="graph0" class="graph" transform="scale(1 1) rotate(0) translate(4 99)">
<title>helios_boolean_equal</title>
<polygon fill="#ffffff" stroke="transparent" points="-4,4 -4,-99 967,-99 967,4 -4,4"/>
<!-- Node3 -->
<g id="node1" class="node">
<title>Node3</title>
<g id="a_node1"><a xlink:title=" ">
<polygon fill="#bfbfbf" stroke="#000000" points="0,-38.5 0,-57.5 122,-57.5 122,-38.5 0,-38.5"/>
<text text-anchor="middle" x="61" y="-45.5" font-family="Helvetica,sans-Serif" font-size="10.00" fill="#000000">helios_boolean_equal</text>
</a>
</g>
</g>
<!-- Node4 -->
<g id="node2" class="node">
<title>Node4</title>
<g id="a_node2"><a xlink:href="helios__integer__compare_8c.html#a1ea0f771c4d0aa678fe5657bc3a79b55" target="_top" xlink:title=" ">
<polygon fill="#ffffff" stroke="#000000" points="158,-57.5 158,-76.5 276,-76.5 276,-57.5 158,-57.5"/>
<text text-anchor="middle" x="217" y="-64.5" font-family="Helvetica,sans-Serif" font-size="10.00" fill="#000000">helios_integer_equal</text>
</a>
</g>
</g>
<!-- Node3&#45;&gt;Node4 -->
<g id="edge1" class="edge">
<title>Node3&#45;&gt;Node4</title>
<path fill="none" stroke="#191970" d="M122.2076,-55.4548C130.6129,-56.4785 139.2913,-57.5355 147.8268,-58.5751"/>
<polygon fill="#191970" stroke="#191970" points="147.4065,-62.0496 157.7563,-59.7844 148.2529,-55.101 147.4065,-62.0496"/>
</g>
<!-- Node7 -->
<g id="node5" class="node">
<title>Node7</title>
<g id="a_node5"><a xlink:href="helios__boolean_8c.html#a856733e7e090437084fcf595bd4e3b8f" target="_top" xlink:title="Convert a boolean to an integer.">
<polygon fill="#ffffff" stroke="#000000" points="312,-19.5 312,-38.5 442,-38.5 442,-19.5 312,-19.5"/>
<text text-anchor="middle" x="377" y="-26.5" font-family="Helvetica,sans-Serif" font-size="10.00" fill="#000000">helios_boolean_integer</text>
</a>
</g>
</g>
<!-- Node3&#45;&gt;Node7 -->
<g id="edge10" class="edge">
<title>Node3&#45;&gt;Node7</title>
<path fill="none" stroke="#191970" d="M122.3027,-44.3141C173.5836,-41.2307 246.9459,-36.8197 301.7757,-33.523"/>
<polygon fill="#191970" stroke="#191970" points="302.0166,-37.0149 311.7885,-32.9209 301.5964,-30.0275 302.0166,-37.0149"/>
</g>
<!-- Node4&#45;&gt;Node4 -->
<g id="edge4" class="edge">
<title>Node4&#45;&gt;Node4</title>
<path fill="none" stroke="#191970" d="M192.9559,-76.7571C181.2587,-85.5653 189.2734,-95 217,-95 235.1956,-95 244.9019,-90.9368 246.1191,-85.6539"/>
<polygon fill="#191970" stroke="#191970" points="249.0391,-83.7091 241.0441,-76.7571 242.9588,-87.1775 249.0391,-83.7091"/>
</g>
<!-- Node5 -->
<g id="node3" class="node">
<title>Node5</title>
<g id="a_node3"><a xlink:href="helios__boolean_8c.html#a50e186696d4b9f2e8efdcddc17ab5ce5" target="_top" xlink:title="Create a helios_boolean object from a c boolean type.">
<polygon fill="#ffffff" stroke="#000000" points="317.5,-58 317.5,-88 436.5,-88 436.5,-58 317.5,-58"/>
<text text-anchor="start" x="325.5" y="-76" font-family="Helvetica,sans-Serif" font-size="10.00" fill="#000000">helios_boolean_from</text>
<text text-anchor="middle" x="377" y="-65" font-family="Helvetica,sans-Serif" font-size="10.00" fill="#000000">_cbool</text>
</a>
</g>
</g>
<!-- Node4&#45;&gt;Node5 -->
<g id="edge2" class="edge">
<title>Node4&#45;&gt;Node5</title>
<path fill="none" stroke="#191970" d="M276.1235,-69.2171C286.205,-69.5952 296.762,-69.9911 307.091,-70.3784"/>
<polygon fill="#191970" stroke="#191970" points="307.1938,-73.8846 317.3179,-70.7619 307.4562,-66.8896 307.1938,-73.8846"/>
</g>
<!-- Node4&#45;&gt;Node7 -->
<g id="edge5" class="edge">
<title>Node4&#45;&gt;Node7</title>
<path fill="none" stroke="#191970" d="M257.3748,-57.411C278.4885,-52.3965 304.5287,-46.2119 326.9169,-40.8947"/>
<polygon fill="#191970" stroke="#191970" points="327.995,-44.2361 336.9156,-38.5201 326.3774,-37.4256 327.995,-44.2361"/>
</g>
<!-- Node6 -->
<g id="node4" class="node">
<title>Node6</title>
<g id="a_node4"><a xlink:href="helios__boolean_8c.html#ab172c15c28782b45e824c42601484606" target="_top" xlink:title="Create a helios_boolean object from a c integer type.">
<polygon fill="#ffffff" stroke="#000000" points="478,-63.5 478,-82.5 620,-82.5 620,-63.5 478,-63.5"/>
<text text-anchor="middle" x="549" y="-70.5" font-family="Helvetica,sans-Serif" font-size="10.00" fill="#000000">helios_boolean_from_cint</text>
</a>
</g>
</g>
<!-- Node5&#45;&gt;Node6 -->
<g id="edge3" class="edge">
<title>Node5&#45;&gt;Node6</title>
<path fill="none" stroke="#191970" d="M436.6745,-73C446.7479,-73 457.3545,-73 467.864,-73"/>
<polygon fill="#191970" stroke="#191970" points="467.8898,-76.5001 477.8897,-73 467.8897,-69.5001 467.8898,-76.5001"/>
</g>
<!-- Node8 -->
<g id="node6" class="node">
<title>Node8</title>
<g id="a_node6"><a xlink:href="helios__integer_8c.html#af677316afd6536844aeb027f14c198cf" target="_top" xlink:title="Create a helios_integer object from a c integer type.">
<polygon fill="#ffffff" stroke="#000000" points="480.5,-19.5 480.5,-38.5 617.5,-38.5 617.5,-19.5 480.5,-19.5"/>
<text text-anchor="middle" x="549" y="-26.5" font-family="Helvetica,sans-Serif" font-size="10.00" fill="#000000">helios_integer_from_cint</text>
</a>
</g>
</g>
<!-- Node7&#45;&gt;Node8 -->
<g id="edge6" class="edge">
<title>Node7&#45;&gt;Node8</title>
<path fill="none" stroke="#191970" d="M442.0258,-29C451.2476,-29 460.8121,-29 470.259,-29"/>
<polygon fill="#191970" stroke="#191970" points="470.4419,-32.5001 480.4418,-29 470.4418,-25.5001 470.4419,-32.5001"/>
</g>
<!-- Node9 -->
<g id="node7" class="node">
<title>Node9</title>
<g id="a_node7"><a xlink:href="helios__integer_8c.html#a50a26b1e9578164839f3a5bb17e04051" target="_top" xlink:title="Constructor of a helios_integer object.">
<polygon fill="#ffffff" stroke="#000000" points="656,-19.5 656,-38.5 763,-38.5 763,-19.5 656,-19.5"/>
<text text-anchor="middle" x="709.5" y="-26.5" font-family="Helvetica,sans-Serif" font-size="10.00" fill="#000000">helios_integer_init</text>
</a>
</g>
</g>
<!-- Node8&#45;&gt;Node9 -->
<g id="edge7" class="edge">
<title>Node8&#45;&gt;Node9</title>
<path fill="none" stroke="#191970" d="M617.532,-29C626.8177,-29 636.3173,-29 645.519,-29"/>
<polygon fill="#191970" stroke="#191970" points="645.7542,-32.5001 655.7542,-29 645.7541,-25.5001 645.7542,-32.5001"/>
</g>
<!-- Node10 -->
<g id="node8" class="node">
<title>Node10</title>
<g id="a_node8"><a xlink:href="helios__memory_8h.html#af87f0050f8e236d0945592fa4e54dc94" target="_top" xlink:title="Allocates a new helios object (and performs all the GC steps associated with that action).">
<polygon fill="#ffffff" stroke="#000000" points="818.5,-38.5 818.5,-57.5 943.5,-57.5 943.5,-38.5 818.5,-38.5"/>
<text text-anchor="middle" x="881" y="-45.5" font-family="Helvetica,sans-Serif" font-size="10.00" fill="#000000">helios_allocate_object</text>
</a>
</g>
</g>
<!-- Node9&#45;&gt;Node10 -->
<g id="edge8" class="edge">
<title>Node9&#45;&gt;Node10</title>
<path fill="none" stroke="#191970" d="M763.2931,-34.9596C777.5001,-36.5335 793.0727,-38.2588 808.106,-39.9243"/>
<polygon fill="#191970" stroke="#191970" points="808.0794,-43.4427 818.404,-41.0652 808.8503,-36.4852 808.0794,-43.4427"/>
</g>
<!-- Node11 -->
<g id="node9" class="node">
<title>Node11</title>
<g id="a_node9"><a xlink:href="helios__memory_8h.html#ab14fb1c046aae61ab06eda8eeaf2cd85" target="_top" xlink:title=" ">
<polygon fill="#ffffff" stroke="#000000" points="799,-.5 799,-19.5 963,-19.5 963,-.5 799,-.5"/>
<text text-anchor="middle" x="881" y="-7.5" font-family="Helvetica,sans-Serif" font-size="10.00" fill="#000000">helios_set_garbagecollectable</text>
</a>
</g>
</g>
<!-- Node9&#45;&gt;Node11 -->
<g id="edge9" class="edge">
<title>Node9&#45;&gt;Node11</title>
<path fill="none" stroke="#191970" d="M763.2931,-23.0404C771.4127,-22.1409 779.9784,-21.1919 788.6345,-20.2329"/>
<polygon fill="#191970" stroke="#191970" points="789.2625,-23.6848 798.8162,-19.1049 788.4916,-16.7274 789.2625,-23.6848"/>
</g>
</g>
</svg>
