<?xml version="1.0" encoding="UTF-8" standalone="no"?>
<!DOCTYPE svg PUBLIC "-//W3C//DTD SVG 1.1//EN"
 "http://www.w3.org/Graphics/SVG/1.1/DTD/svg11.dtd">
<!-- Generated by graphviz version 2.40.1 (20161225.0304)
 -->
<!-- Title: builtins/type/include/helios_type.h Pages: 1 -->
<!--zoomable 296 -->
<svg id="main" version="1.1" xmlns="http://www.w3.org/2000/svg" xmlns:xlink="http://www.w3.org/1999/xlink" xml:space="preserve" onload="init(evt)">
<style type="text/css"><![CDATA[
.edge:hover path { stroke: red; }
.edge:hover polygon { stroke: red; fill: red; }
]]></style>
<script type="text/javascript"><![CDATA[
var edges = document.getElementsByTagName('g');
if (edges && edges.length) {
  for (var i=0;i<edges.length;i++) {
    if (edges[i].id.substr(0,4)=='edge') {
      edges[i].setAttribute('class','edge');
    }
  }
}
]]></script>
        <defs>
                <circle id="rim" cx="0" cy="0" r="7"/>
                <circle id="rim2" cx="0" cy="0" r="3.5"/>
                <g id="zoomPlus">
                        <use xlink:href="#rim" fill="#404040">
                                <set attributeName="fill" to="#808080" begin="zoomplus.mouseover" end="zoomplus.mouseout"/>
                        </use>
                        <path d="M-4,0h8M0,-4v8" fill="none" stroke="white" stroke-width="1.5" pointer-events="none"/>
                </g>
                <g id="zoomMin">
                        <use xlink:href="#rim" fill="#404040">
                                <set attributeName="fill" to="#808080" begin="zoomminus.mouseover" end="zoomminus.mouseout"/>
                        </use>
                        <path d="M-4,0h8" fill="none" stroke="white" stroke-width="1.5" pointer-events="none"/>
                </g>
                <g id="dirArrow">
                        <path fill="none" stroke="white" stroke-width="1.5" d="M0,-3.0v7 M-2.5,-0.5L0,-3.0L2.5,-0.5"/>
                </g>
               <g id="resetDef">
                       <use xlink:href="#rim2" fill="#404040">
                               <set attributeName="fill" to="#808080" begin="reset.mouseover" end="reset.mouseout"/>
                       </use>
               </g>
        </defs>

<script type="text/javascript">
var viewWidth = 574;
var viewHeight = 296;
var sectionId = 'dynsection-1';
</script>
<script xlink:href="svgpan.js"/>
<svg id="graph" class="graph">
<g id="viewport">
<title>builtins/type/include/helios_type.h</title>
<polygon fill="#ffffff" stroke="transparent" points="-4,4 -4,-292 569.5,-292 569.5,4 -4,4"/>
<!-- Node3 -->
<g id="node1" class="node">
<title>Node3</title>
<g id="a_node1"><a xlink:title=" ">
<polygon fill="#bfbfbf" stroke="#000000" points="161,-257.5 161,-287.5 264,-287.5 264,-257.5 161,-257.5"/>
<text text-anchor="start" x="169" y="-275.5" font-family="Helvetica,sans-Serif" font-size="10.00" fill="#000000">builtins/type/include</text>
<text text-anchor="middle" x="212.5" y="-264.5" font-family="Helvetica,sans-Serif" font-size="10.00" fill="#000000">/helios_type.h</text>
</a>
</g>
</g>
<!-- Node4 -->
<g id="node2" class="node">
<title>Node4</title>
<g id="a_node2"><a xlink:href="helios__object_8c.html" target="_top" xlink:title=" ">
<polygon fill="#ffffff" stroke="#000000" points="0,-123.5 0,-153.5 105,-153.5 105,-123.5 0,-123.5"/>
<text text-anchor="start" x="8" y="-141.5" font-family="Helvetica,sans-Serif" font-size="10.00" fill="#000000">builtins/object/helios</text>
<text text-anchor="middle" x="52.5" y="-130.5" font-family="Helvetica,sans-Serif" font-size="10.00" fill="#000000">_object.c</text>
</a>
</g>
</g>
<!-- Node3&#45;&gt;Node4 -->
<g id="edge1" class="edge">
<title>Node3&#45;&gt;Node4</title>
<path fill="none" stroke="#191970" d="M185.3875,-251.0012C173.9361,-241.8388 160.5,-230.98 148.5,-221 120.6217,-197.8146 88.7999,-170.2445 69.6992,-153.5734"/>
<polygon fill="#191970" stroke="#191970" points="183.3268,-253.8346 193.3262,-257.3363 187.693,-248.3631 183.3268,-253.8346"/>
</g>
<!-- Node5 -->
<g id="node3" class="node">
<title>Node5</title>
<g id="a_node3"><a xlink:href="helios__object_8h.html" target="_top" xlink:title=" ">
<polygon fill="#ffffff" stroke="#000000" points="157.5,-190.5 157.5,-220.5 267.5,-220.5 267.5,-190.5 157.5,-190.5"/>
<text text-anchor="start" x="165.5" y="-208.5" font-family="Helvetica,sans-Serif" font-size="10.00" fill="#000000">builtins/object/include</text>
<text text-anchor="middle" x="212.5" y="-197.5" font-family="Helvetica,sans-Serif" font-size="10.00" fill="#000000">/helios_object.h</text>
</a>
</g>
</g>
<!-- Node3&#45;&gt;Node5 -->
<g id="edge2" class="edge">
<title>Node3&#45;&gt;Node5</title>
<path fill="none" stroke="#191970" d="M212.5,-247.0249C212.5,-238.128 212.5,-228.4287 212.5,-220.6432"/>
<polygon fill="#191970" stroke="#191970" points="209.0001,-247.2966 212.5,-257.2967 216.0001,-247.2967 209.0001,-247.2966"/>
</g>
<!-- Node13 -->
<g id="node11" class="node">
<title>Node13</title>
<g id="a_node11"><a xlink:href="helios__type_8c.html" target="_top" xlink:title=" ">
<polygon fill="#ffffff" stroke="#000000" points="285.5,-190.5 285.5,-220.5 383.5,-220.5 383.5,-190.5 285.5,-190.5"/>
<text text-anchor="start" x="293.5" y="-208.5" font-family="Helvetica,sans-Serif" font-size="10.00" fill="#000000">builtins/type/helios</text>
<text text-anchor="middle" x="334.5" y="-197.5" font-family="Helvetica,sans-Serif" font-size="10.00" fill="#000000">_type.c</text>
</a>
</g>
</g>
<!-- Node3&#45;&gt;Node13 -->
<g id="edge17" class="edge">
<title>Node3&#45;&gt;Node13</title>
<path fill="none" stroke="#191970" d="M248.6718,-252.6352C267.2688,-242.422 289.5781,-230.1702 306.7901,-220.7177"/>
<polygon fill="#191970" stroke="#191970" points="246.9596,-249.5823 239.8792,-257.4639 250.3292,-255.718 246.9596,-249.5823"/>
</g>
<!-- Node5&#45;&gt;Node4 -->
<g id="edge11" class="edge">
<title>Node5&#45;&gt;Node4</title>
<path fill="none" stroke="#191970" d="M167.341,-186.5897C142.4147,-176.1518 111.8801,-163.3654 88.5637,-153.6017"/>
<polygon fill="#191970" stroke="#191970" points="166.017,-189.8297 176.5929,-190.4639 168.7208,-183.3729 166.017,-189.8297"/>
</g>
<!-- Node6 -->
<g id="node4" class="node">
<title>Node6</title>
<g id="a_node4"><a xlink:href="builtins_8h.html" target="_top" xlink:title=" ">
<polygon fill="#ffffff" stroke="#000000" points="190,-62 190,-81 313,-81 313,-62 190,-62"/>
<text text-anchor="middle" x="251.5" y="-69" font-family="Helvetica,sans-Serif" font-size="10.00" fill="#000000">builtins/include/builtins.h</text>
</a>
</g>
</g>
<!-- Node5&#45;&gt;Node6 -->
<g id="edge3" class="edge">
<title>Node5&#45;&gt;Node6</title>
<path fill="none" stroke="#191970" d="M197.4329,-181.179C189.0279,-164.3269 181.835,-141.6557 190.5,-123 199.1993,-104.2705 218.4364,-89.8972 232.9977,-81.1539"/>
<polygon fill="#191970" stroke="#191970" points="194.5658,-183.2339 202.4111,-190.3544 200.7186,-179.8956 194.5658,-183.2339"/>
</g>
<!-- Node8 -->
<g id="node6" class="node">
<title>Node8</title>
<g id="a_node6"><a xlink:href="helios__integer_8c.html" target="_top" xlink:title=" ">
<polygon fill="#ffffff" stroke="#000000" points="331.5,-56.5 331.5,-86.5 439.5,-86.5 439.5,-56.5 331.5,-56.5"/>
<text text-anchor="start" x="339.5" y="-74.5" font-family="Helvetica,sans-Serif" font-size="10.00" fill="#000000">builtins/integer/helios</text>
<text text-anchor="middle" x="385.5" y="-63.5" font-family="Helvetica,sans-Serif" font-size="10.00" fill="#000000">_integer.c</text>
</a>
</g>
</g>
<!-- Node5&#45;&gt;Node8 -->
<g id="edge5" class="edge">
<title>Node5&#45;&gt;Node8</title>
<path fill="none" stroke="#191970" d="M261.5999,-186.2764C279.8291,-177.8705 300.0546,-166.9497 316.5,-154 341.4389,-134.3622 363.6833,-104.4251 375.8144,-86.5273"/>
<polygon fill="#191970" stroke="#191970" points="259.9824,-183.1656 252.2798,-190.4403 262.8378,-189.5567 259.9824,-183.1656"/>
</g>
<!-- Node9 -->
<g id="node7" class="node">
<title>Node9</title>
<g id="a_node7"><a xlink:href="helios__integer__math_8c.html" target="_top" xlink:title=" ">
<polygon fill="#ffffff" stroke="#000000" points="457.5,-56.5 457.5,-86.5 565.5,-86.5 565.5,-56.5 457.5,-56.5"/>
<text text-anchor="start" x="465.5" y="-74.5" font-family="Helvetica,sans-Serif" font-size="10.00" fill="#000000">builtins/integer/helios</text>
<text text-anchor="middle" x="511.5" y="-63.5" font-family="Helvetica,sans-Serif" font-size="10.00" fill="#000000">_integer_math.c</text>
</a>
</g>
</g>
<!-- Node5&#45;&gt;Node9 -->
<g id="edge6" class="edge">
<title>Node5&#45;&gt;Node9</title>
<path fill="none" stroke="#191970" d="M277.5479,-190.0203C372.3369,-173.7675 417.8634,-214.585 486.5,-154 505.7988,-136.9651 510.4503,-105.579 511.4249,-86.816"/>
<polygon fill="#191970" stroke="#191970" points="276.7787,-186.6037 267.6045,-191.9032 278.0812,-193.4815 276.7787,-186.6037"/>
</g>
<!-- Node10 -->
<g id="node8" class="node">
<title>Node10</title>
<g id="a_node8"><a xlink:href="helios__integer_8h.html" target="_top" xlink:title=" ">
<polygon fill="#ffffff" stroke="#000000" points="364,-123.5 364,-153.5 477,-153.5 477,-123.5 364,-123.5"/>
<text text-anchor="start" x="372" y="-141.5" font-family="Helvetica,sans-Serif" font-size="10.00" fill="#000000">builtins/integer/include</text>
<text text-anchor="middle" x="420.5" y="-130.5" font-family="Helvetica,sans-Serif" font-size="10.00" fill="#000000">/helios_integer.h</text>
</a>
</g>
</g>
<!-- Node5&#45;&gt;Node10 -->
<g id="edge7" class="edge">
<title>Node5&#45;&gt;Node10</title>
<path fill="none" stroke="#191970" d="M269.0763,-187.2759C301.8577,-176.7165 342.6382,-163.5805 373.6171,-153.6017"/>
<polygon fill="#191970" stroke="#191970" points="267.6245,-184.0664 259.1793,-190.4639 269.7708,-190.7292 267.6245,-184.0664"/>
</g>
<!-- Node11 -->
<g id="node9" class="node">
<title>Node11</title>
<g id="a_node9"><a xlink:href="helios__string_8c.html" target="_top" xlink:title=" ">
<polygon fill="#ffffff" stroke="#000000" points="69,-56.5 69,-86.5 172,-86.5 172,-56.5 69,-56.5"/>
<text text-anchor="start" x="77" y="-74.5" font-family="Helvetica,sans-Serif" font-size="10.00" fill="#000000">builtins/string/helios</text>
<text text-anchor="middle" x="120.5" y="-63.5" font-family="Helvetica,sans-Serif" font-size="10.00" fill="#000000">_string.c</text>
</a>
</g>
</g>
<!-- Node5&#45;&gt;Node11 -->
<g id="edge12" class="edge">
<title>Node5&#45;&gt;Node11</title>
<path fill="none" stroke="#191970" d="M196.2203,-181.7882C177.3822,-154.3502 146.9157,-109.9751 130.978,-86.7614"/>
<polygon fill="#191970" stroke="#191970" points="193.5798,-184.126 202.1253,-190.389 199.3506,-180.1639 193.5798,-184.126"/>
</g>
<!-- Node12 -->
<g id="node10" class="node">
<title>Node12</title>
<g id="a_node10"><a xlink:href="helios__string_8h.html" target="_top" xlink:title=" ">
<polygon fill="#ffffff" stroke="#000000" points="199.5,-123.5 199.5,-153.5 307.5,-153.5 307.5,-123.5 199.5,-123.5"/>
<text text-anchor="start" x="207.5" y="-141.5" font-family="Helvetica,sans-Serif" font-size="10.00" fill="#000000">builtins/string/include</text>
<text text-anchor="middle" x="253.5" y="-130.5" font-family="Helvetica,sans-Serif" font-size="10.00" fill="#000000">/helios_string.h</text>
</a>
</g>
</g>
<!-- Node5&#45;&gt;Node12 -->
<g id="edge13" class="edge">
<title>Node5&#45;&gt;Node12</title>
<path fill="none" stroke="#191970" d="M227.1965,-181.4837C232.8778,-172.1996 239.2072,-161.8565 244.2333,-153.6432"/>
<polygon fill="#191970" stroke="#191970" points="224.0378,-179.9401 221.8035,-190.2967 230.0086,-183.5939 224.0378,-179.9401"/>
</g>
<!-- Node7 -->
<g id="node5" class="node">
<title>Node7</title>
<g id="a_node5"><a xlink:href="test_8c.html" target="_top" xlink:title=" ">
<polygon fill="#ffffff" stroke="#000000" points="221,-.5 221,-19.5 282,-19.5 282,-.5 221,-.5"/>
<text text-anchor="middle" x="251.5" y="-7.5" font-family="Helvetica,sans-Serif" font-size="10.00" fill="#000000">test/test.c</text>
</a>
</g>
</g>
<!-- Node6&#45;&gt;Node7 -->
<g id="edge4" class="edge">
<title>Node6&#45;&gt;Node7</title>
<path fill="none" stroke="#191970" d="M251.5,-51.7462C251.5,-41.0519 251.5,-28.314 251.5,-19.7449"/>
<polygon fill="#191970" stroke="#191970" points="248.0001,-51.8906 251.5,-61.8906 255.0001,-51.8907 248.0001,-51.8906"/>
</g>
<!-- Node10&#45;&gt;Node6 -->
<g id="edge8" class="edge">
<title>Node10&#45;&gt;Node6</title>
<path fill="none" stroke="#191970" d="M373.046,-119.6869C341.367,-107.1278 301.0267,-91.1349 275.7248,-81.1039"/>
<polygon fill="#191970" stroke="#191970" points="371.9871,-123.032 382.5731,-123.4639 374.5669,-116.5248 371.9871,-123.032"/>
</g>
<!-- Node10&#45;&gt;Node8 -->
<g id="edge9" class="edge">
<title>Node10&#45;&gt;Node8</title>
<path fill="none" stroke="#191970" d="M407.8024,-114.1932C402.9918,-104.9844 397.6565,-94.771 393.4106,-86.6432"/>
<polygon fill="#191970" stroke="#191970" points="404.8255,-116.0537 412.558,-123.2967 411.03,-112.8126 404.8255,-116.0537"/>
</g>
<!-- Node10&#45;&gt;Node9 -->
<g id="edge10" class="edge">
<title>Node10&#45;&gt;Node9</title>
<path fill="none" stroke="#191970" d="M449.2303,-117.3469C462.7708,-107.3776 478.615,-95.7121 490.9324,-86.6432"/>
<polygon fill="#191970" stroke="#191970" points="447.127,-114.5492 441.1493,-123.2967 451.2773,-120.1861 447.127,-114.5492"/>
</g>
<!-- Node12&#45;&gt;Node6 -->
<g id="edge14" class="edge">
<title>Node12&#45;&gt;Node6</title>
<path fill="none" stroke="#191970" d="M252.7424,-113.1199C252.4077,-101.9072 252.0344,-89.4031 251.7852,-81.055"/>
<polygon fill="#191970" stroke="#191970" points="249.2493,-113.4056 253.0462,-123.2967 256.2461,-113.1967 249.2493,-113.4056"/>
</g>
<!-- Node12&#45;&gt;Node8 -->
<g id="edge15" class="edge">
<title>Node12&#45;&gt;Node8</title>
<path fill="none" stroke="#191970" d="M292.089,-118.9132C312.3187,-108.645 336.7267,-96.2561 355.5188,-86.7177"/>
<polygon fill="#191970" stroke="#191970" points="290.4563,-115.8168 283.1234,-123.4639 293.6246,-122.0587 290.4563,-115.8168"/>
</g>
<!-- Node12&#45;&gt;Node11 -->
<g id="edge16" class="edge">
<title>Node12&#45;&gt;Node11</title>
<path fill="none" stroke="#191970" d="M214.6187,-118.9132C194.2357,-108.645 169.6428,-96.2561 150.7083,-86.7177"/>
<polygon fill="#191970" stroke="#191970" points="213.1467,-122.0906 223.6522,-123.4639 216.2961,-115.8391 213.1467,-122.0906"/>
</g>
</g>
</svg>
        <g id="navigator" transform="translate(0 0)" fill="#404254">
                <rect fill="#f2f5e9" fill-opacity="0.5" stroke="#606060" stroke-width=".5" x="0" y="0" width="60" height="60"/>
                <use id="zoomplus" xlink:href="#zoomPlus" x="17" y="9" onmousedown="handleZoom(evt,'in')"/>
                <use id="zoomminus" xlink:href="#zoomMin" x="42" y="9" onmousedown="handleZoom(evt,'out')"/>
                <use id="reset" xlink:href="#resetDef" x="30" y="36" onmousedown="handleReset()"/>
                <g id="arrowUp" xlink:href="#dirArrow" transform="translate(30 24)" onmousedown="handlePan(0,-1)">
                  <use xlink:href="#rim" fill="#404040">
                        <set attributeName="fill" to="#808080" begin="arrowUp.mouseover" end="arrowUp.mouseout"/>
                  </use>
                  <path fill="none" stroke="white" stroke-width="1.5" d="M0,-3.0v7 M-2.5,-0.5L0,-3.0L2.5,-0.5"/>
                </g>
                <g id="arrowRight" xlink:href="#dirArrow" transform="rotate(90) translate(36 -43)" onmousedown="handlePan(1,0)">
                  <use xlink:href="#rim" fill="#404040">
                        <set attributeName="fill" to="#808080" begin="arrowRight.mouseover" end="arrowRight.mouseout"/>
                  </use>
                  <path fill="none" stroke="white" stroke-width="1.5" d="M0,-3.0v7 M-2.5,-0.5L0,-3.0L2.5,-0.5"/>
                </g>
                <g id="arrowDown" xlink:href="#dirArrow" transform="rotate(180) translate(-30 -48)" onmousedown="handlePan(0,1)">
                  <use xlink:href="#rim" fill="#404040">
                        <set attributeName="fill" to="#808080" begin="arrowDown.mouseover" end="arrowDown.mouseout"/>
                  </use>
                  <path fill="none" stroke="white" stroke-width="1.5" d="M0,-3.0v7 M-2.5,-0.5L0,-3.0L2.5,-0.5"/>
                </g>
                <g id="arrowLeft" xlink:href="#dirArrow" transform="rotate(270) translate(-36 17)" onmousedown="handlePan(-1,0)">
                  <use xlink:href="#rim" fill="#404040">
                        <set attributeName="fill" to="#808080" begin="arrowLeft.mouseover" end="arrowLeft.mouseout"/>
                  </use>
                  <path fill="none" stroke="white" stroke-width="1.5" d="M0,-3.0v7 M-2.5,-0.5L0,-3.0L2.5,-0.5"/>
                </g>
        </g>
        <svg viewBox="0 0 15 15" width="100%" height="30px" preserveAspectRatio="xMaxYMin meet">
         <g id="arrow_out" transform="scale(0.3 0.3)">
          <a xlink:href="helios__type_8h__dep__incl_org.svg" target="_base">
           <rect id="button" ry="5" rx="5" y="6" x="6" height="38" width="38"
                fill="#f2f5e9" fill-opacity="0.5" stroke="#606060" stroke-width="1.0"/>
           <path id="arrow"
             d="M 11.500037,31.436501 C 11.940474,20.09759 22.043105,11.32322 32.158766,21.979434 L 37.068811,17.246167 C 37.068811,17.246167 37.088388,32 37.088388,32 L 22.160133,31.978069 C 22.160133,31.978069 26.997745,27.140456 26.997745,27.140456 C 18.528582,18.264221 13.291696,25.230495 11.500037,31.436501 z"
             style="fill:#404040;"/>
          </a>
         </g>
        </svg>
</svg>
