<?xml version="1.0" encoding="UTF-8" standalone="no"?>
<!DOCTYPE svg PUBLIC "-//W3C//DTD SVG 1.1//EN"
 "http://www.w3.org/Graphics/SVG/1.1/DTD/svg11.dtd">
<!-- Generated by graphviz version 2.40.1 (20161225.0304)
 -->
<!-- Title: helios_integer_tostring Pages: 1 -->
<svg width="562pt" height="66pt"
 viewBox="0.00 0.00 562.00 66.00" xmlns="http://www.w3.org/2000/svg" xmlns:xlink="http://www.w3.org/1999/xlink">
<g id="graph0" class="graph" transform="scale(1 1) rotate(0) translate(4 62)">
<title>helios_integer_tostring</title>
<polygon fill="#ffffff" stroke="transparent" points="-4,4 -4,-62 558,-62 558,4 -4,4"/>
<!-- Node23 -->
<g id="node1" class="node">
<title>Node23</title>
<g id="a_node1"><a xlink:title="Create a helios_string object which represents the helios_integer object&#39;s value.">
<polygon fill="#bfbfbf" stroke="#000000" points="0,-19.5 0,-38.5 114,-38.5 114,-19.5 0,-19.5"/>
<text text-anchor="middle" x="57" y="-26.5" font-family="Helvetica,sans-Serif" font-size="10.00" fill="#000000">helios_integer_tostring</text>
</a>
</g>
</g>
<!-- Node24 -->
<g id="node2" class="node">
<title>Node24</title>
<g id="a_node2"><a xlink:href="helios__string_8c.html#a4338910535421a24735fc7eb3123495c" target="_top" xlink:title="Create a helios_string object from a c string.">
<polygon fill="#ffffff" stroke="#000000" points="150,-14 150,-44 246,-44 246,-14 150,-14"/>
<text text-anchor="start" x="158" y="-32" font-family="Helvetica,sans-Serif" font-size="10.00" fill="#000000">helios_string_from</text>
<text text-anchor="middle" x="198" y="-21" font-family="Helvetica,sans-Serif" font-size="10.00" fill="#000000">_charp</text>
</a>
</g>
</g>
<!-- Node23&#45;&gt;Node24 -->
<g id="edge1" class="edge">
<title>Node23&#45;&gt;Node24</title>
<path fill="none" stroke="#191970" d="M114.3501,-29C122.6976,-29 131.3,-29 139.6667,-29"/>
<polygon fill="#191970" stroke="#191970" points="139.7224,-32.5001 149.7224,-29 139.7223,-25.5001 139.7224,-32.5001"/>
</g>
<!-- Node25 -->
<g id="node3" class="node">
<title>Node25</title>
<g id="a_node3"><a xlink:href="helios__string_8c.html#af727ca5352482ab7e542510f178a9f85" target="_top" xlink:title="Constructor of a helios_string.">
<polygon fill="#ffffff" stroke="#000000" points="282,-19.5 282,-38.5 371,-38.5 371,-19.5 282,-19.5"/>
<text text-anchor="middle" x="326.5" y="-26.5" font-family="Helvetica,sans-Serif" font-size="10.00" fill="#000000">helios_string_init</text>
</a>
</g>
</g>
<!-- Node24&#45;&gt;Node25 -->
<g id="edge2" class="edge">
<title>Node24&#45;&gt;Node25</title>
<path fill="none" stroke="#191970" d="M246.2143,-29C254.5175,-29 263.2026,-29 271.6649,-29"/>
<polygon fill="#191970" stroke="#191970" points="271.8359,-32.5001 281.8359,-29 271.8359,-25.5001 271.8359,-32.5001"/>
</g>
<!-- Node26 -->
<g id="node4" class="node">
<title>Node26</title>
<g id="a_node4"><a xlink:href="helios__memory_8h.html#af87f0050f8e236d0945592fa4e54dc94" target="_top" xlink:title="Allocates a new helios object (and performs all the GC steps associated with that action).">
<polygon fill="#ffffff" stroke="#000000" points="424,-38.5 424,-57.5 537,-57.5 537,-38.5 424,-38.5"/>
<text text-anchor="middle" x="480.5" y="-45.5" font-family="Helvetica,sans-Serif" font-size="10.00" fill="#000000">helios_allocate_object</text>
</a>
</g>
</g>
<!-- Node25&#45;&gt;Node26 -->
<g id="edge3" class="edge">
<title>Node25&#45;&gt;Node26</title>
<path fill="none" stroke="#191970" d="M371.0432,-34.4956C384.4679,-36.1519 399.5038,-38.007 414.0302,-39.7992"/>
<polygon fill="#191970" stroke="#191970" points="413.626,-43.2758 423.9794,-41.0267 414.4832,-36.3284 413.626,-43.2758"/>
</g>
<!-- Node27 -->
<g id="node5" class="node">
<title>Node27</title>
<g id="a_node5"><a xlink:href="helios__memory_8h.html#ab14fb1c046aae61ab06eda8eeaf2cd85" target="_top" xlink:title=" ">
<polygon fill="#ffffff" stroke="#000000" points="407,-.5 407,-19.5 554,-19.5 554,-.5 407,-.5"/>
<text text-anchor="middle" x="480.5" y="-7.5" font-family="Helvetica,sans-Serif" font-size="10.00" fill="#000000">helios_set_garbagecollectable</text>
</a>
</g>
</g>
<!-- Node25&#45;&gt;Node27 -->
<g id="edge4" class="edge">
<title>Node25&#45;&gt;Node27</title>
<path fill="none" stroke="#191970" d="M371.0432,-23.5044C379.1755,-22.5011 387.899,-21.4248 396.7423,-20.3337"/>
<polygon fill="#191970" stroke="#191970" points="397.2564,-23.7969 406.7525,-19.0987 396.3992,-16.8496 397.2564,-23.7969"/>
</g>
</g>
</svg>
