<?xml version="1.0" encoding="UTF-8" standalone="no"?>
<!DOCTYPE svg PUBLIC "-//W3C//DTD SVG 1.1//EN"
 "http://www.w3.org/Graphics/SVG/1.1/DTD/svg11.dtd">
<!-- Generated by graphviz version 2.40.1 (20161225.0304)
 -->
<!-- Title: helios_set_garbagecollectable Pages: 1 -->
<svg width="329pt" height="180pt"
 viewBox="0.00 0.00 329.00 180.00" xmlns="http://www.w3.org/2000/svg" xmlns:xlink="http://www.w3.org/1999/xlink">
<g id="graph0" class="graph" transform="scale(1 1) rotate(0) translate(4 176)">
<title>helios_set_garbagecollectable</title>
<polygon fill="#ffffff" stroke="transparent" points="-4,4 -4,-176 325,-176 325,4 -4,4"/>
<!-- Node15 -->
<g id="node1" class="node">
<title>Node15</title>
<g id="a_node1"><a xlink:title=" ">
<polygon fill="#bfbfbf" stroke="#000000" points="174,-76.5 174,-95.5 321,-95.5 321,-76.5 174,-76.5"/>
<text text-anchor="middle" x="247.5" y="-83.5" font-family="Helvetica,sans-Serif" font-size="10.00" fill="#000000">helios_set_garbagecollectable</text>
</a>
</g>
</g>
<!-- Node16 -->
<g id="node2" class="node">
<title>Node16</title>
<g id="a_node2"><a xlink:href="helios__code_8h.html#ab47a14436bfa855c861f5cd333cd1dfd" target="_top" xlink:title=" ">
<polygon fill="#ffffff" stroke="#000000" points="26,-152.5 26,-171.5 112,-171.5 112,-152.5 26,-152.5"/>
<text text-anchor="middle" x="69" y="-159.5" font-family="Helvetica,sans-Serif" font-size="10.00" fill="#000000">helios_code_init</text>
</a>
</g>
</g>
<!-- Node15&#45;&gt;Node16 -->
<g id="edge1" class="edge">
<title>Node15&#45;&gt;Node16</title>
<path fill="none" stroke="#191970" d="M222.7956,-100.7873C201.0524,-113.3282 168.2349,-131.1222 138,-143 128.8639,-146.5891 118.7957,-149.7724 109.2405,-152.4586"/>
<polygon fill="#191970" stroke="#191970" points="224.8061,-103.6663 231.6766,-95.6011 221.2762,-97.6215 224.8061,-103.6663"/>
</g>
<!-- Node17 -->
<g id="node3" class="node">
<title>Node17</title>
<g id="a_node3"><a xlink:href="helios__float_8h.html#a6b9f18063c74a36f08d05c6310bc45da" target="_top" xlink:title="Constructor of a helios_float object.">
<polygon fill="#ffffff" stroke="#000000" points="27,-114.5 27,-133.5 111,-133.5 111,-114.5 27,-114.5"/>
<text text-anchor="middle" x="69" y="-121.5" font-family="Helvetica,sans-Serif" font-size="10.00" fill="#000000">helios_float_init</text>
</a>
</g>
</g>
<!-- Node15&#45;&gt;Node17 -->
<g id="edge2" class="edge">
<title>Node15&#45;&gt;Node17</title>
<path fill="none" stroke="#191970" d="M192.6697,-97.6726C166.4753,-103.249 135.6096,-109.8198 111.2667,-115.0021"/>
<polygon fill="#191970" stroke="#191970" points="193.4049,-101.0946 202.4569,-95.589 191.9473,-94.248 193.4049,-101.0946"/>
</g>
<!-- Node18 -->
<g id="node4" class="node">
<title>Node18</title>
<g id="a_node4"><a xlink:href="helios__integer_8h.html#a50a26b1e9578164839f3a5bb17e04051" target="_top" xlink:title="Constructor of a helios_integer object.">
<polygon fill="#ffffff" stroke="#000000" points="21.5,-76.5 21.5,-95.5 116.5,-95.5 116.5,-76.5 21.5,-76.5"/>
<text text-anchor="middle" x="69" y="-83.5" font-family="Helvetica,sans-Serif" font-size="10.00" fill="#000000">helios_integer_init</text>
</a>
</g>
</g>
<!-- Node15&#45;&gt;Node18 -->
<g id="edge3" class="edge">
<title>Node15&#45;&gt;Node18</title>
<path fill="none" stroke="#191970" d="M163.8435,-86C147.664,-86 131.2383,-86 116.7046,-86"/>
<polygon fill="#191970" stroke="#191970" points="163.8667,-89.5001 173.8667,-86 163.8666,-82.5001 163.8667,-89.5001"/>
</g>
<!-- Node19 -->
<g id="node5" class="node">
<title>Node19</title>
<g id="a_node5"><a xlink:href="serialize_8c.html#ad72a9663ebca3d0f4f38b63a0e8e8668" target="_top" xlink:title=" ">
<polygon fill="#ffffff" stroke="#000000" points="0,-38.5 0,-57.5 138,-57.5 138,-38.5 0,-38.5"/>
<text text-anchor="middle" x="69" y="-45.5" font-family="Helvetica,sans-Serif" font-size="10.00" fill="#000000">helios_serialized_object_init</text>
</a>
</g>
</g>
<!-- Node15&#45;&gt;Node19 -->
<g id="edge4" class="edge">
<title>Node15&#45;&gt;Node19</title>
<path fill="none" stroke="#191970" d="M192.6301,-74.319C167.3164,-68.9301 137.6471,-62.6139 113.7192,-57.5201"/>
<polygon fill="#191970" stroke="#191970" points="191.9473,-77.752 202.4569,-76.411 193.4049,-70.9054 191.9473,-77.752"/>
</g>
<!-- Node20 -->
<g id="node6" class="node">
<title>Node20</title>
<g id="a_node6"><a xlink:href="helios__string_8h.html#af727ca5352482ab7e542510f178a9f85" target="_top" xlink:title="Constructor of a helios_string.">
<polygon fill="#ffffff" stroke="#000000" points="24.5,-.5 24.5,-19.5 113.5,-19.5 113.5,-.5 24.5,-.5"/>
<text text-anchor="middle" x="69" y="-7.5" font-family="Helvetica,sans-Serif" font-size="10.00" fill="#000000">helios_string_init</text>
</a>
</g>
</g>
<!-- Node15&#45;&gt;Node20 -->
<g id="edge5" class="edge">
<title>Node15&#45;&gt;Node20</title>
<path fill="none" stroke="#191970" d="M222.7956,-71.2127C201.0524,-58.6718 168.2349,-40.8778 138,-29 128.8639,-25.4109 118.7957,-22.2276 109.2405,-19.5414"/>
<polygon fill="#191970" stroke="#191970" points="221.2762,-74.3785 231.6766,-76.3989 224.8061,-68.3337 221.2762,-74.3785"/>
</g>
</g>
</svg>
