<?xml version="1.0" encoding="UTF-8" standalone="no"?>
<!DOCTYPE svg PUBLIC "-//W3C//DTD SVG 1.1//EN"
 "http://www.w3.org/Graphics/SVG/1.1/DTD/svg11.dtd">
<!-- Generated by graphviz version 2.40.1 (20161225.0304)
 -->
<!-- Title: helios_boolean_represent Pages: 1 -->
<svg width="798pt" height="66pt"
 viewBox="0.00 0.00 798.00 66.00" xmlns="http://www.w3.org/2000/svg" xmlns:xlink="http://www.w3.org/1999/xlink">
<g id="graph0" class="graph" transform="scale(1 1) rotate(0) translate(4 62)">
<title>helios_boolean_represent</title>
<polygon fill="#ffffff" stroke="transparent" points="-4,4 -4,-62 794,-62 794,4 -4,4"/>
<!-- Node66 -->
<g id="node1" class="node">
<title>Node66</title>
<g id="a_node1"><a xlink:title="Alias of helios_boolean_tostring for completeness.">
<polygon fill="#bfbfbf" stroke="#000000" points="0,-19.5 0,-38.5 142,-38.5 142,-19.5 0,-19.5"/>
<text text-anchor="middle" x="71" y="-26.5" font-family="Helvetica,sans-Serif" font-size="10.00" fill="#000000">helios_boolean_represent</text>
</a>
</g>
</g>
<!-- Node67 -->
<g id="node2" class="node">
<title>Node67</title>
<g id="a_node2"><a xlink:href="helios__boolean_8c.html#ad10068c0d33dd1c2cd19173af2744bcf" target="_top" xlink:title="Create a helios_string object which represents the helios_boolean object&#39;s value.">
<polygon fill="#ffffff" stroke="#000000" points="178,-19.5 178,-38.5 311,-38.5 311,-19.5 178,-19.5"/>
<text text-anchor="middle" x="244.5" y="-26.5" font-family="Helvetica,sans-Serif" font-size="10.00" fill="#000000">helios_boolean_tostring</text>
</a>
</g>
</g>
<!-- Node66&#45;&gt;Node67 -->
<g id="edge1" class="edge">
<title>Node66&#45;&gt;Node67</title>
<path fill="none" stroke="#191970" d="M142.0697,-29C150.4527,-29 159.0377,-29 167.4975,-29"/>
<polygon fill="#191970" stroke="#191970" points="167.7325,-32.5001 177.7325,-29 167.7325,-25.5001 167.7325,-32.5001"/>
</g>
<!-- Node68 -->
<g id="node3" class="node">
<title>Node68</title>
<g id="a_node3"><a xlink:href="helios__string_8c.html#a4338910535421a24735fc7eb3123495c" target="_top" xlink:title="Create a helios_string object from a c string.">
<polygon fill="#ffffff" stroke="#000000" points="347,-14 347,-44 454,-44 454,-14 347,-14"/>
<text text-anchor="start" x="355" y="-32" font-family="Helvetica,sans-Serif" font-size="10.00" fill="#000000">helios_string_from</text>
<text text-anchor="middle" x="400.5" y="-21" font-family="Helvetica,sans-Serif" font-size="10.00" fill="#000000">_charp</text>
</a>
</g>
</g>
<!-- Node67&#45;&gt;Node68 -->
<g id="edge2" class="edge">
<title>Node67&#45;&gt;Node68</title>
<path fill="none" stroke="#191970" d="M311.1105,-29C319.5885,-29 328.25,-29 336.6826,-29"/>
<polygon fill="#191970" stroke="#191970" points="336.8273,-32.5001 346.8273,-29 336.8273,-25.5001 336.8273,-32.5001"/>
</g>
<!-- Node69 -->
<g id="node4" class="node">
<title>Node69</title>
<g id="a_node4"><a xlink:href="helios__string_8c.html#af727ca5352482ab7e542510f178a9f85" target="_top" xlink:title="Constructor of a helios_string.">
<polygon fill="#ffffff" stroke="#000000" points="490,-19.5 490,-38.5 590,-38.5 590,-19.5 490,-19.5"/>
<text text-anchor="middle" x="540" y="-26.5" font-family="Helvetica,sans-Serif" font-size="10.00" fill="#000000">helios_string_init</text>
</a>
</g>
</g>
<!-- Node68&#45;&gt;Node69 -->
<g id="edge3" class="edge">
<title>Node68&#45;&gt;Node69</title>
<path fill="none" stroke="#191970" d="M454.0354,-29C462.3384,-29 470.966,-29 479.4112,-29"/>
<polygon fill="#191970" stroke="#191970" points="479.588,-32.5001 489.588,-29 479.588,-25.5001 479.588,-32.5001"/>
</g>
<!-- Node70 -->
<g id="node5" class="node">
<title>Node70</title>
<g id="a_node5"><a xlink:href="helios__memory_8h.html#af87f0050f8e236d0945592fa4e54dc94" target="_top" xlink:title="Allocates a new helios object (and performs all the GC steps associated with that action).">
<polygon fill="#ffffff" stroke="#000000" points="645.5,-38.5 645.5,-57.5 770.5,-57.5 770.5,-38.5 645.5,-38.5"/>
<text text-anchor="middle" x="708" y="-45.5" font-family="Helvetica,sans-Serif" font-size="10.00" fill="#000000">helios_allocate_object</text>
</a>
</g>
</g>
<!-- Node69&#45;&gt;Node70 -->
<g id="edge4" class="edge">
<title>Node69&#45;&gt;Node70</title>
<path fill="none" stroke="#191970" d="M590.4055,-34.7006C604.4623,-36.2904 620.0217,-38.0501 635.0959,-39.7549"/>
<polygon fill="#191970" stroke="#191970" points="635.0999,-43.2776 645.4299,-40.9236 635.8866,-36.3219 635.0999,-43.2776"/>
</g>
<!-- Node71 -->
<g id="node6" class="node">
<title>Node71</title>
<g id="a_node6"><a xlink:href="helios__memory_8h.html#ab14fb1c046aae61ab06eda8eeaf2cd85" target="_top" xlink:title=" ">
<polygon fill="#ffffff" stroke="#000000" points="626,-.5 626,-19.5 790,-19.5 790,-.5 626,-.5"/>
<text text-anchor="middle" x="708" y="-7.5" font-family="Helvetica,sans-Serif" font-size="10.00" fill="#000000">helios_set_garbagecollectable</text>
</a>
</g>
</g>
<!-- Node69&#45;&gt;Node71 -->
<g id="edge5" class="edge">
<title>Node69&#45;&gt;Node71</title>
<path fill="none" stroke="#191970" d="M590.4055,-23.2994C598.4638,-22.388 607.016,-21.4208 615.6875,-20.4401"/>
<polygon fill="#191970" stroke="#191970" points="616.3561,-23.8869 625.8994,-19.2852 615.5694,-16.9312 616.3561,-23.8869"/>
</g>
</g>
</svg>
