<?xml version="1.0" encoding="UTF-8" standalone="no"?>
<!DOCTYPE svg PUBLIC "-//W3C//DTD SVG 1.1//EN"
 "http://www.w3.org/Graphics/SVG/1.1/DTD/svg11.dtd">
<!-- Generated by graphviz version 2.40.1 (20161225.0304)
 -->
<!-- Title: helios_integer_represent Pages: 1 -->
<svg width="788pt" height="66pt"
 viewBox="0.00 0.00 788.00 66.00" xmlns="http://www.w3.org/2000/svg" xmlns:xlink="http://www.w3.org/1999/xlink">
<g id="graph0" class="graph" transform="scale(1 1) rotate(0) translate(4 62)">
<title>helios_integer_represent</title>
<polygon fill="#ffffff" stroke="transparent" points="-4,4 -4,-62 784,-62 784,4 -4,4"/>
<!-- Node14 -->
<g id="node1" class="node">
<title>Node14</title>
<g id="a_node1"><a xlink:title="Alias of helios_integer_tostring for completeness.">
<polygon fill="#bfbfbf" stroke="#000000" points="0,-19.5 0,-38.5 137,-38.5 137,-19.5 0,-19.5"/>
<text text-anchor="middle" x="68.5" y="-26.5" font-family="Helvetica,sans-Serif" font-size="10.00" fill="#000000">helios_integer_represent</text>
</a>
</g>
</g>
<!-- Node15 -->
<g id="node2" class="node">
<title>Node15</title>
<g id="a_node2"><a xlink:href="helios__integer_8c.html#a5332d92b4fbb2aef5764c95999b4a44a" target="_top" xlink:title="Create a helios_string object which represents the helios_integer object&#39;s value.">
<polygon fill="#ffffff" stroke="#000000" points="173,-19.5 173,-38.5 301,-38.5 301,-19.5 173,-19.5"/>
<text text-anchor="middle" x="237" y="-26.5" font-family="Helvetica,sans-Serif" font-size="10.00" fill="#000000">helios_integer_tostring</text>
</a>
</g>
</g>
<!-- Node14&#45;&gt;Node15 -->
<g id="edge1" class="edge">
<title>Node14&#45;&gt;Node15</title>
<path fill="none" stroke="#191970" d="M137.0354,-29C145.4563,-29 154.0943,-29 162.5967,-29"/>
<polygon fill="#191970" stroke="#191970" points="162.8768,-32.5001 172.8768,-29 162.8768,-25.5001 162.8768,-32.5001"/>
</g>
<!-- Node16 -->
<g id="node3" class="node">
<title>Node16</title>
<g id="a_node3"><a xlink:href="helios__string_8c.html#a4338910535421a24735fc7eb3123495c" target="_top" xlink:title="Create a helios_string object from a c string.">
<polygon fill="#ffffff" stroke="#000000" points="337,-14 337,-44 444,-44 444,-14 337,-14"/>
<text text-anchor="start" x="345" y="-32" font-family="Helvetica,sans-Serif" font-size="10.00" fill="#000000">helios_string_from</text>
<text text-anchor="middle" x="390.5" y="-21" font-family="Helvetica,sans-Serif" font-size="10.00" fill="#000000">_charp</text>
</a>
</g>
</g>
<!-- Node15&#45;&gt;Node16 -->
<g id="edge2" class="edge">
<title>Node15&#45;&gt;Node16</title>
<path fill="none" stroke="#191970" d="M301.2084,-29C309.619,-29 318.236,-29 326.6408,-29"/>
<polygon fill="#191970" stroke="#191970" points="326.7593,-32.5001 336.7592,-29 326.7592,-25.5001 326.7593,-32.5001"/>
</g>
<!-- Node17 -->
<g id="node4" class="node">
<title>Node17</title>
<g id="a_node4"><a xlink:href="helios__string_8c.html#af727ca5352482ab7e542510f178a9f85" target="_top" xlink:title="Constructor of a helios_string.">
<polygon fill="#ffffff" stroke="#000000" points="480,-19.5 480,-38.5 580,-38.5 580,-19.5 480,-19.5"/>
<text text-anchor="middle" x="530" y="-26.5" font-family="Helvetica,sans-Serif" font-size="10.00" fill="#000000">helios_string_init</text>
</a>
</g>
</g>
<!-- Node16&#45;&gt;Node17 -->
<g id="edge3" class="edge">
<title>Node16&#45;&gt;Node17</title>
<path fill="none" stroke="#191970" d="M444.0354,-29C452.3384,-29 460.966,-29 469.4112,-29"/>
<polygon fill="#191970" stroke="#191970" points="469.588,-32.5001 479.588,-29 469.588,-25.5001 469.588,-32.5001"/>
</g>
<!-- Node18 -->
<g id="node5" class="node">
<title>Node18</title>
<g id="a_node5"><a xlink:href="helios__memory_8h.html#af87f0050f8e236d0945592fa4e54dc94" target="_top" xlink:title="Allocates a new helios object (and performs all the GC steps associated with that action).">
<polygon fill="#ffffff" stroke="#000000" points="635.5,-38.5 635.5,-57.5 760.5,-57.5 760.5,-38.5 635.5,-38.5"/>
<text text-anchor="middle" x="698" y="-45.5" font-family="Helvetica,sans-Serif" font-size="10.00" fill="#000000">helios_allocate_object</text>
</a>
</g>
</g>
<!-- Node17&#45;&gt;Node18 -->
<g id="edge4" class="edge">
<title>Node17&#45;&gt;Node18</title>
<path fill="none" stroke="#191970" d="M580.4055,-34.7006C594.4623,-36.2904 610.0217,-38.0501 625.0959,-39.7549"/>
<polygon fill="#191970" stroke="#191970" points="625.0999,-43.2776 635.4299,-40.9236 625.8866,-36.3219 625.0999,-43.2776"/>
</g>
<!-- Node19 -->
<g id="node6" class="node">
<title>Node19</title>
<g id="a_node6"><a xlink:href="helios__memory_8h.html#ab14fb1c046aae61ab06eda8eeaf2cd85" target="_top" xlink:title=" ">
<polygon fill="#ffffff" stroke="#000000" points="616,-.5 616,-19.5 780,-19.5 780,-.5 616,-.5"/>
<text text-anchor="middle" x="698" y="-7.5" font-family="Helvetica,sans-Serif" font-size="10.00" fill="#000000">helios_set_garbagecollectable</text>
</a>
</g>
</g>
<!-- Node17&#45;&gt;Node19 -->
<g id="edge5" class="edge">
<title>Node17&#45;&gt;Node19</title>
<path fill="none" stroke="#191970" d="M580.4055,-23.2994C588.4638,-22.388 597.016,-21.4208 605.6875,-20.4401"/>
<polygon fill="#191970" stroke="#191970" points="606.3561,-23.8869 615.8994,-19.2852 605.5694,-16.9312 606.3561,-23.8869"/>
</g>
</g>
</svg>
