<?xml version="1.0" encoding="UTF-8" standalone="no"?>
<!DOCTYPE svg PUBLIC "-//W3C//DTD SVG 1.1//EN"
 "http://www.w3.org/Graphics/SVG/1.1/DTD/svg11.dtd">
<!-- Generated by graphviz version 2.40.1 (20161225.0304)
 -->
<!-- Title: builtins/object/include/helios_object.h Pages: 1 -->
<svg width="557pt" height="229pt"
 viewBox="0.00 0.00 557.00 229.00" xmlns="http://www.w3.org/2000/svg" xmlns:xlink="http://www.w3.org/1999/xlink">
<g id="graph0" class="graph" transform="scale(1 1) rotate(0) translate(4 225)">
<title>builtins/object/include/helios_object.h</title>
<polygon fill="#ffffff" stroke="transparent" points="-4,4 -4,-225 553,-225 553,4 -4,4"/>
<!-- Node4 -->
<g id="node1" class="node">
<title>Node4</title>
<g id="a_node1"><a xlink:title=" ">
<polygon fill="#bfbfbf" stroke="#000000" points="240.5,-190.5 240.5,-220.5 350.5,-220.5 350.5,-190.5 240.5,-190.5"/>
<text text-anchor="start" x="248.5" y="-208.5" font-family="Helvetica,sans-Serif" font-size="10.00" fill="#000000">builtins/object/include</text>
<text text-anchor="middle" x="295.5" y="-197.5" font-family="Helvetica,sans-Serif" font-size="10.00" fill="#000000">/helios_object.h</text>
</a>
</g>
</g>
<!-- Node5 -->
<g id="node2" class="node">
<title>Node5</title>
<g id="a_node2"><a xlink:href="builtins_8h.html" target="_top" xlink:title=" ">
<polygon fill="#ffffff" stroke="#000000" points="0,-62 0,-81 123,-81 123,-62 0,-62"/>
<text text-anchor="middle" x="61.5" y="-69" font-family="Helvetica,sans-Serif" font-size="10.00" fill="#000000">builtins/include/builtins.h</text>
</a>
</g>
</g>
<!-- Node4&#45;&gt;Node5 -->
<g id="edge1" class="edge">
<title>Node4&#45;&gt;Node5</title>
<path fill="none" stroke="#191970" d="M230.4268,-200.0347C169.0376,-193.3774 83.3894,-179.6903 62.5,-154 45.4205,-132.9952 53.0149,-98.0379 58.16,-81.1787"/>
<polygon fill="#191970" stroke="#191970" points="230.1286,-203.5225 240.4385,-201.082 230.8569,-196.5605 230.1286,-203.5225"/>
</g>
<!-- Node7 -->
<g id="node4" class="node">
<title>Node7</title>
<g id="a_node4"><a xlink:href="helios__integer_8c.html" target="_top" xlink:title=" ">
<polygon fill="#ffffff" stroke="#000000" points="141.5,-56.5 141.5,-86.5 249.5,-86.5 249.5,-56.5 141.5,-56.5"/>
<text text-anchor="start" x="149.5" y="-74.5" font-family="Helvetica,sans-Serif" font-size="10.00" fill="#000000">builtins/integer/helios</text>
<text text-anchor="middle" x="195.5" y="-63.5" font-family="Helvetica,sans-Serif" font-size="10.00" fill="#000000">_integer.c</text>
</a>
</g>
</g>
<!-- Node4&#45;&gt;Node7 -->
<g id="edge3" class="edge">
<title>Node4&#45;&gt;Node7</title>
<path fill="none" stroke="#191970" d="M263.7876,-184.2326C252.8581,-175.7756 241.1926,-165.3508 232.5,-154 216.4659,-133.0627 205.542,-104.0758 199.9264,-86.6214"/>
<polygon fill="#191970" stroke="#191970" points="261.8283,-187.1373 271.9405,-190.2989 266.007,-181.5214 261.8283,-187.1373"/>
</g>
<!-- Node8 -->
<g id="node5" class="node">
<title>Node8</title>
<g id="a_node5"><a xlink:href="helios__integer__math_8c.html" target="_top" xlink:title=" ">
<polygon fill="#ffffff" stroke="#000000" points="267.5,-56.5 267.5,-86.5 375.5,-86.5 375.5,-56.5 267.5,-56.5"/>
<text text-anchor="start" x="275.5" y="-74.5" font-family="Helvetica,sans-Serif" font-size="10.00" fill="#000000">builtins/integer/helios</text>
<text text-anchor="middle" x="321.5" y="-63.5" font-family="Helvetica,sans-Serif" font-size="10.00" fill="#000000">_integer_math.c</text>
</a>
</g>
</g>
<!-- Node4&#45;&gt;Node8 -->
<g id="edge4" class="edge">
<title>Node4&#45;&gt;Node8</title>
<path fill="none" stroke="#191970" d="M332.1929,-184.322C342.659,-176.2777 352.7692,-166.0866 358.5,-154 369.5293,-130.7385 351.2425,-103.4228 336.6744,-86.7938"/>
<polygon fill="#191970" stroke="#191970" points="329.9089,-181.652 323.8,-190.3083 333.9737,-187.3509 329.9089,-181.652"/>
</g>
<!-- Node9 -->
<g id="node6" class="node">
<title>Node9</title>
<g id="a_node6"><a xlink:href="helios__integer_8h.html" target="_top" xlink:title=" ">
<polygon fill="#ffffff" stroke="#000000" points="72,-123.5 72,-153.5 185,-153.5 185,-123.5 72,-123.5"/>
<text text-anchor="start" x="80" y="-141.5" font-family="Helvetica,sans-Serif" font-size="10.00" fill="#000000">builtins/integer/include</text>
<text text-anchor="middle" x="128.5" y="-130.5" font-family="Helvetica,sans-Serif" font-size="10.00" fill="#000000">/helios_integer.h</text>
</a>
</g>
</g>
<!-- Node4&#45;&gt;Node9 -->
<g id="edge5" class="edge">
<title>Node4&#45;&gt;Node9</title>
<path fill="none" stroke="#191970" d="M248.7088,-186.7275C222.6294,-176.2645 190.5852,-163.4084 166.1415,-153.6017"/>
<polygon fill="#191970" stroke="#191970" points="247.4378,-189.9887 258.0219,-190.4639 250.0442,-183.492 247.4378,-189.9887"/>
</g>
<!-- Node10 -->
<g id="node7" class="node">
<title>Node10</title>
<g id="a_node7"><a xlink:href="helios__object_8c.html" target="_top" xlink:title=" ">
<polygon fill="#ffffff" stroke="#000000" points="444,-123.5 444,-153.5 549,-153.5 549,-123.5 444,-123.5"/>
<text text-anchor="start" x="452" y="-141.5" font-family="Helvetica,sans-Serif" font-size="10.00" fill="#000000">builtins/object/helios</text>
<text text-anchor="middle" x="496.5" y="-130.5" font-family="Helvetica,sans-Serif" font-size="10.00" fill="#000000">_object.c</text>
</a>
</g>
</g>
<!-- Node4&#45;&gt;Node10 -->
<g id="edge9" class="edge">
<title>Node4&#45;&gt;Node10</title>
<path fill="none" stroke="#191970" d="M350.1723,-187.2759C381.8504,-176.7165 421.2585,-163.5805 451.1949,-153.6017"/>
<polygon fill="#191970" stroke="#191970" points="348.9883,-183.9812 340.6083,-190.4639 351.202,-190.6219 348.9883,-183.9812"/>
</g>
<!-- Node11 -->
<g id="node8" class="node">
<title>Node11</title>
<g id="a_node8"><a xlink:href="helios__string_8c.html" target="_top" xlink:title=" ">
<polygon fill="#ffffff" stroke="#000000" points="394,-56.5 394,-86.5 497,-86.5 497,-56.5 394,-56.5"/>
<text text-anchor="start" x="402" y="-74.5" font-family="Helvetica,sans-Serif" font-size="10.00" fill="#000000">builtins/string/helios</text>
<text text-anchor="middle" x="445.5" y="-63.5" font-family="Helvetica,sans-Serif" font-size="10.00" fill="#000000">_string.c</text>
</a>
</g>
</g>
<!-- Node4&#45;&gt;Node11 -->
<g id="edge10" class="edge">
<title>Node4&#45;&gt;Node11</title>
<path fill="none" stroke="#191970" d="M331.7039,-184.9044C345.7052,-176.1869 361.4628,-165.4102 374.5,-154 398.3893,-133.0921 421.501,-104.096 434.5675,-86.6318"/>
<polygon fill="#191970" stroke="#191970" points="329.5256,-182.1328 322.8029,-190.3215 333.1649,-188.1124 329.5256,-182.1328"/>
</g>
<!-- Node12 -->
<g id="node9" class="node">
<title>Node12</title>
<g id="a_node9"><a xlink:href="helios__string_8h.html" target="_top" xlink:title=" ">
<polygon fill="#ffffff" stroke="#000000" points="241.5,-123.5 241.5,-153.5 349.5,-153.5 349.5,-123.5 241.5,-123.5"/>
<text text-anchor="start" x="249.5" y="-141.5" font-family="Helvetica,sans-Serif" font-size="10.00" fill="#000000">builtins/string/include</text>
<text text-anchor="middle" x="295.5" y="-130.5" font-family="Helvetica,sans-Serif" font-size="10.00" fill="#000000">/helios_string.h</text>
</a>
</g>
</g>
<!-- Node4&#45;&gt;Node12 -->
<g id="edge11" class="edge">
<title>Node4&#45;&gt;Node12</title>
<path fill="none" stroke="#191970" d="M295.5,-180.0249C295.5,-171.128 295.5,-161.4287 295.5,-153.6432"/>
<polygon fill="#191970" stroke="#191970" points="292.0001,-180.2966 295.5,-190.2967 299.0001,-180.2967 292.0001,-180.2966"/>
</g>
<!-- Node6 -->
<g id="node3" class="node">
<title>Node6</title>
<g id="a_node3"><a xlink:href="test_8c.html" target="_top" xlink:title=" ">
<polygon fill="#ffffff" stroke="#000000" points="31,-.5 31,-19.5 92,-19.5 92,-.5 31,-.5"/>
<text text-anchor="middle" x="61.5" y="-7.5" font-family="Helvetica,sans-Serif" font-size="10.00" fill="#000000">test/test.c</text>
</a>
</g>
</g>
<!-- Node5&#45;&gt;Node6 -->
<g id="edge2" class="edge">
<title>Node5&#45;&gt;Node6</title>
<path fill="none" stroke="#191970" d="M61.5,-51.7462C61.5,-41.0519 61.5,-28.314 61.5,-19.7449"/>
<polygon fill="#191970" stroke="#191970" points="58.0001,-51.8906 61.5,-61.8906 65.0001,-51.8907 58.0001,-51.8906"/>
</g>
<!-- Node9&#45;&gt;Node5 -->
<g id="edge6" class="edge">
<title>Node9&#45;&gt;Node5</title>
<path fill="none" stroke="#191970" d="M106.2032,-116.2032C94.2634,-104.2634 80.1776,-90.1776 71.055,-81.055"/>
<polygon fill="#191970" stroke="#191970" points="103.7507,-118.7004 113.2967,-123.2967 108.7004,-113.7507 103.7507,-118.7004"/>
</g>
<!-- Node9&#45;&gt;Node7 -->
<g id="edge7" class="edge">
<title>Node9&#45;&gt;Node7</title>
<path fill="none" stroke="#191970" d="M150.7887,-116.2113C160.4991,-106.5009 171.6302,-95.3698 180.3568,-86.6432"/>
<polygon fill="#191970" stroke="#191970" points="148.2996,-113.7507 143.7033,-123.2967 153.2493,-118.7004 148.2996,-113.7507"/>
</g>
<!-- Node9&#45;&gt;Node8 -->
<g id="edge8" class="edge">
<title>Node9&#45;&gt;Node8</title>
<path fill="none" stroke="#191970" d="M181.39,-120.1392C211.7396,-109.6033 249.3771,-96.5375 277.9981,-86.6017"/>
<polygon fill="#191970" stroke="#191970" points="180.1121,-116.8779 171.813,-123.4639 182.4078,-123.4907 180.1121,-116.8779"/>
</g>
<!-- Node12&#45;&gt;Node5 -->
<g id="edge12" class="edge">
<title>Node12&#45;&gt;Node5</title>
<path fill="none" stroke="#191970" d="M233.1431,-120.6457C188.6663,-107.9109 130.6029,-91.2859 94.6976,-81.0053"/>
<polygon fill="#191970" stroke="#191970" points="232.4087,-124.076 242.9858,-123.4639 234.3356,-117.3464 232.4087,-124.076"/>
</g>
<!-- Node12&#45;&gt;Node7 -->
<g id="edge13" class="edge">
<title>Node12&#45;&gt;Node7</title>
<path fill="none" stroke="#191970" d="M264.3487,-117.6286C249.3775,-107.5979 231.7651,-95.7976 218.1017,-86.6432"/>
<polygon fill="#191970" stroke="#191970" points="262.5526,-120.6382 272.8085,-123.2967 266.4489,-114.8228 262.5526,-120.6382"/>
</g>
<!-- Node12&#45;&gt;Node11 -->
<g id="edge14" class="edge">
<title>Node12&#45;&gt;Node11</title>
<path fill="none" stroke="#191970" d="M338.4555,-119.3132C361.7089,-108.9267 390.0237,-96.2794 411.6903,-86.6017"/>
<polygon fill="#191970" stroke="#191970" points="336.8661,-116.1898 329.1629,-123.4639 339.7209,-122.5812 336.8661,-116.1898"/>
</g>
</g>
</svg>
