<?xml version="1.0" encoding="UTF-8" standalone="no"?>
<!DOCTYPE svg PUBLIC "-//W3C//DTD SVG 1.1//EN"
 "http://www.w3.org/Graphics/SVG/1.1/DTD/svg11.dtd">
<!-- Generated by graphviz version 2.40.1 (20161225.0304)
 -->
<!-- Title: helios_integer_lessequal Pages: 1 -->
<svg width="1005pt" height="112pt"
 viewBox="0.00 0.00 1005.00 111.50" xmlns="http://www.w3.org/2000/svg" xmlns:xlink="http://www.w3.org/1999/xlink">
<g id="graph0" class="graph" transform="scale(1 1) rotate(0) translate(4 107.5)">
<title>helios_integer_lessequal</title>
<polygon fill="#ffffff" stroke="transparent" points="-4,4 -4,-107.5 1001,-107.5 1001,4 -4,4"/>
<!-- Node53 -->
<g id="node1" class="node">
<title>Node53</title>
<g id="a_node1"><a xlink:title=" ">
<polygon fill="#bfbfbf" stroke="#000000" points="0,-38.5 0,-57.5 137,-57.5 137,-38.5 0,-38.5"/>
<text text-anchor="middle" x="68.5" y="-45.5" font-family="Helvetica,sans-Serif" font-size="10.00" fill="#000000">helios_integer_lessequal</text>
</a>
</g>
</g>
<!-- Node54 -->
<g id="node2" class="node">
<title>Node54</title>
<g id="a_node2"><a xlink:href="helios__boolean_8c.html#a50e186696d4b9f2e8efdcddc17ab5ce5" target="_top" xlink:title="Create a helios_boolean object from a c boolean type.">
<polygon fill="#ffffff" stroke="#000000" points="351.5,-73 351.5,-103 470.5,-103 470.5,-73 351.5,-73"/>
<text text-anchor="start" x="359.5" y="-91" font-family="Helvetica,sans-Serif" font-size="10.00" fill="#000000">helios_boolean_from</text>
<text text-anchor="middle" x="411" y="-80" font-family="Helvetica,sans-Serif" font-size="10.00" fill="#000000">_cbool</text>
</a>
</g>
</g>
<!-- Node53&#45;&gt;Node54 -->
<g id="edge1" class="edge">
<title>Node53&#45;&gt;Node54</title>
<path fill="none" stroke="#191970" d="M89.1641,-57.5971C109.8585,-66.6563 142.874,-79.6284 173,-85 228.9028,-94.9676 293.3669,-95.0987 341.0934,-93.0814"/>
<polygon fill="#191970" stroke="#191970" points="341.4924,-96.5668 351.3189,-92.6057 341.1671,-89.5743 341.4924,-96.5668"/>
</g>
<!-- Node56 -->
<g id="node4" class="node">
<title>Node56</title>
<g id="a_node4"><a xlink:href="helios__integer__compare_8c.html#adc82b8e40706a9328ea90c41ef6348aa" target="_top" xlink:title=" ">
<polygon fill="#ffffff" stroke="#000000" points="173,-38.5 173,-57.5 310,-57.5 310,-38.5 173,-38.5"/>
<text text-anchor="middle" x="241.5" y="-45.5" font-family="Helvetica,sans-Serif" font-size="10.00" fill="#000000">helios_integer_lessequal</text>
</a>
</g>
</g>
<!-- Node53&#45;&gt;Node56 -->
<g id="edge3" class="edge">
<title>Node53&#45;&gt;Node56</title>
<path fill="none" stroke="#191970" d="M137.3713,-48C145.678,-48 154.2111,-48 162.6466,-48"/>
<polygon fill="#191970" stroke="#191970" points="162.8657,-51.5001 172.8657,-48 162.8657,-44.5001 162.8657,-51.5001"/>
</g>
<!-- Node57 -->
<g id="node5" class="node">
<title>Node57</title>
<g id="a_node5"><a xlink:href="helios__boolean_8c.html#a856733e7e090437084fcf595bd4e3b8f" target="_top" xlink:title="Convert a boolean to an integer.">
<polygon fill="#ffffff" stroke="#000000" points="346,-19.5 346,-38.5 476,-38.5 476,-19.5 346,-19.5"/>
<text text-anchor="middle" x="411" y="-26.5" font-family="Helvetica,sans-Serif" font-size="10.00" fill="#000000">helios_boolean_integer</text>
</a>
</g>
</g>
<!-- Node53&#45;&gt;Node57 -->
<g id="edge11" class="edge">
<title>Node53&#45;&gt;Node57</title>
<path fill="none" stroke="#191970" d="M110.9713,-38.4886C129.8578,-34.7233 152.4309,-30.8547 173,-29 227.346,-24.0996 288.9566,-24.2551 335.8748,-25.5542"/>
<polygon fill="#191970" stroke="#191970" points="335.856,-29.0551 345.9567,-25.8571 336.0663,-22.0583 335.856,-29.0551"/>
</g>
<!-- Node55 -->
<g id="node3" class="node">
<title>Node55</title>
<g id="a_node3"><a xlink:href="helios__boolean_8c.html#ab172c15c28782b45e824c42601484606" target="_top" xlink:title="Create a helios_boolean object from a c integer type.">
<polygon fill="#ffffff" stroke="#000000" points="512,-78.5 512,-97.5 654,-97.5 654,-78.5 512,-78.5"/>
<text text-anchor="middle" x="583" y="-85.5" font-family="Helvetica,sans-Serif" font-size="10.00" fill="#000000">helios_boolean_from_cint</text>
</a>
</g>
</g>
<!-- Node54&#45;&gt;Node55 -->
<g id="edge2" class="edge">
<title>Node54&#45;&gt;Node55</title>
<path fill="none" stroke="#191970" d="M470.6745,-88C480.7479,-88 491.3545,-88 501.864,-88"/>
<polygon fill="#191970" stroke="#191970" points="501.8898,-91.5001 511.8897,-88 501.8897,-84.5001 501.8898,-91.5001"/>
</g>
<!-- Node56&#45;&gt;Node54 -->
<g id="edge4" class="edge">
<title>Node56&#45;&gt;Node54</title>
<path fill="none" stroke="#191970" d="M282.0995,-57.581C299.9428,-61.7918 321.4088,-66.8575 341.66,-71.6366"/>
<polygon fill="#191970" stroke="#191970" points="340.9461,-75.0642 351.4827,-73.9546 342.5539,-68.2513 340.9461,-75.0642"/>
</g>
<!-- Node56&#45;&gt;Node56 -->
<g id="edge5" class="edge">
<title>Node56&#45;&gt;Node56</title>
<path fill="none" stroke="#191970" d="M215.6063,-57.7571C203.0094,-66.5653 211.6406,-76 241.5,-76 261.5618,-76 272.0408,-71.741 272.9371,-66.2746"/>
<polygon fill="#191970" stroke="#191970" points="275.7819,-64.2291 267.3937,-57.7571 269.915,-68.0475 275.7819,-64.2291"/>
</g>
<!-- Node56&#45;&gt;Node57 -->
<g id="edge6" class="edge">
<title>Node56&#45;&gt;Node57</title>
<path fill="none" stroke="#191970" d="M310.4421,-40.272C318.7827,-39.337 327.335,-38.3784 335.7603,-37.4339"/>
<polygon fill="#191970" stroke="#191970" points="336.4038,-40.8838 345.9516,-36.2916 335.624,-33.9274 336.4038,-40.8838"/>
</g>
<!-- Node58 -->
<g id="node6" class="node">
<title>Node58</title>
<g id="a_node6"><a xlink:href="helios__integer_8c.html#af677316afd6536844aeb027f14c198cf" target="_top" xlink:title="Create a helios_integer object from a c integer type.">
<polygon fill="#ffffff" stroke="#000000" points="514.5,-19.5 514.5,-38.5 651.5,-38.5 651.5,-19.5 514.5,-19.5"/>
<text text-anchor="middle" x="583" y="-26.5" font-family="Helvetica,sans-Serif" font-size="10.00" fill="#000000">helios_integer_from_cint</text>
</a>
</g>
</g>
<!-- Node57&#45;&gt;Node58 -->
<g id="edge7" class="edge">
<title>Node57&#45;&gt;Node58</title>
<path fill="none" stroke="#191970" d="M476.0258,-29C485.2476,-29 494.8121,-29 504.259,-29"/>
<polygon fill="#191970" stroke="#191970" points="504.4419,-32.5001 514.4418,-29 504.4418,-25.5001 504.4419,-32.5001"/>
</g>
<!-- Node59 -->
<g id="node7" class="node">
<title>Node59</title>
<g id="a_node7"><a xlink:href="helios__integer_8c.html#a50a26b1e9578164839f3a5bb17e04051" target="_top" xlink:title="Constructor of a helios_integer object.">
<polygon fill="#ffffff" stroke="#000000" points="690,-19.5 690,-38.5 797,-38.5 797,-19.5 690,-19.5"/>
<text text-anchor="middle" x="743.5" y="-26.5" font-family="Helvetica,sans-Serif" font-size="10.00" fill="#000000">helios_integer_init</text>
</a>
</g>
</g>
<!-- Node58&#45;&gt;Node59 -->
<g id="edge8" class="edge">
<title>Node58&#45;&gt;Node59</title>
<path fill="none" stroke="#191970" d="M651.532,-29C660.8177,-29 670.3173,-29 679.519,-29"/>
<polygon fill="#191970" stroke="#191970" points="679.7542,-32.5001 689.7542,-29 679.7541,-25.5001 679.7542,-32.5001"/>
</g>
<!-- Node60 -->
<g id="node8" class="node">
<title>Node60</title>
<g id="a_node8"><a xlink:href="helios__memory_8h.html#af87f0050f8e236d0945592fa4e54dc94" target="_top" xlink:title="Allocates a new helios object (and performs all the GC steps associated with that action).">
<polygon fill="#ffffff" stroke="#000000" points="852.5,-38.5 852.5,-57.5 977.5,-57.5 977.5,-38.5 852.5,-38.5"/>
<text text-anchor="middle" x="915" y="-45.5" font-family="Helvetica,sans-Serif" font-size="10.00" fill="#000000">helios_allocate_object</text>
</a>
</g>
</g>
<!-- Node59&#45;&gt;Node60 -->
<g id="edge9" class="edge">
<title>Node59&#45;&gt;Node60</title>
<path fill="none" stroke="#191970" d="M797.2931,-34.9596C811.5001,-36.5335 827.0727,-38.2588 842.106,-39.9243"/>
<polygon fill="#191970" stroke="#191970" points="842.0794,-43.4427 852.404,-41.0652 842.8503,-36.4852 842.0794,-43.4427"/>
</g>
<!-- Node61 -->
<g id="node9" class="node">
<title>Node61</title>
<g id="a_node9"><a xlink:href="helios__memory_8h.html#ab14fb1c046aae61ab06eda8eeaf2cd85" target="_top" xlink:title=" ">
<polygon fill="#ffffff" stroke="#000000" points="833,-.5 833,-19.5 997,-19.5 997,-.5 833,-.5"/>
<text text-anchor="middle" x="915" y="-7.5" font-family="Helvetica,sans-Serif" font-size="10.00" fill="#000000">helios_set_garbagecollectable</text>
</a>
</g>
</g>
<!-- Node59&#45;&gt;Node61 -->
<g id="edge10" class="edge">
<title>Node59&#45;&gt;Node61</title>
<path fill="none" stroke="#191970" d="M797.2931,-23.0404C805.4127,-22.1409 813.9784,-21.1919 822.6345,-20.2329"/>
<polygon fill="#191970" stroke="#191970" points="823.2625,-23.6848 832.8162,-19.1049 822.4916,-16.7274 823.2625,-23.6848"/>
</g>
</g>
</svg>
