<?xml version="1.0" encoding="UTF-8" standalone="no"?>
<!DOCTYPE svg PUBLIC "-//W3C//DTD SVG 1.1//EN"
 "http://www.w3.org/Graphics/SVG/1.1/DTD/svg11.dtd">
<!-- Generated by graphviz version 2.40.1 (20161225.0304)
 -->
<!-- Title: helios_integer_less Pages: 1 -->
<svg width="951pt" height="112pt"
 viewBox="0.00 0.00 951.00 111.50" xmlns="http://www.w3.org/2000/svg" xmlns:xlink="http://www.w3.org/1999/xlink">
<g id="graph0" class="graph" transform="scale(1 1) rotate(0) translate(4 107.5)">
<title>helios_integer_less</title>
<polygon fill="#ffffff" stroke="transparent" points="-4,4 -4,-107.5 947,-107.5 947,4 -4,4"/>
<!-- Node44 -->
<g id="node1" class="node">
<title>Node44</title>
<g id="a_node1"><a xlink:title=" ">
<polygon fill="#bfbfbf" stroke="#000000" points="0,-38.5 0,-57.5 110,-57.5 110,-38.5 0,-38.5"/>
<text text-anchor="middle" x="55" y="-45.5" font-family="Helvetica,sans-Serif" font-size="10.00" fill="#000000">helios_integer_less</text>
</a>
</g>
</g>
<!-- Node45 -->
<g id="node2" class="node">
<title>Node45</title>
<g id="a_node2"><a xlink:href="helios__boolean_8c.html#a50e186696d4b9f2e8efdcddc17ab5ce5" target="_top" xlink:title="Create a helios_boolean object from a c boolean type.">
<polygon fill="#ffffff" stroke="#000000" points="297.5,-73 297.5,-103 416.5,-103 416.5,-73 297.5,-73"/>
<text text-anchor="start" x="305.5" y="-91" font-family="Helvetica,sans-Serif" font-size="10.00" fill="#000000">helios_boolean_from</text>
<text text-anchor="middle" x="357" y="-80" font-family="Helvetica,sans-Serif" font-size="10.00" fill="#000000">_cbool</text>
</a>
</g>
</g>
<!-- Node44&#45;&gt;Node45 -->
<g id="edge1" class="edge">
<title>Node44&#45;&gt;Node45</title>
<path fill="none" stroke="#191970" d="M72.8477,-57.5881C90.7571,-66.6405 119.4248,-79.6075 146,-85 192.4367,-94.4227 245.8089,-95.0901 287.2559,-93.4438"/>
<polygon fill="#191970" stroke="#191970" points="287.4222,-96.9399 297.2544,-92.993 287.1068,-89.947 287.4222,-96.9399"/>
</g>
<!-- Node47 -->
<g id="node4" class="node">
<title>Node47</title>
<g id="a_node4"><a xlink:href="helios__integer__compare_8c.html#a09042a280230b0083b6d06d84213b0ee" target="_top" xlink:title=" ">
<polygon fill="#ffffff" stroke="#000000" points="146,-38.5 146,-57.5 256,-57.5 256,-38.5 146,-38.5"/>
<text text-anchor="middle" x="201" y="-45.5" font-family="Helvetica,sans-Serif" font-size="10.00" fill="#000000">helios_integer_less</text>
</a>
</g>
</g>
<!-- Node44&#45;&gt;Node47 -->
<g id="edge3" class="edge">
<title>Node44&#45;&gt;Node47</title>
<path fill="none" stroke="#191970" d="M110.1963,-48C118.4633,-48 127.0546,-48 135.5101,-48"/>
<polygon fill="#191970" stroke="#191970" points="135.7256,-51.5001 145.7256,-48 135.7256,-44.5001 135.7256,-51.5001"/>
</g>
<!-- Node48 -->
<g id="node5" class="node">
<title>Node48</title>
<g id="a_node5"><a xlink:href="helios__boolean_8c.html#a856733e7e090437084fcf595bd4e3b8f" target="_top" xlink:title="Convert a boolean to an integer.">
<polygon fill="#ffffff" stroke="#000000" points="292,-19.5 292,-38.5 422,-38.5 422,-19.5 292,-19.5"/>
<text text-anchor="middle" x="357" y="-26.5" font-family="Helvetica,sans-Serif" font-size="10.00" fill="#000000">helios_boolean_integer</text>
</a>
</g>
</g>
<!-- Node44&#45;&gt;Node48 -->
<g id="edge11" class="edge">
<title>Node44&#45;&gt;Node48</title>
<path fill="none" stroke="#191970" d="M91.9195,-38.4908C108.3541,-34.7259 128.0196,-30.857 146,-29 190.8445,-24.3684 241.3367,-24.19 281.6822,-25.2536"/>
<polygon fill="#191970" stroke="#191970" points="281.6126,-28.7529 291.7113,-25.5488 281.8187,-21.756 281.6126,-28.7529"/>
</g>
<!-- Node46 -->
<g id="node3" class="node">
<title>Node46</title>
<g id="a_node3"><a xlink:href="helios__boolean_8c.html#ab172c15c28782b45e824c42601484606" target="_top" xlink:title="Create a helios_boolean object from a c integer type.">
<polygon fill="#ffffff" stroke="#000000" points="458,-78.5 458,-97.5 600,-97.5 600,-78.5 458,-78.5"/>
<text text-anchor="middle" x="529" y="-85.5" font-family="Helvetica,sans-Serif" font-size="10.00" fill="#000000">helios_boolean_from_cint</text>
</a>
</g>
</g>
<!-- Node45&#45;&gt;Node46 -->
<g id="edge2" class="edge">
<title>Node45&#45;&gt;Node46</title>
<path fill="none" stroke="#191970" d="M416.6745,-88C426.7479,-88 437.3545,-88 447.864,-88"/>
<polygon fill="#191970" stroke="#191970" points="447.8898,-91.5001 457.8897,-88 447.8897,-84.5001 447.8898,-91.5001"/>
</g>
<!-- Node47&#45;&gt;Node45 -->
<g id="edge4" class="edge">
<title>Node47&#45;&gt;Node45</title>
<path fill="none" stroke="#191970" d="M238.3659,-57.581C253.3607,-61.4258 271.1351,-65.9834 288.3001,-70.3846"/>
<polygon fill="#191970" stroke="#191970" points="287.7545,-73.8579 298.3105,-72.9514 289.4932,-67.0773 287.7545,-73.8579"/>
</g>
<!-- Node47&#45;&gt;Node47 -->
<g id="edge5" class="edge">
<title>Node47&#45;&gt;Node47</title>
<path fill="none" stroke="#191970" d="M178.4972,-57.7571C167.5498,-66.5653 175.0508,-76 201,-76 218.0292,-76 227.1133,-71.9368 228.2525,-66.6539"/>
<polygon fill="#191970" stroke="#191970" points="231.2999,-64.9303 223.5028,-57.7571 225.1248,-68.227 231.2999,-64.9303"/>
</g>
<!-- Node47&#45;&gt;Node48 -->
<g id="edge6" class="edge">
<title>Node47&#45;&gt;Node48</title>
<path fill="none" stroke="#191970" d="M256.439,-41.2478C264.6848,-40.2435 273.2987,-39.1944 281.8664,-38.1509"/>
<polygon fill="#191970" stroke="#191970" points="282.3747,-41.6149 291.8781,-36.9315 281.5283,-34.6663 282.3747,-41.6149"/>
</g>
<!-- Node49 -->
<g id="node6" class="node">
<title>Node49</title>
<g id="a_node6"><a xlink:href="helios__integer_8c.html#af677316afd6536844aeb027f14c198cf" target="_top" xlink:title="Create a helios_integer object from a c integer type.">
<polygon fill="#ffffff" stroke="#000000" points="460.5,-19.5 460.5,-38.5 597.5,-38.5 597.5,-19.5 460.5,-19.5"/>
<text text-anchor="middle" x="529" y="-26.5" font-family="Helvetica,sans-Serif" font-size="10.00" fill="#000000">helios_integer_from_cint</text>
</a>
</g>
</g>
<!-- Node48&#45;&gt;Node49 -->
<g id="edge7" class="edge">
<title>Node48&#45;&gt;Node49</title>
<path fill="none" stroke="#191970" d="M422.0258,-29C431.2476,-29 440.8121,-29 450.259,-29"/>
<polygon fill="#191970" stroke="#191970" points="450.4419,-32.5001 460.4418,-29 450.4418,-25.5001 450.4419,-32.5001"/>
</g>
<!-- Node50 -->
<g id="node7" class="node">
<title>Node50</title>
<g id="a_node7"><a xlink:href="helios__integer_8c.html#a50a26b1e9578164839f3a5bb17e04051" target="_top" xlink:title="Constructor of a helios_integer object.">
<polygon fill="#ffffff" stroke="#000000" points="636,-19.5 636,-38.5 743,-38.5 743,-19.5 636,-19.5"/>
<text text-anchor="middle" x="689.5" y="-26.5" font-family="Helvetica,sans-Serif" font-size="10.00" fill="#000000">helios_integer_init</text>
</a>
</g>
</g>
<!-- Node49&#45;&gt;Node50 -->
<g id="edge8" class="edge">
<title>Node49&#45;&gt;Node50</title>
<path fill="none" stroke="#191970" d="M597.532,-29C606.8177,-29 616.3173,-29 625.519,-29"/>
<polygon fill="#191970" stroke="#191970" points="625.7542,-32.5001 635.7542,-29 625.7541,-25.5001 625.7542,-32.5001"/>
</g>
<!-- Node51 -->
<g id="node8" class="node">
<title>Node51</title>
<g id="a_node8"><a xlink:href="helios__memory_8h.html#af87f0050f8e236d0945592fa4e54dc94" target="_top" xlink:title="Allocates a new helios object (and performs all the GC steps associated with that action).">
<polygon fill="#ffffff" stroke="#000000" points="798.5,-38.5 798.5,-57.5 923.5,-57.5 923.5,-38.5 798.5,-38.5"/>
<text text-anchor="middle" x="861" y="-45.5" font-family="Helvetica,sans-Serif" font-size="10.00" fill="#000000">helios_allocate_object</text>
</a>
</g>
</g>
<!-- Node50&#45;&gt;Node51 -->
<g id="edge9" class="edge">
<title>Node50&#45;&gt;Node51</title>
<path fill="none" stroke="#191970" d="M743.2931,-34.9596C757.5001,-36.5335 773.0727,-38.2588 788.106,-39.9243"/>
<polygon fill="#191970" stroke="#191970" points="788.0794,-43.4427 798.404,-41.0652 788.8503,-36.4852 788.0794,-43.4427"/>
</g>
<!-- Node52 -->
<g id="node9" class="node">
<title>Node52</title>
<g id="a_node9"><a xlink:href="helios__memory_8h.html#ab14fb1c046aae61ab06eda8eeaf2cd85" target="_top" xlink:title=" ">
<polygon fill="#ffffff" stroke="#000000" points="779,-.5 779,-19.5 943,-19.5 943,-.5 779,-.5"/>
<text text-anchor="middle" x="861" y="-7.5" font-family="Helvetica,sans-Serif" font-size="10.00" fill="#000000">helios_set_garbagecollectable</text>
</a>
</g>
</g>
<!-- Node50&#45;&gt;Node52 -->
<g id="edge10" class="edge">
<title>Node50&#45;&gt;Node52</title>
<path fill="none" stroke="#191970" d="M743.2931,-23.0404C751.4127,-22.1409 759.9784,-21.1919 768.6345,-20.2329"/>
<polygon fill="#191970" stroke="#191970" points="769.2625,-23.6848 778.8162,-19.1049 768.4916,-16.7274 769.2625,-23.6848"/>
</g>
</g>
</svg>
