<?xml version="1.0" encoding="UTF-8" standalone="no"?>
<!DOCTYPE svg PUBLIC "-//W3C//DTD SVG 1.1//EN"
 "http://www.w3.org/Graphics/SVG/1.1/DTD/svg11.dtd">
<!-- Generated by graphviz version 2.40.1 (20161225.0304)
 -->
<!-- Title: builtins/float/helios_float.c Pages: 1 -->
<svg width="524pt" height="319pt"
 viewBox="0.00 0.00 524.00 319.00" xmlns="http://www.w3.org/2000/svg" xmlns:xlink="http://www.w3.org/1999/xlink">
<g id="graph0" class="graph" transform="scale(1 1) rotate(0) translate(4 315)">
<title>builtins/float/helios_float.c</title>
<polygon fill="#ffffff" stroke="transparent" points="-4,4 -4,-315 520,-315 520,4 -4,4"/>
<!-- Node0 -->
<g id="node1" class="node">
<title>Node0</title>
<g id="a_node1"><a xlink:title=" ">
<polygon fill="#bfbfbf" stroke="#000000" points="225,-280.5 225,-310.5 323,-310.5 323,-280.5 225,-280.5"/>
<text text-anchor="start" x="233" y="-298.5" font-family="Helvetica,sans-Serif" font-size="10.00" fill="#000000">builtins/float/helios</text>
<text text-anchor="middle" x="274" y="-287.5" font-family="Helvetica,sans-Serif" font-size="10.00" fill="#000000">_float.c</text>
</a>
</g>
</g>
<!-- Node1 -->
<g id="node2" class="node">
<title>Node1</title>
<g id="a_node2"><a xlink:title=" ">
<polygon fill="#ffffff" stroke="#bfbfbf" points="0,-224.5 0,-243.5 52,-243.5 52,-224.5 0,-224.5"/>
<text text-anchor="middle" x="26" y="-231.5" font-family="Helvetica,sans-Serif" font-size="10.00" fill="#000000">assert.h</text>
</a>
</g>
</g>
<!-- Node0&#45;&gt;Node1 -->
<g id="edge1" class="edge">
<title>Node0&#45;&gt;Node1</title>
<path fill="none" stroke="#191970" d="M224.7878,-284.2061C183.7207,-274.6448 123.424,-260.291 62.1766,-244.2414"/>
<polygon fill="#191970" stroke="#191970" points="62.903,-240.8134 52.3414,-241.6514 61.1204,-247.5826 62.903,-240.8134"/>
</g>
<!-- Node2 -->
<g id="node3" class="node">
<title>Node2</title>
<g id="a_node3"><a xlink:title=" ">
<polygon fill="#ffffff" stroke="#bfbfbf" points="70.5,-224.5 70.5,-243.5 119.5,-243.5 119.5,-224.5 70.5,-224.5"/>
<text text-anchor="middle" x="95" y="-231.5" font-family="Helvetica,sans-Serif" font-size="10.00" fill="#000000">ctype.h</text>
</a>
</g>
</g>
<!-- Node0&#45;&gt;Node2 -->
<g id="edge2" class="edge">
<title>Node0&#45;&gt;Node2</title>
<path fill="none" stroke="#191970" d="M230.2117,-280.4554C199.103,-269.7672 157.9227,-255.6187 129.216,-245.7558"/>
<polygon fill="#191970" stroke="#191970" points="130.2139,-242.3979 119.6192,-242.4586 127.9393,-249.018 130.2139,-242.3979"/>
</g>
<!-- Node3 -->
<g id="node4" class="node">
<title>Node3</title>
<g id="a_node4"><a xlink:href="helios__float_8h.html" target="_top" xlink:title=" ">
<polygon fill="#ffffff" stroke="#000000" points="138,-224.5 138,-243.5 212,-243.5 212,-224.5 138,-224.5"/>
<text text-anchor="middle" x="175" y="-231.5" font-family="Helvetica,sans-Serif" font-size="10.00" fill="#000000">helios_float.h</text>
</a>
</g>
</g>
<!-- Node0&#45;&gt;Node3 -->
<g id="edge3" class="edge">
<title>Node0&#45;&gt;Node3</title>
<path fill="none" stroke="#191970" d="M249.7819,-280.4554C234.4227,-270.9141 214.6243,-258.6151 199.2575,-249.0691"/>
<polygon fill="#191970" stroke="#191970" points="200.6828,-245.8341 190.3415,-243.5303 196.989,-251.7802 200.6828,-245.8341"/>
</g>
<!-- Node4 -->
<g id="node5" class="node">
<title>Node4</title>
<g id="a_node5"><a xlink:href="helios__object_8h.html" target="_top" xlink:title=" ">
<polygon fill="#ffffff" stroke="#000000" points="210,-168.5 210,-187.5 292,-187.5 292,-168.5 210,-168.5"/>
<text text-anchor="middle" x="251" y="-175.5" font-family="Helvetica,sans-Serif" font-size="10.00" fill="#000000">helios_object.h</text>
</a>
</g>
</g>
<!-- Node0&#45;&gt;Node4 -->
<g id="edge14" class="edge">
<title>Node0&#45;&gt;Node4</title>
<path fill="none" stroke="#191970" d="M268.8773,-280.3396C265.6158,-270.1666 261.5412,-256.4074 259,-244 255.8832,-228.7826 253.8326,-211.3252 252.5884,-198.1882"/>
<polygon fill="#191970" stroke="#191970" points="256.0489,-197.5802 251.6962,-187.9208 249.0752,-198.1863 256.0489,-197.5802"/>
</g>
<!-- Node6 -->
<g id="node7" class="node">
<title>Node6</title>
<g id="a_node7"><a xlink:href="helios__memory_8h.html" target="_top" xlink:title=" ">
<polygon fill="#ffffff" stroke="#000000" points="325,-56.5 325,-75.5 415,-75.5 415,-56.5 325,-56.5"/>
<text text-anchor="middle" x="370" y="-63.5" font-family="Helvetica,sans-Serif" font-size="10.00" fill="#000000">helios_memory.h</text>
</a>
</g>
</g>
<!-- Node0&#45;&gt;Node6 -->
<g id="edge13" class="edge">
<title>Node0&#45;&gt;Node6</title>
<path fill="none" stroke="#191970" d="M313.907,-280.3715C330.0511,-272.1383 347.1669,-260.2497 357,-244 387.3973,-193.7668 379.9169,-120.3727 373.9785,-85.6281"/>
<polygon fill="#191970" stroke="#191970" points="377.4179,-84.9789 372.1546,-75.7839 370.535,-86.2542 377.4179,-84.9789"/>
</g>
<!-- Node12 -->
<g id="node13" class="node">
<title>Node12</title>
<g id="a_node13"><a xlink:href="helios__string_8h.html" target="_top" xlink:title=" ">
<polygon fill="#ffffff" stroke="#000000" points="268,-224.5 268,-243.5 348,-243.5 348,-224.5 268,-224.5"/>
<text text-anchor="middle" x="308" y="-231.5" font-family="Helvetica,sans-Serif" font-size="10.00" fill="#000000">helios_string.h</text>
</a>
</g>
</g>
<!-- Node0&#45;&gt;Node12 -->
<g id="edge15" class="edge">
<title>Node0&#45;&gt;Node12</title>
<path fill="none" stroke="#191970" d="M282.4045,-280.2977C287.0257,-271.9388 292.7969,-261.4997 297.6889,-252.6509"/>
<polygon fill="#191970" stroke="#191970" points="300.7809,-254.292 302.5562,-243.8469 294.6548,-250.9051 300.7809,-254.292"/>
</g>
<!-- Node13 -->
<g id="node14" class="node">
<title>Node13</title>
<g id="a_node14"><a xlink:title=" ">
<polygon fill="#ffffff" stroke="#bfbfbf" points="404.5,-224.5 404.5,-243.5 451.5,-243.5 451.5,-224.5 404.5,-224.5"/>
<text text-anchor="middle" x="428" y="-231.5" font-family="Helvetica,sans-Serif" font-size="10.00" fill="#000000">math.h</text>
</a>
</g>
</g>
<!-- Node0&#45;&gt;Node13 -->
<g id="edge17" class="edge">
<title>Node0&#45;&gt;Node13</title>
<path fill="none" stroke="#191970" d="M311.6726,-280.4554C337.0298,-270.329 370.1652,-257.0964 394.5826,-247.3453"/>
<polygon fill="#191970" stroke="#191970" points="396.1467,-250.4895 404.1355,-243.5303 393.5505,-243.9887 396.1467,-250.4895"/>
</g>
<!-- Node14 -->
<g id="node15" class="node">
<title>Node14</title>
<g id="a_node15"><a xlink:title=" ">
<polygon fill="#ffffff" stroke="#bfbfbf" points="470,-224.5 470,-243.5 516,-243.5 516,-224.5 470,-224.5"/>
<text text-anchor="middle" x="493" y="-231.5" font-family="Helvetica,sans-Serif" font-size="10.00" fill="#000000">stdio.h</text>
</a>
</g>
</g>
<!-- Node0&#45;&gt;Node14 -->
<g id="edge18" class="edge">
<title>Node0&#45;&gt;Node14</title>
<path fill="none" stroke="#191970" d="M323.3455,-282.4033C358.9105,-272.8518 408.2778,-259.3653 460.2288,-244.1624"/>
<polygon fill="#191970" stroke="#191970" points="461.3488,-247.4813 469.9565,-241.3042 459.3754,-240.7652 461.3488,-247.4813"/>
</g>
<!-- Node3&#45;&gt;Node4 -->
<g id="edge4" class="edge">
<title>Node3&#45;&gt;Node4</title>
<path fill="none" stroke="#191970" d="M188.2382,-224.2455C199.681,-215.814 216.4296,-203.4729 229.7475,-193.6598"/>
<polygon fill="#191970" stroke="#191970" points="231.9391,-196.3924 237.9135,-187.6427 227.7867,-190.757 231.9391,-196.3924"/>
</g>
<!-- Node5 -->
<g id="node6" class="node">
<title>Node5</title>
<g id="a_node6"><a xlink:href="helios__type_8h.html" target="_top" xlink:title=" ">
<polygon fill="#ffffff" stroke="#000000" points="238,-112.5 238,-131.5 312,-131.5 312,-112.5 238,-112.5"/>
<text text-anchor="middle" x="275" y="-119.5" font-family="Helvetica,sans-Serif" font-size="10.00" fill="#000000">helios_type.h</text>
</a>
</g>
</g>
<!-- Node4&#45;&gt;Node5 -->
<g id="edge5" class="edge">
<title>Node4&#45;&gt;Node5</title>
<path fill="none" stroke="#191970" d="M255.1805,-168.2455C258.381,-160.7776 262.896,-150.2427 266.8084,-141.1137"/>
<polygon fill="#191970" stroke="#191970" points="270.1452,-142.2129 270.8674,-131.6427 263.7112,-139.4554 270.1452,-142.2129"/>
</g>
<!-- Node5&#45;&gt;Node6 -->
<g id="edge6" class="edge">
<title>Node5&#45;&gt;Node6</title>
<path fill="none" stroke="#191970" d="M291.5477,-112.2455C306.2599,-103.5731 327.9888,-90.7645 344.8505,-80.825"/>
<polygon fill="#191970" stroke="#191970" points="346.8046,-83.736 353.6419,-75.6427 343.2498,-77.7057 346.8046,-83.736"/>
</g>
<!-- Node10 -->
<g id="node11" class="node">
<title>Node10</title>
<g id="a_node11"><a xlink:title=" ">
<polygon fill="#ffffff" stroke="#bfbfbf" points="204.5,-.5 204.5,-19.5 253.5,-19.5 253.5,-.5 204.5,-.5"/>
<text text-anchor="middle" x="229" y="-7.5" font-family="Helvetica,sans-Serif" font-size="10.00" fill="#000000">stdint.h</text>
</a>
</g>
</g>
<!-- Node5&#45;&gt;Node10 -->
<g id="edge11" class="edge">
<title>Node5&#45;&gt;Node10</title>
<path fill="none" stroke="#191970" d="M268.2361,-112.1523C262.2539,-103.0886 253.626,-89.104 248,-76 241.532,-60.9347 236.5308,-43.0127 233.2866,-29.6489"/>
<polygon fill="#191970" stroke="#191970" points="236.6401,-28.6151 230.9812,-19.6581 229.8194,-30.1891 236.6401,-28.6151"/>
</g>
<!-- Node11 -->
<g id="node12" class="node">
<title>Node11</title>
<g id="a_node12"><a xlink:title=" ">
<polygon fill="#ffffff" stroke="#bfbfbf" points="257,-56.5 257,-75.5 305,-75.5 305,-56.5 257,-56.5"/>
<text text-anchor="middle" x="281" y="-63.5" font-family="Helvetica,sans-Serif" font-size="10.00" fill="#000000">stdlib.h</text>
</a>
</g>
</g>
<!-- Node5&#45;&gt;Node11 -->
<g id="edge12" class="edge">
<title>Node5&#45;&gt;Node11</title>
<path fill="none" stroke="#191970" d="M276.0451,-112.2455C276.828,-104.9382 277.9256,-94.6944 278.8888,-85.7046"/>
<polygon fill="#191970" stroke="#191970" points="282.3815,-85.9587 279.9669,-75.6427 275.4214,-85.2129 282.3815,-85.9587"/>
</g>
<!-- Node7 -->
<g id="node8" class="node">
<title>Node7</title>
<g id="a_node8"><a xlink:href="builtinutils_8h.html" target="_top" xlink:title=" ">
<polygon fill="#ffffff" stroke="#000000" points="416,-.5 416,-19.5 484,-19.5 484,-.5 416,-.5"/>
<text text-anchor="middle" x="450" y="-7.5" font-family="Helvetica,sans-Serif" font-size="10.00" fill="#000000">builtinutils.h</text>
</a>
</g>
</g>
<!-- Node6&#45;&gt;Node7 -->
<g id="edge7" class="edge">
<title>Node6&#45;&gt;Node7</title>
<path fill="none" stroke="#191970" d="M383.9349,-56.2455C396.0947,-47.7337 413.9464,-35.2375 428.0285,-25.3801"/>
<polygon fill="#191970" stroke="#191970" points="430.0395,-28.2447 436.2248,-19.6427 426.0253,-22.51 430.0395,-28.2447"/>
</g>
<!-- Node8 -->
<g id="node9" class="node">
<title>Node8</title>
<g id="a_node9"><a xlink:title=" ">
<polygon fill="#ffffff" stroke="#bfbfbf" points="272,-.5 272,-19.5 328,-19.5 328,-.5 272,-.5"/>
<text text-anchor="middle" x="300" y="-7.5" font-family="Helvetica,sans-Serif" font-size="10.00" fill="#000000">stdbool.h</text>
</a>
</g>
</g>
<!-- Node6&#45;&gt;Node8 -->
<g id="edge8" class="edge">
<title>Node6&#45;&gt;Node8</title>
<path fill="none" stroke="#191970" d="M357.8069,-56.2455C347.3679,-47.8943 332.1345,-35.7076 319.926,-25.9408"/>
<polygon fill="#191970" stroke="#191970" points="322.0485,-23.1566 312.0533,-19.6427 317.6756,-28.6227 322.0485,-23.1566"/>
</g>
<!-- Node9 -->
<g id="node10" class="node">
<title>Node9</title>
<g id="a_node10"><a xlink:title=" ">
<polygon fill="#ffffff" stroke="#bfbfbf" points="346,-.5 346,-19.5 398,-19.5 398,-.5 346,-.5"/>
<text text-anchor="middle" x="372" y="-7.5" font-family="Helvetica,sans-Serif" font-size="10.00" fill="#000000">stddef.h</text>
</a>
</g>
</g>
<!-- Node6&#45;&gt;Node9 -->
<g id="edge9" class="edge">
<title>Node6&#45;&gt;Node9</title>
<path fill="none" stroke="#191970" d="M370.3484,-56.2455C370.6093,-48.9382 370.9752,-38.6944 371.2963,-29.7046"/>
<polygon fill="#191970" stroke="#191970" points="374.7964,-29.7613 371.6556,-19.6427 367.8008,-29.5113 374.7964,-29.7613"/>
</g>
<!-- Node6&#45;&gt;Node10 -->
<g id="edge10" class="edge">
<title>Node6&#45;&gt;Node10</title>
<path fill="none" stroke="#191970" d="M345.7612,-56.3733C322.7211,-47.2226 287.8786,-33.3844 262.2499,-23.2057"/>
<polygon fill="#191970" stroke="#191970" points="263.5082,-19.9395 252.9225,-19.5011 260.9244,-26.4452 263.5082,-19.9395"/>
</g>
<!-- Node12&#45;&gt;Node4 -->
<g id="edge16" class="edge">
<title>Node12&#45;&gt;Node4</title>
<path fill="none" stroke="#191970" d="M298.0714,-224.2455C289.8162,-216.1352 277.8791,-204.4075 268.0918,-194.7919"/>
<polygon fill="#191970" stroke="#191970" points="270.4011,-192.1542 260.8149,-187.6427 265.4954,-197.1476 270.4011,-192.1542"/>
</g>
</g>
</svg>
