<?xml version="1.0" encoding="UTF-8" standalone="no"?>
<!DOCTYPE svg PUBLIC "-//W3C//DTD SVG 1.1//EN"
 "http://www.w3.org/Graphics/SVG/1.1/DTD/svg11.dtd">
<!-- Generated by graphviz version 2.40.1 (20161225.0304)
 -->
<!-- Title: helios_integer_greaterequal Pages: 1 -->
<svg width="1037pt" height="112pt"
 viewBox="0.00 0.00 1037.00 111.50" xmlns="http://www.w3.org/2000/svg" xmlns:xlink="http://www.w3.org/1999/xlink">
<g id="graph0" class="graph" transform="scale(1 1) rotate(0) translate(4 107.5)">
<title>helios_integer_greaterequal</title>
<polygon fill="#ffffff" stroke="transparent" points="-4,4 -4,-107.5 1033,-107.5 1033,4 -4,4"/>
<!-- Node31 -->
<g id="node1" class="node">
<title>Node31</title>
<g id="a_node1"><a xlink:title=" ">
<polygon fill="#bfbfbf" stroke="#000000" points="0,-38.5 0,-57.5 153,-57.5 153,-38.5 0,-38.5"/>
<text text-anchor="middle" x="76.5" y="-45.5" font-family="Helvetica,sans-Serif" font-size="10.00" fill="#000000">helios_integer_greaterequal</text>
</a>
</g>
</g>
<!-- Node32 -->
<g id="node2" class="node">
<title>Node32</title>
<g id="a_node2"><a xlink:href="helios__boolean_8c.html#a50e186696d4b9f2e8efdcddc17ab5ce5" target="_top" xlink:title="Create a helios_boolean object from a c boolean type.">
<polygon fill="#ffffff" stroke="#000000" points="383.5,-73 383.5,-103 502.5,-103 502.5,-73 383.5,-73"/>
<text text-anchor="start" x="391.5" y="-91" font-family="Helvetica,sans-Serif" font-size="10.00" fill="#000000">helios_boolean_from</text>
<text text-anchor="middle" x="443" y="-80" font-family="Helvetica,sans-Serif" font-size="10.00" fill="#000000">_cbool</text>
</a>
</g>
</g>
<!-- Node31&#45;&gt;Node32 -->
<g id="edge1" class="edge">
<title>Node31&#45;&gt;Node32</title>
<path fill="none" stroke="#191970" d="M98.8253,-57.601C121.1641,-66.6633 156.7517,-79.6376 189,-85 250.5573,-95.2361 321.6667,-95.073 372.9615,-92.8794"/>
<polygon fill="#191970" stroke="#191970" points="373.4448,-96.3608 383.2714,-92.3998 373.1195,-89.3683 373.4448,-96.3608"/>
</g>
<!-- Node34 -->
<g id="node4" class="node">
<title>Node34</title>
<g id="a_node4"><a xlink:href="helios__integer__compare_8c.html#a58215fdda77903566e97a0e2aad2a42c" target="_top" xlink:title=" ">
<polygon fill="#ffffff" stroke="#000000" points="189,-38.5 189,-57.5 342,-57.5 342,-38.5 189,-38.5"/>
<text text-anchor="middle" x="265.5" y="-45.5" font-family="Helvetica,sans-Serif" font-size="10.00" fill="#000000">helios_integer_greaterequal</text>
</a>
</g>
</g>
<!-- Node31&#45;&gt;Node34 -->
<g id="edge3" class="edge">
<title>Node31&#45;&gt;Node34</title>
<path fill="none" stroke="#191970" d="M153.1011,-48C161.5589,-48 170.2152,-48 178.7856,-48"/>
<polygon fill="#191970" stroke="#191970" points="178.7899,-51.5001 188.7899,-48 178.7898,-44.5001 178.7899,-51.5001"/>
</g>
<!-- Node35 -->
<g id="node5" class="node">
<title>Node35</title>
<g id="a_node5"><a xlink:href="helios__boolean_8c.html#a856733e7e090437084fcf595bd4e3b8f" target="_top" xlink:title="Convert a boolean to an integer.">
<polygon fill="#ffffff" stroke="#000000" points="378,-19.5 378,-38.5 508,-38.5 508,-19.5 378,-19.5"/>
<text text-anchor="middle" x="443" y="-26.5" font-family="Helvetica,sans-Serif" font-size="10.00" fill="#000000">helios_boolean_integer</text>
</a>
</g>
</g>
<!-- Node31&#45;&gt;Node35 -->
<g id="edge11" class="edge">
<title>Node31&#45;&gt;Node35</title>
<path fill="none" stroke="#191970" d="M122.2574,-38.4876C142.5962,-34.7221 166.8928,-30.8537 189,-29 248.9189,-23.9758 317.0686,-24.3037 367.6817,-25.7077"/>
<polygon fill="#191970" stroke="#191970" points="367.7844,-29.2123 377.8843,-26.0118 367.9931,-22.2154 367.7844,-29.2123"/>
</g>
<!-- Node33 -->
<g id="node3" class="node">
<title>Node33</title>
<g id="a_node3"><a xlink:href="helios__boolean_8c.html#ab172c15c28782b45e824c42601484606" target="_top" xlink:title="Create a helios_boolean object from a c integer type.">
<polygon fill="#ffffff" stroke="#000000" points="544,-78.5 544,-97.5 686,-97.5 686,-78.5 544,-78.5"/>
<text text-anchor="middle" x="615" y="-85.5" font-family="Helvetica,sans-Serif" font-size="10.00" fill="#000000">helios_boolean_from_cint</text>
</a>
</g>
</g>
<!-- Node32&#45;&gt;Node33 -->
<g id="edge2" class="edge">
<title>Node32&#45;&gt;Node33</title>
<path fill="none" stroke="#191970" d="M502.6745,-88C512.7479,-88 523.3545,-88 533.864,-88"/>
<polygon fill="#191970" stroke="#191970" points="533.8898,-91.5001 543.8897,-88 533.8897,-84.5001 533.8898,-91.5001"/>
</g>
<!-- Node34&#45;&gt;Node32 -->
<g id="edge4" class="edge">
<title>Node34&#45;&gt;Node32</title>
<path fill="none" stroke="#191970" d="M308.0157,-57.581C327.5826,-61.9904 351.3094,-67.3373 373.3793,-72.3108"/>
<polygon fill="#191970" stroke="#191970" points="372.8572,-75.7809 383.382,-74.565 374.3961,-68.9521 372.8572,-75.7809"/>
</g>
<!-- Node34&#45;&gt;Node34 -->
<g id="edge5" class="edge">
<title>Node34&#45;&gt;Node34</title>
<path fill="none" stroke="#191970" d="M238.3733,-57.7571C225.1765,-66.5653 234.2188,-76 265.5,-76 287.0059,-76 298.0003,-71.5406 298.4834,-65.8913"/>
<polygon fill="#191970" stroke="#191970" points="301.3102,-63.8273 292.6267,-57.7571 295.6294,-67.9175 301.3102,-63.8273"/>
</g>
<!-- Node34&#45;&gt;Node35 -->
<g id="edge6" class="edge">
<title>Node34&#45;&gt;Node35</title>
<path fill="none" stroke="#191970" d="M342.0639,-39.8044C350.5356,-38.8976 359.1583,-37.9746 367.6152,-37.0694"/>
<polygon fill="#191970" stroke="#191970" points="368.2568,-40.5208 377.8274,-35.9762 367.5117,-33.5605 368.2568,-40.5208"/>
</g>
<!-- Node36 -->
<g id="node6" class="node">
<title>Node36</title>
<g id="a_node6"><a xlink:href="helios__integer_8c.html#af677316afd6536844aeb027f14c198cf" target="_top" xlink:title="Create a helios_integer object from a c integer type.">
<polygon fill="#ffffff" stroke="#000000" points="546.5,-19.5 546.5,-38.5 683.5,-38.5 683.5,-19.5 546.5,-19.5"/>
<text text-anchor="middle" x="615" y="-26.5" font-family="Helvetica,sans-Serif" font-size="10.00" fill="#000000">helios_integer_from_cint</text>
</a>
</g>
</g>
<!-- Node35&#45;&gt;Node36 -->
<g id="edge7" class="edge">
<title>Node35&#45;&gt;Node36</title>
<path fill="none" stroke="#191970" d="M508.0258,-29C517.2476,-29 526.8121,-29 536.259,-29"/>
<polygon fill="#191970" stroke="#191970" points="536.4419,-32.5001 546.4418,-29 536.4418,-25.5001 536.4419,-32.5001"/>
</g>
<!-- Node37 -->
<g id="node7" class="node">
<title>Node37</title>
<g id="a_node7"><a xlink:href="helios__integer_8c.html#a50a26b1e9578164839f3a5bb17e04051" target="_top" xlink:title="Constructor of a helios_integer object.">
<polygon fill="#ffffff" stroke="#000000" points="722,-19.5 722,-38.5 829,-38.5 829,-19.5 722,-19.5"/>
<text text-anchor="middle" x="775.5" y="-26.5" font-family="Helvetica,sans-Serif" font-size="10.00" fill="#000000">helios_integer_init</text>
</a>
</g>
</g>
<!-- Node36&#45;&gt;Node37 -->
<g id="edge8" class="edge">
<title>Node36&#45;&gt;Node37</title>
<path fill="none" stroke="#191970" d="M683.532,-29C692.8177,-29 702.3173,-29 711.519,-29"/>
<polygon fill="#191970" stroke="#191970" points="711.7542,-32.5001 721.7542,-29 711.7541,-25.5001 711.7542,-32.5001"/>
</g>
<!-- Node38 -->
<g id="node8" class="node">
<title>Node38</title>
<g id="a_node8"><a xlink:href="helios__memory_8h.html#af87f0050f8e236d0945592fa4e54dc94" target="_top" xlink:title="Allocates a new helios object (and performs all the GC steps associated with that action).">
<polygon fill="#ffffff" stroke="#000000" points="884.5,-38.5 884.5,-57.5 1009.5,-57.5 1009.5,-38.5 884.5,-38.5"/>
<text text-anchor="middle" x="947" y="-45.5" font-family="Helvetica,sans-Serif" font-size="10.00" fill="#000000">helios_allocate_object</text>
</a>
</g>
</g>
<!-- Node37&#45;&gt;Node38 -->
<g id="edge9" class="edge">
<title>Node37&#45;&gt;Node38</title>
<path fill="none" stroke="#191970" d="M829.2931,-34.9596C843.5001,-36.5335 859.0727,-38.2588 874.106,-39.9243"/>
<polygon fill="#191970" stroke="#191970" points="874.0794,-43.4427 884.404,-41.0652 874.8503,-36.4852 874.0794,-43.4427"/>
</g>
<!-- Node39 -->
<g id="node9" class="node">
<title>Node39</title>
<g id="a_node9"><a xlink:href="helios__memory_8h.html#ab14fb1c046aae61ab06eda8eeaf2cd85" target="_top" xlink:title=" ">
<polygon fill="#ffffff" stroke="#000000" points="865,-.5 865,-19.5 1029,-19.5 1029,-.5 865,-.5"/>
<text text-anchor="middle" x="947" y="-7.5" font-family="Helvetica,sans-Serif" font-size="10.00" fill="#000000">helios_set_garbagecollectable</text>
</a>
</g>
</g>
<!-- Node37&#45;&gt;Node39 -->
<g id="edge10" class="edge">
<title>Node37&#45;&gt;Node39</title>
<path fill="none" stroke="#191970" d="M829.2931,-23.0404C837.4127,-22.1409 845.9784,-21.1919 854.6345,-20.2329"/>
<polygon fill="#191970" stroke="#191970" points="855.2625,-23.6848 864.8162,-19.1049 854.4916,-16.7274 855.2625,-23.6848"/>
</g>
</g>
</svg>
