<?xml version="1.0" encoding="UTF-8" standalone="no"?>
<!DOCTYPE svg PUBLIC "-//W3C//DTD SVG 1.1//EN"
 "http://www.w3.org/Graphics/SVG/1.1/DTD/svg11.dtd">
<!-- Generated by graphviz version 2.40.1 (20161225.0304)
 -->
<!-- Title: helios_boolean_tostring Pages: 1 -->
<svg width="620pt" height="66pt"
 viewBox="0.00 0.00 620.00 66.00" xmlns="http://www.w3.org/2000/svg" xmlns:xlink="http://www.w3.org/1999/xlink">
<g id="graph0" class="graph" transform="scale(1 1) rotate(0) translate(4 62)">
<title>helios_boolean_tostring</title>
<polygon fill="#ffffff" stroke="transparent" points="-4,4 -4,-62 616,-62 616,4 -4,4"/>
<!-- Node23 -->
<g id="node1" class="node">
<title>Node23</title>
<g id="a_node1"><a xlink:title="Create a helios_string object which represents the helios_boolean object&#39;s value.">
<polygon fill="#bfbfbf" stroke="#000000" points="0,-19.5 0,-38.5 133,-38.5 133,-19.5 0,-19.5"/>
<text text-anchor="middle" x="66.5" y="-26.5" font-family="Helvetica,sans-Serif" font-size="10.00" fill="#000000">helios_boolean_tostring</text>
</a>
</g>
</g>
<!-- Node24 -->
<g id="node2" class="node">
<title>Node24</title>
<g id="a_node2"><a xlink:href="helios__string_8c.html#a4338910535421a24735fc7eb3123495c" target="_top" xlink:title="Create a helios_string object from a c string.">
<polygon fill="#ffffff" stroke="#000000" points="169,-14 169,-44 276,-44 276,-14 169,-14"/>
<text text-anchor="start" x="177" y="-32" font-family="Helvetica,sans-Serif" font-size="10.00" fill="#000000">helios_string_from</text>
<text text-anchor="middle" x="222.5" y="-21" font-family="Helvetica,sans-Serif" font-size="10.00" fill="#000000">_charp</text>
</a>
</g>
</g>
<!-- Node23&#45;&gt;Node24 -->
<g id="edge1" class="edge">
<title>Node23&#45;&gt;Node24</title>
<path fill="none" stroke="#191970" d="M133.1105,-29C141.5885,-29 150.25,-29 158.6826,-29"/>
<polygon fill="#191970" stroke="#191970" points="158.8273,-32.5001 168.8273,-29 158.8273,-25.5001 158.8273,-32.5001"/>
</g>
<!-- Node25 -->
<g id="node3" class="node">
<title>Node25</title>
<g id="a_node3"><a xlink:href="helios__string_8c.html#af727ca5352482ab7e542510f178a9f85" target="_top" xlink:title="Constructor of a helios_string.">
<polygon fill="#ffffff" stroke="#000000" points="312,-19.5 312,-38.5 412,-38.5 412,-19.5 312,-19.5"/>
<text text-anchor="middle" x="362" y="-26.5" font-family="Helvetica,sans-Serif" font-size="10.00" fill="#000000">helios_string_init</text>
</a>
</g>
</g>
<!-- Node24&#45;&gt;Node25 -->
<g id="edge2" class="edge">
<title>Node24&#45;&gt;Node25</title>
<path fill="none" stroke="#191970" d="M276.0354,-29C284.3384,-29 292.966,-29 301.4112,-29"/>
<polygon fill="#191970" stroke="#191970" points="301.588,-32.5001 311.588,-29 301.588,-25.5001 301.588,-32.5001"/>
</g>
<!-- Node26 -->
<g id="node4" class="node">
<title>Node26</title>
<g id="a_node4"><a xlink:href="helios__memory_8h.html#af87f0050f8e236d0945592fa4e54dc94" target="_top" xlink:title="Allocates a new helios object (and performs all the GC steps associated with that action).">
<polygon fill="#ffffff" stroke="#000000" points="467.5,-38.5 467.5,-57.5 592.5,-57.5 592.5,-38.5 467.5,-38.5"/>
<text text-anchor="middle" x="530" y="-45.5" font-family="Helvetica,sans-Serif" font-size="10.00" fill="#000000">helios_allocate_object</text>
</a>
</g>
</g>
<!-- Node25&#45;&gt;Node26 -->
<g id="edge3" class="edge">
<title>Node25&#45;&gt;Node26</title>
<path fill="none" stroke="#191970" d="M412.4055,-34.7006C426.4623,-36.2904 442.0217,-38.0501 457.0959,-39.7549"/>
<polygon fill="#191970" stroke="#191970" points="457.0999,-43.2776 467.4299,-40.9236 457.8866,-36.3219 457.0999,-43.2776"/>
</g>
<!-- Node27 -->
<g id="node5" class="node">
<title>Node27</title>
<g id="a_node5"><a xlink:href="helios__memory_8h.html#ab14fb1c046aae61ab06eda8eeaf2cd85" target="_top" xlink:title=" ">
<polygon fill="#ffffff" stroke="#000000" points="448,-.5 448,-19.5 612,-19.5 612,-.5 448,-.5"/>
<text text-anchor="middle" x="530" y="-7.5" font-family="Helvetica,sans-Serif" font-size="10.00" fill="#000000">helios_set_garbagecollectable</text>
</a>
</g>
</g>
<!-- Node25&#45;&gt;Node27 -->
<g id="edge4" class="edge">
<title>Node25&#45;&gt;Node27</title>
<path fill="none" stroke="#191970" d="M412.4055,-23.2994C420.4638,-22.388 429.016,-21.4208 437.6875,-20.4401"/>
<polygon fill="#191970" stroke="#191970" points="438.3561,-23.8869 447.8994,-19.2852 437.5694,-16.9312 438.3561,-23.8869"/>
</g>
</g>
</svg>
