<?xml version="1.0" encoding="UTF-8" standalone="no"?>
<!DOCTYPE svg PUBLIC "-//W3C//DTD SVG 1.1//EN"
 "http://www.w3.org/Graphics/SVG/1.1/DTD/svg11.dtd">
<!-- Generated by graphviz version 2.40.1 (20161225.0304)
 -->
<!-- Title: helios_integer_tostring Pages: 1 -->
<svg width="379pt" height="39pt"
 viewBox="0.00 0.00 379.00 39.00" xmlns="http://www.w3.org/2000/svg" xmlns:xlink="http://www.w3.org/1999/xlink">
<g id="graph0" class="graph" transform="scale(1 1) rotate(0) translate(4 35)">
<title>helios_integer_tostring</title>
<polygon fill="#ffffff" stroke="transparent" points="-4,4 -4,-35 375,-35 375,4 -4,4"/>
<!-- Node12 -->
<g id="node1" class="node">
<title>Node12</title>
<g id="a_node1"><a xlink:title="Create a helios_string object which represents the helios_integer object&#39;s value.">
<polygon fill="#bfbfbf" stroke="#000000" points="0,-6 0,-25 114,-25 114,-6 0,-6"/>
<text text-anchor="middle" x="57" y="-13" font-family="Helvetica,sans-Serif" font-size="10.00" fill="#000000">helios_integer_tostring</text>
</a>
</g>
</g>
<!-- Node13 -->
<g id="node2" class="node">
<title>Node13</title>
<g id="a_node2"><a xlink:href="helios__string_8c.html#a4338910535421a24735fc7eb3123495c" target="_top" xlink:title="Create a helios_string object from a c string.">
<polygon fill="#ffffff" stroke="#000000" points="150,-.5 150,-30.5 246,-30.5 246,-.5 150,-.5"/>
<text text-anchor="start" x="158" y="-18.5" font-family="Helvetica,sans-Serif" font-size="10.00" fill="#000000">helios_string_from</text>
<text text-anchor="middle" x="198" y="-7.5" font-family="Helvetica,sans-Serif" font-size="10.00" fill="#000000">_charp</text>
</a>
</g>
</g>
<!-- Node12&#45;&gt;Node13 -->
<g id="edge1" class="edge">
<title>Node12&#45;&gt;Node13</title>
<path fill="none" stroke="#191970" d="M114.3501,-15.5C122.6976,-15.5 131.3,-15.5 139.6667,-15.5"/>
<polygon fill="#191970" stroke="#191970" points="139.7224,-19.0001 149.7224,-15.5 139.7223,-12.0001 139.7224,-19.0001"/>
</g>
<!-- Node14 -->
<g id="node3" class="node">
<title>Node14</title>
<g id="a_node3"><a xlink:href="helios__string_8c.html#af727ca5352482ab7e542510f178a9f85" target="_top" xlink:title="Constructor of a helios_string.">
<polygon fill="#ffffff" stroke="#000000" points="282,-6 282,-25 371,-25 371,-6 282,-6"/>
<text text-anchor="middle" x="326.5" y="-13" font-family="Helvetica,sans-Serif" font-size="10.00" fill="#000000">helios_string_init</text>
</a>
</g>
</g>
<!-- Node13&#45;&gt;Node14 -->
<g id="edge2" class="edge">
<title>Node13&#45;&gt;Node14</title>
<path fill="none" stroke="#191970" d="M246.2143,-15.5C254.5175,-15.5 263.2026,-15.5 271.6649,-15.5"/>
<polygon fill="#191970" stroke="#191970" points="271.8359,-19.0001 281.8359,-15.5 271.8359,-12.0001 271.8359,-19.0001"/>
</g>
</g>
</svg>
