<?xml version="1.0" encoding="UTF-8" standalone="no"?>
<!DOCTYPE svg PUBLIC "-//W3C//DTD SVG 1.1//EN"
 "http://www.w3.org/Graphics/SVG/1.1/DTD/svg11.dtd">
<!-- Generated by graphviz version 2.40.1 (20161225.0304)
 -->
<!-- Title: helios_integer_equal Pages: 1 -->
<svg width="813pt" height="97pt"
 viewBox="0.00 0.00 813.00 96.50" xmlns="http://www.w3.org/2000/svg" xmlns:xlink="http://www.w3.org/1999/xlink">
<g id="graph0" class="graph" transform="scale(1 1) rotate(0) translate(4 92.5)">
<title>helios_integer_equal</title>
<polygon fill="#ffffff" stroke="transparent" points="-4,4 -4,-92.5 809,-92.5 809,4 -4,4"/>
<!-- Node1 -->
<g id="node1" class="node">
<title>Node1</title>
<g id="a_node1"><a xlink:title=" ">
<polygon fill="#bfbfbf" stroke="#000000" points="0,-41.5 0,-60.5 118,-60.5 118,-41.5 0,-41.5"/>
<text text-anchor="middle" x="59" y="-48.5" font-family="Helvetica,sans-Serif" font-size="10.00" fill="#000000">helios_integer_equal</text>
</a>
</g>
</g>
<!-- Node1&#45;&gt;Node1 -->
<g id="edge3" class="edge">
<title>Node1&#45;&gt;Node1</title>
<path fill="none" stroke="#191970" d="M34.3394,-60.7571C22.3423,-69.5653 30.5625,-79 59,-79 78.1064,-79 88.0865,-74.741 88.9401,-69.2746"/>
<polygon fill="#191970" stroke="#191970" points="91.904,-67.4128 83.6606,-60.7571 85.9542,-71.1007 91.904,-67.4128"/>
</g>
<!-- Node2 -->
<g id="node2" class="node">
<title>Node2</title>
<g id="a_node2"><a xlink:href="helios__boolean_8c.html#a50e186696d4b9f2e8efdcddc17ab5ce5" target="_top" xlink:title="Create a helios_boolean object from a c boolean type.">
<polygon fill="#ffffff" stroke="#000000" points="159.5,-58 159.5,-88 278.5,-88 278.5,-58 159.5,-58"/>
<text text-anchor="start" x="167.5" y="-76" font-family="Helvetica,sans-Serif" font-size="10.00" fill="#000000">helios_boolean_from</text>
<text text-anchor="middle" x="219" y="-65" font-family="Helvetica,sans-Serif" font-size="10.00" fill="#000000">_cbool</text>
</a>
</g>
</g>
<!-- Node1&#45;&gt;Node2 -->
<g id="edge1" class="edge">
<title>Node1&#45;&gt;Node2</title>
<path fill="none" stroke="#191970" d="M118.1235,-59.1295C128.205,-60.5157 138.762,-61.9673 149.091,-63.3875"/>
<polygon fill="#191970" stroke="#191970" points="148.9344,-66.8988 159.3179,-64.7937 149.8879,-59.9641 148.9344,-66.8988"/>
</g>
<!-- Node4 -->
<g id="node4" class="node">
<title>Node4</title>
<g id="a_node4"><a xlink:href="helios__boolean_8c.html#a856733e7e090437084fcf595bd4e3b8f" target="_top" xlink:title="Convert a boolean to an integer.">
<polygon fill="#ffffff" stroke="#000000" points="154,-19.5 154,-38.5 284,-38.5 284,-19.5 154,-19.5"/>
<text text-anchor="middle" x="219" y="-26.5" font-family="Helvetica,sans-Serif" font-size="10.00" fill="#000000">helios_boolean_integer</text>
</a>
</g>
</g>
<!-- Node1&#45;&gt;Node4 -->
<g id="edge4" class="edge">
<title>Node1&#45;&gt;Node4</title>
<path fill="none" stroke="#191970" d="M118.1235,-42.8705C126.5053,-41.718 135.2157,-40.5203 143.8506,-39.333"/>
<polygon fill="#191970" stroke="#191970" points="144.4982,-42.777 153.9282,-37.9474 143.5446,-35.8423 144.4982,-42.777"/>
</g>
<!-- Node3 -->
<g id="node3" class="node">
<title>Node3</title>
<g id="a_node3"><a xlink:href="helios__boolean_8c.html#ab172c15c28782b45e824c42601484606" target="_top" xlink:title="Create a helios_boolean object from a c integer type.">
<polygon fill="#ffffff" stroke="#000000" points="320,-63.5 320,-82.5 462,-82.5 462,-63.5 320,-63.5"/>
<text text-anchor="middle" x="391" y="-70.5" font-family="Helvetica,sans-Serif" font-size="10.00" fill="#000000">helios_boolean_from_cint</text>
</a>
</g>
</g>
<!-- Node2&#45;&gt;Node3 -->
<g id="edge2" class="edge">
<title>Node2&#45;&gt;Node3</title>
<path fill="none" stroke="#191970" d="M278.6745,-73C288.7479,-73 299.3545,-73 309.864,-73"/>
<polygon fill="#191970" stroke="#191970" points="309.8898,-76.5001 319.8897,-73 309.8897,-69.5001 309.8898,-76.5001"/>
</g>
<!-- Node5 -->
<g id="node5" class="node">
<title>Node5</title>
<g id="a_node5"><a xlink:href="helios__integer_8c.html#af677316afd6536844aeb027f14c198cf" target="_top" xlink:title="Create a helios_integer object from a c integer type.">
<polygon fill="#ffffff" stroke="#000000" points="322.5,-19.5 322.5,-38.5 459.5,-38.5 459.5,-19.5 322.5,-19.5"/>
<text text-anchor="middle" x="391" y="-26.5" font-family="Helvetica,sans-Serif" font-size="10.00" fill="#000000">helios_integer_from_cint</text>
</a>
</g>
</g>
<!-- Node4&#45;&gt;Node5 -->
<g id="edge5" class="edge">
<title>Node4&#45;&gt;Node5</title>
<path fill="none" stroke="#191970" d="M284.0258,-29C293.2476,-29 302.8121,-29 312.259,-29"/>
<polygon fill="#191970" stroke="#191970" points="312.4419,-32.5001 322.4418,-29 312.4418,-25.5001 312.4419,-32.5001"/>
</g>
<!-- Node6 -->
<g id="node6" class="node">
<title>Node6</title>
<g id="a_node6"><a xlink:href="helios__integer_8c.html#a50a26b1e9578164839f3a5bb17e04051" target="_top" xlink:title="Constructor of a helios_integer object.">
<polygon fill="#ffffff" stroke="#000000" points="498,-19.5 498,-38.5 605,-38.5 605,-19.5 498,-19.5"/>
<text text-anchor="middle" x="551.5" y="-26.5" font-family="Helvetica,sans-Serif" font-size="10.00" fill="#000000">helios_integer_init</text>
</a>
</g>
</g>
<!-- Node5&#45;&gt;Node6 -->
<g id="edge6" class="edge">
<title>Node5&#45;&gt;Node6</title>
<path fill="none" stroke="#191970" d="M459.532,-29C468.8177,-29 478.3173,-29 487.519,-29"/>
<polygon fill="#191970" stroke="#191970" points="487.7542,-32.5001 497.7542,-29 487.7541,-25.5001 487.7542,-32.5001"/>
</g>
<!-- Node7 -->
<g id="node7" class="node">
<title>Node7</title>
<g id="a_node7"><a xlink:href="helios__memory_8h.html#af87f0050f8e236d0945592fa4e54dc94" target="_top" xlink:title="Allocates a new helios object (and performs all the GC steps associated with that action).">
<polygon fill="#ffffff" stroke="#000000" points="660.5,-38.5 660.5,-57.5 785.5,-57.5 785.5,-38.5 660.5,-38.5"/>
<text text-anchor="middle" x="723" y="-45.5" font-family="Helvetica,sans-Serif" font-size="10.00" fill="#000000">helios_allocate_object</text>
</a>
</g>
</g>
<!-- Node6&#45;&gt;Node7 -->
<g id="edge7" class="edge">
<title>Node6&#45;&gt;Node7</title>
<path fill="none" stroke="#191970" d="M605.2931,-34.9596C619.5001,-36.5335 635.0727,-38.2588 650.106,-39.9243"/>
<polygon fill="#191970" stroke="#191970" points="650.0794,-43.4427 660.404,-41.0652 650.8503,-36.4852 650.0794,-43.4427"/>
</g>
<!-- Node8 -->
<g id="node8" class="node">
<title>Node8</title>
<g id="a_node8"><a xlink:href="helios__memory_8h.html#ab14fb1c046aae61ab06eda8eeaf2cd85" target="_top" xlink:title=" ">
<polygon fill="#ffffff" stroke="#000000" points="641,-.5 641,-19.5 805,-19.5 805,-.5 641,-.5"/>
<text text-anchor="middle" x="723" y="-7.5" font-family="Helvetica,sans-Serif" font-size="10.00" fill="#000000">helios_set_garbagecollectable</text>
</a>
</g>
</g>
<!-- Node6&#45;&gt;Node8 -->
<g id="edge8" class="edge">
<title>Node6&#45;&gt;Node8</title>
<path fill="none" stroke="#191970" d="M605.2931,-23.0404C613.4127,-22.1409 621.9784,-21.1919 630.6345,-20.2329"/>
<polygon fill="#191970" stroke="#191970" points="631.2625,-23.6848 640.8162,-19.1049 630.4916,-16.7274 631.2625,-23.6848"/>
</g>
</g>
</svg>
