<?xml version="1.0" encoding="UTF-8" standalone="no"?>
<!DOCTYPE svg PUBLIC "-//W3C//DTD SVG 1.1//EN"
 "http://www.w3.org/Graphics/SVG/1.1/DTD/svg11.dtd">
<!-- Generated by graphviz version 2.40.1 (20161225.0304)
 -->
<!-- Title: helios_float_notequal Pages: 1 -->
<svg width="816pt" height="97pt"
 viewBox="0.00 0.00 816.00 96.50" xmlns="http://www.w3.org/2000/svg" xmlns:xlink="http://www.w3.org/1999/xlink">
<g id="graph0" class="graph" transform="scale(1 1) rotate(0) translate(4 92.5)">
<title>helios_float_notequal</title>
<polygon fill="#ffffff" stroke="transparent" points="-4,4 -4,-92.5 812,-92.5 812,4 -4,4"/>
<!-- Node41 -->
<g id="node1" class="node">
<title>Node41</title>
<g id="a_node1"><a xlink:title=" ">
<polygon fill="#bfbfbf" stroke="#000000" points="0,-41.5 0,-60.5 121,-60.5 121,-41.5 0,-41.5"/>
<text text-anchor="middle" x="60.5" y="-48.5" font-family="Helvetica,sans-Serif" font-size="10.00" fill="#000000">helios_float_notequal</text>
</a>
</g>
</g>
<!-- Node42 -->
<g id="node2" class="node">
<title>Node42</title>
<g id="a_node2"><a xlink:href="helios__boolean_8c.html#a50e186696d4b9f2e8efdcddc17ab5ce5" target="_top" xlink:title="Create a helios_boolean object from a c boolean type.">
<polygon fill="#ffffff" stroke="#000000" points="162.5,-58 162.5,-88 281.5,-88 281.5,-58 162.5,-58"/>
<text text-anchor="start" x="170.5" y="-76" font-family="Helvetica,sans-Serif" font-size="10.00" fill="#000000">helios_boolean_from</text>
<text text-anchor="middle" x="222" y="-65" font-family="Helvetica,sans-Serif" font-size="10.00" fill="#000000">_cbool</text>
</a>
</g>
</g>
<!-- Node41&#45;&gt;Node42 -->
<g id="edge1" class="edge">
<title>Node41&#45;&gt;Node42</title>
<path fill="none" stroke="#191970" d="M121.0961,-59.2546C131.3381,-60.6498 142.0422,-62.1079 152.4902,-63.5312"/>
<polygon fill="#191970" stroke="#191970" points="152.0245,-67 162.4055,-64.8819 152.9694,-60.064 152.0245,-67"/>
</g>
<!-- Node44 -->
<g id="node4" class="node">
<title>Node44</title>
<g id="a_node4"><a xlink:href="helios__boolean_8c.html#a856733e7e090437084fcf595bd4e3b8f" target="_top" xlink:title="Convert a boolean to an integer.">
<polygon fill="#ffffff" stroke="#000000" points="157,-19.5 157,-38.5 287,-38.5 287,-19.5 157,-19.5"/>
<text text-anchor="middle" x="222" y="-26.5" font-family="Helvetica,sans-Serif" font-size="10.00" fill="#000000">helios_boolean_integer</text>
</a>
</g>
</g>
<!-- Node41&#45;&gt;Node44 -->
<g id="edge3" class="edge">
<title>Node41&#45;&gt;Node44</title>
<path fill="none" stroke="#191970" d="M121.0961,-42.7454C129.4592,-41.6062 138.1304,-40.425 146.7187,-39.255"/>
<polygon fill="#191970" stroke="#191970" points="147.3031,-42.7078 156.7391,-37.89 146.3582,-35.7719 147.3031,-42.7078"/>
</g>
<!-- Node43 -->
<g id="node3" class="node">
<title>Node43</title>
<g id="a_node3"><a xlink:href="helios__boolean_8c.html#ab172c15c28782b45e824c42601484606" target="_top" xlink:title="Create a helios_boolean object from a c integer type.">
<polygon fill="#ffffff" stroke="#000000" points="323,-63.5 323,-82.5 465,-82.5 465,-63.5 323,-63.5"/>
<text text-anchor="middle" x="394" y="-70.5" font-family="Helvetica,sans-Serif" font-size="10.00" fill="#000000">helios_boolean_from_cint</text>
</a>
</g>
</g>
<!-- Node42&#45;&gt;Node43 -->
<g id="edge2" class="edge">
<title>Node42&#45;&gt;Node43</title>
<path fill="none" stroke="#191970" d="M281.6745,-73C291.7479,-73 302.3545,-73 312.864,-73"/>
<polygon fill="#191970" stroke="#191970" points="312.8898,-76.5001 322.8897,-73 312.8897,-69.5001 312.8898,-76.5001"/>
</g>
<!-- Node45 -->
<g id="node5" class="node">
<title>Node45</title>
<g id="a_node5"><a xlink:href="helios__integer_8c.html#af677316afd6536844aeb027f14c198cf" target="_top" xlink:title="Create a helios_integer object from a c integer type.">
<polygon fill="#ffffff" stroke="#000000" points="325.5,-19.5 325.5,-38.5 462.5,-38.5 462.5,-19.5 325.5,-19.5"/>
<text text-anchor="middle" x="394" y="-26.5" font-family="Helvetica,sans-Serif" font-size="10.00" fill="#000000">helios_integer_from_cint</text>
</a>
</g>
</g>
<!-- Node44&#45;&gt;Node45 -->
<g id="edge4" class="edge">
<title>Node44&#45;&gt;Node45</title>
<path fill="none" stroke="#191970" d="M287.0258,-29C296.2476,-29 305.8121,-29 315.259,-29"/>
<polygon fill="#191970" stroke="#191970" points="315.4419,-32.5001 325.4418,-29 315.4418,-25.5001 315.4419,-32.5001"/>
</g>
<!-- Node46 -->
<g id="node6" class="node">
<title>Node46</title>
<g id="a_node6"><a xlink:href="helios__integer_8c.html#a50a26b1e9578164839f3a5bb17e04051" target="_top" xlink:title="Constructor of a helios_integer object.">
<polygon fill="#ffffff" stroke="#000000" points="501,-19.5 501,-38.5 608,-38.5 608,-19.5 501,-19.5"/>
<text text-anchor="middle" x="554.5" y="-26.5" font-family="Helvetica,sans-Serif" font-size="10.00" fill="#000000">helios_integer_init</text>
</a>
</g>
</g>
<!-- Node45&#45;&gt;Node46 -->
<g id="edge5" class="edge">
<title>Node45&#45;&gt;Node46</title>
<path fill="none" stroke="#191970" d="M462.532,-29C471.8177,-29 481.3173,-29 490.519,-29"/>
<polygon fill="#191970" stroke="#191970" points="490.7542,-32.5001 500.7542,-29 490.7541,-25.5001 490.7542,-32.5001"/>
</g>
<!-- Node47 -->
<g id="node7" class="node">
<title>Node47</title>
<g id="a_node7"><a xlink:href="helios__memory_8h.html#af87f0050f8e236d0945592fa4e54dc94" target="_top" xlink:title="Allocates a new helios object (and performs all the GC steps associated with that action).">
<polygon fill="#ffffff" stroke="#000000" points="663.5,-38.5 663.5,-57.5 788.5,-57.5 788.5,-38.5 663.5,-38.5"/>
<text text-anchor="middle" x="726" y="-45.5" font-family="Helvetica,sans-Serif" font-size="10.00" fill="#000000">helios_allocate_object</text>
</a>
</g>
</g>
<!-- Node46&#45;&gt;Node47 -->
<g id="edge6" class="edge">
<title>Node46&#45;&gt;Node47</title>
<path fill="none" stroke="#191970" d="M608.2931,-34.9596C622.5001,-36.5335 638.0727,-38.2588 653.106,-39.9243"/>
<polygon fill="#191970" stroke="#191970" points="653.0794,-43.4427 663.404,-41.0652 653.8503,-36.4852 653.0794,-43.4427"/>
</g>
<!-- Node48 -->
<g id="node8" class="node">
<title>Node48</title>
<g id="a_node8"><a xlink:href="helios__memory_8h.html#ab14fb1c046aae61ab06eda8eeaf2cd85" target="_top" xlink:title=" ">
<polygon fill="#ffffff" stroke="#000000" points="644,-.5 644,-19.5 808,-19.5 808,-.5 644,-.5"/>
<text text-anchor="middle" x="726" y="-7.5" font-family="Helvetica,sans-Serif" font-size="10.00" fill="#000000">helios_set_garbagecollectable</text>
</a>
</g>
</g>
<!-- Node46&#45;&gt;Node48 -->
<g id="edge7" class="edge">
<title>Node46&#45;&gt;Node48</title>
<path fill="none" stroke="#191970" d="M608.2931,-23.0404C616.4127,-22.1409 624.9784,-21.1919 633.6345,-20.2329"/>
<polygon fill="#191970" stroke="#191970" points="634.2625,-23.6848 643.8162,-19.1049 633.4916,-16.7274 634.2625,-23.6848"/>
</g>
</g>
</svg>
