<?xml version="1.0" encoding="UTF-8" standalone="no"?>
<!DOCTYPE svg PUBLIC "-//W3C//DTD SVG 1.1//EN"
 "http://www.w3.org/Graphics/SVG/1.1/DTD/svg11.dtd">
<!-- Generated by graphviz version 2.40.1 (20161225.0304)
 -->
<!-- Title: helios_boolean_lessequal Pages: 1 -->
<!--zoomable 103 -->
<svg id="main" version="1.1" xmlns="http://www.w3.org/2000/svg" xmlns:xlink="http://www.w3.org/1999/xlink" xml:space="preserve" onload="init(evt)">
<style type="text/css"><![CDATA[
.edge:hover path { stroke: red; }
.edge:hover polygon { stroke: red; fill: red; }
]]></style>
<script type="text/javascript"><![CDATA[
var edges = document.getElementsByTagName('g');
if (edges && edges.length) {
  for (var i=0;i<edges.length;i++) {
    if (edges[i].id.substr(0,4)=='edge') {
      edges[i].setAttribute('class','edge');
    }
  }
}
]]></script>
        <defs>
                <circle id="rim" cx="0" cy="0" r="7"/>
                <circle id="rim2" cx="0" cy="0" r="3.5"/>
                <g id="zoomPlus">
                        <use xlink:href="#rim" fill="#404040">
                                <set attributeName="fill" to="#808080" begin="zoomplus.mouseover" end="zoomplus.mouseout"/>
                        </use>
                        <path d="M-4,0h8M0,-4v8" fill="none" stroke="white" stroke-width="1.5" pointer-events="none"/>
                </g>
                <g id="zoomMin">
                        <use xlink:href="#rim" fill="#404040">
                                <set attributeName="fill" to="#808080" begin="zoomminus.mouseover" end="zoomminus.mouseout"/>
                        </use>
                        <path d="M-4,0h8" fill="none" stroke="white" stroke-width="1.5" pointer-events="none"/>
                </g>
                <g id="dirArrow">
                        <path fill="none" stroke="white" stroke-width="1.5" d="M0,-3.0v7 M-2.5,-0.5L0,-3.0L2.5,-0.5"/>
                </g>
               <g id="resetDef">
                       <use xlink:href="#rim2" fill="#404040">
                               <set attributeName="fill" to="#808080" begin="reset.mouseover" end="reset.mouseout"/>
                       </use>
               </g>
        </defs>

<script type="text/javascript">
var viewWidth = 1010;
var viewHeight = 103;
var sectionId = 'dynsection-5';
</script>
<script xlink:href="svgpan.js"/>
<svg id="graph" class="graph">
<g id="viewport">
<title>helios_boolean_lessequal</title>
<polygon fill="#ffffff" stroke="transparent" points="-4,4 -4,-99 1006,-99 1006,4 -4,4"/>
<!-- Node37 -->
<g id="node1" class="node">
<title>Node37</title>
<g id="a_node1"><a xlink:title=" ">
<polygon fill="#bfbfbf" stroke="#000000" points="0,-38.5 0,-57.5 142,-57.5 142,-38.5 0,-38.5"/>
<text text-anchor="middle" x="71" y="-45.5" font-family="Helvetica,sans-Serif" font-size="10.00" fill="#000000">helios_boolean_lessequal</text>
</a>
</g>
</g>
<!-- Node38 -->
<g id="node2" class="node">
<title>Node38</title>
<g id="a_node2"><a xlink:href="helios__integer__compare_8c.html#adc82b8e40706a9328ea90c41ef6348aa" target="_top" xlink:title=" ">
<polygon fill="#ffffff" stroke="#000000" points="178,-57.5 178,-76.5 315,-76.5 315,-57.5 178,-57.5"/>
<text text-anchor="middle" x="246.5" y="-64.5" font-family="Helvetica,sans-Serif" font-size="10.00" fill="#000000">helios_integer_lessequal</text>
</a>
</g>
</g>
<!-- Node37&#45;&gt;Node38 -->
<g id="edge1" class="edge">
<title>Node37&#45;&gt;Node38</title>
<path fill="none" stroke="#191970" d="M142.1296,-55.7006C150.5979,-56.6174 159.2805,-57.5574 167.8463,-58.4848"/>
<polygon fill="#191970" stroke="#191970" points="167.5096,-61.9687 177.8282,-59.5655 168.2631,-55.0094 167.5096,-61.9687"/>
</g>
<!-- Node41 -->
<g id="node5" class="node">
<title>Node41</title>
<g id="a_node5"><a xlink:href="helios__boolean_8c.html#a856733e7e090437084fcf595bd4e3b8f" target="_top" xlink:title="Convert a boolean to an integer.">
<polygon fill="#ffffff" stroke="#000000" points="351,-19.5 351,-38.5 481,-38.5 481,-19.5 351,-19.5"/>
<text text-anchor="middle" x="416" y="-26.5" font-family="Helvetica,sans-Serif" font-size="10.00" fill="#000000">helios_boolean_integer</text>
</a>
</g>
</g>
<!-- Node37&#45;&gt;Node41 -->
<g id="edge10" class="edge">
<title>Node37&#45;&gt;Node41</title>
<path fill="none" stroke="#191970" d="M142.0659,-44.0862C200.0571,-40.8925 281.7695,-36.3924 340.8413,-33.1392"/>
<polygon fill="#191970" stroke="#191970" points="341.0647,-36.6323 350.8571,-32.5876 340.6798,-29.6429 341.0647,-36.6323"/>
</g>
<!-- Node38&#45;&gt;Node38 -->
<g id="edge4" class="edge">
<title>Node38&#45;&gt;Node38</title>
<path fill="none" stroke="#191970" d="M220.6063,-76.7571C208.0094,-85.5653 216.6406,-95 246.5,-95 266.5618,-95 277.0408,-90.741 277.9371,-85.2746"/>
<polygon fill="#191970" stroke="#191970" points="280.7819,-83.2291 272.3937,-76.7571 274.915,-87.0475 280.7819,-83.2291"/>
</g>
<!-- Node39 -->
<g id="node3" class="node">
<title>Node39</title>
<g id="a_node3"><a xlink:href="helios__boolean_8c.html#a50e186696d4b9f2e8efdcddc17ab5ce5" target="_top" xlink:title="Create a helios_boolean object from a c boolean type.">
<polygon fill="#ffffff" stroke="#000000" points="356.5,-58 356.5,-88 475.5,-88 475.5,-58 356.5,-58"/>
<text text-anchor="start" x="364.5" y="-76" font-family="Helvetica,sans-Serif" font-size="10.00" fill="#000000">helios_boolean_from</text>
<text text-anchor="middle" x="416" y="-65" font-family="Helvetica,sans-Serif" font-size="10.00" fill="#000000">_cbool</text>
</a>
</g>
</g>
<!-- Node38&#45;&gt;Node39 -->
<g id="edge2" class="edge">
<title>Node38&#45;&gt;Node39</title>
<path fill="none" stroke="#191970" d="M315.4421,-69.4404C325.6158,-69.8006 336.1045,-70.1718 346.2935,-70.5325"/>
<polygon fill="#191970" stroke="#191970" points="346.2422,-74.0328 356.3598,-70.8888 346.4899,-67.0372 346.2422,-74.0328"/>
</g>
<!-- Node38&#45;&gt;Node41 -->
<g id="edge5" class="edge">
<title>Node38&#45;&gt;Node41</title>
<path fill="none" stroke="#191970" d="M289.272,-57.411C311.8409,-52.3513 339.7232,-46.1004 363.5833,-40.7512"/>
<polygon fill="#191970" stroke="#191970" points="364.5435,-44.1229 373.5356,-38.5201 363.0121,-37.2925 364.5435,-44.1229"/>
</g>
<!-- Node40 -->
<g id="node4" class="node">
<title>Node40</title>
<g id="a_node4"><a xlink:href="helios__boolean_8c.html#ab172c15c28782b45e824c42601484606" target="_top" xlink:title="Create a helios_boolean object from a c integer type.">
<polygon fill="#ffffff" stroke="#000000" points="517,-63.5 517,-82.5 659,-82.5 659,-63.5 517,-63.5"/>
<text text-anchor="middle" x="588" y="-70.5" font-family="Helvetica,sans-Serif" font-size="10.00" fill="#000000">helios_boolean_from_cint</text>
</a>
</g>
</g>
<!-- Node39&#45;&gt;Node40 -->
<g id="edge3" class="edge">
<title>Node39&#45;&gt;Node40</title>
<path fill="none" stroke="#191970" d="M475.6745,-73C485.7479,-73 496.3545,-73 506.864,-73"/>
<polygon fill="#191970" stroke="#191970" points="506.8898,-76.5001 516.8897,-73 506.8897,-69.5001 506.8898,-76.5001"/>
</g>
<!-- Node42 -->
<g id="node6" class="node">
<title>Node42</title>
<g id="a_node6"><a xlink:href="helios__integer_8c.html#af677316afd6536844aeb027f14c198cf" target="_top" xlink:title="Create a helios_integer object from a c integer type.">
<polygon fill="#ffffff" stroke="#000000" points="519.5,-19.5 519.5,-38.5 656.5,-38.5 656.5,-19.5 519.5,-19.5"/>
<text text-anchor="middle" x="588" y="-26.5" font-family="Helvetica,sans-Serif" font-size="10.00" fill="#000000">helios_integer_from_cint</text>
</a>
</g>
</g>
<!-- Node41&#45;&gt;Node42 -->
<g id="edge6" class="edge">
<title>Node41&#45;&gt;Node42</title>
<path fill="none" stroke="#191970" d="M481.0258,-29C490.2476,-29 499.8121,-29 509.259,-29"/>
<polygon fill="#191970" stroke="#191970" points="509.4419,-32.5001 519.4418,-29 509.4418,-25.5001 509.4419,-32.5001"/>
</g>
<!-- Node43 -->
<g id="node7" class="node">
<title>Node43</title>
<g id="a_node7"><a xlink:href="helios__integer_8c.html#a50a26b1e9578164839f3a5bb17e04051" target="_top" xlink:title="Constructor of a helios_integer object.">
<polygon fill="#ffffff" stroke="#000000" points="695,-19.5 695,-38.5 802,-38.5 802,-19.5 695,-19.5"/>
<text text-anchor="middle" x="748.5" y="-26.5" font-family="Helvetica,sans-Serif" font-size="10.00" fill="#000000">helios_integer_init</text>
</a>
</g>
</g>
<!-- Node42&#45;&gt;Node43 -->
<g id="edge7" class="edge">
<title>Node42&#45;&gt;Node43</title>
<path fill="none" stroke="#191970" d="M656.532,-29C665.8177,-29 675.3173,-29 684.519,-29"/>
<polygon fill="#191970" stroke="#191970" points="684.7542,-32.5001 694.7542,-29 684.7541,-25.5001 684.7542,-32.5001"/>
</g>
<!-- Node44 -->
<g id="node8" class="node">
<title>Node44</title>
<g id="a_node8"><a xlink:href="helios__memory_8h.html#af87f0050f8e236d0945592fa4e54dc94" target="_top" xlink:title="Allocates a new helios object (and performs all the GC steps associated with that action).">
<polygon fill="#ffffff" stroke="#000000" points="857.5,-38.5 857.5,-57.5 982.5,-57.5 982.5,-38.5 857.5,-38.5"/>
<text text-anchor="middle" x="920" y="-45.5" font-family="Helvetica,sans-Serif" font-size="10.00" fill="#000000">helios_allocate_object</text>
</a>
</g>
</g>
<!-- Node43&#45;&gt;Node44 -->
<g id="edge8" class="edge">
<title>Node43&#45;&gt;Node44</title>
<path fill="none" stroke="#191970" d="M802.2931,-34.9596C816.5001,-36.5335 832.0727,-38.2588 847.106,-39.9243"/>
<polygon fill="#191970" stroke="#191970" points="847.0794,-43.4427 857.404,-41.0652 847.8503,-36.4852 847.0794,-43.4427"/>
</g>
<!-- Node45 -->
<g id="node9" class="node">
<title>Node45</title>
<g id="a_node9"><a xlink:href="helios__memory_8h.html#ab14fb1c046aae61ab06eda8eeaf2cd85" target="_top" xlink:title=" ">
<polygon fill="#ffffff" stroke="#000000" points="838,-.5 838,-19.5 1002,-19.5 1002,-.5 838,-.5"/>
<text text-anchor="middle" x="920" y="-7.5" font-family="Helvetica,sans-Serif" font-size="10.00" fill="#000000">helios_set_garbagecollectable</text>
</a>
</g>
</g>
<!-- Node43&#45;&gt;Node45 -->
<g id="edge9" class="edge">
<title>Node43&#45;&gt;Node45</title>
<path fill="none" stroke="#191970" d="M802.2931,-23.0404C810.4127,-22.1409 818.9784,-21.1919 827.6345,-20.2329"/>
<polygon fill="#191970" stroke="#191970" points="828.2625,-23.6848 837.8162,-19.1049 827.4916,-16.7274 828.2625,-23.6848"/>
</g>
</g>
</svg>
        <g id="navigator" transform="translate(0 0)" fill="#404254">
                <rect fill="#f2f5e9" fill-opacity="0.5" stroke="#606060" stroke-width=".5" x="0" y="0" width="60" height="60"/>
                <use id="zoomplus" xlink:href="#zoomPlus" x="17" y="9" onmousedown="handleZoom(evt,'in')"/>
                <use id="zoomminus" xlink:href="#zoomMin" x="42" y="9" onmousedown="handleZoom(evt,'out')"/>
                <use id="reset" xlink:href="#resetDef" x="30" y="36" onmousedown="handleReset()"/>
                <g id="arrowUp" xlink:href="#dirArrow" transform="translate(30 24)" onmousedown="handlePan(0,-1)">
                  <use xlink:href="#rim" fill="#404040">
                        <set attributeName="fill" to="#808080" begin="arrowUp.mouseover" end="arrowUp.mouseout"/>
                  </use>
                  <path fill="none" stroke="white" stroke-width="1.5" d="M0,-3.0v7 M-2.5,-0.5L0,-3.0L2.5,-0.5"/>
                </g>
                <g id="arrowRight" xlink:href="#dirArrow" transform="rotate(90) translate(36 -43)" onmousedown="handlePan(1,0)">
                  <use xlink:href="#rim" fill="#404040">
                        <set attributeName="fill" to="#808080" begin="arrowRight.mouseover" end="arrowRight.mouseout"/>
                  </use>
                  <path fill="none" stroke="white" stroke-width="1.5" d="M0,-3.0v7 M-2.5,-0.5L0,-3.0L2.5,-0.5"/>
                </g>
                <g id="arrowDown" xlink:href="#dirArrow" transform="rotate(180) translate(-30 -48)" onmousedown="handlePan(0,1)">
                  <use xlink:href="#rim" fill="#404040">
                        <set attributeName="fill" to="#808080" begin="arrowDown.mouseover" end="arrowDown.mouseout"/>
                  </use>
                  <path fill="none" stroke="white" stroke-width="1.5" d="M0,-3.0v7 M-2.5,-0.5L0,-3.0L2.5,-0.5"/>
                </g>
                <g id="arrowLeft" xlink:href="#dirArrow" transform="rotate(270) translate(-36 17)" onmousedown="handlePan(-1,0)">
                  <use xlink:href="#rim" fill="#404040">
                        <set attributeName="fill" to="#808080" begin="arrowLeft.mouseover" end="arrowLeft.mouseout"/>
                  </use>
                  <path fill="none" stroke="white" stroke-width="1.5" d="M0,-3.0v7 M-2.5,-0.5L0,-3.0L2.5,-0.5"/>
                </g>
        </g>
        <svg viewBox="0 0 15 15" width="100%" height="30px" preserveAspectRatio="xMaxYMin meet">
         <g id="arrow_out" transform="scale(0.3 0.3)">
          <a xlink:href="helios__boolean__compare_8c_a3b954dfb6b86d93ec53013e70fc9f9f2_cgraph_org.svg" target="_base">
           <rect id="button" ry="5" rx="5" y="6" x="6" height="38" width="38"
                fill="#f2f5e9" fill-opacity="0.5" stroke="#606060" stroke-width="1.0"/>
           <path id="arrow"
             d="M 11.500037,31.436501 C 11.940474,20.09759 22.043105,11.32322 32.158766,21.979434 L 37.068811,17.246167 C 37.068811,17.246167 37.088388,32 37.088388,32 L 22.160133,31.978069 C 22.160133,31.978069 26.997745,27.140456 26.997745,27.140456 C 18.528582,18.264221 13.291696,25.230495 11.500037,31.436501 z"
             style="fill:#404040;"/>
          </a>
         </g>
        </svg>
</svg>
