<?xml version="1.0" encoding="UTF-8" standalone="no"?>
<!DOCTYPE svg PUBLIC "-//W3C//DTD SVG 1.1//EN"
 "http://www.w3.org/Graphics/SVG/1.1/DTD/svg11.dtd">
<!-- Generated by graphviz version 2.40.1 (20161225.0304)
 -->
<!-- Title: helios_integer_lessequal Pages: 1 -->
<svg width="832pt" height="97pt"
 viewBox="0.00 0.00 832.00 96.50" xmlns="http://www.w3.org/2000/svg" xmlns:xlink="http://www.w3.org/1999/xlink">
<g id="graph0" class="graph" transform="scale(1 1) rotate(0) translate(4 92.5)">
<title>helios_integer_lessequal</title>
<polygon fill="#ffffff" stroke="transparent" points="-4,4 -4,-92.5 828,-92.5 828,4 -4,4"/>
<!-- Node33 -->
<g id="node1" class="node">
<title>Node33</title>
<g id="a_node1"><a xlink:title=" ">
<polygon fill="#bfbfbf" stroke="#000000" points="0,-41.5 0,-60.5 137,-60.5 137,-41.5 0,-41.5"/>
<text text-anchor="middle" x="68.5" y="-48.5" font-family="Helvetica,sans-Serif" font-size="10.00" fill="#000000">helios_integer_lessequal</text>
</a>
</g>
</g>
<!-- Node33&#45;&gt;Node33 -->
<g id="edge3" class="edge">
<title>Node33&#45;&gt;Node33</title>
<path fill="none" stroke="#191970" d="M42.6063,-60.7571C30.0094,-69.5653 38.6406,-79 68.5,-79 88.5618,-79 99.0408,-74.741 99.9371,-69.2746"/>
<polygon fill="#191970" stroke="#191970" points="102.7819,-67.2291 94.3937,-60.7571 96.915,-71.0475 102.7819,-67.2291"/>
</g>
<!-- Node34 -->
<g id="node2" class="node">
<title>Node34</title>
<g id="a_node2"><a xlink:href="helios__boolean_8c.html#a50e186696d4b9f2e8efdcddc17ab5ce5" target="_top" xlink:title="Create a helios_boolean object from a c boolean type.">
<polygon fill="#ffffff" stroke="#000000" points="178.5,-58 178.5,-88 297.5,-88 297.5,-58 178.5,-58"/>
<text text-anchor="start" x="186.5" y="-76" font-family="Helvetica,sans-Serif" font-size="10.00" fill="#000000">helios_boolean_from</text>
<text text-anchor="middle" x="238" y="-65" font-family="Helvetica,sans-Serif" font-size="10.00" fill="#000000">_cbool</text>
</a>
</g>
</g>
<!-- Node33&#45;&gt;Node34 -->
<g id="edge1" class="edge">
<title>Node33&#45;&gt;Node34</title>
<path fill="none" stroke="#191970" d="M137.4421,-59.9482C147.6158,-61.2687 158.1045,-62.6301 168.2935,-63.9525"/>
<polygon fill="#191970" stroke="#191970" points="167.9925,-67.4428 178.3598,-65.2591 168.8935,-60.501 167.9925,-67.4428"/>
</g>
<!-- Node36 -->
<g id="node4" class="node">
<title>Node36</title>
<g id="a_node4"><a xlink:href="helios__boolean_8c.html#a856733e7e090437084fcf595bd4e3b8f" target="_top" xlink:title="Convert a boolean to an integer.">
<polygon fill="#ffffff" stroke="#000000" points="173,-19.5 173,-38.5 303,-38.5 303,-19.5 173,-19.5"/>
<text text-anchor="middle" x="238" y="-26.5" font-family="Helvetica,sans-Serif" font-size="10.00" fill="#000000">helios_boolean_integer</text>
</a>
</g>
</g>
<!-- Node33&#45;&gt;Node36 -->
<g id="edge4" class="edge">
<title>Node33&#45;&gt;Node36</title>
<path fill="none" stroke="#191970" d="M137.4421,-42.0518C145.7827,-40.9692 154.335,-39.8592 162.7603,-38.7656"/>
<polygon fill="#191970" stroke="#191970" points="163.4853,-42.201 172.9516,-37.4429 162.5843,-35.2592 163.4853,-42.201"/>
</g>
<!-- Node35 -->
<g id="node3" class="node">
<title>Node35</title>
<g id="a_node3"><a xlink:href="helios__boolean_8c.html#ab172c15c28782b45e824c42601484606" target="_top" xlink:title="Create a helios_boolean object from a c integer type.">
<polygon fill="#ffffff" stroke="#000000" points="339,-63.5 339,-82.5 481,-82.5 481,-63.5 339,-63.5"/>
<text text-anchor="middle" x="410" y="-70.5" font-family="Helvetica,sans-Serif" font-size="10.00" fill="#000000">helios_boolean_from_cint</text>
</a>
</g>
</g>
<!-- Node34&#45;&gt;Node35 -->
<g id="edge2" class="edge">
<title>Node34&#45;&gt;Node35</title>
<path fill="none" stroke="#191970" d="M297.6745,-73C307.7479,-73 318.3545,-73 328.864,-73"/>
<polygon fill="#191970" stroke="#191970" points="328.8898,-76.5001 338.8897,-73 328.8897,-69.5001 328.8898,-76.5001"/>
</g>
<!-- Node37 -->
<g id="node5" class="node">
<title>Node37</title>
<g id="a_node5"><a xlink:href="helios__integer_8c.html#af677316afd6536844aeb027f14c198cf" target="_top" xlink:title="Create a helios_integer object from a c integer type.">
<polygon fill="#ffffff" stroke="#000000" points="341.5,-19.5 341.5,-38.5 478.5,-38.5 478.5,-19.5 341.5,-19.5"/>
<text text-anchor="middle" x="410" y="-26.5" font-family="Helvetica,sans-Serif" font-size="10.00" fill="#000000">helios_integer_from_cint</text>
</a>
</g>
</g>
<!-- Node36&#45;&gt;Node37 -->
<g id="edge5" class="edge">
<title>Node36&#45;&gt;Node37</title>
<path fill="none" stroke="#191970" d="M303.0258,-29C312.2476,-29 321.8121,-29 331.259,-29"/>
<polygon fill="#191970" stroke="#191970" points="331.4419,-32.5001 341.4418,-29 331.4418,-25.5001 331.4419,-32.5001"/>
</g>
<!-- Node38 -->
<g id="node6" class="node">
<title>Node38</title>
<g id="a_node6"><a xlink:href="helios__integer_8c.html#a50a26b1e9578164839f3a5bb17e04051" target="_top" xlink:title="Constructor of a helios_integer object.">
<polygon fill="#ffffff" stroke="#000000" points="517,-19.5 517,-38.5 624,-38.5 624,-19.5 517,-19.5"/>
<text text-anchor="middle" x="570.5" y="-26.5" font-family="Helvetica,sans-Serif" font-size="10.00" fill="#000000">helios_integer_init</text>
</a>
</g>
</g>
<!-- Node37&#45;&gt;Node38 -->
<g id="edge6" class="edge">
<title>Node37&#45;&gt;Node38</title>
<path fill="none" stroke="#191970" d="M478.532,-29C487.8177,-29 497.3173,-29 506.519,-29"/>
<polygon fill="#191970" stroke="#191970" points="506.7542,-32.5001 516.7542,-29 506.7541,-25.5001 506.7542,-32.5001"/>
</g>
<!-- Node39 -->
<g id="node7" class="node">
<title>Node39</title>
<g id="a_node7"><a xlink:href="helios__memory_8h.html#af87f0050f8e236d0945592fa4e54dc94" target="_top" xlink:title="Allocates a new helios object (and performs all the GC steps associated with that action).">
<polygon fill="#ffffff" stroke="#000000" points="679.5,-38.5 679.5,-57.5 804.5,-57.5 804.5,-38.5 679.5,-38.5"/>
<text text-anchor="middle" x="742" y="-45.5" font-family="Helvetica,sans-Serif" font-size="10.00" fill="#000000">helios_allocate_object</text>
</a>
</g>
</g>
<!-- Node38&#45;&gt;Node39 -->
<g id="edge7" class="edge">
<title>Node38&#45;&gt;Node39</title>
<path fill="none" stroke="#191970" d="M624.2931,-34.9596C638.5001,-36.5335 654.0727,-38.2588 669.106,-39.9243"/>
<polygon fill="#191970" stroke="#191970" points="669.0794,-43.4427 679.404,-41.0652 669.8503,-36.4852 669.0794,-43.4427"/>
</g>
<!-- Node40 -->
<g id="node8" class="node">
<title>Node40</title>
<g id="a_node8"><a xlink:href="helios__memory_8h.html#ab14fb1c046aae61ab06eda8eeaf2cd85" target="_top" xlink:title=" ">
<polygon fill="#ffffff" stroke="#000000" points="660,-.5 660,-19.5 824,-19.5 824,-.5 660,-.5"/>
<text text-anchor="middle" x="742" y="-7.5" font-family="Helvetica,sans-Serif" font-size="10.00" fill="#000000">helios_set_garbagecollectable</text>
</a>
</g>
</g>
<!-- Node38&#45;&gt;Node40 -->
<g id="edge8" class="edge">
<title>Node38&#45;&gt;Node40</title>
<path fill="none" stroke="#191970" d="M624.2931,-23.0404C632.4127,-22.1409 640.9784,-21.1919 649.6345,-20.2329"/>
<polygon fill="#191970" stroke="#191970" points="650.2625,-23.6848 659.8162,-19.1049 649.4916,-16.7274 650.2625,-23.6848"/>
</g>
</g>
</svg>
