<?xml version="1.0" encoding="UTF-8" standalone="no"?>
<!DOCTYPE svg PUBLIC "-//W3C//DTD SVG 1.1//EN"
 "http://www.w3.org/Graphics/SVG/1.1/DTD/svg11.dtd">
<!-- Generated by graphviz version 2.40.1 (20161225.0304)
 -->
<!-- Title: helios_integer_equal Pages: 1 -->
<svg width="967pt" height="112pt"
 viewBox="0.00 0.00 967.00 111.50" xmlns="http://www.w3.org/2000/svg" xmlns:xlink="http://www.w3.org/1999/xlink">
<g id="graph0" class="graph" transform="scale(1 1) rotate(0) translate(4 107.5)">
<title>helios_integer_equal</title>
<polygon fill="#ffffff" stroke="transparent" points="-4,4 -4,-107.5 963,-107.5 963,4 -4,4"/>
<!-- Node9 -->
<g id="node1" class="node">
<title>Node9</title>
<g id="a_node1"><a xlink:title=" ">
<polygon fill="#bfbfbf" stroke="#000000" points="0,-38.5 0,-57.5 118,-57.5 118,-38.5 0,-38.5"/>
<text text-anchor="middle" x="59" y="-45.5" font-family="Helvetica,sans-Serif" font-size="10.00" fill="#000000">helios_integer_equal</text>
</a>
</g>
</g>
<!-- Node10 -->
<g id="node2" class="node">
<title>Node10</title>
<g id="a_node2"><a xlink:href="helios__boolean_8c.html#a50e186696d4b9f2e8efdcddc17ab5ce5" target="_top" xlink:title="Create a helios_boolean object from a c boolean type.">
<polygon fill="#ffffff" stroke="#000000" points="313.5,-73 313.5,-103 432.5,-103 432.5,-73 313.5,-73"/>
<text text-anchor="start" x="321.5" y="-91" font-family="Helvetica,sans-Serif" font-size="10.00" fill="#000000">helios_boolean_from</text>
<text text-anchor="middle" x="373" y="-80" font-family="Helvetica,sans-Serif" font-size="10.00" fill="#000000">_cbool</text>
</a>
</g>
</g>
<!-- Node9&#45;&gt;Node10 -->
<g id="edge1" class="edge">
<title>Node9&#45;&gt;Node10</title>
<path fill="none" stroke="#191970" d="M77.6842,-57.5911C96.4203,-66.6458 126.3774,-79.6146 154,-85 203.2362,-94.5993 259.885,-95.1017 303.2314,-93.3338"/>
<polygon fill="#191970" stroke="#191970" points="303.56,-96.8225 313.3893,-92.8683 303.2395,-89.8298 303.56,-96.8225"/>
</g>
<!-- Node12 -->
<g id="node4" class="node">
<title>Node12</title>
<g id="a_node4"><a xlink:href="helios__integer__compare_8c.html#a1ea0f771c4d0aa678fe5657bc3a79b55" target="_top" xlink:title=" ">
<polygon fill="#ffffff" stroke="#000000" points="154,-38.5 154,-57.5 272,-57.5 272,-38.5 154,-38.5"/>
<text text-anchor="middle" x="213" y="-45.5" font-family="Helvetica,sans-Serif" font-size="10.00" fill="#000000">helios_integer_equal</text>
</a>
</g>
</g>
<!-- Node9&#45;&gt;Node12 -->
<g id="edge3" class="edge">
<title>Node9&#45;&gt;Node12</title>
<path fill="none" stroke="#191970" d="M118.1,-48C126.4218,-48 135.0389,-48 143.5326,-48"/>
<polygon fill="#191970" stroke="#191970" points="143.8037,-51.5001 153.8037,-48 143.8037,-44.5001 143.8037,-51.5001"/>
</g>
<!-- Node13 -->
<g id="node5" class="node">
<title>Node13</title>
<g id="a_node5"><a xlink:href="helios__boolean_8c.html#a856733e7e090437084fcf595bd4e3b8f" target="_top" xlink:title="Convert a boolean to an integer.">
<polygon fill="#ffffff" stroke="#000000" points="308,-19.5 308,-38.5 438,-38.5 438,-19.5 308,-19.5"/>
<text text-anchor="middle" x="373" y="-26.5" font-family="Helvetica,sans-Serif" font-size="10.00" fill="#000000">helios_boolean_integer</text>
</a>
</g>
</g>
<!-- Node9&#45;&gt;Node13 -->
<g id="edge11" class="edge">
<title>Node9&#45;&gt;Node13</title>
<path fill="none" stroke="#191970" d="M97.5655,-38.49C114.7267,-34.725 135.2536,-30.8563 154,-29 201.5371,-24.2929 255.1636,-24.2061 297.4521,-25.3383"/>
<polygon fill="#191970" stroke="#191970" points="297.5721,-28.8433 307.6715,-25.6413 297.7796,-21.8464 297.5721,-28.8433"/>
</g>
<!-- Node11 -->
<g id="node3" class="node">
<title>Node11</title>
<g id="a_node3"><a xlink:href="helios__boolean_8c.html#ab172c15c28782b45e824c42601484606" target="_top" xlink:title="Create a helios_boolean object from a c integer type.">
<polygon fill="#ffffff" stroke="#000000" points="474,-78.5 474,-97.5 616,-97.5 616,-78.5 474,-78.5"/>
<text text-anchor="middle" x="545" y="-85.5" font-family="Helvetica,sans-Serif" font-size="10.00" fill="#000000">helios_boolean_from_cint</text>
</a>
</g>
</g>
<!-- Node10&#45;&gt;Node11 -->
<g id="edge2" class="edge">
<title>Node10&#45;&gt;Node11</title>
<path fill="none" stroke="#191970" d="M432.6745,-88C442.7479,-88 453.3545,-88 463.864,-88"/>
<polygon fill="#191970" stroke="#191970" points="463.8898,-91.5001 473.8897,-88 463.8897,-84.5001 463.8898,-91.5001"/>
</g>
<!-- Node12&#45;&gt;Node10 -->
<g id="edge4" class="edge">
<title>Node12&#45;&gt;Node10</title>
<path fill="none" stroke="#191970" d="M251.324,-57.581C267.003,-61.5007 285.6451,-66.1613 303.5672,-70.6418"/>
<polygon fill="#191970" stroke="#191970" points="302.876,-74.0767 313.4263,-73.1066 304.5738,-67.2857 302.876,-74.0767"/>
</g>
<!-- Node12&#45;&gt;Node12 -->
<g id="edge5" class="edge">
<title>Node12&#45;&gt;Node12</title>
<path fill="none" stroke="#191970" d="M189.2641,-57.7571C177.7169,-66.5653 185.6289,-76 213,-76 230.9623,-76 240.5442,-71.9368 241.7458,-66.6539"/>
<polygon fill="#191970" stroke="#191970" points="244.6923,-64.7532 236.7359,-57.7571 238.5928,-68.1879 244.6923,-64.7532"/>
</g>
<!-- Node12&#45;&gt;Node13 -->
<g id="edge6" class="edge">
<title>Node12&#45;&gt;Node13</title>
<path fill="none" stroke="#191970" d="M272.1235,-40.9791C280.5053,-39.9838 289.2157,-38.9494 297.8506,-37.924"/>
<polygon fill="#191970" stroke="#191970" points="298.4107,-41.3822 307.9282,-36.7273 297.5852,-34.431 298.4107,-41.3822"/>
</g>
<!-- Node14 -->
<g id="node6" class="node">
<title>Node14</title>
<g id="a_node6"><a xlink:href="helios__integer_8c.html#af677316afd6536844aeb027f14c198cf" target="_top" xlink:title="Create a helios_integer object from a c integer type.">
<polygon fill="#ffffff" stroke="#000000" points="476.5,-19.5 476.5,-38.5 613.5,-38.5 613.5,-19.5 476.5,-19.5"/>
<text text-anchor="middle" x="545" y="-26.5" font-family="Helvetica,sans-Serif" font-size="10.00" fill="#000000">helios_integer_from_cint</text>
</a>
</g>
</g>
<!-- Node13&#45;&gt;Node14 -->
<g id="edge7" class="edge">
<title>Node13&#45;&gt;Node14</title>
<path fill="none" stroke="#191970" d="M438.0258,-29C447.2476,-29 456.8121,-29 466.259,-29"/>
<polygon fill="#191970" stroke="#191970" points="466.4419,-32.5001 476.4418,-29 466.4418,-25.5001 466.4419,-32.5001"/>
</g>
<!-- Node15 -->
<g id="node7" class="node">
<title>Node15</title>
<g id="a_node7"><a xlink:href="helios__integer_8c.html#a50a26b1e9578164839f3a5bb17e04051" target="_top" xlink:title="Constructor of a helios_integer object.">
<polygon fill="#ffffff" stroke="#000000" points="652,-19.5 652,-38.5 759,-38.5 759,-19.5 652,-19.5"/>
<text text-anchor="middle" x="705.5" y="-26.5" font-family="Helvetica,sans-Serif" font-size="10.00" fill="#000000">helios_integer_init</text>
</a>
</g>
</g>
<!-- Node14&#45;&gt;Node15 -->
<g id="edge8" class="edge">
<title>Node14&#45;&gt;Node15</title>
<path fill="none" stroke="#191970" d="M613.532,-29C622.8177,-29 632.3173,-29 641.519,-29"/>
<polygon fill="#191970" stroke="#191970" points="641.7542,-32.5001 651.7542,-29 641.7541,-25.5001 641.7542,-32.5001"/>
</g>
<!-- Node16 -->
<g id="node8" class="node">
<title>Node16</title>
<g id="a_node8"><a xlink:href="helios__memory_8h.html#af87f0050f8e236d0945592fa4e54dc94" target="_top" xlink:title="Allocates a new helios object (and performs all the GC steps associated with that action).">
<polygon fill="#ffffff" stroke="#000000" points="814.5,-38.5 814.5,-57.5 939.5,-57.5 939.5,-38.5 814.5,-38.5"/>
<text text-anchor="middle" x="877" y="-45.5" font-family="Helvetica,sans-Serif" font-size="10.00" fill="#000000">helios_allocate_object</text>
</a>
</g>
</g>
<!-- Node15&#45;&gt;Node16 -->
<g id="edge9" class="edge">
<title>Node15&#45;&gt;Node16</title>
<path fill="none" stroke="#191970" d="M759.2931,-34.9596C773.5001,-36.5335 789.0727,-38.2588 804.106,-39.9243"/>
<polygon fill="#191970" stroke="#191970" points="804.0794,-43.4427 814.404,-41.0652 804.8503,-36.4852 804.0794,-43.4427"/>
</g>
<!-- Node17 -->
<g id="node9" class="node">
<title>Node17</title>
<g id="a_node9"><a xlink:href="helios__memory_8h.html#ab14fb1c046aae61ab06eda8eeaf2cd85" target="_top" xlink:title=" ">
<polygon fill="#ffffff" stroke="#000000" points="795,-.5 795,-19.5 959,-19.5 959,-.5 795,-.5"/>
<text text-anchor="middle" x="877" y="-7.5" font-family="Helvetica,sans-Serif" font-size="10.00" fill="#000000">helios_set_garbagecollectable</text>
</a>
</g>
</g>
<!-- Node15&#45;&gt;Node17 -->
<g id="edge10" class="edge">
<title>Node15&#45;&gt;Node17</title>
<path fill="none" stroke="#191970" d="M759.2931,-23.0404C767.4127,-22.1409 775.9784,-21.1919 784.6345,-20.2329"/>
<polygon fill="#191970" stroke="#191970" points="785.2625,-23.6848 794.8162,-19.1049 784.4916,-16.7274 785.2625,-23.6848"/>
</g>
</g>
</svg>
