<?xml version="1.0" encoding="UTF-8" standalone="no"?>
<!DOCTYPE svg PUBLIC "-//W3C//DTD SVG 1.1//EN"
 "http://www.w3.org/Graphics/SVG/1.1/DTD/svg11.dtd">
<!-- Generated by graphviz version 2.40.1 (20161225.0304)
 -->
<!-- Title: main/builtins/integer/helios_integer_math.c Pages: 1 -->
<svg width="475pt" height="319pt"
 viewBox="0.00 0.00 474.50 319.00" xmlns="http://www.w3.org/2000/svg" xmlns:xlink="http://www.w3.org/1999/xlink">
<g id="graph0" class="graph" transform="scale(1 1) rotate(0) translate(4 315)">
<title>main/builtins/integer/helios_integer_math.c</title>
<polygon fill="#ffffff" stroke="transparent" points="-4,4 -4,-315 470.5,-315 470.5,4 -4,4"/>
<!-- Node0 -->
<g id="node1" class="node">
<title>Node0</title>
<g id="a_node1"><a xlink:title=" ">
<polygon fill="#bfbfbf" stroke="#000000" points="249.5,-280.5 249.5,-310.5 377.5,-310.5 377.5,-280.5 249.5,-280.5"/>
<text text-anchor="start" x="257.5" y="-298.5" font-family="Helvetica,sans-Serif" font-size="10.00" fill="#000000">main/builtins/integer</text>
<text text-anchor="middle" x="313.5" y="-287.5" font-family="Helvetica,sans-Serif" font-size="10.00" fill="#000000">/helios_integer_math.c</text>
</a>
</g>
</g>
<!-- Node1 -->
<g id="node2" class="node">
<title>Node1</title>
<g id="a_node2"><a xlink:href="helios__float_8h.html" target="_top" xlink:title=" ">
<polygon fill="#ffffff" stroke="#000000" points="166.5,-224.5 166.5,-243.5 248.5,-243.5 248.5,-224.5 166.5,-224.5"/>
<text text-anchor="middle" x="207.5" y="-231.5" font-family="Helvetica,sans-Serif" font-size="10.00" fill="#000000">helios_float.h</text>
</a>
</g>
</g>
<!-- Node0&#45;&gt;Node1 -->
<g id="edge1" class="edge">
<title>Node0&#45;&gt;Node1</title>
<path fill="none" stroke="#191970" d="M287.5695,-280.4554C270.9691,-270.8241 249.5256,-258.3828 233.0083,-248.7996"/>
<polygon fill="#191970" stroke="#191970" points="234.3323,-245.5214 223.9262,-243.5303 230.8194,-251.5761 234.3323,-245.5214"/>
</g>
<!-- Node2 -->
<g id="node3" class="node">
<title>Node2</title>
<g id="a_node3"><a xlink:href="helios__object_8h.html" target="_top" xlink:title=" ">
<polygon fill="#ffffff" stroke="#000000" points="231.5,-168.5 231.5,-187.5 321.5,-187.5 321.5,-168.5 231.5,-168.5"/>
<text text-anchor="middle" x="276.5" y="-175.5" font-family="Helvetica,sans-Serif" font-size="10.00" fill="#000000">helios_object.h</text>
</a>
</g>
</g>
<!-- Node0&#45;&gt;Node2 -->
<g id="edge13" class="edge">
<title>Node0&#45;&gt;Node2</title>
<path fill="none" stroke="#191970" d="M307.9189,-280.2516C304.2441,-270.0414 299.4083,-256.2738 295.5,-244 290.5821,-228.5553 285.5297,-210.9032 281.8723,-197.7429"/>
<polygon fill="#191970" stroke="#191970" points="285.1893,-196.605 279.1618,-187.8918 278.4401,-198.462 285.1893,-196.605"/>
</g>
<!-- Node10 -->
<g id="node11" class="node">
<title>Node10</title>
<g id="a_node11"><a xlink:href="helios__integer_8h.html" target="_top" xlink:title=" ">
<polygon fill="#ffffff" stroke="#000000" points="304.5,-224.5 304.5,-243.5 398.5,-243.5 398.5,-224.5 304.5,-224.5"/>
<text text-anchor="middle" x="351.5" y="-231.5" font-family="Helvetica,sans-Serif" font-size="10.00" fill="#000000">helios_integer.h</text>
</a>
</g>
</g>
<!-- Node0&#45;&gt;Node10 -->
<g id="edge11" class="edge">
<title>Node0&#45;&gt;Node10</title>
<path fill="none" stroke="#191970" d="M322.8933,-280.2977C328.1131,-271.8498 334.6457,-261.2773 340.15,-252.369"/>
<polygon fill="#191970" stroke="#191970" points="343.1368,-254.1938 345.4157,-243.8469 337.1818,-250.5143 343.1368,-254.1938"/>
</g>
<!-- Node11 -->
<g id="node12" class="node">
<title>Node11</title>
<g id="a_node12"><a xlink:title=" ">
<polygon fill="#ffffff" stroke="#bfbfbf" points="416.5,-224.5 416.5,-243.5 466.5,-243.5 466.5,-224.5 416.5,-224.5"/>
<text text-anchor="middle" x="441.5" y="-231.5" font-family="Helvetica,sans-Serif" font-size="10.00" fill="#000000">stdio.h</text>
</a>
</g>
</g>
<!-- Node0&#45;&gt;Node11 -->
<g id="edge14" class="edge">
<title>Node0&#45;&gt;Node11</title>
<path fill="none" stroke="#191970" d="M344.8123,-280.4554C365.5138,-270.509 392.4523,-257.5659 412.6353,-247.8686"/>
<polygon fill="#191970" stroke="#191970" points="414.1667,-251.0159 421.6645,-243.5303 411.1352,-244.7064 414.1667,-251.0159"/>
</g>
<!-- Node1&#45;&gt;Node2 -->
<g id="edge2" class="edge">
<title>Node1&#45;&gt;Node2</title>
<path fill="none" stroke="#191970" d="M219.5189,-224.2455C229.7098,-215.9746 244.5362,-203.9416 256.5107,-194.2232"/>
<polygon fill="#191970" stroke="#191970" points="259.0598,-196.662 264.6188,-187.6427 254.6486,-191.2268 259.0598,-196.662"/>
</g>
<!-- Node3 -->
<g id="node4" class="node">
<title>Node3</title>
<g id="a_node4"><a xlink:href="helios__type_8h.html" target="_top" xlink:title=" ">
<polygon fill="#ffffff" stroke="#000000" points="235.5,-112.5 235.5,-131.5 317.5,-131.5 317.5,-112.5 235.5,-112.5"/>
<text text-anchor="middle" x="276.5" y="-119.5" font-family="Helvetica,sans-Serif" font-size="10.00" fill="#000000">helios_type.h</text>
</a>
</g>
</g>
<!-- Node2&#45;&gt;Node3 -->
<g id="edge3" class="edge">
<title>Node2&#45;&gt;Node3</title>
<path fill="none" stroke="#191970" d="M276.5,-168.2455C276.5,-160.9382 276.5,-150.6944 276.5,-141.7046"/>
<polygon fill="#191970" stroke="#191970" points="280.0001,-141.6426 276.5,-131.6427 273.0001,-141.6427 280.0001,-141.6426"/>
</g>
<!-- Node4 -->
<g id="node5" class="node">
<title>Node4</title>
<g id="a_node5"><a xlink:href="helios__memory_8h.html" target="_top" xlink:title=" ">
<polygon fill="#ffffff" stroke="#000000" points="148.5,-56.5 148.5,-75.5 248.5,-75.5 248.5,-56.5 148.5,-56.5"/>
<text text-anchor="middle" x="198.5" y="-63.5" font-family="Helvetica,sans-Serif" font-size="10.00" fill="#000000">helios_memory.h</text>
</a>
</g>
</g>
<!-- Node3&#45;&gt;Node4 -->
<g id="edge4" class="edge">
<title>Node3&#45;&gt;Node4</title>
<path fill="none" stroke="#191970" d="M262.9134,-112.2455C251.1695,-103.814 233.9801,-91.4729 220.3118,-81.6598"/>
<polygon fill="#191970" stroke="#191970" points="222.0954,-78.6316 211.9309,-75.6427 218.0129,-84.3179 222.0954,-78.6316"/>
</g>
<!-- Node8 -->
<g id="node9" class="node">
<title>Node8</title>
<g id="a_node9"><a xlink:title=" ">
<polygon fill="#ffffff" stroke="#bfbfbf" points="250,-.5 250,-19.5 303,-19.5 303,-.5 250,-.5"/>
<text text-anchor="middle" x="276.5" y="-7.5" font-family="Helvetica,sans-Serif" font-size="10.00" fill="#000000">stdint.h</text>
</a>
</g>
</g>
<!-- Node3&#45;&gt;Node8 -->
<g id="edge9" class="edge">
<title>Node3&#45;&gt;Node8</title>
<path fill="none" stroke="#191970" d="M276.5,-112.4509C276.5,-94.184 276.5,-53.9553 276.5,-29.6976"/>
<polygon fill="#191970" stroke="#191970" points="280.0001,-29.5249 276.5,-19.5249 273.0001,-29.5249 280.0001,-29.5249"/>
</g>
<!-- Node9 -->
<g id="node10" class="node">
<title>Node9</title>
<g id="a_node10"><a xlink:title=" ">
<polygon fill="#ffffff" stroke="#bfbfbf" points="305,-56.5 305,-75.5 358,-75.5 358,-56.5 305,-56.5"/>
<text text-anchor="middle" x="331.5" y="-63.5" font-family="Helvetica,sans-Serif" font-size="10.00" fill="#000000">stdlib.h</text>
</a>
</g>
</g>
<!-- Node3&#45;&gt;Node9 -->
<g id="edge10" class="edge">
<title>Node3&#45;&gt;Node9</title>
<path fill="none" stroke="#191970" d="M286.0803,-112.2455C294.0458,-104.1352 305.5641,-92.4075 315.0079,-82.7919"/>
<polygon fill="#191970" stroke="#191970" points="317.5195,-85.2297 322.0295,-75.6427 312.5253,-80.3247 317.5195,-85.2297"/>
</g>
<!-- Node5 -->
<g id="node6" class="node">
<title>Node5</title>
<g id="a_node6"><a xlink:href="builtinutils_8h.html" target="_top" xlink:title=" ">
<polygon fill="#ffffff" stroke="#000000" points="0,-.5 0,-19.5 77,-19.5 77,-.5 0,-.5"/>
<text text-anchor="middle" x="38.5" y="-7.5" font-family="Helvetica,sans-Serif" font-size="10.00" fill="#000000">builtinutils.h</text>
</a>
</g>
</g>
<!-- Node4&#45;&gt;Node5 -->
<g id="edge5" class="edge">
<title>Node4&#45;&gt;Node5</title>
<path fill="none" stroke="#191970" d="M170.995,-56.3733C144.6198,-47.1419 104.6149,-33.1402 75.4642,-22.9375"/>
<polygon fill="#191970" stroke="#191970" points="76.2409,-19.5012 65.6461,-19.5011 73.9284,-26.1082 76.2409,-19.5012"/>
</g>
<!-- Node6 -->
<g id="node7" class="node">
<title>Node6</title>
<g id="a_node7"><a xlink:title=" ">
<polygon fill="#ffffff" stroke="#bfbfbf" points="95.5,-.5 95.5,-19.5 157.5,-19.5 157.5,-.5 95.5,-.5"/>
<text text-anchor="middle" x="126.5" y="-7.5" font-family="Helvetica,sans-Serif" font-size="10.00" fill="#000000">stdbool.h</text>
</a>
</g>
</g>
<!-- Node4&#45;&gt;Node6 -->
<g id="edge6" class="edge">
<title>Node4&#45;&gt;Node6</title>
<path fill="none" stroke="#191970" d="M185.9586,-56.2455C175.2213,-47.8943 159.5527,-35.7076 146.9953,-25.9408"/>
<polygon fill="#191970" stroke="#191970" points="148.9401,-23.0194 138.8977,-19.6427 144.6425,-28.5449 148.9401,-23.0194"/>
</g>
<!-- Node7 -->
<g id="node8" class="node">
<title>Node7</title>
<g id="a_node8"><a xlink:title=" ">
<polygon fill="#ffffff" stroke="#bfbfbf" points="175.5,-.5 175.5,-19.5 231.5,-19.5 231.5,-.5 175.5,-.5"/>
<text text-anchor="middle" x="203.5" y="-7.5" font-family="Helvetica,sans-Serif" font-size="10.00" fill="#000000">stddef.h</text>
</a>
</g>
</g>
<!-- Node4&#45;&gt;Node7 -->
<g id="edge7" class="edge">
<title>Node4&#45;&gt;Node7</title>
<path fill="none" stroke="#191970" d="M199.3709,-56.2455C200.0234,-48.9382 200.938,-38.6944 201.7407,-29.7046"/>
<polygon fill="#191970" stroke="#191970" points="205.2358,-29.9143 202.639,-19.6427 198.2635,-29.2918 205.2358,-29.9143"/>
</g>
<!-- Node4&#45;&gt;Node8 -->
<g id="edge8" class="edge">
<title>Node4&#45;&gt;Node8</title>
<path fill="none" stroke="#191970" d="M212.0866,-56.2455C223.8305,-47.814 241.0199,-35.4729 254.6882,-25.6598"/>
<polygon fill="#191970" stroke="#191970" points="256.9871,-28.3179 263.0691,-19.6427 252.9046,-22.6316 256.9871,-28.3179"/>
</g>
<!-- Node10&#45;&gt;Node2 -->
<g id="edge12" class="edge">
<title>Node10&#45;&gt;Node2</title>
<path fill="none" stroke="#191970" d="M338.436,-224.2455C327.1438,-215.814 310.6155,-203.4729 297.4729,-193.6598"/>
<polygon fill="#191970" stroke="#191970" points="299.5211,-190.8211 289.4143,-187.6427 295.3331,-196.4301 299.5211,-190.8211"/>
</g>
</g>
</svg>
