<?xml version="1.0" encoding="UTF-8" standalone="no"?>
<!DOCTYPE svg PUBLIC "-//W3C//DTD SVG 1.1//EN"
 "http://www.w3.org/Graphics/SVG/1.1/DTD/svg11.dtd">
<!-- Generated by graphviz version 2.40.1 (20161225.0304)
 -->
<!-- Title: helios_code_represent Pages: 1 -->
<svg width="704pt" height="66pt"
 viewBox="0.00 0.00 704.00 66.00" xmlns="http://www.w3.org/2000/svg" xmlns:xlink="http://www.w3.org/1999/xlink">
<g id="graph0" class="graph" transform="scale(1 1) rotate(0) translate(4 62)">
<title>helios_code_represent</title>
<polygon fill="#ffffff" stroke="transparent" points="-4,4 -4,-62 700,-62 700,4 -4,4"/>
<!-- Node15 -->
<g id="node1" class="node">
<title>Node15</title>
<g id="a_node1"><a xlink:title=" ">
<polygon fill="#bfbfbf" stroke="#000000" points="0,-19.5 0,-38.5 114,-38.5 114,-19.5 0,-19.5"/>
<text text-anchor="middle" x="57" y="-26.5" font-family="Helvetica,sans-Serif" font-size="10.00" fill="#000000">helios_code_represent</text>
</a>
</g>
</g>
<!-- Node16 -->
<g id="node2" class="node">
<title>Node16</title>
<g id="a_node2"><a xlink:href="helios__code_8c.html#a2bd6e194a3a4a92fc7e97c3b7cbe998d" target="_top" xlink:title=" ">
<polygon fill="#ffffff" stroke="#000000" points="150,-19.5 150,-38.5 256,-38.5 256,-19.5 150,-19.5"/>
<text text-anchor="middle" x="203" y="-26.5" font-family="Helvetica,sans-Serif" font-size="10.00" fill="#000000">helios_code_tostring</text>
</a>
</g>
</g>
<!-- Node15&#45;&gt;Node16 -->
<g id="edge1" class="edge">
<title>Node15&#45;&gt;Node16</title>
<path fill="none" stroke="#191970" d="M114.284,-29C122.5762,-29 131.1523,-29 139.5565,-29"/>
<polygon fill="#191970" stroke="#191970" points="139.6919,-32.5001 149.6919,-29 139.6919,-25.5001 139.6919,-32.5001"/>
</g>
<!-- Node17 -->
<g id="node3" class="node">
<title>Node17</title>
<g id="a_node3"><a xlink:href="helios__string_8c.html#a4338910535421a24735fc7eb3123495c" target="_top" xlink:title="Create a helios_string object from a c string.">
<polygon fill="#ffffff" stroke="#000000" points="292,-14 292,-44 388,-44 388,-14 292,-14"/>
<text text-anchor="start" x="300" y="-32" font-family="Helvetica,sans-Serif" font-size="10.00" fill="#000000">helios_string_from</text>
<text text-anchor="middle" x="340" y="-21" font-family="Helvetica,sans-Serif" font-size="10.00" fill="#000000">_charp</text>
</a>
</g>
</g>
<!-- Node16&#45;&gt;Node17 -->
<g id="edge2" class="edge">
<title>Node16&#45;&gt;Node17</title>
<path fill="none" stroke="#191970" d="M256.3601,-29C264.6926,-29 273.3398,-29 281.7743,-29"/>
<polygon fill="#191970" stroke="#191970" points="281.9217,-32.5001 291.9217,-29 281.9216,-25.5001 281.9217,-32.5001"/>
</g>
<!-- Node18 -->
<g id="node4" class="node">
<title>Node18</title>
<g id="a_node4"><a xlink:href="helios__string_8c.html#af727ca5352482ab7e542510f178a9f85" target="_top" xlink:title="Constructor of a helios_string.">
<polygon fill="#ffffff" stroke="#000000" points="424,-19.5 424,-38.5 513,-38.5 513,-19.5 424,-19.5"/>
<text text-anchor="middle" x="468.5" y="-26.5" font-family="Helvetica,sans-Serif" font-size="10.00" fill="#000000">helios_string_init</text>
</a>
</g>
</g>
<!-- Node17&#45;&gt;Node18 -->
<g id="edge3" class="edge">
<title>Node17&#45;&gt;Node18</title>
<path fill="none" stroke="#191970" d="M388.2143,-29C396.5175,-29 405.2026,-29 413.6649,-29"/>
<polygon fill="#191970" stroke="#191970" points="413.8359,-32.5001 423.8359,-29 413.8359,-25.5001 413.8359,-32.5001"/>
</g>
<!-- Node19 -->
<g id="node5" class="node">
<title>Node19</title>
<g id="a_node5"><a xlink:href="helios__memory_8h.html#af87f0050f8e236d0945592fa4e54dc94" target="_top" xlink:title="Allocates a new helios object (and performs all the GC steps associated with that action).">
<polygon fill="#ffffff" stroke="#000000" points="566,-38.5 566,-57.5 679,-57.5 679,-38.5 566,-38.5"/>
<text text-anchor="middle" x="622.5" y="-45.5" font-family="Helvetica,sans-Serif" font-size="10.00" fill="#000000">helios_allocate_object</text>
</a>
</g>
</g>
<!-- Node18&#45;&gt;Node19 -->
<g id="edge4" class="edge">
<title>Node18&#45;&gt;Node19</title>
<path fill="none" stroke="#191970" d="M513.0432,-34.4956C526.4679,-36.1519 541.5038,-38.007 556.0302,-39.7992"/>
<polygon fill="#191970" stroke="#191970" points="555.626,-43.2758 565.9794,-41.0267 556.4832,-36.3284 555.626,-43.2758"/>
</g>
<!-- Node20 -->
<g id="node6" class="node">
<title>Node20</title>
<g id="a_node6"><a xlink:href="helios__memory_8h.html#ab14fb1c046aae61ab06eda8eeaf2cd85" target="_top" xlink:title=" ">
<polygon fill="#ffffff" stroke="#000000" points="549,-.5 549,-19.5 696,-19.5 696,-.5 549,-.5"/>
<text text-anchor="middle" x="622.5" y="-7.5" font-family="Helvetica,sans-Serif" font-size="10.00" fill="#000000">helios_set_garbagecollectable</text>
</a>
</g>
</g>
<!-- Node18&#45;&gt;Node20 -->
<g id="edge5" class="edge">
<title>Node18&#45;&gt;Node20</title>
<path fill="none" stroke="#191970" d="M513.0432,-23.5044C521.1755,-22.5011 529.899,-21.4248 538.7423,-20.3337"/>
<polygon fill="#191970" stroke="#191970" points="539.2564,-23.7969 548.7525,-19.0987 538.3992,-16.8496 539.2564,-23.7969"/>
</g>
</g>
</svg>
