<?xml version="1.0" encoding="UTF-8" standalone="no"?>
<!DOCTYPE svg PUBLIC "-//W3C//DTD SVG 1.1//EN"
 "http://www.w3.org/Graphics/SVG/1.1/DTD/svg11.dtd">
<!-- Generated by graphviz version 2.40.1 (20161225.0304)
 -->
<!-- Title: helios_boolean_greaterequal Pages: 1 -->
<svg width="1042pt" height="103pt"
 viewBox="0.00 0.00 1042.00 103.00" xmlns="http://www.w3.org/2000/svg" xmlns:xlink="http://www.w3.org/1999/xlink">
<g id="graph0" class="graph" transform="scale(1 1) rotate(0) translate(4 99)">
<title>helios_boolean_greaterequal</title>
<polygon fill="#ffffff" stroke="transparent" points="-4,4 -4,-99 1038,-99 1038,4 -4,4"/>
<!-- Node24 -->
<g id="node1" class="node">
<title>Node24</title>
<g id="a_node1"><a xlink:title=" ">
<polygon fill="#bfbfbf" stroke="#000000" points="0,-38.5 0,-57.5 158,-57.5 158,-38.5 0,-38.5"/>
<text text-anchor="middle" x="79" y="-45.5" font-family="Helvetica,sans-Serif" font-size="10.00" fill="#000000">helios_boolean_greaterequal</text>
</a>
</g>
</g>
<!-- Node25 -->
<g id="node2" class="node">
<title>Node25</title>
<g id="a_node2"><a xlink:href="helios__integer__compare_8c.html#a58215fdda77903566e97a0e2aad2a42c" target="_top" xlink:title=" ">
<polygon fill="#ffffff" stroke="#000000" points="194,-57.5 194,-76.5 347,-76.5 347,-57.5 194,-57.5"/>
<text text-anchor="middle" x="270.5" y="-64.5" font-family="Helvetica,sans-Serif" font-size="10.00" fill="#000000">helios_integer_greaterequal</text>
</a>
</g>
</g>
<!-- Node24&#45;&gt;Node25 -->
<g id="edge1" class="edge">
<title>Node24&#45;&gt;Node25</title>
<path fill="none" stroke="#191970" d="M158.2727,-55.8652C166.6121,-56.6926 175.1235,-57.5371 183.5434,-58.3724"/>
<polygon fill="#191970" stroke="#191970" points="183.454,-61.8807 193.7507,-59.3852 184.1452,-54.9149 183.454,-61.8807"/>
</g>
<!-- Node28 -->
<g id="node5" class="node">
<title>Node28</title>
<g id="a_node5"><a xlink:href="helios__boolean_8c.html#a856733e7e090437084fcf595bd4e3b8f" target="_top" xlink:title="Convert a boolean to an integer.">
<polygon fill="#ffffff" stroke="#000000" points="383,-19.5 383,-38.5 513,-38.5 513,-19.5 383,-19.5"/>
<text text-anchor="middle" x="448" y="-26.5" font-family="Helvetica,sans-Serif" font-size="10.00" fill="#000000">helios_boolean_integer</text>
</a>
</g>
</g>
<!-- Node24&#45;&gt;Node28 -->
<g id="edge10" class="edge">
<title>Node24&#45;&gt;Node28</title>
<path fill="none" stroke="#191970" d="M158.1598,-43.924C221.6493,-40.6549 310.1667,-36.0971 372.6314,-32.8808"/>
<polygon fill="#191970" stroke="#191970" points="373.0058,-36.3662 382.8126,-32.3565 372.6458,-29.3755 373.0058,-36.3662"/>
</g>
<!-- Node25&#45;&gt;Node25 -->
<g id="edge4" class="edge">
<title>Node25&#45;&gt;Node25</title>
<path fill="none" stroke="#191970" d="M243.3733,-76.7571C230.1765,-85.5653 239.2188,-95 270.5,-95 292.0059,-95 303.0003,-90.5406 303.4834,-84.8913"/>
<polygon fill="#191970" stroke="#191970" points="306.3102,-82.8273 297.6267,-76.7571 300.6294,-86.9175 306.3102,-82.8273"/>
</g>
<!-- Node26 -->
<g id="node3" class="node">
<title>Node26</title>
<g id="a_node3"><a xlink:href="helios__boolean_8c.html#a50e186696d4b9f2e8efdcddc17ab5ce5" target="_top" xlink:title="Create a helios_boolean object from a c boolean type.">
<polygon fill="#ffffff" stroke="#000000" points="388.5,-58 388.5,-88 507.5,-88 507.5,-58 388.5,-58"/>
<text text-anchor="start" x="396.5" y="-76" font-family="Helvetica,sans-Serif" font-size="10.00" fill="#000000">helios_boolean_from</text>
<text text-anchor="middle" x="448" y="-65" font-family="Helvetica,sans-Serif" font-size="10.00" fill="#000000">_cbool</text>
</a>
</g>
</g>
<!-- Node25&#45;&gt;Node26 -->
<g id="edge2" class="edge">
<title>Node25&#45;&gt;Node26</title>
<path fill="none" stroke="#191970" d="M347.0639,-69.5881C357.4085,-69.9378 367.9782,-70.295 378.1965,-70.6404"/>
<polygon fill="#191970" stroke="#191970" points="378.1637,-74.1412 388.2762,-70.9812 378.4002,-67.1452 378.1637,-74.1412"/>
</g>
<!-- Node25&#45;&gt;Node28 -->
<g id="edge5" class="edge">
<title>Node25&#45;&gt;Node28</title>
<path fill="none" stroke="#191970" d="M315.2907,-57.411C339.0303,-52.3287 368.3839,-46.0446 393.4437,-40.6797"/>
<polygon fill="#191970" stroke="#191970" points="394.4856,-44.036 403.5313,-38.5201 393.0202,-37.1911 394.4856,-44.036"/>
</g>
<!-- Node27 -->
<g id="node4" class="node">
<title>Node27</title>
<g id="a_node4"><a xlink:href="helios__boolean_8c.html#ab172c15c28782b45e824c42601484606" target="_top" xlink:title="Create a helios_boolean object from a c integer type.">
<polygon fill="#ffffff" stroke="#000000" points="549,-63.5 549,-82.5 691,-82.5 691,-63.5 549,-63.5"/>
<text text-anchor="middle" x="620" y="-70.5" font-family="Helvetica,sans-Serif" font-size="10.00" fill="#000000">helios_boolean_from_cint</text>
</a>
</g>
</g>
<!-- Node26&#45;&gt;Node27 -->
<g id="edge3" class="edge">
<title>Node26&#45;&gt;Node27</title>
<path fill="none" stroke="#191970" d="M507.6745,-73C517.7479,-73 528.3545,-73 538.864,-73"/>
<polygon fill="#191970" stroke="#191970" points="538.8898,-76.5001 548.8897,-73 538.8897,-69.5001 538.8898,-76.5001"/>
</g>
<!-- Node29 -->
<g id="node6" class="node">
<title>Node29</title>
<g id="a_node6"><a xlink:href="helios__integer_8c.html#af677316afd6536844aeb027f14c198cf" target="_top" xlink:title="Create a helios_integer object from a c integer type.">
<polygon fill="#ffffff" stroke="#000000" points="551.5,-19.5 551.5,-38.5 688.5,-38.5 688.5,-19.5 551.5,-19.5"/>
<text text-anchor="middle" x="620" y="-26.5" font-family="Helvetica,sans-Serif" font-size="10.00" fill="#000000">helios_integer_from_cint</text>
</a>
</g>
</g>
<!-- Node28&#45;&gt;Node29 -->
<g id="edge6" class="edge">
<title>Node28&#45;&gt;Node29</title>
<path fill="none" stroke="#191970" d="M513.0258,-29C522.2476,-29 531.8121,-29 541.259,-29"/>
<polygon fill="#191970" stroke="#191970" points="541.4419,-32.5001 551.4418,-29 541.4418,-25.5001 541.4419,-32.5001"/>
</g>
<!-- Node30 -->
<g id="node7" class="node">
<title>Node30</title>
<g id="a_node7"><a xlink:href="helios__integer_8c.html#a50a26b1e9578164839f3a5bb17e04051" target="_top" xlink:title="Constructor of a helios_integer object.">
<polygon fill="#ffffff" stroke="#000000" points="727,-19.5 727,-38.5 834,-38.5 834,-19.5 727,-19.5"/>
<text text-anchor="middle" x="780.5" y="-26.5" font-family="Helvetica,sans-Serif" font-size="10.00" fill="#000000">helios_integer_init</text>
</a>
</g>
</g>
<!-- Node29&#45;&gt;Node30 -->
<g id="edge7" class="edge">
<title>Node29&#45;&gt;Node30</title>
<path fill="none" stroke="#191970" d="M688.532,-29C697.8177,-29 707.3173,-29 716.519,-29"/>
<polygon fill="#191970" stroke="#191970" points="716.7542,-32.5001 726.7542,-29 716.7541,-25.5001 716.7542,-32.5001"/>
</g>
<!-- Node31 -->
<g id="node8" class="node">
<title>Node31</title>
<g id="a_node8"><a xlink:href="helios__memory_8h.html#af87f0050f8e236d0945592fa4e54dc94" target="_top" xlink:title="Allocates a new helios object (and performs all the GC steps associated with that action).">
<polygon fill="#ffffff" stroke="#000000" points="889.5,-38.5 889.5,-57.5 1014.5,-57.5 1014.5,-38.5 889.5,-38.5"/>
<text text-anchor="middle" x="952" y="-45.5" font-family="Helvetica,sans-Serif" font-size="10.00" fill="#000000">helios_allocate_object</text>
</a>
</g>
</g>
<!-- Node30&#45;&gt;Node31 -->
<g id="edge8" class="edge">
<title>Node30&#45;&gt;Node31</title>
<path fill="none" stroke="#191970" d="M834.2931,-34.9596C848.5001,-36.5335 864.0727,-38.2588 879.106,-39.9243"/>
<polygon fill="#191970" stroke="#191970" points="879.0794,-43.4427 889.404,-41.0652 879.8503,-36.4852 879.0794,-43.4427"/>
</g>
<!-- Node32 -->
<g id="node9" class="node">
<title>Node32</title>
<g id="a_node9"><a xlink:href="helios__memory_8h.html#ab14fb1c046aae61ab06eda8eeaf2cd85" target="_top" xlink:title=" ">
<polygon fill="#ffffff" stroke="#000000" points="870,-.5 870,-19.5 1034,-19.5 1034,-.5 870,-.5"/>
<text text-anchor="middle" x="952" y="-7.5" font-family="Helvetica,sans-Serif" font-size="10.00" fill="#000000">helios_set_garbagecollectable</text>
</a>
</g>
</g>
<!-- Node30&#45;&gt;Node32 -->
<g id="edge9" class="edge">
<title>Node30&#45;&gt;Node32</title>
<path fill="none" stroke="#191970" d="M834.2931,-23.0404C842.4127,-22.1409 850.9784,-21.1919 859.6345,-20.2329"/>
<polygon fill="#191970" stroke="#191970" points="860.2625,-23.6848 869.8162,-19.1049 859.4916,-16.7274 860.2625,-23.6848"/>
</g>
</g>
</svg>
