<?xml version="1.0" encoding="UTF-8" standalone="no"?>
<!DOCTYPE svg PUBLIC "-//W3C//DTD SVG 1.1//EN"
 "http://www.w3.org/Graphics/SVG/1.1/DTD/svg11.dtd">
<!-- Generated by graphviz version 2.40.1 (20161225.0304)
 -->
<!-- Title: main/builtins/string/include/helios_string.h Pages: 1 -->
<!--zoomable 385 -->
<svg id="main" version="1.1" xmlns="http://www.w3.org/2000/svg" xmlns:xlink="http://www.w3.org/1999/xlink" xml:space="preserve" onload="init(evt)">
<style type="text/css"><![CDATA[
.edge:hover path { stroke: red; }
.edge:hover polygon { stroke: red; fill: red; }
]]></style>
<script type="text/javascript"><![CDATA[
var edges = document.getElementsByTagName('g');
if (edges && edges.length) {
  for (var i=0;i<edges.length;i++) {
    if (edges[i].id.substr(0,4)=='edge') {
      edges[i].setAttribute('class','edge');
    }
  }
}
]]></script>
        <defs>
                <circle id="rim" cx="0" cy="0" r="7"/>
                <circle id="rim2" cx="0" cy="0" r="3.5"/>
                <g id="zoomPlus">
                        <use xlink:href="#rim" fill="#404040">
                                <set attributeName="fill" to="#808080" begin="zoomplus.mouseover" end="zoomplus.mouseout"/>
                        </use>
                        <path d="M-4,0h8M0,-4v8" fill="none" stroke="white" stroke-width="1.5" pointer-events="none"/>
                </g>
                <g id="zoomMin">
                        <use xlink:href="#rim" fill="#404040">
                                <set attributeName="fill" to="#808080" begin="zoomminus.mouseover" end="zoomminus.mouseout"/>
                        </use>
                        <path d="M-4,0h8" fill="none" stroke="white" stroke-width="1.5" pointer-events="none"/>
                </g>
                <g id="dirArrow">
                        <path fill="none" stroke="white" stroke-width="1.5" d="M0,-3.0v7 M-2.5,-0.5L0,-3.0L2.5,-0.5"/>
                </g>
               <g id="resetDef">
                       <use xlink:href="#rim2" fill="#404040">
                               <set attributeName="fill" to="#808080" begin="reset.mouseover" end="reset.mouseout"/>
                       </use>
               </g>
        </defs>

<script type="text/javascript">
var viewWidth = 2690;
var viewHeight = 385;
var sectionId = 'dynsection-1';
</script>
<script xlink:href="svgpan.js"/>
<svg id="graph" class="graph">
<g id="viewport">
<title>main/builtins/string/include/helios_string.h</title>
<polygon fill="#ffffff" stroke="transparent" points="-4,4 -4,-381 2686,-381 2686,4 -4,4"/>
<!-- Node9 -->
<g id="node1" class="node">
<title>Node9</title>
<g id="a_node1"><a xlink:title=" ">
<polygon fill="#bfbfbf" stroke="#000000" points="1444.5,-346.5 1444.5,-376.5 1573.5,-376.5 1573.5,-346.5 1444.5,-346.5"/>
<text text-anchor="start" x="1452.5" y="-364.5" font-family="Helvetica,sans-Serif" font-size="10.00" fill="#000000">main/builtins/string</text>
<text text-anchor="middle" x="1509" y="-353.5" font-family="Helvetica,sans-Serif" font-size="10.00" fill="#000000">/include/helios_string.h</text>
</a>
</g>
</g>
<!-- Node10 -->
<g id="node2" class="node">
<title>Node10</title>
<g id="a_node2"><a xlink:href="helios__boolean_8c.html" target="_top" xlink:title=" ">
<polygon fill="#ffffff" stroke="#000000" points="0,-279.5 0,-309.5 122,-309.5 122,-279.5 0,-279.5"/>
<text text-anchor="start" x="8" y="-297.5" font-family="Helvetica,sans-Serif" font-size="10.00" fill="#000000">main/builtins/boolean</text>
<text text-anchor="middle" x="61" y="-286.5" font-family="Helvetica,sans-Serif" font-size="10.00" fill="#000000">/helios_boolean.c</text>
</a>
</g>
</g>
<!-- Node9&#45;&gt;Node10 -->
<g id="edge1" class="edge">
<title>Node9&#45;&gt;Node10</title>
<path fill="none" stroke="#191970" d="M1434.2844,-360.3361C1186.1123,-356.213 390.5851,-340.8642 136,-310 131.5122,-309.4559 126.8936,-308.783 122.258,-308.025"/>
<polygon fill="#191970" stroke="#191970" points="1434.2296,-363.8356 1444.286,-360.5011 1434.3451,-356.8365 1434.2296,-363.8356"/>
</g>
<!-- Node11 -->
<g id="node3" class="node">
<title>Node11</title>
<g id="a_node3"><a xlink:href="helios__code_8c.html" target="_top" xlink:title=" ">
<polygon fill="#ffffff" stroke="#000000" points="156.5,-67.5 156.5,-97.5 263.5,-97.5 263.5,-67.5 156.5,-67.5"/>
<text text-anchor="start" x="164.5" y="-85.5" font-family="Helvetica,sans-Serif" font-size="10.00" fill="#000000">main/builtins/code</text>
<text text-anchor="middle" x="210" y="-74.5" font-family="Helvetica,sans-Serif" font-size="10.00" fill="#000000">/helios_code.c</text>
</a>
</g>
</g>
<!-- Node9&#45;&gt;Node11 -->
<g id="edge2" class="edge">
<title>Node9&#45;&gt;Node11</title>
<path fill="none" stroke="#191970" d="M1434.2411,-358.7974C1263.26,-352.2733 847.8264,-334.3817 710,-310 605.9968,-291.6017 578.8875,-285.0472 482,-243 383.1643,-200.1074 275.8009,-128.4988 231.2328,-97.5291"/>
<polygon fill="#191970" stroke="#191970" points="1434.2838,-362.3015 1444.4093,-359.183 1434.5491,-355.3065 1434.2838,-362.3015"/>
</g>
<!-- Node12 -->
<g id="node4" class="node">
<title>Node12</title>
<g id="a_node4"><a xlink:href="helios__instruction_8c.html" target="_top" xlink:title=" ">
<polygon fill="#ffffff" stroke="#000000" points="282,-67.5 282,-97.5 396,-97.5 396,-67.5 282,-67.5"/>
<text text-anchor="start" x="290" y="-85.5" font-family="Helvetica,sans-Serif" font-size="10.00" fill="#000000">main/builtins/code</text>
<text text-anchor="middle" x="339" y="-74.5" font-family="Helvetica,sans-Serif" font-size="10.00" fill="#000000">/helios_instruction.c</text>
</a>
</g>
</g>
<!-- Node9&#45;&gt;Node12 -->
<g id="edge3" class="edge">
<title>Node9&#45;&gt;Node12</title>
<path fill="none" stroke="#191970" d="M1434.2267,-356.8976C1239.7302,-344.1728 722.0842,-305.2839 563,-243 474.3483,-208.2915 388.1673,-130.5596 354.1848,-97.6653"/>
<polygon fill="#191970" stroke="#191970" points="1434.1467,-360.3997 1444.3526,-357.5555 1434.6006,-353.4144 1434.1467,-360.3997"/>
</g>
<!-- Node13 -->
<g id="node5" class="node">
<title>Node13</title>
<g id="a_node5"><a xlink:href="helios__float_8c.html" target="_top" xlink:title=" ">
<polygon fill="#ffffff" stroke="#000000" points="1521.5,-279.5 1521.5,-309.5 1626.5,-309.5 1626.5,-279.5 1521.5,-279.5"/>
<text text-anchor="start" x="1529.5" y="-297.5" font-family="Helvetica,sans-Serif" font-size="10.00" fill="#000000">main/builtins/float</text>
<text text-anchor="middle" x="1574" y="-286.5" font-family="Helvetica,sans-Serif" font-size="10.00" fill="#000000">/helios_float.c</text>
</a>
</g>
</g>
<!-- Node9&#45;&gt;Node13 -->
<g id="edge4" class="edge">
<title>Node9&#45;&gt;Node13</title>
<path fill="none" stroke="#191970" d="M1530.9008,-338.9253C1540.2555,-329.2828 1550.9257,-318.2843 1559.3089,-309.6432"/>
<polygon fill="#191970" stroke="#191970" points="1528.2006,-336.6821 1523.7495,-346.2967 1533.2248,-341.5564 1528.2006,-336.6821"/>
</g>
<!-- Node14 -->
<g id="node6" class="node">
<title>Node14</title>
<g id="a_node6"><a xlink:href="strtod_8c.html" target="_top" xlink:title=" ">
<polygon fill="#ffffff" stroke="#000000" points="1644.5,-279.5 1644.5,-309.5 1749.5,-309.5 1749.5,-279.5 1644.5,-279.5"/>
<text text-anchor="start" x="1652.5" y="-297.5" font-family="Helvetica,sans-Serif" font-size="10.00" fill="#000000">main/builtins/float</text>
<text text-anchor="middle" x="1697" y="-286.5" font-family="Helvetica,sans-Serif" font-size="10.00" fill="#000000">/strtod.c</text>
</a>
</g>
</g>
<!-- Node9&#45;&gt;Node14 -->
<g id="edge5" class="edge">
<title>Node9&#45;&gt;Node14</title>
<path fill="none" stroke="#191970" d="M1560.9041,-343.0023C1590.4004,-332.4903 1626.8663,-319.4945 1654.6251,-309.6017"/>
<polygon fill="#191970" stroke="#191970" points="1559.4356,-339.8099 1551.1909,-346.4639 1561.7855,-346.4037 1559.4356,-339.8099"/>
</g>
<!-- Node15 -->
<g id="node7" class="node">
<title>Node15</title>
<g id="a_node7"><a xlink:href="builtins_8h.html" target="_top" xlink:title=" ">
<polygon fill="#ffffff" stroke="#000000" points="1384.5,-279.5 1384.5,-309.5 1503.5,-309.5 1503.5,-279.5 1384.5,-279.5"/>
<text text-anchor="start" x="1392.5" y="-297.5" font-family="Helvetica,sans-Serif" font-size="10.00" fill="#000000">main/builtins/include</text>
<text text-anchor="middle" x="1444" y="-286.5" font-family="Helvetica,sans-Serif" font-size="10.00" fill="#000000">/builtins.h</text>
</a>
</g>
</g>
<!-- Node9&#45;&gt;Node15 -->
<g id="edge6" class="edge">
<title>Node9&#45;&gt;Node15</title>
<path fill="none" stroke="#191970" d="M1487.0992,-338.9253C1477.7445,-329.2828 1467.0743,-318.2843 1458.6911,-309.6432"/>
<polygon fill="#191970" stroke="#191970" points="1484.7752,-341.5564 1494.2505,-346.2967 1489.7994,-336.6821 1484.7752,-341.5564"/>
</g>
<!-- Node44 -->
<g id="node36" class="node">
<title>Node44</title>
<g id="a_node36"><a xlink:href="helios__integer_8c.html" target="_top" xlink:title=" ">
<polygon fill="#ffffff" stroke="#000000" points="1768,-279.5 1768,-309.5 1886,-309.5 1886,-279.5 1768,-279.5"/>
<text text-anchor="start" x="1776" y="-297.5" font-family="Helvetica,sans-Serif" font-size="10.00" fill="#000000">main/builtins/integer</text>
<text text-anchor="middle" x="1827" y="-286.5" font-family="Helvetica,sans-Serif" font-size="10.00" fill="#000000">/helios_integer.c</text>
</a>
</g>
</g>
<!-- Node9&#45;&gt;Node44 -->
<g id="edge59" class="edge">
<title>Node9&#45;&gt;Node44</title>
<path fill="none" stroke="#191970" d="M1583.5955,-346.5587C1633.3373,-336.491 1700.1513,-322.767 1759,-310 1761.8399,-309.3839 1764.7451,-308.7471 1767.6782,-308.0988"/>
<polygon fill="#191970" stroke="#191970" points="1582.6744,-343.174 1573.5661,-348.586 1584.0613,-350.0353 1582.6744,-343.174"/>
</g>
<!-- Node45 -->
<g id="node37" class="node">
<title>Node45</title>
<g id="a_node37"><a xlink:href="helios__string_8c.html" target="_top" xlink:title=" ">
<polygon fill="#ffffff" stroke="#000000" points="1904.5,-279.5 1904.5,-309.5 2015.5,-309.5 2015.5,-279.5 1904.5,-279.5"/>
<text text-anchor="start" x="1912.5" y="-297.5" font-family="Helvetica,sans-Serif" font-size="10.00" fill="#000000">main/builtins/string</text>
<text text-anchor="middle" x="1960" y="-286.5" font-family="Helvetica,sans-Serif" font-size="10.00" fill="#000000">/helios_string.c</text>
</a>
</g>
</g>
<!-- Node9&#45;&gt;Node45 -->
<g id="edge60" class="edge">
<title>Node9&#45;&gt;Node45</title>
<path fill="none" stroke="#191970" d="M1583.7307,-353.8046C1661.7489,-345.2395 1787.4856,-329.9381 1895,-310 1898.0798,-309.4289 1901.233,-308.8058 1904.4098,-308.1481"/>
<polygon fill="#191970" stroke="#191970" points="1583.0787,-350.3548 1573.5166,-354.9173 1583.8369,-357.3136 1583.0787,-350.3548"/>
</g>
<!-- Node16 -->
<g id="node8" class="node">
<title>Node16</title>
<g id="a_node8"><a xlink:href="buitlins_8c.html" target="_top" xlink:title=" ">
<polygon fill="#ffffff" stroke="#000000" points="704,-212.5 704,-231.5 832,-231.5 832,-212.5 704,-212.5"/>
<text text-anchor="middle" x="768" y="-219.5" font-family="Helvetica,sans-Serif" font-size="10.00" fill="#000000">main/builtins/buitlins.c</text>
</a>
</g>
</g>
<!-- Node15&#45;&gt;Node16 -->
<g id="edge7" class="edge">
<title>Node15&#45;&gt;Node16</title>
<path fill="none" stroke="#191970" d="M1374.1992,-292.9454C1261.2674,-289.4468 1031.8675,-278.2556 841,-243 826.0866,-240.2453 809.8407,-235.7278 796.469,-231.5871"/>
<polygon fill="#191970" stroke="#191970" points="1374.3306,-296.4508 1384.4307,-293.2511 1374.5397,-289.4539 1374.3306,-296.4508"/>
</g>
<!-- Node17 -->
<g id="node9" class="node">
<title>Node17</title>
<g id="a_node9"><a xlink:href="helios__hashmap_8c.html" target="_top" xlink:title=" ">
<polygon fill="#ffffff" stroke="#000000" points="850,-207 850,-237 978,-237 978,-207 850,-207"/>
<text text-anchor="start" x="858" y="-225" font-family="Helvetica,sans-Serif" font-size="10.00" fill="#000000">main/builtins/hashmap</text>
<text text-anchor="middle" x="914" y="-214" font-family="Helvetica,sans-Serif" font-size="10.00" fill="#000000">/helios_hashmap.c</text>
</a>
</g>
</g>
<!-- Node15&#45;&gt;Node17 -->
<g id="edge8" class="edge">
<title>Node15&#45;&gt;Node17</title>
<path fill="none" stroke="#191970" d="M1374.2576,-290.2944C1284.1487,-284.0283 1122.7293,-269.9719 987,-243 978.8512,-241.3807 970.292,-239.2866 962.0181,-237.0494"/>
<polygon fill="#191970" stroke="#191970" points="1374.1371,-293.7943 1384.3525,-290.9845 1374.6145,-286.8106 1374.1371,-293.7943"/>
</g>
<!-- Node18 -->
<g id="node10" class="node">
<title>Node18</title>
<g id="a_node10"><a xlink:href="serialize_8c.html" target="_top" xlink:title=" ">
<polygon fill="#ffffff" stroke="#000000" points="996.5,-207 996.5,-237 1139.5,-237 1139.5,-207 996.5,-207"/>
<text text-anchor="start" x="1004.5" y="-225" font-family="Helvetica,sans-Serif" font-size="10.00" fill="#000000">main/builtins/serialization</text>
<text text-anchor="middle" x="1068" y="-214" font-family="Helvetica,sans-Serif" font-size="10.00" fill="#000000">/serialize.c</text>
</a>
</g>
</g>
<!-- Node15&#45;&gt;Node18 -->
<g id="edge9" class="edge">
<title>Node15&#45;&gt;Node18</title>
<path fill="none" stroke="#191970" d="M1374.4208,-283.4232C1315.5245,-273.7413 1228.971,-258.7936 1154,-243 1145.4277,-241.1941 1136.4092,-239.1514 1127.5682,-237.0667"/>
<polygon fill="#191970" stroke="#191970" points="1373.9231,-286.8882 1384.3572,-285.0498 1375.054,-279.9802 1373.9231,-286.8882"/>
</g>
<!-- Node19 -->
<g id="node11" class="node">
<title>Node19</title>
<g id="a_node11"><a xlink:href="main_8c.html" target="_top" xlink:title=" ">
<polygon fill="#ffffff" stroke="#000000" points="2032,-6 2032,-25 2138,-25 2138,-6 2032,-6"/>
<text text-anchor="middle" x="2085" y="-13" font-family="Helvetica,sans-Serif" font-size="10.00" fill="#000000">main/entry/main.c</text>
</a>
</g>
</g>
<!-- Node15&#45;&gt;Node19 -->
<g id="edge10" class="edge">
<title>Node15&#45;&gt;Node19</title>
<path fill="none" stroke="#191970" d="M1513.5582,-279.4159C1629.69,-272.5802 2460.3667,-280.9967 2497,-243 2614.109,-121.5327 2274.2126,-47.9991 2138.3898,-24.1037"/>
<polygon fill="#191970" stroke="#191970" points="1513.262,-275.9284 1503.5897,-280.2523 1513.8473,-282.9039 1513.262,-275.9284"/>
</g>
<!-- Node20 -->
<g id="node12" class="node">
<title>Node20</title>
<g id="a_node12"><a xlink:href="executestack_8c.html" target="_top" xlink:title=" ">
<polygon fill="#ffffff" stroke="#000000" points="1233.5,-140 1233.5,-159 1376.5,-159 1376.5,-140 1233.5,-140"/>
<text text-anchor="middle" x="1305" y="-147" font-family="Helvetica,sans-Serif" font-size="10.00" fill="#000000">main/hvm/executestack.c</text>
</a>
</g>
</g>
<!-- Node15&#45;&gt;Node20 -->
<g id="edge11" class="edge">
<title>Node15&#45;&gt;Node20</title>
<path fill="none" stroke="#191970" d="M1374.1927,-287.4449C1317.2949,-280.0826 1243.4456,-266.2864 1225,-243 1213.4095,-228.3677 1216.0603,-217.3868 1225,-201 1236.0749,-180.6993 1258.9624,-167.2003 1277.4303,-159.135"/>
<polygon fill="#191970" stroke="#191970" points="1373.8852,-290.9337 1384.2424,-288.7021 1374.7542,-283.9878 1373.8852,-290.9337"/>
</g>
<!-- Node21 -->
<g id="node13" class="node">
<title>Node21</title>
<g id="a_node13"><a xlink:href="hvm_8c.html" target="_top" xlink:title=" ">
<polygon fill="#ffffff" stroke="#000000" points="1394.5,-140 1394.5,-159 1493.5,-159 1493.5,-140 1394.5,-140"/>
<text text-anchor="middle" x="1444" y="-147" font-family="Helvetica,sans-Serif" font-size="10.00" fill="#000000">main/hvm/hvm.c</text>
</a>
</g>
</g>
<!-- Node15&#45;&gt;Node21 -->
<g id="edge12" class="edge">
<title>Node15&#45;&gt;Node21</title>
<path fill="none" stroke="#191970" d="M1444,-269.1555C1444,-236.6036 1444,-181.6508 1444,-159.348"/>
<polygon fill="#191970" stroke="#191970" points="1440.5001,-269.2565 1444,-279.2565 1447.5001,-269.2566 1440.5001,-269.2565"/>
</g>
<!-- Node22 -->
<g id="node14" class="node">
<title>Node22</title>
<g id="a_node14"><a xlink:href="executestack_8h.html" target="_top" xlink:title=" ">
<polygon fill="#ffffff" stroke="#000000" points="1234,-212.5 1234,-231.5 1416,-231.5 1416,-212.5 1234,-212.5"/>
<text text-anchor="middle" x="1325" y="-219.5" font-family="Helvetica,sans-Serif" font-size="10.00" fill="#000000">main/hvm/include/executestack.h</text>
</a>
</g>
</g>
<!-- Node15&#45;&gt;Node22 -->
<g id="edge13" class="edge">
<title>Node15&#45;&gt;Node22</title>
<path fill="none" stroke="#191970" d="M1410.6404,-274.1759C1387.8331,-260.2807 1358.6301,-242.4889 1340.8927,-231.6825"/>
<polygon fill="#191970" stroke="#191970" points="1408.9822,-277.264 1419.3431,-279.478 1412.6242,-271.286 1408.9822,-277.264"/>
</g>
<!-- Node23 -->
<g id="node15" class="node">
<title>Node23</title>
<g id="a_node15"><a xlink:href="hvm_8h.html" target="_top" xlink:title=" ">
<polygon fill="#ffffff" stroke="#000000" points="2544,-73 2544,-92 2682,-92 2682,-73 2544,-73"/>
<text text-anchor="middle" x="2613" y="-80" font-family="Helvetica,sans-Serif" font-size="10.00" fill="#000000">main/hvm/include/hvm.h</text>
</a>
</g>
</g>
<!-- Node15&#45;&gt;Node23 -->
<g id="edge16" class="edge">
<title>Node15&#45;&gt;Node23</title>
<path fill="none" stroke="#191970" d="M1513.6377,-279.1806C1663.3626,-266.2121 2436.7088,-302.0678 2530,-243 2585.9236,-207.5917 2606.0456,-121.5182 2611.3917,-92.3521"/>
<polygon fill="#191970" stroke="#191970" points="1513.1634,-275.7112 1503.5892,-280.2482 1513.903,-282.672 1513.1634,-275.7112"/>
</g>
<!-- Node24 -->
<g id="node16" class="node">
<title>Node24</title>
<g id="a_node16"><a xlink:href="token_8h.html" target="_top" xlink:title=" ">
<polygon fill="#ffffff" stroke="#000000" points="572.5,-207 572.5,-237 685.5,-237 685.5,-207 572.5,-207"/>
<text text-anchor="start" x="580.5" y="-225" font-family="Helvetica,sans-Serif" font-size="10.00" fill="#000000">main/parser/include</text>
<text text-anchor="middle" x="629" y="-214" font-family="Helvetica,sans-Serif" font-size="10.00" fill="#000000">/token.h</text>
</a>
</g>
</g>
<!-- Node15&#45;&gt;Node24 -->
<g id="edge18" class="edge">
<title>Node15&#45;&gt;Node24</title>
<path fill="none" stroke="#191970" d="M1374.0389,-291.8301C1213.7746,-285.3671 823.966,-267.5823 695,-243 687.2043,-241.514 679.0414,-239.3985 671.2188,-237.0767"/>
<polygon fill="#191970" stroke="#191970" points="1374.126,-295.3363 1384.2581,-292.2394 1374.4062,-288.3419 1374.126,-295.3363"/>
</g>
<!-- Node35 -->
<g id="node27" class="node">
<title>Node35</title>
<g id="a_node27"><a xlink:href="parserutil__test_8c.html" target="_top" xlink:title=" ">
<polygon fill="#ffffff" stroke="#000000" points="1390.5,-.5 1390.5,-30.5 1509.5,-30.5 1509.5,-.5 1390.5,-.5"/>
<text text-anchor="start" x="1398.5" y="-18.5" font-family="Helvetica,sans-Serif" font-size="10.00" fill="#000000">test/parser/parserutil</text>
<text text-anchor="middle" x="1450" y="-7.5" font-family="Helvetica,sans-Serif" font-size="10.00" fill="#000000">_test.c</text>
</a>
</g>
</g>
<!-- Node15&#45;&gt;Node35 -->
<g id="edge58" class="edge">
<title>Node15&#45;&gt;Node35</title>
<path fill="none" stroke="#191970" d="M1458.5073,-270.4388C1472.8087,-245.2026 1493.6913,-203.8781 1502,-165 1512.797,-114.4783 1479.692,-57.534 1461.3431,-30.847"/>
<polygon fill="#191970" stroke="#191970" points="1455.3678,-268.8761 1453.3883,-279.2844 1461.4265,-272.3823 1455.3678,-268.8761"/>
</g>
<!-- Node36 -->
<g id="node28" class="node">
<title>Node36</title>
<g id="a_node28"><a xlink:href="token_8c.html" target="_top" xlink:title=" ">
<polygon fill="#ffffff" stroke="#000000" points="1101,-140 1101,-159 1215,-159 1215,-140 1101,-140"/>
<text text-anchor="middle" x="1158" y="-147" font-family="Helvetica,sans-Serif" font-size="10.00" fill="#000000">main/parser/token.c</text>
</a>
</g>
</g>
<!-- Node15&#45;&gt;Node36 -->
<g id="edge50" class="edge">
<title>Node15&#45;&gt;Node36</title>
<path fill="none" stroke="#191970" d="M1374.1163,-285.0293C1316.1564,-276.0687 1239.3043,-261.2845 1214,-243 1184.0937,-221.3902 1167.2557,-178.4514 1160.9294,-159.2154"/>
<polygon fill="#191970" stroke="#191970" points="1373.9249,-288.5402 1384.3368,-286.5798 1374.9749,-281.6194 1373.9249,-288.5402"/>
</g>
<!-- Node37 -->
<g id="node29" class="node">
<title>Node37</title>
<g id="a_node29"><a xlink:href="builtins__test_8c.html" target="_top" xlink:title=" ">
<polygon fill="#ffffff" stroke="#000000" points="1510.5,-207 1510.5,-237 1623.5,-237 1623.5,-207 1510.5,-207"/>
<text text-anchor="start" x="1518.5" y="-225" font-family="Helvetica,sans-Serif" font-size="10.00" fill="#000000">test/builtins/builtins</text>
<text text-anchor="middle" x="1567" y="-214" font-family="Helvetica,sans-Serif" font-size="10.00" fill="#000000">_test.c</text>
</a>
</g>
</g>
<!-- Node15&#45;&gt;Node37 -->
<g id="edge51" class="edge">
<title>Node15&#45;&gt;Node37</title>
<path fill="none" stroke="#191970" d="M1478.3182,-274.2718C1498.3703,-262.4525 1523.2486,-247.7884 1541.547,-237.0028"/>
<polygon fill="#191970" stroke="#191970" points="1476.3233,-271.3849 1469.4857,-279.478 1479.8778,-277.4153 1476.3233,-271.3849"/>
</g>
<!-- Node38 -->
<g id="node30" class="node">
<title>Node38</title>
<g id="a_node30"><a xlink:href="helios__float__math__test_8c.html" target="_top" xlink:title=" ">
<polygon fill="#ffffff" stroke="#000000" points="1641.5,-207 1641.5,-237 1780.5,-237 1780.5,-207 1641.5,-207"/>
<text text-anchor="start" x="1649.5" y="-225" font-family="Helvetica,sans-Serif" font-size="10.00" fill="#000000">test/builtins/float</text>
<text text-anchor="middle" x="1711" y="-214" font-family="Helvetica,sans-Serif" font-size="10.00" fill="#000000">/helios_float_math_test.c</text>
</a>
</g>
</g>
<!-- Node15&#45;&gt;Node38 -->
<g id="edge52" class="edge">
<title>Node15&#45;&gt;Node38</title>
<path fill="none" stroke="#191970" d="M1508.9739,-276.8573C1553.9167,-264.6537 1613.0752,-248.5901 1655.7483,-237.0028"/>
<polygon fill="#191970" stroke="#191970" points="1508.0559,-273.4797 1499.3226,-279.478 1509.8903,-280.2351 1508.0559,-273.4797"/>
</g>
<!-- Node39 -->
<g id="node31" class="node">
<title>Node39</title>
<g id="a_node31"><a xlink:href="helios__float__test_8c.html" target="_top" xlink:title=" ">
<polygon fill="#ffffff" stroke="#000000" points="1799,-207 1799,-237 1907,-237 1907,-207 1799,-207"/>
<text text-anchor="start" x="1807" y="-225" font-family="Helvetica,sans-Serif" font-size="10.00" fill="#000000">test/builtins/float</text>
<text text-anchor="middle" x="1853" y="-214" font-family="Helvetica,sans-Serif" font-size="10.00" fill="#000000">/helios_float_test.c</text>
</a>
</g>
</g>
<!-- Node15&#45;&gt;Node39 -->
<g id="edge53" class="edge">
<title>Node15&#45;&gt;Node39</title>
<path fill="none" stroke="#191970" d="M1513.8027,-278.7898C1636.5018,-257.8244 1671.7625,-270.0946 1790,-243 1797.0798,-241.3776 1804.4905,-239.282 1811.6404,-237.0442"/>
<polygon fill="#191970" stroke="#191970" points="1512.8858,-275.397 1503.6385,-280.5677 1514.092,-282.2923 1512.8858,-275.397"/>
</g>
<!-- Node40 -->
<g id="node32" class="node">
<title>Node40</title>
<g id="a_node32"><a xlink:href="helios__hashmap__test_8c.html" target="_top" xlink:title=" ">
<polygon fill="#ffffff" stroke="#000000" points="1925.5,-207 1925.5,-237 2056.5,-237 2056.5,-207 1925.5,-207"/>
<text text-anchor="start" x="1933.5" y="-225" font-family="Helvetica,sans-Serif" font-size="10.00" fill="#000000">test/builtins/hashmap</text>
<text text-anchor="middle" x="1991" y="-214" font-family="Helvetica,sans-Serif" font-size="10.00" fill="#000000">/helios_hashmap_test.c</text>
</a>
</g>
</g>
<!-- Node15&#45;&gt;Node40 -->
<g id="edge54" class="edge">
<title>Node15&#45;&gt;Node40</title>
<path fill="none" stroke="#191970" d="M1513.5875,-278.8835C1691.8626,-251.7724 1741.8795,-274.854 1916,-243 1924.5126,-241.4427 1933.4563,-239.3515 1942.0837,-237.0908"/>
<polygon fill="#191970" stroke="#191970" points="1512.9603,-275.4388 1503.6156,-280.4315 1514.0342,-282.356 1512.9603,-275.4388"/>
</g>
<!-- Node41 -->
<g id="node33" class="node">
<title>Node41</title>
<g id="a_node33"><a xlink:href="helios__integer__compare__test_8c.html" target="_top" xlink:title=" ">
<polygon fill="#ffffff" stroke="#000000" points="2074.5,-201.5 2074.5,-242.5 2211.5,-242.5 2211.5,-201.5 2074.5,-201.5"/>
<text text-anchor="start" x="2082.5" y="-230.5" font-family="Helvetica,sans-Serif" font-size="10.00" fill="#000000">test/builtins/integer</text>
<text text-anchor="start" x="2082.5" y="-219.5" font-family="Helvetica,sans-Serif" font-size="10.00" fill="#000000">/helios_integer_compare</text>
<text text-anchor="middle" x="2143" y="-208.5" font-family="Helvetica,sans-Serif" font-size="10.00" fill="#000000">_test.c</text>
</a>
</g>
</g>
<!-- Node15&#45;&gt;Node41 -->
<g id="edge55" class="edge">
<title>Node15&#45;&gt;Node41</title>
<path fill="none" stroke="#191970" d="M1513.8589,-278.8796C1758.0204,-244.5535 1825.9601,-283.1109 2066,-243 2068.7334,-242.5433 2071.5096,-242.0297 2074.3053,-241.471"/>
<polygon fill="#191970" stroke="#191970" points="1513.0054,-275.4661 1503.6031,-280.3495 1513.9986,-282.3953 1513.0054,-275.4661"/>
</g>
<!-- Node42 -->
<g id="node34" class="node">
<title>Node42</title>
<g id="a_node34"><a xlink:href="helios__integer__math__test_8c.html" target="_top" xlink:title=" ">
<polygon fill="#ffffff" stroke="#000000" points="2229.5,-201.5 2229.5,-242.5 2348.5,-242.5 2348.5,-201.5 2229.5,-201.5"/>
<text text-anchor="start" x="2237.5" y="-230.5" font-family="Helvetica,sans-Serif" font-size="10.00" fill="#000000">test/builtins/integer</text>
<text text-anchor="start" x="2237.5" y="-219.5" font-family="Helvetica,sans-Serif" font-size="10.00" fill="#000000">/helios_integer_math</text>
<text text-anchor="middle" x="2289" y="-208.5" font-family="Helvetica,sans-Serif" font-size="10.00" fill="#000000">_test.c</text>
</a>
</g>
</g>
<!-- Node15&#45;&gt;Node42 -->
<g id="edge56" class="edge">
<title>Node15&#45;&gt;Node42</title>
<path fill="none" stroke="#191970" d="M1513.8584,-278.9028C1826.4111,-237.1001 1913.6467,-297.3846 2221,-243 2223.6767,-242.5264 2226.3955,-241.9791 2229.1294,-241.3742"/>
<polygon fill="#191970" stroke="#191970" points="1513.0322,-275.4829 1503.5962,-280.301 1513.9772,-282.4189 1513.0322,-275.4829"/>
</g>
<!-- Node43 -->
<g id="node35" class="node">
<title>Node43</title>
<g id="a_node35"><a xlink:href="helios__integer__test_8c.html" target="_top" xlink:title=" ">
<polygon fill="#ffffff" stroke="#000000" points="2366.5,-207 2366.5,-237 2487.5,-237 2487.5,-207 2366.5,-207"/>
<text text-anchor="start" x="2374.5" y="-225" font-family="Helvetica,sans-Serif" font-size="10.00" fill="#000000">test/builtins/integer</text>
<text text-anchor="middle" x="2427" y="-214" font-family="Helvetica,sans-Serif" font-size="10.00" fill="#000000">/helios_integer_test.c</text>
</a>
</g>
</g>
<!-- Node15&#45;&gt;Node43 -->
<g id="edge57" class="edge">
<title>Node15&#45;&gt;Node43</title>
<path fill="none" stroke="#191970" d="M1513.5847,-278.9499C1886.8147,-230.3231 1990.2808,-305.737 2358,-243 2366.3935,-241.568 2375.1963,-239.415 2383.5988,-237.0252"/>
<polygon fill="#191970" stroke="#191970" points="1513.0465,-275.4905 1503.5924,-280.2728 1513.9653,-282.4299 1513.0465,-275.4905"/>
</g>
<!-- Node22&#45;&gt;Node20 -->
<g id="edge14" class="edge">
<title>Node22&#45;&gt;Node20</title>
<path fill="none" stroke="#191970" d="M1319.6261,-202.5195C1315.7538,-188.4826 1310.6945,-170.1427 1307.6546,-159.1228"/>
<polygon fill="#191970" stroke="#191970" points="1316.2694,-203.5132 1322.3027,-212.2223 1323.0173,-201.6516 1316.2694,-203.5132"/>
</g>
<!-- Node22&#45;&gt;Node21 -->
<g id="edge15" class="edge">
<title>Node22&#45;&gt;Node21</title>
<path fill="none" stroke="#191970" d="M1349.7912,-206.8961C1373.3824,-192.5233 1408.1669,-171.3311 1428.2054,-159.1228"/>
<polygon fill="#191970" stroke="#191970" points="1347.7678,-204.0304 1341.0489,-212.2223 1351.4098,-210.0084 1347.7678,-204.0304"/>
</g>
<!-- Node23&#45;&gt;Node19 -->
<g id="edge17" class="edge">
<title>Node23&#45;&gt;Node19</title>
<path fill="none" stroke="#191970" d="M2555.3907,-71.2079C2546.8926,-69.6974 2538.2301,-68.2432 2530,-67 2389.0803,-45.7137 2221.8896,-28.5132 2138.2455,-20.4562"/>
<polygon fill="#191970" stroke="#191970" points="2554.7914,-74.6562 2565.2556,-72.9977 2556.041,-67.7687 2554.7914,-74.6562"/>
</g>
<!-- Node25 -->
<g id="node17" class="node">
<title>Node25</title>
<g id="a_node17"><a xlink:href="AST_8c.html" target="_top" xlink:title=" ">
<polygon fill="#ffffff" stroke="#000000" points="433,-6 433,-25 537,-25 537,-6 433,-6"/>
<text text-anchor="middle" x="485" y="-13" font-family="Helvetica,sans-Serif" font-size="10.00" fill="#000000">main/parser/AST.c</text>
</a>
</g>
</g>
<!-- Node24&#45;&gt;Node25 -->
<g id="edge19" class="edge">
<title>Node24&#45;&gt;Node25</title>
<path fill="none" stroke="#191970" d="M612.6166,-198.5058C581.0975,-153.3065 513.2301,-55.9827 491.6984,-25.1057"/>
<polygon fill="#191970" stroke="#191970" points="609.8204,-200.615 618.4113,-206.8156 615.5622,-196.611 609.8204,-200.615"/>
</g>
<!-- Node26 -->
<g id="node18" class="node">
<title>Node26</title>
<g id="a_node18"><a xlink:href="AST_8h.html" target="_top" xlink:title=" ">
<polygon fill="#ffffff" stroke="#000000" points="642.5,-134.5 642.5,-164.5 755.5,-164.5 755.5,-134.5 642.5,-134.5"/>
<text text-anchor="start" x="650.5" y="-152.5" font-family="Helvetica,sans-Serif" font-size="10.00" fill="#000000">main/parser/include</text>
<text text-anchor="middle" x="699" y="-141.5" font-family="Helvetica,sans-Serif" font-size="10.00" fill="#000000">/AST.h</text>
</a>
</g>
</g>
<!-- Node24&#45;&gt;Node26 -->
<g id="edge20" class="edge">
<title>Node24&#45;&gt;Node26</title>
<path fill="none" stroke="#191970" d="M650.7208,-199.5035C661.7133,-188.1184 674.7576,-174.6083 684.5145,-164.5028"/>
<polygon fill="#191970" stroke="#191970" points="647.9321,-197.3528 643.504,-206.978 652.9679,-202.215 647.9321,-197.3528"/>
</g>
<!-- Node28 -->
<g id="node20" class="node">
<title>Node28</title>
<g id="a_node20"><a xlink:href="compound_8c.html" target="_top" xlink:title=" ">
<polygon fill="#ffffff" stroke="#000000" points="555.5,-.5 555.5,-30.5 690.5,-30.5 690.5,-.5 555.5,-.5"/>
<text text-anchor="start" x="563.5" y="-18.5" font-family="Helvetica,sans-Serif" font-size="10.00" fill="#000000">main/parser/parserfuncs</text>
<text text-anchor="middle" x="623" y="-7.5" font-family="Helvetica,sans-Serif" font-size="10.00" fill="#000000">/compound.c</text>
</a>
</g>
</g>
<!-- Node24&#45;&gt;Node28 -->
<g id="edge43" class="edge">
<title>Node24&#45;&gt;Node28</title>
<path fill="none" stroke="#191970" d="M628.2677,-196.7974C627.0075,-153.4233 624.4654,-65.9334 623.4418,-30.7067"/>
<polygon fill="#191970" stroke="#191970" points="624.7698,-196.9215 628.5588,-206.8156 631.7668,-196.7181 624.7698,-196.9215"/>
</g>
<!-- Node29 -->
<g id="node21" class="node">
<title>Node29</title>
<g id="a_node21"><a xlink:href="expressions_8c.html" target="_top" xlink:title=" ">
<polygon fill="#ffffff" stroke="#000000" points="859.5,-.5 859.5,-30.5 994.5,-30.5 994.5,-.5 859.5,-.5"/>
<text text-anchor="start" x="867.5" y="-18.5" font-family="Helvetica,sans-Serif" font-size="10.00" fill="#000000">main/parser/parserfuncs</text>
<text text-anchor="middle" x="927" y="-7.5" font-family="Helvetica,sans-Serif" font-size="10.00" fill="#000000">/expressions.c</text>
</a>
</g>
</g>
<!-- Node24&#45;&gt;Node29 -->
<g id="edge44" class="edge">
<title>Node24&#45;&gt;Node29</title>
<path fill="none" stroke="#191970" d="M678.5836,-203.1071C704.4588,-192.7394 736.3912,-179.139 764,-165 814.9509,-138.907 833.0407,-137.9897 874,-98 894.5859,-77.9014 911.0897,-48.3852 919.9296,-30.6447"/>
<polygon fill="#191970" stroke="#191970" points="676.9885,-199.9745 668.9849,-206.9167 679.5708,-206.4808 676.9885,-199.9745"/>
</g>
<!-- Node30 -->
<g id="node22" class="node">
<title>Node30</title>
<g id="a_node22"><a xlink:href="floats_8c.html" target="_top" xlink:title=" ">
<polygon fill="#ffffff" stroke="#000000" points="1012.5,-.5 1012.5,-30.5 1147.5,-30.5 1147.5,-.5 1012.5,-.5"/>
<text text-anchor="start" x="1020.5" y="-18.5" font-family="Helvetica,sans-Serif" font-size="10.00" fill="#000000">main/parser/parserfuncs</text>
<text text-anchor="middle" x="1080" y="-7.5" font-family="Helvetica,sans-Serif" font-size="10.00" fill="#000000">/floats.c</text>
</a>
</g>
</g>
<!-- Node24&#45;&gt;Node30 -->
<g id="edge45" class="edge">
<title>Node24&#45;&gt;Node30</title>
<path fill="none" stroke="#191970" d="M685.9931,-203.8474C689.0392,-202.883 692.0563,-201.9291 695,-201 746.0736,-184.8806 760.7658,-186.0794 810,-165 905.3109,-124.1931 1010.7959,-59.6619 1056.6212,-30.5848"/>
<polygon fill="#191970" stroke="#191970" points="684.6948,-200.5873 676.2202,-206.9459 686.8104,-207.26 684.6948,-200.5873"/>
</g>
<!-- Node31 -->
<g id="node23" class="node">
<title>Node31</title>
<g id="a_node23"><a xlink:href="integers_8c.html" target="_top" xlink:title=" ">
<polygon fill="#ffffff" stroke="#000000" points="1165.5,-.5 1165.5,-30.5 1300.5,-30.5 1300.5,-.5 1165.5,-.5"/>
<text text-anchor="start" x="1173.5" y="-18.5" font-family="Helvetica,sans-Serif" font-size="10.00" fill="#000000">main/parser/parserfuncs</text>
<text text-anchor="middle" x="1233" y="-7.5" font-family="Helvetica,sans-Serif" font-size="10.00" fill="#000000">/integers.c</text>
</a>
</g>
</g>
<!-- Node24&#45;&gt;Node31 -->
<g id="edge46" class="edge">
<title>Node24&#45;&gt;Node31</title>
<path fill="none" stroke="#191970" d="M684.2489,-204.0227C687.8771,-202.9653 691.4844,-201.9479 695,-201 766.2133,-181.7992 786.5064,-186.6947 857,-165 987.2532,-124.9141 1136.0206,-59.7286 1200.4398,-30.5055"/>
<polygon fill="#191970" stroke="#191970" points="683.2231,-200.6762 674.6448,-206.8941 685.2283,-207.3829 683.2231,-200.6762"/>
</g>
<!-- Node32 -->
<g id="node24" class="node">
<title>Node32</title>
<g id="a_node24"><a xlink:href="parser_8c.html" target="_top" xlink:title=" ">
<polygon fill="#ffffff" stroke="#000000" points="126.5,-.5 126.5,-30.5 261.5,-30.5 261.5,-.5 126.5,-.5"/>
<text text-anchor="start" x="134.5" y="-18.5" font-family="Helvetica,sans-Serif" font-size="10.00" fill="#000000">main/parser/parserfuncs</text>
<text text-anchor="middle" x="194" y="-7.5" font-family="Helvetica,sans-Serif" font-size="10.00" fill="#000000">/parser.c</text>
</a>
</g>
</g>
<!-- Node24&#45;&gt;Node32 -->
<g id="edge47" class="edge">
<title>Node24&#45;&gt;Node32</title>
<path fill="none" stroke="#191970" d="M562.1308,-214.7857C442.0568,-200.3041 197.6713,-163.357 147,-98 130.1327,-76.2442 155.2729,-47.7649 174.7919,-30.5923"/>
<polygon fill="#191970" stroke="#191970" points="561.9618,-218.2902 572.305,-215.9948 562.788,-211.3391 561.9618,-218.2902"/>
</g>
<!-- Node33 -->
<g id="node25" class="node">
<title>Node33</title>
<g id="a_node25"><a xlink:href="strings_8c.html" target="_top" xlink:title=" ">
<polygon fill="#ffffff" stroke="#000000" points="279.5,-.5 279.5,-30.5 414.5,-30.5 414.5,-.5 279.5,-.5"/>
<text text-anchor="start" x="287.5" y="-18.5" font-family="Helvetica,sans-Serif" font-size="10.00" fill="#000000">main/parser/parserfuncs</text>
<text text-anchor="middle" x="347" y="-7.5" font-family="Helvetica,sans-Serif" font-size="10.00" fill="#000000">/strings.c</text>
</a>
</g>
</g>
<!-- Node24&#45;&gt;Node33 -->
<g id="edge48" class="edge">
<title>Node24&#45;&gt;Node33</title>
<path fill="none" stroke="#191970" d="M600.0433,-200.7959C543.0164,-159.0368 417.4016,-67.0529 367.7665,-30.7067"/>
<polygon fill="#191970" stroke="#191970" points="598.1279,-203.7313 608.2639,-206.8156 602.2635,-198.0836 598.1279,-203.7313"/>
</g>
<!-- Node24&#45;&gt;Node36 -->
<g id="edge49" class="edge">
<title>Node24&#45;&gt;Node36</title>
<path fill="none" stroke="#191970" d="M681.4795,-204.1833C686.0208,-202.9829 690.5714,-201.8969 695,-201 866.4743,-166.2732 914.0953,-191.7086 1087,-165 1097.2244,-163.4206 1108.1834,-161.2627 1118.3574,-159.059"/>
<polygon fill="#191970" stroke="#191970" points="680.2802,-200.8849 671.6035,-206.9647 682.1778,-207.6227 680.2802,-200.8849"/>
</g>
<!-- Node26&#45;&gt;Node11 -->
<g id="edge21" class="edge">
<title>Node26&#45;&gt;Node11</title>
<path fill="none" stroke="#191970" d="M631.9696,-143.9233C547.732,-136.3365 398.9242,-121.0151 273,-98 269.8976,-97.433 266.7201,-96.8046 263.5212,-96.135"/>
<polygon fill="#191970" stroke="#191970" points="631.8954,-147.4305 642.1667,-144.8323 632.5169,-140.4582 631.8954,-147.4305"/>
</g>
<!-- Node26&#45;&gt;Node12 -->
<g id="edge22" class="edge">
<title>Node26&#45;&gt;Node12</title>
<path fill="none" stroke="#191970" d="M632.2006,-137.0679C564.3505,-124.4402 460.3824,-105.0906 396.2074,-93.1469"/>
<polygon fill="#191970" stroke="#191970" points="631.8824,-140.5687 642.354,-138.9575 633.1632,-133.6869 631.8824,-140.5687"/>
</g>
<!-- Node26&#45;&gt;Node19 -->
<g id="edge23" class="edge">
<title>Node26&#45;&gt;Node19</title>
<path fill="none" stroke="#191970" d="M766.2249,-143.0006C1005.9185,-119.8268 1815.8782,-41.519 2031.7571,-20.6476"/>
<polygon fill="#191970" stroke="#191970" points="765.5335,-139.5511 755.9168,-143.9972 766.2072,-146.5186 765.5335,-139.5511"/>
</g>
<!-- Node26&#45;&gt;Node25 -->
<g id="edge24" class="edge">
<title>Node26&#45;&gt;Node25</title>
<path fill="none" stroke="#191970" d="M666.2908,-129.0185C619.3871,-99.6489 534.877,-46.7314 500.338,-25.1042"/>
<polygon fill="#191970" stroke="#191970" points="664.5344,-132.0483 674.8675,-134.389 668.2494,-126.1154 664.5344,-132.0483"/>
</g>
<!-- Node27 -->
<g id="node19" class="node">
<title>Node27</title>
<g id="a_node19"><a xlink:href="parser_8h.html" target="_top" xlink:title=" ">
<polygon fill="#ffffff" stroke="#000000" points="718.5,-67.5 718.5,-97.5 831.5,-97.5 831.5,-67.5 718.5,-67.5"/>
<text text-anchor="start" x="726.5" y="-85.5" font-family="Helvetica,sans-Serif" font-size="10.00" fill="#000000">main/parser/include</text>
<text text-anchor="middle" x="775" y="-74.5" font-family="Helvetica,sans-Serif" font-size="10.00" fill="#000000">/parser.h</text>
</a>
</g>
</g>
<!-- Node26&#45;&gt;Node27 -->
<g id="edge25" class="edge">
<title>Node26&#45;&gt;Node27</title>
<path fill="none" stroke="#191970" d="M723.9592,-127.4965C735.0497,-117.7193 747.8267,-106.4554 757.8227,-97.6432"/>
<polygon fill="#191970" stroke="#191970" points="721.4323,-125.0582 716.2456,-134.2967 726.0614,-130.3091 721.4323,-125.0582"/>
</g>
<!-- Node26&#45;&gt;Node28 -->
<g id="edge36" class="edge">
<title>Node26&#45;&gt;Node28</title>
<path fill="none" stroke="#191970" d="M685.348,-125.4294C669.771,-97.9647 644.7645,-53.8742 631.6557,-30.7614"/>
<polygon fill="#191970" stroke="#191970" points="682.4517,-127.4173 690.4296,-134.389 688.5405,-123.9639 682.4517,-127.4173"/>
</g>
<!-- Node26&#45;&gt;Node29 -->
<g id="edge37" class="edge">
<title>Node26&#45;&gt;Node29</title>
<path fill="none" stroke="#191970" d="M765.232,-131.5165C789.7442,-123.2934 817.1156,-112.1734 840,-98 870.2606,-79.2582 898.9128,-48.7442 914.6035,-30.5472"/>
<polygon fill="#191970" stroke="#191970" points="764.0648,-128.2156 755.6388,-134.6385 766.231,-134.872 764.0648,-128.2156"/>
</g>
<!-- Node26&#45;&gt;Node30 -->
<g id="edge38" class="edge">
<title>Node26&#45;&gt;Node30</title>
<path fill="none" stroke="#191970" d="M764.975,-131.6807C797.9555,-122.3698 838.3383,-110.3573 874,-98 935.1551,-76.8089 1004.7609,-47.9013 1045.3886,-30.5314"/>
<polygon fill="#191970" stroke="#191970" points="763.6741,-128.4105 754.9908,-134.481 765.5645,-135.1504 763.6741,-128.4105"/>
</g>
<!-- Node26&#45;&gt;Node31 -->
<g id="edge39" class="edge">
<title>Node26&#45;&gt;Node31</title>
<path fill="none" stroke="#191970" d="M765.7252,-138.0709C811.9148,-129.295 874.4683,-115.6837 928,-98 960.3082,-87.3273 965.6627,-77.5843 998,-67 1013.8779,-61.803 1101.7053,-42.9851 1165.343,-29.6025"/>
<polygon fill="#191970" stroke="#191970" points="765.0165,-134.6427 755.832,-139.9243 766.3055,-141.523 765.0165,-134.6427"/>
</g>
<!-- Node26&#45;&gt;Node32 -->
<g id="edge40" class="edge">
<title>Node26&#45;&gt;Node32</title>
<path fill="none" stroke="#191970" d="M632.2954,-135.3394C590.5055,-125.9466 535.7131,-112.677 488,-98 450.3626,-86.4224 442.6374,-78.5776 405,-67 357.6065,-52.4213 303.2282,-39.2313 261.5461,-29.8499"/>
<polygon fill="#191970" stroke="#191970" points="631.563,-138.7619 642.0851,-137.5224 633.0866,-131.9297 631.563,-138.7619"/>
</g>
<!-- Node26&#45;&gt;Node33 -->
<g id="edge41" class="edge">
<title>Node26&#45;&gt;Node33</title>
<path fill="none" stroke="#191970" d="M649.7622,-130.7561C579.3273,-103.9428 451.1939,-55.1647 386.5496,-30.5558"/>
<polygon fill="#191970" stroke="#191970" points="648.7144,-134.1022 659.3054,-134.389 651.2049,-127.5602 648.7144,-134.1022"/>
</g>
<!-- Node34 -->
<g id="node26" class="node">
<title>Node34</title>
<g id="a_node26"><a xlink:href="parserutil_8c.html" target="_top" xlink:title=" ">
<polygon fill="#ffffff" stroke="#000000" points="708.5,-6 708.5,-25 841.5,-25 841.5,-6 708.5,-6"/>
<text text-anchor="middle" x="775" y="-13" font-family="Helvetica,sans-Serif" font-size="10.00" fill="#000000">main/parser/parserutil.c</text>
</a>
</g>
</g>
<!-- Node26&#45;&gt;Node34 -->
<g id="edge42" class="edge">
<title>Node26&#45;&gt;Node34</title>
<path fill="none" stroke="#191970" d="M697.1708,-124.0524C697.0691,-106.8915 699.2171,-84.3101 709,-67 719.6548,-48.147 740.265,-33.7939 755.6324,-25.0892"/>
<polygon fill="#191970" stroke="#191970" points="693.6851,-124.5547 697.505,-134.4369 700.6815,-124.3295 693.6851,-124.5547"/>
</g>
<!-- Node27&#45;&gt;Node19 -->
<g id="edge26" class="edge">
<title>Node27&#45;&gt;Node19</title>
<path fill="none" stroke="#191970" d="M841.8678,-77.4657C886.1496,-74.2272 945.5235,-70.0665 998,-67 1395.014,-43.8004 1874.0693,-23.933 2031.8171,-17.6037"/>
<polygon fill="#191970" stroke="#191970" points="841.5217,-73.9816 831.8049,-78.2048 842.0345,-80.9628 841.5217,-73.9816"/>
</g>
<!-- Node27&#45;&gt;Node25 -->
<g id="edge27" class="edge">
<title>Node27&#45;&gt;Node25</title>
<path fill="none" stroke="#191970" d="M708.6322,-68.0824C662.8554,-58.0136 600.6425,-44.0839 546,-31 538.1364,-29.1171 529.722,-27.0276 521.7323,-25.0083"/>
<polygon fill="#191970" stroke="#191970" points="707.9159,-71.5085 718.4339,-70.2346 709.4172,-64.6713 707.9159,-71.5085"/>
</g>
<!-- Node27&#45;&gt;Node28 -->
<g id="edge28" class="edge">
<title>Node27&#45;&gt;Node28</title>
<path fill="none" stroke="#191970" d="M731.4718,-63.3132C707.9083,-52.9267 679.216,-40.2794 657.2605,-30.6017"/>
<polygon fill="#191970" stroke="#191970" points="730.326,-66.6331 740.8882,-67.4639 733.1495,-60.2277 730.326,-66.6331"/>
</g>
<!-- Node27&#45;&gt;Node29 -->
<g id="edge29" class="edge">
<title>Node27&#45;&gt;Node29</title>
<path fill="none" stroke="#191970" d="M818.5282,-63.3132C842.0917,-52.9267 870.784,-40.2794 892.7395,-30.6017"/>
<polygon fill="#191970" stroke="#191970" points="816.8505,-60.2277 809.1118,-67.4639 819.674,-66.6331 816.8505,-60.2277"/>
</g>
<!-- Node27&#45;&gt;Node30 -->
<g id="edge30" class="edge">
<title>Node27&#45;&gt;Node30</title>
<path fill="none" stroke="#191970" d="M841.5194,-67.8875C892.1575,-56.7638 961.5827,-41.513 1012.4688,-30.3347"/>
<polygon fill="#191970" stroke="#191970" points="840.6695,-64.4907 831.6534,-70.0548 842.1715,-71.3277 840.6695,-64.4907"/>
</g>
<!-- Node27&#45;&gt;Node31 -->
<g id="edge31" class="edge">
<title>Node27&#45;&gt;Node31</title>
<path fill="none" stroke="#191970" d="M841.5959,-74.8141C917.7968,-65.7147 1046.2296,-49.4476 1156,-31 1159.093,-30.4802 1162.2517,-29.9287 1165.4394,-29.3554"/>
<polygon fill="#191970" stroke="#191970" points="841.1713,-71.3398 831.6544,-75.9959 841.9977,-78.2909 841.1713,-71.3398"/>
</g>
<!-- Node27&#45;&gt;Node32 -->
<g id="edge32" class="edge">
<title>Node27&#45;&gt;Node32</title>
<path fill="none" stroke="#191970" d="M708.1042,-77.8098C611.1623,-70.5305 426.1364,-54.8227 270,-31 267.3376,-30.5938 264.6273,-30.1564 261.8929,-29.6953"/>
<polygon fill="#191970" stroke="#191970" points="708.1124,-81.32 718.3446,-78.572 708.632,-74.3393 708.1124,-81.32"/>
</g>
<!-- Node27&#45;&gt;Node33 -->
<g id="edge33" class="edge">
<title>Node27&#45;&gt;Node33</title>
<path fill="none" stroke="#191970" d="M708.2063,-73.7715C637.4657,-64.2768 522.6088,-48.1466 424,-31 420.91,-30.4627 417.7538,-29.8968 414.568,-29.3119"/>
<polygon fill="#191970" stroke="#191970" points="707.9404,-77.267 718.3161,-75.1235 708.8684,-70.3288 707.9404,-77.267"/>
</g>
<!-- Node27&#45;&gt;Node34 -->
<g id="edge34" class="edge">
<title>Node27&#45;&gt;Node34</title>
<path fill="none" stroke="#191970" d="M775,-57.1199C775,-45.9072 775,-33.4031 775,-25.055"/>
<polygon fill="#191970" stroke="#191970" points="771.5001,-57.2966 775,-67.2967 778.5001,-57.2967 771.5001,-57.2966"/>
</g>
<!-- Node27&#45;&gt;Node35 -->
<g id="edge35" class="edge">
<title>Node27&#45;&gt;Node35</title>
<path fill="none" stroke="#191970" d="M841.6017,-76.3646C942.6743,-66.9886 1140.8315,-48.3518 1309,-31 1335.7013,-28.2449 1365.2266,-25.026 1390.3304,-22.2377"/>
<polygon fill="#191970" stroke="#191970" points="841.1711,-72.8894 831.5368,-77.2974 841.8172,-79.8596 841.1711,-72.8894"/>
</g>
</g>
</svg>
        <g id="navigator" transform="translate(0 0)" fill="#404254">
                <rect fill="#f2f5e9" fill-opacity="0.5" stroke="#606060" stroke-width=".5" x="0" y="0" width="60" height="60"/>
                <use id="zoomplus" xlink:href="#zoomPlus" x="17" y="9" onmousedown="handleZoom(evt,'in')"/>
                <use id="zoomminus" xlink:href="#zoomMin" x="42" y="9" onmousedown="handleZoom(evt,'out')"/>
                <use id="reset" xlink:href="#resetDef" x="30" y="36" onmousedown="handleReset()"/>
                <g id="arrowUp" xlink:href="#dirArrow" transform="translate(30 24)" onmousedown="handlePan(0,-1)">
                  <use xlink:href="#rim" fill="#404040">
                        <set attributeName="fill" to="#808080" begin="arrowUp.mouseover" end="arrowUp.mouseout"/>
                  </use>
                  <path fill="none" stroke="white" stroke-width="1.5" d="M0,-3.0v7 M-2.5,-0.5L0,-3.0L2.5,-0.5"/>
                </g>
                <g id="arrowRight" xlink:href="#dirArrow" transform="rotate(90) translate(36 -43)" onmousedown="handlePan(1,0)">
                  <use xlink:href="#rim" fill="#404040">
                        <set attributeName="fill" to="#808080" begin="arrowRight.mouseover" end="arrowRight.mouseout"/>
                  </use>
                  <path fill="none" stroke="white" stroke-width="1.5" d="M0,-3.0v7 M-2.5,-0.5L0,-3.0L2.5,-0.5"/>
                </g>
                <g id="arrowDown" xlink:href="#dirArrow" transform="rotate(180) translate(-30 -48)" onmousedown="handlePan(0,1)">
                  <use xlink:href="#rim" fill="#404040">
                        <set attributeName="fill" to="#808080" begin="arrowDown.mouseover" end="arrowDown.mouseout"/>
                  </use>
                  <path fill="none" stroke="white" stroke-width="1.5" d="M0,-3.0v7 M-2.5,-0.5L0,-3.0L2.5,-0.5"/>
                </g>
                <g id="arrowLeft" xlink:href="#dirArrow" transform="rotate(270) translate(-36 17)" onmousedown="handlePan(-1,0)">
                  <use xlink:href="#rim" fill="#404040">
                        <set attributeName="fill" to="#808080" begin="arrowLeft.mouseover" end="arrowLeft.mouseout"/>
                  </use>
                  <path fill="none" stroke="white" stroke-width="1.5" d="M0,-3.0v7 M-2.5,-0.5L0,-3.0L2.5,-0.5"/>
                </g>
        </g>
        <svg viewBox="0 0 15 15" width="100%" height="30px" preserveAspectRatio="xMaxYMin meet">
         <g id="arrow_out" transform="scale(0.3 0.3)">
          <a xlink:href="helios__string_8h__dep__incl_org.svg" target="_base">
           <rect id="button" ry="5" rx="5" y="6" x="6" height="38" width="38"
                fill="#f2f5e9" fill-opacity="0.5" stroke="#606060" stroke-width="1.0"/>
           <path id="arrow"
             d="M 11.500037,31.436501 C 11.940474,20.09759 22.043105,11.32322 32.158766,21.979434 L 37.068811,17.246167 C 37.068811,17.246167 37.088388,32 37.088388,32 L 22.160133,31.978069 C 22.160133,31.978069 26.997745,27.140456 26.997745,27.140456 C 18.528582,18.264221 13.291696,25.230495 11.500037,31.436501 z"
             style="fill:#404040;"/>
          </a>
         </g>
        </svg>
</svg>
