<?xml version="1.0" encoding="UTF-8" standalone="no"?>
<!DOCTYPE svg PUBLIC "-//W3C//DTD SVG 1.1//EN"
 "http://www.w3.org/Graphics/SVG/1.1/DTD/svg11.dtd">
<!-- Generated by graphviz version 2.40.1 (20161225.0304)
 -->
<!-- Title: builtins/string/include/helios_string.h Pages: 1 -->
<!--zoomable 363 -->
<svg id="main" version="1.1" xmlns="http://www.w3.org/2000/svg" xmlns:xlink="http://www.w3.org/1999/xlink" xml:space="preserve" onload="init(evt)">
<style type="text/css"><![CDATA[
.edge:hover path { stroke: red; }
.edge:hover polygon { stroke: red; fill: red; }
]]></style>
<script type="text/javascript"><![CDATA[
var edges = document.getElementsByTagName('g');
if (edges && edges.length) {
  for (var i=0;i<edges.length;i++) {
    if (edges[i].id.substr(0,4)=='edge') {
      edges[i].setAttribute('class','edge');
    }
  }
}
]]></script>
        <defs>
                <circle id="rim" cx="0" cy="0" r="7"/>
                <circle id="rim2" cx="0" cy="0" r="3.5"/>
                <g id="zoomPlus">
                        <use xlink:href="#rim" fill="#404040">
                                <set attributeName="fill" to="#808080" begin="zoomplus.mouseover" end="zoomplus.mouseout"/>
                        </use>
                        <path d="M-4,0h8M0,-4v8" fill="none" stroke="white" stroke-width="1.5" pointer-events="none"/>
                </g>
                <g id="zoomMin">
                        <use xlink:href="#rim" fill="#404040">
                                <set attributeName="fill" to="#808080" begin="zoomminus.mouseover" end="zoomminus.mouseout"/>
                        </use>
                        <path d="M-4,0h8" fill="none" stroke="white" stroke-width="1.5" pointer-events="none"/>
                </g>
                <g id="dirArrow">
                        <path fill="none" stroke="white" stroke-width="1.5" d="M0,-3.0v7 M-2.5,-0.5L0,-3.0L2.5,-0.5"/>
                </g>
               <g id="resetDef">
                       <use xlink:href="#rim2" fill="#404040">
                               <set attributeName="fill" to="#808080" begin="reset.mouseover" end="reset.mouseout"/>
                       </use>
               </g>
        </defs>

<script type="text/javascript">
var viewWidth = 1851;
var viewHeight = 363;
var sectionId = 'dynsection-1';
</script>
<script xlink:href="svgpan.js"/>
<svg id="graph" class="graph">
<g id="viewport">
<title>builtins/string/include/helios_string.h</title>
<polygon fill="#ffffff" stroke="transparent" points="-4,4 -4,-359 1847,-359 1847,4 -4,4"/>
<!-- Node9 -->
<g id="node1" class="node">
<title>Node9</title>
<g id="a_node1"><a xlink:title=" ">
<polygon fill="#bfbfbf" stroke="#000000" points="1329.5,-324.5 1329.5,-354.5 1437.5,-354.5 1437.5,-324.5 1329.5,-324.5"/>
<text text-anchor="start" x="1337.5" y="-342.5" font-family="Helvetica,sans-Serif" font-size="10.00" fill="#000000">builtins/string/include</text>
<text text-anchor="middle" x="1383.5" y="-331.5" font-family="Helvetica,sans-Serif" font-size="10.00" fill="#000000">/helios_string.h</text>
</a>
</g>
</g>
<!-- Node10 -->
<g id="node2" class="node">
<title>Node10</title>
<g id="a_node2"><a xlink:href="helios__boolean_8c.html" target="_top" xlink:title=" ">
<polygon fill="#ffffff" stroke="#000000" points="141,-257.5 141,-287.5 254,-287.5 254,-257.5 141,-257.5"/>
<text text-anchor="start" x="149" y="-275.5" font-family="Helvetica,sans-Serif" font-size="10.00" fill="#000000">builtins/boolean/helios</text>
<text text-anchor="middle" x="197.5" y="-264.5" font-family="Helvetica,sans-Serif" font-size="10.00" fill="#000000">_boolean.c</text>
</a>
</g>
</g>
<!-- Node9&#45;&gt;Node10 -->
<g id="edge1" class="edge">
<title>Node9&#45;&gt;Node10</title>
<path fill="none" stroke="#191970" d="M1319.2285,-338.138C1112.9096,-333.5156 468.8145,-317.0741 262.5,-288 259.743,-287.6115 256.9316,-287.1596 254.1003,-286.6596"/>
<polygon fill="#191970" stroke="#191970" points="1319.2237,-341.6387 1329.2991,-338.362 1319.3794,-334.6404 1319.2237,-341.6387"/>
</g>
<!-- Node11 -->
<g id="node3" class="node">
<title>Node11</title>
<g id="a_node3"><a xlink:href="helios__code_8c.html" target="_top" xlink:title=" ">
<polygon fill="#ffffff" stroke="#000000" points="1042.5,-67.5 1042.5,-97.5 1142.5,-97.5 1142.5,-67.5 1042.5,-67.5"/>
<text text-anchor="start" x="1050.5" y="-85.5" font-family="Helvetica,sans-Serif" font-size="10.00" fill="#000000">builtins/code/helios</text>
<text text-anchor="middle" x="1092.5" y="-74.5" font-family="Helvetica,sans-Serif" font-size="10.00" fill="#000000">_code.c</text>
</a>
</g>
</g>
<!-- Node9&#45;&gt;Node11 -->
<g id="edge2" class="edge">
<title>Node9&#45;&gt;Node11</title>
<path fill="none" stroke="#191970" d="M1358.5983,-317.5078C1300.8667,-266.5214 1159.0598,-141.2831 1109.7411,-97.7267"/>
<polygon fill="#191970" stroke="#191970" points="1356.3558,-320.1969 1366.1681,-324.1931 1360.9896,-314.9501 1356.3558,-320.1969"/>
</g>
<!-- Node12 -->
<g id="node4" class="node">
<title>Node12</title>
<g id="a_node4"><a xlink:href="helios__instruction_8c.html" target="_top" xlink:title=" ">
<polygon fill="#ffffff" stroke="#000000" points="1160.5,-67.5 1160.5,-97.5 1260.5,-97.5 1260.5,-67.5 1160.5,-67.5"/>
<text text-anchor="start" x="1168.5" y="-85.5" font-family="Helvetica,sans-Serif" font-size="10.00" fill="#000000">builtins/code/helios</text>
<text text-anchor="middle" x="1210.5" y="-74.5" font-family="Helvetica,sans-Serif" font-size="10.00" fill="#000000">_instruction.c</text>
</a>
</g>
</g>
<!-- Node9&#45;&gt;Node12 -->
<g id="edge3" class="edge">
<title>Node9&#45;&gt;Node12</title>
<path fill="none" stroke="#191970" d="M1373.478,-315.1659C1353.5194,-267.4084 1308.5743,-163.4902 1283.5,-134 1270.9415,-119.2297 1253.2426,-106.605 1238.4174,-97.5521"/>
<polygon fill="#191970" stroke="#191970" points="1370.2703,-316.5677 1377.3415,-324.4574 1376.7338,-313.88 1370.2703,-316.5677"/>
</g>
<!-- Node13 -->
<g id="node5" class="node">
<title>Node13</title>
<g id="a_node5"><a xlink:href="helios__float_8c.html" target="_top" xlink:title=" ">
<polygon fill="#ffffff" stroke="#000000" points="1373.5,-257.5 1373.5,-287.5 1471.5,-287.5 1471.5,-257.5 1373.5,-257.5"/>
<text text-anchor="start" x="1381.5" y="-275.5" font-family="Helvetica,sans-Serif" font-size="10.00" fill="#000000">builtins/float/helios</text>
<text text-anchor="middle" x="1422.5" y="-264.5" font-family="Helvetica,sans-Serif" font-size="10.00" fill="#000000">_float.c</text>
</a>
</g>
</g>
<!-- Node9&#45;&gt;Node13 -->
<g id="edge4" class="edge">
<title>Node9&#45;&gt;Node13</title>
<path fill="none" stroke="#191970" d="M1397.4796,-315.4837C1402.8838,-306.1996 1408.9044,-295.8565 1413.6853,-287.6432"/>
<polygon fill="#191970" stroke="#191970" points="1394.3556,-313.8934 1392.3497,-324.2967 1400.4053,-317.4149 1394.3556,-313.8934"/>
</g>
<!-- Node14 -->
<g id="node6" class="node">
<title>Node14</title>
<g id="a_node6"><a xlink:href="strtod_8c.html" target="_top" xlink:title=" ">
<polygon fill="#ffffff" stroke="#000000" points="1490,-263 1490,-282 1595,-282 1595,-263 1490,-263"/>
<text text-anchor="middle" x="1542.5" y="-270" font-family="Helvetica,sans-Serif" font-size="10.00" fill="#000000">builtins/float/strtod.c</text>
</a>
</g>
</g>
<!-- Node9&#45;&gt;Node14 -->
<g id="edge5" class="edge">
<title>Node9&#45;&gt;Node14</title>
<path fill="none" stroke="#191970" d="M1428.5319,-320.5243C1458.2775,-307.99 1496.0065,-292.0916 1519.7086,-282.1039"/>
<polygon fill="#191970" stroke="#191970" points="1427.0388,-317.3553 1419.1827,-324.4639 1429.7571,-323.806 1427.0388,-317.3553"/>
</g>
<!-- Node15 -->
<g id="node7" class="node">
<title>Node15</title>
<g id="a_node7"><a xlink:href="builtins_8h.html" target="_top" xlink:title=" ">
<polygon fill="#ffffff" stroke="#000000" points="272,-263 272,-282 395,-282 395,-263 272,-263"/>
<text text-anchor="middle" x="333.5" y="-270" font-family="Helvetica,sans-Serif" font-size="10.00" fill="#000000">builtins/include/builtins.h</text>
</a>
</g>
</g>
<!-- Node9&#45;&gt;Node15 -->
<g id="edge6" class="edge">
<title>Node9&#45;&gt;Node15</title>
<path fill="none" stroke="#191970" d="M1319.2203,-335.3983C1130.6233,-323.3641 580.4259,-288.2562 395.1875,-276.4362"/>
<polygon fill="#191970" stroke="#191970" points="1319.0559,-338.8949 1329.2585,-336.0389 1319.5017,-331.9091 1319.0559,-338.8949"/>
</g>
<!-- Node34 -->
<g id="node26" class="node">
<title>Node34</title>
<g id="a_node26"><a xlink:href="helios__integer_8c.html" target="_top" xlink:title=" ">
<polygon fill="#ffffff" stroke="#000000" points="1613.5,-257.5 1613.5,-287.5 1721.5,-287.5 1721.5,-257.5 1613.5,-257.5"/>
<text text-anchor="start" x="1621.5" y="-275.5" font-family="Helvetica,sans-Serif" font-size="10.00" fill="#000000">builtins/integer/helios</text>
<text text-anchor="middle" x="1667.5" y="-264.5" font-family="Helvetica,sans-Serif" font-size="10.00" fill="#000000">_integer.c</text>
</a>
</g>
</g>
<!-- Node9&#45;&gt;Node34 -->
<g id="edge48" class="edge">
<title>Node9&#45;&gt;Node34</title>
<path fill="none" stroke="#191970" d="M1447.6,-324.7819C1491.741,-314.5929 1551.7176,-300.6426 1604.5,-288 1607.348,-287.3178 1610.2673,-286.6144 1613.2141,-285.9009"/>
<polygon fill="#191970" stroke="#191970" points="1446.5416,-321.434 1437.584,-327.0921 1448.1149,-328.255 1446.5416,-321.434"/>
</g>
<!-- Node35 -->
<g id="node27" class="node">
<title>Node35</title>
<g id="a_node27"><a xlink:href="helios__string_8c.html" target="_top" xlink:title=" ">
<polygon fill="#ffffff" stroke="#000000" points="1740,-257.5 1740,-287.5 1843,-287.5 1843,-257.5 1740,-257.5"/>
<text text-anchor="start" x="1748" y="-275.5" font-family="Helvetica,sans-Serif" font-size="10.00" fill="#000000">builtins/string/helios</text>
<text text-anchor="middle" x="1791.5" y="-264.5" font-family="Helvetica,sans-Serif" font-size="10.00" fill="#000000">_string.c</text>
</a>
</g>
</g>
<!-- Node9&#45;&gt;Node35 -->
<g id="edge49" class="edge">
<title>Node9&#45;&gt;Node35</title>
<path fill="none" stroke="#191970" d="M1447.5678,-331.9704C1517.4593,-323.2967 1632.4674,-307.6769 1730.5,-288 1733.6068,-287.3764 1736.7925,-286.6952 1739.9994,-285.9774"/>
<polygon fill="#191970" stroke="#191970" points="1447.0878,-328.503 1437.5907,-333.1994 1447.9436,-335.4505 1447.0878,-328.503"/>
</g>
<!-- Node16 -->
<g id="node8" class="node">
<title>Node16</title>
<g id="a_node8"><a xlink:href="serialize_8c.html" target="_top" xlink:title=" ">
<polygon fill="#ffffff" stroke="#000000" points="651.5,-190.5 651.5,-220.5 753.5,-220.5 753.5,-190.5 651.5,-190.5"/>
<text text-anchor="start" x="659.5" y="-208.5" font-family="Helvetica,sans-Serif" font-size="10.00" fill="#000000">builtins/serialization</text>
<text text-anchor="middle" x="702.5" y="-197.5" font-family="Helvetica,sans-Serif" font-size="10.00" fill="#000000">/serialize.c</text>
</a>
</g>
</g>
<!-- Node15&#45;&gt;Node16 -->
<g id="edge7" class="edge">
<title>Node15&#45;&gt;Node16</title>
<path fill="none" stroke="#191970" d="M405.2661,-262.3617C468.1078,-253.0506 561.7389,-238.1273 642.5,-221 645.3416,-220.3974 648.2513,-219.7494 651.183,-219.0725"/>
<polygon fill="#191970" stroke="#191970" points="404.448,-258.9443 395.0646,-263.8639 405.4679,-265.8696 404.448,-258.9443"/>
</g>
<!-- Node17 -->
<g id="node9" class="node">
<title>Node17</title>
<g id="a_node9"><a xlink:href="executestack_8c.html" target="_top" xlink:title=" ">
<polygon fill="#ffffff" stroke="#000000" points="0,-134.5 0,-153.5 105,-153.5 105,-134.5 0,-134.5"/>
<text text-anchor="middle" x="52.5" y="-141.5" font-family="Helvetica,sans-Serif" font-size="10.00" fill="#000000">hvm/executestack.c</text>
</a>
</g>
</g>
<!-- Node15&#45;&gt;Node17 -->
<g id="edge8" class="edge">
<title>Node15&#45;&gt;Node17</title>
<path fill="none" stroke="#191970" d="M281.2937,-260.8269C274.9704,-259.4947 268.5948,-258.1896 262.5,-257 216.2444,-247.9719 84.0983,-256.8445 53.5,-221 37.2684,-201.9854 44.2166,-169.6639 49.1412,-153.622"/>
<polygon fill="#191970" stroke="#191970" points="280.6286,-264.2637 291.1392,-262.9301 282.091,-257.4182 280.6286,-264.2637"/>
</g>
<!-- Node18 -->
<g id="node10" class="node">
<title>Node18</title>
<g id="a_node10"><a xlink:href="hvm_8c.html" target="_top" xlink:title=" ">
<polygon fill="#ffffff" stroke="#000000" points="158,-134.5 158,-153.5 223,-153.5 223,-134.5 158,-134.5"/>
<text text-anchor="middle" x="190.5" y="-141.5" font-family="Helvetica,sans-Serif" font-size="10.00" fill="#000000">hvm/hvm.c</text>
</a>
</g>
</g>
<!-- Node15&#45;&gt;Node18 -->
<g id="edge9" class="edge">
<title>Node15&#45;&gt;Node18</title>
<path fill="none" stroke="#191970" d="M306.6271,-257.7283C290.6448,-248.2952 270.445,-235.1985 254.5,-221 230.6133,-199.7297 208.0012,-169.2571 197.1714,-153.7988"/>
<polygon fill="#191970" stroke="#191970" points="305.0749,-260.8735 315.4858,-262.8396 308.5733,-254.8104 305.0749,-260.8735"/>
</g>
<!-- Node19 -->
<g id="node11" class="node">
<title>Node19</title>
<g id="a_node11"><a xlink:href="executestack_8h.html" target="_top" xlink:title=" ">
<polygon fill="#ffffff" stroke="#000000" points="63,-196 63,-215 202,-215 202,-196 63,-196"/>
<text text-anchor="middle" x="132.5" y="-203" font-family="Helvetica,sans-Serif" font-size="10.00" fill="#000000">hvm/include/executestack.h</text>
</a>
</g>
</g>
<!-- Node15&#45;&gt;Node19 -->
<g id="edge10" class="edge">
<title>Node15&#45;&gt;Node19</title>
<path fill="none" stroke="#191970" d="M294.7477,-259.5826C255.6833,-246.5611 196.2959,-226.7653 161.245,-215.0817"/>
<polygon fill="#191970" stroke="#191970" points="294.1079,-263.0586 304.7016,-262.9005 296.3216,-256.4178 294.1079,-263.0586"/>
</g>
<!-- Node20 -->
<g id="node12" class="node">
<title>Node20</title>
<g id="a_node12"><a xlink:href="hvm_8h.html" target="_top" xlink:title=" ">
<polygon fill="#ffffff" stroke="#000000" points="297,-73 297,-92 396,-92 396,-73 297,-73"/>
<text text-anchor="middle" x="346.5" y="-80" font-family="Helvetica,sans-Serif" font-size="10.00" fill="#000000">hvm/include/hvm.h</text>
</a>
</g>
</g>
<!-- Node15&#45;&gt;Node20 -->
<g id="edge13" class="edge">
<title>Node15&#45;&gt;Node20</title>
<path fill="none" stroke="#191970" d="M329.32,-252.9094C324.2428,-225.8868 317.31,-175.7754 325.5,-134 328.5093,-118.6499 336.1195,-102.104 341.3024,-92.0227"/>
<polygon fill="#191970" stroke="#191970" points="325.9416,-253.8647 331.3329,-262.9852 332.806,-252.4933 325.9416,-253.8647"/>
</g>
<!-- Node21 -->
<g id="node13" class="node">
<title>Node21</title>
<g id="a_node13"><a xlink:href="main_8c.html" target="_top" xlink:title=" ">
<polygon fill="#ffffff" stroke="#000000" points="311.5,-6 311.5,-25 381.5,-25 381.5,-6 311.5,-6"/>
<text text-anchor="middle" x="346.5" y="-13" font-family="Helvetica,sans-Serif" font-size="10.00" fill="#000000">main/main.c</text>
</a>
</g>
</g>
<!-- Node15&#45;&gt;Node21 -->
<g id="edge15" class="edge">
<title>Node15&#45;&gt;Node21</title>
<path fill="none" stroke="#191970" d="M321.7538,-253.8894C299.9638,-216.8232 258.0611,-131.7731 287.5,-67 295.9385,-48.4331 314.7442,-33.9432 328.8709,-25.1269"/>
<polygon fill="#191970" stroke="#191970" points="318.873,-255.8891 327.0484,-262.6281 324.8599,-252.2617 318.873,-255.8891"/>
</g>
<!-- Node22 -->
<g id="node14" class="node">
<title>Node22</title>
<g id="a_node14"><a xlink:href="token_8h.html" target="_top" xlink:title=" ">
<polygon fill="#ffffff" stroke="#000000" points="520,-196 520,-215 633,-215 633,-196 520,-196"/>
<text text-anchor="middle" x="576.5" y="-203" font-family="Helvetica,sans-Serif" font-size="10.00" fill="#000000">parser/include/token.h</text>
</a>
</g>
</g>
<!-- Node15&#45;&gt;Node22 -->
<g id="edge16" class="edge">
<title>Node15&#45;&gt;Node22</title>
<path fill="none" stroke="#191970" d="M377.9864,-260.2342C425.1225,-247.2378 498.5687,-226.9872 541.6679,-215.1039"/>
<polygon fill="#191970" stroke="#191970" points="376.7679,-256.9395 368.0579,-262.9717 378.6285,-263.6877 376.7679,-256.9395"/>
</g>
<!-- Node33 -->
<g id="node25" class="node">
<title>Node33</title>
<g id="a_node25"><a xlink:href="token_8c.html" target="_top" xlink:title=" ">
<polygon fill="#ffffff" stroke="#000000" points="335,-134.5 335,-153.5 414,-153.5 414,-134.5 335,-134.5"/>
<text text-anchor="middle" x="374.5" y="-141.5" font-family="Helvetica,sans-Serif" font-size="10.00" fill="#000000">parser/token.c</text>
</a>
</g>
</g>
<!-- Node15&#45;&gt;Node33 -->
<g id="edge47" class="edge">
<title>Node15&#45;&gt;Node33</title>
<path fill="none" stroke="#191970" d="M339.7076,-253.0446C348.6021,-225.1679 364.6418,-174.8972 371.3826,-153.7705"/>
<polygon fill="#191970" stroke="#191970" points="336.287,-252.2509 336.5817,-262.8416 342.9558,-254.3787 336.287,-252.2509"/>
</g>
<!-- Node19&#45;&gt;Node17 -->
<g id="edge11" class="edge">
<title>Node19&#45;&gt;Node17</title>
<path fill="none" stroke="#191970" d="M111.881,-189.6491C97.0164,-178.222 77.443,-163.1749 64.9122,-153.5419"/>
<polygon fill="#191970" stroke="#191970" points="109.9387,-192.5707 120,-195.8906 114.2051,-187.021 109.9387,-192.5707"/>
</g>
<!-- Node19&#45;&gt;Node18 -->
<g id="edge12" class="edge">
<title>Node19&#45;&gt;Node18</title>
<path fill="none" stroke="#191970" d="M148.6261,-188.4007C159.1642,-177.2268 172.5477,-163.0356 181.3097,-153.7449"/>
<polygon fill="#191970" stroke="#191970" points="145.8773,-186.2142 141.5625,-195.8906 150.9698,-191.0169 145.8773,-186.2142"/>
</g>
<!-- Node20&#45;&gt;Node21 -->
<g id="edge14" class="edge">
<title>Node20&#45;&gt;Node21</title>
<path fill="none" stroke="#191970" d="M346.5,-62.6079C346.5,-50.214 346.5,-34.8263 346.5,-25.0817"/>
<polygon fill="#191970" stroke="#191970" points="343.0001,-62.9005 346.5,-72.9005 350.0001,-62.9006 343.0001,-62.9005"/>
</g>
<!-- Node23 -->
<g id="node15" class="node">
<title>Node23</title>
<g id="a_node15"><a xlink:href="AST_8c.html" target="_top" xlink:title=" ">
<polygon fill="#ffffff" stroke="#000000" points="399.5,-6 399.5,-25 473.5,-25 473.5,-6 399.5,-6"/>
<text text-anchor="middle" x="436.5" y="-13" font-family="Helvetica,sans-Serif" font-size="10.00" fill="#000000">parser/AST.c</text>
</a>
</g>
</g>
<!-- Node22&#45;&gt;Node23 -->
<g id="edge17" class="edge">
<title>Node22&#45;&gt;Node23</title>
<path fill="none" stroke="#191970" d="M563.1901,-187.4365C534.2047,-148.0992 466.1804,-55.7806 443.7886,-25.3917"/>
<polygon fill="#191970" stroke="#191970" points="560.6152,-189.8423 569.3649,-195.8167 566.2506,-185.6899 560.6152,-189.8423"/>
</g>
<!-- Node24 -->
<g id="node16" class="node">
<title>Node24</title>
<g id="a_node16"><a xlink:href="AST_8h.html" target="_top" xlink:title=" ">
<polygon fill="#ffffff" stroke="#000000" points="761,-134.5 761,-153.5 868,-153.5 868,-134.5 761,-134.5"/>
<text text-anchor="middle" x="814.5" y="-141.5" font-family="Helvetica,sans-Serif" font-size="10.00" fill="#000000">parser/include/AST.h</text>
</a>
</g>
</g>
<!-- Node22&#45;&gt;Node24 -->
<g id="edge18" class="edge">
<title>Node22&#45;&gt;Node24</title>
<path fill="none" stroke="#191970" d="M623.2704,-193.4144C668.4383,-181.7428 735.937,-164.3009 777.487,-153.5643"/>
<polygon fill="#191970" stroke="#191970" points="622.2327,-190.0675 613.4264,-195.9581 623.984,-196.8449 622.2327,-190.0675"/>
</g>
<!-- Node26 -->
<g id="node18" class="node">
<title>Node26</title>
<g id="a_node18"><a xlink:href="compound_8c.html" target="_top" xlink:title=" ">
<polygon fill="#ffffff" stroke="#000000" points="1185.5,-.5 1185.5,-30.5 1283.5,-30.5 1283.5,-.5 1185.5,-.5"/>
<text text-anchor="start" x="1193.5" y="-18.5" font-family="Helvetica,sans-Serif" font-size="10.00" fill="#000000">parser/parserfuncs</text>
<text text-anchor="middle" x="1234.5" y="-7.5" font-family="Helvetica,sans-Serif" font-size="10.00" fill="#000000">/compound.c</text>
</a>
</g>
</g>
<!-- Node22&#45;&gt;Node26 -->
<g id="edge40" class="edge">
<title>Node22&#45;&gt;Node26</title>
<path fill="none" stroke="#191970" d="M622.067,-193.7241C628.8799,-192.2766 635.8483,-190.9687 642.5,-190 777.752,-170.3028 1131.0914,-208.3487 1256.5,-154 1299.3672,-135.4225 1337.9901,-107.9501 1315.5,-67 1306.5155,-50.6409 1289.8885,-38.7386 1274.0259,-30.5246"/>
<polygon fill="#191970" stroke="#191970" points="621.2453,-190.3213 612.2516,-195.9215 622.7747,-197.1522 621.2453,-190.3213"/>
</g>
<!-- Node27 -->
<g id="node19" class="node">
<title>Node27</title>
<g id="a_node19"><a xlink:href="expressions_8c.html" target="_top" xlink:title=" ">
<polygon fill="#ffffff" stroke="#000000" points="607.5,-.5 607.5,-30.5 705.5,-30.5 705.5,-.5 607.5,-.5"/>
<text text-anchor="start" x="615.5" y="-18.5" font-family="Helvetica,sans-Serif" font-size="10.00" fill="#000000">parser/parserfuncs</text>
<text text-anchor="middle" x="656.5" y="-7.5" font-family="Helvetica,sans-Serif" font-size="10.00" fill="#000000">/expressions.c</text>
</a>
</g>
</g>
<!-- Node22&#45;&gt;Node27 -->
<g id="edge41" class="edge">
<title>Node22&#45;&gt;Node27</title>
<path fill="none" stroke="#191970" d="M576.0315,-185.5807C576.204,-157.441 579.6484,-105.2225 600.5,-67 608.4702,-52.39 622.1607,-39.6859 634.0097,-30.5509"/>
<polygon fill="#191970" stroke="#191970" points="572.5327,-185.7681 576.1095,-195.7409 579.5325,-185.7143 572.5327,-185.7681"/>
</g>
<!-- Node28 -->
<g id="node20" class="node">
<title>Node28</title>
<g id="a_node20"><a xlink:href="floats_8c.html" target="_top" xlink:title=" ">
<polygon fill="#ffffff" stroke="#000000" points="953.5,-.5 953.5,-30.5 1051.5,-30.5 1051.5,-.5 953.5,-.5"/>
<text text-anchor="start" x="961.5" y="-18.5" font-family="Helvetica,sans-Serif" font-size="10.00" fill="#000000">parser/parserfuncs</text>
<text text-anchor="middle" x="1002.5" y="-7.5" font-family="Helvetica,sans-Serif" font-size="10.00" fill="#000000">/floats.c</text>
</a>
</g>
</g>
<!-- Node22&#45;&gt;Node28 -->
<g id="edge42" class="edge">
<title>Node22&#45;&gt;Node28</title>
<path fill="none" stroke="#191970" d="M624.7113,-193.679C630.6858,-192.3615 636.7225,-191.1002 642.5,-190 780.8392,-163.6557 1177.433,-204.5618 1269.5,-98 1369.4476,17.6831 1452.0188,-116.8496 1060.5,-31 1057.6493,-30.3749 1054.7284,-29.7012 1051.7867,-28.9968"/>
<polygon fill="#191970" stroke="#191970" points="623.7515,-190.3077 614.7721,-195.9309 625.2983,-197.1346 623.7515,-190.3077"/>
</g>
<!-- Node29 -->
<g id="node21" class="node">
<title>Node29</title>
<g id="a_node21"><a xlink:href="integers_8c.html" target="_top" xlink:title=" ">
<polygon fill="#ffffff" stroke="#000000" points="491.5,-.5 491.5,-30.5 589.5,-30.5 589.5,-.5 491.5,-.5"/>
<text text-anchor="start" x="499.5" y="-18.5" font-family="Helvetica,sans-Serif" font-size="10.00" fill="#000000">parser/parserfuncs</text>
<text text-anchor="middle" x="540.5" y="-7.5" font-family="Helvetica,sans-Serif" font-size="10.00" fill="#000000">/integers.c</text>
</a>
</g>
</g>
<!-- Node22&#45;&gt;Node29 -->
<g id="edge43" class="edge">
<title>Node22&#45;&gt;Node29</title>
<path fill="none" stroke="#191970" d="M570.6614,-185.985C567.9329,-176.4074 564.7892,-164.6628 562.5,-154 552.9433,-109.4862 545.6095,-56.1028 542.3504,-30.5596"/>
<polygon fill="#191970" stroke="#191970" points="567.3365,-187.0854 573.4979,-195.7045 574.0562,-185.1243 567.3365,-187.0854"/>
</g>
<!-- Node30 -->
<g id="node22" class="node">
<title>Node30</title>
<g id="a_node22"><a xlink:href="parser_8c.html" target="_top" xlink:title=" ">
<polygon fill="#ffffff" stroke="#000000" points="723.5,-.5 723.5,-30.5 821.5,-30.5 821.5,-.5 723.5,-.5"/>
<text text-anchor="start" x="731.5" y="-18.5" font-family="Helvetica,sans-Serif" font-size="10.00" fill="#000000">parser/parserfuncs</text>
<text text-anchor="middle" x="772.5" y="-7.5" font-family="Helvetica,sans-Serif" font-size="10.00" fill="#000000">/parser.c</text>
</a>
</g>
</g>
<!-- Node22&#45;&gt;Node30 -->
<g id="edge44" class="edge">
<title>Node22&#45;&gt;Node30</title>
<path fill="none" stroke="#191970" d="M593.7037,-188.8229C631.3589,-152.3205 720.6009,-65.8103 756.8189,-30.7011"/>
<polygon fill="#191970" stroke="#191970" points="591.2332,-186.3433 586.4891,-195.8167 596.1054,-191.3694 591.2332,-186.3433"/>
</g>
<!-- Node31 -->
<g id="node23" class="node">
<title>Node31</title>
<g id="a_node23"><a xlink:href="strings_8c.html" target="_top" xlink:title=" ">
<polygon fill="#ffffff" stroke="#000000" points="1069.5,-.5 1069.5,-30.5 1167.5,-30.5 1167.5,-.5 1069.5,-.5"/>
<text text-anchor="start" x="1077.5" y="-18.5" font-family="Helvetica,sans-Serif" font-size="10.00" fill="#000000">parser/parserfuncs</text>
<text text-anchor="middle" x="1118.5" y="-7.5" font-family="Helvetica,sans-Serif" font-size="10.00" fill="#000000">/strings.c</text>
</a>
</g>
</g>
<!-- Node22&#45;&gt;Node31 -->
<g id="edge45" class="edge">
<title>Node22&#45;&gt;Node31</title>
<path fill="none" stroke="#191970" d="M622.0724,-193.7608C628.8845,-192.3081 635.8513,-190.989 642.5,-190 788.3201,-168.3099 1224.6835,-225.0294 1299.5,-98 1306.4921,-86.1283 1307.8029,-77.9949 1299.5,-67 1297.4389,-64.2706 1220.588,-43.0655 1167.6992,-28.7303"/>
<polygon fill="#191970" stroke="#191970" points="621.2492,-190.3584 612.2575,-195.9619 622.7811,-197.1887 621.2492,-190.3584"/>
</g>
<!-- Node22&#45;&gt;Node33 -->
<g id="edge46" class="edge">
<title>Node22&#45;&gt;Node33</title>
<path fill="none" stroke="#191970" d="M535.1148,-192.9001C496.775,-181.2273 440.5859,-164.1202 405.8409,-153.5419"/>
<polygon fill="#191970" stroke="#191970" points="534.3516,-196.3263 544.9375,-195.8906 536.3905,-189.6297 534.3516,-196.3263"/>
</g>
<!-- Node24&#45;&gt;Node11 -->
<g id="edge19" class="edge">
<title>Node24&#45;&gt;Node11</title>
<path fill="none" stroke="#191970" d="M870.5301,-132.3701C913.753,-123.2985 974.997,-110.227 1028.5,-98 1032.958,-96.9812 1037.5854,-95.9024 1042.2204,-94.8071"/>
<polygon fill="#191970" stroke="#191970" points="869.5653,-128.9962 860.4954,-134.4723 871.0006,-135.8475 869.5653,-128.9962"/>
</g>
<!-- Node24&#45;&gt;Node12 -->
<g id="edge20" class="edge">
<title>Node24&#45;&gt;Node12</title>
<path fill="none" stroke="#191970" d="M878.3754,-137.6153C946.4393,-130.2689 1057.1623,-116.7584 1151.5,-98 1154.4084,-97.4217 1157.3865,-96.7844 1160.3841,-96.1081"/>
<polygon fill="#191970" stroke="#191970" points="877.8103,-134.1557 868.2385,-138.6978 878.5537,-141.1161 877.8103,-134.1557"/>
</g>
<!-- Node24&#45;&gt;Node21 -->
<g id="edge21" class="edge">
<title>Node24&#45;&gt;Node21</title>
<path fill="none" stroke="#191970" d="M750.789,-136.484C697.4315,-129.3099 619.6107,-116.7855 553.5,-98 482.7946,-77.9089 403.0182,-42.196 366.5831,-25.117"/>
<polygon fill="#191970" stroke="#191970" points="750.4188,-139.9654 760.791,-137.8047 751.3352,-133.0257 750.4188,-139.9654"/>
</g>
<!-- Node24&#45;&gt;Node23 -->
<g id="edge22" class="edge">
<title>Node24&#45;&gt;Node23</title>
<path fill="none" stroke="#191970" d="M759.7788,-132.1858C723.7957,-123.888 675.8846,-111.8291 634.5,-98 567.9222,-75.7523 492.0392,-41.538 456.6514,-25.0421"/>
<polygon fill="#191970" stroke="#191970" points="759.0683,-135.6136 769.5963,-134.4248 760.6249,-128.7888 759.0683,-135.6136"/>
</g>
<!-- Node25 -->
<g id="node17" class="node">
<title>Node25</title>
<g id="a_node17"><a xlink:href="parser_8h.html" target="_top" xlink:title=" ">
<polygon fill="#ffffff" stroke="#000000" points="757,-73 757,-92 872,-92 872,-73 757,-73"/>
<text text-anchor="middle" x="814.5" y="-80" font-family="Helvetica,sans-Serif" font-size="10.00" fill="#000000">parser/include/parser.h</text>
</a>
</g>
</g>
<!-- Node24&#45;&gt;Node25 -->
<g id="edge23" class="edge">
<title>Node24&#45;&gt;Node25</title>
<path fill="none" stroke="#191970" d="M814.5,-124.2462C814.5,-113.5519 814.5,-100.814 814.5,-92.2449"/>
<polygon fill="#191970" stroke="#191970" points="811.0001,-124.3906 814.5,-134.3906 818.0001,-124.3907 811.0001,-124.3906"/>
</g>
<!-- Node24&#45;&gt;Node26 -->
<g id="edge33" class="edge">
<title>Node24&#45;&gt;Node26</title>
<path fill="none" stroke="#191970" d="M871.2223,-132.1344C903.8813,-124.3597 945.2998,-112.8736 980.5,-98 1005.6371,-87.3785 1008.2388,-77.3228 1033.5,-67 1094.1686,-42.2082 1113.0622,-47.4608 1176.5,-31 1179.4257,-30.2408 1182.4329,-29.4548 1185.4655,-28.6576"/>
<polygon fill="#191970" stroke="#191970" points="870.3288,-128.7487 861.3845,-134.4277 871.918,-135.5659 870.3288,-128.7487"/>
</g>
<!-- Node24&#45;&gt;Node27 -->
<g id="edge34" class="edge">
<title>Node24&#45;&gt;Node27</title>
<path fill="none" stroke="#191970" d="M787.3627,-129.3988C772.6521,-120.9885 754.4725,-109.7714 739.5,-98 712.6671,-76.9039 685.3073,-47.9667 669.6681,-30.5651"/>
<polygon fill="#191970" stroke="#191970" points="786.0257,-132.6617 796.4603,-134.4978 789.4482,-126.5554 786.0257,-132.6617"/>
</g>
<!-- Node24&#45;&gt;Node28 -->
<g id="edge35" class="edge">
<title>Node24&#45;&gt;Node28</title>
<path fill="none" stroke="#191970" d="M843.9459,-129.7162C860.6632,-121.2037 881.7332,-109.7852 899.5,-98 931.5752,-76.7236 965.9101,-47.8427 985.7252,-30.5012"/>
<polygon fill="#191970" stroke="#191970" points="842.0324,-126.7604 834.6638,-134.3732 845.1715,-133.017 842.0324,-126.7604"/>
</g>
<!-- Node24&#45;&gt;Node29 -->
<g id="edge36" class="edge">
<title>Node24&#45;&gt;Node29</title>
<path fill="none" stroke="#191970" d="M779.6218,-130.7079C757.1154,-121.9091 727.3269,-109.8468 701.5,-98 653.8258,-76.1318 599.8376,-47.6867 568.0611,-30.5516"/>
<polygon fill="#191970" stroke="#191970" points="778.5097,-134.0307 789.0985,-134.3885 781.044,-127.5055 778.5097,-134.0307"/>
</g>
<!-- Node24&#45;&gt;Node30 -->
<g id="edge37" class="edge">
<title>Node24&#45;&gt;Node30</title>
<path fill="none" stroke="#191970" d="M781.6056,-129.5194C768.8523,-122.074 755.6245,-111.6498 748.5,-98 737.0424,-76.0486 750.5352,-47.8765 761.4384,-30.7812"/>
<polygon fill="#191970" stroke="#191970" points="780.2492,-132.7638 790.7141,-134.4178 783.5647,-126.5988 780.2492,-132.7638"/>
</g>
<!-- Node24&#45;&gt;Node31 -->
<g id="edge38" class="edge">
<title>Node24&#45;&gt;Node31</title>
<path fill="none" stroke="#191970" d="M850.3453,-130.8326C874.0915,-121.9411 905.844,-109.7289 933.5,-98 963.7065,-85.1894 970.5736,-80.4519 1000.5,-67 1028.3286,-54.491 1060.0287,-40.68 1083.5598,-30.5117"/>
<polygon fill="#191970" stroke="#191970" points="848.8423,-127.6575 840.6938,-134.4288 851.2865,-134.2169 848.8423,-127.6575"/>
</g>
<!-- Node32 -->
<g id="node24" class="node">
<title>Node32</title>
<g id="a_node24"><a xlink:href="parserutil_8c.html" target="_top" xlink:title=" ">
<polygon fill="#ffffff" stroke="#000000" points="840,-6 840,-25 935,-25 935,-6 840,-6"/>
<text text-anchor="middle" x="887.5" y="-13" font-family="Helvetica,sans-Serif" font-size="10.00" fill="#000000">parser/parserutil.c</text>
</a>
</g>
</g>
<!-- Node24&#45;&gt;Node32 -->
<g id="edge39" class="edge">
<title>Node24&#45;&gt;Node32</title>
<path fill="none" stroke="#191970" d="M846.7402,-129.746C859.798,-122.2486 873.6272,-111.7224 881.5,-98 894.8638,-74.7067 891.9054,-41.4227 889.3398,-25.1728"/>
<polygon fill="#191970" stroke="#191970" points="845.0845,-126.6623 837.9062,-134.4547 848.3772,-132.8396 845.0845,-126.6623"/>
</g>
<!-- Node25&#45;&gt;Node21 -->
<g id="edge24" class="edge">
<title>Node25&#45;&gt;Node21</title>
<path fill="none" stroke="#191970" d="M746.6667,-78.8242C662.2812,-73.2119 514.2222,-59.9406 390.5,-31 384.0334,-29.4874 377.195,-27.3534 370.8866,-25.1515"/>
<polygon fill="#191970" stroke="#191970" points="746.6813,-82.3324 756.8869,-79.487 747.1344,-75.3471 746.6813,-82.3324"/>
</g>
<!-- Node25&#45;&gt;Node23 -->
<g id="edge25" class="edge">
<title>Node25&#45;&gt;Node23</title>
<path fill="none" stroke="#191970" d="M746.84,-75.4429C679.2767,-67.5937 572.7779,-53.04 482.5,-31 475.9505,-29.401 469.0023,-27.2878 462.5441,-25.1378"/>
<polygon fill="#191970" stroke="#191970" points="746.5964,-78.9377 756.9298,-76.5988 747.3931,-71.9832 746.5964,-78.9377"/>
</g>
<!-- Node25&#45;&gt;Node26 -->
<g id="edge26" class="edge">
<title>Node25&#45;&gt;Node26</title>
<path fill="none" stroke="#191970" d="M882.2238,-75.3216C955.2651,-67.0089 1074.7689,-51.752 1176.5,-31 1179.3595,-30.4167 1182.2873,-29.7756 1185.2343,-29.0962"/>
<polygon fill="#191970" stroke="#191970" points="881.7771,-71.8497 872.2323,-76.4484 882.5616,-78.8056 881.7771,-71.8497"/>
</g>
<!-- Node25&#45;&gt;Node27 -->
<g id="edge27" class="edge">
<title>Node25&#45;&gt;Node27</title>
<path fill="none" stroke="#191970" d="M782.3724,-68.8763C756.1154,-57.742 719.0373,-42.019 691.9245,-30.5218"/>
<polygon fill="#191970" stroke="#191970" points="781.2896,-72.2187 791.8625,-72.9005 784.0224,-65.7742 781.2896,-72.2187"/>
</g>
<!-- Node25&#45;&gt;Node28 -->
<g id="edge28" class="edge">
<title>Node25&#45;&gt;Node28</title>
<path fill="none" stroke="#191970" d="M851.0883,-69.4605C882.4117,-58.2974 927.5201,-42.2216 960.3494,-30.5218"/>
<polygon fill="#191970" stroke="#191970" points="849.6805,-66.2466 841.4358,-72.9005 852.0305,-72.8403 849.6805,-66.2466"/>
</g>
<!-- Node25&#45;&gt;Node29 -->
<g id="edge29" class="edge">
<title>Node25&#45;&gt;Node29</title>
<path fill="none" stroke="#191970" d="M763.1618,-70.6722C719.3372,-60.4768 654.6727,-45.1996 598.5,-31 595.5696,-30.2592 592.5588,-29.4874 589.5234,-28.701"/>
<polygon fill="#191970" stroke="#191970" points="762.4772,-74.1063 773.0098,-72.9593 764.0608,-67.2878 762.4772,-74.1063"/>
</g>
<!-- Node25&#45;&gt;Node30 -->
<g id="edge30" class="edge">
<title>Node25&#45;&gt;Node30</title>
<path fill="none" stroke="#191970" d="M803.1554,-64.4026C796.505,-53.7936 788.2031,-40.5502 781.9166,-30.5218"/>
<polygon fill="#191970" stroke="#191970" points="800.2055,-66.2866 808.4824,-72.9005 806.1365,-62.5687 800.2055,-66.2866"/>
</g>
<!-- Node25&#45;&gt;Node31 -->
<g id="edge31" class="edge">
<title>Node25&#45;&gt;Node31</title>
<path fill="none" stroke="#191970" d="M874.134,-70.9663C924.0794,-61.0791 997.16,-46.0817 1060.5,-31 1063.339,-30.324 1066.2508,-29.6105 1069.1856,-28.8757"/>
<polygon fill="#191970" stroke="#191970" points="873.2851,-67.5663 864.1515,-72.9354 874.6398,-74.434 873.2851,-67.5663"/>
</g>
<!-- Node25&#45;&gt;Node32 -->
<g id="edge32" class="edge">
<title>Node25&#45;&gt;Node32</title>
<path fill="none" stroke="#191970" d="M832.5429,-65.94C846.546,-53.0879 865.4679,-35.7212 877.0603,-25.0817"/>
<polygon fill="#191970" stroke="#191970" points="829.9599,-63.5601 824.9591,-72.9005 834.6931,-68.7173 829.9599,-63.5601"/>
</g>
</g>
</svg>
        <g id="navigator" transform="translate(0 0)" fill="#404254">
                <rect fill="#f2f5e9" fill-opacity="0.5" stroke="#606060" stroke-width=".5" x="0" y="0" width="60" height="60"/>
                <use id="zoomplus" xlink:href="#zoomPlus" x="17" y="9" onmousedown="handleZoom(evt,'in')"/>
                <use id="zoomminus" xlink:href="#zoomMin" x="42" y="9" onmousedown="handleZoom(evt,'out')"/>
                <use id="reset" xlink:href="#resetDef" x="30" y="36" onmousedown="handleReset()"/>
                <g id="arrowUp" xlink:href="#dirArrow" transform="translate(30 24)" onmousedown="handlePan(0,-1)">
                  <use xlink:href="#rim" fill="#404040">
                        <set attributeName="fill" to="#808080" begin="arrowUp.mouseover" end="arrowUp.mouseout"/>
                  </use>
                  <path fill="none" stroke="white" stroke-width="1.5" d="M0,-3.0v7 M-2.5,-0.5L0,-3.0L2.5,-0.5"/>
                </g>
                <g id="arrowRight" xlink:href="#dirArrow" transform="rotate(90) translate(36 -43)" onmousedown="handlePan(1,0)">
                  <use xlink:href="#rim" fill="#404040">
                        <set attributeName="fill" to="#808080" begin="arrowRight.mouseover" end="arrowRight.mouseout"/>
                  </use>
                  <path fill="none" stroke="white" stroke-width="1.5" d="M0,-3.0v7 M-2.5,-0.5L0,-3.0L2.5,-0.5"/>
                </g>
                <g id="arrowDown" xlink:href="#dirArrow" transform="rotate(180) translate(-30 -48)" onmousedown="handlePan(0,1)">
                  <use xlink:href="#rim" fill="#404040">
                        <set attributeName="fill" to="#808080" begin="arrowDown.mouseover" end="arrowDown.mouseout"/>
                  </use>
                  <path fill="none" stroke="white" stroke-width="1.5" d="M0,-3.0v7 M-2.5,-0.5L0,-3.0L2.5,-0.5"/>
                </g>
                <g id="arrowLeft" xlink:href="#dirArrow" transform="rotate(270) translate(-36 17)" onmousedown="handlePan(-1,0)">
                  <use xlink:href="#rim" fill="#404040">
                        <set attributeName="fill" to="#808080" begin="arrowLeft.mouseover" end="arrowLeft.mouseout"/>
                  </use>
                  <path fill="none" stroke="white" stroke-width="1.5" d="M0,-3.0v7 M-2.5,-0.5L0,-3.0L2.5,-0.5"/>
                </g>
        </g>
        <svg viewBox="0 0 15 15" width="100%" height="30px" preserveAspectRatio="xMaxYMin meet">
         <g id="arrow_out" transform="scale(0.3 0.3)">
          <a xlink:href="helios__string_8h__dep__incl_org.svg" target="_base">
           <rect id="button" ry="5" rx="5" y="6" x="6" height="38" width="38"
                fill="#f2f5e9" fill-opacity="0.5" stroke="#606060" stroke-width="1.0"/>
           <path id="arrow"
             d="M 11.500037,31.436501 C 11.940474,20.09759 22.043105,11.32322 32.158766,21.979434 L 37.068811,17.246167 C 37.068811,17.246167 37.088388,32 37.088388,32 L 22.160133,31.978069 C 22.160133,31.978069 26.997745,27.140456 26.997745,27.140456 C 18.528582,18.264221 13.291696,25.230495 11.500037,31.436501 z"
             style="fill:#404040;"/>
          </a>
         </g>
        </svg>
</svg>
