<?xml version="1.0" encoding="UTF-8" standalone="no"?>
<!DOCTYPE svg PUBLIC "-//W3C//DTD SVG 1.1//EN"
 "http://www.w3.org/Graphics/SVG/1.1/DTD/svg11.dtd">
<!-- Generated by graphviz version 2.40.1 (20161225.0304)
 -->
<!-- Title: main/builtins/type/include/helios_type.h Pages: 1 -->
<svg width="366pt" height="151pt"
 viewBox="0.00 0.00 366.00 151.00" xmlns="http://www.w3.org/2000/svg" xmlns:xlink="http://www.w3.org/1999/xlink">
<g id="graph0" class="graph" transform="scale(1 1) rotate(0) translate(4 147)">
<title>main/builtins/type/include/helios_type.h</title>
<polygon fill="#ffffff" stroke="transparent" points="-4,4 -4,-147 362,-147 362,4 -4,4"/>
<!-- Node0 -->
<g id="node1" class="node">
<title>Node0</title>
<g id="a_node1"><a xlink:title=" ">
<polygon fill="#bfbfbf" stroke="#000000" points="215,-112.5 215,-142.5 338,-142.5 338,-112.5 215,-112.5"/>
<text text-anchor="start" x="223" y="-130.5" font-family="Helvetica,sans-Serif" font-size="10.00" fill="#000000">main/builtins/type</text>
<text text-anchor="middle" x="276.5" y="-119.5" font-family="Helvetica,sans-Serif" font-size="10.00" fill="#000000">/include/helios_type.h</text>
</a>
</g>
</g>
<!-- Node1 -->
<g id="node2" class="node">
<title>Node1</title>
<g id="a_node2"><a xlink:href="helios__memory_8h.html" target="_top" xlink:title=" ">
<polygon fill="#ffffff" stroke="#000000" points="148.5,-56.5 148.5,-75.5 248.5,-75.5 248.5,-56.5 148.5,-56.5"/>
<text text-anchor="middle" x="198.5" y="-63.5" font-family="Helvetica,sans-Serif" font-size="10.00" fill="#000000">helios_memory.h</text>
</a>
</g>
</g>
<!-- Node0&#45;&gt;Node1 -->
<g id="edge1" class="edge">
<title>Node0&#45;&gt;Node1</title>
<path fill="none" stroke="#191970" d="M257.2191,-112.2977C245.6024,-103.1384 230.8182,-91.4816 218.9908,-82.1562"/>
<polygon fill="#191970" stroke="#191970" points="221.0086,-79.2901 210.9888,-75.8469 216.6744,-84.787 221.0086,-79.2901"/>
</g>
<!-- Node5 -->
<g id="node6" class="node">
<title>Node5</title>
<g id="a_node6"><a xlink:title=" ">
<polygon fill="#ffffff" stroke="#bfbfbf" points="250,-.5 250,-19.5 303,-19.5 303,-.5 250,-.5"/>
<text text-anchor="middle" x="276.5" y="-7.5" font-family="Helvetica,sans-Serif" font-size="10.00" fill="#000000">stdint.h</text>
</a>
</g>
</g>
<!-- Node0&#45;&gt;Node5 -->
<g id="edge6" class="edge">
<title>Node0&#45;&gt;Node5</title>
<path fill="none" stroke="#191970" d="M276.5,-112.1389C276.5,-90.9692 276.5,-52.8174 276.5,-29.6112"/>
<polygon fill="#191970" stroke="#191970" points="280.0001,-29.5594 276.5,-19.5595 273.0001,-29.5595 280.0001,-29.5594"/>
</g>
<!-- Node6 -->
<g id="node7" class="node">
<title>Node6</title>
<g id="a_node7"><a xlink:title=" ">
<polygon fill="#ffffff" stroke="#bfbfbf" points="305,-56.5 305,-75.5 358,-75.5 358,-56.5 305,-56.5"/>
<text text-anchor="middle" x="331.5" y="-63.5" font-family="Helvetica,sans-Serif" font-size="10.00" fill="#000000">stdlib.h</text>
</a>
</g>
</g>
<!-- Node0&#45;&gt;Node6 -->
<g id="edge7" class="edge">
<title>Node0&#45;&gt;Node6</title>
<path fill="none" stroke="#191970" d="M290.0955,-112.2977C297.8891,-103.5831 307.7047,-92.6075 315.8226,-83.5302"/>
<polygon fill="#191970" stroke="#191970" points="318.6365,-85.6341 322.6938,-75.8469 313.4187,-80.9678 318.6365,-85.6341"/>
</g>
<!-- Node2 -->
<g id="node3" class="node">
<title>Node2</title>
<g id="a_node3"><a xlink:href="builtinutils_8h.html" target="_top" xlink:title=" ">
<polygon fill="#ffffff" stroke="#000000" points="0,-.5 0,-19.5 77,-19.5 77,-.5 0,-.5"/>
<text text-anchor="middle" x="38.5" y="-7.5" font-family="Helvetica,sans-Serif" font-size="10.00" fill="#000000">builtinutils.h</text>
</a>
</g>
</g>
<!-- Node1&#45;&gt;Node2 -->
<g id="edge2" class="edge">
<title>Node1&#45;&gt;Node2</title>
<path fill="none" stroke="#191970" d="M170.995,-56.3733C144.6198,-47.1419 104.6149,-33.1402 75.4642,-22.9375"/>
<polygon fill="#191970" stroke="#191970" points="76.2409,-19.5012 65.6461,-19.5011 73.9284,-26.1082 76.2409,-19.5012"/>
</g>
<!-- Node3 -->
<g id="node4" class="node">
<title>Node3</title>
<g id="a_node4"><a xlink:title=" ">
<polygon fill="#ffffff" stroke="#bfbfbf" points="95.5,-.5 95.5,-19.5 157.5,-19.5 157.5,-.5 95.5,-.5"/>
<text text-anchor="middle" x="126.5" y="-7.5" font-family="Helvetica,sans-Serif" font-size="10.00" fill="#000000">stdbool.h</text>
</a>
</g>
</g>
<!-- Node1&#45;&gt;Node3 -->
<g id="edge3" class="edge">
<title>Node1&#45;&gt;Node3</title>
<path fill="none" stroke="#191970" d="M185.9586,-56.2455C175.2213,-47.8943 159.5527,-35.7076 146.9953,-25.9408"/>
<polygon fill="#191970" stroke="#191970" points="148.9401,-23.0194 138.8977,-19.6427 144.6425,-28.5449 148.9401,-23.0194"/>
</g>
<!-- Node4 -->
<g id="node5" class="node">
<title>Node4</title>
<g id="a_node5"><a xlink:title=" ">
<polygon fill="#ffffff" stroke="#bfbfbf" points="175.5,-.5 175.5,-19.5 231.5,-19.5 231.5,-.5 175.5,-.5"/>
<text text-anchor="middle" x="203.5" y="-7.5" font-family="Helvetica,sans-Serif" font-size="10.00" fill="#000000">stddef.h</text>
</a>
</g>
</g>
<!-- Node1&#45;&gt;Node4 -->
<g id="edge4" class="edge">
<title>Node1&#45;&gt;Node4</title>
<path fill="none" stroke="#191970" d="M199.3709,-56.2455C200.0234,-48.9382 200.938,-38.6944 201.7407,-29.7046"/>
<polygon fill="#191970" stroke="#191970" points="205.2358,-29.9143 202.639,-19.6427 198.2635,-29.2918 205.2358,-29.9143"/>
</g>
<!-- Node1&#45;&gt;Node5 -->
<g id="edge5" class="edge">
<title>Node1&#45;&gt;Node5</title>
<path fill="none" stroke="#191970" d="M212.0866,-56.2455C223.8305,-47.814 241.0199,-35.4729 254.6882,-25.6598"/>
<polygon fill="#191970" stroke="#191970" points="256.9871,-28.3179 263.0691,-19.6427 252.9046,-22.6316 256.9871,-28.3179"/>
</g>
</g>
</svg>
