<?xml version="1.0" encoding="UTF-8" standalone="no"?>
<!DOCTYPE svg PUBLIC "-//W3C//DTD SVG 1.1//EN"
 "http://www.w3.org/Graphics/SVG/1.1/DTD/svg11.dtd">
<!-- Generated by graphviz version 2.40.1 (20161225.0304)
 -->
<!-- Title: helios_code_from_AST Pages: 1 -->
<svg width="463pt" height="148pt"
 viewBox="0.00 0.00 463.00 148.00" xmlns="http://www.w3.org/2000/svg" xmlns:xlink="http://www.w3.org/1999/xlink">
<g id="graph0" class="graph" transform="scale(1 1) rotate(0) translate(4 144)">
<title>helios_code_from_AST</title>
<polygon fill="#ffffff" stroke="transparent" points="-4,4 -4,-144 459,-144 459,4 -4,4"/>
<!-- Node10 -->
<g id="node1" class="node">
<title>Node10</title>
<g id="a_node1"><a xlink:title=" ">
<polygon fill="#bfbfbf" stroke="#000000" points="0,-41.5 0,-60.5 118,-60.5 118,-41.5 0,-41.5"/>
<text text-anchor="middle" x="59" y="-48.5" font-family="Helvetica,sans-Serif" font-size="10.00" fill="#000000">helios_code_from_AST</text>
</a>
</g>
</g>
<!-- Node11 -->
<g id="node2" class="node">
<title>Node11</title>
<g id="a_node2"><a xlink:href="helios__code_8c.html#ab47a14436bfa855c861f5cd333cd1dfd" target="_top" xlink:title=" ">
<polygon fill="#ffffff" stroke="#000000" points="170,-85.5 170,-104.5 256,-104.5 256,-85.5 170,-85.5"/>
<text text-anchor="middle" x="213" y="-92.5" font-family="Helvetica,sans-Serif" font-size="10.00" fill="#000000">helios_code_init</text>
</a>
</g>
</g>
<!-- Node10&#45;&gt;Node11 -->
<g id="edge1" class="edge">
<title>Node10&#45;&gt;Node11</title>
<path fill="none" stroke="#191970" d="M92.4157,-60.5473C115.1187,-67.0339 145.359,-75.674 169.8763,-82.6789"/>
<polygon fill="#191970" stroke="#191970" points="169.0727,-86.0893 179.6495,-85.4713 170.9958,-79.3587 169.0727,-86.0893"/>
</g>
<!-- Node14 -->
<g id="node5" class="node">
<title>Node14</title>
<g id="a_node5"><a xlink:href="helios__code_8c.html#a7f71fb27d10c5bf81cbdb3ac0c0210b6" target="_top" xlink:title=" ">
<polygon fill="#ffffff" stroke="#000000" points="154,-36 154,-66 272,-66 272,-36 154,-36"/>
<text text-anchor="start" x="162" y="-54" font-family="Helvetica,sans-Serif" font-size="10.00" fill="#000000">helios_code_from_AST</text>
<text text-anchor="middle" x="213" y="-43" font-family="Helvetica,sans-Serif" font-size="10.00" fill="#000000">_helper</text>
</a>
</g>
</g>
<!-- Node10&#45;&gt;Node14 -->
<g id="edge4" class="edge">
<title>Node10&#45;&gt;Node14</title>
<path fill="none" stroke="#191970" d="M118.1,-51C126.4218,-51 135.0389,-51 143.5326,-51"/>
<polygon fill="#191970" stroke="#191970" points="143.8037,-54.5001 153.8037,-51 143.8037,-47.5001 143.8037,-54.5001"/>
</g>
<!-- Node16 -->
<g id="node7" class="node">
<title>Node16</title>
<g id="a_node7"><a xlink:href="helios__code_8c.html#a71d2ab8c6616394cc8cb48702bb02e80" target="_top" xlink:title=" ">
<polygon fill="#ffffff" stroke="#000000" points="311.5,-.5 311.5,-19.5 451.5,-19.5 451.5,-.5 311.5,-.5"/>
<text text-anchor="middle" x="381.5" y="-7.5" font-family="Helvetica,sans-Serif" font-size="10.00" fill="#000000">helios_code_add_instruction</text>
</a>
</g>
</g>
<!-- Node10&#45;&gt;Node16 -->
<g id="edge7" class="edge">
<title>Node10&#45;&gt;Node16</title>
<path fill="none" stroke="#191970" d="M89.4898,-41.4199C107.9695,-36.0051 132.1257,-29.6147 154,-26 202.5633,-17.975 257.6095,-13.9709 301.3901,-11.9751"/>
<polygon fill="#191970" stroke="#191970" points="301.5671,-15.4708 311.4075,-11.5443 301.2663,-8.4772 301.5671,-15.4708"/>
</g>
<!-- Node12 -->
<g id="node3" class="node">
<title>Node12</title>
<g id="a_node3"><a xlink:href="helios__memory_8h.html#af87f0050f8e236d0945592fa4e54dc94" target="_top" xlink:title="Allocates a new helios object (and performs all the GC steps associated with that action).">
<polygon fill="#ffffff" stroke="#000000" points="325,-120.5 325,-139.5 438,-139.5 438,-120.5 325,-120.5"/>
<text text-anchor="middle" x="381.5" y="-127.5" font-family="Helvetica,sans-Serif" font-size="10.00" fill="#000000">helios_allocate_object</text>
</a>
</g>
</g>
<!-- Node11&#45;&gt;Node12 -->
<g id="edge2" class="edge">
<title>Node11&#45;&gt;Node12</title>
<path fill="none" stroke="#191970" d="M256.3929,-104.0134C277.5432,-108.4066 303.2262,-113.7413 325.8056,-118.4314"/>
<polygon fill="#191970" stroke="#191970" points="325.0981,-121.8591 335.601,-120.4661 326.5218,-115.0054 325.0981,-121.8591"/>
</g>
<!-- Node13 -->
<g id="node4" class="node">
<title>Node13</title>
<g id="a_node4"><a xlink:href="helios__memory_8h.html#ab14fb1c046aae61ab06eda8eeaf2cd85" target="_top" xlink:title=" ">
<polygon fill="#ffffff" stroke="#000000" points="308,-82.5 308,-101.5 455,-101.5 455,-82.5 308,-82.5"/>
<text text-anchor="middle" x="381.5" y="-89.5" font-family="Helvetica,sans-Serif" font-size="10.00" fill="#000000">helios_set_garbagecollectable</text>
</a>
</g>
</g>
<!-- Node11&#45;&gt;Node13 -->
<g id="edge3" class="edge">
<title>Node11&#45;&gt;Node13</title>
<path fill="none" stroke="#191970" d="M256.3929,-94.2274C269.0259,-94.0025 283.2759,-93.7488 297.5158,-93.4953"/>
<polygon fill="#191970" stroke="#191970" points="297.9236,-96.9887 307.8596,-93.3111 297.7989,-89.9898 297.9236,-96.9887"/>
</g>
<!-- Node15 -->
<g id="node6" class="node">
<title>Node15</title>
<g id="a_node6"><a xlink:href="helios__code_8c.html#ae826a551bc568e53f64610757587e23c" target="_top" xlink:title=" ">
<polygon fill="#ffffff" stroke="#000000" points="315.5,-41.5 315.5,-60.5 447.5,-60.5 447.5,-41.5 315.5,-41.5"/>
<text text-anchor="middle" x="381.5" y="-48.5" font-family="Helvetica,sans-Serif" font-size="10.00" fill="#000000">helios_code_add_constant</text>
</a>
</g>
</g>
<!-- Node14&#45;&gt;Node15 -->
<g id="edge5" class="edge">
<title>Node14&#45;&gt;Node15</title>
<path fill="none" stroke="#191970" d="M272.4068,-51C283.0706,-51 294.3177,-51 305.3762,-51"/>
<polygon fill="#191970" stroke="#191970" points="305.4569,-54.5001 315.4569,-51 305.4568,-47.5001 305.4569,-54.5001"/>
</g>
<!-- Node14&#45;&gt;Node16 -->
<g id="edge6" class="edge">
<title>Node14&#45;&gt;Node16</title>
<path fill="none" stroke="#191970" d="M272.4068,-36.5449C292.0841,-31.757 313.7471,-26.4859 332.5475,-21.9113"/>
<polygon fill="#191970" stroke="#191970" points="333.4896,-25.2843 342.3786,-19.5192 331.8346,-18.4827 333.4896,-25.2843"/>
</g>
</g>
</svg>
