<?xml version="1.0" encoding="UTF-8" standalone="no"?>
<!DOCTYPE svg PUBLIC "-//W3C//DTD SVG 1.1//EN"
 "http://www.w3.org/Graphics/SVG/1.1/DTD/svg11.dtd">
<!-- Generated by graphviz version 2.40.1 (20161225.0304)
 -->
<!-- Title: builtins/hashmap/include/helios_hashmap.h Pages: 1 -->
<svg width="307pt" height="263pt"
 viewBox="0.00 0.00 307.00 263.00" xmlns="http://www.w3.org/2000/svg" xmlns:xlink="http://www.w3.org/1999/xlink">
<g id="graph0" class="graph" transform="scale(1 1) rotate(0) translate(4 259)">
<title>builtins/hashmap/include/helios_hashmap.h</title>
<polygon fill="#ffffff" stroke="transparent" points="-4,4 -4,-259 303,-259 303,4 -4,4"/>
<!-- Node0 -->
<g id="node1" class="node">
<title>Node0</title>
<g id="a_node1"><a xlink:title=" ">
<polygon fill="#bfbfbf" stroke="#000000" points="165,-224.5 165,-254.5 289,-254.5 289,-224.5 165,-224.5"/>
<text text-anchor="start" x="173" y="-242.5" font-family="Helvetica,sans-Serif" font-size="10.00" fill="#000000">builtins/hashmap/include</text>
<text text-anchor="middle" x="227" y="-231.5" font-family="Helvetica,sans-Serif" font-size="10.00" fill="#000000">/helios_hashmap.h</text>
</a>
</g>
</g>
<!-- Node1 -->
<g id="node2" class="node">
<title>Node1</title>
<g id="a_node2"><a xlink:href="helios__object_8h.html" target="_top" xlink:title=" ">
<polygon fill="#ffffff" stroke="#000000" points="143,-168.5 143,-187.5 225,-187.5 225,-168.5 143,-168.5"/>
<text text-anchor="middle" x="184" y="-175.5" font-family="Helvetica,sans-Serif" font-size="10.00" fill="#000000">helios_object.h</text>
</a>
</g>
</g>
<!-- Node0&#45;&gt;Node1 -->
<g id="edge1" class="edge">
<title>Node0&#45;&gt;Node1</title>
<path fill="none" stroke="#191970" d="M216.3708,-224.2977C210.4019,-215.7609 202.9162,-205.0545 196.6471,-196.0883"/>
<polygon fill="#191970" stroke="#191970" points="199.4835,-194.0368 190.8848,-187.8469 193.7466,-198.048 199.4835,-194.0368"/>
</g>
<!-- Node8 -->
<g id="node9" class="node">
<title>Node8</title>
<g id="a_node9"><a xlink:title=" ">
<polygon fill="#ffffff" stroke="#bfbfbf" points="243,-168.5 243,-187.5 299,-187.5 299,-168.5 243,-168.5"/>
<text text-anchor="middle" x="271" y="-175.5" font-family="Helvetica,sans-Serif" font-size="10.00" fill="#000000">stdbool.h</text>
</a>
</g>
</g>
<!-- Node0&#45;&gt;Node8 -->
<g id="edge9" class="edge">
<title>Node0&#45;&gt;Node8</title>
<path fill="none" stroke="#191970" d="M237.8764,-224.2977C243.9841,-215.7609 251.6439,-205.0545 258.0588,-196.0883"/>
<polygon fill="#191970" stroke="#191970" points="260.9829,-198.0163 263.955,-187.8469 255.2899,-193.9433 260.9829,-198.0163"/>
</g>
<!-- Node2 -->
<g id="node3" class="node">
<title>Node2</title>
<g id="a_node3"><a xlink:href="helios__type_8h.html" target="_top" xlink:title=" ">
<polygon fill="#ffffff" stroke="#000000" points="147,-112.5 147,-131.5 221,-131.5 221,-112.5 147,-112.5"/>
<text text-anchor="middle" x="184" y="-119.5" font-family="Helvetica,sans-Serif" font-size="10.00" fill="#000000">helios_type.h</text>
</a>
</g>
</g>
<!-- Node1&#45;&gt;Node2 -->
<g id="edge2" class="edge">
<title>Node1&#45;&gt;Node2</title>
<path fill="none" stroke="#191970" d="M184,-168.2455C184,-160.9382 184,-150.6944 184,-141.7046"/>
<polygon fill="#191970" stroke="#191970" points="187.5001,-141.6426 184,-131.6427 180.5001,-141.6427 187.5001,-141.6426"/>
</g>
<!-- Node3 -->
<g id="node4" class="node">
<title>Node3</title>
<g id="a_node4"><a xlink:href="helios__memory_8h.html" target="_top" xlink:title=" ">
<polygon fill="#ffffff" stroke="#000000" points="66,-56.5 66,-75.5 156,-75.5 156,-56.5 66,-56.5"/>
<text text-anchor="middle" x="111" y="-63.5" font-family="Helvetica,sans-Serif" font-size="10.00" fill="#000000">helios_memory.h</text>
</a>
</g>
</g>
<!-- Node2&#45;&gt;Node3 -->
<g id="edge3" class="edge">
<title>Node2&#45;&gt;Node3</title>
<path fill="none" stroke="#191970" d="M171.2844,-112.2455C160.398,-103.8943 144.5117,-91.7076 131.78,-81.9408"/>
<polygon fill="#191970" stroke="#191970" points="133.6346,-78.9523 123.5699,-75.6427 129.3739,-84.5063 133.6346,-78.9523"/>
</g>
<!-- Node6 -->
<g id="node7" class="node">
<title>Node6</title>
<g id="a_node7"><a xlink:title=" ">
<polygon fill="#ffffff" stroke="#bfbfbf" points="158.5,-.5 158.5,-19.5 207.5,-19.5 207.5,-.5 158.5,-.5"/>
<text text-anchor="middle" x="183" y="-7.5" font-family="Helvetica,sans-Serif" font-size="10.00" fill="#000000">stdint.h</text>
</a>
</g>
</g>
<!-- Node2&#45;&gt;Node6 -->
<g id="edge7" class="edge">
<title>Node2&#45;&gt;Node6</title>
<path fill="none" stroke="#191970" d="M183.9147,-112.4509C183.7516,-94.184 183.3925,-53.9553 183.1759,-29.6976"/>
<polygon fill="#191970" stroke="#191970" points="186.6743,-29.4932 183.085,-19.5249 179.6746,-29.5558 186.6743,-29.4932"/>
</g>
<!-- Node7 -->
<g id="node8" class="node">
<title>Node7</title>
<g id="a_node8"><a xlink:title=" ">
<polygon fill="#ffffff" stroke="#bfbfbf" points="212,-56.5 212,-75.5 260,-75.5 260,-56.5 212,-56.5"/>
<text text-anchor="middle" x="236" y="-63.5" font-family="Helvetica,sans-Serif" font-size="10.00" fill="#000000">stdlib.h</text>
</a>
</g>
</g>
<!-- Node2&#45;&gt;Node7 -->
<g id="edge8" class="edge">
<title>Node2&#45;&gt;Node7</title>
<path fill="none" stroke="#191970" d="M193.0577,-112.2455C200.5142,-104.2155 211.2634,-92.6394 220.1417,-83.0781"/>
<polygon fill="#191970" stroke="#191970" points="222.8063,-85.3522 227.0461,-75.6427 217.6768,-80.589 222.8063,-85.3522"/>
</g>
<!-- Node4 -->
<g id="node5" class="node">
<title>Node4</title>
<g id="a_node5"><a xlink:href="builtinutils_8h.html" target="_top" xlink:title=" ">
<polygon fill="#ffffff" stroke="#000000" points="0,-.5 0,-19.5 68,-19.5 68,-.5 0,-.5"/>
<text text-anchor="middle" x="34" y="-7.5" font-family="Helvetica,sans-Serif" font-size="10.00" fill="#000000">builtinutils.h</text>
</a>
</g>
</g>
<!-- Node3&#45;&gt;Node4 -->
<g id="edge4" class="edge">
<title>Node3&#45;&gt;Node4</title>
<path fill="none" stroke="#191970" d="M97.5876,-56.2455C85.9943,-47.814 69.0252,-35.4729 55.5322,-25.6598"/>
<polygon fill="#191970" stroke="#191970" points="57.4047,-22.6938 47.2587,-19.6427 53.2874,-28.355 57.4047,-22.6938"/>
</g>
<!-- Node5 -->
<g id="node6" class="node">
<title>Node5</title>
<g id="a_node6"><a xlink:title=" ">
<polygon fill="#ffffff" stroke="#bfbfbf" points="86,-.5 86,-19.5 138,-19.5 138,-.5 86,-.5"/>
<text text-anchor="middle" x="112" y="-7.5" font-family="Helvetica,sans-Serif" font-size="10.00" fill="#000000">stddef.h</text>
</a>
</g>
</g>
<!-- Node3&#45;&gt;Node5 -->
<g id="edge5" class="edge">
<title>Node3&#45;&gt;Node5</title>
<path fill="none" stroke="#191970" d="M111.1742,-56.2455C111.3047,-48.9382 111.4876,-38.6944 111.6481,-29.7046"/>
<polygon fill="#191970" stroke="#191970" points="115.1486,-29.7036 111.8278,-19.6427 108.1497,-29.5786 115.1486,-29.7036"/>
</g>
<!-- Node3&#45;&gt;Node6 -->
<g id="edge6" class="edge">
<title>Node3&#45;&gt;Node6</title>
<path fill="none" stroke="#191970" d="M123.5414,-56.2455C134.2787,-47.8943 149.9473,-35.7076 162.5047,-25.9408"/>
<polygon fill="#191970" stroke="#191970" points="164.8575,-28.5449 170.6023,-19.6427 160.5599,-23.0194 164.8575,-28.5449"/>
</g>
</g>
</svg>
