<?xml version="1.0" encoding="UTF-8" standalone="no"?>
<!DOCTYPE svg PUBLIC "-//W3C//DTD SVG 1.1//EN"
 "http://www.w3.org/Graphics/SVG/1.1/DTD/svg11.dtd">
<!-- Generated by graphviz version 2.40.1 (20161225.0304)
 -->
<!-- Title: builtins/string/helios_string.c Pages: 1 -->
<svg width="404pt" height="319pt"
 viewBox="0.00 0.00 403.50 319.00" xmlns="http://www.w3.org/2000/svg" xmlns:xlink="http://www.w3.org/1999/xlink">
<g id="graph0" class="graph" transform="scale(1 1) rotate(0) translate(4 315)">
<title>builtins/string/helios_string.c</title>
<polygon fill="#ffffff" stroke="transparent" points="-4,4 -4,-315 399.5,-315 399.5,4 -4,4"/>
<!-- Node0 -->
<g id="node1" class="node">
<title>Node0</title>
<g id="a_node1"><a xlink:title=" ">
<polygon fill="#bfbfbf" stroke="#000000" points="202.5,-280.5 202.5,-310.5 305.5,-310.5 305.5,-280.5 202.5,-280.5"/>
<text text-anchor="start" x="210.5" y="-298.5" font-family="Helvetica,sans-Serif" font-size="10.00" fill="#000000">builtins/string/helios</text>
<text text-anchor="middle" x="254" y="-287.5" font-family="Helvetica,sans-Serif" font-size="10.00" fill="#000000">_string.c</text>
</a>
</g>
</g>
<!-- Node1 -->
<g id="node2" class="node">
<title>Node1</title>
<g id="a_node2"><a xlink:href="helios__memory_8h.html" target="_top" xlink:title=" ">
<polygon fill="#ffffff" stroke="#000000" points="137,-56.5 137,-75.5 227,-75.5 227,-56.5 137,-56.5"/>
<text text-anchor="middle" x="182" y="-63.5" font-family="Helvetica,sans-Serif" font-size="10.00" fill="#000000">helios_memory.h</text>
</a>
</g>
</g>
<!-- Node0&#45;&gt;Node1 -->
<g id="edge1" class="edge">
<title>Node0&#45;&gt;Node1</title>
<path fill="none" stroke="#191970" d="M245.6455,-280.3001C234.762,-259.8866 215.8473,-222.2152 205,-188 193.8662,-152.881 187.3466,-110.27 184.243,-85.8284"/>
<polygon fill="#191970" stroke="#191970" points="187.6921,-85.1943 183.0208,-75.6849 180.7423,-86.0318 187.6921,-85.1943"/>
</g>
<!-- Node6 -->
<g id="node7" class="node">
<title>Node6</title>
<g id="a_node7"><a xlink:href="helios__object_8h.html" target="_top" xlink:title=" ">
<polygon fill="#ffffff" stroke="#000000" points="214,-168.5 214,-187.5 296,-187.5 296,-168.5 214,-168.5"/>
<text text-anchor="middle" x="255" y="-175.5" font-family="Helvetica,sans-Serif" font-size="10.00" fill="#000000">helios_object.h</text>
</a>
</g>
</g>
<!-- Node0&#45;&gt;Node6 -->
<g id="edge6" class="edge">
<title>Node0&#45;&gt;Node6</title>
<path fill="none" stroke="#191970" d="M247.4128,-280.2242C241.995,-265.7926 235.7039,-243.5097 239,-224 240.545,-214.8551 243.7034,-205.1019 246.809,-196.9405"/>
<polygon fill="#191970" stroke="#191970" points="250.0742,-198.2021 250.589,-187.6198 243.5873,-195.5713 250.0742,-198.2021"/>
</g>
<!-- Node9 -->
<g id="node10" class="node">
<title>Node9</title>
<g id="a_node10"><a xlink:href="helios__string_8h.html" target="_top" xlink:title=" ">
<polygon fill="#ffffff" stroke="#000000" points="248,-224.5 248,-243.5 328,-243.5 328,-224.5 248,-224.5"/>
<text text-anchor="middle" x="288" y="-231.5" font-family="Helvetica,sans-Serif" font-size="10.00" fill="#000000">helios_string.h</text>
</a>
</g>
</g>
<!-- Node0&#45;&gt;Node9 -->
<g id="edge11" class="edge">
<title>Node0&#45;&gt;Node9</title>
<path fill="none" stroke="#191970" d="M262.4045,-280.2977C267.0257,-271.9388 272.7969,-261.4997 277.6889,-252.6509"/>
<polygon fill="#191970" stroke="#191970" points="280.7809,-254.292 282.5562,-243.8469 274.6548,-250.9051 280.7809,-254.292"/>
</g>
<!-- Node10 -->
<g id="node11" class="node">
<title>Node10</title>
<g id="a_node11"><a xlink:title=" ">
<polygon fill="#ffffff" stroke="#bfbfbf" points="346.5,-224.5 346.5,-243.5 395.5,-243.5 395.5,-224.5 346.5,-224.5"/>
<text text-anchor="middle" x="371" y="-231.5" font-family="Helvetica,sans-Serif" font-size="10.00" fill="#000000">string.h</text>
</a>
</g>
</g>
<!-- Node0&#45;&gt;Node10 -->
<g id="edge13" class="edge">
<title>Node0&#45;&gt;Node10</title>
<path fill="none" stroke="#191970" d="M282.6214,-280.4554C301.287,-270.644 325.4999,-257.9167 343.8612,-248.2653"/>
<polygon fill="#191970" stroke="#191970" points="345.646,-251.2812 352.8692,-243.5303 342.389,-245.0851 345.646,-251.2812"/>
</g>
<!-- Node2 -->
<g id="node3" class="node">
<title>Node2</title>
<g id="a_node3"><a xlink:href="builtinutils_8h.html" target="_top" xlink:title=" ">
<polygon fill="#ffffff" stroke="#000000" points="0,-.5 0,-19.5 68,-19.5 68,-.5 0,-.5"/>
<text text-anchor="middle" x="34" y="-7.5" font-family="Helvetica,sans-Serif" font-size="10.00" fill="#000000">builtinutils.h</text>
</a>
</g>
</g>
<!-- Node1&#45;&gt;Node2 -->
<g id="edge2" class="edge">
<title>Node1&#45;&gt;Node2</title>
<path fill="none" stroke="#191970" d="M156.5579,-56.3733C132.2674,-47.1822 95.4792,-33.2624 68.5457,-23.0713"/>
<polygon fill="#191970" stroke="#191970" points="69.7016,-19.7666 59.1101,-19.5011 67.2243,-26.3136 69.7016,-19.7666"/>
</g>
<!-- Node3 -->
<g id="node4" class="node">
<title>Node3</title>
<g id="a_node4"><a xlink:title=" ">
<polygon fill="#ffffff" stroke="#bfbfbf" points="86,-.5 86,-19.5 142,-19.5 142,-.5 86,-.5"/>
<text text-anchor="middle" x="114" y="-7.5" font-family="Helvetica,sans-Serif" font-size="10.00" fill="#000000">stdbool.h</text>
</a>
</g>
</g>
<!-- Node1&#45;&gt;Node3 -->
<g id="edge3" class="edge">
<title>Node1&#45;&gt;Node3</title>
<path fill="none" stroke="#191970" d="M170.1553,-56.2455C160.112,-47.9746 145.5005,-35.9416 133.6996,-26.2232"/>
<polygon fill="#191970" stroke="#191970" points="135.6533,-23.298 125.709,-19.6427 131.2033,-28.7015 135.6533,-23.298"/>
</g>
<!-- Node4 -->
<g id="node5" class="node">
<title>Node4</title>
<g id="a_node5"><a xlink:title=" ">
<polygon fill="#ffffff" stroke="#bfbfbf" points="160,-.5 160,-19.5 212,-19.5 212,-.5 160,-.5"/>
<text text-anchor="middle" x="186" y="-7.5" font-family="Helvetica,sans-Serif" font-size="10.00" fill="#000000">stddef.h</text>
</a>
</g>
</g>
<!-- Node1&#45;&gt;Node4 -->
<g id="edge4" class="edge">
<title>Node1&#45;&gt;Node4</title>
<path fill="none" stroke="#191970" d="M182.6967,-56.2455C183.2187,-48.9382 183.9504,-38.6944 184.5925,-29.7046"/>
<polygon fill="#191970" stroke="#191970" points="188.0898,-29.8667 185.3112,-19.6427 181.1076,-29.3679 188.0898,-29.8667"/>
</g>
<!-- Node5 -->
<g id="node6" class="node">
<title>Node5</title>
<g id="a_node6"><a xlink:title=" ">
<polygon fill="#ffffff" stroke="#bfbfbf" points="230.5,-.5 230.5,-19.5 279.5,-19.5 279.5,-.5 230.5,-.5"/>
<text text-anchor="middle" x="255" y="-7.5" font-family="Helvetica,sans-Serif" font-size="10.00" fill="#000000">stdint.h</text>
</a>
</g>
</g>
<!-- Node1&#45;&gt;Node5 -->
<g id="edge5" class="edge">
<title>Node1&#45;&gt;Node5</title>
<path fill="none" stroke="#191970" d="M194.7156,-56.2455C205.602,-47.8943 221.4883,-35.7076 234.22,-25.9408"/>
<polygon fill="#191970" stroke="#191970" points="236.6261,-28.5063 242.4301,-19.6427 232.3654,-22.9523 236.6261,-28.5063"/>
</g>
<!-- Node7 -->
<g id="node8" class="node">
<title>Node7</title>
<g id="a_node8"><a xlink:href="helios__type_8h.html" target="_top" xlink:title=" ">
<polygon fill="#ffffff" stroke="#000000" points="218,-112.5 218,-131.5 292,-131.5 292,-112.5 218,-112.5"/>
<text text-anchor="middle" x="255" y="-119.5" font-family="Helvetica,sans-Serif" font-size="10.00" fill="#000000">helios_type.h</text>
</a>
</g>
</g>
<!-- Node6&#45;&gt;Node7 -->
<g id="edge7" class="edge">
<title>Node6&#45;&gt;Node7</title>
<path fill="none" stroke="#191970" d="M255,-168.2455C255,-160.9382 255,-150.6944 255,-141.7046"/>
<polygon fill="#191970" stroke="#191970" points="258.5001,-141.6426 255,-131.6427 251.5001,-141.6427 258.5001,-141.6426"/>
</g>
<!-- Node7&#45;&gt;Node1 -->
<g id="edge8" class="edge">
<title>Node7&#45;&gt;Node1</title>
<path fill="none" stroke="#191970" d="M242.2844,-112.2455C231.398,-103.8943 215.5117,-91.7076 202.78,-81.9408"/>
<polygon fill="#191970" stroke="#191970" points="204.6346,-78.9523 194.5699,-75.6427 200.3739,-84.5063 204.6346,-78.9523"/>
</g>
<!-- Node7&#45;&gt;Node5 -->
<g id="edge9" class="edge">
<title>Node7&#45;&gt;Node5</title>
<path fill="none" stroke="#191970" d="M255,-112.4509C255,-94.184 255,-53.9553 255,-29.6976"/>
<polygon fill="#191970" stroke="#191970" points="258.5001,-29.5249 255,-19.5249 251.5001,-29.5249 258.5001,-29.5249"/>
</g>
<!-- Node8 -->
<g id="node9" class="node">
<title>Node8</title>
<g id="a_node9"><a xlink:title=" ">
<polygon fill="#ffffff" stroke="#bfbfbf" points="283,-56.5 283,-75.5 331,-75.5 331,-56.5 283,-56.5"/>
<text text-anchor="middle" x="307" y="-63.5" font-family="Helvetica,sans-Serif" font-size="10.00" fill="#000000">stdlib.h</text>
</a>
</g>
</g>
<!-- Node7&#45;&gt;Node8 -->
<g id="edge10" class="edge">
<title>Node7&#45;&gt;Node8</title>
<path fill="none" stroke="#191970" d="M264.0577,-112.2455C271.5142,-104.2155 282.2634,-92.6394 291.1417,-83.0781"/>
<polygon fill="#191970" stroke="#191970" points="293.8063,-85.3522 298.0461,-75.6427 288.6768,-80.589 293.8063,-85.3522"/>
</g>
<!-- Node9&#45;&gt;Node6 -->
<g id="edge12" class="edge">
<title>Node9&#45;&gt;Node6</title>
<path fill="none" stroke="#191970" d="M282.2518,-224.2455C277.7565,-216.617 271.3752,-205.7881 265.9175,-196.5267"/>
<polygon fill="#191970" stroke="#191970" points="268.7747,-194.4811 260.6823,-187.6427 262.7439,-198.035 268.7747,-194.4811"/>
</g>
</g>
</svg>
