<?xml version="1.0" encoding="UTF-8" standalone="no"?>
<!DOCTYPE svg PUBLIC "-//W3C//DTD SVG 1.1//EN"
 "http://www.w3.org/Graphics/SVG/1.1/DTD/svg11.dtd">
<!-- Generated by graphviz version 2.40.1 (20161225.0304)
 -->
<!-- Title: main/hvm/include/hvm.h Pages: 1 -->
<!--zoomable 364 -->
<svg id="main" version="1.1" xmlns="http://www.w3.org/2000/svg" xmlns:xlink="http://www.w3.org/1999/xlink" xml:space="preserve" onload="init(evt)">
<style type="text/css"><![CDATA[
.edge:hover path { stroke: red; }
.edge:hover polygon { stroke: red; fill: red; }
]]></style>
<script type="text/javascript"><![CDATA[
var edges = document.getElementsByTagName('g');
if (edges && edges.length) {
  for (var i=0;i<edges.length;i++) {
    if (edges[i].id.substr(0,4)=='edge') {
      edges[i].setAttribute('class','edge');
    }
  }
}
]]></script>
        <defs>
                <circle id="rim" cx="0" cy="0" r="7"/>
                <circle id="rim2" cx="0" cy="0" r="3.5"/>
                <g id="zoomPlus">
                        <use xlink:href="#rim" fill="#404040">
                                <set attributeName="fill" to="#808080" begin="zoomplus.mouseover" end="zoomplus.mouseout"/>
                        </use>
                        <path d="M-4,0h8M0,-4v8" fill="none" stroke="white" stroke-width="1.5" pointer-events="none"/>
                </g>
                <g id="zoomMin">
                        <use xlink:href="#rim" fill="#404040">
                                <set attributeName="fill" to="#808080" begin="zoomminus.mouseover" end="zoomminus.mouseout"/>
                        </use>
                        <path d="M-4,0h8" fill="none" stroke="white" stroke-width="1.5" pointer-events="none"/>
                </g>
                <g id="dirArrow">
                        <path fill="none" stroke="white" stroke-width="1.5" d="M0,-3.0v7 M-2.5,-0.5L0,-3.0L2.5,-0.5"/>
                </g>
               <g id="resetDef">
                       <use xlink:href="#rim2" fill="#404040">
                               <set attributeName="fill" to="#808080" begin="reset.mouseover" end="reset.mouseout"/>
                       </use>
               </g>
        </defs>

<script type="text/javascript">
var viewWidth = 820;
var viewHeight = 364;
var sectionId = 'dynsection-0';
</script>
<script xlink:href="svgpan.js"/>
<svg id="graph" class="graph">
<g id="viewport">
<title>main/hvm/include/hvm.h</title>
<polygon fill="#ffffff" stroke="transparent" points="-4,4 -4,-360 816.4152,-360 816.4152,4 -4,4"/>
<!-- Node0 -->
<g id="node1" class="node">
<title>Node0</title>
<g id="a_node1"><a xlink:title=" ">
<polygon fill="#bfbfbf" stroke="#000000" points="183.9152,-336.5 183.9152,-355.5 321.9152,-355.5 321.9152,-336.5 183.9152,-336.5"/>
<text text-anchor="middle" x="252.9152" y="-343.5" font-family="Helvetica,sans-Serif" font-size="10.00" fill="#000000">main/hvm/include/hvm.h</text>
</a>
</g>
</g>
<!-- Node1 -->
<g id="node2" class="node">
<title>Node1</title>
<g id="a_node2"><a xlink:href="builtins_8h.html" target="_top" xlink:title=" ">
<polygon fill="#ffffff" stroke="#000000" points="484.9152,-280.5 484.9152,-299.5 546.9152,-299.5 546.9152,-280.5 484.9152,-280.5"/>
<text text-anchor="middle" x="515.9152" y="-287.5" font-family="Helvetica,sans-Serif" font-size="10.00" fill="#000000">builtins.h</text>
</a>
</g>
</g>
<!-- Node0&#45;&gt;Node1 -->
<g id="edge1" class="edge">
<title>Node0&#45;&gt;Node1</title>
<path fill="none" stroke="#191970" d="M297.8277,-336.4369C347.4431,-325.8724 426.663,-309.0043 474.7323,-298.769"/>
<polygon fill="#191970" stroke="#191970" points="475.7346,-302.1341 484.7864,-296.6282 474.2768,-295.2876 475.7346,-302.1341"/>
</g>
<!-- Node9 -->
<g id="node10" class="node">
<title>Node9</title>
<g id="a_node10"><a xlink:title=" ">
<polygon fill="#ffffff" stroke="#bfbfbf" points="526.4152,-.5 526.4152,-19.5 579.4152,-19.5 579.4152,-.5 526.4152,-.5"/>
<text text-anchor="middle" x="552.9152" y="-7.5" font-family="Helvetica,sans-Serif" font-size="10.00" fill="#000000">stdint.h</text>
</a>
</g>
</g>
<!-- Node0&#45;&gt;Node9 -->
<g id="edge29" class="edge">
<title>Node0&#45;&gt;Node9</title>
<path fill="none" stroke="#191970" d="M183.601,-337.9373C96.3034,-324.7695 -36.971,-292.8742 9.9152,-224 70.4626,-135.058 404.2392,-46.4112 516.2511,-18.7786"/>
<polygon fill="#191970" stroke="#191970" points="517.1984,-22.1501 526.0782,-16.3709 515.5325,-15.3512 517.1984,-22.1501"/>
</g>
<!-- Node2 -->
<g id="node3" class="node">
<title>Node2</title>
<g id="a_node3"><a xlink:href="builtinutils_8h.html" target="_top" xlink:title=" ">
<polygon fill="#ffffff" stroke="#000000" points="735.4152,-.5 735.4152,-19.5 812.4152,-19.5 812.4152,-.5 735.4152,-.5"/>
<text text-anchor="middle" x="773.9152" y="-7.5" font-family="Helvetica,sans-Serif" font-size="10.00" fill="#000000">builtinutils.h</text>
</a>
</g>
</g>
<!-- Node1&#45;&gt;Node2 -->
<g id="edge2" class="edge">
<title>Node1&#45;&gt;Node2</title>
<path fill="none" stroke="#191970" d="M547.3405,-286.1224C601.6939,-279.0139 710.6364,-262.8792 743.9152,-244 778.3959,-224.4389 803.9152,-217.6428 803.9152,-178 803.9152,-178 803.9152,-178 803.9152,-122 803.9152,-88.4397 791.1916,-51.0899 782.3167,-29.12"/>
<polygon fill="#191970" stroke="#191970" points="785.4406,-27.5191 778.3418,-19.6542 778.9866,-30.2294 785.4406,-27.5191"/>
</g>
<!-- Node3 -->
<g id="node4" class="node">
<title>Node3</title>
<g id="a_node4"><a xlink:href="helios__boolean_8h.html" target="_top" xlink:title=" ">
<polygon fill="#ffffff" stroke="#000000" points="142.4152,-224.5 142.4152,-243.5 241.4152,-243.5 241.4152,-224.5 142.4152,-224.5"/>
<text text-anchor="middle" x="191.9152" y="-231.5" font-family="Helvetica,sans-Serif" font-size="10.00" fill="#000000">helios_boolean.h</text>
</a>
</g>
</g>
<!-- Node1&#45;&gt;Node3 -->
<g id="edge3" class="edge">
<title>Node1&#45;&gt;Node3</title>
<path fill="none" stroke="#191970" d="M484.8487,-284.6305C431.2912,-275.3736 320.7067,-256.2603 251.7805,-244.3471"/>
<polygon fill="#191970" stroke="#191970" points="251.9583,-240.826 241.5082,-242.5716 250.766,-247.7237 251.9583,-240.826"/>
</g>
<!-- Node4 -->
<g id="node5" class="node">
<title>Node4</title>
<g id="a_node5"><a xlink:href="helios__object_8h.html" target="_top" xlink:title=" ">
<polygon fill="#ffffff" stroke="#000000" points="390.9152,-168.5 390.9152,-187.5 480.9152,-187.5 480.9152,-168.5 390.9152,-168.5"/>
<text text-anchor="middle" x="435.9152" y="-175.5" font-family="Helvetica,sans-Serif" font-size="10.00" fill="#000000">helios_object.h</text>
</a>
</g>
</g>
<!-- Node1&#45;&gt;Node4 -->
<g id="edge23" class="edge">
<title>Node1&#45;&gt;Node4</title>
<path fill="none" stroke="#191970" d="M533.311,-280.4339C553.9338,-267.8329 583.7496,-244.8273 568.9152,-224 559.3132,-210.519 522.6226,-198.4231 490.2054,-190.0221"/>
<polygon fill="#191970" stroke="#191970" points="490.8683,-186.5799 480.3167,-187.5361 489.1616,-193.3687 490.8683,-186.5799"/>
</g>
<!-- Node6 -->
<g id="node7" class="node">
<title>Node6</title>
<g id="a_node7"><a xlink:href="helios__memory_8h.html" target="_top" xlink:title=" ">
<polygon fill="#ffffff" stroke="#000000" points="580.9152,-56.5 580.9152,-75.5 680.9152,-75.5 680.9152,-56.5 580.9152,-56.5"/>
<text text-anchor="middle" x="630.9152" y="-63.5" font-family="Helvetica,sans-Serif" font-size="10.00" fill="#000000">helios_memory.h</text>
</a>
</g>
</g>
<!-- Node1&#45;&gt;Node6 -->
<g id="edge26" class="edge">
<title>Node1&#45;&gt;Node6</title>
<path fill="none" stroke="#191970" d="M547.2678,-287.7847C600.0305,-283.3327 702.9765,-271.2924 724.9152,-244 767.6618,-190.8219 690.5369,-115.2279 651.5149,-82.3373"/>
<polygon fill="#191970" stroke="#191970" points="653.3262,-79.2946 643.3833,-75.6356 648.8743,-84.6965 653.3262,-79.2946"/>
</g>
<!-- Node11 -->
<g id="node12" class="node">
<title>Node11</title>
<g id="a_node12"><a xlink:href="helios__code_8h.html" target="_top" xlink:title=" ">
<polygon fill="#ffffff" stroke="#000000" points="616.4152,-224.5 616.4152,-243.5 699.4152,-243.5 699.4152,-224.5 616.4152,-224.5"/>
<text text-anchor="middle" x="657.9152" y="-231.5" font-family="Helvetica,sans-Serif" font-size="10.00" fill="#000000">helios_code.h</text>
</a>
</g>
</g>
<!-- Node1&#45;&gt;Node11 -->
<g id="edge14" class="edge">
<title>Node1&#45;&gt;Node11</title>
<path fill="none" stroke="#191970" d="M540.3259,-280.3733C563.5294,-271.2226 598.619,-257.3844 624.4294,-247.2057"/>
<polygon fill="#191970" stroke="#191970" points="625.8044,-250.4258 633.8231,-243.5011 623.2363,-243.9139 625.8044,-250.4258"/>
</g>
<!-- Node12 -->
<g id="node13" class="node">
<title>Node12</title>
<g id="a_node13"><a xlink:href="helios__float_8h.html" target="_top" xlink:title=" ">
<polygon fill="#ffffff" stroke="#000000" points="259.9152,-224.5 259.9152,-243.5 341.9152,-243.5 341.9152,-224.5 259.9152,-224.5"/>
<text text-anchor="middle" x="300.9152" y="-231.5" font-family="Helvetica,sans-Serif" font-size="10.00" fill="#000000">helios_float.h</text>
</a>
</g>
</g>
<!-- Node1&#45;&gt;Node12 -->
<g id="edge16" class="edge">
<title>Node1&#45;&gt;Node12</title>
<path fill="none" stroke="#191970" d="M484.6523,-281.8571C448.6087,-272.469 389.0068,-256.9448 347.4959,-246.1327"/>
<polygon fill="#191970" stroke="#191970" points="348.1796,-242.694 337.6202,-243.5604 346.4151,-249.468 348.1796,-242.694"/>
</g>
<!-- Node13 -->
<g id="node14" class="node">
<title>Node13</title>
<g id="a_node14"><a xlink:href="helios__hashmap_8h.html" target="_top" xlink:title=" ">
<polygon fill="#ffffff" stroke="#000000" points="19.4152,-224.5 19.4152,-243.5 124.4152,-243.5 124.4152,-224.5 19.4152,-224.5"/>
<text text-anchor="middle" x="71.9152" y="-231.5" font-family="Helvetica,sans-Serif" font-size="10.00" fill="#000000">helios_hashmap.h</text>
</a>
</g>
</g>
<!-- Node1&#45;&gt;Node13 -->
<g id="edge18" class="edge">
<title>Node1&#45;&gt;Node13</title>
<path fill="none" stroke="#191970" d="M484.5788,-286.6977C420.7327,-279.8704 270.7666,-263.3292 134.6566,-244.2026"/>
<polygon fill="#191970" stroke="#191970" points="134.8572,-240.6962 124.4657,-242.7619 133.8773,-247.6273 134.8572,-240.6962"/>
</g>
<!-- Node14 -->
<g id="node15" class="node">
<title>Node14</title>
<g id="a_node15"><a xlink:href="helios__integer_8h.html" target="_top" xlink:title=" ">
<polygon fill="#ffffff" stroke="#000000" points="359.9152,-224.5 359.9152,-243.5 453.9152,-243.5 453.9152,-224.5 359.9152,-224.5"/>
<text text-anchor="middle" x="406.9152" y="-231.5" font-family="Helvetica,sans-Serif" font-size="10.00" fill="#000000">helios_integer.h</text>
</a>
</g>
</g>
<!-- Node1&#45;&gt;Node14 -->
<g id="edge21" class="edge">
<title>Node1&#45;&gt;Node14</title>
<path fill="none" stroke="#191970" d="M496.9288,-280.2455C479.736,-271.4125 454.1914,-258.2887 434.702,-248.2758"/>
<polygon fill="#191970" stroke="#191970" points="436.1782,-245.0993 425.684,-243.6427 432.9793,-251.3257 436.1782,-245.0993"/>
</g>
<!-- Node15 -->
<g id="node16" class="node">
<title>Node15</title>
<g id="a_node16"><a xlink:href="helios__string_8h.html" target="_top" xlink:title=" ">
<polygon fill="#ffffff" stroke="#000000" points="471.9152,-224.5 471.9152,-243.5 559.9152,-243.5 559.9152,-224.5 471.9152,-224.5"/>
<text text-anchor="middle" x="515.9152" y="-231.5" font-family="Helvetica,sans-Serif" font-size="10.00" fill="#000000">helios_string.h</text>
</a>
</g>
</g>
<!-- Node1&#45;&gt;Node15 -->
<g id="edge24" class="edge">
<title>Node1&#45;&gt;Node15</title>
<path fill="none" stroke="#191970" d="M515.9152,-280.2455C515.9152,-272.9382 515.9152,-262.6944 515.9152,-253.7046"/>
<polygon fill="#191970" stroke="#191970" points="519.4153,-253.6426 515.9152,-243.6427 512.4153,-253.6427 519.4153,-253.6426"/>
</g>
<!-- Node16 -->
<g id="node17" class="node">
<title>Node16</title>
<g id="a_node17"><a xlink:href="serialize_8h.html" target="_top" xlink:title=" ">
<polygon fill="#ffffff" stroke="#000000" points="580.4152,-168.5 580.4152,-187.5 647.4152,-187.5 647.4152,-168.5 580.4152,-168.5"/>
<text text-anchor="middle" x="613.9152" y="-175.5" font-family="Helvetica,sans-Serif" font-size="10.00" fill="#000000">serialize.h</text>
</a>
</g>
</g>
<!-- Node1&#45;&gt;Node16 -->
<g id="edge27" class="edge">
<title>Node1&#45;&gt;Node16</title>
<path fill="none" stroke="#191970" d="M547.2599,-287.1602C596.6736,-281.9626 689.1156,-269.0732 708.9152,-244 727.8893,-219.9721 690.5744,-201.1561 657.2833,-189.8657"/>
<polygon fill="#191970" stroke="#191970" points="658.1917,-186.4812 647.6002,-186.7443 656.0441,-193.1436 658.1917,-186.4812"/>
</g>
<!-- Node3&#45;&gt;Node4 -->
<g id="edge4" class="edge">
<title>Node3&#45;&gt;Node4</title>
<path fill="none" stroke="#191970" d="M233.583,-224.4369C275.3418,-214.8529 339.7043,-200.0812 384.588,-189.78"/>
<polygon fill="#191970" stroke="#191970" points="385.4555,-193.172 394.4192,-187.5237 383.8896,-186.3494 385.4555,-193.172"/>
</g>
<!-- Node7 -->
<g id="node8" class="node">
<title>Node7</title>
<g id="a_node8"><a xlink:title=" ">
<polygon fill="#ffffff" stroke="#bfbfbf" points=".9152,-.5 .9152,-19.5 62.9152,-19.5 62.9152,-.5 .9152,-.5"/>
<text text-anchor="middle" x="31.9152" y="-7.5" font-family="Helvetica,sans-Serif" font-size="10.00" fill="#000000">stdbool.h</text>
</a>
</g>
</g>
<!-- Node3&#45;&gt;Node7 -->
<g id="edge13" class="edge">
<title>Node3&#45;&gt;Node7</title>
<path fill="none" stroke="#191970" d="M181.2455,-224.2968C156.1767,-200.9896 92.858,-139.089 55.9152,-76 47.3592,-61.3886 41.0233,-43.2071 37.0167,-29.629"/>
<polygon fill="#191970" stroke="#191970" points="40.3574,-28.5784 34.3049,-19.8826 33.6135,-30.4548 40.3574,-28.5784"/>
</g>
<!-- Node5 -->
<g id="node6" class="node">
<title>Node5</title>
<g id="a_node6"><a xlink:href="helios__type_8h.html" target="_top" xlink:title=" ">
<polygon fill="#ffffff" stroke="#000000" points="511.9152,-112.5 511.9152,-131.5 593.9152,-131.5 593.9152,-112.5 511.9152,-112.5"/>
<text text-anchor="middle" x="552.9152" y="-119.5" font-family="Helvetica,sans-Serif" font-size="10.00" fill="#000000">helios_type.h</text>
</a>
</g>
</g>
<!-- Node4&#45;&gt;Node5 -->
<g id="edge5" class="edge">
<title>Node4&#45;&gt;Node5</title>
<path fill="none" stroke="#191970" d="M456.0282,-168.3733C474.7255,-159.4241 502.7896,-145.9917 523.9086,-135.8835"/>
<polygon fill="#191970" stroke="#191970" points="525.5556,-138.9755 533.0646,-131.5011 522.5335,-132.6614 525.5556,-138.9755"/>
</g>
<!-- Node5&#45;&gt;Node6 -->
<g id="edge6" class="edge">
<title>Node5&#45;&gt;Node6</title>
<path fill="none" stroke="#191970" d="M566.5017,-112.2455C578.2457,-103.814 595.4351,-91.4729 609.1034,-81.6598"/>
<polygon fill="#191970" stroke="#191970" points="611.4023,-84.3179 617.4843,-75.6427 607.3198,-78.6316 611.4023,-84.3179"/>
</g>
<!-- Node5&#45;&gt;Node9 -->
<g id="edge11" class="edge">
<title>Node5&#45;&gt;Node9</title>
<path fill="none" stroke="#191970" d="M552.9152,-112.4509C552.9152,-94.184 552.9152,-53.9553 552.9152,-29.6976"/>
<polygon fill="#191970" stroke="#191970" points="556.4153,-29.5249 552.9152,-19.5249 549.4153,-29.5249 556.4153,-29.5249"/>
</g>
<!-- Node10 -->
<g id="node11" class="node">
<title>Node10</title>
<g id="a_node11"><a xlink:title=" ">
<polygon fill="#ffffff" stroke="#bfbfbf" points="471.4152,-56.5 471.4152,-75.5 524.4152,-75.5 524.4152,-56.5 471.4152,-56.5"/>
<text text-anchor="middle" x="497.9152" y="-63.5" font-family="Helvetica,sans-Serif" font-size="10.00" fill="#000000">stdlib.h</text>
</a>
</g>
</g>
<!-- Node5&#45;&gt;Node10 -->
<g id="edge12" class="edge">
<title>Node5&#45;&gt;Node10</title>
<path fill="none" stroke="#191970" d="M543.3349,-112.2455C535.3694,-104.1352 523.8511,-92.4075 514.4072,-82.7919"/>
<polygon fill="#191970" stroke="#191970" points="516.8899,-80.3247 507.3857,-75.6427 511.8957,-85.2297 516.8899,-80.3247"/>
</g>
<!-- Node6&#45;&gt;Node2 -->
<g id="edge7" class="edge">
<title>Node6&#45;&gt;Node2</title>
<path fill="none" stroke="#191970" d="M655.4978,-56.3733C678.8647,-47.2226 714.2014,-33.3844 740.1936,-23.2057"/>
<polygon fill="#191970" stroke="#191970" points="741.6182,-26.4066 749.6534,-19.5011 739.0656,-19.8886 741.6182,-26.4066"/>
</g>
<!-- Node6&#45;&gt;Node7 -->
<g id="edge8" class="edge">
<title>Node6&#45;&gt;Node7</title>
<path fill="none" stroke="#191970" d="M580.818,-60.7894C565.4517,-59.2177 548.4907,-57.5097 532.9152,-56 362.2462,-39.4577 158.7174,-21.2359 73.0872,-13.638"/>
<polygon fill="#191970" stroke="#191970" points="73.2688,-10.1405 62.9988,-12.7437 72.6506,-17.1132 73.2688,-10.1405"/>
</g>
<!-- Node8 -->
<g id="node9" class="node">
<title>Node8</title>
<g id="a_node9"><a xlink:title=" ">
<polygon fill="#ffffff" stroke="#bfbfbf" points="602.9152,-.5 602.9152,-19.5 658.9152,-19.5 658.9152,-.5 602.9152,-.5"/>
<text text-anchor="middle" x="630.9152" y="-7.5" font-family="Helvetica,sans-Serif" font-size="10.00" fill="#000000">stddef.h</text>
</a>
</g>
</g>
<!-- Node6&#45;&gt;Node8 -->
<g id="edge9" class="edge">
<title>Node6&#45;&gt;Node8</title>
<path fill="none" stroke="#191970" d="M630.9152,-56.2455C630.9152,-48.9382 630.9152,-38.6944 630.9152,-29.7046"/>
<polygon fill="#191970" stroke="#191970" points="634.4153,-29.6426 630.9152,-19.6427 627.4153,-29.6427 634.4153,-29.6426"/>
</g>
<!-- Node6&#45;&gt;Node9 -->
<g id="edge10" class="edge">
<title>Node6&#45;&gt;Node9</title>
<path fill="none" stroke="#191970" d="M617.3286,-56.2455C605.5847,-47.814 588.3953,-35.4729 574.727,-25.6598"/>
<polygon fill="#191970" stroke="#191970" points="576.5105,-22.6316 566.3461,-19.6427 572.4281,-28.3179 576.5105,-22.6316"/>
</g>
<!-- Node11&#45;&gt;Node4 -->
<g id="edge15" class="edge">
<title>Node11&#45;&gt;Node4</title>
<path fill="none" stroke="#191970" d="M620.0043,-224.4369C582.2501,-214.9133 524.1886,-200.2672 483.3888,-189.9753"/>
<polygon fill="#191970" stroke="#191970" points="484.2221,-186.576 473.6697,-187.5237 482.5099,-193.3633 484.2221,-186.576"/>
</g>
<!-- Node12&#45;&gt;Node4 -->
<g id="edge17" class="edge">
<title>Node12&#45;&gt;Node4</title>
<path fill="none" stroke="#191970" d="M324.1225,-224.3733C346.0851,-215.2629 379.2484,-201.5062 403.7553,-191.3404"/>
<polygon fill="#191970" stroke="#191970" points="405.1149,-194.5657 413.0107,-187.5011 402.4328,-188.0999 405.1149,-194.5657"/>
</g>
<!-- Node13&#45;&gt;Node4 -->
<g id="edge19" class="edge">
<title>Node13&#45;&gt;Node4</title>
<path fill="none" stroke="#191970" d="M124.4813,-225.3421C127.3336,-224.885 130.1591,-224.4351 132.9152,-224 219.3616,-210.3528 319.8084,-195.2526 380.5771,-186.2005"/>
<polygon fill="#191970" stroke="#191970" points="381.3391,-189.6257 390.7149,-184.6917 380.3086,-182.702 381.3391,-189.6257"/>
</g>
<!-- Node13&#45;&gt;Node7 -->
<g id="edge20" class="edge">
<title>Node13&#45;&gt;Node7</title>
<path fill="none" stroke="#191970" d="M53.9552,-224.3701C41.2827,-216.4681 25.2985,-203.9885 17.9152,-188 -6.5937,-134.9262 12.6055,-63.4492 24.416,-29.4865"/>
<polygon fill="#191970" stroke="#191970" points="27.7926,-30.4427 27.9262,-19.8487 21.2153,-28.0471 27.7926,-30.4427"/>
</g>
<!-- Node14&#45;&gt;Node4 -->
<g id="edge22" class="edge">
<title>Node14&#45;&gt;Node4</title>
<path fill="none" stroke="#191970" d="M411.9666,-224.2455C415.9171,-216.617 421.5249,-205.7881 426.321,-196.5267"/>
<polygon fill="#191970" stroke="#191970" points="429.431,-198.1321 430.9217,-187.6427 423.2151,-194.9131 429.431,-198.1321"/>
</g>
<!-- Node15&#45;&gt;Node4 -->
<g id="edge25" class="edge">
<title>Node15&#45;&gt;Node4</title>
<path fill="none" stroke="#191970" d="M501.9802,-224.2455C489.8205,-215.7337 471.9687,-203.2375 457.8867,-193.3801"/>
<polygon fill="#191970" stroke="#191970" points="459.8899,-190.51 449.6904,-187.6427 455.8756,-196.2447 459.8899,-190.51"/>
</g>
<!-- Node16&#45;&gt;Node5 -->
<g id="edge28" class="edge">
<title>Node16&#45;&gt;Node5</title>
<path fill="none" stroke="#191970" d="M603.2898,-168.2455C594.3679,-160.0549 581.4272,-148.1749 570.8959,-138.5069"/>
<polygon fill="#191970" stroke="#191970" points="573.1523,-135.8271 563.4188,-131.6427 568.4184,-140.9837 573.1523,-135.8271"/>
</g>
</g>
</svg>
        <g id="navigator" transform="translate(0 0)" fill="#404254">
                <rect fill="#f2f5e9" fill-opacity="0.5" stroke="#606060" stroke-width=".5" x="0" y="0" width="60" height="60"/>
                <use id="zoomplus" xlink:href="#zoomPlus" x="17" y="9" onmousedown="handleZoom(evt,'in')"/>
                <use id="zoomminus" xlink:href="#zoomMin" x="42" y="9" onmousedown="handleZoom(evt,'out')"/>
                <use id="reset" xlink:href="#resetDef" x="30" y="36" onmousedown="handleReset()"/>
                <g id="arrowUp" xlink:href="#dirArrow" transform="translate(30 24)" onmousedown="handlePan(0,-1)">
                  <use xlink:href="#rim" fill="#404040">
                        <set attributeName="fill" to="#808080" begin="arrowUp.mouseover" end="arrowUp.mouseout"/>
                  </use>
                  <path fill="none" stroke="white" stroke-width="1.5" d="M0,-3.0v7 M-2.5,-0.5L0,-3.0L2.5,-0.5"/>
                </g>
                <g id="arrowRight" xlink:href="#dirArrow" transform="rotate(90) translate(36 -43)" onmousedown="handlePan(1,0)">
                  <use xlink:href="#rim" fill="#404040">
                        <set attributeName="fill" to="#808080" begin="arrowRight.mouseover" end="arrowRight.mouseout"/>
                  </use>
                  <path fill="none" stroke="white" stroke-width="1.5" d="M0,-3.0v7 M-2.5,-0.5L0,-3.0L2.5,-0.5"/>
                </g>
                <g id="arrowDown" xlink:href="#dirArrow" transform="rotate(180) translate(-30 -48)" onmousedown="handlePan(0,1)">
                  <use xlink:href="#rim" fill="#404040">
                        <set attributeName="fill" to="#808080" begin="arrowDown.mouseover" end="arrowDown.mouseout"/>
                  </use>
                  <path fill="none" stroke="white" stroke-width="1.5" d="M0,-3.0v7 M-2.5,-0.5L0,-3.0L2.5,-0.5"/>
                </g>
                <g id="arrowLeft" xlink:href="#dirArrow" transform="rotate(270) translate(-36 17)" onmousedown="handlePan(-1,0)">
                  <use xlink:href="#rim" fill="#404040">
                        <set attributeName="fill" to="#808080" begin="arrowLeft.mouseover" end="arrowLeft.mouseout"/>
                  </use>
                  <path fill="none" stroke="white" stroke-width="1.5" d="M0,-3.0v7 M-2.5,-0.5L0,-3.0L2.5,-0.5"/>
                </g>
        </g>
        <svg viewBox="0 0 15 15" width="100%" height="30px" preserveAspectRatio="xMaxYMin meet">
         <g id="arrow_out" transform="scale(0.3 0.3)">
          <a xlink:href="hvm_8h__incl_org.svg" target="_base">
           <rect id="button" ry="5" rx="5" y="6" x="6" height="38" width="38"
                fill="#f2f5e9" fill-opacity="0.5" stroke="#606060" stroke-width="1.0"/>
           <path id="arrow"
             d="M 11.500037,31.436501 C 11.940474,20.09759 22.043105,11.32322 32.158766,21.979434 L 37.068811,17.246167 C 37.068811,17.246167 37.088388,32 37.088388,32 L 22.160133,31.978069 C 22.160133,31.978069 26.997745,27.140456 26.997745,27.140456 C 18.528582,18.264221 13.291696,25.230495 11.500037,31.436501 z"
             style="fill:#404040;"/>
          </a>
         </g>
        </svg>
</svg>
