<?xml version="1.0" encoding="UTF-8" standalone="no"?>
<!DOCTYPE svg PUBLIC "-//W3C//DTD SVG 1.1//EN"
 "http://www.w3.org/Graphics/SVG/1.1/DTD/svg11.dtd">
<!-- Generated by graphviz version 2.40.1 (20161225.0304)
 -->
<!-- Title: hvm/include/hvm.h Pages: 1 -->
<!--zoomable 364 -->
<svg id="main" version="1.1" xmlns="http://www.w3.org/2000/svg" xmlns:xlink="http://www.w3.org/1999/xlink" xml:space="preserve" onload="init(evt)">
<style type="text/css"><![CDATA[
.edge:hover path { stroke: red; }
.edge:hover polygon { stroke: red; fill: red; }
]]></style>
<script type="text/javascript"><![CDATA[
var edges = document.getElementsByTagName('g');
if (edges && edges.length) {
  for (var i=0;i<edges.length;i++) {
    if (edges[i].id.substr(0,4)=='edge') {
      edges[i].setAttribute('class','edge');
    }
  }
}
]]></script>
        <defs>
                <circle id="rim" cx="0" cy="0" r="7"/>
                <circle id="rim2" cx="0" cy="0" r="3.5"/>
                <g id="zoomPlus">
                        <use xlink:href="#rim" fill="#404040">
                                <set attributeName="fill" to="#808080" begin="zoomplus.mouseover" end="zoomplus.mouseout"/>
                        </use>
                        <path d="M-4,0h8M0,-4v8" fill="none" stroke="white" stroke-width="1.5" pointer-events="none"/>
                </g>
                <g id="zoomMin">
                        <use xlink:href="#rim" fill="#404040">
                                <set attributeName="fill" to="#808080" begin="zoomminus.mouseover" end="zoomminus.mouseout"/>
                        </use>
                        <path d="M-4,0h8" fill="none" stroke="white" stroke-width="1.5" pointer-events="none"/>
                </g>
                <g id="dirArrow">
                        <path fill="none" stroke="white" stroke-width="1.5" d="M0,-3.0v7 M-2.5,-0.5L0,-3.0L2.5,-0.5"/>
                </g>
               <g id="resetDef">
                       <use xlink:href="#rim2" fill="#404040">
                               <set attributeName="fill" to="#808080" begin="reset.mouseover" end="reset.mouseout"/>
                       </use>
               </g>
        </defs>

<script type="text/javascript">
var viewWidth = 764;
var viewHeight = 364;
var sectionId = 'dynsection-0';
</script>
<script xlink:href="svgpan.js"/>
<svg id="graph" class="graph">
<g id="viewport">
<title>hvm/include/hvm.h</title>
<polygon fill="#ffffff" stroke="transparent" points="-4,4 -4,-360 760.0376,-360 760.0376,4 -4,4"/>
<!-- Node0 -->
<g id="node1" class="node">
<title>Node0</title>
<g id="a_node1"><a xlink:title=" ">
<polygon fill="#bfbfbf" stroke="#000000" points="181.5376,-336.5 181.5376,-355.5 280.5376,-355.5 280.5376,-336.5 181.5376,-336.5"/>
<text text-anchor="middle" x="231.0376" y="-343.5" font-family="Helvetica,sans-Serif" font-size="10.00" fill="#000000">hvm/include/hvm.h</text>
</a>
</g>
</g>
<!-- Node1 -->
<g id="node2" class="node">
<title>Node1</title>
<g id="a_node2"><a xlink:href="builtins_8h.html" target="_top" xlink:title=" ">
<polygon fill="#ffffff" stroke="#000000" points="445.0376,-280.5 445.0376,-299.5 501.0376,-299.5 501.0376,-280.5 445.0376,-280.5"/>
<text text-anchor="middle" x="473.0376" y="-287.5" font-family="Helvetica,sans-Serif" font-size="10.00" fill="#000000">builtins.h</text>
</a>
</g>
</g>
<!-- Node0&#45;&gt;Node1 -->
<g id="edge1" class="edge">
<title>Node0&#45;&gt;Node1</title>
<path fill="none" stroke="#191970" d="M272.3639,-336.4369C317.9515,-325.8877 390.7007,-309.0532 434.9505,-298.8135"/>
<polygon fill="#191970" stroke="#191970" points="435.7924,-302.2113 444.7459,-296.5468 434.2142,-295.3915 435.7924,-302.2113"/>
</g>
<!-- Node9 -->
<g id="node10" class="node">
<title>Node9</title>
<g id="a_node10"><a xlink:title=" ">
<polygon fill="#ffffff" stroke="#bfbfbf" points="489.5376,-.5 489.5376,-19.5 538.5376,-19.5 538.5376,-.5 489.5376,-.5"/>
<text text-anchor="middle" x="514.0376" y="-7.5" font-family="Helvetica,sans-Serif" font-size="10.00" fill="#000000">stdint.h</text>
</a>
</g>
</g>
<!-- Node0&#45;&gt;Node9 -->
<g id="edge29" class="edge">
<title>Node0&#45;&gt;Node9</title>
<path fill="none" stroke="#191970" d="M181.4514,-339.1318C103.0137,-326.0578 -36.374,-292.5643 9.0376,-224 118.5219,-58.6956 384.0025,-20.7222 479.2778,-12.306"/>
<polygon fill="#191970" stroke="#191970" points="479.839,-15.7717 489.5163,-11.4591 479.2618,-8.7955 479.839,-15.7717"/>
</g>
<!-- Node2 -->
<g id="node3" class="node">
<title>Node2</title>
<g id="a_node3"><a xlink:href="builtinutils_8h.html" target="_top" xlink:title=" ">
<polygon fill="#ffffff" stroke="#000000" points="688.0376,-.5 688.0376,-19.5 756.0376,-19.5 756.0376,-.5 688.0376,-.5"/>
<text text-anchor="middle" x="722.0376" y="-7.5" font-family="Helvetica,sans-Serif" font-size="10.00" fill="#000000">builtinutils.h</text>
</a>
</g>
</g>
<!-- Node1&#45;&gt;Node2 -->
<g id="edge2" class="edge">
<title>Node1&#45;&gt;Node2</title>
<path fill="none" stroke="#191970" d="M501.0595,-286.2749C552.3044,-279.108 658.8212,-262.466 691.0376,-244 725.4311,-224.2861 751.0376,-217.6428 751.0376,-178 751.0376,-178 751.0376,-178 751.0376,-122 751.0376,-88.5134 738.7381,-51.1413 730.1591,-29.1469"/>
<polygon fill="#191970" stroke="#191970" points="733.3174,-27.6216 726.3166,-19.6693 726.8303,-30.2517 733.3174,-27.6216"/>
</g>
<!-- Node3 -->
<g id="node4" class="node">
<title>Node3</title>
<g id="a_node4"><a xlink:href="helios__boolean_8h.html" target="_top" xlink:title=" ">
<polygon fill="#ffffff" stroke="#000000" points="131.5376,-224.5 131.5376,-243.5 220.5376,-243.5 220.5376,-224.5 131.5376,-224.5"/>
<text text-anchor="middle" x="176.0376" y="-231.5" font-family="Helvetica,sans-Serif" font-size="10.00" fill="#000000">helios_boolean.h</text>
</a>
</g>
</g>
<!-- Node1&#45;&gt;Node3 -->
<g id="edge3" class="edge">
<title>Node1&#45;&gt;Node3</title>
<path fill="none" stroke="#191970" d="M444.8288,-284.6812C395.7935,-275.4355 294.034,-256.2485 230.7479,-244.3158"/>
<polygon fill="#191970" stroke="#191970" points="231.0273,-240.8068 220.552,-242.3933 229.7303,-247.6856 231.0273,-240.8068"/>
</g>
<!-- Node4 -->
<g id="node5" class="node">
<title>Node4</title>
<g id="a_node5"><a xlink:href="helios__object_8h.html" target="_top" xlink:title=" ">
<polygon fill="#ffffff" stroke="#000000" points="360.0376,-168.5 360.0376,-187.5 442.0376,-187.5 442.0376,-168.5 360.0376,-168.5"/>
<text text-anchor="middle" x="401.0376" y="-175.5" font-family="Helvetica,sans-Serif" font-size="10.00" fill="#000000">helios_object.h</text>
</a>
</g>
</g>
<!-- Node1&#45;&gt;Node4 -->
<g id="edge23" class="edge">
<title>Node1&#45;&gt;Node4</title>
<path fill="none" stroke="#191970" d="M489.2384,-280.3152C508.4321,-267.5858 536.1353,-244.4416 522.0376,-224 513.2968,-211.326 479.2528,-199.042 449.494,-190.3609"/>
<polygon fill="#191970" stroke="#191970" points="450.1843,-186.9188 439.6088,-187.5596 448.2757,-193.6536 450.1843,-186.9188"/>
</g>
<!-- Node6 -->
<g id="node7" class="node">
<title>Node6</title>
<g id="a_node7"><a xlink:href="helios__memory_8h.html" target="_top" xlink:title=" ">
<polygon fill="#ffffff" stroke="#000000" points="542.0376,-56.5 542.0376,-75.5 632.0376,-75.5 632.0376,-56.5 542.0376,-56.5"/>
<text text-anchor="middle" x="587.0376" y="-63.5" font-family="Helvetica,sans-Serif" font-size="10.00" fill="#000000">helios_memory.h</text>
</a>
</g>
</g>
<!-- Node1&#45;&gt;Node6 -->
<g id="edge26" class="edge">
<title>Node1&#45;&gt;Node6</title>
<path fill="none" stroke="#191970" d="M501.3247,-287.6987C551.0849,-282.9999 651.0156,-270.4357 672.0376,-244 713.651,-191.67 642.3558,-115.6306 606.1652,-82.4806"/>
<polygon fill="#191970" stroke="#191970" points="608.4047,-79.7879 598.6203,-75.724 603.7349,-85.0026 608.4047,-79.7879"/>
</g>
<!-- Node11 -->
<g id="node12" class="node">
<title>Node11</title>
<g id="a_node12"><a xlink:href="helios__code_8h.html" target="_top" xlink:title=" ">
<polygon fill="#ffffff" stroke="#000000" points="569.5376,-224.5 569.5376,-243.5 646.5376,-243.5 646.5376,-224.5 569.5376,-224.5"/>
<text text-anchor="middle" x="608.0376" y="-231.5" font-family="Helvetica,sans-Serif" font-size="10.00" fill="#000000">helios_code.h</text>
</a>
</g>
</g>
<!-- Node1&#45;&gt;Node11 -->
<g id="edge14" class="edge">
<title>Node1&#45;&gt;Node11</title>
<path fill="none" stroke="#191970" d="M496.2449,-280.3733C518.2074,-271.2629 551.3707,-257.5062 575.8777,-247.3404"/>
<polygon fill="#191970" stroke="#191970" points="577.2373,-250.5657 585.1331,-243.5011 574.5552,-244.0999 577.2373,-250.5657"/>
</g>
<!-- Node12 -->
<g id="node13" class="node">
<title>Node12</title>
<g id="a_node13"><a xlink:href="helios__float_8h.html" target="_top" xlink:title=" ">
<polygon fill="#ffffff" stroke="#000000" points="239.0376,-224.5 239.0376,-243.5 313.0376,-243.5 313.0376,-224.5 239.0376,-224.5"/>
<text text-anchor="middle" x="276.0376" y="-231.5" font-family="Helvetica,sans-Serif" font-size="10.00" fill="#000000">helios_float.h</text>
</a>
</g>
</g>
<!-- Node1&#45;&gt;Node12 -->
<g id="edge16" class="edge">
<title>Node1&#45;&gt;Node12</title>
<path fill="none" stroke="#191970" d="M444.8123,-281.9766C411.9972,-272.6484 357.4695,-257.1482 319.298,-246.2974"/>
<polygon fill="#191970" stroke="#191970" points="320.0598,-242.8753 309.4838,-243.5076 318.1457,-249.6086 320.0598,-242.8753"/>
</g>
<!-- Node13 -->
<g id="node14" class="node">
<title>Node13</title>
<g id="a_node14"><a xlink:href="helios__hashmap_8h.html" target="_top" xlink:title=" ">
<polygon fill="#ffffff" stroke="#000000" points="18.5376,-224.5 18.5376,-243.5 113.5376,-243.5 113.5376,-224.5 18.5376,-224.5"/>
<text text-anchor="middle" x="66.0376" y="-231.5" font-family="Helvetica,sans-Serif" font-size="10.00" fill="#000000">helios_hashmap.h</text>
</a>
</g>
</g>
<!-- Node1&#45;&gt;Node13 -->
<g id="edge18" class="edge">
<title>Node1&#45;&gt;Node13</title>
<path fill="none" stroke="#191970" d="M444.766,-286.7462C386.6179,-279.9574 249.1888,-263.4162 123.8278,-244.2259"/>
<polygon fill="#191970" stroke="#191970" points="124.0877,-240.7247 113.6713,-242.6611 123.0218,-247.6431 124.0877,-240.7247"/>
</g>
<!-- Node14 -->
<g id="node15" class="node">
<title>Node14</title>
<g id="a_node15"><a xlink:href="helios__integer_8h.html" target="_top" xlink:title=" ">
<polygon fill="#ffffff" stroke="#000000" points="331.0376,-224.5 331.0376,-243.5 415.0376,-243.5 415.0376,-224.5 331.0376,-224.5"/>
<text text-anchor="middle" x="373.0376" y="-231.5" font-family="Helvetica,sans-Serif" font-size="10.00" fill="#000000">helios_integer.h</text>
</a>
</g>
</g>
<!-- Node1&#45;&gt;Node14 -->
<g id="edge21" class="edge">
<title>Node1&#45;&gt;Node14</title>
<path fill="none" stroke="#191970" d="M455.6189,-280.2455C439.989,-271.4928 416.8357,-258.527 399.019,-248.5496"/>
<polygon fill="#191970" stroke="#191970" points="400.6918,-245.475 390.2566,-243.6427 397.2716,-251.5825 400.6918,-245.475"/>
</g>
<!-- Node15 -->
<g id="node16" class="node">
<title>Node15</title>
<g id="a_node16"><a xlink:href="helios__string_8h.html" target="_top" xlink:title=" ">
<polygon fill="#ffffff" stroke="#000000" points="433.0376,-224.5 433.0376,-243.5 513.0376,-243.5 513.0376,-224.5 433.0376,-224.5"/>
<text text-anchor="middle" x="473.0376" y="-231.5" font-family="Helvetica,sans-Serif" font-size="10.00" fill="#000000">helios_string.h</text>
</a>
</g>
</g>
<!-- Node1&#45;&gt;Node15 -->
<g id="edge24" class="edge">
<title>Node1&#45;&gt;Node15</title>
<path fill="none" stroke="#191970" d="M473.0376,-280.2455C473.0376,-272.9382 473.0376,-262.6944 473.0376,-253.7046"/>
<polygon fill="#191970" stroke="#191970" points="476.5377,-253.6426 473.0376,-243.6427 469.5377,-253.6427 476.5377,-253.6426"/>
</g>
<!-- Node16 -->
<g id="node17" class="node">
<title>Node16</title>
<g id="a_node17"><a xlink:href="serialize_8h.html" target="_top" xlink:title=" ">
<polygon fill="#ffffff" stroke="#000000" points="539.5376,-168.5 539.5376,-187.5 600.5376,-187.5 600.5376,-168.5 539.5376,-168.5"/>
<text text-anchor="middle" x="570.0376" y="-175.5" font-family="Helvetica,sans-Serif" font-size="10.00" fill="#000000">serialize.h</text>
</a>
</g>
</g>
<!-- Node1&#45;&gt;Node16 -->
<g id="edge27" class="edge">
<title>Node1&#45;&gt;Node16</title>
<path fill="none" stroke="#191970" d="M501.2767,-287.0842C547.7624,-281.6374 637.1527,-268.2193 656.0376,-244 673.5291,-221.5675 640.3893,-202.6175 610.3067,-190.8572"/>
<polygon fill="#191970" stroke="#191970" points="611.308,-187.4956 600.7151,-187.2963 608.8717,-194.058 611.308,-187.4956"/>
</g>
<!-- Node3&#45;&gt;Node4 -->
<g id="edge4" class="edge">
<title>Node3&#45;&gt;Node4</title>
<path fill="none" stroke="#191970" d="M214.4608,-224.4369C252.7251,-214.9133 311.5712,-200.2672 352.9224,-189.9753"/>
<polygon fill="#191970" stroke="#191970" points="353.9142,-193.3353 362.7728,-187.5237 352.2235,-186.5426 353.9142,-193.3353"/>
</g>
<!-- Node7 -->
<g id="node8" class="node">
<title>Node7</title>
<g id="a_node8"><a xlink:title=" ">
<polygon fill="#ffffff" stroke="#bfbfbf" points=".0376,-.5 .0376,-19.5 56.0376,-19.5 56.0376,-.5 .0376,-.5"/>
<text text-anchor="middle" x="28.0376" y="-7.5" font-family="Helvetica,sans-Serif" font-size="10.00" fill="#000000">stdbool.h</text>
</a>
</g>
</g>
<!-- Node3&#45;&gt;Node7 -->
<g id="edge13" class="edge">
<title>Node3&#45;&gt;Node7</title>
<path fill="none" stroke="#191970" d="M166.7138,-224.4441C144.2424,-200.9715 86.4133,-137.8775 52.0376,-76 43.8147,-61.1985 37.4505,-43.0333 33.3482,-29.5096"/>
<polygon fill="#191970" stroke="#191970" points="36.6854,-28.4502 30.5509,-19.812 29.9596,-30.3903 36.6854,-28.4502"/>
</g>
<!-- Node5 -->
<g id="node6" class="node">
<title>Node5</title>
<g id="a_node6"><a xlink:href="helios__type_8h.html" target="_top" xlink:title=" ">
<polygon fill="#ffffff" stroke="#000000" points="477.0376,-112.5 477.0376,-131.5 551.0376,-131.5 551.0376,-112.5 477.0376,-112.5"/>
<text text-anchor="middle" x="514.0376" y="-119.5" font-family="Helvetica,sans-Serif" font-size="10.00" fill="#000000">helios_type.h</text>
</a>
</g>
</g>
<!-- Node4&#45;&gt;Node5 -->
<g id="edge5" class="edge">
<title>Node4&#45;&gt;Node5</title>
<path fill="none" stroke="#191970" d="M420.4629,-168.3733C438.4397,-159.4644 465.3816,-146.1127 485.7466,-136.0203"/>
<polygon fill="#191970" stroke="#191970" points="487.4597,-139.0776 494.8656,-131.5011 484.3514,-132.8055 487.4597,-139.0776"/>
</g>
<!-- Node5&#45;&gt;Node6 -->
<g id="edge6" class="edge">
<title>Node5&#45;&gt;Node6</title>
<path fill="none" stroke="#191970" d="M526.7532,-112.2455C537.6396,-103.8943 553.5258,-91.7076 566.2576,-81.9408"/>
<polygon fill="#191970" stroke="#191970" points="568.6636,-84.5063 574.4676,-75.6427 564.403,-78.9523 568.6636,-84.5063"/>
</g>
<!-- Node5&#45;&gt;Node9 -->
<g id="edge11" class="edge">
<title>Node5&#45;&gt;Node9</title>
<path fill="none" stroke="#191970" d="M514.0376,-112.4509C514.0376,-94.184 514.0376,-53.9553 514.0376,-29.6976"/>
<polygon fill="#191970" stroke="#191970" points="517.5377,-29.5249 514.0376,-19.5249 510.5377,-29.5249 517.5377,-29.5249"/>
</g>
<!-- Node10 -->
<g id="node11" class="node">
<title>Node10</title>
<g id="a_node11"><a xlink:title=" ">
<polygon fill="#ffffff" stroke="#bfbfbf" points="438.0376,-56.5 438.0376,-75.5 486.0376,-75.5 486.0376,-56.5 438.0376,-56.5"/>
<text text-anchor="middle" x="462.0376" y="-63.5" font-family="Helvetica,sans-Serif" font-size="10.00" fill="#000000">stdlib.h</text>
</a>
</g>
</g>
<!-- Node5&#45;&gt;Node10 -->
<g id="edge12" class="edge">
<title>Node5&#45;&gt;Node10</title>
<path fill="none" stroke="#191970" d="M504.9798,-112.2455C497.5234,-104.2155 486.7741,-92.6394 477.8958,-83.0781"/>
<polygon fill="#191970" stroke="#191970" points="480.3608,-80.589 470.9915,-75.6427 475.2312,-85.3522 480.3608,-80.589"/>
</g>
<!-- Node6&#45;&gt;Node2 -->
<g id="edge7" class="edge">
<title>Node6&#45;&gt;Node2</title>
<path fill="none" stroke="#191970" d="M610.2449,-56.3733C632.2074,-47.2629 665.3707,-33.5062 689.8777,-23.3404"/>
<polygon fill="#191970" stroke="#191970" points="691.2373,-26.5657 699.1331,-19.5011 688.5552,-20.0999 691.2373,-26.5657"/>
</g>
<!-- Node6&#45;&gt;Node7 -->
<g id="edge8" class="edge">
<title>Node6&#45;&gt;Node7</title>
<path fill="none" stroke="#191970" d="M541.6568,-60.9754C526.8027,-59.3553 510.2193,-57.5728 495.0376,-56 335.8598,-39.5099 146.0074,-21.2428 66.2717,-13.6344"/>
<polygon fill="#191970" stroke="#191970" points="66.4975,-10.1401 56.2105,-12.6752 65.8331,-17.1085 66.4975,-10.1401"/>
</g>
<!-- Node8 -->
<g id="node9" class="node">
<title>Node8</title>
<g id="a_node9"><a xlink:title=" ">
<polygon fill="#ffffff" stroke="#bfbfbf" points="561.0376,-.5 561.0376,-19.5 613.0376,-19.5 613.0376,-.5 561.0376,-.5"/>
<text text-anchor="middle" x="587.0376" y="-7.5" font-family="Helvetica,sans-Serif" font-size="10.00" fill="#000000">stddef.h</text>
</a>
</g>
</g>
<!-- Node6&#45;&gt;Node8 -->
<g id="edge9" class="edge">
<title>Node6&#45;&gt;Node8</title>
<path fill="none" stroke="#191970" d="M587.0376,-56.2455C587.0376,-48.9382 587.0376,-38.6944 587.0376,-29.7046"/>
<polygon fill="#191970" stroke="#191970" points="590.5377,-29.6426 587.0376,-19.6427 583.5377,-29.6427 590.5377,-29.6426"/>
</g>
<!-- Node6&#45;&gt;Node9 -->
<g id="edge10" class="edge">
<title>Node6&#45;&gt;Node9</title>
<path fill="none" stroke="#191970" d="M574.3219,-56.2455C563.4355,-47.8943 547.5493,-35.7076 534.8176,-25.9408"/>
<polygon fill="#191970" stroke="#191970" points="536.6721,-22.9523 526.6075,-19.6427 532.4115,-28.5063 536.6721,-22.9523"/>
</g>
<!-- Node11&#45;&gt;Node4 -->
<g id="edge15" class="edge">
<title>Node11&#45;&gt;Node4</title>
<path fill="none" stroke="#191970" d="M572.453,-224.3733C537.436,-214.9001 483.8494,-200.4032 445.9251,-190.1435"/>
<polygon fill="#191970" stroke="#191970" points="446.7248,-186.7341 436.1578,-187.5011 444.8967,-193.4912 446.7248,-186.7341"/>
</g>
<!-- Node12&#45;&gt;Node4 -->
<g id="edge17" class="edge">
<title>Node12&#45;&gt;Node4</title>
<path fill="none" stroke="#191970" d="M297.5258,-224.3733C317.6816,-215.3435 348.0256,-201.7494 370.6556,-191.6111"/>
<polygon fill="#191970" stroke="#191970" points="372.1346,-194.7838 379.8297,-187.5011 369.2727,-188.3955 372.1346,-194.7838"/>
</g>
<!-- Node13&#45;&gt;Node4 -->
<g id="edge19" class="edge">
<title>Node13&#45;&gt;Node4</title>
<path fill="none" stroke="#191970" d="M113.6889,-225.4464C116.513,-224.9532 119.3122,-224.468 122.0376,-224 201.5194,-210.3518 293.8807,-195.2778 349.8629,-186.228"/>
<polygon fill="#191970" stroke="#191970" points="350.5674,-189.6597 359.8814,-184.61 349.4512,-182.7492 350.5674,-189.6597"/>
</g>
<!-- Node13&#45;&gt;Node7 -->
<g id="edge20" class="edge">
<title>Node13&#45;&gt;Node7</title>
<path fill="none" stroke="#191970" d="M48.9809,-224.377C36.7287,-216.4014 21.1667,-203.8248 14.0376,-188 -9.9745,-134.6996 8.9895,-63.3299 20.6418,-29.4393"/>
<polygon fill="#191970" stroke="#191970" points="24.0094,-30.4177 24.1043,-19.8233 17.4233,-28.0462 24.0094,-30.4177"/>
</g>
<!-- Node14&#45;&gt;Node4 -->
<g id="edge22" class="edge">
<title>Node14&#45;&gt;Node4</title>
<path fill="none" stroke="#191970" d="M377.9148,-224.2455C381.6889,-216.6973 387.0297,-206.0158 391.6277,-196.8197"/>
<polygon fill="#191970" stroke="#191970" points="394.8745,-198.1522 396.2162,-187.6427 388.6135,-195.0217 394.8745,-198.1522"/>
</g>
<!-- Node15&#45;&gt;Node4 -->
<g id="edge25" class="edge">
<title>Node15&#45;&gt;Node4</title>
<path fill="none" stroke="#191970" d="M460.4961,-224.2455C449.7588,-215.8943 434.0902,-203.7076 421.5329,-193.9408"/>
<polygon fill="#191970" stroke="#191970" points="423.4776,-191.0194 413.4353,-187.6427 419.18,-196.5449 423.4776,-191.0194"/>
</g>
<!-- Node16&#45;&gt;Node5 -->
<g id="edge28" class="edge">
<title>Node16&#45;&gt;Node5</title>
<path fill="none" stroke="#191970" d="M560.2831,-168.2455C552.1728,-160.1352 540.4451,-148.4075 530.8295,-138.7919"/>
<polygon fill="#191970" stroke="#191970" points="533.2262,-136.2389 523.6802,-131.6427 528.2764,-141.1887 533.2262,-136.2389"/>
</g>
</g>
</svg>
        <g id="navigator" transform="translate(0 0)" fill="#404254">
                <rect fill="#f2f5e9" fill-opacity="0.5" stroke="#606060" stroke-width=".5" x="0" y="0" width="60" height="60"/>
                <use id="zoomplus" xlink:href="#zoomPlus" x="17" y="9" onmousedown="handleZoom(evt,'in')"/>
                <use id="zoomminus" xlink:href="#zoomMin" x="42" y="9" onmousedown="handleZoom(evt,'out')"/>
                <use id="reset" xlink:href="#resetDef" x="30" y="36" onmousedown="handleReset()"/>
                <g id="arrowUp" xlink:href="#dirArrow" transform="translate(30 24)" onmousedown="handlePan(0,-1)">
                  <use xlink:href="#rim" fill="#404040">
                        <set attributeName="fill" to="#808080" begin="arrowUp.mouseover" end="arrowUp.mouseout"/>
                  </use>
                  <path fill="none" stroke="white" stroke-width="1.5" d="M0,-3.0v7 M-2.5,-0.5L0,-3.0L2.5,-0.5"/>
                </g>
                <g id="arrowRight" xlink:href="#dirArrow" transform="rotate(90) translate(36 -43)" onmousedown="handlePan(1,0)">
                  <use xlink:href="#rim" fill="#404040">
                        <set attributeName="fill" to="#808080" begin="arrowRight.mouseover" end="arrowRight.mouseout"/>
                  </use>
                  <path fill="none" stroke="white" stroke-width="1.5" d="M0,-3.0v7 M-2.5,-0.5L0,-3.0L2.5,-0.5"/>
                </g>
                <g id="arrowDown" xlink:href="#dirArrow" transform="rotate(180) translate(-30 -48)" onmousedown="handlePan(0,1)">
                  <use xlink:href="#rim" fill="#404040">
                        <set attributeName="fill" to="#808080" begin="arrowDown.mouseover" end="arrowDown.mouseout"/>
                  </use>
                  <path fill="none" stroke="white" stroke-width="1.5" d="M0,-3.0v7 M-2.5,-0.5L0,-3.0L2.5,-0.5"/>
                </g>
                <g id="arrowLeft" xlink:href="#dirArrow" transform="rotate(270) translate(-36 17)" onmousedown="handlePan(-1,0)">
                  <use xlink:href="#rim" fill="#404040">
                        <set attributeName="fill" to="#808080" begin="arrowLeft.mouseover" end="arrowLeft.mouseout"/>
                  </use>
                  <path fill="none" stroke="white" stroke-width="1.5" d="M0,-3.0v7 M-2.5,-0.5L0,-3.0L2.5,-0.5"/>
                </g>
        </g>
        <svg viewBox="0 0 15 15" width="100%" height="30px" preserveAspectRatio="xMaxYMin meet">
         <g id="arrow_out" transform="scale(0.3 0.3)">
          <a xlink:href="hvm_8h__incl_org.svg" target="_base">
           <rect id="button" ry="5" rx="5" y="6" x="6" height="38" width="38"
                fill="#f2f5e9" fill-opacity="0.5" stroke="#606060" stroke-width="1.0"/>
           <path id="arrow"
             d="M 11.500037,31.436501 C 11.940474,20.09759 22.043105,11.32322 32.158766,21.979434 L 37.068811,17.246167 C 37.068811,17.246167 37.088388,32 37.088388,32 L 22.160133,31.978069 C 22.160133,31.978069 26.997745,27.140456 26.997745,27.140456 C 18.528582,18.264221 13.291696,25.230495 11.500037,31.436501 z"
             style="fill:#404040;"/>
          </a>
         </g>
        </svg>
</svg>
