<?xml version="1.0" encoding="UTF-8" standalone="no"?>
<!DOCTYPE svg PUBLIC "-//W3C//DTD SVG 1.1//EN"
 "http://www.w3.org/Graphics/SVG/1.1/DTD/svg11.dtd">
<!-- Generated by graphviz version 2.40.1 (20161225.0304)
 -->
<!-- Title: hvm/include/hvm.h Pages: 1 -->
<svg width="672pt" height="364pt"
 viewBox="0.00 0.00 671.50 364.00" xmlns="http://www.w3.org/2000/svg" xmlns:xlink="http://www.w3.org/1999/xlink">
<g id="graph0" class="graph" transform="scale(1 1) rotate(0) translate(4 360)">
<title>hvm/include/hvm.h</title>
<polygon fill="#ffffff" stroke="transparent" points="-4,4 -4,-360 667.5,-360 667.5,4 -4,4"/>
<!-- Node0 -->
<g id="node1" class="node">
<title>Node0</title>
<g id="a_node1"><a xlink:title=" ">
<polygon fill="#bfbfbf" stroke="#000000" points="444,-336.5 444,-355.5 543,-355.5 543,-336.5 444,-336.5"/>
<text text-anchor="middle" x="493.5" y="-343.5" font-family="Helvetica,sans-Serif" font-size="10.00" fill="#000000">hvm/include/hvm.h</text>
</a>
</g>
</g>
<!-- Node1 -->
<g id="node2" class="node">
<title>Node1</title>
<g id="a_node2"><a xlink:href="builtins_8h.html" target="_top" xlink:title=" ">
<polygon fill="#ffffff" stroke="#000000" points="343.5,-280.5 343.5,-299.5 399.5,-299.5 399.5,-280.5 343.5,-280.5"/>
<text text-anchor="middle" x="371.5" y="-287.5" font-family="Helvetica,sans-Serif" font-size="10.00" fill="#000000">builtins.h</text>
</a>
</g>
</g>
<!-- Node0&#45;&gt;Node1 -->
<g id="edge1" class="edge">
<title>Node0&#45;&gt;Node1</title>
<path fill="none" stroke="#191970" d="M472.5275,-336.3733C452.9433,-327.3838 423.5039,-313.8706 401.449,-303.7471"/>
<polygon fill="#191970" stroke="#191970" points="402.7473,-300.4919 392.1989,-299.5011 399.8271,-306.8538 402.7473,-300.4919"/>
</g>
<!-- Node9 -->
<g id="node10" class="node">
<title>Node9</title>
<g id="a_node10"><a xlink:title=" ">
<polygon fill="#ffffff" stroke="#bfbfbf" points="439,-.5 439,-19.5 488,-19.5 488,-.5 439,-.5"/>
<text text-anchor="middle" x="463.5" y="-7.5" font-family="Helvetica,sans-Serif" font-size="10.00" fill="#000000">stdint.h</text>
</a>
</g>
</g>
<!-- Node0&#45;&gt;Node9 -->
<g id="edge26" class="edge">
<title>Node0&#45;&gt;Node9</title>
<path fill="none" stroke="#191970" d="M539.9532,-336.4442C590.2871,-323.056 663.5,-293.3769 663.5,-234 663.5,-234 663.5,-234 663.5,-122 663.5,-47.0717 555.3157,-21.7757 498.0805,-13.6359"/>
<polygon fill="#191970" stroke="#191970" points="498.3962,-10.1473 488.0239,-12.3076 497.4795,-17.087 498.3962,-10.1473"/>
</g>
<!-- Node2 -->
<g id="node3" class="node">
<title>Node2</title>
<g id="a_node3"><a xlink:href="builtinutils_8h.html" target="_top" xlink:title=" ">
<polygon fill="#ffffff" stroke="#000000" points="352.5,-.5 352.5,-19.5 420.5,-19.5 420.5,-.5 352.5,-.5"/>
<text text-anchor="middle" x="386.5" y="-7.5" font-family="Helvetica,sans-Serif" font-size="10.00" fill="#000000">builtinutils.h</text>
</a>
</g>
</g>
<!-- Node1&#45;&gt;Node2 -->
<g id="edge2" class="edge">
<title>Node1&#45;&gt;Node2</title>
<path fill="none" stroke="#191970" d="M399.6112,-286.6846C450.3893,-280.2541 554.8885,-264.8645 584.5,-244 612.7289,-224.1097 625.5,-212.5325 625.5,-178 625.5,-178 625.5,-178 625.5,-122 625.5,-79.4167 499.5243,-39.6308 430.4929,-21.0259"/>
<polygon fill="#191970" stroke="#191970" points="431.3062,-17.6206 420.7429,-18.4368 429.5096,-24.3862 431.3062,-17.6206"/>
</g>
<!-- Node3 -->
<g id="node4" class="node">
<title>Node3</title>
<g id="a_node4"><a xlink:href="helios__code_8h.html" target="_top" xlink:title=" ">
<polygon fill="#ffffff" stroke="#000000" points="190,-224.5 190,-243.5 267,-243.5 267,-224.5 190,-224.5"/>
<text text-anchor="middle" x="228.5" y="-231.5" font-family="Helvetica,sans-Serif" font-size="10.00" fill="#000000">helios_code.h</text>
</a>
</g>
</g>
<!-- Node1&#45;&gt;Node3 -->
<g id="edge3" class="edge">
<title>Node1&#45;&gt;Node3</title>
<path fill="none" stroke="#191970" d="M346.9174,-280.3733C323.5504,-271.2226 288.2138,-257.3844 262.2216,-247.2057"/>
<polygon fill="#191970" stroke="#191970" points="263.3495,-243.8886 252.7618,-243.5011 260.797,-250.4066 263.3495,-243.8886"/>
</g>
<!-- Node4 -->
<g id="node5" class="node">
<title>Node4</title>
<g id="a_node5"><a xlink:href="helios__object_8h.html" target="_top" xlink:title=" ">
<polygon fill="#ffffff" stroke="#000000" points="281.5,-168.5 281.5,-187.5 363.5,-187.5 363.5,-168.5 281.5,-168.5"/>
<text text-anchor="middle" x="322.5" y="-175.5" font-family="Helvetica,sans-Serif" font-size="10.00" fill="#000000">helios_object.h</text>
</a>
</g>
</g>
<!-- Node1&#45;&gt;Node4 -->
<g id="edge20" class="edge">
<title>Node1&#45;&gt;Node4</title>
<path fill="none" stroke="#191970" d="M343.3443,-287.3763C295.4419,-282.2665 201.3317,-269.206 181.5,-244 153.9241,-208.9512 220.4696,-191.6647 271.2637,-183.8038"/>
<polygon fill="#191970" stroke="#191970" points="271.7911,-187.264 281.1799,-182.3549 270.7789,-180.3376 271.7911,-187.264"/>
</g>
<!-- Node6 -->
<g id="node7" class="node">
<title>Node6</title>
<g id="a_node7"><a xlink:href="helios__memory_8h.html" target="_top" xlink:title=" ">
<polygon fill="#ffffff" stroke="#000000" points="271.5,-56.5 271.5,-75.5 361.5,-75.5 361.5,-56.5 271.5,-56.5"/>
<text text-anchor="middle" x="316.5" y="-63.5" font-family="Helvetica,sans-Serif" font-size="10.00" fill="#000000">helios_memory.h</text>
</a>
</g>
</g>
<!-- Node1&#45;&gt;Node6 -->
<g id="edge23" class="edge">
<title>Node1&#45;&gt;Node6</title>
<path fill="none" stroke="#191970" d="M343.3269,-287.7799C293.2081,-283.1824 191.8075,-270.7347 170.5,-244 121.5193,-182.5435 233.9087,-110.4855 288.6772,-80.3661"/>
<polygon fill="#191970" stroke="#191970" points="290.4245,-83.4003 297.5616,-75.57 287.0993,-77.2406 290.4245,-83.4003"/>
</g>
<!-- Node11 -->
<g id="node12" class="node">
<title>Node11</title>
<g id="a_node12"><a xlink:href="helios__float_8h.html" target="_top" xlink:title=" ">
<polygon fill="#ffffff" stroke="#000000" points="285.5,-224.5 285.5,-243.5 359.5,-243.5 359.5,-224.5 285.5,-224.5"/>
<text text-anchor="middle" x="322.5" y="-231.5" font-family="Helvetica,sans-Serif" font-size="10.00" fill="#000000">helios_float.h</text>
</a>
</g>
</g>
<!-- Node1&#45;&gt;Node11 -->
<g id="edge13" class="edge">
<title>Node1&#45;&gt;Node11</title>
<path fill="none" stroke="#191970" d="M362.9649,-280.2455C356.0088,-272.2958 346.0117,-260.8706 337.6949,-251.3656"/>
<polygon fill="#191970" stroke="#191970" points="340.1564,-248.8637 330.9373,-243.6427 334.8884,-253.4732 340.1564,-248.8637"/>
</g>
<!-- Node12 -->
<g id="node13" class="node">
<title>Node12</title>
<g id="a_node13"><a xlink:href="helios__hashmap_8h.html" target="_top" xlink:title=" ">
<polygon fill="#ffffff" stroke="#000000" points="0,-224.5 0,-243.5 95,-243.5 95,-224.5 0,-224.5"/>
<text text-anchor="middle" x="47.5" y="-231.5" font-family="Helvetica,sans-Serif" font-size="10.00" fill="#000000">helios_hashmap.h</text>
</a>
</g>
</g>
<!-- Node1&#45;&gt;Node12 -->
<g id="edge15" class="edge">
<title>Node1&#45;&gt;Node12</title>
<path fill="none" stroke="#191970" d="M343.3139,-285.1283C290.3399,-275.9723 174.9701,-256.0319 104.992,-243.9369"/>
<polygon fill="#191970" stroke="#191970" points="105.4596,-240.4659 95.0096,-242.2115 104.2674,-247.3636 105.4596,-240.4659"/>
</g>
<!-- Node13 -->
<g id="node14" class="node">
<title>Node13</title>
<g id="a_node14"><a xlink:href="helios__integer_8h.html" target="_top" xlink:title=" ">
<polygon fill="#ffffff" stroke="#000000" points="377.5,-224.5 377.5,-243.5 461.5,-243.5 461.5,-224.5 377.5,-224.5"/>
<text text-anchor="middle" x="419.5" y="-231.5" font-family="Helvetica,sans-Serif" font-size="10.00" fill="#000000">helios_integer.h</text>
</a>
</g>
</g>
<!-- Node1&#45;&gt;Node13 -->
<g id="edge18" class="edge">
<title>Node1&#45;&gt;Node13</title>
<path fill="none" stroke="#191970" d="M379.861,-280.2455C386.675,-272.2958 396.4681,-260.8706 404.6152,-251.3656"/>
<polygon fill="#191970" stroke="#191970" points="407.3843,-253.513 411.2349,-243.6427 402.0695,-248.9575 407.3843,-253.513"/>
</g>
<!-- Node14 -->
<g id="node15" class="node">
<title>Node14</title>
<g id="a_node15"><a xlink:href="helios__string_8h.html" target="_top" xlink:title=" ">
<polygon fill="#ffffff" stroke="#000000" points="479.5,-224.5 479.5,-243.5 559.5,-243.5 559.5,-224.5 479.5,-224.5"/>
<text text-anchor="middle" x="519.5" y="-231.5" font-family="Helvetica,sans-Serif" font-size="10.00" fill="#000000">helios_string.h</text>
</a>
</g>
</g>
<!-- Node1&#45;&gt;Node14 -->
<g id="edge21" class="edge">
<title>Node1&#45;&gt;Node14</title>
<path fill="none" stroke="#191970" d="M396.9421,-280.3733C421.2326,-271.1822 458.0208,-257.2624 484.9543,-247.0713"/>
<polygon fill="#191970" stroke="#191970" points="486.2757,-250.3136 494.3899,-243.5011 483.7984,-243.7666 486.2757,-250.3136"/>
</g>
<!-- Node15 -->
<g id="node16" class="node">
<title>Node15</title>
<g id="a_node16"><a xlink:href="serialize_8h.html" target="_top" xlink:title=" ">
<polygon fill="#ffffff" stroke="#000000" points="459,-168.5 459,-187.5 520,-187.5 520,-168.5 459,-168.5"/>
<text text-anchor="middle" x="489.5" y="-175.5" font-family="Helvetica,sans-Serif" font-size="10.00" fill="#000000">serialize.h</text>
</a>
</g>
</g>
<!-- Node1&#45;&gt;Node15 -->
<g id="edge24" class="edge">
<title>Node1&#45;&gt;Node15</title>
<path fill="none" stroke="#191970" d="M399.5065,-287.6537C448.7724,-282.8827 547.7077,-270.2067 568.5,-244 585.316,-222.8051 554.6173,-203.5974 526.7193,-191.4384"/>
<polygon fill="#191970" stroke="#191970" points="528.0165,-188.1874 517.4384,-187.5925 525.3367,-194.6542 528.0165,-188.1874"/>
</g>
<!-- Node3&#45;&gt;Node4 -->
<g id="edge4" class="edge">
<title>Node3&#45;&gt;Node4</title>
<path fill="none" stroke="#191970" d="M244.8736,-224.2455C259.4308,-215.5731 280.931,-202.7645 297.6152,-192.825"/>
<polygon fill="#191970" stroke="#191970" points="299.5144,-195.7676 306.3141,-187.6427 295.9317,-189.7539 299.5144,-195.7676"/>
</g>
<!-- Node5 -->
<g id="node6" class="node">
<title>Node5</title>
<g id="a_node6"><a xlink:href="helios__type_8h.html" target="_top" xlink:title=" ">
<polygon fill="#ffffff" stroke="#000000" points="368.5,-112.5 368.5,-131.5 442.5,-131.5 442.5,-112.5 368.5,-112.5"/>
<text text-anchor="middle" x="405.5" y="-119.5" font-family="Helvetica,sans-Serif" font-size="10.00" fill="#000000">helios_type.h</text>
</a>
</g>
</g>
<!-- Node4&#45;&gt;Node5 -->
<g id="edge5" class="edge">
<title>Node4&#45;&gt;Node5</title>
<path fill="none" stroke="#191970" d="M336.9575,-168.2455C349.5732,-159.7337 368.0944,-147.2375 382.7045,-137.3801"/>
<polygon fill="#191970" stroke="#191970" points="384.8761,-140.1371 391.2082,-131.6427 380.9609,-134.3343 384.8761,-140.1371"/>
</g>
<!-- Node5&#45;&gt;Node6 -->
<g id="edge6" class="edge">
<title>Node5&#45;&gt;Node6</title>
<path fill="none" stroke="#191970" d="M389.9974,-112.2455C376.342,-103.6534 356.2343,-91.0014 340.5011,-81.1018"/>
<polygon fill="#191970" stroke="#191970" points="342.1529,-78.006 331.825,-75.6427 338.4249,-83.9307 342.1529,-78.006"/>
</g>
<!-- Node5&#45;&gt;Node9 -->
<g id="edge11" class="edge">
<title>Node5&#45;&gt;Node9</title>
<path fill="none" stroke="#191970" d="M413.6353,-112.2644C420.8582,-103.2762 431.3473,-89.3394 438.5,-76 446.5412,-61.0038 453.2151,-42.855 457.6388,-29.3873"/>
<polygon fill="#191970" stroke="#191970" points="461.0116,-30.3296 460.6872,-19.7397 454.3369,-28.2205 461.0116,-30.3296"/>
</g>
<!-- Node10 -->
<g id="node11" class="node">
<title>Node10</title>
<g id="a_node11"><a xlink:title=" ">
<polygon fill="#ffffff" stroke="#bfbfbf" points="381.5,-56.5 381.5,-75.5 429.5,-75.5 429.5,-56.5 381.5,-56.5"/>
<text text-anchor="middle" x="405.5" y="-63.5" font-family="Helvetica,sans-Serif" font-size="10.00" fill="#000000">stdlib.h</text>
</a>
</g>
</g>
<!-- Node5&#45;&gt;Node10 -->
<g id="edge12" class="edge">
<title>Node5&#45;&gt;Node10</title>
<path fill="none" stroke="#191970" d="M405.5,-112.2455C405.5,-104.9382 405.5,-94.6944 405.5,-85.7046"/>
<polygon fill="#191970" stroke="#191970" points="409.0001,-85.6426 405.5,-75.6427 402.0001,-85.6427 409.0001,-85.6426"/>
</g>
<!-- Node6&#45;&gt;Node2 -->
<g id="edge7" class="edge">
<title>Node6&#45;&gt;Node2</title>
<path fill="none" stroke="#191970" d="M328.6931,-56.2455C339.1321,-47.8943 354.3655,-35.7076 366.574,-25.9408"/>
<polygon fill="#191970" stroke="#191970" points="368.8244,-28.6227 374.4467,-19.6427 364.4515,-23.1566 368.8244,-28.6227"/>
</g>
<!-- Node7 -->
<g id="node8" class="node">
<title>Node7</title>
<g id="a_node8"><a xlink:title=" ">
<polygon fill="#ffffff" stroke="#bfbfbf" points="173.5,-.5 173.5,-19.5 229.5,-19.5 229.5,-.5 173.5,-.5"/>
<text text-anchor="middle" x="201.5" y="-7.5" font-family="Helvetica,sans-Serif" font-size="10.00" fill="#000000">stdbool.h</text>
</a>
</g>
</g>
<!-- Node6&#45;&gt;Node7 -->
<g id="edge8" class="edge">
<title>Node6&#45;&gt;Node7</title>
<path fill="none" stroke="#191970" d="M296.7308,-56.3733C278.3531,-47.4241 250.7688,-33.9917 230.0107,-23.8835"/>
<polygon fill="#191970" stroke="#191970" points="231.5343,-20.7325 221.0112,-19.5011 228.4696,-27.026 231.5343,-20.7325"/>
</g>
<!-- Node8 -->
<g id="node9" class="node">
<title>Node8</title>
<g id="a_node9"><a xlink:title=" ">
<polygon fill="#ffffff" stroke="#bfbfbf" points="282.5,-.5 282.5,-19.5 334.5,-19.5 334.5,-.5 282.5,-.5"/>
<text text-anchor="middle" x="308.5" y="-7.5" font-family="Helvetica,sans-Serif" font-size="10.00" fill="#000000">stddef.h</text>
</a>
</g>
</g>
<!-- Node6&#45;&gt;Node8 -->
<g id="edge9" class="edge">
<title>Node6&#45;&gt;Node8</title>
<path fill="none" stroke="#191970" d="M315.1065,-56.2455C314.0626,-48.9382 312.5992,-38.6944 311.3149,-29.7046"/>
<polygon fill="#191970" stroke="#191970" points="314.7566,-29.0472 309.8775,-19.6427 307.827,-30.0372 314.7566,-29.0472"/>
</g>
<!-- Node6&#45;&gt;Node9 -->
<g id="edge10" class="edge">
<title>Node6&#45;&gt;Node9</title>
<path fill="none" stroke="#191970" d="M341.7702,-56.3733C365.8966,-47.1822 402.4362,-33.2624 429.1877,-23.0713"/>
<polygon fill="#191970" stroke="#191970" points="430.4607,-26.3318 438.5596,-19.5011 427.9687,-19.7904 430.4607,-26.3318"/>
</g>
<!-- Node11&#45;&gt;Node4 -->
<g id="edge14" class="edge">
<title>Node11&#45;&gt;Node4</title>
<path fill="none" stroke="#191970" d="M322.5,-224.2455C322.5,-216.9382 322.5,-206.6944 322.5,-197.7046"/>
<polygon fill="#191970" stroke="#191970" points="326.0001,-197.6426 322.5,-187.6427 319.0001,-197.6427 326.0001,-197.6426"/>
</g>
<!-- Node12&#45;&gt;Node4 -->
<g id="edge16" class="edge">
<title>Node12&#45;&gt;Node4</title>
<path fill="none" stroke="#191970" d="M94.4617,-224.4369C143.5447,-214.4418 220.3357,-198.8044 271.0365,-188.4798"/>
<polygon fill="#191970" stroke="#191970" points="272.0258,-191.8503 281.1263,-186.4252 270.629,-184.9911 272.0258,-191.8503"/>
</g>
<!-- Node12&#45;&gt;Node7 -->
<g id="edge17" class="edge">
<title>Node12&#45;&gt;Node7</title>
<path fill="none" stroke="#191970" d="M54.1172,-224.375C77.7127,-190.0543 157.9717,-73.3139 189.0583,-28.097"/>
<polygon fill="#191970" stroke="#191970" points="192.1263,-29.8124 194.9075,-19.5891 186.358,-25.8467 192.1263,-29.8124"/>
</g>
<!-- Node13&#45;&gt;Node4 -->
<g id="edge19" class="edge">
<title>Node13&#45;&gt;Node4</title>
<path fill="none" stroke="#191970" d="M402.6039,-224.2455C387.582,-215.5731 365.3957,-202.7645 348.179,-192.825"/>
<polygon fill="#191970" stroke="#191970" points="349.6128,-189.6114 339.2025,-187.6427 346.1129,-195.6737 349.6128,-189.6114"/>
</g>
<!-- Node14&#45;&gt;Node4 -->
<g id="edge22" class="edge">
<title>Node14&#45;&gt;Node4</title>
<path fill="none" stroke="#191970" d="M485.6345,-224.3733C452.451,-214.9404 401.745,-200.5265 365.6806,-190.2747"/>
<polygon fill="#191970" stroke="#191970" points="366.4995,-186.8689 355.9236,-187.5011 364.5855,-193.6021 366.4995,-186.8689"/>
</g>
<!-- Node15&#45;&gt;Node5 -->
<g id="edge25" class="edge">
<title>Node15&#45;&gt;Node5</title>
<path fill="none" stroke="#191970" d="M474.8683,-168.2455C462.1006,-159.7337 443.3562,-147.2375 428.5701,-137.3801"/>
<polygon fill="#191970" stroke="#191970" points="430.226,-134.2775 419.964,-131.6427 426.3431,-140.1019 430.226,-134.2775"/>
</g>
</g>
</svg>
