<?xml version="1.0" encoding="UTF-8" standalone="no"?>
<!DOCTYPE svg PUBLIC "-//W3C//DTD SVG 1.1//EN"
 "http://www.w3.org/Graphics/SVG/1.1/DTD/svg11.dtd">
<!-- Generated by graphviz version 2.40.1 (20161225.0304)
 -->
<!-- Title: hvm_execute_codeobject Pages: 1 -->
<svg width="438pt" height="230pt"
 viewBox="0.00 0.00 438.00 230.00" xmlns="http://www.w3.org/2000/svg" xmlns:xlink="http://www.w3.org/1999/xlink">
<g id="graph0" class="graph" transform="scale(1 1) rotate(0) translate(4 226)">
<title>hvm_execute_codeobject</title>
<polygon fill="#ffffff" stroke="transparent" points="-4,4 -4,-226 434,-226 434,4 -4,4"/>
<!-- Node0 -->
<g id="node1" class="node">
<title>Node0</title>
<g id="a_node1"><a xlink:title=" ">
<polygon fill="#bfbfbf" stroke="#000000" points="0,-98.5 0,-117.5 128,-117.5 128,-98.5 0,-98.5"/>
<text text-anchor="middle" x="64" y="-105.5" font-family="Helvetica,sans-Serif" font-size="10.00" fill="#000000">hvm_execute_codeobject</text>
</a>
</g>
</g>
<!-- Node1 -->
<g id="node2" class="node">
<title>Node1</title>
<g id="a_node2"><a xlink:href="executestack_8c.html#a72ae26f9dec7953504a21aed7b894aca" target="_top" xlink:title="Creates a new stack for executing bytecode on.">
<polygon fill="#ffffff" stroke="#000000" points="170.5,-202.5 170.5,-221.5 250.5,-221.5 250.5,-202.5 170.5,-202.5"/>
<text text-anchor="middle" x="210.5" y="-209.5" font-family="Helvetica,sans-Serif" font-size="10.00" fill="#000000">execstack_init</text>
</a>
</g>
</g>
<!-- Node0&#45;&gt;Node1 -->
<g id="edge1" class="edge">
<title>Node0&#45;&gt;Node1</title>
<path fill="none" stroke="#191970" d="M73.1364,-117.5519C89.841,-134.5831 127.0065,-170.5122 164,-193 166.9971,-194.8219 170.2002,-196.5403 173.4706,-198.1427"/>
<polygon fill="#191970" stroke="#191970" points="172.1966,-201.4079 182.7503,-202.3414 175.0823,-195.0303 172.1966,-201.4079"/>
</g>
<!-- Node3 -->
<g id="node4" class="node">
<title>Node3</title>
<g id="a_node4"><a xlink:href="executestack_8c.html#a9343a4cdfb1aee0c4bbd340a09f75b75" target="_top" xlink:title="Print an execstack using the print functions of the objects on it.">
<polygon fill="#ffffff" stroke="#000000" points="167.5,-164.5 167.5,-183.5 253.5,-183.5 253.5,-164.5 167.5,-164.5"/>
<text text-anchor="middle" x="210.5" y="-171.5" font-family="Helvetica,sans-Serif" font-size="10.00" fill="#000000">execstack_print</text>
</a>
</g>
</g>
<!-- Node0&#45;&gt;Node3 -->
<g id="edge3" class="edge">
<title>Node0&#45;&gt;Node3</title>
<path fill="none" stroke="#191970" d="M83.7841,-117.6666C103.8591,-127.3882 135.8955,-142.6634 164,-155 168.1549,-156.8238 172.5417,-158.6911 176.8946,-160.5089"/>
<polygon fill="#191970" stroke="#191970" points="175.6871,-163.7968 186.2662,-164.3732 178.3555,-157.3254 175.6871,-163.7968"/>
</g>
<!-- Node5 -->
<g id="node6" class="node">
<title>Node5</title>
<g id="a_node6"><a xlink:href="helios__instruction_8c.html#acbbf462394d0b4c811e6d3214121b1a9" target="_top" xlink:title=" ">
<polygon fill="#ffffff" stroke="#000000" points="164.5,-115 164.5,-145 256.5,-145 256.5,-115 164.5,-115"/>
<text text-anchor="start" x="172.5" y="-133" font-family="Helvetica,sans-Serif" font-size="10.00" fill="#000000">helios_instruction</text>
<text text-anchor="middle" x="210.5" y="-122" font-family="Helvetica,sans-Serif" font-size="10.00" fill="#000000">_print</text>
</a>
</g>
</g>
<!-- Node0&#45;&gt;Node5 -->
<g id="edge5" class="edge">
<title>Node0&#45;&gt;Node5</title>
<path fill="none" stroke="#191970" d="M127.405,-117.5216C136.298,-118.857 145.3882,-120.2221 154.1384,-121.5361"/>
<polygon fill="#191970" stroke="#191970" points="153.813,-125.0264 164.2219,-123.0504 154.8526,-118.1041 153.813,-125.0264"/>
</g>
<!-- Node6 -->
<g id="node7" class="node">
<title>Node6</title>
<g id="a_node7"><a xlink:href="executestack_8c.html#aad1e7afec264b72e249c35c80510bb8c" target="_top" xlink:title="Pushes a helios_object onto the stack.">
<polygon fill="#ffffff" stroke="#000000" points="166.5,-76.5 166.5,-95.5 254.5,-95.5 254.5,-76.5 166.5,-76.5"/>
<text text-anchor="middle" x="210.5" y="-83.5" font-family="Helvetica,sans-Serif" font-size="10.00" fill="#000000">execstack_push</text>
</a>
</g>
</g>
<!-- Node0&#45;&gt;Node6 -->
<g id="edge6" class="edge">
<title>Node0&#45;&gt;Node6</title>
<path fill="none" stroke="#191970" d="M127.405,-98.4784C137.0592,-97.0286 146.9459,-95.544 156.3776,-94.1276"/>
<polygon fill="#191970" stroke="#191970" points="157.0315,-97.5687 166.4008,-92.6224 155.9919,-90.6463 157.0315,-97.5687"/>
</g>
<!-- Node7 -->
<g id="node8" class="node">
<title>Node7</title>
<g id="a_node8"><a xlink:href="executestack_8c.html#a00b8d0e56e3754f23f19037c3b4070f4" target="_top" xlink:title="Pops the top of the executestack and returns it.">
<polygon fill="#ffffff" stroke="#000000" points="169,-38.5 169,-57.5 252,-57.5 252,-38.5 169,-38.5"/>
<text text-anchor="middle" x="210.5" y="-45.5" font-family="Helvetica,sans-Serif" font-size="10.00" fill="#000000">execstack_pop</text>
</a>
</g>
</g>
<!-- Node0&#45;&gt;Node7 -->
<g id="edge7" class="edge">
<title>Node0&#45;&gt;Node7</title>
<path fill="none" stroke="#191970" d="M87.4348,-98.3825C107.6984,-90.0686 137.7783,-77.7326 164,-67 168.2927,-65.243 172.8089,-63.3959 177.2704,-61.572"/>
<polygon fill="#191970" stroke="#191970" points="178.9093,-64.6833 186.842,-57.6603 176.2611,-58.2036 178.9093,-64.6833"/>
</g>
<!-- Node8 -->
<g id="node9" class="node">
<title>Node8</title>
<g id="a_node9"><a xlink:href="executestack_8c.html#a4a019c6c395ae846c7f903671d874891" target="_top" xlink:title="Deletes an execute stack.">
<polygon fill="#ffffff" stroke="#000000" points="164,-.5 164,-19.5 257,-19.5 257,-.5 164,-.5"/>
<text text-anchor="middle" x="210.5" y="-7.5" font-family="Helvetica,sans-Serif" font-size="10.00" fill="#000000">execstack_delete</text>
</a>
</g>
</g>
<!-- Node0&#45;&gt;Node8 -->
<g id="edge8" class="edge">
<title>Node0&#45;&gt;Node8</title>
<path fill="none" stroke="#191970" d="M74.0901,-98.4212C91.3787,-82.3946 128.266,-49.8536 164,-29 167.2011,-27.1319 170.621,-25.3604 174.0987,-23.7049"/>
<polygon fill="#191970" stroke="#191970" points="175.6095,-26.8637 183.3291,-19.6071 172.7691,-20.4658 175.6095,-26.8637"/>
</g>
<!-- Node2 -->
<g id="node3" class="node">
<title>Node2</title>
<g id="a_node3"><a xlink:href="helios__memory_8h.html#a27b2da5d6954fd6e7aa0d2f352336c25" target="_top" xlink:title="Get the global current garbage collector.">
<polygon fill="#ffffff" stroke="#000000" points="293,-202.5 293,-221.5 430,-221.5 430,-202.5 293,-202.5"/>
<text text-anchor="middle" x="361.5" y="-209.5" font-family="Helvetica,sans-Serif" font-size="10.00" fill="#000000">helios_get_garbagecollector</text>
</a>
</g>
</g>
<!-- Node1&#45;&gt;Node2 -->
<g id="edge2" class="edge">
<title>Node1&#45;&gt;Node2</title>
<path fill="none" stroke="#191970" d="M250.5688,-212C260.536,-212 271.5687,-212 282.6973,-212"/>
<polygon fill="#191970" stroke="#191970" points="282.9166,-215.5001 292.9166,-212 282.9165,-208.5001 282.9166,-215.5001"/>
</g>
<!-- Node4 -->
<g id="node5" class="node">
<title>Node4</title>
<g id="a_node5"><a xlink:href="helios__string_8c.html#a9d2005b1762ff6459a22a115549a08f5" target="_top" xlink:title="Create a cstring from a helios_string object.">
<polygon fill="#ffffff" stroke="#000000" points="304.5,-164.5 304.5,-183.5 418.5,-183.5 418.5,-164.5 304.5,-164.5"/>
<text text-anchor="middle" x="361.5" y="-171.5" font-family="Helvetica,sans-Serif" font-size="10.00" fill="#000000">helios_string_to_charp</text>
</a>
</g>
</g>
<!-- Node3&#45;&gt;Node4 -->
<g id="edge4" class="edge">
<title>Node3&#45;&gt;Node4</title>
<path fill="none" stroke="#191970" d="M253.7705,-174C266.3404,-174 280.3775,-174 294.0577,-174"/>
<polygon fill="#191970" stroke="#191970" points="294.4193,-177.5001 304.4193,-174 294.4192,-170.5001 294.4193,-177.5001"/>
</g>
<!-- Node9 -->
<g id="node10" class="node">
<title>Node9</title>
<g id="a_node10"><a xlink:href="helios__memory_8h.html#a48e4eb31a7e7d92b0e015ae68c01bb3a" target="_top" xlink:title="Perform a GC cleanup cycle.">
<polygon fill="#ffffff" stroke="#000000" points="303.5,-.5 303.5,-19.5 419.5,-19.5 419.5,-.5 303.5,-.5"/>
<text text-anchor="middle" x="361.5" y="-7.5" font-family="Helvetica,sans-Serif" font-size="10.00" fill="#000000">helios_garbage_collect</text>
</a>
</g>
</g>
<!-- Node8&#45;&gt;Node9 -->
<g id="edge9" class="edge">
<title>Node8&#45;&gt;Node9</title>
<path fill="none" stroke="#191970" d="M257.0371,-10C268.4783,-10 280.9653,-10 293.1981,-10"/>
<polygon fill="#191970" stroke="#191970" points="293.3852,-13.5001 303.3852,-10 293.3852,-6.5001 293.3852,-13.5001"/>
</g>
</g>
</svg>
