<?xml version="1.0" encoding="UTF-8" standalone="no"?>
<!DOCTYPE svg PUBLIC "-//W3C//DTD SVG 1.1//EN"
 "http://www.w3.org/Graphics/SVG/1.1/DTD/svg11.dtd">
<!-- Generated by graphviz version 2.40.1 (20161225.0304)
 -->
<!-- Title: hvm/hvm.c Pages: 1 -->
<!--zoomable 420 -->
<svg id="main" version="1.1" xmlns="http://www.w3.org/2000/svg" xmlns:xlink="http://www.w3.org/1999/xlink" xml:space="preserve" onload="init(evt)">
<style type="text/css"><![CDATA[
.edge:hover path { stroke: red; }
.edge:hover polygon { stroke: red; fill: red; }
]]></style>
<script type="text/javascript"><![CDATA[
var edges = document.getElementsByTagName('g');
if (edges && edges.length) {
  for (var i=0;i<edges.length;i++) {
    if (edges[i].id.substr(0,4)=='edge') {
      edges[i].setAttribute('class','edge');
    }
  }
}
]]></script>
        <defs>
                <circle id="rim" cx="0" cy="0" r="7"/>
                <circle id="rim2" cx="0" cy="0" r="3.5"/>
                <g id="zoomPlus">
                        <use xlink:href="#rim" fill="#404040">
                                <set attributeName="fill" to="#808080" begin="zoomplus.mouseover" end="zoomplus.mouseout"/>
                        </use>
                        <path d="M-4,0h8M0,-4v8" fill="none" stroke="white" stroke-width="1.5" pointer-events="none"/>
                </g>
                <g id="zoomMin">
                        <use xlink:href="#rim" fill="#404040">
                                <set attributeName="fill" to="#808080" begin="zoomminus.mouseover" end="zoomminus.mouseout"/>
                        </use>
                        <path d="M-4,0h8" fill="none" stroke="white" stroke-width="1.5" pointer-events="none"/>
                </g>
                <g id="dirArrow">
                        <path fill="none" stroke="white" stroke-width="1.5" d="M0,-3.0v7 M-2.5,-0.5L0,-3.0L2.5,-0.5"/>
                </g>
               <g id="resetDef">
                       <use xlink:href="#rim2" fill="#404040">
                               <set attributeName="fill" to="#808080" begin="reset.mouseover" end="reset.mouseout"/>
                       </use>
               </g>
        </defs>

<script type="text/javascript">
var viewWidth = 961;
var viewHeight = 420;
var sectionId = 'dynsection-0';
</script>
<script xlink:href="svgpan.js"/>
<svg id="graph" class="graph">
<g id="viewport">
<title>hvm/hvm.c</title>
<polygon fill="#ffffff" stroke="transparent" points="-4,4 -4,-416 957,-416 957,4 -4,4"/>
<!-- Node0 -->
<g id="node1" class="node">
<title>Node0</title>
<g id="a_node1"><a xlink:title=" ">
<polygon fill="#bfbfbf" stroke="#000000" points="557.5,-392.5 557.5,-411.5 622.5,-411.5 622.5,-392.5 557.5,-392.5"/>
<text text-anchor="middle" x="590" y="-399.5" font-family="Helvetica,sans-Serif" font-size="10.00" fill="#000000">hvm/hvm.c</text>
</a>
</g>
</g>
<!-- Node1 -->
<g id="node2" class="node">
<title>Node1</title>
<g id="a_node2"><a xlink:href="builtins_8h.html" target="_top" xlink:title=" ">
<polygon fill="#ffffff" stroke="#000000" points="527,-280.5 527,-299.5 583,-299.5 583,-280.5 527,-280.5"/>
<text text-anchor="middle" x="555" y="-287.5" font-family="Helvetica,sans-Serif" font-size="10.00" fill="#000000">builtins.h</text>
</a>
</g>
</g>
<!-- Node0&#45;&gt;Node1 -->
<g id="edge1" class="edge">
<title>Node0&#45;&gt;Node1</title>
<path fill="none" stroke="#191970" d="M586.4108,-392.1813C583.0607,-382.9031 577.9927,-368.5717 574,-356 569.0937,-340.5516 564.0406,-322.8998 560.38,-309.7405"/>
<polygon fill="#191970" stroke="#191970" points="563.6967,-308.6016 557.6664,-299.8903 556.9481,-310.4608 563.6967,-308.6016"/>
</g>
<!-- Node7 -->
<g id="node8" class="node">
<title>Node7</title>
<g id="a_node8"><a xlink:title=" ">
<polygon fill="#ffffff" stroke="#bfbfbf" points="167,-.5 167,-19.5 223,-19.5 223,-.5 167,-.5"/>
<text text-anchor="middle" x="195" y="-7.5" font-family="Helvetica,sans-Serif" font-size="10.00" fill="#000000">stdbool.h</text>
</a>
</g>
</g>
<!-- Node0&#45;&gt;Node7 -->
<g id="edge32" class="edge">
<title>Node0&#45;&gt;Node7</title>
<path fill="none" stroke="#191970" d="M557.4185,-400.1019C467.7712,-394.6521 218.8774,-377.9318 140,-356 73.7244,-337.5721 0,-358.7899 0,-290 0,-290 0,-290 0,-122 0,-89.7785 5.5231,-76.9548 30,-56 48.9915,-39.7413 114.2116,-24.9967 156.7437,-16.7908"/>
<polygon fill="#191970" stroke="#191970" points="157.5869,-20.1935 166.7629,-14.8972 156.2869,-13.3152 157.5869,-20.1935"/>
</g>
<!-- Node9 -->
<g id="node10" class="node">
<title>Node9</title>
<g id="a_node10"><a xlink:title=" ">
<polygon fill="#ffffff" stroke="#bfbfbf" points="816.5,-.5 816.5,-19.5 865.5,-19.5 865.5,-.5 816.5,-.5"/>
<text text-anchor="middle" x="841" y="-7.5" font-family="Helvetica,sans-Serif" font-size="10.00" fill="#000000">stdint.h</text>
</a>
</g>
</g>
<!-- Node0&#45;&gt;Node9 -->
<g id="edge33" class="edge">
<title>Node0&#45;&gt;Node9</title>
<path fill="none" stroke="#191970" d="M622.5902,-396.5083C698.171,-382.8509 879,-344.4823 879,-290 879,-290 879,-290 879,-122 879,-87.6118 862.7366,-50.2832 851.489,-28.5791"/>
<polygon fill="#191970" stroke="#191970" points="854.431,-26.6605 846.607,-19.5166 848.2683,-29.9804 854.431,-26.6605"/>
</g>
<!-- Node10 -->
<g id="node11" class="node">
<title>Node10</title>
<g id="a_node11"><a xlink:title=" ">
<polygon fill="#ffffff" stroke="#bfbfbf" points="39,-56.5 39,-75.5 87,-75.5 87,-56.5 39,-56.5"/>
<text text-anchor="middle" x="63" y="-63.5" font-family="Helvetica,sans-Serif" font-size="10.00" fill="#000000">stdlib.h</text>
</a>
</g>
</g>
<!-- Node0&#45;&gt;Node10 -->
<g id="edge35" class="edge">
<title>Node0&#45;&gt;Node10</title>
<path fill="none" stroke="#191970" d="M557.123,-398.8521C438.2876,-387.0393 38,-343.2934 38,-290 38,-290 38,-290 38,-178 38,-144.7847 48.603,-107.3305 55.9987,-85.2459"/>
<polygon fill="#191970" stroke="#191970" points="59.3308,-86.3197 59.3112,-75.7249 52.7195,-84.0195 59.3308,-86.3197"/>
</g>
<!-- Node17 -->
<g id="node18" class="node">
<title>Node17</title>
<g id="a_node18"><a xlink:href="executestack_8h.html" target="_top" xlink:title=" ">
<polygon fill="#ffffff" stroke="#000000" points="583.5,-336.5 583.5,-355.5 666.5,-355.5 666.5,-336.5 583.5,-336.5"/>
<text text-anchor="middle" x="625" y="-343.5" font-family="Helvetica,sans-Serif" font-size="10.00" fill="#000000">executestack.h</text>
</a>
</g>
</g>
<!-- Node0&#45;&gt;Node17 -->
<g id="edge29" class="edge">
<title>Node0&#45;&gt;Node17</title>
<path fill="none" stroke="#191970" d="M596.0965,-392.2455C600.9145,-384.5367 607.7751,-373.5598 613.6032,-364.2348"/>
<polygon fill="#191970" stroke="#191970" points="616.6413,-365.9777 618.9733,-355.6427 610.7053,-362.2677 616.6413,-365.9777"/>
</g>
<!-- Node18 -->
<g id="node19" class="node">
<title>Node18</title>
<g id="a_node19"><a xlink:title=" ">
<polygon fill="#ffffff" stroke="#bfbfbf" points="907,-336.5 907,-355.5 953,-355.5 953,-336.5 907,-336.5"/>
<text text-anchor="middle" x="930" y="-343.5" font-family="Helvetica,sans-Serif" font-size="10.00" fill="#000000">stdio.h</text>
</a>
</g>
</g>
<!-- Node0&#45;&gt;Node18 -->
<g id="edge34" class="edge">
<title>Node0&#45;&gt;Node18</title>
<path fill="none" stroke="#191970" d="M622.5032,-398.2927C678.2126,-391.6655 795.3732,-376.5344 893,-356 894.2453,-355.7381 895.5111,-355.4594 896.7873,-355.1681"/>
<polygon fill="#191970" stroke="#191970" points="897.7349,-358.5394 906.6089,-352.7513 896.0622,-351.7422 897.7349,-358.5394"/>
</g>
<!-- Node2 -->
<g id="node3" class="node">
<title>Node2</title>
<g id="a_node3"><a xlink:href="builtinutils_8h.html" target="_top" xlink:title=" ">
<polygon fill="#ffffff" stroke="#000000" points="730,-.5 730,-19.5 798,-19.5 798,-.5 730,-.5"/>
<text text-anchor="middle" x="764" y="-7.5" font-family="Helvetica,sans-Serif" font-size="10.00" fill="#000000">builtinutils.h</text>
</a>
</g>
</g>
<!-- Node1&#45;&gt;Node2 -->
<g id="edge2" class="edge">
<title>Node1&#45;&gt;Node2</title>
<path fill="none" stroke="#191970" d="M583.0155,-286.2562C629.287,-279.5745 718.9659,-264.3645 743,-244 805.9601,-190.6527 782.521,-75.4742 769.9224,-29.5155"/>
<polygon fill="#191970" stroke="#191970" points="773.2081,-28.2765 767.0817,-19.6325 766.4805,-30.2103 773.2081,-28.2765"/>
</g>
<!-- Node3 -->
<g id="node4" class="node">
<title>Node3</title>
<g id="a_node4"><a xlink:href="helios__boolean_8h.html" target="_top" xlink:title=" ">
<polygon fill="#ffffff" stroke="#000000" points="179.5,-224.5 179.5,-243.5 268.5,-243.5 268.5,-224.5 179.5,-224.5"/>
<text text-anchor="middle" x="224" y="-231.5" font-family="Helvetica,sans-Serif" font-size="10.00" fill="#000000">helios_boolean.h</text>
</a>
</g>
</g>
<!-- Node1&#45;&gt;Node3 -->
<g id="edge3" class="edge">
<title>Node1&#45;&gt;Node3</title>
<path fill="none" stroke="#191970" d="M526.8065,-285.2354C477.4122,-276.8873 372.0112,-259.07 283,-244 281.7036,-243.7805 280.3911,-243.5583 279.0674,-243.3341"/>
<polygon fill="#191970" stroke="#191970" points="279.2217,-239.8105 268.7775,-241.5912 278.0526,-246.7122 279.2217,-239.8105"/>
</g>
<!-- Node4 -->
<g id="node5" class="node">
<title>Node4</title>
<g id="a_node5"><a xlink:href="helios__object_8h.html" target="_top" xlink:title=" ">
<polygon fill="#ffffff" stroke="#000000" points="370,-168.5 370,-187.5 452,-187.5 452,-168.5 370,-168.5"/>
<text text-anchor="middle" x="411" y="-175.5" font-family="Helvetica,sans-Serif" font-size="10.00" fill="#000000">helios_object.h</text>
</a>
</g>
</g>
<!-- Node1&#45;&gt;Node4 -->
<g id="edge23" class="edge">
<title>Node1&#45;&gt;Node4</title>
<path fill="none" stroke="#191970" d="M526.9907,-288.9099C469.7472,-286.0322 342.5037,-276.0912 316,-244 296.8531,-220.8165 332.5965,-202.1756 365.5745,-190.6936"/>
<polygon fill="#191970" stroke="#191970" points="366.8112,-193.9711 375.2042,-187.5052 364.6109,-187.3259 366.8112,-193.9711"/>
</g>
<!-- Node6 -->
<g id="node7" class="node">
<title>Node6</title>
<g id="a_node7"><a xlink:href="helios__memory_8h.html" target="_top" xlink:title=" ">
<polygon fill="#ffffff" stroke="#000000" points="647,-56.5 647,-75.5 737,-75.5 737,-56.5 647,-56.5"/>
<text text-anchor="middle" x="692" y="-63.5" font-family="Helvetica,sans-Serif" font-size="10.00" fill="#000000">helios_memory.h</text>
</a>
</g>
</g>
<!-- Node1&#45;&gt;Node6 -->
<g id="edge26" class="edge">
<title>Node1&#45;&gt;Node6</title>
<path fill="none" stroke="#191970" d="M583.0575,-285.613C625.0949,-278.4969 701.5741,-263.2716 721,-244 762.9926,-202.3409 760.6362,-166.6486 738,-112 733.1688,-100.3363 723.7863,-90.0881 714.7482,-82.243"/>
<polygon fill="#191970" stroke="#191970" points="716.667,-79.2942 706.6852,-75.7423 712.2734,-84.7436 716.667,-79.2942"/>
</g>
<!-- Node11 -->
<g id="node12" class="node">
<title>Node11</title>
<g id="a_node12"><a xlink:href="helios__code_8h.html" target="_top" xlink:title=" ">
<polygon fill="#ffffff" stroke="#000000" points="325.5,-224.5 325.5,-243.5 402.5,-243.5 402.5,-224.5 325.5,-224.5"/>
<text text-anchor="middle" x="364" y="-231.5" font-family="Helvetica,sans-Serif" font-size="10.00" fill="#000000">helios_code.h</text>
</a>
</g>
</g>
<!-- Node1&#45;&gt;Node11 -->
<g id="edge14" class="edge">
<title>Node1&#45;&gt;Node11</title>
<path fill="none" stroke="#191970" d="M526.8173,-281.737C495.042,-272.4207 443.0369,-257.1731 406.3652,-246.4212"/>
<polygon fill="#191970" stroke="#191970" points="407.0388,-242.9714 396.458,-243.5165 405.0693,-249.6887 407.0388,-242.9714"/>
</g>
<!-- Node12 -->
<g id="node13" class="node">
<title>Node12</title>
<g id="a_node13"><a xlink:href="helios__float_8h.html" target="_top" xlink:title=" ">
<polygon fill="#ffffff" stroke="#000000" points="421,-224.5 421,-243.5 495,-243.5 495,-224.5 421,-224.5"/>
<text text-anchor="middle" x="458" y="-231.5" font-family="Helvetica,sans-Serif" font-size="10.00" fill="#000000">helios_float.h</text>
</a>
</g>
</g>
<!-- Node1&#45;&gt;Node12 -->
<g id="edge16" class="edge">
<title>Node1&#45;&gt;Node12</title>
<path fill="none" stroke="#191970" d="M538.1039,-280.2455C523.082,-271.5731 500.8957,-258.7645 483.679,-248.825"/>
<polygon fill="#191970" stroke="#191970" points="485.1128,-245.6114 474.7025,-243.6427 481.6129,-251.6737 485.1128,-245.6114"/>
</g>
<!-- Node13 -->
<g id="node14" class="node">
<title>Node13</title>
<g id="a_node14"><a xlink:href="helios__hashmap_8h.html" target="_top" xlink:title=" ">
<polygon fill="#ffffff" stroke="#000000" points="66.5,-224.5 66.5,-243.5 161.5,-243.5 161.5,-224.5 66.5,-224.5"/>
<text text-anchor="middle" x="114" y="-231.5" font-family="Helvetica,sans-Serif" font-size="10.00" fill="#000000">helios_hashmap.h</text>
</a>
</g>
</g>
<!-- Node1&#45;&gt;Node13 -->
<g id="edge18" class="edge">
<title>Node1&#45;&gt;Node13</title>
<path fill="none" stroke="#191970" d="M526.9077,-287.2059C464.7364,-280.9021 310.6141,-264.6154 171.6089,-244.1768"/>
<polygon fill="#191970" stroke="#191970" points="172.0332,-240.7016 161.6282,-242.6982 171.0072,-247.626 172.0332,-240.7016"/>
</g>
<!-- Node14 -->
<g id="node15" class="node">
<title>Node14</title>
<g id="a_node15"><a xlink:href="helios__integer_8h.html" target="_top" xlink:title=" ">
<polygon fill="#ffffff" stroke="#000000" points="513,-224.5 513,-243.5 597,-243.5 597,-224.5 513,-224.5"/>
<text text-anchor="middle" x="555" y="-231.5" font-family="Helvetica,sans-Serif" font-size="10.00" fill="#000000">helios_integer.h</text>
</a>
</g>
</g>
<!-- Node1&#45;&gt;Node14 -->
<g id="edge21" class="edge">
<title>Node1&#45;&gt;Node14</title>
<path fill="none" stroke="#191970" d="M555,-280.2455C555,-272.9382 555,-262.6944 555,-253.7046"/>
<polygon fill="#191970" stroke="#191970" points="558.5001,-253.6426 555,-243.6427 551.5001,-253.6427 558.5001,-253.6426"/>
</g>
<!-- Node15 -->
<g id="node16" class="node">
<title>Node15</title>
<g id="a_node16"><a xlink:href="helios__string_8h.html" target="_top" xlink:title=" ">
<polygon fill="#ffffff" stroke="#000000" points="615,-224.5 615,-243.5 695,-243.5 695,-224.5 615,-224.5"/>
<text text-anchor="middle" x="655" y="-231.5" font-family="Helvetica,sans-Serif" font-size="10.00" fill="#000000">helios_string.h</text>
</a>
</g>
</g>
<!-- Node1&#45;&gt;Node15 -->
<g id="edge24" class="edge">
<title>Node1&#45;&gt;Node15</title>
<path fill="none" stroke="#191970" d="M572.4187,-280.2455C588.0485,-271.4928 611.2019,-258.527 629.0185,-248.5496"/>
<polygon fill="#191970" stroke="#191970" points="630.766,-251.5825 637.7809,-243.6427 627.3457,-245.475 630.766,-251.5825"/>
</g>
<!-- Node16 -->
<g id="node17" class="node">
<title>Node16</title>
<g id="a_node17"><a xlink:href="serialize_8h.html" target="_top" xlink:title=" ">
<polygon fill="#ffffff" stroke="#000000" points="666.5,-168.5 666.5,-187.5 727.5,-187.5 727.5,-168.5 666.5,-168.5"/>
<text text-anchor="middle" x="697" y="-175.5" font-family="Helvetica,sans-Serif" font-size="10.00" fill="#000000">serialize.h</text>
</a>
</g>
</g>
<!-- Node1&#45;&gt;Node16 -->
<g id="edge27" class="edge">
<title>Node1&#45;&gt;Node16</title>
<path fill="none" stroke="#191970" d="M583.0995,-285.3696C622.1235,-278.3007 689.5738,-263.5517 704,-244 713.9091,-230.5702 710.3643,-211.2092 705.4177,-196.9279"/>
<polygon fill="#191970" stroke="#191970" points="708.6595,-195.6077 701.7404,-187.5842 702.1458,-198.1712 708.6595,-195.6077"/>
</g>
<!-- Node3&#45;&gt;Node4 -->
<g id="edge4" class="edge">
<title>Node3&#45;&gt;Node4</title>
<path fill="none" stroke="#191970" d="M256.1464,-224.3733C287.5109,-214.9807 335.3665,-200.6496 369.5716,-190.4064"/>
<polygon fill="#191970" stroke="#191970" points="370.6975,-193.7229 379.273,-187.5011 368.6893,-187.0171 370.6975,-193.7229"/>
</g>
<!-- Node3&#45;&gt;Node7 -->
<g id="edge13" class="edge">
<title>Node3&#45;&gt;Node7</title>
<path fill="none" stroke="#191970" d="M222.7539,-224.375C218.3571,-190.4133 203.5119,-75.7472 197.5296,-29.5392"/>
<polygon fill="#191970" stroke="#191970" points="200.9965,-29.057 196.2415,-19.5891 194.0544,-29.9558 200.9965,-29.057"/>
</g>
<!-- Node5 -->
<g id="node6" class="node">
<title>Node5</title>
<g id="a_node6"><a xlink:href="helios__type_8h.html" target="_top" xlink:title=" ">
<polygon fill="#ffffff" stroke="#000000" points="655,-112.5 655,-131.5 729,-131.5 729,-112.5 655,-112.5"/>
<text text-anchor="middle" x="692" y="-119.5" font-family="Helvetica,sans-Serif" font-size="10.00" fill="#000000">helios_type.h</text>
</a>
</g>
</g>
<!-- Node4&#45;&gt;Node5 -->
<g id="edge5" class="edge">
<title>Node4&#45;&gt;Node5</title>
<path fill="none" stroke="#191970" d="M452.1607,-169.7971C503.4308,-159.5796 590.8335,-142.1613 644.7763,-131.4111"/>
<polygon fill="#191970" stroke="#191970" points="645.6473,-134.8065 654.7704,-129.4194 644.2791,-127.9415 645.6473,-134.8065"/>
</g>
<!-- Node5&#45;&gt;Node6 -->
<g id="edge6" class="edge">
<title>Node5&#45;&gt;Node6</title>
<path fill="none" stroke="#191970" d="M692,-112.2455C692,-104.9382 692,-94.6944 692,-85.7046"/>
<polygon fill="#191970" stroke="#191970" points="695.5001,-85.6426 692,-75.6427 688.5001,-85.6427 695.5001,-85.6426"/>
</g>
<!-- Node5&#45;&gt;Node9 -->
<g id="edge11" class="edge">
<title>Node5&#45;&gt;Node9</title>
<path fill="none" stroke="#191970" d="M704.7037,-112.4509C730.4348,-93.1094 788.9211,-49.1465 820.2592,-25.5904"/>
<polygon fill="#191970" stroke="#191970" points="822.4379,-28.3313 828.3285,-19.5249 818.2319,-22.7358 822.4379,-28.3313"/>
</g>
<!-- Node5&#45;&gt;Node10 -->
<g id="edge12" class="edge">
<title>Node5&#45;&gt;Node10</title>
<path fill="none" stroke="#191970" d="M654.5369,-118.6646C541.6614,-108.6153 205.9419,-78.7261 97.3212,-69.0556"/>
<polygon fill="#191970" stroke="#191970" points="97.5132,-65.559 87.2421,-68.1583 96.8923,-72.5314 97.5132,-65.559"/>
</g>
<!-- Node6&#45;&gt;Node2 -->
<g id="edge7" class="edge">
<title>Node6&#45;&gt;Node2</title>
<path fill="none" stroke="#191970" d="M704.5414,-56.2455C715.2787,-47.8943 730.9473,-35.7076 743.5047,-25.9408"/>
<polygon fill="#191970" stroke="#191970" points="745.8575,-28.5449 751.6023,-19.6427 741.5599,-23.0194 745.8575,-28.5449"/>
</g>
<!-- Node6&#45;&gt;Node7 -->
<g id="edge8" class="edge">
<title>Node6&#45;&gt;Node7</title>
<path fill="none" stroke="#191970" d="M646.577,-60.8819C549.5354,-49.9476 323.497,-24.4785 233.2309,-14.3077"/>
<polygon fill="#191970" stroke="#191970" points="233.4929,-10.8152 223.1639,-13.1734 232.7091,-17.7711 233.4929,-10.8152"/>
</g>
<!-- Node8 -->
<g id="node9" class="node">
<title>Node8</title>
<g id="a_node9"><a xlink:title=" ">
<polygon fill="#ffffff" stroke="#bfbfbf" points="660,-.5 660,-19.5 712,-19.5 712,-.5 660,-.5"/>
<text text-anchor="middle" x="686" y="-7.5" font-family="Helvetica,sans-Serif" font-size="10.00" fill="#000000">stddef.h</text>
</a>
</g>
</g>
<!-- Node6&#45;&gt;Node8 -->
<g id="edge9" class="edge">
<title>Node6&#45;&gt;Node8</title>
<path fill="none" stroke="#191970" d="M690.9549,-56.2455C690.172,-48.9382 689.0744,-38.6944 688.1112,-29.7046"/>
<polygon fill="#191970" stroke="#191970" points="691.5786,-29.2129 687.0331,-19.6427 684.6185,-29.9587 691.5786,-29.2129"/>
</g>
<!-- Node6&#45;&gt;Node9 -->
<g id="edge10" class="edge">
<title>Node6&#45;&gt;Node9</title>
<path fill="none" stroke="#191970" d="M717.614,-56.3733C742.2169,-47.1265 779.5548,-33.0935 806.7128,-22.8865"/>
<polygon fill="#191970" stroke="#191970" points="808.086,-26.1095 816.2153,-19.315 805.6233,-19.557 808.086,-26.1095"/>
</g>
<!-- Node11&#45;&gt;Node4 -->
<g id="edge15" class="edge">
<title>Node11&#45;&gt;Node4</title>
<path fill="none" stroke="#191970" d="M372.1868,-224.2455C378.8589,-216.2958 388.4479,-204.8706 396.4253,-195.3656"/>
<polygon fill="#191970" stroke="#191970" points="399.1592,-197.5525 402.907,-187.6427 393.7974,-193.0524 399.1592,-197.5525"/>
</g>
<!-- Node12&#45;&gt;Node4 -->
<g id="edge17" class="edge">
<title>Node12&#45;&gt;Node4</title>
<path fill="none" stroke="#191970" d="M449.8132,-224.2455C443.1411,-216.2958 433.5521,-204.8706 425.5747,-195.3656"/>
<polygon fill="#191970" stroke="#191970" points="428.2026,-193.0524 419.093,-187.6427 422.8408,-197.5525 428.2026,-193.0524"/>
</g>
<!-- Node13&#45;&gt;Node4 -->
<g id="edge19" class="edge">
<title>Node13&#45;&gt;Node4</title>
<path fill="none" stroke="#191970" d="M161.7182,-225.0026C215.9009,-214.7864 303.976,-198.1796 359.6289,-187.6861"/>
<polygon fill="#191970" stroke="#191970" points="360.4495,-191.0932 369.6278,-185.8008 359.1524,-184.2144 360.4495,-191.0932"/>
</g>
<!-- Node13&#45;&gt;Node7 -->
<g id="edge20" class="edge">
<title>Node13&#45;&gt;Node7</title>
<path fill="none" stroke="#191970" d="M117.4805,-224.375C129.7872,-190.3415 171.4008,-75.262 188.0401,-29.247"/>
<polygon fill="#191970" stroke="#191970" points="191.4233,-30.1834 191.5325,-19.5891 184.8404,-27.803 191.4233,-30.1834"/>
</g>
<!-- Node14&#45;&gt;Node4 -->
<g id="edge22" class="edge">
<title>Node14&#45;&gt;Node4</title>
<path fill="none" stroke="#191970" d="M530.2455,-224.3733C506.7151,-215.2226 471.1313,-201.3844 444.9574,-191.2057"/>
<polygon fill="#191970" stroke="#191970" points="446.0201,-187.8636 435.4315,-187.5011 443.4829,-194.3877 446.0201,-187.8636"/>
</g>
<!-- Node15&#45;&gt;Node4 -->
<g id="edge25" class="edge">
<title>Node15&#45;&gt;Node4</title>
<path fill="none" stroke="#191970" d="M614.9816,-224.8154C573.2514,-215.238 507.7036,-200.1943 462.2204,-189.7555"/>
<polygon fill="#191970" stroke="#191970" points="462.7936,-186.2961 452.264,-187.4704 461.2277,-193.1187 462.7936,-186.2961"/>
</g>
<!-- Node16&#45;&gt;Node5 -->
<g id="edge28" class="edge">
<title>Node16&#45;&gt;Node5</title>
<path fill="none" stroke="#191970" d="M696.1291,-168.2455C695.4766,-160.9382 694.562,-150.6944 693.7593,-141.7046"/>
<polygon fill="#191970" stroke="#191970" points="697.2365,-141.2918 692.861,-131.6427 690.2642,-141.9143 697.2365,-141.2918"/>
</g>
<!-- Node17&#45;&gt;Node1 -->
<g id="edge30" class="edge">
<title>Node17&#45;&gt;Node1</title>
<path fill="none" stroke="#191970" d="M612.8069,-336.2455C602.3679,-327.8943 587.1345,-315.7076 574.926,-305.9408"/>
<polygon fill="#191970" stroke="#191970" points="577.0485,-303.1566 567.0533,-299.6427 572.6756,-308.6227 577.0485,-303.1566"/>
</g>
<!-- Node17&#45;&gt;Node9 -->
<g id="edge31" class="edge">
<title>Node17&#45;&gt;Node9</title>
<path fill="none" stroke="#191970" d="M666.647,-342.8496C729.4141,-335.5792 841,-311.7242 841,-234 841,-234 841,-234 841,-122 841,-89.7116 841,-52.1872 841,-29.8048"/>
<polygon fill="#191970" stroke="#191970" points="844.5001,-29.5883 841,-19.5884 837.5001,-29.5884 844.5001,-29.5883"/>
</g>
</g>
</svg>
        <g id="navigator" transform="translate(0 0)" fill="#404254">
                <rect fill="#f2f5e9" fill-opacity="0.5" stroke="#606060" stroke-width=".5" x="0" y="0" width="60" height="60"/>
                <use id="zoomplus" xlink:href="#zoomPlus" x="17" y="9" onmousedown="handleZoom(evt,'in')"/>
                <use id="zoomminus" xlink:href="#zoomMin" x="42" y="9" onmousedown="handleZoom(evt,'out')"/>
                <use id="reset" xlink:href="#resetDef" x="30" y="36" onmousedown="handleReset()"/>
                <g id="arrowUp" xlink:href="#dirArrow" transform="translate(30 24)" onmousedown="handlePan(0,-1)">
                  <use xlink:href="#rim" fill="#404040">
                        <set attributeName="fill" to="#808080" begin="arrowUp.mouseover" end="arrowUp.mouseout"/>
                  </use>
                  <path fill="none" stroke="white" stroke-width="1.5" d="M0,-3.0v7 M-2.5,-0.5L0,-3.0L2.5,-0.5"/>
                </g>
                <g id="arrowRight" xlink:href="#dirArrow" transform="rotate(90) translate(36 -43)" onmousedown="handlePan(1,0)">
                  <use xlink:href="#rim" fill="#404040">
                        <set attributeName="fill" to="#808080" begin="arrowRight.mouseover" end="arrowRight.mouseout"/>
                  </use>
                  <path fill="none" stroke="white" stroke-width="1.5" d="M0,-3.0v7 M-2.5,-0.5L0,-3.0L2.5,-0.5"/>
                </g>
                <g id="arrowDown" xlink:href="#dirArrow" transform="rotate(180) translate(-30 -48)" onmousedown="handlePan(0,1)">
                  <use xlink:href="#rim" fill="#404040">
                        <set attributeName="fill" to="#808080" begin="arrowDown.mouseover" end="arrowDown.mouseout"/>
                  </use>
                  <path fill="none" stroke="white" stroke-width="1.5" d="M0,-3.0v7 M-2.5,-0.5L0,-3.0L2.5,-0.5"/>
                </g>
                <g id="arrowLeft" xlink:href="#dirArrow" transform="rotate(270) translate(-36 17)" onmousedown="handlePan(-1,0)">
                  <use xlink:href="#rim" fill="#404040">
                        <set attributeName="fill" to="#808080" begin="arrowLeft.mouseover" end="arrowLeft.mouseout"/>
                  </use>
                  <path fill="none" stroke="white" stroke-width="1.5" d="M0,-3.0v7 M-2.5,-0.5L0,-3.0L2.5,-0.5"/>
                </g>
        </g>
        <svg viewBox="0 0 15 15" width="100%" height="30px" preserveAspectRatio="xMaxYMin meet">
         <g id="arrow_out" transform="scale(0.3 0.3)">
          <a xlink:href="hvm_8c__incl_org.svg" target="_base">
           <rect id="button" ry="5" rx="5" y="6" x="6" height="38" width="38"
                fill="#f2f5e9" fill-opacity="0.5" stroke="#606060" stroke-width="1.0"/>
           <path id="arrow"
             d="M 11.500037,31.436501 C 11.940474,20.09759 22.043105,11.32322 32.158766,21.979434 L 37.068811,17.246167 C 37.068811,17.246167 37.088388,32 37.088388,32 L 22.160133,31.978069 C 22.160133,31.978069 26.997745,27.140456 26.997745,27.140456 C 18.528582,18.264221 13.291696,25.230495 11.500037,31.436501 z"
             style="fill:#404040;"/>
          </a>
         </g>
        </svg>
</svg>
