<?xml version="1.0" encoding="UTF-8" standalone="no"?>
<!DOCTYPE svg PUBLIC "-//W3C//DTD SVG 1.1//EN"
 "http://www.w3.org/Graphics/SVG/1.1/DTD/svg11.dtd">
<!-- Generated by graphviz version 2.40.1 (20161225.0304)
 -->
<!-- Title: generator/include/instruction.h Pages: 1 -->
<!--zoomable 196 -->
<svg id="main" version="1.1" xmlns="http://www.w3.org/2000/svg" xmlns:xlink="http://www.w3.org/1999/xlink" xml:space="preserve" onload="init(evt)">
<style type="text/css"><![CDATA[
.edge:hover path { stroke: red; }
.edge:hover polygon { stroke: red; fill: red; }
]]></style>
<script type="text/javascript"><![CDATA[
var edges = document.getElementsByTagName('g');
if (edges && edges.length) {
  for (var i=0;i<edges.length;i++) {
    if (edges[i].id.substr(0,4)=='edge') {
      edges[i].setAttribute('class','edge');
    }
  }
}
]]></script>
        <defs>
                <circle id="rim" cx="0" cy="0" r="7"/>
                <circle id="rim2" cx="0" cy="0" r="3.5"/>
                <g id="zoomPlus">
                        <use xlink:href="#rim" fill="#404040">
                                <set attributeName="fill" to="#808080" begin="zoomplus.mouseover" end="zoomplus.mouseout"/>
                        </use>
                        <path d="M-4,0h8M0,-4v8" fill="none" stroke="white" stroke-width="1.5" pointer-events="none"/>
                </g>
                <g id="zoomMin">
                        <use xlink:href="#rim" fill="#404040">
                                <set attributeName="fill" to="#808080" begin="zoomminus.mouseover" end="zoomminus.mouseout"/>
                        </use>
                        <path d="M-4,0h8" fill="none" stroke="white" stroke-width="1.5" pointer-events="none"/>
                </g>
                <g id="dirArrow">
                        <path fill="none" stroke="white" stroke-width="1.5" d="M0,-3.0v7 M-2.5,-0.5L0,-3.0L2.5,-0.5"/>
                </g>
               <g id="resetDef">
                       <use xlink:href="#rim2" fill="#404040">
                               <set attributeName="fill" to="#808080" begin="reset.mouseover" end="reset.mouseout"/>
                       </use>
               </g>
        </defs>

<script type="text/javascript">
var viewWidth = 598;
var viewHeight = 196;
var sectionId = 'dynsection-1';
</script>
<script xlink:href="svgpan.js"/>
<svg id="graph" class="graph">
<g id="viewport">
<title>generator/include/instruction.h</title>
<polygon fill="#ffffff" stroke="transparent" points="-4,4 -4,-192 594,-192 594,4 -4,4"/>
<!-- Node2 -->
<g id="node1" class="node">
<title>Node2</title>
<g id="a_node1"><a xlink:title=" ">
<polygon fill="#bfbfbf" stroke="#000000" points="185.5,-168.5 185.5,-187.5 332.5,-187.5 332.5,-168.5 185.5,-168.5"/>
<text text-anchor="middle" x="259" y="-175.5" font-family="Helvetica,sans-Serif" font-size="10.00" fill="#000000">generator/include/instruction.h</text>
</a>
</g>
</g>
<!-- Node3 -->
<g id="node2" class="node">
<title>Node3</title>
<g id="a_node2"><a xlink:href="generator_8c.html" target="_top" xlink:title=" ">
<polygon fill="#ffffff" stroke="#000000" points="0,-56.5 0,-75.5 108,-75.5 108,-56.5 0,-56.5"/>
<text text-anchor="middle" x="54" y="-63.5" font-family="Helvetica,sans-Serif" font-size="10.00" fill="#000000">generator/generator.c</text>
</a>
</g>
</g>
<!-- Node2&#45;&gt;Node3 -->
<g id="edge1" class="edge">
<title>Node2&#45;&gt;Node3</title>
<path fill="none" stroke="#191970" d="M232.5897,-163.5709C190.0269,-140.3171 107.4028,-95.1761 71.4339,-75.5249"/>
<polygon fill="#191970" stroke="#191970" points="231.068,-166.7279 241.5218,-168.4509 234.4242,-160.5849 231.068,-166.7279"/>
</g>
<!-- Node4 -->
<g id="node3" class="node">
<title>Node4</title>
<g id="a_node3"><a xlink:href="program_8h.html" target="_top" xlink:title=" ">
<polygon fill="#ffffff" stroke="#000000" points="190.5,-112.5 190.5,-131.5 327.5,-131.5 327.5,-112.5 190.5,-112.5"/>
<text text-anchor="middle" x="259" y="-119.5" font-family="Helvetica,sans-Serif" font-size="10.00" fill="#000000">generator/include/program.h</text>
</a>
</g>
</g>
<!-- Node2&#45;&gt;Node4 -->
<g id="edge2" class="edge">
<title>Node2&#45;&gt;Node4</title>
<path fill="none" stroke="#191970" d="M259,-158.1575C259,-149.155 259,-138.9199 259,-131.6427"/>
<polygon fill="#191970" stroke="#191970" points="255.5001,-158.2455 259,-168.2455 262.5001,-158.2456 255.5001,-158.2455"/>
</g>
<!-- Node9 -->
<g id="node8" class="node">
<title>Node9</title>
<g id="a_node8"><a xlink:href="program_8c.html" target="_top" xlink:title=" ">
<polygon fill="#ffffff" stroke="#000000" points="486,-56.5 486,-75.5 590,-75.5 590,-56.5 486,-56.5"/>
<text text-anchor="middle" x="538" y="-63.5" font-family="Helvetica,sans-Serif" font-size="10.00" fill="#000000">generator/program.c</text>
</a>
</g>
</g>
<!-- Node2&#45;&gt;Node9 -->
<g id="edge10" class="edge">
<title>Node2&#45;&gt;Node9</title>
<path fill="none" stroke="#191970" d="M292.0699,-164.7246C349.0729,-141.8417 464.4974,-95.5064 514.2728,-75.5249"/>
<polygon fill="#191970" stroke="#191970" points="290.7637,-161.4774 282.7874,-168.4509 293.3715,-167.9736 290.7637,-161.4774"/>
</g>
<!-- Node4&#45;&gt;Node3 -->
<g id="edge6" class="edge">
<title>Node4&#45;&gt;Node3</title>
<path fill="none" stroke="#191970" d="M214.046,-109.7199C176.3513,-99.4228 123.2959,-84.9296 88.7809,-75.5011"/>
<polygon fill="#191970" stroke="#191970" points="213.1904,-113.1143 223.7592,-112.3733 215.035,-106.3617 213.1904,-113.1143"/>
</g>
<!-- Node5 -->
<g id="node4" class="node">
<title>Node5</title>
<g id="a_node4"><a xlink:href="files_8c.html" target="_top" xlink:title=" ">
<polygon fill="#ffffff" stroke="#000000" points="126.5,-56.5 126.5,-75.5 191.5,-75.5 191.5,-56.5 126.5,-56.5"/>
<text text-anchor="middle" x="159" y="-63.5" font-family="Helvetica,sans-Serif" font-size="10.00" fill="#000000">files/files.c</text>
</a>
</g>
</g>
<!-- Node4&#45;&gt;Node5 -->
<g id="edge3" class="edge">
<title>Node4&#45;&gt;Node5</title>
<path fill="none" stroke="#191970" d="M232.7902,-107.3225C214.9283,-97.3198 191.7845,-84.3593 176.2191,-75.6427"/>
<polygon fill="#191970" stroke="#191970" points="231.1461,-110.4132 241.5813,-112.2455 234.5664,-104.3057 231.1461,-110.4132"/>
</g>
<!-- Node6 -->
<g id="node5" class="node">
<title>Node6</title>
<g id="a_node5"><a xlink:href="files_8h.html" target="_top" xlink:title=" ">
<polygon fill="#ffffff" stroke="#000000" points="210,-56.5 210,-75.5 308,-75.5 308,-56.5 210,-56.5"/>
<text text-anchor="middle" x="259" y="-63.5" font-family="Helvetica,sans-Serif" font-size="10.00" fill="#000000">files/include/files.h</text>
</a>
</g>
</g>
<!-- Node4&#45;&gt;Node6 -->
<g id="edge4" class="edge">
<title>Node4&#45;&gt;Node6</title>
<path fill="none" stroke="#191970" d="M259,-102.1575C259,-93.155 259,-82.9199 259,-75.6427"/>
<polygon fill="#191970" stroke="#191970" points="255.5001,-102.2455 259,-112.2455 262.5001,-102.2456 255.5001,-102.2455"/>
</g>
<!-- Node8 -->
<g id="node7" class="node">
<title>Node8</title>
<g id="a_node7"><a xlink:href="generator_8h.html" target="_top" xlink:title=" ">
<polygon fill="#ffffff" stroke="#000000" points="326,-56.5 326,-75.5 468,-75.5 468,-56.5 326,-56.5"/>
<text text-anchor="middle" x="397" y="-63.5" font-family="Helvetica,sans-Serif" font-size="10.00" fill="#000000">generator/include/generator.h</text>
</a>
</g>
</g>
<!-- Node4&#45;&gt;Node8 -->
<g id="edge7" class="edge">
<title>Node4&#45;&gt;Node8</title>
<path fill="none" stroke="#191970" d="M292.2213,-108.5189C317.354,-98.3201 351.2418,-84.5685 373.5865,-75.5011"/>
<polygon fill="#191970" stroke="#191970" points="290.6731,-105.3699 282.723,-112.3733 293.3053,-111.8562 290.6731,-105.3699"/>
</g>
<!-- Node4&#45;&gt;Node9 -->
<g id="edge9" class="edge">
<title>Node4&#45;&gt;Node9</title>
<path fill="none" stroke="#191970" d="M316.6106,-110.4366C368.0456,-100.1127 442.4734,-85.1738 490.5517,-75.5237"/>
<polygon fill="#191970" stroke="#191970" points="315.7605,-107.0373 306.6448,-112.4369 317.1381,-113.9004 315.7605,-107.0373"/>
</g>
<!-- Node7 -->
<g id="node6" class="node">
<title>Node7</title>
<g id="a_node6"><a xlink:href="main_8c.html" target="_top" xlink:title=" ">
<polygon fill="#ffffff" stroke="#000000" points="293,-.5 293,-19.5 363,-19.5 363,-.5 293,-.5"/>
<text text-anchor="middle" x="328" y="-7.5" font-family="Helvetica,sans-Serif" font-size="10.00" fill="#000000">main/main.c</text>
</a>
</g>
</g>
<!-- Node6&#45;&gt;Node7 -->
<g id="edge5" class="edge">
<title>Node6&#45;&gt;Node7</title>
<path fill="none" stroke="#191970" d="M278.803,-49.928C290.8636,-40.1397 305.8714,-27.9595 316.1188,-19.6427"/>
<polygon fill="#191970" stroke="#191970" points="276.5779,-47.2262 271.0189,-56.2455 280.9891,-52.6614 276.5779,-47.2262"/>
</g>
<!-- Node8&#45;&gt;Node7 -->
<g id="edge8" class="edge">
<title>Node8&#45;&gt;Node7</title>
<path fill="none" stroke="#191970" d="M377.197,-49.928C365.1364,-40.1397 350.1286,-27.9595 339.8812,-19.6427"/>
<polygon fill="#191970" stroke="#191970" points="375.0109,-52.6614 384.9811,-56.2455 379.4221,-47.2262 375.0109,-52.6614"/>
</g>
</g>
</svg>
        <g id="navigator" transform="translate(0 0)" fill="#404254">
                <rect fill="#f2f5e9" fill-opacity="0.5" stroke="#606060" stroke-width=".5" x="0" y="0" width="60" height="60"/>
                <use id="zoomplus" xlink:href="#zoomPlus" x="17" y="9" onmousedown="handleZoom(evt,'in')"/>
                <use id="zoomminus" xlink:href="#zoomMin" x="42" y="9" onmousedown="handleZoom(evt,'out')"/>
                <use id="reset" xlink:href="#resetDef" x="30" y="36" onmousedown="handleReset()"/>
                <g id="arrowUp" xlink:href="#dirArrow" transform="translate(30 24)" onmousedown="handlePan(0,-1)">
                  <use xlink:href="#rim" fill="#404040">
                        <set attributeName="fill" to="#808080" begin="arrowUp.mouseover" end="arrowUp.mouseout"/>
                  </use>
                  <path fill="none" stroke="white" stroke-width="1.5" d="M0,-3.0v7 M-2.5,-0.5L0,-3.0L2.5,-0.5"/>
                </g>
                <g id="arrowRight" xlink:href="#dirArrow" transform="rotate(90) translate(36 -43)" onmousedown="handlePan(1,0)">
                  <use xlink:href="#rim" fill="#404040">
                        <set attributeName="fill" to="#808080" begin="arrowRight.mouseover" end="arrowRight.mouseout"/>
                  </use>
                  <path fill="none" stroke="white" stroke-width="1.5" d="M0,-3.0v7 M-2.5,-0.5L0,-3.0L2.5,-0.5"/>
                </g>
                <g id="arrowDown" xlink:href="#dirArrow" transform="rotate(180) translate(-30 -48)" onmousedown="handlePan(0,1)">
                  <use xlink:href="#rim" fill="#404040">
                        <set attributeName="fill" to="#808080" begin="arrowDown.mouseover" end="arrowDown.mouseout"/>
                  </use>
                  <path fill="none" stroke="white" stroke-width="1.5" d="M0,-3.0v7 M-2.5,-0.5L0,-3.0L2.5,-0.5"/>
                </g>
                <g id="arrowLeft" xlink:href="#dirArrow" transform="rotate(270) translate(-36 17)" onmousedown="handlePan(-1,0)">
                  <use xlink:href="#rim" fill="#404040">
                        <set attributeName="fill" to="#808080" begin="arrowLeft.mouseover" end="arrowLeft.mouseout"/>
                  </use>
                  <path fill="none" stroke="white" stroke-width="1.5" d="M0,-3.0v7 M-2.5,-0.5L0,-3.0L2.5,-0.5"/>
                </g>
        </g>
        <svg viewBox="0 0 15 15" width="100%" height="30px" preserveAspectRatio="xMaxYMin meet">
         <g id="arrow_out" transform="scale(0.3 0.3)">
          <a xlink:href="instruction_8h__dep__incl_org.svg" target="_base">
           <rect id="button" ry="5" rx="5" y="6" x="6" height="38" width="38"
                fill="#f2f5e9" fill-opacity="0.5" stroke="#606060" stroke-width="1.0"/>
           <path id="arrow"
             d="M 11.500037,31.436501 C 11.940474,20.09759 22.043105,11.32322 32.158766,21.979434 L 37.068811,17.246167 C 37.068811,17.246167 37.088388,32 37.088388,32 L 22.160133,31.978069 C 22.160133,31.978069 26.997745,27.140456 26.997745,27.140456 C 18.528582,18.264221 13.291696,25.230495 11.500037,31.436501 z"
             style="fill:#404040;"/>
          </a>
         </g>
        </svg>
</svg>
