<?xml version="1.0" encoding="UTF-8" standalone="no"?>
<!DOCTYPE svg PUBLIC "-//W3C//DTD SVG 1.1//EN"
 "http://www.w3.org/Graphics/SVG/1.1/DTD/svg11.dtd">
<!-- Generated by graphviz version 2.40.1 (20161225.0304)
 -->
<!-- Title: PARSERFUNC Pages: 1 -->
<svg width="718pt" height="237pt"
 viewBox="0.00 0.00 718.00 237.00" xmlns="http://www.w3.org/2000/svg" xmlns:xlink="http://www.w3.org/1999/xlink">
<g id="graph0" class="graph" transform="scale(1 1) rotate(0) translate(4 233)">
<title>PARSERFUNC</title>
<polygon fill="#ffffff" stroke="transparent" points="-4,4 -4,-233 714,-233 714,4 -4,4"/>
<!-- Node54 -->
<g id="node1" class="node">
<title>Node54</title>
<g id="a_node1"><a xlink:title="Accepts a decimal constant.">
<polygon fill="#bfbfbf" stroke="#000000" points="0,-114.5 0,-133.5 81,-133.5 81,-114.5 0,-114.5"/>
<text text-anchor="middle" x="40.5" y="-121.5" font-family="Helvetica,sans-Serif" font-size="10.00" fill="#000000">PARSERFUNC</text>
</a>
</g>
</g>
<!-- Node55 -->
<g id="node2" class="node">
<title>Node55</title>
<g id="a_node2"><a xlink:href="parser_8h.html#a3c9c52258898d196f76b4d58595b33b9" target="_top" xlink:title="Advances the parser only if the next n characters (where n is the length of the string) matches the s...">
<polygon fill="#ffffff" stroke="#000000" points="129,-171.5 129,-190.5 242,-190.5 242,-171.5 129,-171.5"/>
<text text-anchor="middle" x="185.5" y="-178.5" font-family="Helvetica,sans-Serif" font-size="10.00" fill="#000000">parser_acceptstring</text>
</a>
</g>
</g>
<!-- Node54&#45;&gt;Node55 -->
<g id="edge1" class="edge">
<title>Node54&#45;&gt;Node55</title>
<path fill="none" stroke="#191970" d="M57.3967,-133.563C72.625,-141.896 95.812,-153.8842 117,-162 123.0505,-164.3176 129.5003,-166.4837 135.9311,-168.463"/>
<polygon fill="#191970" stroke="#191970" points="135.3796,-171.949 145.9609,-171.4144 137.3557,-165.2337 135.3796,-171.949"/>
</g>
<!-- Node62 -->
<g id="node9" class="node">
<title>Node62</title>
<g id="a_node9"><a xlink:href="parser_8h.html#a499e49a3ad7a6fde77c49792f1a0774a" target="_top" xlink:title="Searches for any of the characters given in the parser.">
<polygon fill="#ffffff" stroke="#000000" points="123.5,-209.5 123.5,-228.5 247.5,-228.5 247.5,-209.5 123.5,-209.5"/>
<text text-anchor="middle" x="185.5" y="-216.5" font-family="Helvetica,sans-Serif" font-size="10.00" fill="#000000">parser_acceptanychar</text>
</a>
</g>
</g>
<!-- Node54&#45;&gt;Node62 -->
<g id="edge8" class="edge">
<title>Node54&#45;&gt;Node62</title>
<path fill="none" stroke="#191970" d="M47.5795,-133.7542C59.8632,-149.9668 86.7297,-182.4124 117,-200 120.7215,-202.1623 124.7003,-204.088 128.7972,-205.8015"/>
<polygon fill="#191970" stroke="#191970" points="127.9131,-209.2074 138.5057,-209.4261 130.3615,-202.6495 127.9131,-209.2074"/>
</g>
<!-- Node63 -->
<g id="node10" class="node">
<title>Node63</title>
<g id="a_node10"><a xlink:href="error_8c.html#ae07365063509d8944da638087336597b" target="_top" xlink:title="Construct a new error object out of parameters, and push it to the errorstack.">
<polygon fill="#ffffff" stroke="#000000" points="138,-133.5 138,-152.5 233,-152.5 233,-133.5 138,-133.5"/>
<text text-anchor="middle" x="185.5" y="-140.5" font-family="Helvetica,sans-Serif" font-size="10.00" fill="#000000">errorstack_push</text>
</a>
</g>
</g>
<!-- Node54&#45;&gt;Node63 -->
<g id="edge10" class="edge">
<title>Node54&#45;&gt;Node63</title>
<path fill="none" stroke="#191970" d="M81.2765,-129.3431C95.7062,-131.2339 112.2244,-133.3984 127.7922,-135.4383"/>
<polygon fill="#191970" stroke="#191970" points="127.4837,-138.9277 137.8537,-136.7567 128.3932,-131.987 127.4837,-138.9277"/>
</g>
<!-- Node64 -->
<g id="node11" class="node">
<title>Node64</title>
<g id="a_node11"><a xlink:href="AST_8c.html#a3a1c70c232e669f02ef0a4e171ee6ab2" target="_top" xlink:title="Constructore for ast objects.">
<polygon fill="#ffffff" stroke="#000000" points="155,-95.5 155,-114.5 216,-114.5 216,-95.5 155,-95.5"/>
<text text-anchor="middle" x="185.5" y="-102.5" font-family="Helvetica,sans-Serif" font-size="10.00" fill="#000000">AST_new</text>
</a>
</g>
</g>
<!-- Node54&#45;&gt;Node64 -->
<g id="edge11" class="edge">
<title>Node54&#45;&gt;Node64</title>
<path fill="none" stroke="#191970" d="M81.2765,-118.6569C101.1064,-116.0585 124.8804,-112.9433 144.7119,-110.3446"/>
<polygon fill="#191970" stroke="#191970" points="145.2208,-113.808 154.6813,-109.0383 144.3113,-106.8673 145.2208,-113.808"/>
</g>
<!-- Node65 -->
<g id="node12" class="node">
<title>Node65</title>
<g id="a_node12"><a xlink:href="token_8h.html#a5f63b7723640416a125433badc7d6563" target="_top" xlink:title="Constructor for token objects.">
<polygon fill="#ffffff" stroke="#000000" points="150.5,-57.5 150.5,-76.5 220.5,-76.5 220.5,-57.5 150.5,-57.5"/>
<text text-anchor="middle" x="185.5" y="-64.5" font-family="Helvetica,sans-Serif" font-size="10.00" fill="#000000">token_new</text>
</a>
</g>
</g>
<!-- Node54&#45;&gt;Node65 -->
<g id="edge12" class="edge">
<title>Node54&#45;&gt;Node65</title>
<path fill="none" stroke="#191970" d="M57.3967,-114.437C72.625,-106.104 95.812,-94.1158 117,-86 124.4551,-83.1444 132.5164,-80.5188 140.4014,-78.1893"/>
<polygon fill="#191970" stroke="#191970" points="141.5694,-81.4962 150.236,-75.4019 139.6605,-74.7614 141.5694,-81.4962"/>
</g>
<!-- Node66 -->
<g id="node13" class="node">
<title>Node66</title>
<g id="a_node13"><a xlink:href="helios__integer_8c.html#af677316afd6536844aeb027f14c198cf" target="_top" xlink:title="Create a helios_integer object from a c integer type.">
<polygon fill="#ffffff" stroke="#000000" points="117,-19.5 117,-38.5 254,-38.5 254,-19.5 117,-19.5"/>
<text text-anchor="middle" x="185.5" y="-26.5" font-family="Helvetica,sans-Serif" font-size="10.00" fill="#000000">helios_integer_from_cint</text>
</a>
</g>
</g>
<!-- Node54&#45;&gt;Node66 -->
<g id="edge13" class="edge">
<title>Node54&#45;&gt;Node66</title>
<path fill="none" stroke="#191970" d="M47.5795,-114.2458C59.8632,-98.0332 86.7297,-65.5876 117,-48 120.7215,-45.8377 124.7003,-43.912 128.7972,-42.1985"/>
<polygon fill="#191970" stroke="#191970" points="130.3615,-45.3505 138.5057,-38.5739 127.9131,-38.7926 130.3615,-45.3505"/>
</g>
<!-- Node56 -->
<g id="node3" class="node">
<title>Node56</title>
<g id="a_node3"><a xlink:href="parserutil_8c.html#aecf4b8bdaae9ca8435542900cf024f4e" target="_top" xlink:title="Copy a parser.">
<polygon fill="#ffffff" stroke="#000000" points="307,-171.5 307,-190.5 383,-190.5 383,-171.5 307,-171.5"/>
<text text-anchor="middle" x="345" y="-178.5" font-family="Helvetica,sans-Serif" font-size="10.00" fill="#000000">parser_copy</text>
</a>
</g>
</g>
<!-- Node55&#45;&gt;Node56 -->
<g id="edge2" class="edge">
<title>Node55&#45;&gt;Node56</title>
<path fill="none" stroke="#191970" d="M242.1828,-181C259.9791,-181 279.452,-181 296.6184,-181"/>
<polygon fill="#191970" stroke="#191970" points="296.9731,-184.5001 306.9731,-181 296.9731,-177.5001 296.9731,-184.5001"/>
</g>
<!-- Node57 -->
<g id="node4" class="node">
<title>Node57</title>
<g id="a_node4"><a xlink:href="parserutil_8c.html#a1a00af051004cb18edac760f39982eea" target="_top" xlink:title="Searches for the given character, advances the parser if it found it.">
<polygon fill="#ffffff" stroke="#000000" points="292,-209.5 292,-228.5 398,-228.5 398,-209.5 292,-209.5"/>
<text text-anchor="middle" x="345" y="-216.5" font-family="Helvetica,sans-Serif" font-size="10.00" fill="#000000">parser_acceptchar</text>
</a>
</g>
</g>
<!-- Node55&#45;&gt;Node57 -->
<g id="edge3" class="edge">
<title>Node55&#45;&gt;Node57</title>
<path fill="none" stroke="#191970" d="M225.7486,-190.589C246.7963,-195.6035 272.7552,-201.7881 295.0734,-207.1053"/>
<polygon fill="#191970" stroke="#191970" points="294.5019,-210.567 305.0408,-209.4799 296.1243,-203.7576 294.5019,-210.567"/>
</g>
<!-- Node60 -->
<g id="node7" class="node">
<title>Node60</title>
<g id="a_node7"><a xlink:href="parserutil_8c.html#a1f1841a636bfe529466c99e3db9999cd" target="_top" xlink:title="Restores a parser to another parser&#39;s position.">
<polygon fill="#ffffff" stroke="#000000" points="301.5,-133.5 301.5,-152.5 388.5,-152.5 388.5,-133.5 301.5,-133.5"/>
<text text-anchor="middle" x="345" y="-140.5" font-family="Helvetica,sans-Serif" font-size="10.00" fill="#000000">parser_restore</text>
</a>
</g>
</g>
<!-- Node55&#45;&gt;Node60 -->
<g id="edge6" class="edge">
<title>Node55&#45;&gt;Node60</title>
<path fill="none" stroke="#191970" d="M225.7486,-171.411C246.7963,-166.3965 272.7552,-160.2119 295.0734,-154.8947"/>
<polygon fill="#191970" stroke="#191970" points="296.1243,-158.2424 305.0408,-152.5201 294.5019,-151.433 296.1243,-158.2424"/>
</g>
<!-- Node61 -->
<g id="node8" class="node">
<title>Node61</title>
<g id="a_node8"><a xlink:href="parserutil_8c.html#ab62454c7986532e03ea36b14956b5ad1" target="_top" xlink:title="Simple parser destructor.">
<polygon fill="#ffffff" stroke="#000000" points="290,-95.5 290,-114.5 400,-114.5 400,-95.5 290,-95.5"/>
<text text-anchor="middle" x="345" y="-102.5" font-family="Helvetica,sans-Serif" font-size="10.00" fill="#000000">parser_free_simple</text>
</a>
</g>
</g>
<!-- Node55&#45;&gt;Node61 -->
<g id="edge7" class="edge">
<title>Node55&#45;&gt;Node61</title>
<path fill="none" stroke="#191970" d="M232.9563,-171.4763C240.2827,-168.99 247.5488,-165.8802 254,-162 273.9362,-150.0091 270.4453,-136.6035 290,-124 293.1126,-121.9938 296.4615,-120.1726 299.9152,-118.5245"/>
<polygon fill="#191970" stroke="#191970" points="301.3874,-121.7017 309.2118,-114.5582 298.6404,-115.2632 301.3874,-121.7017"/>
</g>
<!-- Node58 -->
<g id="node5" class="node">
<title>Node58</title>
<g id="a_node5"><a xlink:href="parserutil_8c.html#a2d9e8c20025b7b883c4e87790685a6ad" target="_top" xlink:title="Proxy to parser_next.">
<polygon fill="#ffffff" stroke="#000000" points="471,-209.5 471,-228.5 565,-228.5 565,-209.5 471,-209.5"/>
<text text-anchor="middle" x="518" y="-216.5" font-family="Helvetica,sans-Serif" font-size="10.00" fill="#000000">parser_advance</text>
</a>
</g>
</g>
<!-- Node57&#45;&gt;Node58 -->
<g id="edge4" class="edge">
<title>Node57&#45;&gt;Node58</title>
<path fill="none" stroke="#191970" d="M398.3173,-219C418.0159,-219 440.4207,-219 460.4759,-219"/>
<polygon fill="#191970" stroke="#191970" points="460.7226,-222.5001 470.7225,-219 460.7225,-215.5001 460.7226,-222.5001"/>
</g>
<!-- Node59 -->
<g id="node6" class="node">
<title>Node59</title>
<g id="a_node6"><a xlink:href="parserutil_8c.html#ab25a97ff31329fe9461666bfe2dc6f2c" target="_top" xlink:title="Iterate the parser.">
<polygon fill="#ffffff" stroke="#000000" points="636,-209.5 636,-228.5 710,-228.5 710,-209.5 636,-209.5"/>
<text text-anchor="middle" x="673" y="-216.5" font-family="Helvetica,sans-Serif" font-size="10.00" fill="#000000">parser_next</text>
</a>
</g>
</g>
<!-- Node58&#45;&gt;Node59 -->
<g id="edge5" class="edge">
<title>Node58&#45;&gt;Node59</title>
<path fill="none" stroke="#191970" d="M565.3473,-219C584.5156,-219 606.5994,-219 625.7571,-219"/>
<polygon fill="#191970" stroke="#191970" points="625.7689,-222.5001 635.7689,-219 625.7689,-215.5001 625.7689,-222.5001"/>
</g>
<!-- Node62&#45;&gt;Node57 -->
<g id="edge9" class="edge">
<title>Node62&#45;&gt;Node57</title>
<path fill="none" stroke="#191970" d="M247.6236,-219C258.8075,-219 270.4783,-219 281.6953,-219"/>
<polygon fill="#191970" stroke="#191970" points="281.8421,-222.5001 291.8421,-219 281.842,-215.5001 281.8421,-222.5001"/>
</g>
<!-- Node67 -->
<g id="node14" class="node">
<title>Node67</title>
<g id="a_node14"><a xlink:href="helios__integer_8c.html#a50a26b1e9578164839f3a5bb17e04051" target="_top" xlink:title="Constructor of a helios_integer object.">
<polygon fill="#ffffff" stroke="#000000" points="291.5,-19.5 291.5,-38.5 398.5,-38.5 398.5,-19.5 291.5,-19.5"/>
<text text-anchor="middle" x="345" y="-26.5" font-family="Helvetica,sans-Serif" font-size="10.00" fill="#000000">helios_integer_init</text>
</a>
</g>
</g>
<!-- Node66&#45;&gt;Node67 -->
<g id="edge14" class="edge">
<title>Node66&#45;&gt;Node67</title>
<path fill="none" stroke="#191970" d="M254.068,-29C263.1473,-29 272.4238,-29 281.4142,-29"/>
<polygon fill="#191970" stroke="#191970" points="281.4174,-32.5001 291.4173,-29 281.4173,-25.5001 281.4174,-32.5001"/>
</g>
<!-- Node68 -->
<g id="node15" class="node">
<title>Node68</title>
<g id="a_node15"><a xlink:href="helios__memory_8h.html#af87f0050f8e236d0945592fa4e54dc94" target="_top" xlink:title="Allocates a new helios object (and performs all the GC steps associated with that action).">
<polygon fill="#ffffff" stroke="#000000" points="455.5,-38.5 455.5,-57.5 580.5,-57.5 580.5,-38.5 455.5,-38.5"/>
<text text-anchor="middle" x="518" y="-45.5" font-family="Helvetica,sans-Serif" font-size="10.00" fill="#000000">helios_allocate_object</text>
</a>
</g>
</g>
<!-- Node67&#45;&gt;Node68 -->
<g id="edge15" class="edge">
<title>Node67&#45;&gt;Node68</title>
<path fill="none" stroke="#191970" d="M398.79,-34.9076C413.5171,-36.525 429.7279,-38.3054 445.3232,-40.0182"/>
<polygon fill="#191970" stroke="#191970" points="445.1385,-43.5188 455.4609,-41.1315 445.9028,-36.5607 445.1385,-43.5188"/>
</g>
<!-- Node69 -->
<g id="node16" class="node">
<title>Node69</title>
<g id="a_node16"><a xlink:href="helios__memory_8h.html#ab14fb1c046aae61ab06eda8eeaf2cd85" target="_top" xlink:title=" ">
<polygon fill="#ffffff" stroke="#000000" points="436,-.5 436,-19.5 600,-19.5 600,-.5 436,-.5"/>
<text text-anchor="middle" x="518" y="-7.5" font-family="Helvetica,sans-Serif" font-size="10.00" fill="#000000">helios_set_garbagecollectable</text>
</a>
</g>
</g>
<!-- Node67&#45;&gt;Node69 -->
<g id="edge16" class="edge">
<title>Node67&#45;&gt;Node69</title>
<path fill="none" stroke="#191970" d="M398.79,-23.0924C407.4581,-22.1404 416.6402,-21.132 425.9083,-20.1141"/>
<polygon fill="#191970" stroke="#191970" points="426.4205,-23.579 435.9786,-19.0081 425.6562,-16.6208 426.4205,-23.579"/>
</g>
</g>
</svg>
