<?xml version="1.0" encoding="UTF-8" standalone="no"?>
<!DOCTYPE svg PUBLIC "-//W3C//DTD SVG 1.1//EN"
 "http://www.w3.org/Graphics/SVG/1.1/DTD/svg11.dtd">
<!-- Generated by graphviz version 2.40.1 (20161225.0304)
 -->
<!-- Title: PARSERFUNC Pages: 1 -->
<!--zoomable 363 -->
<svg id="main" version="1.1" xmlns="http://www.w3.org/2000/svg" xmlns:xlink="http://www.w3.org/1999/xlink" xml:space="preserve" onload="init(evt)">
<style type="text/css"><![CDATA[
.edge:hover path { stroke: red; }
.edge:hover polygon { stroke: red; fill: red; }
]]></style>
<script type="text/javascript"><![CDATA[
var edges = document.getElementsByTagName('g');
if (edges && edges.length) {
  for (var i=0;i<edges.length;i++) {
    if (edges[i].id.substr(0,4)=='edge') {
      edges[i].setAttribute('class','edge');
    }
  }
}
]]></script>
        <defs>
                <circle id="rim" cx="0" cy="0" r="7"/>
                <circle id="rim2" cx="0" cy="0" r="3.5"/>
                <g id="zoomPlus">
                        <use xlink:href="#rim" fill="#404040">
                                <set attributeName="fill" to="#808080" begin="zoomplus.mouseover" end="zoomplus.mouseout"/>
                        </use>
                        <path d="M-4,0h8M0,-4v8" fill="none" stroke="white" stroke-width="1.5" pointer-events="none"/>
                </g>
                <g id="zoomMin">
                        <use xlink:href="#rim" fill="#404040">
                                <set attributeName="fill" to="#808080" begin="zoomminus.mouseover" end="zoomminus.mouseout"/>
                        </use>
                        <path d="M-4,0h8" fill="none" stroke="white" stroke-width="1.5" pointer-events="none"/>
                </g>
                <g id="dirArrow">
                        <path fill="none" stroke="white" stroke-width="1.5" d="M0,-3.0v7 M-2.5,-0.5L0,-3.0L2.5,-0.5"/>
                </g>
               <g id="resetDef">
                       <use xlink:href="#rim2" fill="#404040">
                               <set attributeName="fill" to="#808080" begin="reset.mouseover" end="reset.mouseout"/>
                       </use>
               </g>
        </defs>

<script type="text/javascript">
var viewWidth = 796;
var viewHeight = 363;
var sectionId = 'dynsection-2';
</script>
<script xlink:href="svgpan.js"/>
<svg id="graph" class="graph">
<g id="viewport">
<title>PARSERFUNC</title>
<polygon fill="#ffffff" stroke="transparent" points="-4,4 -4,-359.4625 792,-359.4625 792,4 -4,4"/>
<!-- Node18 -->
<g id="node1" class="node">
<title>Node18</title>
<g id="a_node1"><a xlink:title="Accepts a hexadecimal constant.">
<polygon fill="#bfbfbf" stroke="#000000" points="0,-114.5 0,-133.5 86,-133.5 86,-114.5 0,-114.5"/>
<text text-anchor="middle" x="43" y="-121.5" font-family="Helvetica,sans-Serif" font-size="10.00" fill="#000000">PARSERFUNC</text>
</a>
</g>
</g>
<!-- Node19 -->
<g id="node2" class="node">
<title>Node19</title>
<g id="a_node2"><a xlink:href="parser_8h.html#a53064666f3b6f3c4e05e1759feee8a00" target="_top" xlink:title="Crossover between acceptstring and expectchar.">
<polygon fill="#ffffff" stroke="#000000" points="132,-228.5 132,-247.5 234,-247.5 234,-228.5 132,-228.5"/>
<text text-anchor="middle" x="183" y="-235.5" font-family="Helvetica,sans-Serif" font-size="10.00" fill="#000000">parser_expectstring</text>
</a>
</g>
</g>
<!-- Node18&#45;&gt;Node19 -->
<g id="edge1" class="edge">
<title>Node18&#45;&gt;Node19</title>
<path fill="none" stroke="#191970" d="M54.9363,-133.7196C79.0099,-153.3223 133.5977,-197.7724 163.1331,-221.8227"/>
<polygon fill="#191970" stroke="#191970" points="161.1295,-224.7048 171.0939,-228.305 165.5495,-219.2767 161.1295,-224.7048"/>
</g>
<!-- Node25 -->
<g id="node8" class="node">
<title>Node25</title>
<g id="a_node8"><a xlink:href="error_8c.html#a1febf822c4d9249dd4afd09c5d5f87bb" target="_top" xlink:title="Construct a new error object out of parameters, and push it to the errorstack.">
<polygon fill="#ffffff" stroke="#000000" points="445.5,-247.5 445.5,-266.5 531.5,-266.5 531.5,-247.5 445.5,-247.5"/>
<text text-anchor="middle" x="488.5" y="-254.5" font-family="Helvetica,sans-Serif" font-size="10.00" fill="#000000">errorstack_push</text>
</a>
</g>
</g>
<!-- Node18&#45;&gt;Node25 -->
<g id="edge11" class="edge">
<title>Node18&#45;&gt;Node25</title>
<path fill="none" stroke="#191970" d="M86.1307,-125.7046C164.6225,-129.3256 327.4625,-139.3784 379,-162 419.2567,-179.6701 455.559,-217.4587 474.5595,-239.6823"/>
<polygon fill="#191970" stroke="#191970" points="471.8733,-241.9262 480.9667,-247.3633 477.2487,-237.4422 471.8733,-241.9262"/>
</g>
<!-- Node28 -->
<g id="node11" class="node">
<title>Node28</title>
<g id="a_node11"><a xlink:href="AST_8c.html#a3a1c70c232e669f02ef0a4e171ee6ab2" target="_top" xlink:title="Constructore for ast objects.">
<polygon fill="#ffffff" stroke="#000000" points="153.5,-95.5 153.5,-114.5 212.5,-114.5 212.5,-95.5 153.5,-95.5"/>
<text text-anchor="middle" x="183" y="-102.5" font-family="Helvetica,sans-Serif" font-size="10.00" fill="#000000">AST_new</text>
</a>
</g>
</g>
<!-- Node18&#45;&gt;Node28 -->
<g id="edge12" class="edge">
<title>Node18&#45;&gt;Node28</title>
<path fill="none" stroke="#191970" d="M86.147,-118.1443C104.2805,-115.6834 125.2478,-112.8378 143.0266,-110.425"/>
<polygon fill="#191970" stroke="#191970" points="143.6421,-113.8736 153.0806,-109.0605 142.7007,-106.9372 143.6421,-113.8736"/>
</g>
<!-- Node29 -->
<g id="node12" class="node">
<title>Node29</title>
<g id="a_node12"><a xlink:href="parser_8h.html#a499e49a3ad7a6fde77c49792f1a0774a" target="_top" xlink:title="Searches for any of the characters given in the parser.">
<polygon fill="#ffffff" stroke="#000000" points="126.5,-313.5 126.5,-332.5 239.5,-332.5 239.5,-313.5 126.5,-313.5"/>
<text text-anchor="middle" x="183" y="-320.5" font-family="Helvetica,sans-Serif" font-size="10.00" fill="#000000">parser_acceptanychar</text>
</a>
</g>
</g>
<!-- Node18&#45;&gt;Node29 -->
<g id="edge13" class="edge">
<title>Node18&#45;&gt;Node29</title>
<path fill="none" stroke="#191970" d="M47.9024,-133.788C59.4279,-156.4188 89.7185,-213.7345 122,-257 135.2903,-274.8125 152.6755,-293.2354 165.4844,-306.0752"/>
<polygon fill="#191970" stroke="#191970" points="163.2169,-308.7551 172.7908,-313.2929 168.1364,-303.7752 163.2169,-308.7551"/>
</g>
<!-- Node30 -->
<g id="node13" class="node">
<title>Node30</title>
<g id="a_node13"><a xlink:href="token_8h.html#a5f63b7723640416a125433badc7d6563" target="_top" xlink:title="Constructor for token objects.">
<polygon fill="#ffffff" stroke="#000000" points="151,-57.5 151,-76.5 215,-76.5 215,-57.5 151,-57.5"/>
<text text-anchor="middle" x="183" y="-64.5" font-family="Helvetica,sans-Serif" font-size="10.00" fill="#000000">token_new</text>
</a>
</g>
</g>
<!-- Node18&#45;&gt;Node30 -->
<g id="edge15" class="edge">
<title>Node18&#45;&gt;Node30</title>
<path fill="none" stroke="#191970" d="M60.8635,-114.4779C76.6606,-106.2835 100.4753,-94.4764 122,-86 128.0279,-83.6262 134.4805,-81.3466 140.8502,-79.2417"/>
<polygon fill="#191970" stroke="#191970" points="142.2577,-82.4664 150.7185,-76.0895 140.1277,-75.7984 142.2577,-82.4664"/>
</g>
<!-- Node31 -->
<g id="node14" class="node">
<title>Node31</title>
<g id="a_node14"><a xlink:href="helios__integer_8c.html#a64070d52d78c6e1bba2bcadd6a55b002" target="_top" xlink:title="Create a helios_integer object from a c integer type.">
<polygon fill="#ffffff" stroke="#000000" points="122,-19.5 122,-38.5 244,-38.5 244,-19.5 122,-19.5"/>
<text text-anchor="middle" x="183" y="-26.5" font-family="Helvetica,sans-Serif" font-size="10.00" fill="#000000">helios_integer_from_cint</text>
</a>
</g>
</g>
<!-- Node18&#45;&gt;Node31 -->
<g id="edge16" class="edge">
<title>Node18&#45;&gt;Node31</title>
<path fill="none" stroke="#191970" d="M50.4471,-114.3605C63.333,-98.3171 91.3656,-66.1141 122,-48 125.5983,-45.8723 129.4593,-43.9593 133.4274,-42.2438"/>
<polygon fill="#191970" stroke="#191970" points="134.7593,-45.4813 142.8081,-38.5917 132.2196,-38.9582 134.7593,-45.4813"/>
</g>
<!-- Node20 -->
<g id="node3" class="node">
<title>Node20</title>
<g id="a_node3"><a xlink:href="parserutil_8c.html#aecf4b8bdaae9ca8435542900cf024f4e" target="_top" xlink:title="Copy a parser.">
<polygon fill="#ffffff" stroke="#000000" points="294.5,-323.5 294.5,-342.5 364.5,-342.5 364.5,-323.5 294.5,-323.5"/>
<text text-anchor="middle" x="329.5" y="-330.5" font-family="Helvetica,sans-Serif" font-size="10.00" fill="#000000">parser_copy</text>
</a>
</g>
</g>
<!-- Node19&#45;&gt;Node20 -->
<g id="edge2" class="edge">
<title>Node19&#45;&gt;Node20</title>
<path fill="none" stroke="#191970" d="M193.0259,-247.5392C209.8615,-263.1515 245.3799,-294.3819 280,-314 283.46,-315.9607 287.1619,-317.8007 290.9256,-319.5049"/>
<polygon fill="#191970" stroke="#191970" points="289.7311,-322.7995 300.3058,-323.453 292.4467,-316.3477 289.7311,-322.7995"/>
</g>
<!-- Node21 -->
<g id="node4" class="node">
<title>Node21</title>
<g id="a_node4"><a xlink:href="parserutil_8c.html#ad7f3825521eb3e5bd3af734357caa4d6" target="_top" xlink:title="If the parser can accept the given character, accept it, else push an error on the parsers errorstack...">
<polygon fill="#ffffff" stroke="#000000" points="281,-285.5 281,-304.5 378,-304.5 378,-285.5 281,-285.5"/>
<text text-anchor="middle" x="329.5" y="-292.5" font-family="Helvetica,sans-Serif" font-size="10.00" fill="#000000">parser_expectchar</text>
</a>
</g>
</g>
<!-- Node19&#45;&gt;Node21 -->
<g id="edge3" class="edge">
<title>Node19&#45;&gt;Node21</title>
<path fill="none" stroke="#191970" d="M207.5208,-247.5405C231.606,-256.9116 268.555,-271.2876 295.4767,-281.7623"/>
<polygon fill="#191970" stroke="#191970" points="294.3106,-285.0641 304.8992,-285.4284 296.8489,-278.5405 294.3106,-285.0641"/>
</g>
<!-- Node19&#45;&gt;Node25 -->
<g id="edge8" class="edge">
<title>Node19&#45;&gt;Node25</title>
<path fill="none" stroke="#191970" d="M234.1338,-241.1802C289.7816,-244.6411 378.3591,-250.15 434.9418,-253.669"/>
<polygon fill="#191970" stroke="#191970" points="434.9215,-257.1745 445.1195,-254.302 435.3561,-250.188 434.9215,-257.1745"/>
</g>
<!-- Node26 -->
<g id="node9" class="node">
<title>Node26</title>
<g id="a_node9"><a xlink:href="parserutil_8c.html#a1f1841a636bfe529466c99e3db9999cd" target="_top" xlink:title="Restores a parser to another parser&#39;s position.">
<polygon fill="#ffffff" stroke="#000000" points="290,-209.5 290,-228.5 369,-228.5 369,-209.5 290,-209.5"/>
<text text-anchor="middle" x="329.5" y="-216.5" font-family="Helvetica,sans-Serif" font-size="10.00" fill="#000000">parser_restore</text>
</a>
</g>
</g>
<!-- Node19&#45;&gt;Node26 -->
<g id="edge9" class="edge">
<title>Node19&#45;&gt;Node26</title>
<path fill="none" stroke="#191970" d="M234.2386,-231.3547C248.8459,-229.4603 264.7406,-227.3988 279.2861,-225.5124"/>
<polygon fill="#191970" stroke="#191970" points="280.1345,-228.9317 289.6013,-224.1746 279.2342,-221.9899 280.1345,-228.9317"/>
</g>
<!-- Node27 -->
<g id="node10" class="node">
<title>Node27</title>
<g id="a_node10"><a xlink:href="parserutil_8c.html#ab62454c7986532e03ea36b14956b5ad1" target="_top" xlink:title="Simple parser destructor.">
<polygon fill="#ffffff" stroke="#000000" points="280,-171.5 280,-190.5 379,-190.5 379,-171.5 280,-171.5"/>
<text text-anchor="middle" x="329.5" y="-178.5" font-family="Helvetica,sans-Serif" font-size="10.00" fill="#000000">parser_free_simple</text>
</a>
</g>
</g>
<!-- Node19&#45;&gt;Node27 -->
<g id="edge10" class="edge">
<title>Node19&#45;&gt;Node27</title>
<path fill="none" stroke="#191970" d="M207.2988,-228.4275C226.9076,-220.7155 255.2116,-209.6127 280,-200 284.8638,-198.1139 290,-196.1317 295.0496,-194.1884"/>
<polygon fill="#191970" stroke="#191970" points="296.4796,-197.3885 304.5591,-190.5349 293.9691,-190.8542 296.4796,-197.3885"/>
</g>
<!-- Node22 -->
<g id="node5" class="node">
<title>Node22</title>
<g id="a_node5"><a xlink:href="parserutil_8c.html#a1a00af051004cb18edac760f39982eea" target="_top" xlink:title="Searches for the given character, advances the parser if it found it.">
<polygon fill="#ffffff" stroke="#000000" points="440,-323.5 440,-342.5 537,-342.5 537,-323.5 440,-323.5"/>
<text text-anchor="middle" x="488.5" y="-330.5" font-family="Helvetica,sans-Serif" font-size="10.00" fill="#000000">parser_acceptchar</text>
</a>
</g>
</g>
<!-- Node21&#45;&gt;Node22 -->
<g id="edge4" class="edge">
<title>Node21&#45;&gt;Node22</title>
<path fill="none" stroke="#191970" d="M369.6224,-304.589C390.6042,-309.6035 416.4817,-315.7881 438.7299,-321.1053"/>
<polygon fill="#191970" stroke="#191970" points="438.1264,-324.5595 448.6661,-323.4799 439.7536,-317.7513 438.1264,-324.5595"/>
</g>
<!-- Node21&#45;&gt;Node25 -->
<g id="edge7" class="edge">
<title>Node21&#45;&gt;Node25</title>
<path fill="none" stroke="#191970" d="M369.6224,-285.411C390.6042,-280.3965 416.4817,-274.2119 438.7299,-268.8947"/>
<polygon fill="#191970" stroke="#191970" points="439.7536,-272.2487 448.6661,-266.5201 438.1264,-265.4405 439.7536,-272.2487"/>
</g>
<!-- Node23 -->
<g id="node6" class="node">
<title>Node23</title>
<g id="a_node6"><a xlink:href="parserutil_8c.html#a2d9e8c20025b7b883c4e87790685a6ad" target="_top" xlink:title="Proxy to parser_next.">
<polygon fill="#ffffff" stroke="#000000" points="598,-323.5 598,-342.5 684,-342.5 684,-323.5 598,-323.5"/>
<text text-anchor="middle" x="641" y="-330.5" font-family="Helvetica,sans-Serif" font-size="10.00" fill="#000000">parser_advance</text>
</a>
</g>
</g>
<!-- Node22&#45;&gt;Node23 -->
<g id="edge5" class="edge">
<title>Node22&#45;&gt;Node23</title>
<path fill="none" stroke="#191970" d="M537.1712,-333C553.341,-333 571.423,-333 587.9092,-333"/>
<polygon fill="#191970" stroke="#191970" points="587.9366,-336.5001 597.9365,-333 587.9365,-329.5001 587.9366,-336.5001"/>
</g>
<!-- Node24 -->
<g id="node7" class="node">
<title>Node24</title>
<g id="a_node7"><a xlink:href="parserutil_8c.html#ab25a97ff31329fe9461666bfe2dc6f2c" target="_top" xlink:title="Iterate the parser.">
<polygon fill="#ffffff" stroke="#000000" points="720,-323.5 720,-342.5 788,-342.5 788,-323.5 720,-323.5"/>
<text text-anchor="middle" x="754" y="-330.5" font-family="Helvetica,sans-Serif" font-size="10.00" fill="#000000">parser_next</text>
</a>
</g>
</g>
<!-- Node23&#45;&gt;Node24 -->
<g id="edge6" class="edge">
<title>Node23&#45;&gt;Node24</title>
<path fill="none" stroke="#191970" d="M684.0428,-333C692.4677,-333 701.3165,-333 709.7791,-333"/>
<polygon fill="#191970" stroke="#191970" points="709.8556,-336.5001 719.8556,-333 709.8555,-329.5001 709.8556,-336.5001"/>
</g>
<!-- Node29&#45;&gt;Node22 -->
<g id="edge14" class="edge">
<title>Node29&#45;&gt;Node22</title>
<path fill="none" stroke="#191970" d="M207.6715,-332.5477C227.0122,-339.4973 254.7821,-348.311 280,-352 333.1609,-359.7767 394.4426,-352.2387 436.7444,-344.4786"/>
<polygon fill="#191970" stroke="#191970" points="437.6368,-347.8716 446.8058,-342.563 436.3276,-340.9952 437.6368,-347.8716"/>
</g>
<!-- Node32 -->
<g id="node15" class="node">
<title>Node32</title>
<g id="a_node15"><a xlink:href="helios__integer_8c.html#a50a26b1e9578164839f3a5bb17e04051" target="_top" xlink:title="Constructor of a helios_integer object.">
<polygon fill="#ffffff" stroke="#000000" points="282,-19.5 282,-38.5 377,-38.5 377,-19.5 282,-19.5"/>
<text text-anchor="middle" x="329.5" y="-26.5" font-family="Helvetica,sans-Serif" font-size="10.00" fill="#000000">helios_integer_init</text>
</a>
</g>
</g>
<!-- Node31&#45;&gt;Node32 -->
<g id="edge17" class="edge">
<title>Node31&#45;&gt;Node32</title>
<path fill="none" stroke="#191970" d="M244.2803,-29C253.3953,-29 262.7643,-29 271.8022,-29"/>
<polygon fill="#191970" stroke="#191970" points="271.8345,-32.5001 281.8344,-29 271.8344,-25.5001 271.8345,-32.5001"/>
</g>
<!-- Node33 -->
<g id="node16" class="node">
<title>Node33</title>
<g id="a_node16"><a xlink:href="helios__memory_8h.html#af87f0050f8e236d0945592fa4e54dc94" target="_top" xlink:title="Allocates a new helios object (and performs all the GC steps associated with that action).">
<polygon fill="#ffffff" stroke="#000000" points="432,-38.5 432,-57.5 545,-57.5 545,-38.5 432,-38.5"/>
<text text-anchor="middle" x="488.5" y="-45.5" font-family="Helvetica,sans-Serif" font-size="10.00" fill="#000000">helios_allocate_object</text>
</a>
</g>
</g>
<!-- Node32&#45;&gt;Node33 -->
<g id="edge18" class="edge">
<title>Node32&#45;&gt;Node33</title>
<path fill="none" stroke="#191970" d="M377.2052,-34.7006C391.1778,-36.3703 406.7192,-38.2275 421.6497,-40.0116"/>
<polygon fill="#191970" stroke="#191970" points="421.5171,-43.5206 431.8618,-41.2319 422.3478,-36.57 421.5171,-43.5206"/>
</g>
<!-- Node34 -->
<g id="node17" class="node">
<title>Node34</title>
<g id="a_node17"><a xlink:href="helios__memory_8h.html#ab14fb1c046aae61ab06eda8eeaf2cd85" target="_top" xlink:title=" ">
<polygon fill="#ffffff" stroke="#000000" points="415,-.5 415,-19.5 562,-19.5 562,-.5 415,-.5"/>
<text text-anchor="middle" x="488.5" y="-7.5" font-family="Helvetica,sans-Serif" font-size="10.00" fill="#000000">helios_set_garbagecollectable</text>
</a>
</g>
</g>
<!-- Node32&#45;&gt;Node34 -->
<g id="edge19" class="edge">
<title>Node32&#45;&gt;Node34</title>
<path fill="none" stroke="#191970" d="M377.2052,-23.2994C386.031,-22.2447 395.4827,-21.1153 405.011,-19.9767"/>
<polygon fill="#191970" stroke="#191970" points="405.4311,-23.4515 414.9452,-18.7896 404.6005,-16.5009 405.4311,-23.4515"/>
</g>
</g>
</svg>
        <g id="navigator" transform="translate(0 0)" fill="#404254">
                <rect fill="#f2f5e9" fill-opacity="0.5" stroke="#606060" stroke-width=".5" x="0" y="0" width="60" height="60"/>
                <use id="zoomplus" xlink:href="#zoomPlus" x="17" y="9" onmousedown="handleZoom(evt,'in')"/>
                <use id="zoomminus" xlink:href="#zoomMin" x="42" y="9" onmousedown="handleZoom(evt,'out')"/>
                <use id="reset" xlink:href="#resetDef" x="30" y="36" onmousedown="handleReset()"/>
                <g id="arrowUp" xlink:href="#dirArrow" transform="translate(30 24)" onmousedown="handlePan(0,-1)">
                  <use xlink:href="#rim" fill="#404040">
                        <set attributeName="fill" to="#808080" begin="arrowUp.mouseover" end="arrowUp.mouseout"/>
                  </use>
                  <path fill="none" stroke="white" stroke-width="1.5" d="M0,-3.0v7 M-2.5,-0.5L0,-3.0L2.5,-0.5"/>
                </g>
                <g id="arrowRight" xlink:href="#dirArrow" transform="rotate(90) translate(36 -43)" onmousedown="handlePan(1,0)">
                  <use xlink:href="#rim" fill="#404040">
                        <set attributeName="fill" to="#808080" begin="arrowRight.mouseover" end="arrowRight.mouseout"/>
                  </use>
                  <path fill="none" stroke="white" stroke-width="1.5" d="M0,-3.0v7 M-2.5,-0.5L0,-3.0L2.5,-0.5"/>
                </g>
                <g id="arrowDown" xlink:href="#dirArrow" transform="rotate(180) translate(-30 -48)" onmousedown="handlePan(0,1)">
                  <use xlink:href="#rim" fill="#404040">
                        <set attributeName="fill" to="#808080" begin="arrowDown.mouseover" end="arrowDown.mouseout"/>
                  </use>
                  <path fill="none" stroke="white" stroke-width="1.5" d="M0,-3.0v7 M-2.5,-0.5L0,-3.0L2.5,-0.5"/>
                </g>
                <g id="arrowLeft" xlink:href="#dirArrow" transform="rotate(270) translate(-36 17)" onmousedown="handlePan(-1,0)">
                  <use xlink:href="#rim" fill="#404040">
                        <set attributeName="fill" to="#808080" begin="arrowLeft.mouseover" end="arrowLeft.mouseout"/>
                  </use>
                  <path fill="none" stroke="white" stroke-width="1.5" d="M0,-3.0v7 M-2.5,-0.5L0,-3.0L2.5,-0.5"/>
                </g>
        </g>
        <svg viewBox="0 0 15 15" width="100%" height="30px" preserveAspectRatio="xMaxYMin meet">
         <g id="arrow_out" transform="scale(0.3 0.3)">
          <a xlink:href="integers_8c_a875633d10b7800ff77a5e0ae26cc12a3_cgraph_org.svg" target="_base">
           <rect id="button" ry="5" rx="5" y="6" x="6" height="38" width="38"
                fill="#f2f5e9" fill-opacity="0.5" stroke="#606060" stroke-width="1.0"/>
           <path id="arrow"
             d="M 11.500037,31.436501 C 11.940474,20.09759 22.043105,11.32322 32.158766,21.979434 L 37.068811,17.246167 C 37.068811,17.246167 37.088388,32 37.088388,32 L 22.160133,31.978069 C 22.160133,31.978069 26.997745,27.140456 26.997745,27.140456 C 18.528582,18.264221 13.291696,25.230495 11.500037,31.436501 z"
             style="fill:#404040;"/>
          </a>
         </g>
        </svg>
</svg>
