<?xml version="1.0" encoding="UTF-8" standalone="no"?>
<!DOCTYPE svg PUBLIC "-//W3C//DTD SVG 1.1//EN"
 "http://www.w3.org/Graphics/SVG/1.1/DTD/svg11.dtd">
<!-- Generated by graphviz version 2.40.1 (20161225.0304)
 -->
<!-- Title: PARSERFUNC Pages: 1 -->
<svg width="476pt" height="350pt"
 viewBox="0.00 0.00 476.00 350.00" xmlns="http://www.w3.org/2000/svg" xmlns:xlink="http://www.w3.org/1999/xlink">
<g id="graph0" class="graph" transform="scale(1 1) rotate(0) translate(4 346)">
<title>PARSERFUNC</title>
<polygon fill="#ffffff" stroke="transparent" points="-4,4 -4,-346 472,-346 472,4 -4,4"/>
<!-- Node71 -->
<g id="node1" class="node">
<title>Node71</title>
<g id="a_node1"><a xlink:title="Accepts an integer of any (supported) base.">
<polygon fill="#bfbfbf" stroke="#000000" points="0,-152.5 0,-171.5 81,-171.5 81,-152.5 0,-152.5"/>
<text text-anchor="middle" x="40.5" y="-159.5" font-family="Helvetica,sans-Serif" font-size="10.00" fill="#000000">PARSERFUNC</text>
</a>
</g>
</g>
<!-- Node72 -->
<g id="node2" class="node">
<title>Node72</title>
<g id="a_node2"><a xlink:href="parser_8h.html#a8c4c57eca60b2cec9a372a04abea456d" target="_top" xlink:title="Advances the parser as long as it can find whitespace.">
<polygon fill="#ffffff" stroke="#000000" points="129.5,-322.5 129.5,-341.5 215.5,-341.5 215.5,-322.5 129.5,-322.5"/>
<text text-anchor="middle" x="172.5" y="-329.5" font-family="Helvetica,sans-Serif" font-size="10.00" fill="#000000">parser_skipws</text>
</a>
</g>
</g>
<!-- Node71&#45;&gt;Node72 -->
<g id="edge1" class="edge">
<title>Node71&#45;&gt;Node72</title>
<path fill="none" stroke="#191970" d="M42.6954,-171.7042C49.2023,-198.2734 70.8781,-272.8853 117,-313 118.9499,-314.696 121.0586,-316.2424 123.2754,-317.6523"/>
<polygon fill="#191970" stroke="#191970" points="121.7836,-320.8233 132.2543,-322.4407 125.0776,-314.6467 121.7836,-320.8233"/>
</g>
<!-- Node75 -->
<g id="node5" class="node">
<title>Node75</title>
<g id="a_node5"><a xlink:href="error_8c.html#abce5ae15abadd0806e96f190e0294797" target="_top" xlink:title="Find the length of an errorstack.">
<polygon fill="#ffffff" stroke="#000000" points="121.5,-284.5 121.5,-303.5 223.5,-303.5 223.5,-284.5 121.5,-284.5"/>
<text text-anchor="middle" x="172.5" y="-291.5" font-family="Helvetica,sans-Serif" font-size="10.00" fill="#000000">errorstack_length</text>
</a>
</g>
</g>
<!-- Node71&#45;&gt;Node75 -->
<g id="edge4" class="edge">
<title>Node71&#45;&gt;Node75</title>
<path fill="none" stroke="#191970" d="M44.4769,-171.7247C53.8403,-193.4396 79.3593,-246.2212 117,-275 119.4297,-276.8577 122.0531,-278.541 124.7914,-280.0652"/>
<polygon fill="#191970" stroke="#191970" points="123.3022,-283.2327 133.8313,-284.4109 126.335,-276.9238 123.3022,-283.2327"/>
</g>
<!-- Node76 -->
<g id="node6" class="node">
<title>Node76</title>
<g id="a_node6"><a xlink:href="parser_8h.html#aecf4b8bdaae9ca8435542900cf024f4e" target="_top" xlink:title="Copy a parser.">
<polygon fill="#ffffff" stroke="#000000" points="134.5,-246.5 134.5,-265.5 210.5,-265.5 210.5,-246.5 134.5,-246.5"/>
<text text-anchor="middle" x="172.5" y="-253.5" font-family="Helvetica,sans-Serif" font-size="10.00" fill="#000000">parser_copy</text>
</a>
</g>
</g>
<!-- Node71&#45;&gt;Node76 -->
<g id="edge5" class="edge">
<title>Node71&#45;&gt;Node76</title>
<path fill="none" stroke="#191970" d="M47.9268,-171.6826C60.5137,-187.4763 87.5555,-218.8392 117,-237 120.2235,-238.9882 123.6816,-240.7997 127.2382,-242.4439"/>
<polygon fill="#191970" stroke="#191970" points="126.2114,-245.8073 136.7889,-246.4118 128.897,-239.3429 126.2114,-245.8073"/>
</g>
<!-- Node77 -->
<g id="node7" class="node">
<title>Node77</title>
<g id="a_node7"><a xlink:href="parser_8h.html#ab62454c7986532e03ea36b14956b5ad1" target="_top" xlink:title="Simple parser destructor.">
<polygon fill="#ffffff" stroke="#000000" points="117.5,-208.5 117.5,-227.5 227.5,-227.5 227.5,-208.5 117.5,-208.5"/>
<text text-anchor="middle" x="172.5" y="-215.5" font-family="Helvetica,sans-Serif" font-size="10.00" fill="#000000">parser_free_simple</text>
</a>
</g>
</g>
<!-- Node71&#45;&gt;Node77 -->
<g id="edge6" class="edge">
<title>Node71&#45;&gt;Node77</title>
<path fill="none" stroke="#191970" d="M58.7665,-171.6063C74.0901,-179.4769 96.6699,-190.6393 117,-199 122.1216,-201.1062 127.5714,-203.1749 132.9789,-205.127"/>
<polygon fill="#191970" stroke="#191970" points="131.9918,-208.4898 142.5867,-208.4976 134.3092,-201.8845 131.9918,-208.4898"/>
</g>
<!-- Node78 -->
<g id="node8" class="node">
<title>Node78</title>
<g id="a_node8"><a xlink:href="AST_8c.html#adc8be8765bd5abffeef1f5649587cb45" target="_top" xlink:title="Destructor for ast objects.">
<polygon fill="#ffffff" stroke="#000000" points="142.5,-152.5 142.5,-171.5 202.5,-171.5 202.5,-152.5 142.5,-152.5"/>
<text text-anchor="middle" x="172.5" y="-159.5" font-family="Helvetica,sans-Serif" font-size="10.00" fill="#000000">AST_free</text>
</a>
</g>
</g>
<!-- Node71&#45;&gt;Node78 -->
<g id="edge7" class="edge">
<title>Node71&#45;&gt;Node78</title>
<path fill="none" stroke="#191970" d="M81.1814,-162C97.3378,-162 115.88,-162 132.0167,-162"/>
<polygon fill="#191970" stroke="#191970" points="132.2243,-165.5001 142.2243,-162 132.2243,-158.5001 132.2243,-165.5001"/>
</g>
<!-- Node80 -->
<g id="node10" class="node">
<title>Node80</title>
<g id="a_node10"><a xlink:href="error_8c.html#a89fd5777df6b835a420106d940842f2a" target="_top" xlink:title="pop the errorstack until it has a desired length.">
<polygon fill="#ffffff" stroke="#000000" points="117,-114.5 117,-133.5 228,-133.5 228,-114.5 117,-114.5"/>
<text text-anchor="middle" x="172.5" y="-121.5" font-family="Helvetica,sans-Serif" font-size="10.00" fill="#000000">errorstack_popuntil</text>
</a>
</g>
</g>
<!-- Node71&#45;&gt;Node80 -->
<g id="edge10" class="edge">
<title>Node71&#45;&gt;Node80</title>
<path fill="none" stroke="#191970" d="M73.8092,-152.411C90.6928,-147.5506 111.3948,-141.5909 129.4705,-136.3873"/>
<polygon fill="#191970" stroke="#191970" points="130.56,-139.7158 139.2015,-133.5859 128.6235,-132.989 130.56,-139.7158"/>
</g>
<!-- Node82 -->
<g id="node12" class="node">
<title>Node82</title>
<g id="a_node12"><a xlink:href="parser_8h.html#a1f1841a636bfe529466c99e3db9999cd" target="_top" xlink:title="Restores a parser to another parser&#39;s position.">
<polygon fill="#ffffff" stroke="#000000" points="129,-76.5 129,-95.5 216,-95.5 216,-76.5 129,-76.5"/>
<text text-anchor="middle" x="172.5" y="-83.5" font-family="Helvetica,sans-Serif" font-size="10.00" fill="#000000">parser_restore</text>
</a>
</g>
</g>
<!-- Node71&#45;&gt;Node82 -->
<g id="edge12" class="edge">
<title>Node71&#45;&gt;Node82</title>
<path fill="none" stroke="#191970" d="M51.1714,-152.3381C65.3268,-139.9413 91.5059,-118.4381 117,-105 121.0106,-102.886 125.3046,-100.9327 129.6621,-99.1481"/>
<polygon fill="#191970" stroke="#191970" points="131.115,-102.3402 139.2177,-95.514 128.6266,-95.7974 131.115,-102.3402"/>
</g>
<!-- Node83 -->
<g id="node13" class="node">
<title>Node83</title>
<g id="a_node13"><a xlink:href="error_8c.html#ae07365063509d8944da638087336597b" target="_top" xlink:title="Construct a new error object out of parameters, and push it to the errorstack.">
<polygon fill="#ffffff" stroke="#000000" points="125,-38.5 125,-57.5 220,-57.5 220,-38.5 125,-38.5"/>
<text text-anchor="middle" x="172.5" y="-45.5" font-family="Helvetica,sans-Serif" font-size="10.00" fill="#000000">errorstack_push</text>
</a>
</g>
</g>
<!-- Node71&#45;&gt;Node83 -->
<g id="edge13" class="edge">
<title>Node71&#45;&gt;Node83</title>
<path fill="none" stroke="#191970" d="M45.701,-152.4259C56.4992,-133.4154 83.1864,-90.7008 117,-67 119.7104,-65.1002 122.6272,-63.3765 125.6541,-61.8149"/>
<polygon fill="#191970" stroke="#191970" points="127.3003,-64.9118 134.9697,-57.6021 124.4159,-58.5337 127.3003,-64.9118"/>
</g>
<!-- Node84 -->
<g id="node14" class="node">
<title>Node84</title>
<g id="a_node14"><a xlink:href="AST_8c.html#a3a1c70c232e669f02ef0a4e171ee6ab2" target="_top" xlink:title="Constructore for ast objects.">
<polygon fill="#ffffff" stroke="#000000" points="142,-.5 142,-19.5 203,-19.5 203,-.5 142,-.5"/>
<text text-anchor="middle" x="172.5" y="-7.5" font-family="Helvetica,sans-Serif" font-size="10.00" fill="#000000">AST_new</text>
</a>
</g>
</g>
<!-- Node71&#45;&gt;Node84 -->
<g id="edge14" class="edge">
<title>Node71&#45;&gt;Node84</title>
<path fill="none" stroke="#191970" d="M43.3815,-152.4028C51.1548,-128.1244 74.8615,-63.7309 117,-29 121.5816,-25.2238 126.9546,-22.1822 132.521,-19.7364"/>
<polygon fill="#191970" stroke="#191970" points="133.8543,-22.9741 141.9658,-16.1583 131.3744,-16.4281 133.8543,-22.9741"/>
</g>
<!-- Node73 -->
<g id="node3" class="node">
<title>Node73</title>
<g id="a_node3"><a xlink:href="parserutil_8c.html#a2d9e8c20025b7b883c4e87790685a6ad" target="_top" xlink:title="Proxy to parser_next.">
<polygon fill="#ffffff" stroke="#000000" points="264,-322.5 264,-341.5 358,-341.5 358,-322.5 264,-322.5"/>
<text text-anchor="middle" x="311" y="-329.5" font-family="Helvetica,sans-Serif" font-size="10.00" fill="#000000">parser_advance</text>
</a>
</g>
</g>
<!-- Node72&#45;&gt;Node73 -->
<g id="edge2" class="edge">
<title>Node72&#45;&gt;Node73</title>
<path fill="none" stroke="#191970" d="M215.5631,-332C227.5934,-332 240.8603,-332 253.5786,-332"/>
<polygon fill="#191970" stroke="#191970" points="253.6268,-335.5001 263.6267,-332 253.6267,-328.5001 253.6268,-335.5001"/>
</g>
<!-- Node74 -->
<g id="node4" class="node">
<title>Node74</title>
<g id="a_node4"><a xlink:href="parserutil_8c.html#ab25a97ff31329fe9461666bfe2dc6f2c" target="_top" xlink:title="Iterate the parser.">
<polygon fill="#ffffff" stroke="#000000" points="394,-322.5 394,-341.5 468,-341.5 468,-322.5 394,-322.5"/>
<text text-anchor="middle" x="431" y="-329.5" font-family="Helvetica,sans-Serif" font-size="10.00" fill="#000000">parser_next</text>
</a>
</g>
</g>
<!-- Node73&#45;&gt;Node74 -->
<g id="edge3" class="edge">
<title>Node73&#45;&gt;Node74</title>
<path fill="none" stroke="#191970" d="M358.0828,-332C366.4854,-332 375.2428,-332 383.6528,-332"/>
<polygon fill="#191970" stroke="#191970" points="383.6916,-335.5001 393.6916,-332 383.6916,-328.5001 383.6916,-335.5001"/>
</g>
<!-- Node78&#45;&gt;Node78 -->
<g id="edge8" class="edge">
<title>Node78&#45;&gt;Node78</title>
<path fill="none" stroke="#191970" d="M152.155,-171.7571C142.2574,-180.5653 149.0391,-190 172.5,-190 187.5297,-190 195.7142,-186.128 197.0535,-181.0292"/>
<polygon fill="#191970" stroke="#191970" points="200.1652,-179.4164 192.845,-171.7571 193.791,-182.3096 200.1652,-179.4164"/>
</g>
<!-- Node79 -->
<g id="node9" class="node">
<title>Node79</title>
<g id="a_node9"><a xlink:href="token_8h.html#a863ec10d282f1f7e0dbbbaae6cec4f15" target="_top" xlink:title="Destroys a token object.Also frees the token&#39;s value.">
<polygon fill="#ffffff" stroke="#000000" points="276.5,-152.5 276.5,-171.5 345.5,-171.5 345.5,-152.5 276.5,-152.5"/>
<text text-anchor="middle" x="311" y="-159.5" font-family="Helvetica,sans-Serif" font-size="10.00" fill="#000000">token_free</text>
</a>
</g>
</g>
<!-- Node78&#45;&gt;Node79 -->
<g id="edge9" class="edge">
<title>Node78&#45;&gt;Node79</title>
<path fill="none" stroke="#191970" d="M202.5524,-162C221.0647,-162 245.1494,-162 265.918,-162"/>
<polygon fill="#191970" stroke="#191970" points="266.1177,-165.5001 276.1177,-162 266.1176,-158.5001 266.1177,-165.5001"/>
</g>
<!-- Node81 -->
<g id="node11" class="node">
<title>Node81</title>
<g id="a_node11"><a xlink:href="error_8c.html#a88bbc44b859ab2f2b708bdde8e6394bf" target="_top" xlink:title="Pop and return the top element of the errorstack.">
<polygon fill="#ffffff" stroke="#000000" points="266.5,-114.5 266.5,-133.5 355.5,-133.5 355.5,-114.5 266.5,-114.5"/>
<text text-anchor="middle" x="311" y="-121.5" font-family="Helvetica,sans-Serif" font-size="10.00" fill="#000000">errorstack_pop</text>
</a>
</g>
</g>
<!-- Node80&#45;&gt;Node81 -->
<g id="edge11" class="edge">
<title>Node80&#45;&gt;Node81</title>
<path fill="none" stroke="#191970" d="M228.0352,-124C237.2213,-124 246.7428,-124 255.9177,-124"/>
<polygon fill="#191970" stroke="#191970" points="256.0928,-127.5001 266.0928,-124 256.0928,-120.5001 256.0928,-127.5001"/>
</g>
</g>
</svg>
