<?xml version="1.0" encoding="UTF-8" standalone="no"?>
<!DOCTYPE svg PUBLIC "-//W3C//DTD SVG 1.1//EN"
 "http://www.w3.org/Graphics/SVG/1.1/DTD/svg11.dtd">
<!-- Generated by graphviz version 2.40.1 (20161225.0304)
 -->
<!-- Title: PARSERFUNC Pages: 1 -->
<svg width="455pt" height="350pt"
 viewBox="0.00 0.00 455.00 350.00" xmlns="http://www.w3.org/2000/svg" xmlns:xlink="http://www.w3.org/1999/xlink">
<g id="graph0" class="graph" transform="scale(1 1) rotate(0) translate(4 346)">
<title>PARSERFUNC</title>
<polygon fill="#ffffff" stroke="transparent" points="-4,4 -4,-346 451,-346 451,4 -4,4"/>
<!-- Node55 -->
<g id="node1" class="node">
<title>Node55</title>
<g id="a_node1"><a xlink:title="Accepts an integer of any (supported) base.">
<polygon fill="#bfbfbf" stroke="#000000" points="0,-152.5 0,-171.5 86,-171.5 86,-152.5 0,-152.5"/>
<text text-anchor="middle" x="43" y="-159.5" font-family="Helvetica,sans-Serif" font-size="10.00" fill="#000000">PARSERFUNC</text>
</a>
</g>
</g>
<!-- Node56 -->
<g id="node2" class="node">
<title>Node56</title>
<g id="a_node2"><a xlink:href="parser_8h.html#a8c4c57eca60b2cec9a372a04abea456d" target="_top" xlink:title="Advances the parser as long as it can find whitespace.">
<polygon fill="#ffffff" stroke="#000000" points="131.5,-322.5 131.5,-341.5 211.5,-341.5 211.5,-322.5 131.5,-322.5"/>
<text text-anchor="middle" x="171.5" y="-329.5" font-family="Helvetica,sans-Serif" font-size="10.00" fill="#000000">parser_skipws</text>
</a>
</g>
</g>
<!-- Node55&#45;&gt;Node56 -->
<g id="edge1" class="edge">
<title>Node55&#45;&gt;Node56</title>
<path fill="none" stroke="#191970" d="M45.4438,-171.6182C52.6147,-197.9675 76.0455,-272.0696 122,-313 123.8946,-314.6875 125.9551,-316.2318 128.1237,-317.6443"/>
<polygon fill="#191970" stroke="#191970" points="126.4517,-320.7191 136.9021,-322.4625 129.8198,-314.5827 126.4517,-320.7191"/>
</g>
<!-- Node59 -->
<g id="node5" class="node">
<title>Node59</title>
<g id="a_node5"><a xlink:href="error_8c.html#a28e1cff59ef8560afa8ede4b201938c6" target="_top" xlink:title="Find the length of an errorstack.">
<polygon fill="#ffffff" stroke="#000000" points="125.5,-284.5 125.5,-303.5 217.5,-303.5 217.5,-284.5 125.5,-284.5"/>
<text text-anchor="middle" x="171.5" y="-291.5" font-family="Helvetica,sans-Serif" font-size="10.00" fill="#000000">errorstack_length</text>
</a>
</g>
</g>
<!-- Node55&#45;&gt;Node59 -->
<g id="edge4" class="edge">
<title>Node55&#45;&gt;Node59</title>
<path fill="none" stroke="#191970" d="M47.2728,-171.6229C57.2821,-193.1295 84.2854,-245.5125 122,-275 124.2775,-276.7807 126.7412,-278.4104 129.3111,-279.8994"/>
<polygon fill="#191970" stroke="#191970" points="127.8346,-283.0744 138.3417,-284.4347 130.9762,-276.819 127.8346,-283.0744"/>
</g>
<!-- Node60 -->
<g id="node6" class="node">
<title>Node60</title>
<g id="a_node6"><a xlink:href="parser_8h.html#aecf4b8bdaae9ca8435542900cf024f4e" target="_top" xlink:title="Copy a parser.">
<polygon fill="#ffffff" stroke="#000000" points="136.5,-246.5 136.5,-265.5 206.5,-265.5 206.5,-246.5 136.5,-246.5"/>
<text text-anchor="middle" x="171.5" y="-253.5" font-family="Helvetica,sans-Serif" font-size="10.00" fill="#000000">parser_copy</text>
</a>
</g>
</g>
<!-- Node55&#45;&gt;Node60 -->
<g id="edge5" class="edge">
<title>Node55&#45;&gt;Node60</title>
<path fill="none" stroke="#191970" d="M50.8174,-171.5453C64.0284,-187.1415 92.2527,-218.2269 122,-237 125.1016,-238.9574 128.4369,-240.7658 131.8579,-242.424"/>
<polygon fill="#191970" stroke="#191970" points="130.4502,-245.6284 141.0121,-246.4624 133.2755,-239.2239 130.4502,-245.6284"/>
</g>
<!-- Node61 -->
<g id="node7" class="node">
<title>Node61</title>
<g id="a_node7"><a xlink:href="parser_8h.html#ab62454c7986532e03ea36b14956b5ad1" target="_top" xlink:title="Simple parser destructor.">
<polygon fill="#ffffff" stroke="#000000" points="122,-208.5 122,-227.5 221,-227.5 221,-208.5 122,-208.5"/>
<text text-anchor="middle" x="171.5" y="-215.5" font-family="Helvetica,sans-Serif" font-size="10.00" fill="#000000">parser_free_simple</text>
</a>
</g>
</g>
<!-- Node55&#45;&gt;Node61 -->
<g id="edge6" class="edge">
<title>Node55&#45;&gt;Node61</title>
<path fill="none" stroke="#191970" d="M62.3048,-171.514C78.1932,-179.2295 101.3745,-190.2248 122,-199 126.5263,-200.9257 131.3198,-202.8754 136.0718,-204.7551"/>
<polygon fill="#191970" stroke="#191970" points="135.0797,-208.1245 145.6684,-208.485 137.6157,-201.6 135.0797,-208.1245"/>
</g>
<!-- Node62 -->
<g id="node8" class="node">
<title>Node62</title>
<g id="a_node8"><a xlink:href="AST_8c.html#a3ca8abc74574b984118c6364414ee5e4" target="_top" xlink:title="Destructor for ast objects.">
<polygon fill="#ffffff" stroke="#000000" points="142.5,-152.5 142.5,-171.5 200.5,-171.5 200.5,-152.5 142.5,-152.5"/>
<text text-anchor="middle" x="171.5" y="-159.5" font-family="Helvetica,sans-Serif" font-size="10.00" fill="#000000">AST_free</text>
</a>
</g>
</g>
<!-- Node55&#45;&gt;Node62 -->
<g id="edge7" class="edge">
<title>Node55&#45;&gt;Node62</title>
<path fill="none" stroke="#191970" d="M86.1461,-162C101.0485,-162 117.6549,-162 132.2299,-162"/>
<polygon fill="#191970" stroke="#191970" points="132.4305,-165.5001 142.4304,-162 132.4304,-158.5001 132.4305,-165.5001"/>
</g>
<!-- Node64 -->
<g id="node10" class="node">
<title>Node64</title>
<g id="a_node10"><a xlink:href="error_8c.html#ade2d9bb9a151b899f16f096d482a9f0e" target="_top" xlink:title="pop the errorstack until it has a desired length.">
<polygon fill="#ffffff" stroke="#000000" points="122,-114.5 122,-133.5 221,-133.5 221,-114.5 122,-114.5"/>
<text text-anchor="middle" x="171.5" y="-121.5" font-family="Helvetica,sans-Serif" font-size="10.00" fill="#000000">errorstack_popuntil</text>
</a>
</g>
</g>
<!-- Node55&#45;&gt;Node64 -->
<g id="edge10" class="edge">
<title>Node55&#45;&gt;Node64</title>
<path fill="none" stroke="#191970" d="M75.426,-152.411C91.7097,-147.5956 111.6421,-141.7012 129.122,-136.532"/>
<polygon fill="#191970" stroke="#191970" points="130.4875,-139.7781 139.0844,-133.5859 128.5024,-133.0655 130.4875,-139.7781"/>
</g>
<!-- Node66 -->
<g id="node12" class="node">
<title>Node66</title>
<g id="a_node12"><a xlink:href="parser_8h.html#a1f1841a636bfe529466c99e3db9999cd" target="_top" xlink:title="Restores a parser to another parser&#39;s position.">
<polygon fill="#ffffff" stroke="#000000" points="132,-76.5 132,-95.5 211,-95.5 211,-76.5 132,-76.5"/>
<text text-anchor="middle" x="171.5" y="-83.5" font-family="Helvetica,sans-Serif" font-size="10.00" fill="#000000">parser_restore</text>
</a>
</g>
</g>
<!-- Node55&#45;&gt;Node66 -->
<g id="edge12" class="edge">
<title>Node55&#45;&gt;Node66</title>
<path fill="none" stroke="#191970" d="M54.4121,-152.2993C69.2339,-140.056 96.2637,-118.9184 122,-105 125.6891,-103.0049 129.6331,-101.1181 133.6243,-99.3643"/>
<polygon fill="#191970" stroke="#191970" points="135.0172,-102.5758 142.9251,-95.5249 132.3462,-96.1054 135.0172,-102.5758"/>
</g>
<!-- Node67 -->
<g id="node13" class="node">
<title>Node67</title>
<g id="a_node13"><a xlink:href="error_8c.html#afe624477a33ab8814a9454f58a0bc1fa" target="_top" xlink:title="Construct a new error object out of parameters, and push it to the errorstack.">
<polygon fill="#ffffff" stroke="#000000" points="128.5,-38.5 128.5,-57.5 214.5,-57.5 214.5,-38.5 128.5,-38.5"/>
<text text-anchor="middle" x="171.5" y="-45.5" font-family="Helvetica,sans-Serif" font-size="10.00" fill="#000000">errorstack_push</text>
</a>
</g>
</g>
<!-- Node55&#45;&gt;Node67 -->
<g id="edge13" class="edge">
<title>Node55&#45;&gt;Node67</title>
<path fill="none" stroke="#191970" d="M48.7046,-152.2478C60.2477,-133.2979 88.1745,-91.2401 122,-67 124.5369,-65.182 127.2702,-63.5122 130.1032,-61.9834"/>
<polygon fill="#191970" stroke="#191970" points="131.8484,-65.029 139.3736,-57.571 128.84,-58.7084 131.8484,-65.029"/>
</g>
<!-- Node68 -->
<g id="node14" class="node">
<title>Node68</title>
<g id="a_node14"><a xlink:href="AST_8c.html#a8c2fa2cf1cd82b5d85d7297e1150980b" target="_top" xlink:title="Constructore for ast objects.">
<polygon fill="#ffffff" stroke="#000000" points="142,-.5 142,-19.5 201,-19.5 201,-.5 142,-.5"/>
<text text-anchor="middle" x="171.5" y="-7.5" font-family="Helvetica,sans-Serif" font-size="10.00" fill="#000000">AST_new</text>
</a>
</g>
</g>
<!-- Node55&#45;&gt;Node68 -->
<g id="edge14" class="edge">
<title>Node55&#45;&gt;Node68</title>
<path fill="none" stroke="#191970" d="M46.1459,-152.4938C54.5727,-128.429 79.9142,-64.4954 122,-29 125.2456,-26.2626 128.9286,-23.8949 132.786,-21.8524"/>
<polygon fill="#191970" stroke="#191970" points="134.3355,-24.9925 141.9793,-17.6561 131.4288,-18.6245 134.3355,-24.9925"/>
</g>
<!-- Node57 -->
<g id="node3" class="node">
<title>Node57</title>
<g id="a_node3"><a xlink:href="parserutil_8c.html#a2d9e8c20025b7b883c4e87790685a6ad" target="_top" xlink:title="Proxy to parser_next.">
<polygon fill="#ffffff" stroke="#000000" points="257,-322.5 257,-341.5 343,-341.5 343,-322.5 257,-322.5"/>
<text text-anchor="middle" x="300" y="-329.5" font-family="Helvetica,sans-Serif" font-size="10.00" fill="#000000">parser_advance</text>
</a>
</g>
</g>
<!-- Node56&#45;&gt;Node57 -->
<g id="edge2" class="edge">
<title>Node56&#45;&gt;Node57</title>
<path fill="none" stroke="#191970" d="M211.8056,-332C222.8496,-332 234.9949,-332 246.6477,-332"/>
<polygon fill="#191970" stroke="#191970" points="246.7211,-335.5001 256.7211,-332 246.721,-328.5001 246.7211,-335.5001"/>
</g>
<!-- Node58 -->
<g id="node4" class="node">
<title>Node58</title>
<g id="a_node4"><a xlink:href="parserutil_8c.html#ab25a97ff31329fe9461666bfe2dc6f2c" target="_top" xlink:title="Iterate the parser.">
<polygon fill="#ffffff" stroke="#000000" points="379,-322.5 379,-341.5 447,-341.5 447,-322.5 379,-322.5"/>
<text text-anchor="middle" x="413" y="-329.5" font-family="Helvetica,sans-Serif" font-size="10.00" fill="#000000">parser_next</text>
</a>
</g>
</g>
<!-- Node57&#45;&gt;Node58 -->
<g id="edge3" class="edge">
<title>Node57&#45;&gt;Node58</title>
<path fill="none" stroke="#191970" d="M343.0428,-332C351.4677,-332 360.3165,-332 368.7791,-332"/>
<polygon fill="#191970" stroke="#191970" points="368.8556,-335.5001 378.8556,-332 368.8555,-328.5001 368.8556,-335.5001"/>
</g>
<!-- Node62&#45;&gt;Node62 -->
<g id="edge8" class="edge">
<title>Node62&#45;&gt;Node62</title>
<path fill="none" stroke="#191970" d="M151.7715,-171.7571C142.1738,-180.5653 148.75,-190 171.5,-190 186.0742,-190 194.0107,-186.128 195.3094,-181.0292"/>
<polygon fill="#191970" stroke="#191970" points="198.4604,-179.4998 191.2285,-171.7571 192.0535,-182.3197 198.4604,-179.4998"/>
</g>
<!-- Node63 -->
<g id="node9" class="node">
<title>Node63</title>
<g id="a_node9"><a xlink:href="token_8h.html#a863ec10d282f1f7e0dbbbaae6cec4f15" target="_top" xlink:title=" ">
<polygon fill="#ffffff" stroke="#000000" points="269,-152.5 269,-171.5 331,-171.5 331,-152.5 269,-152.5"/>
<text text-anchor="middle" x="300" y="-159.5" font-family="Helvetica,sans-Serif" font-size="10.00" fill="#000000">token_free</text>
</a>
</g>
</g>
<!-- Node62&#45;&gt;Node63 -->
<g id="edge9" class="edge">
<title>Node62&#45;&gt;Node63</title>
<path fill="none" stroke="#191970" d="M200.6586,-162C217.7778,-162 239.6914,-162 258.5793,-162"/>
<polygon fill="#191970" stroke="#191970" points="258.7118,-165.5001 268.7117,-162 258.7117,-158.5001 258.7118,-165.5001"/>
</g>
<!-- Node65 -->
<g id="node11" class="node">
<title>Node65</title>
<g id="a_node11"><a xlink:href="error_8c.html#afbf47f2a1edae9c81dcaced1f61515b6" target="_top" xlink:title="Pop and return the top element of the errorstack.">
<polygon fill="#ffffff" stroke="#000000" points="259.5,-114.5 259.5,-133.5 340.5,-133.5 340.5,-114.5 259.5,-114.5"/>
<text text-anchor="middle" x="300" y="-121.5" font-family="Helvetica,sans-Serif" font-size="10.00" fill="#000000">errorstack_pop</text>
</a>
</g>
</g>
<!-- Node64&#45;&gt;Node65 -->
<g id="edge11" class="edge">
<title>Node64&#45;&gt;Node65</title>
<path fill="none" stroke="#191970" d="M221.1815,-124C230.3152,-124 239.8636,-124 249.0345,-124"/>
<polygon fill="#191970" stroke="#191970" points="249.186,-127.5001 259.1859,-124 249.1859,-120.5001 249.186,-127.5001"/>
</g>
</g>
</svg>
