<?xml version="1.0" encoding="UTF-8" standalone="no"?>
<!DOCTYPE svg PUBLIC "-//W3C//DTD SVG 1.1//EN"
 "http://www.w3.org/Graphics/SVG/1.1/DTD/svg11.dtd">
<!-- Generated by graphviz version 2.40.1 (20161225.0304)
 -->
<!-- Title: PARSERFUNC Pages: 1 -->
<!--zoomable 364 -->
<svg id="main" version="1.1" xmlns="http://www.w3.org/2000/svg" xmlns:xlink="http://www.w3.org/1999/xlink" xml:space="preserve" onload="init(evt)">
<style type="text/css"><![CDATA[
.edge:hover path { stroke: red; }
.edge:hover polygon { stroke: red; fill: red; }
]]></style>
<script type="text/javascript"><![CDATA[
var edges = document.getElementsByTagName('g');
if (edges && edges.length) {
  for (var i=0;i<edges.length;i++) {
    if (edges[i].id.substr(0,4)=='edge') {
      edges[i].setAttribute('class','edge');
    }
  }
}
]]></script>
        <defs>
                <circle id="rim" cx="0" cy="0" r="7"/>
                <circle id="rim2" cx="0" cy="0" r="3.5"/>
                <g id="zoomPlus">
                        <use xlink:href="#rim" fill="#404040">
                                <set attributeName="fill" to="#808080" begin="zoomplus.mouseover" end="zoomplus.mouseout"/>
                        </use>
                        <path d="M-4,0h8M0,-4v8" fill="none" stroke="white" stroke-width="1.5" pointer-events="none"/>
                </g>
                <g id="zoomMin">
                        <use xlink:href="#rim" fill="#404040">
                                <set attributeName="fill" to="#808080" begin="zoomminus.mouseover" end="zoomminus.mouseout"/>
                        </use>
                        <path d="M-4,0h8" fill="none" stroke="white" stroke-width="1.5" pointer-events="none"/>
                </g>
                <g id="dirArrow">
                        <path fill="none" stroke="white" stroke-width="1.5" d="M0,-3.0v7 M-2.5,-0.5L0,-3.0L2.5,-0.5"/>
                </g>
               <g id="resetDef">
                       <use xlink:href="#rim2" fill="#404040">
                               <set attributeName="fill" to="#808080" begin="reset.mouseover" end="reset.mouseout"/>
                       </use>
               </g>
        </defs>

<script type="text/javascript">
var viewWidth = 848;
var viewHeight = 364;
var sectionId = 'dynsection-2';
</script>
<script xlink:href="svgpan.js"/>
<svg id="graph" class="graph">
<g id="viewport">
<title>PARSERFUNC</title>
<polygon fill="#ffffff" stroke="transparent" points="-4,4 -4,-359.5568 844,-359.5568 844,4 -4,4"/>
<!-- Node18 -->
<g id="node1" class="node">
<title>Node18</title>
<g id="a_node1"><a xlink:title="Accepts a hexadecimal constant.">
<polygon fill="#bfbfbf" stroke="#000000" points="0,-114.5 0,-133.5 81,-133.5 81,-114.5 0,-114.5"/>
<text text-anchor="middle" x="40.5" y="-121.5" font-family="Helvetica,sans-Serif" font-size="10.00" fill="#000000">PARSERFUNC</text>
</a>
</g>
</g>
<!-- Node19 -->
<g id="node2" class="node">
<title>Node19</title>
<g id="a_node2"><a xlink:href="parser_8h.html#a53064666f3b6f3c4e05e1759feee8a00" target="_top" xlink:title="Crossover between acceptstring and expectchar.">
<polygon fill="#ffffff" stroke="#000000" points="129,-228.5 129,-247.5 242,-247.5 242,-228.5 129,-228.5"/>
<text text-anchor="middle" x="185.5" y="-235.5" font-family="Helvetica,sans-Serif" font-size="10.00" fill="#000000">parser_expectstring</text>
</a>
</g>
</g>
<!-- Node18&#45;&gt;Node19 -->
<g id="edge1" class="edge">
<title>Node18&#45;&gt;Node19</title>
<path fill="none" stroke="#191970" d="M52.8626,-133.7196C77.796,-153.3223 134.3333,-197.7724 164.9236,-221.8227"/>
<polygon fill="#191970" stroke="#191970" points="163.1441,-224.8758 173.1687,-228.305 167.4706,-219.3729 163.1441,-224.8758"/>
</g>
<!-- Node25 -->
<g id="node8" class="node">
<title>Node25</title>
<g id="a_node8"><a xlink:href="error_8c.html#ae07365063509d8944da638087336597b" target="_top" xlink:title="Construct a new error object out of parameters, and push it to the errorstack.">
<polygon fill="#ffffff" stroke="#000000" points="470.5,-247.5 470.5,-266.5 565.5,-266.5 565.5,-247.5 470.5,-247.5"/>
<text text-anchor="middle" x="518" y="-254.5" font-family="Helvetica,sans-Serif" font-size="10.00" fill="#000000">errorstack_push</text>
</a>
</g>
</g>
<!-- Node18&#45;&gt;Node25 -->
<g id="edge11" class="edge">
<title>Node18&#45;&gt;Node25</title>
<path fill="none" stroke="#191970" d="M81.1183,-125.4155C162.6191,-128.722 343.1497,-138.5268 400,-162 442.6519,-179.6107 482.267,-217.7057 502.9734,-239.9344"/>
<polygon fill="#191970" stroke="#191970" points="500.3959,-242.3023 509.7171,-247.3387 505.5711,-237.5888 500.3959,-242.3023"/>
</g>
<!-- Node28 -->
<g id="node11" class="node">
<title>Node28</title>
<g id="a_node11"><a xlink:href="AST_8c.html#a3a1c70c232e669f02ef0a4e171ee6ab2" target="_top" xlink:title="Constructore for ast objects.">
<polygon fill="#ffffff" stroke="#000000" points="155,-95.5 155,-114.5 216,-114.5 216,-95.5 155,-95.5"/>
<text text-anchor="middle" x="185.5" y="-102.5" font-family="Helvetica,sans-Serif" font-size="10.00" fill="#000000">AST_new</text>
</a>
</g>
</g>
<!-- Node18&#45;&gt;Node28 -->
<g id="edge12" class="edge">
<title>Node18&#45;&gt;Node28</title>
<path fill="none" stroke="#191970" d="M81.2765,-118.6569C101.1064,-116.0585 124.8804,-112.9433 144.7119,-110.3446"/>
<polygon fill="#191970" stroke="#191970" points="145.2208,-113.808 154.6813,-109.0383 144.3113,-106.8673 145.2208,-113.808"/>
</g>
<!-- Node29 -->
<g id="node12" class="node">
<title>Node29</title>
<g id="a_node12"><a xlink:href="parser_8h.html#a499e49a3ad7a6fde77c49792f1a0774a" target="_top" xlink:title="Searches for any of the characters given in the parser.">
<polygon fill="#ffffff" stroke="#000000" points="123.5,-313.5 123.5,-332.5 247.5,-332.5 247.5,-313.5 123.5,-313.5"/>
<text text-anchor="middle" x="185.5" y="-320.5" font-family="Helvetica,sans-Serif" font-size="10.00" fill="#000000">parser_acceptanychar</text>
</a>
</g>
</g>
<!-- Node18&#45;&gt;Node29 -->
<g id="edge13" class="edge">
<title>Node18&#45;&gt;Node29</title>
<path fill="none" stroke="#191970" d="M44.855,-133.5959C55.3984,-156.3002 83.8831,-214.5909 117,-257 131.529,-275.6057 151.1901,-294.0113 165.722,-306.6393"/>
<polygon fill="#191970" stroke="#191970" points="163.7279,-309.5386 173.6079,-313.3646 168.2703,-304.2125 163.7279,-309.5386"/>
</g>
<!-- Node30 -->
<g id="node13" class="node">
<title>Node30</title>
<g id="a_node13"><a xlink:href="token_8h.html#a5f63b7723640416a125433badc7d6563" target="_top" xlink:title="Constructor for token objects.">
<polygon fill="#ffffff" stroke="#000000" points="150.5,-57.5 150.5,-76.5 220.5,-76.5 220.5,-57.5 150.5,-57.5"/>
<text text-anchor="middle" x="185.5" y="-64.5" font-family="Helvetica,sans-Serif" font-size="10.00" fill="#000000">token_new</text>
</a>
</g>
</g>
<!-- Node18&#45;&gt;Node30 -->
<g id="edge15" class="edge">
<title>Node18&#45;&gt;Node30</title>
<path fill="none" stroke="#191970" d="M57.3967,-114.437C72.625,-106.104 95.812,-94.1158 117,-86 124.4551,-83.1444 132.5164,-80.5188 140.4014,-78.1893"/>
<polygon fill="#191970" stroke="#191970" points="141.5694,-81.4962 150.236,-75.4019 139.6605,-74.7614 141.5694,-81.4962"/>
</g>
<!-- Node31 -->
<g id="node14" class="node">
<title>Node31</title>
<g id="a_node14"><a xlink:href="helios__integer_8c.html#af677316afd6536844aeb027f14c198cf" target="_top" xlink:title="Create a helios_integer object from a c integer type.">
<polygon fill="#ffffff" stroke="#000000" points="117,-19.5 117,-38.5 254,-38.5 254,-19.5 117,-19.5"/>
<text text-anchor="middle" x="185.5" y="-26.5" font-family="Helvetica,sans-Serif" font-size="10.00" fill="#000000">helios_integer_from_cint</text>
</a>
</g>
</g>
<!-- Node18&#45;&gt;Node31 -->
<g id="edge16" class="edge">
<title>Node18&#45;&gt;Node31</title>
<path fill="none" stroke="#191970" d="M47.5795,-114.2458C59.8632,-98.0332 86.7297,-65.5876 117,-48 120.7215,-45.8377 124.7003,-43.912 128.7972,-42.1985"/>
<polygon fill="#191970" stroke="#191970" points="130.3615,-45.3505 138.5057,-38.5739 127.9131,-38.7926 130.3615,-45.3505"/>
</g>
<!-- Node20 -->
<g id="node3" class="node">
<title>Node20</title>
<g id="a_node3"><a xlink:href="parserutil_8c.html#aecf4b8bdaae9ca8435542900cf024f4e" target="_top" xlink:title="Copy a parser.">
<polygon fill="#ffffff" stroke="#000000" points="307,-323.5 307,-342.5 383,-342.5 383,-323.5 307,-323.5"/>
<text text-anchor="middle" x="345" y="-330.5" font-family="Helvetica,sans-Serif" font-size="10.00" fill="#000000">parser_copy</text>
</a>
</g>
</g>
<!-- Node19&#45;&gt;Node20 -->
<g id="edge2" class="edge">
<title>Node19&#45;&gt;Node20</title>
<path fill="none" stroke="#191970" d="M196.3684,-247.6118C214.6027,-263.3287 253.0035,-294.7059 290,-314 293.9874,-316.0795 298.2512,-318.0103 302.5746,-319.7812"/>
<polygon fill="#191970" stroke="#191970" points="301.4598,-323.102 312.0504,-323.3985 303.9562,-316.5622 301.4598,-323.102"/>
</g>
<!-- Node21 -->
<g id="node4" class="node">
<title>Node21</title>
<g id="a_node4"><a xlink:href="parserutil_8c.html#ad7f3825521eb3e5bd3af734357caa4d6" target="_top" xlink:title="If the parser can accept the given character, accept it, else push an error on the parsers errorstack...">
<polygon fill="#ffffff" stroke="#000000" points="291.5,-285.5 291.5,-304.5 398.5,-304.5 398.5,-285.5 291.5,-285.5"/>
<text text-anchor="middle" x="345" y="-292.5" font-family="Helvetica,sans-Serif" font-size="10.00" fill="#000000">parser_expectchar</text>
</a>
</g>
</g>
<!-- Node19&#45;&gt;Node21 -->
<g id="edge3" class="edge">
<title>Node19&#45;&gt;Node21</title>
<path fill="none" stroke="#191970" d="M212.1967,-247.5405C238.6492,-256.9938 279.3537,-271.5402 308.7264,-282.037"/>
<polygon fill="#191970" stroke="#191970" points="307.6216,-285.3589 318.2162,-285.4284 309.9773,-278.7672 307.6216,-285.3589"/>
</g>
<!-- Node19&#45;&gt;Node25 -->
<g id="edge8" class="edge">
<title>Node19&#45;&gt;Node25</title>
<path fill="none" stroke="#191970" d="M242.281,-241.2446C303.0352,-244.7163 398.9002,-250.1943 460.0865,-253.6907"/>
<polygon fill="#191970" stroke="#191970" points="460.1605,-257.2005 470.3439,-254.2768 460.5599,-250.2119 460.1605,-257.2005"/>
</g>
<!-- Node26 -->
<g id="node9" class="node">
<title>Node26</title>
<g id="a_node9"><a xlink:href="parserutil_8c.html#a1f1841a636bfe529466c99e3db9999cd" target="_top" xlink:title="Restores a parser to another parser&#39;s position.">
<polygon fill="#ffffff" stroke="#000000" points="301.5,-209.5 301.5,-228.5 388.5,-228.5 388.5,-209.5 301.5,-209.5"/>
<text text-anchor="middle" x="345" y="-216.5" font-family="Helvetica,sans-Serif" font-size="10.00" fill="#000000">parser_restore</text>
</a>
</g>
</g>
<!-- Node19&#45;&gt;Node26 -->
<g id="edge9" class="edge">
<title>Node19&#45;&gt;Node26</title>
<path fill="none" stroke="#191970" d="M242.1828,-231.2478C258.1218,-229.3491 275.4058,-227.2902 291.1729,-225.412"/>
<polygon fill="#191970" stroke="#191970" points="291.77,-228.8657 301.2858,-224.2073 290.9419,-221.9149 291.77,-228.8657"/>
</g>
<!-- Node27 -->
<g id="node10" class="node">
<title>Node27</title>
<g id="a_node10"><a xlink:href="parserutil_8c.html#ab62454c7986532e03ea36b14956b5ad1" target="_top" xlink:title="Simple parser destructor.">
<polygon fill="#ffffff" stroke="#000000" points="290,-171.5 290,-190.5 400,-190.5 400,-171.5 290,-171.5"/>
<text text-anchor="middle" x="345" y="-178.5" font-family="Helvetica,sans-Serif" font-size="10.00" fill="#000000">parser_free_simple</text>
</a>
</g>
</g>
<!-- Node19&#45;&gt;Node27 -->
<g id="edge10" class="edge">
<title>Node19&#45;&gt;Node27</title>
<path fill="none" stroke="#191970" d="M211.6549,-228.3565C232.767,-220.6043 263.2533,-209.4822 290,-200 295.6118,-198.0105 301.5549,-195.93 307.3792,-193.9058"/>
<polygon fill="#191970" stroke="#191970" points="308.685,-197.1577 316.9896,-190.5786 306.3948,-190.5429 308.685,-197.1577"/>
</g>
<!-- Node22 -->
<g id="node5" class="node">
<title>Node22</title>
<g id="a_node5"><a xlink:href="parserutil_8c.html#a1a00af051004cb18edac760f39982eea" target="_top" xlink:title="Searches for the given character, advances the parser if it found it.">
<polygon fill="#ffffff" stroke="#000000" points="465,-323.5 465,-342.5 571,-342.5 571,-323.5 465,-323.5"/>
<text text-anchor="middle" x="518" y="-330.5" font-family="Helvetica,sans-Serif" font-size="10.00" fill="#000000">parser_acceptchar</text>
</a>
</g>
</g>
<!-- Node21&#45;&gt;Node22 -->
<g id="edge4" class="edge">
<title>Node21&#45;&gt;Node22</title>
<path fill="none" stroke="#191970" d="M388.6552,-304.589C411.7929,-309.6713 440.4024,-315.9554 464.8268,-321.3203"/>
<polygon fill="#191970" stroke="#191970" points="464.1406,-324.753 474.6587,-323.4799 465.6425,-317.916 464.1406,-324.753"/>
</g>
<!-- Node21&#45;&gt;Node25 -->
<g id="edge7" class="edge">
<title>Node21&#45;&gt;Node25</title>
<path fill="none" stroke="#191970" d="M388.6552,-285.411C411.7929,-280.3287 440.4024,-274.0446 464.8268,-268.6797"/>
<polygon fill="#191970" stroke="#191970" points="465.6425,-272.084 474.6587,-266.5201 464.1406,-265.247 465.6425,-272.084"/>
</g>
<!-- Node23 -->
<g id="node6" class="node">
<title>Node23</title>
<g id="a_node6"><a xlink:href="parserutil_8c.html#a2d9e8c20025b7b883c4e87790685a6ad" target="_top" xlink:title="Proxy to parser_next.">
<polygon fill="#ffffff" stroke="#000000" points="636,-323.5 636,-342.5 730,-342.5 730,-323.5 636,-323.5"/>
<text text-anchor="middle" x="683" y="-330.5" font-family="Helvetica,sans-Serif" font-size="10.00" fill="#000000">parser_advance</text>
</a>
</g>
</g>
<!-- Node22&#45;&gt;Node23 -->
<g id="edge5" class="edge">
<title>Node22&#45;&gt;Node23</title>
<path fill="none" stroke="#191970" d="M571.1153,-333C588.5196,-333 607.9308,-333 625.6348,-333"/>
<polygon fill="#191970" stroke="#191970" points="625.8333,-336.5001 635.8332,-333 625.8332,-329.5001 625.8333,-336.5001"/>
</g>
<!-- Node24 -->
<g id="node7" class="node">
<title>Node24</title>
<g id="a_node7"><a xlink:href="parserutil_8c.html#ab25a97ff31329fe9461666bfe2dc6f2c" target="_top" xlink:title="Iterate the parser.">
<polygon fill="#ffffff" stroke="#000000" points="766,-323.5 766,-342.5 840,-342.5 840,-323.5 766,-323.5"/>
<text text-anchor="middle" x="803" y="-330.5" font-family="Helvetica,sans-Serif" font-size="10.00" fill="#000000">parser_next</text>
</a>
</g>
</g>
<!-- Node23&#45;&gt;Node24 -->
<g id="edge6" class="edge">
<title>Node23&#45;&gt;Node24</title>
<path fill="none" stroke="#191970" d="M730.0828,-333C738.4854,-333 747.2428,-333 755.6528,-333"/>
<polygon fill="#191970" stroke="#191970" points="755.6916,-336.5001 765.6916,-333 755.6916,-329.5001 755.6916,-336.5001"/>
</g>
<!-- Node29&#45;&gt;Node22 -->
<g id="edge14" class="edge">
<title>Node29&#45;&gt;Node22</title>
<path fill="none" stroke="#191970" d="M212.145,-332.5506C233.0165,-339.5017 262.9491,-348.3161 290,-352 348.7269,-359.9976 416.4537,-352.217 462.7371,-344.3345"/>
<polygon fill="#191970" stroke="#191970" points="463.6165,-347.7335 472.8572,-342.551 462.4015,-340.8398 463.6165,-347.7335"/>
</g>
<!-- Node32 -->
<g id="node15" class="node">
<title>Node32</title>
<g id="a_node15"><a xlink:href="helios__integer_8c.html#a50a26b1e9578164839f3a5bb17e04051" target="_top" xlink:title="Constructor of a helios_integer object.">
<polygon fill="#ffffff" stroke="#000000" points="291.5,-19.5 291.5,-38.5 398.5,-38.5 398.5,-19.5 291.5,-19.5"/>
<text text-anchor="middle" x="345" y="-26.5" font-family="Helvetica,sans-Serif" font-size="10.00" fill="#000000">helios_integer_init</text>
</a>
</g>
</g>
<!-- Node31&#45;&gt;Node32 -->
<g id="edge17" class="edge">
<title>Node31&#45;&gt;Node32</title>
<path fill="none" stroke="#191970" d="M254.068,-29C263.1473,-29 272.4238,-29 281.4142,-29"/>
<polygon fill="#191970" stroke="#191970" points="281.4174,-32.5001 291.4173,-29 281.4173,-25.5001 281.4174,-32.5001"/>
</g>
<!-- Node33 -->
<g id="node16" class="node">
<title>Node33</title>
<g id="a_node16"><a xlink:href="helios__memory_8h.html#af87f0050f8e236d0945592fa4e54dc94" target="_top" xlink:title="Allocates a new helios object (and performs all the GC steps associated with that action).">
<polygon fill="#ffffff" stroke="#000000" points="455.5,-38.5 455.5,-57.5 580.5,-57.5 580.5,-38.5 455.5,-38.5"/>
<text text-anchor="middle" x="518" y="-45.5" font-family="Helvetica,sans-Serif" font-size="10.00" fill="#000000">helios_allocate_object</text>
</a>
</g>
</g>
<!-- Node32&#45;&gt;Node33 -->
<g id="edge18" class="edge">
<title>Node32&#45;&gt;Node33</title>
<path fill="none" stroke="#191970" d="M398.79,-34.9076C413.5171,-36.525 429.7279,-38.3054 445.3232,-40.0182"/>
<polygon fill="#191970" stroke="#191970" points="445.1385,-43.5188 455.4609,-41.1315 445.9028,-36.5607 445.1385,-43.5188"/>
</g>
<!-- Node34 -->
<g id="node17" class="node">
<title>Node34</title>
<g id="a_node17"><a xlink:href="helios__memory_8h.html#ab14fb1c046aae61ab06eda8eeaf2cd85" target="_top" xlink:title=" ">
<polygon fill="#ffffff" stroke="#000000" points="436,-.5 436,-19.5 600,-19.5 600,-.5 436,-.5"/>
<text text-anchor="middle" x="518" y="-7.5" font-family="Helvetica,sans-Serif" font-size="10.00" fill="#000000">helios_set_garbagecollectable</text>
</a>
</g>
</g>
<!-- Node32&#45;&gt;Node34 -->
<g id="edge19" class="edge">
<title>Node32&#45;&gt;Node34</title>
<path fill="none" stroke="#191970" d="M398.79,-23.0924C407.4581,-22.1404 416.6402,-21.132 425.9083,-20.1141"/>
<polygon fill="#191970" stroke="#191970" points="426.4205,-23.579 435.9786,-19.0081 425.6562,-16.6208 426.4205,-23.579"/>
</g>
</g>
</svg>
        <g id="navigator" transform="translate(0 0)" fill="#404254">
                <rect fill="#f2f5e9" fill-opacity="0.5" stroke="#606060" stroke-width=".5" x="0" y="0" width="60" height="60"/>
                <use id="zoomplus" xlink:href="#zoomPlus" x="17" y="9" onmousedown="handleZoom(evt,'in')"/>
                <use id="zoomminus" xlink:href="#zoomMin" x="42" y="9" onmousedown="handleZoom(evt,'out')"/>
                <use id="reset" xlink:href="#resetDef" x="30" y="36" onmousedown="handleReset()"/>
                <g id="arrowUp" xlink:href="#dirArrow" transform="translate(30 24)" onmousedown="handlePan(0,-1)">
                  <use xlink:href="#rim" fill="#404040">
                        <set attributeName="fill" to="#808080" begin="arrowUp.mouseover" end="arrowUp.mouseout"/>
                  </use>
                  <path fill="none" stroke="white" stroke-width="1.5" d="M0,-3.0v7 M-2.5,-0.5L0,-3.0L2.5,-0.5"/>
                </g>
                <g id="arrowRight" xlink:href="#dirArrow" transform="rotate(90) translate(36 -43)" onmousedown="handlePan(1,0)">
                  <use xlink:href="#rim" fill="#404040">
                        <set attributeName="fill" to="#808080" begin="arrowRight.mouseover" end="arrowRight.mouseout"/>
                  </use>
                  <path fill="none" stroke="white" stroke-width="1.5" d="M0,-3.0v7 M-2.5,-0.5L0,-3.0L2.5,-0.5"/>
                </g>
                <g id="arrowDown" xlink:href="#dirArrow" transform="rotate(180) translate(-30 -48)" onmousedown="handlePan(0,1)">
                  <use xlink:href="#rim" fill="#404040">
                        <set attributeName="fill" to="#808080" begin="arrowDown.mouseover" end="arrowDown.mouseout"/>
                  </use>
                  <path fill="none" stroke="white" stroke-width="1.5" d="M0,-3.0v7 M-2.5,-0.5L0,-3.0L2.5,-0.5"/>
                </g>
                <g id="arrowLeft" xlink:href="#dirArrow" transform="rotate(270) translate(-36 17)" onmousedown="handlePan(-1,0)">
                  <use xlink:href="#rim" fill="#404040">
                        <set attributeName="fill" to="#808080" begin="arrowLeft.mouseover" end="arrowLeft.mouseout"/>
                  </use>
                  <path fill="none" stroke="white" stroke-width="1.5" d="M0,-3.0v7 M-2.5,-0.5L0,-3.0L2.5,-0.5"/>
                </g>
        </g>
        <svg viewBox="0 0 15 15" width="100%" height="30px" preserveAspectRatio="xMaxYMin meet">
         <g id="arrow_out" transform="scale(0.3 0.3)">
          <a xlink:href="integers_8c_a875633d10b7800ff77a5e0ae26cc12a3_cgraph_org.svg" target="_base">
           <rect id="button" ry="5" rx="5" y="6" x="6" height="38" width="38"
                fill="#f2f5e9" fill-opacity="0.5" stroke="#606060" stroke-width="1.0"/>
           <path id="arrow"
             d="M 11.500037,31.436501 C 11.940474,20.09759 22.043105,11.32322 32.158766,21.979434 L 37.068811,17.246167 C 37.068811,17.246167 37.088388,32 37.088388,32 L 22.160133,31.978069 C 22.160133,31.978069 26.997745,27.140456 26.997745,27.140456 C 18.528582,18.264221 13.291696,25.230495 11.500037,31.436501 z"
             style="fill:#404040;"/>
          </a>
         </g>
        </svg>
</svg>
