<?xml version="1.0" encoding="UTF-8" standalone="no"?>
<!DOCTYPE svg PUBLIC "-//W3C//DTD SVG 1.1//EN"
 "http://www.w3.org/Graphics/SVG/1.1/DTD/svg11.dtd">
<!-- Generated by graphviz version 2.40.1 (20161225.0304)
 -->
<!-- Title: main Pages: 1 -->
<!--zoomable 294 -->
<svg id="main" version="1.1" xmlns="http://www.w3.org/2000/svg" xmlns:xlink="http://www.w3.org/1999/xlink" xml:space="preserve" onload="init(evt)">
<style type="text/css"><![CDATA[
.edge:hover path { stroke: red; }
.edge:hover polygon { stroke: red; fill: red; }
]]></style>
<script type="text/javascript"><![CDATA[
var edges = document.getElementsByTagName('g');
if (edges && edges.length) {
  for (var i=0;i<edges.length;i++) {
    if (edges[i].id.substr(0,4)=='edge') {
      edges[i].setAttribute('class','edge');
    }
  }
}
]]></script>
        <defs>
                <circle id="rim" cx="0" cy="0" r="7"/>
                <circle id="rim2" cx="0" cy="0" r="3.5"/>
                <g id="zoomPlus">
                        <use xlink:href="#rim" fill="#404040">
                                <set attributeName="fill" to="#808080" begin="zoomplus.mouseover" end="zoomplus.mouseout"/>
                        </use>
                        <path d="M-4,0h8M0,-4v8" fill="none" stroke="white" stroke-width="1.5" pointer-events="none"/>
                </g>
                <g id="zoomMin">
                        <use xlink:href="#rim" fill="#404040">
                                <set attributeName="fill" to="#808080" begin="zoomminus.mouseover" end="zoomminus.mouseout"/>
                        </use>
                        <path d="M-4,0h8" fill="none" stroke="white" stroke-width="1.5" pointer-events="none"/>
                </g>
                <g id="dirArrow">
                        <path fill="none" stroke="white" stroke-width="1.5" d="M0,-3.0v7 M-2.5,-0.5L0,-3.0L2.5,-0.5"/>
                </g>
               <g id="resetDef">
                       <use xlink:href="#rim2" fill="#404040">
                               <set attributeName="fill" to="#808080" begin="reset.mouseover" end="reset.mouseout"/>
                       </use>
               </g>
        </defs>

<script type="text/javascript">
var viewWidth = 539;
var viewHeight = 294;
var sectionId = 'dynsection-1';
</script>
<script xlink:href="svgpan.js"/>
<svg id="graph" class="graph">
<g id="viewport">
<title>main</title>
<polygon fill="#ffffff" stroke="transparent" points="-4,4 -4,-290 535,-290 535,4 -4,4"/>
<!-- Node0 -->
<g id="node1" class="node">
<title>Node0</title>
<g id="a_node1"><a xlink:title=" ">
<polygon fill="#bfbfbf" stroke="#000000" points="0,-109.5 0,-128.5 38,-128.5 38,-109.5 0,-109.5"/>
<text text-anchor="middle" x="19" y="-116.5" font-family="Helvetica,sans-Serif" font-size="10.00" fill="#000000">main</text>
</a>
</g>
</g>
<!-- Node1 -->
<g id="node2" class="node">
<title>Node1</title>
<g id="a_node2"><a xlink:href="files_8c.html#ad9909e16f65d8f14412653a8674df0d9" target="_top" xlink:title=" ">
<polygon fill="#ffffff" stroke="#000000" points="83,-171.5 83,-190.5 163,-190.5 163,-171.5 83,-171.5"/>
<text text-anchor="middle" x="123" y="-178.5" font-family="Helvetica,sans-Serif" font-size="10.00" fill="#000000">readfiletostring</text>
</a>
</g>
</g>
<!-- Node0&#45;&gt;Node1 -->
<g id="edge1" class="edge">
<title>Node0&#45;&gt;Node1</title>
<path fill="none" stroke="#191970" d="M29.2892,-128.5636C39.87,-138.0175 57.1392,-152.4192 74,-162 77.4272,-163.9475 81.0932,-165.7787 84.8198,-167.4776"/>
<polygon fill="#191970" stroke="#191970" points="83.5337,-170.7339 94.1065,-171.4184 86.2683,-164.2901 83.5337,-170.7339"/>
</g>
<!-- Node2 -->
<g id="node3" class="node">
<title>Node2</title>
<g id="a_node3"><a xlink:href="parser_8h.html#a8d29751ff64610cbe0fc10c7c25306af" target="_top" xlink:title="Parser Entrypoint.">
<polygon fill="#ffffff" stroke="#000000" points="74,-133.5 74,-152.5 172,-152.5 172,-133.5 74,-133.5"/>
<text text-anchor="middle" x="123" y="-140.5" font-family="Helvetica,sans-Serif" font-size="10.00" fill="#000000">parser_parseString</text>
</a>
</g>
</g>
<!-- Node0&#45;&gt;Node2 -->
<g id="edge2" class="edge">
<title>Node0&#45;&gt;Node2</title>
<path fill="none" stroke="#191970" d="M38.0752,-123.402C47.6043,-125.601 59.6393,-128.3783 71.6296,-131.1453"/>
<polygon fill="#191970" stroke="#191970" points="71.104,-134.6159 81.635,-133.4542 72.6781,-127.7952 71.104,-134.6159"/>
</g>
<!-- Node15 -->
<g id="node16" class="node">
<title>Node15</title>
<g id="a_node16"><a xlink:href="AST_8c.html#a37701c3c8ade5609738bfa726e0320cb" target="_top" xlink:title="Print an ast object.">
<polygon fill="#ffffff" stroke="#000000" points="93,-90.5 93,-109.5 153,-109.5 153,-90.5 93,-90.5"/>
<text text-anchor="middle" x="123" y="-97.5" font-family="Helvetica,sans-Serif" font-size="10.00" fill="#000000">AST_print</text>
</a>
</g>
</g>
<!-- Node0&#45;&gt;Node15 -->
<g id="edge15" class="edge">
<title>Node0&#45;&gt;Node15</title>
<path fill="none" stroke="#191970" d="M38.0752,-115.5151C50.463,-113.252 67.0858,-110.2151 82.34,-107.4283"/>
<polygon fill="#191970" stroke="#191970" points="83.4049,-110.7917 92.6131,-105.5515 82.1469,-103.9057 83.4049,-110.7917"/>
</g>
<!-- Node18 -->
<g id="node19" class="node">
<title>Node18</title>
<g id="a_node19"><a xlink:href="AST_8c.html#a3ca8abc74574b984118c6364414ee5e4" target="_top" xlink:title="Destructor for ast objects.">
<polygon fill="#ffffff" stroke="#000000" points="94,-24.5 94,-43.5 152,-43.5 152,-24.5 94,-24.5"/>
<text text-anchor="middle" x="123" y="-31.5" font-family="Helvetica,sans-Serif" font-size="10.00" fill="#000000">AST_free</text>
</a>
</g>
</g>
<!-- Node0&#45;&gt;Node18 -->
<g id="edge18" class="edge">
<title>Node0&#45;&gt;Node18</title>
<path fill="none" stroke="#191970" d="M30.9301,-109.2494C48.6404,-94.7746 82.0852,-67.44 103.4187,-50.0039"/>
<polygon fill="#191970" stroke="#191970" points="105.681,-52.6752 111.209,-43.6369 101.2512,-47.2552 105.681,-52.6752"/>
</g>
<!-- Node3 -->
<g id="node4" class="node">
<title>Node3</title>
<g id="a_node4"><a xlink:href="parserutil_8c.html#aeabb62e46d4414de7848d31d805ab834" target="_top" xlink:title="Parser constructor.">
<polygon fill="#ffffff" stroke="#000000" points="228.5,-266.5 228.5,-285.5 295.5,-285.5 295.5,-266.5 228.5,-266.5"/>
<text text-anchor="middle" x="262" y="-273.5" font-family="Helvetica,sans-Serif" font-size="10.00" fill="#000000">parser_new</text>
</a>
</g>
</g>
<!-- Node2&#45;&gt;Node3 -->
<g id="edge3" class="edge">
<title>Node2&#45;&gt;Node3</title>
<path fill="none" stroke="#191970" d="M158.4056,-152.5247C163.4037,-155.0061 168.1439,-158.1141 172,-162 203.8046,-194.0497 175.6933,-225.4565 208,-257 211.2477,-260.171 215.0554,-262.8153 219.1198,-265.0199"/>
<polygon fill="#191970" stroke="#191970" points="217.7562,-268.2445 228.3099,-269.1776 220.6416,-261.8668 217.7562,-268.2445"/>
</g>
<!-- Node5 -->
<g id="node6" class="node">
<title>Node5</title>
<g id="a_node6"><a xlink:href="parserutil_8c.html#a2d9e8c20025b7b883c4e87790685a6ad" target="_top" xlink:title="Proxy to parser_next.">
<polygon fill="#ffffff" stroke="#000000" points="219,-228.5 219,-247.5 305,-247.5 305,-228.5 219,-228.5"/>
<text text-anchor="middle" x="262" y="-235.5" font-family="Helvetica,sans-Serif" font-size="10.00" fill="#000000">parser_advance</text>
</a>
</g>
</g>
<!-- Node2&#45;&gt;Node5 -->
<g id="edge5" class="edge">
<title>Node2&#45;&gt;Node5</title>
<path fill="none" stroke="#191970" d="M156.2254,-152.5382C161.8417,-155.0563 167.3506,-158.1729 172,-162 195.1337,-181.0423 184.5685,-200.3254 208,-219 210.2587,-220.8002 212.7006,-222.4365 215.2548,-223.923"/>
<polygon fill="#191970" stroke="#191970" points="213.7588,-227.088 224.2696,-228.4199 216.8835,-220.8241 213.7588,-227.088"/>
</g>
<!-- Node7 -->
<g id="node8" class="node">
<title>Node7</title>
<g id="a_node8"><a xlink:href="parser_8h.html#a7f01c72614726af8596180c2799c9a3d" target="_top" xlink:title=" ">
<polygon fill="#ffffff" stroke="#000000" points="229.5,-190.5 229.5,-209.5 294.5,-209.5 294.5,-190.5 229.5,-190.5"/>
<text text-anchor="middle" x="262" y="-197.5" font-family="Helvetica,sans-Serif" font-size="10.00" fill="#000000">parser_root</text>
</a>
</g>
</g>
<!-- Node2&#45;&gt;Node7 -->
<g id="edge7" class="edge">
<title>Node2&#45;&gt;Node7</title>
<path fill="none" stroke="#191970" d="M149.1716,-152.5048C156.6212,-155.3832 164.6943,-158.6692 172,-162 188.4615,-169.5051 191.422,-173.7558 208,-181 212.7171,-183.0613 217.736,-185.0662 222.7415,-186.9533"/>
<polygon fill="#191970" stroke="#191970" points="221.6738,-190.2893 232.2678,-190.4207 224.068,-183.7114 221.6738,-190.2893"/>
</g>
<!-- Node8 -->
<g id="node9" class="node">
<title>Node8</title>
<g id="a_node9"><a xlink:href="error_8c.html#abd91e0920f6396db920ea38a4d701613" target="_top" xlink:title="Return true if a given errorstack is empty.">
<polygon fill="#ffffff" stroke="#000000" points="216,-152.5 216,-171.5 308,-171.5 308,-152.5 216,-152.5"/>
<text text-anchor="middle" x="262" y="-159.5" font-family="Helvetica,sans-Serif" font-size="10.00" fill="#000000">errorstack_empty</text>
</a>
</g>
</g>
<!-- Node2&#45;&gt;Node8 -->
<g id="edge8" class="edge">
<title>Node2&#45;&gt;Node8</title>
<path fill="none" stroke="#191970" d="M172.0062,-149.6987C182.8976,-151.1874 194.5264,-152.777 205.6845,-154.3022"/>
<polygon fill="#191970" stroke="#191970" points="205.3829,-157.7934 215.7648,-155.6801 206.331,-150.8579 205.3829,-157.7934"/>
</g>
<!-- Node9 -->
<g id="node10" class="node">
<title>Node9</title>
<g id="a_node10"><a xlink:href="error_8c.html#a92a76599dc7f44ae25eb33a79f8c1268" target="_top" xlink:title="Throw all errors on the errorstack.">
<polygon fill="#ffffff" stroke="#000000" points="208,-114.5 208,-133.5 316,-133.5 316,-114.5 208,-114.5"/>
<text text-anchor="middle" x="262" y="-121.5" font-family="Helvetica,sans-Serif" font-size="10.00" fill="#000000">errorstack_traceback</text>
</a>
</g>
</g>
<!-- Node2&#45;&gt;Node9 -->
<g id="edge9" class="edge">
<title>Node2&#45;&gt;Node9</title>
<path fill="none" stroke="#191970" d="M172.0062,-136.3013C180.3207,-135.1648 189.0649,-133.9695 197.7014,-132.789"/>
<polygon fill="#191970" stroke="#191970" points="198.3244,-136.2365 207.7583,-131.4143 197.3764,-129.301 198.3244,-136.2365"/>
</g>
<!-- Node13 -->
<g id="node14" class="node">
<title>Node13</title>
<g id="a_node14"><a xlink:href="parserutil_8c.html#a1ddd27828ac4848a4b9c05eb6190852f" target="_top" xlink:title="Parser destructor.">
<polygon fill="#ffffff" stroke="#000000" points="229.5,-76.5 229.5,-95.5 294.5,-95.5 294.5,-76.5 229.5,-76.5"/>
<text text-anchor="middle" x="262" y="-83.5" font-family="Helvetica,sans-Serif" font-size="10.00" fill="#000000">parser_free</text>
</a>
</g>
</g>
<!-- Node2&#45;&gt;Node13 -->
<g id="edge13" class="edge">
<title>Node2&#45;&gt;Node13</title>
<path fill="none" stroke="#191970" d="M143.0664,-133.4686C160.1659,-125.4822 185.4772,-113.9793 208,-105 213.1352,-102.9527 218.5882,-100.8981 223.9786,-98.936"/>
<polygon fill="#191970" stroke="#191970" points="225.2903,-102.1841 233.5314,-95.5256 222.9367,-95.5916 225.2903,-102.1841"/>
</g>
<!-- Node4 -->
<g id="node5" class="node">
<title>Node4</title>
<g id="a_node5"><a xlink:href="error_8c.html#a801707ae606a85c72383643bf3ce5875" target="_top" xlink:title="Creates a new errorstack object.">
<polygon fill="#ffffff" stroke="#000000" points="352,-266.5 352,-285.5 435,-285.5 435,-266.5 352,-266.5"/>
<text text-anchor="middle" x="393.5" y="-273.5" font-family="Helvetica,sans-Serif" font-size="10.00" fill="#000000">errorstack_new</text>
</a>
</g>
</g>
<!-- Node3&#45;&gt;Node4 -->
<g id="edge4" class="edge">
<title>Node3&#45;&gt;Node4</title>
<path fill="none" stroke="#191970" d="M295.5232,-276C309.3724,-276 325.7558,-276 341.1218,-276"/>
<polygon fill="#191970" stroke="#191970" points="341.5537,-279.5001 351.5536,-276 341.5536,-272.5001 341.5537,-279.5001"/>
</g>
<!-- Node6 -->
<g id="node7" class="node">
<title>Node6</title>
<g id="a_node7"><a xlink:href="parserutil_8c.html#ab25a97ff31329fe9461666bfe2dc6f2c" target="_top" xlink:title="Iterate the parser.">
<polygon fill="#ffffff" stroke="#000000" points="359.5,-228.5 359.5,-247.5 427.5,-247.5 427.5,-228.5 359.5,-228.5"/>
<text text-anchor="middle" x="393.5" y="-235.5" font-family="Helvetica,sans-Serif" font-size="10.00" fill="#000000">parser_next</text>
</a>
</g>
</g>
<!-- Node5&#45;&gt;Node6 -->
<g id="edge6" class="edge">
<title>Node5&#45;&gt;Node6</title>
<path fill="none" stroke="#191970" d="M305.058,-238C319.1622,-238 334.8543,-238 349.0588,-238"/>
<polygon fill="#191970" stroke="#191970" points="349.0949,-241.5001 359.0949,-238 349.0948,-234.5001 349.0949,-241.5001"/>
</g>
<!-- Node10 -->
<g id="node11" class="node">
<title>Node10</title>
<g id="a_node11"><a xlink:href="error_8c.html#adc799734c0f6f7e223ee20590c3b46e8" target="_top" xlink:title=" ">
<polygon fill="#ffffff" stroke="#000000" points="361,-152.5 361,-171.5 426,-171.5 426,-152.5 361,-152.5"/>
<text text-anchor="middle" x="393.5" y="-159.5" font-family="Helvetica,sans-Serif" font-size="10.00" fill="#000000">error_throw</text>
</a>
</g>
</g>
<!-- Node9&#45;&gt;Node10 -->
<g id="edge10" class="edge">
<title>Node9&#45;&gt;Node10</title>
<path fill="none" stroke="#191970" d="M295.183,-133.589C312.1311,-138.4865 332.9414,-144.5002 351.0454,-149.7318"/>
<polygon fill="#191970" stroke="#191970" points="350.2045,-153.1319 360.7831,-152.5457 352.1479,-146.4071 350.2045,-153.1319"/>
</g>
<!-- Node12 -->
<g id="node13" class="node">
<title>Node12</title>
<g id="a_node13"><a xlink:href="error_8c.html#a08f836642a23e867f57c5f849f26443c" target="_top" xlink:title="Return the top error of the errorstack.">
<polygon fill="#ffffff" stroke="#000000" points="354,-114.5 354,-133.5 433,-133.5 433,-114.5 354,-114.5"/>
<text text-anchor="middle" x="393.5" y="-121.5" font-family="Helvetica,sans-Serif" font-size="10.00" fill="#000000">errorstack_top</text>
</a>
</g>
</g>
<!-- Node9&#45;&gt;Node12 -->
<g id="edge12" class="edge">
<title>Node9&#45;&gt;Node12</title>
<path fill="none" stroke="#191970" d="M316.2453,-124C325.2967,-124 334.6483,-124 343.5849,-124"/>
<polygon fill="#191970" stroke="#191970" points="343.8423,-127.5001 353.8422,-124 343.8422,-120.5001 343.8423,-127.5001"/>
</g>
<!-- Node11 -->
<g id="node12" class="node">
<title>Node11</title>
<g id="a_node12"><a xlink:href="error_8c.html#a661c01cb3d40abca57dc9d223e3d6381" target="_top" xlink:title="prints an error struct">
<polygon fill="#ffffff" stroke="#000000" points="471,-152.5 471,-171.5 531,-171.5 531,-152.5 471,-152.5"/>
<text text-anchor="middle" x="501" y="-159.5" font-family="Helvetica,sans-Serif" font-size="10.00" fill="#000000">error_print</text>
</a>
</g>
</g>
<!-- Node10&#45;&gt;Node11 -->
<g id="edge11" class="edge">
<title>Node10&#45;&gt;Node11</title>
<path fill="none" stroke="#191970" d="M426.0453,-162C436.9273,-162 449.1904,-162 460.5972,-162"/>
<polygon fill="#191970" stroke="#191970" points="460.7681,-165.5001 470.7681,-162 460.768,-158.5001 460.7681,-165.5001"/>
</g>
<!-- Node14 -->
<g id="node15" class="node">
<title>Node14</title>
<g id="a_node15"><a xlink:href="error_8c.html#a307900324127113f505e2011b6fa2c45" target="_top" xlink:title=" ">
<polygon fill="#ffffff" stroke="#000000" points="352.5,-76.5 352.5,-95.5 434.5,-95.5 434.5,-76.5 352.5,-76.5"/>
<text text-anchor="middle" x="393.5" y="-83.5" font-family="Helvetica,sans-Serif" font-size="10.00" fill="#000000">errorstack_free</text>
</a>
</g>
</g>
<!-- Node13&#45;&gt;Node14 -->
<g id="edge14" class="edge">
<title>Node13&#45;&gt;Node14</title>
<path fill="none" stroke="#191970" d="M294.5056,-86C308.8553,-86 326.072,-86 342.094,-86"/>
<polygon fill="#191970" stroke="#191970" points="342.4082,-89.5001 352.4082,-86 342.4081,-82.5001 342.4082,-89.5001"/>
</g>
<!-- Node16 -->
<g id="node17" class="node">
<title>Node16</title>
<g id="a_node17"><a xlink:href="AST_8c.html#a92979ecde0bf875237d089ebd25d07b0" target="_top" xlink:title="Recursively prints an ast.">
<polygon fill="#ffffff" stroke="#000000" points="216,-38.5 216,-57.5 308,-57.5 308,-38.5 216,-38.5"/>
<text text-anchor="middle" x="262" y="-45.5" font-family="Helvetica,sans-Serif" font-size="10.00" fill="#000000">AST_print_helper</text>
</a>
</g>
</g>
<!-- Node15&#45;&gt;Node16 -->
<g id="edge16" class="edge">
<title>Node15&#45;&gt;Node16</title>
<path fill="none" stroke="#191970" d="M147.1032,-90.4056C164.0773,-83.7072 187.3631,-74.6343 208,-67 213.3013,-65.0388 218.9125,-63.0113 224.4341,-61.0436"/>
<polygon fill="#191970" stroke="#191970" points="225.9289,-64.2275 234.19,-57.5938 223.5952,-57.6279 225.9289,-64.2275"/>
</g>
<!-- Node17 -->
<g id="node18" class="node">
<title>Node17</title>
<g id="a_node18"><a xlink:href="token_8h.html#a347371dbade2f4df7ca01fd60f226951" target="_top" xlink:title="Prints a token object.">
<polygon fill="#ffffff" stroke="#000000" points="361,-38.5 361,-57.5 426,-57.5 426,-38.5 361,-38.5"/>
<text text-anchor="middle" x="393.5" y="-45.5" font-family="Helvetica,sans-Serif" font-size="10.00" fill="#000000">token_print</text>
</a>
</g>
</g>
<!-- Node16&#45;&gt;Node17 -->
<g id="edge17" class="edge">
<title>Node16&#45;&gt;Node17</title>
<path fill="none" stroke="#191970" d="M308.362,-48C322.1503,-48 337.188,-48 350.7361,-48"/>
<polygon fill="#191970" stroke="#191970" points="350.7607,-51.5001 360.7607,-48 350.7606,-44.5001 350.7607,-51.5001"/>
</g>
<!-- Node18&#45;&gt;Node18 -->
<g id="edge19" class="edge">
<title>Node18&#45;&gt;Node18</title>
<path fill="none" stroke="#191970" d="M106.9706,-43.7571C99.1725,-52.5653 104.5156,-62 123,-62 134.5527,-62 140.9722,-58.3146 142.2583,-53.4"/>
<polygon fill="#191970" stroke="#191970" points="145.5235,-52.1283 139.0294,-43.7571 138.8858,-54.3509 145.5235,-52.1283"/>
</g>
<!-- Node19 -->
<g id="node20" class="node">
<title>Node19</title>
<g id="a_node20"><a xlink:href="token_8h.html#a863ec10d282f1f7e0dbbbaae6cec4f15" target="_top" xlink:title=" ">
<polygon fill="#ffffff" stroke="#000000" points="231,-.5 231,-19.5 293,-19.5 293,-.5 231,-.5"/>
<text text-anchor="middle" x="262" y="-7.5" font-family="Helvetica,sans-Serif" font-size="10.00" fill="#000000">token_free</text>
</a>
</g>
</g>
<!-- Node18&#45;&gt;Node19 -->
<g id="edge20" class="edge">
<title>Node18&#45;&gt;Node19</title>
<path fill="none" stroke="#191970" d="M152.139,-28.9688C172.0689,-25.5277 198.7753,-20.9165 220.8661,-17.1022"/>
<polygon fill="#191970" stroke="#191970" points="221.7106,-20.5083 230.9692,-15.3578 220.5195,-13.6104 221.7106,-20.5083"/>
</g>
</g>
</svg>
        <g id="navigator" transform="translate(0 0)" fill="#404254">
                <rect fill="#f2f5e9" fill-opacity="0.5" stroke="#606060" stroke-width=".5" x="0" y="0" width="60" height="60"/>
                <use id="zoomplus" xlink:href="#zoomPlus" x="17" y="9" onmousedown="handleZoom(evt,'in')"/>
                <use id="zoomminus" xlink:href="#zoomMin" x="42" y="9" onmousedown="handleZoom(evt,'out')"/>
                <use id="reset" xlink:href="#resetDef" x="30" y="36" onmousedown="handleReset()"/>
                <g id="arrowUp" xlink:href="#dirArrow" transform="translate(30 24)" onmousedown="handlePan(0,-1)">
                  <use xlink:href="#rim" fill="#404040">
                        <set attributeName="fill" to="#808080" begin="arrowUp.mouseover" end="arrowUp.mouseout"/>
                  </use>
                  <path fill="none" stroke="white" stroke-width="1.5" d="M0,-3.0v7 M-2.5,-0.5L0,-3.0L2.5,-0.5"/>
                </g>
                <g id="arrowRight" xlink:href="#dirArrow" transform="rotate(90) translate(36 -43)" onmousedown="handlePan(1,0)">
                  <use xlink:href="#rim" fill="#404040">
                        <set attributeName="fill" to="#808080" begin="arrowRight.mouseover" end="arrowRight.mouseout"/>
                  </use>
                  <path fill="none" stroke="white" stroke-width="1.5" d="M0,-3.0v7 M-2.5,-0.5L0,-3.0L2.5,-0.5"/>
                </g>
                <g id="arrowDown" xlink:href="#dirArrow" transform="rotate(180) translate(-30 -48)" onmousedown="handlePan(0,1)">
                  <use xlink:href="#rim" fill="#404040">
                        <set attributeName="fill" to="#808080" begin="arrowDown.mouseover" end="arrowDown.mouseout"/>
                  </use>
                  <path fill="none" stroke="white" stroke-width="1.5" d="M0,-3.0v7 M-2.5,-0.5L0,-3.0L2.5,-0.5"/>
                </g>
                <g id="arrowLeft" xlink:href="#dirArrow" transform="rotate(270) translate(-36 17)" onmousedown="handlePan(-1,0)">
                  <use xlink:href="#rim" fill="#404040">
                        <set attributeName="fill" to="#808080" begin="arrowLeft.mouseover" end="arrowLeft.mouseout"/>
                  </use>
                  <path fill="none" stroke="white" stroke-width="1.5" d="M0,-3.0v7 M-2.5,-0.5L0,-3.0L2.5,-0.5"/>
                </g>
        </g>
        <svg viewBox="0 0 15 15" width="100%" height="30px" preserveAspectRatio="xMaxYMin meet">
         <g id="arrow_out" transform="scale(0.3 0.3)">
          <a xlink:href="main_8c_a0ddf1224851353fc92bfbff6f499fa97_cgraph_org.svg" target="_base">
           <rect id="button" ry="5" rx="5" y="6" x="6" height="38" width="38"
                fill="#f2f5e9" fill-opacity="0.5" stroke="#606060" stroke-width="1.0"/>
           <path id="arrow"
             d="M 11.500037,31.436501 C 11.940474,20.09759 22.043105,11.32322 32.158766,21.979434 L 37.068811,17.246167 C 37.068811,17.246167 37.088388,32 37.088388,32 L 22.160133,31.978069 C 22.160133,31.978069 26.997745,27.140456 26.997745,27.140456 C 18.528582,18.264221 13.291696,25.230495 11.500037,31.436501 z"
             style="fill:#404040;"/>
          </a>
         </g>
        </svg>
</svg>
