<?xml version="1.0" encoding="UTF-8" standalone="no"?>
<!DOCTYPE svg PUBLIC "-//W3C//DTD SVG 1.1//EN"
 "http://www.w3.org/Graphics/SVG/1.1/DTD/svg11.dtd">
<!-- Generated by graphviz version 2.40.1 (20161225.0304)
 -->
<!-- Title: main/main.c Pages: 1 -->
<svg width="398pt" height="252pt"
 viewBox="0.00 0.00 397.50 252.00" xmlns="http://www.w3.org/2000/svg" xmlns:xlink="http://www.w3.org/1999/xlink">
<g id="graph0" class="graph" transform="scale(1 1) rotate(0) translate(4 248)">
<title>main/main.c</title>
<polygon fill="#ffffff" stroke="transparent" points="-4,4 -4,-248 393.5,-248 393.5,4 -4,4"/>
<!-- Node0 -->
<g id="node1" class="node">
<title>Node0</title>
<g id="a_node1"><a xlink:title=" ">
<polygon fill="#bfbfbf" stroke="#000000" points="159,-224.5 159,-243.5 229,-243.5 229,-224.5 159,-224.5"/>
<text text-anchor="middle" x="194" y="-231.5" font-family="Helvetica,sans-Serif" font-size="10.00" fill="#000000">main/main.c</text>
</a>
</g>
</g>
<!-- Node1 -->
<g id="node2" class="node">
<title>Node1</title>
<g id="a_node2"><a xlink:title=" ">
<polygon fill="#ffffff" stroke="#bfbfbf" points="0,-168.5 0,-187.5 46,-187.5 46,-168.5 0,-168.5"/>
<text text-anchor="middle" x="23" y="-175.5" font-family="Helvetica,sans-Serif" font-size="10.00" fill="#000000">stdio.h</text>
</a>
</g>
</g>
<!-- Node0&#45;&gt;Node1 -->
<g id="edge1" class="edge">
<title>Node0&#45;&gt;Node1</title>
<path fill="none" stroke="#191970" d="M164.6041,-224.3733C134.3599,-214.4687 87.3469,-199.0727 55.8848,-188.7693"/>
<polygon fill="#191970" stroke="#191970" points="56.8499,-185.4025 46.2572,-185.6164 54.6713,-192.0549 56.8499,-185.4025"/>
</g>
<!-- Node2 -->
<g id="node3" class="node">
<title>Node2</title>
<g id="a_node3"><a xlink:title=" ">
<polygon fill="#ffffff" stroke="#bfbfbf" points="64,-168.5 64,-187.5 112,-187.5 112,-168.5 64,-168.5"/>
<text text-anchor="middle" x="88" y="-175.5" font-family="Helvetica,sans-Serif" font-size="10.00" fill="#000000">stdlib.h</text>
</a>
</g>
</g>
<!-- Node0&#45;&gt;Node2 -->
<g id="edge2" class="edge">
<title>Node0&#45;&gt;Node2</title>
<path fill="none" stroke="#191970" d="M175.5362,-224.2455C158.8926,-215.4527 134.2007,-202.4079 115.2808,-192.4125"/>
<polygon fill="#191970" stroke="#191970" points="116.7291,-189.2193 106.2522,-187.6427 113.4592,-195.4086 116.7291,-189.2193"/>
</g>
<!-- Node3 -->
<g id="node4" class="node">
<title>Node3</title>
<g id="a_node4"><a xlink:href="AST_8h.html" target="_top" xlink:title=" ">
<polygon fill="#ffffff" stroke="#000000" points="60,-112.5 60,-131.5 104,-131.5 104,-112.5 60,-112.5"/>
<text text-anchor="middle" x="82" y="-119.5" font-family="Helvetica,sans-Serif" font-size="10.00" fill="#000000">AST.h</text>
</a>
</g>
</g>
<!-- Node0&#45;&gt;Node3 -->
<g id="edge3" class="edge">
<title>Node0&#45;&gt;Node3</title>
<path fill="none" stroke="#191970" d="M184.4509,-224.4509C165.4401,-205.4401 122.6423,-162.6423 98.816,-138.816"/>
<polygon fill="#191970" stroke="#191970" points="101.0709,-136.1211 91.5249,-131.5249 96.1211,-141.0709 101.0709,-136.1211"/>
</g>
<!-- Node7 -->
<g id="node8" class="node">
<title>Node7</title>
<g id="a_node8"><a xlink:href="error_8h.html" target="_top" xlink:title=" ">
<polygon fill="#ffffff" stroke="#000000" points="161,-56.5 161,-75.5 205,-75.5 205,-56.5 161,-56.5"/>
<text text-anchor="middle" x="183" y="-63.5" font-family="Helvetica,sans-Serif" font-size="10.00" fill="#000000">error.h</text>
</a>
</g>
</g>
<!-- Node0&#45;&gt;Node7 -->
<g id="edge8" class="edge">
<title>Node0&#45;&gt;Node7</title>
<path fill="none" stroke="#191970" d="M203.9362,-224.4913C212.176,-215.8654 223.2767,-202.3368 228,-188 230.7814,-179.5575 229.8334,-176.6978 228,-168 221.5113,-137.2168 205.1217,-104.4049 194.0195,-84.5497"/>
<polygon fill="#191970" stroke="#191970" points="196.9339,-82.5964 188.9184,-75.668 190.8638,-86.0827 196.9339,-82.5964"/>
</g>
<!-- Node8 -->
<g id="node9" class="node">
<title>Node8</title>
<g id="a_node9"><a xlink:href="parser_8h.html" target="_top" xlink:title=" ">
<polygon fill="#ffffff" stroke="#000000" points="168.5,-168.5 168.5,-187.5 219.5,-187.5 219.5,-168.5 168.5,-168.5"/>
<text text-anchor="middle" x="194" y="-175.5" font-family="Helvetica,sans-Serif" font-size="10.00" fill="#000000">parser.h</text>
</a>
</g>
</g>
<!-- Node0&#45;&gt;Node8 -->
<g id="edge11" class="edge">
<title>Node0&#45;&gt;Node8</title>
<path fill="none" stroke="#191970" d="M194,-224.2455C194,-216.9382 194,-206.6944 194,-197.7046"/>
<polygon fill="#191970" stroke="#191970" points="197.5001,-197.6426 194,-187.6427 190.5001,-197.6427 197.5001,-197.6426"/>
</g>
<!-- Node9 -->
<g id="node10" class="node">
<title>Node9</title>
<g id="a_node10"><a xlink:href="files_8h.html" target="_top" xlink:title=" ">
<polygon fill="#ffffff" stroke="#000000" points="287.5,-168.5 287.5,-187.5 330.5,-187.5 330.5,-168.5 287.5,-168.5"/>
<text text-anchor="middle" x="309" y="-175.5" font-family="Helvetica,sans-Serif" font-size="10.00" fill="#000000">files.h</text>
</a>
</g>
</g>
<!-- Node0&#45;&gt;Node9 -->
<g id="edge16" class="edge">
<title>Node0&#45;&gt;Node9</title>
<path fill="none" stroke="#191970" d="M213.7692,-224.3733C232.1469,-215.4241 259.7312,-201.9917 280.4893,-191.8835"/>
<polygon fill="#191970" stroke="#191970" points="282.0304,-195.026 289.4888,-187.5011 278.9657,-188.7325 282.0304,-195.026"/>
</g>
<!-- Node10 -->
<g id="node11" class="node">
<title>Node10</title>
<g id="a_node11"><a xlink:href="test_8h.html" target="_top" xlink:title=" ">
<polygon fill="#ffffff" stroke="#000000" points="348.5,-168.5 348.5,-187.5 389.5,-187.5 389.5,-168.5 348.5,-168.5"/>
<text text-anchor="middle" x="369" y="-175.5" font-family="Helvetica,sans-Serif" font-size="10.00" fill="#000000">test.h</text>
</a>
</g>
</g>
<!-- Node0&#45;&gt;Node10 -->
<g id="edge17" class="edge">
<title>Node0&#45;&gt;Node10</title>
<path fill="none" stroke="#191970" d="M225.122,-224.4596C252.7673,-215.9265 294.4954,-202.9046 338.913,-188.3077"/>
<polygon fill="#191970" stroke="#191970" points="340.0271,-191.6258 348.4279,-185.1701 337.8349,-184.9779 340.0271,-191.6258"/>
</g>
<!-- Node4 -->
<g id="node5" class="node">
<title>Node4</title>
<g id="a_node5"><a xlink:title=" ">
<polygon fill="#ffffff" stroke="#bfbfbf" points="71.5,-.5 71.5,-19.5 120.5,-19.5 120.5,-.5 71.5,-.5"/>
<text text-anchor="middle" x="96" y="-7.5" font-family="Helvetica,sans-Serif" font-size="10.00" fill="#000000">stdint.h</text>
</a>
</g>
</g>
<!-- Node3&#45;&gt;Node4 -->
<g id="edge4" class="edge">
<title>Node3&#45;&gt;Node4</title>
<path fill="none" stroke="#191970" d="M70.4764,-112.4244C56.7848,-99.813 36.8741,-76.7963 46,-56 51.3323,-43.8487 61.6339,-33.4938 71.5076,-25.7031"/>
<polygon fill="#191970" stroke="#191970" points="73.59,-28.5162 79.5823,-19.7788 69.4491,-22.8723 73.59,-28.5162"/>
</g>
<!-- Node5 -->
<g id="node6" class="node">
<title>Node5</title>
<g id="a_node6"><a xlink:href="token_8h.html" target="_top" xlink:title=" ">
<polygon fill="#ffffff" stroke="#000000" points="55.5,-56.5 55.5,-75.5 104.5,-75.5 104.5,-56.5 55.5,-56.5"/>
<text text-anchor="middle" x="80" y="-63.5" font-family="Helvetica,sans-Serif" font-size="10.00" fill="#000000">token.h</text>
</a>
</g>
</g>
<!-- Node3&#45;&gt;Node5 -->
<g id="edge5" class="edge">
<title>Node3&#45;&gt;Node5</title>
<path fill="none" stroke="#191970" d="M81.6516,-112.2455C81.3907,-104.9382 81.0248,-94.6944 80.7037,-85.7046"/>
<polygon fill="#191970" stroke="#191970" points="84.1992,-85.5113 80.3444,-75.6427 77.2036,-85.7613 84.1992,-85.5113"/>
</g>
<!-- Node5&#45;&gt;Node4 -->
<g id="edge7" class="edge">
<title>Node5&#45;&gt;Node4</title>
<path fill="none" stroke="#191970" d="M82.787,-56.2455C84.8977,-48.8579 87.866,-38.4689 90.4547,-29.4087"/>
<polygon fill="#191970" stroke="#191970" points="93.863,-30.2195 93.245,-19.6427 87.1323,-28.2964 93.863,-30.2195"/>
</g>
<!-- Node6 -->
<g id="node7" class="node">
<title>Node6</title>
<g id="a_node7"><a xlink:title=" ">
<polygon fill="#ffffff" stroke="#bfbfbf" points="155,-.5 155,-19.5 211,-19.5 211,-.5 155,-.5"/>
<text text-anchor="middle" x="183" y="-7.5" font-family="Helvetica,sans-Serif" font-size="10.00" fill="#000000">stdbool.h</text>
</a>
</g>
</g>
<!-- Node5&#45;&gt;Node6 -->
<g id="edge6" class="edge">
<title>Node5&#45;&gt;Node6</title>
<path fill="none" stroke="#191970" d="M97.9412,-56.2455C114.04,-47.4928 137.8879,-34.527 156.2391,-24.5496"/>
<polygon fill="#191970" stroke="#191970" points="158.1507,-27.4942 165.2644,-19.6427 154.8071,-21.3444 158.1507,-27.4942"/>
</g>
<!-- Node7&#45;&gt;Node4 -->
<g id="edge10" class="edge">
<title>Node7&#45;&gt;Node4</title>
<path fill="none" stroke="#191970" d="M167.8458,-56.2455C154.4973,-47.6534 134.8414,-35.0014 119.4617,-25.1018"/>
<polygon fill="#191970" stroke="#191970" points="121.2836,-22.1121 110.9806,-19.6427 117.4949,-27.9982 121.2836,-22.1121"/>
</g>
<!-- Node7&#45;&gt;Node6 -->
<g id="edge9" class="edge">
<title>Node7&#45;&gt;Node6</title>
<path fill="none" stroke="#191970" d="M183,-56.2455C183,-48.9382 183,-38.6944 183,-29.7046"/>
<polygon fill="#191970" stroke="#191970" points="186.5001,-29.6426 183,-19.6427 179.5001,-29.6427 186.5001,-29.6426"/>
</g>
<!-- Node8&#45;&gt;Node3 -->
<g id="edge12" class="edge">
<title>Node8&#45;&gt;Node3</title>
<path fill="none" stroke="#191970" d="M174.7465,-168.3733C156.9288,-159.4644 130.2253,-146.1127 110.0406,-136.0203"/>
<polygon fill="#191970" stroke="#191970" points="111.5118,-132.8428 101.0022,-131.5011 108.3813,-139.1038 111.5118,-132.8428"/>
</g>
<!-- Node8&#45;&gt;Node4 -->
<g id="edge15" class="edge">
<title>Node8&#45;&gt;Node4</title>
<path fill="none" stroke="#191970" d="M188.4503,-168.4862C172.7576,-141.5845 127.8497,-64.5994 106.9476,-28.7673"/>
<polygon fill="#191970" stroke="#191970" points="109.7949,-26.7021 101.7329,-19.8279 103.7485,-30.2293 109.7949,-26.7021"/>
</g>
<!-- Node8&#45;&gt;Node6 -->
<g id="edge14" class="edge">
<title>Node8&#45;&gt;Node6</title>
<path fill="none" stroke="#191970" d="M198.5267,-168.3093C207.6622,-147.3974 226.4167,-96.6429 214,-56 210.8591,-45.7192 204.5634,-35.6582 198.4612,-27.5799"/>
<polygon fill="#191970" stroke="#191970" points="201.0816,-25.2539 192.0741,-19.6757 195.637,-29.6535 201.0816,-25.2539"/>
</g>
<!-- Node8&#45;&gt;Node7 -->
<g id="edge13" class="edge">
<title>Node8&#45;&gt;Node7</title>
<path fill="none" stroke="#191970" d="M193.0621,-168.4509C191.2681,-150.184 187.317,-109.9553 184.9346,-85.6976"/>
<polygon fill="#191970" stroke="#191970" points="188.3962,-85.1349 183.9355,-75.5249 181.4298,-85.8191 188.3962,-85.1349"/>
</g>
</g>
</svg>
