<?xml version="1.0" encoding="UTF-8" standalone="no"?>
<!DOCTYPE svg PUBLIC "-//W3C//DTD SVG 1.1//EN"
 "http://www.w3.org/Graphics/SVG/1.1/DTD/svg11.dtd">
<!-- Generated by graphviz version 2.40.1 (20161225.0304)
 -->
<!-- Title: main/main.c Pages: 1 -->
<svg width="1074pt" height="532pt"
 viewBox="0.00 0.00 1073.50 532.00" xmlns="http://www.w3.org/2000/svg" xmlns:xlink="http://www.w3.org/1999/xlink">
<g id="graph0" class="graph" transform="scale(1 1) rotate(0) translate(4 528)">
<title>main/main.c</title>
<polygon fill="#ffffff" stroke="transparent" points="-4,4 -4,-528 1069.5,-528 1069.5,4 -4,4"/>
<!-- Node0 -->
<g id="node1" class="node">
<title>Node0</title>
<g id="a_node1"><a xlink:title=" ">
<polygon fill="#bfbfbf" stroke="#000000" points="769,-504.5 769,-523.5 839,-523.5 839,-504.5 769,-504.5"/>
<text text-anchor="middle" x="804" y="-511.5" font-family="Helvetica,sans-Serif" font-size="10.00" fill="#000000">main/main.c</text>
</a>
</g>
</g>
<!-- Node1 -->
<g id="node2" class="node">
<title>Node1</title>
<g id="a_node2"><a xlink:title=" ">
<polygon fill="#ffffff" stroke="#bfbfbf" points="0,-448.5 0,-467.5 46,-467.5 46,-448.5 0,-448.5"/>
<text text-anchor="middle" x="23" y="-455.5" font-family="Helvetica,sans-Serif" font-size="10.00" fill="#000000">stdio.h</text>
</a>
</g>
</g>
<!-- Node0&#45;&gt;Node1 -->
<g id="edge1" class="edge">
<title>Node0&#45;&gt;Node1</title>
<path fill="none" stroke="#191970" d="M768.8884,-512.7721C640.8413,-508.1472 199.194,-490.8712 60,-468 58.7442,-467.7937 57.4696,-467.5623 56.1859,-467.3109"/>
<polygon fill="#191970" stroke="#191970" points="56.8583,-463.8745 46.3312,-465.0712 55.3068,-470.7005 56.8583,-463.8745"/>
</g>
<!-- Node2 -->
<g id="node3" class="node">
<title>Node2</title>
<g id="a_node3"><a xlink:title=" ">
<polygon fill="#ffffff" stroke="#bfbfbf" points="183,-56.5 183,-75.5 231,-75.5 231,-56.5 183,-56.5"/>
<text text-anchor="middle" x="207" y="-63.5" font-family="Helvetica,sans-Serif" font-size="10.00" fill="#000000">stdlib.h</text>
</a>
</g>
</g>
<!-- Node0&#45;&gt;Node2 -->
<g id="edge2" class="edge">
<title>Node0&#45;&gt;Node2</title>
<path fill="none" stroke="#191970" d="M768.7906,-512.3637C622.9703,-505.1279 74,-473.1616 74,-402 74,-402 74,-402 74,-234 74,-164.7771 144.2717,-107.4238 182.6565,-81.259"/>
<polygon fill="#191970" stroke="#191970" points="184.8226,-84.0222 191.2209,-75.5775 180.9529,-78.1891 184.8226,-84.0222"/>
</g>
<!-- Node3 -->
<g id="node4" class="node">
<title>Node3</title>
<g id="a_node4"><a xlink:href="AST_8h.html" target="_top" xlink:title=" ">
<polygon fill="#ffffff" stroke="#000000" points="825,-392.5 825,-411.5 869,-411.5 869,-392.5 825,-392.5"/>
<text text-anchor="middle" x="847" y="-399.5" font-family="Helvetica,sans-Serif" font-size="10.00" fill="#000000">AST.h</text>
</a>
</g>
</g>
<!-- Node0&#45;&gt;Node3 -->
<g id="edge3" class="edge">
<title>Node0&#45;&gt;Node3</title>
<path fill="none" stroke="#191970" d="M807.6662,-504.4509C814.7428,-486.0186 830.4045,-445.2254 839.6888,-421.043"/>
<polygon fill="#191970" stroke="#191970" points="843.0263,-422.115 843.3431,-411.5249 836.4914,-419.606 843.0263,-422.115"/>
</g>
<!-- Node6 -->
<g id="node7" class="node">
<title>Node6</title>
<g id="a_node7"><a xlink:href="builtins_8h.html" target="_top" xlink:title=" ">
<polygon fill="#ffffff" stroke="#000000" points="474,-280.5 474,-299.5 530,-299.5 530,-280.5 474,-280.5"/>
<text text-anchor="middle" x="502" y="-287.5" font-family="Helvetica,sans-Serif" font-size="10.00" fill="#000000">builtins.h</text>
</a>
</g>
</g>
<!-- Node0&#45;&gt;Node6 -->
<g id="edge33" class="edge">
<title>Node0&#45;&gt;Node6</title>
<path fill="none" stroke="#191970" d="M791.0234,-504.375C743.8805,-469.4081 581.3945,-348.8886 523.059,-305.6199"/>
<polygon fill="#191970" stroke="#191970" points="525.0451,-302.7354 514.9282,-299.5891 520.8749,-308.3577 525.0451,-302.7354"/>
</g>
<!-- Node19 -->
<g id="node20" class="node">
<title>Node19</title>
<g id="a_node20"><a xlink:href="error_8h.html" target="_top" xlink:title=" ">
<polygon fill="#ffffff" stroke="#000000" points="953,-280.5 953,-299.5 997,-299.5 997,-280.5 953,-280.5"/>
<text text-anchor="middle" x="975" y="-287.5" font-family="Helvetica,sans-Serif" font-size="10.00" fill="#000000">error.h</text>
</a>
</g>
</g>
<!-- Node0&#45;&gt;Node19 -->
<g id="edge34" class="edge">
<title>Node0&#45;&gt;Node19</title>
<path fill="none" stroke="#191970" d="M839.1048,-507.6088C878.2734,-499.7429 938.1152,-485.2825 953,-468 991.872,-422.8662 984.934,-345.7922 978.9438,-309.715"/>
<polygon fill="#191970" stroke="#191970" points="982.3251,-308.7465 977.0915,-299.5346 975.4382,-309.9996 982.3251,-308.7465"/>
</g>
<!-- Node20 -->
<g id="node21" class="node">
<title>Node20</title>
<g id="a_node21"><a xlink:href="hvm_8h.html" target="_top" xlink:title=" ">
<polygon fill="#ffffff" stroke="#000000" points="740,-336.5 740,-355.5 784,-355.5 784,-336.5 740,-336.5"/>
<text text-anchor="middle" x="762" y="-343.5" font-family="Helvetica,sans-Serif" font-size="10.00" fill="#000000">hvm.h</text>
</a>
</g>
</g>
<!-- Node0&#45;&gt;Node20 -->
<g id="edge37" class="edge">
<title>Node0&#45;&gt;Node20</title>
<path fill="none" stroke="#191970" d="M801.6216,-504.4862C794.9536,-477.8144 775.9779,-401.9117 766.9238,-365.695"/>
<polygon fill="#191970" stroke="#191970" points="770.2779,-364.6804 764.457,-355.8279 763.4869,-366.3782 770.2779,-364.6804"/>
</g>
<!-- Node21 -->
<g id="node22" class="node">
<title>Node21</title>
<g id="a_node22"><a xlink:href="parser_8h.html" target="_top" xlink:title=" ">
<polygon fill="#ffffff" stroke="#000000" points="892.5,-448.5 892.5,-467.5 943.5,-467.5 943.5,-448.5 892.5,-448.5"/>
<text text-anchor="middle" x="918" y="-455.5" font-family="Helvetica,sans-Serif" font-size="10.00" fill="#000000">parser.h</text>
</a>
</g>
</g>
<!-- Node0&#45;&gt;Node21 -->
<g id="edge40" class="edge">
<title>Node0&#45;&gt;Node21</title>
<path fill="none" stroke="#191970" d="M823.5973,-504.3733C841.7331,-495.4644 868.9135,-482.1127 889.4587,-472.0203"/>
<polygon fill="#191970" stroke="#191970" points="891.2261,-475.0517 898.6584,-467.5011 888.1397,-468.7688 891.2261,-475.0517"/>
</g>
<!-- Node22 -->
<g id="node23" class="node">
<title>Node22</title>
<g id="a_node23"><a xlink:href="files_8h.html" target="_top" xlink:title=" ">
<polygon fill="#ffffff" stroke="#000000" points="1022.5,-448.5 1022.5,-467.5 1065.5,-467.5 1065.5,-448.5 1022.5,-448.5"/>
<text text-anchor="middle" x="1044" y="-455.5" font-family="Helvetica,sans-Serif" font-size="10.00" fill="#000000">files.h</text>
</a>
</g>
</g>
<!-- Node0&#45;&gt;Node22 -->
<g id="edge45" class="edge">
<title>Node0&#45;&gt;Node22</title>
<path fill="none" stroke="#191970" d="M839.1391,-506.6259C879.8902,-497.947 949.0238,-482.8309 1008,-468 1009.4547,-467.6342 1010.9404,-467.2528 1012.4396,-466.8618"/>
<polygon fill="#191970" stroke="#191970" points="1013.5942,-470.1758 1022.3438,-464.2013 1011.7781,-463.4155 1013.5942,-470.1758"/>
</g>
<!-- Node4 -->
<g id="node5" class="node">
<title>Node4</title>
<g id="a_node5"><a xlink:title=" ">
<polygon fill="#ffffff" stroke="#bfbfbf" points="741.5,-.5 741.5,-19.5 790.5,-19.5 790.5,-.5 741.5,-.5"/>
<text text-anchor="middle" x="766" y="-7.5" font-family="Helvetica,sans-Serif" font-size="10.00" fill="#000000">stdint.h</text>
</a>
</g>
</g>
<!-- Node3&#45;&gt;Node4 -->
<g id="edge4" class="edge">
<title>Node3&#45;&gt;Node4</title>
<path fill="none" stroke="#191970" d="M851.8693,-392.3939C861.0488,-373.3677 880,-329.3256 880,-290 880,-290 880,-290 880,-122 880,-75.4628 831.0617,-41.828 797.3136,-24.1659"/>
<polygon fill="#191970" stroke="#191970" points="798.7576,-20.9746 788.251,-19.6105 795.6138,-27.2289 798.7576,-20.9746"/>
</g>
<!-- Node5 -->
<g id="node6" class="node">
<title>Node5</title>
<g id="a_node6"><a xlink:href="token_8h.html" target="_top" xlink:title=" ">
<polygon fill="#ffffff" stroke="#000000" points="802.5,-336.5 802.5,-355.5 851.5,-355.5 851.5,-336.5 802.5,-336.5"/>
<text text-anchor="middle" x="827" y="-343.5" font-family="Helvetica,sans-Serif" font-size="10.00" fill="#000000">token.h</text>
</a>
</g>
</g>
<!-- Node3&#45;&gt;Node5 -->
<g id="edge5" class="edge">
<title>Node3&#45;&gt;Node5</title>
<path fill="none" stroke="#191970" d="M843.5163,-392.2455C840.8492,-384.7776 837.0867,-374.2427 833.8263,-365.1137"/>
<polygon fill="#191970" stroke="#191970" points="837.1033,-363.8829 830.4438,-355.6427 830.5111,-366.2373 837.1033,-363.8829"/>
</g>
<!-- Node5&#45;&gt;Node4 -->
<g id="edge32" class="edge">
<title>Node5&#45;&gt;Node4</title>
<path fill="none" stroke="#191970" d="M825.2402,-336.3065C816.8739,-290.2235 781.0526,-92.9127 769.5623,-29.6219"/>
<polygon fill="#191970" stroke="#191970" points="772.997,-28.9467 767.767,-19.7328 766.1096,-30.1972 772.997,-28.9467"/>
</g>
<!-- Node5&#45;&gt;Node6 -->
<g id="edge6" class="edge">
<title>Node5&#45;&gt;Node6</title>
<path fill="none" stroke="#191970" d="M802.2146,-338.3078C799.1272,-337.4688 796.0013,-336.6756 793,-336 703.4626,-315.8446 596.4772,-301.3446 540.4919,-294.4741"/>
<polygon fill="#191970" stroke="#191970" points="540.6696,-290.9701 530.3211,-293.2413 539.8273,-297.9192 540.6696,-290.9701"/>
</g>
<!-- Node12 -->
<g id="node13" class="node">
<title>Node12</title>
<g id="a_node13"><a xlink:title=" ">
<polygon fill="#ffffff" stroke="#bfbfbf" points="814,-.5 814,-19.5 870,-19.5 870,-.5 814,-.5"/>
<text text-anchor="middle" x="842" y="-7.5" font-family="Helvetica,sans-Serif" font-size="10.00" fill="#000000">stdbool.h</text>
</a>
</g>
</g>
<!-- Node5&#45;&gt;Node12 -->
<g id="edge31" class="edge">
<title>Node5&#45;&gt;Node12</title>
<path fill="none" stroke="#191970" d="M829.1491,-336.4693C833.2968,-317.2151 842,-272.2552 842,-234 842,-234 842,-234 842,-122 842,-89.7116 842,-52.1872 842,-29.8048"/>
<polygon fill="#191970" stroke="#191970" points="845.5001,-29.5883 842,-19.5884 838.5001,-29.5884 845.5001,-29.5883"/>
</g>
<!-- Node7 -->
<g id="node8" class="node">
<title>Node7</title>
<g id="a_node8"><a xlink:href="builtinutils_8h.html" target="_top" xlink:title=" ">
<polygon fill="#ffffff" stroke="#000000" points="212,-.5 212,-19.5 280,-19.5 280,-.5 212,-.5"/>
<text text-anchor="middle" x="246" y="-7.5" font-family="Helvetica,sans-Serif" font-size="10.00" fill="#000000">builtinutils.h</text>
</a>
</g>
</g>
<!-- Node6&#45;&gt;Node7 -->
<g id="edge7" class="edge">
<title>Node6&#45;&gt;Node7</title>
<path fill="none" stroke="#191970" d="M473.8506,-288.3365C394.8573,-283.3888 175.4641,-267.6237 154,-244 124.4135,-211.4367 166.3034,-67.2957 174,-56 183.4552,-42.1233 198.6272,-31.5243 212.6111,-24.0176"/>
<polygon fill="#191970" stroke="#191970" points="214.1894,-27.1416 221.557,-19.5278 211.0494,-20.8853 214.1894,-27.1416"/>
</g>
<!-- Node8 -->
<g id="node9" class="node">
<title>Node8</title>
<g id="a_node9"><a xlink:href="helios__code_8h.html" target="_top" xlink:title=" ">
<polygon fill="#ffffff" stroke="#000000" points="416.5,-224.5 416.5,-243.5 493.5,-243.5 493.5,-224.5 416.5,-224.5"/>
<text text-anchor="middle" x="455" y="-231.5" font-family="Helvetica,sans-Serif" font-size="10.00" fill="#000000">helios_code.h</text>
</a>
</g>
</g>
<!-- Node6&#45;&gt;Node8 -->
<g id="edge8" class="edge">
<title>Node6&#45;&gt;Node8</title>
<path fill="none" stroke="#191970" d="M493.8132,-280.2455C487.1411,-272.2958 477.5521,-260.8706 469.5747,-251.3656"/>
<polygon fill="#191970" stroke="#191970" points="472.2026,-249.0524 463.093,-243.6427 466.8408,-253.5525 472.2026,-249.0524"/>
</g>
<!-- Node9 -->
<g id="node10" class="node">
<title>Node9</title>
<g id="a_node10"><a xlink:href="helios__object_8h.html" target="_top" xlink:title=" ">
<polygon fill="#ffffff" stroke="#000000" points="414,-168.5 414,-187.5 496,-187.5 496,-168.5 414,-168.5"/>
<text text-anchor="middle" x="455" y="-175.5" font-family="Helvetica,sans-Serif" font-size="10.00" fill="#000000">helios_object.h</text>
</a>
</g>
</g>
<!-- Node6&#45;&gt;Node9 -->
<g id="edge25" class="edge">
<title>Node6&#45;&gt;Node9</title>
<path fill="none" stroke="#191970" d="M473.6849,-284.734C451.3049,-278.9219 421.5019,-267.1344 407,-244 395.7476,-226.0494 414.0171,-206.551 431.1597,-193.4374"/>
<polygon fill="#191970" stroke="#191970" points="433.2749,-196.2273 439.3503,-187.5474 429.1881,-190.5442 433.2749,-196.2273"/>
</g>
<!-- Node11 -->
<g id="node12" class="node">
<title>Node11</title>
<g id="a_node12"><a xlink:href="helios__memory_8h.html" target="_top" xlink:title=" ">
<polygon fill="#ffffff" stroke="#000000" points="451,-56.5 451,-75.5 541,-75.5 541,-56.5 451,-56.5"/>
<text text-anchor="middle" x="496" y="-63.5" font-family="Helvetica,sans-Serif" font-size="10.00" fill="#000000">helios_memory.h</text>
</a>
</g>
</g>
<!-- Node6&#45;&gt;Node11 -->
<g id="edge28" class="edge">
<title>Node6&#45;&gt;Node11</title>
<path fill="none" stroke="#191970" d="M473.9253,-288.2055C397.3065,-283.0246 188.985,-266.9354 169,-244 84.8103,-147.381 327.166,-93.6534 440.7614,-74.3339"/>
<polygon fill="#191970" stroke="#191970" points="441.3948,-77.7767 450.6824,-72.6784 440.2427,-70.8721 441.3948,-77.7767"/>
</g>
<!-- Node14 -->
<g id="node15" class="node">
<title>Node14</title>
<g id="a_node15"><a xlink:href="helios__float_8h.html" target="_top" xlink:title=" ">
<polygon fill="#ffffff" stroke="#000000" points="512,-224.5 512,-243.5 586,-243.5 586,-224.5 512,-224.5"/>
<text text-anchor="middle" x="549" y="-231.5" font-family="Helvetica,sans-Serif" font-size="10.00" fill="#000000">helios_float.h</text>
</a>
</g>
</g>
<!-- Node6&#45;&gt;Node14 -->
<g id="edge18" class="edge">
<title>Node6&#45;&gt;Node14</title>
<path fill="none" stroke="#191970" d="M510.1868,-280.2455C516.8589,-272.2958 526.4479,-260.8706 534.4253,-251.3656"/>
<polygon fill="#191970" stroke="#191970" points="537.1592,-253.5525 540.907,-243.6427 531.7974,-249.0524 537.1592,-253.5525"/>
</g>
<!-- Node15 -->
<g id="node16" class="node">
<title>Node15</title>
<g id="a_node16"><a xlink:href="helios__hashmap_8h.html" target="_top" xlink:title=" ">
<polygon fill="#ffffff" stroke="#000000" points="604.5,-224.5 604.5,-243.5 699.5,-243.5 699.5,-224.5 604.5,-224.5"/>
<text text-anchor="middle" x="652" y="-231.5" font-family="Helvetica,sans-Serif" font-size="10.00" fill="#000000">helios_hashmap.h</text>
</a>
</g>
</g>
<!-- Node6&#45;&gt;Node15 -->
<g id="edge20" class="edge">
<title>Node6&#45;&gt;Node15</title>
<path fill="none" stroke="#191970" d="M527.7859,-280.3733C552.4047,-271.1822 589.69,-257.2624 616.9875,-247.0713"/>
<polygon fill="#191970" stroke="#191970" points="618.4063,-250.2777 626.5506,-243.5011 615.958,-243.7198 618.4063,-250.2777"/>
</g>
<!-- Node16 -->
<g id="node17" class="node">
<title>Node16</title>
<g id="a_node17"><a xlink:href="helios__integer_8h.html" target="_top" xlink:title=" ">
<polygon fill="#ffffff" stroke="#000000" points="178,-224.5 178,-243.5 262,-243.5 262,-224.5 178,-224.5"/>
<text text-anchor="middle" x="220" y="-231.5" font-family="Helvetica,sans-Serif" font-size="10.00" fill="#000000">helios_integer.h</text>
</a>
</g>
</g>
<!-- Node6&#45;&gt;Node16 -->
<g id="edge23" class="edge">
<title>Node6&#45;&gt;Node16</title>
<path fill="none" stroke="#191970" d="M473.9298,-284.4258C426.9147,-275.0894 331.5564,-256.153 272.0102,-244.3283"/>
<polygon fill="#191970" stroke="#191970" points="272.5418,-240.8656 262.0516,-242.3507 271.1783,-247.7315 272.5418,-240.8656"/>
</g>
<!-- Node17 -->
<g id="node18" class="node">
<title>Node17</title>
<g id="a_node18"><a xlink:href="helios__string_8h.html" target="_top" xlink:title=" ">
<polygon fill="#ffffff" stroke="#000000" points="280,-224.5 280,-243.5 360,-243.5 360,-224.5 280,-224.5"/>
<text text-anchor="middle" x="320" y="-231.5" font-family="Helvetica,sans-Serif" font-size="10.00" fill="#000000">helios_string.h</text>
</a>
</g>
</g>
<!-- Node6&#45;&gt;Node17 -->
<g id="edge26" class="edge">
<title>Node6&#45;&gt;Node17</title>
<path fill="none" stroke="#191970" d="M473.9614,-281.3727C443.7405,-272.074 395.3484,-257.1841 360.8881,-246.581"/>
<polygon fill="#191970" stroke="#191970" points="361.7084,-243.1715 351.1213,-243.5758 359.6497,-249.8619 361.7084,-243.1715"/>
</g>
<!-- Node18 -->
<g id="node19" class="node">
<title>Node18</title>
<g id="a_node19"><a xlink:href="serialize_8h.html" target="_top" xlink:title=" ">
<polygon fill="#ffffff" stroke="#000000" points="576.5,-168.5 576.5,-187.5 637.5,-187.5 637.5,-168.5 576.5,-168.5"/>
<text text-anchor="middle" x="607" y="-175.5" font-family="Helvetica,sans-Serif" font-size="10.00" fill="#000000">serialize.h</text>
</a>
</g>
</g>
<!-- Node6&#45;&gt;Node18 -->
<g id="edge29" class="edge">
<title>Node6&#45;&gt;Node18</title>
<path fill="none" stroke="#191970" d="M530.0628,-287.9598C581.1258,-283.6012 686.0017,-271.4523 708,-244 728.9524,-217.8529 684.2868,-198.613 647.8252,-187.8572"/>
<polygon fill="#191970" stroke="#191970" points="648.3938,-184.3816 637.82,-185.0498 646.5026,-191.1213 648.3938,-184.3816"/>
</g>
<!-- Node8&#45;&gt;Node9 -->
<g id="edge9" class="edge">
<title>Node8&#45;&gt;Node9</title>
<path fill="none" stroke="#191970" d="M455,-224.2455C455,-216.9382 455,-206.6944 455,-197.7046"/>
<polygon fill="#191970" stroke="#191970" points="458.5001,-197.6426 455,-187.6427 451.5001,-197.6427 458.5001,-197.6426"/>
</g>
<!-- Node10 -->
<g id="node11" class="node">
<title>Node10</title>
<g id="a_node11"><a xlink:href="helios__type_8h.html" target="_top" xlink:title=" ">
<polygon fill="#ffffff" stroke="#000000" points="459,-112.5 459,-131.5 533,-131.5 533,-112.5 459,-112.5"/>
<text text-anchor="middle" x="496" y="-119.5" font-family="Helvetica,sans-Serif" font-size="10.00" fill="#000000">helios_type.h</text>
</a>
</g>
</g>
<!-- Node9&#45;&gt;Node10 -->
<g id="edge10" class="edge">
<title>Node9&#45;&gt;Node10</title>
<path fill="none" stroke="#191970" d="M462.1417,-168.2455C467.8444,-160.4564 475.99,-149.3308 482.8625,-139.9439"/>
<polygon fill="#191970" stroke="#191970" points="485.8568,-141.7789 488.9402,-131.6427 480.2087,-137.6437 485.8568,-141.7789"/>
</g>
<!-- Node10&#45;&gt;Node2 -->
<g id="edge17" class="edge">
<title>Node10&#45;&gt;Node2</title>
<path fill="none" stroke="#191970" d="M458.8099,-114.7936C402.2383,-103.8316 295.395,-83.1284 240.8681,-72.5627"/>
<polygon fill="#191970" stroke="#191970" points="241.4881,-69.1178 231.0048,-70.6515 240.1564,-75.99 241.4881,-69.1178"/>
</g>
<!-- Node10&#45;&gt;Node4 -->
<g id="edge16" class="edge">
<title>Node10&#45;&gt;Node4</title>
<path fill="none" stroke="#191970" d="M519.02,-112.4509C567.1414,-92.4895 678.4836,-46.3031 733.7212,-23.3897"/>
<polygon fill="#191970" stroke="#191970" points="735.1425,-26.5894 743.0382,-19.5249 732.4603,-20.1236 735.1425,-26.5894"/>
</g>
<!-- Node10&#45;&gt;Node11 -->
<g id="edge11" class="edge">
<title>Node10&#45;&gt;Node11</title>
<path fill="none" stroke="#191970" d="M496,-112.2455C496,-104.9382 496,-94.6944 496,-85.7046"/>
<polygon fill="#191970" stroke="#191970" points="499.5001,-85.6426 496,-75.6427 492.5001,-85.6427 499.5001,-85.6426"/>
</g>
<!-- Node11&#45;&gt;Node4 -->
<g id="edge15" class="edge">
<title>Node11&#45;&gt;Node4</title>
<path fill="none" stroke="#191970" d="M541.1919,-56.6269C594.7582,-45.5168 682.8485,-27.2462 731.3261,-17.1916"/>
<polygon fill="#191970" stroke="#191970" points="732.2474,-20.5751 741.3282,-15.1171 730.8258,-13.721 732.2474,-20.5751"/>
</g>
<!-- Node11&#45;&gt;Node7 -->
<g id="edge12" class="edge">
<title>Node11&#45;&gt;Node7</title>
<path fill="none" stroke="#191970" d="M453.3075,-56.4369C407.7992,-46.243 336.0899,-30.1801 290.0635,-19.8702"/>
<polygon fill="#191970" stroke="#191970" points="290.607,-16.4053 280.0837,-17.6348 289.0769,-23.236 290.607,-16.4053"/>
</g>
<!-- Node11&#45;&gt;Node12 -->
<g id="edge13" class="edge">
<title>Node11&#45;&gt;Node12</title>
<path fill="none" stroke="#191970" d="M541.1064,-60.2683C600.4667,-52.4705 707.9481,-37.4715 799,-20 800.656,-19.6822 802.3449,-19.3452 804.0489,-18.9947"/>
<polygon fill="#191970" stroke="#191970" points="804.8127,-22.4105 813.8481,-16.8776 803.3345,-15.5683 804.8127,-22.4105"/>
</g>
<!-- Node13 -->
<g id="node14" class="node">
<title>Node13</title>
<g id="a_node14"><a xlink:title=" ">
<polygon fill="#ffffff" stroke="#bfbfbf" points="470,-.5 470,-19.5 522,-19.5 522,-.5 470,-.5"/>
<text text-anchor="middle" x="496" y="-7.5" font-family="Helvetica,sans-Serif" font-size="10.00" fill="#000000">stddef.h</text>
</a>
</g>
</g>
<!-- Node11&#45;&gt;Node13 -->
<g id="edge14" class="edge">
<title>Node11&#45;&gt;Node13</title>
<path fill="none" stroke="#191970" d="M496,-56.2455C496,-48.9382 496,-38.6944 496,-29.7046"/>
<polygon fill="#191970" stroke="#191970" points="499.5001,-29.6426 496,-19.6427 492.5001,-29.6427 499.5001,-29.6426"/>
</g>
<!-- Node14&#45;&gt;Node9 -->
<g id="edge19" class="edge">
<title>Node14&#45;&gt;Node9</title>
<path fill="none" stroke="#191970" d="M532.6264,-224.2455C518.0692,-215.5731 496.569,-202.7645 479.8848,-192.825"/>
<polygon fill="#191970" stroke="#191970" points="481.5683,-189.7539 471.1859,-187.6427 477.9856,-195.7676 481.5683,-189.7539"/>
</g>
<!-- Node15&#45;&gt;Node9 -->
<g id="edge21" class="edge">
<title>Node15&#45;&gt;Node9</title>
<path fill="none" stroke="#191970" d="M618.1345,-224.3733C584.951,-214.9404 534.245,-200.5265 498.1806,-190.2747"/>
<polygon fill="#191970" stroke="#191970" points="498.9995,-186.8689 488.4236,-187.5011 497.0855,-193.6021 498.9995,-186.8689"/>
</g>
<!-- Node15&#45;&gt;Node12 -->
<g id="edge22" class="edge">
<title>Node15&#45;&gt;Node12</title>
<path fill="none" stroke="#191970" d="M660.1641,-224.375C689.4581,-189.8389 789.5419,-71.8453 827.3648,-27.2541"/>
<polygon fill="#191970" stroke="#191970" points="830.0669,-29.4793 833.8664,-19.5891 824.7286,-24.9513 830.0669,-29.4793"/>
</g>
<!-- Node16&#45;&gt;Node9 -->
<g id="edge24" class="edge">
<title>Node16&#45;&gt;Node9</title>
<path fill="none" stroke="#191970" d="M260.1309,-224.4369C300.2649,-214.8731 362.0775,-200.1432 405.2933,-189.845"/>
<polygon fill="#191970" stroke="#191970" points="406.1183,-193.2465 415.0346,-187.5237 404.4956,-186.4372 406.1183,-193.2465"/>
</g>
<!-- Node17&#45;&gt;Node9 -->
<g id="edge27" class="edge">
<title>Node17&#45;&gt;Node9</title>
<path fill="none" stroke="#191970" d="M343.2073,-224.3733C365.1699,-215.2629 398.3332,-201.5062 422.8401,-191.3404"/>
<polygon fill="#191970" stroke="#191970" points="424.1997,-194.5657 432.0955,-187.5011 421.5176,-188.0999 424.1997,-194.5657"/>
</g>
<!-- Node18&#45;&gt;Node10 -->
<g id="edge30" class="edge">
<title>Node18&#45;&gt;Node10</title>
<path fill="none" stroke="#191970" d="M587.9184,-168.3733C570.2598,-159.4644 543.7947,-146.1127 523.7902,-136.0203"/>
<polygon fill="#191970" stroke="#191970" points="525.3372,-132.8806 514.8326,-131.5011 522.1842,-139.1303 525.3372,-132.8806"/>
</g>
<!-- Node19&#45;&gt;Node4 -->
<g id="edge36" class="edge">
<title>Node19&#45;&gt;Node4</title>
<path fill="none" stroke="#191970" d="M972.1965,-280.2066C966.9113,-260.8521 956,-216.2612 956,-178 956,-178 956,-178 956,-122 956,-90.7875 954.9191,-77.1882 932,-56 929.5271,-53.7138 848.2999,-31.8577 800.4046,-19.1126"/>
<polygon fill="#191970" stroke="#191970" points="801.2941,-15.7275 790.7306,-16.5415 799.4961,-22.4927 801.2941,-15.7275"/>
</g>
<!-- Node19&#45;&gt;Node12 -->
<g id="edge35" class="edge">
<title>Node19&#45;&gt;Node12</title>
<path fill="none" stroke="#191970" d="M977.8035,-280.2066C983.0887,-260.8521 994,-216.2612 994,-178 994,-178 994,-178 994,-122 994,-90.7875 992.1121,-78.029 970,-56 945.8635,-31.9542 908.2752,-20.4012 880.0648,-14.8971"/>
<polygon fill="#191970" stroke="#191970" points="880.5965,-11.4368 870.138,-13.131 879.3704,-18.3286 880.5965,-11.4368"/>
</g>
<!-- Node20&#45;&gt;Node4 -->
<g id="edge39" class="edge">
<title>Node20&#45;&gt;Node4</title>
<path fill="none" stroke="#191970" d="M760.4161,-336.416C754.6244,-299.7735 735.7618,-165.1244 752,-56 753.3327,-47.0439 756.0494,-37.419 758.7381,-29.3"/>
<polygon fill="#191970" stroke="#191970" points="762.1067,-30.272 762.1376,-19.6772 755.5064,-27.9402 762.1067,-30.272"/>
</g>
<!-- Node20&#45;&gt;Node6 -->
<g id="edge38" class="edge">
<title>Node20&#45;&gt;Node6</title>
<path fill="none" stroke="#191970" d="M739.8325,-341.2255C695.5313,-331.6837 595.5872,-310.1573 540.4043,-298.2717"/>
<polygon fill="#191970" stroke="#191970" points="540.8323,-294.7837 530.3195,-296.0996 539.3583,-301.6268 540.8323,-294.7837"/>
</g>
<!-- Node21&#45;&gt;Node3 -->
<g id="edge41" class="edge">
<title>Node21&#45;&gt;Node3</title>
<path fill="none" stroke="#191970" d="M905.6327,-448.2455C895.0446,-439.8943 879.5936,-427.7076 867.2107,-417.9408"/>
<polygon fill="#191970" stroke="#191970" points="869.2447,-415.0875 859.2255,-411.6427 864.9097,-420.5837 869.2447,-415.0875"/>
</g>
<!-- Node21&#45;&gt;Node4 -->
<g id="edge44" class="edge">
<title>Node21&#45;&gt;Node4</title>
<path fill="none" stroke="#191970" d="M918,-448.4116C918,-429.0538 918,-383.9167 918,-346 918,-346 918,-346 918,-122 918,-63.9467 845.2509,-32.6135 800.411,-18.8145"/>
<polygon fill="#191970" stroke="#191970" points="801.3407,-15.4398 790.7597,-15.9805 799.3685,-22.1562 801.3407,-15.4398"/>
</g>
<!-- Node21&#45;&gt;Node12 -->
<g id="edge43" class="edge">
<title>Node21&#45;&gt;Node12</title>
<path fill="none" stroke="#191970" d="M940.251,-448.3895C973.4271,-432.3825 1032,-396.9125 1032,-346 1032,-346 1032,-346 1032,-122 1032,-52.2139 935.6998,-25.0269 880.2172,-15.1545"/>
<polygon fill="#191970" stroke="#191970" points="880.475,-11.6492 870.0352,-13.4547 879.3223,-18.5536 880.475,-11.6492"/>
</g>
<!-- Node21&#45;&gt;Node19 -->
<g id="edge42" class="edge">
<title>Node21&#45;&gt;Node19</title>
<path fill="none" stroke="#191970" d="M921.2279,-448.4862C930.2773,-421.8144 956.0299,-345.9117 968.3178,-309.695"/>
<polygon fill="#191970" stroke="#191970" points="971.7669,-310.4222 971.6655,-299.8279 965.1381,-308.1731 971.7669,-310.4222"/>
</g>
</g>
</svg>
