<?xml version="1.0" encoding="UTF-8" standalone="no"?>
<!DOCTYPE svg PUBLIC "-//W3C//DTD SVG 1.1//EN"
 "http://www.w3.org/Graphics/SVG/1.1/DTD/svg11.dtd">
<!-- Generated by graphviz version 2.40.1 (20161225.0304)
 -->
<!-- Title: main/main.c Pages: 1 -->
<svg width="473pt" height="252pt"
 viewBox="0.00 0.00 473.00 252.00" xmlns="http://www.w3.org/2000/svg" xmlns:xlink="http://www.w3.org/1999/xlink">
<g id="graph0" class="graph" transform="scale(1 1) rotate(0) translate(4 248)">
<title>main/main.c</title>
<polygon fill="#ffffff" stroke="transparent" points="-4,4 -4,-248 469,-248 469,4 -4,4"/>
<!-- Node0 -->
<g id="node1" class="node">
<title>Node0</title>
<g id="a_node1"><a xlink:title=" ">
<polygon fill="#bfbfbf" stroke="#000000" points="189,-224.5 189,-243.5 259,-243.5 259,-224.5 189,-224.5"/>
<text text-anchor="middle" x="224" y="-231.5" font-family="Helvetica,sans-Serif" font-size="10.00" fill="#000000">main/main.c</text>
</a>
</g>
</g>
<!-- Node1 -->
<g id="node2" class="node">
<title>Node1</title>
<g id="a_node2"><a xlink:title=" ">
<polygon fill="#ffffff" stroke="#bfbfbf" points="0,-168.5 0,-187.5 46,-187.5 46,-168.5 0,-168.5"/>
<text text-anchor="middle" x="23" y="-175.5" font-family="Helvetica,sans-Serif" font-size="10.00" fill="#000000">stdio.h</text>
</a>
</g>
</g>
<!-- Node0&#45;&gt;Node1 -->
<g id="edge1" class="edge">
<title>Node0&#45;&gt;Node1</title>
<path fill="none" stroke="#191970" d="M188.9371,-224.8627C156.6897,-216.369 107.3265,-203.1415 55.703,-188.1346"/>
<polygon fill="#191970" stroke="#191970" points="56.6213,-184.7566 46.041,-185.3125 54.6587,-191.4759 56.6213,-184.7566"/>
</g>
<!-- Node2 -->
<g id="node3" class="node">
<title>Node2</title>
<g id="a_node3"><a xlink:title=" ">
<polygon fill="#ffffff" stroke="#bfbfbf" points="64,-168.5 64,-187.5 112,-187.5 112,-168.5 64,-168.5"/>
<text text-anchor="middle" x="88" y="-175.5" font-family="Helvetica,sans-Serif" font-size="10.00" fill="#000000">stdlib.h</text>
</a>
</g>
</g>
<!-- Node0&#45;&gt;Node2 -->
<g id="edge2" class="edge">
<title>Node0&#45;&gt;Node2</title>
<path fill="none" stroke="#191970" d="M200.6208,-224.3733C178.4955,-215.2629 145.0866,-201.5062 120.3981,-191.3404"/>
<polygon fill="#191970" stroke="#191970" points="121.6536,-188.0723 111.0742,-187.5011 118.9883,-194.5451 121.6536,-188.0723"/>
</g>
<!-- Node3 -->
<g id="node4" class="node">
<title>Node3</title>
<g id="a_node4"><a xlink:href="AST_8h.html" target="_top" xlink:title=" ">
<polygon fill="#ffffff" stroke="#000000" points="254,-112.5 254,-131.5 298,-131.5 298,-112.5 254,-112.5"/>
<text text-anchor="middle" x="276" y="-119.5" font-family="Helvetica,sans-Serif" font-size="10.00" fill="#000000">AST.h</text>
</a>
</g>
</g>
<!-- Node0&#45;&gt;Node3 -->
<g id="edge3" class="edge">
<title>Node0&#45;&gt;Node3</title>
<path fill="none" stroke="#191970" d="M236.0465,-224.4014C245.7959,-215.9168 259.0149,-202.6403 266,-188 272.8618,-173.6181 275.2374,-155.6454 275.9664,-142.0882"/>
<polygon fill="#191970" stroke="#191970" points="279.47,-142.0093 276.2539,-131.9144 272.4728,-141.8115 279.47,-142.0093"/>
</g>
<!-- Node7 -->
<g id="node8" class="node">
<title>Node7</title>
<g id="a_node8"><a xlink:href="error_8h.html" target="_top" xlink:title=" ">
<polygon fill="#ffffff" stroke="#000000" points="421,-112.5 421,-131.5 465,-131.5 465,-112.5 421,-112.5"/>
<text text-anchor="middle" x="443" y="-119.5" font-family="Helvetica,sans-Serif" font-size="10.00" fill="#000000">error.h</text>
</a>
</g>
</g>
<!-- Node0&#45;&gt;Node7 -->
<g id="edge8" class="edge">
<title>Node0&#45;&gt;Node7</title>
<path fill="none" stroke="#191970" d="M259.2294,-228.0173C290.8836,-221.5555 337.8152,-209.2193 374,-188 395.7554,-175.2423 416.0226,-154.3377 428.8866,-139.4756"/>
<polygon fill="#191970" stroke="#191970" points="431.8086,-141.4387 435.5606,-131.5304 426.4486,-136.9363 431.8086,-141.4387"/>
</g>
<!-- Node8 -->
<g id="node9" class="node">
<title>Node8</title>
<g id="a_node9"><a xlink:href="generator_8h.html" target="_top" xlink:title=" ">
<polygon fill="#ffffff" stroke="#000000" points="191.5,-168.5 191.5,-187.5 256.5,-187.5 256.5,-168.5 191.5,-168.5"/>
<text text-anchor="middle" x="224" y="-175.5" font-family="Helvetica,sans-Serif" font-size="10.00" fill="#000000">generator.h</text>
</a>
</g>
</g>
<!-- Node0&#45;&gt;Node8 -->
<g id="edge11" class="edge">
<title>Node0&#45;&gt;Node8</title>
<path fill="none" stroke="#191970" d="M224,-224.2455C224,-216.9382 224,-206.6944 224,-197.7046"/>
<polygon fill="#191970" stroke="#191970" points="227.5001,-197.6426 224,-187.6427 220.5001,-197.6427 227.5001,-197.6426"/>
</g>
<!-- Node12 -->
<g id="node13" class="node">
<title>Node12</title>
<g id="a_node13"><a xlink:href="parser_8h.html" target="_top" xlink:title=" ">
<polygon fill="#ffffff" stroke="#000000" points="313.5,-168.5 313.5,-187.5 364.5,-187.5 364.5,-168.5 313.5,-168.5"/>
<text text-anchor="middle" x="339" y="-175.5" font-family="Helvetica,sans-Serif" font-size="10.00" fill="#000000">parser.h</text>
</a>
</g>
</g>
<!-- Node0&#45;&gt;Node12 -->
<g id="edge19" class="edge">
<title>Node0&#45;&gt;Node12</title>
<path fill="none" stroke="#191970" d="M243.7692,-224.3733C262.1469,-215.4241 289.7312,-201.9917 310.4893,-191.8835"/>
<polygon fill="#191970" stroke="#191970" points="312.0304,-195.026 319.4888,-187.5011 308.9657,-188.7325 312.0304,-195.026"/>
</g>
<!-- Node13 -->
<g id="node14" class="node">
<title>Node13</title>
<g id="a_node14"><a xlink:href="files_8h.html" target="_top" xlink:title=" ">
<polygon fill="#ffffff" stroke="#000000" points="130.5,-168.5 130.5,-187.5 173.5,-187.5 173.5,-168.5 130.5,-168.5"/>
<text text-anchor="middle" x="152" y="-175.5" font-family="Helvetica,sans-Serif" font-size="10.00" fill="#000000">files.h</text>
</a>
</g>
</g>
<!-- Node0&#45;&gt;Node13 -->
<g id="edge24" class="edge">
<title>Node0&#45;&gt;Node13</title>
<path fill="none" stroke="#191970" d="M211.4586,-224.2455C200.7213,-215.8943 185.0527,-203.7076 172.4953,-193.9408"/>
<polygon fill="#191970" stroke="#191970" points="174.4401,-191.0194 164.3977,-187.6427 170.1425,-196.5449 174.4401,-191.0194"/>
</g>
<!-- Node4 -->
<g id="node5" class="node">
<title>Node4</title>
<g id="a_node5"><a xlink:title=" ">
<polygon fill="#ffffff" stroke="#bfbfbf" points="198.5,-.5 198.5,-19.5 247.5,-19.5 247.5,-.5 198.5,-.5"/>
<text text-anchor="middle" x="223" y="-7.5" font-family="Helvetica,sans-Serif" font-size="10.00" fill="#000000">stdint.h</text>
</a>
</g>
</g>
<!-- Node3&#45;&gt;Node4 -->
<g id="edge4" class="edge">
<title>Node3&#45;&gt;Node4</title>
<path fill="none" stroke="#191970" d="M267.6473,-112.3763C260.2779,-103.4634 249.6961,-89.5743 243,-76 235.717,-61.2359 230.4878,-43.2916 227.2072,-29.8425"/>
<polygon fill="#191970" stroke="#191970" points="230.5459,-28.741 224.9075,-19.7711 223.7215,-30.2993 230.5459,-28.741"/>
</g>
<!-- Node5 -->
<g id="node6" class="node">
<title>Node5</title>
<g id="a_node6"><a xlink:href="token_8h.html" target="_top" xlink:title=" ">
<polygon fill="#ffffff" stroke="#000000" points="251.5,-56.5 251.5,-75.5 300.5,-75.5 300.5,-56.5 251.5,-56.5"/>
<text text-anchor="middle" x="276" y="-63.5" font-family="Helvetica,sans-Serif" font-size="10.00" fill="#000000">token.h</text>
</a>
</g>
</g>
<!-- Node3&#45;&gt;Node5 -->
<g id="edge5" class="edge">
<title>Node3&#45;&gt;Node5</title>
<path fill="none" stroke="#191970" d="M276,-112.2455C276,-104.9382 276,-94.6944 276,-85.7046"/>
<polygon fill="#191970" stroke="#191970" points="279.5001,-85.6426 276,-75.6427 272.5001,-85.6427 279.5001,-85.6426"/>
</g>
<!-- Node5&#45;&gt;Node4 -->
<g id="edge7" class="edge">
<title>Node5&#45;&gt;Node4</title>
<path fill="none" stroke="#191970" d="M266.7681,-56.2455C259.1683,-48.2155 248.2123,-36.6394 239.1632,-27.0781"/>
<polygon fill="#191970" stroke="#191970" points="241.542,-24.4998 232.1261,-19.6427 236.4579,-29.3115 241.542,-24.4998"/>
</g>
<!-- Node6 -->
<g id="node7" class="node">
<title>Node6</title>
<g id="a_node7"><a xlink:title=" ">
<polygon fill="#ffffff" stroke="#bfbfbf" points="377,-.5 377,-19.5 433,-19.5 433,-.5 377,-.5"/>
<text text-anchor="middle" x="405" y="-7.5" font-family="Helvetica,sans-Serif" font-size="10.00" fill="#000000">stdbool.h</text>
</a>
</g>
</g>
<!-- Node5&#45;&gt;Node6 -->
<g id="edge6" class="edge">
<title>Node5&#45;&gt;Node6</title>
<path fill="none" stroke="#191970" d="M298.1759,-56.3733C318.9766,-47.3435 350.2917,-33.7494 373.6458,-23.6111"/>
<polygon fill="#191970" stroke="#191970" points="375.3343,-26.6938 383.1135,-19.5011 372.5468,-20.2727 375.3343,-26.6938"/>
</g>
<!-- Node7&#45;&gt;Node4 -->
<g id="edge10" class="edge">
<title>Node7&#45;&gt;Node4</title>
<path fill="none" stroke="#191970" d="M430.2898,-112.2982C411.8128,-98.5061 376.1174,-73.0194 343,-56 315.0938,-41.6587 281.6364,-29.1928 257.1473,-20.8694"/>
<polygon fill="#191970" stroke="#191970" points="258.1675,-17.5201 247.5738,-17.6709 255.9493,-24.1594 258.1675,-17.5201"/>
</g>
<!-- Node7&#45;&gt;Node6 -->
<g id="edge9" class="edge">
<title>Node7&#45;&gt;Node6</title>
<path fill="none" stroke="#191970" d="M439.7601,-112.4509C433.5063,-94.0186 419.6658,-53.2254 411.461,-29.043"/>
<polygon fill="#191970" stroke="#191970" points="414.7591,-27.8701 408.2317,-19.5249 408.1303,-30.1192 414.7591,-27.8701"/>
</g>
<!-- Node8&#45;&gt;Node3 -->
<g id="edge12" class="edge">
<title>Node8&#45;&gt;Node3</title>
<path fill="none" stroke="#191970" d="M233.0577,-168.2455C240.5142,-160.2155 251.2634,-148.6394 260.1417,-139.0781"/>
<polygon fill="#191970" stroke="#191970" points="262.8063,-141.3522 267.0461,-131.6427 257.6768,-136.589 262.8063,-141.3522"/>
</g>
<!-- Node9 -->
<g id="node10" class="node">
<title>Node9</title>
<g id="a_node10"><a xlink:href="program_8h.html" target="_top" xlink:title=" ">
<polygon fill="#ffffff" stroke="#000000" points="122,-112.5 122,-131.5 182,-131.5 182,-112.5 122,-112.5"/>
<text text-anchor="middle" x="152" y="-119.5" font-family="Helvetica,sans-Serif" font-size="10.00" fill="#000000">program.h</text>
</a>
</g>
</g>
<!-- Node8&#45;&gt;Node9 -->
<g id="edge13" class="edge">
<title>Node8&#45;&gt;Node9</title>
<path fill="none" stroke="#191970" d="M211.4586,-168.2455C200.7213,-159.8943 185.0527,-147.7076 172.4953,-137.9408"/>
<polygon fill="#191970" stroke="#191970" points="174.4401,-135.0194 164.3977,-131.6427 170.1425,-140.5449 174.4401,-135.0194"/>
</g>
<!-- Node9&#45;&gt;Node4 -->
<g id="edge18" class="edge">
<title>Node9&#45;&gt;Node4</title>
<path fill="none" stroke="#191970" d="M121.6543,-116.894C79.2086,-108.4398 10.0567,-89.0985 36,-56 54.5425,-32.3435 139.289,-19.2254 188.0928,-13.5122"/>
<polygon fill="#191970" stroke="#191970" points="188.6691,-16.9696 198.2148,-12.373 187.8861,-10.0135 188.6691,-16.9696"/>
</g>
<!-- Node10 -->
<g id="node11" class="node">
<title>Node10</title>
<g id="a_node11"><a xlink:href="constant_8h.html" target="_top" xlink:title=" ">
<polygon fill="#ffffff" stroke="#000000" points="45,-56.5 45,-75.5 107,-75.5 107,-56.5 45,-56.5"/>
<text text-anchor="middle" x="76" y="-63.5" font-family="Helvetica,sans-Serif" font-size="10.00" fill="#000000">constant.h</text>
</a>
</g>
</g>
<!-- Node9&#45;&gt;Node10 -->
<g id="edge14" class="edge">
<title>Node9&#45;&gt;Node10</title>
<path fill="none" stroke="#191970" d="M138.7618,-112.2455C127.319,-103.814 110.5704,-91.4729 97.2525,-81.6598"/>
<polygon fill="#191970" stroke="#191970" points="99.2133,-78.757 89.0865,-75.6427 95.0609,-84.3924 99.2133,-78.757"/>
</g>
<!-- Node11 -->
<g id="node12" class="node">
<title>Node11</title>
<g id="a_node12"><a xlink:href="instruction_8h.html" target="_top" xlink:title=" ">
<polygon fill="#ffffff" stroke="#000000" points="125,-56.5 125,-75.5 195,-75.5 195,-56.5 125,-56.5"/>
<text text-anchor="middle" x="160" y="-63.5" font-family="Helvetica,sans-Serif" font-size="10.00" fill="#000000">instruction.h</text>
</a>
</g>
</g>
<!-- Node9&#45;&gt;Node11 -->
<g id="edge16" class="edge">
<title>Node9&#45;&gt;Node11</title>
<path fill="none" stroke="#191970" d="M153.3935,-112.2455C154.4374,-104.9382 155.9008,-94.6944 157.1851,-85.7046"/>
<polygon fill="#191970" stroke="#191970" points="160.673,-86.0372 158.6225,-75.6427 153.7434,-85.0472 160.673,-86.0372"/>
</g>
<!-- Node10&#45;&gt;Node4 -->
<g id="edge15" class="edge">
<title>Node10&#45;&gt;Node4</title>
<path fill="none" stroke="#191970" d="M101.2702,-56.3733C125.3966,-47.1822 161.9362,-33.2624 188.6877,-23.0713"/>
<polygon fill="#191970" stroke="#191970" points="189.9607,-26.3318 198.0596,-19.5011 187.4687,-19.7904 189.9607,-26.3318"/>
</g>
<!-- Node11&#45;&gt;Node4 -->
<g id="edge17" class="edge">
<title>Node11&#45;&gt;Node4</title>
<path fill="none" stroke="#191970" d="M170.9738,-56.2455C180.1882,-48.0549 193.5532,-36.1749 204.4297,-26.5069"/>
<polygon fill="#191970" stroke="#191970" points="207.0032,-28.9023 212.152,-19.6427 202.3526,-23.6704 207.0032,-28.9023"/>
</g>
<!-- Node12&#45;&gt;Node3 -->
<g id="edge20" class="edge">
<title>Node12&#45;&gt;Node3</title>
<path fill="none" stroke="#191970" d="M328.0262,-168.2455C318.8118,-160.0549 305.4468,-148.1749 294.5703,-138.5069"/>
<polygon fill="#191970" stroke="#191970" points="296.6474,-135.6704 286.848,-131.6427 291.9968,-140.9023 296.6474,-135.6704"/>
</g>
<!-- Node12&#45;&gt;Node4 -->
<g id="edge23" class="edge">
<title>Node12&#45;&gt;Node4</title>
<path fill="none" stroke="#191970" d="M339.2693,-168.3169C339.3896,-146.0761 336.7914,-90.5989 310,-56 296.7883,-38.9381 275.4365,-27.5149 257.1925,-20.3196"/>
<polygon fill="#191970" stroke="#191970" points="258.3159,-17.0036 247.7223,-16.8415 255.9027,-23.5745 258.3159,-17.0036"/>
</g>
<!-- Node12&#45;&gt;Node6 -->
<g id="edge22" class="edge">
<title>Node12&#45;&gt;Node6</title>
<path fill="none" stroke="#191970" d="M342.7375,-168.4862C353.2609,-141.6994 383.2921,-65.2565 397.4458,-29.2289"/>
<polygon fill="#191970" stroke="#191970" points="400.7401,-30.4152 401.139,-19.8279 394.2248,-27.8556 400.7401,-30.4152"/>
</g>
<!-- Node12&#45;&gt;Node7 -->
<g id="edge21" class="edge">
<title>Node12&#45;&gt;Node7</title>
<path fill="none" stroke="#191970" d="M357.1154,-168.2455C373.445,-159.4527 397.671,-146.4079 416.2339,-136.4125"/>
<polygon fill="#191970" stroke="#191970" points="417.9468,-139.4654 425.0922,-131.6427 414.6281,-133.3021 417.9468,-139.4654"/>
</g>
<!-- Node13&#45;&gt;Node9 -->
<g id="edge25" class="edge">
<title>Node13&#45;&gt;Node9</title>
<path fill="none" stroke="#191970" d="M152,-168.2455C152,-160.9382 152,-150.6944 152,-141.7046"/>
<polygon fill="#191970" stroke="#191970" points="155.5001,-141.6426 152,-131.6427 148.5001,-141.6427 155.5001,-141.6426"/>
</g>
</g>
</svg>
