<?xml version="1.0" encoding="UTF-8" standalone="no"?>
<!DOCTYPE svg PUBLIC "-//W3C//DTD SVG 1.1//EN"
 "http://www.w3.org/Graphics/SVG/1.1/DTD/svg11.dtd">
<!-- Generated by graphviz version 2.40.1 (20161225.0304)
 -->
<!-- Title: main Pages: 1 -->
<svg width="584pt" height="379pt"
 viewBox="0.00 0.00 584.00 379.00" xmlns="http://www.w3.org/2000/svg" xmlns:xlink="http://www.w3.org/1999/xlink">
<g id="graph0" class="graph" transform="scale(1 1) rotate(0) translate(4 375)">
<title>main</title>
<polygon fill="#ffffff" stroke="transparent" points="-4,4 -4,-375 580,-375 580,4 -4,4"/>
<!-- Node0 -->
<g id="node1" class="node">
<title>Node0</title>
<g id="a_node1"><a xlink:title=" ">
<polygon fill="#bfbfbf" stroke="#000000" points="0,-132.5 0,-151.5 38,-151.5 38,-132.5 0,-132.5"/>
<text text-anchor="middle" x="19" y="-139.5" font-family="Helvetica,sans-Serif" font-size="10.00" fill="#000000">main</text>
</a>
</g>
</g>
<!-- Node1 -->
<g id="node2" class="node">
<title>Node1</title>
<g id="a_node2"><a xlink:href="files_8c.html#ad9909e16f65d8f14412653a8674df0d9" target="_top" xlink:title=" ">
<polygon fill="#ffffff" stroke="#000000" points="105.5,-260.5 105.5,-279.5 185.5,-279.5 185.5,-260.5 105.5,-260.5"/>
<text text-anchor="middle" x="145.5" y="-267.5" font-family="Helvetica,sans-Serif" font-size="10.00" fill="#000000">readfiletostring</text>
</a>
</g>
</g>
<!-- Node0&#45;&gt;Node1 -->
<g id="edge1" class="edge">
<title>Node0&#45;&gt;Node1</title>
<path fill="none" stroke="#191970" d="M21.0182,-151.5313C26.0281,-172.7865 41.0797,-224.291 74,-251 80.2416,-256.064 87.7042,-259.7876 95.4178,-262.5234"/>
<polygon fill="#191970" stroke="#191970" points="94.665,-265.952 105.2496,-265.4872 96.6853,-259.2499 94.665,-265.952"/>
</g>
<!-- Node2 -->
<g id="node3" class="node">
<title>Node2</title>
<g id="a_node3"><a xlink:href="parser_8h.html#ac230f189b920bf540a0e14b079c3caf7" target="_top" xlink:title="Parser Entrypoint.">
<polygon fill="#ffffff" stroke="#000000" points="96.5,-222.5 96.5,-241.5 194.5,-241.5 194.5,-222.5 96.5,-222.5"/>
<text text-anchor="middle" x="145.5" y="-229.5" font-family="Helvetica,sans-Serif" font-size="10.00" fill="#000000">parser_parseString</text>
</a>
</g>
</g>
<!-- Node0&#45;&gt;Node2 -->
<g id="edge2" class="edge">
<title>Node0&#45;&gt;Node2</title>
<path fill="none" stroke="#191970" d="M26.3105,-151.5318C36.0964,-163.788 54.4957,-185.1395 74,-199 84.8159,-206.6862 97.7076,-213.2876 109.5466,-218.522"/>
<polygon fill="#191970" stroke="#191970" points="108.1824,-221.7451 118.7557,-222.4213 110.9119,-215.2992 108.1824,-221.7451"/>
</g>
<!-- Node15 -->
<g id="node16" class="node">
<title>Node15</title>
<g id="a_node16"><a xlink:href="AST_8c.html#a58d5ba08d8eda04b6d0414ed3d43a60f" target="_top" xlink:title="Print an ast object.">
<polygon fill="#ffffff" stroke="#000000" points="115.5,-170.5 115.5,-189.5 175.5,-189.5 175.5,-170.5 115.5,-170.5"/>
<text text-anchor="middle" x="145.5" y="-177.5" font-family="Helvetica,sans-Serif" font-size="10.00" fill="#000000">AST_print</text>
</a>
</g>
</g>
<!-- Node0&#45;&gt;Node15 -->
<g id="edge15" class="edge">
<title>Node0&#45;&gt;Node15</title>
<path fill="none" stroke="#191970" d="M38.2322,-149.029C48.7401,-152.7718 62.0186,-157.3438 74,-161 84.1349,-164.0927 95.1632,-167.1653 105.4565,-169.9096"/>
<polygon fill="#191970" stroke="#191970" points="104.8834,-173.3777 115.4445,-172.533 106.6617,-166.6073 104.8834,-173.3777"/>
</g>
<!-- Node18 -->
<g id="node19" class="node">
<title>Node18</title>
<g id="a_node19"><a xlink:href="generator_8c.html#a594404944250328ce93425fec273eba4" target="_top" xlink:title=" ">
<polygon fill="#ffffff" stroke="#000000" points="74,-132.5 74,-151.5 217,-151.5 217,-132.5 74,-132.5"/>
<text text-anchor="middle" x="145.5" y="-139.5" font-family="Helvetica,sans-Serif" font-size="10.00" fill="#000000">generate_bytecode_from_ast</text>
</a>
</g>
</g>
<!-- Node0&#45;&gt;Node18 -->
<g id="edge18" class="edge">
<title>Node0&#45;&gt;Node18</title>
<path fill="none" stroke="#191970" d="M38.2126,-142C45.4969,-142 54.3282,-142 63.761,-142"/>
<polygon fill="#191970" stroke="#191970" points="63.7691,-145.5001 73.7691,-142 63.7691,-138.5001 63.7691,-145.5001"/>
</g>
<!-- Node20 -->
<g id="node21" class="node">
<title>Node20</title>
<g id="a_node21"><a xlink:href="files_8c.html#a9939a0318428d912d51fa718d511bedd" target="_top" xlink:title=" ">
<polygon fill="#ffffff" stroke="#000000" points="98.5,-94.5 98.5,-113.5 192.5,-113.5 192.5,-94.5 98.5,-94.5"/>
<text text-anchor="middle" x="145.5" y="-101.5" font-family="Helvetica,sans-Serif" font-size="10.00" fill="#000000">writeprogramtofile</text>
</a>
</g>
</g>
<!-- Node0&#45;&gt;Node20 -->
<g id="edge20" class="edge">
<title>Node0&#45;&gt;Node20</title>
<path fill="none" stroke="#191970" d="M38.2322,-134.971C48.7401,-131.2282 62.0186,-126.6562 74,-123 81.6012,-120.6805 89.7049,-118.3723 97.6242,-116.2054"/>
<polygon fill="#191970" stroke="#191970" points="98.7582,-119.5248 107.5049,-113.5461 96.9389,-112.7654 98.7582,-119.5248"/>
</g>
<!-- Node21 -->
<g id="node22" class="node">
<title>Node21</title>
<g id="a_node22"><a xlink:href="AST_8c.html#adc8be8765bd5abffeef1f5649587cb45" target="_top" xlink:title="Destructor for ast objects.">
<polygon fill="#ffffff" stroke="#000000" points="116.5,-38.5 116.5,-57.5 174.5,-57.5 174.5,-38.5 116.5,-38.5"/>
<text text-anchor="middle" x="145.5" y="-45.5" font-family="Helvetica,sans-Serif" font-size="10.00" fill="#000000">AST_free</text>
</a>
</g>
</g>
<!-- Node0&#45;&gt;Node21 -->
<g id="edge21" class="edge">
<title>Node0&#45;&gt;Node21</title>
<path fill="none" stroke="#191970" d="M26.7528,-132.1813C36.7257,-120.0053 55.034,-99.1327 74,-85 85.9674,-76.0824 100.3912,-68.1667 113.1399,-61.9686"/>
<polygon fill="#191970" stroke="#191970" points="114.9304,-64.9945 122.4941,-57.5755 111.9547,-58.6585 114.9304,-64.9945"/>
</g>
<!-- Node23 -->
<g id="node24" class="node">
<title>Node23</title>
<g id="a_node24"><a xlink:href="program_8h.html#a080a679b7f252d4db66d6c31ad53c99f" target="_top" xlink:title=" ">
<polygon fill="#ffffff" stroke="#000000" points="104,-.5 104,-19.5 187,-19.5 187,-.5 104,-.5"/>
<text text-anchor="middle" x="145.5" y="-7.5" font-family="Helvetica,sans-Serif" font-size="10.00" fill="#000000">program_delete</text>
</a>
</g>
</g>
<!-- Node0&#45;&gt;Node23 -->
<g id="edge24" class="edge">
<title>Node0&#45;&gt;Node23</title>
<path fill="none" stroke="#191970" d="M20.8369,-132.4535C25.5462,-110.6383 40.1429,-56.874 74,-29 79.7946,-24.2294 86.6694,-20.6468 93.8293,-17.9583"/>
<polygon fill="#191970" stroke="#191970" points="95.2272,-21.1865 103.6949,-14.8188 93.1044,-14.5161 95.2272,-21.1865"/>
</g>
<!-- Node3 -->
<g id="node4" class="node">
<title>Node3</title>
<g id="a_node4"><a xlink:href="parserutil_8c.html#aeabb62e46d4414de7848d31d805ab834" target="_top" xlink:title="Parser constructor.">
<polygon fill="#ffffff" stroke="#000000" points="273.5,-351.5 273.5,-370.5 340.5,-370.5 340.5,-351.5 273.5,-351.5"/>
<text text-anchor="middle" x="307" y="-358.5" font-family="Helvetica,sans-Serif" font-size="10.00" fill="#000000">parser_new</text>
</a>
</g>
</g>
<!-- Node2&#45;&gt;Node3 -->
<g id="edge3" class="edge">
<title>Node2&#45;&gt;Node3</title>
<path fill="none" stroke="#191970" d="M194.7256,-238.553C202.8451,-241.3749 210.6657,-245.3665 217,-251 249.5003,-279.9047 221.6603,-311.8408 253,-342 256.2706,-345.1474 260.093,-347.7765 264.1661,-349.9721"/>
<polygon fill="#191970" stroke="#191970" points="262.8117,-353.2007 273.3667,-354.119 265.6881,-346.8189 262.8117,-353.2007"/>
</g>
<!-- Node5 -->
<g id="node6" class="node">
<title>Node5</title>
<g id="a_node6"><a xlink:href="parserutil_8c.html#a2d9e8c20025b7b883c4e87790685a6ad" target="_top" xlink:title="Proxy to parser_next.">
<polygon fill="#ffffff" stroke="#000000" points="264,-313.5 264,-332.5 350,-332.5 350,-313.5 264,-313.5"/>
<text text-anchor="middle" x="307" y="-320.5" font-family="Helvetica,sans-Serif" font-size="10.00" fill="#000000">parser_advance</text>
</a>
</g>
</g>
<!-- Node2&#45;&gt;Node5 -->
<g id="edge5" class="edge">
<title>Node2&#45;&gt;Node5</title>
<path fill="none" stroke="#191970" d="M194.5137,-240.0061C202.474,-242.679 210.2952,-246.2443 217,-251 240.2264,-267.4742 230.4388,-286.626 253,-304 255.3253,-305.7907 257.8328,-307.4211 260.4494,-308.9043"/>
<polygon fill="#191970" stroke="#191970" points="259.1381,-312.159 269.6601,-313.3995 262.2083,-305.8681 259.1381,-312.159"/>
</g>
<!-- Node7 -->
<g id="node8" class="node">
<title>Node7</title>
<g id="a_node8"><a xlink:href="parser_8h.html#a909b31712182aae737a48cd819f43a2d" target="_top" xlink:title=" ">
<polygon fill="#ffffff" stroke="#000000" points="274.5,-275.5 274.5,-294.5 339.5,-294.5 339.5,-275.5 274.5,-275.5"/>
<text text-anchor="middle" x="307" y="-282.5" font-family="Helvetica,sans-Serif" font-size="10.00" fill="#000000">parser_root</text>
</a>
</g>
</g>
<!-- Node2&#45;&gt;Node7 -->
<g id="edge7" class="edge">
<title>Node2&#45;&gt;Node7</title>
<path fill="none" stroke="#191970" d="M185.1221,-241.5088C195.5737,-244.2941 206.7837,-247.5319 217,-251 233.4134,-256.5718 236.8182,-259.7877 253,-266 258.219,-268.0036 263.7515,-270.044 269.2079,-272.0084"/>
<polygon fill="#191970" stroke="#191970" points="268.2683,-275.3888 278.863,-275.4376 270.6112,-268.7925 268.2683,-275.3888"/>
</g>
<!-- Node8 -->
<g id="node9" class="node">
<title>Node8</title>
<g id="a_node9"><a xlink:href="error_8c.html#abd91e0920f6396db920ea38a4d701613" target="_top" xlink:title="Return true if a given errorstack is empty.">
<polygon fill="#ffffff" stroke="#000000" points="261,-237.5 261,-256.5 353,-256.5 353,-237.5 261,-237.5"/>
<text text-anchor="middle" x="307" y="-244.5" font-family="Helvetica,sans-Serif" font-size="10.00" fill="#000000">errorstack_empty</text>
</a>
</g>
</g>
<!-- Node2&#45;&gt;Node8 -->
<g id="edge8" class="edge">
<title>Node2&#45;&gt;Node8</title>
<path fill="none" stroke="#191970" d="M194.8329,-236.582C212.4395,-238.2173 232.4071,-240.0719 250.5654,-241.7584"/>
<polygon fill="#191970" stroke="#191970" points="250.4465,-245.2623 260.7273,-242.7022 251.0939,-238.2923 250.4465,-245.2623"/>
</g>
<!-- Node9 -->
<g id="node10" class="node">
<title>Node9</title>
<g id="a_node10"><a xlink:href="error_8c.html#a92a76599dc7f44ae25eb33a79f8c1268" target="_top" xlink:title="Throw all errors on the errorstack.">
<polygon fill="#ffffff" stroke="#000000" points="253,-199.5 253,-218.5 361,-218.5 361,-199.5 253,-199.5"/>
<text text-anchor="middle" x="307" y="-206.5" font-family="Helvetica,sans-Serif" font-size="10.00" fill="#000000">errorstack_traceback</text>
</a>
</g>
</g>
<!-- Node2&#45;&gt;Node9 -->
<g id="edge9" class="edge">
<title>Node2&#45;&gt;Node9</title>
<path fill="none" stroke="#191970" d="M194.8329,-224.9743C209.8995,-222.8286 226.6948,-220.4366 242.6059,-218.1707"/>
<polygon fill="#191970" stroke="#191970" points="243.5004,-221.5787 252.907,-216.7036 242.5134,-214.6486 243.5004,-221.5787"/>
</g>
<!-- Node13 -->
<g id="node14" class="node">
<title>Node13</title>
<g id="a_node14"><a xlink:href="parserutil_8c.html#a1ddd27828ac4848a4b9c05eb6190852f" target="_top" xlink:title="Parser destructor.">
<polygon fill="#ffffff" stroke="#000000" points="274.5,-161.5 274.5,-180.5 339.5,-180.5 339.5,-161.5 274.5,-161.5"/>
<text text-anchor="middle" x="307" y="-168.5" font-family="Helvetica,sans-Serif" font-size="10.00" fill="#000000">parser_free</text>
</a>
</g>
</g>
<!-- Node2&#45;&gt;Node13 -->
<g id="edge13" class="edge">
<title>Node2&#45;&gt;Node13</title>
<path fill="none" stroke="#191970" d="M169.3207,-222.424C191.0455,-213.7549 224.0712,-200.737 253,-190 258.2992,-188.0332 263.9092,-186.0025 269.4302,-184.0334"/>
<polygon fill="#191970" stroke="#191970" points="270.9254,-187.2171 279.1858,-180.5825 268.591,-180.6177 270.9254,-187.2171"/>
</g>
<!-- Node4 -->
<g id="node5" class="node">
<title>Node4</title>
<g id="a_node5"><a xlink:href="error_8c.html#a801707ae606a85c72383643bf3ce5875" target="_top" xlink:title="Creates a new errorstack object.">
<polygon fill="#ffffff" stroke="#000000" points="397,-351.5 397,-370.5 480,-370.5 480,-351.5 397,-351.5"/>
<text text-anchor="middle" x="438.5" y="-358.5" font-family="Helvetica,sans-Serif" font-size="10.00" fill="#000000">errorstack_new</text>
</a>
</g>
</g>
<!-- Node3&#45;&gt;Node4 -->
<g id="edge4" class="edge">
<title>Node3&#45;&gt;Node4</title>
<path fill="none" stroke="#191970" d="M340.5232,-361C354.3724,-361 370.7558,-361 386.1218,-361"/>
<polygon fill="#191970" stroke="#191970" points="386.5537,-364.5001 396.5536,-361 386.5536,-357.5001 386.5537,-364.5001"/>
</g>
<!-- Node6 -->
<g id="node7" class="node">
<title>Node6</title>
<g id="a_node7"><a xlink:href="parserutil_8c.html#ab25a97ff31329fe9461666bfe2dc6f2c" target="_top" xlink:title="Iterate the parser.">
<polygon fill="#ffffff" stroke="#000000" points="404.5,-313.5 404.5,-332.5 472.5,-332.5 472.5,-313.5 404.5,-313.5"/>
<text text-anchor="middle" x="438.5" y="-320.5" font-family="Helvetica,sans-Serif" font-size="10.00" fill="#000000">parser_next</text>
</a>
</g>
</g>
<!-- Node5&#45;&gt;Node6 -->
<g id="edge6" class="edge">
<title>Node5&#45;&gt;Node6</title>
<path fill="none" stroke="#191970" d="M350.058,-323C364.1622,-323 379.8543,-323 394.0588,-323"/>
<polygon fill="#191970" stroke="#191970" points="394.0949,-326.5001 404.0949,-323 394.0948,-319.5001 394.0949,-326.5001"/>
</g>
<!-- Node10 -->
<g id="node11" class="node">
<title>Node10</title>
<g id="a_node11"><a xlink:href="error_8c.html#adc799734c0f6f7e223ee20590c3b46e8" target="_top" xlink:title=" ">
<polygon fill="#ffffff" stroke="#000000" points="406,-237.5 406,-256.5 471,-256.5 471,-237.5 406,-237.5"/>
<text text-anchor="middle" x="438.5" y="-244.5" font-family="Helvetica,sans-Serif" font-size="10.00" fill="#000000">error_throw</text>
</a>
</g>
</g>
<!-- Node9&#45;&gt;Node10 -->
<g id="edge10" class="edge">
<title>Node9&#45;&gt;Node10</title>
<path fill="none" stroke="#191970" d="M340.183,-218.589C357.1311,-223.4865 377.9414,-229.5002 396.0454,-234.7318"/>
<polygon fill="#191970" stroke="#191970" points="395.2045,-238.1319 405.7831,-237.5457 397.1479,-231.4071 395.2045,-238.1319"/>
</g>
<!-- Node12 -->
<g id="node13" class="node">
<title>Node12</title>
<g id="a_node13"><a xlink:href="error_8c.html#a08f836642a23e867f57c5f849f26443c" target="_top" xlink:title="Return the top error of the errorstack.">
<polygon fill="#ffffff" stroke="#000000" points="399,-199.5 399,-218.5 478,-218.5 478,-199.5 399,-199.5"/>
<text text-anchor="middle" x="438.5" y="-206.5" font-family="Helvetica,sans-Serif" font-size="10.00" fill="#000000">errorstack_top</text>
</a>
</g>
</g>
<!-- Node9&#45;&gt;Node12 -->
<g id="edge12" class="edge">
<title>Node9&#45;&gt;Node12</title>
<path fill="none" stroke="#191970" d="M361.2453,-209C370.2967,-209 379.6483,-209 388.5849,-209"/>
<polygon fill="#191970" stroke="#191970" points="388.8423,-212.5001 398.8422,-209 388.8422,-205.5001 388.8423,-212.5001"/>
</g>
<!-- Node11 -->
<g id="node12" class="node">
<title>Node11</title>
<g id="a_node12"><a xlink:href="error_8c.html#a661c01cb3d40abca57dc9d223e3d6381" target="_top" xlink:title="prints an error struct">
<polygon fill="#ffffff" stroke="#000000" points="516,-237.5 516,-256.5 576,-256.5 576,-237.5 516,-237.5"/>
<text text-anchor="middle" x="546" y="-244.5" font-family="Helvetica,sans-Serif" font-size="10.00" fill="#000000">error_print</text>
</a>
</g>
</g>
<!-- Node10&#45;&gt;Node11 -->
<g id="edge11" class="edge">
<title>Node10&#45;&gt;Node11</title>
<path fill="none" stroke="#191970" d="M471.0453,-247C481.9273,-247 494.1904,-247 505.5972,-247"/>
<polygon fill="#191970" stroke="#191970" points="505.7681,-250.5001 515.7681,-247 505.768,-243.5001 505.7681,-250.5001"/>
</g>
<!-- Node14 -->
<g id="node15" class="node">
<title>Node14</title>
<g id="a_node15"><a xlink:href="error_8c.html#a307900324127113f505e2011b6fa2c45" target="_top" xlink:title=" ">
<polygon fill="#ffffff" stroke="#000000" points="397.5,-161.5 397.5,-180.5 479.5,-180.5 479.5,-161.5 397.5,-161.5"/>
<text text-anchor="middle" x="438.5" y="-168.5" font-family="Helvetica,sans-Serif" font-size="10.00" fill="#000000">errorstack_free</text>
</a>
</g>
</g>
<!-- Node13&#45;&gt;Node14 -->
<g id="edge14" class="edge">
<title>Node13&#45;&gt;Node14</title>
<path fill="none" stroke="#191970" d="M339.5056,-171C353.8553,-171 371.072,-171 387.094,-171"/>
<polygon fill="#191970" stroke="#191970" points="387.4082,-174.5001 397.4082,-171 387.4081,-167.5001 387.4082,-174.5001"/>
</g>
<!-- Node16 -->
<g id="node17" class="node">
<title>Node16</title>
<g id="a_node17"><a xlink:href="AST_8c.html#aec2b1350d43ba95c45e32469270abd46" target="_top" xlink:title="Recursively prints an ast.">
<polygon fill="#ffffff" stroke="#000000" points="261,-123.5 261,-142.5 353,-142.5 353,-123.5 261,-123.5"/>
<text text-anchor="middle" x="307" y="-130.5" font-family="Helvetica,sans-Serif" font-size="10.00" fill="#000000">AST_print_helper</text>
</a>
</g>
</g>
<!-- Node15&#45;&gt;Node16 -->
<g id="edge16" class="edge">
<title>Node15&#45;&gt;Node16</title>
<path fill="none" stroke="#191970" d="M175.8449,-172.2364C188.5889,-168.8982 203.5479,-164.8781 217,-161 233.6385,-156.2034 251.8997,-150.5879 267.599,-145.6502"/>
<polygon fill="#191970" stroke="#191970" points="269.0234,-148.8707 277.5029,-142.5187 266.913,-142.1964 269.0234,-148.8707"/>
</g>
<!-- Node17 -->
<g id="node18" class="node">
<title>Node17</title>
<g id="a_node18"><a xlink:href="token_8h.html#a347371dbade2f4df7ca01fd60f226951" target="_top" xlink:title="Prints a token object.">
<polygon fill="#ffffff" stroke="#000000" points="406,-123.5 406,-142.5 471,-142.5 471,-123.5 406,-123.5"/>
<text text-anchor="middle" x="438.5" y="-130.5" font-family="Helvetica,sans-Serif" font-size="10.00" fill="#000000">token_print</text>
</a>
</g>
</g>
<!-- Node16&#45;&gt;Node17 -->
<g id="edge17" class="edge">
<title>Node16&#45;&gt;Node17</title>
<path fill="none" stroke="#191970" d="M353.362,-133C367.1503,-133 382.188,-133 395.7361,-133"/>
<polygon fill="#191970" stroke="#191970" points="395.7607,-136.5001 405.7607,-133 395.7606,-129.5001 395.7607,-136.5001"/>
</g>
<!-- Node19 -->
<g id="node20" class="node">
<title>Node19</title>
<g id="a_node20"><a xlink:href="program_8h.html#a8f50482d1feff9840c4af25207fbb332" target="_top" xlink:title=" ">
<polygon fill="#ffffff" stroke="#000000" points="269.5,-85.5 269.5,-104.5 344.5,-104.5 344.5,-85.5 269.5,-85.5"/>
<text text-anchor="middle" x="307" y="-92.5" font-family="Helvetica,sans-Serif" font-size="10.00" fill="#000000">program_new</text>
</a>
</g>
</g>
<!-- Node18&#45;&gt;Node19 -->
<g id="edge19" class="edge">
<title>Node18&#45;&gt;Node19</title>
<path fill="none" stroke="#191970" d="M182.6914,-132.4329C193.7582,-129.501 205.8927,-126.2021 217,-123 233.6385,-118.2034 251.8997,-112.5879 267.599,-107.6502"/>
<polygon fill="#191970" stroke="#191970" points="269.0234,-110.8707 277.5029,-104.5187 266.913,-104.1964 269.0234,-110.8707"/>
</g>
<!-- Node21&#45;&gt;Node21 -->
<g id="edge22" class="edge">
<title>Node21&#45;&gt;Node21</title>
<path fill="none" stroke="#191970" d="M126.0797,-57.7571C116.632,-66.5653 123.1055,-76 145.5,-76 159.8465,-76 167.659,-72.128 168.9374,-67.0292"/>
<polygon fill="#191970" stroke="#191970" points="172.1073,-65.5415 164.9203,-57.7571 165.6842,-68.3243 172.1073,-65.5415"/>
</g>
<!-- Node22 -->
<g id="node23" class="node">
<title>Node22</title>
<g id="a_node23"><a xlink:href="token_8h.html#a863ec10d282f1f7e0dbbbaae6cec4f15" target="_top" xlink:title=" ">
<polygon fill="#ffffff" stroke="#000000" points="276,-38.5 276,-57.5 338,-57.5 338,-38.5 276,-38.5"/>
<text text-anchor="middle" x="307" y="-45.5" font-family="Helvetica,sans-Serif" font-size="10.00" fill="#000000">token_free</text>
</a>
</g>
</g>
<!-- Node21&#45;&gt;Node22 -->
<g id="edge23" class="edge">
<title>Node21&#45;&gt;Node22</title>
<path fill="none" stroke="#191970" d="M174.7464,-48C200.1667,-48 237.274,-48 265.7175,-48"/>
<polygon fill="#191970" stroke="#191970" points="265.767,-51.5001 275.767,-48 265.7669,-44.5001 265.767,-51.5001"/>
</g>
</g>
</svg>
