<?xml version="1.0" encoding="UTF-8" standalone="no"?>
<!DOCTYPE svg PUBLIC "-//W3C//DTD SVG 1.1//EN"
 "http://www.w3.org/Graphics/SVG/1.1/DTD/svg11.dtd">
<!-- Generated by graphviz version 2.40.1 (20161225.0304)
 -->
<!-- Title: main Pages: 1 -->
<!--zoomable 711 -->
<svg id="main" version="1.1" xmlns="http://www.w3.org/2000/svg" xmlns:xlink="http://www.w3.org/1999/xlink" xml:space="preserve" onload="init(evt)">
<style type="text/css"><![CDATA[
.edge:hover path { stroke: red; }
.edge:hover polygon { stroke: red; fill: red; }
]]></style>
<script type="text/javascript"><![CDATA[
var edges = document.getElementsByTagName('g');
if (edges && edges.length) {
  for (var i=0;i<edges.length;i++) {
    if (edges[i].id.substr(0,4)=='edge') {
      edges[i].setAttribute('class','edge');
    }
  }
}
]]></script>
        <defs>
                <circle id="rim" cx="0" cy="0" r="7"/>
                <circle id="rim2" cx="0" cy="0" r="3.5"/>
                <g id="zoomPlus">
                        <use xlink:href="#rim" fill="#404040">
                                <set attributeName="fill" to="#808080" begin="zoomplus.mouseover" end="zoomplus.mouseout"/>
                        </use>
                        <path d="M-4,0h8M0,-4v8" fill="none" stroke="white" stroke-width="1.5" pointer-events="none"/>
                </g>
                <g id="zoomMin">
                        <use xlink:href="#rim" fill="#404040">
                                <set attributeName="fill" to="#808080" begin="zoomminus.mouseover" end="zoomminus.mouseout"/>
                        </use>
                        <path d="M-4,0h8" fill="none" stroke="white" stroke-width="1.5" pointer-events="none"/>
                </g>
                <g id="dirArrow">
                        <path fill="none" stroke="white" stroke-width="1.5" d="M0,-3.0v7 M-2.5,-0.5L0,-3.0L2.5,-0.5"/>
                </g>
               <g id="resetDef">
                       <use xlink:href="#rim2" fill="#404040">
                               <set attributeName="fill" to="#808080" begin="reset.mouseover" end="reset.mouseout"/>
                       </use>
               </g>
        </defs>

<script type="text/javascript">
var viewWidth = 719;
var viewHeight = 711;
var sectionId = 'dynsection-1';
</script>
<script xlink:href="svgpan.js"/>
<svg id="graph" class="graph">
<g id="viewport">
<title>main</title>
<polygon fill="#ffffff" stroke="transparent" points="-4,4 -4,-707 715,-707 715,4 -4,4"/>
<!-- Node0 -->
<g id="node1" class="node">
<title>Node0</title>
<g id="a_node1"><a xlink:title=" ">
<polygon fill="#bfbfbf" stroke="#000000" points="0,-455.5 0,-474.5 38,-474.5 38,-455.5 0,-455.5"/>
<text text-anchor="middle" x="19" y="-462.5" font-family="Helvetica,sans-Serif" font-size="10.00" fill="#000000">main</text>
</a>
</g>
</g>
<!-- Node1 -->
<g id="node2" class="node">
<title>Node1</title>
<g id="a_node2"><a xlink:href="files_8c.html#ad9909e16f65d8f14412653a8674df0d9" target="_top" xlink:title=" ">
<polygon fill="#ffffff" stroke="#000000" points="109,-626.5 109,-645.5 189,-645.5 189,-626.5 109,-626.5"/>
<text text-anchor="middle" x="149" y="-633.5" font-family="Helvetica,sans-Serif" font-size="10.00" fill="#000000">readfiletostring</text>
</a>
</g>
</g>
<!-- Node0&#45;&gt;Node1 -->
<g id="edge1" class="edge">
<title>Node0&#45;&gt;Node1</title>
<path fill="none" stroke="#191970" d="M19.4846,-474.508C21.3775,-501.2333 30.5238,-577.631 74,-617 81.0194,-623.3563 89.8607,-627.6526 98.988,-630.5415"/>
<polygon fill="#191970" stroke="#191970" points="98.3704,-633.998 108.9317,-633.1547 100.1497,-627.2279 98.3704,-633.998"/>
</g>
<!-- Node2 -->
<g id="node3" class="node">
<title>Node2</title>
<g id="a_node3"><a xlink:href="helios__memory_8h.html#aaabde550780f37dc19f59b3e8bc9c514" target="_top" xlink:title="Creates a new garbagecollector object.">
<polygon fill="#ffffff" stroke="#000000" points="80.5,-588.5 80.5,-607.5 217.5,-607.5 217.5,-588.5 80.5,-588.5"/>
<text text-anchor="middle" x="149" y="-595.5" font-family="Helvetica,sans-Serif" font-size="10.00" fill="#000000">helios_init_garbagecollector</text>
</a>
</g>
</g>
<!-- Node0&#45;&gt;Node2 -->
<g id="edge2" class="edge">
<title>Node0&#45;&gt;Node2</title>
<path fill="none" stroke="#191970" d="M20.7875,-474.6568C25.3929,-496.7194 39.7862,-551.0658 74,-579 76.0484,-580.6725 78.2254,-582.2 80.4989,-583.5952"/>
<polygon fill="#191970" stroke="#191970" points="79.1898,-586.8585 89.6798,-588.3457 82.4068,-580.6415 79.1898,-586.8585"/>
</g>
<!-- Node3 -->
<g id="node4" class="node">
<title>Node3</title>
<g id="a_node4"><a xlink:href="helios__memory_8h.html#a0352d829134eb27df2d9e088062e987d" target="_top" xlink:title="Points the global garbagecollector pointer to a new garbagecollector.">
<polygon fill="#ffffff" stroke="#000000" points="80.5,-550.5 80.5,-569.5 217.5,-569.5 217.5,-550.5 80.5,-550.5"/>
<text text-anchor="middle" x="149" y="-557.5" font-family="Helvetica,sans-Serif" font-size="10.00" fill="#000000">helios_set_garbagecollector</text>
</a>
</g>
</g>
<!-- Node0&#45;&gt;Node3 -->
<g id="edge3" class="edge">
<title>Node0&#45;&gt;Node3</title>
<path fill="none" stroke="#191970" d="M23.2173,-474.5988C30.8781,-490.8785 48.6635,-523.8061 74,-541 76.9228,-542.9835 80.0365,-544.7599 83.271,-546.3509"/>
<polygon fill="#191970" stroke="#191970" points="82.0777,-549.6472 92.6485,-550.3619 84.8306,-543.2112 82.0777,-549.6472"/>
</g>
<!-- Node4 -->
<g id="node5" class="node">
<title>Node4</title>
<g id="a_node5"><a xlink:href="parser_8h.html#ac230f189b920bf540a0e14b079c3caf7" target="_top" xlink:title="Parser Entrypoint.">
<polygon fill="#ffffff" stroke="#000000" points="100,-512.5 100,-531.5 198,-531.5 198,-512.5 100,-512.5"/>
<text text-anchor="middle" x="149" y="-519.5" font-family="Helvetica,sans-Serif" font-size="10.00" fill="#000000">parser_parseString</text>
</a>
</g>
</g>
<!-- Node0&#45;&gt;Node4 -->
<g id="edge4" class="edge">
<title>Node0&#45;&gt;Node4</title>
<path fill="none" stroke="#191970" d="M38.1819,-473.4105C59.1321,-482.5964 93.0026,-497.4473 117.791,-508.3161"/>
<polygon fill="#191970" stroke="#191970" points="116.5672,-511.6011 127.131,-512.4113 119.3781,-505.1902 116.5672,-511.6011"/>
</g>
<!-- Node17 -->
<g id="node18" class="node">
<title>Node17</title>
<g id="a_node18"><a xlink:href="AST_8c.html#a58d5ba08d8eda04b6d0414ed3d43a60f" target="_top" xlink:title="Print an ast object.">
<polygon fill="#ffffff" stroke="#000000" points="119,-455.5 119,-474.5 179,-474.5 179,-455.5 119,-455.5"/>
<text text-anchor="middle" x="149" y="-462.5" font-family="Helvetica,sans-Serif" font-size="10.00" fill="#000000">AST_print</text>
</a>
</g>
</g>
<!-- Node0&#45;&gt;Node17 -->
<g id="edge17" class="edge">
<title>Node0&#45;&gt;Node17</title>
<path fill="none" stroke="#191970" d="M38.1819,-465C56.6391,-465 85.1247,-465 108.5932,-465"/>
<polygon fill="#191970" stroke="#191970" points="108.6336,-468.5001 118.6336,-465 108.6336,-461.5001 108.6336,-468.5001"/>
</g>
<!-- Node21 -->
<g id="node22" class="node">
<title>Node21</title>
<g id="a_node22"><a xlink:href="helios__code_8c.html#a7332eea2d2a004766822441fde54a0ed" target="_top" xlink:title=" ">
<polygon fill="#ffffff" stroke="#000000" points="90,-382.5 90,-401.5 208,-401.5 208,-382.5 90,-382.5"/>
<text text-anchor="middle" x="149" y="-389.5" font-family="Helvetica,sans-Serif" font-size="10.00" fill="#000000">helios_code_from_AST</text>
</a>
</g>
</g>
<!-- Node0&#45;&gt;Node21 -->
<g id="edge21" class="edge">
<title>Node0&#45;&gt;Node21</title>
<path fill="none" stroke="#191970" d="M35.9952,-455.4565C58.1846,-442.9963 97.2375,-421.0666 123.1175,-406.534"/>
<polygon fill="#191970" stroke="#191970" points="124.995,-409.4939 132.0006,-401.5458 121.5675,-403.3903 124.995,-409.4939"/>
</g>
<!-- Node28 -->
<g id="node29" class="node">
<title>Node28</title>
<g id="a_node29"><a xlink:href="hvm_8c.html#ae66b9feb0d741459ae33e01d37d1dafd" target="_top" xlink:title=" ">
<polygon fill="#ffffff" stroke="#000000" points="85,-196.5 85,-215.5 213,-215.5 213,-196.5 85,-196.5"/>
<text text-anchor="middle" x="149" y="-203.5" font-family="Helvetica,sans-Serif" font-size="10.00" fill="#000000">hvm_execute_codeobject</text>
</a>
</g>
</g>
<!-- Node0&#45;&gt;Node28 -->
<g id="edge29" class="edge">
<title>Node0&#45;&gt;Node28</title>
<path fill="none" stroke="#191970" d="M23.7809,-455.4749C42.8915,-417.4008 113.9955,-275.7397 139.6744,-224.5796"/>
<polygon fill="#191970" stroke="#191970" points="142.8177,-226.1192 144.1756,-215.6117 136.5615,-222.979 142.8177,-226.1192"/>
</g>
<!-- Node37 -->
<g id="node38" class="node">
<title>Node37</title>
<g id="a_node38"><a xlink:href="AST_8c.html#adc8be8765bd5abffeef1f5649587cb45" target="_top" xlink:title="Destructor for ast objects.">
<polygon fill="#ffffff" stroke="#000000" points="120,-115.5 120,-134.5 178,-134.5 178,-115.5 120,-115.5"/>
<text text-anchor="middle" x="149" y="-122.5" font-family="Helvetica,sans-Serif" font-size="10.00" fill="#000000">AST_free</text>
</a>
</g>
</g>
<!-- Node0&#45;&gt;Node37 -->
<g id="edge39" class="edge">
<title>Node0&#45;&gt;Node37</title>
<path fill="none" stroke="#191970" d="M20.0405,-455.2732C24.8356,-411.6759 45.78,-234.3287 74,-187 85.753,-167.2887 106.1512,-151.0387 122.7102,-140.1269"/>
<polygon fill="#191970" stroke="#191970" points="124.8429,-142.9199 131.4354,-134.6259 121.1096,-136.9985 124.8429,-142.9199"/>
</g>
<!-- Node39 -->
<g id="node40" class="node">
<title>Node39</title>
<g id="a_node40"><a xlink:href="helios__memory_8h.html#a0ba47c8ed7e1be60f1c360e33a0aff15" target="_top" xlink:title="Free a garbagecollector object.">
<polygon fill="#ffffff" stroke="#000000" points="74,-26.5 74,-45.5 224,-45.5 224,-26.5 74,-26.5"/>
<text text-anchor="middle" x="149" y="-33.5" font-family="Helvetica,sans-Serif" font-size="10.00" fill="#000000">helios_delete_garbagecollector</text>
</a>
</g>
</g>
<!-- Node0&#45;&gt;Node39 -->
<g id="edge42" class="edge">
<title>Node0&#45;&gt;Node39</title>
<path fill="none" stroke="#191970" d="M19.6251,-455.3365C23.0295,-404.6671 40.4284,-169.5597 74,-106 85.9715,-83.3348 108.1853,-64.0307 125.3423,-51.4716"/>
<polygon fill="#191970" stroke="#191970" points="127.6103,-54.1553 133.7723,-45.5368 123.5806,-48.4315 127.6103,-54.1553"/>
</g>
<!-- Node5 -->
<g id="node6" class="node">
<title>Node5</title>
<g id="a_node6"><a xlink:href="parserutil_8c.html#aeabb62e46d4414de7848d31d805ab834" target="_top" xlink:title="Parser constructor.">
<polygon fill="#ffffff" stroke="#000000" points="285.5,-683.5 285.5,-702.5 352.5,-702.5 352.5,-683.5 285.5,-683.5"/>
<text text-anchor="middle" x="319" y="-690.5" font-family="Helvetica,sans-Serif" font-size="10.00" fill="#000000">parser_new</text>
</a>
</g>
</g>
<!-- Node4&#45;&gt;Node5 -->
<g id="edge5" class="edge">
<title>Node4&#45;&gt;Node5</title>
<path fill="none" stroke="#191970" d="M198.0792,-526.5846C207.6588,-529.5002 216.9147,-534.0288 224,-541 267.6519,-583.9492 217.732,-629.6882 260,-674 264.4356,-678.6501 270.0125,-682.1647 275.9567,-684.8204"/>
<polygon fill="#191970" stroke="#191970" points="274.8953,-688.1592 285.4888,-688.3265 277.3118,-681.5895 274.8953,-688.1592"/>
</g>
<!-- Node7 -->
<g id="node8" class="node">
<title>Node7</title>
<g id="a_node8"><a xlink:href="parserutil_8c.html#a2d9e8c20025b7b883c4e87790685a6ad" target="_top" xlink:title="Proxy to parser_next.">
<polygon fill="#ffffff" stroke="#000000" points="276,-645.5 276,-664.5 362,-664.5 362,-645.5 276,-645.5"/>
<text text-anchor="middle" x="319" y="-652.5" font-family="Helvetica,sans-Serif" font-size="10.00" fill="#000000">parser_advance</text>
</a>
</g>
</g>
<!-- Node4&#45;&gt;Node7 -->
<g id="edge7" class="edge">
<title>Node4&#45;&gt;Node7</title>
<path fill="none" stroke="#191970" d="M198.3537,-527.3598C207.6924,-530.2433 216.7826,-534.5626 224,-541 257.6961,-571.0547 227.2739,-604.8918 260,-636 262.1205,-638.0157 264.4561,-639.8175 266.9371,-641.4282"/>
<polygon fill="#191970" stroke="#191970" points="265.3652,-644.5567 275.8316,-646.201 268.675,-638.3886 265.3652,-644.5567"/>
</g>
<!-- Node9 -->
<g id="node10" class="node">
<title>Node9</title>
<g id="a_node10"><a xlink:href="parser_8h.html#a909b31712182aae737a48cd819f43a2d" target="_top" xlink:title=" ">
<polygon fill="#ffffff" stroke="#000000" points="286.5,-607.5 286.5,-626.5 351.5,-626.5 351.5,-607.5 286.5,-607.5"/>
<text text-anchor="middle" x="319" y="-614.5" font-family="Helvetica,sans-Serif" font-size="10.00" fill="#000000">parser_root</text>
</a>
</g>
</g>
<!-- Node4&#45;&gt;Node9 -->
<g id="edge9" class="edge">
<title>Node4&#45;&gt;Node9</title>
<path fill="none" stroke="#191970" d="M198.1926,-528.7689C207.3346,-531.5543 216.3903,-535.4773 224,-541 248.2497,-558.5991 236.3206,-579.6407 260,-598 265.0229,-601.8944 270.8686,-605.0031 276.89,-607.4815"/>
<polygon fill="#191970" stroke="#191970" points="275.8094,-610.812 286.404,-610.8794 278.1638,-604.2198 275.8094,-610.812"/>
</g>
<!-- Node10 -->
<g id="node11" class="node">
<title>Node10</title>
<g id="a_node11"><a xlink:href="error_8c.html#aece17809d86b1b3c7548254beab5b5c1" target="_top" xlink:title="Return true if a given errorstack is empty.">
<polygon fill="#ffffff" stroke="#000000" points="273,-569.5 273,-588.5 365,-588.5 365,-569.5 273,-569.5"/>
<text text-anchor="middle" x="319" y="-576.5" font-family="Helvetica,sans-Serif" font-size="10.00" fill="#000000">errorstack_empty</text>
</a>
</g>
</g>
<!-- Node4&#45;&gt;Node10 -->
<g id="edge10" class="edge">
<title>Node4&#45;&gt;Node10</title>
<path fill="none" stroke="#191970" d="M193.9613,-531.5397C203.9896,-534.1762 214.4709,-537.3383 224,-541 240.8878,-547.4894 243.3265,-552.9784 260,-560 265.1447,-562.1666 270.6271,-564.2353 276.0989,-566.1568"/>
<polygon fill="#191970" stroke="#191970" points="275.2677,-569.57 285.8618,-569.4459 277.5027,-562.9363 275.2677,-569.57"/>
</g>
<!-- Node11 -->
<g id="node12" class="node">
<title>Node11</title>
<g id="a_node12"><a xlink:href="error_8c.html#af86905f178f9caa084c7a4de6ff9ff8a" target="_top" xlink:title="Throw all errors on the errorstack.">
<polygon fill="#ffffff" stroke="#000000" points="265,-531.5 265,-550.5 373,-550.5 373,-531.5 265,-531.5"/>
<text text-anchor="middle" x="319" y="-538.5" font-family="Helvetica,sans-Serif" font-size="10.00" fill="#000000">errorstack_traceback</text>
</a>
</g>
</g>
<!-- Node4&#45;&gt;Node11 -->
<g id="edge11" class="edge">
<title>Node4&#45;&gt;Node11</title>
<path fill="none" stroke="#191970" d="M198.171,-527.4956C215.8761,-529.4744 236.1197,-531.7369 254.9099,-533.837"/>
<polygon fill="#191970" stroke="#191970" points="254.55,-537.3185 264.8769,-534.9509 255.3276,-530.3618 254.55,-537.3185"/>
</g>
<!-- Node15 -->
<g id="node16" class="node">
<title>Node15</title>
<g id="a_node16"><a xlink:href="parserutil_8c.html#a1ddd27828ac4848a4b9c05eb6190852f" target="_top" xlink:title="Parser destructor.">
<polygon fill="#ffffff" stroke="#000000" points="286.5,-493.5 286.5,-512.5 351.5,-512.5 351.5,-493.5 286.5,-493.5"/>
<text text-anchor="middle" x="319" y="-500.5" font-family="Helvetica,sans-Serif" font-size="10.00" fill="#000000">parser_free</text>
</a>
</g>
</g>
<!-- Node4&#45;&gt;Node15 -->
<g id="edge15" class="edge">
<title>Node4&#45;&gt;Node15</title>
<path fill="none" stroke="#191970" d="M198.171,-516.5044C222.8576,-513.7453 252.4795,-510.4346 276.2152,-507.7818"/>
<polygon fill="#191970" stroke="#191970" points="276.7814,-511.2404 286.3308,-506.6513 276.0039,-504.2837 276.7814,-511.2404"/>
</g>
<!-- Node6 -->
<g id="node7" class="node">
<title>Node6</title>
<g id="a_node7"><a xlink:href="error_8c.html#ab400e9a29e066e1bbe7b7893e1eb767e" target="_top" xlink:title="Creates a new errorstack object.">
<polygon fill="#ffffff" stroke="#000000" points="446,-683.5 446,-702.5 529,-702.5 529,-683.5 446,-683.5"/>
<text text-anchor="middle" x="487.5" y="-690.5" font-family="Helvetica,sans-Serif" font-size="10.00" fill="#000000">errorstack_new</text>
</a>
</g>
</g>
<!-- Node5&#45;&gt;Node6 -->
<g id="edge6" class="edge">
<title>Node5&#45;&gt;Node6</title>
<path fill="none" stroke="#191970" d="M352.6935,-693C376.4533,-693 408.726,-693 435.7374,-693"/>
<polygon fill="#191970" stroke="#191970" points="435.8035,-696.5001 445.8035,-693 435.8035,-689.5001 435.8035,-696.5001"/>
</g>
<!-- Node8 -->
<g id="node9" class="node">
<title>Node8</title>
<g id="a_node9"><a xlink:href="parserutil_8c.html#ab25a97ff31329fe9461666bfe2dc6f2c" target="_top" xlink:title="Iterate the parser.">
<polygon fill="#ffffff" stroke="#000000" points="453.5,-645.5 453.5,-664.5 521.5,-664.5 521.5,-645.5 453.5,-645.5"/>
<text text-anchor="middle" x="487.5" y="-652.5" font-family="Helvetica,sans-Serif" font-size="10.00" fill="#000000">parser_next</text>
</a>
</g>
</g>
<!-- Node7&#45;&gt;Node8 -->
<g id="edge8" class="edge">
<title>Node7&#45;&gt;Node8</title>
<path fill="none" stroke="#191970" d="M362.3929,-655C387.1362,-655 418.0831,-655 443.0069,-655"/>
<polygon fill="#191970" stroke="#191970" points="443.2842,-658.5001 453.2841,-655 443.2841,-651.5001 443.2842,-658.5001"/>
</g>
<!-- Node12 -->
<g id="node13" class="node">
<title>Node12</title>
<g id="a_node13"><a xlink:href="error_8c.html#a2e581dee0de155b88d33f98ddd006189" target="_top" xlink:title=" ">
<polygon fill="#ffffff" stroke="#000000" points="455,-582.5 455,-601.5 520,-601.5 520,-582.5 455,-582.5"/>
<text text-anchor="middle" x="487.5" y="-589.5" font-family="Helvetica,sans-Serif" font-size="10.00" fill="#000000">error_throw</text>
</a>
</g>
</g>
<!-- Node11&#45;&gt;Node12 -->
<g id="edge12" class="edge">
<title>Node11&#45;&gt;Node12</title>
<path fill="none" stroke="#191970" d="M349.3854,-550.5608C358.5988,-553.5201 368.7328,-556.8356 378,-560 394.0986,-565.497 397.7473,-567.9769 414,-573 423.9163,-576.0648 434.687,-579.042 444.848,-581.6954"/>
<polygon fill="#191970" stroke="#191970" points="444.1958,-585.1413 454.7515,-584.2322 445.9328,-578.3602 444.1958,-585.1413"/>
</g>
<!-- Node14 -->
<g id="node15" class="node">
<title>Node14</title>
<g id="a_node15"><a xlink:href="error_8c.html#a0289b490436a23262d094c6a624ef7f0" target="_top" xlink:title="Return the top error of the errorstack.">
<polygon fill="#ffffff" stroke="#000000" points="448,-544.5 448,-563.5 527,-563.5 527,-544.5 448,-544.5"/>
<text text-anchor="middle" x="487.5" y="-551.5" font-family="Helvetica,sans-Serif" font-size="10.00" fill="#000000">errorstack_top</text>
</a>
</g>
</g>
<!-- Node11&#45;&gt;Node14 -->
<g id="edge14" class="edge">
<title>Node11&#45;&gt;Node14</title>
<path fill="none" stroke="#191970" d="M373.242,-545.1848C393.9821,-546.785 417.513,-548.6004 437.8077,-550.1662"/>
<polygon fill="#191970" stroke="#191970" points="437.5483,-553.6565 447.7879,-550.9362 438.0868,-546.6772 437.5483,-553.6565"/>
</g>
<!-- Node13 -->
<g id="node14" class="node">
<title>Node13</title>
<g id="a_node14"><a xlink:href="error_8c.html#a225bd87ba0491415a1ef1aec28912809" target="_top" xlink:title="prints an error struct">
<polygon fill="#ffffff" stroke="#000000" points="624,-582.5 624,-601.5 684,-601.5 684,-582.5 624,-582.5"/>
<text text-anchor="middle" x="654" y="-589.5" font-family="Helvetica,sans-Serif" font-size="10.00" fill="#000000">error_print</text>
</a>
</g>
</g>
<!-- Node12&#45;&gt;Node13 -->
<g id="edge13" class="edge">
<title>Node12&#45;&gt;Node13</title>
<path fill="none" stroke="#191970" d="M520.395,-592C547.2362,-592 585.2639,-592 613.889,-592"/>
<polygon fill="#191970" stroke="#191970" points="613.9717,-595.5001 623.9716,-592 613.9716,-588.5001 613.9717,-595.5001"/>
</g>
<!-- Node16 -->
<g id="node17" class="node">
<title>Node16</title>
<g id="a_node17"><a xlink:href="error_8c.html#a56c6e945b508072de3181f78dbc0cfe3" target="_top" xlink:title=" ">
<polygon fill="#ffffff" stroke="#000000" points="446.5,-506.5 446.5,-525.5 528.5,-525.5 528.5,-506.5 446.5,-506.5"/>
<text text-anchor="middle" x="487.5" y="-513.5" font-family="Helvetica,sans-Serif" font-size="10.00" fill="#000000">errorstack_free</text>
</a>
</g>
</g>
<!-- Node15&#45;&gt;Node16 -->
<g id="edge16" class="edge">
<title>Node15&#45;&gt;Node16</title>
<path fill="none" stroke="#191970" d="M351.8885,-505.5374C375.8374,-507.3851 408.74,-509.9236 436.1382,-512.0374"/>
<polygon fill="#191970" stroke="#191970" points="436.0996,-515.5447 446.3392,-512.8244 436.6381,-508.5654 436.0996,-515.5447"/>
</g>
<!-- Node18 -->
<g id="node19" class="node">
<title>Node18</title>
<g id="a_node19"><a xlink:href="AST_8c.html#aec2b1350d43ba95c45e32469270abd46" target="_top" xlink:title="Recursively prints an ast.">
<polygon fill="#ffffff" stroke="#000000" points="273,-455.5 273,-474.5 365,-474.5 365,-455.5 273,-455.5"/>
<text text-anchor="middle" x="319" y="-462.5" font-family="Helvetica,sans-Serif" font-size="10.00" fill="#000000">AST_print_helper</text>
</a>
</g>
</g>
<!-- Node17&#45;&gt;Node18 -->
<g id="edge18" class="edge">
<title>Node17&#45;&gt;Node18</title>
<path fill="none" stroke="#191970" d="M179.0013,-465C202.1773,-465 234.9133,-465 262.9029,-465"/>
<polygon fill="#191970" stroke="#191970" points="262.9737,-468.5001 272.9737,-465 262.9736,-461.5001 262.9737,-468.5001"/>
</g>
<!-- Node19 -->
<g id="node20" class="node">
<title>Node19</title>
<g id="a_node20"><a xlink:href="token_8h.html#a347371dbade2f4df7ca01fd60f226951" target="_top" xlink:title="Prints a token object.">
<polygon fill="#ffffff" stroke="#000000" points="455,-468.5 455,-487.5 520,-487.5 520,-468.5 455,-468.5"/>
<text text-anchor="middle" x="487.5" y="-475.5" font-family="Helvetica,sans-Serif" font-size="10.00" fill="#000000">token_print</text>
</a>
</g>
</g>
<!-- Node18&#45;&gt;Node19 -->
<g id="edge19" class="edge">
<title>Node18&#45;&gt;Node19</title>
<path fill="none" stroke="#191970" d="M365.0434,-468.5523C389.9395,-470.4731 420.4828,-472.8295 444.8374,-474.7085"/>
<polygon fill="#191970" stroke="#191970" points="444.6221,-478.2022 454.8617,-475.4819 445.1606,-471.223 444.6221,-478.2022"/>
</g>
<!-- Node20 -->
<g id="node21" class="node">
<title>Node20</title>
<g id="a_node21"><a xlink:href="helios__string_8c.html#a9d2005b1762ff6459a22a115549a08f5" target="_top" xlink:title="Create a cstring from a helios_string object.">
<polygon fill="#ffffff" stroke="#000000" points="597,-354.5 597,-373.5 711,-373.5 711,-354.5 597,-354.5"/>
<text text-anchor="middle" x="654" y="-361.5" font-family="Helvetica,sans-Serif" font-size="10.00" fill="#000000">helios_string_to_charp</text>
</a>
</g>
</g>
<!-- Node19&#45;&gt;Node20 -->
<g id="edge20" class="edge">
<title>Node19&#45;&gt;Node20</title>
<path fill="none" stroke="#191970" d="M520.0722,-473.5167C533.3945,-470.7067 548.5651,-466.1943 561,-459 595.0872,-439.2787 625.0491,-403.6444 641.2422,-382.0701"/>
<polygon fill="#191970" stroke="#191970" points="644.2328,-383.9099 647.311,-373.7721 638.5826,-379.7776 644.2328,-383.9099"/>
</g>
<!-- Node22 -->
<g id="node23" class="node">
<title>Node22</title>
<g id="a_node23"><a xlink:href="helios__code_8c.html#ab47a14436bfa855c861f5cd333cd1dfd" target="_top" xlink:title=" ">
<polygon fill="#ffffff" stroke="#000000" points="276,-404.5 276,-423.5 362,-423.5 362,-404.5 276,-404.5"/>
<text text-anchor="middle" x="319" y="-411.5" font-family="Helvetica,sans-Serif" font-size="10.00" fill="#000000">helios_code_init</text>
</a>
</g>
</g>
<!-- Node21&#45;&gt;Node22 -->
<g id="edge22" class="edge">
<title>Node21&#45;&gt;Node22</title>
<path fill="none" stroke="#191970" d="M208.4578,-399.6945C227.1137,-402.1088 247.5793,-404.7573 265.7755,-407.1121"/>
<polygon fill="#191970" stroke="#191970" points="265.543,-410.6111 275.9095,-408.4236 266.4415,-403.669 265.543,-410.6111"/>
</g>
<!-- Node25 -->
<g id="node26" class="node">
<title>Node25</title>
<g id="a_node26"><a xlink:href="helios__code_8c.html#a7f71fb27d10c5bf81cbdb3ac0c0210b6" target="_top" xlink:title=" ">
<polygon fill="#ffffff" stroke="#000000" points="260,-355 260,-385 378,-385 378,-355 260,-355"/>
<text text-anchor="start" x="268" y="-373" font-family="Helvetica,sans-Serif" font-size="10.00" fill="#000000">helios_code_from_AST</text>
<text text-anchor="middle" x="319" y="-362" font-family="Helvetica,sans-Serif" font-size="10.00" fill="#000000">_helper</text>
</a>
</g>
</g>
<!-- Node21&#45;&gt;Node25 -->
<g id="edge25" class="edge">
<title>Node21&#45;&gt;Node25</title>
<path fill="none" stroke="#191970" d="M208.4578,-384.3055C221.7338,-382.5874 235.9264,-380.7507 249.5653,-378.9857"/>
<polygon fill="#191970" stroke="#191970" points="250.3948,-382.4076 259.8629,-377.653 249.4964,-375.4655 250.3948,-382.4076"/>
</g>
<!-- Node27 -->
<g id="node28" class="node">
<title>Node27</title>
<g id="a_node28"><a xlink:href="helios__code_8c.html#a71d2ab8c6616394cc8cb48702bb02e80" target="_top" xlink:title=" ">
<polygon fill="#ffffff" stroke="#000000" points="417.5,-316.5 417.5,-335.5 557.5,-335.5 557.5,-316.5 417.5,-316.5"/>
<text text-anchor="middle" x="487.5" y="-323.5" font-family="Helvetica,sans-Serif" font-size="10.00" fill="#000000">helios_code_add_instruction</text>
</a>
</g>
</g>
<!-- Node21&#45;&gt;Node27 -->
<g id="edge28" class="edge">
<title>Node21&#45;&gt;Node27</title>
<path fill="none" stroke="#191970" d="M167.265,-382.3867C188.7951,-371.5441 225.9618,-354.3398 260,-346 308.0527,-334.2265 363.3111,-329.1788 407.3344,-327.0973"/>
<polygon fill="#191970" stroke="#191970" points="407.5687,-330.5906 417.4087,-326.6631 407.2672,-323.597 407.5687,-330.5906"/>
</g>
<!-- Node23 -->
<g id="node24" class="node">
<title>Node23</title>
<g id="a_node24"><a xlink:href="helios__memory_8h.html#af87f0050f8e236d0945592fa4e54dc94" target="_top" xlink:title="Allocates a new helios object (and performs all the GC steps associated with that action).">
<polygon fill="#ffffff" stroke="#000000" points="431,-430.5 431,-449.5 544,-449.5 544,-430.5 431,-430.5"/>
<text text-anchor="middle" x="487.5" y="-437.5" font-family="Helvetica,sans-Serif" font-size="10.00" fill="#000000">helios_allocate_object</text>
</a>
</g>
</g>
<!-- Node22&#45;&gt;Node23 -->
<g id="edge23" class="edge">
<title>Node22&#45;&gt;Node23</title>
<path fill="none" stroke="#191970" d="M362.3929,-420.6956C380.1627,-423.4376 401.132,-426.6732 420.7722,-429.7037"/>
<polygon fill="#191970" stroke="#191970" points="420.4807,-433.2001 430.8975,-431.2661 421.5483,-426.282 420.4807,-433.2001"/>
</g>
<!-- Node24 -->
<g id="node25" class="node">
<title>Node24</title>
<g id="a_node25"><a xlink:href="helios__memory_8h.html#ab14fb1c046aae61ab06eda8eeaf2cd85" target="_top" xlink:title=" ">
<polygon fill="#ffffff" stroke="#000000" points="414,-392.5 414,-411.5 561,-411.5 561,-392.5 414,-392.5"/>
<text text-anchor="middle" x="487.5" y="-399.5" font-family="Helvetica,sans-Serif" font-size="10.00" fill="#000000">helios_set_garbagecollectable</text>
</a>
</g>
</g>
<!-- Node22&#45;&gt;Node24 -->
<g id="edge24" class="edge">
<title>Node22&#45;&gt;Node24</title>
<path fill="none" stroke="#191970" d="M362.3929,-410.9097C375.0259,-410.01 389.2759,-408.9952 403.5158,-407.9811"/>
<polygon fill="#191970" stroke="#191970" points="404.1336,-411.446 413.8596,-407.2444 403.6362,-404.4637 404.1336,-411.446"/>
</g>
<!-- Node26 -->
<g id="node27" class="node">
<title>Node26</title>
<g id="a_node27"><a xlink:href="helios__code_8c.html#ae826a551bc568e53f64610757587e23c" target="_top" xlink:title=" ">
<polygon fill="#ffffff" stroke="#000000" points="421.5,-354.5 421.5,-373.5 553.5,-373.5 553.5,-354.5 421.5,-354.5"/>
<text text-anchor="middle" x="487.5" y="-361.5" font-family="Helvetica,sans-Serif" font-size="10.00" fill="#000000">helios_code_add_constant</text>
</a>
</g>
</g>
<!-- Node25&#45;&gt;Node26 -->
<g id="edge26" class="edge">
<title>Node25&#45;&gt;Node26</title>
<path fill="none" stroke="#191970" d="M378.4068,-367.8846C389.0706,-367.5049 400.3177,-367.1044 411.3762,-366.7106"/>
<polygon fill="#191970" stroke="#191970" points="411.5878,-370.2054 421.4569,-366.3517 411.3386,-363.2099 411.5878,-370.2054"/>
</g>
<!-- Node25&#45;&gt;Node27 -->
<g id="edge27" class="edge">
<title>Node25&#45;&gt;Node27</title>
<path fill="none" stroke="#191970" d="M376.0065,-354.9551C388.5214,-351.6643 401.7057,-348.2067 414,-345 422.6174,-342.7523 431.8063,-340.3675 440.6647,-338.0745"/>
<polygon fill="#191970" stroke="#191970" points="441.6723,-341.4292 450.4775,-335.5369 439.9197,-334.6521 441.6723,-341.4292"/>
</g>
<!-- Node29 -->
<g id="node30" class="node">
<title>Node29</title>
<g id="a_node30"><a xlink:href="executestack_8c.html#a72ae26f9dec7953504a21aed7b894aca" target="_top" xlink:title="Creates a new stack for executing bytecode on.">
<polygon fill="#ffffff" stroke="#000000" points="279,-278.5 279,-297.5 359,-297.5 359,-278.5 279,-278.5"/>
<text text-anchor="middle" x="319" y="-285.5" font-family="Helvetica,sans-Serif" font-size="10.00" fill="#000000">execstack_init</text>
</a>
</g>
</g>
<!-- Node28&#45;&gt;Node29 -->
<g id="edge30" class="edge">
<title>Node28&#45;&gt;Node29</title>
<path fill="none" stroke="#191970" d="M166.05,-215.5573C187.6249,-227.4995 226.0679,-248.2767 260,-264 267.9326,-267.6757 276.5928,-271.3702 284.7747,-274.7212"/>
<polygon fill="#191970" stroke="#191970" points="283.5042,-277.9827 294.0875,-278.4756 286.1215,-271.4904 283.5042,-277.9827"/>
</g>
<!-- Node31 -->
<g id="node32" class="node">
<title>Node31</title>
<g id="a_node32"><a xlink:href="executestack_8c.html#a9343a4cdfb1aee0c4bbd340a09f75b75" target="_top" xlink:title="Print an execstack using the print functions of the objects on it.">
<polygon fill="#ffffff" stroke="#000000" points="444.5,-240.5 444.5,-259.5 530.5,-259.5 530.5,-240.5 444.5,-240.5"/>
<text text-anchor="middle" x="487.5" y="-247.5" font-family="Helvetica,sans-Serif" font-size="10.00" fill="#000000">execstack_print</text>
</a>
</g>
</g>
<!-- Node28&#45;&gt;Node31 -->
<g id="edge32" class="edge">
<title>Node28&#45;&gt;Node31</title>
<path fill="none" stroke="#191970" d="M185.5048,-215.5587C207.0418,-220.862 234.911,-227.1459 260,-231 319.1826,-240.0915 387.7425,-245.0695 434.0013,-247.6228"/>
<polygon fill="#191970" stroke="#191970" points="433.9283,-251.1238 444.1005,-248.1613 434.3011,-244.1337 433.9283,-251.1238"/>
</g>
<!-- Node32 -->
<g id="node33" class="node">
<title>Node32</title>
<g id="a_node33"><a xlink:href="helios__instruction_8c.html#acbbf462394d0b4c811e6d3214121b1a9" target="_top" xlink:title=" ">
<polygon fill="#ffffff" stroke="#000000" points="273,-191 273,-221 365,-221 365,-191 273,-191"/>
<text text-anchor="start" x="281" y="-209" font-family="Helvetica,sans-Serif" font-size="10.00" fill="#000000">helios_instruction</text>
<text text-anchor="middle" x="319" y="-198" font-family="Helvetica,sans-Serif" font-size="10.00" fill="#000000">_print</text>
</a>
</g>
</g>
<!-- Node28&#45;&gt;Node32 -->
<g id="edge34" class="edge">
<title>Node28&#45;&gt;Node32</title>
<path fill="none" stroke="#191970" d="M213.2697,-206C229.5442,-206 246.8985,-206 262.7425,-206"/>
<polygon fill="#191970" stroke="#191970" points="262.9098,-209.5001 272.9097,-206 262.9097,-202.5001 262.9098,-209.5001"/>
</g>
<!-- Node33 -->
<g id="node34" class="node">
<title>Node33</title>
<g id="a_node34"><a xlink:href="executestack_8c.html#aad1e7afec264b72e249c35c80510bb8c" target="_top" xlink:title="Pushes a helios_object onto the stack.">
<polygon fill="#ffffff" stroke="#000000" points="275,-152.5 275,-171.5 363,-171.5 363,-152.5 275,-152.5"/>
<text text-anchor="middle" x="319" y="-159.5" font-family="Helvetica,sans-Serif" font-size="10.00" fill="#000000">execstack_push</text>
</a>
</g>
</g>
<!-- Node28&#45;&gt;Node33 -->
<g id="edge35" class="edge">
<title>Node28&#45;&gt;Node33</title>
<path fill="none" stroke="#191970" d="M185.8875,-196.4527C211.2834,-189.8796 245.2231,-181.0952 272.4751,-174.0417"/>
<polygon fill="#191970" stroke="#191970" points="273.3805,-177.4228 282.1845,-171.5287 271.6265,-170.6461 273.3805,-177.4228"/>
</g>
<!-- Node34 -->
<g id="node35" class="node">
<title>Node34</title>
<g id="a_node35"><a xlink:href="executestack_8c.html#a00b8d0e56e3754f23f19037c3b4070f4" target="_top" xlink:title="Pops the top of the executestack and returns it.">
<polygon fill="#ffffff" stroke="#000000" points="277.5,-114.5 277.5,-133.5 360.5,-133.5 360.5,-114.5 277.5,-114.5"/>
<text text-anchor="middle" x="319" y="-121.5" font-family="Helvetica,sans-Serif" font-size="10.00" fill="#000000">execstack_pop</text>
</a>
</g>
</g>
<!-- Node28&#45;&gt;Node34 -->
<g id="edge36" class="edge">
<title>Node28&#45;&gt;Node34</title>
<path fill="none" stroke="#191970" d="M165.4079,-196.4409C193.8877,-179.8857 250.3635,-147.233 260,-143 264.9878,-140.809 270.3102,-138.7416 275.6398,-136.8345"/>
<polygon fill="#191970" stroke="#191970" points="276.836,-140.1246 285.17,-133.5829 274.5755,-133.4996 276.836,-140.1246"/>
</g>
<!-- Node35 -->
<g id="node36" class="node">
<title>Node35</title>
<g id="a_node36"><a xlink:href="executestack_8c.html#a4a019c6c395ae846c7f903671d874891" target="_top" xlink:title="Deletes an execute stack.">
<polygon fill="#ffffff" stroke="#000000" points="272.5,-76.5 272.5,-95.5 365.5,-95.5 365.5,-76.5 272.5,-76.5"/>
<text text-anchor="middle" x="319" y="-83.5" font-family="Helvetica,sans-Serif" font-size="10.00" fill="#000000">execstack_delete</text>
</a>
</g>
</g>
<!-- Node28&#45;&gt;Node35 -->
<g id="edge37" class="edge">
<title>Node28&#45;&gt;Node35</title>
<path fill="none" stroke="#191970" d="M171.2081,-196.4637C187.2048,-188.815 208.5958,-176.9077 224,-162 245.5312,-141.1629 236.3206,-123.3593 260,-105 262.4304,-103.1157 265.0534,-101.4152 267.7958,-99.8812"/>
<polygon fill="#191970" stroke="#191970" points="269.3694,-103.0082 276.8709,-95.5264 266.341,-96.6972 269.3694,-103.0082"/>
</g>
<!-- Node30 -->
<g id="node31" class="node">
<title>Node30</title>
<g id="a_node31"><a xlink:href="helios__memory_8h.html#a27b2da5d6954fd6e7aa0d2f352336c25" target="_top" xlink:title="Get the global current garbage collector.">
<polygon fill="#ffffff" stroke="#000000" points="419,-278.5 419,-297.5 556,-297.5 556,-278.5 419,-278.5"/>
<text text-anchor="middle" x="487.5" y="-285.5" font-family="Helvetica,sans-Serif" font-size="10.00" fill="#000000">helios_get_garbagecollector</text>
</a>
</g>
</g>
<!-- Node29&#45;&gt;Node30 -->
<g id="edge31" class="edge">
<title>Node29&#45;&gt;Node30</title>
<path fill="none" stroke="#191970" d="M359.3599,-288C374.254,-288 391.6871,-288 408.8124,-288"/>
<polygon fill="#191970" stroke="#191970" points="408.8384,-291.5001 418.8384,-288 408.8383,-284.5001 408.8384,-291.5001"/>
</g>
<!-- Node31&#45;&gt;Node20 -->
<g id="edge33" class="edge">
<title>Node31&#45;&gt;Node20</title>
<path fill="none" stroke="#191970" d="M530.6271,-257.0024C541.0081,-259.7886 551.7594,-263.6538 561,-269 595.0872,-288.7213 625.0491,-324.3556 641.2422,-345.9299"/>
<polygon fill="#191970" stroke="#191970" points="638.5826,-348.2224 647.311,-354.2279 644.2328,-344.0901 638.5826,-348.2224"/>
</g>
<!-- Node36 -->
<g id="node37" class="node">
<title>Node36</title>
<g id="a_node37"><a xlink:href="helios__memory_8h.html#a48e4eb31a7e7d92b0e015ae68c01bb3a" target="_top" xlink:title="Perform a GC cleanup cycle.">
<polygon fill="#ffffff" stroke="#000000" points="429.5,-76.5 429.5,-95.5 545.5,-95.5 545.5,-76.5 429.5,-76.5"/>
<text text-anchor="middle" x="487.5" y="-83.5" font-family="Helvetica,sans-Serif" font-size="10.00" fill="#000000">helios_garbage_collect</text>
</a>
</g>
</g>
<!-- Node35&#45;&gt;Node36 -->
<g id="edge38" class="edge">
<title>Node35&#45;&gt;Node36</title>
<path fill="none" stroke="#191970" d="M365.9366,-86C382.4568,-86 401.3755,-86 419.2896,-86"/>
<polygon fill="#191970" stroke="#191970" points="419.405,-89.5001 429.405,-86 419.4049,-82.5001 419.405,-89.5001"/>
</g>
<!-- Node37&#45;&gt;Node37 -->
<g id="edge40" class="edge">
<title>Node37&#45;&gt;Node37</title>
<path fill="none" stroke="#191970" d="M128.9632,-134.7571C119.2156,-143.5653 125.8945,-153 149,-153 163.8019,-153 171.8624,-149.128 173.1814,-144.0292"/>
<polygon fill="#191970" stroke="#191970" points="176.313,-142.4582 169.0368,-134.7571 169.9224,-145.3148 176.313,-142.4582"/>
</g>
<!-- Node38 -->
<g id="node39" class="node">
<title>Node38</title>
<g id="a_node39"><a xlink:href="token_8h.html#a863ec10d282f1f7e0dbbbaae6cec4f15" target="_top" xlink:title="Destroys a token object.Also frees the token&#39;s value.">
<polygon fill="#ffffff" stroke="#000000" points="288,-38.5 288,-57.5 350,-57.5 350,-38.5 288,-38.5"/>
<text text-anchor="middle" x="319" y="-45.5" font-family="Helvetica,sans-Serif" font-size="10.00" fill="#000000">token_free</text>
</a>
</g>
</g>
<!-- Node37&#45;&gt;Node38 -->
<g id="edge41" class="edge">
<title>Node37&#45;&gt;Node38</title>
<path fill="none" stroke="#191970" d="M165.1286,-115.4573C186.3647,-103.1551 225.1027,-81.6116 260,-67 265.7975,-64.5726 272.0206,-62.2638 278.1735,-60.1459"/>
<polygon fill="#191970" stroke="#191970" points="279.3214,-63.4527 287.7131,-56.9852 277.1197,-56.808 279.3214,-63.4527"/>
</g>
<!-- Node40 -->
<g id="node41" class="node">
<title>Node40</title>
<g id="a_node41"><a xlink:href="refcount_8c.html#a5dcd65b50eabfe133b9fcf6206b2bd1e" target="_top" xlink:title="Frees all tracked objects of a garbagecollector without freeing the GC itself.">
<polygon fill="#ffffff" stroke="#000000" points="261,-.5 261,-19.5 377,-19.5 377,-.5 261,-.5"/>
<text text-anchor="middle" x="319" y="-7.5" font-family="Helvetica,sans-Serif" font-size="10.00" fill="#000000">helios_free_all_tracked</text>
</a>
</g>
</g>
<!-- Node39&#45;&gt;Node40 -->
<g id="edge43" class="edge">
<title>Node39&#45;&gt;Node40</title>
<path fill="none" stroke="#191970" d="M211.3364,-26.4662C224.2492,-24.4913 237.9147,-22.4013 251.0177,-20.3973"/>
<polygon fill="#191970" stroke="#191970" points="251.5503,-23.8566 260.9062,-18.8849 250.4919,-16.9371 251.5503,-23.8566"/>
</g>
</g>
</svg>
        <g id="navigator" transform="translate(0 0)" fill="#404254">
                <rect fill="#f2f5e9" fill-opacity="0.5" stroke="#606060" stroke-width=".5" x="0" y="0" width="60" height="60"/>
                <use id="zoomplus" xlink:href="#zoomPlus" x="17" y="9" onmousedown="handleZoom(evt,'in')"/>
                <use id="zoomminus" xlink:href="#zoomMin" x="42" y="9" onmousedown="handleZoom(evt,'out')"/>
                <use id="reset" xlink:href="#resetDef" x="30" y="36" onmousedown="handleReset()"/>
                <g id="arrowUp" xlink:href="#dirArrow" transform="translate(30 24)" onmousedown="handlePan(0,-1)">
                  <use xlink:href="#rim" fill="#404040">
                        <set attributeName="fill" to="#808080" begin="arrowUp.mouseover" end="arrowUp.mouseout"/>
                  </use>
                  <path fill="none" stroke="white" stroke-width="1.5" d="M0,-3.0v7 M-2.5,-0.5L0,-3.0L2.5,-0.5"/>
                </g>
                <g id="arrowRight" xlink:href="#dirArrow" transform="rotate(90) translate(36 -43)" onmousedown="handlePan(1,0)">
                  <use xlink:href="#rim" fill="#404040">
                        <set attributeName="fill" to="#808080" begin="arrowRight.mouseover" end="arrowRight.mouseout"/>
                  </use>
                  <path fill="none" stroke="white" stroke-width="1.5" d="M0,-3.0v7 M-2.5,-0.5L0,-3.0L2.5,-0.5"/>
                </g>
                <g id="arrowDown" xlink:href="#dirArrow" transform="rotate(180) translate(-30 -48)" onmousedown="handlePan(0,1)">
                  <use xlink:href="#rim" fill="#404040">
                        <set attributeName="fill" to="#808080" begin="arrowDown.mouseover" end="arrowDown.mouseout"/>
                  </use>
                  <path fill="none" stroke="white" stroke-width="1.5" d="M0,-3.0v7 M-2.5,-0.5L0,-3.0L2.5,-0.5"/>
                </g>
                <g id="arrowLeft" xlink:href="#dirArrow" transform="rotate(270) translate(-36 17)" onmousedown="handlePan(-1,0)">
                  <use xlink:href="#rim" fill="#404040">
                        <set attributeName="fill" to="#808080" begin="arrowLeft.mouseover" end="arrowLeft.mouseout"/>
                  </use>
                  <path fill="none" stroke="white" stroke-width="1.5" d="M0,-3.0v7 M-2.5,-0.5L0,-3.0L2.5,-0.5"/>
                </g>
        </g>
        <svg viewBox="0 0 15 15" width="100%" height="30px" preserveAspectRatio="xMaxYMin meet">
         <g id="arrow_out" transform="scale(0.3 0.3)">
          <a xlink:href="main_8c_a0ddf1224851353fc92bfbff6f499fa97_cgraph_org.svg" target="_base">
           <rect id="button" ry="5" rx="5" y="6" x="6" height="38" width="38"
                fill="#f2f5e9" fill-opacity="0.5" stroke="#606060" stroke-width="1.0"/>
           <path id="arrow"
             d="M 11.500037,31.436501 C 11.940474,20.09759 22.043105,11.32322 32.158766,21.979434 L 37.068811,17.246167 C 37.068811,17.246167 37.088388,32 37.088388,32 L 22.160133,31.978069 C 22.160133,31.978069 26.997745,27.140456 26.997745,27.140456 C 18.528582,18.264221 13.291696,25.230495 11.500037,31.436501 z"
             style="fill:#404040;"/>
          </a>
         </g>
        </svg>
</svg>
