<?xml version="1.0" encoding="UTF-8" standalone="no"?>
<!DOCTYPE svg PUBLIC "-//W3C//DTD SVG 1.1//EN"
 "http://www.w3.org/Graphics/SVG/1.1/DTD/svg11.dtd">
<!-- Generated by graphviz version 2.40.1 (20161225.0304)
 -->
<!-- Title: main/entry/main.c Pages: 1 -->
<!--zoomable 532 -->
<svg id="main" version="1.1" xmlns="http://www.w3.org/2000/svg" xmlns:xlink="http://www.w3.org/1999/xlink" xml:space="preserve" onload="init(evt)">
<style type="text/css"><![CDATA[
.edge:hover path { stroke: red; }
.edge:hover polygon { stroke: red; fill: red; }
]]></style>
<script type="text/javascript"><![CDATA[
var edges = document.getElementsByTagName('g');
if (edges && edges.length) {
  for (var i=0;i<edges.length;i++) {
    if (edges[i].id.substr(0,4)=='edge') {
      edges[i].setAttribute('class','edge');
    }
  }
}
]]></script>
        <defs>
                <circle id="rim" cx="0" cy="0" r="7"/>
                <circle id="rim2" cx="0" cy="0" r="3.5"/>
                <g id="zoomPlus">
                        <use xlink:href="#rim" fill="#404040">
                                <set attributeName="fill" to="#808080" begin="zoomplus.mouseover" end="zoomplus.mouseout"/>
                        </use>
                        <path d="M-4,0h8M0,-4v8" fill="none" stroke="white" stroke-width="1.5" pointer-events="none"/>
                </g>
                <g id="zoomMin">
                        <use xlink:href="#rim" fill="#404040">
                                <set attributeName="fill" to="#808080" begin="zoomminus.mouseover" end="zoomminus.mouseout"/>
                        </use>
                        <path d="M-4,0h8" fill="none" stroke="white" stroke-width="1.5" pointer-events="none"/>
                </g>
                <g id="dirArrow">
                        <path fill="none" stroke="white" stroke-width="1.5" d="M0,-3.0v7 M-2.5,-0.5L0,-3.0L2.5,-0.5"/>
                </g>
               <g id="resetDef">
                       <use xlink:href="#rim2" fill="#404040">
                               <set attributeName="fill" to="#808080" begin="reset.mouseover" end="reset.mouseout"/>
                       </use>
               </g>
        </defs>

<script type="text/javascript">
var viewWidth = 1547;
var viewHeight = 532;
var sectionId = 'dynsection-0';
</script>
<script xlink:href="svgpan.js"/>
<svg id="graph" class="graph">
<g id="viewport">
<title>main/entry/main.c</title>
<polygon fill="#ffffff" stroke="transparent" points="-4,4 -4,-528 1543,-528 1543,4 -4,4"/>
<!-- Node0 -->
<g id="node1" class="node">
<title>Node0</title>
<g id="a_node1"><a xlink:title=" ">
<polygon fill="#bfbfbf" stroke="#000000" points="971,-504.5 971,-523.5 1077,-523.5 1077,-504.5 971,-504.5"/>
<text text-anchor="middle" x="1024" y="-511.5" font-family="Helvetica,sans-Serif" font-size="10.00" fill="#000000">main/entry/main.c</text>
</a>
</g>
</g>
<!-- Node1 -->
<g id="node2" class="node">
<title>Node1</title>
<g id="a_node2"><a xlink:title=" ">
<polygon fill="#ffffff" stroke="#bfbfbf" points="0,-448.5 0,-467.5 50,-467.5 50,-448.5 0,-448.5"/>
<text text-anchor="middle" x="25" y="-455.5" font-family="Helvetica,sans-Serif" font-size="10.00" fill="#000000">stdio.h</text>
</a>
</g>
</g>
<!-- Node0&#45;&gt;Node1 -->
<g id="edge1" class="edge">
<title>Node0&#45;&gt;Node1</title>
<path fill="none" stroke="#191970" d="M970.7517,-512.8728C795.9985,-508.9499 241.0637,-494.6594 64,-468 62.717,-467.8068 61.4149,-467.5891 60.1034,-467.3514"/>
<polygon fill="#191970" stroke="#191970" points="60.5298,-463.864 50.0213,-465.2137 59.0778,-470.7118 60.5298,-463.864"/>
</g>
<!-- Node2 -->
<g id="node3" class="node">
<title>Node2</title>
<g id="a_node3"><a xlink:title=" ">
<polygon fill="#ffffff" stroke="#bfbfbf" points="313.5,-56.5 313.5,-75.5 366.5,-75.5 366.5,-56.5 313.5,-56.5"/>
<text text-anchor="middle" x="340" y="-63.5" font-family="Helvetica,sans-Serif" font-size="10.00" fill="#000000">stdlib.h</text>
</a>
</g>
</g>
<!-- Node0&#45;&gt;Node2 -->
<g id="edge2" class="edge">
<title>Node0&#45;&gt;Node2</title>
<path fill="none" stroke="#191970" d="M970.7706,-513.3373C771.0987,-510.1585 78,-492.599 78,-402 78,-402 78,-402 78,-178 78,-129.5543 231.3715,-89.6774 303.4236,-73.6167"/>
<polygon fill="#191970" stroke="#191970" points="304.4177,-76.982 313.4362,-71.4218 302.9187,-70.1444 304.4177,-76.982"/>
</g>
<!-- Node3 -->
<g id="node4" class="node">
<title>Node3</title>
<g id="a_node4"><a xlink:href="AST_8h.html" target="_top" xlink:title=" ">
<polygon fill="#ffffff" stroke="#000000" points="1005.5,-392.5 1005.5,-411.5 1048.5,-411.5 1048.5,-392.5 1005.5,-392.5"/>
<text text-anchor="middle" x="1027" y="-399.5" font-family="Helvetica,sans-Serif" font-size="10.00" fill="#000000">AST.h</text>
</a>
</g>
</g>
<!-- Node0&#45;&gt;Node3 -->
<g id="edge3" class="edge">
<title>Node0&#45;&gt;Node3</title>
<path fill="none" stroke="#191970" d="M1024.2558,-504.4509C1024.7451,-486.184 1025.8226,-445.9553 1026.4724,-421.6976"/>
<polygon fill="#191970" stroke="#191970" points="1029.9758,-421.6151 1026.7449,-411.5249 1022.9783,-421.4276 1029.9758,-421.6151"/>
</g>
<!-- Node6 -->
<g id="node7" class="node">
<title>Node6</title>
<g id="a_node7"><a xlink:href="builtins_8h.html" target="_top" xlink:title=" ">
<polygon fill="#ffffff" stroke="#000000" points="549,-280.5 549,-299.5 611,-299.5 611,-280.5 549,-280.5"/>
<text text-anchor="middle" x="580" y="-287.5" font-family="Helvetica,sans-Serif" font-size="10.00" fill="#000000">builtins.h</text>
</a>
</g>
</g>
<!-- Node0&#45;&gt;Node6 -->
<g id="edge36" class="edge">
<title>Node0&#45;&gt;Node6</title>
<path fill="none" stroke="#191970" d="M1004.9219,-504.375C934.8296,-469.0132 691.3083,-346.1555 608.1142,-304.1838"/>
<polygon fill="#191970" stroke="#191970" points="609.5117,-300.9686 599.007,-299.5891 606.3587,-307.2183 609.5117,-300.9686"/>
</g>
<!-- Node20 -->
<g id="node21" class="node">
<title>Node20</title>
<g id="a_node21"><a xlink:title=" ">
<polygon fill="#ffffff" stroke="#bfbfbf" points="1126,-448.5 1126,-467.5 1174,-467.5 1174,-448.5 1126,-448.5"/>
<text text-anchor="middle" x="1150" y="-455.5" font-family="Helvetica,sans-Serif" font-size="10.00" fill="#000000">error.h</text>
</a>
</g>
</g>
<!-- Node0&#45;&gt;Node20 -->
<g id="edge37" class="edge">
<title>Node0&#45;&gt;Node20</title>
<path fill="none" stroke="#191970" d="M1045.6602,-504.3733C1065.9772,-495.3435 1096.564,-481.7494 1119.375,-471.6111"/>
<polygon fill="#191970" stroke="#191970" points="1120.9059,-474.7609 1128.6225,-467.5011 1118.0628,-468.3642 1120.9059,-474.7609"/>
</g>
<!-- Node21 -->
<g id="node22" class="node">
<title>Node21</title>
<g id="a_node22"><a xlink:href="helios__test_8h.html" target="_top" xlink:title=" ">
<polygon fill="#ffffff" stroke="#000000" points="1220.5,-448.5 1220.5,-467.5 1299.5,-467.5 1299.5,-448.5 1220.5,-448.5"/>
<text text-anchor="middle" x="1260" y="-455.5" font-family="Helvetica,sans-Serif" font-size="10.00" fill="#000000">helios_test.h</text>
</a>
</g>
</g>
<!-- Node0&#45;&gt;Node21 -->
<g id="edge38" class="edge">
<title>Node0&#45;&gt;Node21</title>
<path fill="none" stroke="#191970" d="M1064.3017,-504.4369C1104.7286,-494.8441 1167.0585,-480.0539 1210.4758,-469.7515"/>
<polygon fill="#191970" stroke="#191970" points="1211.3365,-473.1446 1220.2582,-467.4303 1209.7203,-466.3337 1211.3365,-473.1446"/>
</g>
<!-- Node27 -->
<g id="node28" class="node">
<title>Node27</title>
<g id="a_node28"><a xlink:href="hvm_8h.html" target="_top" xlink:title=" ">
<polygon fill="#ffffff" stroke="#000000" points="895.5,-336.5 895.5,-355.5 942.5,-355.5 942.5,-336.5 895.5,-336.5"/>
<text text-anchor="middle" x="919" y="-343.5" font-family="Helvetica,sans-Serif" font-size="10.00" fill="#000000">hvm.h</text>
</a>
</g>
</g>
<!-- Node0&#45;&gt;Node27 -->
<g id="edge44" class="edge">
<title>Node0&#45;&gt;Node27</title>
<path fill="none" stroke="#191970" d="M1018.0539,-504.4862C1001.1684,-477.4695 952.7128,-399.9405 930.4438,-364.3102"/>
<polygon fill="#191970" stroke="#191970" points="933.4105,-362.4529 925.1424,-355.8279 927.4745,-366.1629 933.4105,-362.4529"/>
</g>
<!-- Node28 -->
<g id="node29" class="node">
<title>Node28</title>
<g id="a_node29"><a xlink:href="parser_8h.html" target="_top" xlink:title=" ">
<polygon fill="#ffffff" stroke="#000000" points="1052,-448.5 1052,-467.5 1108,-467.5 1108,-448.5 1052,-448.5"/>
<text text-anchor="middle" x="1080" y="-455.5" font-family="Helvetica,sans-Serif" font-size="10.00" fill="#000000">parser.h</text>
</a>
</g>
</g>
<!-- Node0&#45;&gt;Node28 -->
<g id="edge47" class="edge">
<title>Node0&#45;&gt;Node28</title>
<path fill="none" stroke="#191970" d="M1033.7545,-504.2455C1041.8648,-496.1352 1053.5925,-484.4075 1063.2081,-474.7919"/>
<polygon fill="#191970" stroke="#191970" points="1065.7611,-477.1887 1070.3573,-467.6427 1060.8113,-472.2389 1065.7611,-477.1887"/>
</g>
<!-- Node30 -->
<g id="node31" class="node">
<title>Node30</title>
<g id="a_node31"><a xlink:href="files_8h.html" target="_top" xlink:title=" ">
<polygon fill="#ffffff" stroke="#000000" points="1318,-448.5 1318,-467.5 1364,-467.5 1364,-448.5 1318,-448.5"/>
<text text-anchor="middle" x="1341" y="-455.5" font-family="Helvetica,sans-Serif" font-size="10.00" fill="#000000">files.h</text>
</a>
</g>
</g>
<!-- Node0&#45;&gt;Node30 -->
<g id="edge54" class="edge">
<title>Node0&#45;&gt;Node30</title>
<path fill="none" stroke="#191970" d="M1077.0148,-507.5685C1132.2441,-500.3872 1221.3937,-487.4457 1307.7039,-467.7937"/>
<polygon fill="#191970" stroke="#191970" points="1308.7128,-471.1529 1317.6682,-465.4916 1307.137,-464.3325 1308.7128,-471.1529"/>
</g>
<!-- Node4 -->
<g id="node5" class="node">
<title>Node4</title>
<g id="a_node5"><a xlink:title=" ">
<polygon fill="#ffffff" stroke="#bfbfbf" points="977.5,-.5 977.5,-19.5 1030.5,-19.5 1030.5,-.5 977.5,-.5"/>
<text text-anchor="middle" x="1004" y="-7.5" font-family="Helvetica,sans-Serif" font-size="10.00" fill="#000000">stdint.h</text>
</a>
</g>
</g>
<!-- Node3&#45;&gt;Node4 -->
<g id="edge4" class="edge">
<title>Node3&#45;&gt;Node4</title>
<path fill="none" stroke="#191970" d="M1029.1491,-392.4693C1033.2968,-373.2151 1042,-328.2552 1042,-290 1042,-290 1042,-290 1042,-122 1042,-87.6118 1025.7366,-50.2832 1014.489,-28.5791"/>
<polygon fill="#191970" stroke="#191970" points="1017.431,-26.6605 1009.607,-19.5166 1011.2683,-29.9804 1017.431,-26.6605"/>
</g>
<!-- Node5 -->
<g id="node6" class="node">
<title>Node5</title>
<g id="a_node6"><a xlink:href="token_8h.html" target="_top" xlink:title=" ">
<polygon fill="#ffffff" stroke="#000000" points="960.5,-336.5 960.5,-355.5 1013.5,-355.5 1013.5,-336.5 960.5,-336.5"/>
<text text-anchor="middle" x="987" y="-343.5" font-family="Helvetica,sans-Serif" font-size="10.00" fill="#000000">token.h</text>
</a>
</g>
</g>
<!-- Node3&#45;&gt;Node5 -->
<g id="edge5" class="edge">
<title>Node3&#45;&gt;Node5</title>
<path fill="none" stroke="#191970" d="M1020.0325,-392.2455C1014.4689,-384.4564 1006.522,-373.3308 999.8171,-363.9439"/>
<polygon fill="#191970" stroke="#191970" points="1002.5481,-361.7457 993.8876,-355.6427 996.852,-365.8144 1002.5481,-361.7457"/>
</g>
<!-- Node5&#45;&gt;Node4 -->
<g id="edge35" class="edge">
<title>Node5&#45;&gt;Node4</title>
<path fill="none" stroke="#191970" d="M989.4357,-336.4856C994.1363,-317.2608 1004,-272.351 1004,-234 1004,-234 1004,-234 1004,-122 1004,-89.7116 1004,-52.1872 1004,-29.8048"/>
<polygon fill="#191970" stroke="#191970" points="1007.5001,-29.5883 1004,-19.5884 1000.5001,-29.5884 1007.5001,-29.5883"/>
</g>
<!-- Node5&#45;&gt;Node6 -->
<g id="edge6" class="edge">
<title>Node5&#45;&gt;Node6</title>
<path fill="none" stroke="#191970" d="M960.3692,-338.1307C957.2272,-337.3426 954.0533,-336.6099 951,-336 832.3456,-312.299 689.755,-298.7227 621.0173,-293.0941"/>
<polygon fill="#191970" stroke="#191970" points="621.2772,-289.6038 611.0285,-292.2898 620.7153,-296.5812 621.2772,-289.6038"/>
</g>
<!-- Node12 -->
<g id="node13" class="node">
<title>Node12</title>
<g id="a_node13"><a xlink:title=" ">
<polygon fill="#ffffff" stroke="#bfbfbf" points="840,-.5 840,-19.5 902,-19.5 902,-.5 840,-.5"/>
<text text-anchor="middle" x="871" y="-7.5" font-family="Helvetica,sans-Serif" font-size="10.00" fill="#000000">stdbool.h</text>
</a>
</g>
</g>
<!-- Node5&#45;&gt;Node12 -->
<g id="edge34" class="edge">
<title>Node5&#45;&gt;Node12</title>
<path fill="none" stroke="#191970" d="M977.7813,-336.4119C961.1875,-318.0983 928,-276.1966 928,-234 928,-234 928,-234 928,-178 928,-121.2732 898.4962,-59.2122 881.9417,-28.8547"/>
<polygon fill="#191970" stroke="#191970" points="884.8262,-26.8423 876.8853,-19.8285 878.7191,-30.2635 884.8262,-26.8423"/>
</g>
<!-- Node7 -->
<g id="node8" class="node">
<title>Node7</title>
<g id="a_node8"><a xlink:href="builtinutils_8h.html" target="_top" xlink:title=" ">
<polygon fill="#ffffff" stroke="#000000" points="345.5,-.5 345.5,-19.5 422.5,-19.5 422.5,-.5 345.5,-.5"/>
<text text-anchor="middle" x="384" y="-7.5" font-family="Helvetica,sans-Serif" font-size="10.00" fill="#000000">builtinutils.h</text>
</a>
</g>
</g>
<!-- Node6&#45;&gt;Node7 -->
<g id="edge7" class="edge">
<title>Node6&#45;&gt;Node7</title>
<path fill="none" stroke="#191970" d="M548.9463,-288.0389C457.9311,-282.0886 196.1315,-263.4535 163,-244 131.9463,-225.7665 116,-214.011 116,-178 116,-178 116,-178 116,-122 116,-75.0063 258.0568,-37.0735 335.3203,-19.9175"/>
<polygon fill="#191970" stroke="#191970" points="336.2943,-23.2874 345.3167,-17.7334 334.8001,-16.4487 336.2943,-23.2874"/>
</g>
<!-- Node8 -->
<g id="node9" class="node">
<title>Node8</title>
<g id="a_node9"><a xlink:href="helios__boolean_8h.html" target="_top" xlink:title=" ">
<polygon fill="#ffffff" stroke="#000000" points="639.5,-224.5 639.5,-243.5 738.5,-243.5 738.5,-224.5 639.5,-224.5"/>
<text text-anchor="middle" x="689" y="-231.5" font-family="Helvetica,sans-Serif" font-size="10.00" fill="#000000">helios_boolean.h</text>
</a>
</g>
</g>
<!-- Node6&#45;&gt;Node8 -->
<g id="edge8" class="edge">
<title>Node6&#45;&gt;Node8</title>
<path fill="none" stroke="#191970" d="M598.9864,-280.2455C616.1792,-271.4125 641.7238,-258.2887 661.2132,-248.2758"/>
<polygon fill="#191970" stroke="#191970" points="662.9359,-251.3257 670.2312,-243.6427 659.737,-245.0993 662.9359,-251.3257"/>
</g>
<!-- Node9 -->
<g id="node10" class="node">
<title>Node9</title>
<g id="a_node10"><a xlink:href="helios__object_8h.html" target="_top" xlink:title=" ">
<polygon fill="#ffffff" stroke="#000000" points="465,-168.5 465,-187.5 555,-187.5 555,-168.5 465,-168.5"/>
<text text-anchor="middle" x="510" y="-175.5" font-family="Helvetica,sans-Serif" font-size="10.00" fill="#000000">helios_object.h</text>
</a>
</g>
</g>
<!-- Node6&#45;&gt;Node9 -->
<g id="edge28" class="edge">
<title>Node6&#45;&gt;Node9</title>
<path fill="none" stroke="#191970" d="M565.4218,-280.3369C553.9372,-272.001 538.3529,-258.9647 529,-244 520.124,-229.7984 515.2683,-211.3133 512.6933,-197.5198"/>
<polygon fill="#191970" stroke="#191970" points="516.1455,-196.9426 511.0839,-187.635 509.2365,-198.0675 516.1455,-196.9426"/>
</g>
<!-- Node11 -->
<g id="node12" class="node">
<title>Node11</title>
<g id="a_node12"><a xlink:href="helios__memory_8h.html" target="_top" xlink:title=" ">
<polygon fill="#ffffff" stroke="#000000" points="686,-56.5 686,-75.5 786,-75.5 786,-56.5 686,-56.5"/>
<text text-anchor="middle" x="736" y="-63.5" font-family="Helvetica,sans-Serif" font-size="10.00" fill="#000000">helios_memory.h</text>
</a>
</g>
</g>
<!-- Node6&#45;&gt;Node11 -->
<g id="edge31" class="edge">
<title>Node6&#45;&gt;Node11</title>
<path fill="none" stroke="#191970" d="M611.0353,-287.3365C682.388,-280.8996 853.2834,-263.5772 870,-244 919.5225,-186.0031 813.2815,-111.7592 761.8296,-80.6951"/>
<polygon fill="#191970" stroke="#191970" points="763.5869,-77.6681 753.2,-75.5795 760.0174,-83.6896 763.5869,-77.6681"/>
</g>
<!-- Node14 -->
<g id="node15" class="node">
<title>Node14</title>
<g id="a_node15"><a xlink:href="helios__code_8h.html" target="_top" xlink:title=" ">
<polygon fill="#ffffff" stroke="#000000" points="538.5,-224.5 538.5,-243.5 621.5,-243.5 621.5,-224.5 538.5,-224.5"/>
<text text-anchor="middle" x="580" y="-231.5" font-family="Helvetica,sans-Serif" font-size="10.00" fill="#000000">helios_code.h</text>
</a>
</g>
</g>
<!-- Node6&#45;&gt;Node14 -->
<g id="edge19" class="edge">
<title>Node6&#45;&gt;Node14</title>
<path fill="none" stroke="#191970" d="M580,-280.2455C580,-272.9382 580,-262.6944 580,-253.7046"/>
<polygon fill="#191970" stroke="#191970" points="583.5001,-253.6426 580,-243.6427 576.5001,-253.6427 583.5001,-253.6426"/>
</g>
<!-- Node15 -->
<g id="node16" class="node">
<title>Node15</title>
<g id="a_node16"><a xlink:href="helios__float_8h.html" target="_top" xlink:title=" ">
<polygon fill="#ffffff" stroke="#000000" points="182,-224.5 182,-243.5 264,-243.5 264,-224.5 182,-224.5"/>
<text text-anchor="middle" x="223" y="-231.5" font-family="Helvetica,sans-Serif" font-size="10.00" fill="#000000">helios_float.h</text>
</a>
</g>
</g>
<!-- Node6&#45;&gt;Node15 -->
<g id="edge21" class="edge">
<title>Node6&#45;&gt;Node15</title>
<path fill="none" stroke="#191970" d="M548.9806,-285.8608C495.166,-278.5699 380.8023,-262.5926 274.1362,-244.1349"/>
<polygon fill="#191970" stroke="#191970" points="274.6232,-240.6671 264.1709,-242.3992 273.422,-247.5633 274.6232,-240.6671"/>
</g>
<!-- Node16 -->
<g id="node17" class="node">
<title>Node16</title>
<g id="a_node17"><a xlink:href="helios__hashmap_8h.html" target="_top" xlink:title=" ">
<polygon fill="#ffffff" stroke="#000000" points="756.5,-224.5 756.5,-243.5 861.5,-243.5 861.5,-224.5 756.5,-224.5"/>
<text text-anchor="middle" x="809" y="-231.5" font-family="Helvetica,sans-Serif" font-size="10.00" fill="#000000">helios_hashmap.h</text>
</a>
</g>
</g>
<!-- Node6&#45;&gt;Node16 -->
<g id="edge23" class="edge">
<title>Node6&#45;&gt;Node16</title>
<path fill="none" stroke="#191970" d="M611.3613,-282.3309C649.7395,-272.9458 715.1545,-256.9491 760.1467,-245.9467"/>
<polygon fill="#191970" stroke="#191970" points="761.1017,-249.3163 769.984,-243.541 759.4388,-242.5167 761.1017,-249.3163"/>
</g>
<!-- Node17 -->
<g id="node18" class="node">
<title>Node17</title>
<g id="a_node18"><a xlink:href="helios__integer_8h.html" target="_top" xlink:title=" ">
<polygon fill="#ffffff" stroke="#000000" points="282,-224.5 282,-243.5 376,-243.5 376,-224.5 282,-224.5"/>
<text text-anchor="middle" x="329" y="-231.5" font-family="Helvetica,sans-Serif" font-size="10.00" fill="#000000">helios_integer.h</text>
</a>
</g>
</g>
<!-- Node6&#45;&gt;Node17 -->
<g id="edge26" class="edge">
<title>Node6&#45;&gt;Node17</title>
<path fill="none" stroke="#191970" d="M548.9707,-283.0771C507.1627,-273.7494 432.1545,-257.0145 381.4881,-245.7105"/>
<polygon fill="#191970" stroke="#191970" points="382.2187,-242.2875 371.6965,-243.5259 380.6943,-249.1195 382.2187,-242.2875"/>
</g>
<!-- Node18 -->
<g id="node19" class="node">
<title>Node18</title>
<g id="a_node19"><a xlink:href="helios__string_8h.html" target="_top" xlink:title=" ">
<polygon fill="#ffffff" stroke="#000000" points="394,-224.5 394,-243.5 482,-243.5 482,-224.5 394,-224.5"/>
<text text-anchor="middle" x="438" y="-231.5" font-family="Helvetica,sans-Serif" font-size="10.00" fill="#000000">helios_string.h</text>
</a>
</g>
</g>
<!-- Node6&#45;&gt;Node18 -->
<g id="edge29" class="edge">
<title>Node6&#45;&gt;Node18</title>
<path fill="none" stroke="#191970" d="M555.5893,-280.3733C532.3858,-271.2226 497.2962,-257.3844 471.4858,-247.2057"/>
<polygon fill="#191970" stroke="#191970" points="472.6789,-243.9139 462.0921,-243.5011 470.1108,-250.4258 472.6789,-243.9139"/>
</g>
<!-- Node19 -->
<g id="node20" class="node">
<title>Node19</title>
<g id="a_node20"><a xlink:href="serialize_8h.html" target="_top" xlink:title=" ">
<polygon fill="#ffffff" stroke="#000000" points="262.5,-168.5 262.5,-187.5 329.5,-187.5 329.5,-168.5 262.5,-168.5"/>
<text text-anchor="middle" x="296" y="-175.5" font-family="Helvetica,sans-Serif" font-size="10.00" fill="#000000">serialize.h</text>
</a>
</g>
</g>
<!-- Node6&#45;&gt;Node19 -->
<g id="edge32" class="edge">
<title>Node6&#45;&gt;Node19</title>
<path fill="none" stroke="#191970" d="M548.6868,-288.8153C457.6591,-285.0529 197.9604,-271.9404 173,-244 145.982,-213.7563 206.8452,-194.8502 252.2411,-185.3825"/>
<polygon fill="#191970" stroke="#191970" points="253.1058,-188.7792 262.2309,-183.3956 251.7402,-181.9137 253.1058,-188.7792"/>
</g>
<!-- Node8&#45;&gt;Node9 -->
<g id="edge9" class="edge">
<title>Node8&#45;&gt;Node9</title>
<path fill="none" stroke="#191970" d="M658.2288,-224.3733C628.335,-215.021 582.7907,-200.7725 550.0783,-190.5385"/>
<polygon fill="#191970" stroke="#191970" points="550.9586,-187.1466 540.3697,-187.5011 548.8685,-193.8273 550.9586,-187.1466"/>
</g>
<!-- Node8&#45;&gt;Node12 -->
<g id="edge18" class="edge">
<title>Node8&#45;&gt;Node12</title>
<path fill="none" stroke="#191970" d="M696.8203,-224.375C724.8226,-189.9107 820.3523,-72.3356 856.7543,-27.5331"/>
<polygon fill="#191970" stroke="#191970" points="859.6193,-29.5574 863.2088,-19.5891 854.1865,-25.1432 859.6193,-29.5574"/>
</g>
<!-- Node10 -->
<g id="node11" class="node">
<title>Node10</title>
<g id="a_node11"><a xlink:href="helios__type_8h.html" target="_top" xlink:title=" ">
<polygon fill="#ffffff" stroke="#000000" points="469,-112.5 469,-131.5 551,-131.5 551,-112.5 469,-112.5"/>
<text text-anchor="middle" x="510" y="-119.5" font-family="Helvetica,sans-Serif" font-size="10.00" fill="#000000">helios_type.h</text>
</a>
</g>
</g>
<!-- Node9&#45;&gt;Node10 -->
<g id="edge10" class="edge">
<title>Node9&#45;&gt;Node10</title>
<path fill="none" stroke="#191970" d="M510,-168.2455C510,-160.9382 510,-150.6944 510,-141.7046"/>
<polygon fill="#191970" stroke="#191970" points="513.5001,-141.6426 510,-131.6427 506.5001,-141.6427 513.5001,-141.6426"/>
</g>
<!-- Node10&#45;&gt;Node2 -->
<g id="edge17" class="edge">
<title>Node10&#45;&gt;Node2</title>
<path fill="none" stroke="#191970" d="M480.776,-112.3733C451.8222,-102.8356 407.4098,-88.2056 376.2298,-77.9345"/>
<polygon fill="#191970" stroke="#191970" points="377.2008,-74.5694 366.6077,-74.7649 375.0106,-81.218 377.2008,-74.5694"/>
</g>
<!-- Node10&#45;&gt;Node4 -->
<g id="edge16" class="edge">
<title>Node10&#45;&gt;Node4</title>
<path fill="none" stroke="#191970" d="M551.432,-117.2385C607.233,-110.3891 709.4161,-96.3055 795,-76 856.9075,-61.3119 927.1094,-37.6535 968.3583,-23.0097"/>
<polygon fill="#191970" stroke="#191970" points="969.7115,-26.2429 977.9501,-19.5813 967.3555,-19.6513 969.7115,-26.2429"/>
</g>
<!-- Node10&#45;&gt;Node11 -->
<g id="edge11" class="edge">
<title>Node10&#45;&gt;Node11</title>
<path fill="none" stroke="#191970" d="M548.594,-112.4369C587.0284,-102.9133 646.136,-88.2672 687.671,-77.9753"/>
<polygon fill="#191970" stroke="#191970" points="688.7006,-81.3261 697.5652,-75.5237 687.0169,-74.5316 688.7006,-81.3261"/>
</g>
<!-- Node11&#45;&gt;Node4 -->
<g id="edge15" class="edge">
<title>Node11&#45;&gt;Node4</title>
<path fill="none" stroke="#191970" d="M781.7663,-56.4369C834.1357,-45.494 918.8717,-27.788 967.1718,-17.6954"/>
<polygon fill="#191970" stroke="#191970" points="968.1156,-21.0739 977.1882,-15.6025 966.6837,-14.2219 968.1156,-21.0739"/>
</g>
<!-- Node11&#45;&gt;Node7 -->
<g id="edge12" class="edge">
<title>Node11&#45;&gt;Node7</title>
<path fill="none" stroke="#191970" d="M685.9408,-58.036C618.558,-47.316 499.4547,-28.3678 432.7497,-17.7556"/>
<polygon fill="#191970" stroke="#191970" points="432.9356,-14.2413 422.5098,-16.1266 431.8357,-21.1543 432.9356,-14.2413"/>
</g>
<!-- Node11&#45;&gt;Node12 -->
<g id="edge13" class="edge">
<title>Node11&#45;&gt;Node12</title>
<path fill="none" stroke="#191970" d="M759.2073,-56.3733C781.1699,-47.2629 814.3332,-33.5062 838.8401,-23.3404"/>
<polygon fill="#191970" stroke="#191970" points="840.1997,-26.5657 848.0955,-19.5011 837.5176,-20.0999 840.1997,-26.5657"/>
</g>
<!-- Node13 -->
<g id="node14" class="node">
<title>Node13</title>
<g id="a_node14"><a xlink:title=" ">
<polygon fill="#ffffff" stroke="#bfbfbf" points="708,-.5 708,-19.5 764,-19.5 764,-.5 708,-.5"/>
<text text-anchor="middle" x="736" y="-7.5" font-family="Helvetica,sans-Serif" font-size="10.00" fill="#000000">stddef.h</text>
</a>
</g>
</g>
<!-- Node11&#45;&gt;Node13 -->
<g id="edge14" class="edge">
<title>Node11&#45;&gt;Node13</title>
<path fill="none" stroke="#191970" d="M736,-56.2455C736,-48.9382 736,-38.6944 736,-29.7046"/>
<polygon fill="#191970" stroke="#191970" points="739.5001,-29.6426 736,-19.6427 732.5001,-29.6427 739.5001,-29.6426"/>
</g>
<!-- Node14&#45;&gt;Node9 -->
<g id="edge20" class="edge">
<title>Node14&#45;&gt;Node9</title>
<path fill="none" stroke="#191970" d="M567.8069,-224.2455C557.3679,-215.8943 542.1345,-203.7076 529.926,-193.9408"/>
<polygon fill="#191970" stroke="#191970" points="532.0485,-191.1566 522.0533,-187.6427 527.6756,-196.6227 532.0485,-191.1566"/>
</g>
<!-- Node15&#45;&gt;Node9 -->
<g id="edge22" class="edge">
<title>Node15&#45;&gt;Node9</title>
<path fill="none" stroke="#191970" d="M264.197,-225.7413C267.1757,-225.1501 270.1338,-224.5648 273,-224 335.3872,-211.7069 407.0636,-197.8292 455.1096,-188.5621"/>
<polygon fill="#191970" stroke="#191970" points="455.835,-191.9868 464.9915,-186.6569 454.5097,-185.1134 455.835,-191.9868"/>
</g>
<!-- Node16&#45;&gt;Node9 -->
<g id="edge24" class="edge">
<title>Node16&#45;&gt;Node9</title>
<path fill="none" stroke="#191970" d="M757.9398,-224.4369C704.396,-214.4086 620.5256,-198.7004 565.4066,-188.3772"/>
<polygon fill="#191970" stroke="#191970" points="565.9365,-184.9156 555.4631,-186.5148 564.6479,-191.796 565.9365,-184.9156"/>
</g>
<!-- Node16&#45;&gt;Node12 -->
<g id="edge25" class="edge">
<title>Node16&#45;&gt;Node12</title>
<path fill="none" stroke="#191970" d="M813.5246,-224.2944C817.6884,-215.0961 823.832,-200.8186 828,-188 846.2907,-131.7465 860.7085,-63.2357 867.221,-30.0008"/>
<polygon fill="#191970" stroke="#191970" points="870.7323,-30.276 869.1883,-19.7942 863.8588,-28.9511 870.7323,-30.276"/>
</g>
<!-- Node17&#45;&gt;Node9 -->
<g id="edge27" class="edge">
<title>Node17&#45;&gt;Node9</title>
<path fill="none" stroke="#191970" d="M360.115,-224.3733C390.3429,-215.021 436.396,-200.7725 469.4739,-190.5385"/>
<polygon fill="#191970" stroke="#191970" points="470.7723,-193.8005 479.291,-187.5011 468.7033,-187.1133 470.7723,-193.8005"/>
</g>
<!-- Node18&#45;&gt;Node9 -->
<g id="edge30" class="edge">
<title>Node18&#45;&gt;Node9</title>
<path fill="none" stroke="#191970" d="M450.5414,-224.2455C461.2787,-215.8943 476.9473,-203.7076 489.5047,-193.9408"/>
<polygon fill="#191970" stroke="#191970" points="491.8575,-196.5449 497.6023,-187.6427 487.5599,-191.0194 491.8575,-196.5449"/>
</g>
<!-- Node19&#45;&gt;Node10 -->
<g id="edge33" class="edge">
<title>Node19&#45;&gt;Node10</title>
<path fill="none" stroke="#191970" d="M329.9089,-169.1266C365.9802,-159.6874 423.2798,-144.6931 463.5383,-134.1582"/>
<polygon fill="#191970" stroke="#191970" points="464.5949,-137.4996 473.3831,-131.582 462.8228,-130.7277 464.5949,-137.4996"/>
</g>
<!-- Node22 -->
<g id="node23" class="node">
<title>Node22</title>
<g id="a_node23"><a xlink:href="builtins__test_8h.html" target="_top" xlink:title=" ">
<polygon fill="#ffffff" stroke="#000000" points="1346,-392.5 1346,-411.5 1432,-411.5 1432,-392.5 1346,-392.5"/>
<text text-anchor="middle" x="1389" y="-399.5" font-family="Helvetica,sans-Serif" font-size="10.00" fill="#000000">builtins_test.h</text>
</a>
</g>
</g>
<!-- Node21&#45;&gt;Node22 -->
<g id="edge39" class="edge">
<title>Node21&#45;&gt;Node22</title>
<path fill="none" stroke="#191970" d="M1282.1759,-448.3733C1302.9766,-439.3435 1334.2917,-425.7494 1357.6458,-415.6111"/>
<polygon fill="#191970" stroke="#191970" points="1359.3343,-418.6938 1367.1135,-411.5011 1356.5468,-412.2727 1359.3343,-418.6938"/>
</g>
<!-- Node26 -->
<g id="node27" class="node">
<title>Node26</title>
<g id="a_node27"><a xlink:href="parser__test_8h.html" target="_top" xlink:title=" ">
<polygon fill="#ffffff" stroke="#000000" points="1248,-392.5 1248,-411.5 1328,-411.5 1328,-392.5 1248,-392.5"/>
<text text-anchor="middle" x="1288" y="-399.5" font-family="Helvetica,sans-Serif" font-size="10.00" fill="#000000">parser_test.h</text>
</a>
</g>
</g>
<!-- Node21&#45;&gt;Node26 -->
<g id="edge43" class="edge">
<title>Node21&#45;&gt;Node26</title>
<path fill="none" stroke="#191970" d="M1264.8772,-448.2455C1268.6513,-440.6973 1273.9921,-430.0158 1278.5901,-420.8197"/>
<polygon fill="#191970" stroke="#191970" points="1281.837,-422.1522 1283.1787,-411.6427 1275.576,-419.0217 1281.837,-422.1522"/>
</g>
<!-- Node23 -->
<g id="node24" class="node">
<title>Node23</title>
<g id="a_node24"><a xlink:href="float__test_8h.html" target="_top" xlink:title=" ">
<polygon fill="#ffffff" stroke="#000000" points="1252.5,-336.5 1252.5,-355.5 1323.5,-355.5 1323.5,-336.5 1252.5,-336.5"/>
<text text-anchor="middle" x="1288" y="-343.5" font-family="Helvetica,sans-Serif" font-size="10.00" fill="#000000">float_test.h</text>
</a>
</g>
</g>
<!-- Node22&#45;&gt;Node23 -->
<g id="edge40" class="edge">
<title>Node22&#45;&gt;Node23</title>
<path fill="none" stroke="#191970" d="M1371.4071,-392.2455C1355.621,-383.4928 1332.2361,-370.527 1314.2413,-360.5496"/>
<polygon fill="#191970" stroke="#191970" points="1315.8341,-357.4308 1305.3913,-355.6427 1312.4397,-363.5528 1315.8341,-357.4308"/>
</g>
<!-- Node24 -->
<g id="node25" class="node">
<title>Node24</title>
<g id="a_node25"><a xlink:href="hashmap__test_8h.html" target="_top" xlink:title=" ">
<polygon fill="#ffffff" stroke="#000000" points="1341.5,-336.5 1341.5,-355.5 1436.5,-355.5 1436.5,-336.5 1341.5,-336.5"/>
<text text-anchor="middle" x="1389" y="-343.5" font-family="Helvetica,sans-Serif" font-size="10.00" fill="#000000">hashmap_test.h</text>
</a>
</g>
</g>
<!-- Node22&#45;&gt;Node24 -->
<g id="edge41" class="edge">
<title>Node22&#45;&gt;Node24</title>
<path fill="none" stroke="#191970" d="M1389,-392.2455C1389,-384.9382 1389,-374.6944 1389,-365.7046"/>
<polygon fill="#191970" stroke="#191970" points="1392.5001,-365.6426 1389,-355.6427 1385.5001,-365.6427 1392.5001,-365.6426"/>
</g>
<!-- Node25 -->
<g id="node26" class="node">
<title>Node25</title>
<g id="a_node26"><a xlink:href="integer__test_8h.html" target="_top" xlink:title=" ">
<polygon fill="#ffffff" stroke="#000000" points="1455,-336.5 1455,-355.5 1539,-355.5 1539,-336.5 1455,-336.5"/>
<text text-anchor="middle" x="1497" y="-343.5" font-family="Helvetica,sans-Serif" font-size="10.00" fill="#000000">integer_test.h</text>
</a>
</g>
</g>
<!-- Node22&#45;&gt;Node25 -->
<g id="edge42" class="edge">
<title>Node22&#45;&gt;Node25</title>
<path fill="none" stroke="#191970" d="M1407.8122,-392.2455C1424.8473,-383.4125 1450.1575,-370.2887 1469.4681,-360.2758"/>
<polygon fill="#191970" stroke="#191970" points="1471.137,-363.353 1478.4034,-355.6427 1467.9147,-357.1388 1471.137,-363.353"/>
</g>
<!-- Node27&#45;&gt;Node4 -->
<g id="edge46" class="edge">
<title>Node27&#45;&gt;Node4</title>
<path fill="none" stroke="#191970" d="M926.1383,-336.3839C939.2864,-317.6891 966,-274.6982 966,-234 966,-234 966,-234 966,-122 966,-87.6118 982.2634,-50.2832 993.511,-28.5791"/>
<polygon fill="#191970" stroke="#191970" points="996.7317,-29.9804 998.393,-19.5166 990.569,-26.6605 996.7317,-29.9804"/>
</g>
<!-- Node27&#45;&gt;Node6 -->
<g id="edge45" class="edge">
<title>Node27&#45;&gt;Node6</title>
<path fill="none" stroke="#191970" d="M895.4313,-342.1066C838.4722,-332.6975 692.7625,-308.6274 621.081,-296.7862"/>
<polygon fill="#191970" stroke="#191970" points="621.4984,-293.3078 611.0616,-295.1311 620.3574,-300.2142 621.4984,-293.3078"/>
</g>
<!-- Node28&#45;&gt;Node3 -->
<g id="edge48" class="edge">
<title>Node28&#45;&gt;Node3</title>
<path fill="none" stroke="#191970" d="M1070.7681,-448.2455C1063.1683,-440.2155 1052.2123,-428.6394 1043.1632,-419.0781"/>
<polygon fill="#191970" stroke="#191970" points="1045.542,-416.4998 1036.1261,-411.6427 1040.4579,-421.3115 1045.542,-416.4998"/>
</g>
<!-- Node28&#45;&gt;Node4 -->
<g id="edge53" class="edge">
<title>Node28&#45;&gt;Node4</title>
<path fill="none" stroke="#191970" d="M1108.3311,-449.5356C1149.2395,-435.3591 1220,-402.6499 1220,-346 1220,-346 1220,-346 1220,-122 1220,-91.4754 1223.1265,-77.0278 1201,-56 1178.2421,-34.3722 1091.1897,-20.5176 1040.7453,-14.1274"/>
<polygon fill="#191970" stroke="#191970" points="1040.9253,-10.6233 1030.5729,-12.877 1040.0712,-17.571 1040.9253,-10.6233"/>
</g>
<!-- Node28&#45;&gt;Node12 -->
<g id="edge52" class="edge">
<title>Node28&#45;&gt;Node12</title>
<path fill="none" stroke="#191970" d="M1080,-448.4116C1080,-429.0538 1080,-383.9167 1080,-346 1080,-346 1080,-346 1080,-122 1080,-46.6994 973.2964,-21.826 912.3736,-13.7612"/>
<polygon fill="#191970" stroke="#191970" points="912.6413,-10.2679 902.2894,-12.5238 911.7887,-17.2158 912.6413,-10.2679"/>
</g>
<!-- Node29 -->
<g id="node30" class="node">
<title>Node29</title>
<g id="a_node30"><a xlink:href="parser__error_8h.html" target="_top" xlink:title=" ">
<polygon fill="#ffffff" stroke="#000000" points="1108,-56.5 1108,-75.5 1192,-75.5 1192,-56.5 1108,-56.5"/>
<text text-anchor="middle" x="1150" y="-63.5" font-family="Helvetica,sans-Serif" font-size="10.00" fill="#000000">parser_error.h</text>
</a>
</g>
</g>
<!-- Node28&#45;&gt;Node29 -->
<g id="edge49" class="edge">
<title>Node28&#45;&gt;Node29</title>
<path fill="none" stroke="#191970" d="M1088.4375,-448.2711C1103.625,-429.723 1134,-387.4461 1134,-346 1134,-346 1134,-346 1134,-178 1134,-145.2342 1140.7939,-107.6134 1145.5275,-85.3778"/>
<polygon fill="#191970" stroke="#191970" points="1148.9649,-86.0428 1147.7076,-75.5228 1142.1302,-84.5307 1148.9649,-86.0428"/>
</g>
<!-- Node29&#45;&gt;Node4 -->
<g id="edge51" class="edge">
<title>Node29&#45;&gt;Node4</title>
<path fill="none" stroke="#191970" d="M1124.9017,-56.3733C1101.0445,-47.2226 1064.9665,-33.3844 1038.429,-23.2057"/>
<polygon fill="#191970" stroke="#191970" points="1039.361,-19.8145 1028.7708,-19.5011 1036.8541,-26.3503 1039.361,-19.8145"/>
</g>
<!-- Node29&#45;&gt;Node12 -->
<g id="edge50" class="edge">
<title>Node29&#45;&gt;Node12</title>
<path fill="none" stroke="#191970" d="M1107.9288,-57.5556C1054.9817,-46.9282 964.6335,-28.7938 912.1328,-18.256"/>
<polygon fill="#191970" stroke="#191970" points="912.6529,-14.7907 902.1596,-16.2543 911.2753,-21.6538 912.6529,-14.7907"/>
</g>
</g>
</svg>
        <g id="navigator" transform="translate(0 0)" fill="#404254">
                <rect fill="#f2f5e9" fill-opacity="0.5" stroke="#606060" stroke-width=".5" x="0" y="0" width="60" height="60"/>
                <use id="zoomplus" xlink:href="#zoomPlus" x="17" y="9" onmousedown="handleZoom(evt,'in')"/>
                <use id="zoomminus" xlink:href="#zoomMin" x="42" y="9" onmousedown="handleZoom(evt,'out')"/>
                <use id="reset" xlink:href="#resetDef" x="30" y="36" onmousedown="handleReset()"/>
                <g id="arrowUp" xlink:href="#dirArrow" transform="translate(30 24)" onmousedown="handlePan(0,-1)">
                  <use xlink:href="#rim" fill="#404040">
                        <set attributeName="fill" to="#808080" begin="arrowUp.mouseover" end="arrowUp.mouseout"/>
                  </use>
                  <path fill="none" stroke="white" stroke-width="1.5" d="M0,-3.0v7 M-2.5,-0.5L0,-3.0L2.5,-0.5"/>
                </g>
                <g id="arrowRight" xlink:href="#dirArrow" transform="rotate(90) translate(36 -43)" onmousedown="handlePan(1,0)">
                  <use xlink:href="#rim" fill="#404040">
                        <set attributeName="fill" to="#808080" begin="arrowRight.mouseover" end="arrowRight.mouseout"/>
                  </use>
                  <path fill="none" stroke="white" stroke-width="1.5" d="M0,-3.0v7 M-2.5,-0.5L0,-3.0L2.5,-0.5"/>
                </g>
                <g id="arrowDown" xlink:href="#dirArrow" transform="rotate(180) translate(-30 -48)" onmousedown="handlePan(0,1)">
                  <use xlink:href="#rim" fill="#404040">
                        <set attributeName="fill" to="#808080" begin="arrowDown.mouseover" end="arrowDown.mouseout"/>
                  </use>
                  <path fill="none" stroke="white" stroke-width="1.5" d="M0,-3.0v7 M-2.5,-0.5L0,-3.0L2.5,-0.5"/>
                </g>
                <g id="arrowLeft" xlink:href="#dirArrow" transform="rotate(270) translate(-36 17)" onmousedown="handlePan(-1,0)">
                  <use xlink:href="#rim" fill="#404040">
                        <set attributeName="fill" to="#808080" begin="arrowLeft.mouseover" end="arrowLeft.mouseout"/>
                  </use>
                  <path fill="none" stroke="white" stroke-width="1.5" d="M0,-3.0v7 M-2.5,-0.5L0,-3.0L2.5,-0.5"/>
                </g>
        </g>
        <svg viewBox="0 0 15 15" width="100%" height="30px" preserveAspectRatio="xMaxYMin meet">
         <g id="arrow_out" transform="scale(0.3 0.3)">
          <a xlink:href="main_8c__incl_org.svg" target="_base">
           <rect id="button" ry="5" rx="5" y="6" x="6" height="38" width="38"
                fill="#f2f5e9" fill-opacity="0.5" stroke="#606060" stroke-width="1.0"/>
           <path id="arrow"
             d="M 11.500037,31.436501 C 11.940474,20.09759 22.043105,11.32322 32.158766,21.979434 L 37.068811,17.246167 C 37.068811,17.246167 37.088388,32 37.088388,32 L 22.160133,31.978069 C 22.160133,31.978069 26.997745,27.140456 26.997745,27.140456 C 18.528582,18.264221 13.291696,25.230495 11.500037,31.436501 z"
             style="fill:#404040;"/>
          </a>
         </g>
        </svg>
</svg>
