<?xml version="1.0" encoding="UTF-8" standalone="no"?>
<!DOCTYPE svg PUBLIC "-//W3C//DTD SVG 1.1//EN"
 "http://www.w3.org/Graphics/SVG/1.1/DTD/svg11.dtd">
<!-- Generated by graphviz version 2.40.1 (20161225.0304)
 -->
<!-- Title: main/main.c Pages: 1 -->
<svg width="1220pt" height="532pt"
 viewBox="0.00 0.00 1219.50 532.00" xmlns="http://www.w3.org/2000/svg" xmlns:xlink="http://www.w3.org/1999/xlink">
<g id="graph0" class="graph" transform="scale(1 1) rotate(0) translate(4 528)">
<title>main/main.c</title>
<polygon fill="#ffffff" stroke="transparent" points="-4,4 -4,-528 1215.5,-528 1215.5,4 -4,4"/>
<!-- Node0 -->
<g id="node1" class="node">
<title>Node0</title>
<g id="a_node1"><a xlink:title=" ">
<polygon fill="#bfbfbf" stroke="#000000" points="891,-504.5 891,-523.5 961,-523.5 961,-504.5 891,-504.5"/>
<text text-anchor="middle" x="926" y="-511.5" font-family="Helvetica,sans-Serif" font-size="10.00" fill="#000000">main/main.c</text>
</a>
</g>
</g>
<!-- Node1 -->
<g id="node2" class="node">
<title>Node1</title>
<g id="a_node2"><a xlink:title=" ">
<polygon fill="#ffffff" stroke="#bfbfbf" points="0,-448.5 0,-467.5 46,-467.5 46,-448.5 0,-448.5"/>
<text text-anchor="middle" x="23" y="-455.5" font-family="Helvetica,sans-Serif" font-size="10.00" fill="#000000">stdio.h</text>
</a>
</g>
</g>
<!-- Node0&#45;&gt;Node1 -->
<g id="edge1" class="edge">
<title>Node0&#45;&gt;Node1</title>
<path fill="none" stroke="#191970" d="M890.5975,-513.1158C749.1216,-509.4282 224.0962,-494.2319 60,-468 58.7434,-467.7991 57.468,-467.5724 56.1837,-467.3249"/>
<polygon fill="#191970" stroke="#191970" points="56.8511,-463.8876 46.3261,-465.1025 55.3115,-470.7162 56.8511,-463.8876"/>
</g>
<!-- Node2 -->
<g id="node3" class="node">
<title>Node2</title>
<g id="a_node3"><a xlink:title=" ">
<polygon fill="#ffffff" stroke="#bfbfbf" points="261,-56.5 261,-75.5 309,-75.5 309,-56.5 261,-56.5"/>
<text text-anchor="middle" x="285" y="-63.5" font-family="Helvetica,sans-Serif" font-size="10.00" fill="#000000">stdlib.h</text>
</a>
</g>
</g>
<!-- Node0&#45;&gt;Node2 -->
<g id="edge2" class="edge">
<title>Node0&#45;&gt;Node2</title>
<path fill="none" stroke="#191970" d="M890.7442,-513.1407C729.9577,-508.7649 74,-485.7791 74,-402 74,-402 74,-402 74,-290 74,-185.4949 197.193,-109.912 255.3148,-80.0678"/>
<polygon fill="#191970" stroke="#191970" points="257.0196,-83.1283 264.3843,-75.5117 253.8773,-76.8732 257.0196,-83.1283"/>
</g>
<!-- Node3 -->
<g id="node4" class="node">
<title>Node3</title>
<g id="a_node4"><a xlink:href="AST_8h.html" target="_top" xlink:title=" ">
<polygon fill="#ffffff" stroke="#000000" points="933,-392.5 933,-411.5 977,-411.5 977,-392.5 933,-392.5"/>
<text text-anchor="middle" x="955" y="-399.5" font-family="Helvetica,sans-Serif" font-size="10.00" fill="#000000">AST.h</text>
</a>
</g>
</g>
<!-- Node0&#45;&gt;Node3 -->
<g id="edge3" class="edge">
<title>Node0&#45;&gt;Node3</title>
<path fill="none" stroke="#191970" d="M928.4725,-504.4509C933.2238,-486.1013 943.7131,-445.5908 949.9847,-421.3693"/>
<polygon fill="#191970" stroke="#191970" points="953.4153,-422.083 952.5337,-411.5249 946.6388,-420.3283 953.4153,-422.083"/>
</g>
<!-- Node6 -->
<g id="node7" class="node">
<title>Node6</title>
<g id="a_node7"><a xlink:href="builtins_8h.html" target="_top" xlink:title=" ">
<polygon fill="#ffffff" stroke="#000000" points="548,-280.5 548,-299.5 604,-299.5 604,-280.5 548,-280.5"/>
<text text-anchor="middle" x="576" y="-287.5" font-family="Helvetica,sans-Serif" font-size="10.00" fill="#000000">builtins.h</text>
</a>
</g>
</g>
<!-- Node0&#45;&gt;Node6 -->
<g id="edge36" class="edge">
<title>Node0&#45;&gt;Node6</title>
<path fill="none" stroke="#191970" d="M910.9609,-504.375C856.1007,-469.2645 666.4646,-347.8973 599.5794,-305.0908"/>
<polygon fill="#191970" stroke="#191970" points="601.2925,-302.0318 590.983,-299.5891 597.5191,-307.9277 601.2925,-302.0318"/>
</g>
<!-- Node20 -->
<g id="node21" class="node">
<title>Node20</title>
<g id="a_node21"><a xlink:href="error_8h.html" target="_top" xlink:title=" ">
<polygon fill="#ffffff" stroke="#000000" points="1105,-280.5 1105,-299.5 1149,-299.5 1149,-280.5 1105,-280.5"/>
<text text-anchor="middle" x="1127" y="-287.5" font-family="Helvetica,sans-Serif" font-size="10.00" fill="#000000">error.h</text>
</a>
</g>
</g>
<!-- Node0&#45;&gt;Node20 -->
<g id="edge37" class="edge">
<title>Node0&#45;&gt;Node20</title>
<path fill="none" stroke="#191970" d="M961.1503,-508.5486C990.3093,-502.594 1031.6057,-490.7032 1061,-468 1106.2,-433.0889 1110.4216,-411.4748 1124,-356 1127.7121,-340.8339 1128.3247,-323.1354 1128.0845,-309.8858"/>
<polygon fill="#191970" stroke="#191970" points="1131.5704,-309.4295 1127.7103,-299.5629 1124.575,-309.6832 1131.5704,-309.4295"/>
</g>
<!-- Node21 -->
<g id="node22" class="node">
<title>Node21</title>
<g id="a_node22"><a xlink:href="hvm_8h.html" target="_top" xlink:title=" ">
<polygon fill="#ffffff" stroke="#000000" points="848,-336.5 848,-355.5 892,-355.5 892,-336.5 848,-336.5"/>
<text text-anchor="middle" x="870" y="-343.5" font-family="Helvetica,sans-Serif" font-size="10.00" fill="#000000">hvm.h</text>
</a>
</g>
</g>
<!-- Node0&#45;&gt;Node21 -->
<g id="edge40" class="edge">
<title>Node0&#45;&gt;Node21</title>
<path fill="none" stroke="#191970" d="M922.8287,-504.4862C913.9381,-477.8144 888.6372,-401.9117 876.565,-365.695"/>
<polygon fill="#191970" stroke="#191970" points="879.7587,-364.2079 873.276,-355.8279 873.1179,-366.4215 879.7587,-364.2079"/>
</g>
<!-- Node22 -->
<g id="node23" class="node">
<title>Node22</title>
<g id="a_node23"><a xlink:href="parser_8h.html" target="_top" xlink:title=" ">
<polygon fill="#ffffff" stroke="#000000" points="1000.5,-448.5 1000.5,-467.5 1051.5,-467.5 1051.5,-448.5 1000.5,-448.5"/>
<text text-anchor="middle" x="1026" y="-455.5" font-family="Helvetica,sans-Serif" font-size="10.00" fill="#000000">parser.h</text>
</a>
</g>
</g>
<!-- Node0&#45;&gt;Node22 -->
<g id="edge43" class="edge">
<title>Node0&#45;&gt;Node22</title>
<path fill="none" stroke="#191970" d="M943.4187,-504.2455C959.0485,-495.4928 982.2019,-482.527 1000.0185,-472.5496"/>
<polygon fill="#191970" stroke="#191970" points="1001.766,-475.5825 1008.7809,-467.6427 998.3457,-469.475 1001.766,-475.5825"/>
</g>
<!-- Node23 -->
<g id="node24" class="node">
<title>Node23</title>
<g id="a_node24"><a xlink:href="files_8h.html" target="_top" xlink:title=" ">
<polygon fill="#ffffff" stroke="#000000" points="1168.5,-448.5 1168.5,-467.5 1211.5,-467.5 1211.5,-448.5 1168.5,-448.5"/>
<text text-anchor="middle" x="1190" y="-455.5" font-family="Helvetica,sans-Serif" font-size="10.00" fill="#000000">files.h</text>
</a>
</g>
</g>
<!-- Node0&#45;&gt;Node23 -->
<g id="edge48" class="edge">
<title>Node0&#45;&gt;Node23</title>
<path fill="none" stroke="#191970" d="M961.325,-507.6878C1006.2866,-499.4671 1086.2577,-484.2201 1154,-468 1155.4588,-467.6507 1156.9478,-467.2829 1158.4497,-466.9028"/>
<polygon fill="#191970" stroke="#191970" points="1159.5904,-470.2216 1168.3635,-464.2815 1157.801,-463.4541 1159.5904,-470.2216"/>
</g>
<!-- Node4 -->
<g id="node5" class="node">
<title>Node4</title>
<g id="a_node5"><a xlink:title=" ">
<polygon fill="#ffffff" stroke="#bfbfbf" points="1001.5,-.5 1001.5,-19.5 1050.5,-19.5 1050.5,-.5 1001.5,-.5"/>
<text text-anchor="middle" x="1026" y="-7.5" font-family="Helvetica,sans-Serif" font-size="10.00" fill="#000000">stdint.h</text>
</a>
</g>
</g>
<!-- Node3&#45;&gt;Node4 -->
<g id="edge4" class="edge">
<title>Node3&#45;&gt;Node4</title>
<path fill="none" stroke="#191970" d="M959.8693,-392.3939C969.0488,-373.3677 988,-329.3256 988,-290 988,-290 988,-290 988,-234 988,-162.352 1009.6301,-146.8936 1020,-76 1022.2411,-60.679 1023.784,-43.2269 1024.7435,-30.1183"/>
<polygon fill="#191970" stroke="#191970" points="1028.2532,-30.0939 1025.4394,-19.8796 1021.2693,-29.6192 1028.2532,-30.0939"/>
</g>
<!-- Node5 -->
<g id="node6" class="node">
<title>Node5</title>
<g id="a_node6"><a xlink:href="token_8h.html" target="_top" xlink:title=" ">
<polygon fill="#ffffff" stroke="#000000" points="910.5,-336.5 910.5,-355.5 959.5,-355.5 959.5,-336.5 910.5,-336.5"/>
<text text-anchor="middle" x="935" y="-343.5" font-family="Helvetica,sans-Serif" font-size="10.00" fill="#000000">token.h</text>
</a>
</g>
</g>
<!-- Node3&#45;&gt;Node5 -->
<g id="edge5" class="edge">
<title>Node3&#45;&gt;Node5</title>
<path fill="none" stroke="#191970" d="M951.5163,-392.2455C948.8492,-384.7776 945.0867,-374.2427 941.8263,-365.1137"/>
<polygon fill="#191970" stroke="#191970" points="945.1033,-363.8829 938.4438,-355.6427 938.5111,-366.2373 945.1033,-363.8829"/>
</g>
<!-- Node5&#45;&gt;Node4 -->
<g id="edge35" class="edge">
<title>Node5&#45;&gt;Node4</title>
<path fill="none" stroke="#191970" d="M936.7693,-336.2678C941.7477,-309.3106 956.6501,-231.474 974,-168 987.9017,-117.1409 1008.4239,-58.4604 1019.052,-28.9842"/>
<polygon fill="#191970" stroke="#191970" points="1022.3673,-30.1086 1022.4894,-19.5145 1015.7873,-27.7202 1022.3673,-30.1086"/>
</g>
<!-- Node5&#45;&gt;Node6 -->
<g id="edge6" class="edge">
<title>Node5&#45;&gt;Node6</title>
<path fill="none" stroke="#191970" d="M910.225,-338.2606C907.1358,-337.4297 904.0067,-336.6513 901,-336 798.5477,-313.8064 675.5211,-299.7562 614.3897,-293.6058"/>
<polygon fill="#191970" stroke="#191970" points="614.362,-290.086 604.0657,-292.5834 613.672,-297.052 614.362,-290.086"/>
</g>
<!-- Node12 -->
<g id="node13" class="node">
<title>Node12</title>
<g id="a_node13"><a xlink:title=" ">
<polygon fill="#ffffff" stroke="#bfbfbf" points="824,-.5 824,-19.5 880,-19.5 880,-.5 824,-.5"/>
<text text-anchor="middle" x="852" y="-7.5" font-family="Helvetica,sans-Serif" font-size="10.00" fill="#000000">stdbool.h</text>
</a>
</g>
</g>
<!-- Node5&#45;&gt;Node12 -->
<g id="edge34" class="edge">
<title>Node5&#45;&gt;Node12</title>
<path fill="none" stroke="#191970" d="M931.6063,-336.2503C925.2084,-316.9723 912,-272.5094 912,-234 912,-234 912,-234 912,-178 912,-120.9578 880.9433,-59.0352 863.5176,-28.7803"/>
<polygon fill="#191970" stroke="#191970" points="866.3002,-26.61 858.1951,-19.7867 860.2761,-30.1752 866.3002,-26.61"/>
</g>
<!-- Node7 -->
<g id="node8" class="node">
<title>Node7</title>
<g id="a_node8"><a xlink:href="builtinutils_8h.html" target="_top" xlink:title=" ">
<polygon fill="#ffffff" stroke="#000000" points="256,-.5 256,-19.5 324,-19.5 324,-.5 256,-.5"/>
<text text-anchor="middle" x="290" y="-7.5" font-family="Helvetica,sans-Serif" font-size="10.00" fill="#000000">builtinutils.h</text>
</a>
</g>
</g>
<!-- Node6&#45;&gt;Node7 -->
<g id="edge7" class="edge">
<title>Node6&#45;&gt;Node7</title>
<path fill="none" stroke="#191970" d="M547.7472,-288.975C457.3908,-285.4224 179.743,-272.2757 152,-244 84.1026,-174.7989 214.2162,-65.86 268.1287,-25.6152"/>
<polygon fill="#191970" stroke="#191970" points="270.3931,-28.2946 276.3769,-19.5513 266.2468,-22.6548 270.3931,-28.2946"/>
</g>
<!-- Node8 -->
<g id="node9" class="node">
<title>Node8</title>
<g id="a_node9"><a xlink:href="helios__boolean_8h.html" target="_top" xlink:title=" ">
<polygon fill="#ffffff" stroke="#000000" points="756.5,-224.5 756.5,-243.5 845.5,-243.5 845.5,-224.5 756.5,-224.5"/>
<text text-anchor="middle" x="801" y="-231.5" font-family="Helvetica,sans-Serif" font-size="10.00" fill="#000000">helios_boolean.h</text>
</a>
</g>
</g>
<!-- Node6&#45;&gt;Node8 -->
<g id="edge8" class="edge">
<title>Node6&#45;&gt;Node8</title>
<path fill="none" stroke="#191970" d="M604.0415,-283.0208C641.2783,-273.753 707.6073,-257.2444 752.9145,-245.9679"/>
<polygon fill="#191970" stroke="#191970" points="753.9533,-249.3163 762.8119,-243.5046 752.2626,-242.5235 753.9533,-249.3163"/>
</g>
<!-- Node9 -->
<g id="node10" class="node">
<title>Node9</title>
<g id="a_node10"><a xlink:href="helios__object_8h.html" target="_top" xlink:title=" ">
<polygon fill="#ffffff" stroke="#000000" points="478,-168.5 478,-187.5 560,-187.5 560,-168.5 478,-168.5"/>
<text text-anchor="middle" x="519" y="-175.5" font-family="Helvetica,sans-Serif" font-size="10.00" fill="#000000">helios_object.h</text>
</a>
</g>
</g>
<!-- Node6&#45;&gt;Node9 -->
<g id="edge28" class="edge">
<title>Node6&#45;&gt;Node9</title>
<path fill="none" stroke="#191970" d="M574.4616,-280.1304C572.0996,-266.7965 566.7906,-242.5619 557,-224 551.4907,-213.5551 543.3526,-203.2907 536.0195,-195.1174"/>
<polygon fill="#191970" stroke="#191970" points="538.4729,-192.6168 529.0819,-187.7118 533.3644,-197.4025 538.4729,-192.6168"/>
</g>
<!-- Node11 -->
<g id="node12" class="node">
<title>Node11</title>
<g id="a_node12"><a xlink:href="helios__memory_8h.html" target="_top" xlink:title=" ">
<polygon fill="#ffffff" stroke="#000000" points="541,-56.5 541,-75.5 631,-75.5 631,-56.5 541,-56.5"/>
<text text-anchor="middle" x="586" y="-63.5" font-family="Helvetica,sans-Serif" font-size="10.00" fill="#000000">helios_memory.h</text>
</a>
</g>
</g>
<!-- Node6&#45;&gt;Node11 -->
<g id="edge31" class="edge">
<title>Node6&#45;&gt;Node11</title>
<path fill="none" stroke="#191970" d="M547.8543,-288.9453C459.8534,-285.3619 194.2565,-272.2719 169,-244 61.413,-123.5684 394.0706,-81.846 530.4542,-70.0235"/>
<polygon fill="#191970" stroke="#191970" points="531.032,-73.4873 540.7026,-69.1596 530.4439,-66.5121 531.032,-73.4873"/>
</g>
<!-- Node14 -->
<g id="node15" class="node">
<title>Node14</title>
<g id="a_node15"><a xlink:href="helios__code_8h.html" target="_top" xlink:title=" ">
<polygon fill="#ffffff" stroke="#000000" points="178.5,-224.5 178.5,-243.5 255.5,-243.5 255.5,-224.5 178.5,-224.5"/>
<text text-anchor="middle" x="217" y="-231.5" font-family="Helvetica,sans-Serif" font-size="10.00" fill="#000000">helios_code.h</text>
</a>
</g>
</g>
<!-- Node6&#45;&gt;Node14 -->
<g id="edge19" class="edge">
<title>Node6&#45;&gt;Node14</title>
<path fill="none" stroke="#191970" d="M547.6086,-286.3669C494.4151,-279.4385 375.9227,-263.4313 265.691,-244.0378"/>
<polygon fill="#191970" stroke="#191970" points="266.1924,-240.5722 255.7349,-242.2728 264.9704,-247.4647 266.1924,-240.5722"/>
</g>
<!-- Node15 -->
<g id="node16" class="node">
<title>Node15</title>
<g id="a_node16"><a xlink:href="helios__float_8h.html" target="_top" xlink:title=" ">
<polygon fill="#ffffff" stroke="#000000" points="274,-224.5 274,-243.5 348,-243.5 348,-224.5 274,-224.5"/>
<text text-anchor="middle" x="311" y="-231.5" font-family="Helvetica,sans-Serif" font-size="10.00" fill="#000000">helios_float.h</text>
</a>
</g>
</g>
<!-- Node6&#45;&gt;Node15 -->
<g id="edge21" class="edge">
<title>Node6&#45;&gt;Node15</title>
<path fill="none" stroke="#191970" d="M547.9846,-284.1812C508.1122,-275.8854 432.4435,-260.0894 358.1477,-244.2352"/>
<polygon fill="#191970" stroke="#191970" points="358.6628,-240.7663 348.1522,-242.1 357.2004,-247.6118 358.6628,-240.7663"/>
</g>
<!-- Node16 -->
<g id="node17" class="node">
<title>Node16</title>
<g id="a_node17"><a xlink:href="helios__hashmap_8h.html" target="_top" xlink:title=" ">
<polygon fill="#ffffff" stroke="#000000" points="604.5,-224.5 604.5,-243.5 699.5,-243.5 699.5,-224.5 604.5,-224.5"/>
<text text-anchor="middle" x="652" y="-231.5" font-family="Helvetica,sans-Serif" font-size="10.00" fill="#000000">helios_hashmap.h</text>
</a>
</g>
</g>
<!-- Node6&#45;&gt;Node16 -->
<g id="edge23" class="edge">
<title>Node6&#45;&gt;Node16</title>
<path fill="none" stroke="#191970" d="M589.2382,-280.2455C600.681,-271.814 617.4296,-259.4729 630.7475,-249.6598"/>
<polygon fill="#191970" stroke="#191970" points="632.9391,-252.3924 638.9135,-243.6427 628.7867,-246.757 632.9391,-252.3924"/>
</g>
<!-- Node17 -->
<g id="node18" class="node">
<title>Node17</title>
<g id="a_node18"><a xlink:href="helios__integer_8h.html" target="_top" xlink:title=" ">
<polygon fill="#ffffff" stroke="#000000" points="366,-224.5 366,-243.5 450,-243.5 450,-224.5 366,-224.5"/>
<text text-anchor="middle" x="408" y="-231.5" font-family="Helvetica,sans-Serif" font-size="10.00" fill="#000000">helios_integer.h</text>
</a>
</g>
</g>
<!-- Node6&#45;&gt;Node17 -->
<g id="edge26" class="edge">
<title>Node6&#45;&gt;Node17</title>
<path fill="none" stroke="#191970" d="M547.8806,-280.6269C520.0658,-271.3553 477.2906,-257.0969 446.3648,-246.7883"/>
<polygon fill="#191970" stroke="#191970" points="447.3679,-243.4334 436.7743,-243.5914 445.1543,-250.0742 447.3679,-243.4334"/>
</g>
<!-- Node18 -->
<g id="node19" class="node">
<title>Node18</title>
<g id="a_node19"><a xlink:href="helios__string_8h.html" target="_top" xlink:title=" ">
<polygon fill="#ffffff" stroke="#000000" points="468,-224.5 468,-243.5 548,-243.5 548,-224.5 468,-224.5"/>
<text text-anchor="middle" x="508" y="-231.5" font-family="Helvetica,sans-Serif" font-size="10.00" fill="#000000">helios_string.h</text>
</a>
</g>
</g>
<!-- Node6&#45;&gt;Node18 -->
<g id="edge29" class="edge">
<title>Node6&#45;&gt;Node18</title>
<path fill="none" stroke="#191970" d="M564.1553,-280.2455C554.112,-271.9746 539.5005,-259.9416 527.6996,-250.2232"/>
<polygon fill="#191970" stroke="#191970" points="529.6533,-247.298 519.709,-243.6427 525.2033,-252.7015 529.6533,-247.298"/>
</g>
<!-- Node19 -->
<g id="node20" class="node">
<title>Node19</title>
<g id="a_node20"><a xlink:href="serialize_8h.html" target="_top" xlink:title=" ">
<polygon fill="#ffffff" stroke="#000000" points="629.5,-168.5 629.5,-187.5 690.5,-187.5 690.5,-168.5 629.5,-168.5"/>
<text text-anchor="middle" x="660" y="-175.5" font-family="Helvetica,sans-Serif" font-size="10.00" fill="#000000">serialize.h</text>
</a>
</g>
</g>
<!-- Node6&#45;&gt;Node19 -->
<g id="edge32" class="edge">
<title>Node6&#45;&gt;Node19</title>
<path fill="none" stroke="#191970" d="M604.1895,-284.1624C639.1853,-276.277 695.7713,-261.2115 708,-244 720.3412,-226.6302 701.617,-206.8912 684.0678,-193.5611"/>
<polygon fill="#191970" stroke="#191970" points="685.8589,-190.5392 675.6884,-187.5706 681.7878,-196.2336 685.8589,-190.5392"/>
</g>
<!-- Node8&#45;&gt;Node9 -->
<g id="edge9" class="edge">
<title>Node8&#45;&gt;Node9</title>
<path fill="none" stroke="#191970" d="M756.3163,-225.1266C705.6882,-215.0728 623.3251,-198.717 570.1622,-188.1599"/>
<polygon fill="#191970" stroke="#191970" points="570.7538,-184.7091 560.2635,-186.1942 569.3903,-191.575 570.7538,-184.7091"/>
</g>
<!-- Node8&#45;&gt;Node12 -->
<g id="edge18" class="edge">
<title>Node8&#45;&gt;Node12</title>
<path fill="none" stroke="#191970" d="M803.1914,-224.375C810.9238,-190.4133 837.0308,-75.7472 847.5513,-29.5392"/>
<polygon fill="#191970" stroke="#191970" points="851.0094,-30.1166 849.8168,-19.5891 844.184,-28.5626 851.0094,-30.1166"/>
</g>
<!-- Node10 -->
<g id="node11" class="node">
<title>Node10</title>
<g id="a_node11"><a xlink:href="helios__type_8h.html" target="_top" xlink:title=" ">
<polygon fill="#ffffff" stroke="#000000" points="549,-112.5 549,-131.5 623,-131.5 623,-112.5 549,-112.5"/>
<text text-anchor="middle" x="586" y="-119.5" font-family="Helvetica,sans-Serif" font-size="10.00" fill="#000000">helios_type.h</text>
</a>
</g>
</g>
<!-- Node9&#45;&gt;Node10 -->
<g id="edge10" class="edge">
<title>Node9&#45;&gt;Node10</title>
<path fill="none" stroke="#191970" d="M530.6705,-168.2455C540.5661,-159.9746 554.9627,-147.9416 566.5901,-138.2232"/>
<polygon fill="#191970" stroke="#191970" points="569.035,-140.7413 574.4632,-131.6427 564.5458,-135.3703 569.035,-140.7413"/>
</g>
<!-- Node10&#45;&gt;Node2 -->
<g id="edge17" class="edge">
<title>Node10&#45;&gt;Node2</title>
<path fill="none" stroke="#191970" d="M548.7896,-115.0771C489.856,-104.1127 375.9111,-82.9137 319.0294,-72.3311"/>
<polygon fill="#191970" stroke="#191970" points="319.5701,-68.8717 309.0986,-70.4835 318.2896,-75.7536 319.5701,-68.8717"/>
</g>
<!-- Node10&#45;&gt;Node4 -->
<g id="edge16" class="edge">
<title>Node10&#45;&gt;Node4</title>
<path fill="none" stroke="#191970" d="M623.1349,-112.5475C707.0798,-91.1797 910.453,-39.412 991.6663,-18.7395"/>
<polygon fill="#191970" stroke="#191970" points="992.5699,-22.1212 1001.3975,-16.2625 990.8431,-15.3375 992.5699,-22.1212"/>
</g>
<!-- Node10&#45;&gt;Node11 -->
<g id="edge11" class="edge">
<title>Node10&#45;&gt;Node11</title>
<path fill="none" stroke="#191970" d="M586,-112.2455C586,-104.9382 586,-94.6944 586,-85.7046"/>
<polygon fill="#191970" stroke="#191970" points="589.5001,-85.6426 586,-75.6427 582.5001,-85.6427 589.5001,-85.6426"/>
</g>
<!-- Node11&#45;&gt;Node4 -->
<g id="edge15" class="edge">
<title>Node11&#45;&gt;Node4</title>
<path fill="none" stroke="#191970" d="M631.02,-60.2702C718.983,-49.0749 911.9721,-24.5126 991.1019,-14.4416"/>
<polygon fill="#191970" stroke="#191970" points="992.011,-17.8542 1001.489,-13.1196 991.1271,-10.9102 992.011,-17.8542"/>
</g>
<!-- Node11&#45;&gt;Node7 -->
<g id="edge12" class="edge">
<title>Node11&#45;&gt;Node7</title>
<path fill="none" stroke="#191970" d="M540.7218,-57.4338C484.6162,-46.8193 389.6473,-28.8522 334.0948,-18.3423"/>
<polygon fill="#191970" stroke="#191970" points="334.6752,-14.8901 324.1989,-16.4701 333.3739,-21.7681 334.6752,-14.8901"/>
</g>
<!-- Node11&#45;&gt;Node12 -->
<g id="edge13" class="edge">
<title>Node11&#45;&gt;Node12</title>
<path fill="none" stroke="#191970" d="M631.1233,-56.5004C682.4935,-45.6856 765.5221,-28.2059 813.813,-18.0394"/>
<polygon fill="#191970" stroke="#191970" points="814.7914,-21.4102 823.8558,-15.9251 813.3493,-14.5603 814.7914,-21.4102"/>
</g>
<!-- Node13 -->
<g id="node14" class="node">
<title>Node13</title>
<g id="a_node14"><a xlink:title=" ">
<polygon fill="#ffffff" stroke="#bfbfbf" points="560,-.5 560,-19.5 612,-19.5 612,-.5 560,-.5"/>
<text text-anchor="middle" x="586" y="-7.5" font-family="Helvetica,sans-Serif" font-size="10.00" fill="#000000">stddef.h</text>
</a>
</g>
</g>
<!-- Node11&#45;&gt;Node13 -->
<g id="edge14" class="edge">
<title>Node11&#45;&gt;Node13</title>
<path fill="none" stroke="#191970" d="M586,-56.2455C586,-48.9382 586,-38.6944 586,-29.7046"/>
<polygon fill="#191970" stroke="#191970" points="589.5001,-29.6426 586,-19.6427 582.5001,-29.6427 589.5001,-29.6426"/>
</g>
<!-- Node14&#45;&gt;Node9 -->
<g id="edge20" class="edge">
<title>Node14&#45;&gt;Node9</title>
<path fill="none" stroke="#191970" d="M255.755,-225.8351C258.8809,-225.2042 261.9921,-224.5856 265,-224 335.1069,-210.3514 416.3676,-195.8682 467.7224,-186.8796"/>
<polygon fill="#191970" stroke="#191970" points="468.334,-190.3258 477.5824,-185.157 467.1292,-183.4303 468.334,-190.3258"/>
</g>
<!-- Node15&#45;&gt;Node9 -->
<g id="edge22" class="edge">
<title>Node15&#45;&gt;Node9</title>
<path fill="none" stroke="#191970" d="M346.7565,-224.3733C381.9426,-214.9001 435.7881,-200.4032 473.8956,-190.1435"/>
<polygon fill="#191970" stroke="#191970" points="474.9639,-193.4806 483.7101,-187.5011 473.144,-186.7213 474.9639,-193.4806"/>
</g>
<!-- Node16&#45;&gt;Node9 -->
<g id="edge24" class="edge">
<title>Node16&#45;&gt;Node9</title>
<path fill="none" stroke="#191970" d="M629.1365,-224.3733C607.595,-215.3032 575.1162,-201.6279 551.0044,-191.4755"/>
<polygon fill="#191970" stroke="#191970" points="552.1397,-188.156 541.5652,-187.5011 549.4233,-194.6075 552.1397,-188.156"/>
</g>
<!-- Node16&#45;&gt;Node12 -->
<g id="edge25" class="edge">
<title>Node16&#45;&gt;Node12</title>
<path fill="none" stroke="#191970" d="M662.3361,-224.3751C672.0307,-215.2338 686.819,-200.9948 699,-188 752.2395,-131.2032 811.2226,-60.0499 837.7289,-27.5963"/>
<polygon fill="#191970" stroke="#191970" points="840.711,-29.4772 844.312,-19.5131 835.2832,-25.0567 840.711,-29.4772"/>
</g>
<!-- Node17&#45;&gt;Node9 -->
<g id="edge27" class="edge">
<title>Node17&#45;&gt;Node9</title>
<path fill="none" stroke="#191970" d="M427.0816,-224.3733C444.7402,-215.4644 471.2053,-202.1127 491.2098,-192.0203"/>
<polygon fill="#191970" stroke="#191970" points="492.8158,-195.1303 500.1674,-187.5011 489.6628,-188.8806 492.8158,-195.1303"/>
</g>
<!-- Node18&#45;&gt;Node9 -->
<g id="edge30" class="edge">
<title>Node18&#45;&gt;Node9</title>
<path fill="none" stroke="#191970" d="M509.9161,-224.2455C511.3514,-216.9382 513.3636,-206.6944 515.1295,-197.7046"/>
<polygon fill="#191970" stroke="#191970" points="518.6127,-198.1298 517.1059,-187.6427 511.744,-196.7805 518.6127,-198.1298"/>
</g>
<!-- Node19&#45;&gt;Node10 -->
<g id="edge33" class="edge">
<title>Node19&#45;&gt;Node10</title>
<path fill="none" stroke="#191970" d="M647.1102,-168.2455C636.0746,-159.8943 619.9708,-147.7076 607.0647,-137.9408"/>
<polygon fill="#191970" stroke="#191970" points="608.8283,-134.8862 598.7421,-131.6427 604.6041,-140.4681 608.8283,-134.8862"/>
</g>
<!-- Node20&#45;&gt;Node4 -->
<g id="edge39" class="edge">
<title>Node20&#45;&gt;Node4</title>
<path fill="none" stroke="#191970" d="M1128.8626,-280.455C1132.4572,-261.1751 1140,-216.1712 1140,-178 1140,-178 1140,-178 1140,-122 1140,-90.7875 1136.6639,-79.3929 1116,-56 1101.1609,-39.2011 1078.7233,-27.714 1059.9645,-20.4201"/>
<polygon fill="#191970" stroke="#191970" points="1061.1437,-17.1247 1050.5498,-16.9822 1058.7426,-23.7 1061.1437,-17.1247"/>
</g>
<!-- Node20&#45;&gt;Node12 -->
<g id="edge38" class="edge">
<title>Node20&#45;&gt;Node12</title>
<path fill="none" stroke="#191970" d="M1122.6387,-280.0427C1106.6536,-244.6161 1047.8062,-123.2235 964,-56 942.289,-38.585 913.0755,-26.8791 889.9281,-19.6353"/>
<polygon fill="#191970" stroke="#191970" points="890.6773,-16.2066 880.0944,-16.7086 888.6805,-22.9158 890.6773,-16.2066"/>
</g>
<!-- Node21&#45;&gt;Node4 -->
<g id="edge42" class="edge">
<title>Node21&#45;&gt;Node4</title>
<path fill="none" stroke="#191970" d="M870.5731,-336.4157C871.6791,-317.0653 874,-271.9408 874,-234 874,-234 874,-234 874,-178 874,-104.9255 954.0545,-49.4335 997.9687,-24.4903"/>
<polygon fill="#191970" stroke="#191970" points="999.6909,-27.5375 1006.7491,-19.6361 996.304,-21.4114 999.6909,-27.5375"/>
</g>
<!-- Node21&#45;&gt;Node6 -->
<g id="edge41" class="edge">
<title>Node21&#45;&gt;Node6</title>
<path fill="none" stroke="#191970" d="M847.9022,-341.7909C798.0616,-332.2975 676.4033,-309.1244 614.1142,-297.2598"/>
<polygon fill="#191970" stroke="#191970" points="614.7641,-293.8208 604.2858,-295.3878 613.4543,-300.6972 614.7641,-293.8208"/>
</g>
<!-- Node22&#45;&gt;Node3 -->
<g id="edge44" class="edge">
<title>Node22&#45;&gt;Node3</title>
<path fill="none" stroke="#191970" d="M1013.6327,-448.2455C1003.0446,-439.8943 987.5936,-427.7076 975.2107,-417.9408"/>
<polygon fill="#191970" stroke="#191970" points="977.2447,-415.0875 967.2255,-411.6427 972.9097,-420.5837 977.2447,-415.0875"/>
</g>
<!-- Node22&#45;&gt;Node4 -->
<g id="edge47" class="edge">
<title>Node22&#45;&gt;Node4</title>
<path fill="none" stroke="#191970" d="M1031.607,-448.4834C1042.1774,-429.6141 1064,-385.8343 1064,-346 1064,-346 1064,-346 1064,-290 1064,-191.4113 1040.5814,-75.0556 1030.513,-29.5864"/>
<polygon fill="#191970" stroke="#191970" points="1033.877,-28.593 1028.2633,-19.6077 1027.0484,-30.1326 1033.877,-28.593"/>
</g>
<!-- Node22&#45;&gt;Node12 -->
<g id="edge46" class="edge">
<title>Node22&#45;&gt;Node12</title>
<path fill="none" stroke="#191970" d="M1026,-448.4116C1026,-429.0538 1026,-383.9167 1026,-346 1026,-346 1026,-346 1026,-234 1026,-137.5445 924.1334,-57.5544 876.2848,-25.302"/>
<polygon fill="#191970" stroke="#191970" points="878.0226,-22.2554 867.7482,-19.6693 874.1674,-28.0982 878.0226,-22.2554"/>
</g>
<!-- Node22&#45;&gt;Node20 -->
<g id="edge45" class="edge">
<title>Node22&#45;&gt;Node20</title>
<path fill="none" stroke="#191970" d="M1040.0035,-448.4707C1051.5182,-440.0284 1067.5801,-426.7751 1078,-412 1100.9181,-379.5029 1115.3365,-334.7344 1122.2097,-309.4474"/>
<polygon fill="#191970" stroke="#191970" points="1125.64,-310.1631 1124.7685,-299.6041 1118.8651,-308.4019 1125.64,-310.1631"/>
</g>
</g>
</svg>
