<?xml version="1.0" encoding="UTF-8" standalone="no"?>
<!DOCTYPE svg PUBLIC "-//W3C//DTD SVG 1.1//EN"
 "http://www.w3.org/Graphics/SVG/1.1/DTD/svg11.dtd">
<!-- Generated by graphviz version 2.40.1 (20161225.0304)
 -->
<!-- Title: main/parser/include/parser.h Pages: 1 -->
<svg width="1443pt" height="106pt"
 viewBox="0.00 0.00 1442.50 106.00" xmlns="http://www.w3.org/2000/svg" xmlns:xlink="http://www.w3.org/1999/xlink">
<g id="graph0" class="graph" transform="scale(1 1) rotate(0) translate(4 102)">
<title>main/parser/include/parser.h</title>
<polygon fill="#ffffff" stroke="transparent" points="-4,4 -4,-102 1438.5,-102 1438.5,4 -4,4"/>
<!-- Node20 -->
<g id="node1" class="node">
<title>Node20</title>
<g id="a_node1"><a xlink:title=" ">
<polygon fill="#bfbfbf" stroke="#000000" points="639.5,-67.5 639.5,-97.5 752.5,-97.5 752.5,-67.5 639.5,-67.5"/>
<text text-anchor="start" x="647.5" y="-85.5" font-family="Helvetica,sans-Serif" font-size="10.00" fill="#000000">main/parser/include</text>
<text text-anchor="middle" x="696" y="-74.5" font-family="Helvetica,sans-Serif" font-size="10.00" fill="#000000">/parser.h</text>
</a>
</g>
</g>
<!-- Node21 -->
<g id="node2" class="node">
<title>Node21</title>
<g id="a_node2"><a xlink:href="main_8c.html" target="_top" xlink:title=" ">
<polygon fill="#ffffff" stroke="#000000" points="0,-6 0,-25 106,-25 106,-6 0,-6"/>
<text text-anchor="middle" x="53" y="-13" font-family="Helvetica,sans-Serif" font-size="10.00" fill="#000000">main/entry/main.c</text>
</a>
</g>
</g>
<!-- Node20&#45;&gt;Node21 -->
<g id="edge1" class="edge">
<title>Node20&#45;&gt;Node21</title>
<path fill="none" stroke="#191970" d="M628.9775,-79.9694C520.386,-75.1069 299.5302,-62.0482 115,-31 105.9187,-29.472 96.2087,-27.3055 87.2324,-25.0751"/>
<polygon fill="#191970" stroke="#191970" points="628.9871,-83.4731 639.1309,-80.4148 629.2939,-76.4799 628.9871,-83.4731"/>
</g>
<!-- Node22 -->
<g id="node3" class="node">
<title>Node22</title>
<g id="a_node3"><a xlink:href="AST_8c.html" target="_top" xlink:title=" ">
<polygon fill="#ffffff" stroke="#000000" points="124,-6 124,-25 228,-25 228,-6 124,-6"/>
<text text-anchor="middle" x="176" y="-13" font-family="Helvetica,sans-Serif" font-size="10.00" fill="#000000">main/parser/AST.c</text>
</a>
</g>
</g>
<!-- Node20&#45;&gt;Node22 -->
<g id="edge2" class="edge">
<title>Node20&#45;&gt;Node22</title>
<path fill="none" stroke="#191970" d="M629.4343,-77.9094C539.7646,-71.0712 375.4379,-56.2319 237,-31 228.1852,-29.3934 218.7588,-27.2257 210.017,-25.0213"/>
<polygon fill="#191970" stroke="#191970" points="629.2288,-81.4038 639.4634,-78.6645 629.7544,-74.4235 629.2288,-81.4038"/>
</g>
<!-- Node23 -->
<g id="node4" class="node">
<title>Node23</title>
<g id="a_node4"><a xlink:href="compound_8c.html" target="_top" xlink:title=" ">
<polygon fill="#ffffff" stroke="#000000" points="246.5,-.5 246.5,-30.5 381.5,-30.5 381.5,-.5 246.5,-.5"/>
<text text-anchor="start" x="254.5" y="-18.5" font-family="Helvetica,sans-Serif" font-size="10.00" fill="#000000">main/parser/parserfuncs</text>
<text text-anchor="middle" x="314" y="-7.5" font-family="Helvetica,sans-Serif" font-size="10.00" fill="#000000">/compound.c</text>
</a>
</g>
</g>
<!-- Node20&#45;&gt;Node23 -->
<g id="edge3" class="edge">
<title>Node20&#45;&gt;Node23</title>
<path fill="none" stroke="#191970" d="M629.4485,-71.9772C567.384,-62.0033 472.279,-46.3094 390,-31 387.2198,-30.4827 384.3844,-29.946 381.5214,-29.3965"/>
<polygon fill="#191970" stroke="#191970" points="629.0707,-75.4613 639.4988,-73.5887 630.1791,-68.5495 629.0707,-75.4613"/>
</g>
<!-- Node24 -->
<g id="node5" class="node">
<title>Node24</title>
<g id="a_node5"><a xlink:href="expressions_8c.html" target="_top" xlink:title=" ">
<polygon fill="#ffffff" stroke="#000000" points="399.5,-.5 399.5,-30.5 534.5,-30.5 534.5,-.5 399.5,-.5"/>
<text text-anchor="start" x="407.5" y="-18.5" font-family="Helvetica,sans-Serif" font-size="10.00" fill="#000000">main/parser/parserfuncs</text>
<text text-anchor="middle" x="467" y="-7.5" font-family="Helvetica,sans-Serif" font-size="10.00" fill="#000000">/expressions.c</text>
</a>
</g>
</g>
<!-- Node20&#45;&gt;Node24 -->
<g id="edge4" class="edge">
<title>Node20&#45;&gt;Node24</title>
<path fill="none" stroke="#191970" d="M634.6431,-64.5484C598.3955,-53.9432 553.0169,-40.6665 518.6162,-30.6017"/>
<polygon fill="#191970" stroke="#191970" points="634.0274,-68.015 644.6079,-67.4639 635.9931,-61.2966 634.0274,-68.015"/>
</g>
<!-- Node25 -->
<g id="node6" class="node">
<title>Node25</title>
<g id="a_node6"><a xlink:href="floats_8c.html" target="_top" xlink:title=" ">
<polygon fill="#ffffff" stroke="#000000" points="552.5,-.5 552.5,-30.5 687.5,-30.5 687.5,-.5 552.5,-.5"/>
<text text-anchor="start" x="560.5" y="-18.5" font-family="Helvetica,sans-Serif" font-size="10.00" fill="#000000">main/parser/parserfuncs</text>
<text text-anchor="middle" x="620" y="-7.5" font-family="Helvetica,sans-Serif" font-size="10.00" fill="#000000">/floats.c</text>
</a>
</g>
</g>
<!-- Node20&#45;&gt;Node25 -->
<g id="edge5" class="edge">
<title>Node20&#45;&gt;Node25</title>
<path fill="none" stroke="#191970" d="M671.0408,-60.4965C659.9503,-50.7193 647.1733,-39.4554 637.1773,-30.6432"/>
<polygon fill="#191970" stroke="#191970" points="668.9386,-63.3091 678.7544,-67.2967 673.5677,-58.0582 668.9386,-63.3091"/>
</g>
<!-- Node26 -->
<g id="node7" class="node">
<title>Node26</title>
<g id="a_node7"><a xlink:href="integers_8c.html" target="_top" xlink:title=" ">
<polygon fill="#ffffff" stroke="#000000" points="705.5,-.5 705.5,-30.5 840.5,-30.5 840.5,-.5 705.5,-.5"/>
<text text-anchor="start" x="713.5" y="-18.5" font-family="Helvetica,sans-Serif" font-size="10.00" fill="#000000">main/parser/parserfuncs</text>
<text text-anchor="middle" x="773" y="-7.5" font-family="Helvetica,sans-Serif" font-size="10.00" fill="#000000">/integers.c</text>
</a>
</g>
</g>
<!-- Node20&#45;&gt;Node26 -->
<g id="edge6" class="edge">
<title>Node20&#45;&gt;Node26</title>
<path fill="none" stroke="#191970" d="M721.2876,-60.4965C732.524,-50.7193 745.4692,-39.4554 755.5967,-30.6432"/>
<polygon fill="#191970" stroke="#191970" points="718.719,-58.092 713.4725,-67.2967 723.3139,-63.3728 718.719,-58.092"/>
</g>
<!-- Node27 -->
<g id="node8" class="node">
<title>Node27</title>
<g id="a_node8"><a xlink:href="parser_8c.html" target="_top" xlink:title=" ">
<polygon fill="#ffffff" stroke="#000000" points="858.5,-.5 858.5,-30.5 993.5,-30.5 993.5,-.5 858.5,-.5"/>
<text text-anchor="start" x="866.5" y="-18.5" font-family="Helvetica,sans-Serif" font-size="10.00" fill="#000000">main/parser/parserfuncs</text>
<text text-anchor="middle" x="926" y="-7.5" font-family="Helvetica,sans-Serif" font-size="10.00" fill="#000000">/parser.c</text>
</a>
</g>
</g>
<!-- Node20&#45;&gt;Node27 -->
<g id="edge7" class="edge">
<title>Node20&#45;&gt;Node27</title>
<path fill="none" stroke="#191970" d="M757.6248,-64.5484C794.0307,-53.9432 839.6075,-40.6665 874.1584,-30.6017"/>
<polygon fill="#191970" stroke="#191970" points="756.2385,-61.3067 747.6165,-67.4639 758.1963,-68.0274 756.2385,-61.3067"/>
</g>
<!-- Node28 -->
<g id="node9" class="node">
<title>Node28</title>
<g id="a_node9"><a xlink:href="strings_8c.html" target="_top" xlink:title=" ">
<polygon fill="#ffffff" stroke="#000000" points="1011.5,-.5 1011.5,-30.5 1146.5,-30.5 1146.5,-.5 1011.5,-.5"/>
<text text-anchor="start" x="1019.5" y="-18.5" font-family="Helvetica,sans-Serif" font-size="10.00" fill="#000000">main/parser/parserfuncs</text>
<text text-anchor="middle" x="1079" y="-7.5" font-family="Helvetica,sans-Serif" font-size="10.00" fill="#000000">/strings.c</text>
</a>
</g>
</g>
<!-- Node20&#45;&gt;Node28 -->
<g id="edge8" class="edge">
<title>Node20&#45;&gt;Node28</title>
<path fill="none" stroke="#191970" d="M762.7705,-71.9896C825.0389,-62.0242 920.4554,-46.3361 1003,-31 1005.7803,-30.4834 1008.6159,-29.9473 1011.4789,-29.3984"/>
<polygon fill="#191970" stroke="#191970" points="762.0102,-68.5665 752.6872,-73.5996 763.114,-75.479 762.0102,-68.5665"/>
</g>
<!-- Node29 -->
<g id="node10" class="node">
<title>Node29</title>
<g id="a_node10"><a xlink:href="parserutil_8c.html" target="_top" xlink:title=" ">
<polygon fill="#ffffff" stroke="#000000" points="1164.5,-6 1164.5,-25 1297.5,-25 1297.5,-6 1164.5,-6"/>
<text text-anchor="middle" x="1231" y="-13" font-family="Helvetica,sans-Serif" font-size="10.00" fill="#000000">main/parser/parserutil.c</text>
</a>
</g>
</g>
<!-- Node20&#45;&gt;Node29 -->
<g id="edge9" class="edge">
<title>Node20&#45;&gt;Node29</title>
<path fill="none" stroke="#191970" d="M762.5525,-76.9917C852.2404,-69.1259 1016.7274,-53.1393 1156,-31 1166.5049,-29.3301 1177.7685,-27.1902 1188.2906,-25.0372"/>
<polygon fill="#191970" stroke="#191970" points="762.1807,-73.5108 752.522,-77.8649 762.7878,-80.4844 762.1807,-73.5108"/>
</g>
<!-- Node30 -->
<g id="node11" class="node">
<title>Node30</title>
<g id="a_node11"><a xlink:href="parserutil__test_8c.html" target="_top" xlink:title=" ">
<polygon fill="#ffffff" stroke="#000000" points="1315.5,-.5 1315.5,-30.5 1434.5,-30.5 1434.5,-.5 1315.5,-.5"/>
<text text-anchor="start" x="1323.5" y="-18.5" font-family="Helvetica,sans-Serif" font-size="10.00" fill="#000000">test/parser/parserutil</text>
<text text-anchor="middle" x="1375" y="-7.5" font-family="Helvetica,sans-Serif" font-size="10.00" fill="#000000">_test.c</text>
</a>
</g>
</g>
<!-- Node20&#45;&gt;Node30 -->
<g id="edge10" class="edge">
<title>Node20&#45;&gt;Node30</title>
<path fill="none" stroke="#191970" d="M762.9568,-79.9257C875.7669,-74.9037 1110.6374,-61.5014 1307,-31 1309.7519,-30.5725 1312.5582,-30.0968 1315.387,-29.5848"/>
<polygon fill="#191970" stroke="#191970" points="762.5908,-76.4382 752.7532,-80.3718 762.8966,-83.4315 762.5908,-76.4382"/>
</g>
</g>
</svg>
