<?xml version="1.0" encoding="UTF-8" standalone="no"?>
<!DOCTYPE svg PUBLIC "-//W3C//DTD SVG 1.1//EN"
 "http://www.w3.org/Graphics/SVG/1.1/DTD/svg11.dtd">
<!-- Generated by graphviz version 2.40.1 (20161225.0304)
 -->
<!-- Title: PARSERFUNC Pages: 1 -->
<svg width="476pt" height="294pt"
 viewBox="0.00 0.00 476.00 294.00" xmlns="http://www.w3.org/2000/svg" xmlns:xlink="http://www.w3.org/1999/xlink">
<g id="graph0" class="graph" transform="scale(1 1) rotate(0) translate(4 290)">
<title>PARSERFUNC</title>
<polygon fill="#ffffff" stroke="transparent" points="-4,4 -4,-290 472,-290 472,4 -4,4"/>
<!-- Node6 -->
<g id="node1" class="node">
<title>Node6</title>
<g id="a_node1"><a xlink:title=" ">
<polygon fill="#bfbfbf" stroke="#000000" points="0,-133.5 0,-152.5 81,-152.5 81,-133.5 0,-133.5"/>
<text text-anchor="middle" x="40.5" y="-140.5" font-family="Helvetica,sans-Serif" font-size="10.00" fill="#000000">PARSERFUNC</text>
</a>
</g>
</g>
<!-- Node7 -->
<g id="node2" class="node">
<title>Node7</title>
<g id="a_node2"><a xlink:href="parser_8h.html#a8c4c57eca60b2cec9a372a04abea456d" target="_top" xlink:title="Advances the parser as long as it can find whitespace.">
<polygon fill="#ffffff" stroke="#000000" points="129.5,-76.5 129.5,-95.5 215.5,-95.5 215.5,-76.5 129.5,-76.5"/>
<text text-anchor="middle" x="172.5" y="-83.5" font-family="Helvetica,sans-Serif" font-size="10.00" fill="#000000">parser_skipws</text>
</a>
</g>
</g>
<!-- Node6&#45;&gt;Node7 -->
<g id="edge1" class="edge">
<title>Node6&#45;&gt;Node7</title>
<path fill="none" stroke="#191970" d="M58.1223,-133.4193C73.4331,-125.2967 96.3355,-113.6258 117,-105 122.0517,-102.8913 127.4287,-100.8305 132.7717,-98.8905"/>
<polygon fill="#191970" stroke="#191970" points="134.0048,-102.167 142.2749,-95.5445 131.68,-95.5643 134.0048,-102.167"/>
</g>
<!-- Node10 -->
<g id="node5" class="node">
<title>Node10</title>
<g id="a_node5"><a xlink:href="error_8c.html#abce5ae15abadd0806e96f190e0294797" target="_top" xlink:title="Find the length of an errorstack.">
<polygon fill="#ffffff" stroke="#000000" points="121.5,-228.5 121.5,-247.5 223.5,-247.5 223.5,-228.5 121.5,-228.5"/>
<text text-anchor="middle" x="172.5" y="-235.5" font-family="Helvetica,sans-Serif" font-size="10.00" fill="#000000">errorstack_length</text>
</a>
</g>
</g>
<!-- Node6&#45;&gt;Node10 -->
<g id="edge4" class="edge">
<title>Node6&#45;&gt;Node10</title>
<path fill="none" stroke="#191970" d="M47.696,-152.5604C60.1513,-168.4875 87.2641,-200.5233 117,-219 120.2169,-220.9989 123.6703,-222.8179 127.2237,-224.4672"/>
<polygon fill="#191970" stroke="#191970" points="126.1923,-227.8291 136.7693,-228.4436 128.884,-221.3673 126.1923,-227.8291"/>
</g>
<!-- Node11 -->
<g id="node6" class="node">
<title>Node11</title>
<g id="a_node6"><a xlink:href="error_8c.html#a89fd5777df6b835a420106d940842f2a" target="_top" xlink:title="pop the errorstack until it has a desired length.">
<polygon fill="#ffffff" stroke="#000000" points="117,-266.5 117,-285.5 228,-285.5 228,-266.5 117,-266.5"/>
<text text-anchor="middle" x="172.5" y="-273.5" font-family="Helvetica,sans-Serif" font-size="10.00" fill="#000000">errorstack_popuntil</text>
</a>
</g>
</g>
<!-- Node6&#45;&gt;Node11 -->
<g id="edge5" class="edge">
<title>Node6&#45;&gt;Node11</title>
<path fill="none" stroke="#191970" d="M44.4526,-152.8111C53.7661,-174.7189 79.1898,-227.9691 117,-257 119.4259,-258.8626 122.0464,-260.5497 124.7825,-262.0768"/>
<polygon fill="#191970" stroke="#191970" points="123.2895,-265.2425 133.8178,-266.4286 126.3271,-258.9359 123.2895,-265.2425"/>
</g>
<!-- Node13 -->
<g id="node8" class="node">
<title>Node13</title>
<g id="a_node8"><a xlink:href="error_8c.html#ae07365063509d8944da638087336597b" target="_top" xlink:title="Construct a new error object out of parameters, and push it to the errorstack.">
<polygon fill="#ffffff" stroke="#000000" points="125,-152.5 125,-171.5 220,-171.5 220,-152.5 125,-152.5"/>
<text text-anchor="middle" x="172.5" y="-159.5" font-family="Helvetica,sans-Serif" font-size="10.00" fill="#000000">errorstack_push</text>
</a>
</g>
</g>
<!-- Node6&#45;&gt;Node13 -->
<g id="edge7" class="edge">
<title>Node6&#45;&gt;Node13</title>
<path fill="none" stroke="#191970" d="M81.1814,-148.8557C91.7369,-150.375 103.3108,-152.0409 114.5669,-153.6611"/>
<polygon fill="#191970" stroke="#191970" points="114.3798,-157.1702 124.7765,-155.1307 115.3771,-150.2416 114.3798,-157.1702"/>
</g>
<!-- Node14 -->
<g id="node9" class="node">
<title>Node14</title>
<g id="a_node9"><a xlink:href="AST_8c.html#a3a1c70c232e669f02ef0a4e171ee6ab2" target="_top" xlink:title="Constructore for ast objects.">
<polygon fill="#ffffff" stroke="#000000" points="142,-114.5 142,-133.5 203,-133.5 203,-114.5 142,-114.5"/>
<text text-anchor="middle" x="172.5" y="-121.5" font-family="Helvetica,sans-Serif" font-size="10.00" fill="#000000">AST_new</text>
</a>
</g>
</g>
<!-- Node6&#45;&gt;Node14 -->
<g id="edge8" class="edge">
<title>Node6&#45;&gt;Node14</title>
<path fill="none" stroke="#191970" d="M81.1814,-137.1443C97.2135,-134.8367 115.5949,-132.1909 131.6439,-129.8808"/>
<polygon fill="#191970" stroke="#191970" points="132.4062,-133.3072 141.8055,-128.4181 131.4089,-126.3786 132.4062,-133.3072"/>
</g>
<!-- Node15 -->
<g id="node10" class="node">
<title>Node15</title>
<g id="a_node10"><a xlink:href="parser_8h.html#a1a00af051004cb18edac760f39982eea" target="_top" xlink:title="Searches for the given character, advances the parser if it found it.">
<polygon fill="#ffffff" stroke="#000000" points="119.5,-190.5 119.5,-209.5 225.5,-209.5 225.5,-190.5 119.5,-190.5"/>
<text text-anchor="middle" x="172.5" y="-197.5" font-family="Helvetica,sans-Serif" font-size="10.00" fill="#000000">parser_acceptchar</text>
</a>
</g>
</g>
<!-- Node6&#45;&gt;Node15 -->
<g id="edge9" class="edge">
<title>Node6&#45;&gt;Node15</title>
<path fill="none" stroke="#191970" d="M58.1223,-152.5807C73.4331,-160.7033 96.3355,-172.3742 117,-181 122.0517,-183.1087 127.4287,-185.1695 132.7717,-187.1095"/>
<polygon fill="#191970" stroke="#191970" points="131.68,-190.4357 142.2749,-190.4555 134.0048,-183.833 131.68,-190.4357"/>
</g>
<!-- Node16 -->
<g id="node11" class="node">
<title>Node16</title>
<g id="a_node11"><a xlink:href="token_8h.html#a5f63b7723640416a125433badc7d6563" target="_top" xlink:title="Constructor for token objects.">
<polygon fill="#ffffff" stroke="#000000" points="137.5,-38.5 137.5,-57.5 207.5,-57.5 207.5,-38.5 137.5,-38.5"/>
<text text-anchor="middle" x="172.5" y="-45.5" font-family="Helvetica,sans-Serif" font-size="10.00" fill="#000000">token_new</text>
</a>
</g>
</g>
<!-- Node6&#45;&gt;Node16 -->
<g id="edge11" class="edge">
<title>Node6&#45;&gt;Node16</title>
<path fill="none" stroke="#191970" d="M47.696,-133.4396C60.1513,-117.5125 87.2641,-85.4767 117,-67 120.4061,-64.8836 124.0774,-62.9687 127.8518,-61.2435"/>
<polygon fill="#191970" stroke="#191970" points="129.4345,-64.3771 137.3537,-57.3388 126.7738,-57.9025 129.4345,-64.3771"/>
</g>
<!-- Node17 -->
<g id="node12" class="node">
<title>Node17</title>
<g id="a_node12"><a xlink:href="AST_8c.html#a5f9c0bcd1d544aac044f4acf93c27ddb" target="_top" xlink:title="Adds a child ast node to a parent ast node.">
<polygon fill="#ffffff" stroke="#000000" points="131,-.5 131,-19.5 214,-19.5 214,-.5 131,-.5"/>
<text text-anchor="middle" x="172.5" y="-7.5" font-family="Helvetica,sans-Serif" font-size="10.00" fill="#000000">AST_addChild</text>
</a>
</g>
</g>
<!-- Node6&#45;&gt;Node17 -->
<g id="edge12" class="edge">
<title>Node6&#45;&gt;Node17</title>
<path fill="none" stroke="#191970" d="M44.4526,-133.1889C53.7661,-111.2811 79.1898,-58.0309 117,-29 119.4259,-27.1374 122.0464,-25.4503 124.7825,-23.9232"/>
<polygon fill="#191970" stroke="#191970" points="126.3271,-27.0641 133.8178,-19.5714 123.2895,-20.7575 126.3271,-27.0641"/>
</g>
<!-- Node8 -->
<g id="node3" class="node">
<title>Node8</title>
<g id="a_node3"><a xlink:href="parserutil_8c.html#a2d9e8c20025b7b883c4e87790685a6ad" target="_top" xlink:title="Proxy to parser_next.">
<polygon fill="#ffffff" stroke="#000000" points="264,-133.5 264,-152.5 358,-152.5 358,-133.5 264,-133.5"/>
<text text-anchor="middle" x="311" y="-140.5" font-family="Helvetica,sans-Serif" font-size="10.00" fill="#000000">parser_advance</text>
</a>
</g>
</g>
<!-- Node7&#45;&gt;Node8 -->
<g id="edge2" class="edge">
<title>Node7&#45;&gt;Node8</title>
<path fill="none" stroke="#191970" d="M202.0794,-95.5176C210.5162,-98.3962 219.6757,-101.6791 228,-105 246.285,-112.2946 266.3673,-121.4571 282.1976,-128.9573"/>
<polygon fill="#191970" stroke="#191970" points="280.9189,-132.2254 291.4506,-133.3808 283.9381,-125.9099 280.9189,-132.2254"/>
</g>
<!-- Node9 -->
<g id="node4" class="node">
<title>Node9</title>
<g id="a_node4"><a xlink:href="parserutil_8c.html#ab25a97ff31329fe9461666bfe2dc6f2c" target="_top" xlink:title="Iterate the parser.">
<polygon fill="#ffffff" stroke="#000000" points="394,-133.5 394,-152.5 468,-152.5 468,-133.5 394,-133.5"/>
<text text-anchor="middle" x="431" y="-140.5" font-family="Helvetica,sans-Serif" font-size="10.00" fill="#000000">parser_next</text>
</a>
</g>
</g>
<!-- Node8&#45;&gt;Node9 -->
<g id="edge3" class="edge">
<title>Node8&#45;&gt;Node9</title>
<path fill="none" stroke="#191970" d="M358.0828,-143C366.4854,-143 375.2428,-143 383.6528,-143"/>
<polygon fill="#191970" stroke="#191970" points="383.6916,-146.5001 393.6916,-143 383.6916,-139.5001 383.6916,-146.5001"/>
</g>
<!-- Node12 -->
<g id="node7" class="node">
<title>Node12</title>
<g id="a_node7"><a xlink:href="error_8c.html#a88bbc44b859ab2f2b708bdde8e6394bf" target="_top" xlink:title="Pop and return the top element of the errorstack.">
<polygon fill="#ffffff" stroke="#000000" points="266.5,-266.5 266.5,-285.5 355.5,-285.5 355.5,-266.5 266.5,-266.5"/>
<text text-anchor="middle" x="311" y="-273.5" font-family="Helvetica,sans-Serif" font-size="10.00" fill="#000000">errorstack_pop</text>
</a>
</g>
</g>
<!-- Node11&#45;&gt;Node12 -->
<g id="edge6" class="edge">
<title>Node11&#45;&gt;Node12</title>
<path fill="none" stroke="#191970" d="M228.0352,-276C237.2213,-276 246.7428,-276 255.9177,-276"/>
<polygon fill="#191970" stroke="#191970" points="256.0928,-279.5001 266.0928,-276 256.0928,-272.5001 256.0928,-279.5001"/>
</g>
<!-- Node15&#45;&gt;Node8 -->
<g id="edge10" class="edge">
<title>Node15&#45;&gt;Node8</title>
<path fill="none" stroke="#191970" d="M202.0794,-190.4824C210.5162,-187.6038 219.6757,-184.3209 228,-181 246.285,-173.7054 266.3673,-164.5429 282.1976,-157.0427"/>
<polygon fill="#191970" stroke="#191970" points="283.9381,-160.0901 291.4506,-152.6192 280.9189,-153.7746 283.9381,-160.0901"/>
</g>
</g>
</svg>
