<?xml version="1.0" encoding="UTF-8" standalone="no"?>
<!DOCTYPE svg PUBLIC "-//W3C//DTD SVG 1.1//EN"
 "http://www.w3.org/Graphics/SVG/1.1/DTD/svg11.dtd">
<!-- Generated by graphviz version 2.40.1 (20161225.0304)
 -->
<!-- Title: parser_parseString Pages: 1 -->
<svg width="489pt" height="256pt"
 viewBox="0.00 0.00 489.00 256.00" xmlns="http://www.w3.org/2000/svg" xmlns:xlink="http://www.w3.org/1999/xlink">
<g id="graph0" class="graph" transform="scale(1 1) rotate(0) translate(4 252)">
<title>parser_parseString</title>
<polygon fill="#ffffff" stroke="transparent" points="-4,4 -4,-252 485,-252 485,4 -4,4"/>
<!-- Node38 -->
<g id="node1" class="node">
<title>Node38</title>
<g id="a_node1"><a xlink:title="Parser Entrypoint.">
<polygon fill="#bfbfbf" stroke="#000000" points="0,-114.5 0,-133.5 98,-133.5 98,-114.5 0,-114.5"/>
<text text-anchor="middle" x="49" y="-121.5" font-family="Helvetica,sans-Serif" font-size="10.00" fill="#000000">parser_parseString</text>
</a>
</g>
</g>
<!-- Node39 -->
<g id="node2" class="node">
<title>Node39</title>
<g id="a_node2"><a xlink:href="parserutil_8c.html#a0ad4e3c832d2917e22db175046272a8a" target="_top" xlink:title="Removes comments from a string.">
<polygon fill="#ffffff" stroke="#000000" points="134,-228.5 134,-247.5 266,-247.5 266,-228.5 134,-228.5"/>
<text text-anchor="middle" x="200" y="-235.5" font-family="Helvetica,sans-Serif" font-size="10.00" fill="#000000">parser_remove_comments</text>
</a>
</g>
</g>
<!-- Node38&#45;&gt;Node39 -->
<g id="edge1" class="edge">
<title>Node38&#45;&gt;Node39</title>
<path fill="none" stroke="#191970" d="M54.9527,-133.7028C67.2632,-152.9445 97.4498,-196.0544 134,-219 137.3688,-221.1149 140.9804,-223.0012 144.7143,-224.6827"/>
<polygon fill="#191970" stroke="#191970" points="143.5936,-228.0037 154.1788,-228.4537 146.1846,-221.5009 143.5936,-228.0037"/>
</g>
<!-- Node40 -->
<g id="node3" class="node">
<title>Node40</title>
<g id="a_node3"><a xlink:href="parserutil_8c.html#aeabb62e46d4414de7848d31d805ab834" target="_top" xlink:title="Parser constructor.">
<polygon fill="#ffffff" stroke="#000000" points="166.5,-190.5 166.5,-209.5 233.5,-209.5 233.5,-190.5 166.5,-190.5"/>
<text text-anchor="middle" x="200" y="-197.5" font-family="Helvetica,sans-Serif" font-size="10.00" fill="#000000">parser_new</text>
</a>
</g>
</g>
<!-- Node38&#45;&gt;Node40 -->
<g id="edge2" class="edge">
<title>Node38&#45;&gt;Node40</title>
<path fill="none" stroke="#191970" d="M60.6769,-133.5685C76.4397,-146.063 105.8087,-167.8825 134,-181 141.1452,-184.3247 149.0002,-187.1991 156.7223,-189.6341"/>
<polygon fill="#191970" stroke="#191970" points="155.7871,-193.0073 166.369,-192.4844 157.7706,-186.2942 155.7871,-193.0073"/>
</g>
<!-- Node42 -->
<g id="node5" class="node">
<title>Node42</title>
<g id="a_node5"><a xlink:href="parserutil_8c.html#a2d9e8c20025b7b883c4e87790685a6ad" target="_top" xlink:title="Proxy to parser_next.">
<polygon fill="#ffffff" stroke="#000000" points="157,-152.5 157,-171.5 243,-171.5 243,-152.5 157,-152.5"/>
<text text-anchor="middle" x="200" y="-159.5" font-family="Helvetica,sans-Serif" font-size="10.00" fill="#000000">parser_advance</text>
</a>
</g>
</g>
<!-- Node38&#45;&gt;Node42 -->
<g id="edge4" class="edge">
<title>Node38&#45;&gt;Node42</title>
<path fill="none" stroke="#191970" d="M87.1037,-133.589C106.94,-138.5809 131.3839,-144.7324 152.4483,-150.0334"/>
<polygon fill="#191970" stroke="#191970" points="151.6185,-153.4336 162.1703,-152.4799 153.3269,-146.6452 151.6185,-153.4336"/>
</g>
<!-- Node44 -->
<g id="node7" class="node">
<title>Node44</title>
<g id="a_node7"><a xlink:href="parser_8h.html#a909b31712182aae737a48cd819f43a2d" target="_top" xlink:title=" ">
<polygon fill="#ffffff" stroke="#000000" points="167.5,-114.5 167.5,-133.5 232.5,-133.5 232.5,-114.5 167.5,-114.5"/>
<text text-anchor="middle" x="200" y="-121.5" font-family="Helvetica,sans-Serif" font-size="10.00" fill="#000000">parser_root</text>
</a>
</g>
</g>
<!-- Node38&#45;&gt;Node44 -->
<g id="edge6" class="edge">
<title>Node38&#45;&gt;Node44</title>
<path fill="none" stroke="#191970" d="M98.0254,-124C117.1187,-124 138.7986,-124 157.2443,-124"/>
<polygon fill="#191970" stroke="#191970" points="157.4038,-127.5001 167.4037,-124 157.4037,-120.5001 157.4038,-127.5001"/>
</g>
<!-- Node45 -->
<g id="node8" class="node">
<title>Node45</title>
<g id="a_node8"><a xlink:href="error_8c.html#aece17809d86b1b3c7548254beab5b5c1" target="_top" xlink:title="Return true if a given errorstack is empty.">
<polygon fill="#ffffff" stroke="#000000" points="154,-76.5 154,-95.5 246,-95.5 246,-76.5 154,-76.5"/>
<text text-anchor="middle" x="200" y="-83.5" font-family="Helvetica,sans-Serif" font-size="10.00" fill="#000000">errorstack_empty</text>
</a>
</g>
</g>
<!-- Node38&#45;&gt;Node45 -->
<g id="edge7" class="edge">
<title>Node38&#45;&gt;Node45</title>
<path fill="none" stroke="#191970" d="M87.1037,-114.411C106.94,-109.4191 131.3839,-103.2676 152.4483,-97.9666"/>
<polygon fill="#191970" stroke="#191970" points="153.3269,-101.3548 162.1703,-95.5201 151.6185,-94.5664 153.3269,-101.3548"/>
</g>
<!-- Node46 -->
<g id="node9" class="node">
<title>Node46</title>
<g id="a_node9"><a xlink:href="error_8c.html#af86905f178f9caa084c7a4de6ff9ff8a" target="_top" xlink:title="Throw all errors on the errorstack.">
<polygon fill="#ffffff" stroke="#000000" points="146,-38.5 146,-57.5 254,-57.5 254,-38.5 146,-38.5"/>
<text text-anchor="middle" x="200" y="-45.5" font-family="Helvetica,sans-Serif" font-size="10.00" fill="#000000">errorstack_traceback</text>
</a>
</g>
</g>
<!-- Node38&#45;&gt;Node46 -->
<g id="edge8" class="edge">
<title>Node38&#45;&gt;Node46</title>
<path fill="none" stroke="#191970" d="M60.6769,-114.4315C76.4397,-101.937 105.8087,-80.1175 134,-67 138.9999,-64.6735 144.3475,-62.5675 149.7538,-60.6782"/>
<polygon fill="#191970" stroke="#191970" points="151.0604,-63.9338 159.4863,-57.5108 148.8941,-57.2774 151.0604,-63.9338"/>
</g>
<!-- Node50 -->
<g id="node13" class="node">
<title>Node50</title>
<g id="a_node13"><a xlink:href="parserutil_8c.html#a1ddd27828ac4848a4b9c05eb6190852f" target="_top" xlink:title="Parser destructor.">
<polygon fill="#ffffff" stroke="#000000" points="167.5,-.5 167.5,-19.5 232.5,-19.5 232.5,-.5 167.5,-.5"/>
<text text-anchor="middle" x="200" y="-7.5" font-family="Helvetica,sans-Serif" font-size="10.00" fill="#000000">parser_free</text>
</a>
</g>
</g>
<!-- Node38&#45;&gt;Node50 -->
<g id="edge12" class="edge">
<title>Node38&#45;&gt;Node50</title>
<path fill="none" stroke="#191970" d="M54.9527,-114.2972C67.2632,-95.0555 97.4498,-51.9456 134,-29 141.1077,-24.5379 149.2959,-21.0932 157.4333,-18.4437"/>
<polygon fill="#191970" stroke="#191970" points="158.6302,-21.7408 167.2578,-15.5914 156.6785,-15.0184 158.6302,-21.7408"/>
</g>
<!-- Node41 -->
<g id="node4" class="node">
<title>Node41</title>
<g id="a_node4"><a xlink:href="error_8c.html#ab400e9a29e066e1bbe7b7893e1eb767e" target="_top" xlink:title="Creates a new errorstack object.">
<polygon fill="#ffffff" stroke="#000000" points="302,-190.5 302,-209.5 385,-209.5 385,-190.5 302,-190.5"/>
<text text-anchor="middle" x="343.5" y="-197.5" font-family="Helvetica,sans-Serif" font-size="10.00" fill="#000000">errorstack_new</text>
</a>
</g>
</g>
<!-- Node40&#45;&gt;Node41 -->
<g id="edge3" class="edge">
<title>Node40&#45;&gt;Node41</title>
<path fill="none" stroke="#191970" d="M233.6444,-200C250.9185,-200 272.344,-200 291.674,-200"/>
<polygon fill="#191970" stroke="#191970" points="291.8569,-203.5001 301.8568,-200 291.8568,-196.5001 291.8569,-203.5001"/>
</g>
<!-- Node43 -->
<g id="node6" class="node">
<title>Node43</title>
<g id="a_node6"><a xlink:href="parserutil_8c.html#ab25a97ff31329fe9461666bfe2dc6f2c" target="_top" xlink:title="Iterate the parser.">
<polygon fill="#ffffff" stroke="#000000" points="309.5,-152.5 309.5,-171.5 377.5,-171.5 377.5,-152.5 309.5,-152.5"/>
<text text-anchor="middle" x="343.5" y="-159.5" font-family="Helvetica,sans-Serif" font-size="10.00" fill="#000000">parser_next</text>
</a>
</g>
</g>
<!-- Node42&#45;&gt;Node43 -->
<g id="edge5" class="edge">
<title>Node42&#45;&gt;Node43</title>
<path fill="none" stroke="#191970" d="M243.0547,-162C260.7218,-162 281.1679,-162 298.9835,-162"/>
<polygon fill="#191970" stroke="#191970" points="299.1282,-165.5001 309.1282,-162 299.1281,-158.5001 299.1282,-165.5001"/>
</g>
<!-- Node47 -->
<g id="node10" class="node">
<title>Node47</title>
<g id="a_node10"><a xlink:href="error_8c.html#a2e581dee0de155b88d33f98ddd006189" target="_top" xlink:title=" ">
<polygon fill="#ffffff" stroke="#000000" points="311,-76.5 311,-95.5 376,-95.5 376,-76.5 311,-76.5"/>
<text text-anchor="middle" x="343.5" y="-83.5" font-family="Helvetica,sans-Serif" font-size="10.00" fill="#000000">error_throw</text>
</a>
</g>
</g>
<!-- Node46&#45;&gt;Node47 -->
<g id="edge9" class="edge">
<title>Node46&#45;&gt;Node47</title>
<path fill="none" stroke="#191970" d="M236.2111,-57.589C255.9045,-62.804 280.3766,-69.2844 300.9736,-74.7386"/>
<polygon fill="#191970" stroke="#191970" points="300.1728,-78.1472 310.7356,-77.3237 301.9648,-71.3804 300.1728,-78.1472"/>
</g>
<!-- Node49 -->
<g id="node12" class="node">
<title>Node49</title>
<g id="a_node12"><a xlink:href="error_8c.html#a0289b490436a23262d094c6a624ef7f0" target="_top" xlink:title="Return the top error of the errorstack.">
<polygon fill="#ffffff" stroke="#000000" points="304,-38.5 304,-57.5 383,-57.5 383,-38.5 304,-38.5"/>
<text text-anchor="middle" x="343.5" y="-45.5" font-family="Helvetica,sans-Serif" font-size="10.00" fill="#000000">errorstack_top</text>
</a>
</g>
</g>
<!-- Node46&#45;&gt;Node49 -->
<g id="edge11" class="edge">
<title>Node46&#45;&gt;Node49</title>
<path fill="none" stroke="#191970" d="M254.2512,-48C267.2776,-48 281.1234,-48 293.9249,-48"/>
<polygon fill="#191970" stroke="#191970" points="293.9319,-51.5001 303.9319,-48 293.9319,-44.5001 293.9319,-51.5001"/>
</g>
<!-- Node48 -->
<g id="node11" class="node">
<title>Node48</title>
<g id="a_node11"><a xlink:href="error_8c.html#a225bd87ba0491415a1ef1aec28912809" target="_top" xlink:title="prints an error struct">
<polygon fill="#ffffff" stroke="#000000" points="421,-76.5 421,-95.5 481,-95.5 481,-76.5 421,-76.5"/>
<text text-anchor="middle" x="451" y="-83.5" font-family="Helvetica,sans-Serif" font-size="10.00" fill="#000000">error_print</text>
</a>
</g>
</g>
<!-- Node47&#45;&gt;Node48 -->
<g id="edge10" class="edge">
<title>Node47&#45;&gt;Node48</title>
<path fill="none" stroke="#191970" d="M376.0453,-86C386.9273,-86 399.1904,-86 410.5972,-86"/>
<polygon fill="#191970" stroke="#191970" points="410.7681,-89.5001 420.7681,-86 410.768,-82.5001 410.7681,-89.5001"/>
</g>
<!-- Node51 -->
<g id="node14" class="node">
<title>Node51</title>
<g id="a_node14"><a xlink:href="error_8c.html#a56c6e945b508072de3181f78dbc0cfe3" target="_top" xlink:title=" ">
<polygon fill="#ffffff" stroke="#000000" points="302.5,-.5 302.5,-19.5 384.5,-19.5 384.5,-.5 302.5,-.5"/>
<text text-anchor="middle" x="343.5" y="-7.5" font-family="Helvetica,sans-Serif" font-size="10.00" fill="#000000">errorstack_free</text>
</a>
</g>
</g>
<!-- Node50&#45;&gt;Node51 -->
<g id="edge13" class="edge">
<title>Node50&#45;&gt;Node51</title>
<path fill="none" stroke="#191970" d="M232.5624,-10C250.1668,-10 272.3115,-10 292.177,-10"/>
<polygon fill="#191970" stroke="#191970" points="292.3216,-13.5001 302.3216,-10 292.3216,-6.5001 292.3216,-13.5001"/>
</g>
</g>
</svg>
