<?xml version="1.0" encoding="UTF-8" standalone="no"?>
<!DOCTYPE svg PUBLIC "-//W3C//DTD SVG 1.1//EN"
 "http://www.w3.org/Graphics/SVG/1.1/DTD/svg11.dtd">
<!-- Generated by graphviz version 2.40.1 (20161225.0304)
 -->
<!-- Title: main/parser/parserutil.c Pages: 1 -->
<!--zoomable 532 -->
<svg id="main" version="1.1" xmlns="http://www.w3.org/2000/svg" xmlns:xlink="http://www.w3.org/1999/xlink" xml:space="preserve" onload="init(evt)">
<style type="text/css"><![CDATA[
.edge:hover path { stroke: red; }
.edge:hover polygon { stroke: red; fill: red; }
]]></style>
<script type="text/javascript"><![CDATA[
var edges = document.getElementsByTagName('g');
if (edges && edges.length) {
  for (var i=0;i<edges.length;i++) {
    if (edges[i].id.substr(0,4)=='edge') {
      edges[i].setAttribute('class','edge');
    }
  }
}
]]></script>
        <defs>
                <circle id="rim" cx="0" cy="0" r="7"/>
                <circle id="rim2" cx="0" cy="0" r="3.5"/>
                <g id="zoomPlus">
                        <use xlink:href="#rim" fill="#404040">
                                <set attributeName="fill" to="#808080" begin="zoomplus.mouseover" end="zoomplus.mouseout"/>
                        </use>
                        <path d="M-4,0h8M0,-4v8" fill="none" stroke="white" stroke-width="1.5" pointer-events="none"/>
                </g>
                <g id="zoomMin">
                        <use xlink:href="#rim" fill="#404040">
                                <set attributeName="fill" to="#808080" begin="zoomminus.mouseover" end="zoomminus.mouseout"/>
                        </use>
                        <path d="M-4,0h8" fill="none" stroke="white" stroke-width="1.5" pointer-events="none"/>
                </g>
                <g id="dirArrow">
                        <path fill="none" stroke="white" stroke-width="1.5" d="M0,-3.0v7 M-2.5,-0.5L0,-3.0L2.5,-0.5"/>
                </g>
               <g id="resetDef">
                       <use xlink:href="#rim2" fill="#404040">
                               <set attributeName="fill" to="#808080" begin="reset.mouseover" end="reset.mouseout"/>
                       </use>
               </g>
        </defs>

<script type="text/javascript">
var viewWidth = 1314;
var viewHeight = 532;
var sectionId = 'dynsection-0';
</script>
<script xlink:href="svgpan.js"/>
<svg id="graph" class="graph">
<g id="viewport">
<title>main/parser/parserutil.c</title>
<polygon fill="#ffffff" stroke="transparent" points="-4,4 -4,-528 1309.5,-528 1309.5,4 -4,4"/>
<!-- Node0 -->
<g id="node1" class="node">
<title>Node0</title>
<g id="a_node1"><a xlink:title=" ">
<polygon fill="#bfbfbf" stroke="#000000" points="964.5,-504.5 964.5,-523.5 1097.5,-523.5 1097.5,-504.5 964.5,-504.5"/>
<text text-anchor="middle" x="1031" y="-511.5" font-family="Helvetica,sans-Serif" font-size="10.00" fill="#000000">main/parser/parserutil.c</text>
</a>
</g>
</g>
<!-- Node1 -->
<g id="node2" class="node">
<title>Node1</title>
<g id="a_node2"><a xlink:href="AST_8h.html" target="_top" xlink:title=" ">
<polygon fill="#ffffff" stroke="#000000" points="544.5,-392.5 544.5,-411.5 587.5,-411.5 587.5,-392.5 544.5,-392.5"/>
<text text-anchor="middle" x="566" y="-399.5" font-family="Helvetica,sans-Serif" font-size="10.00" fill="#000000">AST.h</text>
</a>
</g>
</g>
<!-- Node0&#45;&gt;Node1 -->
<g id="edge1" class="edge">
<title>Node0&#45;&gt;Node1</title>
<path fill="none" stroke="#191970" d="M991.3544,-504.4509C900.6822,-482.6116 679.6798,-429.3809 597.4791,-409.5821"/>
<polygon fill="#191970" stroke="#191970" points="598.2563,-406.1692 587.7147,-407.2302 596.6171,-412.9746 598.2563,-406.1692"/>
</g>
<!-- Node2 -->
<g id="node3" class="node">
<title>Node2</title>
<g id="a_node3"><a xlink:title=" ">
<polygon fill="#ffffff" stroke="#bfbfbf" points="87.5,-.5 87.5,-19.5 140.5,-19.5 140.5,-.5 87.5,-.5"/>
<text text-anchor="middle" x="114" y="-7.5" font-family="Helvetica,sans-Serif" font-size="10.00" fill="#000000">stdint.h</text>
</a>
</g>
</g>
<!-- Node0&#45;&gt;Node2 -->
<g id="edge43" class="edge">
<title>Node0&#45;&gt;Node2</title>
<path fill="none" stroke="#191970" d="M964.1476,-510.2578C735.6834,-497.033 0,-450.6687 0,-402 0,-402 0,-402 0,-122 0,-75.4628 48.9383,-41.828 82.6864,-24.1659"/>
<polygon fill="#191970" stroke="#191970" points="84.3862,-27.2289 91.749,-19.6105 81.2424,-20.9746 84.3862,-27.2289"/>
</g>
<!-- Node10 -->
<g id="node11" class="node">
<title>Node10</title>
<g id="a_node11"><a xlink:title=" ">
<polygon fill="#ffffff" stroke="#bfbfbf" points="981,-.5 981,-19.5 1043,-19.5 1043,-.5 981,-.5"/>
<text text-anchor="middle" x="1012" y="-7.5" font-family="Helvetica,sans-Serif" font-size="10.00" fill="#000000">stdbool.h</text>
</a>
</g>
</g>
<!-- Node0&#45;&gt;Node10 -->
<g id="edge42" class="edge">
<title>Node0&#45;&gt;Node10</title>
<path fill="none" stroke="#191970" d="M1056.9001,-504.3737C1093.5134,-488.8905 1156,-454.7402 1156,-402 1156,-402 1156,-402 1156,-122 1156,-69.4048 1095.4051,-37.9162 1052.8299,-22.2828"/>
<polygon fill="#191970" stroke="#191970" points="1053.8407,-18.9283 1043.2459,-18.9156 1051.5204,-25.5325 1053.8407,-18.9283"/>
</g>
<!-- Node12 -->
<g id="node13" class="node">
<title>Node12</title>
<g id="a_node13"><a xlink:title=" ">
<polygon fill="#ffffff" stroke="#bfbfbf" points="930.5,-56.5 930.5,-75.5 983.5,-75.5 983.5,-56.5 930.5,-56.5"/>
<text text-anchor="middle" x="957" y="-63.5" font-family="Helvetica,sans-Serif" font-size="10.00" fill="#000000">stdlib.h</text>
</a>
</g>
</g>
<!-- Node0&#45;&gt;Node12 -->
<g id="edge45" class="edge">
<title>Node0&#45;&gt;Node12</title>
<path fill="none" stroke="#191970" d="M1046.1542,-504.289C1071.0803,-486.9931 1118,-448.2886 1118,-402 1118,-402 1118,-402 1118,-346 1118,-232.2131 1016.8412,-122.8873 974.8934,-82.4444"/>
<polygon fill="#191970" stroke="#191970" points="977.2303,-79.8371 967.5637,-75.5005 972.4161,-84.9188 977.2303,-79.8371"/>
</g>
<!-- Node19 -->
<g id="node20" class="node">
<title>Node19</title>
<g id="a_node20"><a xlink:href="parser_8h.html" target="_top" xlink:title=" ">
<polygon fill="#ffffff" stroke="#000000" points="538,-448.5 538,-467.5 594,-467.5 594,-448.5 538,-448.5"/>
<text text-anchor="middle" x="566" y="-455.5" font-family="Helvetica,sans-Serif" font-size="10.00" fill="#000000">parser.h</text>
</a>
</g>
</g>
<!-- Node0&#45;&gt;Node19 -->
<g id="edge34" class="edge">
<title>Node0&#45;&gt;Node19</title>
<path fill="none" stroke="#191970" d="M964.3768,-505.9766C865.4787,-494.0663 683.0281,-472.0937 604.0696,-462.5847"/>
<polygon fill="#191970" stroke="#191970" points="604.424,-459.1022 594.0772,-461.3813 603.5869,-466.052 604.424,-459.1022"/>
</g>
<!-- Node20 -->
<g id="node21" class="node">
<title>Node20</title>
<g id="a_node21"><a xlink:href="parser__error_8h.html" target="_top" xlink:title=" ">
<polygon fill="#ffffff" stroke="#000000" points="66,-336.5 66,-355.5 150,-355.5 150,-336.5 66,-336.5"/>
<text text-anchor="middle" x="108" y="-343.5" font-family="Helvetica,sans-Serif" font-size="10.00" fill="#000000">parser_error.h</text>
</a>
</g>
</g>
<!-- Node0&#45;&gt;Node20 -->
<g id="edge41" class="edge">
<title>Node0&#45;&gt;Node20</title>
<path fill="none" stroke="#191970" d="M964.3923,-511.178C867.8461,-506.3466 683.6487,-494.3405 529,-468 428.2624,-450.8419 404.0981,-440.6224 306,-412 248.7612,-395.2993 183.2978,-372.7988 143.8332,-358.855"/>
<polygon fill="#191970" stroke="#191970" points="144.9755,-355.5466 134.3808,-355.5031 142.6359,-362.1441 144.9755,-355.5466"/>
</g>
<!-- Node21 -->
<g id="node22" class="node">
<title>Node21</title>
<g id="a_node22"><a xlink:title=" ">
<polygon fill="#ffffff" stroke="#bfbfbf" points="1184,-448.5 1184,-467.5 1234,-467.5 1234,-448.5 1184,-448.5"/>
<text text-anchor="middle" x="1209" y="-455.5" font-family="Helvetica,sans-Serif" font-size="10.00" fill="#000000">stdio.h</text>
</a>
</g>
</g>
<!-- Node0&#45;&gt;Node21 -->
<g id="edge44" class="edge">
<title>Node0&#45;&gt;Node21</title>
<path fill="none" stroke="#191970" d="M1061.5993,-504.3733C1092.9476,-494.5109 1141.6029,-479.2036 1174.3501,-468.9011"/>
<polygon fill="#191970" stroke="#191970" points="1175.4769,-472.2158 1183.9656,-465.876 1173.3761,-465.5384 1175.4769,-472.2158"/>
</g>
<!-- Node22 -->
<g id="node23" class="node">
<title>Node22</title>
<g id="a_node23"><a xlink:title=" ">
<polygon fill="#ffffff" stroke="#bfbfbf" points="1252.5,-448.5 1252.5,-467.5 1305.5,-467.5 1305.5,-448.5 1252.5,-448.5"/>
<text text-anchor="middle" x="1279" y="-455.5" font-family="Helvetica,sans-Serif" font-size="10.00" fill="#000000">string.h</text>
</a>
</g>
</g>
<!-- Node0&#45;&gt;Node22 -->
<g id="edge46" class="edge">
<title>Node0&#45;&gt;Node22</title>
<path fill="none" stroke="#191970" d="M1078.7519,-504.4534C1119.6497,-496.0937 1180.3287,-483.2576 1242.3464,-468.0571"/>
<polygon fill="#191970" stroke="#191970" points="1243.439,-471.3926 1252.3085,-465.5976 1241.7611,-464.5966 1243.439,-471.3926"/>
</g>
<!-- Node1&#45;&gt;Node2 -->
<g id="edge2" class="edge">
<title>Node1&#45;&gt;Node2</title>
<path fill="none" stroke="#191970" d="M544.1991,-398.8144C453.9104,-385.0219 114,-326.9262 114,-234 114,-234 114,-234 114,-122 114,-89.7116 114,-52.1872 114,-29.8048"/>
<polygon fill="#191970" stroke="#191970" points="117.5001,-29.5883 114,-19.5884 110.5001,-29.5884 117.5001,-29.5883"/>
</g>
<!-- Node3 -->
<g id="node4" class="node">
<title>Node3</title>
<g id="a_node4"><a xlink:href="token_8h.html" target="_top" xlink:title=" ">
<polygon fill="#ffffff" stroke="#000000" points="539.5,-336.5 539.5,-355.5 592.5,-355.5 592.5,-336.5 539.5,-336.5"/>
<text text-anchor="middle" x="566" y="-343.5" font-family="Helvetica,sans-Serif" font-size="10.00" fill="#000000">token.h</text>
</a>
</g>
</g>
<!-- Node1&#45;&gt;Node3 -->
<g id="edge3" class="edge">
<title>Node1&#45;&gt;Node3</title>
<path fill="none" stroke="#191970" d="M566,-392.2455C566,-384.9382 566,-374.6944 566,-365.7046"/>
<polygon fill="#191970" stroke="#191970" points="569.5001,-365.6426 566,-355.6427 562.5001,-365.6427 569.5001,-365.6426"/>
</g>
<!-- Node3&#45;&gt;Node2 -->
<g id="edge33" class="edge">
<title>Node3&#45;&gt;Node2</title>
<path fill="none" stroke="#191970" d="M539.4727,-344.5803C448.0985,-338.9771 152,-314.6016 152,-234 152,-234 152,-234 152,-122 152,-87.6118 135.7366,-50.2832 124.489,-28.5791"/>
<polygon fill="#191970" stroke="#191970" points="127.431,-26.6605 119.607,-19.5166 121.2683,-29.9804 127.431,-26.6605"/>
</g>
<!-- Node4 -->
<g id="node5" class="node">
<title>Node4</title>
<g id="a_node5"><a xlink:href="builtins_8h.html" target="_top" xlink:title=" ">
<polygon fill="#ffffff" stroke="#000000" points="535,-280.5 535,-299.5 597,-299.5 597,-280.5 535,-280.5"/>
<text text-anchor="middle" x="566" y="-287.5" font-family="Helvetica,sans-Serif" font-size="10.00" fill="#000000">builtins.h</text>
</a>
</g>
</g>
<!-- Node3&#45;&gt;Node4 -->
<g id="edge4" class="edge">
<title>Node3&#45;&gt;Node4</title>
<path fill="none" stroke="#191970" d="M566,-336.2455C566,-328.9382 566,-318.6944 566,-309.7046"/>
<polygon fill="#191970" stroke="#191970" points="569.5001,-309.6426 566,-299.6427 562.5001,-309.6427 569.5001,-309.6426"/>
</g>
<!-- Node3&#45;&gt;Node10 -->
<g id="edge32" class="edge">
<title>Node3&#45;&gt;Node10</title>
<path fill="none" stroke="#191970" d="M592.5443,-345.2756C684.9615,-342.4895 988.6014,-331.0255 1018,-300 1089.9384,-224.0805 1041.2011,-80.4695 1020.2455,-28.9726"/>
<polygon fill="#191970" stroke="#191970" points="1023.4503,-27.5643 1016.3585,-19.6931 1016.9938,-30.2688 1023.4503,-27.5643"/>
</g>
<!-- Node5 -->
<g id="node6" class="node">
<title>Node5</title>
<g id="a_node6"><a xlink:href="builtinutils_8h.html" target="_top" xlink:title=" ">
<polygon fill="#ffffff" stroke="#000000" points="338.5,-.5 338.5,-19.5 415.5,-19.5 415.5,-.5 338.5,-.5"/>
<text text-anchor="middle" x="377" y="-7.5" font-family="Helvetica,sans-Serif" font-size="10.00" fill="#000000">builtinutils.h</text>
</a>
</g>
</g>
<!-- Node4&#45;&gt;Node5 -->
<g id="edge5" class="edge">
<title>Node4&#45;&gt;Node5</title>
<path fill="none" stroke="#191970" d="M534.7195,-288.2937C451.6557,-283.4452 230.4079,-268.3433 209,-244 141.3037,-167.0213 289.7219,-63.2955 351.5724,-25.0069"/>
<polygon fill="#191970" stroke="#191970" points="353.6571,-27.8351 360.3723,-19.6401 350.0124,-21.8588 353.6571,-27.8351"/>
</g>
<!-- Node6 -->
<g id="node7" class="node">
<title>Node6</title>
<g id="a_node7"><a xlink:href="helios__boolean_8h.html" target="_top" xlink:title=" ">
<polygon fill="#ffffff" stroke="#000000" points="676.5,-224.5 676.5,-243.5 775.5,-243.5 775.5,-224.5 676.5,-224.5"/>
<text text-anchor="middle" x="726" y="-231.5" font-family="Helvetica,sans-Serif" font-size="10.00" fill="#000000">helios_boolean.h</text>
</a>
</g>
</g>
<!-- Node4&#45;&gt;Node6 -->
<g id="edge6" class="edge">
<title>Node4&#45;&gt;Node6</title>
<path fill="none" stroke="#191970" d="M593.505,-280.3733C619.8802,-271.1419 659.8851,-257.1402 689.0358,-246.9375"/>
<polygon fill="#191970" stroke="#191970" points="690.5716,-250.1082 698.8539,-243.5011 688.2591,-243.5012 690.5716,-250.1082"/>
</g>
<!-- Node7 -->
<g id="node8" class="node">
<title>Node7</title>
<g id="a_node8"><a xlink:href="helios__object_8h.html" target="_top" xlink:title=" ">
<polygon fill="#ffffff" stroke="#000000" points="518,-168.5 518,-187.5 608,-187.5 608,-168.5 518,-168.5"/>
<text text-anchor="middle" x="563" y="-175.5" font-family="Helvetica,sans-Serif" font-size="10.00" fill="#000000">helios_object.h</text>
</a>
</g>
</g>
<!-- Node4&#45;&gt;Node7 -->
<g id="edge26" class="edge">
<title>Node4&#45;&gt;Node7</title>
<path fill="none" stroke="#191970" d="M534.9964,-285.0381C511.3527,-279.4512 480.3251,-267.8194 465,-244 449.0576,-219.2211 481.8589,-201.4702 513.7232,-190.6616"/>
<polygon fill="#191970" stroke="#191970" points="515.0662,-193.9069 523.527,-187.53 512.9362,-187.2389 515.0662,-193.9069"/>
</g>
<!-- Node9 -->
<g id="node10" class="node">
<title>Node9</title>
<g id="a_node10"><a xlink:href="helios__memory_8h.html" target="_top" xlink:title=" ">
<polygon fill="#ffffff" stroke="#000000" points="569,-56.5 569,-75.5 669,-75.5 669,-56.5 569,-56.5"/>
<text text-anchor="middle" x="619" y="-63.5" font-family="Helvetica,sans-Serif" font-size="10.00" fill="#000000">helios_memory.h</text>
</a>
</g>
</g>
<!-- Node4&#45;&gt;Node9 -->
<g id="edge29" class="edge">
<title>Node4&#45;&gt;Node9</title>
<path fill="none" stroke="#191970" d="M597.1641,-288.5674C684.0037,-284.2588 923.8788,-270.0806 947,-244 1031.0668,-149.1729 795.1941,-95.3397 679.2053,-75.215"/>
<polygon fill="#191970" stroke="#191970" points="679.4886,-71.7129 669.043,-73.4847 678.3137,-78.6136 679.4886,-71.7129"/>
</g>
<!-- Node13 -->
<g id="node14" class="node">
<title>Node13</title>
<g id="a_node14"><a xlink:href="helios__code_8h.html" target="_top" xlink:title=" ">
<polygon fill="#ffffff" stroke="#000000" points="474.5,-224.5 474.5,-243.5 557.5,-243.5 557.5,-224.5 474.5,-224.5"/>
<text text-anchor="middle" x="516" y="-231.5" font-family="Helvetica,sans-Serif" font-size="10.00" fill="#000000">helios_code.h</text>
</a>
</g>
</g>
<!-- Node4&#45;&gt;Node13 -->
<g id="edge17" class="edge">
<title>Node4&#45;&gt;Node13</title>
<path fill="none" stroke="#191970" d="M557.2907,-280.2455C550.1927,-272.2958 539.9916,-260.8706 531.505,-251.3656"/>
<polygon fill="#191970" stroke="#191970" points="533.8805,-248.771 524.6095,-243.6427 528.6589,-253.4331 533.8805,-248.771"/>
</g>
<!-- Node14 -->
<g id="node15" class="node">
<title>Node14</title>
<g id="a_node15"><a xlink:href="helios__float_8h.html" target="_top" xlink:title=" ">
<polygon fill="#ffffff" stroke="#000000" points="576,-224.5 576,-243.5 658,-243.5 658,-224.5 576,-224.5"/>
<text text-anchor="middle" x="617" y="-231.5" font-family="Helvetica,sans-Serif" font-size="10.00" fill="#000000">helios_float.h</text>
</a>
</g>
</g>
<!-- Node4&#45;&gt;Node14 -->
<g id="edge19" class="edge">
<title>Node4&#45;&gt;Node14</title>
<path fill="none" stroke="#191970" d="M574.8835,-280.2455C582.1966,-272.2155 592.7391,-260.6394 601.4467,-251.0781"/>
<polygon fill="#191970" stroke="#191970" points="604.0727,-253.3928 608.2183,-243.6427 598.8972,-248.6795 604.0727,-253.3928"/>
</g>
<!-- Node15 -->
<g id="node16" class="node">
<title>Node15</title>
<g id="a_node16"><a xlink:href="helios__hashmap_8h.html" target="_top" xlink:title=" ">
<polygon fill="#ffffff" stroke="#000000" points="832.5,-224.5 832.5,-243.5 937.5,-243.5 937.5,-224.5 832.5,-224.5"/>
<text text-anchor="middle" x="885" y="-231.5" font-family="Helvetica,sans-Serif" font-size="10.00" fill="#000000">helios_hashmap.h</text>
</a>
</g>
</g>
<!-- Node4&#45;&gt;Node15 -->
<g id="edge21" class="edge">
<title>Node4&#45;&gt;Node15</title>
<path fill="none" stroke="#191970" d="M597.1679,-284.5285C649.1361,-275.4056 754.4617,-256.9158 822.2713,-245.0119"/>
<polygon fill="#191970" stroke="#191970" points="823.1612,-248.4093 832.4053,-243.2329 821.9508,-241.5148 823.1612,-248.4093"/>
</g>
<!-- Node16 -->
<g id="node17" class="node">
<title>Node16</title>
<g id="a_node17"><a xlink:href="helios__integer_8h.html" target="_top" xlink:title=" ">
<polygon fill="#ffffff" stroke="#000000" points="218,-224.5 218,-243.5 312,-243.5 312,-224.5 218,-224.5"/>
<text text-anchor="middle" x="265" y="-231.5" font-family="Helvetica,sans-Serif" font-size="10.00" fill="#000000">helios_integer.h</text>
</a>
</g>
</g>
<!-- Node4&#45;&gt;Node16 -->
<g id="edge24" class="edge">
<title>Node4&#45;&gt;Node16</title>
<path fill="none" stroke="#191970" d="M534.9214,-284.2179C484.8374,-274.9 385.5082,-256.4201 322.3168,-244.6636"/>
<polygon fill="#191970" stroke="#191970" points="322.5855,-241.1536 312.1139,-242.7654 321.305,-248.0355 322.5855,-241.1536"/>
</g>
<!-- Node17 -->
<g id="node18" class="node">
<title>Node17</title>
<g id="a_node18"><a xlink:href="helios__string_8h.html" target="_top" xlink:title=" ">
<polygon fill="#ffffff" stroke="#000000" points="330,-224.5 330,-243.5 418,-243.5 418,-224.5 330,-224.5"/>
<text text-anchor="middle" x="374" y="-231.5" font-family="Helvetica,sans-Serif" font-size="10.00" fill="#000000">helios_string.h</text>
</a>
</g>
</g>
<!-- Node4&#45;&gt;Node17 -->
<g id="edge27" class="edge">
<title>Node4&#45;&gt;Node17</title>
<path fill="none" stroke="#191970" d="M534.7246,-280.878C502.5749,-271.501 452.2973,-256.8367 416.5428,-246.4083"/>
<polygon fill="#191970" stroke="#191970" points="417.4504,-243.0273 406.8704,-243.5872 415.4904,-249.7473 417.4504,-243.0273"/>
</g>
<!-- Node18 -->
<g id="node19" class="node">
<title>Node18</title>
<g id="a_node19"><a xlink:href="serialize_8h.html" target="_top" xlink:title=" ">
<polygon fill="#ffffff" stroke="#000000" points="806.5,-168.5 806.5,-187.5 873.5,-187.5 873.5,-168.5 806.5,-168.5"/>
<text text-anchor="middle" x="840" y="-175.5" font-family="Helvetica,sans-Serif" font-size="10.00" fill="#000000">serialize.h</text>
</a>
</g>
</g>
<!-- Node4&#45;&gt;Node18 -->
<g id="edge30" class="edge">
<title>Node4&#45;&gt;Node18</title>
<path fill="none" stroke="#191970" d="M597.1031,-286.0289C649.7162,-278.8936 753.6228,-262.8745 785,-244 804.2637,-232.4122 819.9087,-211.592 829.5188,-196.427"/>
<polygon fill="#191970" stroke="#191970" points="832.5261,-198.2177 834.701,-187.8485 826.5344,-194.5982 832.5261,-198.2177"/>
</g>
<!-- Node6&#45;&gt;Node7 -->
<g id="edge7" class="edge">
<title>Node6&#45;&gt;Node7</title>
<path fill="none" stroke="#191970" d="M697.9793,-224.3733C670.9922,-215.1016 629.9983,-201.0178 600.2689,-190.804"/>
<polygon fill="#191970" stroke="#191970" points="601.2497,-187.4403 590.6551,-187.5011 598.9752,-194.0605 601.2497,-187.4403"/>
</g>
<!-- Node6&#45;&gt;Node10 -->
<g id="edge16" class="edge">
<title>Node6&#45;&gt;Node10</title>
<path fill="none" stroke="#191970" d="M733.6095,-224.249C756.7137,-195.1852 829.1837,-107.9489 906,-56 926.5143,-42.1267 951.8929,-30.9366 972.674,-23.0681"/>
<polygon fill="#191970" stroke="#191970" points="973.9839,-26.3156 982.1638,-19.5821 971.5702,-19.7449 973.9839,-26.3156"/>
</g>
<!-- Node8 -->
<g id="node9" class="node">
<title>Node8</title>
<g id="a_node9"><a xlink:href="helios__type_8h.html" target="_top" xlink:title=" ">
<polygon fill="#ffffff" stroke="#000000" points="578,-112.5 578,-131.5 660,-131.5 660,-112.5 578,-112.5"/>
<text text-anchor="middle" x="619" y="-119.5" font-family="Helvetica,sans-Serif" font-size="10.00" fill="#000000">helios_type.h</text>
</a>
</g>
</g>
<!-- Node7&#45;&gt;Node8 -->
<g id="edge8" class="edge">
<title>Node7&#45;&gt;Node8</title>
<path fill="none" stroke="#191970" d="M572.7545,-168.2455C580.8648,-160.1352 592.5925,-148.4075 602.2081,-138.7919"/>
<polygon fill="#191970" stroke="#191970" points="604.7611,-141.1887 609.3573,-131.6427 599.8113,-136.2389 604.7611,-141.1887"/>
</g>
<!-- Node8&#45;&gt;Node2 -->
<g id="edge14" class="edge">
<title>Node8&#45;&gt;Node2</title>
<path fill="none" stroke="#191970" d="M577.6737,-112.8346C481.1608,-91.4297 242.1995,-38.4324 150.5698,-18.1105"/>
<polygon fill="#191970" stroke="#191970" points="151.1694,-14.6585 140.6488,-15.9102 149.6537,-21.4925 151.1694,-14.6585"/>
</g>
<!-- Node8&#45;&gt;Node9 -->
<g id="edge9" class="edge">
<title>Node8&#45;&gt;Node9</title>
<path fill="none" stroke="#191970" d="M619,-112.2455C619,-104.9382 619,-94.6944 619,-85.7046"/>
<polygon fill="#191970" stroke="#191970" points="622.5001,-85.6426 619,-75.6427 615.5001,-85.6427 622.5001,-85.6426"/>
</g>
<!-- Node8&#45;&gt;Node12 -->
<g id="edge15" class="edge">
<title>Node8&#45;&gt;Node12</title>
<path fill="none" stroke="#191970" d="M660.1075,-115.1893C726.6029,-104.1723 856.7132,-82.6156 920.2812,-72.0836"/>
<polygon fill="#191970" stroke="#191970" points="920.9631,-75.5184 930.2565,-70.4309 919.8189,-68.6125 920.9631,-75.5184"/>
</g>
<!-- Node9&#45;&gt;Node2 -->
<g id="edge13" class="edge">
<title>Node9&#45;&gt;Node2</title>
<path fill="none" stroke="#191970" d="M568.7324,-60.4258C467.2047,-49.1673 239.7881,-23.9488 150.747,-14.0749"/>
<polygon fill="#191970" stroke="#191970" points="150.9169,-10.5724 140.592,-12.9488 150.1453,-17.5297 150.9169,-10.5724"/>
</g>
<!-- Node9&#45;&gt;Node5 -->
<g id="edge10" class="edge">
<title>Node9&#45;&gt;Node5</title>
<path fill="none" stroke="#191970" d="M577.6737,-56.4369C535.5928,-46.6992 470.3683,-31.6059 425.7791,-21.2877"/>
<polygon fill="#191970" stroke="#191970" points="426.2873,-17.8129 415.7556,-18.9682 424.7091,-24.6327 426.2873,-17.8129"/>
</g>
<!-- Node9&#45;&gt;Node10 -->
<g id="edge11" class="edge">
<title>Node9&#45;&gt;Node10</title>
<path fill="none" stroke="#191970" d="M669.1729,-58.8507C747.6703,-47.6653 898.0413,-26.2384 970.6923,-15.8861"/>
<polygon fill="#191970" stroke="#191970" points="971.4234,-19.3174 980.8296,-14.4416 970.4358,-12.3874 971.4234,-19.3174"/>
</g>
<!-- Node11 -->
<g id="node12" class="node">
<title>Node11</title>
<g id="a_node12"><a xlink:title=" ">
<polygon fill="#ffffff" stroke="#bfbfbf" points="591,-.5 591,-19.5 647,-19.5 647,-.5 591,-.5"/>
<text text-anchor="middle" x="619" y="-7.5" font-family="Helvetica,sans-Serif" font-size="10.00" fill="#000000">stddef.h</text>
</a>
</g>
</g>
<!-- Node9&#45;&gt;Node11 -->
<g id="edge12" class="edge">
<title>Node9&#45;&gt;Node11</title>
<path fill="none" stroke="#191970" d="M619,-56.2455C619,-48.9382 619,-38.6944 619,-29.7046"/>
<polygon fill="#191970" stroke="#191970" points="622.5001,-29.6426 619,-19.6427 615.5001,-29.6427 622.5001,-29.6426"/>
</g>
<!-- Node13&#45;&gt;Node7 -->
<g id="edge18" class="edge">
<title>Node13&#45;&gt;Node7</title>
<path fill="none" stroke="#191970" d="M524.1868,-224.2455C530.8589,-216.2958 540.4479,-204.8706 548.4253,-195.3656"/>
<polygon fill="#191970" stroke="#191970" points="551.1592,-197.5525 554.907,-187.6427 545.7974,-193.0524 551.1592,-197.5525"/>
</g>
<!-- Node14&#45;&gt;Node7 -->
<g id="edge20" class="edge">
<title>Node14&#45;&gt;Node7</title>
<path fill="none" stroke="#191970" d="M607.5939,-224.2455C599.8507,-216.2155 588.688,-204.6394 579.4682,-195.0781"/>
<polygon fill="#191970" stroke="#191970" points="581.7591,-192.4117 572.2983,-187.6427 576.7202,-197.2706 581.7591,-192.4117"/>
</g>
<!-- Node15&#45;&gt;Node7 -->
<g id="edge22" class="edge">
<title>Node15&#45;&gt;Node7</title>
<path fill="none" stroke="#191970" d="M832.1888,-224.8154C773.1572,-214.5491 678.0095,-198.0016 618.0736,-187.578"/>
<polygon fill="#191970" stroke="#191970" points="618.4907,-184.0981 608.0388,-185.8328 617.2912,-190.9946 618.4907,-184.0981"/>
</g>
<!-- Node15&#45;&gt;Node10 -->
<g id="edge23" class="edge">
<title>Node15&#45;&gt;Node10</title>
<path fill="none" stroke="#191970" d="M884.2838,-224.3421C882.6647,-195.5381 881.6094,-108.9526 922,-56 934.212,-39.9899 953.559,-29.0903 971.191,-21.9364"/>
<polygon fill="#191970" stroke="#191970" points="972.6267,-25.1358 980.7539,-18.3387 970.1619,-18.5841 972.6267,-25.1358"/>
</g>
<!-- Node16&#45;&gt;Node7 -->
<g id="edge25" class="edge">
<title>Node16&#45;&gt;Node7</title>
<path fill="none" stroke="#191970" d="M312.219,-225.1266C365.3673,-215.139 451.611,-198.9322 507.8212,-188.3692"/>
<polygon fill="#191970" stroke="#191970" points="508.7711,-191.752 517.9526,-186.4653 507.4782,-184.8724 508.7711,-191.752"/>
</g>
<!-- Node17&#45;&gt;Node7 -->
<g id="edge28" class="edge">
<title>Node17&#45;&gt;Node7</title>
<path fill="none" stroke="#191970" d="M406.4903,-224.3733C438.1902,-214.9807 486.5576,-200.6496 521.1286,-190.4064"/>
<polygon fill="#191970" stroke="#191970" points="522.3401,-193.6979 530.9337,-187.5011 520.3514,-186.9863 522.3401,-193.6979"/>
</g>
<!-- Node18&#45;&gt;Node8 -->
<g id="edge31" class="edge">
<title>Node18&#45;&gt;Node8</title>
<path fill="none" stroke="#191970" d="M806.4349,-169.4948C769.0976,-160.0338 708.4955,-144.6776 666.3471,-133.9974"/>
<polygon fill="#191970" stroke="#191970" points="667.1408,-130.588 656.5874,-131.5244 665.4213,-137.3736 667.1408,-130.588"/>
</g>
<!-- Node19&#45;&gt;Node1 -->
<g id="edge35" class="edge">
<title>Node19&#45;&gt;Node1</title>
<path fill="none" stroke="#191970" d="M566,-448.2455C566,-440.9382 566,-430.6944 566,-421.7046"/>
<polygon fill="#191970" stroke="#191970" points="569.5001,-421.6426 566,-411.6427 562.5001,-421.6427 569.5001,-421.6426"/>
</g>
<!-- Node19&#45;&gt;Node2 -->
<g id="edge40" class="edge">
<title>Node19&#45;&gt;Node2</title>
<path fill="none" stroke="#191970" d="M537.9852,-455.0762C428.8281,-443.3138 38,-397.597 38,-346 38,-346 38,-346 38,-122 38,-82.2361 71.2071,-46.1042 93.7208,-26.177"/>
<polygon fill="#191970" stroke="#191970" points="96.1079,-28.7412 101.4501,-19.5918 91.5683,-23.4128 96.1079,-28.7412"/>
</g>
<!-- Node19&#45;&gt;Node10 -->
<g id="edge39" class="edge">
<title>Node19&#45;&gt;Node10</title>
<path fill="none" stroke="#191970" d="M594.1327,-457.0468C706.6195,-451.6074 1118,-415.4806 1118,-178 1118,-178 1118,-178 1118,-122 1118,-76.9213 1072.1435,-42.6897 1040.7528,-24.5376"/>
<polygon fill="#191970" stroke="#191970" points="1042.3786,-21.437 1031.9378,-19.6372 1038.9774,-27.5552 1042.3786,-21.437"/>
</g>
<!-- Node19&#45;&gt;Node20 -->
<g id="edge36" class="edge">
<title>Node19&#45;&gt;Node20</title>
<path fill="none" stroke="#191970" d="M537.6957,-451.0784C461.6916,-432.4923 252.4449,-381.3228 156.8236,-357.9394"/>
<polygon fill="#191970" stroke="#191970" points="157.6547,-354.5396 147.1095,-355.5639 155.9918,-361.3392 157.6547,-354.5396"/>
</g>
<!-- Node20&#45;&gt;Node2 -->
<g id="edge38" class="edge">
<title>Node20&#45;&gt;Node2</title>
<path fill="none" stroke="#191970" d="M103.2783,-336.3774C94.377,-317.3222 76,-273.2317 76,-234 76,-234 76,-234 76,-122 76,-87.6118 92.2634,-50.2832 103.511,-28.5791"/>
<polygon fill="#191970" stroke="#191970" points="106.7317,-29.9804 108.393,-19.5166 100.569,-26.6605 106.7317,-29.9804"/>
</g>
<!-- Node20&#45;&gt;Node10 -->
<g id="edge37" class="edge">
<title>Node20&#45;&gt;Node10</title>
<path fill="none" stroke="#191970" d="M150.0397,-343.9364C314.2706,-335.4856 906.4443,-301.232 966,-244 1025.9944,-186.3464 1020.1423,-75.0037 1014.8539,-29.7981"/>
<polygon fill="#191970" stroke="#191970" points="1018.3151,-29.2719 1013.562,-19.8031 1011.3729,-30.1693 1018.3151,-29.2719"/>
</g>
</g>
</svg>
        <g id="navigator" transform="translate(0 0)" fill="#404254">
                <rect fill="#f2f5e9" fill-opacity="0.5" stroke="#606060" stroke-width=".5" x="0" y="0" width="60" height="60"/>
                <use id="zoomplus" xlink:href="#zoomPlus" x="17" y="9" onmousedown="handleZoom(evt,'in')"/>
                <use id="zoomminus" xlink:href="#zoomMin" x="42" y="9" onmousedown="handleZoom(evt,'out')"/>
                <use id="reset" xlink:href="#resetDef" x="30" y="36" onmousedown="handleReset()"/>
                <g id="arrowUp" xlink:href="#dirArrow" transform="translate(30 24)" onmousedown="handlePan(0,-1)">
                  <use xlink:href="#rim" fill="#404040">
                        <set attributeName="fill" to="#808080" begin="arrowUp.mouseover" end="arrowUp.mouseout"/>
                  </use>
                  <path fill="none" stroke="white" stroke-width="1.5" d="M0,-3.0v7 M-2.5,-0.5L0,-3.0L2.5,-0.5"/>
                </g>
                <g id="arrowRight" xlink:href="#dirArrow" transform="rotate(90) translate(36 -43)" onmousedown="handlePan(1,0)">
                  <use xlink:href="#rim" fill="#404040">
                        <set attributeName="fill" to="#808080" begin="arrowRight.mouseover" end="arrowRight.mouseout"/>
                  </use>
                  <path fill="none" stroke="white" stroke-width="1.5" d="M0,-3.0v7 M-2.5,-0.5L0,-3.0L2.5,-0.5"/>
                </g>
                <g id="arrowDown" xlink:href="#dirArrow" transform="rotate(180) translate(-30 -48)" onmousedown="handlePan(0,1)">
                  <use xlink:href="#rim" fill="#404040">
                        <set attributeName="fill" to="#808080" begin="arrowDown.mouseover" end="arrowDown.mouseout"/>
                  </use>
                  <path fill="none" stroke="white" stroke-width="1.5" d="M0,-3.0v7 M-2.5,-0.5L0,-3.0L2.5,-0.5"/>
                </g>
                <g id="arrowLeft" xlink:href="#dirArrow" transform="rotate(270) translate(-36 17)" onmousedown="handlePan(-1,0)">
                  <use xlink:href="#rim" fill="#404040">
                        <set attributeName="fill" to="#808080" begin="arrowLeft.mouseover" end="arrowLeft.mouseout"/>
                  </use>
                  <path fill="none" stroke="white" stroke-width="1.5" d="M0,-3.0v7 M-2.5,-0.5L0,-3.0L2.5,-0.5"/>
                </g>
        </g>
        <svg viewBox="0 0 15 15" width="100%" height="30px" preserveAspectRatio="xMaxYMin meet">
         <g id="arrow_out" transform="scale(0.3 0.3)">
          <a xlink:href="parserutil_8c__incl_org.svg" target="_base">
           <rect id="button" ry="5" rx="5" y="6" x="6" height="38" width="38"
                fill="#f2f5e9" fill-opacity="0.5" stroke="#606060" stroke-width="1.0"/>
           <path id="arrow"
             d="M 11.500037,31.436501 C 11.940474,20.09759 22.043105,11.32322 32.158766,21.979434 L 37.068811,17.246167 C 37.068811,17.246167 37.088388,32 37.088388,32 L 22.160133,31.978069 C 22.160133,31.978069 26.997745,27.140456 26.997745,27.140456 C 18.528582,18.264221 13.291696,25.230495 11.500037,31.436501 z"
             style="fill:#404040;"/>
          </a>
         </g>
        </svg>
</svg>
