<?xml version="1.0" encoding="UTF-8" standalone="no"?>
<!DOCTYPE svg PUBLIC "-//W3C//DTD SVG 1.1//EN"
 "http://www.w3.org/Graphics/SVG/1.1/DTD/svg11.dtd">
<!-- Generated by graphviz version 2.40.1 (20161225.0304)
 -->
<!-- Title: parser_expectstring Pages: 1 -->
<!--zoomable 180 -->
<svg id="main" version="1.1" xmlns="http://www.w3.org/2000/svg" xmlns:xlink="http://www.w3.org/1999/xlink" xml:space="preserve" onload="init(evt)">
<style type="text/css"><![CDATA[
.edge:hover path { stroke: red; }
.edge:hover polygon { stroke: red; fill: red; }
]]></style>
<script type="text/javascript"><![CDATA[
var edges = document.getElementsByTagName('g');
if (edges && edges.length) {
  for (var i=0;i<edges.length;i++) {
    if (edges[i].id.substr(0,4)=='edge') {
      edges[i].setAttribute('class','edge');
    }
  }
}
]]></script>
        <defs>
                <circle id="rim" cx="0" cy="0" r="7"/>
                <circle id="rim2" cx="0" cy="0" r="3.5"/>
                <g id="zoomPlus">
                        <use xlink:href="#rim" fill="#404040">
                                <set attributeName="fill" to="#808080" begin="zoomplus.mouseover" end="zoomplus.mouseout"/>
                        </use>
                        <path d="M-4,0h8M0,-4v8" fill="none" stroke="white" stroke-width="1.5" pointer-events="none"/>
                </g>
                <g id="zoomMin">
                        <use xlink:href="#rim" fill="#404040">
                                <set attributeName="fill" to="#808080" begin="zoomminus.mouseover" end="zoomminus.mouseout"/>
                        </use>
                        <path d="M-4,0h8" fill="none" stroke="white" stroke-width="1.5" pointer-events="none"/>
                </g>
                <g id="dirArrow">
                        <path fill="none" stroke="white" stroke-width="1.5" d="M0,-3.0v7 M-2.5,-0.5L0,-3.0L2.5,-0.5"/>
                </g>
               <g id="resetDef">
                       <use xlink:href="#rim2" fill="#404040">
                               <set attributeName="fill" to="#808080" begin="reset.mouseover" end="reset.mouseout"/>
                       </use>
               </g>
        </defs>

<script type="text/javascript">
var viewWidth = 649;
var viewHeight = 180;
var sectionId = 'dynsection-7';
</script>
<script xlink:href="svgpan.js"/>
<svg id="graph" class="graph">
<g id="viewport">
<title>parser_expectstring</title>
<polygon fill="#ffffff" stroke="transparent" points="-4,4 -4,-176 645,-176 645,4 -4,4"/>
<!-- Node23 -->
<g id="node1" class="node">
<title>Node23</title>
<g id="a_node1"><a xlink:title="Crossover between acceptstring and expectchar.">
<polygon fill="#bfbfbf" stroke="#000000" points="0,-76.5 0,-95.5 113,-95.5 113,-76.5 0,-76.5"/>
<text text-anchor="middle" x="56.5" y="-83.5" font-family="Helvetica,sans-Serif" font-size="10.00" fill="#000000">parser_expectstring</text>
</a>
</g>
</g>
<!-- Node24 -->
<g id="node2" class="node">
<title>Node24</title>
<g id="a_node2"><a xlink:href="parserutil_8c.html#aecf4b8bdaae9ca8435542900cf024f4e" target="_top" xlink:title="Copy a parser.">
<polygon fill="#ffffff" stroke="#000000" points="166,-152.5 166,-171.5 242,-171.5 242,-152.5 166,-152.5"/>
<text text-anchor="middle" x="204" y="-159.5" font-family="Helvetica,sans-Serif" font-size="10.00" fill="#000000">parser_copy</text>
</a>
</g>
</g>
<!-- Node23&#45;&gt;Node24 -->
<g id="edge1" class="edge">
<title>Node23&#45;&gt;Node24</title>
<path fill="none" stroke="#191970" d="M70.0651,-95.6838C87.634,-107.9094 119.5089,-129.0282 149,-143 153.3908,-145.0802 158.0729,-147.0493 162.782,-148.8758"/>
<polygon fill="#191970" stroke="#191970" points="161.8077,-152.2466 172.4012,-152.4142 164.2244,-145.677 161.8077,-152.2466"/>
</g>
<!-- Node25 -->
<g id="node3" class="node">
<title>Node25</title>
<g id="a_node3"><a xlink:href="parserutil_8c.html#ad7f3825521eb3e5bd3af734357caa4d6" target="_top" xlink:title="If the parser can accept the given character, accept it, else push an error on the parsers errorstack...">
<polygon fill="#ffffff" stroke="#000000" points="150.5,-114.5 150.5,-133.5 257.5,-133.5 257.5,-114.5 150.5,-114.5"/>
<text text-anchor="middle" x="204" y="-121.5" font-family="Helvetica,sans-Serif" font-size="10.00" fill="#000000">parser_expectchar</text>
</a>
</g>
</g>
<!-- Node23&#45;&gt;Node25 -->
<g id="edge2" class="edge">
<title>Node23&#45;&gt;Node25</title>
<path fill="none" stroke="#191970" d="M93.7205,-95.589C113.0093,-100.5583 136.7584,-106.6767 157.271,-111.9613"/>
<polygon fill="#191970" stroke="#191970" points="156.4902,-115.3744 167.0472,-114.4799 158.2366,-108.5957 156.4902,-115.3744"/>
</g>
<!-- Node29 -->
<g id="node7" class="node">
<title>Node29</title>
<g id="a_node7"><a xlink:href="error_8c.html#ae07365063509d8944da638087336597b" target="_top" xlink:title="Construct a new error object out of parameters, and push it to the errorstack.">
<polygon fill="#ffffff" stroke="#000000" points="300.5,-76.5 300.5,-95.5 395.5,-95.5 395.5,-76.5 300.5,-76.5"/>
<text text-anchor="middle" x="348" y="-83.5" font-family="Helvetica,sans-Serif" font-size="10.00" fill="#000000">errorstack_push</text>
</a>
</g>
</g>
<!-- Node23&#45;&gt;Node29 -->
<g id="edge7" class="edge">
<title>Node23&#45;&gt;Node29</title>
<path fill="none" stroke="#191970" d="M113.0498,-86C164.0102,-86 238.6097,-86 290.0095,-86"/>
<polygon fill="#191970" stroke="#191970" points="290.2873,-89.5001 300.2872,-86 290.2872,-82.5001 290.2873,-89.5001"/>
</g>
<!-- Node30 -->
<g id="node8" class="node">
<title>Node30</title>
<g id="a_node8"><a xlink:href="parserutil_8c.html#a1f1841a636bfe529466c99e3db9999cd" target="_top" xlink:title="Restores a parser to another parser&#39;s position.">
<polygon fill="#ffffff" stroke="#000000" points="160.5,-38.5 160.5,-57.5 247.5,-57.5 247.5,-38.5 160.5,-38.5"/>
<text text-anchor="middle" x="204" y="-45.5" font-family="Helvetica,sans-Serif" font-size="10.00" fill="#000000">parser_restore</text>
</a>
</g>
</g>
<!-- Node23&#45;&gt;Node30 -->
<g id="edge8" class="edge">
<title>Node23&#45;&gt;Node30</title>
<path fill="none" stroke="#191970" d="M93.7205,-76.411C113.0093,-71.4417 136.7584,-65.3233 157.271,-60.0387"/>
<polygon fill="#191970" stroke="#191970" points="158.2366,-63.4043 167.0472,-57.5201 156.4902,-56.6256 158.2366,-63.4043"/>
</g>
<!-- Node31 -->
<g id="node9" class="node">
<title>Node31</title>
<g id="a_node9"><a xlink:href="parserutil_8c.html#ab62454c7986532e03ea36b14956b5ad1" target="_top" xlink:title="Simple parser destructor.">
<polygon fill="#ffffff" stroke="#000000" points="149,-.5 149,-19.5 259,-19.5 259,-.5 149,-.5"/>
<text text-anchor="middle" x="204" y="-7.5" font-family="Helvetica,sans-Serif" font-size="10.00" fill="#000000">parser_free_simple</text>
</a>
</g>
</g>
<!-- Node23&#45;&gt;Node31 -->
<g id="edge9" class="edge">
<title>Node23&#45;&gt;Node31</title>
<path fill="none" stroke="#191970" d="M70.0651,-76.3162C87.634,-64.0906 119.5089,-42.9718 149,-29 153.3908,-26.9198 158.0729,-24.9507 162.782,-23.1242"/>
<polygon fill="#191970" stroke="#191970" points="164.2244,-26.323 172.4012,-19.5858 161.8077,-19.7534 164.2244,-26.323"/>
</g>
<!-- Node26 -->
<g id="node4" class="node">
<title>Node26</title>
<g id="a_node4"><a xlink:href="parserutil_8c.html#a1a00af051004cb18edac760f39982eea" target="_top" xlink:title="Searches for the given character, advances the parser if it found it.">
<polygon fill="#ffffff" stroke="#000000" points="295,-114.5 295,-133.5 401,-133.5 401,-114.5 295,-114.5"/>
<text text-anchor="middle" x="348" y="-121.5" font-family="Helvetica,sans-Serif" font-size="10.00" fill="#000000">parser_acceptchar</text>
</a>
</g>
</g>
<!-- Node25&#45;&gt;Node26 -->
<g id="edge3" class="edge">
<title>Node25&#45;&gt;Node26</title>
<path fill="none" stroke="#191970" d="M257.6203,-124C266.4512,-124 275.6775,-124 284.7178,-124"/>
<polygon fill="#191970" stroke="#191970" points="284.8144,-127.5001 294.8144,-124 284.8144,-120.5001 284.8144,-127.5001"/>
</g>
<!-- Node25&#45;&gt;Node29 -->
<g id="edge6" class="edge">
<title>Node25&#45;&gt;Node29</title>
<path fill="none" stroke="#191970" d="M240.3373,-114.411C259.0829,-109.4642 282.1432,-103.3789 302.1066,-98.1108"/>
<polygon fill="#191970" stroke="#191970" points="303.1481,-101.4558 311.924,-95.5201 301.3619,-94.6875 303.1481,-101.4558"/>
</g>
<!-- Node27 -->
<g id="node5" class="node">
<title>Node27</title>
<g id="a_node5"><a xlink:href="parserutil_8c.html#a2d9e8c20025b7b883c4e87790685a6ad" target="_top" xlink:title="Proxy to parser_next.">
<polygon fill="#ffffff" stroke="#000000" points="437,-114.5 437,-133.5 531,-133.5 531,-114.5 437,-114.5"/>
<text text-anchor="middle" x="484" y="-121.5" font-family="Helvetica,sans-Serif" font-size="10.00" fill="#000000">parser_advance</text>
</a>
</g>
</g>
<!-- Node26&#45;&gt;Node27 -->
<g id="edge4" class="edge">
<title>Node26&#45;&gt;Node27</title>
<path fill="none" stroke="#191970" d="M401.3605,-124C409.7195,-124 418.3884,-124 426.8288,-124"/>
<polygon fill="#191970" stroke="#191970" points="426.9749,-127.5001 436.9748,-124 426.9748,-120.5001 426.9749,-127.5001"/>
</g>
<!-- Node28 -->
<g id="node6" class="node">
<title>Node28</title>
<g id="a_node6"><a xlink:href="parserutil_8c.html#ab25a97ff31329fe9461666bfe2dc6f2c" target="_top" xlink:title="Iterate the parser.">
<polygon fill="#ffffff" stroke="#000000" points="567,-114.5 567,-133.5 641,-133.5 641,-114.5 567,-114.5"/>
<text text-anchor="middle" x="604" y="-121.5" font-family="Helvetica,sans-Serif" font-size="10.00" fill="#000000">parser_next</text>
</a>
</g>
</g>
<!-- Node27&#45;&gt;Node28 -->
<g id="edge5" class="edge">
<title>Node27&#45;&gt;Node28</title>
<path fill="none" stroke="#191970" d="M531.0828,-124C539.4854,-124 548.2428,-124 556.6528,-124"/>
<polygon fill="#191970" stroke="#191970" points="556.6916,-127.5001 566.6916,-124 556.6916,-120.5001 556.6916,-127.5001"/>
</g>
</g>
</svg>
        <g id="navigator" transform="translate(0 0)" fill="#404254">
                <rect fill="#f2f5e9" fill-opacity="0.5" stroke="#606060" stroke-width=".5" x="0" y="0" width="60" height="60"/>
                <use id="zoomplus" xlink:href="#zoomPlus" x="17" y="9" onmousedown="handleZoom(evt,'in')"/>
                <use id="zoomminus" xlink:href="#zoomMin" x="42" y="9" onmousedown="handleZoom(evt,'out')"/>
                <use id="reset" xlink:href="#resetDef" x="30" y="36" onmousedown="handleReset()"/>
                <g id="arrowUp" xlink:href="#dirArrow" transform="translate(30 24)" onmousedown="handlePan(0,-1)">
                  <use xlink:href="#rim" fill="#404040">
                        <set attributeName="fill" to="#808080" begin="arrowUp.mouseover" end="arrowUp.mouseout"/>
                  </use>
                  <path fill="none" stroke="white" stroke-width="1.5" d="M0,-3.0v7 M-2.5,-0.5L0,-3.0L2.5,-0.5"/>
                </g>
                <g id="arrowRight" xlink:href="#dirArrow" transform="rotate(90) translate(36 -43)" onmousedown="handlePan(1,0)">
                  <use xlink:href="#rim" fill="#404040">
                        <set attributeName="fill" to="#808080" begin="arrowRight.mouseover" end="arrowRight.mouseout"/>
                  </use>
                  <path fill="none" stroke="white" stroke-width="1.5" d="M0,-3.0v7 M-2.5,-0.5L0,-3.0L2.5,-0.5"/>
                </g>
                <g id="arrowDown" xlink:href="#dirArrow" transform="rotate(180) translate(-30 -48)" onmousedown="handlePan(0,1)">
                  <use xlink:href="#rim" fill="#404040">
                        <set attributeName="fill" to="#808080" begin="arrowDown.mouseover" end="arrowDown.mouseout"/>
                  </use>
                  <path fill="none" stroke="white" stroke-width="1.5" d="M0,-3.0v7 M-2.5,-0.5L0,-3.0L2.5,-0.5"/>
                </g>
                <g id="arrowLeft" xlink:href="#dirArrow" transform="rotate(270) translate(-36 17)" onmousedown="handlePan(-1,0)">
                  <use xlink:href="#rim" fill="#404040">
                        <set attributeName="fill" to="#808080" begin="arrowLeft.mouseover" end="arrowLeft.mouseout"/>
                  </use>
                  <path fill="none" stroke="white" stroke-width="1.5" d="M0,-3.0v7 M-2.5,-0.5L0,-3.0L2.5,-0.5"/>
                </g>
        </g>
        <svg viewBox="0 0 15 15" width="100%" height="30px" preserveAspectRatio="xMaxYMin meet">
         <g id="arrow_out" transform="scale(0.3 0.3)">
          <a xlink:href="parser_8h_a53064666f3b6f3c4e05e1759feee8a00_cgraph_org.svg" target="_base">
           <rect id="button" ry="5" rx="5" y="6" x="6" height="38" width="38"
                fill="#f2f5e9" fill-opacity="0.5" stroke="#606060" stroke-width="1.0"/>
           <path id="arrow"
             d="M 11.500037,31.436501 C 11.940474,20.09759 22.043105,11.32322 32.158766,21.979434 L 37.068811,17.246167 C 37.068811,17.246167 37.088388,32 37.088388,32 L 22.160133,31.978069 C 22.160133,31.978069 26.997745,27.140456 26.997745,27.140456 C 18.528582,18.264221 13.291696,25.230495 11.500037,31.436501 z"
             style="fill:#404040;"/>
          </a>
         </g>
        </svg>
</svg>
