<?xml version="1.0" encoding="UTF-8" standalone="no"?>
<!DOCTYPE svg PUBLIC "-//W3C//DTD SVG 1.1//EN"
 "http://www.w3.org/Graphics/SVG/1.1/DTD/svg11.dtd">
<!-- Generated by graphviz version 2.40.1 (20161225.0304)
 -->
<!-- Title: main/parser/include/parser_error.h Pages: 1 -->
<svg width="142pt" height="95pt"
 viewBox="0.00 0.00 141.50 95.00" xmlns="http://www.w3.org/2000/svg" xmlns:xlink="http://www.w3.org/1999/xlink">
<g id="graph0" class="graph" transform="scale(1 1) rotate(0) translate(4 91)">
<title>main/parser/include/parser_error.h</title>
<polygon fill="#ffffff" stroke="transparent" points="-4,4 -4,-91 137.5,-91 137.5,4 -4,4"/>
<!-- Node0 -->
<g id="node1" class="node">
<title>Node0</title>
<g id="a_node1"><a xlink:title=" ">
<polygon fill="#bfbfbf" stroke="#000000" points="12.5,-56.5 12.5,-86.5 125.5,-86.5 125.5,-56.5 12.5,-56.5"/>
<text text-anchor="start" x="20.5" y="-74.5" font-family="Helvetica,sans-Serif" font-size="10.00" fill="#000000">main/parser/include</text>
<text text-anchor="middle" x="69" y="-63.5" font-family="Helvetica,sans-Serif" font-size="10.00" fill="#000000">/parser_error.h</text>
</a>
</g>
</g>
<!-- Node1 -->
<g id="node2" class="node">
<title>Node1</title>
<g id="a_node2"><a xlink:title=" ">
<polygon fill="#ffffff" stroke="#bfbfbf" points="0,-.5 0,-19.5 62,-19.5 62,-.5 0,-.5"/>
<text text-anchor="middle" x="31" y="-7.5" font-family="Helvetica,sans-Serif" font-size="10.00" fill="#000000">stdbool.h</text>
</a>
</g>
</g>
<!-- Node0&#45;&gt;Node1 -->
<g id="edge1" class="edge">
<title>Node0&#45;&gt;Node1</title>
<path fill="none" stroke="#191970" d="M59.6067,-56.2977C54.3869,-47.8498 47.8543,-37.2773 42.35,-28.369"/>
<polygon fill="#191970" stroke="#191970" points="45.3182,-26.5143 37.0843,-19.8469 39.3632,-30.1938 45.3182,-26.5143"/>
</g>
<!-- Node2 -->
<g id="node3" class="node">
<title>Node2</title>
<g id="a_node3"><a xlink:title=" ">
<polygon fill="#ffffff" stroke="#bfbfbf" points="80.5,-.5 80.5,-19.5 133.5,-19.5 133.5,-.5 80.5,-.5"/>
<text text-anchor="middle" x="107" y="-7.5" font-family="Helvetica,sans-Serif" font-size="10.00" fill="#000000">stdint.h</text>
</a>
</g>
</g>
<!-- Node0&#45;&gt;Node2 -->
<g id="edge2" class="edge">
<title>Node0&#45;&gt;Node2</title>
<path fill="none" stroke="#191970" d="M78.3933,-56.2977C83.6131,-47.8498 90.1457,-37.2773 95.65,-28.369"/>
<polygon fill="#191970" stroke="#191970" points="98.6368,-30.1938 100.9157,-19.8469 92.6818,-26.5143 98.6368,-30.1938"/>
</g>
</g>
</svg>
