<?xml version="1.0" encoding="UTF-8" standalone="no"?>
<!DOCTYPE svg PUBLIC "-//W3C//DTD SVG 1.1//EN"
 "http://www.w3.org/Graphics/SVG/1.1/DTD/svg11.dtd">
<!-- Generated by graphviz version 2.40.1 (20161225.0304)
 -->
<!-- Title: main/parser/include/parser_error.h Pages: 1 -->
<!--zoomable 173 -->
<svg id="main" version="1.1" xmlns="http://www.w3.org/2000/svg" xmlns:xlink="http://www.w3.org/1999/xlink" xml:space="preserve" onload="init(evt)">
<style type="text/css"><![CDATA[
.edge:hover path { stroke: red; }
.edge:hover polygon { stroke: red; fill: red; }
]]></style>
<script type="text/javascript"><![CDATA[
var edges = document.getElementsByTagName('g');
if (edges && edges.length) {
  for (var i=0;i<edges.length;i++) {
    if (edges[i].id.substr(0,4)=='edge') {
      edges[i].setAttribute('class','edge');
    }
  }
}
]]></script>
        <defs>
                <circle id="rim" cx="0" cy="0" r="7"/>
                <circle id="rim2" cx="0" cy="0" r="3.5"/>
                <g id="zoomPlus">
                        <use xlink:href="#rim" fill="#404040">
                                <set attributeName="fill" to="#808080" begin="zoomplus.mouseover" end="zoomplus.mouseout"/>
                        </use>
                        <path d="M-4,0h8M0,-4v8" fill="none" stroke="white" stroke-width="1.5" pointer-events="none"/>
                </g>
                <g id="zoomMin">
                        <use xlink:href="#rim" fill="#404040">
                                <set attributeName="fill" to="#808080" begin="zoomminus.mouseover" end="zoomminus.mouseout"/>
                        </use>
                        <path d="M-4,0h8" fill="none" stroke="white" stroke-width="1.5" pointer-events="none"/>
                </g>
                <g id="dirArrow">
                        <path fill="none" stroke="white" stroke-width="1.5" d="M0,-3.0v7 M-2.5,-0.5L0,-3.0L2.5,-0.5"/>
                </g>
               <g id="resetDef">
                       <use xlink:href="#rim2" fill="#404040">
                               <set attributeName="fill" to="#808080" begin="reset.mouseover" end="reset.mouseout"/>
                       </use>
               </g>
        </defs>

<script type="text/javascript">
var viewWidth = 1443;
var viewHeight = 173;
var sectionId = 'dynsection-1';
</script>
<script xlink:href="svgpan.js"/>
<svg id="graph" class="graph">
<g id="viewport">
<title>main/parser/include/parser_error.h</title>
<polygon fill="#ffffff" stroke="transparent" points="-4,4 -4,-169 1439,-169 1439,4 -4,4"/>
<!-- Node3 -->
<g id="node1" class="node">
<title>Node3</title>
<g id="a_node1"><a xlink:title=" ">
<polygon fill="#bfbfbf" stroke="#000000" points="709,-134.5 709,-164.5 822,-164.5 822,-134.5 709,-134.5"/>
<text text-anchor="start" x="717" y="-152.5" font-family="Helvetica,sans-Serif" font-size="10.00" fill="#000000">main/parser/include</text>
<text text-anchor="middle" x="765.5" y="-141.5" font-family="Helvetica,sans-Serif" font-size="10.00" fill="#000000">/parser_error.h</text>
</a>
</g>
</g>
<!-- Node4 -->
<g id="node2" class="node">
<title>Node4</title>
<g id="a_node2"><a xlink:href="error_8c.html" target="_top" xlink:title=" ">
<polygon fill="#ffffff" stroke="#000000" points="467,-73 467,-92 576,-92 576,-73 467,-73"/>
<text text-anchor="middle" x="521.5" y="-80" font-family="Helvetica,sans-Serif" font-size="10.00" fill="#000000">main/parser/error.c</text>
</a>
</g>
</g>
<!-- Node3&#45;&gt;Node4 -->
<g id="edge1" class="edge">
<title>Node3&#45;&gt;Node4</title>
<path fill="none" stroke="#191970" d="M701.0621,-131.806C654.61,-119.0507 593.7133,-102.3291 556.1163,-92.0053"/>
<polygon fill="#191970" stroke="#191970" points="700.1718,-135.191 710.7416,-134.4639 702.0254,-128.4409 700.1718,-135.191"/>
</g>
<!-- Node5 -->
<g id="node3" class="node">
<title>Node5</title>
<g id="a_node3"><a xlink:href="parser_8h.html" target="_top" xlink:title=" ">
<polygon fill="#ffffff" stroke="#000000" points="709,-67.5 709,-97.5 822,-97.5 822,-67.5 709,-67.5"/>
<text text-anchor="start" x="717" y="-85.5" font-family="Helvetica,sans-Serif" font-size="10.00" fill="#000000">main/parser/include</text>
<text text-anchor="middle" x="765.5" y="-74.5" font-family="Helvetica,sans-Serif" font-size="10.00" fill="#000000">/parser.h</text>
</a>
</g>
</g>
<!-- Node3&#45;&gt;Node5 -->
<g id="edge2" class="edge">
<title>Node3&#45;&gt;Node5</title>
<path fill="none" stroke="#191970" d="M765.5,-124.0249C765.5,-115.128 765.5,-105.4287 765.5,-97.6432"/>
<polygon fill="#191970" stroke="#191970" points="762.0001,-124.2966 765.5,-134.2967 769.0001,-124.2967 762.0001,-124.2966"/>
</g>
<!-- Node8 -->
<g id="node6" class="node">
<title>Node8</title>
<g id="a_node6"><a xlink:href="compound_8c.html" target="_top" xlink:title=" ">
<polygon fill="#ffffff" stroke="#000000" points="0,-.5 0,-30.5 135,-30.5 135,-.5 0,-.5"/>
<text text-anchor="start" x="8" y="-18.5" font-family="Helvetica,sans-Serif" font-size="10.00" fill="#000000">main/parser/parserfuncs</text>
<text text-anchor="middle" x="67.5" y="-7.5" font-family="Helvetica,sans-Serif" font-size="10.00" fill="#000000">/compound.c</text>
</a>
</g>
</g>
<!-- Node3&#45;&gt;Node8 -->
<g id="edge13" class="edge">
<title>Node3&#45;&gt;Node8</title>
<path fill="none" stroke="#191970" d="M698.8874,-132.4031C672.772,-124.1328 643.2074,-112.7475 618.5,-98 600.9408,-87.5192 603.2515,-75.1581 584.5,-67 494.3375,-27.7735 240.8458,-44.8492 143.5,-31 140.8336,-30.6207 138.12,-30.206 135.3828,-29.7638"/>
<polygon fill="#191970" stroke="#191970" points="698.1232,-135.8297 708.7101,-135.4207 700.1789,-129.1383 698.1232,-135.8297"/>
</g>
<!-- Node9 -->
<g id="node7" class="node">
<title>Node9</title>
<g id="a_node7"><a xlink:href="expressions_8c.html" target="_top" xlink:title=" ">
<polygon fill="#ffffff" stroke="#000000" points="153,-.5 153,-30.5 288,-30.5 288,-.5 153,-.5"/>
<text text-anchor="start" x="161" y="-18.5" font-family="Helvetica,sans-Serif" font-size="10.00" fill="#000000">main/parser/parserfuncs</text>
<text text-anchor="middle" x="220.5" y="-7.5" font-family="Helvetica,sans-Serif" font-size="10.00" fill="#000000">/expressions.c</text>
</a>
</g>
</g>
<!-- Node3&#45;&gt;Node9 -->
<g id="edge14" class="edge">
<title>Node3&#45;&gt;Node9</title>
<path fill="none" stroke="#191970" d="M718.5789,-130.3411C698.834,-121.5206 675.9711,-110.2846 656.5,-98 638.0663,-86.3699 638.5938,-75.4439 618.5,-67 485.7426,-11.2124 438.7482,-53.4109 296.5,-31 293.8396,-30.5809 291.131,-30.1326 288.398,-29.6623"/>
<polygon fill="#191970" stroke="#191970" points="717.4293,-133.6587 727.9929,-134.4711 720.2416,-127.2484 717.4293,-133.6587"/>
</g>
<!-- Node10 -->
<g id="node8" class="node">
<title>Node10</title>
<g id="a_node8"><a xlink:href="floats_8c.html" target="_top" xlink:title=" ">
<polygon fill="#ffffff" stroke="#000000" points="306,-.5 306,-30.5 441,-30.5 441,-.5 306,-.5"/>
<text text-anchor="start" x="314" y="-18.5" font-family="Helvetica,sans-Serif" font-size="10.00" fill="#000000">main/parser/parserfuncs</text>
<text text-anchor="middle" x="373.5" y="-7.5" font-family="Helvetica,sans-Serif" font-size="10.00" fill="#000000">/floats.c</text>
</a>
</g>
</g>
<!-- Node3&#45;&gt;Node10 -->
<g id="edge15" class="edge">
<title>Node3&#45;&gt;Node10</title>
<path fill="none" stroke="#191970" d="M737.9383,-128.1275C707.1828,-104.3562 661.0999,-69.0017 656.5,-67 571.2766,-29.9136 541.843,-48.1721 450.5,-31 447.4177,-30.4205 444.2677,-29.8201 441.087,-29.2071"/>
<polygon fill="#191970" stroke="#191970" points="736.1082,-131.1368 746.1592,-134.4877 740.3916,-125.6003 736.1082,-131.1368"/>
</g>
<!-- Node11 -->
<g id="node9" class="node">
<title>Node11</title>
<g id="a_node9"><a xlink:href="integers_8c.html" target="_top" xlink:title=" ">
<polygon fill="#ffffff" stroke="#000000" points="843,-.5 843,-30.5 978,-30.5 978,-.5 843,-.5"/>
<text text-anchor="start" x="851" y="-18.5" font-family="Helvetica,sans-Serif" font-size="10.00" fill="#000000">main/parser/parserfuncs</text>
<text text-anchor="middle" x="910.5" y="-7.5" font-family="Helvetica,sans-Serif" font-size="10.00" fill="#000000">/integers.c</text>
</a>
</g>
</g>
<!-- Node3&#45;&gt;Node11 -->
<g id="edge16" class="edge">
<title>Node3&#45;&gt;Node11</title>
<path fill="none" stroke="#191970" d="M794.049,-128.1808C805.6416,-119.1933 818.9877,-108.4152 830.5,-98 855.0595,-75.7809 881.4061,-47.6883 896.8956,-30.6819"/>
<polygon fill="#191970" stroke="#191970" points="791.7739,-125.5148 785.969,-134.3779 796.034,-131.0693 791.7739,-125.5148"/>
</g>
<!-- Node12 -->
<g id="node10" class="node">
<title>Node12</title>
<g id="a_node10"><a xlink:href="parser_8c.html" target="_top" xlink:title=" ">
<polygon fill="#ffffff" stroke="#000000" points="996,-.5 996,-30.5 1131,-30.5 1131,-.5 996,-.5"/>
<text text-anchor="start" x="1004" y="-18.5" font-family="Helvetica,sans-Serif" font-size="10.00" fill="#000000">main/parser/parserfuncs</text>
<text text-anchor="middle" x="1063.5" y="-7.5" font-family="Helvetica,sans-Serif" font-size="10.00" fill="#000000">/parser.c</text>
</a>
</g>
</g>
<!-- Node3&#45;&gt;Node12 -->
<g id="edge17" class="edge">
<title>Node3&#45;&gt;Node12</title>
<path fill="none" stroke="#191970" d="M808.2872,-130.2601C868.1428,-103.3452 975.6262,-55.0137 1030.0177,-30.5558"/>
<polygon fill="#191970" stroke="#191970" points="806.7901,-127.0957 799.1051,-134.389 809.6609,-133.4799 806.7901,-127.0957"/>
</g>
<!-- Node13 -->
<g id="node11" class="node">
<title>Node13</title>
<g id="a_node11"><a xlink:href="strings_8c.html" target="_top" xlink:title=" ">
<polygon fill="#ffffff" stroke="#000000" points="1149,-.5 1149,-30.5 1284,-30.5 1284,-.5 1149,-.5"/>
<text text-anchor="start" x="1157" y="-18.5" font-family="Helvetica,sans-Serif" font-size="10.00" fill="#000000">main/parser/parserfuncs</text>
<text text-anchor="middle" x="1216.5" y="-7.5" font-family="Helvetica,sans-Serif" font-size="10.00" fill="#000000">/strings.c</text>
</a>
</g>
</g>
<!-- Node3&#45;&gt;Node13 -->
<g id="edge18" class="edge">
<title>Node3&#45;&gt;Node13</title>
<path fill="none" stroke="#191970" d="M826.1134,-131.4907C915.8022,-104.8426 1082.2394,-55.3912 1165.8271,-30.5558"/>
<polygon fill="#191970" stroke="#191970" points="824.9477,-128.1857 816.3587,-134.389 826.9415,-134.8958 824.9477,-128.1857"/>
</g>
<!-- Node14 -->
<g id="node12" class="node">
<title>Node14</title>
<g id="a_node12"><a xlink:href="parserutil_8c.html" target="_top" xlink:title=" ">
<polygon fill="#ffffff" stroke="#000000" points="1302,-6 1302,-25 1435,-25 1435,-6 1302,-6"/>
<text text-anchor="middle" x="1368.5" y="-13" font-family="Helvetica,sans-Serif" font-size="10.00" fill="#000000">main/parser/parserutil.c</text>
</a>
</g>
</g>
<!-- Node3&#45;&gt;Node14 -->
<g id="edge19" class="edge">
<title>Node3&#45;&gt;Node14</title>
<path fill="none" stroke="#191970" d="M832.2693,-135.3986C880.4483,-125.1683 947.033,-110.9165 1005.5,-98 1122.4045,-72.1735 1260.2001,-40.5241 1327.4354,-25.0031"/>
<polygon fill="#191970" stroke="#191970" points="831.333,-132.0193 822.2773,-137.5187 832.786,-138.8668 831.333,-132.0193"/>
</g>
<!-- Node6 -->
<g id="node4" class="node">
<title>Node6</title>
<g id="a_node4"><a xlink:href="main_8c.html" target="_top" xlink:title=" ">
<polygon fill="#ffffff" stroke="#000000" points="459.5,-6 459.5,-25 565.5,-25 565.5,-6 459.5,-6"/>
<text text-anchor="middle" x="512.5" y="-13" font-family="Helvetica,sans-Serif" font-size="10.00" fill="#000000">main/entry/main.c</text>
</a>
</g>
</g>
<!-- Node5&#45;&gt;Node6 -->
<g id="edge3" class="edge">
<title>Node5&#45;&gt;Node6</title>
<path fill="none" stroke="#191970" d="M698.9874,-64.886C650.784,-52.1207 587.4585,-35.3507 548.3931,-25.0053"/>
<polygon fill="#191970" stroke="#191970" points="698.1591,-68.2872 708.7219,-67.4639 699.9511,-61.5205 698.1591,-68.2872"/>
</g>
<!-- Node7 -->
<g id="node5" class="node">
<title>Node7</title>
<g id="a_node5"><a xlink:href="AST_8c.html" target="_top" xlink:title=" ">
<polygon fill="#ffffff" stroke="#000000" points="583.5,-6 583.5,-25 687.5,-25 687.5,-6 583.5,-6"/>
<text text-anchor="middle" x="635.5" y="-13" font-family="Helvetica,sans-Serif" font-size="10.00" fill="#000000">main/parser/AST.c</text>
</a>
</g>
</g>
<!-- Node5&#45;&gt;Node7 -->
<g id="edge4" class="edge">
<title>Node5&#45;&gt;Node7</title>
<path fill="none" stroke="#191970" d="M727.4123,-62.8702C703.2963,-50.4412 673.178,-34.9187 654.1345,-25.1039"/>
<polygon fill="#191970" stroke="#191970" points="725.8331,-65.9938 736.3255,-67.4639 729.04,-59.7715 725.8331,-65.9938"/>
</g>
<!-- Node5&#45;&gt;Node8 -->
<g id="edge5" class="edge">
<title>Node5&#45;&gt;Node8</title>
<path fill="none" stroke="#191970" d="M698.826,-75.0507C673.6679,-72.3501 644.7814,-69.381 618.5,-67 407.647,-47.8975 353.1916,-60.2116 143.5,-31 140.8325,-30.6284 138.118,-30.2203 135.38,-29.7836"/>
<polygon fill="#191970" stroke="#191970" points="698.6777,-78.555 708.9958,-76.1494 699.4296,-71.5955 698.6777,-78.555"/>
</g>
<!-- Node5&#45;&gt;Node9 -->
<g id="edge6" class="edge">
<title>Node5&#45;&gt;Node9</title>
<path fill="none" stroke="#191970" d="M698.935,-72.5859C684.9328,-70.6263 670.2424,-68.6635 656.5,-67 496.8673,-47.6768 455.4821,-55.0975 296.5,-31 293.8372,-30.5964 291.1266,-30.1612 288.3919,-29.7019"/>
<polygon fill="#191970" stroke="#191970" points="698.5941,-76.0724 708.9858,-74.0079 699.5747,-69.1414 698.5941,-76.0724"/>
</g>
<!-- Node5&#45;&gt;Node10 -->
<g id="edge7" class="edge">
<title>Node5&#45;&gt;Node10</title>
<path fill="none" stroke="#191970" d="M698.965,-67.8316C697.4637,-67.5469 695.9738,-67.2693 694.5,-67 586.6666,-47.2984 558.4903,-49.8225 450.5,-31 447.4103,-30.4615 444.2542,-29.8946 441.0686,-29.3088"/>
<polygon fill="#191970" stroke="#191970" points="698.5022,-71.3074 708.9889,-69.7977 699.8496,-64.4383 698.5022,-71.3074"/>
</g>
<!-- Node5&#45;&gt;Node11 -->
<g id="edge8" class="edge">
<title>Node5&#45;&gt;Node11</title>
<path fill="none" stroke="#191970" d="M807.3236,-63.1746C829.7451,-52.8143 856.966,-40.2364 877.8172,-30.6017"/>
<polygon fill="#191970" stroke="#191970" points="805.6505,-60.0921 798.0408,-67.4639 808.5867,-66.4465 805.6505,-60.0921"/>
</g>
<!-- Node5&#45;&gt;Node12 -->
<g id="edge9" class="edge">
<title>Node5&#45;&gt;Node12</title>
<path fill="none" stroke="#191970" d="M832.1223,-67.5212C881.1231,-56.5042 947.4584,-41.5899 996.5389,-30.555"/>
<polygon fill="#191970" stroke="#191970" points="831.2416,-64.1317 822.253,-69.7401 832.7772,-70.9612 831.2416,-64.1317"/>
</g>
<!-- Node5&#45;&gt;Node13 -->
<g id="edge10" class="edge">
<title>Node5&#45;&gt;Node13</title>
<path fill="none" stroke="#191970" d="M832.2952,-74.5665C907.2603,-65.3691 1032.4153,-49.133 1139.5,-31 1142.5923,-30.4764 1145.7505,-29.9217 1148.9378,-29.3458"/>
<polygon fill="#191970" stroke="#191970" points="831.5593,-71.1303 822.0575,-75.817 832.4082,-78.0786 831.5593,-71.1303"/>
</g>
<!-- Node5&#45;&gt;Node14 -->
<g id="edge11" class="edge">
<title>Node5&#45;&gt;Node14</title>
<path fill="none" stroke="#191970" d="M832.0057,-78.2968C932.3891,-71.4376 1128.4308,-56.0345 1293.5,-31 1304.148,-29.3851 1315.5663,-27.2404 1326.2014,-25.0628"/>
<polygon fill="#191970" stroke="#191970" points="831.7477,-74.8062 822.0068,-78.9733 832.2203,-81.7902 831.7477,-74.8062"/>
</g>
<!-- Node15 -->
<g id="node13" class="node">
<title>Node15</title>
<g id="a_node13"><a xlink:href="parserutil__test_8c.html" target="_top" xlink:title=" ">
<polygon fill="#ffffff" stroke="#000000" points="706,-.5 706,-30.5 825,-30.5 825,-.5 706,-.5"/>
<text text-anchor="start" x="714" y="-18.5" font-family="Helvetica,sans-Serif" font-size="10.00" fill="#000000">test/parser/parserutil</text>
<text text-anchor="middle" x="765.5" y="-7.5" font-family="Helvetica,sans-Serif" font-size="10.00" fill="#000000">_test.c</text>
</a>
</g>
</g>
<!-- Node5&#45;&gt;Node15 -->
<g id="edge12" class="edge">
<title>Node5&#45;&gt;Node15</title>
<path fill="none" stroke="#191970" d="M765.5,-57.0249C765.5,-48.128 765.5,-38.4287 765.5,-30.6432"/>
<polygon fill="#191970" stroke="#191970" points="762.0001,-57.2966 765.5,-67.2967 769.0001,-57.2967 762.0001,-57.2966"/>
</g>
</g>
</svg>
        <g id="navigator" transform="translate(0 0)" fill="#404254">
                <rect fill="#f2f5e9" fill-opacity="0.5" stroke="#606060" stroke-width=".5" x="0" y="0" width="60" height="60"/>
                <use id="zoomplus" xlink:href="#zoomPlus" x="17" y="9" onmousedown="handleZoom(evt,'in')"/>
                <use id="zoomminus" xlink:href="#zoomMin" x="42" y="9" onmousedown="handleZoom(evt,'out')"/>
                <use id="reset" xlink:href="#resetDef" x="30" y="36" onmousedown="handleReset()"/>
                <g id="arrowUp" xlink:href="#dirArrow" transform="translate(30 24)" onmousedown="handlePan(0,-1)">
                  <use xlink:href="#rim" fill="#404040">
                        <set attributeName="fill" to="#808080" begin="arrowUp.mouseover" end="arrowUp.mouseout"/>
                  </use>
                  <path fill="none" stroke="white" stroke-width="1.5" d="M0,-3.0v7 M-2.5,-0.5L0,-3.0L2.5,-0.5"/>
                </g>
                <g id="arrowRight" xlink:href="#dirArrow" transform="rotate(90) translate(36 -43)" onmousedown="handlePan(1,0)">
                  <use xlink:href="#rim" fill="#404040">
                        <set attributeName="fill" to="#808080" begin="arrowRight.mouseover" end="arrowRight.mouseout"/>
                  </use>
                  <path fill="none" stroke="white" stroke-width="1.5" d="M0,-3.0v7 M-2.5,-0.5L0,-3.0L2.5,-0.5"/>
                </g>
                <g id="arrowDown" xlink:href="#dirArrow" transform="rotate(180) translate(-30 -48)" onmousedown="handlePan(0,1)">
                  <use xlink:href="#rim" fill="#404040">
                        <set attributeName="fill" to="#808080" begin="arrowDown.mouseover" end="arrowDown.mouseout"/>
                  </use>
                  <path fill="none" stroke="white" stroke-width="1.5" d="M0,-3.0v7 M-2.5,-0.5L0,-3.0L2.5,-0.5"/>
                </g>
                <g id="arrowLeft" xlink:href="#dirArrow" transform="rotate(270) translate(-36 17)" onmousedown="handlePan(-1,0)">
                  <use xlink:href="#rim" fill="#404040">
                        <set attributeName="fill" to="#808080" begin="arrowLeft.mouseover" end="arrowLeft.mouseout"/>
                  </use>
                  <path fill="none" stroke="white" stroke-width="1.5" d="M0,-3.0v7 M-2.5,-0.5L0,-3.0L2.5,-0.5"/>
                </g>
        </g>
        <svg viewBox="0 0 15 15" width="100%" height="30px" preserveAspectRatio="xMaxYMin meet">
         <g id="arrow_out" transform="scale(0.3 0.3)">
          <a xlink:href="parser__error_8h__dep__incl_org.svg" target="_base">
           <rect id="button" ry="5" rx="5" y="6" x="6" height="38" width="38"
                fill="#f2f5e9" fill-opacity="0.5" stroke="#606060" stroke-width="1.0"/>
           <path id="arrow"
             d="M 11.500037,31.436501 C 11.940474,20.09759 22.043105,11.32322 32.158766,21.979434 L 37.068811,17.246167 C 37.068811,17.246167 37.088388,32 37.088388,32 L 22.160133,31.978069 C 22.160133,31.978069 26.997745,27.140456 26.997745,27.140456 C 18.528582,18.264221 13.291696,25.230495 11.500037,31.436501 z"
             style="fill:#404040;"/>
          </a>
         </g>
        </svg>
</svg>
