<?xml version="1.0" encoding="UTF-8" standalone="no"?>
<!DOCTYPE svg PUBLIC "-//W3C//DTD SVG 1.1//EN"
 "http://www.w3.org/Graphics/SVG/1.1/DTD/svg11.dtd">
<!-- Generated by graphviz version 2.40.1 (20161225.0304)
 -->
<!-- Title: PARSERFUNC Pages: 1 -->
<!--zoomable 294 -->
<svg id="main" version="1.1" xmlns="http://www.w3.org/2000/svg" xmlns:xlink="http://www.w3.org/1999/xlink" xml:space="preserve" onload="init(evt)">
<style type="text/css"><![CDATA[
.edge:hover path { stroke: red; }
.edge:hover polygon { stroke: red; fill: red; }
]]></style>
<script type="text/javascript"><![CDATA[
var edges = document.getElementsByTagName('g');
if (edges && edges.length) {
  for (var i=0;i<edges.length;i++) {
    if (edges[i].id.substr(0,4)=='edge') {
      edges[i].setAttribute('class','edge');
    }
  }
}
]]></script>
        <defs>
                <circle id="rim" cx="0" cy="0" r="7"/>
                <circle id="rim2" cx="0" cy="0" r="3.5"/>
                <g id="zoomPlus">
                        <use xlink:href="#rim" fill="#404040">
                                <set attributeName="fill" to="#808080" begin="zoomplus.mouseover" end="zoomplus.mouseout"/>
                        </use>
                        <path d="M-4,0h8M0,-4v8" fill="none" stroke="white" stroke-width="1.5" pointer-events="none"/>
                </g>
                <g id="zoomMin">
                        <use xlink:href="#rim" fill="#404040">
                                <set attributeName="fill" to="#808080" begin="zoomminus.mouseover" end="zoomminus.mouseout"/>
                        </use>
                        <path d="M-4,0h8" fill="none" stroke="white" stroke-width="1.5" pointer-events="none"/>
                </g>
                <g id="dirArrow">
                        <path fill="none" stroke="white" stroke-width="1.5" d="M0,-3.0v7 M-2.5,-0.5L0,-3.0L2.5,-0.5"/>
                </g>
               <g id="resetDef">
                       <use xlink:href="#rim2" fill="#404040">
                               <set attributeName="fill" to="#808080" begin="reset.mouseover" end="reset.mouseout"/>
                       </use>
               </g>
        </defs>

<script type="text/javascript">
var viewWidth = 602;
var viewHeight = 294;
var sectionId = 'dynsection-2';
</script>
<script xlink:href="svgpan.js"/>
<svg id="graph" class="graph">
<g id="viewport">
<title>PARSERFUNC</title>
<polygon fill="#ffffff" stroke="transparent" points="-4,4 -4,-290 598,-290 598,4 -4,4"/>
<!-- Node21 -->
<g id="node1" class="node">
<title>Node21</title>
<g id="a_node1"><a xlink:title="root parsing function.">
<polygon fill="#bfbfbf" stroke="#000000" points="0,-133.5 0,-152.5 86,-152.5 86,-133.5 0,-133.5"/>
<text text-anchor="middle" x="43" y="-140.5" font-family="Helvetica,sans-Serif" font-size="10.00" fill="#000000">PARSERFUNC</text>
</a>
</g>
</g>
<!-- Node22 -->
<g id="node2" class="node">
<title>Node22</title>
<g id="a_node2"><a xlink:href="error_8c.html#a28e1cff59ef8560afa8ede4b201938c6" target="_top" xlink:title="Find the length of an errorstack.">
<polygon fill="#ffffff" stroke="#000000" points="132.5,-266.5 132.5,-285.5 224.5,-285.5 224.5,-266.5 132.5,-266.5"/>
<text text-anchor="middle" x="178.5" y="-273.5" font-family="Helvetica,sans-Serif" font-size="10.00" fill="#000000">errorstack_length</text>
</a>
</g>
</g>
<!-- Node21&#45;&gt;Node22 -->
<g id="edge1" class="edge">
<title>Node21&#45;&gt;Node22</title>
<path fill="none" stroke="#191970" d="M47.1608,-152.8245C56.9405,-174.7597 83.5047,-228.0624 122,-257 124.4843,-258.8675 127.1632,-260.5582 129.9569,-262.0881"/>
<polygon fill="#191970" stroke="#191970" points="128.6364,-265.3352 139.1728,-266.4457 131.6286,-259.0069 128.6364,-265.3352"/>
</g>
<!-- Node23 -->
<g id="node3" class="node">
<title>Node23</title>
<g id="a_node3"><a xlink:href="AST_8c.html#a3a1c70c232e669f02ef0a4e171ee6ab2" target="_top" xlink:title="Constructore for ast objects.">
<polygon fill="#ffffff" stroke="#000000" points="149,-228.5 149,-247.5 208,-247.5 208,-228.5 149,-228.5"/>
<text text-anchor="middle" x="178.5" y="-235.5" font-family="Helvetica,sans-Serif" font-size="10.00" fill="#000000">AST_new</text>
</a>
</g>
</g>
<!-- Node21&#45;&gt;Node23 -->
<g id="edge2" class="edge">
<title>Node21&#45;&gt;Node23</title>
<path fill="none" stroke="#191970" d="M50.4919,-152.5648C63.4436,-168.4982 91.5709,-200.5431 122,-219 127.4003,-222.2755 133.4369,-225.0692 139.4995,-227.4245"/>
<polygon fill="#191970" stroke="#191970" points="138.3654,-230.7358 148.9602,-230.7712 140.6999,-224.1365 138.3654,-230.7358"/>
</g>
<!-- Node24 -->
<g id="node4" class="node">
<title>Node24</title>
<g id="a_node4"><a xlink:href="token_8h.html#a6df9cba793453cf8281c9843e576fe40" target="_top" xlink:title="Constructor for token objects.">
<polygon fill="#ffffff" stroke="#000000" points="146.5,-190.5 146.5,-209.5 210.5,-209.5 210.5,-190.5 146.5,-190.5"/>
<text text-anchor="middle" x="178.5" y="-197.5" font-family="Helvetica,sans-Serif" font-size="10.00" fill="#000000">token_new</text>
</a>
</g>
</g>
<!-- Node21&#45;&gt;Node24 -->
<g id="edge3" class="edge">
<title>Node21&#45;&gt;Node24</title>
<path fill="none" stroke="#191970" d="M65.6797,-152.5405C87.761,-161.8294 121.5324,-176.0358 146.374,-186.4857"/>
<polygon fill="#191970" stroke="#191970" points="145.1716,-189.7769 155.7464,-190.4284 147.8859,-183.3246 145.1716,-189.7769"/>
</g>
<!-- Node25 -->
<g id="node5" class="node">
<title>Node25</title>
<g id="a_node5"><a xlink:href="parser_8h.html#a8c4c57eca60b2cec9a372a04abea456d" target="_top" xlink:title="Advances the parser as long as it can find whitespace.">
<polygon fill="#ffffff" stroke="#000000" points="279.5,-152.5 279.5,-171.5 359.5,-171.5 359.5,-152.5 279.5,-152.5"/>
<text text-anchor="middle" x="319.5" y="-159.5" font-family="Helvetica,sans-Serif" font-size="10.00" fill="#000000">parser_skipws</text>
</a>
</g>
</g>
<!-- Node21&#45;&gt;Node25 -->
<g id="edge4" class="edge">
<title>Node21&#45;&gt;Node25</title>
<path fill="none" stroke="#191970" d="M86.2031,-145.9688C135.7559,-149.3738 216.8841,-154.9486 269.2275,-158.5455"/>
<polygon fill="#191970" stroke="#191970" points="269.0781,-162.0434 279.2945,-159.2372 269.558,-155.0598 269.0781,-162.0434"/>
</g>
<!-- Node28 -->
<g id="node8" class="node">
<title>Node28</title>
<g id="a_node8"><a xlink:href="parser_8h.html#a499e49a3ad7a6fde77c49792f1a0774a" target="_top" xlink:title="Searches for any of the characters given in the parser.">
<polygon fill="#ffffff" stroke="#000000" points="122,-114.5 122,-133.5 235,-133.5 235,-114.5 122,-114.5"/>
<text text-anchor="middle" x="178.5" y="-121.5" font-family="Helvetica,sans-Serif" font-size="10.00" fill="#000000">parser_acceptanychar</text>
</a>
</g>
</g>
<!-- Node21&#45;&gt;Node28 -->
<g id="edge7" class="edge">
<title>Node21&#45;&gt;Node28</title>
<path fill="none" stroke="#191970" d="M86.2456,-136.936C94.3731,-135.7964 103.0444,-134.5805 111.6952,-133.3675"/>
<polygon fill="#191970" stroke="#191970" points="112.3901,-136.8044 121.8071,-131.9496 111.418,-129.8722 112.3901,-136.8044"/>
</g>
<!-- Node30 -->
<g id="node10" class="node">
<title>Node30</title>
<g id="a_node10"><a xlink:href="parser_8h.html#a831f7abe47a89b780ff95a3b143ad8d9" target="_top" xlink:title="Test if the parser reached the end of the code.">
<polygon fill="#ffffff" stroke="#000000" points="131.5,-76.5 131.5,-95.5 225.5,-95.5 225.5,-76.5 131.5,-76.5"/>
<text text-anchor="middle" x="178.5" y="-83.5" font-family="Helvetica,sans-Serif" font-size="10.00" fill="#000000">parser_exhausted</text>
</a>
</g>
</g>
<!-- Node21&#45;&gt;Node30 -->
<g id="edge10" class="edge">
<title>Node21&#45;&gt;Node30</title>
<path fill="none" stroke="#191970" d="M61.2248,-133.4366C77.0525,-125.3248 100.7127,-113.6601 122,-105 127.1524,-102.9039 132.632,-100.8504 138.0741,-98.914"/>
<polygon fill="#191970" stroke="#191970" points="139.4418,-102.1446 147.7509,-95.5711 137.1561,-95.5282 139.4418,-102.1446"/>
</g>
<!-- Node31 -->
<g id="node11" class="node">
<title>Node31</title>
<g id="a_node11"><a xlink:href="AST_8c.html#a5f9c0bcd1d544aac044f4acf93c27ddb" target="_top" xlink:title="Adds a child ast node to a parent ast node.">
<polygon fill="#ffffff" stroke="#000000" points="138.5,-38.5 138.5,-57.5 218.5,-57.5 218.5,-38.5 138.5,-38.5"/>
<text text-anchor="middle" x="178.5" y="-45.5" font-family="Helvetica,sans-Serif" font-size="10.00" fill="#000000">AST_addChild</text>
</a>
</g>
</g>
<!-- Node21&#45;&gt;Node31 -->
<g id="edge11" class="edge">
<title>Node21&#45;&gt;Node31</title>
<path fill="none" stroke="#191970" d="M50.4919,-133.4352C63.4436,-117.5018 91.5709,-85.4569 122,-67 125.3873,-64.9454 129.0249,-63.0805 132.7622,-61.3944"/>
<polygon fill="#191970" stroke="#191970" points="134.2287,-64.5764 142.172,-57.5654 131.5903,-58.0926 134.2287,-64.5764"/>
</g>
<!-- Node32 -->
<g id="node12" class="node">
<title>Node32</title>
<g id="a_node12"><a xlink:href="AST_8c.html#ab249a336233e682270a06601b5864480" target="_top" xlink:title="Destructor for ast objects.">
<polygon fill="#ffffff" stroke="#000000" points="132.5,-.5 132.5,-19.5 224.5,-19.5 224.5,-.5 132.5,-.5"/>
<text text-anchor="middle" x="178.5" y="-7.5" font-family="Helvetica,sans-Serif" font-size="10.00" fill="#000000">AST_free_simple</text>
</a>
</g>
</g>
<!-- Node21&#45;&gt;Node32 -->
<g id="edge12" class="edge">
<title>Node21&#45;&gt;Node32</title>
<path fill="none" stroke="#191970" d="M47.1608,-133.1755C56.9405,-111.2403 83.5047,-57.9376 122,-29 124.4843,-27.1325 127.1632,-25.4418 129.9569,-23.9119"/>
<polygon fill="#191970" stroke="#191970" points="131.6286,-26.9931 139.1728,-19.5543 128.6364,-20.6648 131.6286,-26.9931"/>
</g>
<!-- Node26 -->
<g id="node6" class="node">
<title>Node26</title>
<g id="a_node6"><a xlink:href="parserutil_8c.html#a2d9e8c20025b7b883c4e87790685a6ad" target="_top" xlink:title="Proxy to parser_next.">
<polygon fill="#ffffff" stroke="#000000" points="404,-133.5 404,-152.5 490,-152.5 490,-133.5 404,-133.5"/>
<text text-anchor="middle" x="447" y="-140.5" font-family="Helvetica,sans-Serif" font-size="10.00" fill="#000000">parser_advance</text>
</a>
</g>
</g>
<!-- Node25&#45;&gt;Node26 -->
<g id="edge5" class="edge">
<title>Node25&#45;&gt;Node26</title>
<path fill="none" stroke="#191970" d="M359.8418,-155.9883C370.5663,-154.3901 382.3173,-152.639 393.6211,-150.9545"/>
<polygon fill="#191970" stroke="#191970" points="394.4594,-154.3683 403.8343,-149.4325 393.4276,-147.4448 394.4594,-154.3683"/>
</g>
<!-- Node27 -->
<g id="node7" class="node">
<title>Node27</title>
<g id="a_node7"><a xlink:href="parserutil_8c.html#ab25a97ff31329fe9461666bfe2dc6f2c" target="_top" xlink:title="Iterate the parser.">
<polygon fill="#ffffff" stroke="#000000" points="526,-133.5 526,-152.5 594,-152.5 594,-133.5 526,-133.5"/>
<text text-anchor="middle" x="560" y="-140.5" font-family="Helvetica,sans-Serif" font-size="10.00" fill="#000000">parser_next</text>
</a>
</g>
</g>
<!-- Node26&#45;&gt;Node27 -->
<g id="edge6" class="edge">
<title>Node26&#45;&gt;Node27</title>
<path fill="none" stroke="#191970" d="M490.0428,-143C498.4677,-143 507.3165,-143 515.7791,-143"/>
<polygon fill="#191970" stroke="#191970" points="515.8556,-146.5001 525.8556,-143 515.8555,-139.5001 515.8556,-146.5001"/>
</g>
<!-- Node29 -->
<g id="node9" class="node">
<title>Node29</title>
<g id="a_node9"><a xlink:href="parserutil_8c.html#a1a00af051004cb18edac760f39982eea" target="_top" xlink:title="Searches for the given character, advances the parser if it found it.">
<polygon fill="#ffffff" stroke="#000000" points="271,-114.5 271,-133.5 368,-133.5 368,-114.5 271,-114.5"/>
<text text-anchor="middle" x="319.5" y="-121.5" font-family="Helvetica,sans-Serif" font-size="10.00" fill="#000000">parser_acceptchar</text>
</a>
</g>
</g>
<!-- Node28&#45;&gt;Node29 -->
<g id="edge8" class="edge">
<title>Node28&#45;&gt;Node29</title>
<path fill="none" stroke="#191970" d="M235.0377,-124C243.4259,-124 252.0888,-124 260.5254,-124"/>
<polygon fill="#191970" stroke="#191970" points="260.6704,-127.5001 270.6703,-124 260.6703,-120.5001 260.6704,-127.5001"/>
</g>
<!-- Node29&#45;&gt;Node26 -->
<g id="edge9" class="edge">
<title>Node29&#45;&gt;Node26</title>
<path fill="none" stroke="#191970" d="M368.066,-131.2373C376.5637,-132.5036 385.4435,-133.8269 394.0526,-135.1098"/>
<polygon fill="#191970" stroke="#191970" points="393.5887,-138.5792 403.9954,-136.5915 394.6205,-131.6557 393.5887,-138.5792"/>
</g>
<!-- Node33 -->
<g id="node13" class="node">
<title>Node33</title>
<g id="a_node13"><a xlink:href="token_8h.html#a863ec10d282f1f7e0dbbbaae6cec4f15" target="_top" xlink:title=" ">
<polygon fill="#ffffff" stroke="#000000" points="288.5,-.5 288.5,-19.5 350.5,-19.5 350.5,-.5 288.5,-.5"/>
<text text-anchor="middle" x="319.5" y="-7.5" font-family="Helvetica,sans-Serif" font-size="10.00" fill="#000000">token_free</text>
</a>
</g>
</g>
<!-- Node32&#45;&gt;Node33 -->
<g id="edge13" class="edge">
<title>Node32&#45;&gt;Node33</title>
<path fill="none" stroke="#191970" d="M224.6687,-10C241.9616,-10 261.4807,-10 278.2955,-10"/>
<polygon fill="#191970" stroke="#191970" points="278.3715,-13.5001 288.3715,-10 278.3714,-6.5001 278.3715,-13.5001"/>
</g>
</g>
</svg>
        <g id="navigator" transform="translate(0 0)" fill="#404254">
                <rect fill="#f2f5e9" fill-opacity="0.5" stroke="#606060" stroke-width=".5" x="0" y="0" width="60" height="60"/>
                <use id="zoomplus" xlink:href="#zoomPlus" x="17" y="9" onmousedown="handleZoom(evt,'in')"/>
                <use id="zoomminus" xlink:href="#zoomMin" x="42" y="9" onmousedown="handleZoom(evt,'out')"/>
                <use id="reset" xlink:href="#resetDef" x="30" y="36" onmousedown="handleReset()"/>
                <g id="arrowUp" xlink:href="#dirArrow" transform="translate(30 24)" onmousedown="handlePan(0,-1)">
                  <use xlink:href="#rim" fill="#404040">
                        <set attributeName="fill" to="#808080" begin="arrowUp.mouseover" end="arrowUp.mouseout"/>
                  </use>
                  <path fill="none" stroke="white" stroke-width="1.5" d="M0,-3.0v7 M-2.5,-0.5L0,-3.0L2.5,-0.5"/>
                </g>
                <g id="arrowRight" xlink:href="#dirArrow" transform="rotate(90) translate(36 -43)" onmousedown="handlePan(1,0)">
                  <use xlink:href="#rim" fill="#404040">
                        <set attributeName="fill" to="#808080" begin="arrowRight.mouseover" end="arrowRight.mouseout"/>
                  </use>
                  <path fill="none" stroke="white" stroke-width="1.5" d="M0,-3.0v7 M-2.5,-0.5L0,-3.0L2.5,-0.5"/>
                </g>
                <g id="arrowDown" xlink:href="#dirArrow" transform="rotate(180) translate(-30 -48)" onmousedown="handlePan(0,1)">
                  <use xlink:href="#rim" fill="#404040">
                        <set attributeName="fill" to="#808080" begin="arrowDown.mouseover" end="arrowDown.mouseout"/>
                  </use>
                  <path fill="none" stroke="white" stroke-width="1.5" d="M0,-3.0v7 M-2.5,-0.5L0,-3.0L2.5,-0.5"/>
                </g>
                <g id="arrowLeft" xlink:href="#dirArrow" transform="rotate(270) translate(-36 17)" onmousedown="handlePan(-1,0)">
                  <use xlink:href="#rim" fill="#404040">
                        <set attributeName="fill" to="#808080" begin="arrowLeft.mouseover" end="arrowLeft.mouseout"/>
                  </use>
                  <path fill="none" stroke="white" stroke-width="1.5" d="M0,-3.0v7 M-2.5,-0.5L0,-3.0L2.5,-0.5"/>
                </g>
        </g>
        <svg viewBox="0 0 15 15" width="100%" height="30px" preserveAspectRatio="xMaxYMin meet">
         <g id="arrow_out" transform="scale(0.3 0.3)">
          <a xlink:href="parser_8c_a6de619be48bd4131181bbf5761ca59e9_cgraph_org.svg" target="_base">
           <rect id="button" ry="5" rx="5" y="6" x="6" height="38" width="38"
                fill="#f2f5e9" fill-opacity="0.5" stroke="#606060" stroke-width="1.0"/>
           <path id="arrow"
             d="M 11.500037,31.436501 C 11.940474,20.09759 22.043105,11.32322 32.158766,21.979434 L 37.068811,17.246167 C 37.068811,17.246167 37.088388,32 37.088388,32 L 22.160133,31.978069 C 22.160133,31.978069 26.997745,27.140456 26.997745,27.140456 C 18.528582,18.264221 13.291696,25.230495 11.500037,31.436501 z"
             style="fill:#404040;"/>
          </a>
         </g>
        </svg>
</svg>
