<?xml version="1.0" encoding="UTF-8" standalone="no"?>
<!DOCTYPE svg PUBLIC "-//W3C//DTD SVG 1.1//EN"
 "http://www.w3.org/Graphics/SVG/1.1/DTD/svg11.dtd">
<!-- Generated by graphviz version 2.40.1 (20161225.0304)
 -->
<!-- Title: PARSERFUNC Pages: 1 -->
<svg width="453pt" height="294pt"
 viewBox="0.00 0.00 453.00 294.00" xmlns="http://www.w3.org/2000/svg" xmlns:xlink="http://www.w3.org/1999/xlink">
<g id="graph0" class="graph" transform="scale(1 1) rotate(0) translate(4 290)">
<title>PARSERFUNC</title>
<polygon fill="#ffffff" stroke="transparent" points="-4,4 -4,-290 449,-290 449,4 -4,4"/>
<!-- Node40 -->
<g id="node1" class="node">
<title>Node40</title>
<g id="a_node1"><a xlink:title="root parsing function.">
<polygon fill="#bfbfbf" stroke="#000000" points="0,-133.5 0,-152.5 86,-152.5 86,-133.5 0,-133.5"/>
<text text-anchor="middle" x="43" y="-140.5" font-family="Helvetica,sans-Serif" font-size="10.00" fill="#000000">PARSERFUNC</text>
</a>
</g>
</g>
<!-- Node41 -->
<g id="node2" class="node">
<title>Node41</title>
<g id="a_node2"><a xlink:href="error_8c.html#ac348843496d6fe5024df7b11724d71c2" target="_top" xlink:title="Find the length of an errorstack.">
<polygon fill="#ffffff" stroke="#000000" points="124.5,-266.5 124.5,-285.5 216.5,-285.5 216.5,-266.5 124.5,-266.5"/>
<text text-anchor="middle" x="170.5" y="-273.5" font-family="Helvetica,sans-Serif" font-size="10.00" fill="#000000">errorstack_length</text>
</a>
</g>
</g>
<!-- Node40&#45;&gt;Node41 -->
<g id="edge1" class="edge">
<title>Node40&#45;&gt;Node41</title>
<path fill="none" stroke="#191970" d="M47.2641,-152.6904C57.2555,-174.3512 84.2247,-227.1285 122,-257 124.261,-258.7879 126.7109,-260.4252 129.2675,-261.9216"/>
<polygon fill="#191970" stroke="#191970" points="127.7507,-265.0767 138.2521,-266.4807 130.9183,-258.8344 127.7507,-265.0767"/>
</g>
<!-- Node42 -->
<g id="node3" class="node">
<title>Node42</title>
<g id="a_node3"><a xlink:href="AST_8c.html#a3a1c70c232e669f02ef0a4e171ee6ab2" target="_top" xlink:title="Constructore for ast objects.">
<polygon fill="#ffffff" stroke="#000000" points="141,-228.5 141,-247.5 200,-247.5 200,-228.5 141,-228.5"/>
<text text-anchor="middle" x="170.5" y="-235.5" font-family="Helvetica,sans-Serif" font-size="10.00" fill="#000000">AST_new</text>
</a>
</g>
</g>
<!-- Node40&#45;&gt;Node42 -->
<g id="edge2" class="edge">
<title>Node40&#45;&gt;Node42</title>
<path fill="none" stroke="#191970" d="M50.8038,-152.6568C63.9953,-168.4383 92.1922,-199.9063 122,-219 124.9841,-220.9115 128.1911,-222.683 131.4827,-224.3126"/>
<polygon fill="#191970" stroke="#191970" points="130.3129,-227.6239 140.8691,-228.5277 133.1805,-221.2382 130.3129,-227.6239"/>
</g>
<!-- Node43 -->
<g id="node4" class="node">
<title>Node43</title>
<g id="a_node4"><a xlink:href="token_8h.html#a5f63b7723640416a125433badc7d6563" target="_top" xlink:title="Constructor for token objects.">
<polygon fill="#ffffff" stroke="#000000" points="138.5,-190.5 138.5,-209.5 202.5,-209.5 202.5,-190.5 138.5,-190.5"/>
<text text-anchor="middle" x="170.5" y="-197.5" font-family="Helvetica,sans-Serif" font-size="10.00" fill="#000000">token_new</text>
</a>
</g>
</g>
<!-- Node40&#45;&gt;Node43 -->
<g id="edge3" class="edge">
<title>Node40&#45;&gt;Node43</title>
<path fill="none" stroke="#191970" d="M61.9707,-152.6194C77.859,-160.5559 101.2102,-171.9429 122,-181 126.4303,-182.9301 131.1243,-184.8823 135.7789,-186.7632"/>
<polygon fill="#191970" stroke="#191970" points="134.5946,-190.0587 145.1805,-190.4942 137.1767,-183.5523 134.5946,-190.0587"/>
</g>
<!-- Node44 -->
<g id="node5" class="node">
<title>Node44</title>
<g id="a_node5"><a xlink:href="parser_8h.html#a8c4c57eca60b2cec9a372a04abea456d" target="_top" xlink:title="Advances the parser as long as it can find whitespace.">
<polygon fill="#ffffff" stroke="#000000" points="130.5,-152.5 130.5,-171.5 210.5,-171.5 210.5,-152.5 130.5,-152.5"/>
<text text-anchor="middle" x="170.5" y="-159.5" font-family="Helvetica,sans-Serif" font-size="10.00" fill="#000000">parser_skipws</text>
</a>
</g>
</g>
<!-- Node40&#45;&gt;Node44 -->
<g id="edge4" class="edge">
<title>Node40&#45;&gt;Node44</title>
<path fill="none" stroke="#191970" d="M86.1657,-149.4325C97.1174,-151.0645 108.977,-152.8319 120.2468,-154.5113"/>
<polygon fill="#191970" stroke="#191970" points="119.9812,-158.0103 130.3879,-156.0225 121.013,-151.0867 119.9812,-158.0103"/>
</g>
<!-- Node47 -->
<g id="node8" class="node">
<title>Node47</title>
<g id="a_node8"><a xlink:href="parser_8h.html#a1a00af051004cb18edac760f39982eea" target="_top" xlink:title="Searches for the given character, advances the parser if it found it.">
<polygon fill="#ffffff" stroke="#000000" points="122,-114.5 122,-133.5 219,-133.5 219,-114.5 122,-114.5"/>
<text text-anchor="middle" x="170.5" y="-121.5" font-family="Helvetica,sans-Serif" font-size="10.00" fill="#000000">parser_acceptchar</text>
</a>
</g>
</g>
<!-- Node40&#45;&gt;Node47 -->
<g id="edge7" class="edge">
<title>Node40&#45;&gt;Node47</title>
<path fill="none" stroke="#191970" d="M86.1657,-136.5675C94.3699,-135.3449 103.0835,-134.0464 111.6771,-132.7658"/>
<polygon fill="#191970" stroke="#191970" points="112.2974,-136.2121 121.6723,-131.2763 111.2656,-129.2885 112.2974,-136.2121"/>
</g>
<!-- Node48 -->
<g id="node9" class="node">
<title>Node48</title>
<g id="a_node9"><a xlink:href="parser_8h.html#a831f7abe47a89b780ff95a3b143ad8d9" target="_top" xlink:title="Test if the parser reached the end of the code.">
<polygon fill="#ffffff" stroke="#000000" points="123.5,-76.5 123.5,-95.5 217.5,-95.5 217.5,-76.5 123.5,-76.5"/>
<text text-anchor="middle" x="170.5" y="-83.5" font-family="Helvetica,sans-Serif" font-size="10.00" fill="#000000">parser_exhausted</text>
</a>
</g>
</g>
<!-- Node40&#45;&gt;Node48 -->
<g id="edge9" class="edge">
<title>Node40&#45;&gt;Node48</title>
<path fill="none" stroke="#191970" d="M61.9707,-133.3806C77.859,-125.4441 101.2102,-114.0571 122,-105 126.4303,-103.0699 131.1243,-101.1177 135.7789,-99.2368"/>
<polygon fill="#191970" stroke="#191970" points="137.1767,-102.4477 145.1805,-95.5058 134.5946,-95.9413 137.1767,-102.4477"/>
</g>
<!-- Node49 -->
<g id="node10" class="node">
<title>Node49</title>
<g id="a_node10"><a xlink:href="AST_8c.html#a5f9c0bcd1d544aac044f4acf93c27ddb" target="_top" xlink:title="Adds a child ast node to a parent ast node.">
<polygon fill="#ffffff" stroke="#000000" points="130.5,-38.5 130.5,-57.5 210.5,-57.5 210.5,-38.5 130.5,-38.5"/>
<text text-anchor="middle" x="170.5" y="-45.5" font-family="Helvetica,sans-Serif" font-size="10.00" fill="#000000">AST_addChild</text>
</a>
</g>
</g>
<!-- Node40&#45;&gt;Node49 -->
<g id="edge10" class="edge">
<title>Node40&#45;&gt;Node49</title>
<path fill="none" stroke="#191970" d="M50.8038,-133.3432C63.9953,-117.5617 92.1922,-86.0937 122,-67 124.9448,-65.1137 128.1067,-63.3637 131.3529,-61.7518"/>
<polygon fill="#191970" stroke="#191970" points="132.9361,-64.8774 140.6142,-57.5768 130.0592,-58.4958 132.9361,-64.8774"/>
</g>
<!-- Node50 -->
<g id="node11" class="node">
<title>Node50</title>
<g id="a_node11"><a xlink:href="AST_8c.html#ab249a336233e682270a06601b5864480" target="_top" xlink:title="Destructor for ast objects.">
<polygon fill="#ffffff" stroke="#000000" points="124.5,-.5 124.5,-19.5 216.5,-19.5 216.5,-.5 124.5,-.5"/>
<text text-anchor="middle" x="170.5" y="-7.5" font-family="Helvetica,sans-Serif" font-size="10.00" fill="#000000">AST_free_simple</text>
</a>
</g>
</g>
<!-- Node40&#45;&gt;Node50 -->
<g id="edge11" class="edge">
<title>Node40&#45;&gt;Node50</title>
<path fill="none" stroke="#191970" d="M47.2641,-133.3096C57.2555,-111.6488 84.2247,-58.8715 122,-29 124.261,-27.2121 126.7109,-25.5748 129.2675,-24.0784"/>
<polygon fill="#191970" stroke="#191970" points="130.9183,-27.1656 138.2521,-19.5193 127.7507,-20.9233 130.9183,-27.1656"/>
</g>
<!-- Node45 -->
<g id="node6" class="node">
<title>Node45</title>
<g id="a_node6"><a xlink:href="parserutil_8c.html#a2d9e8c20025b7b883c4e87790685a6ad" target="_top" xlink:title="Proxy to parser_next.">
<polygon fill="#ffffff" stroke="#000000" points="255,-133.5 255,-152.5 341,-152.5 341,-133.5 255,-133.5"/>
<text text-anchor="middle" x="298" y="-140.5" font-family="Helvetica,sans-Serif" font-size="10.00" fill="#000000">parser_advance</text>
</a>
</g>
</g>
<!-- Node44&#45;&gt;Node45 -->
<g id="edge5" class="edge">
<title>Node44&#45;&gt;Node45</title>
<path fill="none" stroke="#191970" d="M210.8418,-155.9883C221.5663,-154.3901 233.3173,-152.639 244.6211,-150.9545"/>
<polygon fill="#191970" stroke="#191970" points="245.4594,-154.3683 254.8343,-149.4325 244.4276,-147.4448 245.4594,-154.3683"/>
</g>
<!-- Node46 -->
<g id="node7" class="node">
<title>Node46</title>
<g id="a_node7"><a xlink:href="parserutil_8c.html#ab25a97ff31329fe9461666bfe2dc6f2c" target="_top" xlink:title="Iterate the parser.">
<polygon fill="#ffffff" stroke="#000000" points="377,-133.5 377,-152.5 445,-152.5 445,-133.5 377,-133.5"/>
<text text-anchor="middle" x="411" y="-140.5" font-family="Helvetica,sans-Serif" font-size="10.00" fill="#000000">parser_next</text>
</a>
</g>
</g>
<!-- Node45&#45;&gt;Node46 -->
<g id="edge6" class="edge">
<title>Node45&#45;&gt;Node46</title>
<path fill="none" stroke="#191970" d="M341.0428,-143C349.4677,-143 358.3165,-143 366.7791,-143"/>
<polygon fill="#191970" stroke="#191970" points="366.8556,-146.5001 376.8556,-143 366.8555,-139.5001 366.8556,-146.5001"/>
</g>
<!-- Node47&#45;&gt;Node45 -->
<g id="edge8" class="edge">
<title>Node47&#45;&gt;Node45</title>
<path fill="none" stroke="#191970" d="M219.066,-131.2373C227.5637,-132.5036 236.4435,-133.8269 245.0526,-135.1098"/>
<polygon fill="#191970" stroke="#191970" points="244.5887,-138.5792 254.9954,-136.5915 245.6205,-131.6557 244.5887,-138.5792"/>
</g>
<!-- Node51 -->
<g id="node12" class="node">
<title>Node51</title>
<g id="a_node12"><a xlink:href="token_8h.html#a863ec10d282f1f7e0dbbbaae6cec4f15" target="_top" xlink:title="Destroys a token object.Also frees the token&#39;s value.">
<polygon fill="#ffffff" stroke="#000000" points="267,-.5 267,-19.5 329,-19.5 329,-.5 267,-.5"/>
<text text-anchor="middle" x="298" y="-7.5" font-family="Helvetica,sans-Serif" font-size="10.00" fill="#000000">token_free</text>
</a>
</g>
</g>
<!-- Node50&#45;&gt;Node51 -->
<g id="edge12" class="edge">
<title>Node50&#45;&gt;Node51</title>
<path fill="none" stroke="#191970" d="M216.5304,-10C229.5704,-10 243.6848,-10 256.444,-10"/>
<polygon fill="#191970" stroke="#191970" points="256.7896,-13.5001 266.7896,-10 256.7896,-6.5001 256.7896,-13.5001"/>
</g>
</g>
</svg>
