<?xml version="1.0" encoding="UTF-8" standalone="no"?>
<!DOCTYPE svg PUBLIC "-//W3C//DTD SVG 1.1//EN"
 "http://www.w3.org/Graphics/SVG/1.1/DTD/svg11.dtd">
<!-- Generated by graphviz version 2.40.1 (20161225.0304)
 -->
<!-- Title: PARSERFUNC Pages: 1 -->
<svg width="471pt" height="294pt"
 viewBox="0.00 0.00 471.00 294.00" xmlns="http://www.w3.org/2000/svg" xmlns:xlink="http://www.w3.org/1999/xlink">
<g id="graph0" class="graph" transform="scale(1 1) rotate(0) translate(4 290)">
<title>PARSERFUNC</title>
<polygon fill="#ffffff" stroke="transparent" points="-4,4 -4,-290 467,-290 467,4 -4,4"/>
<!-- Node40 -->
<g id="node1" class="node">
<title>Node40</title>
<g id="a_node1"><a xlink:title="root parsing function.">
<polygon fill="#bfbfbf" stroke="#000000" points="0,-133.5 0,-152.5 81,-152.5 81,-133.5 0,-133.5"/>
<text text-anchor="middle" x="40.5" y="-140.5" font-family="Helvetica,sans-Serif" font-size="10.00" fill="#000000">PARSERFUNC</text>
</a>
</g>
</g>
<!-- Node41 -->
<g id="node2" class="node">
<title>Node41</title>
<g id="a_node2"><a xlink:href="error_8c.html#abce5ae15abadd0806e96f190e0294797" target="_top" xlink:title="Find the length of an errorstack.">
<polygon fill="#ffffff" stroke="#000000" points="119,-266.5 119,-285.5 221,-285.5 221,-266.5 119,-266.5"/>
<text text-anchor="middle" x="170" y="-273.5" font-family="Helvetica,sans-Serif" font-size="10.00" fill="#000000">errorstack_length</text>
</a>
</g>
</g>
<!-- Node40&#45;&gt;Node41 -->
<g id="edge1" class="edge">
<title>Node40&#45;&gt;Node41</title>
<path fill="none" stroke="#191970" d="M44.4827,-152.7722C53.8579,-174.6003 79.3995,-227.6979 117,-257 119.313,-258.8025 121.8118,-260.4435 124.4209,-261.9361"/>
<polygon fill="#191970" stroke="#191970" points="123.0904,-265.1821 133.6081,-266.4579 126.1816,-258.9016 123.0904,-265.1821"/>
</g>
<!-- Node42 -->
<g id="node3" class="node">
<title>Node42</title>
<g id="a_node3"><a xlink:href="AST_8c.html#a3a1c70c232e669f02ef0a4e171ee6ab2" target="_top" xlink:title="Constructore for ast objects.">
<polygon fill="#ffffff" stroke="#000000" points="139.5,-228.5 139.5,-247.5 200.5,-247.5 200.5,-228.5 139.5,-228.5"/>
<text text-anchor="middle" x="170" y="-235.5" font-family="Helvetica,sans-Serif" font-size="10.00" fill="#000000">AST_new</text>
</a>
</g>
</g>
<!-- Node40&#45;&gt;Node42 -->
<g id="edge2" class="edge">
<title>Node40&#45;&gt;Node42</title>
<path fill="none" stroke="#191970" d="M47.7251,-152.5139C60.2233,-168.3725 87.3978,-200.3099 117,-219 121.0732,-221.5717 125.5423,-223.8574 130.1038,-225.8719"/>
<polygon fill="#191970" stroke="#191970" points="128.9152,-229.166 139.4998,-229.6307 131.5152,-222.6667 128.9152,-229.166"/>
</g>
<!-- Node43 -->
<g id="node4" class="node">
<title>Node43</title>
<g id="a_node4"><a xlink:href="token_8h.html#a5f63b7723640416a125433badc7d6563" target="_top" xlink:title="Constructor for token objects.">
<polygon fill="#ffffff" stroke="#000000" points="135,-190.5 135,-209.5 205,-209.5 205,-190.5 135,-190.5"/>
<text text-anchor="middle" x="170" y="-197.5" font-family="Helvetica,sans-Serif" font-size="10.00" fill="#000000">token_new</text>
</a>
</g>
</g>
<!-- Node40&#45;&gt;Node43 -->
<g id="edge3" class="edge">
<title>Node40&#45;&gt;Node43</title>
<path fill="none" stroke="#191970" d="M58.1539,-152.5058C73.4844,-160.5816 96.398,-172.2258 117,-181 121.7678,-183.0305 126.8338,-185.0349 131.8702,-186.9369"/>
<polygon fill="#191970" stroke="#191970" points="130.8387,-190.2866 141.4323,-190.4482 133.2517,-183.7156 130.8387,-190.2866"/>
</g>
<!-- Node44 -->
<g id="node5" class="node">
<title>Node44</title>
<g id="a_node5"><a xlink:href="parser_8h.html#a8c4c57eca60b2cec9a372a04abea456d" target="_top" xlink:title="Advances the parser as long as it can find whitespace.">
<polygon fill="#ffffff" stroke="#000000" points="127,-152.5 127,-171.5 213,-171.5 213,-152.5 127,-152.5"/>
<text text-anchor="middle" x="170" y="-159.5" font-family="Helvetica,sans-Serif" font-size="10.00" fill="#000000">parser_skipws</text>
</a>
</g>
</g>
<!-- Node40&#45;&gt;Node44 -->
<g id="edge4" class="edge">
<title>Node40&#45;&gt;Node44</title>
<path fill="none" stroke="#191970" d="M81.1193,-148.9596C92.3639,-150.6094 104.7415,-152.4254 116.5955,-154.1646"/>
<polygon fill="#191970" stroke="#191970" points="116.434,-157.6783 126.8362,-155.6671 117.4502,-150.7524 116.434,-157.6783"/>
</g>
<!-- Node47 -->
<g id="node8" class="node">
<title>Node47</title>
<g id="a_node8"><a xlink:href="parser_8h.html#a1a00af051004cb18edac760f39982eea" target="_top" xlink:title="Searches for the given character, advances the parser if it found it.">
<polygon fill="#ffffff" stroke="#000000" points="117,-114.5 117,-133.5 223,-133.5 223,-114.5 117,-114.5"/>
<text text-anchor="middle" x="170" y="-121.5" font-family="Helvetica,sans-Serif" font-size="10.00" fill="#000000">parser_acceptchar</text>
</a>
</g>
</g>
<!-- Node40&#45;&gt;Node47 -->
<g id="edge7" class="edge">
<title>Node40&#45;&gt;Node47</title>
<path fill="none" stroke="#191970" d="M81.1193,-137.0404C89.223,-135.8514 97.9152,-134.5761 106.5758,-133.3055"/>
<polygon fill="#191970" stroke="#191970" points="107.3048,-136.7361 116.6908,-131.8214 106.2886,-129.8102 107.3048,-136.7361"/>
</g>
<!-- Node48 -->
<g id="node9" class="node">
<title>Node48</title>
<g id="a_node9"><a xlink:href="parser_8h.html#a831f7abe47a89b780ff95a3b143ad8d9" target="_top" xlink:title="Test if the parser reached the end of the code.">
<polygon fill="#ffffff" stroke="#000000" points="118,-76.5 118,-95.5 222,-95.5 222,-76.5 118,-76.5"/>
<text text-anchor="middle" x="170" y="-83.5" font-family="Helvetica,sans-Serif" font-size="10.00" fill="#000000">parser_exhausted</text>
</a>
</g>
</g>
<!-- Node40&#45;&gt;Node48 -->
<g id="edge9" class="edge">
<title>Node40&#45;&gt;Node48</title>
<path fill="none" stroke="#191970" d="M58.1539,-133.4942C73.4844,-125.4184 96.398,-113.7742 117,-105 121.7678,-102.9695 126.8338,-100.9651 131.8702,-99.0631"/>
<polygon fill="#191970" stroke="#191970" points="133.2517,-102.2844 141.4323,-95.5518 130.8387,-95.7134 133.2517,-102.2844"/>
</g>
<!-- Node49 -->
<g id="node10" class="node">
<title>Node49</title>
<g id="a_node10"><a xlink:href="AST_8c.html#a5f9c0bcd1d544aac044f4acf93c27ddb" target="_top" xlink:title="Adds a child ast node to a parent ast node.">
<polygon fill="#ffffff" stroke="#000000" points="128.5,-38.5 128.5,-57.5 211.5,-57.5 211.5,-38.5 128.5,-38.5"/>
<text text-anchor="middle" x="170" y="-45.5" font-family="Helvetica,sans-Serif" font-size="10.00" fill="#000000">AST_addChild</text>
</a>
</g>
</g>
<!-- Node40&#45;&gt;Node49 -->
<g id="edge10" class="edge">
<title>Node40&#45;&gt;Node49</title>
<path fill="none" stroke="#191970" d="M47.7251,-133.4861C60.2233,-117.6275 87.3978,-85.6901 117,-67 120.1615,-65.0039 123.5614,-63.1802 127.0579,-61.5218"/>
<polygon fill="#191970" stroke="#191970" points="128.6204,-64.6604 136.4418,-57.5136 125.8707,-58.2231 128.6204,-64.6604"/>
</g>
<!-- Node50 -->
<g id="node11" class="node">
<title>Node50</title>
<g id="a_node11"><a xlink:href="AST_8c.html#ab249a336233e682270a06601b5864480" target="_top" xlink:title="Destructor for ast objects.">
<polygon fill="#ffffff" stroke="#000000" points="121,-.5 121,-19.5 219,-19.5 219,-.5 121,-.5"/>
<text text-anchor="middle" x="170" y="-7.5" font-family="Helvetica,sans-Serif" font-size="10.00" fill="#000000">AST_free_simple</text>
</a>
</g>
</g>
<!-- Node40&#45;&gt;Node50 -->
<g id="edge11" class="edge">
<title>Node40&#45;&gt;Node50</title>
<path fill="none" stroke="#191970" d="M44.4827,-133.2278C53.8579,-111.3997 79.3995,-58.3021 117,-29 119.313,-27.1975 121.8118,-25.5565 124.4209,-24.0639"/>
<polygon fill="#191970" stroke="#191970" points="126.1816,-27.0984 133.6081,-19.5421 123.0904,-20.8179 126.1816,-27.0984"/>
</g>
<!-- Node45 -->
<g id="node6" class="node">
<title>Node45</title>
<g id="a_node6"><a xlink:href="parserutil_8c.html#a2d9e8c20025b7b883c4e87790685a6ad" target="_top" xlink:title="Proxy to parser_next.">
<polygon fill="#ffffff" stroke="#000000" points="259,-133.5 259,-152.5 353,-152.5 353,-133.5 259,-133.5"/>
<text text-anchor="middle" x="306" y="-140.5" font-family="Helvetica,sans-Serif" font-size="10.00" fill="#000000">parser_advance</text>
</a>
</g>
</g>
<!-- Node44&#45;&gt;Node45 -->
<g id="edge5" class="edge">
<title>Node44&#45;&gt;Node45</title>
<path fill="none" stroke="#191970" d="M213.0313,-155.9883C224.2264,-154.4243 236.47,-152.7138 248.2891,-151.0626"/>
<polygon fill="#191970" stroke="#191970" points="249.1098,-154.482 258.5293,-149.6319 248.1412,-147.5493 249.1098,-154.482"/>
</g>
<!-- Node46 -->
<g id="node7" class="node">
<title>Node46</title>
<g id="a_node7"><a xlink:href="parserutil_8c.html#ab25a97ff31329fe9461666bfe2dc6f2c" target="_top" xlink:title="Iterate the parser.">
<polygon fill="#ffffff" stroke="#000000" points="389,-133.5 389,-152.5 463,-152.5 463,-133.5 389,-133.5"/>
<text text-anchor="middle" x="426" y="-140.5" font-family="Helvetica,sans-Serif" font-size="10.00" fill="#000000">parser_next</text>
</a>
</g>
</g>
<!-- Node45&#45;&gt;Node46 -->
<g id="edge6" class="edge">
<title>Node45&#45;&gt;Node46</title>
<path fill="none" stroke="#191970" d="M353.0828,-143C361.4854,-143 370.2428,-143 378.6528,-143"/>
<polygon fill="#191970" stroke="#191970" points="378.6916,-146.5001 388.6916,-143 378.6916,-139.5001 378.6916,-146.5001"/>
</g>
<!-- Node47&#45;&gt;Node45 -->
<g id="edge8" class="edge">
<title>Node47&#45;&gt;Node45</title>
<path fill="none" stroke="#191970" d="M223.3605,-131.4548C231.7195,-132.6226 240.3884,-133.8337 248.8288,-135.0129"/>
<polygon fill="#191970" stroke="#191970" points="248.5867,-138.5129 258.9748,-136.4303 249.5553,-131.5803 248.5867,-138.5129"/>
</g>
<!-- Node51 -->
<g id="node12" class="node">
<title>Node51</title>
<g id="a_node12"><a xlink:href="token_8h.html#a863ec10d282f1f7e0dbbbaae6cec4f15" target="_top" xlink:title="Destroys a token object.Also frees the token&#39;s value.">
<polygon fill="#ffffff" stroke="#000000" points="271.5,-.5 271.5,-19.5 340.5,-19.5 340.5,-.5 271.5,-.5"/>
<text text-anchor="middle" x="306" y="-7.5" font-family="Helvetica,sans-Serif" font-size="10.00" fill="#000000">token_free</text>
</a>
</g>
</g>
<!-- Node50&#45;&gt;Node51 -->
<g id="edge12" class="edge">
<title>Node50&#45;&gt;Node51</title>
<path fill="none" stroke="#191970" d="M219.0991,-10C232.9228,-10 247.8786,-10 261.4222,-10"/>
<polygon fill="#191970" stroke="#191970" points="261.4617,-13.5001 271.4617,-10 261.4616,-6.5001 261.4617,-13.5001"/>
</g>
</g>
</svg>
