<?xml version="1.0" encoding="UTF-8" standalone="no"?>
<!DOCTYPE svg PUBLIC "-//W3C//DTD SVG 1.1//EN"
 "http://www.w3.org/Graphics/SVG/1.1/DTD/svg11.dtd">
<!-- Generated by graphviz version 2.40.1 (20161225.0304)
 -->
<!-- Title: main/parser/include/parser.h Pages: 1 -->
<!--zoomable 487 -->
<svg id="main" version="1.1" xmlns="http://www.w3.org/2000/svg" xmlns:xlink="http://www.w3.org/1999/xlink" xml:space="preserve" onload="init(evt)">
<style type="text/css"><![CDATA[
.edge:hover path { stroke: red; }
.edge:hover polygon { stroke: red; fill: red; }
]]></style>
<script type="text/javascript"><![CDATA[
var edges = document.getElementsByTagName('g');
if (edges && edges.length) {
  for (var i=0;i<edges.length;i++) {
    if (edges[i].id.substr(0,4)=='edge') {
      edges[i].setAttribute('class','edge');
    }
  }
}
]]></script>
        <defs>
                <circle id="rim" cx="0" cy="0" r="7"/>
                <circle id="rim2" cx="0" cy="0" r="3.5"/>
                <g id="zoomPlus">
                        <use xlink:href="#rim" fill="#404040">
                                <set attributeName="fill" to="#808080" begin="zoomplus.mouseover" end="zoomplus.mouseout"/>
                        </use>
                        <path d="M-4,0h8M0,-4v8" fill="none" stroke="white" stroke-width="1.5" pointer-events="none"/>
                </g>
                <g id="zoomMin">
                        <use xlink:href="#rim" fill="#404040">
                                <set attributeName="fill" to="#808080" begin="zoomminus.mouseover" end="zoomminus.mouseout"/>
                        </use>
                        <path d="M-4,0h8" fill="none" stroke="white" stroke-width="1.5" pointer-events="none"/>
                </g>
                <g id="dirArrow">
                        <path fill="none" stroke="white" stroke-width="1.5" d="M0,-3.0v7 M-2.5,-0.5L0,-3.0L2.5,-0.5"/>
                </g>
               <g id="resetDef">
                       <use xlink:href="#rim2" fill="#404040">
                               <set attributeName="fill" to="#808080" begin="reset.mouseover" end="reset.mouseout"/>
                       </use>
               </g>
        </defs>

<script type="text/javascript">
var viewWidth = 1053;
var viewHeight = 487;
var sectionId = 'dynsection-0';
</script>
<script xlink:href="svgpan.js"/>
<svg id="graph" class="graph">
<g id="viewport">
<title>main/parser/include/parser.h</title>
<polygon fill="#ffffff" stroke="transparent" points="-4,4 -4,-483 1048.5,-483 1048.5,4 -4,4"/>
<!-- Node0 -->
<g id="node1" class="node">
<title>Node0</title>
<g id="a_node1"><a xlink:title=" ">
<polygon fill="#bfbfbf" stroke="#000000" points="925,-448.5 925,-478.5 1038,-478.5 1038,-448.5 925,-448.5"/>
<text text-anchor="start" x="933" y="-466.5" font-family="Helvetica,sans-Serif" font-size="10.00" fill="#000000">main/parser/include</text>
<text text-anchor="middle" x="981.5" y="-455.5" font-family="Helvetica,sans-Serif" font-size="10.00" fill="#000000">/parser.h</text>
</a>
</g>
</g>
<!-- Node1 -->
<g id="node2" class="node">
<title>Node1</title>
<g id="a_node2"><a xlink:href="AST_8h.html" target="_top" xlink:title=" ">
<polygon fill="#ffffff" stroke="#000000" points="935,-392.5 935,-411.5 978,-411.5 978,-392.5 935,-392.5"/>
<text text-anchor="middle" x="956.5" y="-399.5" font-family="Helvetica,sans-Serif" font-size="10.00" fill="#000000">AST.h</text>
</a>
</g>
</g>
<!-- Node0&#45;&gt;Node1 -->
<g id="edge1" class="edge">
<title>Node0&#45;&gt;Node1</title>
<path fill="none" stroke="#191970" d="M975.3202,-448.2977C971.9946,-440.1166 967.8589,-429.943 964.3121,-421.2179"/>
<polygon fill="#191970" stroke="#191970" points="967.511,-419.7927 960.5028,-411.8469 961.0263,-422.4288 967.511,-419.7927"/>
</g>
<!-- Node2 -->
<g id="node3" class="node">
<title>Node2</title>
<g id="a_node3"><a xlink:title=" ">
<polygon fill="#ffffff" stroke="#bfbfbf" points="885,-.5 885,-19.5 938,-19.5 938,-.5 885,-.5"/>
<text text-anchor="middle" x="911.5" y="-7.5" font-family="Helvetica,sans-Serif" font-size="10.00" fill="#000000">stdint.h</text>
</a>
</g>
</g>
<!-- Node0&#45;&gt;Node2 -->
<g id="edge38" class="edge">
<title>Node0&#45;&gt;Node2</title>
<path fill="none" stroke="#191970" d="M996.1118,-448.1827C1014.7227,-426.9983 1044.5,-386.7378 1044.5,-346 1044.5,-346 1044.5,-346 1044.5,-122 1044.5,-71.2129 987.0564,-38.8064 947.6726,-22.5565"/>
<polygon fill="#191970" stroke="#191970" points="948.6814,-19.1918 938.0949,-18.7719 946.1089,-25.702 948.6814,-19.1918"/>
</g>
<!-- Node10 -->
<g id="node11" class="node">
<title>Node10</title>
<g id="a_node11"><a xlink:title=" ">
<polygon fill="#ffffff" stroke="#bfbfbf" points="205.5,-.5 205.5,-19.5 267.5,-19.5 267.5,-.5 205.5,-.5"/>
<text text-anchor="middle" x="236.5" y="-7.5" font-family="Helvetica,sans-Serif" font-size="10.00" fill="#000000">stdbool.h</text>
</a>
</g>
</g>
<!-- Node0&#45;&gt;Node10 -->
<g id="edge37" class="edge">
<title>Node0&#45;&gt;Node10</title>
<path fill="none" stroke="#191970" d="M924.8157,-462.4106C721.5867,-457.765 41.5,-435.5303 41.5,-346 41.5,-346 41.5,-346 41.5,-122 41.5,-87.6999 54.3447,-76.9544 81.5,-56 90.6809,-48.9156 152.5959,-31.8096 195.3381,-20.5722"/>
<polygon fill="#191970" stroke="#191970" points="196.4217,-23.9067 205.2112,-17.9909 194.651,-17.1343 196.4217,-23.9067"/>
</g>
<!-- Node19 -->
<g id="node20" class="node">
<title>Node19</title>
<g id="a_node20"><a xlink:href="parser__error_8h.html" target="_top" xlink:title=" ">
<polygon fill="#ffffff" stroke="#000000" points="780.5,-56.5 780.5,-75.5 864.5,-75.5 864.5,-56.5 780.5,-56.5"/>
<text text-anchor="middle" x="822.5" y="-63.5" font-family="Helvetica,sans-Serif" font-size="10.00" fill="#000000">parser_error.h</text>
</a>
</g>
</g>
<!-- Node0&#45;&gt;Node19 -->
<g id="edge34" class="edge">
<title>Node0&#45;&gt;Node19</title>
<path fill="none" stroke="#191970" d="M986.9246,-448.1365C994.2773,-425.9042 1006.5,-383.3321 1006.5,-346 1006.5,-346 1006.5,-346 1006.5,-290 1006.5,-191.4537 898.8488,-112.6085 848.2297,-80.9815"/>
<polygon fill="#191970" stroke="#191970" points="849.8378,-77.8623 839.4805,-75.6314 846.1859,-83.8343 849.8378,-77.8623"/>
</g>
<!-- Node1&#45;&gt;Node2 -->
<g id="edge2" class="edge">
<title>Node1&#45;&gt;Node2</title>
<path fill="none" stroke="#191970" d="M956.3321,-392.4742C955.6418,-356.0418 952.6638,-222.0524 944.5,-112 942.6482,-87.0373 946.3444,-79.7704 938.5,-56 935.2529,-46.1607 929.6864,-36.1349 924.4483,-27.9652"/>
<polygon fill="#191970" stroke="#191970" points="927.3175,-25.9601 918.8149,-19.639 921.5198,-29.8827 927.3175,-25.9601"/>
</g>
<!-- Node3 -->
<g id="node4" class="node">
<title>Node3</title>
<g id="a_node4"><a xlink:href="token_8h.html" target="_top" xlink:title=" ">
<polygon fill="#ffffff" stroke="#000000" points="721,-336.5 721,-355.5 774,-355.5 774,-336.5 721,-336.5"/>
<text text-anchor="middle" x="747.5" y="-343.5" font-family="Helvetica,sans-Serif" font-size="10.00" fill="#000000">token.h</text>
</a>
</g>
</g>
<!-- Node1&#45;&gt;Node3 -->
<g id="edge3" class="edge">
<title>Node1&#45;&gt;Node3</title>
<path fill="none" stroke="#191970" d="M934.9205,-396.2179C899.2919,-386.6715 827.7724,-367.5084 784.1166,-355.8112"/>
<polygon fill="#191970" stroke="#191970" points="784.7524,-352.3581 774.1873,-353.1507 782.9407,-359.1196 784.7524,-352.3581"/>
</g>
<!-- Node3&#45;&gt;Node2 -->
<g id="edge33" class="edge">
<title>Node3&#45;&gt;Node2</title>
<path fill="none" stroke="#191970" d="M774.1098,-342.2579C824.8644,-333.4607 930.5,-306.4489 930.5,-234 930.5,-234 930.5,-234 930.5,-122 930.5,-89.2688 922.5148,-51.9052 916.8978,-29.6716"/>
<polygon fill="#191970" stroke="#191970" points="920.2289,-28.5763 914.3035,-19.7934 913.4585,-30.3545 920.2289,-28.5763"/>
</g>
<!-- Node4 -->
<g id="node5" class="node">
<title>Node4</title>
<g id="a_node5"><a xlink:href="builtins_8h.html" target="_top" xlink:title=" ">
<polygon fill="#ffffff" stroke="#000000" points="549.5,-280.5 549.5,-299.5 611.5,-299.5 611.5,-280.5 549.5,-280.5"/>
<text text-anchor="middle" x="580.5" y="-287.5" font-family="Helvetica,sans-Serif" font-size="10.00" fill="#000000">builtins.h</text>
</a>
</g>
</g>
<!-- Node3&#45;&gt;Node4 -->
<g id="edge4" class="edge">
<title>Node3&#45;&gt;Node4</title>
<path fill="none" stroke="#191970" d="M720.6686,-337.0026C693.0471,-327.7403 649.7612,-313.2253 618.5983,-302.7755"/>
<polygon fill="#191970" stroke="#191970" points="619.5355,-299.3983 608.9416,-299.5373 617.31,-306.0351 619.5355,-299.3983"/>
</g>
<!-- Node3&#45;&gt;Node10 -->
<g id="edge32" class="edge">
<title>Node3&#45;&gt;Node10</title>
<path fill="none" stroke="#191970" d="M720.9014,-344.4066C596.6614,-336.6176 79.5,-300.2184 79.5,-234 79.5,-234 79.5,-234 79.5,-122 79.5,-91.3494 78.1511,-77.9927 99.5,-56 106.4583,-48.8319 157.7853,-32.7783 195.5808,-21.6697"/>
<polygon fill="#191970" stroke="#191970" points="196.7283,-24.9809 205.3477,-18.82 194.7676,-18.2611 196.7283,-24.9809"/>
</g>
<!-- Node5 -->
<g id="node6" class="node">
<title>Node5</title>
<g id="a_node6"><a xlink:href="builtinutils_8h.html" target="_top" xlink:title=" ">
<polygon fill="#ffffff" stroke="#000000" points="0,-.5 0,-19.5 77,-19.5 77,-.5 0,-.5"/>
<text text-anchor="middle" x="38.5" y="-7.5" font-family="Helvetica,sans-Serif" font-size="10.00" fill="#000000">builtinutils.h</text>
</a>
</g>
</g>
<!-- Node4&#45;&gt;Node5 -->
<g id="edge5" class="edge">
<title>Node4&#45;&gt;Node5</title>
<path fill="none" stroke="#191970" d="M549.4362,-288.3345C457.0934,-283.1492 188.6811,-266.2962 156.5,-244 80.8352,-191.5767 51.0662,-75.8617 41.9086,-29.6374"/>
<polygon fill="#191970" stroke="#191970" points="45.328,-28.8815 40.0496,-19.6952 38.4472,-30.1681 45.328,-28.8815"/>
</g>
<!-- Node6 -->
<g id="node7" class="node">
<title>Node6</title>
<g id="a_node7"><a xlink:href="helios__boolean_8h.html" target="_top" xlink:title=" ">
<polygon fill="#ffffff" stroke="#000000" points="307,-224.5 307,-243.5 406,-243.5 406,-224.5 307,-224.5"/>
<text text-anchor="middle" x="356.5" y="-231.5" font-family="Helvetica,sans-Serif" font-size="10.00" fill="#000000">helios_boolean.h</text>
</a>
</g>
</g>
<!-- Node4&#45;&gt;Node6 -->
<g id="edge6" class="edge">
<title>Node4&#45;&gt;Node6</title>
<path fill="none" stroke="#191970" d="M549.3538,-282.2134C511.8811,-272.8453 448.5522,-257.0131 404.7409,-246.0602"/>
<polygon fill="#191970" stroke="#191970" points="405.43,-242.6248 394.8796,-243.5949 403.7322,-249.4158 405.43,-242.6248"/>
</g>
<!-- Node7 -->
<g id="node8" class="node">
<title>Node7</title>
<g id="a_node8"><a xlink:href="helios__object_8h.html" target="_top" xlink:title=" ">
<polygon fill="#ffffff" stroke="#000000" points="571.5,-168.5 571.5,-187.5 661.5,-187.5 661.5,-168.5 571.5,-168.5"/>
<text text-anchor="middle" x="616.5" y="-175.5" font-family="Helvetica,sans-Serif" font-size="10.00" fill="#000000">helios_object.h</text>
</a>
</g>
</g>
<!-- Node4&#45;&gt;Node7 -->
<g id="edge26" class="edge">
<title>Node4&#45;&gt;Node7</title>
<path fill="none" stroke="#191970" d="M597.8758,-280.4558C610.3589,-272.5215 626.2182,-259.9621 633.5,-244 640.4552,-228.754 634.5119,-210.1772 627.8129,-196.6211"/>
<polygon fill="#191970" stroke="#191970" points="630.838,-194.8579 622.9751,-187.7569 624.6936,-198.2114 630.838,-194.8579"/>
</g>
<!-- Node9 -->
<g id="node10" class="node">
<title>Node9</title>
<g id="a_node10"><a xlink:href="helios__memory_8h.html" target="_top" xlink:title=" ">
<polygon fill="#ffffff" stroke="#000000" points="108.5,-56.5 108.5,-75.5 208.5,-75.5 208.5,-56.5 108.5,-56.5"/>
<text text-anchor="middle" x="158.5" y="-63.5" font-family="Helvetica,sans-Serif" font-size="10.00" fill="#000000">helios_memory.h</text>
</a>
</g>
</g>
<!-- Node4&#45;&gt;Node9 -->
<g id="edge29" class="edge">
<title>Node4&#45;&gt;Node9</title>
<path fill="none" stroke="#191970" d="M549.4615,-288.6896C459.2161,-284.5784 201.6271,-270.5985 175.5,-244 133.7053,-201.4513 145.0685,-122.5118 153.341,-85.768"/>
<polygon fill="#191970" stroke="#191970" points="156.8013,-86.3487 155.7468,-75.8065 149.9969,-84.7053 156.8013,-86.3487"/>
</g>
<!-- Node13 -->
<g id="node14" class="node">
<title>Node13</title>
<g id="a_node14"><a xlink:href="helios__code_8h.html" target="_top" xlink:title=" ">
<polygon fill="#ffffff" stroke="#000000" points="681,-224.5 681,-243.5 764,-243.5 764,-224.5 681,-224.5"/>
<text text-anchor="middle" x="722.5" y="-231.5" font-family="Helvetica,sans-Serif" font-size="10.00" fill="#000000">helios_code.h</text>
</a>
</g>
</g>
<!-- Node4&#45;&gt;Node13 -->
<g id="edge17" class="edge">
<title>Node4&#45;&gt;Node13</title>
<path fill="none" stroke="#191970" d="M604.9107,-280.3733C628.1142,-271.2226 663.2038,-257.3844 689.0142,-247.2057"/>
<polygon fill="#191970" stroke="#191970" points="690.3892,-250.4258 698.4079,-243.5011 687.8211,-243.9139 690.3892,-250.4258"/>
</g>
<!-- Node14 -->
<g id="node15" class="node">
<title>Node14</title>
<g id="a_node15"><a xlink:href="helios__float_8h.html" target="_top" xlink:title=" ">
<polygon fill="#ffffff" stroke="#000000" points="782.5,-224.5 782.5,-243.5 864.5,-243.5 864.5,-224.5 782.5,-224.5"/>
<text text-anchor="middle" x="823.5" y="-231.5" font-family="Helvetica,sans-Serif" font-size="10.00" fill="#000000">helios_float.h</text>
</a>
</g>
</g>
<!-- Node4&#45;&gt;Node14 -->
<g id="edge19" class="edge">
<title>Node4&#45;&gt;Node14</title>
<path fill="none" stroke="#191970" d="M611.7705,-282.7936C652.3394,-273.4444 723.6552,-257.0095 772.2048,-245.8211"/>
<polygon fill="#191970" stroke="#191970" points="773.2413,-249.1741 782.1999,-243.5177 771.6693,-242.3529 773.2413,-249.1741"/>
</g>
<!-- Node15 -->
<g id="node16" class="node">
<title>Node15</title>
<g id="a_node16"><a xlink:href="helios__hashmap_8h.html" target="_top" xlink:title=" ">
<polygon fill="#ffffff" stroke="#000000" points="184,-224.5 184,-243.5 289,-243.5 289,-224.5 184,-224.5"/>
<text text-anchor="middle" x="236.5" y="-231.5" font-family="Helvetica,sans-Serif" font-size="10.00" fill="#000000">helios_hashmap.h</text>
</a>
</g>
</g>
<!-- Node4&#45;&gt;Node15 -->
<g id="edge21" class="edge">
<title>Node4&#45;&gt;Node15</title>
<path fill="none" stroke="#191970" d="M549.3656,-284.9316C493.0533,-275.7645 373.2762,-256.2659 299.3473,-244.231"/>
<polygon fill="#191970" stroke="#191970" points="299.6638,-240.7365 289.2313,-242.5842 298.539,-247.6455 299.6638,-240.7365"/>
</g>
<!-- Node16 -->
<g id="node17" class="node">
<title>Node16</title>
<g id="a_node17"><a xlink:href="helios__integer_8h.html" target="_top" xlink:title=" ">
<polygon fill="#ffffff" stroke="#000000" points="424.5,-224.5 424.5,-243.5 518.5,-243.5 518.5,-224.5 424.5,-224.5"/>
<text text-anchor="middle" x="471.5" y="-231.5" font-family="Helvetica,sans-Serif" font-size="10.00" fill="#000000">helios_integer.h</text>
</a>
</g>
</g>
<!-- Node4&#45;&gt;Node16 -->
<g id="edge24" class="edge">
<title>Node4&#45;&gt;Node16</title>
<path fill="none" stroke="#191970" d="M561.5136,-280.2455C544.3208,-271.4125 518.7762,-258.2887 499.2868,-248.2758"/>
<polygon fill="#191970" stroke="#191970" points="500.763,-245.0993 490.2688,-243.6427 497.5641,-251.3257 500.763,-245.0993"/>
</g>
<!-- Node17 -->
<g id="node18" class="node">
<title>Node17</title>
<g id="a_node18"><a xlink:href="helios__string_8h.html" target="_top" xlink:title=" ">
<polygon fill="#ffffff" stroke="#000000" points="536.5,-224.5 536.5,-243.5 624.5,-243.5 624.5,-224.5 536.5,-224.5"/>
<text text-anchor="middle" x="580.5" y="-231.5" font-family="Helvetica,sans-Serif" font-size="10.00" fill="#000000">helios_string.h</text>
</a>
</g>
</g>
<!-- Node4&#45;&gt;Node17 -->
<g id="edge27" class="edge">
<title>Node4&#45;&gt;Node17</title>
<path fill="none" stroke="#191970" d="M580.5,-280.2455C580.5,-272.9382 580.5,-262.6944 580.5,-253.7046"/>
<polygon fill="#191970" stroke="#191970" points="584.0001,-253.6426 580.5,-243.6427 577.0001,-253.6427 584.0001,-253.6426"/>
</g>
<!-- Node18 -->
<g id="node19" class="node">
<title>Node18</title>
<g id="a_node19"><a xlink:href="serialize_8h.html" target="_top" xlink:title=" ">
<polygon fill="#ffffff" stroke="#000000" points="740,-168.5 740,-187.5 807,-187.5 807,-168.5 740,-168.5"/>
<text text-anchor="middle" x="773.5" y="-175.5" font-family="Helvetica,sans-Serif" font-size="10.00" fill="#000000">serialize.h</text>
</a>
</g>
</g>
<!-- Node4&#45;&gt;Node18 -->
<g id="edge30" class="edge">
<title>Node4&#45;&gt;Node18</title>
<path fill="none" stroke="#191970" d="M611.5876,-287.3847C683.5147,-281.02 856.5781,-263.7859 873.5,-244 894.5709,-219.3629 852.9254,-200.2625 817.1154,-189.0884"/>
<polygon fill="#191970" stroke="#191970" points="817.8096,-185.6434 807.2268,-186.1488 815.8149,-192.3532 817.8096,-185.6434"/>
</g>
<!-- Node6&#45;&gt;Node7 -->
<g id="edge7" class="edge">
<title>Node6&#45;&gt;Node7</title>
<path fill="none" stroke="#191970" d="M400.9002,-224.4369C445.5841,-214.8127 514.557,-199.957 562.4088,-189.6504"/>
<polygon fill="#191970" stroke="#191970" points="563.2441,-193.0508 572.283,-187.5237 561.7702,-186.2078 563.2441,-193.0508"/>
</g>
<!-- Node6&#45;&gt;Node10 -->
<g id="edge16" class="edge">
<title>Node6&#45;&gt;Node10</title>
<path fill="none" stroke="#191970" d="M351.3438,-224.375C333.0346,-190.1979 270.9408,-74.2894 246.5009,-28.6683"/>
<polygon fill="#191970" stroke="#191970" points="249.4445,-26.7512 241.637,-19.5891 243.2741,-30.0567 249.4445,-26.7512"/>
</g>
<!-- Node8 -->
<g id="node9" class="node">
<title>Node8</title>
<g id="a_node9"><a xlink:href="helios__type_8h.html" target="_top" xlink:title=" ">
<polygon fill="#ffffff" stroke="#000000" points="652.5,-112.5 652.5,-131.5 734.5,-131.5 734.5,-112.5 652.5,-112.5"/>
<text text-anchor="middle" x="693.5" y="-119.5" font-family="Helvetica,sans-Serif" font-size="10.00" fill="#000000">helios_type.h</text>
</a>
</g>
</g>
<!-- Node7&#45;&gt;Node8 -->
<g id="edge8" class="edge">
<title>Node7&#45;&gt;Node8</title>
<path fill="none" stroke="#191970" d="M629.9124,-168.2455C641.5057,-159.814 658.4748,-147.4729 671.9678,-137.6598"/>
<polygon fill="#191970" stroke="#191970" points="674.2126,-140.355 680.2413,-131.6427 670.0953,-134.6938 674.2126,-140.355"/>
</g>
<!-- Node8&#45;&gt;Node2 -->
<g id="edge14" class="edge">
<title>Node8&#45;&gt;Node2</title>
<path fill="none" stroke="#191970" d="M734.6247,-115.3101C780.7223,-107.1603 851.8555,-92.4303 873.5,-76 888.9234,-64.2921 899.1365,-44.3796 905.0529,-29.4817"/>
<polygon fill="#191970" stroke="#191970" points="908.4788,-30.3029 908.6147,-19.7089 901.902,-27.9058 908.4788,-30.3029"/>
</g>
<!-- Node8&#45;&gt;Node9 -->
<g id="edge9" class="edge">
<title>Node8&#45;&gt;Node9</title>
<path fill="none" stroke="#191970" d="M652.4078,-117.6988C558.6604,-107.8859 328.6384,-83.8089 218.7933,-72.3111"/>
<polygon fill="#191970" stroke="#191970" points="218.857,-68.7987 208.547,-71.2386 218.1282,-75.7607 218.857,-68.7987"/>
</g>
<!-- Node12 -->
<g id="node13" class="node">
<title>Node12</title>
<g id="a_node13"><a xlink:title=" ">
<polygon fill="#ffffff" stroke="#bfbfbf" points="667,-56.5 667,-75.5 720,-75.5 720,-56.5 667,-56.5"/>
<text text-anchor="middle" x="693.5" y="-63.5" font-family="Helvetica,sans-Serif" font-size="10.00" fill="#000000">stdlib.h</text>
</a>
</g>
</g>
<!-- Node8&#45;&gt;Node12 -->
<g id="edge15" class="edge">
<title>Node8&#45;&gt;Node12</title>
<path fill="none" stroke="#191970" d="M693.5,-112.2455C693.5,-104.9382 693.5,-94.6944 693.5,-85.7046"/>
<polygon fill="#191970" stroke="#191970" points="697.0001,-85.6426 693.5,-75.6427 690.0001,-85.6427 697.0001,-85.6426"/>
</g>
<!-- Node9&#45;&gt;Node2 -->
<g id="edge13" class="edge">
<title>Node9&#45;&gt;Node2</title>
<path fill="none" stroke="#191970" d="M208.7823,-62.2605C350.6105,-51.7129 751.5133,-21.8981 874.9006,-12.7219"/>
<polygon fill="#191970" stroke="#191970" points="875.2559,-16.2052 884.9687,-11.9731 874.7366,-9.2245 875.2559,-16.2052"/>
</g>
<!-- Node9&#45;&gt;Node5 -->
<g id="edge10" class="edge">
<title>Node9&#45;&gt;Node5</title>
<path fill="none" stroke="#191970" d="M137.8713,-56.3733C118.6081,-47.3838 89.6514,-33.8706 67.9581,-23.7471"/>
<polygon fill="#191970" stroke="#191970" points="69.4015,-20.5584 58.8595,-19.5011 66.4413,-26.9017 69.4015,-20.5584"/>
</g>
<!-- Node9&#45;&gt;Node10 -->
<g id="edge11" class="edge">
<title>Node9&#45;&gt;Node10</title>
<path fill="none" stroke="#191970" d="M172.0866,-56.2455C183.8305,-47.814 201.0199,-35.4729 214.6882,-25.6598"/>
<polygon fill="#191970" stroke="#191970" points="216.9871,-28.3179 223.0691,-19.6427 212.9046,-22.6316 216.9871,-28.3179"/>
</g>
<!-- Node11 -->
<g id="node12" class="node">
<title>Node11</title>
<g id="a_node12"><a xlink:title=" ">
<polygon fill="#ffffff" stroke="#bfbfbf" points="130.5,-.5 130.5,-19.5 186.5,-19.5 186.5,-.5 130.5,-.5"/>
<text text-anchor="middle" x="158.5" y="-7.5" font-family="Helvetica,sans-Serif" font-size="10.00" fill="#000000">stddef.h</text>
</a>
</g>
</g>
<!-- Node9&#45;&gt;Node11 -->
<g id="edge12" class="edge">
<title>Node9&#45;&gt;Node11</title>
<path fill="none" stroke="#191970" d="M158.5,-56.2455C158.5,-48.9382 158.5,-38.6944 158.5,-29.7046"/>
<polygon fill="#191970" stroke="#191970" points="162.0001,-29.6426 158.5,-19.6427 155.0001,-29.6427 162.0001,-29.6426"/>
</g>
<!-- Node13&#45;&gt;Node7 -->
<g id="edge18" class="edge">
<title>Node13&#45;&gt;Node7</title>
<path fill="none" stroke="#191970" d="M704.0362,-224.2455C687.3926,-215.4527 662.7007,-202.4079 643.7808,-192.4125"/>
<polygon fill="#191970" stroke="#191970" points="645.2291,-189.2193 634.7522,-187.6427 641.9592,-195.4086 645.2291,-189.2193"/>
</g>
<!-- Node14&#45;&gt;Node7 -->
<g id="edge20" class="edge">
<title>Node14&#45;&gt;Node7</title>
<path fill="none" stroke="#191970" d="M787.9154,-224.3733C752.8984,-214.9001 699.3119,-200.4032 661.3875,-190.1435"/>
<polygon fill="#191970" stroke="#191970" points="662.1873,-186.7341 651.6202,-187.5011 660.3592,-193.4912 662.1873,-186.7341"/>
</g>
<!-- Node15&#45;&gt;Node7 -->
<g id="edge22" class="edge">
<title>Node15&#45;&gt;Node7</title>
<path fill="none" stroke="#191970" d="M289.256,-225.4312C292.383,-224.9419 295.4823,-224.4616 298.5,-224 390.562,-209.918 497.7974,-194.6387 561.2587,-185.7133"/>
<polygon fill="#191970" stroke="#191970" points="562.0243,-189.1402 571.4402,-184.283 561.0505,-182.2082 562.0243,-189.1402"/>
</g>
<!-- Node15&#45;&gt;Node10 -->
<g id="edge23" class="edge">
<title>Node15&#45;&gt;Node10</title>
<path fill="none" stroke="#191970" d="M236.5,-224.375C236.5,-190.4851 236.5,-76.2317 236.5,-29.8332"/>
<polygon fill="#191970" stroke="#191970" points="240.0001,-29.5891 236.5,-19.5891 233.0001,-29.5892 240.0001,-29.5891"/>
</g>
<!-- Node16&#45;&gt;Node7 -->
<g id="edge25" class="edge">
<title>Node16&#45;&gt;Node7</title>
<path fill="none" stroke="#191970" d="M496.4264,-224.3733C520.1202,-215.2226 555.9511,-201.3844 582.3068,-191.2057"/>
<polygon fill="#191970" stroke="#191970" points="583.8314,-194.3689 591.8989,-187.5011 581.3094,-187.8389 583.8314,-194.3689"/>
</g>
<!-- Node17&#45;&gt;Node7 -->
<g id="edge28" class="edge">
<title>Node17&#45;&gt;Node7</title>
<path fill="none" stroke="#191970" d="M586.7707,-224.2455C591.7264,-216.5367 598.783,-205.5598 604.7776,-196.2348"/>
<polygon fill="#191970" stroke="#191970" points="607.8376,-197.9471 610.3011,-187.6427 601.9494,-194.1618 607.8376,-197.9471"/>
</g>
<!-- Node18&#45;&gt;Node8 -->
<g id="edge31" class="edge">
<title>Node18&#45;&gt;Node8</title>
<path fill="none" stroke="#191970" d="M759.5651,-168.2455C747.4053,-159.7337 729.5536,-147.2375 715.4715,-137.3801"/>
<polygon fill="#191970" stroke="#191970" points="717.4747,-134.51 707.2752,-131.6427 713.4605,-140.2447 717.4747,-134.51"/>
</g>
<!-- Node19&#45;&gt;Node2 -->
<g id="edge36" class="edge">
<title>Node19&#45;&gt;Node2</title>
<path fill="none" stroke="#191970" d="M838.0026,-56.2455C851.658,-47.6534 871.7657,-35.0014 887.4989,-25.1018"/>
<polygon fill="#191970" stroke="#191970" points="889.5751,-27.9307 896.175,-19.6427 885.8471,-22.006 889.5751,-27.9307"/>
</g>
<!-- Node19&#45;&gt;Node10 -->
<g id="edge35" class="edge">
<title>Node19&#45;&gt;Node10</title>
<path fill="none" stroke="#191970" d="M780.3838,-61.3445C764.4477,-59.6163 746.1424,-57.6711 729.5,-56 562.0011,-39.1812 362.2726,-21.1759 277.6404,-13.6414"/>
<polygon fill="#191970" stroke="#191970" points="277.9327,-10.1537 267.662,-12.7542 277.3127,-17.1262 277.9327,-10.1537"/>
</g>
</g>
</svg>
        <g id="navigator" transform="translate(0 0)" fill="#404254">
                <rect fill="#f2f5e9" fill-opacity="0.5" stroke="#606060" stroke-width=".5" x="0" y="0" width="60" height="60"/>
                <use id="zoomplus" xlink:href="#zoomPlus" x="17" y="9" onmousedown="handleZoom(evt,'in')"/>
                <use id="zoomminus" xlink:href="#zoomMin" x="42" y="9" onmousedown="handleZoom(evt,'out')"/>
                <use id="reset" xlink:href="#resetDef" x="30" y="36" onmousedown="handleReset()"/>
                <g id="arrowUp" xlink:href="#dirArrow" transform="translate(30 24)" onmousedown="handlePan(0,-1)">
                  <use xlink:href="#rim" fill="#404040">
                        <set attributeName="fill" to="#808080" begin="arrowUp.mouseover" end="arrowUp.mouseout"/>
                  </use>
                  <path fill="none" stroke="white" stroke-width="1.5" d="M0,-3.0v7 M-2.5,-0.5L0,-3.0L2.5,-0.5"/>
                </g>
                <g id="arrowRight" xlink:href="#dirArrow" transform="rotate(90) translate(36 -43)" onmousedown="handlePan(1,0)">
                  <use xlink:href="#rim" fill="#404040">
                        <set attributeName="fill" to="#808080" begin="arrowRight.mouseover" end="arrowRight.mouseout"/>
                  </use>
                  <path fill="none" stroke="white" stroke-width="1.5" d="M0,-3.0v7 M-2.5,-0.5L0,-3.0L2.5,-0.5"/>
                </g>
                <g id="arrowDown" xlink:href="#dirArrow" transform="rotate(180) translate(-30 -48)" onmousedown="handlePan(0,1)">
                  <use xlink:href="#rim" fill="#404040">
                        <set attributeName="fill" to="#808080" begin="arrowDown.mouseover" end="arrowDown.mouseout"/>
                  </use>
                  <path fill="none" stroke="white" stroke-width="1.5" d="M0,-3.0v7 M-2.5,-0.5L0,-3.0L2.5,-0.5"/>
                </g>
                <g id="arrowLeft" xlink:href="#dirArrow" transform="rotate(270) translate(-36 17)" onmousedown="handlePan(-1,0)">
                  <use xlink:href="#rim" fill="#404040">
                        <set attributeName="fill" to="#808080" begin="arrowLeft.mouseover" end="arrowLeft.mouseout"/>
                  </use>
                  <path fill="none" stroke="white" stroke-width="1.5" d="M0,-3.0v7 M-2.5,-0.5L0,-3.0L2.5,-0.5"/>
                </g>
        </g>
        <svg viewBox="0 0 15 15" width="100%" height="30px" preserveAspectRatio="xMaxYMin meet">
         <g id="arrow_out" transform="scale(0.3 0.3)">
          <a xlink:href="parser_8h__incl_org.svg" target="_base">
           <rect id="button" ry="5" rx="5" y="6" x="6" height="38" width="38"
                fill="#f2f5e9" fill-opacity="0.5" stroke="#606060" stroke-width="1.0"/>
           <path id="arrow"
             d="M 11.500037,31.436501 C 11.940474,20.09759 22.043105,11.32322 32.158766,21.979434 L 37.068811,17.246167 C 37.068811,17.246167 37.088388,32 37.088388,32 L 22.160133,31.978069 C 22.160133,31.978069 26.997745,27.140456 26.997745,27.140456 C 18.528582,18.264221 13.291696,25.230495 11.500037,31.436501 z"
             style="fill:#404040;"/>
          </a>
         </g>
        </svg>
</svg>
