<?xml version="1.0" encoding="UTF-8" standalone="no"?>
<!DOCTYPE svg PUBLIC "-//W3C//DTD SVG 1.1//EN"
 "http://www.w3.org/Graphics/SVG/1.1/DTD/svg11.dtd">
<!-- Generated by graphviz version 2.40.1 (20161225.0304)
 -->
<!-- Title: parser_parseString Pages: 1 -->
<svg width="465pt" height="256pt"
 viewBox="0.00 0.00 465.00 256.00" xmlns="http://www.w3.org/2000/svg" xmlns:xlink="http://www.w3.org/1999/xlink">
<g id="graph0" class="graph" transform="scale(1 1) rotate(0) translate(4 252)">
<title>parser_parseString</title>
<polygon fill="#ffffff" stroke="transparent" points="-4,4 -4,-252 461,-252 461,4 -4,4"/>
<!-- Node38 -->
<g id="node1" class="node">
<title>Node38</title>
<g id="a_node1"><a xlink:title="Parser Entrypoint.">
<polygon fill="#bfbfbf" stroke="#000000" points="0,-114.5 0,-133.5 98,-133.5 98,-114.5 0,-114.5"/>
<text text-anchor="middle" x="49" y="-121.5" font-family="Helvetica,sans-Serif" font-size="10.00" fill="#000000">parser_parseString</text>
</a>
</g>
</g>
<!-- Node39 -->
<g id="node2" class="node">
<title>Node39</title>
<g id="a_node2"><a xlink:href="parserutil_8c.html#a0caab33d4f000ec42c3ee0c70bc98d9e" target="_top" xlink:title="Removes comments from strings.">
<polygon fill="#ffffff" stroke="#000000" points="139.5,-228.5 139.5,-247.5 236.5,-247.5 236.5,-228.5 139.5,-228.5"/>
<text text-anchor="middle" x="188" y="-235.5" font-family="Helvetica,sans-Serif" font-size="10.00" fill="#000000">parser_preprocess</text>
</a>
</g>
</g>
<!-- Node38&#45;&gt;Node39 -->
<g id="edge1" class="edge">
<title>Node38&#45;&gt;Node39</title>
<path fill="none" stroke="#191970" d="M55.0687,-133.5238C67.5878,-152.4438 98.1308,-195.0038 134,-219 136.8963,-220.9376 140.0122,-222.7008 143.2332,-224.3012"/>
<polygon fill="#191970" stroke="#191970" points="141.9323,-227.5527 152.494,-228.3893 144.7592,-221.1489 141.9323,-227.5527"/>
</g>
<!-- Node40 -->
<g id="node3" class="node">
<title>Node40</title>
<g id="a_node3"><a xlink:href="parserutil_8c.html#aeabb62e46d4414de7848d31d805ab834" target="_top" xlink:title="Parser constructor.">
<polygon fill="#ffffff" stroke="#000000" points="154.5,-190.5 154.5,-209.5 221.5,-209.5 221.5,-190.5 154.5,-190.5"/>
<text text-anchor="middle" x="188" y="-197.5" font-family="Helvetica,sans-Serif" font-size="10.00" fill="#000000">parser_new</text>
</a>
</g>
</g>
<!-- Node38&#45;&gt;Node40 -->
<g id="edge2" class="edge">
<title>Node38&#45;&gt;Node40</title>
<path fill="none" stroke="#191970" d="M61.0685,-133.535C77.0252,-145.7947 106.36,-167.1499 134,-181 138.1094,-183.0592 142.4966,-184.9945 146.9269,-186.7835"/>
<polygon fill="#191970" stroke="#191970" points="146.0125,-190.18 156.6037,-190.4573 148.4971,-183.6358 146.0125,-190.18"/>
</g>
<!-- Node42 -->
<g id="node5" class="node">
<title>Node42</title>
<g id="a_node5"><a xlink:href="parserutil_8c.html#a2d9e8c20025b7b883c4e87790685a6ad" target="_top" xlink:title="Proxy to parser_next.">
<polygon fill="#ffffff" stroke="#000000" points="145,-152.5 145,-171.5 231,-171.5 231,-152.5 145,-152.5"/>
<text text-anchor="middle" x="188" y="-159.5" font-family="Helvetica,sans-Serif" font-size="10.00" fill="#000000">parser_advance</text>
</a>
</g>
</g>
<!-- Node38&#45;&gt;Node42 -->
<g id="edge4" class="edge">
<title>Node38&#45;&gt;Node42</title>
<path fill="none" stroke="#191970" d="M84.0756,-133.589C102.0191,-138.4944 124.0584,-144.5196 143.2167,-149.7571"/>
<polygon fill="#191970" stroke="#191970" points="142.3666,-153.1531 152.9357,-152.4141 144.2126,-146.4008 142.3666,-153.1531"/>
</g>
<!-- Node44 -->
<g id="node7" class="node">
<title>Node44</title>
<g id="a_node7"><a xlink:href="parser_8h.html#a909b31712182aae737a48cd819f43a2d" target="_top" xlink:title=" ">
<polygon fill="#ffffff" stroke="#000000" points="155.5,-114.5 155.5,-133.5 220.5,-133.5 220.5,-114.5 155.5,-114.5"/>
<text text-anchor="middle" x="188" y="-121.5" font-family="Helvetica,sans-Serif" font-size="10.00" fill="#000000">parser_root</text>
</a>
</g>
</g>
<!-- Node38&#45;&gt;Node44 -->
<g id="edge6" class="edge">
<title>Node38&#45;&gt;Node44</title>
<path fill="none" stroke="#191970" d="M98.0062,-124C113.227,-124 129.8881,-124 144.6919,-124"/>
<polygon fill="#191970" stroke="#191970" points="145.0961,-127.5001 155.0961,-124 145.0961,-120.5001 145.0961,-127.5001"/>
</g>
<!-- Node45 -->
<g id="node8" class="node">
<title>Node45</title>
<g id="a_node8"><a xlink:href="error_8c.html#aece17809d86b1b3c7548254beab5b5c1" target="_top" xlink:title="Return true if a given errorstack is empty.">
<polygon fill="#ffffff" stroke="#000000" points="142,-76.5 142,-95.5 234,-95.5 234,-76.5 142,-76.5"/>
<text text-anchor="middle" x="188" y="-83.5" font-family="Helvetica,sans-Serif" font-size="10.00" fill="#000000">errorstack_empty</text>
</a>
</g>
</g>
<!-- Node38&#45;&gt;Node45 -->
<g id="edge7" class="edge">
<title>Node38&#45;&gt;Node45</title>
<path fill="none" stroke="#191970" d="M84.0756,-114.411C102.0191,-109.5056 124.0584,-103.4804 143.2167,-98.2429"/>
<polygon fill="#191970" stroke="#191970" points="144.2126,-101.5992 152.9357,-95.5859 142.3666,-94.8469 144.2126,-101.5992"/>
</g>
<!-- Node46 -->
<g id="node9" class="node">
<title>Node46</title>
<g id="a_node9"><a xlink:href="error_8c.html#af86905f178f9caa084c7a4de6ff9ff8a" target="_top" xlink:title="Throw all errors on the errorstack.">
<polygon fill="#ffffff" stroke="#000000" points="134,-38.5 134,-57.5 242,-57.5 242,-38.5 134,-38.5"/>
<text text-anchor="middle" x="188" y="-45.5" font-family="Helvetica,sans-Serif" font-size="10.00" fill="#000000">errorstack_traceback</text>
</a>
</g>
</g>
<!-- Node38&#45;&gt;Node46 -->
<g id="edge8" class="edge">
<title>Node38&#45;&gt;Node46</title>
<path fill="none" stroke="#191970" d="M61.0685,-114.465C77.0252,-102.2053 106.36,-80.8501 134,-67 138.1094,-64.9408 142.4966,-63.0055 146.9269,-61.2165"/>
<polygon fill="#191970" stroke="#191970" points="148.4971,-64.3642 156.6037,-57.5427 146.0125,-57.82 148.4971,-64.3642"/>
</g>
<!-- Node50 -->
<g id="node13" class="node">
<title>Node50</title>
<g id="a_node13"><a xlink:href="parserutil_8c.html#a1ddd27828ac4848a4b9c05eb6190852f" target="_top" xlink:title="Parser destructor.">
<polygon fill="#ffffff" stroke="#000000" points="155.5,-.5 155.5,-19.5 220.5,-19.5 220.5,-.5 155.5,-.5"/>
<text text-anchor="middle" x="188" y="-7.5" font-family="Helvetica,sans-Serif" font-size="10.00" fill="#000000">parser_free</text>
</a>
</g>
</g>
<!-- Node38&#45;&gt;Node50 -->
<g id="edge12" class="edge">
<title>Node38&#45;&gt;Node50</title>
<path fill="none" stroke="#191970" d="M55.0687,-114.4762C67.5878,-95.5562 98.1308,-52.9962 134,-29 137.7249,-26.5081 141.8131,-24.3045 146.0209,-22.365"/>
<polygon fill="#191970" stroke="#191970" points="147.4155,-25.576 155.3293,-18.5316 144.7499,-19.1033 147.4155,-25.576"/>
</g>
<!-- Node41 -->
<g id="node4" class="node">
<title>Node41</title>
<g id="a_node4"><a xlink:href="error_8c.html#ab400e9a29e066e1bbe7b7893e1eb767e" target="_top" xlink:title="Creates a new errorstack object.">
<polygon fill="#ffffff" stroke="#000000" points="278,-190.5 278,-209.5 361,-209.5 361,-190.5 278,-190.5"/>
<text text-anchor="middle" x="319.5" y="-197.5" font-family="Helvetica,sans-Serif" font-size="10.00" fill="#000000">errorstack_new</text>
</a>
</g>
</g>
<!-- Node40&#45;&gt;Node41 -->
<g id="edge3" class="edge">
<title>Node40&#45;&gt;Node41</title>
<path fill="none" stroke="#191970" d="M221.5232,-200C235.3724,-200 251.7558,-200 267.1218,-200"/>
<polygon fill="#191970" stroke="#191970" points="267.5537,-203.5001 277.5536,-200 267.5536,-196.5001 267.5537,-203.5001"/>
</g>
<!-- Node43 -->
<g id="node6" class="node">
<title>Node43</title>
<g id="a_node6"><a xlink:href="parserutil_8c.html#ab25a97ff31329fe9461666bfe2dc6f2c" target="_top" xlink:title="Iterate the parser.">
<polygon fill="#ffffff" stroke="#000000" points="285.5,-152.5 285.5,-171.5 353.5,-171.5 353.5,-152.5 285.5,-152.5"/>
<text text-anchor="middle" x="319.5" y="-159.5" font-family="Helvetica,sans-Serif" font-size="10.00" fill="#000000">parser_next</text>
</a>
</g>
</g>
<!-- Node42&#45;&gt;Node43 -->
<g id="edge5" class="edge">
<title>Node42&#45;&gt;Node43</title>
<path fill="none" stroke="#191970" d="M231.058,-162C245.1622,-162 260.8543,-162 275.0588,-162"/>
<polygon fill="#191970" stroke="#191970" points="275.0949,-165.5001 285.0949,-162 275.0948,-158.5001 275.0949,-165.5001"/>
</g>
<!-- Node47 -->
<g id="node10" class="node">
<title>Node47</title>
<g id="a_node10"><a xlink:href="error_8c.html#a2e581dee0de155b88d33f98ddd006189" target="_top" xlink:title=" ">
<polygon fill="#ffffff" stroke="#000000" points="287,-76.5 287,-95.5 352,-95.5 352,-76.5 287,-76.5"/>
<text text-anchor="middle" x="319.5" y="-83.5" font-family="Helvetica,sans-Serif" font-size="10.00" fill="#000000">error_throw</text>
</a>
</g>
</g>
<!-- Node46&#45;&gt;Node47 -->
<g id="edge9" class="edge">
<title>Node46&#45;&gt;Node47</title>
<path fill="none" stroke="#191970" d="M221.183,-57.589C238.1311,-62.4865 258.9414,-68.5002 277.0454,-73.7318"/>
<polygon fill="#191970" stroke="#191970" points="276.2045,-77.1319 286.7831,-76.5457 278.1479,-70.4071 276.2045,-77.1319"/>
</g>
<!-- Node49 -->
<g id="node12" class="node">
<title>Node49</title>
<g id="a_node12"><a xlink:href="error_8c.html#a0289b490436a23262d094c6a624ef7f0" target="_top" xlink:title="Return the top error of the errorstack.">
<polygon fill="#ffffff" stroke="#000000" points="280,-38.5 280,-57.5 359,-57.5 359,-38.5 280,-38.5"/>
<text text-anchor="middle" x="319.5" y="-45.5" font-family="Helvetica,sans-Serif" font-size="10.00" fill="#000000">errorstack_top</text>
</a>
</g>
</g>
<!-- Node46&#45;&gt;Node49 -->
<g id="edge11" class="edge">
<title>Node46&#45;&gt;Node49</title>
<path fill="none" stroke="#191970" d="M242.2453,-48C251.2967,-48 260.6483,-48 269.5849,-48"/>
<polygon fill="#191970" stroke="#191970" points="269.8423,-51.5001 279.8422,-48 269.8422,-44.5001 269.8423,-51.5001"/>
</g>
<!-- Node48 -->
<g id="node11" class="node">
<title>Node48</title>
<g id="a_node11"><a xlink:href="error_8c.html#a225bd87ba0491415a1ef1aec28912809" target="_top" xlink:title="prints an error struct">
<polygon fill="#ffffff" stroke="#000000" points="397,-76.5 397,-95.5 457,-95.5 457,-76.5 397,-76.5"/>
<text text-anchor="middle" x="427" y="-83.5" font-family="Helvetica,sans-Serif" font-size="10.00" fill="#000000">error_print</text>
</a>
</g>
</g>
<!-- Node47&#45;&gt;Node48 -->
<g id="edge10" class="edge">
<title>Node47&#45;&gt;Node48</title>
<path fill="none" stroke="#191970" d="M352.0453,-86C362.9273,-86 375.1904,-86 386.5972,-86"/>
<polygon fill="#191970" stroke="#191970" points="386.7681,-89.5001 396.7681,-86 386.768,-82.5001 386.7681,-89.5001"/>
</g>
<!-- Node51 -->
<g id="node14" class="node">
<title>Node51</title>
<g id="a_node14"><a xlink:href="error_8c.html#a56c6e945b508072de3181f78dbc0cfe3" target="_top" xlink:title=" ">
<polygon fill="#ffffff" stroke="#000000" points="278.5,-.5 278.5,-19.5 360.5,-19.5 360.5,-.5 278.5,-.5"/>
<text text-anchor="middle" x="319.5" y="-7.5" font-family="Helvetica,sans-Serif" font-size="10.00" fill="#000000">errorstack_free</text>
</a>
</g>
</g>
<!-- Node50&#45;&gt;Node51 -->
<g id="edge13" class="edge">
<title>Node50&#45;&gt;Node51</title>
<path fill="none" stroke="#191970" d="M220.5056,-10C234.8553,-10 252.072,-10 268.094,-10"/>
<polygon fill="#191970" stroke="#191970" points="268.4082,-13.5001 278.4082,-10 268.4081,-6.5001 268.4082,-13.5001"/>
</g>
</g>
</svg>
