<?xml version="1.0" encoding="UTF-8" standalone="no"?>
<!DOCTYPE svg PUBLIC "-//W3C//DTD SVG 1.1//EN"
 "http://www.w3.org/Graphics/SVG/1.1/DTD/svg11.dtd">
<!-- Generated by graphviz version 2.40.1 (20161225.0304)
 -->
<!-- Title: parser_parseString Pages: 1 -->
<svg width="465pt" height="218pt"
 viewBox="0.00 0.00 465.00 218.00" xmlns="http://www.w3.org/2000/svg" xmlns:xlink="http://www.w3.org/1999/xlink">
<g id="graph0" class="graph" transform="scale(1 1) rotate(0) translate(4 214)">
<title>parser_parseString</title>
<polygon fill="#ffffff" stroke="transparent" points="-4,4 -4,-214 461,-214 461,4 -4,4"/>
<!-- Node38 -->
<g id="node1" class="node">
<title>Node38</title>
<g id="a_node1"><a xlink:title="Parser Entrypoint.">
<polygon fill="#bfbfbf" stroke="#000000" points="0,-95.5 0,-114.5 98,-114.5 98,-95.5 0,-95.5"/>
<text text-anchor="middle" x="49" y="-102.5" font-family="Helvetica,sans-Serif" font-size="10.00" fill="#000000">parser_parseString</text>
</a>
</g>
</g>
<!-- Node39 -->
<g id="node2" class="node">
<title>Node39</title>
<g id="a_node2"><a xlink:href="parserutil_8c.html#aeabb62e46d4414de7848d31d805ab834" target="_top" xlink:title="Parser constructor.">
<polygon fill="#ffffff" stroke="#000000" points="154.5,-190.5 154.5,-209.5 221.5,-209.5 221.5,-190.5 154.5,-190.5"/>
<text text-anchor="middle" x="188" y="-197.5" font-family="Helvetica,sans-Serif" font-size="10.00" fill="#000000">parser_new</text>
</a>
</g>
</g>
<!-- Node38&#45;&gt;Node39 -->
<g id="edge1" class="edge">
<title>Node38&#45;&gt;Node39</title>
<path fill="none" stroke="#191970" d="M57.4811,-114.7364C71.7961,-130.6325 102.3054,-162.2615 134,-181 137.4153,-183.0192 141.0787,-184.8707 144.8296,-186.5577"/>
<polygon fill="#191970" stroke="#191970" points="143.6621,-189.8617 154.2426,-190.4141 146.3159,-183.3842 143.6621,-189.8617"/>
</g>
<!-- Node41 -->
<g id="node4" class="node">
<title>Node41</title>
<g id="a_node4"><a xlink:href="parserutil_8c.html#a2d9e8c20025b7b883c4e87790685a6ad" target="_top" xlink:title="Proxy to parser_next.">
<polygon fill="#ffffff" stroke="#000000" points="145,-152.5 145,-171.5 231,-171.5 231,-152.5 145,-152.5"/>
<text text-anchor="middle" x="188" y="-159.5" font-family="Helvetica,sans-Serif" font-size="10.00" fill="#000000">parser_advance</text>
</a>
</g>
</g>
<!-- Node38&#45;&gt;Node41 -->
<g id="edge3" class="edge">
<title>Node38&#45;&gt;Node41</title>
<path fill="none" stroke="#191970" d="M69.0664,-114.5314C86.1659,-122.5178 111.4772,-134.0207 134,-143 139.1352,-145.0473 144.5882,-147.1019 149.9786,-149.064"/>
<polygon fill="#191970" stroke="#191970" points="148.9367,-152.4084 159.5314,-152.4744 151.2903,-145.8159 148.9367,-152.4084"/>
</g>
<!-- Node43 -->
<g id="node6" class="node">
<title>Node43</title>
<g id="a_node6"><a xlink:href="parser_8h.html#a7f01c72614726af8596180c2799c9a3d" target="_top" xlink:title=" ">
<polygon fill="#ffffff" stroke="#000000" points="155.5,-114.5 155.5,-133.5 220.5,-133.5 220.5,-114.5 155.5,-114.5"/>
<text text-anchor="middle" x="188" y="-121.5" font-family="Helvetica,sans-Serif" font-size="10.00" fill="#000000">parser_root</text>
</a>
</g>
</g>
<!-- Node38&#45;&gt;Node43 -->
<g id="edge5" class="edge">
<title>Node38&#45;&gt;Node43</title>
<path fill="none" stroke="#191970" d="M98.0062,-111.6987C113.3748,-113.7994 130.2117,-116.1009 145.1226,-118.1391"/>
<polygon fill="#191970" stroke="#191970" points="144.7142,-121.6157 155.0961,-119.5023 145.6623,-114.6802 144.7142,-121.6157"/>
</g>
<!-- Node44 -->
<g id="node7" class="node">
<title>Node44</title>
<g id="a_node7"><a xlink:href="error_8c.html#abd91e0920f6396db920ea38a4d701613" target="_top" xlink:title="Return true if a given errorstack is empty.">
<polygon fill="#ffffff" stroke="#000000" points="142,-76.5 142,-95.5 234,-95.5 234,-76.5 142,-76.5"/>
<text text-anchor="middle" x="188" y="-83.5" font-family="Helvetica,sans-Serif" font-size="10.00" fill="#000000">errorstack_empty</text>
</a>
</g>
</g>
<!-- Node38&#45;&gt;Node44 -->
<g id="edge6" class="edge">
<title>Node38&#45;&gt;Node44</title>
<path fill="none" stroke="#191970" d="M98.0062,-98.3013C108.8976,-96.8126 120.5264,-95.223 131.6845,-93.6978"/>
<polygon fill="#191970" stroke="#191970" points="132.331,-97.1421 141.7648,-92.3199 131.3829,-90.2066 132.331,-97.1421"/>
</g>
<!-- Node45 -->
<g id="node8" class="node">
<title>Node45</title>
<g id="a_node8"><a xlink:href="error_8c.html#a92a76599dc7f44ae25eb33a79f8c1268" target="_top" xlink:title="Throw all errors on the errorstack.">
<polygon fill="#ffffff" stroke="#000000" points="134,-38.5 134,-57.5 242,-57.5 242,-38.5 134,-38.5"/>
<text text-anchor="middle" x="188" y="-45.5" font-family="Helvetica,sans-Serif" font-size="10.00" fill="#000000">errorstack_traceback</text>
</a>
</g>
</g>
<!-- Node38&#45;&gt;Node45 -->
<g id="edge7" class="edge">
<title>Node38&#45;&gt;Node45</title>
<path fill="none" stroke="#191970" d="M69.0664,-95.4686C86.1659,-87.4822 111.4772,-75.9793 134,-67 139.1352,-64.9527 144.5882,-62.8981 149.9786,-60.936"/>
<polygon fill="#191970" stroke="#191970" points="151.2903,-64.1841 159.5314,-57.5256 148.9367,-57.5916 151.2903,-64.1841"/>
</g>
<!-- Node49 -->
<g id="node12" class="node">
<title>Node49</title>
<g id="a_node12"><a xlink:href="parserutil_8c.html#a1ddd27828ac4848a4b9c05eb6190852f" target="_top" xlink:title="Parser destructor.">
<polygon fill="#ffffff" stroke="#000000" points="155.5,-.5 155.5,-19.5 220.5,-19.5 220.5,-.5 155.5,-.5"/>
<text text-anchor="middle" x="188" y="-7.5" font-family="Helvetica,sans-Serif" font-size="10.00" fill="#000000">parser_free</text>
</a>
</g>
</g>
<!-- Node38&#45;&gt;Node49 -->
<g id="edge11" class="edge">
<title>Node38&#45;&gt;Node49</title>
<path fill="none" stroke="#191970" d="M57.4811,-95.2636C71.7961,-79.3675 102.3054,-47.7385 134,-29 137.7054,-26.8093 141.7027,-24.816 145.7871,-23.016"/>
<polygon fill="#191970" stroke="#191970" points="147.4031,-26.1388 155.3791,-19.165 144.795,-19.6428 147.4031,-26.1388"/>
</g>
<!-- Node40 -->
<g id="node3" class="node">
<title>Node40</title>
<g id="a_node3"><a xlink:href="error_8c.html#a801707ae606a85c72383643bf3ce5875" target="_top" xlink:title="Creates a new errorstack object.">
<polygon fill="#ffffff" stroke="#000000" points="278,-190.5 278,-209.5 361,-209.5 361,-190.5 278,-190.5"/>
<text text-anchor="middle" x="319.5" y="-197.5" font-family="Helvetica,sans-Serif" font-size="10.00" fill="#000000">errorstack_new</text>
</a>
</g>
</g>
<!-- Node39&#45;&gt;Node40 -->
<g id="edge2" class="edge">
<title>Node39&#45;&gt;Node40</title>
<path fill="none" stroke="#191970" d="M221.5232,-200C235.3724,-200 251.7558,-200 267.1218,-200"/>
<polygon fill="#191970" stroke="#191970" points="267.5537,-203.5001 277.5536,-200 267.5536,-196.5001 267.5537,-203.5001"/>
</g>
<!-- Node42 -->
<g id="node5" class="node">
<title>Node42</title>
<g id="a_node5"><a xlink:href="parserutil_8c.html#ab25a97ff31329fe9461666bfe2dc6f2c" target="_top" xlink:title="Iterate the parser.">
<polygon fill="#ffffff" stroke="#000000" points="285.5,-152.5 285.5,-171.5 353.5,-171.5 353.5,-152.5 285.5,-152.5"/>
<text text-anchor="middle" x="319.5" y="-159.5" font-family="Helvetica,sans-Serif" font-size="10.00" fill="#000000">parser_next</text>
</a>
</g>
</g>
<!-- Node41&#45;&gt;Node42 -->
<g id="edge4" class="edge">
<title>Node41&#45;&gt;Node42</title>
<path fill="none" stroke="#191970" d="M231.058,-162C245.1622,-162 260.8543,-162 275.0588,-162"/>
<polygon fill="#191970" stroke="#191970" points="275.0949,-165.5001 285.0949,-162 275.0948,-158.5001 275.0949,-165.5001"/>
</g>
<!-- Node46 -->
<g id="node9" class="node">
<title>Node46</title>
<g id="a_node9"><a xlink:href="error_8c.html#adc799734c0f6f7e223ee20590c3b46e8" target="_top" xlink:title=" ">
<polygon fill="#ffffff" stroke="#000000" points="287,-76.5 287,-95.5 352,-95.5 352,-76.5 287,-76.5"/>
<text text-anchor="middle" x="319.5" y="-83.5" font-family="Helvetica,sans-Serif" font-size="10.00" fill="#000000">error_throw</text>
</a>
</g>
</g>
<!-- Node45&#45;&gt;Node46 -->
<g id="edge8" class="edge">
<title>Node45&#45;&gt;Node46</title>
<path fill="none" stroke="#191970" d="M221.183,-57.589C238.1311,-62.4865 258.9414,-68.5002 277.0454,-73.7318"/>
<polygon fill="#191970" stroke="#191970" points="276.2045,-77.1319 286.7831,-76.5457 278.1479,-70.4071 276.2045,-77.1319"/>
</g>
<!-- Node48 -->
<g id="node11" class="node">
<title>Node48</title>
<g id="a_node11"><a xlink:href="error_8c.html#a08f836642a23e867f57c5f849f26443c" target="_top" xlink:title="Return the top error of the errorstack.">
<polygon fill="#ffffff" stroke="#000000" points="280,-38.5 280,-57.5 359,-57.5 359,-38.5 280,-38.5"/>
<text text-anchor="middle" x="319.5" y="-45.5" font-family="Helvetica,sans-Serif" font-size="10.00" fill="#000000">errorstack_top</text>
</a>
</g>
</g>
<!-- Node45&#45;&gt;Node48 -->
<g id="edge10" class="edge">
<title>Node45&#45;&gt;Node48</title>
<path fill="none" stroke="#191970" d="M242.2453,-48C251.2967,-48 260.6483,-48 269.5849,-48"/>
<polygon fill="#191970" stroke="#191970" points="269.8423,-51.5001 279.8422,-48 269.8422,-44.5001 269.8423,-51.5001"/>
</g>
<!-- Node47 -->
<g id="node10" class="node">
<title>Node47</title>
<g id="a_node10"><a xlink:href="error_8c.html#a661c01cb3d40abca57dc9d223e3d6381" target="_top" xlink:title="prints an error struct">
<polygon fill="#ffffff" stroke="#000000" points="397,-76.5 397,-95.5 457,-95.5 457,-76.5 397,-76.5"/>
<text text-anchor="middle" x="427" y="-83.5" font-family="Helvetica,sans-Serif" font-size="10.00" fill="#000000">error_print</text>
</a>
</g>
</g>
<!-- Node46&#45;&gt;Node47 -->
<g id="edge9" class="edge">
<title>Node46&#45;&gt;Node47</title>
<path fill="none" stroke="#191970" d="M352.0453,-86C362.9273,-86 375.1904,-86 386.5972,-86"/>
<polygon fill="#191970" stroke="#191970" points="386.7681,-89.5001 396.7681,-86 386.768,-82.5001 386.7681,-89.5001"/>
</g>
<!-- Node50 -->
<g id="node13" class="node">
<title>Node50</title>
<g id="a_node13"><a xlink:href="error_8c.html#a307900324127113f505e2011b6fa2c45" target="_top" xlink:title=" ">
<polygon fill="#ffffff" stroke="#000000" points="278.5,-.5 278.5,-19.5 360.5,-19.5 360.5,-.5 278.5,-.5"/>
<text text-anchor="middle" x="319.5" y="-7.5" font-family="Helvetica,sans-Serif" font-size="10.00" fill="#000000">errorstack_free</text>
</a>
</g>
</g>
<!-- Node49&#45;&gt;Node50 -->
<g id="edge12" class="edge">
<title>Node49&#45;&gt;Node50</title>
<path fill="none" stroke="#191970" d="M220.5056,-10C234.8553,-10 252.072,-10 268.094,-10"/>
<polygon fill="#191970" stroke="#191970" points="268.4082,-13.5001 278.4082,-10 268.4081,-6.5001 268.4082,-13.5001"/>
</g>
</g>
</svg>
