<?xml version="1.0" encoding="UTF-8" standalone="no"?>
<!DOCTYPE svg PUBLIC "-//W3C//DTD SVG 1.1//EN"
 "http://www.w3.org/Graphics/SVG/1.1/DTD/svg11.dtd">
<!-- Generated by graphviz version 2.40.1 (20161225.0304)
 -->
<!-- Title: PARSERFUNC Pages: 1 -->
<svg width="286pt" height="46pt"
 viewBox="0.00 0.00 286.00 46.00" xmlns="http://www.w3.org/2000/svg" xmlns:xlink="http://www.w3.org/1999/xlink">
<g id="graph0" class="graph" transform="scale(1 1) rotate(0) translate(4 42)">
<title>PARSERFUNC</title>
<polygon fill="#ffffff" stroke="transparent" points="-4,4 -4,-42 282,-42 282,4 -4,4"/>
<!-- Node19 -->
<g id="node1" class="node">
<title>Node19</title>
<g id="a_node1"><a xlink:title=" ">
<polygon fill="#bfbfbf" stroke="#000000" points="0,-.5 0,-19.5 86,-19.5 86,-.5 0,-.5"/>
<text text-anchor="middle" x="43" y="-7.5" font-family="Helvetica,sans-Serif" font-size="10.00" fill="#000000">PARSERFUNC</text>
</a>
</g>
</g>
<!-- Node20 -->
<g id="node2" class="node">
<title>Node20</title>
<g id="a_node2"><a xlink:href="AST_8c.html#adc8be8765bd5abffeef1f5649587cb45" target="_top" xlink:title="Destructor for ast objects.">
<polygon fill="#ffffff" stroke="#000000" points="122,-.5 122,-19.5 180,-19.5 180,-.5 122,-.5"/>
<text text-anchor="middle" x="151" y="-7.5" font-family="Helvetica,sans-Serif" font-size="10.00" fill="#000000">AST_free</text>
</a>
</g>
</g>
<!-- Node19&#45;&gt;Node20 -->
<g id="edge1" class="edge">
<title>Node19&#45;&gt;Node20</title>
<path fill="none" stroke="#191970" d="M86.3054,-10C94.723,-10 103.5017,-10 111.7786,-10"/>
<polygon fill="#191970" stroke="#191970" points="111.9293,-13.5001 121.9292,-10 111.9292,-6.5001 111.9293,-13.5001"/>
</g>
<!-- Node20&#45;&gt;Node20 -->
<g id="edge2" class="edge">
<title>Node20&#45;&gt;Node20</title>
<path fill="none" stroke="#191970" d="M136.2036,-19.7571C129.0054,-28.5653 133.9375,-38 151,-38 161.6641,-38 167.5897,-34.3146 168.7769,-29.4"/>
<polygon fill="#191970" stroke="#191970" points="172.0934,-28.2775 165.7964,-19.7571 165.4056,-30.3447 172.0934,-28.2775"/>
</g>
<!-- Node21 -->
<g id="node3" class="node">
<title>Node21</title>
<g id="a_node3"><a xlink:href="token_8h.html#a863ec10d282f1f7e0dbbbaae6cec4f15" target="_top" xlink:title="Destroys a token object.Also frees the token&#39;s value.">
<polygon fill="#ffffff" stroke="#000000" points="216,-.5 216,-19.5 278,-19.5 278,-.5 216,-.5"/>
<text text-anchor="middle" x="247" y="-7.5" font-family="Helvetica,sans-Serif" font-size="10.00" fill="#000000">token_free</text>
</a>
</g>
</g>
<!-- Node20&#45;&gt;Node21 -->
<g id="edge3" class="edge">
<title>Node20&#45;&gt;Node21</title>
<path fill="none" stroke="#191970" d="M180.0637,-10C188.0674,-10 196.9077,-10 205.4683,-10"/>
<polygon fill="#191970" stroke="#191970" points="205.6968,-13.5001 215.6968,-10 205.6967,-6.5001 205.6968,-13.5001"/>
</g>
</g>
</svg>
