<?xml version="1.0" encoding="UTF-8" standalone="no"?>
<!DOCTYPE svg PUBLIC "-//W3C//DTD SVG 1.1//EN"
 "http://www.w3.org/Graphics/SVG/1.1/DTD/svg11.dtd">
<!-- Generated by graphviz version 2.40.1 (20161225.0304)
 -->
<!-- Title: parser/include/parser.h Pages: 1 -->
<svg width="864pt" height="476pt"
 viewBox="0.00 0.00 864.00 476.00" xmlns="http://www.w3.org/2000/svg" xmlns:xlink="http://www.w3.org/1999/xlink">
<g id="graph0" class="graph" transform="scale(1 1) rotate(0) translate(4 472)">
<title>parser/include/parser.h</title>
<polygon fill="#ffffff" stroke="transparent" points="-4,4 -4,-472 860,-472 860,4 -4,4"/>
<!-- Node0 -->
<g id="node1" class="node">
<title>Node0</title>
<g id="a_node1"><a xlink:title=" ">
<polygon fill="#bfbfbf" stroke="#000000" points="508.5,-448.5 508.5,-467.5 623.5,-467.5 623.5,-448.5 508.5,-448.5"/>
<text text-anchor="middle" x="566" y="-455.5" font-family="Helvetica,sans-Serif" font-size="10.00" fill="#000000">parser/include/parser.h</text>
</a>
</g>
</g>
<!-- Node1 -->
<g id="node2" class="node">
<title>Node1</title>
<g id="a_node2"><a xlink:href="AST_8h.html" target="_top" xlink:title=" ">
<polygon fill="#ffffff" stroke="#000000" points="304,-392.5 304,-411.5 348,-411.5 348,-392.5 304,-392.5"/>
<text text-anchor="middle" x="326" y="-399.5" font-family="Helvetica,sans-Serif" font-size="10.00" fill="#000000">AST.h</text>
</a>
</g>
</g>
<!-- Node0&#45;&gt;Node1 -->
<g id="edge1" class="edge">
<title>Node0&#45;&gt;Node1</title>
<path fill="none" stroke="#191970" d="M525.0152,-448.4369C477.7685,-437.4126 401.1038,-419.5242 358.0207,-409.4715"/>
<polygon fill="#191970" stroke="#191970" points="358.6178,-406.0169 348.084,-407.1529 357.0271,-412.8338 358.6178,-406.0169"/>
</g>
<!-- Node2 -->
<g id="node3" class="node">
<title>Node2</title>
<g id="a_node3"><a xlink:title=" ">
<polygon fill="#ffffff" stroke="#bfbfbf" points="51.5,-.5 51.5,-19.5 100.5,-19.5 100.5,-.5 51.5,-.5"/>
<text text-anchor="middle" x="76" y="-7.5" font-family="Helvetica,sans-Serif" font-size="10.00" fill="#000000">stdint.h</text>
</a>
</g>
</g>
<!-- Node0&#45;&gt;Node2 -->
<g id="edge35" class="edge">
<title>Node0&#45;&gt;Node2</title>
<path fill="none" stroke="#191970" d="M508.3513,-452.6263C364.2769,-438.4243 0,-397.4306 0,-346 0,-346 0,-346 0,-122 0,-82.2361 33.2071,-46.1042 55.7208,-26.177"/>
<polygon fill="#191970" stroke="#191970" points="58.1079,-28.7412 63.4501,-19.5918 53.5683,-23.4128 58.1079,-28.7412"/>
</g>
<!-- Node10 -->
<g id="node11" class="node">
<title>Node10</title>
<g id="a_node11"><a xlink:title=" ">
<polygon fill="#ffffff" stroke="#bfbfbf" points="728,-.5 728,-19.5 784,-19.5 784,-.5 728,-.5"/>
<text text-anchor="middle" x="756" y="-7.5" font-family="Helvetica,sans-Serif" font-size="10.00" fill="#000000">stdbool.h</text>
</a>
</g>
</g>
<!-- Node0&#45;&gt;Node10 -->
<g id="edge34" class="edge">
<title>Node0&#45;&gt;Node10</title>
<path fill="none" stroke="#191970" d="M620.5468,-448.454C704.5527,-432.182 856,-395.9237 856,-346 856,-346 856,-346 856,-122 856,-91.4754 855.8909,-79.9768 837,-56 825.811,-41.7985 808.9468,-31.228 793.4982,-23.8256"/>
<polygon fill="#191970" stroke="#191970" points="794.6822,-20.5207 784.1256,-19.6217 791.8175,-26.9077 794.6822,-20.5207"/>
</g>
<!-- Node18 -->
<g id="node19" class="node">
<title>Node18</title>
<g id="a_node19"><a xlink:href="error_8h.html" target="_top" xlink:title=" ">
<polygon fill="#ffffff" stroke="#000000" points="784,-56.5 784,-75.5 828,-75.5 828,-56.5 784,-56.5"/>
<text text-anchor="middle" x="806" y="-63.5" font-family="Helvetica,sans-Serif" font-size="10.00" fill="#000000">error.h</text>
</a>
</g>
</g>
<!-- Node0&#45;&gt;Node18 -->
<g id="edge31" class="edge">
<title>Node0&#45;&gt;Node18</title>
<path fill="none" stroke="#191970" d="M604.5602,-448.4979C672.4026,-430.6442 806,-389.9113 806,-346 806,-346 806,-346 806,-178 806,-145.7116 806,-108.1872 806,-85.8048"/>
<polygon fill="#191970" stroke="#191970" points="809.5001,-85.5883 806,-75.5884 802.5001,-85.5884 809.5001,-85.5883"/>
</g>
<!-- Node1&#45;&gt;Node2 -->
<g id="edge2" class="edge">
<title>Node1&#45;&gt;Node2</title>
<path fill="none" stroke="#191970" d="M303.8793,-398.3349C236.4406,-386.5427 38,-347.0008 38,-290 38,-290 38,-290 38,-122 38,-87.6118 54.2634,-50.2832 65.511,-28.5791"/>
<polygon fill="#191970" stroke="#191970" points="68.7317,-29.9804 70.393,-19.5166 62.569,-26.6605 68.7317,-29.9804"/>
</g>
<!-- Node3 -->
<g id="node4" class="node">
<title>Node3</title>
<g id="a_node4"><a xlink:href="token_8h.html" target="_top" xlink:title=" ">
<polygon fill="#ffffff" stroke="#000000" points="301.5,-336.5 301.5,-355.5 350.5,-355.5 350.5,-336.5 301.5,-336.5"/>
<text text-anchor="middle" x="326" y="-343.5" font-family="Helvetica,sans-Serif" font-size="10.00" fill="#000000">token.h</text>
</a>
</g>
</g>
<!-- Node1&#45;&gt;Node3 -->
<g id="edge3" class="edge">
<title>Node1&#45;&gt;Node3</title>
<path fill="none" stroke="#191970" d="M326,-392.2455C326,-384.9382 326,-374.6944 326,-365.7046"/>
<polygon fill="#191970" stroke="#191970" points="329.5001,-365.6426 326,-355.6427 322.5001,-365.6427 329.5001,-365.6426"/>
</g>
<!-- Node3&#45;&gt;Node2 -->
<g id="edge30" class="edge">
<title>Node3&#45;&gt;Node2</title>
<path fill="none" stroke="#191970" d="M301.1151,-340.4576C237.8805,-325.6577 76,-282.9861 76,-234 76,-234 76,-234 76,-122 76,-89.7116 76,-52.1872 76,-29.8048"/>
<polygon fill="#191970" stroke="#191970" points="79.5001,-29.5883 76,-19.5884 72.5001,-29.5884 79.5001,-29.5883"/>
</g>
<!-- Node4 -->
<g id="node5" class="node">
<title>Node4</title>
<g id="a_node5"><a xlink:href="builtins_8h.html" target="_top" xlink:title=" ">
<polygon fill="#ffffff" stroke="#000000" points="298,-280.5 298,-299.5 354,-299.5 354,-280.5 298,-280.5"/>
<text text-anchor="middle" x="326" y="-287.5" font-family="Helvetica,sans-Serif" font-size="10.00" fill="#000000">builtins.h</text>
</a>
</g>
</g>
<!-- Node3&#45;&gt;Node4 -->
<g id="edge4" class="edge">
<title>Node3&#45;&gt;Node4</title>
<path fill="none" stroke="#191970" d="M326,-336.2455C326,-328.9382 326,-318.6944 326,-309.7046"/>
<polygon fill="#191970" stroke="#191970" points="329.5001,-309.6426 326,-299.6427 322.5001,-309.6427 329.5001,-309.6426"/>
</g>
<!-- Node3&#45;&gt;Node10 -->
<g id="edge29" class="edge">
<title>Node3&#45;&gt;Node10</title>
<path fill="none" stroke="#191970" d="M350.5584,-343.8935C433.0178,-336.2723 697.689,-307.1874 749,-244 800.2533,-180.8837 775.679,-73.5205 762.4883,-29.6036"/>
<polygon fill="#191970" stroke="#191970" points="765.7675,-28.3635 759.4331,-19.8708 759.0888,-30.46 765.7675,-28.3635"/>
</g>
<!-- Node5 -->
<g id="node6" class="node">
<title>Node5</title>
<g id="a_node6"><a xlink:href="builtinutils_8h.html" target="_top" xlink:title=" ">
<polygon fill="#ffffff" stroke="#000000" points="119,-.5 119,-19.5 187,-19.5 187,-.5 119,-.5"/>
<text text-anchor="middle" x="153" y="-7.5" font-family="Helvetica,sans-Serif" font-size="10.00" fill="#000000">builtinutils.h</text>
</a>
</g>
</g>
<!-- Node4&#45;&gt;Node5 -->
<g id="edge5" class="edge">
<title>Node4&#45;&gt;Node5</title>
<path fill="none" stroke="#191970" d="M297.848,-288.0064C240.1799,-282.2344 114,-260.2116 114,-178 114,-178 114,-178 114,-122 114,-87.5398 130.6696,-50.2666 142.2124,-28.5877"/>
<polygon fill="#191970" stroke="#191970" points="145.3006,-30.2355 147.0767,-19.7906 139.1748,-26.8481 145.3006,-30.2355"/>
</g>
<!-- Node6 -->
<g id="node7" class="node">
<title>Node6</title>
<g id="a_node7"><a xlink:href="helios__code_8h.html" target="_top" xlink:title=" ">
<polygon fill="#ffffff" stroke="#000000" points="354.5,-224.5 354.5,-243.5 431.5,-243.5 431.5,-224.5 354.5,-224.5"/>
<text text-anchor="middle" x="393" y="-231.5" font-family="Helvetica,sans-Serif" font-size="10.00" fill="#000000">helios_code.h</text>
</a>
</g>
</g>
<!-- Node4&#45;&gt;Node6 -->
<g id="edge6" class="edge">
<title>Node4&#45;&gt;Node6</title>
<path fill="none" stroke="#191970" d="M337.6705,-280.2455C347.5661,-271.9746 361.9627,-259.9416 373.5901,-250.2232"/>
<polygon fill="#191970" stroke="#191970" points="376.035,-252.7413 381.4632,-243.6427 371.5458,-247.3703 376.035,-252.7413"/>
</g>
<!-- Node7 -->
<g id="node8" class="node">
<title>Node7</title>
<g id="a_node8"><a xlink:href="helios__object_8h.html" target="_top" xlink:title=" ">
<polygon fill="#ffffff" stroke="#000000" points="352,-168.5 352,-187.5 434,-187.5 434,-168.5 352,-168.5"/>
<text text-anchor="middle" x="393" y="-175.5" font-family="Helvetica,sans-Serif" font-size="10.00" fill="#000000">helios_object.h</text>
</a>
</g>
</g>
<!-- Node4&#45;&gt;Node7 -->
<g id="edge23" class="edge">
<title>Node4&#45;&gt;Node7</title>
<path fill="none" stroke="#191970" d="M327.3607,-280.4274C329.5961,-267.0124 334.9481,-242.2221 346,-224 352.8692,-212.6742 363.1651,-202.1665 372.371,-194.0613"/>
<polygon fill="#191970" stroke="#191970" points="374.6609,-196.7088 380.067,-187.597 370.1587,-191.3488 374.6609,-196.7088"/>
</g>
<!-- Node9 -->
<g id="node10" class="node">
<title>Node9</title>
<g id="a_node10"><a xlink:href="helios__memory_8h.html" target="_top" xlink:title=" ">
<polygon fill="#ffffff" stroke="#000000" points="180,-56.5 180,-75.5 270,-75.5 270,-56.5 180,-56.5"/>
<text text-anchor="middle" x="225" y="-63.5" font-family="Helvetica,sans-Serif" font-size="10.00" fill="#000000">helios_memory.h</text>
</a>
</g>
</g>
<!-- Node4&#45;&gt;Node9 -->
<g id="edge26" class="edge">
<title>Node4&#45;&gt;Node9</title>
<path fill="none" stroke="#191970" d="M297.7824,-286.7951C269.2706,-282.1225 225.7197,-270.8397 199,-244 157.1371,-201.949 156.293,-166.8195 179,-112 183.8312,-100.3363 193.2137,-90.0881 202.2518,-82.243"/>
<polygon fill="#191970" stroke="#191970" points="204.7266,-84.7436 210.3148,-75.7423 200.333,-79.2942 204.7266,-84.7436"/>
</g>
<!-- Node13 -->
<g id="node14" class="node">
<title>Node13</title>
<g id="a_node14"><a xlink:href="helios__float_8h.html" target="_top" xlink:title=" ">
<polygon fill="#ffffff" stroke="#000000" points="450,-224.5 450,-243.5 524,-243.5 524,-224.5 450,-224.5"/>
<text text-anchor="middle" x="487" y="-231.5" font-family="Helvetica,sans-Serif" font-size="10.00" fill="#000000">helios_float.h</text>
</a>
</g>
</g>
<!-- Node4&#45;&gt;Node13 -->
<g id="edge16" class="edge">
<title>Node4&#45;&gt;Node13</title>
<path fill="none" stroke="#191970" d="M353.6769,-280.3733C380.3328,-271.1016 420.8238,-257.0178 450.1884,-246.804"/>
<polygon fill="#191970" stroke="#191970" points="451.3891,-250.0921 459.6843,-243.5011 449.0895,-243.4807 451.3891,-250.0921"/>
</g>
<!-- Node14 -->
<g id="node15" class="node">
<title>Node14</title>
<g id="a_node15"><a xlink:href="helios__hashmap_8h.html" target="_top" xlink:title=" ">
<polygon fill="#ffffff" stroke="#000000" points="644.5,-224.5 644.5,-243.5 739.5,-243.5 739.5,-224.5 644.5,-224.5"/>
<text text-anchor="middle" x="692" y="-231.5" font-family="Helvetica,sans-Serif" font-size="10.00" fill="#000000">helios_hashmap.h</text>
</a>
</g>
</g>
<!-- Node4&#45;&gt;Node14 -->
<g id="edge18" class="edge">
<title>Node4&#45;&gt;Node14</title>
<path fill="none" stroke="#191970" d="M354.1571,-286.0572C406.9228,-278.615 524.5146,-261.777 634.4946,-244.048"/>
<polygon fill="#191970" stroke="#191970" points="635.1172,-247.4928 644.4298,-242.4405 633.9991,-240.5827 635.1172,-247.4928"/>
</g>
<!-- Node15 -->
<g id="node16" class="node">
<title>Node15</title>
<g id="a_node16"><a xlink:href="helios__integer_8h.html" target="_top" xlink:title=" ">
<polygon fill="#ffffff" stroke="#000000" points="542,-224.5 542,-243.5 626,-243.5 626,-224.5 542,-224.5"/>
<text text-anchor="middle" x="584" y="-231.5" font-family="Helvetica,sans-Serif" font-size="10.00" fill="#000000">helios_integer.h</text>
</a>
</g>
</g>
<!-- Node4&#45;&gt;Node15 -->
<g id="edge21" class="edge">
<title>Node4&#45;&gt;Node15</title>
<path fill="none" stroke="#191970" d="M354.1017,-283.9004C396.6765,-274.6594 478.2342,-256.9569 531.8748,-245.314"/>
<polygon fill="#191970" stroke="#191970" points="532.8503,-248.6839 541.8803,-243.1423 531.3654,-241.8431 532.8503,-248.6839"/>
</g>
<!-- Node16 -->
<g id="node17" class="node">
<title>Node16</title>
<g id="a_node17"><a xlink:href="helios__string_8h.html" target="_top" xlink:title=" ">
<polygon fill="#ffffff" stroke="#000000" points="218,-224.5 218,-243.5 298,-243.5 298,-224.5 218,-224.5"/>
<text text-anchor="middle" x="258" y="-231.5" font-family="Helvetica,sans-Serif" font-size="10.00" fill="#000000">helios_string.h</text>
</a>
</g>
</g>
<!-- Node4&#45;&gt;Node16 -->
<g id="edge24" class="edge">
<title>Node4&#45;&gt;Node16</title>
<path fill="none" stroke="#191970" d="M314.1553,-280.2455C304.112,-271.9746 289.5005,-259.9416 277.6996,-250.2232"/>
<polygon fill="#191970" stroke="#191970" points="279.6533,-247.298 269.709,-243.6427 275.2033,-252.7015 279.6533,-247.298"/>
</g>
<!-- Node17 -->
<g id="node18" class="node">
<title>Node17</title>
<g id="a_node18"><a xlink:href="serialize_8h.html" target="_top" xlink:title=" ">
<polygon fill="#ffffff" stroke="#000000" points="187.5,-168.5 187.5,-187.5 248.5,-187.5 248.5,-168.5 187.5,-168.5"/>
<text text-anchor="middle" x="218" y="-175.5" font-family="Helvetica,sans-Serif" font-size="10.00" fill="#000000">serialize.h</text>
</a>
</g>
</g>
<!-- Node4&#45;&gt;Node17 -->
<g id="edge27" class="edge">
<title>Node4&#45;&gt;Node17</title>
<path fill="none" stroke="#191970" d="M297.9669,-282.8777C266.766,-274.3168 219.354,-259.1963 209,-244 199.6732,-230.3113 203.6007,-211.2791 208.8705,-197.1682"/>
<polygon fill="#191970" stroke="#191970" points="212.114,-198.4841 212.7746,-187.9098 205.664,-195.7642 212.114,-198.4841"/>
</g>
<!-- Node6&#45;&gt;Node7 -->
<g id="edge7" class="edge">
<title>Node6&#45;&gt;Node7</title>
<path fill="none" stroke="#191970" d="M393,-224.2455C393,-216.9382 393,-206.6944 393,-197.7046"/>
<polygon fill="#191970" stroke="#191970" points="396.5001,-197.6426 393,-187.6427 389.5001,-197.6427 396.5001,-197.6426"/>
</g>
<!-- Node8 -->
<g id="node9" class="node">
<title>Node8</title>
<g id="a_node9"><a xlink:href="helios__type_8h.html" target="_top" xlink:title=" ">
<polygon fill="#ffffff" stroke="#000000" points="188,-112.5 188,-131.5 262,-131.5 262,-112.5 188,-112.5"/>
<text text-anchor="middle" x="225" y="-119.5" font-family="Helvetica,sans-Serif" font-size="10.00" fill="#000000">helios_type.h</text>
</a>
</g>
</g>
<!-- Node7&#45;&gt;Node8 -->
<g id="edge8" class="edge">
<title>Node7&#45;&gt;Node8</title>
<path fill="none" stroke="#191970" d="M364.1198,-168.3733C336.1839,-159.0613 293.6858,-144.8953 263.0131,-134.671"/>
<polygon fill="#191970" stroke="#191970" points="264.097,-131.3431 253.5034,-131.5011 261.8834,-137.9839 264.097,-131.3431"/>
</g>
<!-- Node8&#45;&gt;Node2 -->
<g id="edge14" class="edge">
<title>Node8&#45;&gt;Node2</title>
<path fill="none" stroke="#191970" d="M212.2963,-112.4509C186.5652,-93.1094 128.0789,-49.1465 96.7408,-25.5904"/>
<polygon fill="#191970" stroke="#191970" points="98.7681,-22.7358 88.6715,-19.5249 94.5621,-28.3313 98.7681,-22.7358"/>
</g>
<!-- Node8&#45;&gt;Node9 -->
<g id="edge9" class="edge">
<title>Node8&#45;&gt;Node9</title>
<path fill="none" stroke="#191970" d="M225,-112.2455C225,-104.9382 225,-94.6944 225,-85.7046"/>
<polygon fill="#191970" stroke="#191970" points="228.5001,-85.6426 225,-75.6427 221.5001,-85.6427 228.5001,-85.6426"/>
</g>
<!-- Node12 -->
<g id="node13" class="node">
<title>Node12</title>
<g id="a_node13"><a xlink:title=" ">
<polygon fill="#ffffff" stroke="#bfbfbf" points="288,-56.5 288,-75.5 336,-75.5 336,-56.5 288,-56.5"/>
<text text-anchor="middle" x="312" y="-63.5" font-family="Helvetica,sans-Serif" font-size="10.00" fill="#000000">stdlib.h</text>
</a>
</g>
</g>
<!-- Node8&#45;&gt;Node12 -->
<g id="edge15" class="edge">
<title>Node8&#45;&gt;Node12</title>
<path fill="none" stroke="#191970" d="M240.1542,-112.2455C253.5027,-103.6534 273.1586,-91.0014 288.5383,-81.1018"/>
<polygon fill="#191970" stroke="#191970" points="290.5051,-83.9982 297.0194,-75.6427 286.7164,-78.1121 290.5051,-83.9982"/>
</g>
<!-- Node9&#45;&gt;Node2 -->
<g id="edge13" class="edge">
<title>Node9&#45;&gt;Node2</title>
<path fill="none" stroke="#191970" d="M199.386,-56.3733C174.7831,-47.1265 137.4452,-33.0935 110.2872,-22.8865"/>
<polygon fill="#191970" stroke="#191970" points="111.3767,-19.557 100.7847,-19.315 108.914,-26.1095 111.3767,-19.557"/>
</g>
<!-- Node9&#45;&gt;Node5 -->
<g id="edge10" class="edge">
<title>Node9&#45;&gt;Node5</title>
<path fill="none" stroke="#191970" d="M212.4586,-56.2455C201.7213,-47.8943 186.0527,-35.7076 173.4953,-25.9408"/>
<polygon fill="#191970" stroke="#191970" points="175.4401,-23.0194 165.3977,-19.6427 171.1425,-28.5449 175.4401,-23.0194"/>
</g>
<!-- Node9&#45;&gt;Node10 -->
<g id="edge11" class="edge">
<title>Node9&#45;&gt;Node10</title>
<path fill="none" stroke="#191970" d="M270.0334,-57.3577C273.0632,-56.8697 276.0731,-56.4113 279,-56 441.4248,-33.1729 636.5742,-18.2234 717.7156,-12.5563"/>
<polygon fill="#191970" stroke="#191970" points="718.2074,-16.0307 727.9421,-11.8492 717.7245,-9.0474 718.2074,-16.0307"/>
</g>
<!-- Node11 -->
<g id="node12" class="node">
<title>Node11</title>
<g id="a_node12"><a xlink:title=" ">
<polygon fill="#ffffff" stroke="#bfbfbf" points="205,-.5 205,-19.5 257,-19.5 257,-.5 205,-.5"/>
<text text-anchor="middle" x="231" y="-7.5" font-family="Helvetica,sans-Serif" font-size="10.00" fill="#000000">stddef.h</text>
</a>
</g>
</g>
<!-- Node9&#45;&gt;Node11 -->
<g id="edge12" class="edge">
<title>Node9&#45;&gt;Node11</title>
<path fill="none" stroke="#191970" d="M226.0451,-56.2455C226.828,-48.9382 227.9256,-38.6944 228.8888,-29.7046"/>
<polygon fill="#191970" stroke="#191970" points="232.3815,-29.9587 229.9669,-19.6427 225.4214,-29.2129 232.3815,-29.9587"/>
</g>
<!-- Node13&#45;&gt;Node7 -->
<g id="edge17" class="edge">
<title>Node13&#45;&gt;Node7</title>
<path fill="none" stroke="#191970" d="M470.6264,-224.2455C456.0692,-215.5731 434.569,-202.7645 417.8848,-192.825"/>
<polygon fill="#191970" stroke="#191970" points="419.5683,-189.7539 409.1859,-187.6427 415.9856,-195.7676 419.5683,-189.7539"/>
</g>
<!-- Node14&#45;&gt;Node7 -->
<g id="edge19" class="edge">
<title>Node14&#45;&gt;Node7</title>
<path fill="none" stroke="#191970" d="M644.2919,-225.0647C589.6566,-214.832 500.4795,-198.1299 444.3588,-187.619"/>
<polygon fill="#191970" stroke="#191970" points="444.7538,-184.1322 434.2803,-185.7314 443.4651,-191.0126 444.7538,-184.1322"/>
</g>
<!-- Node14&#45;&gt;Node10 -->
<g id="edge20" class="edge">
<title>Node14&#45;&gt;Node10</title>
<path fill="none" stroke="#191970" d="M694.6369,-224.3316C701.9614,-197.5375 723.2513,-120.079 742,-56 744.5427,-47.3096 747.4441,-37.7253 749.9437,-29.5648"/>
<polygon fill="#191970" stroke="#191970" points="753.3365,-30.4393 752.9342,-19.8521 746.6464,-28.3794 753.3365,-30.4393"/>
</g>
<!-- Node15&#45;&gt;Node7 -->
<g id="edge22" class="edge">
<title>Node15&#45;&gt;Node7</title>
<path fill="none" stroke="#191970" d="M551.1659,-224.3733C519.1305,-214.9807 470.2513,-200.6496 435.3145,-190.4064"/>
<polygon fill="#191970" stroke="#191970" points="435.9864,-186.9561 425.4056,-187.5011 434.0169,-193.6733 435.9864,-186.9561"/>
</g>
<!-- Node16&#45;&gt;Node7 -->
<g id="edge25" class="edge">
<title>Node16&#45;&gt;Node7</title>
<path fill="none" stroke="#191970" d="M281.2073,-224.3733C303.1699,-215.2629 336.3332,-201.5062 360.8401,-191.3404"/>
<polygon fill="#191970" stroke="#191970" points="362.1997,-194.5657 370.0955,-187.5011 359.5176,-188.0999 362.1997,-194.5657"/>
</g>
<!-- Node17&#45;&gt;Node8 -->
<g id="edge28" class="edge">
<title>Node17&#45;&gt;Node8</title>
<path fill="none" stroke="#191970" d="M219.2193,-168.2455C220.1327,-160.9382 221.4132,-150.6944 222.5369,-141.7046"/>
<polygon fill="#191970" stroke="#191970" points="226.0272,-141.9996 223.7947,-131.6427 219.0813,-141.1313 226.0272,-141.9996"/>
</g>
<!-- Node18&#45;&gt;Node2 -->
<g id="edge33" class="edge">
<title>Node18&#45;&gt;Node2</title>
<path fill="none" stroke="#191970" d="M783.7544,-65.1893C682.4553,-61.3988 263.5472,-44.634 110.8302,-19.6904"/>
<polygon fill="#191970" stroke="#191970" points="111.1797,-16.1993 100.7319,-17.9581 109.9961,-23.0985 111.1797,-16.1993"/>
</g>
<!-- Node18&#45;&gt;Node10 -->
<g id="edge32" class="edge">
<title>Node18&#45;&gt;Node10</title>
<path fill="none" stroke="#191970" d="M797.2907,-56.2455C790.1927,-48.2958 779.9916,-36.8706 771.505,-27.3656"/>
<polygon fill="#191970" stroke="#191970" points="773.8805,-24.771 764.6095,-19.6427 768.6589,-29.4331 773.8805,-24.771"/>
</g>
</g>
</svg>
