<?xml version="1.0" encoding="UTF-8" standalone="no"?>
<!DOCTYPE svg PUBLIC "-//W3C//DTD SVG 1.1//EN"
 "http://www.w3.org/Graphics/SVG/1.1/DTD/svg11.dtd">
<!-- Generated by graphviz version 2.40.1 (20161225.0304)
 -->
<!-- Title: parser_expectchar Pages: 1 -->
<svg width="497pt" height="66pt"
 viewBox="0.00 0.00 497.00 66.00" xmlns="http://www.w3.org/2000/svg" xmlns:xlink="http://www.w3.org/1999/xlink">
<g id="graph0" class="graph" transform="scale(1 1) rotate(0) translate(4 62)">
<title>parser_expectchar</title>
<polygon fill="#ffffff" stroke="transparent" points="-4,4 -4,-62 493,-62 493,4 -4,4"/>
<!-- Node18 -->
<g id="node1" class="node">
<title>Node18</title>
<g id="a_node1"><a xlink:title="If the parser can accept the given character, accept it, else push an error on the parsers errorstack...">
<polygon fill="#bfbfbf" stroke="#000000" points="0,-19.5 0,-38.5 107,-38.5 107,-19.5 0,-19.5"/>
<text text-anchor="middle" x="53.5" y="-26.5" font-family="Helvetica,sans-Serif" font-size="10.00" fill="#000000">parser_expectchar</text>
</a>
</g>
</g>
<!-- Node19 -->
<g id="node2" class="node">
<title>Node19</title>
<g id="a_node2"><a xlink:href="parserutil_8c.html#a1a00af051004cb18edac760f39982eea" target="_top" xlink:title="Searches for the given character, advances the parser if it found it.">
<polygon fill="#ffffff" stroke="#000000" points="143,-38.5 143,-57.5 249,-57.5 249,-38.5 143,-38.5"/>
<text text-anchor="middle" x="196" y="-45.5" font-family="Helvetica,sans-Serif" font-size="10.00" fill="#000000">parser_acceptchar</text>
</a>
</g>
</g>
<!-- Node18&#45;&gt;Node19 -->
<g id="edge1" class="edge">
<title>Node18&#45;&gt;Node19</title>
<path fill="none" stroke="#191970" d="M107.3731,-36.1831C115.7571,-37.301 124.483,-38.4644 133.0468,-39.6062"/>
<polygon fill="#191970" stroke="#191970" points="132.6203,-43.0803 142.9952,-40.9327 133.5456,-36.1417 132.6203,-43.0803"/>
</g>
<!-- Node22 -->
<g id="node5" class="node">
<title>Node22</title>
<g id="a_node5"><a xlink:href="error_8c.html#ae07365063509d8944da638087336597b" target="_top" xlink:title="Construct a new error object out of parameters, and push it to the errorstack.">
<polygon fill="#ffffff" stroke="#000000" points="148.5,-.5 148.5,-19.5 243.5,-19.5 243.5,-.5 148.5,-.5"/>
<text text-anchor="middle" x="196" y="-7.5" font-family="Helvetica,sans-Serif" font-size="10.00" fill="#000000">errorstack_push</text>
</a>
</g>
</g>
<!-- Node18&#45;&gt;Node22 -->
<g id="edge4" class="edge">
<title>Node18&#45;&gt;Node22</title>
<path fill="none" stroke="#191970" d="M107.3731,-21.8169C117.4221,-20.4771 127.9622,-19.0717 138.1257,-17.7166"/>
<polygon fill="#191970" stroke="#191970" points="138.6818,-21.1735 148.1314,-16.3825 137.7566,-14.2349 138.6818,-21.1735"/>
</g>
<!-- Node20 -->
<g id="node3" class="node">
<title>Node20</title>
<g id="a_node3"><a xlink:href="parserutil_8c.html#a2d9e8c20025b7b883c4e87790685a6ad" target="_top" xlink:title="Proxy to parser_next.">
<polygon fill="#ffffff" stroke="#000000" points="285,-38.5 285,-57.5 379,-57.5 379,-38.5 285,-38.5"/>
<text text-anchor="middle" x="332" y="-45.5" font-family="Helvetica,sans-Serif" font-size="10.00" fill="#000000">parser_advance</text>
</a>
</g>
</g>
<!-- Node19&#45;&gt;Node20 -->
<g id="edge2" class="edge">
<title>Node19&#45;&gt;Node20</title>
<path fill="none" stroke="#191970" d="M249.3605,-48C257.7195,-48 266.3884,-48 274.8288,-48"/>
<polygon fill="#191970" stroke="#191970" points="274.9749,-51.5001 284.9748,-48 274.9748,-44.5001 274.9749,-51.5001"/>
</g>
<!-- Node21 -->
<g id="node4" class="node">
<title>Node21</title>
<g id="a_node4"><a xlink:href="parserutil_8c.html#ab25a97ff31329fe9461666bfe2dc6f2c" target="_top" xlink:title="Iterate the parser.">
<polygon fill="#ffffff" stroke="#000000" points="415,-38.5 415,-57.5 489,-57.5 489,-38.5 415,-38.5"/>
<text text-anchor="middle" x="452" y="-45.5" font-family="Helvetica,sans-Serif" font-size="10.00" fill="#000000">parser_next</text>
</a>
</g>
</g>
<!-- Node20&#45;&gt;Node21 -->
<g id="edge3" class="edge">
<title>Node20&#45;&gt;Node21</title>
<path fill="none" stroke="#191970" d="M379.0828,-48C387.4854,-48 396.2428,-48 404.6528,-48"/>
<polygon fill="#191970" stroke="#191970" points="404.6916,-51.5001 414.6916,-48 404.6916,-44.5001 404.6916,-51.5001"/>
</g>
</g>
</svg>
