<?xml version="1.0" encoding="UTF-8" standalone="no"?>
<!DOCTYPE svg PUBLIC "-//W3C//DTD SVG 1.1//EN"
 "http://www.w3.org/Graphics/SVG/1.1/DTD/svg11.dtd">
<!-- Generated by graphviz version 2.40.1 (20161225.0304)
 -->
<!-- Title: parser/include/parser.h Pages: 1 -->
<svg width="159pt" height="196pt"
 viewBox="0.00 0.00 159.40 196.00" xmlns="http://www.w3.org/2000/svg" xmlns:xlink="http://www.w3.org/1999/xlink">
<g id="graph0" class="graph" transform="scale(1 1) rotate(0) translate(4 192)">
<title>parser/include/parser.h</title>
<polygon fill="#ffffff" stroke="transparent" points="-4,4 -4,-192 155.3973,-192 155.3973,4 -4,4"/>
<!-- Node0 -->
<g id="node1" class="node">
<title>Node0</title>
<g id="a_node1"><a xlink:title=" ">
<polygon fill="#bfbfbf" stroke="#000000" points="28,-168.5 28,-187.5 143,-187.5 143,-168.5 28,-168.5"/>
<text text-anchor="middle" x="85.5" y="-175.5" font-family="Helvetica,sans-Serif" font-size="10.00" fill="#000000">parser/include/parser.h</text>
</a>
</g>
</g>
<!-- Node1 -->
<g id="node2" class="node">
<title>Node1</title>
<g id="a_node2"><a xlink:href="AST_8h.html" target="_top" xlink:title=" ">
<polygon fill="#ffffff" stroke="#000000" points="31.5,-112.5 31.5,-131.5 75.5,-131.5 75.5,-112.5 31.5,-112.5"/>
<text text-anchor="middle" x="53.5" y="-119.5" font-family="Helvetica,sans-Serif" font-size="10.00" fill="#000000">AST.h</text>
</a>
</g>
</g>
<!-- Node0&#45;&gt;Node1 -->
<g id="edge1" class="edge">
<title>Node0&#45;&gt;Node1</title>
<path fill="none" stroke="#191970" d="M79.926,-168.2455C75.5669,-160.617 69.3789,-149.7881 64.0867,-140.5267"/>
<polygon fill="#191970" stroke="#191970" points="67.0104,-138.5886 59.0101,-131.6427 60.9327,-142.0616 67.0104,-138.5886"/>
</g>
<!-- Node2 -->
<g id="node3" class="node">
<title>Node2</title>
<g id="a_node3"><a xlink:title=" ">
<polygon fill="#ffffff" stroke="#bfbfbf" points="0,-.5 0,-19.5 49,-19.5 49,-.5 0,-.5"/>
<text text-anchor="middle" x="24.5" y="-7.5" font-family="Helvetica,sans-Serif" font-size="10.00" fill="#000000">stdint.h</text>
</a>
</g>
</g>
<!-- Node0&#45;&gt;Node2 -->
<g id="edge10" class="edge">
<title>Node0&#45;&gt;Node2</title>
<path fill="none" stroke="#191970" d="M65.209,-168.4611C50.9585,-160.6789 32.6892,-148.3096 22.5,-132 2.8583,-100.5602 11.0051,-55.0939 18.1269,-29.4697"/>
<polygon fill="#191970" stroke="#191970" points="21.5062,-30.3857 21.0323,-19.8015 14.8023,-28.3711 21.5062,-30.3857"/>
</g>
<!-- Node4 -->
<g id="node5" class="node">
<title>Node4</title>
<g id="a_node5"><a xlink:title=" ">
<polygon fill="#ffffff" stroke="#bfbfbf" points="90.5,-.5 90.5,-19.5 146.5,-19.5 146.5,-.5 90.5,-.5"/>
<text text-anchor="middle" x="118.5" y="-7.5" font-family="Helvetica,sans-Serif" font-size="10.00" fill="#000000">stdbool.h</text>
</a>
</g>
</g>
<!-- Node0&#45;&gt;Node4 -->
<g id="edge9" class="edge">
<title>Node0&#45;&gt;Node4</title>
<path fill="none" stroke="#191970" d="M94.4063,-168.2444C109.3583,-151.1164 138.9097,-113.8487 149.5,-76 151.8952,-67.4399 152.0971,-64.501 149.5,-56 146.3591,-45.7192 140.0634,-35.6582 133.9612,-27.5799"/>
<polygon fill="#191970" stroke="#191970" points="136.5816,-25.2539 127.5741,-19.6757 131.137,-29.6535 136.5816,-25.2539"/>
</g>
<!-- Node5 -->
<g id="node6" class="node">
<title>Node5</title>
<g id="a_node6"><a xlink:href="error_8h.html" target="_top" xlink:title=" ">
<polygon fill="#ffffff" stroke="#000000" points="96.5,-56.5 96.5,-75.5 140.5,-75.5 140.5,-56.5 96.5,-56.5"/>
<text text-anchor="middle" x="118.5" y="-63.5" font-family="Helvetica,sans-Serif" font-size="10.00" fill="#000000">error.h</text>
</a>
</g>
</g>
<!-- Node0&#45;&gt;Node5 -->
<g id="edge6" class="edge">
<title>Node0&#45;&gt;Node5</title>
<path fill="none" stroke="#191970" d="M88.3136,-168.4509C93.7202,-150.1013 105.6563,-109.5908 112.793,-85.3693"/>
<polygon fill="#191970" stroke="#191970" points="116.2245,-86.1064 115.6936,-75.5249 109.5099,-84.128 116.2245,-86.1064"/>
</g>
<!-- Node1&#45;&gt;Node2 -->
<g id="edge2" class="edge">
<title>Node1&#45;&gt;Node2</title>
<path fill="none" stroke="#191970" d="M43.5638,-112.4913C35.324,-103.8654 24.2233,-90.3368 19.5,-76 14.5559,-60.9931 16.3653,-43.0668 19.0997,-29.6864"/>
<polygon fill="#191970" stroke="#191970" points="22.5708,-30.2192 21.4863,-19.68 15.7618,-28.5952 22.5708,-30.2192"/>
</g>
<!-- Node3 -->
<g id="node4" class="node">
<title>Node3</title>
<g id="a_node4"><a xlink:href="token_8h.html" target="_top" xlink:title=" ">
<polygon fill="#ffffff" stroke="#000000" points="29,-56.5 29,-75.5 78,-75.5 78,-56.5 29,-56.5"/>
<text text-anchor="middle" x="53.5" y="-63.5" font-family="Helvetica,sans-Serif" font-size="10.00" fill="#000000">token.h</text>
</a>
</g>
</g>
<!-- Node1&#45;&gt;Node3 -->
<g id="edge3" class="edge">
<title>Node1&#45;&gt;Node3</title>
<path fill="none" stroke="#191970" d="M53.5,-112.2455C53.5,-104.9382 53.5,-94.6944 53.5,-85.7046"/>
<polygon fill="#191970" stroke="#191970" points="57.0001,-85.6426 53.5,-75.6427 50.0001,-85.6427 57.0001,-85.6426"/>
</g>
<!-- Node3&#45;&gt;Node2 -->
<g id="edge5" class="edge">
<title>Node3&#45;&gt;Node2</title>
<path fill="none" stroke="#191970" d="M48.4486,-56.2455C44.4981,-48.617 38.8903,-37.7881 34.0942,-28.5267"/>
<polygon fill="#191970" stroke="#191970" points="37.2001,-26.9131 29.4935,-19.6427 30.9841,-30.1321 37.2001,-26.9131"/>
</g>
<!-- Node3&#45;&gt;Node4 -->
<g id="edge4" class="edge">
<title>Node3&#45;&gt;Node4</title>
<path fill="none" stroke="#191970" d="M64.8221,-56.2455C74.4223,-47.9746 88.3892,-35.9416 99.6695,-26.2232"/>
<polygon fill="#191970" stroke="#191970" points="102.016,-28.8214 107.3076,-19.6427 97.447,-23.5182 102.016,-28.8214"/>
</g>
<!-- Node5&#45;&gt;Node2 -->
<g id="edge8" class="edge">
<title>Node5&#45;&gt;Node2</title>
<path fill="none" stroke="#191970" d="M102.1264,-56.2455C87.5692,-47.5731 66.069,-34.7645 49.3848,-24.825"/>
<polygon fill="#191970" stroke="#191970" points="51.0683,-21.7539 40.6859,-19.6427 47.4856,-27.7676 51.0683,-21.7539"/>
</g>
<!-- Node5&#45;&gt;Node4 -->
<g id="edge7" class="edge">
<title>Node5&#45;&gt;Node4</title>
<path fill="none" stroke="#191970" d="M118.5,-56.2455C118.5,-48.9382 118.5,-38.6944 118.5,-29.7046"/>
<polygon fill="#191970" stroke="#191970" points="122.0001,-29.6426 118.5,-19.6427 115.0001,-29.6427 122.0001,-29.6426"/>
</g>
</g>
</svg>
