<?xml version="1.0" encoding="UTF-8" standalone="no"?>
<!DOCTYPE svg PUBLIC "-//W3C//DTD SVG 1.1//EN"
 "http://www.w3.org/Graphics/SVG/1.1/DTD/svg11.dtd">
<!-- Generated by graphviz version 2.40.1 (20161225.0304)
 -->
<!-- Title: parser/include/parser.h Pages: 1 -->
<svg width="864pt" height="95pt"
 viewBox="0.00 0.00 863.50 95.00" xmlns="http://www.w3.org/2000/svg" xmlns:xlink="http://www.w3.org/1999/xlink">
<g id="graph0" class="graph" transform="scale(1 1) rotate(0) translate(4 91)">
<title>parser/include/parser.h</title>
<polygon fill="#ffffff" stroke="transparent" points="-4,4 -4,-91 859.5,-91 859.5,4 -4,4"/>
<!-- Node19 -->
<g id="node1" class="node">
<title>Node19</title>
<g id="a_node1"><a xlink:title=" ">
<polygon fill="#bfbfbf" stroke="#000000" points="345.5,-67.5 345.5,-86.5 460.5,-86.5 460.5,-67.5 345.5,-67.5"/>
<text text-anchor="middle" x="403" y="-74.5" font-family="Helvetica,sans-Serif" font-size="10.00" fill="#000000">parser/include/parser.h</text>
</a>
</g>
</g>
<!-- Node20 -->
<g id="node2" class="node">
<title>Node20</title>
<g id="a_node2"><a xlink:href="main_8c.html" target="_top" xlink:title=" ">
<polygon fill="#ffffff" stroke="#000000" points="0,-6 0,-25 70,-25 70,-6 0,-6"/>
<text text-anchor="middle" x="35" y="-13" font-family="Helvetica,sans-Serif" font-size="10.00" fill="#000000">main/main.c</text>
</a>
</g>
</g>
<!-- Node19&#45;&gt;Node20 -->
<g id="edge1" class="edge">
<title>Node19&#45;&gt;Node20</title>
<path fill="none" stroke="#191970" d="M335.0034,-71.2899C268.9271,-64.8195 166.0901,-52.3 79,-31 72.5489,-29.4222 65.7162,-27.2649 59.4082,-25.0612"/>
<polygon fill="#191970" stroke="#191970" points="334.9959,-74.8052 345.2846,-72.2768 335.6648,-67.8372 334.9959,-74.8052"/>
</g>
<!-- Node21 -->
<g id="node3" class="node">
<title>Node21</title>
<g id="a_node3"><a xlink:href="AST_8c.html" target="_top" xlink:title=" ">
<polygon fill="#ffffff" stroke="#000000" points="88,-6 88,-25 162,-25 162,-6 88,-6"/>
<text text-anchor="middle" x="125" y="-13" font-family="Helvetica,sans-Serif" font-size="10.00" fill="#000000">parser/AST.c</text>
</a>
</g>
</g>
<!-- Node19&#45;&gt;Node21 -->
<g id="edge2" class="edge">
<title>Node19&#45;&gt;Node21</title>
<path fill="none" stroke="#191970" d="M335.348,-65.9672C288.7869,-57.7946 225.7089,-45.5756 171,-31 164.6483,-29.3078 157.8967,-27.2078 151.5787,-25.1057"/>
<polygon fill="#191970" stroke="#191970" points="334.8691,-69.4364 345.3207,-67.7002 336.0676,-62.5397 334.8691,-69.4364"/>
</g>
<!-- Node22 -->
<g id="node4" class="node">
<title>Node22</title>
<g id="a_node4"><a xlink:href="compound_8c.html" target="_top" xlink:title=" ">
<polygon fill="#ffffff" stroke="#000000" points="180,-.5 180,-30.5 278,-30.5 278,-.5 180,-.5"/>
<text text-anchor="start" x="188" y="-18.5" font-family="Helvetica,sans-Serif" font-size="10.00" fill="#000000">parser/parserfuncs</text>
<text text-anchor="middle" x="229" y="-7.5" font-family="Helvetica,sans-Serif" font-size="10.00" fill="#000000">/compound.c</text>
</a>
</g>
</g>
<!-- Node19&#45;&gt;Node22 -->
<g id="edge3" class="edge">
<title>Node19&#45;&gt;Node22</title>
<path fill="none" stroke="#191970" d="M366.119,-63.9645C338.4511,-54.1853 300.5201,-40.7786 271.5652,-30.5446"/>
<polygon fill="#191970" stroke="#191970" points="365.2177,-67.3581 375.8125,-67.3906 367.5505,-60.7582 365.2177,-67.3581"/>
</g>
<!-- Node23 -->
<g id="node5" class="node">
<title>Node23</title>
<g id="a_node5"><a xlink:href="expressions_8c.html" target="_top" xlink:title=" ">
<polygon fill="#ffffff" stroke="#000000" points="296,-.5 296,-30.5 394,-30.5 394,-.5 296,-.5"/>
<text text-anchor="start" x="304" y="-18.5" font-family="Helvetica,sans-Serif" font-size="10.00" fill="#000000">parser/parserfuncs</text>
<text text-anchor="middle" x="345" y="-7.5" font-family="Helvetica,sans-Serif" font-size="10.00" fill="#000000">/expressions.c</text>
</a>
</g>
</g>
<!-- Node19&#45;&gt;Node23 -->
<g id="edge4" class="edge">
<title>Node19&#45;&gt;Node23</title>
<path fill="none" stroke="#191970" d="M386.9027,-59.9314C378.2082,-50.7122 367.5701,-39.4321 359.1884,-30.5446"/>
<polygon fill="#191970" stroke="#191970" points="384.5302,-62.5169 393.9375,-67.3906 389.6227,-57.7142 384.5302,-62.5169"/>
</g>
<!-- Node24 -->
<g id="node6" class="node">
<title>Node24</title>
<g id="a_node6"><a xlink:href="floats_8c.html" target="_top" xlink:title=" ">
<polygon fill="#ffffff" stroke="#000000" points="412,-.5 412,-30.5 510,-30.5 510,-.5 412,-.5"/>
<text text-anchor="start" x="420" y="-18.5" font-family="Helvetica,sans-Serif" font-size="10.00" fill="#000000">parser/parserfuncs</text>
<text text-anchor="middle" x="461" y="-7.5" font-family="Helvetica,sans-Serif" font-size="10.00" fill="#000000">/floats.c</text>
</a>
</g>
</g>
<!-- Node19&#45;&gt;Node24 -->
<g id="edge5" class="edge">
<title>Node19&#45;&gt;Node24</title>
<path fill="none" stroke="#191970" d="M419.0973,-59.9314C427.7918,-50.7122 438.4299,-39.4321 446.8116,-30.5446"/>
<polygon fill="#191970" stroke="#191970" points="416.3773,-57.7142 412.0625,-67.3906 421.4698,-62.5169 416.3773,-57.7142"/>
</g>
<!-- Node25 -->
<g id="node7" class="node">
<title>Node25</title>
<g id="a_node7"><a xlink:href="integers_8c.html" target="_top" xlink:title=" ">
<polygon fill="#ffffff" stroke="#000000" points="528,-.5 528,-30.5 626,-30.5 626,-.5 528,-.5"/>
<text text-anchor="start" x="536" y="-18.5" font-family="Helvetica,sans-Serif" font-size="10.00" fill="#000000">parser/parserfuncs</text>
<text text-anchor="middle" x="577" y="-7.5" font-family="Helvetica,sans-Serif" font-size="10.00" fill="#000000">/integers.c</text>
</a>
</g>
</g>
<!-- Node19&#45;&gt;Node25 -->
<g id="edge6" class="edge">
<title>Node19&#45;&gt;Node25</title>
<path fill="none" stroke="#191970" d="M439.881,-63.9645C467.5489,-54.1853 505.4799,-40.7786 534.4348,-30.5446"/>
<polygon fill="#191970" stroke="#191970" points="438.4495,-60.7582 430.1875,-67.3906 440.7823,-67.3581 438.4495,-60.7582"/>
</g>
<!-- Node26 -->
<g id="node8" class="node">
<title>Node26</title>
<g id="a_node8"><a xlink:href="parser_8c.html" target="_top" xlink:title=" ">
<polygon fill="#ffffff" stroke="#000000" points="644,-.5 644,-30.5 742,-30.5 742,-.5 644,-.5"/>
<text text-anchor="start" x="652" y="-18.5" font-family="Helvetica,sans-Serif" font-size="10.00" fill="#000000">parser/parserfuncs</text>
<text text-anchor="middle" x="693" y="-7.5" font-family="Helvetica,sans-Serif" font-size="10.00" fill="#000000">/parser.c</text>
</a>
</g>
</g>
<!-- Node19&#45;&gt;Node26 -->
<g id="edge7" class="edge">
<title>Node19&#45;&gt;Node26</title>
<path fill="none" stroke="#191970" d="M466.1836,-65.6275C512.9683,-56.9266 578.1768,-44.2112 635,-31 637.8426,-30.3391 640.7572,-29.6374 643.6941,-28.9116"/>
<polygon fill="#191970" stroke="#191970" points="465.3892,-62.215 456.1932,-67.4766 466.6632,-69.0981 465.3892,-62.215"/>
</g>
<!-- Node27 -->
<g id="node9" class="node">
<title>Node27</title>
<g id="a_node9"><a xlink:href="parserutil_8c.html" target="_top" xlink:title=" ">
<polygon fill="#ffffff" stroke="#000000" points="760.5,-6 760.5,-25 855.5,-25 855.5,-6 760.5,-6"/>
<text text-anchor="middle" x="808" y="-13" font-family="Helvetica,sans-Serif" font-size="10.00" fill="#000000">parser/parserutil.c</text>
</a>
</g>
</g>
<!-- Node19&#45;&gt;Node27 -->
<g id="edge8" class="edge">
<title>Node19&#45;&gt;Node27</title>
<path fill="none" stroke="#191970" d="M470.7351,-70.7632C541.1885,-63.6428 654.4777,-50.4119 751,-31 759.1436,-29.3622 767.8403,-27.2091 775.9248,-25.0307"/>
<polygon fill="#191970" stroke="#191970" points="470.2609,-67.293 460.6582,-71.7694 470.9565,-74.2584 470.2609,-67.293"/>
</g>
</g>
</svg>
