<?xml version="1.0" encoding="UTF-8" standalone="no"?>
<!DOCTYPE svg PUBLIC "-//W3C//DTD SVG 1.1//EN"
 "http://www.w3.org/Graphics/SVG/1.1/DTD/svg11.dtd">
<!-- Generated by graphviz version 2.40.1 (20161225.0304)
 -->
<!-- Title: parser_parseString Pages: 1 -->
<svg width="503pt" height="256pt"
 viewBox="0.00 0.00 503.00 256.00" xmlns="http://www.w3.org/2000/svg" xmlns:xlink="http://www.w3.org/1999/xlink">
<g id="graph0" class="graph" transform="scale(1 1) rotate(0) translate(4 252)">
<title>parser_parseString</title>
<polygon fill="#ffffff" stroke="transparent" points="-4,4 -4,-252 499,-252 499,4 -4,4"/>
<!-- Node38 -->
<g id="node1" class="node">
<title>Node38</title>
<g id="a_node1"><a xlink:title="Parser Entrypoint.">
<polygon fill="#bfbfbf" stroke="#000000" points="0,-114.5 0,-133.5 108,-133.5 108,-114.5 0,-114.5"/>
<text text-anchor="middle" x="54" y="-121.5" font-family="Helvetica,sans-Serif" font-size="10.00" fill="#000000">parser_parseString</text>
</a>
</g>
</g>
<!-- Node39 -->
<g id="node2" class="node">
<title>Node39</title>
<g id="a_node2"><a xlink:href="parserutil_8c.html#a0caab33d4f000ec42c3ee0c70bc98d9e" target="_top" xlink:title="Removes comments from strings.">
<polygon fill="#ffffff" stroke="#000000" points="150.5,-228.5 150.5,-247.5 256.5,-247.5 256.5,-228.5 150.5,-228.5"/>
<text text-anchor="middle" x="203.5" y="-235.5" font-family="Helvetica,sans-Serif" font-size="10.00" fill="#000000">parser_preprocess</text>
</a>
</g>
</g>
<!-- Node38&#45;&gt;Node39 -->
<g id="edge1" class="edge">
<title>Node38&#45;&gt;Node39</title>
<path fill="none" stroke="#191970" d="M60.5043,-133.5979C73.9011,-152.6511 106.4823,-195.4388 144,-219 147.3145,-221.0815 150.8772,-222.9538 154.5521,-224.6344"/>
<polygon fill="#191970" stroke="#191970" points="153.2598,-227.8872 163.8409,-228.4273 155.9061,-221.4067 153.2598,-227.8872"/>
</g>
<!-- Node40 -->
<g id="node3" class="node">
<title>Node40</title>
<g id="a_node3"><a xlink:href="parserutil_8c.html#aeabb62e46d4414de7848d31d805ab834" target="_top" xlink:title="Parser constructor.">
<polygon fill="#ffffff" stroke="#000000" points="167,-190.5 167,-209.5 240,-209.5 240,-190.5 167,-190.5"/>
<text text-anchor="middle" x="203.5" y="-197.5" font-family="Helvetica,sans-Serif" font-size="10.00" fill="#000000">parser_new</text>
</a>
</g>
</g>
<!-- Node38&#45;&gt;Node40 -->
<g id="edge2" class="edge">
<title>Node38&#45;&gt;Node40</title>
<path fill="none" stroke="#191970" d="M66.8112,-133.6074C83.7419,-145.9453 114.8405,-167.385 144,-181 148.6702,-183.1806 153.6573,-185.2064 158.6826,-187.0598"/>
<polygon fill="#191970" stroke="#191970" points="157.7257,-190.4325 168.3205,-190.4067 160.0221,-183.8198 157.7257,-190.4325"/>
</g>
<!-- Node42 -->
<g id="node5" class="node">
<title>Node42</title>
<g id="a_node5"><a xlink:href="parserutil_8c.html#a2d9e8c20025b7b883c4e87790685a6ad" target="_top" xlink:title="Proxy to parser_next.">
<polygon fill="#ffffff" stroke="#000000" points="156.5,-152.5 156.5,-171.5 250.5,-171.5 250.5,-152.5 156.5,-152.5"/>
<text text-anchor="middle" x="203.5" y="-159.5" font-family="Helvetica,sans-Serif" font-size="10.00" fill="#000000">parser_advance</text>
</a>
</g>
</g>
<!-- Node38&#45;&gt;Node42 -->
<g id="edge4" class="edge">
<title>Node38&#45;&gt;Node42</title>
<path fill="none" stroke="#191970" d="M91.7252,-133.589C111.2756,-138.5583 135.3466,-144.6767 156.1374,-149.9613"/>
<polygon fill="#191970" stroke="#191970" points="155.4921,-153.4085 166.0461,-152.4799 157.2165,-146.6243 155.4921,-153.4085"/>
</g>
<!-- Node44 -->
<g id="node7" class="node">
<title>Node44</title>
<g id="a_node7"><a xlink:href="parser_8h.html#a909b31712182aae737a48cd819f43a2d" target="_top" xlink:title=" ">
<polygon fill="#ffffff" stroke="#000000" points="167.5,-114.5 167.5,-133.5 239.5,-133.5 239.5,-114.5 167.5,-114.5"/>
<text text-anchor="middle" x="203.5" y="-121.5" font-family="Helvetica,sans-Serif" font-size="10.00" fill="#000000">parser_root</text>
</a>
</g>
</g>
<!-- Node38&#45;&gt;Node44 -->
<g id="edge6" class="edge">
<title>Node38&#45;&gt;Node44</title>
<path fill="none" stroke="#191970" d="M108.3958,-124C124.269,-124 141.4676,-124 156.8185,-124"/>
<polygon fill="#191970" stroke="#191970" points="157.1119,-127.5001 167.1119,-124 157.1119,-120.5001 157.1119,-127.5001"/>
</g>
<!-- Node45 -->
<g id="node8" class="node">
<title>Node45</title>
<g id="a_node8"><a xlink:href="error_8c.html#afe7704a207cf18fb4e25c47dbdcc9ad1" target="_top" xlink:title="Return true if a given errorstack is empty.">
<polygon fill="#ffffff" stroke="#000000" points="152,-76.5 152,-95.5 255,-95.5 255,-76.5 152,-76.5"/>
<text text-anchor="middle" x="203.5" y="-83.5" font-family="Helvetica,sans-Serif" font-size="10.00" fill="#000000">errorstack_empty</text>
</a>
</g>
</g>
<!-- Node38&#45;&gt;Node45 -->
<g id="edge7" class="edge">
<title>Node38&#45;&gt;Node45</title>
<path fill="none" stroke="#191970" d="M91.7252,-114.411C111.2756,-109.4417 135.3466,-103.3233 156.1374,-98.0387"/>
<polygon fill="#191970" stroke="#191970" points="157.2165,-101.3757 166.0461,-95.5201 155.4921,-94.5915 157.2165,-101.3757"/>
</g>
<!-- Node46 -->
<g id="node9" class="node">
<title>Node46</title>
<g id="a_node9"><a xlink:href="error_8c.html#ac1a5f4603993df0ed53c953672a861d9" target="_top" xlink:title="Throw all errors on the errorstack.">
<polygon fill="#ffffff" stroke="#000000" points="144,-38.5 144,-57.5 263,-57.5 263,-38.5 144,-38.5"/>
<text text-anchor="middle" x="203.5" y="-45.5" font-family="Helvetica,sans-Serif" font-size="10.00" fill="#000000">errorstack_traceback</text>
</a>
</g>
</g>
<!-- Node38&#45;&gt;Node46 -->
<g id="edge8" class="edge">
<title>Node38&#45;&gt;Node46</title>
<path fill="none" stroke="#191970" d="M66.8112,-114.3926C83.7419,-102.0547 114.8405,-80.615 144,-67 148.6702,-64.8194 153.6573,-62.7936 158.6826,-60.9402"/>
<polygon fill="#191970" stroke="#191970" points="160.0221,-64.1802 168.3205,-57.5933 157.7257,-57.5675 160.0221,-64.1802"/>
</g>
<!-- Node50 -->
<g id="node13" class="node">
<title>Node50</title>
<g id="a_node13"><a xlink:href="parserutil_8c.html#a1ddd27828ac4848a4b9c05eb6190852f" target="_top" xlink:title="Parser destructor.">
<polygon fill="#ffffff" stroke="#000000" points="167.5,-.5 167.5,-19.5 239.5,-19.5 239.5,-.5 167.5,-.5"/>
<text text-anchor="middle" x="203.5" y="-7.5" font-family="Helvetica,sans-Serif" font-size="10.00" fill="#000000">parser_free</text>
</a>
</g>
</g>
<!-- Node38&#45;&gt;Node50 -->
<g id="edge12" class="edge">
<title>Node38&#45;&gt;Node50</title>
<path fill="none" stroke="#191970" d="M60.5043,-114.4021C73.9011,-95.3489 106.4823,-52.5612 144,-29 148.3089,-26.294 153.0371,-23.9417 157.8862,-21.9043"/>
<polygon fill="#191970" stroke="#191970" points="159.158,-25.1653 167.2817,-18.3642 156.6899,-18.6149 159.158,-25.1653"/>
</g>
<!-- Node41 -->
<g id="node4" class="node">
<title>Node41</title>
<g id="a_node4"><a xlink:href="error_8c.html#a5fb6ae420f7432560b40a73ac2bd6859" target="_top" xlink:title="Creates a new errorstack object.">
<polygon fill="#ffffff" stroke="#000000" points="299,-190.5 299,-209.5 391,-209.5 391,-190.5 299,-190.5"/>
<text text-anchor="middle" x="345" y="-197.5" font-family="Helvetica,sans-Serif" font-size="10.00" fill="#000000">errorstack_new</text>
</a>
</g>
</g>
<!-- Node40&#45;&gt;Node41 -->
<g id="edge3" class="edge">
<title>Node40&#45;&gt;Node41</title>
<path fill="none" stroke="#191970" d="M240.3081,-200C254.9517,-200 272.1376,-200 288.3035,-200"/>
<polygon fill="#191970" stroke="#191970" points="288.7426,-203.5001 298.7426,-200 288.7425,-196.5001 288.7426,-203.5001"/>
</g>
<!-- Node43 -->
<g id="node6" class="node">
<title>Node43</title>
<g id="a_node6"><a xlink:href="parserutil_8c.html#ab25a97ff31329fe9461666bfe2dc6f2c" target="_top" xlink:title="Iterate the parser.">
<polygon fill="#ffffff" stroke="#000000" points="308,-152.5 308,-171.5 382,-171.5 382,-152.5 308,-152.5"/>
<text text-anchor="middle" x="345" y="-159.5" font-family="Helvetica,sans-Serif" font-size="10.00" fill="#000000">parser_next</text>
</a>
</g>
</g>
<!-- Node42&#45;&gt;Node43 -->
<g id="edge5" class="edge">
<title>Node42&#45;&gt;Node43</title>
<path fill="none" stroke="#191970" d="M250.6175,-162C265.772,-162 282.5609,-162 297.7266,-162"/>
<polygon fill="#191970" stroke="#191970" points="297.9266,-165.5001 307.9265,-162 297.9265,-158.5001 297.9266,-165.5001"/>
</g>
<!-- Node47 -->
<g id="node10" class="node">
<title>Node47</title>
<g id="a_node10"><a xlink:href="error_8c.html#aadbe92bd95e3d1a125d27b6b30cc048a" target="_top" xlink:title=" ">
<polygon fill="#ffffff" stroke="#000000" points="308.5,-76.5 308.5,-95.5 381.5,-95.5 381.5,-76.5 308.5,-76.5"/>
<text text-anchor="middle" x="345" y="-83.5" font-family="Helvetica,sans-Serif" font-size="10.00" fill="#000000">error_throw</text>
</a>
</g>
</g>
<!-- Node46&#45;&gt;Node47 -->
<g id="edge9" class="edge">
<title>Node46&#45;&gt;Node47</title>
<path fill="none" stroke="#191970" d="M239.2064,-57.589C257.4727,-62.4944 279.9084,-68.5196 299.4112,-73.7571"/>
<polygon fill="#191970" stroke="#191970" points="298.7394,-77.2006 309.305,-76.4141 300.555,-70.4401 298.7394,-77.2006"/>
</g>
<!-- Node49 -->
<g id="node12" class="node">
<title>Node49</title>
<g id="a_node12"><a xlink:href="error_8c.html#ada8989f80d38ce7cae1936a543524c3b" target="_top" xlink:title="Return the top error of the errorstack.">
<polygon fill="#ffffff" stroke="#000000" points="301.5,-38.5 301.5,-57.5 388.5,-57.5 388.5,-38.5 301.5,-38.5"/>
<text text-anchor="middle" x="345" y="-45.5" font-family="Helvetica,sans-Serif" font-size="10.00" fill="#000000">errorstack_top</text>
</a>
</g>
</g>
<!-- Node46&#45;&gt;Node49 -->
<g id="edge11" class="edge">
<title>Node46&#45;&gt;Node49</title>
<path fill="none" stroke="#191970" d="M263.0986,-48C272.4277,-48 282.0221,-48 291.2108,-48"/>
<polygon fill="#191970" stroke="#191970" points="291.3772,-51.5001 301.3772,-48 291.3771,-44.5001 291.3772,-51.5001"/>
</g>
<!-- Node48 -->
<g id="node11" class="node">
<title>Node48</title>
<g id="a_node11"><a xlink:href="error_8c.html#a280084f31295d0ad8646299d4f4db9f2" target="_top" xlink:title="prints an error struct">
<polygon fill="#ffffff" stroke="#000000" points="427,-76.5 427,-95.5 495,-95.5 495,-76.5 427,-76.5"/>
<text text-anchor="middle" x="461" y="-83.5" font-family="Helvetica,sans-Serif" font-size="10.00" fill="#000000">error_print</text>
</a>
</g>
</g>
<!-- Node47&#45;&gt;Node48 -->
<g id="edge10" class="edge">
<title>Node47&#45;&gt;Node48</title>
<path fill="none" stroke="#191970" d="M381.7031,-86C392.7816,-86 405.064,-86 416.588,-86"/>
<polygon fill="#191970" stroke="#191970" points="416.9018,-89.5001 426.9018,-86 416.9018,-82.5001 416.9018,-89.5001"/>
</g>
<!-- Node51 -->
<g id="node14" class="node">
<title>Node51</title>
<g id="a_node14"><a xlink:href="error_8c.html#ab3088f45a2042abe4a3fda97af16f552" target="_top" xlink:title=" ">
<polygon fill="#ffffff" stroke="#000000" points="299.5,-.5 299.5,-19.5 390.5,-19.5 390.5,-.5 299.5,-.5"/>
<text text-anchor="middle" x="345" y="-7.5" font-family="Helvetica,sans-Serif" font-size="10.00" fill="#000000">errorstack_free</text>
</a>
</g>
</g>
<!-- Node50&#45;&gt;Node51 -->
<g id="edge13" class="edge">
<title>Node50&#45;&gt;Node51</title>
<path fill="none" stroke="#191970" d="M239.5725,-10C254.6258,-10 272.4616,-10 289.1408,-10"/>
<polygon fill="#191970" stroke="#191970" points="289.3414,-13.5001 299.3414,-10 289.3413,-6.5001 289.3414,-13.5001"/>
</g>
</g>
</svg>
