<?xml version="1.0" encoding="UTF-8" standalone="no"?>
<!DOCTYPE svg PUBLIC "-//W3C//DTD SVG 1.1//EN"
 "http://www.w3.org/Graphics/SVG/1.1/DTD/svg11.dtd">
<!-- Generated by graphviz version 2.40.1 (20161225.0304)
 -->
<!-- Title: generator/program.c Pages: 1 -->
<svg width="438pt" height="196pt"
 viewBox="0.00 0.00 437.50 196.00" xmlns="http://www.w3.org/2000/svg" xmlns:xlink="http://www.w3.org/1999/xlink">
<g id="graph0" class="graph" transform="scale(1 1) rotate(0) translate(4 192)">
<title>generator/program.c</title>
<polygon fill="#ffffff" stroke="transparent" points="-4,4 -4,-192 433.5,-192 433.5,4 -4,4"/>
<!-- Node0 -->
<g id="node1" class="node">
<title>Node0</title>
<g id="a_node1"><a xlink:title=" ">
<polygon fill="#bfbfbf" stroke="#000000" points="152,-168.5 152,-187.5 256,-187.5 256,-168.5 152,-168.5"/>
<text text-anchor="middle" x="204" y="-175.5" font-family="Helvetica,sans-Serif" font-size="10.00" fill="#000000">generator/program.c</text>
</a>
</g>
</g>
<!-- Node1 -->
<g id="node2" class="node">
<title>Node1</title>
<g id="a_node2"><a xlink:href="constant_8h.html" target="_top" xlink:title=" ">
<polygon fill="#ffffff" stroke="#000000" points="0,-56.5 0,-75.5 62,-75.5 62,-56.5 0,-56.5"/>
<text text-anchor="middle" x="31" y="-63.5" font-family="Helvetica,sans-Serif" font-size="10.00" fill="#000000">constant.h</text>
</a>
</g>
</g>
<!-- Node0&#45;&gt;Node1 -->
<g id="edge1" class="edge">
<title>Node0&#45;&gt;Node1</title>
<path fill="none" stroke="#191970" d="M154.6026,-168.4289C115.7232,-159.9611 65.7258,-146.6938 51,-132 38.8432,-119.8697 34.0306,-100.6127 32.1487,-86.0234"/>
<polygon fill="#191970" stroke="#191970" points="35.6247,-85.6023 31.2078,-75.972 28.6552,-86.2548 35.6247,-85.6023"/>
</g>
<!-- Node3 -->
<g id="node4" class="node">
<title>Node3</title>
<g id="a_node4"><a xlink:href="instruction_8h.html" target="_top" xlink:title=" ">
<polygon fill="#ffffff" stroke="#000000" points="118,-56.5 118,-75.5 188,-75.5 188,-56.5 118,-56.5"/>
<text text-anchor="middle" x="153" y="-63.5" font-family="Helvetica,sans-Serif" font-size="10.00" fill="#000000">instruction.h</text>
</a>
</g>
</g>
<!-- Node0&#45;&gt;Node3 -->
<g id="edge3" class="edge">
<title>Node0&#45;&gt;Node3</title>
<path fill="none" stroke="#191970" d="M193.9498,-168.3608C185.4719,-159.6513 173.6806,-146.0732 167,-132 160.0933,-117.4503 156.5671,-99.4901 154.7825,-85.9804"/>
<polygon fill="#191970" stroke="#191970" points="158.24,-85.4038 153.657,-75.8515 151.2828,-86.1769 158.24,-85.4038"/>
</g>
<!-- Node4 -->
<g id="node5" class="node">
<title>Node4</title>
<g id="a_node5"><a xlink:href="program_8h.html" target="_top" xlink:title=" ">
<polygon fill="#ffffff" stroke="#000000" points="60,-112.5 60,-131.5 120,-131.5 120,-112.5 60,-112.5"/>
<text text-anchor="middle" x="90" y="-119.5" font-family="Helvetica,sans-Serif" font-size="10.00" fill="#000000">program.h</text>
</a>
</g>
</g>
<!-- Node0&#45;&gt;Node4 -->
<g id="edge5" class="edge">
<title>Node0&#45;&gt;Node4</title>
<path fill="none" stroke="#191970" d="M184.4027,-168.3733C166.2669,-159.4644 139.0865,-146.1127 118.5413,-136.0203"/>
<polygon fill="#191970" stroke="#191970" points="119.8603,-132.7688 109.3416,-131.5011 116.7739,-139.0517 119.8603,-132.7688"/>
</g>
<!-- Node5 -->
<g id="node6" class="node">
<title>Node5</title>
<g id="a_node6"><a xlink:title=" ">
<polygon fill="#ffffff" stroke="#bfbfbf" points="176,-112.5 176,-131.5 232,-131.5 232,-112.5 176,-112.5"/>
<text text-anchor="middle" x="204" y="-119.5" font-family="Helvetica,sans-Serif" font-size="10.00" fill="#000000">stdbool.h</text>
</a>
</g>
</g>
<!-- Node0&#45;&gt;Node5 -->
<g id="edge9" class="edge">
<title>Node0&#45;&gt;Node5</title>
<path fill="none" stroke="#191970" d="M204,-168.2455C204,-160.9382 204,-150.6944 204,-141.7046"/>
<polygon fill="#191970" stroke="#191970" points="207.5001,-141.6426 204,-131.6427 200.5001,-141.6427 207.5001,-141.6426"/>
</g>
<!-- Node6 -->
<g id="node7" class="node">
<title>Node6</title>
<g id="a_node7"><a xlink:title=" ">
<polygon fill="#ffffff" stroke="#bfbfbf" points="250,-112.5 250,-131.5 296,-131.5 296,-112.5 250,-112.5"/>
<text text-anchor="middle" x="273" y="-119.5" font-family="Helvetica,sans-Serif" font-size="10.00" fill="#000000">stdio.h</text>
</a>
</g>
</g>
<!-- Node0&#45;&gt;Node6 -->
<g id="edge10" class="edge">
<title>Node0&#45;&gt;Node6</title>
<path fill="none" stroke="#191970" d="M216.0189,-168.2455C226.2098,-159.9746 241.0362,-147.9416 253.0107,-138.2232"/>
<polygon fill="#191970" stroke="#191970" points="255.5598,-140.662 261.1188,-131.6427 251.1486,-135.2268 255.5598,-140.662"/>
</g>
<!-- Node7 -->
<g id="node8" class="node">
<title>Node7</title>
<g id="a_node8"><a xlink:title=" ">
<polygon fill="#ffffff" stroke="#bfbfbf" points="314,-112.5 314,-131.5 362,-131.5 362,-112.5 314,-112.5"/>
<text text-anchor="middle" x="338" y="-119.5" font-family="Helvetica,sans-Serif" font-size="10.00" fill="#000000">stdlib.h</text>
</a>
</g>
</g>
<!-- Node0&#45;&gt;Node7 -->
<g id="edge11" class="edge">
<title>Node0&#45;&gt;Node7</title>
<path fill="none" stroke="#191970" d="M227.0354,-168.3733C248.7388,-159.3032 281.4618,-145.6279 305.755,-135.4755"/>
<polygon fill="#191970" stroke="#191970" points="307.3881,-138.5865 315.2652,-131.5011 304.6889,-132.1278 307.3881,-138.5865"/>
</g>
<!-- Node8 -->
<g id="node9" class="node">
<title>Node8</title>
<g id="a_node9"><a xlink:title=" ">
<polygon fill="#ffffff" stroke="#bfbfbf" points="380.5,-112.5 380.5,-131.5 429.5,-131.5 429.5,-112.5 380.5,-112.5"/>
<text text-anchor="middle" x="405" y="-119.5" font-family="Helvetica,sans-Serif" font-size="10.00" fill="#000000">string.h</text>
</a>
</g>
</g>
<!-- Node0&#45;&gt;Node8 -->
<g id="edge12" class="edge">
<title>Node0&#45;&gt;Node8</title>
<path fill="none" stroke="#191970" d="M239.2356,-168.4841C271.0194,-159.8583 319.2992,-146.652 370.251,-132.1808"/>
<polygon fill="#191970" stroke="#191970" points="371.4724,-135.4722 380.132,-129.3679 369.5558,-128.7397 371.4724,-135.4722"/>
</g>
<!-- Node2 -->
<g id="node3" class="node">
<title>Node2</title>
<g id="a_node3"><a xlink:title=" ">
<polygon fill="#ffffff" stroke="#bfbfbf" points="65.5,-.5 65.5,-19.5 114.5,-19.5 114.5,-.5 65.5,-.5"/>
<text text-anchor="middle" x="90" y="-7.5" font-family="Helvetica,sans-Serif" font-size="10.00" fill="#000000">stdint.h</text>
</a>
</g>
</g>
<!-- Node1&#45;&gt;Node2 -->
<g id="edge2" class="edge">
<title>Node1&#45;&gt;Node2</title>
<path fill="none" stroke="#191970" d="M41.277,-56.2455C49.8218,-48.1352 62.1778,-36.4075 72.3085,-26.7919"/>
<polygon fill="#191970" stroke="#191970" points="74.9972,-29.0655 79.8408,-19.6427 70.1782,-23.9884 74.9972,-29.0655"/>
</g>
<!-- Node3&#45;&gt;Node2 -->
<g id="edge4" class="edge">
<title>Node3&#45;&gt;Node2</title>
<path fill="none" stroke="#191970" d="M142.0262,-56.2455C132.8118,-48.0549 119.4468,-36.1749 108.5703,-26.5069"/>
<polygon fill="#191970" stroke="#191970" points="110.6474,-23.6704 100.848,-19.6427 105.9968,-28.9023 110.6474,-23.6704"/>
</g>
<!-- Node4&#45;&gt;Node1 -->
<g id="edge6" class="edge">
<title>Node4&#45;&gt;Node1</title>
<path fill="none" stroke="#191970" d="M79.723,-112.2455C71.1782,-104.1352 58.8222,-92.4075 48.6915,-82.7919"/>
<polygon fill="#191970" stroke="#191970" points="50.8218,-79.9884 41.1592,-75.6427 46.0028,-85.0655 50.8218,-79.9884"/>
</g>
<!-- Node4&#45;&gt;Node2 -->
<g id="edge8" class="edge">
<title>Node4&#45;&gt;Node2</title>
<path fill="none" stroke="#191970" d="M90,-112.4509C90,-94.184 90,-53.9553 90,-29.6976"/>
<polygon fill="#191970" stroke="#191970" points="93.5001,-29.5249 90,-19.5249 86.5001,-29.5249 93.5001,-29.5249"/>
</g>
<!-- Node4&#45;&gt;Node3 -->
<g id="edge7" class="edge">
<title>Node4&#45;&gt;Node3</title>
<path fill="none" stroke="#191970" d="M100.9738,-112.2455C110.1882,-104.0549 123.5532,-92.1749 134.4297,-82.5069"/>
<polygon fill="#191970" stroke="#191970" points="137.0032,-84.9023 142.152,-75.6427 132.3526,-79.6704 137.0032,-84.9023"/>
</g>
</g>
</svg>
