<?xml version="1.0" encoding="UTF-8" standalone="no"?>
<!DOCTYPE svg PUBLIC "-//W3C//DTD SVG 1.1//EN"
 "http://www.w3.org/Graphics/SVG/1.1/DTD/svg11.dtd">
<!-- Generated by graphviz version 2.40.1 (20161225.0304)
 -->
<!-- Title: main/memory/refcount.c Pages: 1 -->
<svg width="393pt" height="252pt"
 viewBox="0.00 0.00 393.00 252.00" xmlns="http://www.w3.org/2000/svg" xmlns:xlink="http://www.w3.org/1999/xlink">
<g id="graph0" class="graph" transform="scale(1 1) rotate(0) translate(4 248)">
<title>main/memory/refcount.c</title>
<polygon fill="#ffffff" stroke="transparent" points="-4,4 -4,-248 389,-248 389,4 -4,4"/>
<!-- Node0 -->
<g id="node1" class="node">
<title>Node0</title>
<g id="a_node1"><a xlink:title=" ">
<polygon fill="#bfbfbf" stroke="#000000" points="161.5,-224.5 161.5,-243.5 298.5,-243.5 298.5,-224.5 161.5,-224.5"/>
<text text-anchor="middle" x="230" y="-231.5" font-family="Helvetica,sans-Serif" font-size="10.00" fill="#000000">main/memory/refcount.c</text>
</a>
</g>
</g>
<!-- Node1 -->
<g id="node2" class="node">
<title>Node1</title>
<g id="a_node2"><a xlink:href="helios__memory_8h.html" target="_top" xlink:title=" ">
<polygon fill="#ffffff" stroke="#000000" points="69,-56.5 69,-75.5 169,-75.5 169,-56.5 69,-56.5"/>
<text text-anchor="middle" x="119" y="-63.5" font-family="Helvetica,sans-Serif" font-size="10.00" fill="#000000">helios_memory.h</text>
</a>
</g>
</g>
<!-- Node0&#45;&gt;Node1 -->
<g id="edge1" class="edge">
<title>Node0&#45;&gt;Node1</title>
<path fill="none" stroke="#191970" d="M194.5341,-224.4038C175.4611,-217.4108 153.2081,-205.9496 140,-188 117.6973,-157.691 116.0788,-111.7722 117.2836,-85.774"/>
<polygon fill="#191970" stroke="#191970" points="120.7852,-85.8634 117.9461,-75.656 113.8001,-85.4059 120.7852,-85.8634"/>
</g>
<!-- Node3 -->
<g id="node4" class="node">
<title>Node3</title>
<g id="a_node4"><a xlink:title=" ">
<polygon fill="#ffffff" stroke="#bfbfbf" points="0,-.5 0,-19.5 62,-19.5 62,-.5 0,-.5"/>
<text text-anchor="middle" x="31" y="-7.5" font-family="Helvetica,sans-Serif" font-size="10.00" fill="#000000">stdbool.h</text>
</a>
</g>
</g>
<!-- Node0&#45;&gt;Node3 -->
<g id="edge11" class="edge">
<title>Node0&#45;&gt;Node3</title>
<path fill="none" stroke="#191970" d="M194.6282,-224.4383C172.9177,-217.1931 145.6129,-205.4591 126,-188 75.7327,-143.2528 47.4083,-65.4147 36.4033,-29.3574"/>
<polygon fill="#191970" stroke="#191970" points="39.7119,-28.2021 33.5388,-19.5915 32.9949,-30.1724 39.7119,-28.2021"/>
</g>
<!-- Node5 -->
<g id="node6" class="node">
<title>Node5</title>
<g id="a_node6"><a xlink:title=" ">
<polygon fill="#ffffff" stroke="#bfbfbf" points="250.5,-.5 250.5,-19.5 303.5,-19.5 303.5,-.5 250.5,-.5"/>
<text text-anchor="middle" x="277" y="-7.5" font-family="Helvetica,sans-Serif" font-size="10.00" fill="#000000">stdint.h</text>
</a>
</g>
</g>
<!-- Node0&#45;&gt;Node5 -->
<g id="edge12" class="edge">
<title>Node0&#45;&gt;Node5</title>
<path fill="none" stroke="#191970" d="M239.2305,-224.2185C247.018,-215.4178 257.8515,-201.7858 264,-188 288.2565,-133.6135 293.3616,-115.2098 287,-56 286.0637,-47.285 284.1567,-37.7985 282.2568,-29.7166"/>
<polygon fill="#191970" stroke="#191970" points="285.5899,-28.6187 279.7621,-19.7707 278.8002,-30.3218 285.5899,-28.6187"/>
</g>
<!-- Node6 -->
<g id="node7" class="node">
<title>Node6</title>
<g id="a_node7"><a xlink:href="helios__object_8h.html" target="_top" xlink:title=" ">
<polygon fill="#ffffff" stroke="#000000" points="149,-168.5 149,-187.5 239,-187.5 239,-168.5 149,-168.5"/>
<text text-anchor="middle" x="194" y="-175.5" font-family="Helvetica,sans-Serif" font-size="10.00" fill="#000000">helios_object.h</text>
</a>
</g>
</g>
<!-- Node0&#45;&gt;Node6 -->
<g id="edge6" class="edge">
<title>Node0&#45;&gt;Node6</title>
<path fill="none" stroke="#191970" d="M223.7293,-224.2455C218.7736,-216.5367 211.717,-205.5598 205.7224,-196.2348"/>
<polygon fill="#191970" stroke="#191970" points="208.5506,-194.1618 200.1989,-187.6427 202.6624,-197.9471 208.5506,-194.1618"/>
</g>
<!-- Node8 -->
<g id="node9" class="node">
<title>Node8</title>
<g id="a_node9"><a xlink:title=" ">
<polygon fill="#ffffff" stroke="#bfbfbf" points="225.5,-56.5 225.5,-75.5 278.5,-75.5 278.5,-56.5 225.5,-56.5"/>
<text text-anchor="middle" x="252" y="-63.5" font-family="Helvetica,sans-Serif" font-size="10.00" fill="#000000">stdlib.h</text>
</a>
</g>
</g>
<!-- Node0&#45;&gt;Node8 -->
<g id="edge14" class="edge">
<title>Node0&#45;&gt;Node8</title>
<path fill="none" stroke="#191970" d="M234.86,-224.4249C239.21,-215.3189 245.3044,-201.1038 248,-188 255.2987,-152.5196 254.6341,-110.0298 253.3864,-85.7086"/>
<polygon fill="#191970" stroke="#191970" points="256.8737,-85.392 252.779,-75.6204 249.8864,-85.8127 256.8737,-85.392"/>
</g>
<!-- Node9 -->
<g id="node10" class="node">
<title>Node9</title>
<g id="a_node10"><a xlink:title=" ">
<polygon fill="#ffffff" stroke="#bfbfbf" points="335,-168.5 335,-187.5 385,-187.5 385,-168.5 335,-168.5"/>
<text text-anchor="middle" x="360" y="-175.5" font-family="Helvetica,sans-Serif" font-size="10.00" fill="#000000">stdio.h</text>
</a>
</g>
</g>
<!-- Node0&#45;&gt;Node9 -->
<g id="edge13" class="edge">
<title>Node0&#45;&gt;Node9</title>
<path fill="none" stroke="#191970" d="M252.3478,-224.3733C273.4033,-215.3032 305.1495,-201.6279 328.7175,-191.4755"/>
<polygon fill="#191970" stroke="#191970" points="330.1444,-194.6719 337.9438,-187.5011 327.375,-188.243 330.1444,-194.6719"/>
</g>
<!-- Node2 -->
<g id="node3" class="node">
<title>Node2</title>
<g id="a_node3"><a xlink:href="builtinutils_8h.html" target="_top" xlink:title=" ">
<polygon fill="#ffffff" stroke="#000000" points="80.5,-.5 80.5,-19.5 157.5,-19.5 157.5,-.5 80.5,-.5"/>
<text text-anchor="middle" x="119" y="-7.5" font-family="Helvetica,sans-Serif" font-size="10.00" fill="#000000">builtinutils.h</text>
</a>
</g>
</g>
<!-- Node1&#45;&gt;Node2 -->
<g id="edge2" class="edge">
<title>Node1&#45;&gt;Node2</title>
<path fill="none" stroke="#191970" d="M119,-56.2455C119,-48.9382 119,-38.6944 119,-29.7046"/>
<polygon fill="#191970" stroke="#191970" points="122.5001,-29.6426 119,-19.6427 115.5001,-29.6427 122.5001,-29.6426"/>
</g>
<!-- Node1&#45;&gt;Node3 -->
<g id="edge3" class="edge">
<title>Node1&#45;&gt;Node3</title>
<path fill="none" stroke="#191970" d="M103.6716,-56.2455C90.1697,-47.6534 70.2878,-35.0014 54.7314,-25.1018"/>
<polygon fill="#191970" stroke="#191970" points="56.4685,-22.0587 46.1528,-19.6427 52.7103,-27.9643 56.4685,-22.0587"/>
</g>
<!-- Node4 -->
<g id="node5" class="node">
<title>Node4</title>
<g id="a_node5"><a xlink:title=" ">
<polygon fill="#ffffff" stroke="#bfbfbf" points="176,-.5 176,-19.5 232,-19.5 232,-.5 176,-.5"/>
<text text-anchor="middle" x="204" y="-7.5" font-family="Helvetica,sans-Serif" font-size="10.00" fill="#000000">stddef.h</text>
</a>
</g>
</g>
<!-- Node1&#45;&gt;Node4 -->
<g id="edge4" class="edge">
<title>Node1&#45;&gt;Node4</title>
<path fill="none" stroke="#191970" d="M133.8059,-56.2455C146.7256,-47.7337 165.6931,-35.2375 180.6552,-25.3801"/>
<polygon fill="#191970" stroke="#191970" points="182.9387,-28.067 189.3638,-19.6427 179.0876,-22.2216 182.9387,-28.067"/>
</g>
<!-- Node1&#45;&gt;Node5 -->
<g id="edge5" class="edge">
<title>Node1&#45;&gt;Node5</title>
<path fill="none" stroke="#191970" d="M146.1612,-56.3733C172.2856,-47.114 211.9511,-33.0553 240.7593,-22.8448"/>
<polygon fill="#191970" stroke="#191970" points="242.2,-26.0476 250.4562,-19.4079 239.8615,-19.4497 242.2,-26.0476"/>
</g>
<!-- Node7 -->
<g id="node8" class="node">
<title>Node7</title>
<g id="a_node8"><a xlink:href="helios__type_8h.html" target="_top" xlink:title=" ">
<polygon fill="#ffffff" stroke="#000000" points="154,-112.5 154,-131.5 236,-131.5 236,-112.5 154,-112.5"/>
<text text-anchor="middle" x="195" y="-119.5" font-family="Helvetica,sans-Serif" font-size="10.00" fill="#000000">helios_type.h</text>
</a>
</g>
</g>
<!-- Node6&#45;&gt;Node7 -->
<g id="edge7" class="edge">
<title>Node6&#45;&gt;Node7</title>
<path fill="none" stroke="#191970" d="M194.1742,-168.2455C194.3047,-160.9382 194.4876,-150.6944 194.6481,-141.7046"/>
<polygon fill="#191970" stroke="#191970" points="198.1486,-141.7036 194.8278,-131.6427 191.1497,-141.5786 198.1486,-141.7036"/>
</g>
<!-- Node7&#45;&gt;Node1 -->
<g id="edge8" class="edge">
<title>Node7&#45;&gt;Node1</title>
<path fill="none" stroke="#191970" d="M181.7618,-112.2455C170.319,-103.814 153.5704,-91.4729 140.2525,-81.6598"/>
<polygon fill="#191970" stroke="#191970" points="142.2133,-78.757 132.0865,-75.6427 138.0609,-84.3924 142.2133,-78.757"/>
</g>
<!-- Node7&#45;&gt;Node5 -->
<g id="edge9" class="edge">
<title>Node7&#45;&gt;Node5</title>
<path fill="none" stroke="#191970" d="M196.2147,-112.2165C198.3077,-98.551 203.6273,-73.4648 216,-56 224.8596,-43.4942 238.1485,-32.9063 250.0635,-25.0527"/>
<polygon fill="#191970" stroke="#191970" points="252.1806,-27.8572 258.8111,-19.5936 248.4745,-21.9188 252.1806,-27.8572"/>
</g>
<!-- Node7&#45;&gt;Node8 -->
<g id="edge10" class="edge">
<title>Node7&#45;&gt;Node8</title>
<path fill="none" stroke="#191970" d="M204.9286,-112.2455C213.1838,-104.1352 225.1209,-92.4075 234.9082,-82.7919"/>
<polygon fill="#191970" stroke="#191970" points="237.5046,-85.1476 242.1851,-75.6427 232.5989,-80.1542 237.5046,-85.1476"/>
</g>
</g>
</svg>
