<?xml version="1.0" encoding="UTF-8" standalone="no"?>
<!DOCTYPE svg PUBLIC "-//W3C//DTD SVG 1.1//EN"
 "http://www.w3.org/Graphics/SVG/1.1/DTD/svg11.dtd">
<!-- Generated by graphviz version 2.40.1 (20161225.0304)
 -->
<!-- Title: memory/refcount.c Pages: 1 -->
<svg width="367pt" height="252pt"
 viewBox="0.00 0.00 367.00 252.00" xmlns="http://www.w3.org/2000/svg" xmlns:xlink="http://www.w3.org/1999/xlink">
<g id="graph0" class="graph" transform="scale(1 1) rotate(0) translate(4 248)">
<title>memory/refcount.c</title>
<polygon fill="#ffffff" stroke="transparent" points="-4,4 -4,-248 363,-248 363,4 -4,4"/>
<!-- Node0 -->
<g id="node1" class="node">
<title>Node0</title>
<g id="a_node1"><a xlink:title=" ">
<polygon fill="#bfbfbf" stroke="#000000" points="163,-224.5 163,-243.5 261,-243.5 261,-224.5 163,-224.5"/>
<text text-anchor="middle" x="212" y="-231.5" font-family="Helvetica,sans-Serif" font-size="10.00" fill="#000000">memory/refcount.c</text>
</a>
</g>
</g>
<!-- Node1 -->
<g id="node2" class="node">
<title>Node1</title>
<g id="a_node2"><a xlink:href="helios__memory_8h.html" target="_top" xlink:title=" ">
<polygon fill="#ffffff" stroke="#000000" points="63,-56.5 63,-75.5 153,-75.5 153,-56.5 63,-56.5"/>
<text text-anchor="middle" x="108" y="-63.5" font-family="Helvetica,sans-Serif" font-size="10.00" fill="#000000">helios_memory.h</text>
</a>
</g>
</g>
<!-- Node0&#45;&gt;Node1 -->
<g id="edge1" class="edge">
<title>Node0&#45;&gt;Node1</title>
<path fill="none" stroke="#191970" d="M180.062,-224.359C161.9571,-217.2268 140.4909,-205.6403 128,-188 106.283,-157.3303 104.9169,-111.5441 106.2226,-85.6659"/>
<polygon fill="#191970" stroke="#191970" points="109.7205,-85.8168 106.9206,-75.5987 102.7372,-85.3326 109.7205,-85.8168"/>
</g>
<!-- Node3 -->
<g id="node4" class="node">
<title>Node3</title>
<g id="a_node4"><a xlink:title=" ">
<polygon fill="#ffffff" stroke="#bfbfbf" points="0,-.5 0,-19.5 56,-19.5 56,-.5 0,-.5"/>
<text text-anchor="middle" x="28" y="-7.5" font-family="Helvetica,sans-Serif" font-size="10.00" fill="#000000">stdbool.h</text>
</a>
</g>
</g>
<!-- Node0&#45;&gt;Node3 -->
<g id="edge11" class="edge">
<title>Node0&#45;&gt;Node3</title>
<path fill="none" stroke="#191970" d="M178.8934,-224.4242C158.268,-217.122 132.2738,-205.331 114,-188 66.3628,-142.8207 41.8984,-65.7692 32.5749,-29.7062"/>
<polygon fill="#191970" stroke="#191970" points="35.8587,-28.4035 30.0696,-19.5301 29.0617,-30.0769 35.8587,-28.4035"/>
</g>
<!-- Node5 -->
<g id="node6" class="node">
<title>Node5</title>
<g id="a_node6"><a xlink:title=" ">
<polygon fill="#ffffff" stroke="#bfbfbf" points="230.5,-.5 230.5,-19.5 279.5,-19.5 279.5,-.5 230.5,-.5"/>
<text text-anchor="middle" x="255" y="-7.5" font-family="Helvetica,sans-Serif" font-size="10.00" fill="#000000">stdint.h</text>
</a>
</g>
</g>
<!-- Node0&#45;&gt;Node5 -->
<g id="edge12" class="edge">
<title>Node0&#45;&gt;Node5</title>
<path fill="none" stroke="#191970" d="M220.4077,-224.4809C227.7611,-215.6384 238.1537,-201.794 244,-188 267.2092,-133.2395 272.9642,-115.0668 266,-56 264.9571,-47.1546 262.8232,-37.5467 260.71,-29.4104"/>
<polygon fill="#191970" stroke="#191970" points="264.0772,-28.4548 258.0375,-19.7501 257.3306,-30.3213 264.0772,-28.4548"/>
</g>
<!-- Node6 -->
<g id="node7" class="node">
<title>Node6</title>
<g id="a_node7"><a xlink:href="helios__object_8h.html" target="_top" xlink:title=" ">
<polygon fill="#ffffff" stroke="#000000" points="137,-168.5 137,-187.5 219,-187.5 219,-168.5 137,-168.5"/>
<text text-anchor="middle" x="178" y="-175.5" font-family="Helvetica,sans-Serif" font-size="10.00" fill="#000000">helios_object.h</text>
</a>
</g>
</g>
<!-- Node0&#45;&gt;Node6 -->
<g id="edge6" class="edge">
<title>Node0&#45;&gt;Node6</title>
<path fill="none" stroke="#191970" d="M206.0777,-224.2455C201.3973,-216.5367 194.7327,-205.5598 189.0711,-196.2348"/>
<polygon fill="#191970" stroke="#191970" points="192.0361,-194.3741 183.8545,-187.6427 186.0525,-198.007 192.0361,-194.3741"/>
</g>
<!-- Node8 -->
<g id="node9" class="node">
<title>Node8</title>
<g id="a_node9"><a xlink:title=" ">
<polygon fill="#ffffff" stroke="#bfbfbf" points="209,-56.5 209,-75.5 257,-75.5 257,-56.5 209,-56.5"/>
<text text-anchor="middle" x="233" y="-63.5" font-family="Helvetica,sans-Serif" font-size="10.00" fill="#000000">stdlib.h</text>
</a>
</g>
</g>
<!-- Node0&#45;&gt;Node8 -->
<g id="edge14" class="edge">
<title>Node0&#45;&gt;Node8</title>
<path fill="none" stroke="#191970" d="M216.2893,-224.3584C220.1342,-215.2053 225.5367,-200.9584 228,-188 234.7666,-152.4032 234.7262,-109.9525 233.9522,-85.6701"/>
<polygon fill="#191970" stroke="#191970" points="237.4465,-85.4532 233.5534,-75.5996 230.4519,-85.7303 237.4465,-85.4532"/>
</g>
<!-- Node9 -->
<g id="node10" class="node">
<title>Node9</title>
<g id="a_node10"><a xlink:title=" ">
<polygon fill="#ffffff" stroke="#bfbfbf" points="313,-168.5 313,-187.5 359,-187.5 359,-168.5 313,-168.5"/>
<text text-anchor="middle" x="336" y="-175.5" font-family="Helvetica,sans-Serif" font-size="10.00" fill="#000000">stdio.h</text>
</a>
</g>
</g>
<!-- Node0&#45;&gt;Node9 -->
<g id="edge13" class="edge">
<title>Node0&#45;&gt;Node9</title>
<path fill="none" stroke="#191970" d="M233.3164,-224.3733C253.2216,-215.3838 283.1436,-201.8706 305.56,-191.7471"/>
<polygon fill="#191970" stroke="#191970" points="307.2887,-194.8068 314.9618,-187.5011 304.4075,-188.4272 307.2887,-194.8068"/>
</g>
<!-- Node2 -->
<g id="node3" class="node">
<title>Node2</title>
<g id="a_node3"><a xlink:href="builtinutils_8h.html" target="_top" xlink:title=" ">
<polygon fill="#ffffff" stroke="#000000" points="74,-.5 74,-19.5 142,-19.5 142,-.5 74,-.5"/>
<text text-anchor="middle" x="108" y="-7.5" font-family="Helvetica,sans-Serif" font-size="10.00" fill="#000000">builtinutils.h</text>
</a>
</g>
</g>
<!-- Node1&#45;&gt;Node2 -->
<g id="edge2" class="edge">
<title>Node1&#45;&gt;Node2</title>
<path fill="none" stroke="#191970" d="M108,-56.2455C108,-48.9382 108,-38.6944 108,-29.7046"/>
<polygon fill="#191970" stroke="#191970" points="111.5001,-29.6426 108,-19.6427 104.5001,-29.6427 111.5001,-29.6426"/>
</g>
<!-- Node1&#45;&gt;Node3 -->
<g id="edge3" class="edge">
<title>Node1&#45;&gt;Node3</title>
<path fill="none" stroke="#191970" d="M94.0651,-56.2455C81.9053,-47.7337 64.0536,-35.2375 49.9715,-25.3801"/>
<polygon fill="#191970" stroke="#191970" points="51.9747,-22.51 41.7752,-19.6427 47.9605,-28.2447 51.9747,-22.51"/>
</g>
<!-- Node4 -->
<g id="node5" class="node">
<title>Node4</title>
<g id="a_node5"><a xlink:title=" ">
<polygon fill="#ffffff" stroke="#bfbfbf" points="160,-.5 160,-19.5 212,-19.5 212,-.5 160,-.5"/>
<text text-anchor="middle" x="186" y="-7.5" font-family="Helvetica,sans-Serif" font-size="10.00" fill="#000000">stddef.h</text>
</a>
</g>
</g>
<!-- Node1&#45;&gt;Node4 -->
<g id="edge4" class="edge">
<title>Node1&#45;&gt;Node4</title>
<path fill="none" stroke="#191970" d="M121.5866,-56.2455C133.3305,-47.814 150.5199,-35.4729 164.1882,-25.6598"/>
<polygon fill="#191970" stroke="#191970" points="166.4871,-28.3179 172.5691,-19.6427 162.4046,-22.6316 166.4871,-28.3179"/>
</g>
<!-- Node1&#45;&gt;Node5 -->
<g id="edge5" class="edge">
<title>Node1&#45;&gt;Node5</title>
<path fill="none" stroke="#191970" d="M133.2702,-56.3733C157.3966,-47.1822 193.9362,-33.2624 220.6877,-23.0713"/>
<polygon fill="#191970" stroke="#191970" points="221.9607,-26.3318 230.0596,-19.5011 219.4687,-19.7904 221.9607,-26.3318"/>
</g>
<!-- Node7 -->
<g id="node8" class="node">
<title>Node7</title>
<g id="a_node8"><a xlink:href="helios__type_8h.html" target="_top" xlink:title=" ">
<polygon fill="#ffffff" stroke="#000000" points="142,-112.5 142,-131.5 216,-131.5 216,-112.5 142,-112.5"/>
<text text-anchor="middle" x="179" y="-119.5" font-family="Helvetica,sans-Serif" font-size="10.00" fill="#000000">helios_type.h</text>
</a>
</g>
</g>
<!-- Node6&#45;&gt;Node7 -->
<g id="edge7" class="edge">
<title>Node6&#45;&gt;Node7</title>
<path fill="none" stroke="#191970" d="M178.1742,-168.2455C178.3047,-160.9382 178.4876,-150.6944 178.6481,-141.7046"/>
<polygon fill="#191970" stroke="#191970" points="182.1486,-141.7036 178.8278,-131.6427 175.1497,-141.5786 182.1486,-141.7036"/>
</g>
<!-- Node7&#45;&gt;Node1 -->
<g id="edge8" class="edge">
<title>Node7&#45;&gt;Node1</title>
<path fill="none" stroke="#191970" d="M166.6327,-112.2455C156.0446,-103.8943 140.5936,-91.7076 128.2107,-81.9408"/>
<polygon fill="#191970" stroke="#191970" points="130.2447,-79.0875 120.2255,-75.6427 125.9097,-84.5837 130.2447,-79.0875"/>
</g>
<!-- Node7&#45;&gt;Node5 -->
<g id="edge9" class="edge">
<title>Node7&#45;&gt;Node5</title>
<path fill="none" stroke="#191970" d="M180.3384,-112.3018C182.5783,-98.7376 188.0713,-73.7711 200,-56 208.0471,-44.0116 220.0932,-33.4434 230.8625,-25.4696"/>
<polygon fill="#191970" stroke="#191970" points="232.9622,-28.2717 239.1246,-19.6534 228.9328,-22.5477 232.9622,-28.2717"/>
</g>
<!-- Node7&#45;&gt;Node8 -->
<g id="edge10" class="edge">
<title>Node7&#45;&gt;Node8</title>
<path fill="none" stroke="#191970" d="M188.4061,-112.2455C196.1493,-104.2155 207.312,-92.6394 216.5318,-83.0781"/>
<polygon fill="#191970" stroke="#191970" points="219.2798,-85.2706 223.7017,-75.6427 214.2409,-80.4117 219.2798,-85.2706"/>
</g>
</g>
</svg>
