<?xml version="1.0" encoding="UTF-8" standalone="no"?>
<!DOCTYPE svg PUBLIC "-//W3C//DTD SVG 1.1//EN"
 "http://www.w3.org/Graphics/SVG/1.1/DTD/svg11.dtd">
<!-- Generated by graphviz version 2.40.1 (20161225.0304)
 -->
<!-- Title: helios_deserialize_object Pages: 1 -->
<svg width="636pt" height="66pt"
 viewBox="0.00 0.00 636.00 66.00" xmlns="http://www.w3.org/2000/svg" xmlns:xlink="http://www.w3.org/1999/xlink">
<g id="graph0" class="graph" transform="scale(1 1) rotate(0) translate(4 62)">
<title>helios_deserialize_object</title>
<polygon fill="#ffffff" stroke="transparent" points="-4,4 -4,-62 632,-62 632,4 -4,4"/>
<!-- Node0 -->
<g id="node1" class="node">
<title>Node0</title>
<g id="a_node1"><a xlink:title=" ">
<polygon fill="#bfbfbf" stroke="#000000" points="0,-14 0,-44 104,-44 104,-14 0,-14"/>
<text text-anchor="start" x="8" y="-32" font-family="Helvetica,sans-Serif" font-size="10.00" fill="#000000">helios_deserialize</text>
<text text-anchor="middle" x="52" y="-21" font-family="Helvetica,sans-Serif" font-size="10.00" fill="#000000">_object</text>
</a>
</g>
</g>
<!-- Node1 -->
<g id="node2" class="node">
<title>Node1</title>
<g id="a_node2"><a xlink:href="helios__integer_8c.html#af677316afd6536844aeb027f14c198cf" target="_top" xlink:title="Create a helios_integer object from a c integer type.">
<polygon fill="#ffffff" stroke="#000000" points="144,-38.5 144,-57.5 281,-57.5 281,-38.5 144,-38.5"/>
<text text-anchor="middle" x="212.5" y="-45.5" font-family="Helvetica,sans-Serif" font-size="10.00" fill="#000000">helios_integer_from_cint</text>
</a>
</g>
</g>
<!-- Node0&#45;&gt;Node1 -->
<g id="edge1" class="edge">
<title>Node0&#45;&gt;Node1</title>
<path fill="none" stroke="#191970" d="M104.1098,-35.1688C113.6521,-36.2984 123.8022,-37.4999 133.917,-38.6973"/>
<polygon fill="#191970" stroke="#191970" points="133.6541,-42.1906 143.9962,-39.8905 134.477,-35.2391 133.6541,-42.1906"/>
</g>
<!-- Node5 -->
<g id="node6" class="node">
<title>Node5</title>
<g id="a_node6"><a xlink:href="helios__float_8c.html#a826b7f7e3b3c75b0161be6e84c349135" target="_top" xlink:title="Create a helios_float object from a c double type.">
<polygon fill="#ffffff" stroke="#000000" points="140,-.5 140,-19.5 285,-19.5 285,-.5 140,-.5"/>
<text text-anchor="middle" x="212.5" y="-7.5" font-family="Helvetica,sans-Serif" font-size="10.00" fill="#000000">helios_float_from_cdouble</text>
</a>
</g>
</g>
<!-- Node0&#45;&gt;Node5 -->
<g id="edge5" class="edge">
<title>Node0&#45;&gt;Node5</title>
<path fill="none" stroke="#191970" d="M104.1098,-22.8312C112.4228,-21.8471 121.1972,-20.8084 130.0076,-19.7655"/>
<polygon fill="#191970" stroke="#191970" points="130.4283,-23.2402 139.9475,-18.5888 129.6054,-16.2887 130.4283,-23.2402"/>
</g>
<!-- Node2 -->
<g id="node3" class="node">
<title>Node2</title>
<g id="a_node3"><a xlink:href="helios__integer_8c.html#a50a26b1e9578164839f3a5bb17e04051" target="_top" xlink:title="Constructor of a helios_integer object.">
<polygon fill="#ffffff" stroke="#000000" points="321,-38.5 321,-57.5 428,-57.5 428,-38.5 321,-38.5"/>
<text text-anchor="middle" x="374.5" y="-45.5" font-family="Helvetica,sans-Serif" font-size="10.00" fill="#000000">helios_integer_init</text>
</a>
</g>
</g>
<!-- Node1&#45;&gt;Node2 -->
<g id="edge2" class="edge">
<title>Node1&#45;&gt;Node2</title>
<path fill="none" stroke="#191970" d="M281.2026,-48C291.0591,-48 301.1644,-48 310.9162,-48"/>
<polygon fill="#191970" stroke="#191970" points="310.9254,-51.5001 320.9254,-48 310.9254,-44.5001 310.9254,-51.5001"/>
</g>
<!-- Node3 -->
<g id="node4" class="node">
<title>Node3</title>
<g id="a_node4"><a xlink:href="helios__memory_8h.html#af87f0050f8e236d0945592fa4e54dc94" target="_top" xlink:title="Allocates a new helios object (and performs all the GC steps associated with that action).">
<polygon fill="#ffffff" stroke="#000000" points="483.5,-38.5 483.5,-57.5 608.5,-57.5 608.5,-38.5 483.5,-38.5"/>
<text text-anchor="middle" x="546" y="-45.5" font-family="Helvetica,sans-Serif" font-size="10.00" fill="#000000">helios_allocate_object</text>
</a>
</g>
</g>
<!-- Node2&#45;&gt;Node3 -->
<g id="edge3" class="edge">
<title>Node2&#45;&gt;Node3</title>
<path fill="none" stroke="#191970" d="M428.2931,-48C442.5001,-48 458.0727,-48 473.106,-48"/>
<polygon fill="#191970" stroke="#191970" points="473.4041,-51.5001 483.404,-48 473.404,-44.5001 473.4041,-51.5001"/>
</g>
<!-- Node4 -->
<g id="node5" class="node">
<title>Node4</title>
<g id="a_node5"><a xlink:href="helios__memory_8h.html#ab14fb1c046aae61ab06eda8eeaf2cd85" target="_top" xlink:title=" ">
<polygon fill="#ffffff" stroke="#000000" points="464,-.5 464,-19.5 628,-19.5 628,-.5 464,-.5"/>
<text text-anchor="middle" x="546" y="-7.5" font-family="Helvetica,sans-Serif" font-size="10.00" fill="#000000">helios_set_garbagecollectable</text>
</a>
</g>
</g>
<!-- Node2&#45;&gt;Node4 -->
<g id="edge4" class="edge">
<title>Node2&#45;&gt;Node4</title>
<path fill="none" stroke="#191970" d="M417.7767,-38.411C440.6119,-33.3513 468.8232,-27.1004 492.9648,-21.7512"/>
<polygon fill="#191970" stroke="#191970" points="494.0285,-25.1005 503.0345,-19.5201 492.5141,-18.2663 494.0285,-25.1005"/>
</g>
<!-- Node6 -->
<g id="node7" class="node">
<title>Node6</title>
<g id="a_node7"><a xlink:href="helios__float_8c.html#a6b9f18063c74a36f08d05c6310bc45da" target="_top" xlink:title="Constructor of a helios_float object.">
<polygon fill="#ffffff" stroke="#000000" points="327.5,-.5 327.5,-19.5 421.5,-19.5 421.5,-.5 327.5,-.5"/>
<text text-anchor="middle" x="374.5" y="-7.5" font-family="Helvetica,sans-Serif" font-size="10.00" fill="#000000">helios_float_init</text>
</a>
</g>
</g>
<!-- Node5&#45;&gt;Node6 -->
<g id="edge6" class="edge">
<title>Node5&#45;&gt;Node6</title>
<path fill="none" stroke="#191970" d="M285.4435,-10C296.1513,-10 307.0487,-10 317.3773,-10"/>
<polygon fill="#191970" stroke="#191970" points="317.4882,-13.5001 327.4882,-10 317.4882,-6.5001 317.4882,-13.5001"/>
</g>
<!-- Node6&#45;&gt;Node3 -->
<g id="edge7" class="edge">
<title>Node6&#45;&gt;Node3</title>
<path fill="none" stroke="#191970" d="M417.7767,-19.589C440.6119,-24.6487 468.8232,-30.8996 492.9648,-36.2488"/>
<polygon fill="#191970" stroke="#191970" points="492.5141,-39.7337 503.0345,-38.4799 494.0285,-32.8995 492.5141,-39.7337"/>
</g>
<!-- Node6&#45;&gt;Node4 -->
<g id="edge8" class="edge">
<title>Node6&#45;&gt;Node4</title>
<path fill="none" stroke="#191970" d="M421.8171,-10C431.8371,-10 442.7398,-10 453.7865,-10"/>
<polygon fill="#191970" stroke="#191970" points="453.9506,-13.5001 463.9506,-10 453.9505,-6.5001 453.9506,-13.5001"/>
</g>
</g>
</svg>
