<?xml version="1.0" encoding="UTF-8" standalone="no"?>
<!DOCTYPE svg PUBLIC "-//W3C//DTD SVG 1.1//EN"
 "http://www.w3.org/Graphics/SVG/1.1/DTD/svg11.dtd">
<!-- Generated by graphviz version 2.40.1 (20161225.0304)
 -->
<!-- Title: main/builtins/serialization/serialize.c Pages: 1 -->
<svg width="793pt" height="375pt"
 viewBox="0.00 0.00 792.50 375.00" xmlns="http://www.w3.org/2000/svg" xmlns:xlink="http://www.w3.org/1999/xlink">
<g id="graph0" class="graph" transform="scale(1 1) rotate(0) translate(4 371)">
<title>main/builtins/serialization/serialize.c</title>
<polygon fill="#ffffff" stroke="transparent" points="-4,4 -4,-371 788.5,-371 788.5,4 -4,4"/>
<!-- Node0 -->
<g id="node1" class="node">
<title>Node0</title>
<g id="a_node1"><a xlink:title=" ">
<polygon fill="#bfbfbf" stroke="#000000" points="348.5,-336.5 348.5,-366.5 491.5,-366.5 491.5,-336.5 348.5,-336.5"/>
<text text-anchor="start" x="356.5" y="-354.5" font-family="Helvetica,sans-Serif" font-size="10.00" fill="#000000">main/builtins/serialization</text>
<text text-anchor="middle" x="420" y="-343.5" font-family="Helvetica,sans-Serif" font-size="10.00" fill="#000000">/serialize.c</text>
</a>
</g>
</g>
<!-- Node1 -->
<g id="node2" class="node">
<title>Node1</title>
<g id="a_node2"><a xlink:href="builtins_8h.html" target="_top" xlink:title=" ">
<polygon fill="#ffffff" stroke="#000000" points="269,-280.5 269,-299.5 331,-299.5 331,-280.5 269,-280.5"/>
<text text-anchor="middle" x="300" y="-287.5" font-family="Helvetica,sans-Serif" font-size="10.00" fill="#000000">builtins.h</text>
</a>
</g>
</g>
<!-- Node0&#45;&gt;Node1 -->
<g id="edge1" class="edge">
<title>Node0&#45;&gt;Node1</title>
<path fill="none" stroke="#191970" d="M390.6447,-336.4554C371.4127,-326.599 346.4388,-313.7999 327.5759,-304.1327"/>
<polygon fill="#191970" stroke="#191970" points="329.0914,-300.9765 318.5957,-299.5303 325.8987,-307.206 329.0914,-300.9765"/>
</g>
<!-- Node17 -->
<g id="node18" class="node">
<title>Node17</title>
<g id="a_node18"><a xlink:title=" ">
<polygon fill="#ffffff" stroke="#bfbfbf" points="349.5,-280.5 349.5,-299.5 414.5,-299.5 414.5,-280.5 349.5,-280.5"/>
<text text-anchor="middle" x="382" y="-287.5" font-family="Helvetica,sans-Serif" font-size="10.00" fill="#000000">inttypes.h</text>
</a>
</g>
</g>
<!-- Node0&#45;&gt;Node17 -->
<g id="edge29" class="edge">
<title>Node0&#45;&gt;Node17</title>
<path fill="none" stroke="#191970" d="M410.6067,-336.2977C405.3869,-327.8498 398.8543,-317.2773 393.35,-308.369"/>
<polygon fill="#191970" stroke="#191970" points="396.3182,-306.5143 388.0843,-299.8469 390.3632,-310.1938 396.3182,-306.5143"/>
</g>
<!-- Node18 -->
<g id="node19" class="node">
<title>Node18</title>
<g id="a_node19"><a xlink:title=" ">
<polygon fill="#ffffff" stroke="#bfbfbf" points="432.5,-280.5 432.5,-299.5 483.5,-299.5 483.5,-280.5 432.5,-280.5"/>
<text text-anchor="middle" x="458" y="-287.5" font-family="Helvetica,sans-Serif" font-size="10.00" fill="#000000">math.h</text>
</a>
</g>
</g>
<!-- Node0&#45;&gt;Node18 -->
<g id="edge30" class="edge">
<title>Node0&#45;&gt;Node18</title>
<path fill="none" stroke="#191970" d="M429.3933,-336.2977C434.6131,-327.8498 441.1457,-317.2773 446.65,-308.369"/>
<polygon fill="#191970" stroke="#191970" points="449.6368,-310.1938 451.9157,-299.8469 443.6818,-306.5143 449.6368,-310.1938"/>
</g>
<!-- Node19 -->
<g id="node20" class="node">
<title>Node19</title>
<g id="a_node20"><a xlink:title=" ">
<polygon fill="#ffffff" stroke="#bfbfbf" points="502,-280.5 502,-299.5 552,-299.5 552,-280.5 502,-280.5"/>
<text text-anchor="middle" x="527" y="-287.5" font-family="Helvetica,sans-Serif" font-size="10.00" fill="#000000">stdio.h</text>
</a>
</g>
</g>
<!-- Node0&#45;&gt;Node19 -->
<g id="edge31" class="edge">
<title>Node0&#45;&gt;Node19</title>
<path fill="none" stroke="#191970" d="M446.1751,-336.4554C463.0887,-326.734 484.9829,-314.15 501.7172,-304.5317"/>
<polygon fill="#191970" stroke="#191970" points="503.493,-307.548 510.4188,-299.5303 500.0047,-301.4791 503.493,-307.548"/>
</g>
<!-- Node2 -->
<g id="node3" class="node">
<title>Node2</title>
<g id="a_node3"><a xlink:href="builtinutils_8h.html" target="_top" xlink:title=" ">
<polygon fill="#ffffff" stroke="#000000" points="29.5,-.5 29.5,-19.5 106.5,-19.5 106.5,-.5 29.5,-.5"/>
<text text-anchor="middle" x="68" y="-7.5" font-family="Helvetica,sans-Serif" font-size="10.00" fill="#000000">builtinutils.h</text>
</a>
</g>
</g>
<!-- Node1&#45;&gt;Node2 -->
<g id="edge2" class="edge">
<title>Node1&#45;&gt;Node2</title>
<path fill="none" stroke="#191970" d="M268.7416,-285.8119C214.6496,-278.217 106.1033,-261.3454 72,-244 33.307,-224.3202 0,-221.4102 0,-178 0,-178 0,-178 0,-122 0,-83.6435 29.5007,-47.2254 49.6402,-26.8326"/>
<polygon fill="#191970" stroke="#191970" points="52.353,-29.0762 57.0746,-19.5917 47.4689,-24.0616 52.353,-29.0762"/>
</g>
<!-- Node3 -->
<g id="node4" class="node">
<title>Node3</title>
<g id="a_node4"><a xlink:href="helios__boolean_8h.html" target="_top" xlink:title=" ">
<polygon fill="#ffffff" stroke="#000000" points="562.5,-224.5 562.5,-243.5 661.5,-243.5 661.5,-224.5 562.5,-224.5"/>
<text text-anchor="middle" x="612" y="-231.5" font-family="Helvetica,sans-Serif" font-size="10.00" fill="#000000">helios_boolean.h</text>
</a>
</g>
</g>
<!-- Node1&#45;&gt;Node3 -->
<g id="edge3" class="edge">
<title>Node1&#45;&gt;Node3</title>
<path fill="none" stroke="#191970" d="M331.2874,-282.1263C334.5598,-281.3755 337.8429,-280.6521 341,-280 380.341,-271.8741 485.1442,-254.5412 552.2927,-243.6257"/>
<polygon fill="#191970" stroke="#191970" points="553.0123,-247.0547 562.3222,-241.9975 551.8906,-240.1452 553.0123,-247.0547"/>
</g>
<!-- Node4 -->
<g id="node5" class="node">
<title>Node4</title>
<g id="a_node5"><a xlink:href="helios__object_8h.html" target="_top" xlink:title=" ">
<polygon fill="#ffffff" stroke="#000000" points="308,-168.5 308,-187.5 398,-187.5 398,-168.5 308,-168.5"/>
<text text-anchor="middle" x="353" y="-175.5" font-family="Helvetica,sans-Serif" font-size="10.00" fill="#000000">helios_object.h</text>
</a>
</g>
</g>
<!-- Node1&#45;&gt;Node4 -->
<g id="edge23" class="edge">
<title>Node1&#45;&gt;Node4</title>
<path fill="none" stroke="#191970" d="M268.9773,-287.6293C217.3411,-282.9681 117.3131,-270.6541 96,-244 90.4488,-237.0576 90.2951,-230.8166 96,-224 121.2147,-193.8715 230.1247,-183.4535 297.8191,-179.867"/>
<polygon fill="#191970" stroke="#191970" points="298.0873,-183.3581 307.9016,-179.3669 297.7405,-176.3667 298.0873,-183.3581"/>
</g>
<!-- Node6 -->
<g id="node7" class="node">
<title>Node6</title>
<g id="a_node7"><a xlink:href="helios__memory_8h.html" target="_top" xlink:title=" ">
<polygon fill="#ffffff" stroke="#000000" points="198,-56.5 198,-75.5 298,-75.5 298,-56.5 198,-56.5"/>
<text text-anchor="middle" x="248" y="-63.5" font-family="Helvetica,sans-Serif" font-size="10.00" fill="#000000">helios_memory.h</text>
</a>
</g>
</g>
<!-- Node1&#45;&gt;Node6 -->
<g id="edge26" class="edge">
<title>Node1&#45;&gt;Node6</title>
<path fill="none" stroke="#191970" d="M268.906,-287.9473C215.4089,-283.6973 109.5129,-271.8939 87,-244 35.5608,-180.2659 158.0249,-109.4674 217.6699,-80.0253"/>
<polygon fill="#191970" stroke="#191970" points="219.5335,-83.0116 227.0063,-75.501 216.4809,-76.7122 219.5335,-83.0116"/>
</g>
<!-- Node11 -->
<g id="node12" class="node">
<title>Node11</title>
<g id="a_node12"><a xlink:href="helios__code_8h.html" target="_top" xlink:title=" ">
<polygon fill="#ffffff" stroke="#000000" points="104.5,-224.5 104.5,-243.5 187.5,-243.5 187.5,-224.5 104.5,-224.5"/>
<text text-anchor="middle" x="146" y="-231.5" font-family="Helvetica,sans-Serif" font-size="10.00" fill="#000000">helios_code.h</text>
</a>
</g>
</g>
<!-- Node1&#45;&gt;Node11 -->
<g id="edge14" class="edge">
<title>Node1&#45;&gt;Node11</title>
<path fill="none" stroke="#191970" d="M273.5265,-280.3733C248.1403,-271.1419 209.6355,-257.1402 181.578,-246.9375"/>
<polygon fill="#191970" stroke="#191970" points="182.7222,-243.6293 172.1281,-243.5011 180.3299,-250.2079 182.7222,-243.6293"/>
</g>
<!-- Node12 -->
<g id="node13" class="node">
<title>Node12</title>
<g id="a_node13"><a xlink:href="helios__float_8h.html" target="_top" xlink:title=" ">
<polygon fill="#ffffff" stroke="#000000" points="206,-224.5 206,-243.5 288,-243.5 288,-224.5 206,-224.5"/>
<text text-anchor="middle" x="247" y="-231.5" font-family="Helvetica,sans-Serif" font-size="10.00" fill="#000000">helios_float.h</text>
</a>
</g>
</g>
<!-- Node1&#45;&gt;Node12 -->
<g id="edge16" class="edge">
<title>Node1&#45;&gt;Node12</title>
<path fill="none" stroke="#191970" d="M290.7681,-280.2455C283.1683,-272.2155 272.2123,-260.6394 263.1632,-251.0781"/>
<polygon fill="#191970" stroke="#191970" points="265.542,-248.4998 256.1261,-243.6427 260.4579,-253.3115 265.542,-248.4998"/>
</g>
<!-- Node13 -->
<g id="node14" class="node">
<title>Node13</title>
<g id="a_node14"><a xlink:href="helios__hashmap_8h.html" target="_top" xlink:title=" ">
<polygon fill="#ffffff" stroke="#000000" points="679.5,-224.5 679.5,-243.5 784.5,-243.5 784.5,-224.5 679.5,-224.5"/>
<text text-anchor="middle" x="732" y="-231.5" font-family="Helvetica,sans-Serif" font-size="10.00" fill="#000000">helios_hashmap.h</text>
</a>
</g>
</g>
<!-- Node1&#45;&gt;Node13 -->
<g id="edge18" class="edge">
<title>Node1&#45;&gt;Node13</title>
<path fill="none" stroke="#191970" d="M331.2504,-281.9326C334.53,-281.2195 337.8249,-280.5579 341,-280 483.0466,-255.0392 523.0333,-263.5331 669.2079,-244.1773"/>
<polygon fill="#191970" stroke="#191970" points="670.0108,-247.6009 679.4546,-242.7983 669.077,-240.6635 670.0108,-247.6009"/>
</g>
<!-- Node14 -->
<g id="node15" class="node">
<title>Node14</title>
<g id="a_node15"><a xlink:href="helios__integer_8h.html" target="_top" xlink:title=" ">
<polygon fill="#ffffff" stroke="#000000" points="306,-224.5 306,-243.5 400,-243.5 400,-224.5 306,-224.5"/>
<text text-anchor="middle" x="353" y="-231.5" font-family="Helvetica,sans-Serif" font-size="10.00" fill="#000000">helios_integer.h</text>
</a>
</g>
</g>
<!-- Node1&#45;&gt;Node14 -->
<g id="edge21" class="edge">
<title>Node1&#45;&gt;Node14</title>
<path fill="none" stroke="#191970" d="M309.2319,-280.2455C316.8317,-272.2155 327.7877,-260.6394 336.8368,-251.0781"/>
<polygon fill="#191970" stroke="#191970" points="339.5421,-253.3115 343.8739,-243.6427 334.458,-248.4998 339.5421,-253.3115"/>
</g>
<!-- Node15 -->
<g id="node16" class="node">
<title>Node15</title>
<g id="a_node16"><a xlink:href="helios__string_8h.html" target="_top" xlink:title=" ">
<polygon fill="#ffffff" stroke="#000000" points="418,-224.5 418,-243.5 506,-243.5 506,-224.5 418,-224.5"/>
<text text-anchor="middle" x="462" y="-231.5" font-family="Helvetica,sans-Serif" font-size="10.00" fill="#000000">helios_string.h</text>
</a>
</g>
</g>
<!-- Node1&#45;&gt;Node15 -->
<g id="edge24" class="edge">
<title>Node1&#45;&gt;Node15</title>
<path fill="none" stroke="#191970" d="M327.8488,-280.3733C354.6703,-271.1016 395.4127,-257.0178 424.9598,-246.804"/>
<polygon fill="#191970" stroke="#191970" points="426.2069,-250.0762 434.5146,-243.5011 423.9198,-243.4603 426.2069,-250.0762"/>
</g>
<!-- Node16 -->
<g id="node17" class="node">
<title>Node16</title>
<g id="a_node17"><a xlink:href="serialize_8h.html" target="_top" xlink:title=" ">
<polygon fill="#ffffff" stroke="#000000" points="458.5,-168.5 458.5,-187.5 525.5,-187.5 525.5,-168.5 458.5,-168.5"/>
<text text-anchor="middle" x="492" y="-175.5" font-family="Helvetica,sans-Serif" font-size="10.00" fill="#000000">serialize.h</text>
</a>
</g>
</g>
<!-- Node1&#45;&gt;Node16 -->
<g id="edge27" class="edge">
<title>Node1&#45;&gt;Node16</title>
<path fill="none" stroke="#191970" d="M331.3125,-282.2426C334.5801,-281.4691 337.8551,-280.7086 341,-280 418.0397,-262.641 465.1357,-305.2372 515,-244 526.4209,-229.9743 516.7435,-209.9053 506.6657,-195.5861"/>
<polygon fill="#191970" stroke="#191970" points="509.3664,-193.3554 500.5242,-187.5188 503.7967,-197.5955 509.3664,-193.3554"/>
</g>
<!-- Node3&#45;&gt;Node4 -->
<g id="edge4" class="edge">
<title>Node3&#45;&gt;Node4</title>
<path fill="none" stroke="#191970" d="M567.7706,-224.4369C523.2585,-214.8127 454.551,-199.957 406.8831,-189.6504"/>
<polygon fill="#191970" stroke="#191970" points="407.5608,-186.2161 397.047,-187.5237 406.0814,-193.058 407.5608,-186.2161"/>
</g>
<!-- Node7 -->
<g id="node8" class="node">
<title>Node7</title>
<g id="a_node8"><a xlink:title=" ">
<polygon fill="#ffffff" stroke="#bfbfbf" points="581,-.5 581,-19.5 643,-19.5 643,-.5 581,-.5"/>
<text text-anchor="middle" x="612" y="-7.5" font-family="Helvetica,sans-Serif" font-size="10.00" fill="#000000">stdbool.h</text>
</a>
</g>
</g>
<!-- Node3&#45;&gt;Node7 -->
<g id="edge13" class="edge">
<title>Node3&#45;&gt;Node7</title>
<path fill="none" stroke="#191970" d="M612,-224.375C612,-190.4851 612,-76.2317 612,-29.8332"/>
<polygon fill="#191970" stroke="#191970" points="615.5001,-29.5891 612,-19.5891 608.5001,-29.5892 615.5001,-29.5891"/>
</g>
<!-- Node5 -->
<g id="node6" class="node">
<title>Node5</title>
<g id="a_node6"><a xlink:href="helios__type_8h.html" target="_top" xlink:title=" ">
<polygon fill="#ffffff" stroke="#000000" points="312,-112.5 312,-131.5 394,-131.5 394,-112.5 312,-112.5"/>
<text text-anchor="middle" x="353" y="-119.5" font-family="Helvetica,sans-Serif" font-size="10.00" fill="#000000">helios_type.h</text>
</a>
</g>
</g>
<!-- Node4&#45;&gt;Node5 -->
<g id="edge5" class="edge">
<title>Node4&#45;&gt;Node5</title>
<path fill="none" stroke="#191970" d="M353,-168.2455C353,-160.9382 353,-150.6944 353,-141.7046"/>
<polygon fill="#191970" stroke="#191970" points="356.5001,-141.6426 353,-131.6427 349.5001,-141.6427 356.5001,-141.6426"/>
</g>
<!-- Node5&#45;&gt;Node6 -->
<g id="edge6" class="edge">
<title>Node5&#45;&gt;Node6</title>
<path fill="none" stroke="#191970" d="M334.7104,-112.2455C318.2238,-103.4527 293.7648,-90.4079 275.0235,-80.4125"/>
<polygon fill="#191970" stroke="#191970" points="276.5506,-77.2604 266.08,-75.6427 273.2565,-83.4368 276.5506,-77.2604"/>
</g>
<!-- Node9 -->
<g id="node10" class="node">
<title>Node9</title>
<g id="a_node10"><a xlink:title=" ">
<polygon fill="#ffffff" stroke="#bfbfbf" points="297.5,-.5 297.5,-19.5 350.5,-19.5 350.5,-.5 297.5,-.5"/>
<text text-anchor="middle" x="324" y="-7.5" font-family="Helvetica,sans-Serif" font-size="10.00" fill="#000000">stdint.h</text>
</a>
</g>
</g>
<!-- Node5&#45;&gt;Node9 -->
<g id="edge11" class="edge">
<title>Node5&#45;&gt;Node9</title>
<path fill="none" stroke="#191970" d="M350.5275,-112.4509C345.7762,-94.1013 335.2869,-53.5908 329.0153,-29.3693"/>
<polygon fill="#191970" stroke="#191970" points="332.3612,-28.3283 326.4663,-19.5249 325.5847,-30.083 332.3612,-28.3283"/>
</g>
<!-- Node10 -->
<g id="node11" class="node">
<title>Node10</title>
<g id="a_node11"><a xlink:title=" ">
<polygon fill="#ffffff" stroke="#bfbfbf" points="354.5,-56.5 354.5,-75.5 407.5,-75.5 407.5,-56.5 354.5,-56.5"/>
<text text-anchor="middle" x="381" y="-63.5" font-family="Helvetica,sans-Serif" font-size="10.00" fill="#000000">stdlib.h</text>
</a>
</g>
</g>
<!-- Node5&#45;&gt;Node10 -->
<g id="edge12" class="edge">
<title>Node5&#45;&gt;Node10</title>
<path fill="none" stroke="#191970" d="M357.8772,-112.2455C361.6513,-104.6973 366.9921,-94.0158 371.5901,-84.8197"/>
<polygon fill="#191970" stroke="#191970" points="374.837,-86.1522 376.1787,-75.6427 368.576,-83.0217 374.837,-86.1522"/>
</g>
<!-- Node6&#45;&gt;Node2 -->
<g id="edge7" class="edge">
<title>Node6&#45;&gt;Node2</title>
<path fill="none" stroke="#191970" d="M217.0569,-56.3733C186.9961,-47.021 141.1974,-32.7725 108.3022,-22.5385"/>
<polygon fill="#191970" stroke="#191970" points="109.1277,-19.1299 98.5393,-19.5011 107.0481,-25.8139 109.1277,-19.1299"/>
</g>
<!-- Node6&#45;&gt;Node7 -->
<g id="edge8" class="edge">
<title>Node6&#45;&gt;Node7</title>
<path fill="none" stroke="#191970" d="M298.2305,-58.2722C370.7995,-47.1078 503.6103,-26.6753 570.774,-16.3425"/>
<polygon fill="#191970" stroke="#191970" points="571.619,-19.7537 580.9705,-14.7738 570.5545,-12.8351 571.619,-19.7537"/>
</g>
<!-- Node8 -->
<g id="node9" class="node">
<title>Node8</title>
<g id="a_node9"><a xlink:title=" ">
<polygon fill="#ffffff" stroke="#bfbfbf" points="220,-.5 220,-19.5 276,-19.5 276,-.5 220,-.5"/>
<text text-anchor="middle" x="248" y="-7.5" font-family="Helvetica,sans-Serif" font-size="10.00" fill="#000000">stddef.h</text>
</a>
</g>
</g>
<!-- Node6&#45;&gt;Node8 -->
<g id="edge9" class="edge">
<title>Node6&#45;&gt;Node8</title>
<path fill="none" stroke="#191970" d="M248,-56.2455C248,-48.9382 248,-38.6944 248,-29.7046"/>
<polygon fill="#191970" stroke="#191970" points="251.5001,-29.6426 248,-19.6427 244.5001,-29.6427 251.5001,-29.6426"/>
</g>
<!-- Node6&#45;&gt;Node9 -->
<g id="edge10" class="edge">
<title>Node6&#45;&gt;Node9</title>
<path fill="none" stroke="#191970" d="M261.2382,-56.2455C272.681,-47.814 289.4296,-35.4729 302.7475,-25.6598"/>
<polygon fill="#191970" stroke="#191970" points="304.9391,-28.3924 310.9135,-19.6427 300.7867,-22.757 304.9391,-28.3924"/>
</g>
<!-- Node11&#45;&gt;Node4 -->
<g id="edge15" class="edge">
<title>Node11&#45;&gt;Node4</title>
<path fill="none" stroke="#191970" d="M181.5846,-224.3733C216.6016,-214.9001 270.1881,-200.4032 308.1125,-190.1435"/>
<polygon fill="#191970" stroke="#191970" points="309.1408,-193.4912 317.8798,-187.5011 307.3127,-186.7341 309.1408,-193.4912"/>
</g>
<!-- Node12&#45;&gt;Node4 -->
<g id="edge17" class="edge">
<title>Node12&#45;&gt;Node4</title>
<path fill="none" stroke="#191970" d="M265.4638,-224.2455C282.1074,-215.4527 306.7993,-202.4079 325.7192,-192.4125"/>
<polygon fill="#191970" stroke="#191970" points="327.5408,-195.4086 334.7478,-187.6427 324.2709,-189.2193 327.5408,-195.4086"/>
</g>
<!-- Node13&#45;&gt;Node4 -->
<g id="edge19" class="edge">
<title>Node13&#45;&gt;Node4</title>
<path fill="none" stroke="#191970" d="M679.4375,-225.3187C676.5843,-224.8676 673.7576,-224.4254 671,-224 578.9562,-209.7995 471.7152,-194.5563 408.2479,-185.6703"/>
<polygon fill="#191970" stroke="#191970" points="408.4537,-182.1651 398.0654,-184.2466 407.4844,-189.0976 408.4537,-182.1651"/>
</g>
<!-- Node13&#45;&gt;Node7 -->
<g id="edge20" class="edge">
<title>Node13&#45;&gt;Node7</title>
<path fill="none" stroke="#191970" d="M726.8438,-224.375C708.5346,-190.1979 646.4408,-74.2894 622.0009,-28.6683"/>
<polygon fill="#191970" stroke="#191970" points="624.9445,-26.7512 617.137,-19.5891 618.7741,-30.0567 624.9445,-26.7512"/>
</g>
<!-- Node14&#45;&gt;Node4 -->
<g id="edge22" class="edge">
<title>Node14&#45;&gt;Node4</title>
<path fill="none" stroke="#191970" d="M353,-224.2455C353,-216.9382 353,-206.6944 353,-197.7046"/>
<polygon fill="#191970" stroke="#191970" points="356.5001,-197.6426 353,-187.6427 349.5001,-197.6427 356.5001,-197.6426"/>
</g>
<!-- Node15&#45;&gt;Node4 -->
<g id="edge25" class="edge">
<title>Node15&#45;&gt;Node4</title>
<path fill="none" stroke="#191970" d="M443.0136,-224.2455C425.8208,-215.4125 400.2762,-202.2887 380.7868,-192.2758"/>
<polygon fill="#191970" stroke="#191970" points="382.263,-189.0993 371.7688,-187.6427 379.0641,-195.3257 382.263,-189.0993"/>
</g>
<!-- Node16&#45;&gt;Node5 -->
<g id="edge28" class="edge">
<title>Node16&#45;&gt;Node5</title>
<path fill="none" stroke="#191970" d="M468.105,-168.3733C445.4918,-159.2629 411.3458,-145.5062 386.1127,-135.3404"/>
<polygon fill="#191970" stroke="#191970" points="387.1666,-131.9917 376.5831,-131.5011 384.5507,-138.4845 387.1666,-131.9917"/>
</g>
</g>
</svg>
