<?xml version="1.0" encoding="UTF-8" standalone="no"?>
<!DOCTYPE svg PUBLIC "-//W3C//DTD SVG 1.1//EN"
 "http://www.w3.org/Graphics/SVG/1.1/DTD/svg11.dtd">
<!-- Generated by graphviz version 2.40.1 (20161225.0304)
 -->
<!-- Title: builtins/serialization/serialize.c Pages: 1 -->
<!--zoomable 375 -->
<svg id="main" version="1.1" xmlns="http://www.w3.org/2000/svg" xmlns:xlink="http://www.w3.org/1999/xlink" xml:space="preserve" onload="init(evt)">
<style type="text/css"><![CDATA[
.edge:hover path { stroke: red; }
.edge:hover polygon { stroke: red; fill: red; }
]]></style>
<script type="text/javascript"><![CDATA[
var edges = document.getElementsByTagName('g');
if (edges && edges.length) {
  for (var i=0;i<edges.length;i++) {
    if (edges[i].id.substr(0,4)=='edge') {
      edges[i].setAttribute('class','edge');
    }
  }
}
]]></script>
        <defs>
                <circle id="rim" cx="0" cy="0" r="7"/>
                <circle id="rim2" cx="0" cy="0" r="3.5"/>
                <g id="zoomPlus">
                        <use xlink:href="#rim" fill="#404040">
                                <set attributeName="fill" to="#808080" begin="zoomplus.mouseover" end="zoomplus.mouseout"/>
                        </use>
                        <path d="M-4,0h8M0,-4v8" fill="none" stroke="white" stroke-width="1.5" pointer-events="none"/>
                </g>
                <g id="zoomMin">
                        <use xlink:href="#rim" fill="#404040">
                                <set attributeName="fill" to="#808080" begin="zoomminus.mouseover" end="zoomminus.mouseout"/>
                        </use>
                        <path d="M-4,0h8" fill="none" stroke="white" stroke-width="1.5" pointer-events="none"/>
                </g>
                <g id="dirArrow">
                        <path fill="none" stroke="white" stroke-width="1.5" d="M0,-3.0v7 M-2.5,-0.5L0,-3.0L2.5,-0.5"/>
                </g>
               <g id="resetDef">
                       <use xlink:href="#rim2" fill="#404040">
                               <set attributeName="fill" to="#808080" begin="reset.mouseover" end="reset.mouseout"/>
                       </use>
               </g>
        </defs>

<script type="text/javascript">
var viewWidth = 741;
var viewHeight = 375;
var sectionId = 'dynsection-0';
</script>
<script xlink:href="svgpan.js"/>
<svg id="graph" class="graph">
<g id="viewport">
<title>builtins/serialization/serialize.c</title>
<polygon fill="#ffffff" stroke="transparent" points="-4,4 -4,-371 736.5,-371 736.5,4 -4,4"/>
<!-- Node0 -->
<g id="node1" class="node">
<title>Node0</title>
<g id="a_node1"><a xlink:title=" ">
<polygon fill="#bfbfbf" stroke="#000000" points="345,-336.5 345,-366.5 447,-366.5 447,-336.5 345,-336.5"/>
<text text-anchor="start" x="353" y="-354.5" font-family="Helvetica,sans-Serif" font-size="10.00" fill="#000000">builtins/serialization</text>
<text text-anchor="middle" x="396" y="-343.5" font-family="Helvetica,sans-Serif" font-size="10.00" fill="#000000">/serialize.c</text>
</a>
</g>
</g>
<!-- Node1 -->
<g id="node2" class="node">
<title>Node1</title>
<g id="a_node2"><a xlink:href="builtins_8h.html" target="_top" xlink:title=" ">
<polygon fill="#ffffff" stroke="#000000" points="257,-280.5 257,-299.5 313,-299.5 313,-280.5 257,-280.5"/>
<text text-anchor="middle" x="285" y="-287.5" font-family="Helvetica,sans-Serif" font-size="10.00" fill="#000000">builtins.h</text>
</a>
</g>
</g>
<!-- Node0&#45;&gt;Node1 -->
<g id="edge1" class="edge">
<title>Node0&#45;&gt;Node1</title>
<path fill="none" stroke="#191970" d="M368.8463,-336.4554C351.3005,-326.734 328.5878,-314.15 311.2279,-304.5317"/>
<polygon fill="#191970" stroke="#191970" points="312.6445,-301.3153 302.2011,-299.5303 309.252,-307.4383 312.6445,-301.3153"/>
</g>
<!-- Node17 -->
<g id="node18" class="node">
<title>Node17</title>
<g id="a_node18"><a xlink:title=" ">
<polygon fill="#ffffff" stroke="#bfbfbf" points="331.5,-280.5 331.5,-299.5 390.5,-299.5 390.5,-280.5 331.5,-280.5"/>
<text text-anchor="middle" x="361" y="-287.5" font-family="Helvetica,sans-Serif" font-size="10.00" fill="#000000">inttypes.h</text>
</a>
</g>
</g>
<!-- Node0&#45;&gt;Node17 -->
<g id="edge29" class="edge">
<title>Node0&#45;&gt;Node17</title>
<path fill="none" stroke="#191970" d="M387.3483,-336.2977C382.5912,-327.9388 376.6502,-317.4997 371.6143,-308.6509"/>
<polygon fill="#191970" stroke="#191970" points="374.5921,-306.8069 366.6039,-299.8469 368.5083,-310.2692 374.5921,-306.8069"/>
</g>
<!-- Node18 -->
<g id="node19" class="node">
<title>Node18</title>
<g id="a_node19"><a xlink:title=" ">
<polygon fill="#ffffff" stroke="#bfbfbf" points="408.5,-280.5 408.5,-299.5 455.5,-299.5 455.5,-280.5 408.5,-280.5"/>
<text text-anchor="middle" x="432" y="-287.5" font-family="Helvetica,sans-Serif" font-size="10.00" fill="#000000">math.h</text>
</a>
</g>
</g>
<!-- Node0&#45;&gt;Node18 -->
<g id="edge30" class="edge">
<title>Node0&#45;&gt;Node18</title>
<path fill="none" stroke="#191970" d="M404.8989,-336.2977C409.7919,-327.9388 415.9026,-317.4997 421.0824,-308.6509"/>
<polygon fill="#191970" stroke="#191970" points="424.2047,-310.2452 426.2359,-299.8469 418.1635,-306.7089 424.2047,-310.2452"/>
</g>
<!-- Node19 -->
<g id="node20" class="node">
<title>Node19</title>
<g id="a_node20"><a xlink:title=" ">
<polygon fill="#ffffff" stroke="#bfbfbf" points="474,-280.5 474,-299.5 520,-299.5 520,-280.5 474,-280.5"/>
<text text-anchor="middle" x="497" y="-287.5" font-family="Helvetica,sans-Serif" font-size="10.00" fill="#000000">stdio.h</text>
</a>
</g>
</g>
<!-- Node0&#45;&gt;Node19 -->
<g id="edge31" class="edge">
<title>Node0&#45;&gt;Node19</title>
<path fill="none" stroke="#191970" d="M420.7074,-336.4554C436.5247,-326.8241 456.9567,-314.3828 472.6949,-304.7996"/>
<polygon fill="#191970" stroke="#191970" points="474.6277,-307.7206 481.3486,-299.5303 470.9871,-301.7418 474.6277,-307.7206"/>
</g>
<!-- Node2 -->
<g id="node3" class="node">
<title>Node2</title>
<g id="a_node3"><a xlink:href="builtinutils_8h.html" target="_top" xlink:title=" ">
<polygon fill="#ffffff" stroke="#000000" points="32,-.5 32,-19.5 100,-19.5 100,-.5 32,-.5"/>
<text text-anchor="middle" x="66" y="-7.5" font-family="Helvetica,sans-Serif" font-size="10.00" fill="#000000">builtinutils.h</text>
</a>
</g>
</g>
<!-- Node1&#45;&gt;Node2 -->
<g id="edge2" class="edge">
<title>Node1&#45;&gt;Node2</title>
<path fill="none" stroke="#191970" d="M256.878,-288.5948C214.5643,-285.4823 132.9898,-275.5446 72,-244 33.4418,-224.0573 0,-221.4102 0,-178 0,-178 0,-178 0,-122 0,-83.944 28.6331,-47.4306 48.1802,-26.9377"/>
<polygon fill="#191970" stroke="#191970" points="50.8422,-29.2238 55.396,-19.6575 45.8705,-24.2961 50.8422,-29.2238"/>
</g>
<!-- Node3 -->
<g id="node4" class="node">
<title>Node3</title>
<g id="a_node4"><a xlink:href="helios__boolean_8h.html" target="_top" xlink:title=" ">
<polygon fill="#ffffff" stroke="#000000" points="530.5,-224.5 530.5,-243.5 619.5,-243.5 619.5,-224.5 530.5,-224.5"/>
<text text-anchor="middle" x="575" y="-231.5" font-family="Helvetica,sans-Serif" font-size="10.00" fill="#000000">helios_boolean.h</text>
</a>
</g>
</g>
<!-- Node1&#45;&gt;Node3 -->
<g id="edge3" class="edge">
<title>Node1&#45;&gt;Node3</title>
<path fill="none" stroke="#191970" d="M313.163,-282.3313C316.4701,-281.5073 319.8037,-280.7112 323,-280 359.7014,-271.8338 457.8567,-254.3874 520.2747,-243.4823"/>
<polygon fill="#191970" stroke="#191970" points="521.1004,-246.8912 530.3501,-241.7246 519.8974,-239.9954 521.1004,-246.8912"/>
</g>
<!-- Node4 -->
<g id="node5" class="node">
<title>Node4</title>
<g id="a_node5"><a xlink:href="helios__object_8h.html" target="_top" xlink:title=" ">
<polygon fill="#ffffff" stroke="#000000" points="293,-168.5 293,-187.5 375,-187.5 375,-168.5 293,-168.5"/>
<text text-anchor="middle" x="334" y="-175.5" font-family="Helvetica,sans-Serif" font-size="10.00" fill="#000000">helios_object.h</text>
</a>
</g>
</g>
<!-- Node1&#45;&gt;Node4 -->
<g id="edge23" class="edge">
<title>Node1&#45;&gt;Node4</title>
<path fill="none" stroke="#191970" d="M256.9906,-287.353C209.3373,-282.2072 115.718,-269.0927 96,-244 90.5079,-237.0108 90.3423,-230.8559 96,-224 119.2168,-195.8663 220.1209,-184.7416 282.8553,-180.4908"/>
<polygon fill="#191970" stroke="#191970" points="283.2022,-183.9759 292.9577,-179.8431 282.7542,-176.9902 283.2022,-183.9759"/>
</g>
<!-- Node6 -->
<g id="node7" class="node">
<title>Node6</title>
<g id="a_node7"><a xlink:href="helios__memory_8h.html" target="_top" xlink:title=" ">
<polygon fill="#ffffff" stroke="#000000" points="190,-56.5 190,-75.5 280,-75.5 280,-56.5 190,-56.5"/>
<text text-anchor="middle" x="235" y="-63.5" font-family="Helvetica,sans-Serif" font-size="10.00" fill="#000000">helios_memory.h</text>
</a>
</g>
</g>
<!-- Node1&#45;&gt;Node6 -->
<g id="edge26" class="edge">
<title>Node1&#45;&gt;Node6</title>
<path fill="none" stroke="#191970" d="M256.8532,-287.6762C207.3401,-282.9413 107.9072,-270.3212 87,-244 37.8501,-182.1225 151.51,-110.2902 206.8771,-80.2982"/>
<polygon fill="#191970" stroke="#191970" points="208.6717,-83.308 215.8581,-75.5231 205.3854,-77.1273 208.6717,-83.308"/>
</g>
<!-- Node11 -->
<g id="node12" class="node">
<title>Node11</title>
<g id="a_node12"><a xlink:href="helios__code_8h.html" target="_top" xlink:title=" ">
<polygon fill="#ffffff" stroke="#000000" points="104.5,-224.5 104.5,-243.5 181.5,-243.5 181.5,-224.5 104.5,-224.5"/>
<text text-anchor="middle" x="143" y="-231.5" font-family="Helvetica,sans-Serif" font-size="10.00" fill="#000000">helios_code.h</text>
</a>
</g>
</g>
<!-- Node1&#45;&gt;Node11 -->
<g id="edge14" class="edge">
<title>Node1&#45;&gt;Node11</title>
<path fill="none" stroke="#191970" d="M260.5893,-280.3733C237.3858,-271.2226 202.2962,-257.3844 176.4858,-247.2057"/>
<polygon fill="#191970" stroke="#191970" points="177.6789,-243.9139 167.0921,-243.5011 175.1108,-250.4258 177.6789,-243.9139"/>
</g>
<!-- Node12 -->
<g id="node13" class="node">
<title>Node12</title>
<g id="a_node13"><a xlink:href="helios__float_8h.html" target="_top" xlink:title=" ">
<polygon fill="#ffffff" stroke="#000000" points="200,-224.5 200,-243.5 274,-243.5 274,-224.5 200,-224.5"/>
<text text-anchor="middle" x="237" y="-231.5" font-family="Helvetica,sans-Serif" font-size="10.00" fill="#000000">helios_float.h</text>
</a>
</g>
</g>
<!-- Node1&#45;&gt;Node12 -->
<g id="edge16" class="edge">
<title>Node1&#45;&gt;Node12</title>
<path fill="none" stroke="#191970" d="M276.639,-280.2455C269.825,-272.2958 260.0319,-260.8706 251.8848,-251.3656"/>
<polygon fill="#191970" stroke="#191970" points="254.4305,-248.9575 245.2651,-243.6427 249.1157,-253.513 254.4305,-248.9575"/>
</g>
<!-- Node13 -->
<g id="node14" class="node">
<title>Node13</title>
<g id="a_node14"><a xlink:href="helios__hashmap_8h.html" target="_top" xlink:title=" ">
<polygon fill="#ffffff" stroke="#000000" points="637.5,-224.5 637.5,-243.5 732.5,-243.5 732.5,-224.5 637.5,-224.5"/>
<text text-anchor="middle" x="685" y="-231.5" font-family="Helvetica,sans-Serif" font-size="10.00" fill="#000000">helios_hashmap.h</text>
</a>
</g>
</g>
<!-- Node1&#45;&gt;Node13 -->
<g id="edge18" class="edge">
<title>Node1&#45;&gt;Node13</title>
<path fill="none" stroke="#191970" d="M313.1215,-282.1299C316.436,-281.3419 319.7827,-280.6095 323,-280 454.3917,-255.1099 491.7959,-263.6175 627.4343,-244.1546"/>
<polygon fill="#191970" stroke="#191970" points="627.9831,-247.6116 637.3727,-242.704 626.972,-240.685 627.9831,-247.6116"/>
</g>
<!-- Node14 -->
<g id="node15" class="node">
<title>Node14</title>
<g id="a_node15"><a xlink:href="helios__integer_8h.html" target="_top" xlink:title=" ">
<polygon fill="#ffffff" stroke="#000000" points="292,-224.5 292,-243.5 376,-243.5 376,-224.5 292,-224.5"/>
<text text-anchor="middle" x="334" y="-231.5" font-family="Helvetica,sans-Serif" font-size="10.00" fill="#000000">helios_integer.h</text>
</a>
</g>
</g>
<!-- Node1&#45;&gt;Node14 -->
<g id="edge21" class="edge">
<title>Node1&#45;&gt;Node14</title>
<path fill="none" stroke="#191970" d="M293.5351,-280.2455C300.4912,-272.2958 310.4883,-260.8706 318.8051,-251.3656"/>
<polygon fill="#191970" stroke="#191970" points="321.6116,-253.4732 325.5627,-243.6427 316.3436,-248.8637 321.6116,-253.4732"/>
</g>
<!-- Node15 -->
<g id="node16" class="node">
<title>Node15</title>
<g id="a_node16"><a xlink:href="helios__string_8h.html" target="_top" xlink:title=" ">
<polygon fill="#ffffff" stroke="#000000" points="394,-224.5 394,-243.5 474,-243.5 474,-224.5 394,-224.5"/>
<text text-anchor="middle" x="434" y="-231.5" font-family="Helvetica,sans-Serif" font-size="10.00" fill="#000000">helios_string.h</text>
</a>
</g>
</g>
<!-- Node1&#45;&gt;Node15 -->
<g id="edge24" class="edge">
<title>Node1&#45;&gt;Node15</title>
<path fill="none" stroke="#191970" d="M310.614,-280.3733C335.0687,-271.1822 372.1054,-257.2624 399.2209,-247.0713"/>
<polygon fill="#191970" stroke="#191970" points="400.5909,-250.2956 408.7202,-243.5011 398.1281,-243.7431 400.5909,-250.2956"/>
</g>
<!-- Node16 -->
<g id="node17" class="node">
<title>Node16</title>
<g id="a_node17"><a xlink:href="serialize_8h.html" target="_top" xlink:title=" ">
<polygon fill="#ffffff" stroke="#000000" points="432.5,-168.5 432.5,-187.5 493.5,-187.5 493.5,-168.5 432.5,-168.5"/>
<text text-anchor="middle" x="463" y="-175.5" font-family="Helvetica,sans-Serif" font-size="10.00" fill="#000000">serialize.h</text>
</a>
</g>
</g>
<!-- Node1&#45;&gt;Node16 -->
<g id="edge27" class="edge">
<title>Node1&#45;&gt;Node16</title>
<path fill="none" stroke="#191970" d="M313.193,-282.4601C316.4947,-281.6129 319.8188,-280.7762 323,-280 393.8115,-262.7223 437.4667,-300.9167 483,-244 494.0438,-230.1953 485.6943,-210.3584 476.6489,-196.0405"/>
<polygon fill="#191970" stroke="#191970" points="479.355,-193.7989 470.8011,-187.5473 473.5895,-197.7687 479.355,-193.7989"/>
</g>
<!-- Node3&#45;&gt;Node4 -->
<g id="edge4" class="edge">
<title>Node3&#45;&gt;Node4</title>
<path fill="none" stroke="#191970" d="M533.8445,-224.4369C492.6858,-214.8731 429.295,-200.1432 384.9758,-189.845"/>
<polygon fill="#191970" stroke="#191970" points="385.5185,-186.3779 374.9858,-187.5237 383.9341,-193.1963 385.5185,-186.3779"/>
</g>
<!-- Node7 -->
<g id="node8" class="node">
<title>Node7</title>
<g id="a_node8"><a xlink:title=" ">
<polygon fill="#ffffff" stroke="#bfbfbf" points="547,-.5 547,-19.5 603,-19.5 603,-.5 547,-.5"/>
<text text-anchor="middle" x="575" y="-7.5" font-family="Helvetica,sans-Serif" font-size="10.00" fill="#000000">stdbool.h</text>
</a>
</g>
</g>
<!-- Node3&#45;&gt;Node7 -->
<g id="edge13" class="edge">
<title>Node3&#45;&gt;Node7</title>
<path fill="none" stroke="#191970" d="M575,-224.375C575,-190.4851 575,-76.2317 575,-29.8332"/>
<polygon fill="#191970" stroke="#191970" points="578.5001,-29.5891 575,-19.5891 571.5001,-29.5892 578.5001,-29.5891"/>
</g>
<!-- Node5 -->
<g id="node6" class="node">
<title>Node5</title>
<g id="a_node6"><a xlink:href="helios__type_8h.html" target="_top" xlink:title=" ">
<polygon fill="#ffffff" stroke="#000000" points="297,-112.5 297,-131.5 371,-131.5 371,-112.5 297,-112.5"/>
<text text-anchor="middle" x="334" y="-119.5" font-family="Helvetica,sans-Serif" font-size="10.00" fill="#000000">helios_type.h</text>
</a>
</g>
</g>
<!-- Node4&#45;&gt;Node5 -->
<g id="edge5" class="edge">
<title>Node4&#45;&gt;Node5</title>
<path fill="none" stroke="#191970" d="M334,-168.2455C334,-160.9382 334,-150.6944 334,-141.7046"/>
<polygon fill="#191970" stroke="#191970" points="337.5001,-141.6426 334,-131.6427 330.5001,-141.6427 337.5001,-141.6426"/>
</g>
<!-- Node5&#45;&gt;Node6 -->
<g id="edge6" class="edge">
<title>Node5&#45;&gt;Node6</title>
<path fill="none" stroke="#191970" d="M316.7555,-112.2455C301.4239,-103.5731 278.7801,-90.7645 261.2084,-80.825"/>
<polygon fill="#191970" stroke="#191970" points="262.4741,-77.5198 252.0469,-75.6427 259.0276,-83.6126 262.4741,-77.5198"/>
</g>
<!-- Node9 -->
<g id="node10" class="node">
<title>Node9</title>
<g id="a_node10"><a xlink:title=" ">
<polygon fill="#ffffff" stroke="#bfbfbf" points="281.5,-.5 281.5,-19.5 330.5,-19.5 330.5,-.5 281.5,-.5"/>
<text text-anchor="middle" x="306" y="-7.5" font-family="Helvetica,sans-Serif" font-size="10.00" fill="#000000">stdint.h</text>
</a>
</g>
</g>
<!-- Node5&#45;&gt;Node9 -->
<g id="edge11" class="edge">
<title>Node5&#45;&gt;Node9</title>
<path fill="none" stroke="#191970" d="M331.6127,-112.4509C327.0253,-94.1013 316.8977,-53.5908 310.8423,-29.3693"/>
<polygon fill="#191970" stroke="#191970" points="314.2022,-28.3774 308.3812,-19.5249 307.4112,-30.0752 314.2022,-28.3774"/>
</g>
<!-- Node10 -->
<g id="node11" class="node">
<title>Node10</title>
<g id="a_node11"><a xlink:title=" ">
<polygon fill="#ffffff" stroke="#bfbfbf" points="336,-56.5 336,-75.5 384,-75.5 384,-56.5 336,-56.5"/>
<text text-anchor="middle" x="360" y="-63.5" font-family="Helvetica,sans-Serif" font-size="10.00" fill="#000000">stdlib.h</text>
</a>
</g>
</g>
<!-- Node5&#45;&gt;Node10 -->
<g id="edge12" class="edge">
<title>Node5&#45;&gt;Node10</title>
<path fill="none" stroke="#191970" d="M338.5289,-112.2455C342.0334,-104.6973 346.9927,-94.0158 351.2623,-84.8197"/>
<polygon fill="#191970" stroke="#191970" points="354.4864,-86.1867 355.523,-75.6427 348.1373,-83.2389 354.4864,-86.1867"/>
</g>
<!-- Node6&#45;&gt;Node2 -->
<g id="edge7" class="edge">
<title>Node6&#45;&gt;Node2</title>
<path fill="none" stroke="#191970" d="M205.9479,-56.3733C177.8457,-47.0613 135.0946,-32.8953 104.2393,-22.671"/>
<polygon fill="#191970" stroke="#191970" points="105.2664,-19.3243 94.673,-19.5011 103.0645,-25.969 105.2664,-19.3243"/>
</g>
<!-- Node6&#45;&gt;Node7 -->
<g id="edge8" class="edge">
<title>Node6&#45;&gt;Node7</title>
<path fill="none" stroke="#191970" d="M280.1494,-58.5636C347.5676,-47.4595 473.3711,-26.7389 536.6161,-16.3221"/>
<polygon fill="#191970" stroke="#191970" points="537.2779,-19.7603 546.5761,-14.6816 536.1402,-12.8534 537.2779,-19.7603"/>
</g>
<!-- Node8 -->
<g id="node9" class="node">
<title>Node8</title>
<g id="a_node9"><a xlink:title=" ">
<polygon fill="#ffffff" stroke="#bfbfbf" points="209,-.5 209,-19.5 261,-19.5 261,-.5 209,-.5"/>
<text text-anchor="middle" x="235" y="-7.5" font-family="Helvetica,sans-Serif" font-size="10.00" fill="#000000">stddef.h</text>
</a>
</g>
</g>
<!-- Node6&#45;&gt;Node8 -->
<g id="edge9" class="edge">
<title>Node6&#45;&gt;Node8</title>
<path fill="none" stroke="#191970" d="M235,-56.2455C235,-48.9382 235,-38.6944 235,-29.7046"/>
<polygon fill="#191970" stroke="#191970" points="238.5001,-29.6426 235,-19.6427 231.5001,-29.6427 238.5001,-29.6426"/>
</g>
<!-- Node6&#45;&gt;Node9 -->
<g id="edge10" class="edge">
<title>Node6&#45;&gt;Node9</title>
<path fill="none" stroke="#191970" d="M247.3673,-56.2455C257.9554,-47.8943 273.4064,-35.7076 285.7893,-25.9408"/>
<polygon fill="#191970" stroke="#191970" points="288.0903,-28.5837 293.7745,-19.6427 283.7553,-23.0875 288.0903,-28.5837"/>
</g>
<!-- Node11&#45;&gt;Node4 -->
<g id="edge15" class="edge">
<title>Node11&#45;&gt;Node4</title>
<path fill="none" stroke="#191970" d="M175.8341,-224.3733C207.8695,-214.9807 256.7487,-200.6496 291.6855,-190.4064"/>
<polygon fill="#191970" stroke="#191970" points="292.9831,-193.6733 301.5944,-187.5011 291.0136,-186.9561 292.9831,-193.6733"/>
</g>
<!-- Node12&#45;&gt;Node4 -->
<g id="edge17" class="edge">
<title>Node12&#45;&gt;Node4</title>
<path fill="none" stroke="#191970" d="M253.8961,-224.2455C268.918,-215.5731 291.1043,-202.7645 308.321,-192.825"/>
<polygon fill="#191970" stroke="#191970" points="310.3871,-195.6737 317.2975,-187.6427 306.8872,-189.6114 310.3871,-195.6737"/>
</g>
<!-- Node13&#45;&gt;Node4 -->
<g id="edge19" class="edge">
<title>Node13&#45;&gt;Node4</title>
<path fill="none" stroke="#191970" d="M637.3535,-225.4181C634.5281,-224.9321 631.7274,-224.4561 629,-224 543.6355,-209.7244 444.1283,-194.5017 385.2434,-185.6406"/>
<polygon fill="#191970" stroke="#191970" points="385.497,-182.1395 375.088,-184.1148 384.457,-189.0618 385.497,-182.1395"/>
</g>
<!-- Node13&#45;&gt;Node7 -->
<g id="edge20" class="edge">
<title>Node13&#45;&gt;Node7</title>
<path fill="none" stroke="#191970" d="M680.2734,-224.375C663.49,-190.1979 606.5707,-74.2894 584.1675,-28.6683"/>
<polygon fill="#191970" stroke="#191970" points="587.2586,-27.0225 579.709,-19.5891 580.9753,-30.108 587.2586,-27.0225"/>
</g>
<!-- Node14&#45;&gt;Node4 -->
<g id="edge22" class="edge">
<title>Node14&#45;&gt;Node4</title>
<path fill="none" stroke="#191970" d="M334,-224.2455C334,-216.9382 334,-206.6944 334,-197.7046"/>
<polygon fill="#191970" stroke="#191970" points="337.5001,-197.6426 334,-187.6427 330.5001,-197.6427 337.5001,-197.6426"/>
</g>
<!-- Node15&#45;&gt;Node4 -->
<g id="edge25" class="edge">
<title>Node15&#45;&gt;Node4</title>
<path fill="none" stroke="#191970" d="M416.5813,-224.2455C400.9515,-215.4928 377.7981,-202.527 359.9815,-192.5496"/>
<polygon fill="#191970" stroke="#191970" points="361.6543,-189.475 351.2191,-187.6427 358.234,-195.5825 361.6543,-189.475"/>
</g>
<!-- Node16&#45;&gt;Node5 -->
<g id="edge28" class="edge">
<title>Node16&#45;&gt;Node5</title>
<path fill="none" stroke="#191970" d="M440.8241,-168.3733C420.0234,-159.3435 388.7083,-145.7494 365.3542,-135.6111"/>
<polygon fill="#191970" stroke="#191970" points="366.4532,-132.2727 355.8865,-131.5011 363.6657,-138.6938 366.4532,-132.2727"/>
</g>
</g>
</svg>
        <g id="navigator" transform="translate(0 0)" fill="#404254">
                <rect fill="#f2f5e9" fill-opacity="0.5" stroke="#606060" stroke-width=".5" x="0" y="0" width="60" height="60"/>
                <use id="zoomplus" xlink:href="#zoomPlus" x="17" y="9" onmousedown="handleZoom(evt,'in')"/>
                <use id="zoomminus" xlink:href="#zoomMin" x="42" y="9" onmousedown="handleZoom(evt,'out')"/>
                <use id="reset" xlink:href="#resetDef" x="30" y="36" onmousedown="handleReset()"/>
                <g id="arrowUp" xlink:href="#dirArrow" transform="translate(30 24)" onmousedown="handlePan(0,-1)">
                  <use xlink:href="#rim" fill="#404040">
                        <set attributeName="fill" to="#808080" begin="arrowUp.mouseover" end="arrowUp.mouseout"/>
                  </use>
                  <path fill="none" stroke="white" stroke-width="1.5" d="M0,-3.0v7 M-2.5,-0.5L0,-3.0L2.5,-0.5"/>
                </g>
                <g id="arrowRight" xlink:href="#dirArrow" transform="rotate(90) translate(36 -43)" onmousedown="handlePan(1,0)">
                  <use xlink:href="#rim" fill="#404040">
                        <set attributeName="fill" to="#808080" begin="arrowRight.mouseover" end="arrowRight.mouseout"/>
                  </use>
                  <path fill="none" stroke="white" stroke-width="1.5" d="M0,-3.0v7 M-2.5,-0.5L0,-3.0L2.5,-0.5"/>
                </g>
                <g id="arrowDown" xlink:href="#dirArrow" transform="rotate(180) translate(-30 -48)" onmousedown="handlePan(0,1)">
                  <use xlink:href="#rim" fill="#404040">
                        <set attributeName="fill" to="#808080" begin="arrowDown.mouseover" end="arrowDown.mouseout"/>
                  </use>
                  <path fill="none" stroke="white" stroke-width="1.5" d="M0,-3.0v7 M-2.5,-0.5L0,-3.0L2.5,-0.5"/>
                </g>
                <g id="arrowLeft" xlink:href="#dirArrow" transform="rotate(270) translate(-36 17)" onmousedown="handlePan(-1,0)">
                  <use xlink:href="#rim" fill="#404040">
                        <set attributeName="fill" to="#808080" begin="arrowLeft.mouseover" end="arrowLeft.mouseout"/>
                  </use>
                  <path fill="none" stroke="white" stroke-width="1.5" d="M0,-3.0v7 M-2.5,-0.5L0,-3.0L2.5,-0.5"/>
                </g>
        </g>
        <svg viewBox="0 0 15 15" width="100%" height="30px" preserveAspectRatio="xMaxYMin meet">
         <g id="arrow_out" transform="scale(0.3 0.3)">
          <a xlink:href="serialize_8c__incl_org.svg" target="_base">
           <rect id="button" ry="5" rx="5" y="6" x="6" height="38" width="38"
                fill="#f2f5e9" fill-opacity="0.5" stroke="#606060" stroke-width="1.0"/>
           <path id="arrow"
             d="M 11.500037,31.436501 C 11.940474,20.09759 22.043105,11.32322 32.158766,21.979434 L 37.068811,17.246167 C 37.068811,17.246167 37.088388,32 37.088388,32 L 22.160133,31.978069 C 22.160133,31.978069 26.997745,27.140456 26.997745,27.140456 C 18.528582,18.264221 13.291696,25.230495 11.500037,31.436501 z"
             style="fill:#404040;"/>
          </a>
         </g>
        </svg>
</svg>
