<?xml version="1.0" encoding="UTF-8" standalone="no"?>
<!DOCTYPE svg PUBLIC "-//W3C//DTD SVG 1.1//EN"
 "http://www.w3.org/Graphics/SVG/1.1/DTD/svg11.dtd">
<!-- Generated by graphviz version 2.40.1 (20161225.0304)
 -->
<!-- Title: builtins/serialization/include/serialize.h Pages: 1 -->
<!--zoomable 352 -->
<svg id="main" version="1.1" xmlns="http://www.w3.org/2000/svg" xmlns:xlink="http://www.w3.org/1999/xlink" xml:space="preserve" onload="init(evt)">
<style type="text/css"><![CDATA[
.edge:hover path { stroke: red; }
.edge:hover polygon { stroke: red; fill: red; }
]]></style>
<script type="text/javascript"><![CDATA[
var edges = document.getElementsByTagName('g');
if (edges && edges.length) {
  for (var i=0;i<edges.length;i++) {
    if (edges[i].id.substr(0,4)=='edge') {
      edges[i].setAttribute('class','edge');
    }
  }
}
]]></script>
        <defs>
                <circle id="rim" cx="0" cy="0" r="7"/>
                <circle id="rim2" cx="0" cy="0" r="3.5"/>
                <g id="zoomPlus">
                        <use xlink:href="#rim" fill="#404040">
                                <set attributeName="fill" to="#808080" begin="zoomplus.mouseover" end="zoomplus.mouseout"/>
                        </use>
                        <path d="M-4,0h8M0,-4v8" fill="none" stroke="white" stroke-width="1.5" pointer-events="none"/>
                </g>
                <g id="zoomMin">
                        <use xlink:href="#rim" fill="#404040">
                                <set attributeName="fill" to="#808080" begin="zoomminus.mouseover" end="zoomminus.mouseout"/>
                        </use>
                        <path d="M-4,0h8" fill="none" stroke="white" stroke-width="1.5" pointer-events="none"/>
                </g>
                <g id="dirArrow">
                        <path fill="none" stroke="white" stroke-width="1.5" d="M0,-3.0v7 M-2.5,-0.5L0,-3.0L2.5,-0.5"/>
                </g>
               <g id="resetDef">
                       <use xlink:href="#rim2" fill="#404040">
                               <set attributeName="fill" to="#808080" begin="reset.mouseover" end="reset.mouseout"/>
                       </use>
               </g>
        </defs>

<script type="text/javascript">
var viewWidth = 1500;
var viewHeight = 352;
var sectionId = 'dynsection-1';
</script>
<script xlink:href="svgpan.js"/>
<svg id="graph" class="graph">
<g id="viewport">
<title>builtins/serialization/include/serialize.h</title>
<polygon fill="#ffffff" stroke="transparent" points="-4,4 -4,-348 1495.5,-348 1495.5,4 -4,4"/>
<!-- Node8 -->
<g id="node1" class="node">
<title>Node8</title>
<g id="a_node1"><a xlink:title=" ">
<polygon fill="#bfbfbf" stroke="#000000" points="294,-313.5 294,-343.5 396,-343.5 396,-313.5 294,-313.5"/>
<text text-anchor="start" x="302" y="-331.5" font-family="Helvetica,sans-Serif" font-size="10.00" fill="#000000">builtins/serialization</text>
<text text-anchor="middle" x="345" y="-320.5" font-family="Helvetica,sans-Serif" font-size="10.00" fill="#000000">/include/serialize.h</text>
</a>
</g>
</g>
<!-- Node9 -->
<g id="node2" class="node">
<title>Node9</title>
<g id="a_node2"><a xlink:href="builtins_8h.html" target="_top" xlink:title=" ">
<polygon fill="#ffffff" stroke="#000000" points="283.5,-257.5 283.5,-276.5 406.5,-276.5 406.5,-257.5 283.5,-257.5"/>
<text text-anchor="middle" x="345" y="-264.5" font-family="Helvetica,sans-Serif" font-size="10.00" fill="#000000">builtins/include/builtins.h</text>
</a>
</g>
</g>
<!-- Node8&#45;&gt;Node9 -->
<g id="edge1" class="edge">
<title>Node8&#45;&gt;Node9</title>
<path fill="none" stroke="#191970" d="M345,-303.2849C345,-293.9858 345,-283.9883 345,-276.8469"/>
<polygon fill="#191970" stroke="#191970" points="341.5001,-303.2977 345,-313.2977 348.5001,-303.2978 341.5001,-303.2977"/>
</g>
<!-- Node10 -->
<g id="node3" class="node">
<title>Node10</title>
<g id="a_node3"><a xlink:href="serialize_8c.html" target="_top" xlink:title=" ">
<polygon fill="#ffffff" stroke="#000000" points="0,-190.5 0,-220.5 102,-220.5 102,-190.5 0,-190.5"/>
<text text-anchor="start" x="8" y="-208.5" font-family="Helvetica,sans-Serif" font-size="10.00" fill="#000000">builtins/serialization</text>
<text text-anchor="middle" x="51" y="-197.5" font-family="Helvetica,sans-Serif" font-size="10.00" fill="#000000">/serialize.c</text>
</a>
</g>
</g>
<!-- Node9&#45;&gt;Node10 -->
<g id="edge2" class="edge">
<title>Node9&#45;&gt;Node10</title>
<path fill="none" stroke="#191970" d="M284.9964,-255.5572C238.7292,-246.5865 173.1948,-233.5596 116,-221 111.4675,-220.0047 106.7646,-218.942 102.055,-217.8573"/>
<polygon fill="#191970" stroke="#191970" points="284.3762,-259.0021 294.8588,-257.4646 285.7054,-252.1294 284.3762,-259.0021"/>
</g>
<!-- Node11 -->
<g id="node4" class="node">
<title>Node11</title>
<g id="a_node4"><a xlink:href="executestack_8c.html" target="_top" xlink:title=" ">
<polygon fill="#ffffff" stroke="#000000" points="95.5,-134.5 95.5,-153.5 200.5,-153.5 200.5,-134.5 95.5,-134.5"/>
<text text-anchor="middle" x="148" y="-141.5" font-family="Helvetica,sans-Serif" font-size="10.00" fill="#000000">hvm/executestack.c</text>
</a>
</g>
</g>
<!-- Node9&#45;&gt;Node11 -->
<g id="edge3" class="edge">
<title>Node9&#45;&gt;Node11</title>
<path fill="none" stroke="#191970" d="M273.438,-259.4338C224.0871,-252.5783 164.6637,-240.504 149,-221 133.3455,-201.5075 140.0277,-169.4063 144.767,-153.5178"/>
<polygon fill="#191970" stroke="#191970" points="273.101,-262.9198 283.4769,-260.7771 274.0295,-255.9817 273.101,-262.9198"/>
</g>
<!-- Node12 -->
<g id="node5" class="node">
<title>Node12</title>
<g id="a_node5"><a xlink:href="hvm_8c.html" target="_top" xlink:title=" ">
<polygon fill="#ffffff" stroke="#000000" points="253.5,-134.5 253.5,-153.5 318.5,-153.5 318.5,-134.5 253.5,-134.5"/>
<text text-anchor="middle" x="286" y="-141.5" font-family="Helvetica,sans-Serif" font-size="10.00" fill="#000000">hvm/hvm.c</text>
</a>
</g>
</g>
<!-- Node9&#45;&gt;Node12 -->
<g id="edge4" class="edge">
<title>Node9&#45;&gt;Node12</title>
<path fill="none" stroke="#191970" d="M336.028,-248.2956C323.2742,-221.7071 300.3686,-173.9549 290.6081,-153.6068"/>
<polygon fill="#191970" stroke="#191970" points="332.8897,-249.8458 340.3704,-257.3484 339.2011,-246.8183 332.8897,-249.8458"/>
</g>
<!-- Node13 -->
<g id="node6" class="node">
<title>Node13</title>
<g id="a_node6"><a xlink:href="executestack_8h.html" target="_top" xlink:title=" ">
<polygon fill="#ffffff" stroke="#000000" points="158.5,-196 158.5,-215 297.5,-215 297.5,-196 158.5,-196"/>
<text text-anchor="middle" x="228" y="-203" font-family="Helvetica,sans-Serif" font-size="10.00" fill="#000000">hvm/include/executestack.h</text>
</a>
</g>
</g>
<!-- Node9&#45;&gt;Node13 -->
<g id="edge5" class="edge">
<title>Node9&#45;&gt;Node13</title>
<path fill="none" stroke="#191970" d="M317.8454,-252.7264C295.8031,-241.1401 265.3355,-225.1251 246.1529,-215.0419"/>
<polygon fill="#191970" stroke="#191970" points="316.2386,-255.8359 326.7188,-257.3906 319.4956,-249.6397 316.2386,-255.8359"/>
</g>
<!-- Node14 -->
<g id="node7" class="node">
<title>Node14</title>
<g id="a_node7"><a xlink:href="hvm_8h.html" target="_top" xlink:title=" ">
<polygon fill="#ffffff" stroke="#000000" points="392.5,-73 392.5,-92 491.5,-92 491.5,-73 392.5,-73"/>
<text text-anchor="middle" x="442" y="-80" font-family="Helvetica,sans-Serif" font-size="10.00" fill="#000000">hvm/include/hvm.h</text>
</a>
</g>
</g>
<!-- Node9&#45;&gt;Node14 -->
<g id="edge8" class="edge">
<title>Node9&#45;&gt;Node14</title>
<path fill="none" stroke="#191970" d="M358.8976,-249.3005C365.1274,-240.9624 372.3312,-230.7288 378,-221 404.9376,-174.7693 429.2119,-115.2636 438.2541,-92.2167"/>
<polygon fill="#191970" stroke="#191970" points="355.9297,-247.4201 352.6387,-257.4908 361.4916,-251.6704 355.9297,-247.4201"/>
</g>
<!-- Node15 -->
<g id="node8" class="node">
<title>Node15</title>
<g id="a_node8"><a xlink:href="main_8c.html" target="_top" xlink:title=" ">
<polygon fill="#ffffff" stroke="#000000" points="433,-6 433,-25 503,-25 503,-6 433,-6"/>
<text text-anchor="middle" x="468" y="-13" font-family="Helvetica,sans-Serif" font-size="10.00" fill="#000000">main/main.c</text>
</a>
</g>
</g>
<!-- Node9&#45;&gt;Node15 -->
<g id="edge10" class="edge">
<title>Node9&#45;&gt;Node15</title>
<path fill="none" stroke="#191970" d="M343.7037,-246.8231C342.2531,-208.2802 344.0896,-123.0399 383,-67 396.9738,-46.8746 421.598,-33.2304 440.758,-25.0694"/>
<polygon fill="#191970" stroke="#191970" points="340.2275,-247.3885 344.2221,-257.2014 347.2188,-247.0393 340.2275,-247.3885"/>
</g>
<!-- Node16 -->
<g id="node9" class="node">
<title>Node16</title>
<g id="a_node9"><a xlink:href="token_8h.html" target="_top" xlink:title=" ">
<polygon fill="#ffffff" stroke="#000000" points="895.5,-196 895.5,-215 1008.5,-215 1008.5,-196 895.5,-196"/>
<text text-anchor="middle" x="952" y="-203" font-family="Helvetica,sans-Serif" font-size="10.00" fill="#000000">parser/include/token.h</text>
</a>
</g>
</g>
<!-- Node9&#45;&gt;Node16 -->
<g id="edge11" class="edge">
<title>Node9&#45;&gt;Node16</title>
<path fill="none" stroke="#191970" d="M416.5272,-259.753C538.4602,-247.399 784.129,-222.5083 895.1901,-211.2559"/>
<polygon fill="#191970" stroke="#191970" points="416.139,-256.2743 406.5428,-260.7646 416.8447,-263.2387 416.139,-256.2743"/>
</g>
<!-- Node28 -->
<g id="node21" class="node">
<title>Node28</title>
<g id="a_node21"><a xlink:href="token_8c.html" target="_top" xlink:title=" ">
<polygon fill="#ffffff" stroke="#000000" points="1412.5,-134.5 1412.5,-153.5 1491.5,-153.5 1491.5,-134.5 1412.5,-134.5"/>
<text text-anchor="middle" x="1452" y="-141.5" font-family="Helvetica,sans-Serif" font-size="10.00" fill="#000000">parser/token.c</text>
</a>
</g>
</g>
<!-- Node9&#45;&gt;Node28 -->
<g id="edge39" class="edge">
<title>Node9&#45;&gt;Node28</title>
<path fill="none" stroke="#191970" d="M416.883,-264.575C540.0894,-259.8615 799.3706,-247.5087 1017,-221 1163.7447,-203.1255 1336.1154,-168.516 1412.3329,-152.5051"/>
<polygon fill="#191970" stroke="#191970" points="416.6797,-261.0801 406.8187,-264.9546 416.9435,-268.0751 416.6797,-261.0801"/>
</g>
<!-- Node13&#45;&gt;Node11 -->
<g id="edge6" class="edge">
<title>Node13&#45;&gt;Node11</title>
<path fill="none" stroke="#191970" d="M207.381,-189.6491C192.5164,-178.222 172.943,-163.1749 160.4122,-153.5419"/>
<polygon fill="#191970" stroke="#191970" points="205.4387,-192.5707 215.5,-195.8906 209.7051,-187.021 205.4387,-192.5707"/>
</g>
<!-- Node13&#45;&gt;Node12 -->
<g id="edge7" class="edge">
<title>Node13&#45;&gt;Node12</title>
<path fill="none" stroke="#191970" d="M244.1261,-188.4007C254.6642,-177.2268 268.0477,-163.0356 276.8097,-153.7449"/>
<polygon fill="#191970" stroke="#191970" points="241.3773,-186.2142 237.0625,-195.8906 246.4698,-191.0169 241.3773,-186.2142"/>
</g>
<!-- Node14&#45;&gt;Node15 -->
<g id="edge9" class="edge">
<title>Node14&#45;&gt;Node15</title>
<path fill="none" stroke="#191970" d="M449.4264,-63.3628C454.2843,-50.8444 460.4231,-35.0252 464.2817,-25.0817"/>
<polygon fill="#191970" stroke="#191970" points="446.08,-62.3116 445.7252,-72.9005 452.6059,-64.8441 446.08,-62.3116"/>
</g>
<!-- Node17 -->
<g id="node10" class="node">
<title>Node17</title>
<g id="a_node10"><a xlink:href="AST_8c.html" target="_top" xlink:title=" ">
<polygon fill="#ffffff" stroke="#000000" points="1043,-6 1043,-25 1117,-25 1117,-6 1043,-6"/>
<text text-anchor="middle" x="1080" y="-13" font-family="Helvetica,sans-Serif" font-size="10.00" fill="#000000">parser/AST.c</text>
</a>
</g>
</g>
<!-- Node16&#45;&gt;Node17 -->
<g id="edge12" class="edge">
<title>Node16&#45;&gt;Node17</title>
<path fill="none" stroke="#191970" d="M998.1632,-193.1571C1066.2202,-173.9209 1188.1346,-135.1335 1213,-98 1239.9107,-57.8121 1165.0986,-33.6251 1117.0117,-22.617"/>
<polygon fill="#191970" stroke="#191970" points="996.817,-189.8992 988.1284,-195.9621 998.7015,-196.6407 996.817,-189.8992"/>
</g>
<!-- Node18 -->
<g id="node11" class="node">
<title>Node18</title>
<g id="a_node11"><a xlink:href="AST_8h.html" target="_top" xlink:title=" ">
<polygon fill="#ffffff" stroke="#000000" points="898.5,-134.5 898.5,-153.5 1005.5,-153.5 1005.5,-134.5 898.5,-134.5"/>
<text text-anchor="middle" x="952" y="-141.5" font-family="Helvetica,sans-Serif" font-size="10.00" fill="#000000">parser/include/AST.h</text>
</a>
</g>
</g>
<!-- Node16&#45;&gt;Node18 -->
<g id="edge13" class="edge">
<title>Node16&#45;&gt;Node18</title>
<path fill="none" stroke="#191970" d="M952,-185.7462C952,-175.0519 952,-162.314 952,-153.7449"/>
<polygon fill="#191970" stroke="#191970" points="948.5001,-185.8906 952,-195.8906 955.5001,-185.8907 948.5001,-185.8906"/>
</g>
<!-- Node22 -->
<g id="node15" class="node">
<title>Node22</title>
<g id="a_node15"><a xlink:href="compound_8c.html" target="_top" xlink:title=" ">
<polygon fill="#ffffff" stroke="#000000" points="1316,-.5 1316,-30.5 1414,-30.5 1414,-.5 1316,-.5"/>
<text text-anchor="start" x="1324" y="-18.5" font-family="Helvetica,sans-Serif" font-size="10.00" fill="#000000">parser/parserfuncs</text>
<text text-anchor="middle" x="1365" y="-7.5" font-family="Helvetica,sans-Serif" font-size="10.00" fill="#000000">/compound.c</text>
</a>
</g>
</g>
<!-- Node16&#45;&gt;Node22 -->
<g id="edge33" class="edge">
<title>Node16&#45;&gt;Node22</title>
<path fill="none" stroke="#191970" d="M998.391,-193.4478C1003.3146,-192.2477 1008.2548,-191.0767 1013,-190 1092.5621,-171.9481 1117.145,-184.0337 1193,-154 1236.8027,-136.657 1246.1471,-127.3482 1283,-98 1309.5392,-76.8652 1336.5602,-47.94 1352.0011,-30.5514"/>
<polygon fill="#191970" stroke="#191970" points="997.2392,-190.1274 988.3753,-195.931 998.9238,-196.9217 997.2392,-190.1274"/>
</g>
<!-- Node23 -->
<g id="node16" class="node">
<title>Node23</title>
<g id="a_node16"><a xlink:href="expressions_8c.html" target="_top" xlink:title=" ">
<polygon fill="#ffffff" stroke="#000000" points="644,-.5 644,-30.5 742,-30.5 742,-.5 644,-.5"/>
<text text-anchor="start" x="652" y="-18.5" font-family="Helvetica,sans-Serif" font-size="10.00" fill="#000000">parser/parserfuncs</text>
<text text-anchor="middle" x="693" y="-7.5" font-family="Helvetica,sans-Serif" font-size="10.00" fill="#000000">/expressions.c</text>
</a>
</g>
</g>
<!-- Node16&#45;&gt;Node23 -->
<g id="edge34" class="edge">
<title>Node16&#45;&gt;Node23</title>
<path fill="none" stroke="#191970" d="M885.1543,-196.4079C846.6406,-189.071 798.4078,-176.1814 760,-154 729.5198,-136.3969 719.5938,-129.5554 704,-98 693.3093,-76.3664 691.8855,-47.8498 692.1877,-30.6366"/>
<polygon fill="#191970" stroke="#191970" points="884.767,-199.8949 895.2325,-198.2445 886.022,-193.0083 884.767,-199.8949"/>
</g>
<!-- Node24 -->
<g id="node17" class="node">
<title>Node24</title>
<g id="a_node17"><a xlink:href="floats_8c.html" target="_top" xlink:title=" ">
<polygon fill="#ffffff" stroke="#000000" points="813,-.5 813,-30.5 911,-30.5 911,-.5 813,-.5"/>
<text text-anchor="start" x="821" y="-18.5" font-family="Helvetica,sans-Serif" font-size="10.00" fill="#000000">parser/parserfuncs</text>
<text text-anchor="middle" x="862" y="-7.5" font-family="Helvetica,sans-Serif" font-size="10.00" fill="#000000">/floats.c</text>
</a>
</g>
</g>
<!-- Node16&#45;&gt;Node24 -->
<g id="edge35" class="edge">
<title>Node16&#45;&gt;Node24</title>
<path fill="none" stroke="#191970" d="M886.6808,-193.5717C834.0292,-180.1461 763.3062,-152.622 729,-98 705.4437,-60.4939 765.8045,-37.3031 812.7692,-25.4033"/>
<polygon fill="#191970" stroke="#191970" points="886.0765,-197.0269 896.621,-195.9953 887.7347,-190.2261 886.0765,-197.0269"/>
</g>
<!-- Node25 -->
<g id="node18" class="node">
<title>Node25</title>
<g id="a_node18"><a xlink:href="integers_8c.html" target="_top" xlink:title=" ">
<polygon fill="#ffffff" stroke="#000000" points="1200,-.5 1200,-30.5 1298,-30.5 1298,-.5 1200,-.5"/>
<text text-anchor="start" x="1208" y="-18.5" font-family="Helvetica,sans-Serif" font-size="10.00" fill="#000000">parser/parserfuncs</text>
<text text-anchor="middle" x="1249" y="-7.5" font-family="Helvetica,sans-Serif" font-size="10.00" fill="#000000">/integers.c</text>
</a>
</g>
</g>
<!-- Node16&#45;&gt;Node25 -->
<g id="edge36" class="edge">
<title>Node16&#45;&gt;Node25</title>
<path fill="none" stroke="#191970" d="M999.412,-193.45C1004.0039,-192.2838 1008.5915,-191.1189 1013,-190 1076.1068,-173.9829 1095.5018,-180.4381 1155,-154 1196.0033,-135.7801 1215.4822,-136.2119 1239,-98 1251.7045,-77.3577 1252.041,-48.2786 1250.7711,-30.7259"/>
<polygon fill="#191970" stroke="#191970" points="998.2509,-190.1337 989.4205,-195.9881 999.9744,-196.9182 998.2509,-190.1337"/>
</g>
<!-- Node26 -->
<g id="node19" class="node">
<title>Node26</title>
<g id="a_node19"><a xlink:href="parser_8c.html" target="_top" xlink:title=" ">
<polygon fill="#ffffff" stroke="#000000" points="528,-.5 528,-30.5 626,-30.5 626,-.5 528,-.5"/>
<text text-anchor="start" x="536" y="-18.5" font-family="Helvetica,sans-Serif" font-size="10.00" fill="#000000">parser/parserfuncs</text>
<text text-anchor="middle" x="577" y="-7.5" font-family="Helvetica,sans-Serif" font-size="10.00" fill="#000000">/parser.c</text>
</a>
</g>
</g>
<!-- Node16&#45;&gt;Node26 -->
<g id="edge37" class="edge">
<title>Node16&#45;&gt;Node26</title>
<path fill="none" stroke="#191970" d="M885.0122,-196.8888C839.1467,-189.3955 777.6923,-176.1588 727,-154 686.5623,-136.3238 677.581,-127.768 645,-98 621.9791,-76.9667 599.8879,-48.0098 587.4206,-30.5873"/>
<polygon fill="#191970" stroke="#191970" points="884.7156,-200.3853 895.1398,-198.4918 885.81,-193.4714 884.7156,-200.3853"/>
</g>
<!-- Node16&#45;&gt;Node28 -->
<g id="edge38" class="edge">
<title>Node16&#45;&gt;Node28</title>
<path fill="none" stroke="#191970" d="M1018.8837,-199.2121C1106.281,-190.6673 1263.9824,-174.1227 1398,-154 1402.6201,-153.3063 1407.4499,-152.5118 1412.2399,-151.6805"/>
<polygon fill="#191970" stroke="#191970" points="1018.4531,-195.7374 1008.839,-200.1892 1019.1309,-202.7045 1018.4531,-195.7374"/>
</g>
<!-- Node18&#45;&gt;Node15 -->
<g id="edge16" class="edge">
<title>Node18&#45;&gt;Node15</title>
<path fill="none" stroke="#191970" d="M888.1185,-139.7987C825.1952,-134.4168 726.8807,-122.6526 645,-98 582.9943,-79.3313 514.9846,-42.5957 484.4459,-25.1444"/>
<polygon fill="#191970" stroke="#191970" points="888.035,-143.3036 898.2894,-140.6393 888.6117,-136.3274 888.035,-143.3036"/>
</g>
<!-- Node18&#45;&gt;Node17 -->
<g id="edge17" class="edge">
<title>Node18&#45;&gt;Node17</title>
<path fill="none" stroke="#191970" d="M986.4392,-129.9554C1002.2994,-122.2491 1020.5401,-111.4948 1034,-98 1055.7718,-76.1717 1070.3744,-41.9109 1076.5958,-25.25"/>
<polygon fill="#191970" stroke="#191970" points="984.5387,-126.9784 976.9357,-134.3571 987.4807,-133.3302 984.5387,-126.9784"/>
</g>
<!-- Node19 -->
<g id="node12" class="node">
<title>Node19</title>
<g id="a_node12"><a xlink:href="helios__code_8c.html" target="_top" xlink:title=" ">
<polygon fill="#ffffff" stroke="#000000" points="1104,-67.5 1104,-97.5 1204,-97.5 1204,-67.5 1104,-67.5"/>
<text text-anchor="start" x="1112" y="-85.5" font-family="Helvetica,sans-Serif" font-size="10.00" fill="#000000">builtins/code/helios</text>
<text text-anchor="middle" x="1154" y="-74.5" font-family="Helvetica,sans-Serif" font-size="10.00" fill="#000000">_code.c</text>
</a>
</g>
</g>
<!-- Node18&#45;&gt;Node19 -->
<g id="edge14" class="edge">
<title>Node18&#45;&gt;Node19</title>
<path fill="none" stroke="#191970" d="M993.1364,-131.4758C1025.3878,-121.6567 1070.3812,-107.9582 1104.5852,-97.5446"/>
<polygon fill="#191970" stroke="#191970" points="992.1095,-128.1297 983.5625,-134.3906 994.1484,-134.8263 992.1095,-128.1297"/>
</g>
<!-- Node20 -->
<g id="node13" class="node">
<title>Node20</title>
<g id="a_node13"><a xlink:href="helios__instruction_8c.html" target="_top" xlink:title=" ">
<polygon fill="#ffffff" stroke="#000000" points="738,-67.5 738,-97.5 838,-97.5 838,-67.5 738,-67.5"/>
<text text-anchor="start" x="746" y="-85.5" font-family="Helvetica,sans-Serif" font-size="10.00" fill="#000000">builtins/code/helios</text>
<text text-anchor="middle" x="788" y="-74.5" font-family="Helvetica,sans-Serif" font-size="10.00" fill="#000000">_instruction.c</text>
</a>
</g>
</g>
<!-- Node18&#45;&gt;Node20 -->
<g id="edge15" class="edge">
<title>Node18&#45;&gt;Node20</title>
<path fill="none" stroke="#191970" d="M916.8949,-130.8356C890.8473,-121.0678 855.29,-107.7338 828.1189,-97.5446"/>
<polygon fill="#191970" stroke="#191970" points="915.7827,-134.1565 926.375,-134.3906 918.2407,-127.6022 915.7827,-134.1565"/>
</g>
<!-- Node21 -->
<g id="node14" class="node">
<title>Node21</title>
<g id="a_node14"><a xlink:href="parser_8h.html" target="_top" xlink:title=" ">
<polygon fill="#ffffff" stroke="#000000" points="894.5,-73 894.5,-92 1009.5,-92 1009.5,-73 894.5,-73"/>
<text text-anchor="middle" x="952" y="-80" font-family="Helvetica,sans-Serif" font-size="10.00" fill="#000000">parser/include/parser.h</text>
</a>
</g>
</g>
<!-- Node18&#45;&gt;Node21 -->
<g id="edge18" class="edge">
<title>Node18&#45;&gt;Node21</title>
<path fill="none" stroke="#191970" d="M952,-124.2462C952,-113.5519 952,-100.814 952,-92.2449"/>
<polygon fill="#191970" stroke="#191970" points="948.5001,-124.3906 952,-134.3906 955.5001,-124.3907 948.5001,-124.3906"/>
</g>
<!-- Node18&#45;&gt;Node22 -->
<g id="edge27" class="edge">
<title>Node18&#45;&gt;Node22</title>
<path fill="none" stroke="#191970" d="M1015.8157,-136.9252C1087.6062,-128.4135 1199.3604,-113.3438 1239,-98 1281.1842,-81.6713 1323.8955,-49.7357 1347.1568,-30.7439"/>
<polygon fill="#191970" stroke="#191970" points="1015.0508,-133.4908 1005.5269,-138.1326 1015.8668,-140.4431 1015.0508,-133.4908"/>
</g>
<!-- Node18&#45;&gt;Node23 -->
<g id="edge28" class="edge">
<title>Node18&#45;&gt;Node23</title>
<path fill="none" stroke="#191970" d="M888.3762,-137.4295C831.3486,-130.3913 753.0766,-117.5249 729,-98 708.0018,-80.9715 698.9435,-49.282 695.277,-30.5233"/>
<polygon fill="#191970" stroke="#191970" points="888.0559,-140.9161 898.4021,-138.6344 888.8912,-133.9661 888.0559,-140.9161"/>
</g>
<!-- Node18&#45;&gt;Node24 -->
<g id="edge29" class="edge">
<title>Node18&#45;&gt;Node24</title>
<path fill="none" stroke="#191970" d="M922.1283,-129.5975C909.0078,-121.8938 894.4654,-111.2442 885,-98 870.3888,-77.5557 865.0454,-48.1503 863.1011,-30.5249"/>
<polygon fill="#191970" stroke="#191970" points="920.4606,-132.6747 930.9047,-134.4558 923.8509,-126.5505 920.4606,-132.6747"/>
</g>
<!-- Node18&#45;&gt;Node25 -->
<g id="edge30" class="edge">
<title>Node18&#45;&gt;Node25</title>
<path fill="none" stroke="#191970" d="M1015.8609,-139.6234C1083.0487,-133.8416 1183.1258,-121.5174 1213,-98 1234.2426,-81.2775 1243.215,-49.4804 1246.8001,-30.6198"/>
<polygon fill="#191970" stroke="#191970" points="1015.4625,-136.1443 1005.7877,-140.4627 1016.0438,-143.1202 1015.4625,-136.1443"/>
</g>
<!-- Node18&#45;&gt;Node26 -->
<g id="edge31" class="edge">
<title>Node18&#45;&gt;Node26</title>
<path fill="none" stroke="#191970" d="M888.1179,-139.0824C836.8692,-133.5167 763.8615,-121.892 704,-98 661.7548,-81.139 618.6082,-49.3906 595.0711,-30.5761"/>
<polygon fill="#191970" stroke="#191970" points="887.7589,-142.5638 898.0672,-140.1165 888.4827,-135.6013 887.7589,-142.5638"/>
</g>
<!-- Node27 -->
<g id="node20" class="node">
<title>Node27</title>
<g id="a_node20"><a xlink:href="parserutil_8c.html" target="_top" xlink:title=" ">
<polygon fill="#ffffff" stroke="#000000" points="929.5,-6 929.5,-25 1024.5,-25 1024.5,-6 929.5,-6"/>
<text text-anchor="middle" x="977" y="-13" font-family="Helvetica,sans-Serif" font-size="10.00" fill="#000000">parser/parserutil.c</text>
</a>
</g>
</g>
<!-- Node18&#45;&gt;Node27 -->
<g id="edge32" class="edge">
<title>Node18&#45;&gt;Node27</title>
<path fill="none" stroke="#191970" d="M984.8944,-129.5194C997.6477,-122.074 1010.8755,-111.6498 1018,-98 1031.6173,-71.9108 1004.4791,-40.7052 988.1367,-25.2157"/>
<polygon fill="#191970" stroke="#191970" points="982.9353,-126.5988 975.7859,-134.4178 986.2508,-132.7638 982.9353,-126.5988"/>
</g>
<!-- Node21&#45;&gt;Node15 -->
<g id="edge19" class="edge">
<title>Node21&#45;&gt;Node15</title>
<path fill="none" stroke="#191970" d="M884.0606,-72.0932C871.7383,-70.3133 858.9937,-68.5429 847,-67 701.5454,-48.2884 662.6659,-60.4494 519,-31 511.4756,-29.4576 503.4693,-27.286 496.0845,-25.0554"/>
<polygon fill="#191970" stroke="#191970" points="883.8856,-75.6047 894.2863,-73.5858 884.8967,-68.6781 883.8856,-75.6047"/>
</g>
<!-- Node21&#45;&gt;Node17 -->
<g id="edge20" class="edge">
<title>Node21&#45;&gt;Node17</title>
<path fill="none" stroke="#191970" d="M979.2625,-68.2298C1004.1119,-55.2227 1040.1336,-36.3676 1061.6947,-25.0817"/>
<polygon fill="#191970" stroke="#191970" points="977.5758,-65.1621 970.3393,-72.9005 980.8221,-71.3639 977.5758,-65.1621"/>
</g>
<!-- Node21&#45;&gt;Node22 -->
<g id="edge21" class="edge">
<title>Node21&#45;&gt;Node22</title>
<path fill="none" stroke="#191970" d="M1019.7939,-75.059C1091.538,-66.6271 1207.8649,-51.3644 1307,-31 1309.8587,-30.4128 1312.7859,-29.7686 1315.7324,-29.0869"/>
<polygon fill="#191970" stroke="#191970" points="1019.0675,-71.6198 1009.5396,-76.2532 1019.8774,-78.5728 1019.0675,-71.6198"/>
</g>
<!-- Node21&#45;&gt;Node23 -->
<g id="edge22" class="edge">
<title>Node21&#45;&gt;Node23</title>
<path fill="none" stroke="#191970" d="M905.43,-70.4529C859.3371,-58.5293 789.0491,-40.3467 742.096,-28.2005"/>
<polygon fill="#191970" stroke="#191970" points="904.6088,-73.8556 915.1667,-72.9717 906.3619,-67.0787 904.6088,-73.8556"/>
</g>
<!-- Node21&#45;&gt;Node24 -->
<g id="edge23" class="edge">
<title>Node21&#45;&gt;Node24</title>
<path fill="none" stroke="#191970" d="M931.0714,-66.9198C916.3425,-55.955 896.738,-41.3605 882.1785,-30.5218"/>
<polygon fill="#191970" stroke="#191970" points="928.9938,-69.7365 939.1052,-72.9005 933.1739,-64.1216 928.9938,-69.7365"/>
</g>
<!-- Node21&#45;&gt;Node25 -->
<g id="edge24" class="edge">
<title>Node21&#45;&gt;Node25</title>
<path fill="none" stroke="#191970" d="M1004.1752,-70.7298C1059.4274,-58.2655 1145.9733,-38.7417 1199.9923,-26.5556"/>
<polygon fill="#191970" stroke="#191970" points="1003.2221,-67.3568 994.2374,-72.9717 1004.7625,-74.1852 1003.2221,-67.3568"/>
</g>
<!-- Node21&#45;&gt;Node26 -->
<g id="edge25" class="edge">
<title>Node21&#45;&gt;Node26</title>
<path fill="none" stroke="#191970" d="M883.8934,-72.2537C805.3892,-60.2986 681.241,-40.9089 635,-31 632.1464,-30.3885 629.2232,-29.7253 626.2797,-29.0291"/>
<polygon fill="#191970" stroke="#191970" points="883.7678,-75.7747 894.1802,-73.8175 884.8199,-68.8542 883.7678,-75.7747"/>
</g>
<!-- Node21&#45;&gt;Node27 -->
<g id="edge26" class="edge">
<title>Node21&#45;&gt;Node27</title>
<path fill="none" stroke="#191970" d="M959.1407,-63.3628C963.8118,-50.8444 969.7145,-35.0252 973.4248,-25.0817"/>
<polygon fill="#191970" stroke="#191970" points="955.7987,-62.3079 955.5819,-72.9005 962.357,-64.7551 955.7987,-62.3079"/>
</g>
</g>
</svg>
        <g id="navigator" transform="translate(0 0)" fill="#404254">
                <rect fill="#f2f5e9" fill-opacity="0.5" stroke="#606060" stroke-width=".5" x="0" y="0" width="60" height="60"/>
                <use id="zoomplus" xlink:href="#zoomPlus" x="17" y="9" onmousedown="handleZoom(evt,'in')"/>
                <use id="zoomminus" xlink:href="#zoomMin" x="42" y="9" onmousedown="handleZoom(evt,'out')"/>
                <use id="reset" xlink:href="#resetDef" x="30" y="36" onmousedown="handleReset()"/>
                <g id="arrowUp" xlink:href="#dirArrow" transform="translate(30 24)" onmousedown="handlePan(0,-1)">
                  <use xlink:href="#rim" fill="#404040">
                        <set attributeName="fill" to="#808080" begin="arrowUp.mouseover" end="arrowUp.mouseout"/>
                  </use>
                  <path fill="none" stroke="white" stroke-width="1.5" d="M0,-3.0v7 M-2.5,-0.5L0,-3.0L2.5,-0.5"/>
                </g>
                <g id="arrowRight" xlink:href="#dirArrow" transform="rotate(90) translate(36 -43)" onmousedown="handlePan(1,0)">
                  <use xlink:href="#rim" fill="#404040">
                        <set attributeName="fill" to="#808080" begin="arrowRight.mouseover" end="arrowRight.mouseout"/>
                  </use>
                  <path fill="none" stroke="white" stroke-width="1.5" d="M0,-3.0v7 M-2.5,-0.5L0,-3.0L2.5,-0.5"/>
                </g>
                <g id="arrowDown" xlink:href="#dirArrow" transform="rotate(180) translate(-30 -48)" onmousedown="handlePan(0,1)">
                  <use xlink:href="#rim" fill="#404040">
                        <set attributeName="fill" to="#808080" begin="arrowDown.mouseover" end="arrowDown.mouseout"/>
                  </use>
                  <path fill="none" stroke="white" stroke-width="1.5" d="M0,-3.0v7 M-2.5,-0.5L0,-3.0L2.5,-0.5"/>
                </g>
                <g id="arrowLeft" xlink:href="#dirArrow" transform="rotate(270) translate(-36 17)" onmousedown="handlePan(-1,0)">
                  <use xlink:href="#rim" fill="#404040">
                        <set attributeName="fill" to="#808080" begin="arrowLeft.mouseover" end="arrowLeft.mouseout"/>
                  </use>
                  <path fill="none" stroke="white" stroke-width="1.5" d="M0,-3.0v7 M-2.5,-0.5L0,-3.0L2.5,-0.5"/>
                </g>
        </g>
        <svg viewBox="0 0 15 15" width="100%" height="30px" preserveAspectRatio="xMaxYMin meet">
         <g id="arrow_out" transform="scale(0.3 0.3)">
          <a xlink:href="serialize_8h__dep__incl_org.svg" target="_base">
           <rect id="button" ry="5" rx="5" y="6" x="6" height="38" width="38"
                fill="#f2f5e9" fill-opacity="0.5" stroke="#606060" stroke-width="1.0"/>
           <path id="arrow"
             d="M 11.500037,31.436501 C 11.940474,20.09759 22.043105,11.32322 32.158766,21.979434 L 37.068811,17.246167 C 37.068811,17.246167 37.088388,32 37.088388,32 L 22.160133,31.978069 C 22.160133,31.978069 26.997745,27.140456 26.997745,27.140456 C 18.528582,18.264221 13.291696,25.230495 11.500037,31.436501 z"
             style="fill:#404040;"/>
          </a>
         </g>
        </svg>
</svg>
