<?xml version="1.0" encoding="UTF-8" standalone="no"?>
<!DOCTYPE svg PUBLIC "-//W3C//DTD SVG 1.1//EN"
 "http://www.w3.org/Graphics/SVG/1.1/DTD/svg11.dtd">
<!-- Generated by graphviz version 2.40.1 (20161225.0304)
 -->
<!-- Title: builtins/serialization/include/serialize.h Pages: 1 -->
<!--zoomable 352 -->
<svg id="main" version="1.1" xmlns="http://www.w3.org/2000/svg" xmlns:xlink="http://www.w3.org/1999/xlink" xml:space="preserve" onload="init(evt)">
<style type="text/css"><![CDATA[
.edge:hover path { stroke: red; }
.edge:hover polygon { stroke: red; fill: red; }
]]></style>
<script type="text/javascript"><![CDATA[
var edges = document.getElementsByTagName('g');
if (edges && edges.length) {
  for (var i=0;i<edges.length;i++) {
    if (edges[i].id.substr(0,4)=='edge') {
      edges[i].setAttribute('class','edge');
    }
  }
}
]]></script>
        <defs>
                <circle id="rim" cx="0" cy="0" r="7"/>
                <circle id="rim2" cx="0" cy="0" r="3.5"/>
                <g id="zoomPlus">
                        <use xlink:href="#rim" fill="#404040">
                                <set attributeName="fill" to="#808080" begin="zoomplus.mouseover" end="zoomplus.mouseout"/>
                        </use>
                        <path d="M-4,0h8M0,-4v8" fill="none" stroke="white" stroke-width="1.5" pointer-events="none"/>
                </g>
                <g id="zoomMin">
                        <use xlink:href="#rim" fill="#404040">
                                <set attributeName="fill" to="#808080" begin="zoomminus.mouseover" end="zoomminus.mouseout"/>
                        </use>
                        <path d="M-4,0h8" fill="none" stroke="white" stroke-width="1.5" pointer-events="none"/>
                </g>
                <g id="dirArrow">
                        <path fill="none" stroke="white" stroke-width="1.5" d="M0,-3.0v7 M-2.5,-0.5L0,-3.0L2.5,-0.5"/>
                </g>
               <g id="resetDef">
                       <use xlink:href="#rim2" fill="#404040">
                               <set attributeName="fill" to="#808080" begin="reset.mouseover" end="reset.mouseout"/>
                       </use>
               </g>
        </defs>

<script type="text/javascript">
var viewWidth = 1424;
var viewHeight = 352;
var sectionId = 'dynsection-1';
</script>
<script xlink:href="svgpan.js"/>
<svg id="graph" class="graph">
<g id="viewport">
<title>builtins/serialization/include/serialize.h</title>
<polygon fill="#ffffff" stroke="transparent" points="-4,4 -4,-348 1419.5,-348 1419.5,4 -4,4"/>
<!-- Node8 -->
<g id="node1" class="node">
<title>Node8</title>
<g id="a_node1"><a xlink:title=" ">
<polygon fill="#bfbfbf" stroke="#000000" points="294,-313.5 294,-343.5 396,-343.5 396,-313.5 294,-313.5"/>
<text text-anchor="start" x="302" y="-331.5" font-family="Helvetica,sans-Serif" font-size="10.00" fill="#000000">builtins/serialization</text>
<text text-anchor="middle" x="345" y="-320.5" font-family="Helvetica,sans-Serif" font-size="10.00" fill="#000000">/include/serialize.h</text>
</a>
</g>
</g>
<!-- Node9 -->
<g id="node2" class="node">
<title>Node9</title>
<g id="a_node2"><a xlink:href="builtins_8h.html" target="_top" xlink:title=" ">
<polygon fill="#ffffff" stroke="#000000" points="283.5,-257.5 283.5,-276.5 406.5,-276.5 406.5,-257.5 283.5,-257.5"/>
<text text-anchor="middle" x="345" y="-264.5" font-family="Helvetica,sans-Serif" font-size="10.00" fill="#000000">builtins/include/builtins.h</text>
</a>
</g>
</g>
<!-- Node8&#45;&gt;Node9 -->
<g id="edge1" class="edge">
<title>Node8&#45;&gt;Node9</title>
<path fill="none" stroke="#191970" d="M345,-303.2849C345,-293.9858 345,-283.9883 345,-276.8469"/>
<polygon fill="#191970" stroke="#191970" points="341.5001,-303.2977 345,-313.2977 348.5001,-303.2978 341.5001,-303.2977"/>
</g>
<!-- Node10 -->
<g id="node3" class="node">
<title>Node10</title>
<g id="a_node3"><a xlink:href="serialize_8c.html" target="_top" xlink:title=" ">
<polygon fill="#ffffff" stroke="#000000" points="0,-190.5 0,-220.5 102,-220.5 102,-190.5 0,-190.5"/>
<text text-anchor="start" x="8" y="-208.5" font-family="Helvetica,sans-Serif" font-size="10.00" fill="#000000">builtins/serialization</text>
<text text-anchor="middle" x="51" y="-197.5" font-family="Helvetica,sans-Serif" font-size="10.00" fill="#000000">/serialize.c</text>
</a>
</g>
</g>
<!-- Node9&#45;&gt;Node10 -->
<g id="edge2" class="edge">
<title>Node9&#45;&gt;Node10</title>
<path fill="none" stroke="#191970" d="M284.9964,-255.5572C238.7292,-246.5865 173.1948,-233.5596 116,-221 111.4675,-220.0047 106.7646,-218.942 102.055,-217.8573"/>
<polygon fill="#191970" stroke="#191970" points="284.3762,-259.0021 294.8588,-257.4646 285.7054,-252.1294 284.3762,-259.0021"/>
</g>
<!-- Node11 -->
<g id="node4" class="node">
<title>Node11</title>
<g id="a_node4"><a xlink:href="executestack_8c.html" target="_top" xlink:title=" ">
<polygon fill="#ffffff" stroke="#000000" points="95.5,-134.5 95.5,-153.5 200.5,-153.5 200.5,-134.5 95.5,-134.5"/>
<text text-anchor="middle" x="148" y="-141.5" font-family="Helvetica,sans-Serif" font-size="10.00" fill="#000000">hvm/executestack.c</text>
</a>
</g>
</g>
<!-- Node9&#45;&gt;Node11 -->
<g id="edge3" class="edge">
<title>Node9&#45;&gt;Node11</title>
<path fill="none" stroke="#191970" d="M273.438,-259.4338C224.0871,-252.5783 164.6637,-240.504 149,-221 133.3455,-201.5075 140.0277,-169.4063 144.767,-153.5178"/>
<polygon fill="#191970" stroke="#191970" points="273.101,-262.9198 283.4769,-260.7771 274.0295,-255.9817 273.101,-262.9198"/>
</g>
<!-- Node12 -->
<g id="node5" class="node">
<title>Node12</title>
<g id="a_node5"><a xlink:href="hvm_8c.html" target="_top" xlink:title=" ">
<polygon fill="#ffffff" stroke="#000000" points="253.5,-134.5 253.5,-153.5 318.5,-153.5 318.5,-134.5 253.5,-134.5"/>
<text text-anchor="middle" x="286" y="-141.5" font-family="Helvetica,sans-Serif" font-size="10.00" fill="#000000">hvm/hvm.c</text>
</a>
</g>
</g>
<!-- Node9&#45;&gt;Node12 -->
<g id="edge4" class="edge">
<title>Node9&#45;&gt;Node12</title>
<path fill="none" stroke="#191970" d="M336.028,-248.2956C323.2742,-221.7071 300.3686,-173.9549 290.6081,-153.6068"/>
<polygon fill="#191970" stroke="#191970" points="332.8897,-249.8458 340.3704,-257.3484 339.2011,-246.8183 332.8897,-249.8458"/>
</g>
<!-- Node13 -->
<g id="node6" class="node">
<title>Node13</title>
<g id="a_node6"><a xlink:href="executestack_8h.html" target="_top" xlink:title=" ">
<polygon fill="#ffffff" stroke="#000000" points="158.5,-196 158.5,-215 297.5,-215 297.5,-196 158.5,-196"/>
<text text-anchor="middle" x="228" y="-203" font-family="Helvetica,sans-Serif" font-size="10.00" fill="#000000">hvm/include/executestack.h</text>
</a>
</g>
</g>
<!-- Node9&#45;&gt;Node13 -->
<g id="edge5" class="edge">
<title>Node9&#45;&gt;Node13</title>
<path fill="none" stroke="#191970" d="M317.8454,-252.7264C295.8031,-241.1401 265.3355,-225.1251 246.1529,-215.0419"/>
<polygon fill="#191970" stroke="#191970" points="316.2386,-255.8359 326.7188,-257.3906 319.4956,-249.6397 316.2386,-255.8359"/>
</g>
<!-- Node14 -->
<g id="node7" class="node">
<title>Node14</title>
<g id="a_node7"><a xlink:href="hvm_8h.html" target="_top" xlink:title=" ">
<polygon fill="#ffffff" stroke="#000000" points="392.5,-73 392.5,-92 491.5,-92 491.5,-73 392.5,-73"/>
<text text-anchor="middle" x="442" y="-80" font-family="Helvetica,sans-Serif" font-size="10.00" fill="#000000">hvm/include/hvm.h</text>
</a>
</g>
</g>
<!-- Node9&#45;&gt;Node14 -->
<g id="edge8" class="edge">
<title>Node9&#45;&gt;Node14</title>
<path fill="none" stroke="#191970" d="M358.8976,-249.3005C365.1274,-240.9624 372.3312,-230.7288 378,-221 404.9376,-174.7693 429.2119,-115.2636 438.2541,-92.2167"/>
<polygon fill="#191970" stroke="#191970" points="355.9297,-247.4201 352.6387,-257.4908 361.4916,-251.6704 355.9297,-247.4201"/>
</g>
<!-- Node15 -->
<g id="node8" class="node">
<title>Node15</title>
<g id="a_node8"><a xlink:href="main_8c.html" target="_top" xlink:title=" ">
<polygon fill="#ffffff" stroke="#000000" points="449,-6 449,-25 519,-25 519,-6 449,-6"/>
<text text-anchor="middle" x="484" y="-13" font-family="Helvetica,sans-Serif" font-size="10.00" fill="#000000">main/main.c</text>
</a>
</g>
</g>
<!-- Node9&#45;&gt;Node15 -->
<g id="edge10" class="edge">
<title>Node9&#45;&gt;Node15</title>
<path fill="none" stroke="#191970" d="M343.3633,-247.0595C341.2509,-208.3032 341.8888,-121.8139 383,-67 399.0613,-45.5854 426.5623,-32.3892 448.8155,-24.723"/>
<polygon fill="#191970" stroke="#191970" points="339.8729,-247.321 344.033,-257.0649 346.8573,-246.8535 339.8729,-247.321"/>
</g>
<!-- Node16 -->
<g id="node9" class="node">
<title>Node16</title>
<g id="a_node9"><a xlink:href="token_8h.html" target="_top" xlink:title=" ">
<polygon fill="#ffffff" stroke="#000000" points="994.5,-196 994.5,-215 1107.5,-215 1107.5,-196 994.5,-196"/>
<text text-anchor="middle" x="1051" y="-203" font-family="Helvetica,sans-Serif" font-size="10.00" fill="#000000">parser/include/token.h</text>
</a>
</g>
</g>
<!-- Node9&#45;&gt;Node16 -->
<g id="edge11" class="edge">
<title>Node9&#45;&gt;Node16</title>
<path fill="none" stroke="#191970" d="M416.9697,-260.7307C557.7055,-248.4711 866.7221,-221.5525 994.2426,-210.4442"/>
<polygon fill="#191970" stroke="#191970" points="416.3841,-257.2683 406.7256,-261.6231 416.9917,-264.2419 416.3841,-257.2683"/>
</g>
<!-- Node27 -->
<g id="node20" class="node">
<title>Node27</title>
<g id="a_node20"><a xlink:href="token_8c.html" target="_top" xlink:title=" ">
<polygon fill="#ffffff" stroke="#000000" points="1336.5,-134.5 1336.5,-153.5 1415.5,-153.5 1415.5,-134.5 1336.5,-134.5"/>
<text text-anchor="middle" x="1376" y="-141.5" font-family="Helvetica,sans-Serif" font-size="10.00" fill="#000000">parser/token.c</text>
</a>
</g>
</g>
<!-- Node9&#45;&gt;Node27 -->
<g id="edge36" class="edge">
<title>Node9&#45;&gt;Node27</title>
<path fill="none" stroke="#191970" d="M416.7853,-264.8113C581.5562,-259.4482 982.9163,-244.36 1116,-221 1204.099,-205.5361 1304.6451,-170.6116 1350.6334,-153.6315"/>
<polygon fill="#191970" stroke="#191970" points="416.6333,-261.3143 406.7515,-265.1354 416.8593,-268.3107 416.6333,-261.3143"/>
</g>
<!-- Node13&#45;&gt;Node11 -->
<g id="edge6" class="edge">
<title>Node13&#45;&gt;Node11</title>
<path fill="none" stroke="#191970" d="M207.381,-189.6491C192.5164,-178.222 172.943,-163.1749 160.4122,-153.5419"/>
<polygon fill="#191970" stroke="#191970" points="205.4387,-192.5707 215.5,-195.8906 209.7051,-187.021 205.4387,-192.5707"/>
</g>
<!-- Node13&#45;&gt;Node12 -->
<g id="edge7" class="edge">
<title>Node13&#45;&gt;Node12</title>
<path fill="none" stroke="#191970" d="M244.1261,-188.4007C254.6642,-177.2268 268.0477,-163.0356 276.8097,-153.7449"/>
<polygon fill="#191970" stroke="#191970" points="241.3773,-186.2142 237.0625,-195.8906 246.4698,-191.0169 241.3773,-186.2142"/>
</g>
<!-- Node14&#45;&gt;Node15 -->
<g id="edge9" class="edge">
<title>Node14&#45;&gt;Node15</title>
<path fill="none" stroke="#191970" d="M453.5281,-64.1099C461.4457,-51.4795 471.6357,-35.2241 477.9936,-25.0817"/>
<polygon fill="#191970" stroke="#191970" points="450.3635,-62.5687 448.0176,-72.9005 456.2945,-66.2866 450.3635,-62.5687"/>
</g>
<!-- Node17 -->
<g id="node10" class="node">
<title>Node17</title>
<g id="a_node10"><a xlink:href="AST_8c.html" target="_top" xlink:title=" ">
<polygon fill="#ffffff" stroke="#000000" points="1157,-6 1157,-25 1231,-25 1231,-6 1157,-6"/>
<text text-anchor="middle" x="1194" y="-13" font-family="Helvetica,sans-Serif" font-size="10.00" fill="#000000">parser/AST.c</text>
</a>
</g>
</g>
<!-- Node16&#45;&gt;Node17 -->
<g id="edge12" class="edge">
<title>Node16&#45;&gt;Node17</title>
<path fill="none" stroke="#191970" d="M1072.4666,-189.3867C1084.4986,-179.8094 1099.3759,-167.0193 1111,-154 1149.0861,-111.3424 1179.1783,-48.7215 1189.8318,-25.0418"/>
<polygon fill="#191970" stroke="#191970" points="1070.0348,-186.8443 1064.2955,-195.75 1074.3358,-192.3672 1070.0348,-186.8443"/>
</g>
<!-- Node18 -->
<g id="node11" class="node">
<title>Node18</title>
<g id="a_node11"><a xlink:href="AST_8h.html" target="_top" xlink:title=" ">
<polygon fill="#ffffff" stroke="#000000" points="892.5,-134.5 892.5,-153.5 999.5,-153.5 999.5,-134.5 892.5,-134.5"/>
<text text-anchor="middle" x="946" y="-141.5" font-family="Helvetica,sans-Serif" font-size="10.00" fill="#000000">parser/include/AST.h</text>
</a>
</g>
</g>
<!-- Node16&#45;&gt;Node18 -->
<g id="edge13" class="edge">
<title>Node16&#45;&gt;Node18</title>
<path fill="none" stroke="#191970" d="M1025.8316,-190.7585C1006.1183,-179.2122 979.2757,-163.49 962.291,-153.5419"/>
<polygon fill="#191970" stroke="#191970" points="1024.196,-193.8566 1034.5938,-195.8906 1027.7338,-187.8164 1024.196,-193.8566"/>
</g>
<!-- Node22 -->
<g id="node15" class="node">
<title>Node22</title>
<g id="a_node15"><a xlink:href="expressions_8c.html" target="_top" xlink:title=" ">
<polygon fill="#ffffff" stroke="#000000" points="1249,-.5 1249,-30.5 1347,-30.5 1347,-.5 1249,-.5"/>
<text text-anchor="start" x="1257" y="-18.5" font-family="Helvetica,sans-Serif" font-size="10.00" fill="#000000">parser/parserfuncs</text>
<text text-anchor="middle" x="1298" y="-7.5" font-family="Helvetica,sans-Serif" font-size="10.00" fill="#000000">/expressions.c</text>
</a>
</g>
</g>
<!-- Node16&#45;&gt;Node22 -->
<g id="edge31" class="edge">
<title>Node16&#45;&gt;Node22</title>
<path fill="none" stroke="#191970" d="M1076.8056,-190.5408C1093.259,-180.7015 1114.8258,-167.2385 1133,-154 1189.8327,-112.6019 1252.1779,-57.3133 1281.289,-30.8621"/>
<polygon fill="#191970" stroke="#191970" points="1074.5966,-187.7811 1067.7733,-195.8862 1078.1617,-193.8052 1074.5966,-187.7811"/>
</g>
<!-- Node23 -->
<g id="node16" class="node">
<title>Node23</title>
<g id="a_node16"><a xlink:href="floats_8c.html" target="_top" xlink:title=" ">
<polygon fill="#ffffff" stroke="#000000" points="544,-.5 544,-30.5 642,-30.5 642,-.5 544,-.5"/>
<text text-anchor="start" x="552" y="-18.5" font-family="Helvetica,sans-Serif" font-size="10.00" fill="#000000">parser/parserfuncs</text>
<text text-anchor="middle" x="593" y="-7.5" font-family="Helvetica,sans-Serif" font-size="10.00" fill="#000000">/floats.c</text>
</a>
</g>
</g>
<!-- Node16&#45;&gt;Node23 -->
<g id="edge32" class="edge">
<title>Node16&#45;&gt;Node23</title>
<path fill="none" stroke="#191970" d="M983.9383,-198.9455C904.6473,-190.4395 778.012,-174.2593 735,-154 674.5605,-125.5321 624.1769,-60.6731 603.3174,-30.9268"/>
<polygon fill="#191970" stroke="#191970" points="984.0073,-202.4723 994.3202,-200.0445 984.7442,-195.5112 984.0073,-202.4723"/>
</g>
<!-- Node24 -->
<g id="node17" class="node">
<title>Node24</title>
<g id="a_node17"><a xlink:href="integers_8c.html" target="_top" xlink:title=" ">
<polygon fill="#ffffff" stroke="#000000" points="660,-.5 660,-30.5 758,-30.5 758,-.5 660,-.5"/>
<text text-anchor="start" x="668" y="-18.5" font-family="Helvetica,sans-Serif" font-size="10.00" fill="#000000">parser/parserfuncs</text>
<text text-anchor="middle" x="709" y="-7.5" font-family="Helvetica,sans-Serif" font-size="10.00" fill="#000000">/integers.c</text>
</a>
</g>
</g>
<!-- Node16&#45;&gt;Node24 -->
<g id="edge33" class="edge">
<title>Node16&#45;&gt;Node24</title>
<path fill="none" stroke="#191970" d="M984.4337,-195.8666C887.9035,-180.3808 716.5715,-146.6727 680,-98 664.5873,-77.4874 682.1626,-48.1039 695.8883,-30.5013"/>
<polygon fill="#191970" stroke="#191970" points="983.9677,-199.3363 994.3918,-197.4421 985.0616,-192.4223 983.9677,-199.3363"/>
</g>
<!-- Node25 -->
<g id="node18" class="node">
<title>Node25</title>
<g id="a_node18"><a xlink:href="parser_8c.html" target="_top" xlink:title=" ">
<polygon fill="#ffffff" stroke="#000000" points="1041,-.5 1041,-30.5 1139,-30.5 1139,-.5 1041,-.5"/>
<text text-anchor="start" x="1049" y="-18.5" font-family="Helvetica,sans-Serif" font-size="10.00" fill="#000000">parser/parserfuncs</text>
<text text-anchor="middle" x="1090" y="-7.5" font-family="Helvetica,sans-Serif" font-size="10.00" fill="#000000">/parser.c</text>
</a>
</g>
</g>
<!-- Node16&#45;&gt;Node25 -->
<g id="edge34" class="edge">
<title>Node16&#45;&gt;Node25</title>
<path fill="none" stroke="#191970" d="M1066.2166,-187.7747C1082.4472,-167.593 1107.1467,-132.8812 1117,-98 1120.7454,-84.7411 1120.2943,-80.3782 1117,-67 1113.8138,-54.0608 1106.7349,-40.7729 1100.6248,-30.936"/>
<polygon fill="#191970" stroke="#191970" points="1063.3129,-185.7942 1059.643,-195.7332 1068.7099,-190.2521 1063.3129,-185.7942"/>
</g>
<!-- Node16&#45;&gt;Node27 -->
<g id="edge35" class="edge">
<title>Node16&#45;&gt;Node27</title>
<path fill="none" stroke="#191970" d="M1111.6294,-194.0271C1177.2816,-181.6036 1280.1133,-162.1447 1336.2166,-151.5282"/>
<polygon fill="#191970" stroke="#191970" points="1110.5995,-190.6597 1101.4247,-195.9581 1111.9011,-197.5377 1110.5995,-190.6597"/>
</g>
<!-- Node18&#45;&gt;Node15 -->
<g id="edge16" class="edge">
<title>Node18&#45;&gt;Node15</title>
<path fill="none" stroke="#191970" d="M882.1296,-141.2206C817.9581,-136.9036 716.9511,-125.9144 634,-98 580.1983,-79.8949 523.1804,-42.8819 497.6946,-25.2534"/>
<polygon fill="#191970" stroke="#191970" points="882.2925,-144.738 892.495,-141.8813 882.7379,-137.7522 882.2925,-144.738"/>
</g>
<!-- Node18&#45;&gt;Node17 -->
<g id="edge17" class="edge">
<title>Node18&#45;&gt;Node17</title>
<path fill="none" stroke="#191970" d="M1010.061,-135.4703C1043.6857,-128.9109 1084.5268,-117.524 1117,-98 1149.0707,-78.718 1176.1484,-42.2843 1187.8313,-25.0258"/>
<polygon fill="#191970" stroke="#191970" points="1009.0712,-132.0939 999.8747,-137.3546 1010.3446,-138.9771 1009.0712,-132.0939"/>
</g>
<!-- Node19 -->
<g id="node12" class="node">
<title>Node19</title>
<g id="a_node12"><a xlink:href="helios__code_8c.html" target="_top" xlink:title=" ">
<polygon fill="#ffffff" stroke="#000000" points="700,-67.5 700,-97.5 800,-97.5 800,-67.5 700,-67.5"/>
<text text-anchor="start" x="708" y="-85.5" font-family="Helvetica,sans-Serif" font-size="10.00" fill="#000000">builtins/code/helios</text>
<text text-anchor="middle" x="750" y="-74.5" font-family="Helvetica,sans-Serif" font-size="10.00" fill="#000000">_code.c</text>
</a>
</g>
</g>
<!-- Node18&#45;&gt;Node19 -->
<g id="edge14" class="edge">
<title>Node18&#45;&gt;Node19</title>
<path fill="none" stroke="#191970" d="M905.6801,-131.3486C874.4159,-121.5386 830.992,-107.9133 797.947,-97.5446"/>
<polygon fill="#191970" stroke="#191970" points="904.7858,-134.7362 915.375,-134.3906 906.8815,-128.0573 904.7858,-134.7362"/>
</g>
<!-- Node20 -->
<g id="node13" class="node">
<title>Node20</title>
<g id="a_node13"><a xlink:href="helios__instruction_8c.html" target="_top" xlink:title=" ">
<polygon fill="#ffffff" stroke="#000000" points="818,-67.5 818,-97.5 918,-97.5 918,-67.5 818,-67.5"/>
<text text-anchor="start" x="826" y="-85.5" font-family="Helvetica,sans-Serif" font-size="10.00" fill="#000000">builtins/code/helios</text>
<text text-anchor="middle" x="868" y="-74.5" font-family="Helvetica,sans-Serif" font-size="10.00" fill="#000000">_instruction.c</text>
</a>
</g>
</g>
<!-- Node18&#45;&gt;Node20 -->
<g id="edge15" class="edge">
<title>Node18&#45;&gt;Node20</title>
<path fill="none" stroke="#191970" d="M925.7561,-128.0385C913.8203,-118.6276 898.8083,-106.7911 887.0809,-97.5446"/>
<polygon fill="#191970" stroke="#191970" points="923.7927,-130.9475 933.8125,-134.3906 928.1268,-125.4506 923.7927,-130.9475"/>
</g>
<!-- Node21 -->
<g id="node14" class="node">
<title>Node21</title>
<g id="a_node14"><a xlink:href="parser_8h.html" target="_top" xlink:title=" ">
<polygon fill="#ffffff" stroke="#000000" points="974.5,-73 974.5,-92 1089.5,-92 1089.5,-73 974.5,-73"/>
<text text-anchor="middle" x="1032" y="-80" font-family="Helvetica,sans-Serif" font-size="10.00" fill="#000000">parser/include/parser.h</text>
</a>
</g>
</g>
<!-- Node18&#45;&gt;Node21 -->
<g id="edge18" class="edge">
<title>Node18&#45;&gt;Node21</title>
<path fill="none" stroke="#191970" d="M967.7188,-128.4685C983.7509,-117.0037 1005.0604,-101.765 1018.6569,-92.0419"/>
<polygon fill="#191970" stroke="#191970" points="965.5357,-125.7268 959.4375,-134.3906 969.6076,-131.4207 965.5357,-125.7268"/>
</g>
<!-- Node18&#45;&gt;Node22 -->
<g id="edge26" class="edge">
<title>Node18&#45;&gt;Node22</title>
<path fill="none" stroke="#191970" d="M1009.8402,-134.3157C1050.5176,-126.9878 1103.8649,-115.2086 1149,-98 1196.383,-79.9343 1247.1507,-49.0482 1275.5028,-30.6268"/>
<polygon fill="#191970" stroke="#191970" points="1009.0271,-130.9049 999.7841,-136.0835 1010.2391,-137.7992 1009.0271,-130.9049"/>
</g>
<!-- Node18&#45;&gt;Node23 -->
<g id="edge27" class="edge">
<title>Node18&#45;&gt;Node23</title>
<path fill="none" stroke="#191970" d="M882.1965,-137.2719C815.1052,-129.4416 714.5642,-115.3426 680,-98 647.8136,-81.8505 619.398,-49.8519 604.3555,-30.8005"/>
<polygon fill="#191970" stroke="#191970" points="881.9166,-140.7627 892.2509,-138.4279 882.7161,-133.8085 881.9166,-140.7627"/>
</g>
<!-- Node18&#45;&gt;Node24 -->
<g id="edge28" class="edge">
<title>Node18&#45;&gt;Node24</title>
<path fill="none" stroke="#191970" d="M882.1724,-141.5452C814.7444,-137.4522 714.9067,-126.6051 691,-98 675.0182,-78.8773 688.1999,-48.7712 698.8599,-30.7017"/>
<polygon fill="#191970" stroke="#191970" points="882.1022,-145.0468 892.2858,-142.1236 882.502,-138.0582 882.1022,-145.0468"/>
</g>
<!-- Node18&#45;&gt;Node25 -->
<g id="edge29" class="edge">
<title>Node18&#45;&gt;Node25</title>
<path fill="none" stroke="#191970" d="M1009.985,-132.5426C1046.4757,-124.5631 1087.0736,-112.7225 1098,-98 1112.5791,-78.3558 1104.2675,-48.4208 1097.0378,-30.5251"/>
<polygon fill="#191970" stroke="#191970" points="1008.8893,-129.1969 999.8298,-134.6901 1010.3375,-136.0454 1008.8893,-129.1969"/>
</g>
<!-- Node26 -->
<g id="node19" class="node">
<title>Node26</title>
<g id="a_node19"><a xlink:href="parserutil_8c.html" target="_top" xlink:title=" ">
<polygon fill="#ffffff" stroke="#000000" points="912.5,-6 912.5,-25 1007.5,-25 1007.5,-6 912.5,-6"/>
<text text-anchor="middle" x="960" y="-13" font-family="Helvetica,sans-Serif" font-size="10.00" fill="#000000">parser/parserutil.c</text>
</a>
</g>
</g>
<!-- Node18&#45;&gt;Node26 -->
<g id="edge30" class="edge">
<title>Node18&#45;&gt;Node26</title>
<path fill="none" stroke="#191970" d="M948.1601,-124.1733C951.2052,-96.2236 956.644,-46.3037 958.9355,-25.2705"/>
<polygon fill="#191970" stroke="#191970" points="944.656,-124.0213 947.0523,-134.3416 951.6149,-124.7796 944.656,-124.0213"/>
</g>
<!-- Node21&#45;&gt;Node15 -->
<g id="edge19" class="edge">
<title>Node21&#45;&gt;Node15</title>
<path fill="none" stroke="#191970" d="M964.0825,-71.9167C951.7579,-70.155 939.0069,-68.4365 927,-67 753.2834,-46.2172 706.6964,-64.6113 535,-31 527.3714,-29.5066 519.2581,-27.3245 511.7995,-25.0663"/>
<polygon fill="#191970" stroke="#191970" points="963.91,-75.4282 974.3092,-73.4013 964.9158,-68.5009 963.91,-75.4282"/>
</g>
<!-- Node21&#45;&gt;Node17 -->
<g id="edge20" class="edge">
<title>Node21&#45;&gt;Node17</title>
<path fill="none" stroke="#191970" d="M1064.855,-68.9118C1096.3417,-55.8895 1143.0632,-36.5664 1170.8324,-25.0817"/>
<polygon fill="#191970" stroke="#191970" points="1063.1139,-65.8443 1055.2107,-72.9005 1065.7892,-72.3129 1063.1139,-65.8443"/>
</g>
<!-- Node21&#45;&gt;Node22 -->
<g id="edge21" class="edge">
<title>Node21&#45;&gt;Node22</title>
<path fill="none" stroke="#191970" d="M1081.2858,-70.5679C1123.4722,-60.2898 1185.8009,-44.9506 1240,-31 1242.9272,-30.2466 1245.9355,-29.4649 1248.969,-28.6711"/>
<polygon fill="#191970" stroke="#191970" points="1080.4314,-67.1736 1071.5426,-72.939 1082.0866,-73.9751 1080.4314,-67.1736"/>
</g>
<!-- Node21&#45;&gt;Node23 -->
<g id="edge22" class="edge">
<title>Node21&#45;&gt;Node23</title>
<path fill="none" stroke="#191970" d="M964.0335,-72.2959C951.714,-70.495 938.9774,-68.6651 927,-67 804.4726,-49.9666 772.3511,-55.0211 651,-31 648.1372,-30.4333 645.2067,-29.8052 642.2577,-29.1358"/>
<polygon fill="#191970" stroke="#191970" points="963.8554,-75.8072 974.2579,-73.7976 964.8727,-68.8815 963.8554,-75.8072"/>
</g>
<!-- Node21&#45;&gt;Node24 -->
<g id="edge23" class="edge">
<title>Node21&#45;&gt;Node24</title>
<path fill="none" stroke="#191970" d="M976.1533,-70.9157C914.7033,-58.1691 816.8876,-37.8792 758.2156,-25.7088"/>
<polygon fill="#191970" stroke="#191970" points="975.5625,-74.3676 986.065,-72.9717 976.9843,-67.5135 975.5625,-74.3676"/>
</g>
<!-- Node21&#45;&gt;Node25 -->
<g id="edge24" class="edge">
<title>Node21&#45;&gt;Node25</title>
<path fill="none" stroke="#191970" d="M1047.1126,-65.0423C1056.3859,-54.33 1068.1394,-40.7528 1076.9961,-30.5218"/>
<polygon fill="#191970" stroke="#191970" points="1044.2088,-63.0491 1040.31,-72.9005 1049.5013,-67.6307 1044.2088,-63.0491"/>
</g>
<!-- Node21&#45;&gt;Node26 -->
<g id="edge25" class="edge">
<title>Node21&#45;&gt;Node26</title>
<path fill="none" stroke="#191970" d="M1014.2042,-65.94C1000.393,-53.0879 981.7303,-35.7212 970.2967,-25.0817"/>
<polygon fill="#191970" stroke="#191970" points="1011.9791,-68.6504 1021.6842,-72.9005 1016.7478,-63.5259 1011.9791,-68.6504"/>
</g>
</g>
</svg>
        <g id="navigator" transform="translate(0 0)" fill="#404254">
                <rect fill="#f2f5e9" fill-opacity="0.5" stroke="#606060" stroke-width=".5" x="0" y="0" width="60" height="60"/>
                <use id="zoomplus" xlink:href="#zoomPlus" x="17" y="9" onmousedown="handleZoom(evt,'in')"/>
                <use id="zoomminus" xlink:href="#zoomMin" x="42" y="9" onmousedown="handleZoom(evt,'out')"/>
                <use id="reset" xlink:href="#resetDef" x="30" y="36" onmousedown="handleReset()"/>
                <g id="arrowUp" xlink:href="#dirArrow" transform="translate(30 24)" onmousedown="handlePan(0,-1)">
                  <use xlink:href="#rim" fill="#404040">
                        <set attributeName="fill" to="#808080" begin="arrowUp.mouseover" end="arrowUp.mouseout"/>
                  </use>
                  <path fill="none" stroke="white" stroke-width="1.5" d="M0,-3.0v7 M-2.5,-0.5L0,-3.0L2.5,-0.5"/>
                </g>
                <g id="arrowRight" xlink:href="#dirArrow" transform="rotate(90) translate(36 -43)" onmousedown="handlePan(1,0)">
                  <use xlink:href="#rim" fill="#404040">
                        <set attributeName="fill" to="#808080" begin="arrowRight.mouseover" end="arrowRight.mouseout"/>
                  </use>
                  <path fill="none" stroke="white" stroke-width="1.5" d="M0,-3.0v7 M-2.5,-0.5L0,-3.0L2.5,-0.5"/>
                </g>
                <g id="arrowDown" xlink:href="#dirArrow" transform="rotate(180) translate(-30 -48)" onmousedown="handlePan(0,1)">
                  <use xlink:href="#rim" fill="#404040">
                        <set attributeName="fill" to="#808080" begin="arrowDown.mouseover" end="arrowDown.mouseout"/>
                  </use>
                  <path fill="none" stroke="white" stroke-width="1.5" d="M0,-3.0v7 M-2.5,-0.5L0,-3.0L2.5,-0.5"/>
                </g>
                <g id="arrowLeft" xlink:href="#dirArrow" transform="rotate(270) translate(-36 17)" onmousedown="handlePan(-1,0)">
                  <use xlink:href="#rim" fill="#404040">
                        <set attributeName="fill" to="#808080" begin="arrowLeft.mouseover" end="arrowLeft.mouseout"/>
                  </use>
                  <path fill="none" stroke="white" stroke-width="1.5" d="M0,-3.0v7 M-2.5,-0.5L0,-3.0L2.5,-0.5"/>
                </g>
        </g>
        <svg viewBox="0 0 15 15" width="100%" height="30px" preserveAspectRatio="xMaxYMin meet">
         <g id="arrow_out" transform="scale(0.3 0.3)">
          <a xlink:href="serialize_8h__dep__incl_org.svg" target="_base">
           <rect id="button" ry="5" rx="5" y="6" x="6" height="38" width="38"
                fill="#f2f5e9" fill-opacity="0.5" stroke="#606060" stroke-width="1.0"/>
           <path id="arrow"
             d="M 11.500037,31.436501 C 11.940474,20.09759 22.043105,11.32322 32.158766,21.979434 L 37.068811,17.246167 C 37.068811,17.246167 37.088388,32 37.088388,32 L 22.160133,31.978069 C 22.160133,31.978069 26.997745,27.140456 26.997745,27.140456 C 18.528582,18.264221 13.291696,25.230495 11.500037,31.436501 z"
             style="fill:#404040;"/>
          </a>
         </g>
        </svg>
</svg>
