<?xml version="1.0" encoding="UTF-8" standalone="no"?>
<!DOCTYPE svg PUBLIC "-//W3C//DTD SVG 1.1//EN"
 "http://www.w3.org/Graphics/SVG/1.1/DTD/svg11.dtd">
<!-- Generated by graphviz version 2.40.1 (20161225.0304)
 -->
<!-- Title: main/builtins/float/strtod.c Pages: 1 -->
<svg width="622pt" height="319pt"
 viewBox="0.00 0.00 622.00 319.00" xmlns="http://www.w3.org/2000/svg" xmlns:xlink="http://www.w3.org/1999/xlink">
<g id="graph0" class="graph" transform="scale(1 1) rotate(0) translate(4 315)">
<title>main/builtins/float/strtod.c</title>
<polygon fill="#ffffff" stroke="transparent" points="-4,4 -4,-315 618,-315 618,4 -4,4"/>
<!-- Node0 -->
<g id="node1" class="node">
<title>Node0</title>
<g id="a_node1"><a xlink:title=" ">
<polygon fill="#bfbfbf" stroke="#000000" points="270,-280.5 270,-310.5 375,-310.5 375,-280.5 270,-280.5"/>
<text text-anchor="start" x="278" y="-298.5" font-family="Helvetica,sans-Serif" font-size="10.00" fill="#000000">main/builtins/float</text>
<text text-anchor="middle" x="322.5" y="-287.5" font-family="Helvetica,sans-Serif" font-size="10.00" fill="#000000">/strtod.c</text>
</a>
</g>
</g>
<!-- Node1 -->
<g id="node2" class="node">
<title>Node1</title>
<g id="a_node2"><a xlink:title=" ">
<polygon fill="#ffffff" stroke="#bfbfbf" points="0,-224.5 0,-243.5 53,-243.5 53,-224.5 0,-224.5"/>
<text text-anchor="middle" x="26.5" y="-231.5" font-family="Helvetica,sans-Serif" font-size="10.00" fill="#000000">ctype.h</text>
</a>
</g>
</g>
<!-- Node0&#45;&gt;Node1 -->
<g id="edge1" class="edge">
<title>Node0&#45;&gt;Node1</title>
<path fill="none" stroke="#191970" d="M269.7286,-286.423C218.9788,-277.3936 139.929,-262.5452 63.0431,-244.2419"/>
<polygon fill="#191970" stroke="#191970" points="63.7332,-240.8081 53.1922,-241.8746 62.0976,-247.6144 63.7332,-240.8081"/>
</g>
<!-- Node2 -->
<g id="node3" class="node">
<title>Node2</title>
<g id="a_node3"><a xlink:title=" ">
<polygon fill="#ffffff" stroke="#bfbfbf" points="71,-224.5 71,-243.5 122,-243.5 122,-224.5 71,-224.5"/>
<text text-anchor="middle" x="96.5" y="-231.5" font-family="Helvetica,sans-Serif" font-size="10.00" fill="#000000">errno.h</text>
</a>
</g>
</g>
<!-- Node0&#45;&gt;Node2 -->
<g id="edge2" class="edge">
<title>Node0&#45;&gt;Node2</title>
<path fill="none" stroke="#191970" d="M269.7463,-281.5025C233.6117,-271.8627 184.3436,-258.6181 131.9239,-244.0896"/>
<polygon fill="#191970" stroke="#191970" points="132.6737,-240.6654 122.1018,-241.3624 130.8009,-247.4103 132.6737,-240.6654"/>
</g>
<!-- Node3 -->
<g id="node4" class="node">
<title>Node3</title>
<g id="a_node4"><a xlink:href="helios__float_8h.html" target="_top" xlink:title=" ">
<polygon fill="#ffffff" stroke="#000000" points="140.5,-224.5 140.5,-243.5 222.5,-243.5 222.5,-224.5 140.5,-224.5"/>
<text text-anchor="middle" x="181.5" y="-231.5" font-family="Helvetica,sans-Serif" font-size="10.00" fill="#000000">helios_float.h</text>
</a>
</g>
</g>
<!-- Node0&#45;&gt;Node3 -->
<g id="edge3" class="edge">
<title>Node0&#45;&gt;Node3</title>
<path fill="none" stroke="#191970" d="M288.0075,-280.4554C264.9972,-270.419 234.9914,-257.3314 212.6945,-247.6061"/>
<polygon fill="#191970" stroke="#191970" points="213.9154,-244.3202 203.35,-243.5303 211.1167,-250.7364 213.9154,-244.3202"/>
</g>
<!-- Node4 -->
<g id="node5" class="node">
<title>Node4</title>
<g id="a_node5"><a xlink:href="helios__object_8h.html" target="_top" xlink:title=" ">
<polygon fill="#ffffff" stroke="#000000" points="217.5,-168.5 217.5,-187.5 307.5,-187.5 307.5,-168.5 217.5,-168.5"/>
<text text-anchor="middle" x="262.5" y="-175.5" font-family="Helvetica,sans-Serif" font-size="10.00" fill="#000000">helios_object.h</text>
</a>
</g>
</g>
<!-- Node0&#45;&gt;Node4 -->
<g id="edge14" class="edge">
<title>Node0&#45;&gt;Node4</title>
<path fill="none" stroke="#191970" d="M300.8492,-280.3928C289.5206,-271.2402 276.5709,-258.5372 269.5,-244 262.4912,-229.5905 261.0314,-211.3606 261.1602,-197.7128"/>
<polygon fill="#191970" stroke="#191970" points="264.6656,-197.6387 261.555,-187.5108 257.6708,-197.3679 264.6656,-197.6387"/>
</g>
<!-- Node6 -->
<g id="node7" class="node">
<title>Node6</title>
<g id="a_node7"><a xlink:href="helios__memory_8h.html" target="_top" xlink:title=" ">
<polygon fill="#ffffff" stroke="#000000" points="338.5,-56.5 338.5,-75.5 438.5,-75.5 438.5,-56.5 338.5,-56.5"/>
<text text-anchor="middle" x="388.5" y="-63.5" font-family="Helvetica,sans-Serif" font-size="10.00" fill="#000000">helios_memory.h</text>
</a>
</g>
</g>
<!-- Node0&#45;&gt;Node6 -->
<g id="edge13" class="edge">
<title>Node0&#45;&gt;Node6</title>
<path fill="none" stroke="#191970" d="M344.3358,-280.4809C355.7222,-271.3558 368.6682,-258.6511 375.5,-244 400.0884,-191.2693 395.6002,-120.1281 391.4615,-85.9538"/>
<polygon fill="#191970" stroke="#191970" points="394.9067,-85.3102 390.1138,-75.8614 387.9683,-86.2367 394.9067,-85.3102"/>
</g>
<!-- Node12 -->
<g id="node13" class="node">
<title>Node12</title>
<g id="a_node13"><a xlink:href="helios__string_8h.html" target="_top" xlink:title=" ">
<polygon fill="#ffffff" stroke="#000000" points="278.5,-224.5 278.5,-243.5 366.5,-243.5 366.5,-224.5 278.5,-224.5"/>
<text text-anchor="middle" x="322.5" y="-231.5" font-family="Helvetica,sans-Serif" font-size="10.00" fill="#000000">helios_string.h</text>
</a>
</g>
</g>
<!-- Node0&#45;&gt;Node12 -->
<g id="edge15" class="edge">
<title>Node0&#45;&gt;Node12</title>
<path fill="none" stroke="#191970" d="M322.5,-280.2977C322.5,-272.3834 322.5,-262.6043 322.5,-254.0759"/>
<polygon fill="#191970" stroke="#191970" points="326.0001,-253.8469 322.5,-243.8469 319.0001,-253.847 326.0001,-253.8469"/>
</g>
<!-- Node13 -->
<g id="node14" class="node">
<title>Node13</title>
<g id="a_node14"><a xlink:title=" ">
<polygon fill="#ffffff" stroke="#bfbfbf" points="423,-224.5 423,-243.5 474,-243.5 474,-224.5 423,-224.5"/>
<text text-anchor="middle" x="448.5" y="-231.5" font-family="Helvetica,sans-Serif" font-size="10.00" fill="#000000">math.h</text>
</a>
</g>
</g>
<!-- Node0&#45;&gt;Node13 -->
<g id="edge17" class="edge">
<title>Node0&#45;&gt;Node13</title>
<path fill="none" stroke="#191970" d="M353.3231,-280.4554C373.6088,-270.554 399.9788,-257.683 419.8162,-248.0004"/>
<polygon fill="#191970" stroke="#191970" points="421.523,-251.062 428.9745,-243.5303 418.4526,-244.7714 421.523,-251.062"/>
</g>
<!-- Node14 -->
<g id="node15" class="node">
<title>Node14</title>
<g id="a_node15"><a xlink:title=" ">
<polygon fill="#ffffff" stroke="#bfbfbf" points="492.5,-224.5 492.5,-243.5 542.5,-243.5 542.5,-224.5 492.5,-224.5"/>
<text text-anchor="middle" x="517.5" y="-231.5" font-family="Helvetica,sans-Serif" font-size="10.00" fill="#000000">stdio.h</text>
</a>
</g>
</g>
<!-- Node0&#45;&gt;Node14 -->
<g id="edge18" class="edge">
<title>Node0&#45;&gt;Node14</title>
<path fill="none" stroke="#191970" d="M370.2024,-280.4554C404.9981,-269.4814 451.3605,-254.8594 482.7053,-244.9737"/>
<polygon fill="#191970" stroke="#191970" points="483.8366,-248.2869 492.3208,-241.9411 481.7311,-241.6111 483.8366,-248.2869"/>
</g>
<!-- Node15 -->
<g id="node16" class="node">
<title>Node15</title>
<g id="a_node16"><a xlink:title=" ">
<polygon fill="#ffffff" stroke="#bfbfbf" points="561,-224.5 561,-243.5 614,-243.5 614,-224.5 561,-224.5"/>
<text text-anchor="middle" x="587.5" y="-231.5" font-family="Helvetica,sans-Serif" font-size="10.00" fill="#000000">string.h</text>
</a>
</g>
</g>
<!-- Node0&#45;&gt;Node15 -->
<g id="edge19" class="edge">
<title>Node0&#45;&gt;Node15</title>
<path fill="none" stroke="#191970" d="M375.4306,-284.378C419.7775,-274.8823 484.9639,-260.5138 551.0485,-244.0231"/>
<polygon fill="#191970" stroke="#191970" points="551.9557,-247.4041 560.8029,-241.575 550.2517,-240.6146 551.9557,-247.4041"/>
</g>
<!-- Node3&#45;&gt;Node4 -->
<g id="edge4" class="edge">
<title>Node3&#45;&gt;Node4</title>
<path fill="none" stroke="#191970" d="M195.6091,-224.2455C207.9209,-215.7337 225.9958,-203.2375 240.2538,-193.3801"/>
<polygon fill="#191970" stroke="#191970" points="242.3174,-196.2085 248.5526,-187.6427 238.3366,-190.4506 242.3174,-196.2085"/>
</g>
<!-- Node5 -->
<g id="node6" class="node">
<title>Node5</title>
<g id="a_node6"><a xlink:href="helios__type_8h.html" target="_top" xlink:title=" ">
<polygon fill="#ffffff" stroke="#000000" points="245.5,-112.5 245.5,-131.5 327.5,-131.5 327.5,-112.5 245.5,-112.5"/>
<text text-anchor="middle" x="286.5" y="-119.5" font-family="Helvetica,sans-Serif" font-size="10.00" fill="#000000">helios_type.h</text>
</a>
</g>
</g>
<!-- Node4&#45;&gt;Node5 -->
<g id="edge5" class="edge">
<title>Node4&#45;&gt;Node5</title>
<path fill="none" stroke="#191970" d="M266.6805,-168.2455C269.881,-160.7776 274.396,-150.2427 278.3084,-141.1137"/>
<polygon fill="#191970" stroke="#191970" points="281.6452,-142.2129 282.3674,-131.6427 275.2112,-139.4554 281.6452,-142.2129"/>
</g>
<!-- Node5&#45;&gt;Node6 -->
<g id="edge6" class="edge">
<title>Node5&#45;&gt;Node6</title>
<path fill="none" stroke="#191970" d="M304.267,-112.2455C320.2095,-103.4928 343.8259,-90.527 361.9989,-80.5496"/>
<polygon fill="#191970" stroke="#191970" points="363.8552,-83.5233 370.9366,-75.6427 360.4863,-77.3873 363.8552,-83.5233"/>
</g>
<!-- Node10 -->
<g id="node11" class="node">
<title>Node10</title>
<g id="a_node11"><a xlink:title=" ">
<polygon fill="#ffffff" stroke="#bfbfbf" points="211,-.5 211,-19.5 264,-19.5 264,-.5 211,-.5"/>
<text text-anchor="middle" x="237.5" y="-7.5" font-family="Helvetica,sans-Serif" font-size="10.00" fill="#000000">stdint.h</text>
</a>
</g>
</g>
<!-- Node5&#45;&gt;Node10 -->
<g id="edge11" class="edge">
<title>Node5&#45;&gt;Node10</title>
<path fill="none" stroke="#191970" d="M278.9169,-112.2703C272.2244,-103.2861 262.6089,-89.3518 256.5,-76 249.6788,-61.0913 244.7038,-43.1577 241.5596,-29.7496"/>
<polygon fill="#191970" stroke="#191970" points="244.9189,-28.7293 239.3488,-19.7169 238.0829,-30.2358 244.9189,-28.7293"/>
</g>
<!-- Node11 -->
<g id="node12" class="node">
<title>Node11</title>
<g id="a_node12"><a xlink:title=" ">
<polygon fill="#ffffff" stroke="#bfbfbf" points="266,-56.5 266,-75.5 319,-75.5 319,-56.5 266,-56.5"/>
<text text-anchor="middle" x="292.5" y="-63.5" font-family="Helvetica,sans-Serif" font-size="10.00" fill="#000000">stdlib.h</text>
</a>
</g>
</g>
<!-- Node5&#45;&gt;Node11 -->
<g id="edge12" class="edge">
<title>Node5&#45;&gt;Node11</title>
<path fill="none" stroke="#191970" d="M287.5451,-112.2455C288.328,-104.9382 289.4256,-94.6944 290.3888,-85.7046"/>
<polygon fill="#191970" stroke="#191970" points="293.8815,-85.9587 291.4669,-75.6427 286.9214,-85.2129 293.8815,-85.9587"/>
</g>
<!-- Node7 -->
<g id="node8" class="node">
<title>Node7</title>
<g id="a_node8"><a xlink:href="builtinutils_8h.html" target="_top" xlink:title=" ">
<polygon fill="#ffffff" stroke="#000000" points="437,-.5 437,-19.5 514,-19.5 514,-.5 437,-.5"/>
<text text-anchor="middle" x="475.5" y="-7.5" font-family="Helvetica,sans-Serif" font-size="10.00" fill="#000000">builtinutils.h</text>
</a>
</g>
</g>
<!-- Node6&#45;&gt;Node7 -->
<g id="edge7" class="edge">
<title>Node6&#45;&gt;Node7</title>
<path fill="none" stroke="#191970" d="M403.6542,-56.2455C417.0027,-47.6534 436.6586,-35.0014 452.0383,-25.1018"/>
<polygon fill="#191970" stroke="#191970" points="454.0051,-27.9982 460.5194,-19.6427 450.2164,-22.1121 454.0051,-27.9982"/>
</g>
<!-- Node8 -->
<g id="node9" class="node">
<title>Node8</title>
<g id="a_node9"><a xlink:title=" ">
<polygon fill="#ffffff" stroke="#bfbfbf" points="282.5,-.5 282.5,-19.5 344.5,-19.5 344.5,-.5 282.5,-.5"/>
<text text-anchor="middle" x="313.5" y="-7.5" font-family="Helvetica,sans-Serif" font-size="10.00" fill="#000000">stdbool.h</text>
</a>
</g>
</g>
<!-- Node6&#45;&gt;Node8 -->
<g id="edge8" class="edge">
<title>Node6&#45;&gt;Node8</title>
<path fill="none" stroke="#191970" d="M375.436,-56.2455C364.1438,-47.814 347.6155,-35.4729 334.4729,-25.6598"/>
<polygon fill="#191970" stroke="#191970" points="336.5211,-22.8211 326.4143,-19.6427 332.3331,-28.4301 336.5211,-22.8211"/>
</g>
<!-- Node9 -->
<g id="node10" class="node">
<title>Node9</title>
<g id="a_node10"><a xlink:title=" ">
<polygon fill="#ffffff" stroke="#bfbfbf" points="362.5,-.5 362.5,-19.5 418.5,-19.5 418.5,-.5 362.5,-.5"/>
<text text-anchor="middle" x="390.5" y="-7.5" font-family="Helvetica,sans-Serif" font-size="10.00" fill="#000000">stddef.h</text>
</a>
</g>
</g>
<!-- Node6&#45;&gt;Node9 -->
<g id="edge9" class="edge">
<title>Node6&#45;&gt;Node9</title>
<path fill="none" stroke="#191970" d="M388.8484,-56.2455C389.1093,-48.9382 389.4752,-38.6944 389.7963,-29.7046"/>
<polygon fill="#191970" stroke="#191970" points="393.2964,-29.7613 390.1556,-19.6427 386.3008,-29.5113 393.2964,-29.7613"/>
</g>
<!-- Node6&#45;&gt;Node10 -->
<g id="edge10" class="edge">
<title>Node6&#45;&gt;Node10</title>
<path fill="none" stroke="#191970" d="M362.5422,-56.3733C337.7593,-47.1822 300.2254,-33.2624 272.746,-23.0713"/>
<polygon fill="#191970" stroke="#191970" points="273.7121,-19.6968 263.1191,-19.5011 271.2781,-26.26 273.7121,-19.6968"/>
</g>
<!-- Node12&#45;&gt;Node4 -->
<g id="edge16" class="edge">
<title>Node12&#45;&gt;Node4</title>
<path fill="none" stroke="#191970" d="M312.0488,-224.2455C303.2731,-216.0549 290.5446,-204.1749 280.186,-194.5069"/>
<polygon fill="#191970" stroke="#191970" points="282.5301,-191.9072 272.8314,-187.6427 277.7539,-197.0246 282.5301,-191.9072"/>
</g>
</g>
</svg>
