<?xml version="1.0" encoding="UTF-8" standalone="no"?>
<!DOCTYPE svg PUBLIC "-//W3C//DTD SVG 1.1//EN"
 "http://www.w3.org/Graphics/SVG/1.1/DTD/svg11.dtd">
<!-- Generated by graphviz version 2.40.1 (20161225.0304)
 -->
<!-- Title: helios_float_from_cstring Pages: 1 -->
<svg width="602pt" height="66pt"
 viewBox="0.00 0.00 602.00 66.00" xmlns="http://www.w3.org/2000/svg" xmlns:xlink="http://www.w3.org/1999/xlink">
<g id="graph0" class="graph" transform="scale(1 1) rotate(0) translate(4 62)">
<title>helios_float_from_cstring</title>
<polygon fill="#ffffff" stroke="transparent" points="-4,4 -4,-62 598,-62 598,4 -4,4"/>
<!-- Node0 -->
<g id="node1" class="node">
<title>Node0</title>
<g id="a_node1"><a xlink:title="Convert a string to a helios double.">
<polygon fill="#bfbfbf" stroke="#000000" points="0,-19.5 0,-38.5 125,-38.5 125,-19.5 0,-19.5"/>
<text text-anchor="middle" x="62.5" y="-26.5" font-family="Helvetica,sans-Serif" font-size="10.00" fill="#000000">helios_float_from_cstring</text>
</a>
</g>
</g>
<!-- Node1 -->
<g id="node2" class="node">
<title>Node1</title>
<g id="a_node2"><a xlink:href="helios__float_8c.html#a826b7f7e3b3c75b0161be6e84c349135" target="_top" xlink:title="Create a helios_float object from a c double type.">
<polygon fill="#ffffff" stroke="#000000" points="161,-19.5 161,-38.5 291,-38.5 291,-19.5 161,-19.5"/>
<text text-anchor="middle" x="226" y="-26.5" font-family="Helvetica,sans-Serif" font-size="10.00" fill="#000000">helios_float_from_cdouble</text>
</a>
</g>
</g>
<!-- Node0&#45;&gt;Node1 -->
<g id="edge1" class="edge">
<title>Node0&#45;&gt;Node1</title>
<path fill="none" stroke="#191970" d="M125.2458,-29C133.6602,-29 142.3591,-29 150.9582,-29"/>
<polygon fill="#191970" stroke="#191970" points="150.9842,-32.5001 160.9841,-29 150.9841,-25.5001 150.9842,-32.5001"/>
</g>
<!-- Node2 -->
<g id="node3" class="node">
<title>Node2</title>
<g id="a_node3"><a xlink:href="helios__float_8c.html#a6b9f18063c74a36f08d05c6310bc45da" target="_top" xlink:title="Constructor of a helios_float object.">
<polygon fill="#ffffff" stroke="#000000" points="327,-19.5 327,-38.5 411,-38.5 411,-19.5 327,-19.5"/>
<text text-anchor="middle" x="369" y="-26.5" font-family="Helvetica,sans-Serif" font-size="10.00" fill="#000000">helios_float_init</text>
</a>
</g>
</g>
<!-- Node1&#45;&gt;Node2 -->
<g id="edge2" class="edge">
<title>Node1&#45;&gt;Node2</title>
<path fill="none" stroke="#191970" d="M291.223,-29C299.7171,-29 308.3303,-29 316.5781,-29"/>
<polygon fill="#191970" stroke="#191970" points="316.7934,-32.5001 326.7934,-29 316.7933,-25.5001 316.7934,-32.5001"/>
</g>
<!-- Node3 -->
<g id="node4" class="node">
<title>Node3</title>
<g id="a_node4"><a xlink:href="helios__memory_8h.html#af87f0050f8e236d0945592fa4e54dc94" target="_top" xlink:title="Allocates a new helios object (and performs all the GC steps associated with that action).">
<polygon fill="#ffffff" stroke="#000000" points="464,-38.5 464,-57.5 577,-57.5 577,-38.5 464,-38.5"/>
<text text-anchor="middle" x="520.5" y="-45.5" font-family="Helvetica,sans-Serif" font-size="10.00" fill="#000000">helios_allocate_object</text>
</a>
</g>
</g>
<!-- Node2&#45;&gt;Node3 -->
<g id="edge3" class="edge">
<title>Node2&#45;&gt;Node3</title>
<path fill="none" stroke="#191970" d="M411.2012,-34.2926C424.4328,-35.952 439.3758,-37.826 453.8671,-39.6434"/>
<polygon fill="#191970" stroke="#191970" points="453.443,-43.1175 463.8008,-40.8892 454.3141,-36.172 453.443,-43.1175"/>
</g>
<!-- Node4 -->
<g id="node5" class="node">
<title>Node4</title>
<g id="a_node5"><a xlink:href="helios__memory_8h.html#ab14fb1c046aae61ab06eda8eeaf2cd85" target="_top" xlink:title=" ">
<polygon fill="#ffffff" stroke="#000000" points="447,-.5 447,-19.5 594,-19.5 594,-.5 447,-.5"/>
<text text-anchor="middle" x="520.5" y="-7.5" font-family="Helvetica,sans-Serif" font-size="10.00" fill="#000000">helios_set_garbagecollectable</text>
</a>
</g>
</g>
<!-- Node2&#45;&gt;Node4 -->
<g id="edge4" class="edge">
<title>Node2&#45;&gt;Node4</title>
<path fill="none" stroke="#191970" d="M411.2012,-23.7074C419.2801,-22.6942 427.997,-21.601 436.8596,-20.4896"/>
<polygon fill="#191970" stroke="#191970" points="437.4147,-23.9475 446.9014,-19.2302 436.5435,-17.0019 437.4147,-23.9475"/>
</g>
</g>
</svg>
