<?xml version="1.0" encoding="UTF-8" standalone="no"?>
<!DOCTYPE svg PUBLIC "-//W3C//DTD SVG 1.1//EN"
 "http://www.w3.org/Graphics/SVG/1.1/DTD/svg11.dtd">
<!-- Generated by graphviz version 2.40.1 (20161225.0304)
 -->
<!-- Title: AST Pages: 1 -->
<svg width="82pt" height="162pt"
 viewBox="0.00 0.00 82.00 162.00" xmlns="http://www.w3.org/2000/svg" xmlns:xlink="http://www.w3.org/1999/xlink">
<g id="graph0" class="graph" transform="scale(1 1) rotate(0) translate(4 158)">
<title>AST</title>
<polygon fill="#ffffff" stroke="transparent" points="-4,4 -4,-158 78,-158 78,4 -4,4"/>
<!-- Node1 -->
<g id="node1" class="node">
<title>Node1</title>
<g id="a_node1"><a xlink:title="This struct represents an AST node object, and recursively defines an AST.">
<polygon fill="#bfbfbf" stroke="#000000" points="19,-.5 19,-19.5 55,-19.5 55,-.5 19,-.5"/>
<text text-anchor="middle" x="37" y="-7.5" font-family="Helvetica,sans-Serif" font-size="10.00" fill="#000000">AST</text>
</a>
</g>
</g>
<!-- Node2 -->
<g id="node2" class="node">
<title>Node2</title>
<g id="a_node2"><a xlink:href="structToken__t.html" target="_top" xlink:title="This struct represents a token object.">
<polygon fill="#ffffff" stroke="#000000" points="11.5,-67.5 11.5,-86.5 62.5,-86.5 62.5,-67.5 11.5,-67.5"/>
<text text-anchor="middle" x="37" y="-74.5" font-family="Helvetica,sans-Serif" font-size="10.00" fill="#000000">Token_t</text>
</a>
</g>
</g>
<!-- Node2&#45;&gt;Node1 -->
<g id="edge1" class="edge">
<title>Node2&#45;&gt;Node1</title>
<path fill="none" stroke="#9a32cd" stroke-dasharray="5,2" d="M37,-57.1079C37,-44.714 37,-29.3263 37,-19.5817"/>
<polygon fill="#9a32cd" stroke="#9a32cd" points="33.5001,-57.4005 37,-67.4005 40.5001,-57.4006 33.5001,-57.4005"/>
<text text-anchor="middle" x="50.5" y="-41" font-family="Helvetica,sans-Serif" font-size="10.00" fill="#000000"> value</text>
</g>
<!-- Node3 -->
<g id="node3" class="node">
<title>Node3</title>
<g id="a_node3"><a xlink:href="structhelios__object.html" target="_top" xlink:title="Definition of the most basic helios object.">
<polygon fill="#ffffff" stroke="#000000" points="0,-134.5 0,-153.5 74,-153.5 74,-134.5 0,-134.5"/>
<text text-anchor="middle" x="37" y="-141.5" font-family="Helvetica,sans-Serif" font-size="10.00" fill="#000000">helios_object</text>
</a>
</g>
</g>
<!-- Node3&#45;&gt;Node2 -->
<g id="edge2" class="edge">
<title>Node3&#45;&gt;Node2</title>
<path fill="none" stroke="#9a32cd" stroke-dasharray="5,2" d="M37,-124.1079C37,-111.714 37,-96.3263 37,-86.5817"/>
<polygon fill="#9a32cd" stroke="#9a32cd" points="33.5001,-124.4005 37,-134.4005 40.5001,-124.4006 33.5001,-124.4005"/>
<text text-anchor="middle" x="50.5" y="-108" font-family="Helvetica,sans-Serif" font-size="10.00" fill="#000000"> value</text>
</g>
</g>
</svg>
