<?xml version="1.0" encoding="UTF-8" standalone="no"?>
<!DOCTYPE svg PUBLIC "-//W3C//DTD SVG 1.1//EN"
 "http://www.w3.org/Graphics/SVG/1.1/DTD/svg11.dtd">
<!-- Generated by graphviz version 2.40.1 (20161225.0304)
 -->
<!-- Title: program Pages: 1 -->
<svg width="149pt" height="95pt"
 viewBox="0.00 0.00 149.00 95.00" xmlns="http://www.w3.org/2000/svg" xmlns:xlink="http://www.w3.org/1999/xlink">
<g id="graph0" class="graph" transform="scale(1 1) rotate(0) translate(4 91)">
<title>program</title>
<polygon fill="#ffffff" stroke="transparent" points="-4,4 -4,-91 145,-91 145,4 -4,4"/>
<!-- Node1 -->
<g id="node1" class="node">
<title>Node1</title>
<g id="a_node1"><a xlink:title=" ">
<polygon fill="#bfbfbf" stroke="#000000" points="39,-.5 39,-19.5 91,-19.5 91,-.5 39,-.5"/>
<text text-anchor="middle" x="65" y="-7.5" font-family="Helvetica,sans-Serif" font-size="10.00" fill="#000000">program</text>
</a>
</g>
</g>
<!-- Node2 -->
<g id="node2" class="node">
<title>Node2</title>
<g id="a_node2"><a xlink:href="structconstant.html" target="_top" xlink:title=" ">
<polygon fill="#ffffff" stroke="#000000" points="0,-67.5 0,-86.5 54,-86.5 54,-67.5 0,-67.5"/>
<text text-anchor="middle" x="27" y="-74.5" font-family="Helvetica,sans-Serif" font-size="10.00" fill="#000000">constant</text>
</a>
</g>
</g>
<!-- Node2&#45;&gt;Node1 -->
<g id="edge1" class="edge">
<title>Node2&#45;&gt;Node1</title>
<path fill="none" stroke="#9a32cd" stroke-dasharray="5,2" d="M28.6163,-57.3968C29.7628,-50.9174 31.708,-43.8703 35,-38 38.9726,-30.9161 45.3562,-24.5888 51.2158,-19.749"/>
<polygon fill="#9a32cd" stroke="#9a32cd" points="25.1264,-57.0969 27.3439,-67.4571 32.0711,-57.9753 25.1264,-57.0969"/>
<text text-anchor="middle" x="58" y="-41" font-family="Helvetica,sans-Serif" font-size="10.00" fill="#000000"> constants</text>
</g>
<!-- Node3 -->
<g id="node3" class="node">
<title>Node3</title>
<g id="a_node3"><a xlink:href="structinstruction.html" target="_top" xlink:title=" ">
<polygon fill="#ffffff" stroke="#000000" points="72,-67.5 72,-86.5 134,-86.5 134,-67.5 72,-67.5"/>
<text text-anchor="middle" x="103" y="-74.5" font-family="Helvetica,sans-Serif" font-size="10.00" fill="#000000">instruction</text>
</a>
</g>
</g>
<!-- Node3&#45;&gt;Node1 -->
<g id="edge2" class="edge">
<title>Node3&#45;&gt;Node1</title>
<path fill="none" stroke="#9a32cd" stroke-dasharray="5,2" d="M92.6617,-58.6241C88.9875,-52.1064 84.8166,-44.7222 81,-38 77.517,-31.8653 73.5866,-24.9865 70.4929,-19.5822"/>
<polygon fill="#9a32cd" stroke="#9a32cd" points="89.6334,-60.3795 97.5902,-67.3752 95.7326,-56.9445 89.6334,-60.3795"/>
<text text-anchor="middle" x="114" y="-41" font-family="Helvetica,sans-Serif" font-size="10.00" fill="#000000"> instructions</text>
</g>
</g>
</svg>
