<?xml version="1.0" encoding="UTF-8" standalone="no"?>
<!DOCTYPE svg PUBLIC "-//W3C//DTD SVG 1.1//EN"
 "http://www.w3.org/Graphics/SVG/1.1/DTD/svg11.dtd">
<!-- Generated by graphviz version 2.40.1 (20161225.0304)
 -->
<!-- Title: hashmap_entry Pages: 1 -->
<svg width="91pt" height="106pt"
 viewBox="0.00 0.00 91.00 106.00" xmlns="http://www.w3.org/2000/svg" xmlns:xlink="http://www.w3.org/1999/xlink">
<g id="graph0" class="graph" transform="scale(1 1) rotate(0) translate(4 102)">
<title>hashmap_entry</title>
<polygon fill="#ffffff" stroke="transparent" points="-4,4 -4,-102 87,-102 87,4 -4,4"/>
<!-- Node1 -->
<g id="node1" class="node">
<title>Node1</title>
<g id="a_node1"><a xlink:title=" ">
<polygon fill="#bfbfbf" stroke="#000000" points="0,-.5 0,-19.5 83,-19.5 83,-.5 0,-.5"/>
<text text-anchor="middle" x="41.5" y="-7.5" font-family="Helvetica,sans-Serif" font-size="10.00" fill="#000000">hashmap_entry</text>
</a>
</g>
</g>
<!-- Node2 -->
<g id="node2" class="node">
<title>Node2</title>
<g id="a_node2"><a xlink:href="structhelios__object.html" target="_top" xlink:title="Definition of the most basic helios object.">
<polygon fill="#ffffff" stroke="#000000" points="4.5,-78.5 4.5,-97.5 78.5,-97.5 78.5,-78.5 4.5,-78.5"/>
<text text-anchor="middle" x="41.5" y="-85.5" font-family="Helvetica,sans-Serif" font-size="10.00" fill="#000000">helios_object</text>
</a>
</g>
</g>
<!-- Node2&#45;&gt;Node1 -->
<g id="edge1" class="edge">
<title>Node2&#45;&gt;Node1</title>
<path fill="none" stroke="#9a32cd" stroke-dasharray="5,2" d="M41.5,-68.2866C41.5,-52.7395 41.5,-31.7276 41.5,-19.6426"/>
<polygon fill="#9a32cd" stroke="#9a32cd" points="38.0001,-68.4356 41.5,-78.4357 45.0001,-68.4357 38.0001,-68.4356"/>
<text text-anchor="middle" x="53.5" y="-52" font-family="Helvetica,sans-Serif" font-size="10.00" fill="#000000"> key</text>
<text text-anchor="middle" x="53.5" y="-41" font-family="Helvetica,sans-Serif" font-size="10.00" fill="#000000">value</text>
</g>
</g>
</svg>
