<?xml version="1.0" encoding="UTF-8" standalone="no"?>
<!DOCTYPE svg PUBLIC "-//W3C//DTD SVG 1.1//EN"
 "http://www.w3.org/Graphics/SVG/1.1/DTD/svg11.dtd">
<!-- Generated by graphviz version 2.40.1 (20161225.0304)
 -->
<!-- Title: AST Pages: 1 -->
<svg width="107pt" height="95pt"
 viewBox="0.00 0.00 106.50 95.00" xmlns="http://www.w3.org/2000/svg" xmlns:xlink="http://www.w3.org/1999/xlink">
<g id="graph0" class="graph" transform="scale(1 1) rotate(0) translate(4 91)">
<title>AST</title>
<polygon fill="#ffffff" stroke="transparent" points="-4,4 -4,-91 102.5,-91 102.5,4 -4,4"/>
<!-- Node1 -->
<g id="node1" class="node">
<title>Node1</title>
<g id="a_node1"><a xlink:title="This struct represents an AST node object, and recursively defines an AST.">
<polygon fill="#bfbfbf" stroke="#000000" points="7.5,-.5 7.5,-19.5 43.5,-19.5 43.5,-.5 7.5,-.5"/>
<text text-anchor="middle" x="25.5" y="-7.5" font-family="Helvetica,sans-Serif" font-size="10.00" fill="#000000">AST</text>
</a>
</g>
</g>
<!-- Node1&#45;&gt;Node1 -->
<g id="edge1" class="edge">
<title>Node1&#45;&gt;Node1</title>
<path fill="none" stroke="#9a32cd" stroke-dasharray="5,2" d="M53.7796,-15.5417C58.3581,-14.7418 61.5,-12.8945 61.5,-10 61.5,-5.25 53.0391,-3.3203 43.6527,-4.2109"/>
<polygon fill="#9a32cd" stroke="#9a32cd" points="53.5642,-12.0458 43.6527,-15.7891 53.7352,-19.0438 53.5642,-12.0458"/>
<text text-anchor="middle" x="80" y="-7.5" font-family="Helvetica,sans-Serif" font-size="10.00" fill="#000000"> children</text>
</g>
<!-- Node2 -->
<g id="node2" class="node">
<title>Node2</title>
<g id="a_node2"><a xlink:href="structToken__t.html" target="_top" xlink:title="This struct represents a token object.">
<polygon fill="#ffffff" stroke="#000000" points="0,-67.5 0,-86.5 51,-86.5 51,-67.5 0,-67.5"/>
<text text-anchor="middle" x="25.5" y="-74.5" font-family="Helvetica,sans-Serif" font-size="10.00" fill="#000000">Token_t</text>
</a>
</g>
</g>
<!-- Node2&#45;&gt;Node1 -->
<g id="edge2" class="edge">
<title>Node2&#45;&gt;Node1</title>
<path fill="none" stroke="#9a32cd" stroke-dasharray="5,2" d="M25.5,-57.1079C25.5,-44.714 25.5,-29.3263 25.5,-19.5817"/>
<polygon fill="#9a32cd" stroke="#9a32cd" points="22.0001,-57.4005 25.5,-67.4005 29.0001,-57.4006 22.0001,-57.4005"/>
<text text-anchor="middle" x="39" y="-41" font-family="Helvetica,sans-Serif" font-size="10.00" fill="#000000"> value</text>
</g>
</g>
</svg>
