<?xml version="1.0" encoding="UTF-8" standalone="no"?>
<!DOCTYPE svg PUBLIC "-//W3C//DTD SVG 1.1//EN"
 "http://www.w3.org/Graphics/SVG/1.1/DTD/svg11.dtd">
<!-- Generated by graphviz version 2.40.1 (20161225.0304)
 -->
<!-- Title: helios_hashmap Pages: 1 -->
<svg width="104pt" height="173pt"
 viewBox="0.00 0.00 104.00 173.00" xmlns="http://www.w3.org/2000/svg" xmlns:xlink="http://www.w3.org/1999/xlink">
<g id="graph0" class="graph" transform="scale(1 1) rotate(0) translate(4 169)">
<title>helios_hashmap</title>
<polygon fill="#ffffff" stroke="transparent" points="-4,4 -4,-169 100,-169 100,4 -4,4"/>
<!-- Node1 -->
<g id="node1" class="node">
<title>Node1</title>
<g id="a_node1"><a xlink:title=" ">
<polygon fill="#bfbfbf" stroke="#000000" points="0,-.5 0,-19.5 96,-19.5 96,-.5 0,-.5"/>
<text text-anchor="middle" x="48" y="-7.5" font-family="Helvetica,sans-Serif" font-size="10.00" fill="#000000">helios_hashmap</text>
</a>
</g>
</g>
<!-- Node2 -->
<g id="node2" class="node">
<title>Node2</title>
<g id="a_node2"><a xlink:href="structhashmap__entry.html" target="_top" xlink:title=" ">
<polygon fill="#ffffff" stroke="#000000" points="2,-67.5 2,-86.5 94,-86.5 94,-67.5 2,-67.5"/>
<text text-anchor="middle" x="48" y="-74.5" font-family="Helvetica,sans-Serif" font-size="10.00" fill="#000000">hashmap_entry</text>
</a>
</g>
</g>
<!-- Node2&#45;&gt;Node1 -->
<g id="edge1" class="edge">
<title>Node2&#45;&gt;Node1</title>
<path fill="none" stroke="#9a32cd" stroke-dasharray="5,2" d="M48,-57.1079C48,-44.714 48,-29.3263 48,-19.5817"/>
<polygon fill="#9a32cd" stroke="#9a32cd" points="44.5001,-57.4005 48,-67.4005 51.5001,-57.4006 44.5001,-57.4005"/>
<text text-anchor="middle" x="63.5" y="-41" font-family="Helvetica,sans-Serif" font-size="10.00" fill="#000000"> value</text>
</g>
<!-- Node3 -->
<g id="node3" class="node">
<title>Node3</title>
<g id="a_node3"><a xlink:href="structhelios__object.html" target="_top" xlink:title="Definition of the most basic helios object.">
<polygon fill="#ffffff" stroke="#000000" points="7.5,-145.5 7.5,-164.5 88.5,-164.5 88.5,-145.5 7.5,-145.5"/>
<text text-anchor="middle" x="48" y="-152.5" font-family="Helvetica,sans-Serif" font-size="10.00" fill="#000000">helios_object</text>
</a>
</g>
</g>
<!-- Node3&#45;&gt;Node2 -->
<g id="edge2" class="edge">
<title>Node3&#45;&gt;Node2</title>
<path fill="none" stroke="#9a32cd" stroke-dasharray="5,2" d="M48,-135.2866C48,-119.7395 48,-98.7276 48,-86.6426"/>
<polygon fill="#9a32cd" stroke="#9a32cd" points="44.5001,-135.4356 48,-145.4357 51.5001,-135.4357 44.5001,-135.4356"/>
<text text-anchor="middle" x="62" y="-119" font-family="Helvetica,sans-Serif" font-size="10.00" fill="#000000"> key</text>
<text text-anchor="middle" x="62" y="-108" font-family="Helvetica,sans-Serif" font-size="10.00" fill="#000000">value</text>
</g>
</g>
</svg>
