<?xml version="1.0" encoding="UTF-8" standalone="no"?>
<!DOCTYPE svg PUBLIC "-//W3C//DTD SVG 1.1//EN"
 "http://www.w3.org/Graphics/SVG/1.1/DTD/svg11.dtd">
<!-- Generated by graphviz version 2.40.1 (20161225.0304)
 -->
<!-- Title: helios_code Pages: 1 -->
<svg width="192pt" height="95pt"
 viewBox="0.00 0.00 192.00 95.00" xmlns="http://www.w3.org/2000/svg" xmlns:xlink="http://www.w3.org/1999/xlink">
<g id="graph0" class="graph" transform="scale(1 1) rotate(0) translate(4 91)">
<title>helios_code</title>
<polygon fill="#ffffff" stroke="transparent" points="-4,4 -4,-91 188,-91 188,4 -4,4"/>
<!-- Node1 -->
<g id="node1" class="node">
<title>Node1</title>
<g id="a_node1"><a xlink:title=" ">
<polygon fill="#bfbfbf" stroke="#000000" points="62,-.5 62,-19.5 130,-19.5 130,-.5 62,-.5"/>
<text text-anchor="middle" x="96" y="-7.5" font-family="Helvetica,sans-Serif" font-size="10.00" fill="#000000">helios_code</text>
</a>
</g>
</g>
<!-- Node2 -->
<g id="node2" class="node">
<title>Node2</title>
<g id="a_node2"><a xlink:href="structhelios__instruction.html" target="_top" xlink:title=" ">
<polygon fill="#ffffff" stroke="#000000" points="0,-67.5 0,-86.5 92,-86.5 92,-67.5 0,-67.5"/>
<text text-anchor="middle" x="46" y="-74.5" font-family="Helvetica,sans-Serif" font-size="10.00" fill="#000000">helios_instruction</text>
</a>
</g>
</g>
<!-- Node2&#45;&gt;Node1 -->
<g id="edge1" class="edge">
<title>Node2&#45;&gt;Node1</title>
<path fill="none" stroke="#9a32cd" stroke-dasharray="5,2" d="M57.021,-58.4932C61.1815,-51.8722 66.0983,-44.4553 71,-38 75.8868,-31.5643 81.905,-24.7938 86.812,-19.5229"/>
<polygon fill="#9a32cd" stroke="#9a32cd" points="53.7927,-57.0633 51.5567,-67.4196 59.7628,-60.7181 53.7927,-57.0633"/>
<text text-anchor="middle" x="98" y="-41" font-family="Helvetica,sans-Serif" font-size="10.00" fill="#000000"> instructions</text>
</g>
<!-- Node3 -->
<g id="node3" class="node">
<title>Node3</title>
<g id="a_node3"><a xlink:href="structhelios__object.html" target="_top" xlink:title="Definition of the most basic helios object.">
<polygon fill="#ffffff" stroke="#000000" points="110,-67.5 110,-86.5 184,-86.5 184,-67.5 110,-67.5"/>
<text text-anchor="middle" x="147" y="-74.5" font-family="Helvetica,sans-Serif" font-size="10.00" fill="#000000">helios_object</text>
</a>
</g>
</g>
<!-- Node3&#45;&gt;Node1 -->
<g id="edge2" class="edge">
<title>Node3&#45;&gt;Node1</title>
<path fill="none" stroke="#9a32cd" stroke-dasharray="5,2" d="M137.8301,-58.209C134.2216,-51.5597 129.7928,-44.1975 125,-38 119.8624,-31.3566 113.1692,-24.7891 107.5077,-19.686"/>
<polygon fill="#9a32cd" stroke="#9a32cd" points="134.7836,-59.9379 142.4771,-67.2223 141.0054,-56.7301 134.7836,-59.9379"/>
<text text-anchor="middle" x="154" y="-41" font-family="Helvetica,sans-Serif" font-size="10.00" fill="#000000"> constants</text>
</g>
</g>
</svg>
