<?xml version="1.0" encoding="UTF-8" standalone="no"?>
<!DOCTYPE svg PUBLIC "-//W3C//DTD SVG 1.1//EN"
 "http://www.w3.org/Graphics/SVG/1.1/DTD/svg11.dtd">
<!-- Generated by graphviz version 2.40.1 (20161225.0304)
 -->
<!-- Title: Parser_t Pages: 1 -->
<svg width="78pt" height="162pt"
 viewBox="0.00 0.00 78.00 162.00" xmlns="http://www.w3.org/2000/svg" xmlns:xlink="http://www.w3.org/1999/xlink">
<g id="graph0" class="graph" transform="scale(1 1) rotate(0) translate(4 158)">
<title>Parser_t</title>
<polygon fill="#ffffff" stroke="transparent" points="-4,4 -4,-158 74,-158 74,4 -4,4"/>
<!-- Node1 -->
<g id="node1" class="node">
<title>Node1</title>
<g id="a_node1"><a xlink:title="This struct represents the state of the parser.">
<polygon fill="#bfbfbf" stroke="#000000" points="8.5,-.5 8.5,-19.5 61.5,-19.5 61.5,-.5 8.5,-.5"/>
<text text-anchor="middle" x="35" y="-7.5" font-family="Helvetica,sans-Serif" font-size="10.00" fill="#000000">Parser_t</text>
</a>
</g>
</g>
<!-- Node2 -->
<g id="node2" class="node">
<title>Node2</title>
<g id="a_node2"><a xlink:href="structErrorstack__t.html" target="_top" xlink:title="This struct represents a stack of errors.">
<polygon fill="#ffffff" stroke="#000000" points="0,-67.5 0,-86.5 70,-86.5 70,-67.5 0,-67.5"/>
<text text-anchor="middle" x="35" y="-74.5" font-family="Helvetica,sans-Serif" font-size="10.00" fill="#000000">Errorstack_t</text>
</a>
</g>
</g>
<!-- Node2&#45;&gt;Node1 -->
<g id="edge1" class="edge">
<title>Node2&#45;&gt;Node1</title>
<path fill="none" stroke="#9a32cd" stroke-dasharray="5,2" d="M35,-57.1079C35,-44.714 35,-29.3263 35,-19.5817"/>
<polygon fill="#9a32cd" stroke="#9a32cd" points="31.5001,-57.4005 35,-67.4005 38.5001,-57.4006 31.5001,-57.4005"/>
<text text-anchor="middle" x="42" y="-41" font-family="Helvetica,sans-Serif" font-size="10.00" fill="#000000"> es</text>
</g>
<!-- Node3 -->
<g id="node3" class="node">
<title>Node3</title>
<g id="a_node3"><a xlink:href="structError__t.html" target="_top" xlink:title="This struct represents an error object.">
<polygon fill="#ffffff" stroke="#000000" points="12,-134.5 12,-153.5 58,-153.5 58,-134.5 12,-134.5"/>
<text text-anchor="middle" x="35" y="-141.5" font-family="Helvetica,sans-Serif" font-size="10.00" fill="#000000">Error_t</text>
</a>
</g>
</g>
<!-- Node3&#45;&gt;Node2 -->
<g id="edge2" class="edge">
<title>Node3&#45;&gt;Node2</title>
<path fill="none" stroke="#9a32cd" stroke-dasharray="5,2" d="M35,-124.1079C35,-111.714 35,-96.3263 35,-86.5817"/>
<polygon fill="#9a32cd" stroke="#9a32cd" points="31.5001,-124.4005 35,-134.4005 38.5001,-124.4006 31.5001,-124.4005"/>
<text text-anchor="middle" x="49" y="-108" font-family="Helvetica,sans-Serif" font-size="10.00" fill="#000000"> stack</text>
</g>
</g>
</svg>
