<?xml version="1.0" encoding="UTF-8" standalone="no"?>
<!DOCTYPE svg PUBLIC "-//W3C//DTD SVG 1.1//EN"
 "http://www.w3.org/Graphics/SVG/1.1/DTD/svg11.dtd">
<!-- Generated by graphviz version 2.40.1 (20161225.0304)
 -->
<!-- Title: Parser_t Pages: 1 -->
<svg width="84pt" height="162pt"
 viewBox="0.00 0.00 84.00 162.00" xmlns="http://www.w3.org/2000/svg" xmlns:xlink="http://www.w3.org/1999/xlink">
<g id="graph0" class="graph" transform="scale(1 1) rotate(0) translate(4 158)">
<title>Parser_t</title>
<polygon fill="#ffffff" stroke="transparent" points="-4,4 -4,-158 80,-158 80,4 -4,4"/>
<!-- Node1 -->
<g id="node1" class="node">
<title>Node1</title>
<g id="a_node1"><a xlink:title="This struct represents the state of the parser.">
<polygon fill="#bfbfbf" stroke="#000000" points="10,-.5 10,-19.5 66,-19.5 66,-.5 10,-.5"/>
<text text-anchor="middle" x="38" y="-7.5" font-family="Helvetica,sans-Serif" font-size="10.00" fill="#000000">Parser_t</text>
</a>
</g>
</g>
<!-- Node2 -->
<g id="node2" class="node">
<title>Node2</title>
<g id="a_node2"><a xlink:href="structerrorstack.html" target="_top" xlink:title="This struct represents a stack of errors.">
<polygon fill="#ffffff" stroke="#000000" points="5,-67.5 5,-86.5 71,-86.5 71,-67.5 5,-67.5"/>
<text text-anchor="middle" x="38" y="-74.5" font-family="Helvetica,sans-Serif" font-size="10.00" fill="#000000">errorstack</text>
</a>
</g>
</g>
<!-- Node2&#45;&gt;Node1 -->
<g id="edge1" class="edge">
<title>Node2&#45;&gt;Node1</title>
<path fill="none" stroke="#9a32cd" stroke-dasharray="5,2" d="M38,-57.1079C38,-44.714 38,-29.3263 38,-19.5817"/>
<polygon fill="#9a32cd" stroke="#9a32cd" points="34.5001,-57.4005 38,-67.4005 41.5001,-57.4006 34.5001,-57.4005"/>
<text text-anchor="middle" x="45.5" y="-41" font-family="Helvetica,sans-Serif" font-size="10.00" fill="#000000"> es</text>
</g>
<!-- Node3 -->
<g id="node3" class="node">
<title>Node3</title>
<g id="a_node3"><a xlink:href="structparser__error.html" target="_top" xlink:title="This struct represents an error object.">
<polygon fill="#ffffff" stroke="#000000" points="0,-134.5 0,-153.5 76,-153.5 76,-134.5 0,-134.5"/>
<text text-anchor="middle" x="38" y="-141.5" font-family="Helvetica,sans-Serif" font-size="10.00" fill="#000000">parser_error</text>
</a>
</g>
</g>
<!-- Node3&#45;&gt;Node2 -->
<g id="edge2" class="edge">
<title>Node3&#45;&gt;Node2</title>
<path fill="none" stroke="#9a32cd" stroke-dasharray="5,2" d="M38,-124.1079C38,-111.714 38,-96.3263 38,-86.5817"/>
<polygon fill="#9a32cd" stroke="#9a32cd" points="34.5001,-124.4005 38,-134.4005 41.5001,-124.4006 34.5001,-124.4005"/>
<text text-anchor="middle" x="53" y="-108" font-family="Helvetica,sans-Serif" font-size="10.00" fill="#000000"> stack</text>
</g>
</g>
</svg>
