<?xml version="1.0" encoding="UTF-8" standalone="no"?>
<!DOCTYPE svg PUBLIC "-//W3C//DTD SVG 1.1//EN"
 "http://www.w3.org/Graphics/SVG/1.1/DTD/svg11.dtd">
<!-- Generated by graphviz version 2.40.1 (20161225.0304)
 -->
<!-- Title: main Pages: 1 -->
<svg width="822pt" height="180pt"
 viewBox="0.00 0.00 822.00 180.00" xmlns="http://www.w3.org/2000/svg" xmlns:xlink="http://www.w3.org/1999/xlink">
<g id="graph0" class="graph" transform="scale(1 1) rotate(0) translate(4 176)">
<title>main</title>
<polygon fill="#ffffff" stroke="transparent" points="-4,4 -4,-176 818,-176 818,4 -4,4"/>
<!-- Node0 -->
<g id="node1" class="node">
<title>Node0</title>
<g id="a_node1"><a xlink:title=" ">
<polygon fill="#bfbfbf" stroke="#000000" points="0,-57.5 0,-76.5 38,-76.5 38,-57.5 0,-57.5"/>
<text text-anchor="middle" x="19" y="-64.5" font-family="Helvetica,sans-Serif" font-size="10.00" fill="#000000">main</text>
</a>
</g>
</g>
<!-- Node1 -->
<g id="node2" class="node">
<title>Node1</title>
<g id="a_node2"><a xlink:href="test_8h.html#a9cd4bd5df18dd2b80ee2012218d6f13c" target="_top" xlink:title=" ">
<polygon fill="#ffffff" stroke="#000000" points="87,-76.5 87,-95.5 141,-95.5 141,-76.5 87,-76.5"/>
<text text-anchor="middle" x="114" y="-83.5" font-family="Helvetica,sans-Serif" font-size="10.00" fill="#000000">testmain</text>
</a>
</g>
</g>
<!-- Node0&#45;&gt;Node1 -->
<g id="edge1" class="edge">
<title>Node0&#45;&gt;Node1</title>
<path fill="none" stroke="#191970" d="M38.2247,-70.8449C49.3714,-73.0743 63.7844,-75.9569 77.0432,-78.6086"/>
<polygon fill="#191970" stroke="#191970" points="76.3919,-82.0476 86.8841,-80.5768 77.7647,-75.1835 76.3919,-82.0476"/>
</g>
<!-- Node11 -->
<g id="node12" class="node">
<title>Node11</title>
<g id="a_node12"><a xlink:href="test_8h.html#a5108d72634456bbfcee2d7a844270740" target="_top" xlink:title=" ">
<polygon fill="#ffffff" stroke="#000000" points="74,-38.5 74,-57.5 154,-57.5 154,-38.5 74,-38.5"/>
<text text-anchor="middle" x="114" y="-45.5" font-family="Helvetica,sans-Serif" font-size="10.00" fill="#000000">__RUN_MAIN</text>
</a>
</g>
</g>
<!-- Node0&#45;&gt;Node11 -->
<g id="edge11" class="edge">
<title>Node0&#45;&gt;Node11</title>
<path fill="none" stroke="#191970" d="M38.2247,-63.1551C45.71,-61.658 54.6684,-59.8663 63.761,-58.0478"/>
<polygon fill="#191970" stroke="#191970" points="64.4974,-61.4699 73.6167,-56.0767 63.1245,-54.6059 64.4974,-61.4699"/>
</g>
<!-- Node2 -->
<g id="node3" class="node">
<title>Node2</title>
<g id="a_node3"><a xlink:href="helios__memory_8c.html#aaabde550780f37dc19f59b3e8bc9c514" target="_top" xlink:title="Creates a new garbagecollector object.">
<polygon fill="#ffffff" stroke="#000000" points="196.5,-152.5 196.5,-171.5 333.5,-171.5 333.5,-152.5 196.5,-152.5"/>
<text text-anchor="middle" x="265" y="-159.5" font-family="Helvetica,sans-Serif" font-size="10.00" fill="#000000">helios_init_garbagecollector</text>
</a>
</g>
</g>
<!-- Node1&#45;&gt;Node2 -->
<g id="edge2" class="edge">
<title>Node1&#45;&gt;Node2</title>
<path fill="none" stroke="#191970" d="M123.9539,-95.5533C137.7089,-108.2359 163.8093,-130.4836 190,-143 194.9992,-145.3891 200.3347,-147.5016 205.7682,-149.3646"/>
<polygon fill="#191970" stroke="#191970" points="205.0136,-152.7961 215.6029,-152.4544 207.1117,-146.1179 205.0136,-152.7961"/>
</g>
<!-- Node3 -->
<g id="node4" class="node">
<title>Node3</title>
<g id="a_node4"><a xlink:href="helios__memory_8c.html#a0352d829134eb27df2d9e088062e987d" target="_top" xlink:title="Points the global garbagecollector pointer to a new garbagecollector.">
<polygon fill="#ffffff" stroke="#000000" points="196.5,-114.5 196.5,-133.5 333.5,-133.5 333.5,-114.5 196.5,-114.5"/>
<text text-anchor="middle" x="265" y="-121.5" font-family="Helvetica,sans-Serif" font-size="10.00" fill="#000000">helios_set_garbagecollector</text>
</a>
</g>
</g>
<!-- Node1&#45;&gt;Node3 -->
<g id="edge3" class="edge">
<title>Node1&#45;&gt;Node3</title>
<path fill="none" stroke="#191970" d="M141.345,-92.8815C162.4095,-98.1825 192.0571,-105.6435 217.0416,-111.931"/>
<polygon fill="#191970" stroke="#191970" points="216.5166,-115.4079 227.0684,-114.4543 218.225,-108.6196 216.5166,-115.4079"/>
</g>
<!-- Node4 -->
<g id="node5" class="node">
<title>Node4</title>
<g id="a_node5"><a xlink:href="helios__integer_8c.html#a64070d52d78c6e1bba2bcadd6a55b002" target="_top" xlink:title="Create a helios_integer object from a c integer type.">
<polygon fill="#ffffff" stroke="#000000" points="204,-76.5 204,-95.5 326,-95.5 326,-76.5 204,-76.5"/>
<text text-anchor="middle" x="265" y="-83.5" font-family="Helvetica,sans-Serif" font-size="10.00" fill="#000000">helios_integer_from_cint</text>
</a>
</g>
</g>
<!-- Node1&#45;&gt;Node4 -->
<g id="edge4" class="edge">
<title>Node1&#45;&gt;Node4</title>
<path fill="none" stroke="#191970" d="M141.345,-86C156.0453,-86 174.9258,-86 193.4844,-86"/>
<polygon fill="#191970" stroke="#191970" points="193.7331,-89.5001 203.733,-86 193.733,-82.5001 193.7331,-89.5001"/>
</g>
<!-- Node8 -->
<g id="node9" class="node">
<title>Node8</title>
<g id="a_node9"><a xlink:href="helios__string_8c.html#a9d2005b1762ff6459a22a115549a08f5" target="_top" xlink:title="Create a cstring from a helios_string object.">
<polygon fill="#ffffff" stroke="#000000" points="208,-38.5 208,-57.5 322,-57.5 322,-38.5 208,-38.5"/>
<text text-anchor="middle" x="265" y="-45.5" font-family="Helvetica,sans-Serif" font-size="10.00" fill="#000000">helios_string_to_charp</text>
</a>
</g>
</g>
<!-- Node1&#45;&gt;Node8 -->
<g id="edge8" class="edge">
<title>Node1&#45;&gt;Node8</title>
<path fill="none" stroke="#191970" d="M141.345,-79.1185C162.4095,-73.8175 192.0571,-66.3565 217.0416,-60.069"/>
<polygon fill="#191970" stroke="#191970" points="218.225,-63.3804 227.0684,-57.5457 216.5166,-56.5921 218.225,-63.3804"/>
</g>
<!-- Node9 -->
<g id="node10" class="node">
<title>Node9</title>
<g id="a_node10"><a xlink:href="helios__memory_8c.html#a0ba47c8ed7e1be60f1c360e33a0aff15" target="_top" xlink:title="Free a garbagecollector object.">
<polygon fill="#ffffff" stroke="#000000" points="190,-.5 190,-19.5 340,-19.5 340,-.5 190,-.5"/>
<text text-anchor="middle" x="265" y="-7.5" font-family="Helvetica,sans-Serif" font-size="10.00" fill="#000000">helios_delete_garbagecollector</text>
</a>
</g>
</g>
<!-- Node1&#45;&gt;Node9 -->
<g id="edge9" class="edge">
<title>Node1&#45;&gt;Node9</title>
<path fill="none" stroke="#191970" d="M138.0843,-76.3262C143.5382,-73.6629 149.1472,-70.5229 154,-67 172.8266,-53.3327 169.9304,-40.7663 190,-29 193.7153,-26.8218 197.6763,-24.8912 201.7634,-23.1804"/>
<polygon fill="#191970" stroke="#191970" points="203.3167,-26.3371 211.4721,-19.574 200.8792,-19.7752 203.3167,-26.3371"/>
</g>
<!-- Node5 -->
<g id="node6" class="node">
<title>Node5</title>
<g id="a_node6"><a xlink:href="helios__integer_8c.html#a50a26b1e9578164839f3a5bb17e04051" target="_top" xlink:title="Constructor of a helios_integer object.">
<polygon fill="#ffffff" stroke="#000000" points="386.5,-76.5 386.5,-95.5 481.5,-95.5 481.5,-76.5 386.5,-76.5"/>
<text text-anchor="middle" x="434" y="-83.5" font-family="Helvetica,sans-Serif" font-size="10.00" fill="#000000">helios_integer_init</text>
</a>
</g>
</g>
<!-- Node4&#45;&gt;Node5 -->
<g id="edge5" class="edge">
<title>Node4&#45;&gt;Node5</title>
<path fill="none" stroke="#191970" d="M326.0129,-86C342.3001,-86 359.8518,-86 375.9735,-86"/>
<polygon fill="#191970" stroke="#191970" points="376.3336,-89.5001 386.3336,-86 376.3335,-82.5001 376.3336,-89.5001"/>
</g>
<!-- Node6 -->
<g id="node7" class="node">
<title>Node6</title>
<g id="a_node7"><a xlink:href="helios__memory_8c.html#aab8866fd2abd9389795ad1639991caa4" target="_top" xlink:title="Allocates a new helios object (and performs all the GC steps associated with that action).">
<polygon fill="#ffffff" stroke="#000000" points="528,-76.5 528,-95.5 641,-95.5 641,-76.5 528,-76.5"/>
<text text-anchor="middle" x="584.5" y="-83.5" font-family="Helvetica,sans-Serif" font-size="10.00" fill="#000000">helios_allocate_object</text>
</a>
</g>
</g>
<!-- Node5&#45;&gt;Node6 -->
<g id="edge6" class="edge">
<title>Node5&#45;&gt;Node6</title>
<path fill="none" stroke="#191970" d="M481.6191,-86C493.1238,-86 505.6291,-86 517.8296,-86"/>
<polygon fill="#191970" stroke="#191970" points="517.9776,-89.5001 527.9776,-86 517.9776,-82.5001 517.9776,-89.5001"/>
</g>
<!-- Node7 -->
<g id="node8" class="node">
<title>Node7</title>
<g id="a_node8"><a xlink:href="helios__memory_8c.html#a27b2da5d6954fd6e7aa0d2f352336c25" target="_top" xlink:title="Get the global current garbage collector.">
<polygon fill="#ffffff" stroke="#000000" points="677,-76.5 677,-95.5 814,-95.5 814,-76.5 677,-76.5"/>
<text text-anchor="middle" x="745.5" y="-83.5" font-family="Helvetica,sans-Serif" font-size="10.00" fill="#000000">helios_get_garbagecollector</text>
</a>
</g>
</g>
<!-- Node6&#45;&gt;Node7 -->
<g id="edge7" class="edge">
<title>Node6&#45;&gt;Node7</title>
<path fill="none" stroke="#191970" d="M641.2626,-86C649.5265,-86 658.157,-86 666.7607,-86"/>
<polygon fill="#191970" stroke="#191970" points="666.8248,-89.5001 676.8248,-86 666.8247,-82.5001 666.8248,-89.5001"/>
</g>
<!-- Node10 -->
<g id="node11" class="node">
<title>Node10</title>
<g id="a_node11"><a xlink:href="helios__memory_8c.html#a5dcd65b50eabfe133b9fcf6206b2bd1e" target="_top" xlink:title="Frees all tracked objects of a garbagecollector without freeing the GC itself.">
<polygon fill="#ffffff" stroke="#000000" points="376,-.5 376,-19.5 492,-19.5 492,-.5 376,-.5"/>
<text text-anchor="middle" x="434" y="-7.5" font-family="Helvetica,sans-Serif" font-size="10.00" fill="#000000">helios_free_all_tracked</text>
</a>
</g>
</g>
<!-- Node9&#45;&gt;Node10 -->
<g id="edge10" class="edge">
<title>Node9&#45;&gt;Node10</title>
<path fill="none" stroke="#191970" d="M340.11,-10C348.6336,-10 357.2862,-10 365.7151,-10"/>
<polygon fill="#191970" stroke="#191970" points="365.862,-13.5001 375.862,-10 365.8619,-6.5001 365.862,-13.5001"/>
</g>
</g>
</svg>
