<?xml version="1.0" encoding="UTF-8" standalone="no"?>
<!DOCTYPE svg PUBLIC "-//W3C//DTD SVG 1.1//EN"
 "http://www.w3.org/Graphics/SVG/1.1/DTD/svg11.dtd">
<!-- Generated by graphviz version 2.40.1 (20161225.0304)
 -->
<!-- Title: main Pages: 1 -->
<svg width="683pt" height="142pt"
 viewBox="0.00 0.00 683.00 142.00" xmlns="http://www.w3.org/2000/svg" xmlns:xlink="http://www.w3.org/1999/xlink">
<g id="graph0" class="graph" transform="scale(1 1) rotate(0) translate(4 138)">
<title>main</title>
<polygon fill="#ffffff" stroke="transparent" points="-4,4 -4,-138 679,-138 679,4 -4,4"/>
<!-- Node0 -->
<g id="node1" class="node">
<title>Node0</title>
<g id="a_node1"><a xlink:title=" ">
<polygon fill="#bfbfbf" stroke="#000000" points="0,-38.5 0,-57.5 38,-57.5 38,-38.5 0,-38.5"/>
<text text-anchor="middle" x="19" y="-45.5" font-family="Helvetica,sans-Serif" font-size="10.00" fill="#000000">main</text>
</a>
</g>
</g>
<!-- Node1 -->
<g id="node2" class="node">
<title>Node1</title>
<g id="a_node2"><a xlink:href="test_8h.html#a9cd4bd5df18dd2b80ee2012218d6f13c" target="_top" xlink:title=" ">
<polygon fill="#ffffff" stroke="#000000" points="87,-57.5 87,-76.5 141,-76.5 141,-57.5 87,-57.5"/>
<text text-anchor="middle" x="114" y="-64.5" font-family="Helvetica,sans-Serif" font-size="10.00" fill="#000000">testmain</text>
</a>
</g>
</g>
<!-- Node0&#45;&gt;Node1 -->
<g id="edge1" class="edge">
<title>Node0&#45;&gt;Node1</title>
<path fill="none" stroke="#191970" d="M38.2247,-51.8449C49.3714,-54.0743 63.7844,-56.9569 77.0432,-59.6086"/>
<polygon fill="#191970" stroke="#191970" points="76.3919,-63.0476 86.8841,-61.5768 77.7647,-56.1835 76.3919,-63.0476"/>
</g>
<!-- Node10 -->
<g id="node11" class="node">
<title>Node10</title>
<g id="a_node11"><a xlink:href="test_8h.html#a5108d72634456bbfcee2d7a844270740" target="_top" xlink:title=" ">
<polygon fill="#ffffff" stroke="#000000" points="74,-19.5 74,-38.5 154,-38.5 154,-19.5 74,-19.5"/>
<text text-anchor="middle" x="114" y="-26.5" font-family="Helvetica,sans-Serif" font-size="10.00" fill="#000000">__RUN_MAIN</text>
</a>
</g>
</g>
<!-- Node0&#45;&gt;Node10 -->
<g id="edge10" class="edge">
<title>Node0&#45;&gt;Node10</title>
<path fill="none" stroke="#191970" d="M38.2247,-44.1551C45.71,-42.658 54.6684,-40.8663 63.761,-39.0478"/>
<polygon fill="#191970" stroke="#191970" points="64.4974,-42.4699 73.6167,-37.0767 63.1245,-35.6059 64.4974,-42.4699"/>
</g>
<!-- Node2 -->
<g id="node3" class="node">
<title>Node2</title>
<g id="a_node3"><a xlink:href="helios__memory_8h.html#aaabde550780f37dc19f59b3e8bc9c514" target="_top" xlink:title="Creates a new garbagecollector object.">
<polygon fill="#ffffff" stroke="#000000" points="196.5,-114.5 196.5,-133.5 333.5,-133.5 333.5,-114.5 196.5,-114.5"/>
<text text-anchor="middle" x="265" y="-121.5" font-family="Helvetica,sans-Serif" font-size="10.00" fill="#000000">helios_init_garbagecollector</text>
</a>
</g>
</g>
<!-- Node1&#45;&gt;Node2 -->
<g id="edge2" class="edge">
<title>Node1&#45;&gt;Node2</title>
<path fill="none" stroke="#191970" d="M130.4395,-76.5209C145.5284,-84.9412 168.7057,-97.0847 190,-105 196.5136,-107.4212 203.4575,-109.6397 210.3918,-111.6386"/>
<polygon fill="#191970" stroke="#191970" points="209.9237,-115.1394 220.4933,-114.4082 211.7747,-108.3885 209.9237,-115.1394"/>
</g>
<!-- Node3 -->
<g id="node4" class="node">
<title>Node3</title>
<g id="a_node4"><a xlink:href="helios__memory_8h.html#a0352d829134eb27df2d9e088062e987d" target="_top" xlink:title="Points the global garbagecollector pointer to a new garbagecollector.">
<polygon fill="#ffffff" stroke="#000000" points="196.5,-76.5 196.5,-95.5 333.5,-95.5 333.5,-76.5 196.5,-76.5"/>
<text text-anchor="middle" x="265" y="-83.5" font-family="Helvetica,sans-Serif" font-size="10.00" fill="#000000">helios_set_garbagecollector</text>
</a>
</g>
</g>
<!-- Node1&#45;&gt;Node3 -->
<g id="edge3" class="edge">
<title>Node1&#45;&gt;Node3</title>
<path fill="none" stroke="#191970" d="M141.345,-70.4408C154.1543,-72.0525 170.1376,-74.0637 186.3161,-76.0994"/>
<polygon fill="#191970" stroke="#191970" points="186.0294,-79.5908 196.3882,-77.3667 186.9034,-72.6456 186.0294,-79.5908"/>
</g>
<!-- Node4 -->
<g id="node5" class="node">
<title>Node4</title>
<g id="a_node5"><a xlink:href="helios__integer_8c.html#a64070d52d78c6e1bba2bcadd6a55b002" target="_top" xlink:title="Create a helios_integer object from a c integer type.">
<polygon fill="#ffffff" stroke="#000000" points="204,-38.5 204,-57.5 326,-57.5 326,-38.5 204,-38.5"/>
<text text-anchor="middle" x="265" y="-45.5" font-family="Helvetica,sans-Serif" font-size="10.00" fill="#000000">helios_integer_from_cint</text>
</a>
</g>
</g>
<!-- Node1&#45;&gt;Node4 -->
<g id="edge4" class="edge">
<title>Node1&#45;&gt;Node4</title>
<path fill="none" stroke="#191970" d="M141.345,-63.5592C156.1134,-61.701 175.1007,-59.3118 193.7422,-56.9662"/>
<polygon fill="#191970" stroke="#191970" points="194.2483,-60.4302 203.733,-55.7091 193.3743,-53.485 194.2483,-60.4302"/>
</g>
<!-- Node8 -->
<g id="node9" class="node">
<title>Node8</title>
<g id="a_node9"><a xlink:href="helios__memory_8h.html#a0ba47c8ed7e1be60f1c360e33a0aff15" target="_top" xlink:title="Free a garbagecollector object.">
<polygon fill="#ffffff" stroke="#000000" points="190,-.5 190,-19.5 340,-19.5 340,-.5 190,-.5"/>
<text text-anchor="middle" x="265" y="-7.5" font-family="Helvetica,sans-Serif" font-size="10.00" fill="#000000">helios_delete_garbagecollector</text>
</a>
</g>
</g>
<!-- Node1&#45;&gt;Node8 -->
<g id="edge8" class="edge">
<title>Node1&#45;&gt;Node8</title>
<path fill="none" stroke="#191970" d="M134.4296,-57.4992C140.732,-54.5138 147.6765,-51.1688 154,-48 170.1745,-39.8948 173.1122,-35.4894 190,-29 196.4024,-26.5398 203.2346,-24.3051 210.0705,-22.3038"/>
<polygon fill="#191970" stroke="#191970" points="211.3376,-25.5846 220.0387,-19.5397 209.4671,-18.8392 211.3376,-25.5846"/>
</g>
<!-- Node5 -->
<g id="node6" class="node">
<title>Node5</title>
<g id="a_node6"><a xlink:href="helios__integer_8c.html#a50a26b1e9578164839f3a5bb17e04051" target="_top" xlink:title="Constructor of a helios_integer object.">
<polygon fill="#ffffff" stroke="#000000" points="386.5,-38.5 386.5,-57.5 481.5,-57.5 481.5,-38.5 386.5,-38.5"/>
<text text-anchor="middle" x="434" y="-45.5" font-family="Helvetica,sans-Serif" font-size="10.00" fill="#000000">helios_integer_init</text>
</a>
</g>
</g>
<!-- Node4&#45;&gt;Node5 -->
<g id="edge5" class="edge">
<title>Node4&#45;&gt;Node5</title>
<path fill="none" stroke="#191970" d="M326.0129,-48C342.3001,-48 359.8518,-48 375.9735,-48"/>
<polygon fill="#191970" stroke="#191970" points="376.3336,-51.5001 386.3336,-48 376.3335,-44.5001 376.3336,-51.5001"/>
</g>
<!-- Node6 -->
<g id="node7" class="node">
<title>Node6</title>
<g id="a_node7"><a xlink:href="helios__memory_8h.html#af87f0050f8e236d0945592fa4e54dc94" target="_top" xlink:title="Allocates a new helios object (and performs all the GC steps associated with that action).">
<polygon fill="#ffffff" stroke="#000000" points="545,-57.5 545,-76.5 658,-76.5 658,-57.5 545,-57.5"/>
<text text-anchor="middle" x="601.5" y="-64.5" font-family="Helvetica,sans-Serif" font-size="10.00" fill="#000000">helios_allocate_object</text>
</a>
</g>
</g>
<!-- Node5&#45;&gt;Node6 -->
<g id="edge6" class="edge">
<title>Node5&#45;&gt;Node6</title>
<path fill="none" stroke="#191970" d="M481.5507,-53.3938C498.0444,-55.2647 516.8576,-57.3988 534.6154,-59.4131"/>
<polygon fill="#191970" stroke="#191970" points="534.5927,-62.9329 544.9235,-60.5824 535.3818,-55.9775 534.5927,-62.9329"/>
</g>
<!-- Node7 -->
<g id="node8" class="node">
<title>Node7</title>
<g id="a_node8"><a xlink:href="helios__memory_8h.html#ab14fb1c046aae61ab06eda8eeaf2cd85" target="_top" xlink:title=" ">
<polygon fill="#ffffff" stroke="#000000" points="528,-19.5 528,-38.5 675,-38.5 675,-19.5 528,-19.5"/>
<text text-anchor="middle" x="601.5" y="-26.5" font-family="Helvetica,sans-Serif" font-size="10.00" fill="#000000">helios_set_garbagecollectable</text>
</a>
</g>
</g>
<!-- Node5&#45;&gt;Node7 -->
<g id="edge7" class="edge">
<title>Node5&#45;&gt;Node7</title>
<path fill="none" stroke="#191970" d="M481.5507,-42.6062C492.9221,-41.3163 505.3959,-39.9014 517.8663,-38.4868"/>
<polygon fill="#191970" stroke="#191970" points="518.3037,-41.9597 527.8454,-37.3548 517.5147,-35.0043 518.3037,-41.9597"/>
</g>
<!-- Node9 -->
<g id="node10" class="node">
<title>Node9</title>
<g id="a_node10"><a xlink:href="refcount_8c.html#a5dcd65b50eabfe133b9fcf6206b2bd1e" target="_top" xlink:title="Frees all tracked objects of a garbagecollector without freeing the GC itself.">
<polygon fill="#ffffff" stroke="#000000" points="376,-.5 376,-19.5 492,-19.5 492,-.5 376,-.5"/>
<text text-anchor="middle" x="434" y="-7.5" font-family="Helvetica,sans-Serif" font-size="10.00" fill="#000000">helios_free_all_tracked</text>
</a>
</g>
</g>
<!-- Node8&#45;&gt;Node9 -->
<g id="edge9" class="edge">
<title>Node8&#45;&gt;Node9</title>
<path fill="none" stroke="#191970" d="M340.11,-10C348.6336,-10 357.2862,-10 365.7151,-10"/>
<polygon fill="#191970" stroke="#191970" points="365.862,-13.5001 375.862,-10 365.8619,-6.5001 365.862,-13.5001"/>
</g>
</g>
</svg>
