<?xml version="1.0" encoding="UTF-8" standalone="no"?>
<!DOCTYPE svg PUBLIC "-//W3C//DTD SVG 1.1//EN"
 "http://www.w3.org/Graphics/SVG/1.1/DTD/svg11.dtd">
<!-- Generated by graphviz version 2.40.1 (20161225.0304)
 -->
<!-- Title: parser/include/token.h Pages: 1 -->
<svg width="942pt" height="207pt"
 viewBox="0.00 0.00 941.82 207.00" xmlns="http://www.w3.org/2000/svg" xmlns:xlink="http://www.w3.org/1999/xlink">
<g id="graph0" class="graph" transform="scale(1 1) rotate(0) translate(4 203)">
<title>parser/include/token.h</title>
<polygon fill="#ffffff" stroke="transparent" points="-4,4 -4,-203 937.8218,-203 937.8218,4 -4,4"/>
<!-- Node3 -->
<g id="node1" class="node">
<title>Node3</title>
<g id="a_node1"><a xlink:title=" ">
<polygon fill="#bfbfbf" stroke="#000000" points="617.8218,-179.5 617.8218,-198.5 730.8218,-198.5 730.8218,-179.5 617.8218,-179.5"/>
<text text-anchor="middle" x="674.3218" y="-186.5" font-family="Helvetica,sans-Serif" font-size="10.00" fill="#000000">parser/include/token.h</text>
</a>
</g>
</g>
<!-- Node4 -->
<g id="node2" class="node">
<title>Node4</title>
<g id="a_node2"><a xlink:href="generator_8c.html" target="_top" xlink:title=" ">
<polygon fill="#ffffff" stroke="#000000" points="16.3218,-67.5 16.3218,-86.5 124.3218,-86.5 124.3218,-67.5 16.3218,-67.5"/>
<text text-anchor="middle" x="70.3218" y="-74.5" font-family="Helvetica,sans-Serif" font-size="10.00" fill="#000000">generator/generator.c</text>
</a>
</g>
</g>
<!-- Node3&#45;&gt;Node4 -->
<g id="edge1" class="edge">
<title>Node3&#45;&gt;Node4</title>
<path fill="none" stroke="#191970" d="M607.4238,-180.5754C544.2797,-172.2763 447.0602,-158.6016 363.3218,-143 271.3092,-125.8568 164.2788,-100.3059 108.5279,-86.5661"/>
<polygon fill="#191970" stroke="#191970" points="607.2753,-184.0857 617.6445,-181.9109 608.1823,-177.1447 607.2753,-184.0857"/>
</g>
<!-- Node5 -->
<g id="node3" class="node">
<title>Node5</title>
<g id="a_node3"><a xlink:href="AST_8c.html" target="_top" xlink:title=" ">
<polygon fill="#ffffff" stroke="#000000" points="115.3218,-6 115.3218,-25 189.3218,-25 189.3218,-6 115.3218,-6"/>
<text text-anchor="middle" x="152.3218" y="-13" font-family="Helvetica,sans-Serif" font-size="10.00" fill="#000000">parser/AST.c</text>
</a>
</g>
</g>
<!-- Node3&#45;&gt;Node5 -->
<g id="edge2" class="edge">
<title>Node3&#45;&gt;Node5</title>
<path fill="none" stroke="#191970" d="M607.3336,-183.8272C445.6834,-170.6473 44.7445,-133.5328 7.3218,-87 -24.6921,-47.1928 62.1014,-27.848 114.9539,-19.9906"/>
<polygon fill="#191970" stroke="#191970" points="607.379,-187.3422 617.6288,-184.6605 607.9438,-180.365 607.379,-187.3422"/>
</g>
<!-- Node6 -->
<g id="node4" class="node">
<title>Node6</title>
<g id="a_node4"><a xlink:href="AST_8h.html" target="_top" xlink:title=" ">
<polygon fill="#ffffff" stroke="#000000" points="372.8218,-123.5 372.8218,-142.5 479.8218,-142.5 479.8218,-123.5 372.8218,-123.5"/>
<text text-anchor="middle" x="426.3218" y="-130.5" font-family="Helvetica,sans-Serif" font-size="10.00" fill="#000000">parser/include/AST.h</text>
</a>
</g>
</g>
<!-- Node3&#45;&gt;Node6 -->
<g id="edge3" class="edge">
<title>Node3&#45;&gt;Node6</title>
<path fill="none" stroke="#191970" d="M621.9651,-177.1775C576.2914,-166.8641 510.8782,-152.0934 468.498,-142.5237"/>
<polygon fill="#191970" stroke="#191970" points="621.4455,-180.6482 631.9708,-179.4369 622.9874,-173.8202 621.4455,-180.6482"/>
</g>
<!-- Node10 -->
<g id="node8" class="node">
<title>Node10</title>
<g id="a_node8"><a xlink:href="expressions_8c.html" target="_top" xlink:title=" ">
<polygon fill="#ffffff" stroke="#000000" points="433.3218,-.5 433.3218,-30.5 531.3218,-30.5 531.3218,-.5 433.3218,-.5"/>
<text text-anchor="start" x="441.3218" y="-18.5" font-family="Helvetica,sans-Serif" font-size="10.00" fill="#000000">parser/parserfuncs</text>
<text text-anchor="middle" x="482.3218" y="-7.5" font-family="Helvetica,sans-Serif" font-size="10.00" fill="#000000">/expressions.c</text>
</a>
</g>
</g>
<!-- Node3&#45;&gt;Node10 -->
<g id="edge22" class="edge">
<title>Node3&#45;&gt;Node10</title>
<path fill="none" stroke="#191970" d="M663.3129,-170.6135C647.2094,-144.8975 615.1161,-97.8812 578.3218,-67 560.5026,-52.0445 537.6449,-39.5715 518.7039,-30.6479"/>
<polygon fill="#191970" stroke="#191970" points="660.462,-172.6594 668.6783,-179.3484 666.4266,-168.9956 660.462,-172.6594"/>
</g>
<!-- Node11 -->
<g id="node9" class="node">
<title>Node11</title>
<g id="a_node9"><a xlink:href="floats_8c.html" target="_top" xlink:title=" ">
<polygon fill="#ffffff" stroke="#000000" points="781.3218,-.5 781.3218,-30.5 879.3218,-30.5 879.3218,-.5 781.3218,-.5"/>
<text text-anchor="start" x="789.3218" y="-18.5" font-family="Helvetica,sans-Serif" font-size="10.00" fill="#000000">parser/parserfuncs</text>
<text text-anchor="middle" x="830.3218" y="-7.5" font-family="Helvetica,sans-Serif" font-size="10.00" fill="#000000">/floats.c</text>
</a>
</g>
</g>
<!-- Node3&#45;&gt;Node11 -->
<g id="edge23" class="edge">
<title>Node3&#45;&gt;Node11</title>
<path fill="none" stroke="#191970" d="M700.866,-174.254C714.1921,-166.0894 730.0636,-155.144 742.3218,-143 778.0519,-107.6027 808.538,-55.8866 822.3762,-30.5799"/>
<polygon fill="#191970" stroke="#191970" points="698.9362,-171.3293 692.1227,-179.4427 702.5086,-177.3491 698.9362,-171.3293"/>
</g>
<!-- Node12 -->
<g id="node10" class="node">
<title>Node12</title>
<g id="a_node10"><a xlink:href="integers_8c.html" target="_top" xlink:title=" ">
<polygon fill="#ffffff" stroke="#000000" points="549.3218,-.5 549.3218,-30.5 647.3218,-30.5 647.3218,-.5 549.3218,-.5"/>
<text text-anchor="start" x="557.3218" y="-18.5" font-family="Helvetica,sans-Serif" font-size="10.00" fill="#000000">parser/parserfuncs</text>
<text text-anchor="middle" x="598.3218" y="-7.5" font-family="Helvetica,sans-Serif" font-size="10.00" fill="#000000">/integers.c</text>
</a>
</g>
</g>
<!-- Node3&#45;&gt;Node12 -->
<g id="edge24" class="edge">
<title>Node3&#45;&gt;Node12</title>
<path fill="none" stroke="#191970" d="M673.9456,-169.0334C672.7026,-143.8365 667.9269,-99.8293 650.3218,-67 642.6356,-52.6672 629.6356,-39.7922 618.5572,-30.5004"/>
<polygon fill="#191970" stroke="#191970" points="670.453,-169.3079 674.3015,-179.179 677.4487,-169.0624 670.453,-169.3079"/>
</g>
<!-- Node13 -->
<g id="node11" class="node">
<title>Node13</title>
<g id="a_node11"><a xlink:href="parser_8c.html" target="_top" xlink:title=" ">
<polygon fill="#ffffff" stroke="#000000" points="665.3218,-.5 665.3218,-30.5 763.3218,-30.5 763.3218,-.5 665.3218,-.5"/>
<text text-anchor="start" x="673.3218" y="-18.5" font-family="Helvetica,sans-Serif" font-size="10.00" fill="#000000">parser/parserfuncs</text>
<text text-anchor="middle" x="714.3218" y="-7.5" font-family="Helvetica,sans-Serif" font-size="10.00" fill="#000000">/parser.c</text>
</a>
</g>
</g>
<!-- Node3&#45;&gt;Node13 -->
<g id="edge25" class="edge">
<title>Node3&#45;&gt;Node13</title>
<path fill="none" stroke="#191970" d="M699.7712,-173.4967C710.0355,-165.7437 720.7521,-155.3631 726.3218,-143 743.2164,-105.4984 729.4262,-55.6137 720.4775,-30.828"/>
<polygon fill="#191970" stroke="#191970" points="697.56,-170.7723 691.3785,-179.377 701.5767,-176.5052 697.56,-170.7723"/>
</g>
<!-- Node15 -->
<g id="node13" class="node">
<title>Node15</title>
<g id="a_node13"><a xlink:href="token_8c.html" target="_top" xlink:title=" ">
<polygon fill="#ffffff" stroke="#000000" points="854.8218,-123.5 854.8218,-142.5 933.8218,-142.5 933.8218,-123.5 854.8218,-123.5"/>
<text text-anchor="middle" x="894.3218" y="-130.5" font-family="Helvetica,sans-Serif" font-size="10.00" fill="#000000">parser/token.c</text>
</a>
</g>
</g>
<!-- Node3&#45;&gt;Node15 -->
<g id="edge26" class="edge">
<title>Node3&#45;&gt;Node15</title>
<path fill="none" stroke="#191970" d="M722.0495,-176.8511C762.533,-166.5462 819.7978,-151.9697 856.9959,-142.5011"/>
<polygon fill="#191970" stroke="#191970" points="720.9687,-173.5145 712.1411,-179.3733 722.6955,-180.2982 720.9687,-173.5145"/>
</g>
<!-- Node6&#45;&gt;Node4 -->
<g id="edge4" class="edge">
<title>Node6&#45;&gt;Node4</title>
<path fill="none" stroke="#191970" d="M362.4982,-122.9603C294.6079,-112.281 188.376,-95.5703 124.4412,-85.5132"/>
<polygon fill="#191970" stroke="#191970" points="362.2171,-126.4591 372.6395,-124.5556 363.3049,-119.5441 362.2171,-126.4591"/>
</g>
<!-- Node6&#45;&gt;Node5 -->
<g id="edge8" class="edge">
<title>Node6&#45;&gt;Node5</title>
<path fill="none" stroke="#191970" d="M362.6622,-125.3867C305.7151,-117.6166 227.3344,-104.2602 201.3218,-87 177.9989,-71.5245 162.7003,-40.7925 156.0777,-25.143"/>
<polygon fill="#191970" stroke="#191970" points="362.2962,-128.8688 372.6719,-126.7254 363.2242,-121.9306 362.2962,-128.8688"/>
</g>
<!-- Node7 -->
<g id="node5" class="node">
<title>Node7</title>
<g id="a_node5"><a xlink:href="generator_8h.html" target="_top" xlink:title=" ">
<polygon fill="#ffffff" stroke="#000000" points="218.3218,-67.5 218.3218,-86.5 360.3218,-86.5 360.3218,-67.5 218.3218,-67.5"/>
<text text-anchor="middle" x="289.3218" y="-74.5" font-family="Helvetica,sans-Serif" font-size="10.00" fill="#000000">generator/include/generator.h</text>
</a>
</g>
</g>
<!-- Node6&#45;&gt;Node7 -->
<g id="edge5" class="edge">
<title>Node6&#45;&gt;Node7</title>
<path fill="none" stroke="#191970" d="M393.3412,-119.5189C368.3906,-109.3201 334.7484,-95.5685 312.5656,-86.5011"/>
<polygon fill="#191970" stroke="#191970" points="392.1898,-122.8293 402.7706,-123.3733 394.8384,-116.3497 392.1898,-122.8293"/>
</g>
<!-- Node8 -->
<g id="node6" class="node">
<title>Node8</title>
<g id="a_node6"><a xlink:href="main_8c.html" target="_top" xlink:title=" ">
<polygon fill="#ffffff" stroke="#000000" points="231.3218,-6 231.3218,-25 301.3218,-25 301.3218,-6 231.3218,-6"/>
<text text-anchor="middle" x="266.3218" y="-13" font-family="Helvetica,sans-Serif" font-size="10.00" fill="#000000">main/main.c</text>
</a>
</g>
</g>
<!-- Node6&#45;&gt;Node8 -->
<g id="edge7" class="edge">
<title>Node6&#45;&gt;Node8</title>
<path fill="none" stroke="#191970" d="M362.6779,-128.2286C305.7264,-122.4788 228.3616,-110.499 209.3218,-87 191.4328,-64.9214 226.4281,-38.7615 249.0984,-25.0221"/>
<polygon fill="#191970" stroke="#191970" points="362.4078,-131.7187 372.6984,-129.198 363.0819,-124.7512 362.4078,-131.7187"/>
</g>
<!-- Node9 -->
<g id="node7" class="node">
<title>Node9</title>
<g id="a_node7"><a xlink:href="parser_8h.html" target="_top" xlink:title=" ">
<polygon fill="#ffffff" stroke="#000000" points="454.8218,-67.5 454.8218,-86.5 569.8218,-86.5 569.8218,-67.5 454.8218,-67.5"/>
<text text-anchor="middle" x="512.3218" y="-74.5" font-family="Helvetica,sans-Serif" font-size="10.00" fill="#000000">parser/include/parser.h</text>
</a>
</g>
</g>
<!-- Node6&#45;&gt;Node9 -->
<g id="edge9" class="edge">
<title>Node6&#45;&gt;Node9</title>
<path fill="none" stroke="#191970" d="M449.7123,-117.769C464.9517,-107.8456 484.3727,-95.1994 497.5134,-86.6427"/>
<polygon fill="#191970" stroke="#191970" points="447.772,-114.8558 441.3018,-123.2455 451.5917,-120.7218 447.772,-114.8558"/>
</g>
<!-- Node6&#45;&gt;Node10 -->
<g id="edge17" class="edge">
<title>Node6&#45;&gt;Node10</title>
<path fill="none" stroke="#191970" d="M430.1664,-113.1491C433.216,-99.6964 438.1661,-81.7511 445.3218,-67 451.6644,-53.9249 461.3033,-40.6413 469.153,-30.8404"/>
<polygon fill="#191970" stroke="#191970" points="426.6807,-112.7175 428.0452,-123.224 433.5305,-114.1597 426.6807,-112.7175"/>
</g>
<!-- Node6&#45;&gt;Node11 -->
<g id="edge18" class="edge">
<title>Node6&#45;&gt;Node11</title>
<path fill="none" stroke="#191970" d="M486.7534,-121.4963C527.8474,-113.1728 583.2701,-100.965 631.3218,-87 688.4306,-70.4028 752.951,-46.1791 792.6333,-30.6276"/>
<polygon fill="#191970" stroke="#191970" points="486.0089,-118.0759 476.8929,-123.4748 487.386,-124.9391 486.0089,-118.0759"/>
</g>
<!-- Node6&#45;&gt;Node12 -->
<g id="edge19" class="edge">
<title>Node6&#45;&gt;Node12</title>
<path fill="none" stroke="#191970" d="M485.6664,-121.1898C522.4385,-112.7394 565.0986,-100.5055 578.3218,-87 593.1107,-71.8954 597.1593,-46.7999 598.1593,-30.7133"/>
<polygon fill="#191970" stroke="#191970" points="484.4737,-117.8701 475.4803,-123.4708 486.0034,-124.701 484.4737,-117.8701"/>
</g>
<!-- Node6&#45;&gt;Node13 -->
<g id="edge20" class="edge">
<title>Node6&#45;&gt;Node13</title>
<path fill="none" stroke="#191970" d="M487.4191,-121.2142C520.956,-113.6268 562.8198,-102.2975 598.3218,-87 633.9525,-71.647 671.5378,-46.6214 693.9505,-30.6171"/>
<polygon fill="#191970" stroke="#191970" points="486.3051,-117.8757 477.2946,-123.449 487.814,-124.7112 486.3051,-117.8757"/>
</g>
<!-- Node14 -->
<g id="node12" class="node">
<title>Node14</title>
<g id="a_node12"><a xlink:href="parserutil_8c.html" target="_top" xlink:title=" ">
<polygon fill="#ffffff" stroke="#000000" points="319.8218,-6 319.8218,-25 414.8218,-25 414.8218,-6 319.8218,-6"/>
<text text-anchor="middle" x="367.3218" y="-13" font-family="Helvetica,sans-Serif" font-size="10.00" fill="#000000">parser/parserutil.c</text>
</a>
</g>
</g>
<!-- Node6&#45;&gt;Node14 -->
<g id="edge21" class="edge">
<title>Node6&#45;&gt;Node14</title>
<path fill="none" stroke="#191970" d="M416.9954,-114.4263C404.3009,-89.1449 382.0404,-44.8124 372.2167,-25.2484"/>
<polygon fill="#191970" stroke="#191970" points="413.8783,-116.0184 421.4936,-123.3845 420.134,-112.8772 413.8783,-116.0184"/>
</g>
<!-- Node7&#45;&gt;Node8 -->
<g id="edge6" class="edge">
<title>Node7&#45;&gt;Node8</title>
<path fill="none" stroke="#191970" d="M282.1857,-57.9189C278.136,-47.0901 273.2384,-33.9944 269.9662,-25.2449"/>
<polygon fill="#191970" stroke="#191970" points="278.9468,-59.2502 285.728,-67.3906 285.5033,-56.7982 278.9468,-59.2502"/>
</g>
<!-- Node9&#45;&gt;Node5 -->
<g id="edge11" class="edge">
<title>Node9&#45;&gt;Node5</title>
<path fill="none" stroke="#191970" d="M444.7177,-67.4611C385.8152,-58.8676 298.1894,-45.403 222.3218,-31 211.6828,-28.9803 200.1904,-26.5431 189.6534,-24.2056"/>
<polygon fill="#191970" stroke="#191970" points="444.2449,-70.929 454.6442,-68.9028 445.2511,-64.0017 444.2449,-70.929"/>
</g>
<!-- Node9&#45;&gt;Node8 -->
<g id="edge10" class="edge">
<title>Node9&#45;&gt;Node8</title>
<path fill="none" stroke="#191970" d="M453.3684,-65.4395C412.8361,-57.0375 357.9436,-44.761 310.3218,-31 304.2528,-29.2463 297.7975,-27.1223 291.7545,-25.0165"/>
<polygon fill="#191970" stroke="#191970" points="452.8509,-68.9062 463.3507,-67.4907 454.2599,-62.0495 452.8509,-68.9062"/>
</g>
<!-- Node9&#45;&gt;Node10 -->
<g id="edge12" class="edge">
<title>Node9&#45;&gt;Node10</title>
<path fill="none" stroke="#191970" d="M503.1673,-58.2334C498.8358,-49.3537 493.7332,-38.8934 489.6606,-30.5446"/>
<polygon fill="#191970" stroke="#191970" points="500.1043,-59.9374 507.6343,-67.3906 506.3957,-56.8684 500.1043,-59.9374"/>
</g>
<!-- Node9&#45;&gt;Node11 -->
<g id="edge13" class="edge">
<title>Node9&#45;&gt;Node11</title>
<path fill="none" stroke="#191970" d="M579.8169,-66.693C632.4852,-58.2566 707.3637,-45.398 772.3218,-31 775.171,-30.3685 778.0908,-29.6896 781.0317,-28.9815"/>
<polygon fill="#191970" stroke="#191970" points="579.2445,-63.2399 569.919,-68.2683 580.3448,-70.1529 579.2445,-63.2399"/>
</g>
<!-- Node9&#45;&gt;Node12 -->
<g id="edge14" class="edge">
<title>Node9&#45;&gt;Node12</title>
<path fill="none" stroke="#191970" d="M534.2597,-61.3119C547.4802,-51.8577 564.2281,-39.8809 577.2838,-30.5446"/>
<polygon fill="#191970" stroke="#191970" points="531.8575,-58.7268 525.7593,-67.3906 535.9293,-64.4207 531.8575,-58.7268"/>
</g>
<!-- Node9&#45;&gt;Node13 -->
<g id="edge15" class="edge">
<title>Node9&#45;&gt;Node13</title>
<path fill="none" stroke="#191970" d="M553.4925,-64.4654C585.8634,-54.6099 631.0553,-40.8509 665.2943,-30.4267"/>
<polygon fill="#191970" stroke="#191970" points="552.4313,-61.1297 543.8843,-67.3906 554.4702,-67.8263 552.4313,-61.1297"/>
</g>
<!-- Node9&#45;&gt;Node14 -->
<g id="edge16" class="edge">
<title>Node9&#45;&gt;Node14</title>
<path fill="none" stroke="#191970" d="M480.1219,-63.3428C452.7042,-51.7139 414.0168,-35.3051 389.8189,-25.0419"/>
<polygon fill="#191970" stroke="#191970" points="479.0927,-66.708 489.6655,-67.3906 481.826,-60.2637 479.0927,-66.708"/>
</g>
</g>
</svg>
