<?xml version="1.0" encoding="UTF-8" standalone="no"?>
<!DOCTYPE svg PUBLIC "-//W3C//DTD SVG 1.1//EN"
 "http://www.w3.org/Graphics/SVG/1.1/DTD/svg11.dtd">
<!-- Generated by graphviz version 2.40.1 (20161225.0304)
 -->
<!-- Title: parser/include/token.h Pages: 1 -->
<svg width="925pt" height="218pt"
 viewBox="0.00 0.00 924.50 218.00" xmlns="http://www.w3.org/2000/svg" xmlns:xlink="http://www.w3.org/1999/xlink">
<g id="graph0" class="graph" transform="scale(1 1) rotate(0) translate(4 214)">
<title>parser/include/token.h</title>
<polygon fill="#ffffff" stroke="transparent" points="-4,4 -4,-214 920.5,-214 920.5,4 -4,4"/>
<!-- Node16 -->
<g id="node1" class="node">
<title>Node16</title>
<g id="a_node1"><a xlink:title=" ">
<polygon fill="#bfbfbf" stroke="#000000" points="638.5,-190.5 638.5,-209.5 751.5,-209.5 751.5,-190.5 638.5,-190.5"/>
<text text-anchor="middle" x="695" y="-197.5" font-family="Helvetica,sans-Serif" font-size="10.00" fill="#000000">parser/include/token.h</text>
</a>
</g>
</g>
<!-- Node17 -->
<g id="node2" class="node">
<title>Node17</title>
<g id="a_node2"><a xlink:href="AST_8c.html" target="_top" xlink:title=" ">
<polygon fill="#ffffff" stroke="#000000" points="0,-6 0,-25 74,-25 74,-6 0,-6"/>
<text text-anchor="middle" x="37" y="-13" font-family="Helvetica,sans-Serif" font-size="10.00" fill="#000000">parser/AST.c</text>
</a>
</g>
</g>
<!-- Node16&#45;&gt;Node17 -->
<g id="edge1" class="edge">
<title>Node16&#45;&gt;Node17</title>
<path fill="none" stroke="#191970" d="M627.9228,-196.9623C519.1118,-191.4117 309.2225,-177.9407 239,-154 155.2876,-125.4603 74.2563,-51.866 46.8126,-25.2714"/>
<polygon fill="#191970" stroke="#191970" points="627.9663,-200.4689 638.1293,-197.4749 628.3174,-193.4777 627.9663,-200.4689"/>
</g>
<!-- Node18 -->
<g id="node3" class="node">
<title>Node18</title>
<g id="a_node3"><a xlink:href="AST_8h.html" target="_top" xlink:title=" ">
<polygon fill="#ffffff" stroke="#000000" points="361.5,-134.5 361.5,-153.5 468.5,-153.5 468.5,-134.5 361.5,-134.5"/>
<text text-anchor="middle" x="415" y="-141.5" font-family="Helvetica,sans-Serif" font-size="10.00" fill="#000000">parser/include/AST.h</text>
</a>
</g>
</g>
<!-- Node16&#45;&gt;Node18 -->
<g id="edge2" class="edge">
<title>Node16&#45;&gt;Node18</title>
<path fill="none" stroke="#191970" d="M637.1829,-188.4366C585.5636,-178.1127 510.869,-163.1738 462.6184,-153.5237"/>
<polygon fill="#191970" stroke="#191970" points="636.6922,-191.9077 647.1844,-190.4369 638.0651,-185.0436 636.6922,-191.9077"/>
</g>
<!-- Node23 -->
<g id="node8" class="node">
<title>Node23</title>
<g id="a_node8"><a xlink:href="expressions_8c.html" target="_top" xlink:title=" ">
<polygon fill="#ffffff" stroke="#000000" points="92,-.5 92,-30.5 190,-30.5 190,-.5 92,-.5"/>
<text text-anchor="start" x="100" y="-18.5" font-family="Helvetica,sans-Serif" font-size="10.00" fill="#000000">parser/parserfuncs</text>
<text text-anchor="middle" x="141" y="-7.5" font-family="Helvetica,sans-Serif" font-size="10.00" fill="#000000">/expressions.c</text>
</a>
</g>
</g>
<!-- Node16&#45;&gt;Node23 -->
<g id="edge20" class="edge">
<title>Node16&#45;&gt;Node23</title>
<path fill="none" stroke="#191970" d="M627.8011,-195.761C501.5701,-186.4201 235.8682,-159.7824 171,-98 152.1285,-80.0262 145.0827,-49.2543 142.4843,-30.8013"/>
<polygon fill="#191970" stroke="#191970" points="627.882,-199.2759 638.1089,-196.5081 628.3881,-192.2942 627.882,-199.2759"/>
</g>
<!-- Node24 -->
<g id="node9" class="node">
<title>Node24</title>
<g id="a_node9"><a xlink:href="floats_8c.html" target="_top" xlink:title=" ">
<polygon fill="#ffffff" stroke="#000000" points="452,-.5 452,-30.5 550,-30.5 550,-.5 452,-.5"/>
<text text-anchor="start" x="460" y="-18.5" font-family="Helvetica,sans-Serif" font-size="10.00" fill="#000000">parser/parserfuncs</text>
<text text-anchor="middle" x="501" y="-7.5" font-family="Helvetica,sans-Serif" font-size="10.00" fill="#000000">/floats.c</text>
</a>
</g>
</g>
<!-- Node16&#45;&gt;Node24 -->
<g id="edge21" class="edge">
<title>Node16&#45;&gt;Node24</title>
<path fill="none" stroke="#191970" d="M691.5646,-180.0995C685.6056,-151.3582 670.7077,-98.258 638,-67 614.0273,-44.0899 578.8946,-31.1545 550.2094,-23.9777"/>
<polygon fill="#191970" stroke="#191970" points="688.1704,-180.9845 693.486,-190.1494 695.0459,-179.67 688.1704,-180.9845"/>
</g>
<!-- Node25 -->
<g id="node10" class="node">
<title>Node25</title>
<g id="a_node10"><a xlink:href="integers_8c.html" target="_top" xlink:title=" ">
<polygon fill="#ffffff" stroke="#000000" points="588,-.5 588,-30.5 686,-30.5 686,-.5 588,-.5"/>
<text text-anchor="start" x="596" y="-18.5" font-family="Helvetica,sans-Serif" font-size="10.00" fill="#000000">parser/parserfuncs</text>
<text text-anchor="middle" x="637" y="-7.5" font-family="Helvetica,sans-Serif" font-size="10.00" fill="#000000">/integers.c</text>
</a>
</g>
</g>
<!-- Node16&#45;&gt;Node25 -->
<g id="edge22" class="edge">
<title>Node16&#45;&gt;Node25</title>
<path fill="none" stroke="#191970" d="M703.3131,-180.8682C713.6957,-153.881 727.9336,-103.8213 709,-67 700.8477,-51.1457 685.3002,-39.0853 670.7333,-30.6358"/>
<polygon fill="#191970" stroke="#191970" points="699.9979,-179.7291 699.4688,-190.3107 706.4812,-182.3686 699.9979,-179.7291"/>
</g>
<!-- Node26 -->
<g id="node11" class="node">
<title>Node26</title>
<g id="a_node11"><a xlink:href="parser_8c.html" target="_top" xlink:title=" ">
<polygon fill="#ffffff" stroke="#000000" points="704,-.5 704,-30.5 802,-30.5 802,-.5 704,-.5"/>
<text text-anchor="start" x="712" y="-18.5" font-family="Helvetica,sans-Serif" font-size="10.00" fill="#000000">parser/parserfuncs</text>
<text text-anchor="middle" x="753" y="-7.5" font-family="Helvetica,sans-Serif" font-size="10.00" fill="#000000">/parser.c</text>
</a>
</g>
</g>
<!-- Node16&#45;&gt;Node26 -->
<g id="edge23" class="edge">
<title>Node16&#45;&gt;Node26</title>
<path fill="none" stroke="#191970" d="M710.5682,-182.2507C716.9018,-174.1416 723.7232,-164.1032 728,-154 745.9068,-111.6986 750.9957,-56.8334 752.4357,-30.6709"/>
<polygon fill="#191970" stroke="#191970" points="707.6764,-180.2569 704.0303,-190.2046 713.0841,-184.7018 707.6764,-180.2569"/>
</g>
<!-- Node28 -->
<g id="node13" class="node">
<title>Node28</title>
<g id="a_node13"><a xlink:href="token_8c.html" target="_top" xlink:title=" ">
<polygon fill="#ffffff" stroke="#000000" points="837.5,-134.5 837.5,-153.5 916.5,-153.5 916.5,-134.5 837.5,-134.5"/>
<text text-anchor="middle" x="877" y="-141.5" font-family="Helvetica,sans-Serif" font-size="10.00" fill="#000000">parser/token.c</text>
</a>
</g>
</g>
<!-- Node16&#45;&gt;Node28 -->
<g id="edge24" class="edge">
<title>Node16&#45;&gt;Node28</title>
<path fill="none" stroke="#191970" d="M736.1986,-187.3235C769.5758,-177.0536 815.8699,-162.8093 846.1214,-153.5011"/>
<polygon fill="#191970" stroke="#191970" points="734.8154,-184.0871 726.2869,-190.3733 736.874,-190.7776 734.8154,-184.0871"/>
</g>
<!-- Node18&#45;&gt;Node17 -->
<g id="edge6" class="edge">
<title>Node18&#45;&gt;Node17</title>
<path fill="none" stroke="#191970" d="M351.0207,-138.3897C300.7529,-132.466 229.6761,-120.6976 171,-98 122.334,-79.1746 71.6949,-42.5161 49.1172,-25.1141"/>
<polygon fill="#191970" stroke="#191970" points="350.7724,-141.8839 361.103,-139.5324 351.5608,-134.9284 350.7724,-141.8839"/>
</g>
<!-- Node19 -->
<g id="node4" class="node">
<title>Node19</title>
<g id="a_node4"><a xlink:href="helios__code_8c.html" target="_top" xlink:title=" ">
<polygon fill="#ffffff" stroke="#000000" points="239,-67.5 239,-97.5 339,-97.5 339,-67.5 239,-67.5"/>
<text text-anchor="start" x="247" y="-85.5" font-family="Helvetica,sans-Serif" font-size="10.00" fill="#000000">builtins/code/helios</text>
<text text-anchor="middle" x="289" y="-74.5" font-family="Helvetica,sans-Serif" font-size="10.00" fill="#000000">_code.c</text>
</a>
</g>
</g>
<!-- Node18&#45;&gt;Node19 -->
<g id="edge3" class="edge">
<title>Node18&#45;&gt;Node19</title>
<path fill="none" stroke="#191970" d="M386.1572,-129.922C366.3381,-120.2484 340.0547,-107.4196 319.8231,-97.5446"/>
<polygon fill="#191970" stroke="#191970" points="384.7906,-133.1496 395.3125,-134.3906 387.8611,-126.8589 384.7906,-133.1496"/>
</g>
<!-- Node20 -->
<g id="node5" class="node">
<title>Node20</title>
<g id="a_node5"><a xlink:href="helios__instruction_8c.html" target="_top" xlink:title=" ">
<polygon fill="#ffffff" stroke="#000000" points="529,-67.5 529,-97.5 629,-97.5 629,-67.5 529,-67.5"/>
<text text-anchor="start" x="537" y="-85.5" font-family="Helvetica,sans-Serif" font-size="10.00" fill="#000000">builtins/code/helios</text>
<text text-anchor="middle" x="579" y="-74.5" font-family="Helvetica,sans-Serif" font-size="10.00" fill="#000000">_instruction.c</text>
</a>
</g>
</g>
<!-- Node18&#45;&gt;Node20 -->
<g id="edge4" class="edge">
<title>Node18&#45;&gt;Node20</title>
<path fill="none" stroke="#191970" d="M450.1051,-130.8356C476.1527,-121.0678 511.71,-107.7338 538.8811,-97.5446"/>
<polygon fill="#191970" stroke="#191970" points="448.7593,-127.6022 440.625,-134.3906 451.2173,-134.1565 448.7593,-127.6022"/>
</g>
<!-- Node21 -->
<g id="node6" class="node">
<title>Node21</title>
<g id="a_node6"><a xlink:href="main_8c.html" target="_top" xlink:title=" ">
<polygon fill="#ffffff" stroke="#000000" points="214,-6 214,-25 284,-25 284,-6 214,-6"/>
<text text-anchor="middle" x="249" y="-13" font-family="Helvetica,sans-Serif" font-size="10.00" fill="#000000">main/main.c</text>
</a>
</g>
</g>
<!-- Node18&#45;&gt;Node21 -->
<g id="edge5" class="edge">
<title>Node18&#45;&gt;Node21</title>
<path fill="none" stroke="#191970" d="M351.3385,-137.5622C300.5824,-130.9597 235.3833,-118.6735 219,-98 201.2043,-75.5443 225.7253,-41.5776 240.0076,-25.1172"/>
<polygon fill="#191970" stroke="#191970" points="350.9208,-141.0372 361.2784,-138.8077 351.7912,-134.0915 350.9208,-141.0372"/>
</g>
<!-- Node22 -->
<g id="node7" class="node">
<title>Node22</title>
<g id="a_node7"><a xlink:href="parser_8h.html" target="_top" xlink:title=" ">
<polygon fill="#ffffff" stroke="#000000" points="357.5,-73 357.5,-92 472.5,-92 472.5,-73 357.5,-73"/>
<text text-anchor="middle" x="415" y="-80" font-family="Helvetica,sans-Serif" font-size="10.00" fill="#000000">parser/include/parser.h</text>
</a>
</g>
</g>
<!-- Node18&#45;&gt;Node22 -->
<g id="edge7" class="edge">
<title>Node18&#45;&gt;Node22</title>
<path fill="none" stroke="#191970" d="M415,-124.2462C415,-113.5519 415,-100.814 415,-92.2449"/>
<polygon fill="#191970" stroke="#191970" points="411.5001,-124.3906 415,-134.3906 418.5001,-124.3907 411.5001,-124.3906"/>
</g>
<!-- Node18&#45;&gt;Node23 -->
<g id="edge15" class="edge">
<title>Node18&#45;&gt;Node23</title>
<path fill="none" stroke="#191970" d="M351.2988,-134.4269C299.9564,-125.8667 232.5685,-112.4686 209,-98 181.6343,-81.2004 160.2008,-49.4304 149.1791,-30.5955"/>
<polygon fill="#191970" stroke="#191970" points="350.9009,-137.9084 361.3356,-136.0734 352.034,-131.0007 350.9009,-137.9084"/>
</g>
<!-- Node18&#45;&gt;Node24 -->
<g id="edge16" class="edge">
<title>Node18&#45;&gt;Node24</title>
<path fill="none" stroke="#191970" d="M445.0047,-129.4251C457.8732,-121.7499 471.9891,-111.172 481,-98 494.9797,-77.5647 499.2243,-48.421 500.4906,-30.7993"/>
<polygon fill="#191970" stroke="#191970" points="442.9618,-126.5576 435.9457,-134.4965 446.3812,-132.6656 442.9618,-126.5576"/>
</g>
<!-- Node18&#45;&gt;Node25 -->
<g id="edge17" class="edge">
<title>Node18&#45;&gt;Node25</title>
<path fill="none" stroke="#191970" d="M478.8079,-139.6322C537.459,-134.1309 618.2136,-122.2845 638,-98 653.3813,-79.1221 647.8933,-48.9356 642.4702,-30.7846"/>
<polygon fill="#191970" stroke="#191970" points="478.1481,-136.1772 468.5005,-140.5558 478.773,-143.1493 478.1481,-136.1772"/>
</g>
<!-- Node18&#45;&gt;Node26 -->
<g id="edge18" class="edge">
<title>Node18&#45;&gt;Node26</title>
<path fill="none" stroke="#191970" d="M478.8428,-135.6697C539.6137,-127.0607 626.223,-112.8244 657,-98 691.2514,-81.5021 723.0512,-49.626 740.071,-30.6906"/>
<polygon fill="#191970" stroke="#191970" points="477.9898,-132.2549 468.571,-137.1064 478.9594,-139.1874 477.9898,-132.2549"/>
</g>
<!-- Node27 -->
<g id="node12" class="node">
<title>Node27</title>
<g id="a_node12"><a xlink:href="parserutil_8c.html" target="_top" xlink:title=" ">
<polygon fill="#ffffff" stroke="#000000" points="326.5,-6 326.5,-25 421.5,-25 421.5,-6 326.5,-6"/>
<text text-anchor="middle" x="374" y="-13" font-family="Helvetica,sans-Serif" font-size="10.00" fill="#000000">parser/parserutil.c</text>
</a>
</g>
</g>
<!-- Node18&#45;&gt;Node27 -->
<g id="edge19" class="edge">
<title>Node18&#45;&gt;Node27</title>
<path fill="none" stroke="#191970" d="M351.1325,-136.5121C303.7908,-129.4937 244.9866,-117.1694 230,-98 199.7433,-59.2987 273.6645,-35.5537 326.4166,-24.0097"/>
<polygon fill="#191970" stroke="#191970" points="350.6459,-139.978 361.0409,-137.9297 351.6374,-133.0486 350.6459,-139.978"/>
</g>
<!-- Node22&#45;&gt;Node17 -->
<g id="edge9" class="edge">
<title>Node22&#45;&gt;Node17</title>
<path fill="none" stroke="#191970" d="M366.7468,-70.7776C360.4586,-69.4146 354.0884,-68.1153 348,-67 231.086,-45.5823 198.7292,-58.0991 83,-31 76.2716,-29.4245 69.134,-27.268 62.5396,-25.0643"/>
<polygon fill="#191970" stroke="#191970" points="365.9864,-74.1939 376.5085,-72.9546 367.5101,-67.3618 365.9864,-74.1939"/>
</g>
<!-- Node22&#45;&gt;Node21 -->
<g id="edge8" class="edge">
<title>Node22&#45;&gt;Node21</title>
<path fill="none" stroke="#191970" d="M381.7519,-69.0806C349.4845,-56.057 301.3176,-36.6162 272.7396,-25.0817"/>
<polygon fill="#191970" stroke="#191970" points="380.6331,-72.4033 391.2162,-72.9005 383.2531,-65.9121 380.6331,-72.4033"/>
</g>
<!-- Node22&#45;&gt;Node23 -->
<g id="edge10" class="edge">
<title>Node22&#45;&gt;Node23</title>
<path fill="none" stroke="#191970" d="M366.1588,-70.5571C316.4411,-58.3998 239.7967,-39.6583 190.016,-27.4857"/>
<polygon fill="#191970" stroke="#191970" points="365.4883,-73.9962 376.0335,-72.9717 367.151,-67.1965 365.4883,-73.9962"/>
</g>
<!-- Node22&#45;&gt;Node24 -->
<g id="edge11" class="edge">
<title>Node22&#45;&gt;Node24</title>
<path fill="none" stroke="#191970" d="M435.3942,-66.6115C449.4225,-55.6825 467.9359,-41.2592 481.7183,-30.5218"/>
<polygon fill="#191970" stroke="#191970" points="433.0593,-63.9937 427.3217,-72.9005 437.3613,-69.5158 433.0593,-63.9937"/>
</g>
<!-- Node22&#45;&gt;Node25 -->
<g id="edge12" class="edge">
<title>Node22&#45;&gt;Node25</title>
<path fill="none" stroke="#191970" d="M456.8067,-69.8827C493.9734,-58.6657 548.3559,-42.253 587.647,-30.3948"/>
<polygon fill="#191970" stroke="#191970" points="455.3694,-66.6604 446.8072,-72.9005 457.392,-73.3619 455.3694,-66.6604"/>
</g>
<!-- Node22&#45;&gt;Node26 -->
<g id="edge13" class="edge">
<title>Node22&#45;&gt;Node26</title>
<path fill="none" stroke="#191970" d="M482.6045,-71.6104C539.5057,-62.0759 622.9021,-47.2374 695,-31 697.8471,-30.3588 700.7652,-29.6724 703.7048,-28.9585"/>
<polygon fill="#191970" stroke="#191970" points="481.9384,-68.173 472.65,-73.2696 483.0894,-75.0778 481.9384,-68.173"/>
</g>
<!-- Node22&#45;&gt;Node27 -->
<g id="edge14" class="edge">
<title>Node22&#45;&gt;Node27</title>
<path fill="none" stroke="#191970" d="M403.7464,-64.1099C396.0173,-51.4795 386.0699,-35.2241 379.8634,-25.0817"/>
<polygon fill="#191970" stroke="#191970" points="400.9206,-66.1977 409.1257,-72.9005 406.8914,-62.544 400.9206,-66.1977"/>
</g>
</g>
</svg>
