<?xml version="1.0" encoding="UTF-8" standalone="no"?>
<!DOCTYPE svg PUBLIC "-//W3C//DTD SVG 1.1//EN"
 "http://www.w3.org/Graphics/SVG/1.1/DTD/svg11.dtd">
<!-- Generated by graphviz version 2.40.1 (20161225.0304)
 -->
<!-- Title: parser/include/token.h Pages: 1 -->
<svg width="955pt" height="218pt"
 viewBox="0.00 0.00 954.50 218.00" xmlns="http://www.w3.org/2000/svg" xmlns:xlink="http://www.w3.org/1999/xlink">
<g id="graph0" class="graph" transform="scale(1 1) rotate(0) translate(4 214)">
<title>parser/include/token.h</title>
<polygon fill="#ffffff" stroke="transparent" points="-4,4 -4,-214 950.5,-214 950.5,4 -4,4"/>
<!-- Node16 -->
<g id="node1" class="node">
<title>Node16</title>
<g id="a_node1"><a xlink:title=" ">
<polygon fill="#bfbfbf" stroke="#000000" points="568.5,-190.5 568.5,-209.5 681.5,-209.5 681.5,-190.5 568.5,-190.5"/>
<text text-anchor="middle" x="625" y="-197.5" font-family="Helvetica,sans-Serif" font-size="10.00" fill="#000000">parser/include/token.h</text>
</a>
</g>
</g>
<!-- Node17 -->
<g id="node2" class="node">
<title>Node17</title>
<g id="a_node2"><a xlink:href="AST_8c.html" target="_top" xlink:title=" ">
<polygon fill="#ffffff" stroke="#000000" points="0,-6 0,-25 74,-25 74,-6 0,-6"/>
<text text-anchor="middle" x="37" y="-13" font-family="Helvetica,sans-Serif" font-size="10.00" fill="#000000">parser/AST.c</text>
</a>
</g>
</g>
<!-- Node16&#45;&gt;Node17 -->
<g id="edge1" class="edge">
<title>Node16&#45;&gt;Node17</title>
<path fill="none" stroke="#191970" d="M558.0665,-196.1102C437.6327,-188.7131 193.6676,-171.7639 159,-154 99.6833,-123.6057 56.2172,-51.1705 42.0027,-25.0758"/>
<polygon fill="#191970" stroke="#191970" points="558.0794,-199.6174 568.2738,-196.7325 558.5053,-192.6304 558.0794,-199.6174"/>
</g>
<!-- Node18 -->
<g id="node3" class="node">
<title>Node18</title>
<g id="a_node3"><a xlink:href="AST_8h.html" target="_top" xlink:title=" ">
<polygon fill="#ffffff" stroke="#000000" points="428.5,-134.5 428.5,-153.5 535.5,-153.5 535.5,-134.5 428.5,-134.5"/>
<text text-anchor="middle" x="482" y="-141.5" font-family="Helvetica,sans-Serif" font-size="10.00" fill="#000000">parser/include/AST.h</text>
</a>
</g>
</g>
<!-- Node16&#45;&gt;Node18 -->
<g id="edge2" class="edge">
<title>Node16&#45;&gt;Node18</title>
<path fill="none" stroke="#191970" d="M590.9202,-186.6541C564.8427,-176.4419 529.5185,-162.6086 506.2618,-153.5011"/>
<polygon fill="#191970" stroke="#191970" points="589.8297,-189.9858 600.4174,-190.3733 592.3822,-183.4677 589.8297,-189.9858"/>
</g>
<!-- Node23 -->
<g id="node8" class="node">
<title>Node23</title>
<g id="a_node8"><a xlink:href="compound_8c.html" target="_top" xlink:title=" ">
<polygon fill="#ffffff" stroke="#000000" points="711,-.5 711,-30.5 809,-30.5 809,-.5 711,-.5"/>
<text text-anchor="start" x="719" y="-18.5" font-family="Helvetica,sans-Serif" font-size="10.00" fill="#000000">parser/parserfuncs</text>
<text text-anchor="middle" x="760" y="-7.5" font-family="Helvetica,sans-Serif" font-size="10.00" fill="#000000">/compound.c</text>
</a>
</g>
</g>
<!-- Node16&#45;&gt;Node23 -->
<g id="edge22" class="edge">
<title>Node16&#45;&gt;Node23</title>
<path fill="none" stroke="#191970" d="M638.0394,-182.1795C664.4953,-146.0231 724.0654,-64.6106 748.8515,-30.7363"/>
<polygon fill="#191970" stroke="#191970" points="635.1486,-180.2031 632.0681,-190.3402 640.7979,-184.3367 635.1486,-180.2031"/>
</g>
<!-- Node24 -->
<g id="node9" class="node">
<title>Node24</title>
<g id="a_node9"><a xlink:href="expressions_8c.html" target="_top" xlink:title=" ">
<polygon fill="#ffffff" stroke="#000000" points="827,-.5 827,-30.5 925,-30.5 925,-.5 827,-.5"/>
<text text-anchor="start" x="835" y="-18.5" font-family="Helvetica,sans-Serif" font-size="10.00" fill="#000000">parser/parserfuncs</text>
<text text-anchor="middle" x="876" y="-7.5" font-family="Helvetica,sans-Serif" font-size="10.00" fill="#000000">/expressions.c</text>
</a>
</g>
</g>
<!-- Node16&#45;&gt;Node24 -->
<g id="edge23" class="edge">
<title>Node16&#45;&gt;Node24</title>
<path fill="none" stroke="#191970" d="M646.2014,-184.4157C693.7099,-149.4941 808.212,-65.3282 855.272,-30.7363"/>
<polygon fill="#191970" stroke="#191970" points="644.1259,-181.5974 638.1415,-190.3402 648.2718,-187.2376 644.1259,-181.5974"/>
</g>
<!-- Node25 -->
<g id="node10" class="node">
<title>Node25</title>
<g id="a_node10"><a xlink:href="floats_8c.html" target="_top" xlink:title=" ">
<polygon fill="#ffffff" stroke="#000000" points="92,-.5 92,-30.5 190,-30.5 190,-.5 92,-.5"/>
<text text-anchor="start" x="100" y="-18.5" font-family="Helvetica,sans-Serif" font-size="10.00" fill="#000000">parser/parserfuncs</text>
<text text-anchor="middle" x="141" y="-7.5" font-family="Helvetica,sans-Serif" font-size="10.00" fill="#000000">/floats.c</text>
</a>
</g>
</g>
<!-- Node16&#45;&gt;Node25 -->
<g id="edge24" class="edge">
<title>Node16&#45;&gt;Node25</title>
<path fill="none" stroke="#191970" d="M558.1488,-197.235C456.0181,-192.2506 266.413,-179.7856 204,-154 167.1772,-138.7869 151.259,-133.9094 134,-98 123.6012,-76.364 129.7485,-47.8482 135.2796,-30.6358"/>
<polygon fill="#191970" stroke="#191970" points="558.1975,-200.7412 568.3531,-197.7223 558.5315,-193.7492 558.1975,-200.7412"/>
</g>
<!-- Node26 -->
<g id="node11" class="node">
<title>Node26</title>
<g id="a_node11"><a xlink:href="integers_8c.html" target="_top" xlink:title=" ">
<polygon fill="#ffffff" stroke="#000000" points="277,-.5 277,-30.5 375,-30.5 375,-.5 277,-.5"/>
<text text-anchor="start" x="285" y="-18.5" font-family="Helvetica,sans-Serif" font-size="10.00" fill="#000000">parser/parserfuncs</text>
<text text-anchor="middle" x="326" y="-7.5" font-family="Helvetica,sans-Serif" font-size="10.00" fill="#000000">/integers.c</text>
</a>
</g>
</g>
<!-- Node16&#45;&gt;Node26 -->
<g id="edge25" class="edge">
<title>Node16&#45;&gt;Node26</title>
<path fill="none" stroke="#191970" d="M558.2543,-195.8433C439.0315,-186.876 197.1356,-161.1711 146,-98 107.1767,-50.0391 211.2926,-28.7754 276.9849,-20.3498"/>
<polygon fill="#191970" stroke="#191970" points="558.129,-199.3434 568.3585,-196.5852 558.6417,-192.3622 558.129,-199.3434"/>
</g>
<!-- Node27 -->
<g id="node12" class="node">
<title>Node27</title>
<g id="a_node12"><a xlink:href="parser_8c.html" target="_top" xlink:title=" ">
<polygon fill="#ffffff" stroke="#000000" points="595,-.5 595,-30.5 693,-30.5 693,-.5 595,-.5"/>
<text text-anchor="start" x="603" y="-18.5" font-family="Helvetica,sans-Serif" font-size="10.00" fill="#000000">parser/parserfuncs</text>
<text text-anchor="middle" x="644" y="-7.5" font-family="Helvetica,sans-Serif" font-size="10.00" fill="#000000">/parser.c</text>
</a>
</g>
</g>
<!-- Node16&#45;&gt;Node27 -->
<g id="edge26" class="edge">
<title>Node16&#45;&gt;Node27</title>
<path fill="none" stroke="#191970" d="M627.0285,-180.3025C630.8414,-143.277 639.0017,-64.0364 642.4309,-30.7363"/>
<polygon fill="#191970" stroke="#191970" points="623.5377,-180.0343 625.9948,-190.3402 630.5008,-180.7514 623.5377,-180.0343"/>
</g>
<!-- Node29 -->
<g id="node14" class="node">
<title>Node29</title>
<g id="a_node14"><a xlink:href="token_8c.html" target="_top" xlink:title=" ">
<polygon fill="#ffffff" stroke="#000000" points="867.5,-134.5 867.5,-153.5 946.5,-153.5 946.5,-134.5 867.5,-134.5"/>
<text text-anchor="middle" x="907" y="-141.5" font-family="Helvetica,sans-Serif" font-size="10.00" fill="#000000">parser/token.c</text>
</a>
</g>
</g>
<!-- Node16&#45;&gt;Node29 -->
<g id="edge27" class="edge">
<title>Node16&#45;&gt;Node29</title>
<path fill="none" stroke="#191970" d="M683.112,-188.46C738.1268,-177.5351 819.2444,-161.4266 867.2433,-151.8949"/>
<polygon fill="#191970" stroke="#191970" points="682.2838,-185.0561 673.1571,-190.4369 683.6473,-191.922 682.2838,-185.0561"/>
</g>
<!-- Node18&#45;&gt;Node17 -->
<g id="edge6" class="edge">
<title>Node18&#45;&gt;Node17</title>
<path fill="none" stroke="#191970" d="M418.4176,-140.1727C331.3278,-134.1712 180.0303,-120.8114 130,-98 92.2947,-80.8082 58.8348,-42.9978 44.4615,-25.1672"/>
<polygon fill="#191970" stroke="#191970" points="418.2367,-143.6684 428.45,-140.8511 418.709,-136.6843 418.2367,-143.6684"/>
</g>
<!-- Node19 -->
<g id="node4" class="node">
<title>Node19</title>
<g id="a_node4"><a xlink:href="helios__code_8c.html" target="_top" xlink:title=" ">
<polygon fill="#ffffff" stroke="#000000" points="155,-67.5 155,-97.5 255,-97.5 255,-67.5 155,-67.5"/>
<text text-anchor="start" x="163" y="-85.5" font-family="Helvetica,sans-Serif" font-size="10.00" fill="#000000">builtins/code/helios</text>
<text text-anchor="middle" x="205" y="-74.5" font-family="Helvetica,sans-Serif" font-size="10.00" fill="#000000">_code.c</text>
</a>
</g>
</g>
<!-- Node18&#45;&gt;Node19 -->
<g id="edge3" class="edge">
<title>Node18&#45;&gt;Node19</title>
<path fill="none" stroke="#191970" d="M423.4156,-132.4479C379.4288,-123.5781 317.7773,-110.7297 264,-98 261.1144,-97.3169 258.1542,-96.5979 255.1702,-95.8588"/>
<polygon fill="#191970" stroke="#191970" points="422.8675,-135.9076 433.3611,-134.4463 424.2465,-129.0448 422.8675,-135.9076"/>
</g>
<!-- Node20 -->
<g id="node5" class="node">
<title>Node20</title>
<g id="a_node5"><a xlink:href="helios__instruction_8c.html" target="_top" xlink:title=" ">
<polygon fill="#ffffff" stroke="#000000" points="273,-67.5 273,-97.5 373,-97.5 373,-67.5 273,-67.5"/>
<text text-anchor="start" x="281" y="-85.5" font-family="Helvetica,sans-Serif" font-size="10.00" fill="#000000">builtins/code/helios</text>
<text text-anchor="middle" x="323" y="-74.5" font-family="Helvetica,sans-Serif" font-size="10.00" fill="#000000">_instruction.c</text>
</a>
</g>
</g>
<!-- Node18&#45;&gt;Node20 -->
<g id="edge4" class="edge">
<title>Node18&#45;&gt;Node20</title>
<path fill="none" stroke="#191970" d="M447.6309,-130.7063C422.4082,-120.9503 388.1225,-107.6889 361.8958,-97.5446"/>
<polygon fill="#191970" stroke="#191970" points="446.567,-134.0474 457.1563,-134.3906 449.0922,-127.5188 446.567,-134.0474"/>
</g>
<!-- Node21 -->
<g id="node6" class="node">
<title>Node21</title>
<g id="a_node6"><a xlink:href="main_8c.html" target="_top" xlink:title=" ">
<polygon fill="#ffffff" stroke="#000000" points="393,-6 393,-25 463,-25 463,-6 393,-6"/>
<text text-anchor="middle" x="428" y="-13" font-family="Helvetica,sans-Serif" font-size="10.00" fill="#000000">main/main.c</text>
</a>
</g>
</g>
<!-- Node18&#45;&gt;Node21 -->
<g id="edge5" class="edge">
<title>Node18&#45;&gt;Node21</title>
<path fill="none" stroke="#191970" d="M471.6362,-125.5018C467.1795,-117.214 462.0706,-107.2433 458,-98 446.6979,-72.3359 436.1445,-40.9443 431.1023,-25.3166"/>
<polygon fill="#191970" stroke="#191970" points="468.5907,-127.2274 476.4672,-134.3134 474.7288,-123.8622 468.5907,-127.2274"/>
</g>
<!-- Node22 -->
<g id="node7" class="node">
<title>Node22</title>
<g id="a_node7"><a xlink:href="parser_8h.html" target="_top" xlink:title=" ">
<polygon fill="#ffffff" stroke="#000000" points="467.5,-73 467.5,-92 582.5,-92 582.5,-73 467.5,-73"/>
<text text-anchor="middle" x="525" y="-80" font-family="Helvetica,sans-Serif" font-size="10.00" fill="#000000">parser/include/parser.h</text>
</a>
</g>
</g>
<!-- Node18&#45;&gt;Node22 -->
<g id="edge7" class="edge">
<title>Node18&#45;&gt;Node22</title>
<path fill="none" stroke="#191970" d="M494.6435,-125.9169C502.3433,-114.9043 511.8797,-101.265 518.1865,-92.2449"/>
<polygon fill="#191970" stroke="#191970" points="491.5805,-124.1896 488.7188,-134.3906 497.3174,-128.2007 491.5805,-124.1896"/>
</g>
<!-- Node18&#45;&gt;Node23 -->
<g id="edge16" class="edge">
<title>Node18&#45;&gt;Node23</title>
<path fill="none" stroke="#191970" d="M534.2611,-131.9485C563.9656,-124.1542 601.4185,-112.7101 633,-98 673.5174,-79.1277 716.2269,-48.9394 740.3499,-30.7865"/>
<polygon fill="#191970" stroke="#191970" points="533.3208,-128.5763 524.5041,-134.4513 535.0602,-135.3568 533.3208,-128.5763"/>
</g>
<!-- Node18&#45;&gt;Node24 -->
<g id="edge17" class="edge">
<title>Node18&#45;&gt;Node24</title>
<path fill="none" stroke="#191970" d="M540.6618,-132.3776C579.0122,-124.1861 629.9718,-112.1737 674,-98 735.1202,-78.324 803.8584,-48.5363 843.3323,-30.6527"/>
<polygon fill="#191970" stroke="#191970" points="539.7582,-128.9912 530.6966,-134.481 541.2039,-135.8403 539.7582,-128.9912"/>
</g>
<!-- Node18&#45;&gt;Node25 -->
<g id="edge18" class="edge">
<title>Node18&#45;&gt;Node25</title>
<path fill="none" stroke="#191970" d="M418.0978,-139.5795C325.8015,-132.5557 164.183,-117.611 146,-98 129.3171,-80.0069 132.6906,-49.2415 136.77,-30.7949"/>
<polygon fill="#191970" stroke="#191970" points="417.9402,-143.0775 428.1741,-140.3359 418.4642,-136.0971 417.9402,-143.0775"/>
</g>
<!-- Node18&#45;&gt;Node26 -->
<g id="edge19" class="edge">
<title>Node18&#45;&gt;Node26</title>
<path fill="none" stroke="#191970" d="M462.5041,-127.9409C432.1816,-102.9637 374.1284,-55.1442 344.4549,-30.7016"/>
<polygon fill="#191970" stroke="#191970" points="460.3307,-130.6852 470.2746,-134.3416 464.7813,-125.2821 460.3307,-130.6852"/>
</g>
<!-- Node18&#45;&gt;Node27 -->
<g id="edge20" class="edge">
<title>Node18&#45;&gt;Node27</title>
<path fill="none" stroke="#191970" d="M545.1991,-131.7377C567.2166,-124.8632 590.7103,-114.2592 608,-98 627.4668,-79.6934 636.9898,-49.0332 641.1675,-30.6912"/>
<polygon fill="#191970" stroke="#191970" points="544.1677,-128.3926 535.5464,-134.5509 546.1263,-135.113 544.1677,-128.3926"/>
</g>
<!-- Node28 -->
<g id="node13" class="node">
<title>Node28</title>
<g id="a_node13"><a xlink:href="parserutil_8c.html" target="_top" xlink:title=" ">
<polygon fill="#ffffff" stroke="#000000" points="481.5,-6 481.5,-25 576.5,-25 576.5,-6 481.5,-6"/>
<text text-anchor="middle" x="529" y="-13" font-family="Helvetica,sans-Serif" font-size="10.00" fill="#000000">parser/parserutil.c</text>
</a>
</g>
</g>
<!-- Node18&#45;&gt;Node28 -->
<g id="edge21" class="edge">
<title>Node18&#45;&gt;Node28</title>
<path fill="none" stroke="#191970" d="M545.5605,-131.12C563.2375,-124.2991 580.4616,-113.8858 591,-98 609.1251,-70.6778 569.6549,-40.2602 545.6707,-25.1343"/>
<polygon fill="#191970" stroke="#191970" points="544.0201,-127.9506 535.733,-134.5518 546.3279,-134.5593 544.0201,-127.9506"/>
</g>
<!-- Node22&#45;&gt;Node17 -->
<g id="edge9" class="edge">
<title>Node22&#45;&gt;Node17</title>
<path fill="none" stroke="#191970" d="M457.3443,-74.9923C338.0203,-61.6982 100.992,-35.0328 83,-31 76.2569,-29.4886 69.114,-27.3551 62.5193,-25.1532"/>
<polygon fill="#191970" stroke="#191970" points="457.1434,-78.4915 467.4693,-76.1197 457.9181,-71.5345 457.1434,-78.4915"/>
</g>
<!-- Node22&#45;&gt;Node21 -->
<g id="edge8" class="edge">
<title>Node22&#45;&gt;Node21</title>
<path fill="none" stroke="#191970" d="M502.8295,-67.1864C484.0736,-54.2312 457.7794,-36.0693 441.872,-25.0817"/>
<polygon fill="#191970" stroke="#191970" points="500.8851,-70.097 511.1023,-72.9005 504.8634,-64.3374 500.8851,-70.097"/>
</g>
<!-- Node22&#45;&gt;Node23 -->
<g id="edge10" class="edge">
<title>Node22&#45;&gt;Node23</title>
<path fill="none" stroke="#191970" d="M568.4785,-70.104C608.8129,-58.6044 668.7793,-41.5076 710.8392,-29.5161"/>
<polygon fill="#191970" stroke="#191970" points="567.3269,-66.7928 558.6698,-72.9005 569.2462,-73.5245 567.3269,-66.7928"/>
</g>
<!-- Node22&#45;&gt;Node24 -->
<g id="edge11" class="edge">
<title>Node22&#45;&gt;Node24</title>
<path fill="none" stroke="#191970" d="M592.5974,-72.3334C652.1961,-62.9624 741.2474,-47.9672 818,-31 820.8496,-30.3701 823.7697,-29.6925 826.7108,-28.9853"/>
<polygon fill="#191970" stroke="#191970" points="591.8971,-68.9003 582.5576,-73.9026 592.9782,-75.8163 591.8971,-68.9003"/>
</g>
<!-- Node22&#45;&gt;Node25 -->
<g id="edge12" class="edge">
<title>Node22&#45;&gt;Node25</title>
<path fill="none" stroke="#191970" d="M460.4264,-71.2333C384.1902,-57.9316 259.0886,-36.104 190.2473,-24.0926"/>
<polygon fill="#191970" stroke="#191970" points="459.9372,-74.7007 470.39,-72.9717 461.1404,-67.8049 459.9372,-74.7007"/>
</g>
<!-- Node22&#45;&gt;Node26 -->
<g id="edge13" class="edge">
<title>Node22&#45;&gt;Node26</title>
<path fill="none" stroke="#191970" d="M486.7006,-69.6052C453.5284,-58.4367 405.5175,-42.2722 370.6169,-30.5218"/>
<polygon fill="#191970" stroke="#191970" points="485.8941,-73.0267 496.4882,-72.9005 488.1277,-66.3926 485.8941,-73.0267"/>
</g>
<!-- Node22&#45;&gt;Node27 -->
<g id="edge14" class="edge">
<title>Node22&#45;&gt;Node27</title>
<path fill="none" stroke="#191970" d="M550.7823,-67.9839C570.4442,-56.9138 597.4389,-41.7151 617.3196,-30.5218"/>
<polygon fill="#191970" stroke="#191970" points="549.0465,-64.9446 542.0498,-72.9005 552.4808,-71.0442 549.0465,-64.9446"/>
</g>
<!-- Node22&#45;&gt;Node28 -->
<g id="edge15" class="edge">
<title>Node22&#45;&gt;Node28</title>
<path fill="none" stroke="#191970" d="M526.1876,-62.6079C526.9275,-50.214 527.8462,-34.8263 528.428,-25.0817"/>
<polygon fill="#191970" stroke="#191970" points="522.6754,-62.7097 525.5731,-72.9005 529.6629,-63.1269 522.6754,-62.7097"/>
</g>
</g>
</svg>
