<?xml version="1.0" encoding="UTF-8" standalone="no"?>
<!DOCTYPE svg PUBLIC "-//W3C//DTD SVG 1.1//EN"
 "http://www.w3.org/Graphics/SVG/1.1/DTD/svg11.dtd">
<!-- Generated by graphviz version 2.40.1 (20161225.0304)
 -->
<!-- Title: main/parser/include/token.h Pages: 1 -->
<svg width="1444pt" height="240pt"
 viewBox="0.00 0.00 1443.50 240.00" xmlns="http://www.w3.org/2000/svg" xmlns:xlink="http://www.w3.org/1999/xlink">
<g id="graph0" class="graph" transform="scale(1 1) rotate(0) translate(4 236)">
<title>main/parser/include/token.h</title>
<polygon fill="#ffffff" stroke="transparent" points="-4,4 -4,-236 1439.5,-236 1439.5,4 -4,4"/>
<!-- Node17 -->
<g id="node1" class="node">
<title>Node17</title>
<g id="a_node1"><a xlink:title=" ">
<polygon fill="#bfbfbf" stroke="#000000" points="660.5,-201.5 660.5,-231.5 773.5,-231.5 773.5,-201.5 660.5,-201.5"/>
<text text-anchor="start" x="668.5" y="-219.5" font-family="Helvetica,sans-Serif" font-size="10.00" fill="#000000">main/parser/include</text>
<text text-anchor="middle" x="717" y="-208.5" font-family="Helvetica,sans-Serif" font-size="10.00" fill="#000000">/token.h</text>
</a>
</g>
</g>
<!-- Node18 -->
<g id="node2" class="node">
<title>Node18</title>
<g id="a_node2"><a xlink:href="AST_8c.html" target="_top" xlink:title=" ">
<polygon fill="#ffffff" stroke="#000000" points="0,-6 0,-25 104,-25 104,-6 0,-6"/>
<text text-anchor="middle" x="52" y="-13" font-family="Helvetica,sans-Serif" font-size="10.00" fill="#000000">main/parser/AST.c</text>
</a>
</g>
</g>
<!-- Node17&#45;&gt;Node18 -->
<g id="edge1" class="edge">
<title>Node17&#45;&gt;Node18</title>
<path fill="none" stroke="#191970" d="M650.2243,-213.6415C575.5669,-208.9614 451.7831,-196.731 350,-165 234.5095,-128.9957 108.9706,-52.135 66.7671,-25.1264"/>
<polygon fill="#191970" stroke="#191970" points="650.2338,-217.1482 660.4254,-214.253 650.6527,-210.1608 650.2338,-217.1482"/>
</g>
<!-- Node19 -->
<g id="node3" class="node">
<title>Node19</title>
<g id="a_node3"><a xlink:href="AST_8h.html" target="_top" xlink:title=" ">
<polygon fill="#ffffff" stroke="#000000" points="660.5,-134.5 660.5,-164.5 773.5,-164.5 773.5,-134.5 660.5,-134.5"/>
<text text-anchor="start" x="668.5" y="-152.5" font-family="Helvetica,sans-Serif" font-size="10.00" fill="#000000">main/parser/include</text>
<text text-anchor="middle" x="717" y="-141.5" font-family="Helvetica,sans-Serif" font-size="10.00" fill="#000000">/AST.h</text>
</a>
</g>
</g>
<!-- Node17&#45;&gt;Node19 -->
<g id="edge2" class="edge">
<title>Node17&#45;&gt;Node19</title>
<path fill="none" stroke="#191970" d="M717,-191.0249C717,-182.128 717,-172.4287 717,-164.6432"/>
<polygon fill="#191970" stroke="#191970" points="713.5001,-191.2966 717,-201.2967 720.5001,-191.2967 713.5001,-191.2966"/>
</g>
<!-- Node24 -->
<g id="node8" class="node">
<title>Node24</title>
<g id="a_node8"><a xlink:href="compound_8c.html" target="_top" xlink:title=" ">
<polygon fill="#ffffff" stroke="#000000" points="122.5,-.5 122.5,-30.5 257.5,-30.5 257.5,-.5 122.5,-.5"/>
<text text-anchor="start" x="130.5" y="-18.5" font-family="Helvetica,sans-Serif" font-size="10.00" fill="#000000">main/parser/parserfuncs</text>
<text text-anchor="middle" x="190" y="-7.5" font-family="Helvetica,sans-Serif" font-size="10.00" fill="#000000">/compound.c</text>
</a>
</g>
</g>
<!-- Node17&#45;&gt;Node24 -->
<g id="edge25" class="edge">
<title>Node17&#45;&gt;Node24</title>
<path fill="none" stroke="#191970" d="M650.1361,-213.0769C587.4734,-208.0382 492.1553,-195.6098 415,-165 329.5562,-131.1019 243.0573,-61.4761 207.2046,-30.7011"/>
<polygon fill="#191970" stroke="#191970" points="650.0518,-216.5806 660.2891,-213.8516 650.5844,-209.6009 650.0518,-216.5806"/>
</g>
<!-- Node25 -->
<g id="node9" class="node">
<title>Node25</title>
<g id="a_node9"><a xlink:href="expressions_8c.html" target="_top" xlink:title=" ">
<polygon fill="#ffffff" stroke="#000000" points="1147.5,-.5 1147.5,-30.5 1282.5,-30.5 1282.5,-.5 1147.5,-.5"/>
<text text-anchor="start" x="1155.5" y="-18.5" font-family="Helvetica,sans-Serif" font-size="10.00" fill="#000000">main/parser/parserfuncs</text>
<text text-anchor="middle" x="1215" y="-7.5" font-family="Helvetica,sans-Serif" font-size="10.00" fill="#000000">/expressions.c</text>
</a>
</g>
</g>
<!-- Node17&#45;&gt;Node25 -->
<g id="edge26" class="edge">
<title>Node17&#45;&gt;Node25</title>
<path fill="none" stroke="#191970" d="M777.4033,-198.3574C807.0523,-189.0613 843.1557,-177.1566 875,-165 990.664,-120.8453 1124.082,-58.8289 1183.562,-30.5804"/>
<polygon fill="#191970" stroke="#191970" points="776.1186,-195.0916 767.6114,-201.4066 778.1998,-201.7751 776.1186,-195.0916"/>
</g>
<!-- Node26 -->
<g id="node10" class="node">
<title>Node26</title>
<g id="a_node10"><a xlink:href="floats_8c.html" target="_top" xlink:title=" ">
<polygon fill="#ffffff" stroke="#000000" points="275.5,-.5 275.5,-30.5 410.5,-30.5 410.5,-.5 275.5,-.5"/>
<text text-anchor="start" x="283.5" y="-18.5" font-family="Helvetica,sans-Serif" font-size="10.00" fill="#000000">main/parser/parserfuncs</text>
<text text-anchor="middle" x="343" y="-7.5" font-family="Helvetica,sans-Serif" font-size="10.00" fill="#000000">/floats.c</text>
</a>
</g>
</g>
<!-- Node17&#45;&gt;Node26 -->
<g id="edge27" class="edge">
<title>Node17&#45;&gt;Node26</title>
<path fill="none" stroke="#191970" d="M650.3586,-209.0033C583.5058,-200.5115 486.0031,-185.1871 454,-165 400.4103,-131.1963 363.8137,-61.5204 349.6028,-30.7167"/>
<polygon fill="#191970" stroke="#191970" points="650.0423,-212.4909 660.3988,-210.2568 650.9095,-205.5448 650.0423,-212.4909"/>
</g>
<!-- Node27 -->
<g id="node11" class="node">
<title>Node27</title>
<g id="a_node11"><a xlink:href="integers_8c.html" target="_top" xlink:title=" ">
<polygon fill="#ffffff" stroke="#000000" points="428.5,-.5 428.5,-30.5 563.5,-30.5 563.5,-.5 428.5,-.5"/>
<text text-anchor="start" x="436.5" y="-18.5" font-family="Helvetica,sans-Serif" font-size="10.00" fill="#000000">main/parser/parserfuncs</text>
<text text-anchor="middle" x="496" y="-7.5" font-family="Helvetica,sans-Serif" font-size="10.00" fill="#000000">/integers.c</text>
</a>
</g>
</g>
<!-- Node17&#45;&gt;Node27 -->
<g id="edge28" class="edge">
<title>Node17&#45;&gt;Node27</title>
<path fill="none" stroke="#191970" d="M650.345,-210.8346C579.9043,-200.8858 472.0856,-173.4788 421,-98 413.2774,-86.5899 414.5823,-79.1918 421,-67 429.4609,-50.9266 445.455,-38.9016 460.5069,-30.5313"/>
<polygon fill="#191970" stroke="#191970" points="650.0812,-214.3303 660.4554,-212.1794 651.0042,-207.3914 650.0812,-214.3303"/>
</g>
<!-- Node28 -->
<g id="node12" class="node">
<title>Node28</title>
<g id="a_node12"><a xlink:href="parser_8c.html" target="_top" xlink:title=" ">
<polygon fill="#ffffff" stroke="#000000" points="1300.5,-.5 1300.5,-30.5 1435.5,-30.5 1435.5,-.5 1300.5,-.5"/>
<text text-anchor="start" x="1308.5" y="-18.5" font-family="Helvetica,sans-Serif" font-size="10.00" fill="#000000">main/parser/parserfuncs</text>
<text text-anchor="middle" x="1368" y="-7.5" font-family="Helvetica,sans-Serif" font-size="10.00" fill="#000000">/parser.c</text>
</a>
</g>
</g>
<!-- Node17&#45;&gt;Node28 -->
<g id="edge29" class="edge">
<title>Node17&#45;&gt;Node28</title>
<path fill="none" stroke="#191970" d="M783.4954,-201.7413C824.9949,-192.1487 879.3905,-178.8796 927,-165 1076.208,-121.5014 1250.0215,-59.0228 1327.336,-30.603"/>
<polygon fill="#191970" stroke="#191970" points="782.4663,-198.3865 773.5043,-204.0374 784.0342,-205.2087 782.4663,-198.3865"/>
</g>
<!-- Node29 -->
<g id="node13" class="node">
<title>Node29</title>
<g id="a_node13"><a xlink:href="strings_8c.html" target="_top" xlink:title=" ">
<polygon fill="#ffffff" stroke="#000000" points="994.5,-.5 994.5,-30.5 1129.5,-30.5 1129.5,-.5 994.5,-.5"/>
<text text-anchor="start" x="1002.5" y="-18.5" font-family="Helvetica,sans-Serif" font-size="10.00" fill="#000000">main/parser/parserfuncs</text>
<text text-anchor="middle" x="1062" y="-7.5" font-family="Helvetica,sans-Serif" font-size="10.00" fill="#000000">/strings.c</text>
</a>
</g>
</g>
<!-- Node17&#45;&gt;Node29 -->
<g id="edge30" class="edge">
<title>Node17&#45;&gt;Node29</title>
<path fill="none" stroke="#191970" d="M760.6864,-197.2911C808.8301,-175.4834 887.9352,-137.7449 952,-98 986.0788,-76.8581 1022.8022,-47.9351 1044.0227,-30.5488"/>
<polygon fill="#191970" stroke="#191970" points="759.1644,-194.1379 751.4841,-201.4361 762.0393,-200.5204 759.1644,-194.1379"/>
</g>
<!-- Node32 -->
<g id="node16" class="node">
<title>Node32</title>
<g id="a_node16"><a xlink:href="token_8c.html" target="_top" xlink:title=" ">
<polygon fill="#ffffff" stroke="#000000" points="1162,-140 1162,-159 1276,-159 1276,-140 1162,-140"/>
<text text-anchor="middle" x="1219" y="-147" font-family="Helvetica,sans-Serif" font-size="10.00" fill="#000000">main/parser/token.c</text>
</a>
</g>
</g>
<!-- Node17&#45;&gt;Node32 -->
<g id="edge31" class="edge">
<title>Node17&#45;&gt;Node32</title>
<path fill="none" stroke="#191970" d="M783.7524,-210.5293C868.7056,-202.4714 1019.822,-186.598 1148,-165 1157.9531,-163.3229 1168.619,-161.1803 1178.5804,-159.027"/>
<polygon fill="#191970" stroke="#191970" points="783.3542,-207.0513 773.7262,-211.4731 784.0103,-214.0205 783.3542,-207.0513"/>
</g>
<!-- Node19&#45;&gt;Node18 -->
<g id="edge6" class="edge">
<title>Node19&#45;&gt;Node18</title>
<path fill="none" stroke="#191970" d="M650.0572,-145.545C566.389,-139.6369 419.1992,-126.0528 296,-98 212.7222,-79.0374 117.8864,-42.4465 75.0965,-25.0876"/>
<polygon fill="#191970" stroke="#191970" points="649.971,-149.0473 660.1884,-146.2446 650.4534,-142.0639 649.971,-149.0473"/>
</g>
<!-- Node20 -->
<g id="node4" class="node">
<title>Node20</title>
<g id="a_node4"><a xlink:href="helios__code_8c.html" target="_top" xlink:title=" ">
<polygon fill="#ffffff" stroke="#000000" points="430.5,-67.5 430.5,-97.5 537.5,-97.5 537.5,-67.5 430.5,-67.5"/>
<text text-anchor="start" x="438.5" y="-85.5" font-family="Helvetica,sans-Serif" font-size="10.00" fill="#000000">main/builtins/code</text>
<text text-anchor="middle" x="484" y="-74.5" font-family="Helvetica,sans-Serif" font-size="10.00" fill="#000000">/helios_code.c</text>
</a>
</g>
</g>
<!-- Node19&#45;&gt;Node20 -->
<g id="edge3" class="edge">
<title>Node19&#45;&gt;Node20</title>
<path fill="none" stroke="#191970" d="M655.0437,-131.6842C618.0855,-121.0568 571.6689,-107.7095 536.5178,-97.6017"/>
<polygon fill="#191970" stroke="#191970" points="654.1324,-135.064 664.7103,-134.4639 656.067,-128.3366 654.1324,-135.064"/>
</g>
<!-- Node21 -->
<g id="node5" class="node">
<title>Node21</title>
<g id="a_node5"><a xlink:href="helios__instruction_8c.html" target="_top" xlink:title=" ">
<polygon fill="#ffffff" stroke="#000000" points="556,-67.5 556,-97.5 670,-97.5 670,-67.5 556,-67.5"/>
<text text-anchor="start" x="564" y="-85.5" font-family="Helvetica,sans-Serif" font-size="10.00" fill="#000000">main/builtins/code</text>
<text text-anchor="middle" x="613" y="-74.5" font-family="Helvetica,sans-Serif" font-size="10.00" fill="#000000">/helios_instruction.c</text>
</a>
</g>
</g>
<!-- Node19&#45;&gt;Node21 -->
<g id="edge4" class="edge">
<title>Node19&#45;&gt;Node21</title>
<path fill="none" stroke="#191970" d="M684.861,-128.7951C669.2777,-118.7558 650.8939,-106.9124 636.6216,-97.7177"/>
<polygon fill="#191970" stroke="#191970" points="683.3583,-131.9904 693.6604,-134.4639 687.1494,-126.1058 683.3583,-131.9904"/>
</g>
<!-- Node22 -->
<g id="node6" class="node">
<title>Node22</title>
<g id="a_node6"><a xlink:href="main_8c.html" target="_top" xlink:title=" ">
<polygon fill="#ffffff" stroke="#000000" points="582,-6 582,-25 688,-25 688,-6 582,-6"/>
<text text-anchor="middle" x="635" y="-13" font-family="Helvetica,sans-Serif" font-size="10.00" fill="#000000">main/entry/main.c</text>
</a>
</g>
</g>
<!-- Node19&#45;&gt;Node22 -->
<g id="edge5" class="edge">
<title>Node19&#45;&gt;Node22</title>
<path fill="none" stroke="#191970" d="M721.0797,-123.9514C722.536,-106.7457 721.8415,-84.1521 712,-67 700.5545,-47.0524 677.8697,-33.3206 660.0733,-25.0846"/>
<polygon fill="#191970" stroke="#191970" points="717.5473,-124.0353 719.8867,-134.3687 724.5019,-124.8319 717.5473,-124.0353"/>
</g>
<!-- Node23 -->
<g id="node7" class="node">
<title>Node23</title>
<g id="a_node7"><a xlink:href="parser_8h.html" target="_top" xlink:title=" ">
<polygon fill="#ffffff" stroke="#000000" points="764.5,-67.5 764.5,-97.5 877.5,-97.5 877.5,-67.5 764.5,-67.5"/>
<text text-anchor="start" x="772.5" y="-85.5" font-family="Helvetica,sans-Serif" font-size="10.00" fill="#000000">main/parser/include</text>
<text text-anchor="middle" x="821" y="-74.5" font-family="Helvetica,sans-Serif" font-size="10.00" fill="#000000">/parser.h</text>
</a>
</g>
</g>
<!-- Node19&#45;&gt;Node23 -->
<g id="edge7" class="edge">
<title>Node19&#45;&gt;Node23</title>
<path fill="none" stroke="#191970" d="M749.139,-128.7951C764.7223,-118.7558 783.1061,-106.9124 797.3784,-97.7177"/>
<polygon fill="#191970" stroke="#191970" points="746.8506,-126.1058 740.3396,-134.4639 750.6417,-131.9904 746.8506,-126.1058"/>
</g>
<!-- Node19&#45;&gt;Node24 -->
<g id="edge18" class="edge">
<title>Node19&#45;&gt;Node24</title>
<path fill="none" stroke="#191970" d="M650.1234,-144.4776C581.1308,-138.1031 470.935,-124.5748 379,-98 319.67,-80.85 254.482,-49.3537 218.2691,-30.6318"/>
<polygon fill="#191970" stroke="#191970" points="650.1413,-147.9933 660.4147,-145.4035 650.7686,-141.0214 650.1413,-147.9933"/>
</g>
<!-- Node19&#45;&gt;Node25 -->
<g id="edge19" class="edge">
<title>Node19&#45;&gt;Node25</title>
<path fill="none" stroke="#191970" d="M783.75,-136.894C831.0486,-127.4706 895.8229,-113.57 952,-98 993.5802,-86.4756 1002.8928,-80.112 1044,-67 1084.0245,-54.2334 1129.5859,-40.5534 1163.6097,-30.5036"/>
<polygon fill="#191970" stroke="#191970" points="783.0626,-133.4621 773.9317,-138.8359 784.4208,-140.3291 783.0626,-133.4621"/>
</g>
<!-- Node19&#45;&gt;Node26 -->
<g id="edge20" class="edge">
<title>Node19&#45;&gt;Node26</title>
<path fill="none" stroke="#191970" d="M649.9255,-142.7901C575.1434,-134.4489 459.6223,-118.742 421,-98 390.9582,-81.8661 365.8987,-49.8621 352.8071,-30.8054"/>
<polygon fill="#191970" stroke="#191970" points="649.8726,-146.3053 660.195,-143.918 650.6369,-139.3471 649.8726,-146.3053"/>
</g>
<!-- Node19&#45;&gt;Node27 -->
<g id="edge21" class="edge">
<title>Node19&#45;&gt;Node27</title>
<path fill="none" stroke="#191970" d="M711.5102,-124.5848C706.1957,-106.1586 696.3231,-81.7919 679,-67 669.5876,-58.963 608.3773,-42.6632 559.3013,-30.5429"/>
<polygon fill="#191970" stroke="#191970" points="708.1537,-125.5838 714.0734,-134.3706 714.9253,-123.8101 708.1537,-125.5838"/>
</g>
<!-- Node19&#45;&gt;Node28 -->
<g id="edge22" class="edge">
<title>Node19&#45;&gt;Node28</title>
<path fill="none" stroke="#191970" d="M783.747,-139.9282C843.8052,-130.8231 934.2905,-115.8822 1012,-98 1060.6663,-86.8011 1071.5186,-78.9741 1120,-67 1128.8318,-64.8187 1229.894,-43.9337 1300.2444,-29.44"/>
<polygon fill="#191970" stroke="#191970" points="783.0055,-136.5003 773.6376,-141.4493 784.047,-143.4224 783.0055,-136.5003"/>
</g>
<!-- Node19&#45;&gt;Node29 -->
<g id="edge23" class="edge">
<title>Node19&#45;&gt;Node29</title>
<path fill="none" stroke="#191970" d="M783.3824,-135.713C820.9379,-126.9243 868.3719,-114.147 909,-98 915.4677,-95.4295 992.083,-53.7126 1034.3753,-30.6103"/>
<polygon fill="#191970" stroke="#191970" points="782.523,-132.3192 773.5628,-137.9731 784.0931,-139.1408 782.523,-132.3192"/>
</g>
<!-- Node30 -->
<g id="node14" class="node">
<title>Node30</title>
<g id="a_node14"><a xlink:href="parserutil_8c.html" target="_top" xlink:title=" ">
<polygon fill="#ffffff" stroke="#000000" points="843.5,-6 843.5,-25 976.5,-25 976.5,-6 843.5,-6"/>
<text text-anchor="middle" x="910" y="-13" font-family="Helvetica,sans-Serif" font-size="10.00" fill="#000000">main/parser/parserutil.c</text>
</a>
</g>
</g>
<!-- Node19&#45;&gt;Node30 -->
<g id="edge24" class="edge">
<title>Node19&#45;&gt;Node30</title>
<path fill="none" stroke="#191970" d="M783.6914,-135.9996C824.3831,-126.5016 871.3172,-112.8705 886,-98 905.9129,-77.8326 909.4878,-42.1567 910.0076,-25.1018"/>
<polygon fill="#191970" stroke="#191970" points="782.7453,-132.6254 773.775,-138.2631 784.3031,-139.4499 782.7453,-132.6254"/>
</g>
<!-- Node23&#45;&gt;Node18 -->
<g id="edge9" class="edge">
<title>Node23&#45;&gt;Node18</title>
<path fill="none" stroke="#191970" d="M754.4203,-74.604C730.6442,-71.9507 703.6455,-69.1278 679,-67 427.8703,-45.3187 361.9961,-70.2064 113,-31 103.8252,-29.5554 94.0182,-27.3613 85.0101,-25.0747"/>
<polygon fill="#191970" stroke="#191970" points="754.0674,-78.0863 764.3965,-75.7282 754.8514,-71.1303 754.0674,-78.0863"/>
</g>
<!-- Node23&#45;&gt;Node22 -->
<g id="edge8" class="edge">
<title>Node23&#45;&gt;Node22</title>
<path fill="none" stroke="#191970" d="M769.6427,-64.0003C734.5345,-51.3538 689.4483,-35.1131 661.3878,-25.0053"/>
<polygon fill="#191970" stroke="#191970" points="768.6636,-67.3677 779.258,-67.4639 771.0359,-60.782 768.6636,-67.3677"/>
</g>
<!-- Node23&#45;&gt;Node24 -->
<g id="edge10" class="edge">
<title>Node23&#45;&gt;Node24</title>
<path fill="none" stroke="#191970" d="M754.3905,-74.9264C730.6117,-72.3029 703.6189,-69.4163 679,-67 495.6295,-49.0023 448.3428,-57.453 266,-31 263.3347,-30.6133 260.622,-30.1925 257.8855,-29.7451"/>
<polygon fill="#191970" stroke="#191970" points="754.0436,-78.4093 764.3684,-76.0326 754.815,-71.452 754.0436,-78.4093"/>
</g>
<!-- Node23&#45;&gt;Node25 -->
<g id="edge11" class="edge">
<title>Node23&#45;&gt;Node25</title>
<path fill="none" stroke="#191970" d="M887.7277,-72.5005C952.1664,-62.6535 1052.4428,-46.8288 1139,-31 1141.7817,-30.4913 1144.6185,-29.9618 1147.4826,-29.4182"/>
<polygon fill="#191970" stroke="#191970" points="887.0594,-69.0618 877.7009,-74.0286 888.1142,-75.9819 887.0594,-69.0618"/>
</g>
<!-- Node23&#45;&gt;Node26 -->
<g id="edge12" class="edge">
<title>Node23&#45;&gt;Node26</title>
<path fill="none" stroke="#191970" d="M753.798,-75.4248C673.7918,-66.6476 536.2522,-50.44 419,-31 416.3431,-30.5595 413.6374,-30.0932 410.9068,-29.6079"/>
<polygon fill="#191970" stroke="#191970" points="753.8987,-78.9565 764.2193,-76.5617 754.6579,-71.9978 753.8987,-78.9565"/>
</g>
<!-- Node23&#45;&gt;Node27 -->
<g id="edge13" class="edge">
<title>Node23&#45;&gt;Node27</title>
<path fill="none" stroke="#191970" d="M754.2819,-68.7458C698.6415,-57.2753 619.7041,-41.0021 563.7721,-29.4715"/>
<polygon fill="#191970" stroke="#191970" points="753.8886,-72.2382 764.3893,-70.8295 755.302,-65.3824 753.8886,-72.2382"/>
</g>
<!-- Node23&#45;&gt;Node28 -->
<g id="edge14" class="edge">
<title>Node23&#45;&gt;Node28</title>
<path fill="none" stroke="#191970" d="M888.009,-77.1331C979.579,-69.353 1148.7924,-53.3838 1292,-31 1294.6609,-30.5841 1297.3699,-30.1386 1300.1033,-29.6706"/>
<polygon fill="#191970" stroke="#191970" points="887.4443,-73.6682 877.7737,-77.9961 888.0324,-80.6435 887.4443,-73.6682"/>
</g>
<!-- Node23&#45;&gt;Node29 -->
<g id="edge15" class="edge">
<title>Node23&#45;&gt;Node29</title>
<path fill="none" stroke="#191970" d="M885.0836,-64.6842C923.3107,-54.0568 971.321,-40.7095 1007.679,-30.6017"/>
<polygon fill="#191970" stroke="#191970" points="883.7822,-61.4132 875.0851,-67.4639 885.6572,-68.1574 883.7822,-61.4132"/>
</g>
<!-- Node23&#45;&gt;Node30 -->
<g id="edge16" class="edge">
<title>Node23&#45;&gt;Node30</title>
<path fill="none" stroke="#191970" d="M849.2785,-61.2117C865.4141,-49.0646 884.8464,-34.4358 897.3076,-25.055"/>
<polygon fill="#191970" stroke="#191970" points="847.0797,-58.486 841.1955,-67.2967 851.2897,-64.0785 847.0797,-58.486"/>
</g>
<!-- Node31 -->
<g id="node15" class="node">
<title>Node31</title>
<g id="a_node15"><a xlink:href="parserutil__test_8c.html" target="_top" xlink:title=" ">
<polygon fill="#ffffff" stroke="#000000" points="706.5,-.5 706.5,-30.5 825.5,-30.5 825.5,-.5 706.5,-.5"/>
<text text-anchor="start" x="714.5" y="-18.5" font-family="Helvetica,sans-Serif" font-size="10.00" fill="#000000">test/parser/parserutil</text>
<text text-anchor="middle" x="766" y="-7.5" font-family="Helvetica,sans-Serif" font-size="10.00" fill="#000000">_test.c</text>
</a>
</g>
</g>
<!-- Node23&#45;&gt;Node31 -->
<g id="edge17" class="edge">
<title>Node23&#45;&gt;Node31</title>
<path fill="none" stroke="#191970" d="M801.997,-59.3509C794.1963,-49.8482 785.384,-39.1132 778.431,-30.6432"/>
<polygon fill="#191970" stroke="#191970" points="799.4694,-61.7881 808.5196,-67.2967 804.8799,-57.3466 799.4694,-61.7881"/>
</g>
</g>
</svg>
