<?xml version="1.0" encoding="UTF-8" standalone="no"?>
<!DOCTYPE svg PUBLIC "-//W3C//DTD SVG 1.1//EN"
 "http://www.w3.org/Graphics/SVG/1.1/DTD/svg11.dtd">
<!-- Generated by graphviz version 2.40.1 (20161225.0304)
 -->
<!-- Title: parser/token.c Pages: 1 -->
<!--zoomable 420 -->
<svg id="main" version="1.1" xmlns="http://www.w3.org/2000/svg" xmlns:xlink="http://www.w3.org/1999/xlink" xml:space="preserve" onload="init(evt)">
<style type="text/css"><![CDATA[
.edge:hover path { stroke: red; }
.edge:hover polygon { stroke: red; fill: red; }
]]></style>
<script type="text/javascript"><![CDATA[
var edges = document.getElementsByTagName('g');
if (edges && edges.length) {
  for (var i=0;i<edges.length;i++) {
    if (edges[i].id.substr(0,4)=='edge') {
      edges[i].setAttribute('class','edge');
    }
  }
}
]]></script>
        <defs>
                <circle id="rim" cx="0" cy="0" r="7"/>
                <circle id="rim2" cx="0" cy="0" r="3.5"/>
                <g id="zoomPlus">
                        <use xlink:href="#rim" fill="#404040">
                                <set attributeName="fill" to="#808080" begin="zoomplus.mouseover" end="zoomplus.mouseout"/>
                        </use>
                        <path d="M-4,0h8M0,-4v8" fill="none" stroke="white" stroke-width="1.5" pointer-events="none"/>
                </g>
                <g id="zoomMin">
                        <use xlink:href="#rim" fill="#404040">
                                <set attributeName="fill" to="#808080" begin="zoomminus.mouseover" end="zoomminus.mouseout"/>
                        </use>
                        <path d="M-4,0h8" fill="none" stroke="white" stroke-width="1.5" pointer-events="none"/>
                </g>
                <g id="dirArrow">
                        <path fill="none" stroke="white" stroke-width="1.5" d="M0,-3.0v7 M-2.5,-0.5L0,-3.0L2.5,-0.5"/>
                </g>
               <g id="resetDef">
                       <use xlink:href="#rim2" fill="#404040">
                               <set attributeName="fill" to="#808080" begin="reset.mouseover" end="reset.mouseout"/>
                       </use>
               </g>
        </defs>

<script type="text/javascript">
var viewWidth = 828;
var viewHeight = 420;
var sectionId = 'dynsection-0';
</script>
<script xlink:href="svgpan.js"/>
<svg id="graph" class="graph">
<g id="viewport">
<title>parser/token.c</title>
<polygon fill="#ffffff" stroke="transparent" points="-4,4 -4,-416 824.3248,-416 824.3248,4 -4,4"/>
<!-- Node0 -->
<g id="node1" class="node">
<title>Node0</title>
<g id="a_node1"><a xlink:title=" ">
<polygon fill="#bfbfbf" stroke="#000000" points="283.8248,-392.5 283.8248,-411.5 362.8248,-411.5 362.8248,-392.5 283.8248,-392.5"/>
<text text-anchor="middle" x="323.3248" y="-399.5" font-family="Helvetica,sans-Serif" font-size="10.00" fill="#000000">parser/token.c</text>
</a>
</g>
</g>
<!-- Node1 -->
<g id="node2" class="node">
<title>Node1</title>
<g id="a_node2"><a xlink:href="builtins_8h.html" target="_top" xlink:title=" ">
<polygon fill="#ffffff" stroke="#000000" points="322.3248,-280.5 322.3248,-299.5 378.3248,-299.5 378.3248,-280.5 322.3248,-280.5"/>
<text text-anchor="middle" x="350.3248" y="-287.5" font-family="Helvetica,sans-Serif" font-size="10.00" fill="#000000">builtins.h</text>
</a>
</g>
</g>
<!-- Node0&#45;&gt;Node1 -->
<g id="edge1" class="edge">
<title>Node0&#45;&gt;Node1</title>
<path fill="none" stroke="#191970" d="M320.1169,-392.3401C316.286,-379.2437 311.1252,-355.2775 317.3248,-336 320.7194,-325.4445 327.5306,-315.2592 334.0879,-307.1676"/>
<polygon fill="#191970" stroke="#191970" points="336.7718,-309.4149 340.6756,-299.5654 331.4817,-304.8307 336.7718,-309.4149"/>
</g>
<!-- Node7 -->
<g id="node8" class="node">
<title>Node7</title>
<g id="a_node8"><a xlink:title=" ">
<polygon fill="#ffffff" stroke="#bfbfbf" points="101.3248,-.5 101.3248,-19.5 157.3248,-19.5 157.3248,-.5 101.3248,-.5"/>
<text text-anchor="middle" x="129.3248" y="-7.5" font-family="Helvetica,sans-Serif" font-size="10.00" fill="#000000">stdbool.h</text>
</a>
</g>
</g>
<!-- Node0&#45;&gt;Node7 -->
<g id="edge26" class="edge">
<title>Node0&#45;&gt;Node7</title>
<path fill="none" stroke="#191970" d="M283.7187,-396.7868C197.4684,-384.3258 .3248,-349.3519 .3248,-290 .3248,-290 .3248,-290 .3248,-122 .3248,-91.4754 -.9744,-78.7968 19.3248,-56 37.8739,-35.1686 67.3726,-23.5222 91.1546,-17.1631"/>
<polygon fill="#191970" stroke="#191970" points="92.076,-20.5409 100.9483,-14.7501 90.4013,-13.7441 92.076,-20.5409"/>
</g>
<!-- Node9 -->
<g id="node10" class="node">
<title>Node9</title>
<g id="a_node10"><a xlink:title=" ">
<polygon fill="#ffffff" stroke="#bfbfbf" points="738.8248,-.5 738.8248,-19.5 787.8248,-19.5 787.8248,-.5 738.8248,-.5"/>
<text text-anchor="middle" x="763.3248" y="-7.5" font-family="Helvetica,sans-Serif" font-size="10.00" fill="#000000">stdint.h</text>
</a>
</g>
</g>
<!-- Node0&#45;&gt;Node9 -->
<g id="edge27" class="edge">
<title>Node0&#45;&gt;Node9</title>
<path fill="none" stroke="#191970" d="M363.1563,-397.2633C481.0925,-382.7056 820.3248,-336.7672 820.3248,-290 820.3248,-290 820.3248,-290 820.3248,-122 820.3248,-85.1826 795.5573,-48.2377 778.6747,-27.3313"/>
<polygon fill="#191970" stroke="#191970" points="781.3379,-25.06 772.231,-19.6456 775.9737,-29.5574 781.3379,-25.06"/>
</g>
<!-- Node10 -->
<g id="node11" class="node">
<title>Node10</title>
<g id="a_node11"><a xlink:title=" ">
<polygon fill="#ffffff" stroke="#bfbfbf" points="28.3248,-56.5 28.3248,-75.5 76.3248,-75.5 76.3248,-56.5 28.3248,-56.5"/>
<text text-anchor="middle" x="52.3248" y="-63.5" font-family="Helvetica,sans-Serif" font-size="10.00" fill="#000000">stdlib.h</text>
</a>
</g>
</g>
<!-- Node0&#45;&gt;Node10 -->
<g id="edge29" class="edge">
<title>Node0&#45;&gt;Node10</title>
<path fill="none" stroke="#191970" d="M283.6288,-394.2248C208.356,-378.3384 52.3248,-339.4447 52.3248,-290 52.3248,-290 52.3248,-290 52.3248,-178 52.3248,-145.7116 52.3248,-108.1872 52.3248,-85.8048"/>
<polygon fill="#191970" stroke="#191970" points="55.8249,-85.5883 52.3248,-75.5884 48.8249,-85.5884 55.8249,-85.5883"/>
</g>
<!-- Node16 -->
<g id="node17" class="node">
<title>Node16</title>
<g id="a_node17"><a xlink:title=" ">
<polygon fill="#ffffff" stroke="#bfbfbf" points="393.3248,-336.5 393.3248,-355.5 439.3248,-355.5 439.3248,-336.5 393.3248,-336.5"/>
<text text-anchor="middle" x="416.3248" y="-343.5" font-family="Helvetica,sans-Serif" font-size="10.00" fill="#000000">stdio.h</text>
</a>
</g>
</g>
<!-- Node0&#45;&gt;Node16 -->
<g id="edge28" class="edge">
<title>Node0&#45;&gt;Node16</title>
<path fill="none" stroke="#191970" d="M339.5242,-392.2455C353.9266,-383.5731 375.198,-370.7645 391.7047,-360.825"/>
<polygon fill="#191970" stroke="#191970" points="393.5498,-363.7996 400.3111,-355.6427 389.9388,-357.8028 393.5498,-363.7996"/>
</g>
<!-- Node17 -->
<g id="node18" class="node">
<title>Node17</title>
<g id="a_node18"><a xlink:href="token_8h.html" target="_top" xlink:title=" ">
<polygon fill="#ffffff" stroke="#000000" points="325.8248,-336.5 325.8248,-355.5 374.8248,-355.5 374.8248,-336.5 325.8248,-336.5"/>
<text text-anchor="middle" x="350.3248" y="-343.5" font-family="Helvetica,sans-Serif" font-size="10.00" fill="#000000">token.h</text>
</a>
</g>
</g>
<!-- Node0&#45;&gt;Node17 -->
<g id="edge30" class="edge">
<title>Node0&#45;&gt;Node17</title>
<path fill="none" stroke="#191970" d="M328.0278,-392.2455C331.6672,-384.6973 336.8172,-374.0158 341.251,-364.8197"/>
<polygon fill="#191970" stroke="#191970" points="344.4853,-366.1704 345.6757,-355.6427 338.1799,-363.1303 344.4853,-366.1704"/>
</g>
<!-- Node2 -->
<g id="node3" class="node">
<title>Node2</title>
<g id="a_node3"><a xlink:href="builtinutils_8h.html" target="_top" xlink:title=" ">
<polygon fill="#ffffff" stroke="#000000" points="521.3248,-.5 521.3248,-19.5 589.3248,-19.5 589.3248,-.5 521.3248,-.5"/>
<text text-anchor="middle" x="555.3248" y="-7.5" font-family="Helvetica,sans-Serif" font-size="10.00" fill="#000000">builtinutils.h</text>
</a>
</g>
</g>
<!-- Node1&#45;&gt;Node2 -->
<g id="edge2" class="edge">
<title>Node1&#45;&gt;Node2</title>
<path fill="none" stroke="#191970" d="M378.5907,-288.6528C461.9442,-284.3935 702.3696,-269.9431 725.3248,-244 793.5312,-166.9157 643.5241,-63.2534 581.0199,-24.9943"/>
<polygon fill="#191970" stroke="#191970" points="582.498,-21.7986 572.1271,-19.6318 578.8832,-27.793 582.498,-21.7986"/>
</g>
<!-- Node3 -->
<g id="node4" class="node">
<title>Node3</title>
<g id="a_node4"><a xlink:href="helios__code_8h.html" target="_top" xlink:title=" ">
<polygon fill="#ffffff" stroke="#000000" points="638.8248,-224.5 638.8248,-243.5 715.8248,-243.5 715.8248,-224.5 638.8248,-224.5"/>
<text text-anchor="middle" x="677.3248" y="-231.5" font-family="Helvetica,sans-Serif" font-size="10.00" fill="#000000">helios_code.h</text>
</a>
</g>
</g>
<!-- Node1&#45;&gt;Node3 -->
<g id="edge3" class="edge">
<title>Node1&#45;&gt;Node3</title>
<path fill="none" stroke="#191970" d="M378.5103,-285.7536C427.2616,-278.3226 530.704,-262.1766 628.5238,-244.0878"/>
<polygon fill="#191970" stroke="#191970" points="629.3884,-247.4871 638.5798,-242.2175 628.1084,-240.6051 629.3884,-247.4871"/>
</g>
<!-- Node4 -->
<g id="node5" class="node">
<title>Node4</title>
<g id="a_node5"><a xlink:href="helios__object_8h.html" target="_top" xlink:title=" ">
<polygon fill="#ffffff" stroke="#000000" points="342.3248,-168.5 342.3248,-187.5 424.3248,-187.5 424.3248,-168.5 342.3248,-168.5"/>
<text text-anchor="middle" x="383.3248" y="-175.5" font-family="Helvetica,sans-Serif" font-size="10.00" fill="#000000">helios_object.h</text>
</a>
</g>
</g>
<!-- Node1&#45;&gt;Node4 -->
<g id="edge20" class="edge">
<title>Node1&#45;&gt;Node4</title>
<path fill="none" stroke="#191970" d="M345.0052,-280.2557C338.5532,-267.0638 329.4591,-242.9896 337.3248,-224 342.156,-212.3363 351.5385,-202.0881 360.5766,-194.243"/>
<polygon fill="#191970" stroke="#191970" points="363.0514,-196.7436 368.6396,-187.7423 358.6578,-191.2942 363.0514,-196.7436"/>
</g>
<!-- Node6 -->
<g id="node7" class="node">
<title>Node6</title>
<g id="a_node7"><a xlink:href="helios__memory_8h.html" target="_top" xlink:title=" ">
<polygon fill="#ffffff" stroke="#000000" points="281.3248,-56.5 281.3248,-75.5 371.3248,-75.5 371.3248,-56.5 281.3248,-56.5"/>
<text text-anchor="middle" x="326.3248" y="-63.5" font-family="Helvetica,sans-Serif" font-size="10.00" fill="#000000">helios_memory.h</text>
</a>
</g>
</g>
<!-- Node1&#45;&gt;Node6 -->
<g id="edge23" class="edge">
<title>Node1&#45;&gt;Node6</title>
<path fill="none" stroke="#191970" d="M322.1877,-286.6548C277.8369,-280.739 194.8943,-266.8517 177.3248,-244 129.1418,-181.3311 242.2732,-110.196 297.8023,-80.3611"/>
<polygon fill="#191970" stroke="#191970" points="299.6053,-83.3672 306.8189,-75.6074 296.3406,-77.1751 299.6053,-83.3672"/>
</g>
<!-- Node11 -->
<g id="node12" class="node">
<title>Node11</title>
<g id="a_node12"><a xlink:href="helios__float_8h.html" target="_top" xlink:title=" ">
<polygon fill="#ffffff" stroke="#000000" points="346.3248,-224.5 346.3248,-243.5 420.3248,-243.5 420.3248,-224.5 346.3248,-224.5"/>
<text text-anchor="middle" x="383.3248" y="-231.5" font-family="Helvetica,sans-Serif" font-size="10.00" fill="#000000">helios_float.h</text>
</a>
</g>
</g>
<!-- Node1&#45;&gt;Node11 -->
<g id="edge13" class="edge">
<title>Node1&#45;&gt;Node11</title>
<path fill="none" stroke="#191970" d="M356.073,-280.2455C360.5683,-272.617 366.9496,-261.7881 372.4072,-252.5267"/>
<polygon fill="#191970" stroke="#191970" points="375.5809,-254.035 377.6425,-243.6427 369.5501,-250.4811 375.5809,-254.035"/>
</g>
<!-- Node12 -->
<g id="node13" class="node">
<title>Node12</title>
<g id="a_node13"><a xlink:href="helios__hashmap_8h.html" target="_top" xlink:title=" ">
<polygon fill="#ffffff" stroke="#000000" points="194.8248,-224.5 194.8248,-243.5 289.8248,-243.5 289.8248,-224.5 194.8248,-224.5"/>
<text text-anchor="middle" x="242.3248" y="-231.5" font-family="Helvetica,sans-Serif" font-size="10.00" fill="#000000">helios_hashmap.h</text>
</a>
</g>
</g>
<!-- Node1&#45;&gt;Node12 -->
<g id="edge15" class="edge">
<title>Node1&#45;&gt;Node12</title>
<path fill="none" stroke="#191970" d="M331.5126,-280.2455C314.4775,-271.4125 289.1673,-258.2887 269.8567,-248.2758"/>
<polygon fill="#191970" stroke="#191970" points="271.4101,-245.1388 260.9214,-243.6427 268.1878,-251.353 271.4101,-245.1388"/>
</g>
<!-- Node13 -->
<g id="node14" class="node">
<title>Node13</title>
<g id="a_node14"><a xlink:href="helios__integer_8h.html" target="_top" xlink:title=" ">
<polygon fill="#ffffff" stroke="#000000" points="438.3248,-224.5 438.3248,-243.5 522.3248,-243.5 522.3248,-224.5 438.3248,-224.5"/>
<text text-anchor="middle" x="480.3248" y="-231.5" font-family="Helvetica,sans-Serif" font-size="10.00" fill="#000000">helios_integer.h</text>
</a>
</g>
</g>
<!-- Node1&#45;&gt;Node13 -->
<g id="edge18" class="edge">
<title>Node1&#45;&gt;Node13</title>
<path fill="none" stroke="#191970" d="M372.6726,-280.3733C393.7281,-271.3032 425.4743,-257.6279 449.0423,-247.4755"/>
<polygon fill="#191970" stroke="#191970" points="450.4692,-250.6719 458.2686,-243.5011 447.6998,-244.243 450.4692,-250.6719"/>
</g>
<!-- Node14 -->
<g id="node15" class="node">
<title>Node14</title>
<g id="a_node15"><a xlink:href="helios__string_8h.html" target="_top" xlink:title=" ">
<polygon fill="#ffffff" stroke="#000000" points="540.3248,-224.5 540.3248,-243.5 620.3248,-243.5 620.3248,-224.5 540.3248,-224.5"/>
<text text-anchor="middle" x="580.3248" y="-231.5" font-family="Helvetica,sans-Serif" font-size="10.00" fill="#000000">helios_string.h</text>
</a>
</g>
</g>
<!-- Node1&#45;&gt;Node14 -->
<g id="edge21" class="edge">
<title>Node1&#45;&gt;Node14</title>
<path fill="none" stroke="#191970" d="M378.5273,-283.1333C416.5238,-273.882 484.7438,-257.2719 531.2476,-245.9492"/>
<polygon fill="#191970" stroke="#191970" points="532.2248,-249.3136 541.113,-243.5472 530.5688,-242.5123 532.2248,-249.3136"/>
</g>
<!-- Node15 -->
<g id="node16" class="node">
<title>Node15</title>
<g id="a_node16"><a xlink:href="serialize_8h.html" target="_top" xlink:title=" ">
<polygon fill="#ffffff" stroke="#000000" points="228.8248,-168.5 228.8248,-187.5 289.8248,-187.5 289.8248,-168.5 228.8248,-168.5"/>
<text text-anchor="middle" x="259.3248" y="-175.5" font-family="Helvetica,sans-Serif" font-size="10.00" fill="#000000">serialize.h</text>
</a>
</g>
</g>
<!-- Node1&#45;&gt;Node15 -->
<g id="edge24" class="edge">
<title>Node1&#45;&gt;Node15</title>
<path fill="none" stroke="#191970" d="M322.2584,-286.2237C279.8715,-279.8808 202.7156,-265.6207 186.3248,-244 170.697,-223.3857 199.0894,-204.0691 224.8987,-191.7259"/>
<polygon fill="#191970" stroke="#191970" points="226.5434,-194.8231 234.2042,-187.5044 223.6514,-188.4484 226.5434,-194.8231"/>
</g>
<!-- Node3&#45;&gt;Node4 -->
<g id="edge4" class="edge">
<title>Node3&#45;&gt;Node4</title>
<path fill="none" stroke="#191970" d="M638.5661,-225.8541C635.441,-225.219 632.3311,-224.5942 629.3248,-224 562.1324,-210.72 484.4119,-196.3526 434.6077,-187.2726"/>
<polygon fill="#191970" stroke="#191970" points="435.1895,-183.8211 424.7243,-185.4733 433.9357,-190.7079 435.1895,-183.8211"/>
</g>
<!-- Node5 -->
<g id="node6" class="node">
<title>Node5</title>
<g id="a_node6"><a xlink:href="helios__type_8h.html" target="_top" xlink:title=" ">
<polygon fill="#ffffff" stroke="#000000" points="289.3248,-112.5 289.3248,-131.5 363.3248,-131.5 363.3248,-112.5 289.3248,-112.5"/>
<text text-anchor="middle" x="326.3248" y="-119.5" font-family="Helvetica,sans-Serif" font-size="10.00" fill="#000000">helios_type.h</text>
</a>
</g>
</g>
<!-- Node4&#45;&gt;Node5 -->
<g id="edge5" class="edge">
<title>Node4&#45;&gt;Node5</title>
<path fill="none" stroke="#191970" d="M373.3962,-168.2455C365.141,-160.1352 353.2039,-148.4075 343.4166,-138.7919"/>
<polygon fill="#191970" stroke="#191970" points="345.7259,-136.1542 336.1397,-131.6427 340.8202,-141.1476 345.7259,-136.1542"/>
</g>
<!-- Node5&#45;&gt;Node6 -->
<g id="edge6" class="edge">
<title>Node5&#45;&gt;Node6</title>
<path fill="none" stroke="#191970" d="M326.3248,-112.2455C326.3248,-104.9382 326.3248,-94.6944 326.3248,-85.7046"/>
<polygon fill="#191970" stroke="#191970" points="329.8249,-85.6426 326.3248,-75.6427 322.8249,-85.6427 329.8249,-85.6426"/>
</g>
<!-- Node5&#45;&gt;Node9 -->
<g id="edge11" class="edge">
<title>Node5&#45;&gt;Node9</title>
<path fill="none" stroke="#191970" d="M363.5832,-112.4509C446.943,-91.0864 647.5172,-39.6807 728.5203,-18.9201"/>
<polygon fill="#191970" stroke="#191970" points="729.8685,-22.1878 738.6864,-16.3146 728.1305,-15.407 729.8685,-22.1878"/>
</g>
<!-- Node5&#45;&gt;Node10 -->
<g id="edge12" class="edge">
<title>Node5&#45;&gt;Node10</title>
<path fill="none" stroke="#191970" d="M289.0868,-114.3893C235.6994,-103.478 138.1668,-83.5444 86.5187,-72.9885"/>
<polygon fill="#191970" stroke="#191970" points="87.0252,-69.5198 76.5268,-70.9464 85.6234,-76.378 87.0252,-69.5198"/>
</g>
<!-- Node6&#45;&gt;Node2 -->
<g id="edge7" class="edge">
<title>Node6&#45;&gt;Node2</title>
<path fill="none" stroke="#191970" d="M365.4311,-56.4369C405.9954,-46.5172 469.2862,-31.04 511.5104,-20.7144"/>
<polygon fill="#191970" stroke="#191970" points="512.3545,-24.1112 521.2368,-18.3359 510.6916,-17.3116 512.3545,-24.1112"/>
</g>
<!-- Node6&#45;&gt;Node7 -->
<g id="edge8" class="edge">
<title>Node6&#45;&gt;Node7</title>
<path fill="none" stroke="#191970" d="M292.4593,-56.3733C257.5663,-46.4544 203.299,-31.0282 167.0528,-20.7247"/>
<polygon fill="#191970" stroke="#191970" points="167.9144,-17.331 157.3384,-17.9633 166.0003,-24.0643 167.9144,-17.331"/>
</g>
<!-- Node8 -->
<g id="node9" class="node">
<title>Node8</title>
<g id="a_node9"><a xlink:title=" ">
<polygon fill="#ffffff" stroke="#bfbfbf" points="300.3248,-.5 300.3248,-19.5 352.3248,-19.5 352.3248,-.5 300.3248,-.5"/>
<text text-anchor="middle" x="326.3248" y="-7.5" font-family="Helvetica,sans-Serif" font-size="10.00" fill="#000000">stddef.h</text>
</a>
</g>
</g>
<!-- Node6&#45;&gt;Node8 -->
<g id="edge9" class="edge">
<title>Node6&#45;&gt;Node8</title>
<path fill="none" stroke="#191970" d="M326.3248,-56.2455C326.3248,-48.9382 326.3248,-38.6944 326.3248,-29.7046"/>
<polygon fill="#191970" stroke="#191970" points="329.8249,-29.6426 326.3248,-19.6427 322.8249,-29.6427 329.8249,-29.6426"/>
</g>
<!-- Node6&#45;&gt;Node9 -->
<g id="edge10" class="edge">
<title>Node6&#45;&gt;Node9</title>
<path fill="none" stroke="#191970" d="M371.4455,-60.2179C458.9213,-49.0082 649.8699,-24.5388 728.4633,-14.4674"/>
<polygon fill="#191970" stroke="#191970" points="729.3111,-17.8874 738.7851,-13.1447 728.4213,-10.9442 729.3111,-17.8874"/>
</g>
<!-- Node11&#45;&gt;Node4 -->
<g id="edge14" class="edge">
<title>Node11&#45;&gt;Node4</title>
<path fill="none" stroke="#191970" d="M383.3248,-224.2455C383.3248,-216.9382 383.3248,-206.6944 383.3248,-197.7046"/>
<polygon fill="#191970" stroke="#191970" points="386.8249,-197.6426 383.3248,-187.6427 379.8249,-197.6427 386.8249,-197.6426"/>
</g>
<!-- Node12&#45;&gt;Node4 -->
<g id="edge16" class="edge">
<title>Node12&#45;&gt;Node4</title>
<path fill="none" stroke="#191970" d="M266.5636,-224.3733C289.6037,-215.2226 324.4462,-201.3844 350.0748,-191.2057"/>
<polygon fill="#191970" stroke="#191970" points="351.4004,-194.4452 359.4023,-187.5011 348.8166,-187.9395 351.4004,-194.4452"/>
</g>
<!-- Node12&#45;&gt;Node7 -->
<g id="edge17" class="edge">
<title>Node12&#45;&gt;Node7</title>
<path fill="none" stroke="#191970" d="M237.4693,-224.375C220.2282,-190.1979 161.7565,-74.2894 138.7423,-28.6683"/>
<polygon fill="#191970" stroke="#191970" points="141.7911,-26.941 134.1622,-19.5891 135.5413,-30.0938 141.7911,-26.941"/>
</g>
<!-- Node13&#45;&gt;Node4 -->
<g id="edge19" class="edge">
<title>Node13&#45;&gt;Node4</title>
<path fill="none" stroke="#191970" d="M463.4287,-224.2455C448.4068,-215.5731 426.2205,-202.7645 409.0038,-192.825"/>
<polygon fill="#191970" stroke="#191970" points="410.4376,-189.6114 400.0273,-187.6427 406.9377,-195.6737 410.4376,-189.6114"/>
</g>
<!-- Node14&#45;&gt;Node4 -->
<g id="edge22" class="edge">
<title>Node14&#45;&gt;Node4</title>
<path fill="none" stroke="#191970" d="M546.4593,-224.3733C513.2758,-214.9404 462.5698,-200.5265 426.5054,-190.2747"/>
<polygon fill="#191970" stroke="#191970" points="427.3243,-186.8689 416.7484,-187.5011 425.4103,-193.6021 427.3243,-186.8689"/>
</g>
<!-- Node15&#45;&gt;Node5 -->
<g id="edge25" class="edge">
<title>Node15&#45;&gt;Node5</title>
<path fill="none" stroke="#191970" d="M270.9953,-168.2455C280.8909,-159.9746 295.2875,-147.9416 306.9149,-138.2232"/>
<polygon fill="#191970" stroke="#191970" points="309.3598,-140.7413 314.788,-131.6427 304.8706,-135.3703 309.3598,-140.7413"/>
</g>
<!-- Node17&#45;&gt;Node1 -->
<g id="edge31" class="edge">
<title>Node17&#45;&gt;Node1</title>
<path fill="none" stroke="#191970" d="M350.3248,-336.2455C350.3248,-328.9382 350.3248,-318.6944 350.3248,-309.7046"/>
<polygon fill="#191970" stroke="#191970" points="353.8249,-309.6426 350.3248,-299.6427 346.8249,-309.6427 353.8249,-309.6426"/>
</g>
<!-- Node17&#45;&gt;Node7 -->
<g id="edge32" class="edge">
<title>Node17&#45;&gt;Node7</title>
<path fill="none" stroke="#191970" d="M325.5006,-340.1362C284.3955,-329.0262 202.8201,-300.7663 163.3248,-244 116.6218,-176.8741 122.0139,-72.5316 126.7059,-29.5336"/>
<polygon fill="#191970" stroke="#191970" points="130.1878,-29.8933 127.9093,-19.5464 123.2381,-29.0559 130.1878,-29.8933"/>
</g>
<!-- Node17&#45;&gt;Node9 -->
<g id="edge33" class="edge">
<title>Node17&#45;&gt;Node9</title>
<path fill="none" stroke="#191970" d="M375.1773,-338.5767C378.2532,-337.6915 381.3581,-336.814 384.3248,-336 543.996,-292.1887 585.1795,-286.0452 745.3248,-244 761.8009,-239.6743 782.3248,-251.0345 782.3248,-234 782.3248,-234 782.3248,-234 782.3248,-122 782.3248,-89.2688 774.3396,-51.9052 768.7226,-29.6716"/>
<polygon fill="#191970" stroke="#191970" points="772.0537,-28.5763 766.1283,-19.7934 765.2833,-30.3545 772.0537,-28.5763"/>
</g>
</g>
</svg>
        <g id="navigator" transform="translate(0 0)" fill="#404254">
                <rect fill="#f2f5e9" fill-opacity="0.5" stroke="#606060" stroke-width=".5" x="0" y="0" width="60" height="60"/>
                <use id="zoomplus" xlink:href="#zoomPlus" x="17" y="9" onmousedown="handleZoom(evt,'in')"/>
                <use id="zoomminus" xlink:href="#zoomMin" x="42" y="9" onmousedown="handleZoom(evt,'out')"/>
                <use id="reset" xlink:href="#resetDef" x="30" y="36" onmousedown="handleReset()"/>
                <g id="arrowUp" xlink:href="#dirArrow" transform="translate(30 24)" onmousedown="handlePan(0,-1)">
                  <use xlink:href="#rim" fill="#404040">
                        <set attributeName="fill" to="#808080" begin="arrowUp.mouseover" end="arrowUp.mouseout"/>
                  </use>
                  <path fill="none" stroke="white" stroke-width="1.5" d="M0,-3.0v7 M-2.5,-0.5L0,-3.0L2.5,-0.5"/>
                </g>
                <g id="arrowRight" xlink:href="#dirArrow" transform="rotate(90) translate(36 -43)" onmousedown="handlePan(1,0)">
                  <use xlink:href="#rim" fill="#404040">
                        <set attributeName="fill" to="#808080" begin="arrowRight.mouseover" end="arrowRight.mouseout"/>
                  </use>
                  <path fill="none" stroke="white" stroke-width="1.5" d="M0,-3.0v7 M-2.5,-0.5L0,-3.0L2.5,-0.5"/>
                </g>
                <g id="arrowDown" xlink:href="#dirArrow" transform="rotate(180) translate(-30 -48)" onmousedown="handlePan(0,1)">
                  <use xlink:href="#rim" fill="#404040">
                        <set attributeName="fill" to="#808080" begin="arrowDown.mouseover" end="arrowDown.mouseout"/>
                  </use>
                  <path fill="none" stroke="white" stroke-width="1.5" d="M0,-3.0v7 M-2.5,-0.5L0,-3.0L2.5,-0.5"/>
                </g>
                <g id="arrowLeft" xlink:href="#dirArrow" transform="rotate(270) translate(-36 17)" onmousedown="handlePan(-1,0)">
                  <use xlink:href="#rim" fill="#404040">
                        <set attributeName="fill" to="#808080" begin="arrowLeft.mouseover" end="arrowLeft.mouseout"/>
                  </use>
                  <path fill="none" stroke="white" stroke-width="1.5" d="M0,-3.0v7 M-2.5,-0.5L0,-3.0L2.5,-0.5"/>
                </g>
        </g>
        <svg viewBox="0 0 15 15" width="100%" height="30px" preserveAspectRatio="xMaxYMin meet">
         <g id="arrow_out" transform="scale(0.3 0.3)">
          <a xlink:href="token_8c__incl_org.svg" target="_base">
           <rect id="button" ry="5" rx="5" y="6" x="6" height="38" width="38"
                fill="#f2f5e9" fill-opacity="0.5" stroke="#606060" stroke-width="1.0"/>
           <path id="arrow"
             d="M 11.500037,31.436501 C 11.940474,20.09759 22.043105,11.32322 32.158766,21.979434 L 37.068811,17.246167 C 37.068811,17.246167 37.088388,32 37.088388,32 L 22.160133,31.978069 C 22.160133,31.978069 26.997745,27.140456 26.997745,27.140456 C 18.528582,18.264221 13.291696,25.230495 11.500037,31.436501 z"
             style="fill:#404040;"/>
          </a>
         </g>
        </svg>
</svg>
