<?xml version="1.0" encoding="UTF-8" standalone="no"?>
<!DOCTYPE svg PUBLIC "-//W3C//DTD SVG 1.1//EN"
 "http://www.w3.org/Graphics/SVG/1.1/DTD/svg11.dtd">
<!-- Generated by graphviz version 2.40.1 (20161225.0304)
 -->
<!-- Title: main/parser/token.c Pages: 1 -->
<!--zoomable 420 -->
<svg id="main" version="1.1" xmlns="http://www.w3.org/2000/svg" xmlns:xlink="http://www.w3.org/1999/xlink" xml:space="preserve" onload="init(evt)">
<style type="text/css"><![CDATA[
.edge:hover path { stroke: red; }
.edge:hover polygon { stroke: red; fill: red; }
]]></style>
<script type="text/javascript"><![CDATA[
var edges = document.getElementsByTagName('g');
if (edges && edges.length) {
  for (var i=0;i<edges.length;i++) {
    if (edges[i].id.substr(0,4)=='edge') {
      edges[i].setAttribute('class','edge');
    }
  }
}
]]></script>
        <defs>
                <circle id="rim" cx="0" cy="0" r="7"/>
                <circle id="rim2" cx="0" cy="0" r="3.5"/>
                <g id="zoomPlus">
                        <use xlink:href="#rim" fill="#404040">
                                <set attributeName="fill" to="#808080" begin="zoomplus.mouseover" end="zoomplus.mouseout"/>
                        </use>
                        <path d="M-4,0h8M0,-4v8" fill="none" stroke="white" stroke-width="1.5" pointer-events="none"/>
                </g>
                <g id="zoomMin">
                        <use xlink:href="#rim" fill="#404040">
                                <set attributeName="fill" to="#808080" begin="zoomminus.mouseover" end="zoomminus.mouseout"/>
                        </use>
                        <path d="M-4,0h8" fill="none" stroke="white" stroke-width="1.5" pointer-events="none"/>
                </g>
                <g id="dirArrow">
                        <path fill="none" stroke="white" stroke-width="1.5" d="M0,-3.0v7 M-2.5,-0.5L0,-3.0L2.5,-0.5"/>
                </g>
               <g id="resetDef">
                       <use xlink:href="#rim2" fill="#404040">
                               <set attributeName="fill" to="#808080" begin="reset.mouseover" end="reset.mouseout"/>
                       </use>
               </g>
        </defs>

<script type="text/javascript">
var viewWidth = 1008;
var viewHeight = 420;
var sectionId = 'dynsection-0';
</script>
<script xlink:href="svgpan.js"/>
<svg id="graph" class="graph">
<g id="viewport">
<title>main/parser/token.c</title>
<polygon fill="#ffffff" stroke="transparent" points="-4,4 -4,-416 1004.4019,-416 1004.4019,4 -4,4"/>
<!-- Node0 -->
<g id="node1" class="node">
<title>Node0</title>
<g id="a_node1"><a xlink:title=" ">
<polygon fill="#bfbfbf" stroke="#000000" points="805,-392.5 805,-411.5 919,-411.5 919,-392.5 805,-392.5"/>
<text text-anchor="middle" x="862" y="-399.5" font-family="Helvetica,sans-Serif" font-size="10.00" fill="#000000">main/parser/token.c</text>
</a>
</g>
</g>
<!-- Node1 -->
<g id="node2" class="node">
<title>Node1</title>
<g id="a_node2"><a xlink:href="builtins_8h.html" target="_top" xlink:title=" ">
<polygon fill="#ffffff" stroke="#000000" points="430,-280.5 430,-299.5 492,-299.5 492,-280.5 430,-280.5"/>
<text text-anchor="middle" x="461" y="-287.5" font-family="Helvetica,sans-Serif" font-size="10.00" fill="#000000">builtins.h</text>
</a>
</g>
</g>
<!-- Node0&#45;&gt;Node1 -->
<g id="edge1" class="edge">
<title>Node0&#45;&gt;Node1</title>
<path fill="none" stroke="#191970" d="M804.5938,-392.6309C759.2091,-384.6327 694.4787,-371.908 639,-356 586.7285,-341.0116 527.8991,-317.929 492.6763,-303.4109"/>
<polygon fill="#191970" stroke="#191970" points="493.9705,-300.1586 483.3927,-299.557 491.2866,-306.6237 493.9705,-300.1586"/>
</g>
<!-- Node7 -->
<g id="node8" class="node">
<title>Node7</title>
<g id="a_node8"><a xlink:title=" ">
<polygon fill="#ffffff" stroke="#bfbfbf" points="749,-.5 749,-19.5 811,-19.5 811,-.5 749,-.5"/>
<text text-anchor="middle" x="780" y="-7.5" font-family="Helvetica,sans-Serif" font-size="10.00" fill="#000000">stdbool.h</text>
</a>
</g>
</g>
<!-- Node0&#45;&gt;Node7 -->
<g id="edge29" class="edge">
<title>Node0&#45;&gt;Node7</title>
<path fill="none" stroke="#191970" d="M915.4879,-392.4356C938.4905,-385.787 963.9531,-374.6277 981,-356 1001.6076,-333.4815 1000,-320.5246 1000,-290 1000,-290 1000,-290 1000,-122 1000,-42.6291 884.8723,-19.4815 821.1837,-12.7488"/>
<polygon fill="#191970" stroke="#191970" points="821.3443,-9.2481 811.054,-11.7701 820.6711,-16.2157 821.3443,-9.2481"/>
</g>
<!-- Node9 -->
<g id="node10" class="node">
<title>Node9</title>
<g id="a_node10"><a xlink:title=" ">
<polygon fill="#ffffff" stroke="#bfbfbf" points="30.5,-.5 30.5,-19.5 83.5,-19.5 83.5,-.5 30.5,-.5"/>
<text text-anchor="middle" x="57" y="-7.5" font-family="Helvetica,sans-Serif" font-size="10.00" fill="#000000">stdint.h</text>
</a>
</g>
</g>
<!-- Node0&#45;&gt;Node9 -->
<g id="edge30" class="edge">
<title>Node0&#45;&gt;Node9</title>
<path fill="none" stroke="#191970" d="M804.7742,-400.6011C612.2502,-395.1456 0,-371.3975 0,-290 0,-290 0,-290 0,-122 0,-85.1826 24.7675,-48.2377 41.6501,-27.3313"/>
<polygon fill="#191970" stroke="#191970" points="44.3511,-29.5574 48.0938,-19.6456 38.9869,-25.06 44.3511,-29.5574"/>
</g>
<!-- Node10 -->
<g id="node11" class="node">
<title>Node10</title>
<g id="a_node11"><a xlink:title=" ">
<polygon fill="#ffffff" stroke="#bfbfbf" points="808.5,-56.5 808.5,-75.5 861.5,-75.5 861.5,-56.5 808.5,-56.5"/>
<text text-anchor="middle" x="835" y="-63.5" font-family="Helvetica,sans-Serif" font-size="10.00" fill="#000000">stdlib.h</text>
</a>
</g>
</g>
<!-- Node0&#45;&gt;Node10 -->
<g id="edge32" class="edge">
<title>Node0&#45;&gt;Node10</title>
<path fill="none" stroke="#191970" d="M868.8146,-392.3025C885.6775,-367.3258 928,-298.2402 928,-234 928,-234 928,-234 928,-178 928,-135.3531 887.5955,-100.267 860.0504,-81.3028"/>
<polygon fill="#191970" stroke="#191970" points="861.8963,-78.3273 851.6265,-75.7229 858.0307,-84.1632 861.8963,-78.3273"/>
</g>
<!-- Node17 -->
<g id="node18" class="node">
<title>Node17</title>
<g id="a_node18"><a xlink:title=" ">
<polygon fill="#ffffff" stroke="#bfbfbf" points="922,-336.5 922,-355.5 972,-355.5 972,-336.5 922,-336.5"/>
<text text-anchor="middle" x="947" y="-343.5" font-family="Helvetica,sans-Serif" font-size="10.00" fill="#000000">stdio.h</text>
</a>
</g>
</g>
<!-- Node0&#45;&gt;Node17 -->
<g id="edge31" class="edge">
<title>Node0&#45;&gt;Node17</title>
<path fill="none" stroke="#191970" d="M876.8059,-392.2455C889.7256,-383.7337 908.6931,-371.2375 923.6552,-361.3801"/>
<polygon fill="#191970" stroke="#191970" points="925.9387,-364.067 932.3638,-355.6427 922.0876,-358.2216 925.9387,-364.067"/>
</g>
<!-- Node18 -->
<g id="node19" class="node">
<title>Node18</title>
<g id="a_node19"><a xlink:href="token_8h.html" target="_top" xlink:title=" ">
<polygon fill="#ffffff" stroke="#000000" points="647.5,-336.5 647.5,-355.5 700.5,-355.5 700.5,-336.5 647.5,-336.5"/>
<text text-anchor="middle" x="674" y="-343.5" font-family="Helvetica,sans-Serif" font-size="10.00" fill="#000000">token.h</text>
</a>
</g>
</g>
<!-- Node0&#45;&gt;Node18 -->
<g id="edge33" class="edge">
<title>Node0&#45;&gt;Node18</title>
<path fill="none" stroke="#191970" d="M829.6816,-392.3733C796.5251,-382.4968 745.037,-367.16 710.4488,-356.8571"/>
<polygon fill="#191970" stroke="#191970" points="711.3169,-353.4638 700.7338,-353.9633 709.3185,-360.1725 711.3169,-353.4638"/>
</g>
<!-- Node2 -->
<g id="node3" class="node">
<title>Node2</title>
<g id="a_node3"><a xlink:href="builtinutils_8h.html" target="_top" xlink:title=" ">
<polygon fill="#ffffff" stroke="#000000" points="140.5,-.5 140.5,-19.5 217.5,-19.5 217.5,-.5 140.5,-.5"/>
<text text-anchor="middle" x="179" y="-7.5" font-family="Helvetica,sans-Serif" font-size="10.00" fill="#000000">builtinutils.h</text>
</a>
</g>
</g>
<!-- Node1&#45;&gt;Node2 -->
<g id="edge2" class="edge">
<title>Node1&#45;&gt;Node2</title>
<path fill="none" stroke="#191970" d="M429.7435,-288.0432C350.0261,-282.7358 143.9965,-266.9115 124,-244 68.5234,-180.4365 134.9681,-71.334 165.3666,-28.2588"/>
<polygon fill="#191970" stroke="#191970" points="168.3953,-30.0432 171.4135,-19.8873 162.7208,-25.9444 168.3953,-30.0432"/>
</g>
<!-- Node3 -->
<g id="node4" class="node">
<title>Node3</title>
<g id="a_node4"><a xlink:href="helios__boolean_8h.html" target="_top" xlink:title=" ">
<polygon fill="#ffffff" stroke="#000000" points="762.5,-224.5 762.5,-243.5 861.5,-243.5 861.5,-224.5 762.5,-224.5"/>
<text text-anchor="middle" x="812" y="-231.5" font-family="Helvetica,sans-Serif" font-size="10.00" fill="#000000">helios_boolean.h</text>
</a>
</g>
</g>
<!-- Node1&#45;&gt;Node3 -->
<g id="edge3" class="edge">
<title>Node1&#45;&gt;Node3</title>
<path fill="none" stroke="#191970" d="M492.1489,-285.0304C550.3969,-275.7372 676.7127,-255.5843 752.006,-243.5717"/>
<polygon fill="#191970" stroke="#191970" points="752.9555,-246.9646 762.2792,-241.9327 751.8526,-240.052 752.9555,-246.9646"/>
</g>
<!-- Node4 -->
<g id="node5" class="node">
<title>Node4</title>
<g id="a_node5"><a xlink:href="helios__object_8h.html" target="_top" xlink:title=" ">
<polygon fill="#ffffff" stroke="#000000" points="345,-168.5 345,-187.5 435,-187.5 435,-168.5 345,-168.5"/>
<text text-anchor="middle" x="390" y="-175.5" font-family="Helvetica,sans-Serif" font-size="10.00" fill="#000000">helios_object.h</text>
</a>
</g>
</g>
<!-- Node1&#45;&gt;Node4 -->
<g id="edge23" class="edge">
<title>Node1&#45;&gt;Node4</title>
<path fill="none" stroke="#191970" d="M429.947,-286.797C382.5413,-281.1947 295.6429,-267.8774 277,-244 256.4644,-217.6985 296.6885,-199.852 334.7124,-189.4162"/>
<polygon fill="#191970" stroke="#191970" points="336.0087,-192.6958 344.8085,-186.7953 334.2498,-185.9204 336.0087,-192.6958"/>
</g>
<!-- Node6 -->
<g id="node7" class="node">
<title>Node6</title>
<g id="a_node7"><a xlink:href="helios__memory_8h.html" target="_top" xlink:title=" ">
<polygon fill="#ffffff" stroke="#000000" points="292,-56.5 292,-75.5 392,-75.5 392,-56.5 292,-56.5"/>
<text text-anchor="middle" x="342" y="-63.5" font-family="Helvetica,sans-Serif" font-size="10.00" fill="#000000">helios_memory.h</text>
</a>
</g>
</g>
<!-- Node1&#45;&gt;Node6 -->
<g id="edge26" class="edge">
<title>Node1&#45;&gt;Node6</title>
<path fill="none" stroke="#191970" d="M492.1483,-289.1404C553.5962,-286.7189 686.9196,-277.6226 715,-244 720.6979,-237.1775 719.9089,-231.4105 715,-224 645.0233,-118.3625 488.7815,-83.1574 402.3665,-71.57"/>
<polygon fill="#191970" stroke="#191970" points="402.5473,-68.0648 392.1847,-70.2708 401.6613,-75.0085 402.5473,-68.0648"/>
</g>
<!-- Node11 -->
<g id="node12" class="node">
<title>Node11</title>
<g id="a_node12"><a xlink:href="helios__code_8h.html" target="_top" xlink:title=" ">
<polygon fill="#ffffff" stroke="#000000" points="286.5,-224.5 286.5,-243.5 369.5,-243.5 369.5,-224.5 286.5,-224.5"/>
<text text-anchor="middle" x="328" y="-231.5" font-family="Helvetica,sans-Serif" font-size="10.00" fill="#000000">helios_code.h</text>
</a>
</g>
</g>
<!-- Node1&#45;&gt;Node11 -->
<g id="edge14" class="edge">
<title>Node1&#45;&gt;Node11</title>
<path fill="none" stroke="#191970" d="M438.1365,-280.3733C416.595,-271.3032 384.1162,-257.6279 360.0044,-247.4755"/>
<polygon fill="#191970" stroke="#191970" points="361.1397,-244.156 350.5652,-243.5011 358.4233,-250.6075 361.1397,-244.156"/>
</g>
<!-- Node12 -->
<g id="node13" class="node">
<title>Node12</title>
<g id="a_node13"><a xlink:href="helios__float_8h.html" target="_top" xlink:title=" ">
<polygon fill="#ffffff" stroke="#000000" points="388,-224.5 388,-243.5 470,-243.5 470,-224.5 388,-224.5"/>
<text text-anchor="middle" x="429" y="-231.5" font-family="Helvetica,sans-Serif" font-size="10.00" fill="#000000">helios_float.h</text>
</a>
</g>
</g>
<!-- Node1&#45;&gt;Node12 -->
<g id="edge16" class="edge">
<title>Node1&#45;&gt;Node12</title>
<path fill="none" stroke="#191970" d="M455.426,-280.2455C451.0669,-272.617 444.8789,-261.7881 439.5867,-252.5267"/>
<polygon fill="#191970" stroke="#191970" points="442.5104,-250.5886 434.5101,-243.6427 436.4327,-254.0616 442.5104,-250.5886"/>
</g>
<!-- Node13 -->
<g id="node14" class="node">
<title>Node13</title>
<g id="a_node14"><a xlink:href="helios__hashmap_8h.html" target="_top" xlink:title=" ">
<polygon fill="#ffffff" stroke="#000000" points="600.5,-224.5 600.5,-243.5 705.5,-243.5 705.5,-224.5 600.5,-224.5"/>
<text text-anchor="middle" x="653" y="-231.5" font-family="Helvetica,sans-Serif" font-size="10.00" fill="#000000">helios_hashmap.h</text>
</a>
</g>
</g>
<!-- Node1&#45;&gt;Node13 -->
<g id="edge18" class="edge">
<title>Node1&#45;&gt;Node13</title>
<path fill="none" stroke="#191970" d="M492.2754,-280.878C524.4251,-271.501 574.7027,-256.8367 610.4572,-246.4083"/>
<polygon fill="#191970" stroke="#191970" points="611.5096,-249.7473 620.1296,-243.5872 609.5496,-243.0273 611.5096,-249.7473"/>
</g>
<!-- Node14 -->
<g id="node15" class="node">
<title>Node14</title>
<g id="a_node15"><a xlink:href="helios__integer_8h.html" target="_top" xlink:title=" ">
<polygon fill="#ffffff" stroke="#000000" points="488,-224.5 488,-243.5 582,-243.5 582,-224.5 488,-224.5"/>
<text text-anchor="middle" x="535" y="-231.5" font-family="Helvetica,sans-Serif" font-size="10.00" fill="#000000">helios_integer.h</text>
</a>
</g>
</g>
<!-- Node1&#45;&gt;Node14 -->
<g id="edge21" class="edge">
<title>Node1&#45;&gt;Node14</title>
<path fill="none" stroke="#191970" d="M473.8898,-280.2455C484.9254,-271.8943 501.0292,-259.7076 513.9353,-249.9408"/>
<polygon fill="#191970" stroke="#191970" points="516.3959,-252.4681 522.2579,-243.6427 512.1717,-246.8862 516.3959,-252.4681"/>
</g>
<!-- Node15 -->
<g id="node16" class="node">
<title>Node15</title>
<g id="a_node16"><a xlink:href="helios__string_8h.html" target="_top" xlink:title=" ">
<polygon fill="#ffffff" stroke="#000000" points="142,-224.5 142,-243.5 230,-243.5 230,-224.5 142,-224.5"/>
<text text-anchor="middle" x="186" y="-231.5" font-family="Helvetica,sans-Serif" font-size="10.00" fill="#000000">helios_string.h</text>
</a>
</g>
</g>
<!-- Node1&#45;&gt;Node15 -->
<g id="edge24" class="edge">
<title>Node1&#45;&gt;Node15</title>
<path fill="none" stroke="#191970" d="M429.9886,-283.6849C383.8745,-274.2945 296.5866,-256.5195 239.8839,-244.9727"/>
<polygon fill="#191970" stroke="#191970" points="240.514,-241.5293 230.0167,-242.9634 239.1172,-248.3885 240.514,-241.5293"/>
</g>
<!-- Node16 -->
<g id="node17" class="node">
<title>Node16</title>
<g id="a_node17"><a xlink:href="serialize_8h.html" target="_top" xlink:title=" ">
<polygon fill="#ffffff" stroke="#000000" points="181.5,-168.5 181.5,-187.5 248.5,-187.5 248.5,-168.5 181.5,-168.5"/>
<text text-anchor="middle" x="215" y="-175.5" font-family="Helvetica,sans-Serif" font-size="10.00" fill="#000000">serialize.h</text>
</a>
</g>
</g>
<!-- Node1&#45;&gt;Node16 -->
<g id="edge27" class="edge">
<title>Node1&#45;&gt;Node16</title>
<path fill="none" stroke="#191970" d="M429.7223,-287.9184C351.5197,-282.3974 152.3606,-266.2653 133,-244 114.6598,-222.9082 147.5039,-203.4605 176.9187,-191.221"/>
<polygon fill="#191970" stroke="#191970" points="178.2747,-194.4485 186.2792,-187.5075 175.6933,-187.9419 178.2747,-194.4485"/>
</g>
<!-- Node3&#45;&gt;Node4 -->
<g id="edge4" class="edge">
<title>Node3&#45;&gt;Node4</title>
<path fill="none" stroke="#191970" d="M762.3503,-227.4114C682.9771,-216.8785 528.0438,-196.3186 445.2625,-185.3334"/>
<polygon fill="#191970" stroke="#191970" points="445.6652,-181.8562 435.2916,-184.0103 444.7443,-188.7954 445.6652,-181.8562"/>
</g>
<!-- Node3&#45;&gt;Node7 -->
<g id="edge13" class="edge">
<title>Node3&#45;&gt;Node7</title>
<path fill="none" stroke="#191970" d="M810.625,-224.375C805.7733,-190.4133 789.3925,-75.7472 782.7913,-29.5392"/>
<polygon fill="#191970" stroke="#191970" points="786.249,-28.9936 781.3699,-19.5891 779.3194,-29.9836 786.249,-28.9936"/>
</g>
<!-- Node5 -->
<g id="node6" class="node">
<title>Node5</title>
<g id="a_node6"><a xlink:href="helios__type_8h.html" target="_top" xlink:title=" ">
<polygon fill="#ffffff" stroke="#000000" points="301,-112.5 301,-131.5 383,-131.5 383,-112.5 301,-112.5"/>
<text text-anchor="middle" x="342" y="-119.5" font-family="Helvetica,sans-Serif" font-size="10.00" fill="#000000">helios_type.h</text>
</a>
</g>
</g>
<!-- Node4&#45;&gt;Node5 -->
<g id="edge5" class="edge">
<title>Node4&#45;&gt;Node5</title>
<path fill="none" stroke="#191970" d="M381.639,-168.2455C374.825,-160.2958 365.0319,-148.8706 356.8848,-139.3656"/>
<polygon fill="#191970" stroke="#191970" points="359.4305,-136.9575 350.2651,-131.6427 354.1157,-141.513 359.4305,-136.9575"/>
</g>
<!-- Node5&#45;&gt;Node6 -->
<g id="edge6" class="edge">
<title>Node5&#45;&gt;Node6</title>
<path fill="none" stroke="#191970" d="M342,-112.2455C342,-104.9382 342,-94.6944 342,-85.7046"/>
<polygon fill="#191970" stroke="#191970" points="345.5001,-85.6426 342,-75.6427 338.5001,-85.6427 345.5001,-85.6426"/>
</g>
<!-- Node5&#45;&gt;Node9 -->
<g id="edge11" class="edge">
<title>Node5&#45;&gt;Node9</title>
<path fill="none" stroke="#191970" d="M317.7011,-112.4509C266.8012,-92.4482 148.8915,-46.1117 90.7107,-23.2477"/>
<polygon fill="#191970" stroke="#191970" points="91.8247,-19.925 81.2374,-19.5249 89.2644,-26.44 91.8247,-19.925"/>
</g>
<!-- Node5&#45;&gt;Node10 -->
<g id="edge12" class="edge">
<title>Node5&#45;&gt;Node10</title>
<path fill="none" stroke="#191970" d="M383.1849,-117.3218C477.5703,-106.6005 708.282,-80.3939 798.2369,-70.1759"/>
<polygon fill="#191970" stroke="#191970" points="798.7017,-73.6457 808.2427,-69.0394 797.9116,-66.6905 798.7017,-73.6457"/>
</g>
<!-- Node6&#45;&gt;Node2 -->
<g id="edge7" class="edge">
<title>Node6&#45;&gt;Node2</title>
<path fill="none" stroke="#191970" d="M313.9793,-56.3733C286.9922,-47.1016 245.9983,-33.0178 216.2689,-22.804"/>
<polygon fill="#191970" stroke="#191970" points="217.2497,-19.4403 206.6551,-19.5011 214.9752,-26.0605 217.2497,-19.4403"/>
</g>
<!-- Node6&#45;&gt;Node7 -->
<g id="edge8" class="edge">
<title>Node6&#45;&gt;Node7</title>
<path fill="none" stroke="#191970" d="M392.2442,-59.5761C479.554,-48.4132 657.6631,-25.6412 738.4734,-15.3093"/>
<polygon fill="#191970" stroke="#191970" points="739.2773,-18.7351 748.7527,-13.9951 738.3895,-11.7917 739.2773,-18.7351"/>
</g>
<!-- Node8 -->
<g id="node9" class="node">
<title>Node8</title>
<g id="a_node9"><a xlink:title=" ">
<polygon fill="#ffffff" stroke="#bfbfbf" points="314,-.5 314,-19.5 370,-19.5 370,-.5 314,-.5"/>
<text text-anchor="middle" x="342" y="-7.5" font-family="Helvetica,sans-Serif" font-size="10.00" fill="#000000">stddef.h</text>
</a>
</g>
</g>
<!-- Node6&#45;&gt;Node8 -->
<g id="edge9" class="edge">
<title>Node6&#45;&gt;Node8</title>
<path fill="none" stroke="#191970" d="M342,-56.2455C342,-48.9382 342,-38.6944 342,-29.7046"/>
<polygon fill="#191970" stroke="#191970" points="345.5001,-29.6426 342,-19.6427 338.5001,-29.6427 345.5001,-29.6426"/>
</g>
<!-- Node6&#45;&gt;Node9 -->
<g id="edge10" class="edge">
<title>Node6&#45;&gt;Node9</title>
<path fill="none" stroke="#191970" d="M293.3306,-56.4369C236.6621,-45.302 144.3553,-27.1646 93.4967,-17.1713"/>
<polygon fill="#191970" stroke="#191970" points="94.0878,-13.7206 83.6006,-15.2268 92.7381,-20.5892 94.0878,-13.7206"/>
</g>
<!-- Node11&#45;&gt;Node4 -->
<g id="edge15" class="edge">
<title>Node11&#45;&gt;Node4</title>
<path fill="none" stroke="#191970" d="M338.7996,-224.2455C347.8678,-216.0549 361.0206,-204.1749 371.7245,-194.5069"/>
<polygon fill="#191970" stroke="#191970" points="374.2491,-196.9429 379.3242,-187.6427 369.5571,-191.7482 374.2491,-196.9429"/>
</g>
<!-- Node12&#45;&gt;Node4 -->
<g id="edge17" class="edge">
<title>Node12&#45;&gt;Node4</title>
<path fill="none" stroke="#191970" d="M422.2067,-224.2455C416.7822,-216.4564 409.0339,-205.3308 402.4967,-195.9439"/>
<polygon fill="#191970" stroke="#191970" points="405.3025,-193.8485 396.7154,-187.6427 399.5583,-197.849 405.3025,-193.8485"/>
</g>
<!-- Node13&#45;&gt;Node4 -->
<g id="edge19" class="edge">
<title>Node13&#45;&gt;Node4</title>
<path fill="none" stroke="#191970" d="M608.0875,-224.4369C562.888,-214.8127 493.1193,-199.957 444.7153,-189.6504"/>
<polygon fill="#191970" stroke="#191970" points="445.2369,-186.1831 434.7272,-187.5237 443.779,-193.0296 445.2369,-186.1831"/>
</g>
<!-- Node13&#45;&gt;Node7 -->
<g id="edge20" class="edge">
<title>Node13&#45;&gt;Node7</title>
<path fill="none" stroke="#191970" d="M658.457,-224.375C677.875,-190.1261 743.8265,-73.802 769.5782,-28.3817"/>
<polygon fill="#191970" stroke="#191970" points="772.6759,-30.0145 774.5633,-19.5891 766.5865,-26.562 772.6759,-30.0145"/>
</g>
<!-- Node14&#45;&gt;Node4 -->
<g id="edge22" class="edge">
<title>Node14&#45;&gt;Node4</title>
<path fill="none" stroke="#191970" d="M510.0736,-224.3733C486.3798,-215.2226 450.5489,-201.3844 424.1932,-191.2057"/>
<polygon fill="#191970" stroke="#191970" points="425.1906,-187.8389 414.6011,-187.5011 422.6686,-194.3689 425.1906,-187.8389"/>
</g>
<!-- Node15&#45;&gt;Node4 -->
<g id="edge25" class="edge">
<title>Node15&#45;&gt;Node4</title>
<path fill="none" stroke="#191970" d="M221.0689,-224.3733C255.4315,-214.9404 307.9392,-200.5265 345.2851,-190.2747"/>
<polygon fill="#191970" stroke="#191970" points="346.672,-193.5235 355.3888,-187.5011 344.819,-186.7732 346.672,-193.5235"/>
</g>
<!-- Node16&#45;&gt;Node5 -->
<g id="edge28" class="edge">
<title>Node16&#45;&gt;Node5</title>
<path fill="none" stroke="#191970" d="M236.8321,-168.3733C257.3103,-159.3435 288.1399,-145.7494 311.1319,-135.6111"/>
<polygon fill="#191970" stroke="#191970" points="312.715,-138.7383 320.4528,-131.5011 309.8907,-132.3333 312.715,-138.7383"/>
</g>
<!-- Node18&#45;&gt;Node1 -->
<g id="edge34" class="edge">
<title>Node18&#45;&gt;Node1</title>
<path fill="none" stroke="#191970" d="M647.4541,-339.0208C610.9059,-329.4119 544.7527,-312.0195 501.8688,-300.7448"/>
<polygon fill="#191970" stroke="#191970" points="502.5921,-297.3161 492.0308,-298.1583 500.8121,-304.0861 502.5921,-297.3161"/>
</g>
<!-- Node18&#45;&gt;Node7 -->
<g id="edge35" class="edge">
<title>Node18&#45;&gt;Node7</title>
<path fill="none" stroke="#191970" d="M700.9198,-344.3562C758.8224,-339.216 890,-318.2716 890,-234 890,-234 890,-234 890,-122 890,-91.4754 890.4661,-79.5122 871,-56 858.0457,-40.3531 838.421,-29.4911 820.7085,-22.2681"/>
<polygon fill="#191970" stroke="#191970" points="821.7105,-18.9047 811.1194,-18.6224 819.2228,-25.4478 821.7105,-18.9047"/>
</g>
<!-- Node18&#45;&gt;Node9 -->
<g id="edge36" class="edge">
<title>Node18&#45;&gt;Node9</title>
<path fill="none" stroke="#191970" d="M647.4816,-344.1882C527.1138,-335.6187 38,-296.9249 38,-234 38,-234 38,-234 38,-122 38,-89.2688 45.9852,-51.9052 51.6022,-29.6716"/>
<polygon fill="#191970" stroke="#191970" points="55.0415,-30.3545 54.1965,-19.7934 48.2711,-28.5763 55.0415,-30.3545"/>
</g>
</g>
</svg>
        <g id="navigator" transform="translate(0 0)" fill="#404254">
                <rect fill="#f2f5e9" fill-opacity="0.5" stroke="#606060" stroke-width=".5" x="0" y="0" width="60" height="60"/>
                <use id="zoomplus" xlink:href="#zoomPlus" x="17" y="9" onmousedown="handleZoom(evt,'in')"/>
                <use id="zoomminus" xlink:href="#zoomMin" x="42" y="9" onmousedown="handleZoom(evt,'out')"/>
                <use id="reset" xlink:href="#resetDef" x="30" y="36" onmousedown="handleReset()"/>
                <g id="arrowUp" xlink:href="#dirArrow" transform="translate(30 24)" onmousedown="handlePan(0,-1)">
                  <use xlink:href="#rim" fill="#404040">
                        <set attributeName="fill" to="#808080" begin="arrowUp.mouseover" end="arrowUp.mouseout"/>
                  </use>
                  <path fill="none" stroke="white" stroke-width="1.5" d="M0,-3.0v7 M-2.5,-0.5L0,-3.0L2.5,-0.5"/>
                </g>
                <g id="arrowRight" xlink:href="#dirArrow" transform="rotate(90) translate(36 -43)" onmousedown="handlePan(1,0)">
                  <use xlink:href="#rim" fill="#404040">
                        <set attributeName="fill" to="#808080" begin="arrowRight.mouseover" end="arrowRight.mouseout"/>
                  </use>
                  <path fill="none" stroke="white" stroke-width="1.5" d="M0,-3.0v7 M-2.5,-0.5L0,-3.0L2.5,-0.5"/>
                </g>
                <g id="arrowDown" xlink:href="#dirArrow" transform="rotate(180) translate(-30 -48)" onmousedown="handlePan(0,1)">
                  <use xlink:href="#rim" fill="#404040">
                        <set attributeName="fill" to="#808080" begin="arrowDown.mouseover" end="arrowDown.mouseout"/>
                  </use>
                  <path fill="none" stroke="white" stroke-width="1.5" d="M0,-3.0v7 M-2.5,-0.5L0,-3.0L2.5,-0.5"/>
                </g>
                <g id="arrowLeft" xlink:href="#dirArrow" transform="rotate(270) translate(-36 17)" onmousedown="handlePan(-1,0)">
                  <use xlink:href="#rim" fill="#404040">
                        <set attributeName="fill" to="#808080" begin="arrowLeft.mouseover" end="arrowLeft.mouseout"/>
                  </use>
                  <path fill="none" stroke="white" stroke-width="1.5" d="M0,-3.0v7 M-2.5,-0.5L0,-3.0L2.5,-0.5"/>
                </g>
        </g>
        <svg viewBox="0 0 15 15" width="100%" height="30px" preserveAspectRatio="xMaxYMin meet">
         <g id="arrow_out" transform="scale(0.3 0.3)">
          <a xlink:href="token_8c__incl_org.svg" target="_base">
           <rect id="button" ry="5" rx="5" y="6" x="6" height="38" width="38"
                fill="#f2f5e9" fill-opacity="0.5" stroke="#606060" stroke-width="1.0"/>
           <path id="arrow"
             d="M 11.500037,31.436501 C 11.940474,20.09759 22.043105,11.32322 32.158766,21.979434 L 37.068811,17.246167 C 37.068811,17.246167 37.088388,32 37.088388,32 L 22.160133,31.978069 C 22.160133,31.978069 26.997745,27.140456 26.997745,27.140456 C 18.528582,18.264221 13.291696,25.230495 11.500037,31.436501 z"
             style="fill:#404040;"/>
          </a>
         </g>
        </svg>
</svg>
