<?xml version="1.0" encoding="UTF-8" standalone="no"?>
<!DOCTYPE svg PUBLIC "-//W3C//DTD SVG 1.1//EN"
 "http://www.w3.org/Graphics/SVG/1.1/DTD/svg11.dtd">
<!-- Generated by graphviz version 2.40.1 (20161225.0304)
 -->
<!-- Title: parser/token.c Pages: 1 -->
<svg width="231pt" height="140pt"
 viewBox="0.00 0.00 230.86 140.00" xmlns="http://www.w3.org/2000/svg" xmlns:xlink="http://www.w3.org/1999/xlink">
<g id="graph0" class="graph" transform="scale(1 1) rotate(0) translate(4 136)">
<title>parser/token.c</title>
<polygon fill="#ffffff" stroke="transparent" points="-4,4 -4,-136 226.8591,-136 226.8591,4 -4,4"/>
<!-- Node0 -->
<g id="node1" class="node">
<title>Node0</title>
<g id="a_node1"><a xlink:title=" ">
<polygon fill="#bfbfbf" stroke="#000000" points="81.5,-112.5 81.5,-131.5 160.5,-131.5 160.5,-112.5 81.5,-112.5"/>
<text text-anchor="middle" x="121" y="-119.5" font-family="Helvetica,sans-Serif" font-size="10.00" fill="#000000">parser/token.c</text>
</a>
</g>
</g>
<!-- Node1 -->
<g id="node2" class="node">
<title>Node1</title>
<g id="a_node2"><a xlink:title=" ">
<polygon fill="#ffffff" stroke="#bfbfbf" points="0,-.5 0,-19.5 56,-19.5 56,-.5 0,-.5"/>
<text text-anchor="middle" x="28" y="-7.5" font-family="Helvetica,sans-Serif" font-size="10.00" fill="#000000">stdbool.h</text>
</a>
</g>
</g>
<!-- Node0&#45;&gt;Node1 -->
<g id="edge1" class="edge">
<title>Node0&#45;&gt;Node1</title>
<path fill="none" stroke="#191970" d="M81.4052,-114.5947C59.5875,-108.2748 34.2993,-96.7566 21,-76 12.1826,-62.2384 15.2852,-43.4647 19.8056,-29.4579"/>
<polygon fill="#191970" stroke="#191970" points="23.1774,-30.4311 23.3648,-19.8379 16.6123,-28.0021 23.1774,-30.4311"/>
</g>
<!-- Node2 -->
<g id="node3" class="node">
<title>Node2</title>
<g id="a_node3"><a xlink:title=" ">
<polygon fill="#ffffff" stroke="#bfbfbf" points="143.5,-.5 143.5,-19.5 192.5,-19.5 192.5,-.5 143.5,-.5"/>
<text text-anchor="middle" x="168" y="-7.5" font-family="Helvetica,sans-Serif" font-size="10.00" fill="#000000">stdint.h</text>
</a>
</g>
</g>
<!-- Node0&#45;&gt;Node2 -->
<g id="edge2" class="edge">
<title>Node0&#45;&gt;Node2</title>
<path fill="none" stroke="#191970" d="M160.5741,-114.1542C181.7908,-107.7163 206.1499,-96.2269 219,-76 230.5444,-57.8283 211.4792,-38.5032 193.4639,-25.4931"/>
<polygon fill="#191970" stroke="#191970" points="195.0838,-22.3627 184.843,-19.6464 191.1546,-28.1561 195.0838,-22.3627"/>
</g>
<!-- Node3 -->
<g id="node4" class="node">
<title>Node3</title>
<g id="a_node4"><a xlink:title=" ">
<polygon fill="#ffffff" stroke="#bfbfbf" points="98,-56.5 98,-75.5 144,-75.5 144,-56.5 98,-56.5"/>
<text text-anchor="middle" x="121" y="-63.5" font-family="Helvetica,sans-Serif" font-size="10.00" fill="#000000">stdio.h</text>
</a>
</g>
</g>
<!-- Node0&#45;&gt;Node3 -->
<g id="edge3" class="edge">
<title>Node0&#45;&gt;Node3</title>
<path fill="none" stroke="#191970" d="M121,-112.2455C121,-104.9382 121,-94.6944 121,-85.7046"/>
<polygon fill="#191970" stroke="#191970" points="124.5001,-85.6426 121,-75.6427 117.5001,-85.6427 124.5001,-85.6426"/>
</g>
<!-- Node4 -->
<g id="node5" class="node">
<title>Node4</title>
<g id="a_node5"><a xlink:title=" ">
<polygon fill="#ffffff" stroke="#bfbfbf" points="162,-56.5 162,-75.5 210,-75.5 210,-56.5 162,-56.5"/>
<text text-anchor="middle" x="186" y="-63.5" font-family="Helvetica,sans-Serif" font-size="10.00" fill="#000000">stdlib.h</text>
</a>
</g>
</g>
<!-- Node0&#45;&gt;Node4 -->
<g id="edge4" class="edge">
<title>Node0&#45;&gt;Node4</title>
<path fill="none" stroke="#191970" d="M132.3221,-112.2455C141.9223,-103.9746 155.8892,-91.9416 167.1695,-82.2232"/>
<polygon fill="#191970" stroke="#191970" points="169.516,-84.8214 174.8076,-75.6427 164.947,-79.5182 169.516,-84.8214"/>
</g>
<!-- Node5 -->
<g id="node6" class="node">
<title>Node5</title>
<g id="a_node6"><a xlink:href="token_8h.html" target="_top" xlink:title=" ">
<polygon fill="#ffffff" stroke="#000000" points="30.5,-56.5 30.5,-75.5 79.5,-75.5 79.5,-56.5 30.5,-56.5"/>
<text text-anchor="middle" x="55" y="-63.5" font-family="Helvetica,sans-Serif" font-size="10.00" fill="#000000">token.h</text>
</a>
</g>
</g>
<!-- Node0&#45;&gt;Node5 -->
<g id="edge5" class="edge">
<title>Node0&#45;&gt;Node5</title>
<path fill="none" stroke="#191970" d="M109.5037,-112.2455C99.7558,-103.9746 85.5741,-91.9416 74.1202,-82.2232"/>
<polygon fill="#191970" stroke="#191970" points="76.2541,-79.4437 66.3646,-75.6427 71.7253,-84.7813 76.2541,-79.4437"/>
</g>
<!-- Node5&#45;&gt;Node1 -->
<g id="edge6" class="edge">
<title>Node5&#45;&gt;Node1</title>
<path fill="none" stroke="#191970" d="M50.297,-56.2455C46.6576,-48.6973 41.5076,-38.0158 37.0738,-28.8197"/>
<polygon fill="#191970" stroke="#191970" points="40.1449,-27.1303 32.6491,-19.6427 33.8395,-30.1704 40.1449,-27.1303"/>
</g>
<!-- Node5&#45;&gt;Node2 -->
<g id="edge7" class="edge">
<title>Node5&#45;&gt;Node2</title>
<path fill="none" stroke="#191970" d="M74.4254,-56.3733C92.4021,-47.4644 119.3441,-34.1127 139.709,-24.0203"/>
<polygon fill="#191970" stroke="#191970" points="141.4222,-27.0776 148.8281,-19.5011 138.3139,-20.8055 141.4222,-27.0776"/>
</g>
</g>
</svg>
