<?xml version="1.0" encoding="UTF-8" standalone="no"?>
<!DOCTYPE svg PUBLIC "-//W3C//DTD SVG 1.1//EN"
 "http://www.w3.org/Graphics/SVG/1.1/DTD/svg11.dtd">
<!-- Generated by graphviz version 2.40.1 (20161225.0304)
 -->
<!-- Title: parser/include/token.h Pages: 1 -->
<!--zoomable 364 -->
<svg id="main" version="1.1" xmlns="http://www.w3.org/2000/svg" xmlns:xlink="http://www.w3.org/1999/xlink" xml:space="preserve" onload="init(evt)">
<style type="text/css"><![CDATA[
.edge:hover path { stroke: red; }
.edge:hover polygon { stroke: red; fill: red; }
]]></style>
<script type="text/javascript"><![CDATA[
var edges = document.getElementsByTagName('g');
if (edges && edges.length) {
  for (var i=0;i<edges.length;i++) {
    if (edges[i].id.substr(0,4)=='edge') {
      edges[i].setAttribute('class','edge');
    }
  }
}
]]></script>
        <defs>
                <circle id="rim" cx="0" cy="0" r="7"/>
                <circle id="rim2" cx="0" cy="0" r="3.5"/>
                <g id="zoomPlus">
                        <use xlink:href="#rim" fill="#404040">
                                <set attributeName="fill" to="#808080" begin="zoomplus.mouseover" end="zoomplus.mouseout"/>
                        </use>
                        <path d="M-4,0h8M0,-4v8" fill="none" stroke="white" stroke-width="1.5" pointer-events="none"/>
                </g>
                <g id="zoomMin">
                        <use xlink:href="#rim" fill="#404040">
                                <set attributeName="fill" to="#808080" begin="zoomminus.mouseover" end="zoomminus.mouseout"/>
                        </use>
                        <path d="M-4,0h8" fill="none" stroke="white" stroke-width="1.5" pointer-events="none"/>
                </g>
                <g id="dirArrow">
                        <path fill="none" stroke="white" stroke-width="1.5" d="M0,-3.0v7 M-2.5,-0.5L0,-3.0L2.5,-0.5"/>
                </g>
               <g id="resetDef">
                       <use xlink:href="#rim2" fill="#404040">
                               <set attributeName="fill" to="#808080" begin="reset.mouseover" end="reset.mouseout"/>
                       </use>
               </g>
        </defs>

<script type="text/javascript">
var viewWidth = 719;
var viewHeight = 364;
var sectionId = 'dynsection-0';
</script>
<script xlink:href="svgpan.js"/>
<svg id="graph" class="graph">
<g id="viewport">
<title>parser/include/token.h</title>
<polygon fill="#ffffff" stroke="transparent" points="-4,4 -4,-360 714.5,-360 714.5,4 -4,4"/>
<!-- Node0 -->
<g id="node1" class="node">
<title>Node0</title>
<g id="a_node1"><a xlink:title=" ">
<polygon fill="#bfbfbf" stroke="#000000" points="597.5,-336.5 597.5,-355.5 710.5,-355.5 710.5,-336.5 597.5,-336.5"/>
<text text-anchor="middle" x="654" y="-343.5" font-family="Helvetica,sans-Serif" font-size="10.00" fill="#000000">parser/include/token.h</text>
</a>
</g>
</g>
<!-- Node1 -->
<g id="node2" class="node">
<title>Node1</title>
<g id="a_node2"><a xlink:href="builtins_8h.html" target="_top" xlink:title=" ">
<polygon fill="#ffffff" stroke="#000000" points="258,-280.5 258,-299.5 314,-299.5 314,-280.5 258,-280.5"/>
<text text-anchor="middle" x="286" y="-287.5" font-family="Helvetica,sans-Serif" font-size="10.00" fill="#000000">builtins.h</text>
</a>
</g>
</g>
<!-- Node0&#45;&gt;Node1 -->
<g id="edge1" class="edge">
<title>Node0&#45;&gt;Node1</title>
<path fill="none" stroke="#191970" d="M597.3065,-337.3727C521.6772,-325.8639 389.7654,-305.7904 324.638,-295.8797"/>
<polygon fill="#191970" stroke="#191970" points="324.816,-292.3666 314.4033,-294.3222 323.7629,-299.2869 324.816,-292.3666"/>
</g>
<!-- Node7 -->
<g id="node8" class="node">
<title>Node7</title>
<g id="a_node8"><a xlink:title=" ">
<polygon fill="#ffffff" stroke="#bfbfbf" points="550,-.5 550,-19.5 606,-19.5 606,-.5 550,-.5"/>
<text text-anchor="middle" x="578" y="-7.5" font-family="Helvetica,sans-Serif" font-size="10.00" fill="#000000">stdbool.h</text>
</a>
</g>
</g>
<!-- Node0&#45;&gt;Node7 -->
<g id="edge26" class="edge">
<title>Node0&#45;&gt;Node7</title>
<path fill="none" stroke="#191970" d="M659.607,-336.4834C670.1774,-317.6141 692,-273.8343 692,-234 692,-234 692,-234 692,-122 692,-90.7875 688.6639,-79.3929 668,-56 654.1792,-40.3539 633.7671,-29.3156 615.8747,-21.9813"/>
<polygon fill="#191970" stroke="#191970" points="616.8416,-18.6033 606.2516,-18.2821 614.3299,-25.1372 616.8416,-18.6033"/>
</g>
<!-- Node9 -->
<g id="node10" class="node">
<title>Node9</title>
<g id="a_node10"><a xlink:title=" ">
<polygon fill="#ffffff" stroke="#bfbfbf" points="280.5,-.5 280.5,-19.5 329.5,-19.5 329.5,-.5 280.5,-.5"/>
<text text-anchor="middle" x="305" y="-7.5" font-family="Helvetica,sans-Serif" font-size="10.00" fill="#000000">stdint.h</text>
</a>
</g>
</g>
<!-- Node0&#45;&gt;Node9 -->
<g id="edge27" class="edge">
<title>Node0&#45;&gt;Node9</title>
<path fill="none" stroke="#191970" d="M654,-336.4116C654,-317.0538 654,-271.9167 654,-234 654,-234 654,-234 654,-122 654,-56.4186 427.7491,-23.8366 339.5838,-13.6297"/>
<polygon fill="#191970" stroke="#191970" points="339.8707,-10.1399 329.541,-12.4951 339.0849,-17.0956 339.8707,-10.1399"/>
</g>
<!-- Node2 -->
<g id="node3" class="node">
<title>Node2</title>
<g id="a_node3"><a xlink:href="builtinutils_8h.html" target="_top" xlink:title=" ">
<polygon fill="#ffffff" stroke="#000000" points="10,-.5 10,-19.5 78,-19.5 78,-.5 10,-.5"/>
<text text-anchor="middle" x="44" y="-7.5" font-family="Helvetica,sans-Serif" font-size="10.00" fill="#000000">builtinutils.h</text>
</a>
</g>
</g>
<!-- Node1&#45;&gt;Node2 -->
<g id="edge2" class="edge">
<title>Node1&#45;&gt;Node2</title>
<path fill="none" stroke="#191970" d="M257.7466,-288.6232C215.2351,-285.5474 133.2787,-275.6566 72,-244 33.4322,-224.0759 0,-221.4102 0,-178 0,-178 0,-178 0,-122 0,-87.0351 18.8067,-49.9171 31.8293,-28.4062"/>
<polygon fill="#191970" stroke="#191970" points="34.9537,-30.0126 37.3173,-19.6848 29.0291,-26.2845 34.9537,-30.0126"/>
</g>
<!-- Node3 -->
<g id="node4" class="node">
<title>Node3</title>
<g id="a_node4"><a xlink:href="helios__code_8h.html" target="_top" xlink:title=" ">
<polygon fill="#ffffff" stroke="#000000" points="104.5,-224.5 104.5,-243.5 181.5,-243.5 181.5,-224.5 104.5,-224.5"/>
<text text-anchor="middle" x="143" y="-231.5" font-family="Helvetica,sans-Serif" font-size="10.00" fill="#000000">helios_code.h</text>
</a>
</g>
</g>
<!-- Node1&#45;&gt;Node3 -->
<g id="edge3" class="edge">
<title>Node1&#45;&gt;Node3</title>
<path fill="none" stroke="#191970" d="M261.4174,-280.3733C238.0504,-271.2226 202.7138,-257.3844 176.7216,-247.2057"/>
<polygon fill="#191970" stroke="#191970" points="177.8495,-243.8886 167.2618,-243.5011 175.297,-250.4066 177.8495,-243.8886"/>
</g>
<!-- Node4 -->
<g id="node5" class="node">
<title>Node4</title>
<g id="a_node5"><a xlink:href="helios__object_8h.html" target="_top" xlink:title=" ">
<polygon fill="#ffffff" stroke="#000000" points="293,-168.5 293,-187.5 375,-187.5 375,-168.5 293,-168.5"/>
<text text-anchor="middle" x="334" y="-175.5" font-family="Helvetica,sans-Serif" font-size="10.00" fill="#000000">helios_object.h</text>
</a>
</g>
</g>
<!-- Node1&#45;&gt;Node4 -->
<g id="edge20" class="edge">
<title>Node1&#45;&gt;Node4</title>
<path fill="none" stroke="#191970" d="M314.0065,-287.6537C363.2724,-282.8827 462.2077,-270.2067 483,-244 512.4881,-206.8331 439.4098,-190.0386 385.484,-182.8746"/>
<polygon fill="#191970" stroke="#191970" points="385.6854,-179.3726 375.3288,-181.6066 384.818,-186.3187 385.6854,-179.3726"/>
</g>
<!-- Node6 -->
<g id="node7" class="node">
<title>Node6</title>
<g id="a_node7"><a xlink:href="helios__memory_8h.html" target="_top" xlink:title=" ">
<polygon fill="#ffffff" stroke="#000000" points="121,-56.5 121,-75.5 211,-75.5 211,-56.5 121,-56.5"/>
<text text-anchor="middle" x="166" y="-63.5" font-family="Helvetica,sans-Serif" font-size="10.00" fill="#000000">helios_memory.h</text>
</a>
</g>
</g>
<!-- Node1&#45;&gt;Node6 -->
<g id="edge23" class="edge">
<title>Node1&#45;&gt;Node6</title>
<path fill="none" stroke="#191970" d="M257.7129,-287.6987C207.9527,-282.9999 108.022,-270.4357 87,-244 46.0887,-192.5531 112.8779,-116.5882 147.3806,-83.0159"/>
<polygon fill="#191970" stroke="#191970" points="150.1441,-85.2182 154.984,-75.7934 145.3231,-80.1429 150.1441,-85.2182"/>
</g>
<!-- Node11 -->
<g id="node12" class="node">
<title>Node11</title>
<g id="a_node12"><a xlink:href="helios__float_8h.html" target="_top" xlink:title=" ">
<polygon fill="#ffffff" stroke="#000000" points="200,-224.5 200,-243.5 274,-243.5 274,-224.5 200,-224.5"/>
<text text-anchor="middle" x="237" y="-231.5" font-family="Helvetica,sans-Serif" font-size="10.00" fill="#000000">helios_float.h</text>
</a>
</g>
</g>
<!-- Node1&#45;&gt;Node11 -->
<g id="edge13" class="edge">
<title>Node1&#45;&gt;Node11</title>
<path fill="none" stroke="#191970" d="M277.4649,-280.2455C270.5088,-272.2958 260.5117,-260.8706 252.1949,-251.3656"/>
<polygon fill="#191970" stroke="#191970" points="254.6564,-248.8637 245.4373,-243.6427 249.3884,-253.4732 254.6564,-248.8637"/>
</g>
<!-- Node12 -->
<g id="node13" class="node">
<title>Node12</title>
<g id="a_node13"><a xlink:href="helios__hashmap_8h.html" target="_top" xlink:title=" ">
<polygon fill="#ffffff" stroke="#000000" points="530.5,-224.5 530.5,-243.5 625.5,-243.5 625.5,-224.5 530.5,-224.5"/>
<text text-anchor="middle" x="578" y="-231.5" font-family="Helvetica,sans-Serif" font-size="10.00" fill="#000000">helios_hashmap.h</text>
</a>
</g>
</g>
<!-- Node1&#45;&gt;Node12 -->
<g id="edge15" class="edge">
<title>Node1&#45;&gt;Node12</title>
<path fill="none" stroke="#191970" d="M314.2635,-284.5796C361.6483,-275.4921 458.026,-257.0087 520.2246,-245.0802"/>
<polygon fill="#191970" stroke="#191970" points="521.1185,-248.4727 530.2803,-243.1517 519.8,-241.5979 521.1185,-248.4727"/>
</g>
<!-- Node13 -->
<g id="node14" class="node">
<title>Node13</title>
<g id="a_node14"><a xlink:href="helios__integer_8h.html" target="_top" xlink:title=" ">
<polygon fill="#ffffff" stroke="#000000" points="292,-224.5 292,-243.5 376,-243.5 376,-224.5 292,-224.5"/>
<text text-anchor="middle" x="334" y="-231.5" font-family="Helvetica,sans-Serif" font-size="10.00" fill="#000000">helios_integer.h</text>
</a>
</g>
</g>
<!-- Node1&#45;&gt;Node13 -->
<g id="edge18" class="edge">
<title>Node1&#45;&gt;Node13</title>
<path fill="none" stroke="#191970" d="M294.361,-280.2455C301.175,-272.2958 310.9681,-260.8706 319.1152,-251.3656"/>
<polygon fill="#191970" stroke="#191970" points="321.8843,-253.513 325.7349,-243.6427 316.5695,-248.9575 321.8843,-253.513"/>
</g>
<!-- Node14 -->
<g id="node15" class="node">
<title>Node14</title>
<g id="a_node15"><a xlink:href="helios__string_8h.html" target="_top" xlink:title=" ">
<polygon fill="#ffffff" stroke="#000000" points="394,-224.5 394,-243.5 474,-243.5 474,-224.5 394,-224.5"/>
<text text-anchor="middle" x="434" y="-231.5" font-family="Helvetica,sans-Serif" font-size="10.00" fill="#000000">helios_string.h</text>
</a>
</g>
</g>
<!-- Node1&#45;&gt;Node14 -->
<g id="edge21" class="edge">
<title>Node1&#45;&gt;Node14</title>
<path fill="none" stroke="#191970" d="M311.4421,-280.3733C335.7326,-271.1822 372.5208,-257.2624 399.4543,-247.0713"/>
<polygon fill="#191970" stroke="#191970" points="400.7757,-250.3136 408.8899,-243.5011 398.2984,-243.7666 400.7757,-250.3136"/>
</g>
<!-- Node15 -->
<g id="node16" class="node">
<title>Node15</title>
<g id="a_node16"><a xlink:href="serialize_8h.html" target="_top" xlink:title=" ">
<polygon fill="#ffffff" stroke="#000000" points="140.5,-168.5 140.5,-187.5 201.5,-187.5 201.5,-168.5 140.5,-168.5"/>
<text text-anchor="middle" x="171" y="-175.5" font-family="Helvetica,sans-Serif" font-size="10.00" fill="#000000">serialize.h</text>
</a>
</g>
</g>
<!-- Node1&#45;&gt;Node15 -->
<g id="edge24" class="edge">
<title>Node1&#45;&gt;Node15</title>
<path fill="none" stroke="#191970" d="M257.8443,-287.3763C209.9419,-282.2665 115.8317,-269.206 96,-244 79.7386,-223.3318 109.0492,-203.9939 135.6536,-191.6608"/>
<polygon fill="#191970" stroke="#191970" points="137.1316,-194.8343 144.8719,-187.5998 134.3095,-188.4283 137.1316,-194.8343"/>
</g>
<!-- Node3&#45;&gt;Node4 -->
<g id="edge4" class="edge">
<title>Node3&#45;&gt;Node4</title>
<path fill="none" stroke="#191970" d="M175.8341,-224.3733C207.8695,-214.9807 256.7487,-200.6496 291.6855,-190.4064"/>
<polygon fill="#191970" stroke="#191970" points="292.9831,-193.6733 301.5944,-187.5011 291.0136,-186.9561 292.9831,-193.6733"/>
</g>
<!-- Node5 -->
<g id="node6" class="node">
<title>Node5</title>
<g id="a_node6"><a xlink:href="helios__type_8h.html" target="_top" xlink:title=" ">
<polygon fill="#ffffff" stroke="#000000" points="216,-112.5 216,-131.5 290,-131.5 290,-112.5 216,-112.5"/>
<text text-anchor="middle" x="253" y="-119.5" font-family="Helvetica,sans-Serif" font-size="10.00" fill="#000000">helios_type.h</text>
</a>
</g>
</g>
<!-- Node4&#45;&gt;Node5 -->
<g id="edge5" class="edge">
<title>Node4&#45;&gt;Node5</title>
<path fill="none" stroke="#191970" d="M319.8909,-168.2455C307.5791,-159.7337 289.5042,-147.2375 275.2462,-137.3801"/>
<polygon fill="#191970" stroke="#191970" points="277.1634,-134.4506 266.9474,-131.6427 273.1826,-140.2085 277.1634,-134.4506"/>
</g>
<!-- Node5&#45;&gt;Node6 -->
<g id="edge6" class="edge">
<title>Node5&#45;&gt;Node6</title>
<path fill="none" stroke="#191970" d="M237.8458,-112.2455C224.4973,-103.6534 204.8414,-91.0014 189.4617,-81.1018"/>
<polygon fill="#191970" stroke="#191970" points="191.2836,-78.1121 180.9806,-75.6427 187.4949,-83.9982 191.2836,-78.1121"/>
</g>
<!-- Node5&#45;&gt;Node9 -->
<g id="edge11" class="edge">
<title>Node5&#45;&gt;Node9</title>
<path fill="none" stroke="#191970" d="M261.3978,-112.3984C268.7976,-103.5003 279.3986,-89.6206 286,-76 293.1505,-61.2464 298.101,-43.3013 301.152,-29.8493"/>
<polygon fill="#191970" stroke="#191970" points="304.6377,-30.2818 303.2747,-19.775 297.7881,-28.8385 304.6377,-30.2818"/>
</g>
<!-- Node10 -->
<g id="node11" class="node">
<title>Node10</title>
<g id="a_node11"><a xlink:title=" ">
<polygon fill="#ffffff" stroke="#bfbfbf" points="229,-56.5 229,-75.5 277,-75.5 277,-56.5 229,-56.5"/>
<text text-anchor="middle" x="253" y="-63.5" font-family="Helvetica,sans-Serif" font-size="10.00" fill="#000000">stdlib.h</text>
</a>
</g>
</g>
<!-- Node5&#45;&gt;Node10 -->
<g id="edge12" class="edge">
<title>Node5&#45;&gt;Node10</title>
<path fill="none" stroke="#191970" d="M253,-112.2455C253,-104.9382 253,-94.6944 253,-85.7046"/>
<polygon fill="#191970" stroke="#191970" points="256.5001,-85.6426 253,-75.6427 249.5001,-85.6427 256.5001,-85.6426"/>
</g>
<!-- Node6&#45;&gt;Node2 -->
<g id="edge7" class="edge">
<title>Node6&#45;&gt;Node2</title>
<path fill="none" stroke="#191970" d="M145.0275,-56.3733C125.4433,-47.3838 96.0039,-33.8706 73.949,-23.7471"/>
<polygon fill="#191970" stroke="#191970" points="75.2473,-20.4919 64.6989,-19.5011 72.3271,-26.8538 75.2473,-20.4919"/>
</g>
<!-- Node6&#45;&gt;Node7 -->
<g id="edge8" class="edge">
<title>Node6&#45;&gt;Node7</title>
<path fill="none" stroke="#191970" d="M211.0493,-57.4649C214.0753,-56.951 217.08,-56.4576 220,-56 335.8208,-37.8491 473.5547,-21.6604 539.3171,-14.2598"/>
<polygon fill="#191970" stroke="#191970" points="540.0664,-17.6978 549.6147,-13.1067 539.2873,-10.7413 540.0664,-17.6978"/>
</g>
<!-- Node8 -->
<g id="node9" class="node">
<title>Node8</title>
<g id="a_node9"><a xlink:title=" ">
<polygon fill="#ffffff" stroke="#bfbfbf" points="140,-.5 140,-19.5 192,-19.5 192,-.5 140,-.5"/>
<text text-anchor="middle" x="166" y="-7.5" font-family="Helvetica,sans-Serif" font-size="10.00" fill="#000000">stddef.h</text>
</a>
</g>
</g>
<!-- Node6&#45;&gt;Node8 -->
<g id="edge9" class="edge">
<title>Node6&#45;&gt;Node8</title>
<path fill="none" stroke="#191970" d="M166,-56.2455C166,-48.9382 166,-38.6944 166,-29.7046"/>
<polygon fill="#191970" stroke="#191970" points="169.5001,-29.6426 166,-19.6427 162.5001,-29.6427 169.5001,-29.6426"/>
</g>
<!-- Node6&#45;&gt;Node9 -->
<g id="edge10" class="edge">
<title>Node6&#45;&gt;Node9</title>
<path fill="none" stroke="#191970" d="M189.895,-56.3733C212.5082,-47.2629 246.6542,-33.5062 271.8873,-23.3404"/>
<polygon fill="#191970" stroke="#191970" points="273.4493,-26.4845 281.4169,-19.5011 270.8334,-19.9917 273.4493,-26.4845"/>
</g>
<!-- Node11&#45;&gt;Node4 -->
<g id="edge14" class="edge">
<title>Node11&#45;&gt;Node4</title>
<path fill="none" stroke="#191970" d="M253.8961,-224.2455C268.918,-215.5731 291.1043,-202.7645 308.321,-192.825"/>
<polygon fill="#191970" stroke="#191970" points="310.3871,-195.6737 317.2975,-187.6427 306.8872,-189.6114 310.3871,-195.6737"/>
</g>
<!-- Node12&#45;&gt;Node4 -->
<g id="edge16" class="edge">
<title>Node12&#45;&gt;Node4</title>
<path fill="none" stroke="#191970" d="M536.3321,-224.4369C494.4469,-214.8239 429.8206,-199.9916 384.9197,-189.6865"/>
<polygon fill="#191970" stroke="#191970" points="385.6185,-186.256 375.089,-187.4303 384.0526,-193.0786 385.6185,-186.256"/>
</g>
<!-- Node12&#45;&gt;Node7 -->
<g id="edge17" class="edge">
<title>Node12&#45;&gt;Node7</title>
<path fill="none" stroke="#191970" d="M578,-224.375C578,-190.4851 578,-76.2317 578,-29.8332"/>
<polygon fill="#191970" stroke="#191970" points="581.5001,-29.5891 578,-19.5891 574.5001,-29.5892 581.5001,-29.5891"/>
</g>
<!-- Node13&#45;&gt;Node4 -->
<g id="edge19" class="edge">
<title>Node13&#45;&gt;Node4</title>
<path fill="none" stroke="#191970" d="M334,-224.2455C334,-216.9382 334,-206.6944 334,-197.7046"/>
<polygon fill="#191970" stroke="#191970" points="337.5001,-197.6426 334,-187.6427 330.5001,-197.6427 337.5001,-197.6426"/>
</g>
<!-- Node14&#45;&gt;Node4 -->
<g id="edge22" class="edge">
<title>Node14&#45;&gt;Node4</title>
<path fill="none" stroke="#191970" d="M416.5813,-224.2455C400.9515,-215.4928 377.7981,-202.527 359.9815,-192.5496"/>
<polygon fill="#191970" stroke="#191970" points="361.6543,-189.475 351.2191,-187.6427 358.234,-195.5825 361.6543,-189.475"/>
</g>
<!-- Node15&#45;&gt;Node5 -->
<g id="edge25" class="edge">
<title>Node15&#45;&gt;Node5</title>
<path fill="none" stroke="#191970" d="M185.2833,-168.2455C197.747,-159.7337 216.0451,-147.2375 230.4792,-137.3801"/>
<polygon fill="#191970" stroke="#191970" points="232.5962,-140.1726 238.8804,-131.6427 228.6485,-134.392 232.5962,-140.1726"/>
</g>
</g>
</svg>
        <g id="navigator" transform="translate(0 0)" fill="#404254">
                <rect fill="#f2f5e9" fill-opacity="0.5" stroke="#606060" stroke-width=".5" x="0" y="0" width="60" height="60"/>
                <use id="zoomplus" xlink:href="#zoomPlus" x="17" y="9" onmousedown="handleZoom(evt,'in')"/>
                <use id="zoomminus" xlink:href="#zoomMin" x="42" y="9" onmousedown="handleZoom(evt,'out')"/>
                <use id="reset" xlink:href="#resetDef" x="30" y="36" onmousedown="handleReset()"/>
                <g id="arrowUp" xlink:href="#dirArrow" transform="translate(30 24)" onmousedown="handlePan(0,-1)">
                  <use xlink:href="#rim" fill="#404040">
                        <set attributeName="fill" to="#808080" begin="arrowUp.mouseover" end="arrowUp.mouseout"/>
                  </use>
                  <path fill="none" stroke="white" stroke-width="1.5" d="M0,-3.0v7 M-2.5,-0.5L0,-3.0L2.5,-0.5"/>
                </g>
                <g id="arrowRight" xlink:href="#dirArrow" transform="rotate(90) translate(36 -43)" onmousedown="handlePan(1,0)">
                  <use xlink:href="#rim" fill="#404040">
                        <set attributeName="fill" to="#808080" begin="arrowRight.mouseover" end="arrowRight.mouseout"/>
                  </use>
                  <path fill="none" stroke="white" stroke-width="1.5" d="M0,-3.0v7 M-2.5,-0.5L0,-3.0L2.5,-0.5"/>
                </g>
                <g id="arrowDown" xlink:href="#dirArrow" transform="rotate(180) translate(-30 -48)" onmousedown="handlePan(0,1)">
                  <use xlink:href="#rim" fill="#404040">
                        <set attributeName="fill" to="#808080" begin="arrowDown.mouseover" end="arrowDown.mouseout"/>
                  </use>
                  <path fill="none" stroke="white" stroke-width="1.5" d="M0,-3.0v7 M-2.5,-0.5L0,-3.0L2.5,-0.5"/>
                </g>
                <g id="arrowLeft" xlink:href="#dirArrow" transform="rotate(270) translate(-36 17)" onmousedown="handlePan(-1,0)">
                  <use xlink:href="#rim" fill="#404040">
                        <set attributeName="fill" to="#808080" begin="arrowLeft.mouseover" end="arrowLeft.mouseout"/>
                  </use>
                  <path fill="none" stroke="white" stroke-width="1.5" d="M0,-3.0v7 M-2.5,-0.5L0,-3.0L2.5,-0.5"/>
                </g>
        </g>
        <svg viewBox="0 0 15 15" width="100%" height="30px" preserveAspectRatio="xMaxYMin meet">
         <g id="arrow_out" transform="scale(0.3 0.3)">
          <a xlink:href="token_8h__incl_org.svg" target="_base">
           <rect id="button" ry="5" rx="5" y="6" x="6" height="38" width="38"
                fill="#f2f5e9" fill-opacity="0.5" stroke="#606060" stroke-width="1.0"/>
           <path id="arrow"
             d="M 11.500037,31.436501 C 11.940474,20.09759 22.043105,11.32322 32.158766,21.979434 L 37.068811,17.246167 C 37.068811,17.246167 37.088388,32 37.088388,32 L 22.160133,31.978069 C 22.160133,31.978069 26.997745,27.140456 26.997745,27.140456 C 18.528582,18.264221 13.291696,25.230495 11.500037,31.436501 z"
             style="fill:#404040;"/>
          </a>
         </g>
        </svg>
</svg>
