<?xml version="1.0" encoding="UTF-8" standalone="no"?>
<!DOCTYPE svg PUBLIC "-//W3C//DTD SVG 1.1//EN"
 "http://www.w3.org/Graphics/SVG/1.1/DTD/svg11.dtd">
<!-- Generated by graphviz version 2.40.1 (20161225.0304)
 -->
<!-- Title: parser/include/token.h Pages: 1 -->
<svg width="1045pt" height="218pt"
 viewBox="0.00 0.00 1044.50 218.00" xmlns="http://www.w3.org/2000/svg" xmlns:xlink="http://www.w3.org/1999/xlink">
<g id="graph0" class="graph" transform="scale(1 1) rotate(0) translate(4 214)">
<title>parser/include/token.h</title>
<polygon fill="#ffffff" stroke="transparent" points="-4,4 -4,-214 1040.5,-214 1040.5,4 -4,4"/>
<!-- Node17 -->
<g id="node1" class="node">
<title>Node17</title>
<g id="a_node1"><a xlink:title=" ">
<polygon fill="#bfbfbf" stroke="#000000" points="453.5,-190.5 453.5,-209.5 566.5,-209.5 566.5,-190.5 453.5,-190.5"/>
<text text-anchor="middle" x="510" y="-197.5" font-family="Helvetica,sans-Serif" font-size="10.00" fill="#000000">parser/include/token.h</text>
</a>
</g>
</g>
<!-- Node18 -->
<g id="node2" class="node">
<title>Node18</title>
<g id="a_node2"><a xlink:href="AST_8c.html" target="_top" xlink:title=" ">
<polygon fill="#ffffff" stroke="#000000" points="0,-6 0,-25 74,-25 74,-6 0,-6"/>
<text text-anchor="middle" x="37" y="-13" font-family="Helvetica,sans-Serif" font-size="10.00" fill="#000000">parser/AST.c</text>
</a>
</g>
</g>
<!-- Node17&#45;&gt;Node18 -->
<g id="edge1" class="edge">
<title>Node17&#45;&gt;Node18</title>
<path fill="none" stroke="#191970" d="M443.0087,-193.064C370.73,-184.9186 260.7749,-170.4171 222,-154 145.5209,-121.6192 71.7654,-51.0496 46.3328,-25.221"/>
<polygon fill="#191970" stroke="#191970" points="443.0606,-196.5913 453.3865,-194.2191 443.8351,-189.6342 443.0606,-196.5913"/>
</g>
<!-- Node19 -->
<g id="node3" class="node">
<title>Node19</title>
<g id="a_node3"><a xlink:href="AST_8h.html" target="_top" xlink:title=" ">
<polygon fill="#ffffff" stroke="#000000" points="456.5,-134.5 456.5,-153.5 563.5,-153.5 563.5,-134.5 456.5,-134.5"/>
<text text-anchor="middle" x="510" y="-141.5" font-family="Helvetica,sans-Serif" font-size="10.00" fill="#000000">parser/include/AST.h</text>
</a>
</g>
</g>
<!-- Node17&#45;&gt;Node19 -->
<g id="edge2" class="edge">
<title>Node17&#45;&gt;Node19</title>
<path fill="none" stroke="#191970" d="M510,-180.1575C510,-171.155 510,-160.9199 510,-153.6427"/>
<polygon fill="#191970" stroke="#191970" points="506.5001,-180.2455 510,-190.2455 513.5001,-180.2456 506.5001,-180.2455"/>
</g>
<!-- Node24 -->
<g id="node8" class="node">
<title>Node24</title>
<g id="a_node8"><a xlink:href="compound_8c.html" target="_top" xlink:title=" ">
<polygon fill="#ffffff" stroke="#000000" points="92,-.5 92,-30.5 190,-30.5 190,-.5 92,-.5"/>
<text text-anchor="start" x="100" y="-18.5" font-family="Helvetica,sans-Serif" font-size="10.00" fill="#000000">parser/parserfuncs</text>
<text text-anchor="middle" x="141" y="-7.5" font-family="Helvetica,sans-Serif" font-size="10.00" fill="#000000">/compound.c</text>
</a>
</g>
</g>
<!-- Node17&#45;&gt;Node24 -->
<g id="edge24" class="edge">
<title>Node17&#45;&gt;Node24</title>
<path fill="none" stroke="#191970" d="M442.9799,-193.6114C377.0444,-186.3647 281.7774,-173.0298 250,-154 199.0723,-123.5021 162.7354,-59.6898 148.1219,-30.5696"/>
<polygon fill="#191970" stroke="#191970" points="442.9788,-197.1315 453.2961,-194.7222 443.7282,-190.1717 442.9788,-197.1315"/>
</g>
<!-- Node25 -->
<g id="node9" class="node">
<title>Node25</title>
<g id="a_node9"><a xlink:href="expressions_8c.html" target="_top" xlink:title=" ">
<polygon fill="#ffffff" stroke="#000000" points="801,-.5 801,-30.5 899,-30.5 899,-.5 801,-.5"/>
<text text-anchor="start" x="809" y="-18.5" font-family="Helvetica,sans-Serif" font-size="10.00" fill="#000000">parser/parserfuncs</text>
<text text-anchor="middle" x="850" y="-7.5" font-family="Helvetica,sans-Serif" font-size="10.00" fill="#000000">/expressions.c</text>
</a>
</g>
</g>
<!-- Node17&#45;&gt;Node25 -->
<g id="edge25" class="edge">
<title>Node17&#45;&gt;Node25</title>
<path fill="none" stroke="#191970" d="M576.4848,-189.881C610.5587,-182.9274 651.9355,-171.6683 686,-154 749.8482,-120.8838 810.6387,-58.9807 836.6923,-30.5184"/>
<polygon fill="#191970" stroke="#191970" points="575.7606,-186.4563 566.6218,-191.8165 577.1086,-193.3253 575.7606,-186.4563"/>
</g>
<!-- Node26 -->
<g id="node10" class="node">
<title>Node26</title>
<g id="a_node10"><a xlink:href="floats_8c.html" target="_top" xlink:title=" ">
<polygon fill="#ffffff" stroke="#000000" points="208,-.5 208,-30.5 306,-30.5 306,-.5 208,-.5"/>
<text text-anchor="start" x="216" y="-18.5" font-family="Helvetica,sans-Serif" font-size="10.00" fill="#000000">parser/parserfuncs</text>
<text text-anchor="middle" x="257" y="-7.5" font-family="Helvetica,sans-Serif" font-size="10.00" fill="#000000">/floats.c</text>
</a>
</g>
</g>
<!-- Node17&#45;&gt;Node26 -->
<g id="edge26" class="edge">
<title>Node17&#45;&gt;Node26</title>
<path fill="none" stroke="#191970" d="M443.278,-195.1833C397.8143,-189.7754 337.3383,-178.3071 289,-154 255.5306,-137.1698 241.3468,-132.175 226,-98 215.6578,-74.9695 231.5254,-47.3545 244.113,-30.6321"/>
<polygon fill="#191970" stroke="#191970" points="442.9963,-198.6735 453.324,-196.3092 443.7761,-191.7171 442.9963,-198.6735"/>
</g>
<!-- Node27 -->
<g id="node11" class="node">
<title>Node27</title>
<g id="a_node11"><a xlink:href="integers_8c.html" target="_top" xlink:title=" ">
<polygon fill="#ffffff" stroke="#000000" points="367,-.5 367,-30.5 465,-30.5 465,-.5 367,-.5"/>
<text text-anchor="start" x="375" y="-18.5" font-family="Helvetica,sans-Serif" font-size="10.00" fill="#000000">parser/parserfuncs</text>
<text text-anchor="middle" x="416" y="-7.5" font-family="Helvetica,sans-Serif" font-size="10.00" fill="#000000">/integers.c</text>
</a>
</g>
</g>
<!-- Node17&#45;&gt;Node27 -->
<g id="edge27" class="edge">
<title>Node17&#45;&gt;Node27</title>
<path fill="none" stroke="#191970" d="M457.9621,-188.0867C385.9902,-170.4352 261.9667,-135.374 236,-98 228.1387,-86.6851 227.7051,-78.001 236,-67 251.8019,-46.0429 319.3033,-31.0316 366.9851,-22.8048"/>
<polygon fill="#191970" stroke="#191970" points="457.2135,-191.5065 467.7566,-190.4603 458.8622,-184.7034 457.2135,-191.5065"/>
</g>
<!-- Node28 -->
<g id="node12" class="node">
<title>Node28</title>
<g id="a_node12"><a xlink:href="parser_8c.html" target="_top" xlink:title=" ">
<polygon fill="#ffffff" stroke="#000000" points="917,-.5 917,-30.5 1015,-30.5 1015,-.5 917,-.5"/>
<text text-anchor="start" x="925" y="-18.5" font-family="Helvetica,sans-Serif" font-size="10.00" fill="#000000">parser/parserfuncs</text>
<text text-anchor="middle" x="966" y="-7.5" font-family="Helvetica,sans-Serif" font-size="10.00" fill="#000000">/parser.c</text>
</a>
</g>
</g>
<!-- Node17&#45;&gt;Node28 -->
<g id="edge28" class="edge">
<title>Node17&#45;&gt;Node28</title>
<path fill="none" stroke="#191970" d="M576.5761,-190.2451C617.8717,-182.9709 671.5374,-171.2754 717,-154 806.0131,-120.1758 901.9518,-58.9075 944.0696,-30.5938"/>
<polygon fill="#191970" stroke="#191970" points="575.888,-186.8119 566.6251,-191.9548 577.0734,-193.7108 575.888,-186.8119"/>
</g>
<!-- Node29 -->
<g id="node13" class="node">
<title>Node29</title>
<g id="a_node13"><a xlink:href="strings_8c.html" target="_top" xlink:title=" ">
<polygon fill="#ffffff" stroke="#000000" points="685,-.5 685,-30.5 783,-30.5 783,-.5 685,-.5"/>
<text text-anchor="start" x="693" y="-18.5" font-family="Helvetica,sans-Serif" font-size="10.00" fill="#000000">parser/parserfuncs</text>
<text text-anchor="middle" x="734" y="-7.5" font-family="Helvetica,sans-Serif" font-size="10.00" fill="#000000">/strings.c</text>
</a>
</g>
</g>
<!-- Node17&#45;&gt;Node29 -->
<g id="edge29" class="edge">
<title>Node17&#45;&gt;Node29</title>
<path fill="none" stroke="#191970" d="M569.648,-187.8992C618.9591,-174.6046 686.5852,-148.1151 723,-98 737.3547,-78.2446 737.5506,-48.6185 736.0259,-30.7636"/>
<polygon fill="#191970" stroke="#191970" points="568.5389,-184.5708 559.7333,-190.4625 570.2911,-191.348 568.5389,-184.5708"/>
</g>
<!-- Node31 -->
<g id="node15" class="node">
<title>Node31</title>
<g id="a_node15"><a xlink:href="token_8c.html" target="_top" xlink:title=" ">
<polygon fill="#ffffff" stroke="#000000" points="957.5,-134.5 957.5,-153.5 1036.5,-153.5 1036.5,-134.5 957.5,-134.5"/>
<text text-anchor="middle" x="997" y="-141.5" font-family="Helvetica,sans-Serif" font-size="10.00" fill="#000000">parser/token.c</text>
</a>
</g>
</g>
<!-- Node17&#45;&gt;Node31 -->
<g id="edge30" class="edge">
<title>Node17&#45;&gt;Node31</title>
<path fill="none" stroke="#191970" d="M576.622,-194.5324C661.8147,-187.1716 813.7835,-172.7995 943,-154 947.6232,-153.3274 952.4549,-152.5459 957.246,-151.7218"/>
<polygon fill="#191970" stroke="#191970" points="576.2338,-191.0527 566.5697,-195.3951 576.8324,-198.0271 576.2338,-191.0527"/>
</g>
<!-- Node19&#45;&gt;Node18 -->
<g id="edge6" class="edge">
<title>Node19&#45;&gt;Node18</title>
<path fill="none" stroke="#191970" d="M446.1921,-138.0395C364.5243,-129.9044 227.8732,-114.4454 180,-98 127.9547,-80.1214 73.5398,-42.6545 49.5852,-25.0384"/>
<polygon fill="#191970" stroke="#191970" points="446.0625,-141.5436 456.3579,-139.0426 446.7499,-134.5774 446.0625,-141.5436"/>
</g>
<!-- Node20 -->
<g id="node4" class="node">
<title>Node20</title>
<g id="a_node4"><a xlink:href="helios__code_8c.html" target="_top" xlink:title=" ">
<polygon fill="#ffffff" stroke="#000000" points="245,-67.5 245,-97.5 345,-97.5 345,-67.5 245,-67.5"/>
<text text-anchor="start" x="253" y="-85.5" font-family="Helvetica,sans-Serif" font-size="10.00" fill="#000000">builtins/code/helios</text>
<text text-anchor="middle" x="295" y="-74.5" font-family="Helvetica,sans-Serif" font-size="10.00" fill="#000000">_code.c</text>
</a>
</g>
</g>
<!-- Node19&#45;&gt;Node20 -->
<g id="edge3" class="edge">
<title>Node19&#45;&gt;Node20</title>
<path fill="none" stroke="#191970" d="M466.4501,-131.5427C431.3301,-121.4967 381.9031,-107.3583 345.1366,-96.8414"/>
<polygon fill="#191970" stroke="#191970" points="465.8293,-135.0054 476.4063,-134.3906 467.7544,-128.2754 465.8293,-135.0054"/>
</g>
<!-- Node21 -->
<g id="node5" class="node">
<title>Node21</title>
<g id="a_node5"><a xlink:href="helios__instruction_8c.html" target="_top" xlink:title=" ">
<polygon fill="#ffffff" stroke="#000000" points="363,-67.5 363,-97.5 463,-97.5 463,-67.5 363,-67.5"/>
<text text-anchor="start" x="371" y="-85.5" font-family="Helvetica,sans-Serif" font-size="10.00" fill="#000000">builtins/code/helios</text>
<text text-anchor="middle" x="413" y="-74.5" font-family="Helvetica,sans-Serif" font-size="10.00" fill="#000000">_instruction.c</text>
</a>
</g>
</g>
<!-- Node19&#45;&gt;Node21 -->
<g id="edge4" class="edge">
<title>Node19&#45;&gt;Node21</title>
<path fill="none" stroke="#191970" d="M486.1119,-128.8545C471.0727,-119.3193 451.7376,-107.0605 436.7289,-97.5446"/>
<polygon fill="#191970" stroke="#191970" points="484.524,-131.9919 494.8438,-134.3906 488.2723,-126.08 484.524,-131.9919"/>
</g>
<!-- Node22 -->
<g id="node6" class="node">
<title>Node22</title>
<g id="a_node6"><a xlink:href="main_8c.html" target="_top" xlink:title=" ">
<polygon fill="#ffffff" stroke="#000000" points="483,-6 483,-25 553,-25 553,-6 483,-6"/>
<text text-anchor="middle" x="518" y="-13" font-family="Helvetica,sans-Serif" font-size="10.00" fill="#000000">main/main.c</text>
</a>
</g>
</g>
<!-- Node19&#45;&gt;Node22 -->
<g id="edge5" class="edge">
<title>Node19&#45;&gt;Node22</title>
<path fill="none" stroke="#191970" d="M511.2343,-124.1733C512.9744,-96.2236 516.0823,-46.3037 517.3917,-25.2705"/>
<polygon fill="#191970" stroke="#191970" points="507.7295,-124.1434 510.6013,-134.3416 514.716,-124.5784 507.7295,-124.1434"/>
</g>
<!-- Node23 -->
<g id="node7" class="node">
<title>Node23</title>
<g id="a_node7"><a xlink:href="parser_8h.html" target="_top" xlink:title=" ">
<polygon fill="#ffffff" stroke="#000000" points="557.5,-73 557.5,-92 672.5,-92 672.5,-73 557.5,-73"/>
<text text-anchor="middle" x="615" y="-80" font-family="Helvetica,sans-Serif" font-size="10.00" fill="#000000">parser/include/parser.h</text>
</a>
</g>
</g>
<!-- Node19&#45;&gt;Node23 -->
<g id="edge7" class="edge">
<title>Node19&#45;&gt;Node23</title>
<path fill="none" stroke="#191970" d="M535.1684,-129.2585C554.8817,-117.7122 581.7243,-101.99 598.709,-92.0419"/>
<polygon fill="#191970" stroke="#191970" points="533.2662,-126.3164 526.4063,-134.3906 536.804,-132.3566 533.2662,-126.3164"/>
</g>
<!-- Node19&#45;&gt;Node24 -->
<g id="edge17" class="edge">
<title>Node19&#45;&gt;Node24</title>
<path fill="none" stroke="#191970" d="M446.0363,-138.2258C374.1831,-130.9493 262.6735,-117.0519 225,-98 193.261,-81.9492 165.8613,-49.6045 151.5648,-30.5305"/>
<polygon fill="#191970" stroke="#191970" points="446.0388,-141.7433 456.3363,-139.2512 446.7323,-134.7777 446.0388,-141.7433"/>
</g>
<!-- Node19&#45;&gt;Node25 -->
<g id="edge18" class="edge">
<title>Node19&#45;&gt;Node25</title>
<path fill="none" stroke="#191970" d="M573.815,-136.4012C617.1098,-129.7714 674.9825,-117.9851 723,-98 764.751,-80.6231 807.7289,-49.3546 831.438,-30.7055"/>
<polygon fill="#191970" stroke="#191970" points="573.0762,-132.9723 563.696,-137.8979 574.1005,-139.897 573.0762,-132.9723"/>
</g>
<!-- Node19&#45;&gt;Node26 -->
<g id="edge19" class="edge">
<title>Node19&#45;&gt;Node26</title>
<path fill="none" stroke="#191970" d="M446.1787,-137.6145C369.5123,-129.2886 249.4551,-113.9023 236,-98 219.7709,-78.8192 234.3566,-48.7321 245.9879,-30.682"/>
<polygon fill="#191970" stroke="#191970" points="445.9129,-141.106 456.2292,-138.6927 446.6596,-134.146 445.9129,-141.106"/>
</g>
<!-- Node19&#45;&gt;Node27 -->
<g id="edge20" class="edge">
<title>Node19&#45;&gt;Node27</title>
<path fill="none" stroke="#191970" d="M502.868,-124.8379C496.2812,-108.5496 485.4885,-85.0096 472,-67 461.7066,-53.2564 447.4265,-40.1906 435.8631,-30.6584"/>
<polygon fill="#191970" stroke="#191970" points="499.6866,-126.3138 506.5752,-134.3635 506.21,-123.775 499.6866,-126.3138"/>
</g>
<!-- Node19&#45;&gt;Node28 -->
<g id="edge21" class="edge">
<title>Node19&#45;&gt;Node28</title>
<path fill="none" stroke="#191970" d="M573.8382,-136.2004C625.725,-128.9675 700.469,-116.5062 764,-98 826.3744,-79.8307 895.8335,-48.9798 934.8916,-30.593"/>
<polygon fill="#191970" stroke="#191970" points="573.2087,-132.7539 563.7757,-137.5776 574.158,-139.6892 573.2087,-132.7539"/>
</g>
<!-- Node19&#45;&gt;Node29 -->
<g id="edge22" class="edge">
<title>Node19&#45;&gt;Node29</title>
<path fill="none" stroke="#191970" d="M573.6506,-134.6128C620.5098,-126.5829 679.1991,-113.8246 698,-98 718.564,-80.6914 727.7461,-49.3994 731.5578,-30.7276"/>
<polygon fill="#191970" stroke="#191970" points="572.8325,-131.201 563.5473,-136.3034 573.9878,-138.105 572.8325,-131.201"/>
</g>
<!-- Node30 -->
<g id="node14" class="node">
<title>Node30</title>
<g id="a_node14"><a xlink:href="parserutil_8c.html" target="_top" xlink:title=" ">
<polygon fill="#ffffff" stroke="#000000" points="571.5,-6 571.5,-25 666.5,-25 666.5,-6 571.5,-6"/>
<text text-anchor="middle" x="619" y="-13" font-family="Helvetica,sans-Serif" font-size="10.00" fill="#000000">parser/parserutil.c</text>
</a>
</g>
</g>
<!-- Node19&#45;&gt;Node30 -->
<g id="edge23" class="edge">
<title>Node19&#45;&gt;Node30</title>
<path fill="none" stroke="#191970" d="M573.9512,-135.008C616.8162,-127.5205 667.7541,-115.2801 681,-98 701.056,-71.8359 660.2522,-40.6631 635.7136,-25.198"/>
<polygon fill="#191970" stroke="#191970" points="573.0994,-131.6022 563.8212,-136.7173 574.2642,-138.5046 573.0994,-131.6022"/>
</g>
<!-- Node23&#45;&gt;Node18 -->
<g id="edge9" class="edge">
<title>Node23&#45;&gt;Node18</title>
<path fill="none" stroke="#191970" d="M547.282,-74.9398C523.4891,-72.3419 496.5672,-69.4681 472,-67 299.2419,-49.6444 252.8621,-66.9643 83,-31 76.0746,-29.5337 68.7414,-27.3608 62.0135,-25.103"/>
<polygon fill="#191970" stroke="#191970" points="546.9496,-78.4242 557.2713,-76.0343 547.7121,-71.4659 546.9496,-78.4242"/>
</g>
<!-- Node23&#45;&gt;Node22 -->
<g id="edge8" class="edge">
<title>Node23&#45;&gt;Node22</title>
<path fill="none" stroke="#191970" d="M592.8295,-67.1864C574.0736,-54.2312 547.7794,-36.0693 531.872,-25.0817"/>
<polygon fill="#191970" stroke="#191970" points="590.8851,-70.097 601.1023,-72.9005 594.8634,-64.3374 590.8851,-70.097"/>
</g>
<!-- Node23&#45;&gt;Node24 -->
<g id="edge10" class="edge">
<title>Node23&#45;&gt;Node24</title>
<path fill="none" stroke="#191970" d="M547.1103,-75.2484C446.8398,-64.3412 264.0049,-43.6471 199,-31 196.1353,-30.4427 193.2035,-29.8218 190.2533,-29.158"/>
<polygon fill="#191970" stroke="#191970" points="546.8217,-78.7375 557.1409,-76.3368 547.5769,-71.7784 546.8217,-78.7375"/>
</g>
<!-- Node23&#45;&gt;Node25 -->
<g id="edge11" class="edge">
<title>Node23&#45;&gt;Node25</title>
<path fill="none" stroke="#191970" d="M658.4785,-70.104C698.8129,-58.6044 758.7793,-41.5076 800.8392,-29.5161"/>
<polygon fill="#191970" stroke="#191970" points="657.3269,-66.7928 648.6698,-72.9005 659.2462,-73.5245 657.3269,-66.7928"/>
</g>
<!-- Node23&#45;&gt;Node26 -->
<g id="edge12" class="edge">
<title>Node23&#45;&gt;Node26</title>
<path fill="none" stroke="#191970" d="M554.0857,-71.0998C484.0812,-57.9984 370.5702,-36.7548 306.0131,-24.6728"/>
<polygon fill="#191970" stroke="#191970" points="553.6143,-74.5723 564.0875,-72.9717 554.9021,-67.6918 553.6143,-74.5723"/>
</g>
<!-- Node23&#45;&gt;Node27 -->
<g id="edge13" class="edge">
<title>Node23&#45;&gt;Node27</title>
<path fill="none" stroke="#191970" d="M576.7006,-69.6052C543.5284,-58.4367 495.5175,-42.2722 460.6169,-30.5218"/>
<polygon fill="#191970" stroke="#191970" points="575.8941,-73.0267 586.4882,-72.9005 578.1277,-66.3926 575.8941,-73.0267"/>
</g>
<!-- Node23&#45;&gt;Node28 -->
<g id="edge14" class="edge">
<title>Node23&#45;&gt;Node28</title>
<path fill="none" stroke="#191970" d="M682.5974,-72.3334C742.1961,-62.9624 831.2474,-47.9672 908,-31 910.8496,-30.3701 913.7697,-29.6925 916.7108,-28.9853"/>
<polygon fill="#191970" stroke="#191970" points="681.8971,-68.9003 672.5576,-73.9026 682.9782,-75.8163 681.8971,-68.9003"/>
</g>
<!-- Node23&#45;&gt;Node29 -->
<g id="edge15" class="edge">
<title>Node23&#45;&gt;Node29</title>
<path fill="none" stroke="#191970" d="M640.7823,-67.9839C660.4442,-56.9138 687.4389,-41.7151 707.3196,-30.5218"/>
<polygon fill="#191970" stroke="#191970" points="639.0465,-64.9446 632.0498,-72.9005 642.4808,-71.0442 639.0465,-64.9446"/>
</g>
<!-- Node23&#45;&gt;Node30 -->
<g id="edge16" class="edge">
<title>Node23&#45;&gt;Node30</title>
<path fill="none" stroke="#191970" d="M616.1876,-62.6079C616.9275,-50.214 617.8462,-34.8263 618.428,-25.0817"/>
<polygon fill="#191970" stroke="#191970" points="612.6754,-62.7097 615.5731,-72.9005 619.6629,-63.1269 612.6754,-62.7097"/>
</g>
</g>
</svg>
